<svg width="35" height="35" viewBox="0 0 35 35" fill="none" xmlns="http://www.w3.org/2000/svg">
<path d="M16.7138 1.18942C16.3378 1.36032 15.9618 1.74313 15.8182 2.09177C15.6952 2.38571 15.6952 3.08298 15.8182 3.37692C15.955 3.71189 16.3583 4.12888 16.6796 4.27243L16.953 4.39548V5.72165C16.953 6.44626 16.9462 7.04099 16.9325 7.04099C16.9188 7.04099 16.6522 6.95212 16.3378 6.83591C15.6337 6.58982 15.08 6.56931 14.6425 6.76755C14.4784 6.84274 14.0751 7.16403 13.7401 7.48532C13.0634 8.13474 12.8788 8.23728 12.2362 8.2988C11.5595 8.37399 11.0673 8.47653 10.7938 8.62009C10.5546 8.7363 10.1649 9.11911 10.0966 9.31052C10.0761 9.36521 9.5702 8.9072 8.72255 8.06638L7.37587 6.72653L7.52626 6.39157C7.74501 5.89255 7.73817 5.21579 7.50575 4.70993C7.17079 3.98532 6.52821 3.54099 5.72841 3.49997C3.68446 3.37692 2.69325 5.81052 4.23134 7.19138C4.84657 7.75192 5.61903 7.86814 6.39833 7.52634L6.72645 7.37595L8.18251 8.832C9.00282 9.64548 9.63856 10.3427 9.63856 10.4111C9.63856 10.4795 9.57704 10.6572 9.50184 10.8076C9.39247 11.0195 9.20106 11.1836 8.6952 11.5185C7.94325 12.0107 7.57411 12.3593 7.41688 12.7285C7.30751 12.9951 7.29384 13.6035 7.37587 14.4238C7.43739 15.0322 7.36903 15.2783 6.97938 15.9277C6.78798 16.2353 6.60341 16.5908 6.56239 16.7207L6.48036 16.9531H5.4413H4.3954L4.27235 16.6797C4.1288 16.3584 3.7118 15.955 3.37684 15.8183C3.0829 15.6953 2.38563 15.6953 2.09169 15.8183C1.05946 16.249 0.703991 17.5752 1.38758 18.4707C2.16688 19.4892 3.73231 19.3115 4.29286 18.1357L4.40223 17.9101H5.4413H6.48036L6.59657 18.1972C6.65809 18.3613 6.86317 18.7373 7.04774 19.0381C7.42372 19.6533 7.43055 19.6943 7.34852 20.8633C7.25966 22.1758 7.44423 22.5176 8.62684 23.2832C9.27626 23.707 9.52235 23.9599 9.61805 24.3291C9.65223 24.4658 9.52235 24.6162 8.74989 25.3955L7.84071 26.3047L7.61512 26.209C7.29384 26.0722 6.65126 26.0927 6.32313 26.2431C6.00184 26.3867 5.64637 26.7217 5.48915 27.0224C5.42762 27.1455 5.3661 27.4463 5.34559 27.6992C5.31825 28.1025 5.33876 28.2119 5.49598 28.5332C5.71473 28.9707 6.04969 29.2783 6.48719 29.4287C7.84071 29.8867 9.12587 28.5879 8.64735 27.2412L8.55165 26.9677L9.28309 26.2295C9.67958 25.8261 10.0282 25.498 10.0487 25.498C10.0692 25.498 10.1649 25.6142 10.2675 25.7578C10.5341 26.1338 11.0194 26.373 11.703 26.4619C12.9882 26.6328 12.9266 26.6054 13.6649 27.3027C14.4032 28 14.6972 28.1709 15.2235 28.2187C15.5448 28.2461 16.2079 28.0957 16.8505 27.8496C16.9393 27.8154 16.953 27.9863 16.953 29.1416V30.4746L16.7958 30.5156C16.5429 30.5771 15.9891 31.1035 15.8524 31.4111C15.5585 32.0468 15.7704 32.9697 16.3104 33.4209C17.4179 34.3301 19.12 33.5576 19.1405 32.1357C19.1474 31.4795 18.7577 30.8506 18.1903 30.5908L17.91 30.4677V29.1347C17.91 28.0615 17.9306 27.8154 17.9989 27.8427C18.5048 28.0342 19.2772 28.2324 19.537 28.2324C20.036 28.2324 20.4872 27.9795 21.205 27.289C21.9159 26.6123 21.8681 26.6328 23.1532 26.4687C23.8368 26.3799 24.1649 26.2158 24.5341 25.7988L24.8143 25.4775L25.1561 25.7988C25.539 26.1543 25.703 26.1885 25.9423 25.9424C26.2089 25.6826 26.161 25.5322 25.6278 24.9853L25.1493 24.4863L25.2587 24.2265C25.4091 23.8574 25.58 23.6933 26.2499 23.2627C27.4872 22.4629 27.6444 22.1211 27.4804 20.6103L27.3983 19.8174L27.6034 19.4277C27.7128 19.2158 27.9384 18.7851 28.1024 18.4707L28.3895 17.9101H29.4286H30.4677L30.5907 18.1904C30.7479 18.539 31.2196 18.956 31.5683 19.0586C32.3817 19.3047 33.1952 18.9765 33.5849 18.2588C34.2274 17.0761 33.4276 15.7226 32.0946 15.7226C31.8417 15.7226 31.5751 15.7773 31.411 15.8525C31.1034 15.9892 30.577 16.5429 30.5155 16.7959C30.4745 16.9531 30.4677 16.9531 29.4286 16.9531H28.3827L28.1366 16.4541C27.9999 16.1875 27.7811 15.7568 27.6444 15.5039L27.3915 15.0459L27.4804 14.2256C27.6444 12.7285 27.4667 12.3593 26.1815 11.5322C25.5184 11.1084 25.4159 11.0127 25.2655 10.6299L25.1493 10.3633L26.9882 8.52439L28.827 6.68552L29.2509 6.83591C30.2079 7.19138 31.2401 6.76071 31.6981 5.82419C32.2177 4.76462 31.6981 3.49314 30.577 3.07614C29.8183 2.78903 29.1073 2.9531 28.5058 3.54099C28.1913 3.8486 28.0819 4.01267 27.9999 4.29978C27.8563 4.78513 27.8632 5.1406 28.0272 5.60544L28.1571 5.98142L26.4686 7.67673C25.0126 9.13278 24.7733 9.35153 24.7118 9.24899C24.452 8.79099 23.7821 8.40817 23.2352 8.40817C22.8456 8.40817 22.6268 8.69528 22.7567 9.03708C22.8183 9.20114 23.0097 9.31052 23.4061 9.39939C23.7274 9.46774 23.9462 9.77536 24.1923 10.4795C24.5546 11.539 24.7802 11.8125 25.7577 12.4072C25.997 12.5508 26.2841 12.7763 26.4003 12.9131L26.6122 13.1523L26.5507 13.7675C26.4618 14.6699 26.4755 15.3125 26.5917 15.5859C26.6464 15.7158 26.8651 16.1191 27.0907 16.4746C27.6239 17.3359 27.6171 17.5136 27.0155 18.4843C26.4755 19.3525 26.414 19.6533 26.5233 20.665C26.6532 21.8271 26.6122 21.9023 25.6347 22.5244C24.7528 23.0781 24.5546 23.331 24.1718 24.3906C23.83 25.3476 23.7274 25.4433 22.9345 25.5322C21.622 25.6758 21.3827 25.7783 20.6102 26.5234C19.6942 27.4052 19.7147 27.3984 18.6141 27.0224C17.6161 26.6875 17.1854 26.6875 16.2079 27.0293C15.1415 27.3984 15.1688 27.4052 14.2391 26.5166C13.5009 25.8193 13.2206 25.6894 12.202 25.5664C11.0878 25.4365 11.0057 25.3681 10.5888 24.1787C10.3016 23.372 10.0761 23.0849 9.29677 22.5791C8.9413 22.3398 8.55848 22.0527 8.44911 21.9365L8.25087 21.7177L8.31239 20.9248C8.40809 19.5234 8.35341 19.2773 7.73134 18.3271C7.58094 18.081 7.41688 17.7666 7.36903 17.623C7.30067 17.3906 7.31434 17.3291 7.49891 16.9736C7.60829 16.7549 7.82704 16.3584 7.98426 16.0918C8.35341 15.4834 8.40809 15.1279 8.31923 14.0888C8.22352 12.9883 8.23036 12.9746 9.20106 12.332C10.1171 11.7304 10.288 11.5117 10.664 10.4863C10.9306 9.74118 11.0673 9.52927 11.327 9.42673C11.4091 9.39939 11.8329 9.32419 12.2636 9.2695C13.2684 9.13962 13.535 9.0029 14.3759 8.20993C15.162 7.47165 15.1893 7.46482 16.2694 7.82712C16.7821 7.99802 17.0966 8.06638 17.411 8.06638C17.7186 8.06638 18.0604 7.99802 18.5868 7.82712C19.6737 7.47849 19.7147 7.48532 20.371 8.11423C20.8153 8.53806 20.9657 8.63376 21.1366 8.63376C21.3895 8.63376 21.6015 8.41501 21.6015 8.14841C21.6015 7.91599 20.6444 6.95896 20.2206 6.76755C19.7216 6.54196 18.9354 6.62399 18.0331 7.00681C17.9169 7.05466 17.91 6.96579 17.91 5.72849V4.40232L18.1356 4.29294C18.5116 4.11521 18.8124 3.81442 18.9765 3.45212C19.6464 2.03024 18.1425 0.519501 16.7138 1.18942ZM17.9647 2.20798C18.0741 2.31735 18.1425 2.48142 18.163 2.69333C18.1972 2.98044 18.1835 3.02146 17.9579 3.24704C17.7597 3.44528 17.6708 3.4863 17.4247 3.4863C16.9599 3.47946 16.6796 3.18552 16.6796 2.71384C16.6796 2.45407 16.8847 2.14645 17.1171 2.04391C17.3563 1.94138 17.7802 2.02341 17.9647 2.20798ZM30.3515 4.0195C30.6317 4.15622 30.8642 4.48435 30.9257 4.82614C30.9872 5.12009 30.7616 5.62595 30.4813 5.83103C30.0302 6.15915 29.2304 5.96774 28.9706 5.46872C28.6972 4.94919 28.8954 4.29294 29.4081 4.04001C29.7636 3.86228 30.037 3.85544 30.3515 4.0195ZM6.1454 4.58005C6.79481 4.90817 6.95887 5.78317 6.47352 6.33689C6.08387 6.78122 5.60536 6.87692 5.07899 6.62399C4.64833 6.41892 4.41591 5.99509 4.45692 5.5029C4.52528 4.66208 5.38661 4.1904 6.1454 4.58005ZM3.09657 16.7549C3.35633 16.8847 3.48622 17.1035 3.48622 17.4179C3.48622 17.6709 3.4452 17.7597 3.24696 17.958C3.02137 18.1836 2.98036 18.1972 2.69325 18.1631C2.22841 18.1152 2.01649 17.8759 2.01649 17.4248C2.01649 17.1172 2.04384 17.0556 2.24208 16.8779C2.48134 16.666 2.82313 16.6181 3.09657 16.7549ZM32.5526 16.8164C32.8261 17.0283 32.9149 17.3154 32.8192 17.6435C32.621 18.3134 31.7118 18.3681 31.411 17.7324C31.1718 17.2265 31.5272 16.6797 32.0946 16.6797C32.2792 16.6797 32.4433 16.7275 32.5526 16.8164ZM7.46473 27.1523C7.64247 27.2412 7.79286 27.5693 7.79286 27.8564C7.79286 28.1435 7.51942 28.4717 7.21864 28.5468C6.78114 28.6562 6.28895 28.2871 6.28895 27.8564C6.28895 27.4326 6.48036 27.1797 6.90419 27.0498C7.0204 27.0088 7.29384 27.0635 7.46473 27.1523ZM17.746 31.4179C18.3681 31.7119 18.2997 32.6211 17.6434 32.8193C17.1376 32.9697 16.6796 32.6347 16.6796 32.1015C16.6796 31.7666 16.8231 31.5342 17.1171 31.4043C17.3974 31.2881 17.4657 31.2881 17.746 31.4179Z" fill="#06103B"/>
<path d="M13.5969 10.6845C13.0227 10.9033 12.5647 11.4707 12.469 12.0791C12.3665 12.7627 12.7698 13.5146 13.4124 13.8359C14.3967 14.3281 15.6067 13.7744 15.8596 12.7148C15.969 12.2568 15.9006 11.8535 15.634 11.4092C15.3264 10.8965 14.8958 10.6367 14.2942 10.6162C14.0344 10.6025 13.7405 10.6367 13.5969 10.6845ZM14.6018 11.6826C15.2376 12.0722 14.9368 13.0566 14.1848 13.0566C13.8294 13.0566 13.5764 12.872 13.467 12.5439C13.3098 12.0586 13.6721 11.5527 14.1848 11.5527C14.301 11.5527 14.4856 11.6142 14.6018 11.6826Z" fill="#06103B"/>
<path d="M21.8337 14.7724C21.4098 14.8955 20.9655 15.2578 20.7604 15.6543C20.5895 15.9824 20.569 16.0849 20.5895 16.5156C20.6169 17.1513 20.863 17.5752 21.3893 17.8896C21.8337 18.1562 22.237 18.2246 22.695 18.1152C23.7546 17.8623 24.3083 16.6523 23.8161 15.6679C23.4469 14.9297 22.6061 14.5468 21.8337 14.7724ZM22.5856 15.75C22.8932 15.8799 23.0368 16.1054 23.0368 16.4472C23.0368 16.9736 22.5514 17.3222 22.0387 17.1582C21.4167 16.9531 21.3688 16.0166 21.9635 15.7568C22.2438 15.6338 22.3053 15.6338 22.5856 15.75Z" fill="#06103B"/>
<path d="M13.5346 18.8398C13.0698 18.9629 12.5092 19.3389 12.2358 19.708C11.8803 20.1865 11.7436 20.6719 11.771 21.2939C11.7983 21.9707 12.0102 22.456 12.4614 22.9072C13.0698 23.5156 13.9174 23.7617 14.7378 23.5635C15.8794 23.2832 16.6108 22.3603 16.6108 21.1914C16.6108 20.043 15.8999 19.1201 14.7993 18.833C14.3071 18.7099 14.0268 18.7099 13.5346 18.8398ZM14.9223 19.9062C15.0727 19.9951 15.2983 20.2002 15.4145 20.3574C15.5991 20.6308 15.6196 20.706 15.6196 21.1846C15.6196 21.6494 15.5991 21.7519 15.435 21.998C14.8471 22.8799 13.521 22.8799 12.9399 21.998C12.6801 21.6084 12.6391 20.9795 12.851 20.542C13.2202 19.7832 14.1635 19.4892 14.9223 19.9062Z" fill="#06103B"/>
<path d="M26.6939 26.6943C26.4273 26.9541 26.4751 27.1045 27.0015 27.6445L27.48 28.1367L27.3433 28.4922C26.9468 29.5381 27.357 30.6045 28.3687 31.1445C28.7447 31.3428 29.7359 31.3291 30.146 31.1172C30.5972 30.8779 30.9322 30.5293 31.1373 30.0576C31.3013 29.6953 31.3218 29.5859 31.2945 29.1279C31.2466 28.3144 30.8912 27.7607 30.2007 27.4189C29.6812 27.1592 29.0523 27.1318 28.4917 27.3437L28.1363 27.4805L27.6441 27.0019C27.104 26.4756 26.9537 26.4277 26.6939 26.6943ZM29.8042 28.2666C30.3101 28.5263 30.5152 29.3398 30.2007 29.8047C29.8521 30.3174 29.271 30.4951 28.7378 30.2422C28.3003 30.0303 28.0406 29.5039 28.1363 29.0049C28.191 28.6972 28.5874 28.2529 28.8746 28.164C29.1343 28.0888 29.5445 28.1299 29.8042 28.2666Z" fill="#06103B"/>
</svg>
