<svg width="248" height="225" viewBox="0 0 248 225" fill="none" xmlns="http://www.w3.org/2000/svg">
<path d="M76.9249 216.183C76.4617 217.643 76.0943 219.131 75.8249 220.639C75.4967 221.809 75.3948 223.031 75.525 224.239C75.525 224.469 75.8869 224.453 76.0019 224.239C76.602 223.118 77.0182 221.907 77.2349 220.654C77.6299 219.273 78.0409 217.892 78.4019 216.494C78.4433 216.298 78.405 216.093 78.2955 215.925C78.186 215.757 78.0142 215.639 77.8179 215.598C77.6217 215.557 77.4171 215.595 77.249 215.704C77.081 215.814 76.9633 215.986 76.9219 216.182L76.9249 216.183Z" fill="#37474F"/>
<path d="M76.383 208.882C76.613 207.632 76.843 206.366 77.09 205.117C77.337 203.868 77.6979 202.517 77.8629 201.204C77.8629 200.99 78.225 201.072 78.176 201.204C77.962 202.47 77.913 203.769 77.781 205.052C77.649 206.335 77.518 207.617 77.37 208.883C77.07 211.267 76.63 213.668 76.104 216.003C77.3667 215.816 78.5701 215.344 79.623 214.622C80.6226 213.651 81.2951 212.393 81.547 211.022C81.942 209.591 82.287 208.128 82.714 206.698C83.2454 205.129 83.6415 203.517 83.898 201.88C83.898 201.666 84.26 201.732 84.227 201.88C83.8622 205.33 83.1517 208.734 82.106 212.042C81.8662 213.336 81.1722 214.503 80.149 215.331C78.8242 216.01 77.3752 216.413 75.89 216.515C75.725 216.597 75.463 216.515 75.479 216.301C75.676 213.947 75.939 211.382 76.383 208.882Z" fill="#37474F"/>
<path d="M74.0969 91.9569C80.2139 111.162 114.727 157.728 129.707 162.135C140.543 165.424 185.777 144.245 198.52 136.073C210.82 128.197 181.568 91.9399 174.037 96.0679C163.399 101.889 138.837 120.124 134.41 119.844C131.319 119.644 115.024 106.69 90.4099 83.768C76.7929 71.091 70.4459 80.4499 74.0969 91.9569Z" fill="#AD6359"/>
<path d="M190.643 83.1269C197.565 81.1369 205.343 78.2929 212.89 78.8679C220.437 79.4429 226.044 89.7859 225.913 92.6309C225.782 95.4759 221.851 113.086 214.403 112.642C206.955 112.198 212.216 98.8139 212.019 97.2349C211.822 95.6559 211.674 93.6349 210.243 93.6999C208.812 93.7649 183.129 104.108 183.129 104.108L190.643 83.1269Z" fill="#AD6359"/>
<path d="M191.054 84.1959C191.482 84.1959 212.154 77.4539 219.681 78.0299C227.208 78.6059 232.835 88.9479 232.72 91.7929C232.605 94.6379 228.659 112.248 221.128 111.804C213.597 111.36 218.941 97.9759 218.744 96.3969C218.547 94.8179 218.399 92.7969 216.968 92.8619C215.537 92.9269 189.936 103.266 189.936 103.266L191.054 84.1959Z" fill="#AD6359"/>
<path d="M218.629 110.702C217.9 109.31 217.555 107.749 217.629 106.18C217.568 104.561 217.757 102.942 218.188 101.38C218.689 100.05 219.079 98.6804 219.355 97.2859C219.421 95.8902 219.139 94.5 218.533 93.2409C218.007 92.1409 216.889 92.4349 215.918 92.7149C214.484 93.1803 213.079 93.7292 211.709 94.3589L207.286 96.3159C205.736 96.9355 204.226 97.6495 202.764 98.4539C202.649 98.4539 202.764 98.7169 202.846 98.6679C204.177 98.2415 205.484 97.7407 206.759 97.1679L211.199 95.5239C212.58 94.9979 213.945 94.4059 215.326 93.8799C215.952 93.5593 216.645 93.3904 217.348 93.3869C217.923 93.5509 218.121 95.0309 218.22 95.4589C218.461 96.8316 218.29 98.2449 217.727 99.5199C217.246 100.84 216.905 102.207 216.707 103.598C216.495 104.907 216.523 106.244 216.789 107.544C217.2 108.703 217.752 109.808 218.433 110.833C218.465 110.981 218.728 110.85 218.629 110.702Z" fill="#263238"/>
<path d="M165.979 102.579C165.979 102.579 187.996 84.7709 192.567 81.2029C201.742 74.1329 239.38 61.2909 244.526 61.0439C249.672 60.7969 250.906 71.4189 225.321 80.8579C211.838 85.7909 209.059 93.2229 209.059 97.4159C209.059 101.609 212.594 109.616 219.615 109.83C226.636 110.044 231.799 100.079 238.327 99.3229C244.855 98.5669 239.889 110.123 234.927 116.687C229.773 123.01 222.929 127.739 215.192 130.323C208.992 132.247 189.722 139.235 189.722 139.235L165.979 102.579Z" fill="#AD6359"/>
<path d="M228.626 105.44C225.864 107.331 222.707 109.814 219.221 109.732C215.735 109.65 213.421 107.183 211.921 104.158C210.239 101.157 209.785 97.6206 210.655 94.2919C211.655 91.3133 213.486 88.683 215.933 86.7119C218.924 84.3197 222.248 82.3757 225.799 80.9409C225.947 80.9409 225.799 80.6409 225.667 80.7109C222.378 81.9609 212.067 85.4789 209.537 94.2269C208.693 97.6166 209.182 101.201 210.902 104.241C212.302 107.118 214.402 109.947 217.791 110.424C221.918 111.016 225.684 107.842 228.808 105.491C228.955 105.456 228.774 105.341 228.626 105.44Z" fill="#263238"/>
<path d="M173.165 96.5289L189.082 153.191C189.082 153.191 141.76 167.842 128.655 163.353C115.55 158.864 83.9799 117.853 73.5879 93.4869C67.2739 78.6869 76.3499 69.5129 92.2509 83.2759C108.694 97.3999 131.582 116.984 133.358 117.806C135.134 118.628 173.165 96.5289 173.165 96.5289Z" fill="#FFC727"/>
<path d="M168.33 129.562C167.409 125.336 163.858 108.367 163.299 104.092L168.33 129.562ZM163.431 104.092C164.763 108.071 168.759 124.711 169.679 128.937C171.728 137.344 173.314 145.856 174.431 154.437C174.431 154.585 174.217 154.667 174.168 154.519C171.619 146.347 170.107 137.994 168.331 129.559L163.431 104.092Z" fill="#263238"/>
<path d="M73.5869 93.4859C82.0059 113.217 104.352 143.9 119.479 157.202L82.3349 77.1579C72.9619 74.0999 68.7529 82.0909 73.5869 93.4859Z" fill="#263238"/>
<path d="M2.25791 203.341L104.549 203.933C104.993 203.489 108.989 201.746 107.838 187.013C105.224 153.453 94.026 93.749 86.824 81.023C85.4931 78.4798 83.6743 76.2237 81.4715 74.3836C79.2686 72.5434 76.7248 71.1553 73.9854 70.2984C71.246 69.4414 68.3646 69.1325 65.5058 69.3893C62.647 69.6461 59.8668 70.4636 57.3239 71.795L57.0409 71.946C51.0559 75.679 45.531 80.562 38.576 90.905C21.508 116.293 7.05496 161.182 0.937963 185.846C-1.67204 196.059 1.96191 203.045 2.25791 203.341Z" fill="#FFC727"/>
<path d="M73.817 90.5099C72.058 90.1979 61.666 79.4439 59.017 71.8309C58.836 71.3049 60.431 66.405 62.108 60.321C63.095 56.654 64.114 52.5439 64.788 48.7119C64.919 47.9389 67.337 49.83 67.337 49.83L72.073 51.885L87.759 58.7419C85.5621 63.2765 83.9328 68.0646 82.908 72.9979C82.8106 73.5402 82.7721 74.0914 82.793 74.642C82.8013 74.7294 82.8013 74.8175 82.793 74.905C82.828 77.92 76.678 91.0199 73.817 90.5099Z" fill="#AD6359"/>
<path d="M82.8279 74.593C82.8362 74.6804 82.8362 74.7685 82.8279 74.856C81.9931 74.8285 81.1623 74.7282 80.345 74.556C64.28 71.399 65.826 50.549 65.826 50.549L72.157 51.93L87.757 58.737C85.5601 63.2715 83.9308 68.0596 82.9059 72.993C82.8246 73.5221 82.7985 74.0584 82.8279 74.593V74.593Z" fill="#263238"/>
<path d="M96.5579 12.2919C96.5579 12.2919 103.858 15.9919 104.664 23.8019C105.47 31.6119 103.118 39.4719 102.428 39.8019C101.738 40.1319 96.5579 12.2919 96.5579 12.2919Z" fill="#263238"/>
<path d="M65.382 21.2519C61.797 29.4729 63.5399 54.7789 69.0159 60.9779C76.9579 69.9719 91.329 72.3559 99.304 62.5069C107.049 52.9539 104.237 20.0849 97.9559 14.3129C88.7629 5.86292 70.657 9.10092 65.382 21.2519Z" fill="#AD6359"/>
<path d="M87.843 38.8469C87.843 38.8469 87.728 38.8469 87.728 38.9949C87.893 40.6389 87.7279 42.6779 86.2809 43.3359L87.843 38.8469ZM86.2809 43.4359C88.1719 43.0409 88.271 40.4269 87.843 38.8479L86.2809 43.4359Z" fill="#263238"/>
<path d="M86.215 37.1699C83.469 37.1699 83.601 42.6289 86.215 42.6619C88.829 42.6949 88.517 37.1859 86.215 37.1699Z" fill="#263238"/>
<path d="M97.728 38.8799C97.7466 38.8803 97.765 38.8845 97.7819 38.8922C97.7989 38.9 97.814 38.9112 97.8264 38.9251C97.8388 38.939 97.8482 38.9553 97.854 38.973C97.8597 38.9907 97.8618 39.0094 97.86 39.0279C97.86 40.6719 98.123 42.6779 99.685 43.2039L97.728 38.8799ZM99.685 43.3039C97.778 43.0899 97.432 40.492 97.728 38.881L99.685 43.3039Z" fill="#263238"/>
<path d="M99.2709 37.0539C102 36.7739 102.346 42.2659 99.8139 42.5289C97.2819 42.7919 96.9029 37.2839 99.2709 37.0539Z" fill="#263238"/>
<path d="M83.9779 34.7029C84.7179 34.4889 85.3779 34.1769 86.0989 33.8969C86.8805 33.7176 87.5804 33.2839 88.0889 32.6639C88.2144 32.4401 88.2615 32.1808 88.2227 31.9271C88.184 31.6734 88.0615 31.44 87.8749 31.2639C87.4511 30.9698 86.9568 30.7934 86.4425 30.753C85.9282 30.7126 85.4124 30.8095 84.9479 31.0339C83.9484 31.3509 83.1001 32.0238 82.5639 32.9249C82.4485 33.1377 82.3982 33.3797 82.4194 33.6209C82.4406 33.862 82.5323 34.0916 82.6831 34.281C82.8339 34.4703 83.037 34.6112 83.2673 34.6858C83.4976 34.7605 83.7447 34.7658 83.9779 34.7009V34.7029Z" fill="#263238"/>
<path d="M101.26 34.2259C100.517 34.0987 99.7828 33.9284 99.06 33.716C98.2558 33.6469 97.4976 33.3111 96.906 32.762C96.7539 32.5576 96.6717 32.3097 96.6717 32.055C96.6717 31.8002 96.7539 31.5523 96.906 31.3479C97.284 30.9985 97.7493 30.7576 98.2529 30.6505C98.7564 30.5435 99.2795 30.5744 99.767 30.7399C100.807 30.9085 101.745 31.4622 102.395 32.291C102.532 32.4844 102.611 32.7134 102.621 32.9505C102.632 33.1876 102.574 33.4226 102.454 33.6274C102.334 33.8322 102.158 33.9981 101.946 34.1052C101.734 34.2122 101.496 34.2559 101.26 34.231V34.2259Z" fill="#263238"/>
<path d="M86.676 54.6969C87.087 55.0919 87.5149 55.6339 88.1229 55.6669C88.7585 55.6413 89.3811 55.4786 89.9479 55.1899C89.7148 55.5331 89.3926 55.8063 89.0159 55.9802C88.6393 56.1541 88.2223 56.2221 87.8099 56.1769C87.4584 56.0961 87.139 55.9121 86.8929 55.6483C86.6468 55.3846 86.4852 55.0532 86.429 54.6969C86.478 54.6809 86.61 54.6479 86.676 54.6969Z" fill="#263238"/>
<path d="M88.336 49.5479C88.7816 50.213 89.3615 50.7774 90.0384 51.2051C90.7152 51.6327 91.474 51.914 92.266 52.0309C92.9585 52.1296 93.6615 52.1296 94.354 52.0309H95.127C95.2172 52.016 95.2995 51.9702 95.3595 51.9012C95.4196 51.8322 95.4537 51.7444 95.456 51.6529V51.6529C95.4643 51.5929 95.4643 51.532 95.456 51.4719V51.4719V51.3079C95.456 50.0079 95.275 48.0189 95.275 48.0189C95.768 48.2489 98.235 49.2849 98.185 48.6109C97.8751 42.6978 96.9705 36.8308 95.4849 31.0989C95.471 31.0578 95.4415 31.0238 95.4029 31.0042C95.3642 30.9846 95.3194 30.9809 95.278 30.9939C95.2536 31.0021 95.2314 31.0159 95.2132 31.0341C95.1949 31.0523 95.1812 31.0745 95.1729 31.0989C95.4189 36.5739 96.6199 41.9509 96.9649 47.4429C96.0858 47.055 95.1558 46.7947 94.203 46.6699C94.022 46.6699 94.614 50.5179 94.565 51.1099C92.4099 51.3835 90.2342 50.7924 88.5139 49.4659C88.3519 49.3049 88.221 49.4199 88.336 49.5479Z" fill="#263238"/>
<path d="M93.565 51.442C92.869 52.3951 91.939 53.1528 90.865 53.642C90.2698 53.8787 89.6182 53.9357 88.9909 53.806C87.6099 53.477 87.544 52.162 87.774 51.159C87.9002 50.5901 88.0936 50.0382 88.3499 49.515C89.839 50.6958 91.6659 51.3708 93.565 51.442V51.442Z" fill="#263238"/>
<path d="M90.868 53.6449C90.2728 53.8817 89.6213 53.9387 88.994 53.8089C87.613 53.4799 87.547 52.1649 87.777 51.1619C88.4921 51.1834 89.1808 51.4375 89.7385 51.8855C90.2963 52.3336 90.6928 52.9513 90.868 53.6449V53.6449Z" fill="#FF98B9"/>
<path d="M65.628 42.8419C68.555 43.3849 70.857 34.4889 71.399 31.1019C71.876 28.1259 71.761 18.8519 71.826 18.2109C71.891 17.5699 85.126 24.9029 92.034 21.9929C98.942 19.0829 102.985 12.1269 102.734 9.13493C102.483 6.14293 92.753 -0.465069 85.025 0.0259314C77.297 0.516931 68.025 11.5359 68.025 11.5359C69.1144 9.96806 70.082 8.31887 70.919 6.60293C70.754 6.27393 65.986 8.82293 65.509 12.4569C65.509 12.4569 65.986 7.90193 65.591 7.86893C65.196 7.83593 61.791 12.0619 62.991 14.8409C62.991 14.8409 58.979 19.2149 59.045 23.5059C59.111 27.7969 62.176 42.2049 65.628 42.8419Z" fill="#263238"/>
<path d="M96.9359 19.9209C94.9539 21.302 92.7756 22.3774 90.4739 23.1109C87.865 23.639 85.1666 23.5205 82.6139 22.7659C80.0472 22.0637 77.61 20.9531 75.3959 19.4769C73.4389 18.2109 71.6639 16.6319 69.6079 15.5309C69.0819 15.2509 68.6079 16.0079 68.9499 16.4189C72.6551 20.5378 77.5821 23.3614 83.0089 24.4759C85.5295 24.999 88.143 24.8555 90.5912 24.0596C93.0394 23.2638 95.2377 21.8431 96.9689 19.9379C96.9689 19.9379 96.9689 19.9049 96.9359 19.9209Z" fill="#263238"/>
<path d="M68.26 42.2339C68.26 42.2339 63.426 33.6839 59.595 35.3279C55.764 36.9719 58.888 49.0079 62.995 50.9979C63.4936 51.2832 64.0435 51.4675 64.6134 51.5402C65.1832 51.6129 65.7618 51.5727 66.3161 51.4218C66.8703 51.2709 67.3894 51.0123 67.8438 50.6607C68.2981 50.3092 68.6787 49.8716 68.9639 49.3729C68.9919 49.3239 69.02 49.2729 69.046 49.2219L68.26 42.2339Z" fill="#AD6359"/>
<path d="M60.564 38.7649C60.564 38.7649 60.482 38.7649 60.564 38.8649C63.442 40.3649 64.757 43.2879 65.595 46.2809C65.4646 45.994 65.2789 45.7355 65.0487 45.5203C64.8184 45.3051 64.548 45.1374 64.2529 45.0267C63.9578 44.916 63.6437 44.8646 63.3287 44.8752C63.0137 44.8859 62.7039 44.9585 62.417 45.0889C62.2988 45.1428 62.1851 45.206 62.077 45.2779C62.0552 45.2779 62.0344 45.2866 62.019 45.3019C62.0036 45.3173 61.995 45.3382 61.995 45.3599C61.995 45.3817 62.0036 45.4025 62.019 45.4179C62.0344 45.4333 62.0552 45.4419 62.077 45.4419C62.6185 45.3311 63.1811 45.3883 63.6893 45.6058C64.1975 45.8232 64.6272 46.1907 64.921 46.6589C65.4074 47.4513 65.8045 48.2951 66.105 49.1749C66.22 49.4549 66.713 49.3559 66.648 49.0429V48.9609C67.09 45.1449 64.626 39.5379 60.564 38.7649Z" fill="#263238"/>
<path d="M82.828 74.7409L75.297 88.3719L59.808 68.1969L54.086 73.3769C54.086 73.3769 67.966 104.127 68.227 102.842L75.577 91.3319L83.026 100.902L84.933 79.3619L82.828 74.7409Z" fill="#FFC727"/>
<path d="M84.472 90.3129C84.672 86.7449 84.965 83.1599 84.998 79.5759C84.998 79.4609 84.798 79.3759 84.751 79.5759C83.633 82.8649 82.959 96.5609 82.551 99.8009C82.251 99.3899 75.612 91.3329 75.513 91.4319C74 93.2239 68.623 101.659 68.229 102.432C66.029 97.4989 57.529 79.7409 54.812 75.0379C54.789 75.0116 54.7566 74.9954 54.7217 74.993C54.6868 74.9905 54.6524 75.002 54.626 75.0249C54.6105 75.0389 54.5985 75.0563 54.5908 75.0758C54.5832 75.0952 54.5802 75.1161 54.582 75.1369C56.424 80.2369 67.621 104.191 67.851 104.159C70.6338 100.213 73.208 96.1241 75.563 91.9089C76.648 93.5529 83.242 102.609 83.324 102.087C83.9153 98.1854 84.2985 94.2552 84.472 90.3129V90.3129Z" fill="#263238"/>
<path d="M129.542 150.937C132.342 150.937 134.31 150.805 134.475 150.789L134.097 145.281C133.965 145.281 121.305 146.103 114.797 143.472C109.617 141.372 103.897 126.799 101.363 113.872C99.719 105.651 100.64 103.151 101.363 102.362C101.511 102.198 101.906 101.721 103.369 101.721H108.417C109.88 106.128 112.217 110.551 115.734 110.551H125.929V105.108H116.145C114.738 103.038 113.713 100.732 113.119 98.3009L112.56 96.2789H103.368C102.189 96.2076 101.009 96.4111 99.9218 96.8734C98.8346 97.3357 97.8697 98.0441 97.103 98.9429C94.703 101.821 94.341 106.753 95.985 114.975C97.3051 121.622 99.2656 128.125 101.839 134.394C105.128 142.221 108.827 146.994 112.774 148.584C117.621 150.559 124.774 150.937 129.542 150.937Z" fill="#DDAB2C"/>
<path opacity="0.2" d="M117.818 105.046H125.908V110.566H119.068L117.818 105.046Z" fill="black"/>
<path opacity="0.2" d="M134.524 150.789C134.31 150.789 132.337 150.937 129.591 150.937H128.144L126.911 145.396C130.923 145.528 134.129 145.396 134.195 145.396L134.524 150.789Z" fill="black"/>
<path d="M182.537 150.937C179.737 150.937 177.769 150.805 177.604 150.789L177.982 145.281C178.114 145.281 190.774 146.103 197.282 143.472C202.462 141.372 208.182 126.799 210.716 113.872C212.36 105.651 211.439 103.151 210.716 102.362C210.568 102.198 210.19 101.721 208.726 101.721H203.678C202.231 106.128 199.878 110.551 196.361 110.551H186.171V105.108H196.037C197.444 103.038 198.469 100.732 199.063 98.3009L199.622 96.2789H208.83C210.006 96.2103 211.183 96.4151 212.267 96.8773C213.351 97.3395 214.313 98.0466 215.078 98.9429C217.462 101.837 217.808 106.803 216.178 115.043C214.858 121.69 212.897 128.193 210.324 134.462C207.035 142.289 203.336 147.062 199.389 148.652C194.458 150.559 187.305 150.937 182.537 150.937Z" fill="#DDAB2C"/>
<path opacity="0.2" d="M194.261 105.046H186.171V110.566H193.011L194.261 105.046Z" fill="black"/>
<path opacity="0.2" d="M177.555 150.789C177.769 150.789 179.742 150.937 182.488 150.937H183.935L185.168 145.396C181.156 145.528 177.95 145.396 177.884 145.396L177.555 150.789Z" fill="black"/>
<path d="M127.224 206.071V209.162H184.873V206.071H179.924L176.257 200.793L159.469 194.117V161.379H152.612V194.117L135.84 200.793L132.157 206.071H127.224Z" fill="#DDAB2C"/>
<path d="M161.359 162.283H150.704V165.736H161.359V162.283Z" fill="#FFC727"/>
<path opacity="0.2" d="M150.72 164.487L161.359 164.01V162.3H150.72V164.487Z" fill="black"/>
<path d="M120.794 92.549C120.794 92.549 123.474 137.158 130.512 149.507C137.55 161.856 152.545 162.891 156.048 162.891C159.551 162.891 174.548 161.839 181.567 149.507C188.586 137.175 191.35 92.549 191.35 92.549H120.794Z" fill="#DDAB2C"/>
<path opacity="0.3" d="M150.688 162.349C144.62 161.329 135.544 158.288 130.513 149.491C123.475 137.159 120.779 92.549 120.779 92.549H127.356C128.256 101.921 130.056 137.701 135.133 148.109C139.638 157.202 149.98 162.086 150.688 162.349Z" fill="white"/>
<path opacity="0.2" d="M179.922 206.07H132.156L133.471 204.179L177.439 202.502L179.922 206.07Z" fill="black"/>
<path opacity="0.1" d="M156.047 106.641L159.829 114.32L168.297 115.537L162.164 121.522L163.611 129.957L156.047 125.978L148.467 129.957L149.914 121.522L143.781 115.537L152.249 114.32L156.047 106.641Z" fill="black"/>
<path d="M41.722 89.3639C27.729 115.673 -0.0920284 175.327 12.503 186.508C33.237 204.858 77.617 217.059 91.889 219.394C98.055 220.364 113.478 174.505 107.428 171.71C100.16 168.421 54.9919 157.257 54.5149 155.267C54.0379 153.277 58.0669 122.513 57.5899 98.9169C56.9639 69.5289 47.509 78.4079 41.722 89.3639Z" fill="#AD6359"/>
<path d="M85.426 171.524C85.426 171.524 102.757 163.824 114.332 159.307C120.778 156.791 132.238 153.47 137.832 153.799C146.185 154.276 180.847 161.626 179.232 170.077C177.785 177.707 148.813 167.611 148.813 167.611C148.813 167.611 178.953 175.224 175.513 184.054C172.073 192.884 140.852 177.164 140.852 177.164C140.852 177.164 171.617 185.681 166.684 194.314C162.919 200.809 133.798 188.132 133.798 188.132C133.798 188.132 160.205 195.632 156.621 202.47C152.642 210.034 125.084 200.02 125.084 200.02C113.015 215.887 101.176 219.373 91.853 219.34C89.685 219.324 85.426 171.524 85.426 171.524Z" fill="#AD6359"/>
<path d="M139.987 164.717C162.612 168.63 172.494 177.477 172.198 177.296C164.848 173.004 152.467 168.943 148.915 167.858C145.363 166.773 143.423 165.934 139.937 164.849C139.851 164.832 139.901 164.7 139.987 164.717Z" fill="#263238"/>
<path d="M134.442 176.851C143.656 178.007 152.592 180.79 160.833 185.072C161.145 185.272 160.997 185.352 160.652 185.236C156.245 183.736 138.852 178.182 134.344 176.916C134.327 176.933 134.36 176.851 134.442 176.851Z" fill="#263238"/>
<path d="M128.95 186.98C136.079 188.034 142.949 190.408 149.208 193.98C149.52 194.144 149.208 194.28 148.945 194.144C142.253 191.694 137.024 189.721 128.901 187.222C128.873 187.178 128.873 186.947 128.95 186.98Z" fill="#263238"/>
<path d="M93.302 166.772L76.054 221.51C76.054 221.51 14.311 198.194 8.01297 184.185C1.71497 170.176 32.283 100.82 42.413 86.1529C52.543 71.4859 57.213 76.2869 58.856 91.2829C60.499 106.279 55.025 154.341 55.419 155.183C55.813 156.025 93.302 166.772 93.302 166.772Z" fill="#FFC727"/>
<path d="M56.7169 132.637C57.0243 129.042 57.3149 125.447 57.5889 121.851C57.7369 119.977 57.868 118.102 58.033 116.244C58.033 115.389 58.181 114.517 58.247 113.663C58.3147 113.238 58.3588 112.81 58.379 112.38C58.3764 111.826 58.4435 111.273 58.5789 110.736C58.5789 110.636 58.76 110.636 58.76 110.736C58.76 111.706 58.941 111.295 58.76 112.051C58.6686 112.595 58.6686 113.151 58.76 113.695V116.277C58.76 118.053 58.6279 119.812 58.5299 121.572V122.082C58.9249 120.125 59.336 118.182 59.747 116.228L56.7169 132.637ZM59.8779 116.228C59.6969 118.218 59.434 120.191 59.072 122.147C58.858 123.282 58.562 124.4 58.283 125.436C58.135 127.787 58.003 130.155 57.822 132.506C57.279 139.806 56.6869 147.14 55.5529 154.375C58.8419 155.345 61.999 156.184 65.189 157.154C68.379 158.124 71.602 159.176 74.789 160.196C77.976 161.216 81.1689 162.235 84.3419 163.32C85.8709 163.83 87.368 164.372 88.88 164.964C90.392 165.556 92.1689 166.296 93.8129 166.838C93.9939 166.838 93.813 167.138 93.713 167.085C91.986 166.559 90.213 166.263 88.468 165.77L83.913 164.47C80.707 163.516 77.5 162.513 74.294 161.494C71.088 160.475 67.8809 159.504 64.6939 158.452C61.5069 157.4 58.3939 156.216 55.2069 155.163C55.1593 155.146 55.1156 155.12 55.0787 155.086C55.0419 155.051 55.0126 155.009 54.9929 154.963C54.9241 154.928 54.8672 154.873 54.8292 154.806C54.7911 154.739 54.7736 154.662 54.7789 154.585C55.2059 147.285 56.0789 139.967 56.7189 132.634L59.8779 116.228Z" fill="#263238"/>
<path d="M72.009 190.3C73.309 186.321 78.586 170.47 80.23 166.639L72.009 190.3ZM80.362 166.639C79.523 170.602 74.755 186.37 73.456 190.382C71.0736 198.398 68.252 206.276 65.004 213.982C65.004 214.114 64.704 214.064 64.741 213.982C66.632 205.909 69.46 198.131 72.009 190.304L80.362 166.639Z" fill="#263238"/>
<path d="M34.996 203.538C30.4748 201.697 26.0805 199.559 21.8419 197.138C17.5535 194.752 13.6186 191.78 10.151 188.308C8.31405 186.52 7.03953 184.234 6.48396 181.731C6.38904 181.1 6.35056 180.462 6.36897 179.824V177.95C6.50097 176.733 6.58297 175.5 6.73097 174.283C7.48788 169.457 8.53102 164.68 9.85494 159.978C12.5629 150.639 15.7256 141.458 19.343 132.436C21.163 127.931 23.0703 123.469 25.065 119.052C27.153 114.662 29.225 110.271 31.642 106.062C29.554 110.452 27.6299 114.892 25.8049 119.362C23.9799 123.832 22.1879 128.356 20.5269 132.894C17.1559 141.954 13.95 151.113 11.434 160.419C10.0562 165.035 8.95813 169.73 8.14595 174.478C7.99795 175.662 7.89896 176.846 7.76796 178.03C7.70216 179.191 7.70216 180.355 7.76796 181.516C8.29759 183.769 9.43522 185.834 11.057 187.485C14.3488 190.983 18.1119 194.004 22.2379 196.463C26.3494 199.067 30.6093 201.43 34.996 203.538V203.538Z" fill="#263238"/>
<path d="M28.0239 110.899C27.4649 113.316 26.6589 115.599 26.0179 117.986C26.067 116.746 26.2826 115.518 26.6589 114.336C27.016 113.154 27.4727 112.004 28.0239 110.899V110.899Z" fill="#263238"/>
</svg>
