<svg width="40" height="40" viewBox="0 0 40 40" fill="none" xmlns="http://www.w3.org/2000/svg">
<path d="M28.125 37.5H5.625C5.12772 37.5 4.65081 37.3025 4.29917 36.9508C3.94754 36.5992 3.75 36.1223 3.75 35.625V4.375C3.75 3.87772 3.94754 3.40081 4.29917 3.04917C4.65081 2.69754 5.12772 2.5 5.625 2.5H25V5.625C25 6.12228 25.1975 6.59919 25.5492 6.95083C25.9008 7.30246 26.3777 7.5 26.875 7.5H30V12.5H31.25V6.875C31.25 6.70925 31.1841 6.55031 31.0669 6.43313L26.0669 1.43312C25.9497 1.31591 25.7907 1.25004 25.625 1.25H5.625C4.7965 1.25099 4.00222 1.58055 3.41639 2.16639C2.83055 2.75222 2.50099 3.5465 2.5 4.375V35.625C2.50099 36.4535 2.83055 37.2478 3.41639 37.8336C4.00222 38.4194 4.7965 38.749 5.625 38.75H28.125C28.8862 38.7503 29.6212 38.4725 30.1919 37.9688L29.365 37.0312C29.0225 37.3333 28.5816 37.5 28.125 37.5ZM26.25 5.625V3.38375L29.1162 6.25H26.875C26.7092 6.25 26.5503 6.18415 26.4331 6.06694C26.3158 5.94973 26.25 5.79076 26.25 5.625Z" fill="#E0E0E0"/>
<path d="M35.625 28.7493H34.375C34.3753 28.6266 34.3382 28.5067 34.2688 28.4056L33.4375 27.1556C33.2325 26.8485 33.1237 26.4873 33.125 26.1181V24.3681C33.1344 23.4035 33.4543 22.4677 34.0375 21.6993C34.5032 21.0618 34.8114 20.323 34.9367 19.5434C35.0619 18.7638 35.0008 17.9657 34.7583 17.2143C34.5158 16.4629 34.0988 15.7796 33.5414 15.2203C32.984 14.6611 32.3021 14.2418 31.5515 13.9968C30.8009 13.7518 30.003 13.688 29.223 13.8107C28.443 13.9334 27.7032 14.2391 27.0641 14.7027C26.425 15.1664 25.9047 15.7747 25.546 16.4781C25.1872 17.1815 25.0001 17.9598 25 18.7493C24.9953 19.8485 25.3583 20.9177 26.0313 21.7868C26.5866 22.5298 26.883 23.4343 26.875 24.3618V26.1181C26.8763 26.4873 26.7675 26.8485 26.5625 27.1556L25.7312 28.4056C25.6618 28.5067 25.6247 28.6266 25.625 28.7493H24.375C23.8782 28.7508 23.4021 28.9488 23.0508 29.3002C22.6995 29.6515 22.5015 30.1275 22.5 30.6243V33.1243C22.5 33.2901 22.5658 33.4491 22.6831 33.5663C22.8003 33.6835 22.9592 33.7493 23.125 33.7493H23.75V35.6243C23.75 35.7901 23.8158 35.9491 23.9331 36.0663C24.0503 36.1835 24.2092 36.2493 24.375 36.2493H35.625C35.7908 36.2493 35.9497 36.1835 36.0669 36.0663C36.1842 35.9491 36.25 35.7901 36.25 35.6243V33.7493H36.875C37.0408 33.7493 37.1997 33.6835 37.3169 33.5663C37.4342 33.4491 37.5 33.2901 37.5 33.1243V30.6243C37.4985 30.1275 37.3005 29.6515 36.9492 29.3002C36.5979 28.9488 36.1218 28.7508 35.625 28.7493ZM26.25 18.7493C26.2498 18.1573 26.3897 17.5736 26.6584 17.0461C26.9271 16.5185 27.3168 16.0621 27.7958 15.7141C28.2748 15.3661 28.8293 15.1364 29.4141 15.0439C29.9988 14.9514 30.5972 14.9987 31.1602 15.1819C31.7232 15.365 32.2348 15.6789 32.6532 16.0978C33.0716 16.5166 33.3848 17.0286 33.5674 17.5918C33.7499 18.155 33.7964 18.7534 33.7033 19.3381C33.6101 19.9227 33.3798 20.477 33.0312 20.9556C32.2908 21.9402 31.8856 23.1362 31.875 24.3681V26.1181C31.8739 26.7345 32.0567 27.3373 32.4 27.8493L33 28.7493H27L27.6 27.8493C27.9433 27.3373 28.1261 26.7345 28.125 26.1181V24.3618C28.1323 23.161 27.7459 21.9909 27.025 21.0306C26.5212 20.377 26.2486 19.5746 26.25 18.7493ZM35 34.9993H25V33.7493H35V34.9993ZM36.25 32.4993H23.75V30.6243C23.75 30.4586 23.8158 30.2996 23.9331 30.1824C24.0503 30.0652 24.2092 29.9993 24.375 29.9993H35.625C35.7908 29.9993 35.9497 30.0652 36.0669 30.1824C36.1842 30.2996 36.25 30.4586 36.25 30.6243V32.4993Z" fill="#E0E0E0"/>
<path d="M12.5 35C13.7361 35 14.9445 34.6334 15.9723 33.9467C17.0001 33.2599 17.8012 32.2838 18.2742 31.1418C18.7473 29.9997 18.8711 28.7431 18.6299 27.5307C18.3888 26.3183 17.7935 25.2047 16.9194 24.3306C16.0453 23.4565 14.9317 22.8613 13.7193 22.6201C12.5069 22.3789 11.2503 22.5027 10.1082 22.9758C8.96619 23.4488 7.99007 24.2499 7.30331 25.2777C6.61656 26.3055 6.25 27.5139 6.25 28.75C6.25182 30.407 6.91088 31.9957 8.08259 33.1674C9.2543 34.3391 10.843 34.9982 12.5 35ZM12.5 23.75C13.4889 23.75 14.4556 24.0432 15.2779 24.5927C16.1001 25.1421 16.741 25.923 17.1194 26.8366C17.4978 27.7502 17.5969 28.7555 17.4039 29.7254C17.211 30.6953 16.7348 31.5863 16.0355 32.2855C15.3363 32.9848 14.4454 33.461 13.4755 33.6539C12.5055 33.8468 11.5002 33.7478 10.5866 33.3694C9.67295 32.9909 8.89206 32.3501 8.34265 31.5278C7.79324 30.7056 7.5 29.7389 7.5 28.75C7.50149 27.4244 8.02875 26.1535 8.96611 25.2161C9.90347 24.2788 11.1744 23.7515 12.5 23.75Z" fill="#E0E0E0"/>
<path d="M11.875 31.2505C12.0407 31.2504 12.1997 31.1846 12.3169 31.0673L16.0668 27.3173L15.1831 26.4336L11.875 29.7417L10.4419 28.3086L9.55811 29.1923L11.4331 31.0673C11.5503 31.1846 11.7092 31.2504 11.875 31.2505Z" fill="#E0E0E0"/>
<path d="M17.5 10.625H16.25C16.0842 10.625 15.9253 10.5592 15.8081 10.4419C15.6908 10.3247 15.625 10.1658 15.625 10H14.375C14.375 10.4973 14.5725 10.9742 14.9242 11.3258C15.2758 11.6775 15.7527 11.875 16.25 11.875V12.5H17.5V11.875C17.9973 11.875 18.4742 11.6775 18.8258 11.3258C19.1775 10.9742 19.375 10.4973 19.375 10C19.375 9.50272 19.1775 9.02581 18.8258 8.67417C18.4742 8.32254 17.9973 8.125 17.5 8.125H16.25C16.0842 8.125 15.9253 8.05915 15.8081 7.94194C15.6908 7.82473 15.625 7.66576 15.625 7.5C15.625 7.33424 15.6908 7.17527 15.8081 7.05806C15.9253 6.94085 16.0842 6.875 16.25 6.875H17.5C17.6658 6.875 17.8247 6.94085 17.9419 7.05806C18.0592 7.17527 18.125 7.33424 18.125 7.5H19.375C19.375 7.00272 19.1775 6.52581 18.8258 6.17417C18.4742 5.82254 17.9973 5.625 17.5 5.625V5H16.25V5.625C15.7527 5.625 15.2758 5.82254 14.9242 6.17417C14.5725 6.52581 14.375 7.00272 14.375 7.5C14.375 7.99728 14.5725 8.47419 14.9242 8.82583C15.2758 9.17746 15.7527 9.375 16.25 9.375H17.5C17.6658 9.375 17.8247 9.44085 17.9419 9.55806C18.0592 9.67527 18.125 9.83424 18.125 10C18.125 10.1658 18.0592 10.3247 17.9419 10.4419C17.8247 10.5592 17.6658 10.625 17.5 10.625Z" fill="#E0E0E0"/>
<path d="M20.625 8.125H21.875V9.375H20.625V8.125Z" fill="#E0E0E0"/>
<path d="M11.875 8.125H13.125V9.375H11.875V8.125Z" fill="#E0E0E0"/>
<path d="M6.25 13.75H8.75V15H6.25V13.75Z" fill="#E0E0E0"/>
<path d="M10 13.75H25V15H10V13.75Z" fill="#E0E0E0"/>
<path d="M6.25 16.25H23.75V17.5H6.25V16.25Z" fill="#E0E0E0"/>
<path d="M6.25 18.75H23.75V20H6.25V18.75Z" fill="#E0E0E0"/>
<path d="M6.25 21.25H8.75V22.5H6.25V21.25Z" fill="#E0E0E0"/>
<path d="M16.25 21.25H23.75V22.5H16.25V21.25Z" fill="#E0E0E0"/>
<path d="M19.375 23.75H24.375V25H19.375V23.75Z" fill="#E0E0E0"/>
</svg>
