<svg width="180" height="180" viewBox="0 0 180 180" fill="none" xmlns="http://www.w3.org/2000/svg">
<path d="M139.464 52.6321C153.167 50.9713 162.93 38.5161 161.269 24.8125C159.608 11.1089 147.153 1.34626 133.449 3.007C119.746 4.66774 109.983 17.123 111.644 30.8266C113.305 44.5301 125.76 54.2928 139.464 52.6321Z" fill="#EBEBEB"/>
<path opacity="0.5" d="M128.926 51.6638C125.187 50.4813 121.778 48.4356 118.976 45.692C116.173 42.9484 114.055 39.5839 112.794 35.8704C111.532 32.1569 111.162 28.1987 111.713 24.3157C112.264 20.4327 113.722 16.7339 115.967 13.5182C118.212 10.3025 121.182 7.66027 124.638 5.80499C128.093 3.9497 131.936 2.93345 135.857 2.8384C139.778 2.74334 143.666 3.57214 147.207 5.2578C150.748 6.94346 153.843 9.43869 156.242 12.5418C152.893 8.53343 148.211 5.86642 143.055 5.02964C137.9 4.19286 132.615 5.24237 128.17 7.98579C123.725 10.7292 120.418 14.9827 118.855 19.9666C117.292 24.9505 117.577 30.3308 119.659 35.1213C121.741 39.9118 125.48 43.7914 130.19 46.0491C134.9 48.3068 140.266 48.7912 145.304 47.4135C150.343 46.0358 154.716 42.8884 157.622 38.5482C160.528 34.2079 161.772 28.9657 161.127 23.7825C161.815 27.9969 161.413 32.3174 159.958 36.3322C158.503 40.347 156.044 43.9222 152.815 46.717C149.586 49.5118 145.696 51.4331 141.514 52.2977C137.332 53.1623 132.998 52.9414 128.926 51.656V51.6638Z" fill="#DBDBDB"/>
<path d="M129.921 20.5794C129.71 21.2405 129.309 21.8243 128.766 22.2572C128.224 22.6902 127.566 22.9527 126.875 23.0118C126.183 23.0709 125.49 22.9239 124.882 22.5893C124.274 22.2547 123.779 21.7475 123.459 21.1317C123.139 20.516 123.009 19.8193 123.085 19.1296C123.161 18.4399 123.439 17.7881 123.885 17.2565C124.331 16.7249 124.924 16.3373 125.59 16.1426C126.256 15.948 126.965 15.9549 127.627 16.1627C128.068 16.3012 128.478 16.5255 128.832 16.8226C129.186 17.1198 129.478 17.484 129.692 17.8944C129.905 18.3048 130.035 18.7533 130.074 19.214C130.114 19.6748 130.062 20.1388 129.921 20.5794Z" fill="#A6A6A6"/>
<path d="M152.684 27.7581C152.473 28.4192 152.071 29.003 151.529 29.436C150.987 29.8689 150.328 30.1314 149.637 30.1905C148.946 30.2496 148.252 30.1026 147.644 29.768C147.037 29.4334 146.542 28.9262 146.222 28.3105C145.902 27.6947 145.772 26.998 145.847 26.3083C145.923 25.6186 146.202 24.9668 146.647 24.4352C147.093 23.9036 147.687 23.516 148.353 23.3213C149.019 23.1267 149.727 23.1337 150.389 23.3414C150.831 23.4799 151.24 23.7042 151.595 24.0013C151.949 24.2985 152.241 24.6628 152.454 25.0731C152.667 25.4835 152.797 25.932 152.837 26.3927C152.876 26.8535 152.824 27.3175 152.684 27.7581Z" fill="#A6A6A6"/>
<path d="M143.327 23.6929C142.904 25.034 141.964 26.1518 140.717 26.8005C139.469 27.4491 138.014 27.5755 136.673 27.1517C135.332 26.728 134.214 25.7889 133.565 24.5409C132.917 23.293 132.79 21.8385 133.214 20.4974L143.327 23.6929Z" fill="#A6A6A6"/>
<path d="M141.209 26.5097C140.549 26.9488 139.798 27.2343 139.013 27.3452C138.228 27.4562 137.428 27.3899 136.672 27.1511C135.916 26.9123 135.223 26.5072 134.645 25.9654C134.066 25.4236 133.616 24.7591 133.327 24.0205C134.722 23.4252 136.283 23.3489 137.729 23.8056C139.175 24.2622 140.409 25.2215 141.209 26.5097Z" fill="#DBDBDB"/>
<path d="M148.294 41.1956C146.562 42.448 136.418 42.9943 132.126 41.6755C127.834 40.3567 119.746 34.2233 119.016 32.2101C116.937 26.4863 118.415 17.5554 118.965 17.6803C119.516 17.8051 124.755 20.0642 127.643 20.3841C129.839 20.626 136.043 19.9549 138.567 20.7236C141.092 21.4922 145.836 25.5304 147.791 26.5761C150.362 27.9338 155.965 29.0029 156.492 29.2058C157.018 29.4087 153.226 37.6217 148.294 41.1956Z" fill="#DBDBDB"/>
<path d="M153.702 30.989C150.717 29.8185 148.696 29.007 145.723 27.8092C142.945 26.6933 140.869 24.6878 138.212 23.412C135.672 22.2103 132.863 22.6082 130.147 22.4639C126.753 22.2883 123.491 21.4143 120.167 20.7862C120.159 20.7836 120.15 20.7844 120.142 20.7884C120.134 20.7924 120.129 20.7993 120.126 20.8076C120.123 20.8159 120.124 20.8249 120.128 20.8325C120.132 20.8402 120.139 20.846 120.147 20.8486C122.917 21.8136 125.777 22.4934 128.684 22.8774C132.106 23.2676 135.707 22.5341 138.809 24.3835C141.123 25.7686 143.035 27.2746 145.59 28.2383C148.591 29.3698 150.619 30.1228 153.635 31.2114C153.776 31.2699 153.842 31.0436 153.702 30.989Z" fill="#EBEBEB"/>
<path d="M144.974 39.12C140.967 39.2682 136.129 40.1656 132.305 38.6635C128.22 37.0638 124.693 34.0712 121.537 31.106C121.53 31.1011 121.522 31.0986 121.514 31.099C121.506 31.0995 121.498 31.1028 121.492 31.1083C121.486 31.1139 121.482 31.1214 121.481 31.1295C121.48 31.1376 121.482 31.1458 121.486 31.1528C124.217 34.3638 127.904 37.3369 131.861 38.8547C135.817 40.3724 140.889 39.713 144.982 39.2097C145.037 39.2058 145.029 39.1161 144.974 39.12Z" fill="#EBEBEB"/>
<path d="M149.114 34.0441C144.943 31.8084 140.741 28.5466 136.238 27.0484C131.872 25.597 126.73 25.4877 122.173 25.5151C122.168 25.5171 122.163 25.5206 122.16 25.5251C122.157 25.5296 122.156 25.535 122.156 25.5404C122.156 25.5459 122.157 25.5512 122.16 25.5557C122.163 25.5602 122.168 25.5637 122.173 25.5658C126.742 25.8155 131.802 25.8155 136.16 27.3059C140.663 28.8666 144.806 32.0386 149.063 34.1455C149.203 34.2158 149.254 34.1182 149.114 34.0441Z" fill="#EBEBEB"/>
<path d="M147.682 36.4123C143.085 36.2874 138.478 36.385 134.026 35.0038C129.734 33.6733 126.023 31.1255 122.274 28.7611C125.895 31.3362 129.687 33.8333 133.979 35.1715C138.364 36.541 143.121 36.6776 147.674 36.5137C147.684 36.5105 147.694 36.5042 147.7 36.4956C147.707 36.4871 147.711 36.4766 147.712 36.4657C147.713 36.4547 147.711 36.4437 147.705 36.4342C147.7 36.4247 147.691 36.417 147.682 36.4123V36.4123Z" fill="#EBEBEB"/>
<path d="M118.973 17.6804C118.562 17.3751 118.205 17.0017 117.92 16.5762C117.631 16.1661 117.381 15.7298 117.174 15.2731C116.964 14.8172 116.792 14.3448 116.659 13.8606C116.597 13.6187 116.542 13.3729 116.499 13.1271C116.458 12.8688 116.434 12.6082 116.425 12.3468C116.576 12.5512 116.715 12.7635 116.843 12.9828C116.972 13.1935 117.089 13.412 117.202 13.6305C117.436 14.0635 117.643 14.5044 117.846 14.9453C118.048 15.3862 118.236 15.831 118.427 16.2797C118.618 16.7284 118.79 17.2005 118.973 17.6804Z" fill="#DBDBDB"/>
<path d="M119.598 33.1114C119.352 32.9436 119.11 32.772 118.868 32.5925C118.747 32.5067 118.626 32.4169 118.509 32.3233L118.17 32.0307L117.503 31.4259C117.296 31.2113 117.112 30.9928 116.886 30.7743C116.077 29.8855 115.357 28.9198 114.736 27.891C114.113 26.8681 113.578 25.7938 113.137 24.6799C112.686 23.5722 112.359 22.4181 112.161 21.2386C112.637 22.3311 113.137 23.3924 113.663 24.4419C114.19 25.4915 114.764 26.5098 115.368 27.5086C115.967 28.5076 116.618 29.474 117.319 30.4037C117.499 30.6378 117.678 30.8641 117.854 31.1021L118.419 31.777L118.696 32.1204C118.798 32.2257 118.899 32.3311 118.997 32.4442C119.204 32.6627 119.403 32.8812 119.598 33.1114Z" fill="#DBDBDB"/>
<path d="M156.449 29.1823C156.866 28.8858 157.268 28.6087 157.678 28.3395C158.087 28.0703 158.493 27.8128 158.907 27.5592C159.32 27.3056 159.742 27.0598 160.179 26.8296C160.393 26.7164 160.612 26.5994 160.842 26.4979C161.069 26.3858 161.302 26.2867 161.54 26.2014C161.392 26.4089 161.229 26.6057 161.053 26.7906C160.877 26.97 160.698 27.1456 160.506 27.3095C160.127 27.6358 159.721 27.9307 159.293 28.1913C158.863 28.4535 158.41 28.6755 157.939 28.8545C157.464 29.0462 156.96 29.1569 156.449 29.1823V29.1823Z" fill="#DBDBDB"/>
<path d="M147.276 41.6053C147.565 41.5273 147.853 41.4531 148.142 41.3829L148.571 41.2853L148.993 41.1566L149.839 40.9147C150.116 40.8171 150.397 40.7313 150.674 40.6377C151.779 40.2634 152.863 39.8297 153.92 39.3384C154.982 38.8507 156.023 38.3279 157.042 37.7582C158.06 37.1886 159.078 36.5877 160.085 35.9479C159.262 36.813 158.346 37.585 157.354 38.2499C156.365 38.9235 155.321 39.5122 154.233 40.0095C153.143 40.511 152.006 40.9031 150.838 41.18L149.96 41.3751L149.067 41.4999L148.622 41.5546L148.173 41.5741C147.873 41.5975 147.572 41.6053 147.276 41.6053Z" fill="#DBDBDB"/>
<path d="M76.931 157.094C79.9354 144.444 72.1158 131.753 59.4654 128.749C46.815 125.744 34.1243 133.564 31.1199 146.214C28.1155 158.865 35.9351 171.555 48.5855 174.56C61.2358 177.564 73.9266 169.745 76.931 157.094Z" fill="#EBEBEB"/>
<path opacity="0.5" d="M58.5362 174.761C54.9102 175.469 51.1685 175.313 47.6138 174.307C44.0591 173.301 40.7911 171.472 38.0741 168.969C35.3572 166.465 33.2675 163.358 31.9741 159.897C30.6807 156.436 30.2198 152.72 30.6289 149.048C31.0379 145.376 32.3053 141.852 34.3286 138.761C36.3519 135.67 39.0743 133.099 42.2756 131.255C45.4768 129.411 49.0672 128.346 52.7562 128.146C56.4453 127.947 60.1295 128.619 63.5109 130.107C58.9342 128.3 53.8597 128.203 49.2175 129.834C44.5754 131.465 40.6766 134.715 38.2361 138.988C35.7956 143.26 34.9768 148.269 35.9298 153.096C36.8828 157.924 39.5438 162.245 43.425 165.27C47.3061 168.294 52.1473 169.818 57.0611 169.563C61.9748 169.307 66.6319 167.289 70.1784 163.879C73.7249 160.468 75.9233 155.894 76.3706 150.994C76.8178 146.093 75.4839 141.196 72.6135 137.2C75.0809 140.376 76.6939 144.131 77.2988 148.107C77.9036 152.083 77.4802 156.148 76.0688 159.914C74.6574 163.68 72.305 167.021 69.2359 169.621C66.1668 172.22 62.4833 173.99 58.5362 174.761V174.761Z" fill="#DBDBDB"/>
<path d="M39.11 151.16C38.9355 150.709 38.8555 150.227 38.8749 149.744C38.8944 149.261 39.0129 148.787 39.2232 148.351C39.4394 147.883 39.7581 147.47 40.1557 147.142C40.5678 146.809 41.0555 146.582 41.5759 146.482C42.0954 146.385 42.6308 146.414 43.1365 146.568C43.6282 146.725 44.0778 146.992 44.4514 147.348C44.8084 147.674 45.0943 148.071 45.291 148.513C45.4877 148.954 45.5911 149.432 45.5946 149.916C45.2243 149.131 44.6537 148.458 43.9403 147.965C43.628 147.744 43.2742 147.588 42.9002 147.508C42.5262 147.427 42.1398 147.423 41.7642 147.496C41.3887 147.569 41.0318 147.718 40.7151 147.932C40.3984 148.147 40.1285 148.423 39.9216 148.745C39.4445 149.465 39.1647 150.298 39.11 151.16V151.16Z" fill="#A6A6A6"/>
<path d="M67.4243 144.297C67.5497 144.941 67.4818 145.607 67.2289 146.211C66.9761 146.816 66.5498 147.332 66.0038 147.695C65.4578 148.057 64.8166 148.25 64.1612 148.249C63.5058 148.247 62.8656 148.051 62.3213 147.686C61.7771 147.321 61.3532 146.803 61.1033 146.197C60.8534 145.591 60.7887 144.924 60.9172 144.282C61.0457 143.639 61.3618 143.049 61.8255 142.586C62.2892 142.123 62.8798 141.807 63.5226 141.679C63.9508 141.594 64.3915 141.595 64.8196 141.68C65.2476 141.766 65.6546 141.935 66.0171 142.178C66.3795 142.421 66.6904 142.734 66.9319 143.098C67.1734 143.461 67.3407 143.869 67.4243 144.297Z" fill="#A6A6A6"/>
<path d="M48.0837 148.932C48.0837 148.932 49.3752 151.094 52.9803 151.121C52.9803 151.121 51.8098 157.797 47.7365 155.803C43.6632 153.809 48.0837 148.932 48.0837 148.932Z" fill="#DBDBDB"/>
<path d="M46.9795 146.822C47.5853 148.112 48.5549 149.197 49.7692 149.943C50.9712 150.593 52.366 150.792 53.7021 150.505C55.0532 150.309 56.2857 149.624 57.1667 148.581C58.0322 147.444 58.5827 146.098 58.7625 144.68C58.9925 146.211 58.6583 147.774 57.8222 149.077C57.3794 149.746 56.7946 150.31 56.1094 150.727C55.4205 151.125 54.6681 151.401 53.8854 151.543C53.1041 151.681 52.3054 151.69 51.521 151.57C50.7337 151.431 49.9865 151.121 49.3322 150.661C48.0787 149.736 47.2349 148.359 46.9795 146.822V146.822Z" fill="#A6A6A6"/>
<path d="M48.7317 154.094C48.8315 153.459 49.0262 152.842 49.3091 152.264C49.5752 151.677 49.9291 151.134 50.3587 150.653C50.2613 151.29 50.0666 151.909 49.7812 152.487C49.5146 153.073 49.1607 153.615 48.7317 154.094Z" fill="#A6A6A6"/>
<path d="M70.1751 156.853C69.3206 158.687 61.17 163.802 57.0108 164.683C52.8517 165.565 43.3316 164.204 41.7943 162.873C37.4362 159.088 34.549 151.008 35.064 150.86C35.579 150.712 40.9594 150.173 43.4994 149.108C45.4268 148.296 50.2571 144.886 52.6917 144.371C55.1263 143.856 60.9281 145.007 63.0194 144.964C65.774 144.906 70.9086 143.216 71.4392 143.142C71.9698 143.068 72.6214 151.621 70.1751 156.853Z" fill="#DBDBDB"/>
<path d="M69.9641 145.909C66.952 146.318 64.8919 146.572 61.8916 146.946C59.0785 147.297 56.4292 146.58 53.6473 146.759C50.9903 146.931 48.8444 148.55 46.5307 149.685C43.6357 151.098 40.5338 151.878 37.4905 152.885C37.4554 152.885 37.4632 152.951 37.4905 152.943C40.233 152.47 42.9197 151.717 45.5085 150.696C48.5323 149.459 51.1659 147.184 54.5876 147.29C57.1432 147.372 59.4179 147.738 61.9774 147.364C64.9817 146.919 67.0145 146.611 70.0109 146.123C70.1514 146.1 70.089 145.889 69.9641 145.909Z" fill="#EBEBEB"/>
<path d="M66.4721 156.658C63.2259 158.628 59.6286 161.593 55.7698 162.12C51.6497 162.674 47.35 161.819 43.3703 160.813C43.3621 160.81 43.3531 160.811 43.3454 160.815C43.3377 160.819 43.332 160.826 43.3294 160.834C43.3268 160.843 43.3276 160.851 43.3316 160.859C43.3356 160.867 43.3426 160.873 43.3508 160.875C47.0769 162.288 51.5131 163.045 55.4889 162.483C59.4647 161.921 63.3625 159.041 66.5228 156.743C66.5774 156.7 66.515 156.63 66.4721 156.658Z" fill="#EBEBEB"/>
<path d="M67.5685 150.548C63.0855 150.618 58.103 149.849 53.6863 150.676C49.3945 151.484 45.1027 153.763 41.3298 155.873C41.3025 155.873 41.3298 155.932 41.3298 155.916C45.2314 154.024 49.4218 151.695 53.7215 150.926C58.1576 150.146 63.0581 150.871 67.5529 150.657C67.7206 150.661 67.7206 150.548 67.5685 150.548Z" fill="#EBEBEB"/>
<path d="M67.4712 153.173C63.6085 155.179 59.8356 157.383 55.5204 158.281C51.369 159.143 47.1084 158.749 42.9141 158.511C47.1006 158.975 51.3963 159.291 55.5555 158.441C59.8161 157.559 63.8192 155.483 67.518 153.251C67.5726 153.228 67.5297 153.142 67.4712 153.173Z" fill="#EBEBEB"/>
<path d="M35.0718 150.86C34.5917 150.796 34.1259 150.651 33.6945 150.431C33.2651 150.223 32.8562 149.974 32.4733 149.689C32.0891 149.411 31.7301 149.099 31.4003 148.757C31.2365 148.585 31.0765 148.406 30.9282 148.222C30.7793 148.031 30.6412 147.832 30.5146 147.625C30.7339 147.726 30.9475 147.838 31.1545 147.961C31.3574 148.078 31.5447 148.203 31.7515 148.332C32.1416 148.585 32.5318 148.855 32.8869 149.112C33.2419 149.37 33.6204 149.666 33.9832 149.951C34.3461 150.236 34.7011 150.544 35.0718 150.86Z" fill="#DBDBDB"/>
<path d="M42.6878 163.357C42.4068 163.334 42.1259 163.298 41.845 163.263L41.4236 163.205L41.0101 163.115L40.179 162.924C39.9059 162.842 39.6367 162.752 39.3675 162.666C38.2828 162.305 37.2371 161.836 36.2461 161.266C35.2574 160.706 34.3188 160.063 33.4408 159.342C32.5672 158.63 31.7731 157.826 31.0725 156.943C31.9699 157.627 32.8803 158.277 33.8037 158.893C34.7245 159.518 35.6687 160.099 36.6246 160.645C37.5841 161.196 38.5712 161.698 39.582 162.147C39.8356 162.257 40.0932 162.362 40.3624 162.479L41.1427 162.776L41.5329 162.932L41.923 163.064C42.1571 163.166 42.4225 163.256 42.6878 163.357Z" fill="#DBDBDB"/>
<path d="M71.408 143.15C71.6186 142.709 71.8215 142.3 72.04 141.886C72.2585 141.472 72.4692 141.074 72.6994 140.676C72.9296 140.279 73.1598 139.896 73.4173 139.506C73.5422 139.311 73.6709 139.116 73.8075 138.925C73.9443 138.727 74.0929 138.538 74.2523 138.359C74.2239 138.598 74.1796 138.836 74.1196 139.069C74.0572 139.299 73.987 139.525 73.905 139.752C73.7391 140.196 73.5382 140.627 73.3042 141.039C73.0689 141.454 72.7959 141.846 72.4887 142.21C72.1843 142.582 71.8188 142.9 71.408 143.15V143.15Z" fill="#DBDBDB"/>
<path d="M69.5234 157.66C69.7263 157.461 69.9136 157.27 70.136 157.079L70.4481 156.798L70.7408 156.498L71.3299 155.909C71.5133 155.702 71.7201 155.499 71.8917 155.296C72.6347 154.477 73.3328 153.619 73.983 152.725C74.6385 151.835 75.2615 150.925 75.8519 149.994C76.4372 149.046 76.9951 148.082 77.5375 147.095C77.253 148.191 76.8474 149.252 76.3279 150.259C75.8178 151.274 75.2226 152.244 74.5488 153.158C73.8772 154.077 73.1166 154.928 72.278 155.698C72.0673 155.885 71.8566 156.088 71.642 156.26L70.9632 156.775L70.6198 157.024C70.4989 157.099 70.3779 157.177 70.2569 157.247C70.015 157.38 69.7692 157.524 69.5234 157.66Z" fill="#DBDBDB"/>
<path d="M162.22 120.957C170.886 117.823 175.369 108.257 172.235 99.5922C169.101 90.9269 159.536 86.4431 150.87 89.5774C142.205 92.7116 137.721 102.277 140.855 110.942C143.99 119.608 153.555 124.091 162.22 120.957Z" fill="#EBEBEB"/>
<path opacity="0.5" d="M152.371 122.526C149.83 121.9 147.47 120.686 145.484 118.98C143.499 117.275 141.942 115.126 140.94 112.708C139.938 110.289 139.518 107.669 139.716 105.059C139.913 102.449 140.722 99.9215 142.076 97.6815C143.431 95.4414 145.293 93.5514 147.513 92.1639C149.733 90.7765 152.248 89.9307 154.855 89.6947C157.462 89.4587 160.088 89.8392 162.521 90.8055C164.954 91.7718 167.125 93.2967 168.86 95.2572C166.453 92.7354 163.218 91.1654 159.748 90.8351C156.277 90.5048 152.804 91.4362 149.965 93.4586C147.126 95.4811 145.11 98.4591 144.288 101.847C143.466 105.235 143.893 108.805 145.489 111.904C147.086 115.003 149.746 117.422 152.982 118.719C156.218 120.016 159.813 120.103 163.108 118.965C166.403 117.826 169.177 115.538 170.922 112.521C172.667 109.503 173.266 105.957 172.609 102.534C173.251 105.312 173.171 108.208 172.376 110.946C171.582 113.684 170.1 116.174 168.071 118.177C166.042 120.18 163.534 121.631 160.786 122.391C158.038 123.151 155.141 123.195 152.371 122.518V122.526Z" fill="#DBDBDB"/>
<path d="M160.74 103.256C160.642 103.72 160.451 104.159 160.179 104.548C159.907 104.936 159.56 105.267 159.158 105.519C158.756 105.771 158.308 105.94 157.84 106.015C157.372 106.091 156.893 106.072 156.432 105.959C155.972 105.846 155.538 105.641 155.158 105.358C154.778 105.074 154.458 104.718 154.218 104.308C153.979 103.899 153.824 103.446 153.762 102.975C153.701 102.505 153.735 102.027 153.862 101.57L160.74 103.256Z" fill="#A6A6A6"/>
<path d="M159.437 105.226C159.016 105.547 158.529 105.769 158.011 105.877C157.492 105.985 156.957 105.976 156.443 105.849C155.929 105.723 155.449 105.484 155.04 105.148C154.63 104.813 154.301 104.39 154.076 103.911C154.98 103.453 156.017 103.334 157 103.576C157.984 103.817 158.848 104.402 159.437 105.226Z" fill="#DBDBDB"/>
<path d="M146.414 100.684C146.979 102.592 148.868 103.993 148.868 103.993C148.868 103.993 151.123 103.31 152.297 101.703C153.277 100.364 153.078 98.7023 152.005 98.1561C150.444 97.3757 149.535 100.162 149.535 100.162C149.535 100.162 149.609 97.2314 147.881 97.4303C146.675 97.5981 145.941 99.0925 146.414 100.684Z" fill="white"/>
<path d="M167.755 105.916C166.37 107.344 164.045 107.711 164.045 107.711C164.045 107.711 162.363 106.065 162.067 104.098C161.817 102.46 162.75 101.071 163.963 101.09C165.703 101.113 165.227 104.008 165.227 104.008C165.227 104.008 166.519 101.375 167.958 102.362C168.953 103.06 168.906 104.722 167.755 105.916Z" fill="white"/>
<path d="M164.509 114.852C163.393 115.718 156.706 116.299 153.858 115.523C151.01 114.746 145.532 110.864 145.001 109.565C143.503 105.831 144.283 99.9082 144.646 99.9784C145.009 100.049 148.52 101.426 150.432 101.574C151.887 101.683 155.965 101.106 157.639 101.574C159.312 102.042 162.539 104.586 163.854 105.222C165.578 106.065 169.316 106.646 169.652 106.783C169.987 106.919 167.689 112.386 164.509 114.852Z" fill="#DBDBDB"/>
<path d="M167.857 108C165.86 107.294 164.51 106.802 162.52 106.076C160.666 105.397 159.25 104.125 157.471 103.345C155.77 102.608 153.924 102.932 152.13 102.896C149.886 102.853 147.713 102.35 145.497 102.011C145.469 102.011 145.458 102.042 145.497 102.05C147.345 102.627 149.247 103.013 151.174 103.201C153.441 103.396 155.797 102.811 157.885 103.981C159.445 104.839 160.737 105.795 162.446 106.373C164.447 107.056 165.805 107.508 167.818 108.16C167.912 108.179 167.951 108.031 167.857 108Z" fill="#EBEBEB"/>
<path d="M162.274 113.552C159.636 113.739 156.464 114.438 153.909 113.533C151.178 112.565 148.786 110.669 146.636 108.78C146.632 108.778 146.627 108.778 146.622 108.778C146.617 108.779 146.613 108.782 146.609 108.785C146.606 108.788 146.604 108.793 146.603 108.798C146.602 108.802 146.603 108.807 146.605 108.812C148.466 110.872 150.975 112.752 153.628 113.669C156.281 114.586 159.601 114.036 162.29 113.615C162.317 113.595 162.309 113.552 162.274 113.552Z" fill="#EBEBEB"/>
<path d="M164.9 110.115C162.098 108.73 159.254 106.67 156.254 105.784C153.343 104.918 149.945 104.961 146.94 105.078V105.109C149.96 105.175 153.296 105.062 156.207 105.956C159.211 106.872 162.013 108.886 164.869 110.181C164.958 110.224 164.99 110.162 164.9 110.115Z" fill="#EBEBEB"/>
<path d="M164.002 111.71C160.971 111.71 157.931 111.894 154.97 111.078C152.122 110.298 149.605 108.694 147.081 107.212C149.527 108.831 152.091 110.399 154.943 111.187C157.865 111.995 161.006 111.968 164.006 111.773C164.012 111.775 164.018 111.776 164.024 111.775C164.03 111.775 164.035 111.773 164.04 111.769C164.045 111.766 164.049 111.761 164.052 111.756C164.054 111.75 164.056 111.744 164.055 111.738C164.055 111.732 164.053 111.727 164.05 111.721C164.046 111.716 164.042 111.712 164.037 111.709C164.031 111.707 164.025 111.705 164.019 111.705C164.013 111.706 164.008 111.707 164.002 111.71Z" fill="#EBEBEB"/>
<path d="M144.65 99.9784C144.374 99.7852 144.131 99.548 143.932 99.2761C143.735 99.008 143.561 98.7235 143.413 98.4255C143.264 98.1309 143.14 97.8241 143.042 97.5086C142.995 97.3486 142.956 97.1887 142.921 97.0248C142.887 96.8601 142.865 96.6932 142.855 96.5254C142.959 96.6566 143.055 96.7934 143.144 96.9351C143.233 97.0755 143.315 97.216 143.397 97.3564C143.557 97.6374 143.706 97.9222 143.85 98.207C143.994 98.4918 144.127 98.7845 144.26 99.0771C144.392 99.3697 144.521 99.6662 144.65 99.9784Z" fill="#DBDBDB"/>
<path d="M145.391 110.146C145.223 110.041 145.06 109.931 144.896 109.818L144.654 109.651L144.424 109.463L143.971 109.073C143.827 108.936 143.69 108.792 143.55 108.656C142.997 108.087 142.5 107.466 142.067 106.802C141.635 106.139 141.259 105.441 140.943 104.715C140.621 103.994 140.379 103.241 140.221 102.468C140.561 103.178 140.916 103.868 141.287 104.547C141.657 105.226 142.067 105.889 142.477 106.533C142.896 107.179 143.349 107.803 143.834 108.402C143.955 108.55 144.08 108.698 144.201 108.851L144.591 109.284L144.782 109.502L144.989 109.709C145.134 109.857 145.266 109.998 145.391 110.146Z" fill="#DBDBDB"/>
<path d="M169.628 106.747C169.898 106.541 170.155 106.357 170.409 106.166C170.662 105.975 170.935 105.799 171.189 105.624C171.443 105.448 171.728 105.276 172.008 105.116C172.149 105.034 172.293 104.953 172.442 104.882C172.589 104.802 172.741 104.732 172.898 104.672C172.802 104.808 172.698 104.939 172.586 105.062C172.477 105.187 172.36 105.304 172.239 105.417C171.996 105.641 171.735 105.845 171.458 106.026C171.18 106.207 170.886 106.364 170.58 106.494C170.279 106.631 169.958 106.716 169.628 106.747V106.747Z" fill="#DBDBDB"/>
<path d="M163.85 115.155C164.038 115.097 164.241 115.042 164.416 114.992L164.697 114.914L164.974 114.82L165.524 114.644L166.07 114.441C166.791 114.17 167.497 113.86 168.185 113.513C168.872 113.169 169.551 112.803 170.214 112.401C170.877 111.999 171.529 111.585 172.165 111.145C171.638 111.727 171.049 112.25 170.409 112.705C169.77 113.172 169.093 113.583 168.384 113.934C167.676 114.29 166.935 114.577 166.172 114.789L165.594 114.937L165.013 115.038L164.72 115.085L164.424 115.109L163.85 115.155Z" fill="#DBDBDB"/>
<path d="M44.6584 66.2708C47.2738 57.5257 42.3046 48.3161 33.5595 45.7008C24.8143 43.0854 15.6048 48.0546 12.9894 56.7998C10.3741 65.5449 15.3433 74.7544 24.0884 77.3698C32.8336 79.9852 42.0431 75.016 44.6584 66.2708Z" fill="#EBEBEB"/>
<path opacity="0.5" d="M31.4277 77.8598C28.8669 78.2673 26.2462 78.0665 23.7773 77.2738C21.3085 76.481 19.0609 75.1184 17.2161 73.2962C15.3713 71.4741 13.9811 69.2434 13.1579 66.7845C12.3347 64.3257 12.1017 61.7076 12.4775 59.142C12.8534 56.5764 13.8276 54.1352 15.3215 52.0158C16.8154 49.8964 18.787 48.1582 21.077 46.9418C23.3669 45.7254 25.911 45.0648 28.5035 45.0135C31.0959 44.9622 33.6641 45.5216 36.0004 46.6465C32.8317 45.2659 29.2714 45.0736 25.9724 46.1051C22.6734 47.1365 19.8568 49.3225 18.0388 52.2623C16.2209 55.2021 15.5235 58.6986 16.0745 62.1109C16.6255 65.5232 18.3879 68.6225 21.0388 70.8407C23.6896 73.0588 27.0511 74.2472 30.5071 74.1879C33.9631 74.1286 37.2819 72.8256 39.855 70.5178C42.4282 68.21 44.0833 65.052 44.5169 61.6228C44.9505 58.1936 44.1335 54.7231 42.2158 51.8474C43.8705 54.1354 44.9117 56.8091 45.2399 59.6137C45.5681 62.4182 45.1725 65.2601 44.0908 67.8683C43.0091 70.4766 41.2773 72.7643 39.0606 74.5134C36.8438 76.2624 34.216 77.4145 31.4277 77.8598V77.8598Z" fill="#DBDBDB"/>
<path d="M22.8165 59.1862C22.8884 59.6441 22.8229 60.113 22.6281 60.5336C22.4333 60.9542 22.118 61.3075 21.7223 61.5487C21.3265 61.7899 20.868 61.9082 20.4049 61.8886C19.9419 61.8691 19.495 61.7125 19.121 61.4387C18.747 61.1649 18.4627 60.7863 18.3041 60.3507C18.1456 59.9152 18.1198 59.4424 18.2302 58.9923C18.3406 58.5421 18.5821 58.1349 18.9241 57.8221C19.2662 57.5093 19.6934 57.3051 20.1516 57.2354C20.7635 57.1423 21.3873 57.2952 21.8867 57.6608C22.3861 58.0264 22.7203 58.5748 22.8165 59.1862V59.1862Z" fill="#A6A6A6"/>
<path d="M38.4035 56.697C38.4793 57.1549 38.4173 57.6251 38.2253 58.0477C38.0334 58.4703 37.7201 58.8263 37.3253 59.0705C36.9305 59.3147 36.4721 59.436 36.0082 59.419C35.5444 59.402 35.096 59.2475 34.7202 58.9751C34.3443 58.7027 34.0579 58.3247 33.8974 57.8891C33.7369 57.4536 33.7094 56.9802 33.8186 56.529C33.9277 56.0779 34.1686 55.6693 34.5104 55.3553C34.8523 55.0414 35.2798 54.8361 35.7386 54.7657C36.3476 54.6721 36.9688 54.8225 37.4677 55.184C37.9666 55.5455 38.3028 56.0892 38.4035 56.697V56.697Z" fill="#A6A6A6"/>
<path d="M31.9192 60.6647C32.2743 62.8965 31.1389 64.9293 29.4104 65.2102C27.682 65.4911 25.9692 63.9031 25.6141 61.6714C25.2591 59.4396 26.3944 57.4029 28.1229 57.1259C29.8513 56.8489 31.5642 58.433 31.9192 60.6647Z" fill="#A6A6A6"/>
<path d="M17.0264 56.7477C17.0264 56.7477 18.3529 54.0634 21.8488 55.0661Z" fill="#A6A6A6"/>
<path d="M38.5365 53.3182C38.5365 53.3182 36.4413 51.1801 33.4292 53.2207Z" fill="#A6A6A6"/>
<path d="M40.0151 65.4679C39.3947 66.7359 33.6593 70.1967 30.7486 70.7624C27.838 71.3282 21.2247 70.2552 20.1751 69.311C17.1864 66.6228 15.2785 60.9576 15.6375 60.8639C15.9964 60.7703 19.7576 60.4542 21.5329 59.7519C22.8868 59.2135 26.2929 56.8959 27.998 56.5643C29.703 56.2326 33.7256 57.1105 35.1809 57.1066C37.1005 57.1066 40.6979 55.9868 41.0685 55.9361C41.4392 55.8854 41.7825 61.8549 40.0151 65.4679Z" fill="#DBDBDB"/>
<path d="M40.0035 57.84C37.9005 58.0897 36.492 58.2302 34.3656 58.4643C32.4148 58.675 30.5654 58.1404 28.6262 58.2302C26.7729 58.3199 25.2591 59.4241 23.6321 60.181C21.5993 61.133 19.43 61.6363 17.2958 62.2996C17.2724 62.2996 17.2958 62.3464 17.2958 62.3425C19.2099 62.0462 21.0886 61.5546 22.9025 60.8755C25.0211 60.0523 26.8861 58.4955 29.2661 58.6125C31.0453 58.7023 32.6254 59.0027 34.4163 58.7569C36.5115 58.4838 37.9278 58.2926 40.023 57.9766C40.1322 57.9766 40.101 57.8283 40.0035 57.84Z" fill="#EBEBEB"/>
<path d="M37.4362 65.2886C35.1498 66.619 32.6098 68.6401 29.9176 68.9522C27.0382 69.2839 24.0651 68.6362 21.295 67.8871C21.2677 67.8871 21.252 67.9222 21.295 67.93C23.874 68.96 26.9563 69.5453 29.7304 69.2019C32.5044 68.8586 35.259 66.9 37.4869 65.3393C37.5025 65.3198 37.4674 65.2691 37.4362 65.2886Z" fill="#EBEBEB"/>
<path d="M38.2751 61.0435C35.1537 61.0435 31.693 60.4387 28.6068 60.9655C25.6142 61.4727 22.5826 63.006 19.9333 64.4301V64.4614C22.6645 63.1894 25.6181 61.6209 28.6224 61.1371C31.7242 60.6416 35.1264 61.2152 38.2634 61.1371C38.3804 61.1176 38.3804 61.0435 38.2751 61.0435Z" fill="#EBEBEB"/>
<path d="M38.1776 62.8731C35.4464 64.227 32.805 65.7135 29.789 66.2871C26.8862 66.8372 23.9365 66.5095 21.0063 66.2871C23.917 66.6772 26.9096 66.9426 29.8163 66.3924C32.7972 65.8306 35.6103 64.4416 38.2127 62.9277C38.2478 62.9121 38.2166 62.8497 38.1776 62.8731Z" fill="#EBEBEB"/>
<path d="M15.6377 60.864C15.3041 60.8072 14.9824 60.6951 14.6857 60.5323C14.3902 60.3819 14.1094 60.2042 13.8468 60.0017C13.5885 59.8093 13.347 59.5953 13.125 59.3618C13.0119 59.2409 12.9026 59.116 12.8012 58.9717C12.6999 58.8373 12.6074 58.6965 12.5242 58.5503C12.6802 58.6244 12.8207 58.7103 12.9612 58.7922C13.1016 58.8741 13.2382 58.9678 13.3747 59.0575C13.6439 59.2409 13.9015 59.4477 14.1551 59.6272C14.4087 59.8066 14.6623 60.0173 14.9081 60.2241C15.1539 60.4309 15.3841 60.6377 15.6377 60.864Z" fill="#DBDBDB"/>
<path d="M20.7875 69.6584C20.5924 69.6584 20.3973 69.6116 20.2022 69.5843L19.9096 69.5374L19.6209 69.4711L19.0434 69.3268L18.4816 69.1395C17.7348 68.8724 17.016 68.5326 16.3357 68.125C15.6563 67.7214 15.0116 67.262 14.4082 66.7517C13.8019 66.2443 13.2525 65.6726 12.7695 65.0466C13.3899 65.5343 14.0103 66.0025 14.6423 66.4473C15.2744 66.8921 15.926 67.3096 16.5932 67.7037C17.2532 68.1007 17.9344 68.4614 18.6337 68.7844L19.1605 69.0263L19.6989 69.2448L19.9681 69.358L20.2451 69.4516C20.4207 69.5062 20.6041 69.5843 20.7875 69.6584Z" fill="#DBDBDB"/>
<path d="M41.0413 55.9363C41.1934 55.6359 41.3417 55.3511 41.4978 55.0662C41.6538 54.7814 41.8099 54.5044 41.9738 54.2313C42.1376 53.9582 42.3054 53.6811 42.4849 53.4119C42.5785 53.2793 42.6683 53.1427 42.7697 53.0218C42.8671 52.8855 42.9727 52.7552 43.0857 52.6316C43.0621 52.7987 43.0282 52.9642 42.9843 53.1271C42.9375 53.2871 42.8867 53.4431 42.8282 53.5992C42.7055 53.9065 42.5594 54.2039 42.3912 54.4888C42.2233 54.7757 42.0286 55.0461 41.8099 55.2964C41.5912 55.5512 41.3314 55.7675 41.0413 55.9363Z" fill="#DBDBDB"/>
<path d="M39.5508 66.0218C39.6951 65.8852 39.8395 65.7525 39.9878 65.6316C40.058 65.5653 40.1321 65.5028 40.2063 65.4404L40.413 65.2336L40.8305 64.8434L41.2207 64.4221C41.7464 63.8604 42.2426 63.2717 42.7072 62.6585C43.1754 62.046 43.6202 61.4178 44.0416 60.7662C44.463 60.1146 44.8609 59.4513 45.255 58.7686C45.0403 59.5282 44.7433 60.2622 44.3693 60.9574C44.0023 61.6579 43.5769 62.3262 43.0974 62.955C42.618 63.5872 42.0769 64.1701 41.4821 64.6952C41.3338 64.8239 41.1856 64.9566 41.0334 65.0853L40.5535 65.4365L40.3116 65.6043L40.0541 65.7564C39.8941 65.8306 39.7264 65.9281 39.5508 66.0218Z" fill="#DBDBDB"/>
<path d="M96.4022 2.02673L94.8688 23.7785L93.2925 45.5264L90.1322 89.0261H89.8435L86.6831 45.5264L85.1068 23.7785L83.5735 2.02673L85.2473 23.7668L86.8782 45.5108L90.1322 89.0027H89.8435L93.0975 45.5108L94.7284 23.7668L96.4022 2.02673Z" fill="#DBDBDB"/>
<path d="M33.0116 22.9672L47.3112 39.4322L61.5757 55.9284L90.0968 88.9209L89.8901 89.1238L56.9015 60.6026L40.4052 46.3381L23.9402 32.0385L40.4989 46.2289L57.0263 60.4544L90.0812 88.9053L89.8784 89.1082L61.4274 56.0533L47.2019 39.5258L33.0116 22.9672Z" fill="#DBDBDB"/>
<path d="M3 82.6001L24.7518 84.1335L46.4997 85.7097L89.9993 88.8701V89.1588L46.4997 92.3192L24.7518 93.8954L3 95.4288L24.7401 93.755L46.4841 92.1241L89.9759 88.8701V89.1588L46.4841 85.9048L24.7401 84.2739L3 82.6001Z" fill="#DBDBDB"/>
<path d="M23.9402 145.99L40.4052 131.691L56.9015 117.426L89.8901 88.905L90.0968 89.1079L61.5757 122.1L47.3112 138.597L33.0116 155.062L47.2019 138.503L61.4274 121.976L89.8784 88.9206L90.0812 89.1235L57.0263 117.574L40.4989 131.8L23.9402 145.99Z" fill="#DBDBDB"/>
<path d="M83.5735 176.002L85.1068 154.25L86.6831 132.502L89.8435 89.0027H90.1322L93.2925 132.502L94.8688 154.25L96.4022 176.002L94.7284 154.262L93.0975 132.518L89.8435 89.0261H90.1322L86.8782 132.518L85.2473 154.262L83.5735 176.002Z" fill="#DBDBDB"/>
<path d="M146.964 155.062L132.664 138.597L118.4 122.1L89.8784 89.1079L90.0852 88.905L123.074 117.426L139.57 131.691L156.035 145.99L139.476 131.8L122.949 117.574L89.894 89.1235L90.0969 88.9206L118.548 121.976L132.773 138.503L146.964 155.062Z" fill="#DBDBDB"/>
<path d="M176.975 95.4288L155.224 93.8954L133.476 92.3192L89.9761 89.1588V88.8701L133.476 85.7097L155.224 84.1335L176.975 82.6001L155.235 84.2739L133.491 85.9048L89.9995 89.1588V88.8701L133.491 92.1241L155.235 93.755L176.975 95.4288Z" fill="#DBDBDB"/>
<path d="M156.035 32.0385L139.57 46.3381L123.074 60.6026L90.0852 89.1238L89.8784 88.9209L118.4 55.9284L132.664 39.4322L146.964 22.9672L132.773 39.5258L118.548 56.0533L90.0969 89.1082L89.894 88.9053L122.949 60.4544L139.476 46.2289L156.035 32.0385Z" fill="#DBDBDB"/>
<path d="M65.5828 15.1443L71.7513 33.5914L77.8769 52.0501L90.1243 88.9677L89.859 89.0808L72.4146 54.3131L63.6905 36.9273L55.0093 19.522L63.8192 36.8649L72.5863 54.2273L90.1165 88.9482L89.8512 89.0613L77.6936 52.1087L71.6148 33.6343L65.5828 15.1443Z" fill="#DBDBDB"/>
<path d="M20.4949 54.0359L37.9002 62.7171L55.286 71.4412L90.0537 88.8856L89.9406 89.1509L53.023 76.9036L34.5643 70.7779L16.1172 64.6094L34.6072 70.6414L53.0816 76.7202L90.0342 88.8778L89.9211 89.1431L55.2002 71.6129L37.8378 62.8458L20.4949 54.0359Z" fill="#DBDBDB"/>
<path d="M16.1172 113.419L34.5643 107.251L53.023 101.125L89.9406 88.8779L90.0537 89.1432L55.286 106.591L37.9002 115.312L20.4949 123.989L37.8378 115.183L55.2002 106.416L89.9211 88.8857L90.0342 89.1511L53.0816 101.309L34.6072 107.387L16.1172 113.419Z" fill="#DBDBDB"/>
<path d="M55.0093 158.507L63.6905 141.102L72.4146 123.716L89.859 88.948L90.1243 89.0611L77.8769 125.979L71.7513 144.437L65.5828 162.885L71.6148 144.395L77.6936 125.92L89.8512 88.9675L90.1165 89.0807L72.5863 123.802L63.8192 141.164L55.0093 158.507Z" fill="#DBDBDB"/>
<path d="M114.393 162.885L108.224 144.437L102.098 125.979L89.8511 89.0611L90.1164 88.948L107.565 123.716L116.285 141.102L124.962 158.507L116.156 141.164L107.389 123.805L89.8589 89.0807L90.1242 88.9675L102.282 125.92L108.361 144.395L114.393 162.885Z" fill="#DBDBDB"/>
<path d="M159.481 123.989L142.075 115.312L124.689 106.588L89.9216 89.1432L90.0348 88.8779L126.952 101.125L145.411 107.251L163.858 113.419L145.368 107.387L126.894 101.309L89.9411 89.1511L90.0543 88.8857L124.775 106.416L142.138 115.183L159.481 123.989Z" fill="#DBDBDB"/>
<path d="M163.858 64.6094L145.411 70.7779L126.952 76.9036L90.0348 89.1509L89.9216 88.8856L124.689 71.4412L142.075 62.7171L159.481 54.0359L142.138 62.8458L124.779 71.6129L90.0543 89.1431L89.9411 88.8778L126.894 76.7202L145.368 70.6414L163.858 64.6094Z" fill="#DBDBDB"/>
<path d="M124.962 19.522L116.285 36.9273L107.561 54.3131L90.1164 89.0808L89.8511 88.9677L102.098 52.0501L108.224 33.5914L114.393 15.1443L108.361 33.6343L102.282 52.1087L90.1242 89.0613L89.8589 88.9482L107.389 54.2273L116.156 36.8649L124.962 19.522Z" fill="#DBDBDB"/>
<path d="M122.251 156.96C125.939 154.733 127.122 149.939 124.895 146.252C122.669 142.565 117.874 141.381 114.187 143.608C110.5 145.835 109.316 150.629 111.543 154.316C113.77 158.003 118.564 159.187 122.251 156.96Z" fill="#FFC727"/>
<path opacity="0.1" d="M118.142 158.074C116.917 158.064 115.711 157.766 114.622 157.203C113.534 156.64 112.593 155.829 111.876 154.835C111.159 153.842 110.687 152.693 110.496 151.482C110.306 150.272 110.404 149.034 110.781 147.868C111.158 146.702 111.805 145.641 112.669 144.772C113.532 143.902 114.588 143.249 115.751 142.863C116.915 142.478 118.152 142.372 119.364 142.554C120.576 142.736 121.728 143.201 122.727 143.911C121.359 143.017 119.716 142.647 118.097 142.867C116.479 143.087 114.994 143.883 113.916 145.11C112.837 146.336 112.236 147.91 112.224 149.543C112.212 151.177 112.789 152.76 113.849 154.002C114.91 155.244 116.383 156.062 117.998 156.306C119.612 156.551 121.261 156.205 122.642 155.331C124.022 154.458 125.041 153.117 125.513 151.553C125.984 149.989 125.876 148.308 125.208 146.818C125.798 148.013 126.072 149.338 126.004 150.669C125.936 152 125.528 153.291 124.819 154.42C124.111 155.548 123.125 156.477 121.957 157.116C120.788 157.756 119.475 158.086 118.142 158.074V158.074Z" fill="black"/>
<path d="M22.0351 103.403C24.5971 102.538 25.9722 99.7588 25.1066 97.1968C24.2409 94.6348 21.4622 93.2597 18.9002 94.1254C16.3381 94.9911 14.963 97.7698 15.8287 100.332C16.6944 102.894 19.4731 104.269 22.0351 103.403Z" fill="#FFC727"/>
<path opacity="0.1" d="M20.4209 103.661C19.6511 103.655 18.8934 103.468 18.2093 103.115C17.5253 102.762 16.934 102.253 16.4835 101.628C16.033 101.004 15.7359 100.283 15.6164 99.522C15.4968 98.7615 15.5581 97.9835 15.7952 97.2511C16.0324 96.5187 16.4388 95.8525 16.9815 95.3064C17.5242 94.7604 18.1879 94.3499 18.9188 94.1081C19.6497 93.8664 20.4273 93.8003 21.1886 93.9152C21.9498 94.0301 22.6733 94.3227 23.3003 94.7693C22.4435 94.2124 21.4147 93.983 20.4024 94.1231C19.3902 94.2632 18.4623 94.7635 17.789 95.5321C17.1156 96.3008 16.7418 97.2864 16.7361 98.3082C16.7304 99.3301 17.0932 100.32 17.758 101.096C18.4227 101.872 19.3449 102.383 20.3556 102.534C21.3662 102.685 22.3975 102.467 23.2605 101.92C24.1235 101.373 24.7603 100.533 25.0543 99.5542C25.3482 98.5755 25.2796 97.5236 24.861 96.5914C25.2316 97.342 25.4038 98.1751 25.361 99.0111C25.3183 99.8471 25.0621 100.658 24.6169 101.367C24.1716 102.076 23.5522 102.659 22.8177 103.061C22.0832 103.462 21.258 103.669 20.4209 103.661V103.661Z" fill="black"/>
<path d="M97.2013 31.0913C99.9025 30.963 101.988 28.6691 101.86 25.9678C101.732 23.2666 99.4378 21.1808 96.7365 21.3091C94.0353 21.4375 91.9495 23.7313 92.0778 26.4326C92.2062 29.1338 94.5 31.2196 97.2013 31.0913Z" fill="#FFC727"/>
<path opacity="0.1" d="M96.921 31.106C96.1515 31.1 95.3943 30.9129 94.7106 30.5599C94.0268 30.2068 93.4359 29.6977 92.9855 29.0737C92.5352 28.4497 92.2381 27.7285 92.1183 26.9684C91.9985 26.2082 92.0595 25.4306 92.2961 24.6984C92.5328 23.9662 92.9386 23.3 93.4806 22.7538C94.0227 22.2076 94.6857 21.7967 95.4161 21.5544C96.1464 21.3121 96.9236 21.2453 97.6846 21.3592C98.4456 21.4731 99.1692 21.7647 99.7965 22.2102C99.0039 21.6927 98.0615 21.4539 97.118 21.5315C96.1746 21.6092 95.2838 21.9988 94.5864 22.6388C93.889 23.2789 93.4246 24.133 93.2665 25.0664C93.1085 25.9997 93.2657 26.9591 93.7135 27.7932C94.1613 28.6272 94.8741 29.2884 95.7393 29.6723C96.6046 30.0562 97.5731 30.1411 98.492 29.9134C99.4108 29.6857 100.228 29.1586 100.814 28.4151C101.4 27.6716 101.721 26.7542 101.728 25.8076C101.736 25.1945 101.61 24.5871 101.357 24.0284C101.728 24.7787 101.9 25.6114 101.857 26.4471C101.815 27.2829 101.559 28.0938 101.114 28.8026C100.669 29.5114 100.05 30.0945 99.3164 30.4963C98.5824 30.8982 97.7578 31.1054 96.921 31.0982V31.106Z" fill="black"/>
<path d="M165.063 70.3555C167.904 65.1041 165.951 58.5433 160.7 55.7015C155.448 52.8596 148.887 54.813 146.045 60.0645C143.204 65.3159 145.157 71.8767 150.408 74.7185C155.66 77.5603 162.221 75.607 165.063 70.3555Z" fill="#FFC727"/>
<path opacity="0.1" d="M155.454 76.022C153.758 76.0059 152.089 75.5909 150.583 74.8106C149.076 74.0302 147.775 72.9064 146.783 71.5299C145.792 70.1534 145.138 68.5629 144.875 66.8871C144.612 65.2112 144.747 63.4969 145.27 61.8829C145.792 60.2689 146.686 58.8004 147.881 57.5962C149.076 56.392 150.537 55.4858 152.147 54.9509C153.757 54.416 155.47 54.2675 157.148 54.5173C158.826 54.7671 160.422 55.4082 161.806 56.3888C159.918 55.1616 157.652 54.6555 155.421 54.9633C153.191 55.2712 151.146 56.3723 149.662 58.0649C148.177 59.7575 147.352 61.9284 147.338 64.1798C147.324 66.4312 148.121 68.6124 149.584 70.3238C151.047 72.0352 153.077 73.1622 155.303 73.4984C157.53 73.8346 159.802 73.3575 161.705 72.1544C163.608 70.9513 165.014 69.1029 165.666 66.9477C166.317 64.7924 166.17 62.4748 165.251 60.4192C166.07 62.0758 166.45 63.9145 166.356 65.76C166.263 67.6055 165.698 69.3961 164.715 70.9612C163.733 72.5262 162.366 73.8134 160.744 74.7001C159.123 75.5867 157.302 76.0431 155.454 76.0259V76.022Z" fill="black"/>
<path d="M37.2251 85.577C37.2192 95.2255 39.8763 104.689 44.9036 112.924C44.9099 112.939 44.9177 112.953 44.927 112.967C45.3172 113.622 45.7346 114.266 46.1677 114.898L46.476 115.355C46.5306 115.44 46.5891 115.518 46.6476 115.604C47.0066 116.119 47.3694 116.63 47.7518 117.13C48.2902 117.856 48.8521 118.558 49.4295 119.252L49.5856 119.44C49.7651 119.662 49.9445 119.884 50.1318 120.099C51.7938 122.013 53.5934 123.804 55.5161 125.456C76.8816 144.418 111.357 141.894 129.784 120.103C131.885 117.676 133.761 115.064 135.391 112.3C138.331 107.323 140.427 101.894 141.595 96.2325V96.2325C148.446 64.2388 123.573 32.6353 89.9132 32.7992C60.5883 32.647 36.9598 57.2548 37.2251 85.577Z" fill="#FFC727"/>
<path opacity="0.1" d="M37.2368 85.5417C37.2352 93.8164 39.1811 101.975 42.9172 109.359C46.6532 116.742 52.0745 123.142 58.7426 128.042C65.4107 132.941 73.1383 136.203 81.3005 137.563C89.4627 138.922 97.8303 138.342 105.727 135.868C113.623 133.394 120.826 129.097 126.754 123.323C132.681 117.55 137.167 110.462 139.847 102.634C142.528 94.8052 143.329 86.4558 142.184 78.2606C141.04 70.0654 137.983 62.2546 133.261 55.4599C139.189 64.7386 141.574 75.8428 139.979 86.7373C138.385 97.6319 132.918 107.587 124.58 114.778C116.242 121.969 105.591 125.914 94.5806 125.89C83.5701 125.866 72.9369 121.875 64.63 114.648C56.3232 107.421 50.8991 97.4423 49.3519 86.5409C47.8048 75.6396 50.2382 64.5458 56.2062 55.2929C62.1742 46.04 71.277 39.2478 81.8461 36.1613C92.4152 33.0748 103.743 33.9007 113.752 38.4876C105.713 34.4285 96.769 32.4954 87.7713 32.8724C78.7735 33.2495 70.0222 35.9242 62.351 40.6416C54.6798 45.3591 48.3443 51.9622 43.9481 59.8219C39.5519 67.6816 37.2415 76.5361 37.2368 85.5417V85.5417Z" fill="black"/>
<path opacity="0.3" d="M58.15 61.1566C58.4972 62.4441 61.3728 62.7914 64.576 61.9369C67.7793 61.0824 70.0969 59.3384 69.7496 58.0353C69.4024 56.7321 66.5269 56.4044 63.3236 57.2549C60.1203 58.1055 57.8066 59.8729 58.15 61.1566Z" fill="black"/>
<path opacity="0.3" d="M121.825 61.1566C121.478 62.4441 118.602 62.7914 115.399 61.9369C112.196 61.0824 109.878 59.3384 110.225 58.0353C110.573 56.7321 113.448 56.4044 116.651 57.2549C119.855 58.1055 122.168 59.8729 121.825 61.1566Z" fill="black"/>
<path d="M57.3656 75.3351C57.2238 74.2724 57.2958 73.1922 57.5772 72.1577C57.8586 71.1232 58.3438 70.1553 59.0043 69.3109C59.6841 68.4051 60.5588 67.6637 61.5638 67.1416C62.5983 66.613 63.7458 66.3438 64.9074 66.3574C66.0691 66.371 67.21 66.6669 68.2318 67.2196C69.2259 67.7679 70.0834 68.5335 70.7406 69.4592C71.3801 70.3202 71.8401 71.3009 72.0935 72.3431C72.3468 73.3853 72.3883 74.4678 72.2154 75.5263C71.8182 73.6159 70.9031 71.8517 69.5701 70.4268C68.9779 69.769 68.2559 69.2409 67.4497 68.8756C66.6434 68.5104 65.7703 68.316 64.8853 68.3046C64.0002 68.2933 63.1224 68.4652 62.307 68.8096C61.4917 69.154 60.7564 69.6635 60.1475 70.3059C58.7763 71.6952 57.8138 73.4352 57.3656 75.3351V75.3351Z" fill="#263238"/>
<path d="M107.729 75.3351C107.586 74.2727 107.657 73.1926 107.938 72.1581C108.219 71.1236 108.703 70.1556 109.363 69.3109C110.045 68.4051 110.921 67.6638 111.927 67.1416C112.961 66.613 114.109 66.3438 115.27 66.3574C116.432 66.371 117.573 66.6669 118.595 67.2196C119.589 67.7679 120.446 68.5335 121.103 69.4592C121.742 70.3205 122.202 71.3014 122.454 72.3435C122.707 73.3857 122.748 74.468 122.574 75.5263C122.179 73.6154 121.263 71.8507 119.929 70.4268C119.337 69.769 118.615 69.2409 117.809 68.8756C117.002 68.5104 116.129 68.316 115.244 68.3046C114.359 68.2933 113.481 68.4652 112.666 68.8096C111.851 69.154 111.115 69.6635 110.507 70.3059C109.135 71.6945 108.174 73.4348 107.729 75.3351V75.3351Z" fill="#263238"/>
<path d="M78.8015 72.834C79.5584 75.4832 80.9123 77.9062 82.8514 79.5527C84.7906 81.1992 87.3266 81.8937 89.8978 81.8937C92.4467 82.0006 94.9459 81.1675 96.9208 79.5527C98.8717 77.8944 100.284 75.5183 101.185 72.9198C101.087 75.8075 99.9431 78.5611 97.9665 80.6685C96.9246 81.7451 95.6594 82.5801 94.2599 83.1149C92.8585 83.6131 91.3812 83.8639 89.8939 83.8562C88.4148 83.8427 86.9479 83.587 85.5514 83.0993C84.1449 82.5783 82.872 81.7506 81.8253 80.6763C79.8355 78.5551 78.7508 75.7419 78.8015 72.834Z" fill="#263238"/>
<path d="M122.27 105.546C119.539 109.147 99.4531 116.517 89.9877 116.517C80.4208 116.517 60.4208 109.147 57.7053 105.546C49.9683 95.2882 47.4205 76.3652 48.6066 76.2832C49.7927 76.2013 61.7552 77.5084 67.7794 76.3613C72.356 75.4912 84.4473 70.2864 89.9877 70.2864C95.528 70.2864 107.619 75.4795 112.196 76.3496C118.22 77.4967 130.183 76.1896 131.369 76.2715C132.555 76.3535 130.007 95.2882 122.27 105.546Z" fill="#EBEBEB"/>
<path d="M126.866 81.6207C120.12 81.1212 115.551 80.7272 108.805 80.1497C102.52 79.6113 97.0767 76.8216 90.9472 75.932C85.0947 75.0775 79.6636 77.6175 74.0959 79.0104C67.1431 80.7506 60.0265 81.0159 52.9372 81.804C52.9196 81.804 52.9027 81.811 52.8903 81.8235C52.8778 81.8359 52.8708 81.8528 52.8708 81.8704C52.8708 81.888 52.8778 81.9048 52.8903 81.9173C52.9027 81.9297 52.9196 81.9367 52.9372 81.9367C59.0706 82.1006 65.3562 81.847 71.4038 80.7467C78.5555 79.4474 85.3483 75.7096 92.7459 77.5239C98.2706 78.8778 103.058 80.735 108.805 81.0978C115.551 81.5231 120.12 81.7845 126.866 82.1123C127.182 82.1279 127.178 81.6441 126.866 81.6207Z" fill="white"/>
<path d="M114.295 103.411C106.312 106.197 97.1079 110.996 88.4696 110.337C79.2461 109.631 70.2839 105.784 62.0826 101.753C62.0659 101.747 62.0476 101.747 62.031 101.753C62.0143 101.76 62.0005 101.772 61.992 101.787C61.9834 101.803 61.9808 101.821 61.9846 101.838C61.9883 101.856 61.9982 101.871 62.0124 101.882C69.4724 106.673 78.7896 110.376 87.6932 110.992C96.5968 111.609 106.421 107.137 114.369 103.579C114.474 103.548 114.4 103.376 114.295 103.411Z" fill="white"/>
<path d="M119.503 90.6178C109.71 88.6943 99.2148 84.7185 89.2188 84.4844C79.5231 84.2581 69.0862 87.2155 59.9095 90.0911C59.899 90.0973 59.8909 90.1069 59.8865 90.1184C59.8821 90.1298 59.8816 90.1423 59.8852 90.154C59.8888 90.1657 59.8962 90.1759 59.9063 90.1829C59.9164 90.1898 59.9285 90.1932 59.9407 90.1925C69.3047 87.8515 79.5036 84.7302 89.2032 85.054C99.2304 85.374 109.558 89.2444 119.445 90.8558C119.784 90.9104 119.835 90.6802 119.503 90.6178Z" fill="white"/>
<path d="M118.079 96.283C108.743 98.8698 99.5114 101.921 89.7026 101.882C80.2606 101.847 71.1697 99.0181 62.1491 96.56C62.1491 96.56 62.1257 96.5795 62.1491 96.5834C71.0371 99.5487 80.2333 102.229 89.6987 102.28C99.3827 102.331 109.059 99.6618 118.138 96.5093C118.168 96.5016 118.194 96.4822 118.209 96.4555C118.225 96.4288 118.23 96.3969 118.222 96.3669C118.214 96.3369 118.195 96.3112 118.168 96.2955C118.141 96.2797 118.109 96.2753 118.079 96.283V96.283Z" fill="white"/>
<path d="M48.6063 76.2832C47.592 75.9229 46.6451 75.3954 45.8049 74.7225C44.967 74.0697 44.1912 73.3409 43.4873 72.5454C42.7836 71.7569 42.1468 70.9112 41.5833 70.0171C41.3024 69.5684 41.0449 69.108 40.803 68.632C40.5662 68.1496 40.359 67.6532 40.1826 67.1455C40.6129 67.4637 41.0246 67.8063 41.4155 68.1716C41.8057 68.5228 42.1959 68.8896 42.547 69.2563C43.2805 69.9859 43.9711 70.7467 44.6578 71.5076C45.3445 72.2684 45.9961 73.0682 46.6555 73.8486C47.3149 74.6289 47.9469 75.4248 48.6063 76.2832Z" fill="#EBEBEB"/>
<path d="M59.4139 107.005C58.8131 106.822 58.22 106.615 57.6231 106.412C57.3226 106.311 57.0261 106.201 56.7296 106.092L55.8673 105.702L54.1506 104.898C53.5965 104.598 53.0503 104.274 52.5002 103.966C50.3189 102.677 48.2709 101.176 46.3863 99.4827C44.4967 97.8048 42.7529 95.9696 41.1736 93.9969C39.5783 92.0432 38.2031 89.9196 37.073 87.6646C38.7117 89.5686 40.3829 91.4114 42.0866 93.1932C43.8034 94.9763 45.5981 96.6774 47.4202 98.3161C49.2514 99.9603 51.1685 101.506 53.1635 102.947C53.6668 103.306 54.174 103.654 54.6734 104.024L56.2341 105.031L57.0144 105.55L57.822 106.018C58.3449 106.342 58.8794 106.662 59.4139 107.005Z" fill="#EBEBEB"/>
<path d="M131.283 76.2832C131.942 75.4248 132.578 74.6172 133.234 73.8251C133.889 73.0331 134.553 72.2645 135.231 71.4841C135.91 70.7038 136.609 69.9625 137.342 69.2329C137.709 68.8661 138.076 68.4994 138.474 68.1482C138.863 67.7829 139.274 67.4402 139.703 67.1221C139.528 67.6304 139.321 68.1269 139.082 68.6086C138.84 69.0846 138.583 69.545 138.302 69.9937C137.737 70.8869 137.101 71.7325 136.398 72.522C135.694 73.3175 134.918 74.0463 134.08 74.6991C133.243 75.3791 132.297 75.9144 131.283 76.2832Z" fill="#EBEBEB"/>
<path d="M120.475 107.005C121.01 106.662 121.544 106.342 122.079 106.022L122.886 105.553L123.667 105.035L125.227 104.028C125.727 103.638 126.234 103.31 126.737 102.951C128.731 101.509 130.649 99.963 132.481 98.3198C134.314 96.6811 136.097 94.9799 137.814 93.1969C139.531 91.4138 141.185 89.5722 142.828 87.6682C141.698 89.9232 140.322 92.0468 138.727 94.0006C137.148 95.9733 135.404 97.8085 133.514 99.4864C131.629 101.178 129.581 102.68 127.401 103.969C126.85 104.278 126.304 104.601 125.75 104.902L124.033 105.706L123.171 106.096C122.871 106.205 122.578 106.314 122.278 106.416C121.669 106.619 121.076 106.821 120.475 107.005Z" fill="#EBEBEB"/>
<path d="M143.335 93.0762C146.921 97.805 154.548 103.014 155.957 107.192C156.338 108.21 156.383 109.322 156.084 110.367C155.786 111.411 155.16 112.332 154.299 112.994C154.299 112.994 159.016 114.235 159.671 118.238C160.007 120.298 157.01 122.643 157.01 122.643C157.01 122.643 160.752 123.813 161.111 127.395C161.4 130.263 158.352 132.183 158.352 132.183C158.352 132.183 161.423 134.968 160.779 137.98C159.476 144.087 135.286 149.131 129.691 141C127.085 137.208 133.058 136.299 133.058 136.299C133.058 136.299 124.15 135.518 122.98 130.571C121.809 125.624 129.652 124.91 129.652 124.91C129.652 124.91 121.021 124.091 120.331 118.827C119.613 113.345 127.572 113.973 127.572 113.973C127.572 113.973 121.431 111.445 121.825 107.294C122.477 100.439 134.349 106.412 139.383 104.044L140.491 94.6798L143.335 93.0762Z" fill="#FFC727"/>
<path d="M149.772 99.6854C146.772 94.9137 151.844 87.2001 149.628 82.2138C146.632 75.4834 140.139 84.0475 140.51 94.6562L142.242 102.85L149.772 99.6854Z" fill="#FFC727"/>
<path d="M157.916 132.557C157.931 132.553 157.947 132.555 157.962 132.562C157.976 132.569 157.987 132.581 157.993 132.595C157.999 132.61 158 132.626 157.995 132.641C157.99 132.657 157.98 132.669 157.966 132.678C150.417 136.275 141.014 137.914 132.738 136.384C132.465 136.337 132.43 135.873 132.738 135.869C141.572 135.834 149.402 135.054 157.916 132.557Z" fill="#263238"/>
<path d="M157.139 122.67C157.233 122.643 157.279 122.795 157.186 122.838C149.382 126.502 138.743 128.058 129.41 125.179C129.09 125.081 128.903 124.672 129.277 124.758C135.637 126.197 149.488 124.957 157.139 122.67Z" fill="#263238"/>
<path d="M126.956 113.536C136.012 115.955 144.931 115.226 153.987 113.146C154.104 113.119 154.131 113.287 154.037 113.337C149.882 115.554 143.975 116.268 139.332 116.435C134.884 116.595 130.838 115.846 126.874 113.837C126.718 113.774 126.765 113.486 126.956 113.536Z" fill="#263238"/>
<path d="M36.64 93.0762C33.0544 97.805 25.4266 103.014 24.0181 107.192C23.6368 108.21 23.5921 109.322 23.8907 110.367C24.1892 111.411 24.8151 112.332 25.6763 112.994C25.6763 112.994 20.9553 114.235 20.3037 118.238C19.9682 120.298 22.9647 122.643 22.9647 122.643C22.9647 122.643 19.223 123.813 18.864 127.395C18.5753 130.263 21.6225 132.183 21.6225 132.183C21.6225 132.183 18.5519 134.968 19.1957 137.98C20.4988 144.087 44.6891 149.131 50.2841 141C52.8904 137.208 46.917 136.299 46.917 136.299C46.917 136.299 55.8245 135.518 56.995 130.571C58.1655 125.624 50.3231 124.91 50.3231 124.91C50.3231 124.91 58.9536 124.091 59.6442 118.827C60.3621 113.345 52.4027 113.973 52.4027 113.973C52.4027 113.973 58.544 111.445 58.1499 107.294C57.4983 100.439 45.6255 106.412 40.5729 104.044L39.4648 94.6798L36.64 93.0762Z" fill="#FFC727"/>
<path d="M30.2025 99.6854C33.2028 94.9137 28.1307 87.2001 30.3468 82.2138C33.3433 75.4834 39.8357 84.0475 39.465 94.6562L37.7327 102.85L30.2025 99.6854Z" fill="#FFC727"/>
<path d="M22.0596 132.557C22.0442 132.553 22.0279 132.555 22.0137 132.562C21.9995 132.569 21.9883 132.581 21.9822 132.595C21.9761 132.61 21.9754 132.626 21.9803 132.641C21.9852 132.657 21.9953 132.669 22.0088 132.678C29.5586 136.275 38.9616 137.914 47.237 136.384C47.5101 136.337 47.5452 135.873 47.237 135.869C38.4036 135.834 30.573 135.054 22.0596 132.557Z" fill="#263238"/>
<path d="M22.8359 122.67C22.7423 122.643 22.6954 122.795 22.7891 122.838C30.5924 126.502 41.2323 128.058 50.565 125.179C50.885 125.081 51.0723 124.672 50.6977 124.758C44.338 126.197 30.491 124.957 22.8359 122.67Z" fill="#263238"/>
<path d="M53.0191 113.536C43.9634 115.955 35.0442 115.226 25.9884 113.146C25.8714 113.119 25.844 113.287 25.9377 113.337C30.093 115.554 36.0001 116.268 40.6431 116.435C45.091 116.595 49.137 115.846 53.1011 113.837C53.2571 113.774 53.2103 113.486 53.0191 113.536Z" fill="#263238"/>
<path d="M136.788 87.8788L139.375 87.3989L139.952 84.6716L140.53 87.3989L143.117 87.8788L140.541 88.507L139.952 91.086L139.363 88.507L136.788 87.8788Z" fill="#FFC727"/>
<path d="M18.8445 128.921L21.4313 128.441L22.0087 125.713L22.5862 128.441L25.173 128.921L22.5979 129.553L22.0087 132.128L21.4196 129.553L18.8445 128.921Z" fill="#FFC727"/>
<path d="M153.159 139.291L155.746 138.815L156.324 136.088L156.901 138.815L159.488 139.295L156.913 139.923L156.324 142.498L155.735 139.923L153.159 139.291Z" fill="#FFC727"/>
<path d="M115.052 128.921L117.639 128.441L118.216 125.717L118.793 128.441L121.38 128.921L118.805 129.553L118.216 132.128L117.627 129.553L115.052 128.921Z" fill="#FFC727"/>
<path d="M44.7166 91.1134L47.3034 90.6335L47.8847 87.9062L48.4622 90.6335L51.049 91.1134L48.4739 91.7416L47.8847 94.3167L47.2956 91.7416L44.7166 91.1134Z" fill="#FFC727"/>
<path d="M53.3467 111.843L54.7903 111.578L55.1141 110.052L55.438 111.578L56.8855 111.847L55.4458 112.198L55.1141 113.638L54.7864 112.198L53.3467 111.843Z" fill="#FFC727"/>
<path d="M39.4805 144.359L40.928 144.09L41.2518 142.565L41.5718 144.09L43.0193 144.359L41.5796 144.711L41.2518 146.15L40.9202 144.711L39.4805 144.359Z" fill="#FFC727"/>
<path d="M57.6428 42.4558L59.0903 42.1905L59.4142 40.6649L59.738 42.1905L61.1816 42.4558L59.7419 42.8069L59.4142 44.2466L59.0825 42.8069L57.6428 42.4558Z" fill="#FFC727"/>
<path d="M107.885 122.213C107.989 122.203 108.086 122.155 108.156 122.077C108.226 122 108.265 121.899 108.265 121.794C108.265 121.689 108.226 121.588 108.156 121.511C108.086 121.433 107.989 121.385 107.885 121.375C107.78 121.385 107.684 121.433 107.613 121.511C107.543 121.588 107.504 121.689 107.504 121.794C107.504 121.899 107.543 122 107.613 122.077C107.684 122.155 107.78 122.203 107.885 122.213Z" fill="#FFC727"/>
<path d="M141.685 105.624C141.789 105.614 141.886 105.565 141.956 105.488C142.027 105.41 142.066 105.309 142.066 105.204C142.066 105.1 142.027 104.999 141.956 104.921C141.886 104.844 141.789 104.795 141.685 104.785C141.581 104.795 141.484 104.844 141.413 104.921C141.343 104.999 141.304 105.1 141.304 105.204C141.304 105.309 141.343 105.41 141.413 105.488C141.484 105.565 141.581 105.614 141.685 105.624V105.624Z" fill="#FFC727"/>
<path d="M56.8855 52.0928C56.9898 52.0827 57.0865 52.0342 57.157 51.9566C57.2274 51.8791 57.2664 51.7781 57.2664 51.6733C57.2664 51.5686 57.2274 51.4676 57.157 51.3901C57.0865 51.3125 56.9898 51.264 56.8855 51.2539C56.7813 51.264 56.6845 51.3125 56.6141 51.3901C56.5436 51.4676 56.5046 51.5686 56.5046 51.6733C56.5046 51.7781 56.5436 51.8791 56.6141 51.9566C56.6845 52.0342 56.7813 52.0827 56.8855 52.0928V52.0928Z" fill="#FFC727"/>
<path d="M145.781 82.7991C145.892 82.7991 145.998 82.7551 146.076 82.6768C146.155 82.5985 146.199 82.4923 146.199 82.3816C146.199 82.2709 146.155 82.1647 146.076 82.0864C145.998 82.0081 145.892 81.9641 145.781 81.9641C145.671 81.9641 145.564 82.0081 145.486 82.0864C145.408 82.1647 145.364 82.2709 145.364 82.3816C145.364 82.4923 145.408 82.5985 145.486 82.6768C145.564 82.7551 145.671 82.7991 145.781 82.7991Z" fill="#FFC727"/>
<path d="M146.172 132.104C146.276 132.094 146.373 132.046 146.443 131.968C146.514 131.891 146.553 131.79 146.553 131.685C146.553 131.58 146.514 131.479 146.443 131.402C146.373 131.324 146.276 131.275 146.172 131.265C146.067 131.275 145.971 131.324 145.9 131.402C145.83 131.479 145.791 131.58 145.791 131.685C145.791 131.79 145.83 131.891 145.9 131.968C145.971 132.046 146.067 132.094 146.172 132.104V132.104Z" fill="#FFC727"/>
<path d="M129.047 65.5066C129.126 65.5066 129.201 65.4754 129.257 65.4198C129.313 65.3642 129.344 65.2887 129.344 65.2101C129.344 65.1315 129.313 65.056 129.257 65.0004C129.201 64.9448 129.126 64.9136 129.047 64.9136C128.969 64.9136 128.893 64.9448 128.838 65.0004C128.782 65.056 128.751 65.1315 128.751 65.2101C128.751 65.2887 128.782 65.3642 128.838 65.4198C128.893 65.4754 128.969 65.5066 129.047 65.5066V65.5066Z" fill="#FFC727"/>
<path d="M61.9735 114.242C62.0522 114.242 62.1276 114.211 62.1832 114.156C62.2388 114.1 62.2701 114.025 62.2701 113.946C62.2701 113.867 62.2388 113.792 62.1832 113.736C62.1276 113.681 62.0522 113.649 61.9735 113.649C61.8949 113.649 61.8195 113.681 61.7639 113.736C61.7082 113.792 61.677 113.867 61.677 113.946C61.677 114.025 61.7082 114.1 61.7639 114.156C61.8195 114.211 61.8949 114.242 61.9735 114.242Z" fill="#FFC727"/>
<path d="M133.944 60.337C134.978 60.337 134.978 58.7295 133.944 58.7295C132.91 58.7295 132.906 60.337 133.944 60.337Z" fill="#FFC727"/>
<g opacity="0.8">
<path opacity="0.8" d="M136.788 87.8788L139.375 87.3989L139.952 84.6716L140.53 87.3989L143.117 87.8788L140.541 88.507L139.952 91.086L139.363 88.507L136.788 87.8788Z" fill="white"/>
<path opacity="0.8" d="M18.8445 128.921L21.4313 128.441L22.0087 125.713L22.5862 128.441L25.173 128.921L22.5979 129.553L22.0087 132.128L21.4196 129.553L18.8445 128.921Z" fill="white"/>
<path opacity="0.8" d="M153.159 139.291L155.746 138.815L156.324 136.088L156.901 138.815L159.488 139.295L156.913 139.923L156.324 142.498L155.735 139.923L153.159 139.291Z" fill="white"/>
<path opacity="0.8" d="M115.052 128.921L117.639 128.441L118.216 125.717L118.793 128.441L121.38 128.921L118.805 129.553L118.216 132.128L117.627 129.553L115.052 128.921Z" fill="white"/>
<path opacity="0.8" d="M44.7166 91.1134L47.3034 90.6335L47.8847 87.9062L48.4622 90.6335L51.049 91.1134L48.4739 91.7416L47.8847 94.3167L47.2956 91.7416L44.7166 91.1134Z" fill="white"/>
<path opacity="0.8" d="M53.3467 111.843L54.7903 111.578L55.1141 110.052L55.438 111.578L56.8855 111.847L55.4458 112.198L55.1141 113.638L54.7864 112.198L53.3467 111.843Z" fill="white"/>
<path opacity="0.8" d="M39.4805 144.359L40.928 144.09L41.2518 142.565L41.5718 144.09L43.0193 144.359L41.5796 144.711L41.2518 146.15L40.9202 144.711L39.4805 144.359Z" fill="white"/>
<path opacity="0.8" d="M57.6428 42.4558L59.0903 42.1905L59.4142 40.6649L59.738 42.1905L61.1816 42.4558L59.7419 42.8069L59.4142 44.2466L59.0825 42.8069L57.6428 42.4558Z" fill="white"/>
<path opacity="0.8" d="M107.885 122.213C107.989 122.203 108.086 122.155 108.156 122.077C108.226 122 108.265 121.899 108.265 121.794C108.265 121.689 108.226 121.588 108.156 121.511C108.086 121.433 107.989 121.385 107.885 121.375C107.78 121.385 107.684 121.433 107.613 121.511C107.543 121.588 107.504 121.689 107.504 121.794C107.504 121.899 107.543 122 107.613 122.077C107.684 122.155 107.78 122.203 107.885 122.213Z" fill="white"/>
<path opacity="0.8" d="M141.685 105.624C141.789 105.614 141.886 105.565 141.956 105.488C142.027 105.41 142.066 105.309 142.066 105.204C142.066 105.1 142.027 104.999 141.956 104.921C141.886 104.844 141.789 104.795 141.685 104.785C141.581 104.795 141.484 104.844 141.413 104.921C141.343 104.999 141.304 105.1 141.304 105.204C141.304 105.309 141.343 105.41 141.413 105.488C141.484 105.565 141.581 105.614 141.685 105.624V105.624Z" fill="white"/>
<path opacity="0.8" d="M56.8855 52.0928C56.9898 52.0827 57.0865 52.0342 57.157 51.9566C57.2274 51.8791 57.2664 51.7781 57.2664 51.6733C57.2664 51.5686 57.2274 51.4676 57.157 51.3901C57.0865 51.3125 56.9898 51.264 56.8855 51.2539C56.7813 51.264 56.6845 51.3125 56.6141 51.3901C56.5436 51.4676 56.5046 51.5686 56.5046 51.6733C56.5046 51.7781 56.5436 51.8791 56.6141 51.9566C56.6845 52.0342 56.7813 52.0827 56.8855 52.0928V52.0928Z" fill="white"/>
<path opacity="0.8" d="M145.781 82.7991C145.892 82.7991 145.998 82.7551 146.076 82.6768C146.155 82.5985 146.199 82.4923 146.199 82.3816C146.199 82.2709 146.155 82.1647 146.076 82.0864C145.998 82.0081 145.892 81.9641 145.781 81.9641C145.671 81.9641 145.564 82.0081 145.486 82.0864C145.408 82.1647 145.364 82.2709 145.364 82.3816C145.364 82.4923 145.408 82.5985 145.486 82.6768C145.564 82.7551 145.671 82.7991 145.781 82.7991Z" fill="white"/>
<path opacity="0.8" d="M146.172 132.104C146.276 132.094 146.373 132.046 146.443 131.968C146.514 131.891 146.553 131.79 146.553 131.685C146.553 131.58 146.514 131.479 146.443 131.402C146.373 131.324 146.276 131.275 146.172 131.265C146.067 131.275 145.971 131.324 145.9 131.402C145.83 131.479 145.791 131.58 145.791 131.685C145.791 131.79 145.83 131.891 145.9 131.968C145.971 132.046 146.067 132.094 146.172 132.104V132.104Z" fill="white"/>
<path opacity="0.8" d="M129.047 65.5066C129.126 65.5066 129.201 65.4754 129.257 65.4198C129.313 65.3642 129.344 65.2887 129.344 65.2101C129.344 65.1315 129.313 65.056 129.257 65.0004C129.201 64.9448 129.126 64.9136 129.047 64.9136C128.969 64.9136 128.893 64.9448 128.838 65.0004C128.782 65.056 128.751 65.1315 128.751 65.2101C128.751 65.2887 128.782 65.3642 128.838 65.4198C128.893 65.4754 128.969 65.5066 129.047 65.5066V65.5066Z" fill="white"/>
<path opacity="0.8" d="M61.9735 114.242C62.0522 114.242 62.1276 114.211 62.1832 114.156C62.2388 114.1 62.2701 114.025 62.2701 113.946C62.2701 113.867 62.2388 113.792 62.1832 113.736C62.1276 113.681 62.0522 113.649 61.9735 113.649C61.8949 113.649 61.8195 113.681 61.7639 113.736C61.7082 113.792 61.677 113.867 61.677 113.946C61.677 114.025 61.7082 114.1 61.7639 114.156C61.8195 114.211 61.8949 114.242 61.9735 114.242Z" fill="white"/>
<path opacity="0.8" d="M133.944 60.337C134.978 60.337 134.978 58.7295 133.944 58.7295C132.91 58.7295 132.906 60.337 133.944 60.337Z" fill="white"/>
</g>
</svg>
