<svg width="180" height="180" viewBox="0 0 180 180" fill="none" xmlns="http://www.w3.org/2000/svg">
<path d="M46.5225 75.2687C49.5356 71.5945 62.572 69.3039 63.493 69.3039L92.8668 66.7747C100.456 68.7299 107.914 71.1609 115.194 74.0531L113.298 104.75L108.28 136.173C116.059 145.645 122.865 157.492 124.509 165.832C100.885 181.341 77.2131 181.412 55.2943 173.443L56.4914 140.921L46.5225 75.2687Z" fill="#FFC100"/>
<path d="M49.1745 73.323C49.1745 73.323 39.6794 77.928 36.2698 84.2035C34.5411 87.3892 28.707 107.932 28.707 107.932C28.707 107.932 33.0884 119.48 51.4306 116.284L53.0868 111.213L49.1745 73.323Z" fill="#FFC100"/>
<path d="M114.956 74.158C119.415 76.9144 122.7 81.2023 124.187 86.2072C125.633 92.3376 126.585 98.573 127.032 104.854L109.026 108.194L114.956 74.158Z" fill="#FFC100"/>
<path d="M56.3535 139.931C56.3615 139.35 56.3091 138.77 56.1972 138.201C56.0289 137.011 55.8127 135.397 55.5486 133.5C54.9606 129.539 54.1199 124.076 53.1481 118.051C52.1763 112.026 51.2757 106.562 50.5793 102.625C50.2434 100.728 49.9554 99.1646 49.7392 97.9482C49.6645 97.3717 49.5316 96.8041 49.3428 96.2539C49.3438 96.834 49.3961 97.4129 49.4991 97.9839C49.6674 99.1737 49.8955 100.776 50.1596 102.673C50.7356 106.634 51.5757 112.098 52.5601 118.182C53.5445 124.267 54.4445 129.671 55.1289 133.62C55.4648 135.505 55.7528 137.068 55.969 138.285C56.0507 138.843 56.1793 139.394 56.3535 139.931V139.931Z" fill="#263238"/>
<path d="M52.0079 108.984C51.9007 109.371 51.8642 109.774 51.9002 110.173C51.8988 111.235 52.0318 112.294 52.2959 113.323C53.1241 116.787 55.2005 119.83 58.1327 121.877C61.065 123.924 64.65 124.832 68.2102 124.43C69.2712 124.327 70.3153 124.095 71.3191 123.738C71.6978 123.633 72.0553 123.464 72.3753 123.237C70.9966 123.597 69.5921 123.852 68.1742 124C64.7421 124.281 61.319 123.362 58.4962 121.402C55.6733 119.442 53.628 116.563 52.7134 113.263C52.3593 111.859 52.1234 110.427 52.0079 108.984V108.984Z" fill="#263238"/>
<path d="M96.1611 140.814C98.2266 140.352 100.266 139.783 102.271 139.108C104.334 138.636 106.37 138.055 108.369 137.366C106.235 137.477 104.127 137.877 102.102 138.555C100.026 139.032 98.0271 139.792 96.1611 140.814V140.814Z" fill="#263238"/>
<path d="M92.1992 136.912C97.446 137.368 102.732 136.879 107.804 135.468C107.804 135.289 104.311 135.888 100.013 136.28C95.7158 136.671 92.1992 136.781 92.1992 136.912Z" fill="#263238"/>
<path d="M108.246 136.328C108.418 135.82 108.543 135.296 108.618 134.765C108.822 133.632 109.086 132.188 109.41 130.458C110.044 126.879 110.889 121.785 111.811 116.214C112.733 110.642 113.48 105.596 114.008 101.898C114.248 100.156 114.452 98.7002 114.608 97.5552C114.714 97.0293 114.758 96.4929 114.74 95.9568C114.57 96.4657 114.445 96.9887 114.368 97.5195L113.588 101.826C112.94 105.466 112.1 110.5 111.188 116.071C110.276 121.643 109.507 126.701 108.979 130.387C108.739 132.129 108.534 133.585 108.379 134.73C108.281 135.257 108.237 135.792 108.246 136.328Z" fill="#263238"/>
<g opacity="0.2">
<path opacity="0.2" d="M95.51 126.461C91.9089 125.937 90.2639 124.302 87.3472 122.739C84.4305 121.176 81.1294 119.73 77.924 120.555C75.6911 121.14 73.8398 122.775 71.6097 123.371C70.0686 123.652 68.507 123.808 66.9404 123.836C66.1555 123.856 65.3826 124.032 64.6672 124.354C63.9519 124.676 63.3086 125.136 62.7752 125.709C62.2908 126.405 62.0165 127.224 61.9846 128.069C61.9527 128.915 62.1644 129.752 62.5949 130.481C63.4772 131.917 64.8291 133.008 66.4242 133.571C68.8807 134.538 71.602 134.609 74.1067 133.774C76.0784 133.094 77.8762 131.878 79.9408 131.535C81.6864 131.329 83.4562 131.542 85.1023 132.155C86.7712 132.692 88.3915 133.344 90.0963 133.801C91.7915 134.282 93.5951 134.227 95.2579 133.645C96.0802 133.338 96.7966 132.802 97.3222 132.102C97.8477 131.402 98.1604 130.567 98.2231 129.696C98.2273 128.855 97.8949 128.046 97.2991 127.448C96.7032 126.85 95.8928 126.511 95.046 126.507C94.9931 126.507 94.9403 126.507 94.8861 126.51" fill="black"/>
</g>
<path d="M84.8994 121.036C85.1089 121.276 85.3336 121.503 85.5719 121.716C85.8498 121.964 86.1422 122.195 86.4479 122.408C86.8327 122.699 87.2323 122.969 87.645 123.219C88.7574 123.874 89.9364 124.41 91.1623 124.818C94.2108 125.815 97.4601 126.049 100.621 125.498C101.897 125.274 103.145 124.914 104.343 124.424C104.804 124.246 105.253 124.039 105.687 123.804C106.021 123.641 106.342 123.454 106.648 123.244C107.164 122.899 107.44 122.708 107.416 122.672C107.392 122.636 106.219 123.302 104.187 124.032C102.996 124.447 101.771 124.754 100.525 124.951C98.9984 125.164 97.4541 125.224 95.9155 125.13C94.3812 125.006 92.8643 124.722 91.3897 124.283C90.1832 123.914 89.0138 123.435 87.8964 122.851C86.0035 121.832 84.9832 120.938 84.8994 121.036Z" fill="#263238"/>
<path d="M29.4882 108.984C29.4882 108.984 23.6303 138.714 25.2992 152.314C25.8991 157.169 51.3239 166.964 51.3239 166.964L57.6614 156.561L43.1126 142.746L51.4317 116.297C44.4223 117.562 35.4899 113.612 29.4882 108.984Z" fill="#B78876"/>
<path d="M63.7119 178.858C71.5847 180.38 79.6789 180.38 87.5517 178.858V149.26H63.7119V178.858Z" fill="#455A64"/>
<path d="M60.6983 153.734C60.0983 154.103 58.1055 155.523 56.8092 156.382C55.1044 157.516 52.5602 162.541 51.2751 165.7C51.0184 166.588 50.8731 167.505 50.8427 168.429C50.4709 171.102 51.3948 171.937 52.7031 172.677C54.0115 173.416 61.9102 175.993 62.7383 175.062C63.5664 174.132 62.7383 172.677 62.7383 172.677C62.7383 172.677 65.0669 173.225 66.0873 171.937C66.3731 171.604 66.5302 171.181 66.5302 170.744C66.5302 170.307 66.3731 169.884 66.0873 169.551C66.0873 169.551 72.5093 172.319 74.0818 171.674C75.6542 171.03 75.15 169.479 74.3099 168.835C73.5533 168.224 72.8282 167.575 72.1376 166.89C72.4136 167.141 76.5069 167.046 75.8471 165.387C75.1873 163.728 64.1438 156.8 64.1438 156.8C64.1438 156.8 65.2839 154.414 66.0768 152.111C67.2034 148.925 66.9288 148.449 65.9204 147.339C65.4042 146.766 64.0839 146.981 62.9073 150.918C62.4256 152.029 61.665 152.998 60.6983 153.734V153.734Z" fill="#B78876"/>
<path d="M58.0935 156.167C58.0164 156.089 57.922 156.03 57.8178 155.995C57.7136 155.96 57.6026 155.949 57.4936 155.964C57.1991 155.995 56.915 156.09 56.6618 156.242C56.4085 156.395 56.1924 156.601 56.0289 156.847C55.5846 157.455 55.405 158.291 54.9367 158.97C54.6631 159.318 54.3348 159.62 53.9643 159.864C53.5099 160.165 53.1385 160.574 52.8841 161.054C52.6855 161.464 52.5774 161.911 52.5671 162.366C52.5567 162.821 52.6444 163.272 52.8242 163.691L53.0045 163.308C52.3027 163.605 51.7405 164.155 51.4321 164.848C51.1728 165.343 50.9907 165.874 50.892 166.423C50.7237 167.342 50.892 167.892 50.9877 167.867C51.0835 167.841 50.9877 167.342 51.2398 166.495C51.3878 166.003 51.5932 165.531 51.8518 165.087C52.1356 164.551 52.5982 164.13 53.1601 163.897L53.4721 163.802L53.3516 163.504C53.215 163.16 53.1519 162.791 53.1664 162.421C53.1808 162.052 53.2724 161.689 53.4354 161.357C53.7953 160.486 54.8283 160.167 55.4071 159.269C55.9859 158.371 56.055 157.611 56.393 157.085C56.6418 156.648 57.0502 156.322 57.5337 156.176C57.8654 156.12 58.0696 156.215 58.0935 156.167Z" fill="#AA6550"/>
<path d="M56.1973 168.825C56.1973 168.992 57.8056 169.589 59.6062 170.722C61.4067 171.855 62.7045 173.036 62.8355 172.905C62.0593 171.819 61.072 170.898 59.9319 170.198C58.7918 169.497 57.5219 169.03 56.1973 168.825V168.825Z" fill="#AA6550"/>
<path d="M60.0508 164.996C61.9074 166.799 64.0382 168.301 66.3651 169.445C65.5076 168.47 64.5033 167.633 63.3879 166.964C62.3877 166.136 61.2613 165.471 60.0508 164.996Z" fill="#AA6550"/>
<path d="M63.0996 161.107C64.5601 162.221 66.0963 163.233 67.6972 164.137C69.1829 165.21 70.7477 166.172 72.3785 167.012C69.6928 164.458 66.5442 162.434 63.0996 161.047V161.107Z" fill="#AA6550"/>
<path d="M66.761 169.613C67.0417 169.847 67.3578 170.036 67.6975 170.173C68.5949 170.62 69.5167 171.017 70.4586 171.362C71.1121 171.657 71.7972 171.878 72.5007 172.019C72.9266 172.133 73.3726 172.151 73.8065 172.073C74.2404 171.994 74.6514 171.821 75.0097 171.565C75.1958 171.422 75.3686 171.262 75.5258 171.088C75.6434 170.967 75.7192 170.813 75.742 170.646C75.7757 170.501 75.7757 170.35 75.742 170.205C75.5408 169.77 75.2736 169.369 74.9498 169.015C74.3182 168.255 73.6279 167.545 72.8852 166.892L72.5852 167.405C73.355 167.715 74.216 167.715 74.9857 167.405C75.5421 167.134 75.9712 166.659 76.1828 166.081V166.164C76.2356 166.066 76.2681 165.959 76.2784 165.848C76.2887 165.737 76.2765 165.626 76.2427 165.52C76.1907 165.375 76.1179 165.238 76.0265 165.114C75.8738 164.885 75.7011 164.669 75.5103 164.47C75.1505 164.101 74.766 163.754 74.3942 163.432C73.6379 162.803 72.8697 162.243 72.1493 161.714C70.6847 160.665 69.3404 159.793 68.2123 159.066C67.0842 158.339 66.1477 157.801 65.4991 157.432C65.1761 157.222 64.8297 157.05 64.4668 156.919C64.7392 157.193 65.0471 157.43 65.3823 157.623L67.9877 159.413C69.0918 160.176 70.3882 161.083 71.8289 162.142C72.5373 162.679 73.2816 163.251 74.0119 163.872C74.3717 164.194 74.7442 164.528 75.0681 164.874C75.2375 165.046 75.3902 165.234 75.5244 165.434C75.6148 165.542 75.6694 165.676 75.6808 165.816V165.899C75.5225 166.31 75.2197 166.649 74.8287 166.854C74.2166 167.099 73.5332 167.099 72.9211 166.854L71.5888 166.434L72.6211 167.365C73.3444 167.993 74.0224 168.671 74.6499 169.394C74.9347 169.711 75.1691 170.069 75.3449 170.456C75.3642 170.526 75.3642 170.601 75.3449 170.671L75.2744 170.79C75.143 170.945 74.9989 171.089 74.8435 171.22C74.5434 171.434 74.2004 171.581 73.8378 171.651C73.4753 171.721 73.1018 171.712 72.743 171.625C72.0651 171.507 71.4013 171.319 70.7621 171.066C69.565 170.636 68.613 170.266 67.9532 170.004C67.573 169.827 67.1727 169.695 66.761 169.613Z" fill="#AA6550"/>
<path d="M84.8623 170.972C84.8623 171.163 85.1384 171.485 85.8827 171.748C86.9515 172.073 88.0827 172.143 89.1838 171.951C90.8803 171.662 92.4565 170.891 93.7215 169.732C95.2861 168.244 96.2835 166.264 96.544 164.128C96.8045 161.992 96.312 159.832 95.1503 158.016C94.1969 156.594 92.8505 155.476 91.2731 154.797C90.2529 154.341 89.136 154.141 88.0198 154.213C87.2396 154.282 86.8227 154.523 86.8227 154.714C86.8227 155.167 88.3951 155.382 90.2316 156.682C91.2704 157.408 92.1252 158.364 92.7286 159.474C93.4168 160.795 93.6887 162.292 93.5089 163.768C93.329 165.245 92.7057 166.634 91.7202 167.754C90.8639 168.687 89.8041 169.413 88.6219 169.877C86.5432 170.698 84.9581 170.531 84.8623 170.972Z" fill="#455A64"/>
<path d="M44.025 143.844C43.662 143.389 43.174 143.048 42.6202 142.864C41.2818 142.387 39.8148 142.408 38.4909 142.923C37.1991 143.442 36.0509 144.26 35.1419 145.309C34.4455 146.096 34.1216 146.657 34.1934 146.705C34.2652 146.754 34.6975 146.299 35.3904 145.62C36.3364 144.716 37.4438 143.996 38.6557 143.497C39.8623 143.034 41.1833 142.955 42.4371 143.27C43.449 143.522 43.9652 143.94 44.025 143.844Z" fill="#AA6550"/>
<path d="M66.5332 150.847C67.4914 151.353 68.5184 151.719 69.5822 151.932C72.1179 152.571 74.7365 152.825 77.3486 152.684C79.9607 152.542 82.5355 152.003 84.9832 151.085C86.0106 150.748 86.9876 150.274 87.8879 149.677C87.8175 149.463 83.3509 151.777 77.3126 152.063C71.2744 152.349 66.5811 150.62 66.5332 150.847Z" fill="#263238"/>
<path d="M112.076 126.986C111.908 125.232 112.844 107.588 112.844 107.588L124.548 105.348L126.204 75.0339L139.649 75.8926C139.649 75.8926 145.111 133.444 138.137 142.702C131.643 151.351 122.063 146.364 122.063 146.364C122.063 146.364 113.408 141.112 112.076 126.986Z" fill="#B78876"/>
<path d="M126.456 76.5569C126.456 76.5569 123.876 73.2879 124.056 70.413C124.236 67.538 129.098 51.6704 129.098 51.6704C129.098 51.6704 131.331 51.8853 131.498 55.2494C131.461 57.879 131.268 60.5042 130.922 63.1115L138.125 52.2786C139.733 49.8928 142.314 46.3138 143.766 46.7428C145.218 47.1718 142.206 51.9804 141.366 54.2347C140.526 56.4889 139.205 59.6508 139.205 59.6508C139.205 59.6508 145.771 50.214 148.267 48.1502C150.08 46.635 151.688 49.1405 149.996 51.2519C149.996 51.2519 152.602 49.8802 152.301 52.1946C152 54.509 145.387 63.7197 146.095 64.1256C146.803 64.5315 152.613 57.2895 154.089 57.407C154.93 57.477 155.062 58.7312 153.667 60.6263C152.272 62.5215 141.663 76.7228 139.803 78.3065C138.92 79.1688 137.787 79.7322 136.563 79.9162L126.456 76.5569Z" fill="#B78876"/>
<path d="M139.18 70.4732C138.559 70.209 137.883 70.0947 137.209 70.1394C135.566 70.0893 133.932 70.3776 132.407 70.9862L132.815 71.2725V71.0695C132.851 69.4088 132.582 67.7556 132.023 66.1902C131.845 65.5248 131.531 64.9033 131.099 64.365C131.783 66.5333 132.158 68.7859 132.215 71.0576V71.7141L132.637 71.5349C134.739 70.8043 136.954 70.445 139.18 70.4732V70.4732Z" fill="#AA6550"/>
<path d="M150.164 50.8838C148.484 52.6309 146.939 54.5013 145.542 56.4791C143.979 58.3473 142.671 60.4133 141.653 62.623C141.786 62.7063 143.586 60.0224 146.023 56.8367C147.575 54.9761 148.961 52.9843 150.164 50.8838V50.8838Z" fill="#AA6550"/>
<path d="M135.831 78.6452C135.831 78.4779 134.235 78.5143 132.362 78.1441C130.489 77.7739 129.025 77.1419 128.953 77.2973C129.931 78.0075 131.054 78.4962 132.242 78.7291C133.43 78.962 134.655 78.9333 135.831 78.6452Z" fill="#AA6550"/>
<path d="M123.768 138.701C123.838 138.701 123.492 137.878 123.107 136.315C122.586 134.154 122.316 131.94 122.303 129.718C122.147 124.075 123.876 116.38 124.524 107.755C125.173 99.129 125.665 91.3264 126.003 85.6836C126.159 82.9157 126.291 80.6489 126.375 78.9909C126.375 78.2512 126.445 77.6549 126.47 77.1657C126.492 76.9563 126.492 76.7453 126.47 76.5359C126.404 76.7362 126.368 76.9451 126.363 77.156C126.303 77.6458 126.242 78.2414 126.158 78.9693C126.002 80.5439 125.811 82.8345 125.595 85.65C125.151 91.2928 124.695 99.1073 123.939 107.709C123.183 116.311 121.634 124.006 121.897 129.733C121.942 131.982 122.277 134.216 122.893 136.381C123.061 136.97 123.265 137.548 123.505 138.111C123.567 138.318 123.656 138.516 123.768 138.701Z" fill="#AA6550"/>
<path d="M113.866 26.7741C114.602 25.9201 115.084 24.8789 115.257 23.7675C115.431 22.6561 115.288 21.5188 114.846 20.4834C114.405 19.4481 113.681 18.5559 112.756 17.9072C111.832 17.2585 110.744 16.8792 109.614 16.8118C109.963 15.7656 110.038 14.6483 109.832 13.5653C109.626 12.4823 109.146 11.4694 108.437 10.622C107.728 9.77463 106.813 9.12079 105.779 8.72216C104.745 8.32353 103.626 8.19326 102.527 8.34364C102.454 7.23821 102.116 6.16628 101.54 5.21765C100.964 4.26902 100.168 3.4713 99.2187 2.89135C98.269 2.3114 97.1933 1.96609 96.0817 1.88435C94.97 1.80261 93.8549 1.98682 92.8296 2.42155C92.1697 1.62916 91.3346 0.998873 90.3894 0.579787C89.4442 0.160702 88.4144 -0.0358702 87.3802 0.00537496C86.3461 0.0466201 85.3354 0.324572 84.427 0.817583C83.5187 1.31059 82.7371 2.00536 82.1431 2.84776C80.9865 3.03447 79.8851 3.47092 78.9166 4.12637C77.8494 3.94086 76.7504 4.10338 75.7837 4.58967C74.5944 5.24143 73.5074 6.06265 72.5573 7.02723C70.944 8.5284 69.2476 10.1317 68.678 12.2544C68.0343 14.6178 68.8829 17.3234 67.6802 19.4628C67.0942 20.2295 66.5758 21.045 66.131 21.9004C65.5247 23.6241 66.6999 25.4773 66.5598 27.3032C66.4197 29.1291 64.8064 30.9081 65.0029 32.8634C65.1406 33.551 65.4195 34.203 65.8222 34.7786C66.225 35.3542 66.7429 35.8411 67.3435 36.2087C68.5463 36.9392 69.6684 37.7935 70.6912 38.7575C71.4369 39.6008 71.9129 40.6107 72.6495 41.4911C73.7292 42.6668 75.2187 43.3901 76.8154 43.5139C78.4122 43.6378 79.9965 43.153 81.2467 42.1581C82.102 42.8032 83.1 43.2357 84.1576 43.4195C85.2153 43.6033 86.3018 43.5332 87.3265 43.2148C89.3713 42.5652 91.2956 41.5885 93.0239 40.3231C93.4106 40.8422 93.9217 41.257 94.5107 41.5298C95.0997 41.8026 95.748 41.9248 96.3966 41.8852C97.0452 41.8456 97.6735 41.6456 98.2246 41.3032C98.7756 40.9609 99.2318 40.4871 99.5516 39.9249C99.8465 40.6039 100.36 41.1662 101.011 41.5236C101.663 41.8809 102.415 42.0131 103.151 41.8991C104.618 41.6435 106.008 41.0604 107.217 40.1936C109.585 38.7386 112.243 36.8295 112.299 34.0588C112.299 32.363 111.366 30.6113 112.009 29.0451C112.503 28.1949 113.13 27.4284 113.866 26.7741V26.7741Z" fill="#263238"/>
<path d="M94.4245 23.0388C92.4852 17.1356 83.7852 9.00759 77.5561 9.48069L67.6533 15.4952C67.9872 17.175 68.7692 18.7348 69.9174 20.0114C71.0656 21.288 72.5379 22.2345 74.1803 22.7519C75.9407 23.2802 78.0687 23.4097 79.1221 24.9018C80.1756 26.3939 79.5975 28.6739 80.6051 30.2584C82.0036 32.4454 85.7709 32.3159 86.8244 34.6793C87.2814 35.7172 87.0575 36.9594 87.5328 37.9875C88.1665 39.3501 91.6825 41.0738 93.1274 40.6007C94.5724 40.1276 94.5632 37.6908 94.9928 36.4016C95.5801 34.9514 95.6426 33.3436 95.1695 31.8526C94.5646 28.9609 95.3477 25.8655 94.4245 23.0388Z" fill="#263238"/>
<path d="M98.294 18.6277L97.5292 21.8897C97.5628 19.5623 96.9704 17.2683 95.8132 15.2447C93.3232 11.5355 87.8497 8.98944 83.5324 7.75631C79.2151 6.52319 73.9092 7.27412 69.7306 8.93345C65.9707 10.3415 62.7379 12.8652 60.4708 16.1622C57.302 20.4249 56.5641 26.8474 58.5217 27.9896C60.0708 23.5686 62.5221 18.4996 66.4084 15.8493C68.3348 14.4883 70.5377 13.5631 72.8624 13.1388C75.1871 12.7146 77.5771 12.8015 79.8644 13.3936C84.8999 14.8674 88.732 19.1022 90.9607 23.8213C92.0473 26.2387 92.8938 28.7559 93.488 31.3369C94.2125 34.3681 94.19 37.5283 93.4225 40.549L90.9044 49.3069L90.8488 52.1517C96.975 49.8996 100.761 43.5513 101.777 37.1386C102.794 30.726 102.07 24.5127 98.294 18.6277Z" fill="#FFC100"/>
<path d="M93.1381 38.0991C93.0917 38.0991 93.3057 37.5708 93.4642 36.6071C93.6676 35.2446 93.5593 33.854 93.1473 32.5389C92.5616 30.5862 91.3042 28.9 89.5948 27.775C88.5452 27.1647 87.4547 26.6269 86.3309 26.1654C85.0795 25.6569 83.9489 24.8941 83.0115 23.9259C82.2126 22.8564 81.5632 21.6842 81.0813 20.4413C80.3956 18.9789 79.3152 17.7342 77.9601 16.8457C76.605 15.9572 75.0285 15.4598 73.4059 15.4087C72.0219 15.3788 70.6486 15.6574 69.3872 16.2241C68.4548 16.6321 68.0535 16.9652 68.0352 16.9281C68.1215 16.8277 68.2221 16.7402 68.3337 16.6685C68.6416 16.4365 68.9694 16.2319 69.3132 16.0568C70.8973 15.2387 72.6933 14.916 74.4653 15.131C76.2373 15.3459 77.9024 16.0885 79.242 17.2612C80.1965 18.0863 80.9681 19.0994 81.5081 20.2363C81.9807 21.4359 82.6075 22.5697 83.3727 23.6095C84.2695 24.5264 85.3452 25.2518 86.5337 25.7413C87.6725 26.2189 88.7757 26.7765 89.8349 27.4097C91.3129 28.4144 92.462 29.8279 93.1399 31.4751C93.8177 33.1223 93.9947 34.9309 93.6487 36.6771C93.5681 37.0534 93.4558 37.4224 93.3128 37.78C93.269 37.8936 93.2103 38.0009 93.1381 38.0991V38.0991Z" fill="#455A64"/>
<path d="M92.1957 27.117C91.9752 26.7841 91.7221 26.4738 91.4401 26.1904C90.6317 25.4836 89.7077 24.9193 88.7079 24.522C88.0925 24.2343 87.3933 23.9292 86.6842 23.5121C85.8982 23.0882 85.2166 22.4964 84.6885 21.7793C83.5787 20.2396 83.2246 18.1653 81.7514 16.7404C80.3631 15.3909 78.5682 14.5306 76.6413 14.2909C75.0771 14.112 73.4929 14.2411 71.979 14.6709C70.5715 15.1159 69.1948 15.6515 67.8574 16.2743C68.165 16.0178 68.5032 15.7999 68.8644 15.6255C69.8229 15.0916 70.8355 14.6597 71.8853 14.3371C73.4537 13.843 75.1083 13.6788 76.7441 13.8549C78.7813 14.0756 80.6837 14.9737 82.1429 16.4037C83.7372 17.97 84.0822 20.1129 85.1005 21.5196C86.1187 22.9263 87.7115 23.5863 88.903 24.2161C89.9227 24.6478 90.8452 25.2779 91.6161 26.0693C91.8205 26.2884 91.993 26.5348 92.1288 26.8014C92.1675 27.0057 92.2147 27.1072 92.1957 27.117Z" fill="#455A64"/>
<path d="M97.39 47.3383C97.4722 47.0893 97.5815 46.8499 97.7161 46.6245C97.94 46.1521 98.266 45.4662 98.6019 44.5487C99.5426 41.9459 100.004 39.1959 99.9637 36.4305C99.9254 34.5237 99.7257 32.6234 99.3666 30.7499C99.0045 28.5961 98.4425 26.4803 97.6879 24.4296C96.8405 22.1695 95.6518 20.0508 94.1628 18.1463C92.5519 16.1162 90.6104 14.3683 88.4189 12.9752C84.1491 10.2652 79.0517 9.14554 74.0305 9.81468C71.8552 10.0952 69.7392 10.7209 67.7634 11.6679C66.0452 12.5002 64.4562 13.5738 63.0455 14.8557C60.9956 16.7221 59.3434 18.9784 58.1867 21.4909C57.7952 22.4175 57.5339 23.1005 57.3755 23.5946C57.3042 23.8469 57.2169 24.0944 57.1143 24.3358C57.1447 24.0743 57.2008 23.8165 57.2818 23.5659C57.4814 22.8346 57.7275 22.1165 58.0184 21.416C59.8966 17.0224 63.2887 13.4378 67.586 11.3054C69.5952 10.3192 71.7526 9.66487 73.9735 9.36818C79.101 8.65109 84.3174 9.78191 88.6787 12.556C93.0346 15.3157 96.3475 19.4325 98.0991 24.2623C98.8579 26.3429 99.4167 28.4903 99.768 30.6757C100.111 32.5723 100.292 34.4944 100.309 36.4214C100.326 39.2209 99.8066 41.998 98.7794 44.6047C98.5061 45.3038 98.1948 45.9876 97.847 46.6532C97.7125 46.8928 97.5598 47.1219 97.39 47.3383V47.3383Z" fill="#263238"/>
<path d="M58.7301 29.7428C59.1864 22.8949 64.4275 12.4154 71.5783 13.8417L78.5877 22.0173C88.0729 24.2456 84.3978 32.249 93.9985 32.2672L93.2654 74.9935C93.2277 75.85 93.0283 76.6919 92.6774 77.4751C91.0811 80.959 85.7991 89.8232 74.3113 86.2316C71.5023 85.361 70.2179 82.2943 69.6539 79.1569C69.6539 78.7873 69.4976 78.4528 69.4976 78.0952C69.2206 75.7543 69.1925 73.391 69.4137 71.0442V65.2355C69.4137 65.2712 60.6116 63.756 58.8146 52.3388C57.9259 46.6602 58.2984 37.3544 58.7301 29.7428Z" fill="#B78876"/>
<path d="M61.7905 38.0108C61.7812 38.3936 61.9252 38.7645 62.1909 39.0419C62.4565 39.3193 62.8221 39.4805 63.2073 39.4903V39.4903C63.3927 39.5048 63.5793 39.4829 63.7562 39.4257C63.9331 39.3686 64.097 39.2774 64.2385 39.1573C64.3799 39.0372 64.4961 38.8905 64.5805 38.7257C64.6649 38.561 64.7159 38.3813 64.7304 38.1969V38.178C64.7333 37.797 64.5872 37.4297 64.3228 37.1537C64.0585 36.8777 63.6967 36.7145 63.3136 36.6986C62.9427 36.6675 62.5745 36.7836 62.2895 37.0215C62.0045 37.2593 61.8259 37.5997 61.7926 37.9681L61.7905 38.0108Z" fill="#263238"/>
<path d="M76.9641 38.0108C76.9576 38.3928 77.1025 38.7621 77.3676 39.0389C77.6326 39.3157 77.9966 39.4778 78.3808 39.4902C78.7519 39.5217 79.1205 39.4058 79.4058 39.1679C79.6911 38.93 79.87 38.5894 79.9033 38.2207V38.178C79.9062 37.7971 79.7602 37.43 79.496 37.154C79.2318 36.878 78.8701 36.7147 78.4872 36.6986C78.1163 36.6675 77.7482 36.7836 77.4632 37.0215C77.1781 37.2593 76.9995 37.5997 76.9662 37.9681L76.9641 38.0108Z" fill="#263238"/>
<path d="M76.6283 35.1359C76.8684 35.231 77.9965 34.4318 79.7851 34.1218C81.5737 33.8117 83.0144 34.1218 83.182 33.9307C83.3496 33.7397 83.0017 33.6564 82.3659 33.5108C81.4597 33.3274 80.5258 33.3274 79.6196 33.5108C78.7327 33.6654 77.8869 33.9988 77.1346 34.4906C76.6402 34.8258 76.5086 35.1002 76.6283 35.1359Z" fill="#263238"/>
<path d="M61.0228 34.0854C61.227 34.2526 62.5473 33.8467 64.3479 34.0854C66.1485 34.324 67.4209 35.0876 67.6251 34.9686C67.8293 34.8496 67.5413 34.6586 66.9914 34.3121C66.1887 33.855 65.3034 33.5592 64.3859 33.4415C63.4967 33.3055 62.5885 33.3584 61.7213 33.5969C61.1432 33.7991 60.9242 34.014 61.0228 34.0854Z" fill="#263238"/>
<path d="M70.5664 46.589C69.7279 46.3317 68.8615 46.1755 67.9856 46.1236C67.5772 46.1236 67.1934 46.0046 67.1335 45.7296C67.098 45.3141 67.1946 44.898 67.4096 44.5398C67.7821 43.5601 68.1898 42.5474 68.6066 41.4738C69.723 38.8824 70.6264 36.2054 71.3078 33.469C69.992 35.9689 68.8723 38.566 67.9588 41.2373C67.5678 42.3104 67.1687 43.3368 66.7617 44.3166C66.5082 44.805 66.4318 45.3653 66.5455 45.9031C66.6072 46.0439 66.6995 46.1693 66.8158 46.2703C66.9321 46.3714 67.0694 46.4456 67.218 46.4875C67.4406 46.5506 67.671 46.5827 67.9025 46.5827C68.786 46.7052 69.6822 46.7073 70.5664 46.589V46.589Z" fill="#263238"/>
<path d="M69.4258 65.1999C74.8334 65.2947 80.1611 63.8945 84.8147 61.1555C84.8147 61.1555 80.9376 69.0414 69.4378 67.9559L69.4258 65.1999Z" fill="#AA6550"/>
<path d="M71.2271 50.384C71.5288 50.0086 71.9222 49.7162 72.3697 49.5346C72.8172 49.3529 73.304 49.288 73.7839 49.3461C74.1331 49.3771 74.4724 49.4777 74.7818 49.6416C75.0911 49.8056 75.364 50.0297 75.5845 50.3007C75.797 50.5645 75.9225 50.887 75.944 51.2242C75.9654 51.5615 75.8816 51.8971 75.7042 52.1854C75.4494 52.4675 75.1153 52.6672 74.7451 52.7586C74.3749 52.8501 73.9856 52.8291 73.6276 52.6983C72.8789 52.4388 72.1894 52.0344 71.5988 51.5086C71.4216 51.3837 71.2707 51.2256 71.1545 51.0432C71.0964 50.9567 71.0654 50.855 71.0654 50.751C71.0654 50.647 71.0964 50.5453 71.1545 50.4588" fill="#AA6550"/>
<path d="M75.224 47.6862C74.9719 47.6862 74.9599 49.3805 73.4833 50.5968C72.0066 51.8132 70.1821 51.6109 70.1582 51.7866C70.1342 51.9622 70.5666 52.1204 71.3553 52.1442C72.3634 52.1574 73.3444 51.8197 74.1283 51.1896C74.8678 50.5952 75.3491 49.741 75.4725 48.8038C75.5359 48.104 75.3423 47.6778 75.224 47.6862Z" fill="#263238"/>
<path d="M75.7516 31.0998C75.9079 31.5295 77.4923 31.3266 79.3527 31.5533C81.2132 31.7801 82.7138 32.2812 82.9539 31.899C83.0616 31.7199 82.7975 31.3147 82.1976 30.8969C81.3868 30.3899 80.471 30.0718 79.519 29.9665C78.5669 29.8611 77.6032 29.9713 76.7001 30.2887C76.0403 30.6015 75.6925 30.9004 75.7516 31.0998Z" fill="#263238"/>
<path d="M61.3475 30.029C61.6236 30.3866 62.7157 30.029 64.0361 30.029C65.3564 30.029 66.4366 30.2676 66.7119 29.8981C66.8323 29.7189 66.652 29.3613 66.1718 29.0149C65.521 28.6036 64.7594 28.3997 63.9889 28.4305C63.2177 28.4357 62.4687 28.6867 61.8517 29.1465C61.3834 29.4803 61.2271 29.8484 61.3475 30.029Z" fill="#263238"/>
</svg>
