<svg viewBox="0 0 308.96 396" xmlns="http://www.w3.org/2000/svg"><path d="m71.79 274a5 5 0 0 1 -.42-1c-.25-.79-.59-1.77-1-3-.86-2.48-2-5.92-3.23-9.69s-2.49-7.19-3.36-9.66c-.41-1.16-.76-2.15-1-2.92a7 7 0 0 1 -.33-1.1 4.62 4.62 0 0 1 .49 1c.28.67.68 1.66 1.15 2.88 1 2.44 2.2 5.84 3.49 9.62s2.37 7.24 3.11 9.75c.36 1.25.65 2.27.85 3a5.37 5.37 0 0 1 .25 1.12z" fill="#263238"/><path d="m56.2 226.61v.39a7.14 7.14 0 0 1 -.17 1 12.78 12.78 0 0 1 -1.46 3.52 13.94 13.94 0 0 1 -3.75 4.3 11.06 11.06 0 0 1 -6.64 1.88 13.4 13.4 0 0 1 -6.62-2 17.34 17.34 0 0 1 -4.38-3.7 12.94 12.94 0 0 1 -2.05-3.22 7.15 7.15 0 0 1 -.37-1c-.07-.23-.1-.35-.08-.35a16.42 16.42 0 0 0 2.73 4.33 18.24 18.24 0 0 0 4.29 3.49 13.38 13.38 0 0 0 6.48 1.93 10.79 10.79 0 0 0 6.36-1.78 14 14 0 0 0 3.73-4.08 14.33 14.33 0 0 0 1.55-3.32 9 9 0 0 1 .38-1.39z" fill="#263238"/><path d="m104.68 201.58 39.41-8 32.79 2.58 28.29 10.16-19.31 81.08-62.54 3.21z" fill="#263238"/><path d="m138.1 194.72-40.16 7.73 15.18 110.7s-25 41.13-28.69 82.53h65.9s6.25-52.63 5.59-73.76-.25-58-.25-58z" fill="#ffc100"/><path d="m176.88 196.15a91.14 91.14 0 0 1 14.65 3.62c8.63 3.22 23.31 6.87 23.31 6.87l-25.19 110.77s25.25 37.43 23.65 78.26c0 0-45.1.75-63 0l4.82-133.82s15.66-18.5 18.27-37.1 3.49-28.6 3.49-28.6z" fill="#ffc100"/><path d="m214.84 206.67s22.65 25.27 35.29 35 28.42 24.05 28.14 31.4c-.15 4.3-1.88 9.65-3.27 13.32a26.6 26.6 0 0 1 -4.29 7.4c-6.24 7.69-27.71 34.84-38.49 44.21l-24.63-31.31 30.41-31.17s-33-15.06-34.5-18.9 11.34-49.95 11.34-49.95z" fill="#ffc100"/><path d="m154.35 276.6a4.46 4.46 0 0 1 -.58-.57l-1.58-1.72-5.8-6.44-19.64-22.09-.12-.14.05-.17 3.12-11.25 1.39-5 .31.43-13-.5h-.5l.14-.41 8.74-23.5c1.08-2.84 1.94-5.11 2.57-6.74l.7-1.78a4.22 4.22 0 0 1 .28-.61 2.74 2.74 0 0 1 -.17.64l-.61 1.82c-.59 1.64-1.39 3.94-2.39 6.8-2.12 5.87-5.07 14-8.5 23.58l-.29-.43 13 .47h.53l-.12.41q-.68 2.46-1.38 5l-3.13 11.25-.08-.31 19.47 22.26 5.66 6.57 1.49 1.79a4.28 4.28 0 0 1 .44.64z" fill="#263238"/><path d="m150.43 395.7c-.19 0 .68-30.2 1.94-67.43s2.43-67.44 2.57-67.43-.67 30.16-1.94 67.44-2.34 67.43-2.57 67.42z" fill="#263238"/><path d="m183.14 197.38a5 5 0 0 1 .15.75c.09.56.19 1.27.32 2.16l1.06 8.1c.86 7 2.06 16.62 3.44 27.66v.45l-.44-.08-7.22-1.24.37-.48 1.37 3.08 2.7 6.06.09.2-.14.16-20 23.18c-2.51 2.86-4.55 5.16-6 6.87l-1.64 1.82a5.78 5.78 0 0 1 -.6.61 4.25 4.25 0 0 1 .5-.7l1.55-1.9 5.84-7 19.84-23.36-.05.36c-.86-1.94-1.78-4-2.71-6.06l-1.35-3.02-.25-.58.62.11 7.22 1.25-.38.37c-1.27-11.05-2.38-20.71-3.19-27.68q-.54-5.16-.86-8.12c-.07-.86-.14-1.62-.2-2.18a4.84 4.84 0 0 1 -.04-.79z" fill="#263238"/><path d="m146.28 353.05c-1.33-1.71-4-2.84-5.38-1.11a4.24 4.24 0 0 0 -1.44 4.57 4.09 4.09 0 0 0 5.33 2.25h.09a3.92 3.92 0 0 0 1.55-5.34c-.01-.15-.08-.26-.15-.37z" fill="#263238"/><path d="m148.33 317.63c-1.33-1.76-4-2.84-5.38-1.13h.05a4.23 4.23 0 0 0 -1.43 4.58 4.07 4.07 0 0 0 5.31 2.24h.1a3.93 3.93 0 0 0 1.55-5.33 3.45 3.45 0 0 0 -.2-.36z" fill="#263238"/><path d="m242.25 318.18c-1.33-1.72-4-2.84-5.38-1.12a4.24 4.24 0 0 0 -1.44 4.57 4.08 4.08 0 0 0 5.31 2.25l.11-.05a3.93 3.93 0 0 0 1.54-5.34 3.21 3.21 0 0 0 -.14-.31z" fill="#263238"/><path d="m213.29 209.14a13.92 13.92 0 0 1 -.36 2.3l-1.25 6.21-4.14 20.49c-1.62 8-3.14 15.25-4.34 20.47-.59 2.57-1.08 4.72-1.45 6.17a17.31 17.31 0 0 1 -.63 2.24 14 14 0 0 1 .37-2.3c.32-1.58.74-3.67 1.24-6.22 1.08-5.34 2.58-12.53 4.14-20.5s3.14-15.23 4.3-20.45c.59-2.58 1.08-4.72 1.45-6.17a17 17 0 0 1 .67-2.24z" fill="#263238"/><path d="m256.19 262.59c0 .11-1.46-.08-3.79 0s-5.64.39-8.36 2.63-4 5.3-4.92 7.41a27.25 27.25 0 0 1 -1.46 3.5 17.27 17.27 0 0 1 1-3.68c.8-2.17 2.05-5.39 4.93-7.73a11.23 11.23 0 0 1 4.65-2.2 16.66 16.66 0 0 1 4.16-.37 20 20 0 0 1 2.79.26 2.64 2.64 0 0 1 1 .18z" fill="#263238"/><path d="m262.22 269a29.64 29.64 0 0 1 -3.77 0 34.57 34.57 0 0 0 -17.13 5c-2 1.2-3.11 2.1-3.18 2s.22-.29.71-.73a20.47 20.47 0 0 1 2.22-1.71 29.92 29.92 0 0 1 17.38-5.08 21.41 21.41 0 0 1 2.77.23 3.55 3.55 0 0 1 1 .29z" fill="#263238"/><path d="m122.85 316.69c-.1.17-2-.73-4.38-1.72s-4.36-1.71-4.3-1.9 2.15.25 4.57 1.27 4.2 2.19 4.11 2.35z" fill="#263238"/><path d="m125 303.54c.1.18-3 2.16-6.61 5s-6.2 5.46-6.39 5.36 2.31-3 5.93-5.87 6.97-4.64 7.07-4.49z" fill="#263238"/><path d="m236.73 274.71a12.63 12.63 0 0 1 5.15-13.94 4.47 4.47 0 0 1 3.22-.86 2 2 0 0 1 1.59 2.35 1.89 1.89 0 0 1 -.05.23 3.72 3.72 0 0 1 -1.66 1.35 11.49 11.49 0 0 0 -4.52 5.45 34.7 34.7 0 0 0 -1.9 6.93" opacity=".3"/><path d="m118.48 228.85c.22.71 4.9 1.42 5.71 3.43s.42 4.23-.16 6.29-1.34 4.13-1.19 6.26c.25 3.83 3.28 6.81 6.1 9.44 7.88 7.26 17.52 15.13 25.41 22.39-7-8.91-16.11-18.15-23.83-26.43a11.16 11.16 0 0 1 -2.82-4.1c-.61-2 0-4.17.6-6.18l2.37-8c.2-.68.64-1.83.75-2.21a17 17 0 0 0 -2.93-.36 72.63 72.63 0 0 0 -10-.45" opacity=".3"/><path d="m249.14 318.87a5.66 5.66 0 0 1 -1-1.11l-2.57-3.12c-2.22-2.63-5.36-6.19-8.93-10s-6.92-7.22-9.38-9.62l-2.93-2.83a6.65 6.65 0 0 1 -1-1.09 6.47 6.47 0 0 1 1.21.86c.75.61 1.82 1.51 3.09 2.68 2.57 2.31 5.95 5.65 9.54 9.5s6.68 7.48 8.8 10.2c1.07 1.35 1.9 2.47 2.45 3.26a6.92 6.92 0 0 1 .72 1.27z" fill="#263238"/><path d="m210.63 310.47-1 .77-18.23 8.95s9.75 23.49 12.47 25.38 19.43-19.07 19.43-19.07z" fill="#9d6054"/><path d="m98.18 202.47c-2.88.78-19.48 31.46-19.48 31.46l-16 13.26-6.57-20.61a.08.08 0 0 0 -.08-.07h-18.7c-.1.09-6.67.86-6.67.94l2.44 30s9.06 29.74 14.2 32.72 21.37-3 29.49-6 30.4-29.46 30.4-29.46z" fill="#ffc100"/><path d="m105.61 256.67a7.12 7.12 0 0 0 .78-2 35 35 0 0 0 1.09-5.84 113.49 113.49 0 0 0 .14-19.51 56.81 56.81 0 0 0 -1.39-10.7 34.51 34.51 0 0 0 -3.12-8.26 25.19 25.19 0 0 0 -3.36-4.9 7 7 0 0 0 -1.57-1.51c-.16.13 2.1 2.31 4.3 6.75a36.79 36.79 0 0 1 2.83 8.15 60.35 60.35 0 0 1 1.29 10.55 142.27 142.27 0 0 1 .17 19.37 79.1 79.1 0 0 1 -1.16 7.9z" fill="#263238"/><path d="m80.42 234.62c-.06.31 4.48.64 8.76 3.88s6 7.42 6.26 7.26a6 6 0 0 0 -1-2.76 16.74 16.74 0 0 0 -11.12-8.25c-1.76-.36-2.9-.26-2.9-.13z" fill="#263238"/><path d="m82.82 271.22a17.67 17.67 0 0 0 -1-4.65 35 35 0 0 0 -5.06-10.3 25.6 25.6 0 0 0 -8.76-7.48 14.84 14.84 0 0 0 -4.44-1.72c0 .09 1.6.86 4.08 2.35a28.6 28.6 0 0 1 8.3 7.46 41.17 41.17 0 0 1 5.15 10c1.01 2.65 1.55 4.39 1.73 4.34z" fill="#263238"/><path d="m45 277.83c0 .06.37.36 1.23.52a5.84 5.84 0 0 0 3.58-.58 10.29 10.29 0 0 0 3.93-3.65 29.32 29.32 0 0 0 4.79-17.34c-.13-3-.7-4.81-.8-4.78s.13 1.85.07 4.79a33.49 33.49 0 0 1 -2.05 11.21c-1.61 4.11-3.7 7.82-6.22 9.17a6.74 6.74 0 0 1 -4.53.66z" fill="#263238"/><path d="m63.77 247.14a34.92 34.92 0 0 1 23 20.78c.42 1.11.73 2.51-.1 3.35a2.26 2.26 0 0 1 -3.1-.3 7.62 7.62 0 0 1 -1.57-3.07 34.69 34.69 0 0 0 -18.4-20.32" opacity=".4"/><path d="m56.09 226.54-25.41 1a16.49 16.49 0 0 0 8.17 9.2 12.42 12.42 0 0 0 11.63-.95c3.57-2.17 5.96-6.1 5.61-9.25z" opacity=".3"/><g fill="#fff"><path d="m204.55 214.86a61.28 61.28 0 0 1 -6.33 4 60.42 60.42 0 0 1 -6.55 3.61 61.19 61.19 0 0 1 6.33-4 65.21 65.21 0 0 1 6.55-3.61z"/><path d="m200.12 253.1a50.57 50.57 0 0 1 -3.66-5.62 51.71 51.71 0 0 1 -3.29-5.86 48.64 48.64 0 0 1 3.67 5.64 48.48 48.48 0 0 1 3.28 5.84z"/><path d="m189.88 261.24a37.14 37.14 0 0 1 -4.12 4 36.36 36.36 0 0 1 -4.44 3.69 39.18 39.18 0 0 1 4.13-4 38.77 38.77 0 0 1 4.43-3.69z"/><path d="m170.28 296.25a68 68 0 0 1 -3.36-7 67.9 67.9 0 0 1 -2.95-7.17 70.08 70.08 0 0 1 3.36 7 66.67 66.67 0 0 1 2.95 7.17z"/><path d="m136.37 278.27a78.72 78.72 0 0 1 -6.05 5.93 78.73 78.73 0 0 1 -6.37 5.6 82 82 0 0 1 6-5.93q3.05-2.96 6.42-5.6z"/><path d="m124.68 272.91a62.52 62.52 0 0 1 -4.63-5.87 62 62 0 0 1 -4.3-6.14 65.45 65.45 0 0 1 4.65 5.87 61.82 61.82 0 0 1 4.28 6.14z"/><path d="m122.25 235.47a24.62 24.62 0 0 1 -3.26 3.58 25.61 25.61 0 0 1 -3.54 3.29 26.41 26.41 0 0 1 3.27-3.58 26.82 26.82 0 0 1 3.53-3.29z"/><path d="m113.74 212.49a20.11 20.11 0 0 1 -1.72-4 20.07 20.07 0 0 1 -1.29-4.14 41.38 41.38 0 0 1 3 8.13z"/><path d="m99.25 236a7.42 7.42 0 0 1 -1.2-1.78 29.36 29.36 0 0 1 -3.44-9.74 8.53 8.53 0 0 1 -.18-2.14 11.63 11.63 0 0 1 .49 2.08 40.9 40.9 0 0 0 3.44 9.66 15.18 15.18 0 0 1 .89 1.92z"/><path d="m91.55 256.49a9 9 0 0 1 -2-1.18 35.94 35.94 0 0 1 -4.3-3.48 38.4 38.4 0 0 1 -3.68-4.08 8.83 8.83 0 0 1 -1.26-1.9 15.38 15.38 0 0 1 1.51 1.71c.91 1.07 2.2 2.49 3.74 4a53.93 53.93 0 0 0 4.14 3.56 15 15 0 0 1 1.85 1.37z"/><path d="m67.6 271.09c.09.11-1.8 1.63-3.58 4s-2.78 4.57-2.9 4.51a13.48 13.48 0 0 1 2.57-4.79 13.82 13.82 0 0 1 3.91-3.72z"/><path d="m74.37 271.06a49.59 49.59 0 0 1 -1.3-9.4 50.64 50.64 0 0 1 1.3 9.4z"/><path d="m50 256.18a72.82 72.82 0 0 1 -6.75-4.52 72.13 72.13 0 0 1 -6.5-4.89 75 75 0 0 1 6.75 4.53 70.19 70.19 0 0 1 6.5 4.88z"/><path d="m133.26 316.91a55.67 55.67 0 0 1 -5-8.58 28.34 28.34 0 0 1 2.7 4.2 29 29 0 0 1 2.3 4.38z"/><path d="m151.82 303.13a33.06 33.06 0 0 1 -5-1.94 31.06 31.06 0 0 1 -4.82-2.34 31 31 0 0 1 5 1.94 30.73 30.73 0 0 1 4.82 2.34z"/><path d="m170.2 313.39a42.24 42.24 0 0 1 -5 3.6 41.73 41.73 0 0 1 -5.26 3.24 43.27 43.27 0 0 1 5-3.61 43.5 43.5 0 0 1 5.26-3.23z"/><path d="m185.17 308.26c-.13-.05.82-2.22 1.28-5.06s.29-5.2.43-5.2a13 13 0 0 1 0 5.28 12.63 12.63 0 0 1 -1.71 4.98z"/><path d="m123.18 344.18a5.85 5.85 0 0 1 -1.37-1.11 28.25 28.25 0 0 1 -2.83-3.16 29 29 0 0 1 -2.35-3.54 6.11 6.11 0 0 1 -.73-1.6c.12-.07 1.41 2.28 3.44 4.86s3.92 4.45 3.84 4.55z"/><path d="m111.16 367.72a26.34 26.34 0 0 1 -4.64 1.71 27.9 27.9 0 0 1 -4.76 1.29 28.3 28.3 0 0 1 4.63-1.72 27.08 27.08 0 0 1 4.77-1.28z"/><path d="m133.85 383.1a9 9 0 0 1 -1.49-1.41 32.72 32.72 0 0 1 -3.06-3.89 30.77 30.77 0 0 1 -2.42-4.3 7.66 7.66 0 0 1 -.72-1.92c.13-.06 1.37 2.82 3.51 6s4.33 5.42 4.18 5.52z"/><path d="m149.67 345.05a18.24 18.24 0 0 1 -3.91-1.06 19.26 19.26 0 0 1 -3.76-1.49 18.93 18.93 0 0 1 3.92 1.06 18.93 18.93 0 0 1 3.75 1.49z"/><path d="m175.83 349.82a38.61 38.61 0 0 1 -4.56 3.82 42 42 0 0 1 -4.84 3.44 37.81 37.81 0 0 1 4.56-3.82 38.94 38.94 0 0 1 4.84-3.44z"/><path d="m191.76 344.92a66.51 66.51 0 0 1 -4.7-6.27 67.47 67.47 0 0 1 -4.3-6.53 67.83 67.83 0 0 1 4.7 6.27 65.65 65.65 0 0 1 4.3 6.53z"/><path d="m191.16 377.53a50.83 50.83 0 0 1 -6.87.22 50.83 50.83 0 0 1 -6.87-.22 52.52 52.52 0 0 1 6.87-.22 52.58 52.58 0 0 1 6.87.22z"/><path d="m164.61 384.8a56.55 56.55 0 0 1 1.06-7.1 59.87 59.87 0 0 1 1.5-7 116.64 116.64 0 0 1 -2.58 14.11z"/><path d="m206.41 385.69a51.49 51.49 0 0 1 -1.46-6.6 50.11 50.11 0 0 1 -1-6.68 49.5 49.5 0 0 1 1.46 6.6 53.58 53.58 0 0 1 1 6.68z"/><path d="m223.49 313.4a45.62 45.62 0 0 1 -.62-6.4 46 46 0 0 1 -.18-6.43 45.78 45.78 0 0 1 .63 6.4 47.63 47.63 0 0 1 .17 6.43z"/><path d="m249.77 296.22a48.5 48.5 0 0 1 -5.87-2.79 45.81 45.81 0 0 1 -5.67-3.2 50.12 50.12 0 0 1 5.87 2.8 46.31 46.31 0 0 1 5.67 3.19z"/><path d="m260.48 279.18a99.58 99.58 0 0 1 .95 13.25 47.19 47.19 0 0 1 -.7-6.61 47.45 47.45 0 0 1 -.25-6.64z"/><path d="m239 247.94a47.77 47.77 0 0 1 -4.77 4.45 48.58 48.58 0 0 1 -5.07 4.1 95.62 95.62 0 0 1 9.84-8.59z"/><path d="m221.84 248a10 10 0 0 1 -.36-2.3 52.79 52.79 0 0 1 .08-11.24 10.57 10.57 0 0 1 .4-2.29 13 13 0 0 1 -.09 2.33c-.08 1.42-.18 3.43-.2 5.59s.05 4.15.11 5.59a12.83 12.83 0 0 1 .06 2.32z"/><path d="m168.07 252.65a54.16 54.16 0 0 1 -6 7.73 53 53 0 0 1 6-7.73z"/><path d="m178.4 227a22 22 0 0 1 0-4.29 21.31 21.31 0 0 1 .43-4.29 39.74 39.74 0 0 1 -.42 8.58z"/><path d="m145 245.35a43.1 43.1 0 0 1 -6-.16 41.92 41.92 0 0 1 -6-.61 38.87 38.87 0 0 1 6 .16 39 39 0 0 1 6 .61z"/><path d="m133.49 218.48a34.18 34.18 0 0 1 1.28-7.7 34.18 34.18 0 0 1 -1.28 7.7z"/><path d="m199.3 208.15a35.27 35.27 0 0 1 -7.66-2.25 18 18 0 0 1 3.89.91 18.81 18.81 0 0 1 3.77 1.34z"/><path d="m271 269.44a48.67 48.67 0 0 0 -3.57-4.53 48.71 48.71 0 0 0 -4.38-3.73 5.34 5.34 0 0 1 1.52.78 18.42 18.42 0 0 1 5.7 5.92 5.56 5.56 0 0 1 .73 1.56z"/></g><path d="m35.86 226.89c0-.26-.53-5.71 1.86-9.9s4.34-14 4.34-14a54.57 54.57 0 0 0 .77-8.17c0-3.52-.81-7.86.69-9.15s6.81-2.58 6.65 6.92c-.14 7.8.93 9.73.93 9.73s8.53-2.17 9.44 1.07-.8 4.86-.8 4.86 2.87 1.75 2.26 3.38a4.69 4.69 0 0 1 -2.71 2.29s1.44 0 .74 2.66a5.52 5.52 0 0 1 -2.76 3.58 4 4 0 0 1 .46 3.2c-.47 1.95-1.1 2.25-1.87 2.4s-5 .67-5 .67a5 5 0 0 1 -2.17 3.77l.68 1.58s1.72 4.89-4.7 5.16-8.36-4.58-8.81-10.05z" fill="#9d6054"/><path d="m42.86 201.85a4.2 4.2 0 0 1 .7-.36 5 5 0 0 1 2.1-.33 13.28 13.28 0 0 1 3.12.62 17.48 17.48 0 0 0 1.87.44 9.57 9.57 0 0 0 2.07.08c1.42-.12 2.74-.3 4-.43a6.67 6.67 0 0 1 1.67 0 2.71 2.71 0 0 1 1.3.59 3.14 3.14 0 0 1 1.07 1.77 6.91 6.91 0 0 1 .12.79s0-.07 0-.21a3 3 0 0 0 0-.6 3.21 3.21 0 0 0 -1-1.92 2.94 2.94 0 0 0 -1.4-.67 6.2 6.2 0 0 0 -1.72-.06c-1.22.1-2.58.27-3.93.4a10.66 10.66 0 0 1 -3.85-.49 12.86 12.86 0 0 0 -3.2-.56 4.82 4.82 0 0 0 -2.15.44 4.45 4.45 0 0 0 -.51.33c-.22.12-.27.16-.26.17z" fill="#724a44"/><path d="m44.69 206.87a16.11 16.11 0 0 0 2.2.26l5.34.44c2.08.16 4 .31 5.33.45l1.6.18a2 2 0 0 0 .6.06 8.48 8.48 0 0 0 -2.18-.47c-1.35-.2-3.24-.39-5.33-.55s-4-.28-5.34-.34a13.72 13.72 0 0 0 -2.22-.03z" fill="#724a44"/><path d="m40.67 220.88a2.19 2.19 0 0 0 .5.46 4.67 4.67 0 0 0 1.71.71 7.53 7.53 0 0 0 2.76 0 24.7 24.7 0 0 0 3.25-.86 21.71 21.71 0 0 1 5.93-1h2.51a2.65 2.65 0 0 0 -.67-.13 14.37 14.37 0 0 0 -1.85-.12 19.72 19.72 0 0 0 -6 .9 27.63 27.63 0 0 1 -3.21.86 7.44 7.44 0 0 1 -2.66.06 5.93 5.93 0 0 1 -2.27-.88z" fill="#724a44"/><path d="m40.58 225.9a1.8 1.8 0 0 0 .09.45 2 2 0 0 0 .79.92 3.26 3.26 0 0 0 1.71.51 11.42 11.42 0 0 0 2.18-.21c1.52-.22 2.89-.45 3.87-.66a5.17 5.17 0 0 0 1.57-.47l-1.61.24-3.88.57a13.75 13.75 0 0 1 -2.12.23 3.19 3.19 0 0 1 -1.62-.4 2.37 2.37 0 0 1 -.98-1.18z" fill="#724a44"/><path d="m39.94 228.6a2.9 2.9 0 0 0 1.1.76 5.66 5.66 0 0 0 6.12-.82 2.58 2.58 0 0 0 .86-1 9.07 9.07 0 0 1 -1 .86 6.16 6.16 0 0 1 -2.84 1.15 6.33 6.33 0 0 1 -3-.38c-.8-.33-1.18-.63-1.24-.57z" fill="#724a44"/><path d="m44.77 214.47c0 .05.8-.19 2.1-.38a31.1 31.1 0 0 1 5.1-.28l5.15.13a15.14 15.14 0 0 0 2.13 0 13.7 13.7 0 0 0 -2.12-.2c-1.32-.08-3.13-.19-5.15-.22a25.37 25.37 0 0 0 -5.15.38 13 13 0 0 0 -1.52.38c-.31.09-.55.16-.54.19z" fill="#724a44"/><path d="m129.13 123.93a20.11 20.11 0 0 1 9.64-12.19c5.15-2.8 11.32-3.2 17-2.06s11.08 3.74 16.14 6.67a26.72 26.72 0 0 1 7.72 6c3.72 4.68 4.24 11.07 4.6 17 .29 4.83.54 9.89-1.5 14.28a14.85 14.85 0 0 1 -10 8.1" fill="#263238"/><path d="m206.31 132.66a8.94 8.94 0 0 0 -6.25-14.74 9.6 9.6 0 0 0 -10.42-12.53 10.26 10.26 0 0 0 -10.91-9.56 10 10 0 0 0 -3.35.8 9.88 9.88 0 0 0 -13.92-1.31 9.71 9.71 0 0 0 -1.79 1.94 11.9 11.9 0 0 0 -4.75 1.89 7.39 7.39 0 0 0 -4.6.69 20.59 20.59 0 0 0 -4.75 3.6c-2.37 2.22-4.86 4.6-5.7 7.74-.94 3.5.3 7.5-1.46 10.66a23.84 23.84 0 0 0 -2.28 3.61c-.89 2.55.84 5.29.63 8s-2.58 5.34-2.29 8.23a7.58 7.58 0 0 0 3.44 5 29.05 29.05 0 0 1 4.92 3.77c1.1 1.25 1.8 2.74 2.88 4a9.27 9.27 0 0 0 12.64 1 9.88 9.88 0 0 0 8.94 1.56 28.76 28.76 0 0 0 8.38-4.28 5.72 5.72 0 0 0 8 1.2 5.9 5.9 0 0 0 1.58-1.79 4.93 4.93 0 0 0 5.29 2.92 14.42 14.42 0 0 0 6-2.52c3.48-2.15 7.39-5 7.47-9.07 0-2.51-1.37-5.1-.42-7.42a13.56 13.56 0 0 1 2.72-3.39z" fill="#263238"/><path d="m131.56 120.35a27.48 27.48 0 0 0 -2.42 34.28 230.23 230.23 0 0 1 12.3-38.35" fill="#263238"/><path d="m126.48 138.18c.62-9.51 7-21.17 16.42-20.14l21.93 5.6a16.27 16.27 0 0 1 12.24 15c0 .36.06-.09.05.19l-2.23 57.35-14.78 37.19-18.9-39.37v-8.3s-12.15-2.05-14.6-17.9c-1.25-7.89-.85-19.06-.13-29.62z" fill="#9d6054"/><path d="m177.72 127.14c-2.85-8.74-15.64-20.76-24.8-20.06l-14.56 8.92a14.13 14.13 0 0 0 9.6 10.73c2.59.78 5.72 1 7.27 3.18s.7 5.58 2.18 7.93c2.06 3.23 7.6 3 9.14 6.54.68 1.53.35 3.37 1 4.89.93 2 6.1 4.57 8.22 3.87s2.11-4.3 2.74-6.21a9.92 9.92 0 0 0 .26-6.73c-.84-4.3.31-8.88-1.05-13.06z" fill="#263238"/><path d="m183.41 120.61-1.12 4.83a19.31 19.31 0 0 0 -2.52-9.83c-3.66-5.49-11.71-9.26-18.06-11.08s-14.15-.72-20.29 1.74a28.77 28.77 0 0 0 -13.61 10.73c-4.67 6.31-5.75 15.81-2.87 17.5 2.28-6.54 5.88-14 11.6-18a23.79 23.79 0 0 1 19.78-3.64c7.4 2.18 13 8.45 16.32 15.43a60.28 60.28 0 0 1 3.72 11.12 28.65 28.65 0 0 1 -.1 13.62l-.16 11.44-.19 5.24c9-3.34 11.14-12.23 12.63-21.72s.46-18.67-5.13-27.38z" fill="#ffc100"/><path d="m182.08 163.08a6.25 6.25 0 0 1 .48-1.05c.33-.7.81-1.72 1.3-3.07a33.9 33.9 0 0 0 2-12 50.38 50.38 0 0 0 -.87-8.4 52.77 52.77 0 0 0 -2.47-9.35 35.21 35.21 0 0 0 -5.18-9.3 34.21 34.21 0 0 0 -8.45-7.65 31.51 31.51 0 0 0 -21.15-4.68 30.37 30.37 0 0 0 -9.22 2.74 29.19 29.19 0 0 0 -6.93 4.72 30.44 30.44 0 0 0 -7.15 9.82c-.57 1.37-1 2.38-1.19 3.11a8.94 8.94 0 0 1 -.38 1.1 5.51 5.51 0 0 1 .24-1.14 27.09 27.09 0 0 1 1.09-3.18 29.68 29.68 0 0 1 14.07-15 30.34 30.34 0 0 1 9.39-2.87 31.89 31.89 0 0 1 21.62 4.72 34.37 34.37 0 0 1 13.85 17.4 51.58 51.58 0 0 1 2.45 9.48 49.52 49.52 0 0 1 .8 8.5 32.6 32.6 0 0 1 -2.25 12.02 31.6 31.6 0 0 1 -1.37 3 7.44 7.44 0 0 1 -.68 1.08z" fill="#263238"/><path d="m132.33 149.13a2 2 0 0 0 2 2.05 1.93 1.93 0 0 0 2.09-1.76v-.07a2 2 0 0 0 -1.95-2 2 2 0 0 0 -2.1 1.78z" fill="#263238"/><path d="m129.27 144.91c.25.27 1.79-.86 4-.86s3.8 1.11 4 .86-.14-.6-.86-1.1a5.53 5.53 0 0 0 -3.22-1 5.36 5.36 0 0 0 -3.17 1c-.65.5-.88.98-.75 1.1z" fill="#263238"/><path d="m175.83 149.41c-.07 0 .25-.78.48-2.2a13.62 13.62 0 0 0 -.46-6 12.91 12.91 0 0 0 -5.23-7.05 40.48 40.48 0 0 0 -4.8-2.39 14.27 14.27 0 0 1 -4.88-3.31 22.19 22.19 0 0 1 -2.84-5.16 12.88 12.88 0 0 0 -11.28-7.44 13.49 13.49 0 0 0 -5.91 1.2c-1.37.6-2 1.1-2 1a2.32 2.32 0 0 1 .44-.39 10.21 10.21 0 0 1 1.44-.9 13 13 0 0 1 14.6 1.78 13.43 13.43 0 0 1 3.33 4.4 22.21 22.21 0 0 0 2.74 5 14 14 0 0 0 4.65 3.16 37 37 0 0 1 4.89 2.49 13.45 13.45 0 0 1 5.6 13.71 10.52 10.52 0 0 1 -.49 1.63 2 2 0 0 1 -.28.47z" fill="#455a64"/><path d="m174.44 133.17a8.12 8.12 0 0 0 -1.11-1.37 13.83 13.83 0 0 0 -4-2.47c-.9-.43-1.94-.88-3-1.5a8.69 8.69 0 0 1 -2.93-2.56c-1.64-2.28-2.16-5.35-4.32-7.46a13.13 13.13 0 0 0 -7.52-3.62 17.62 17.62 0 0 0 -6.85.57 49.08 49.08 0 0 0 -6.06 2.37 7.22 7.22 0 0 1 1.48-1 23.23 23.23 0 0 1 4.44-1.91 17.48 17.48 0 0 1 7.15-.71 13.28 13.28 0 0 1 7.93 3.77c2.35 2.32 2.86 5.48 4.35 7.57s3.84 3 5.59 4a12.2 12.2 0 0 1 4 2.74 4.79 4.79 0 0 1 .76 1.08c.06.33.12.48.09.5z" fill="#455a64"/><path d="m152.75 149.13a2 2 0 0 0 1.95 2.05 1.94 1.94 0 0 0 2.1-1.78v-.05a2 2 0 0 0 -2-2 1.94 1.94 0 0 0 -2.1 1.78z" fill="#263238"/><path d="m150.77 145.37c.26.26 1.8-.86 4-.86s3.8 1.11 4 .86-.14-.6-.86-1.11a5.56 5.56 0 0 0 -3.23-1 5.42 5.42 0 0 0 -3.17 1c-.63.51-.85.99-.74 1.11z" fill="#263238"/><path d="m142.79 161.62a14.73 14.73 0 0 0 -3.54-.65c-.56-.06-1.09-.17-1.19-.55a2.93 2.93 0 0 1 .38-1.66c.53-1.34 1.08-2.76 1.67-4.29 2.3-6 4-11 3.73-11.12s-2.32 4.74-4.63 10.79c-.57 1.5-1.1 2.93-1.59 4.3a3.26 3.26 0 0 0 -.29 2.19 1.42 1.42 0 0 0 .91.86 4.36 4.36 0 0 0 1 .13 22.65 22.65 0 0 0 3.55 0z" fill="#263238"/><path d="m162.26 180.05s-5.15 10.89-21 9.38v-3.76a40 40 0 0 0 21-5.62z" fill="#724a44"/><path d="m143.71 166.85a4 4 0 0 1 3.52-1.45 3.62 3.62 0 0 1 2.48 1.34 2.26 2.26 0 0 1 .16 2.58 2.64 2.64 0 0 1 -2.87.68 8.4 8.4 0 0 1 -2.79-1.72 2.4 2.4 0 0 1 -.63-.64.76.76 0 0 1 0-.82" fill="#724a44"/><path d="m149.23 163.11c-.36 0-.36 2.35-2.4 4s-4.56 1.41-4.58 1.71.57.47 1.63.5a6 6 0 0 0 3.83-1.32 5.14 5.14 0 0 0 1.86-3.38c.09-.94-.17-1.53-.34-1.51z" fill="#263238"/><path d="m150.25 139c.21.6 2.4.32 5 .64s4.65 1 5 .48c.15-.25-.22-.82-1-1.39a8.71 8.71 0 0 0 -7.58-.86c-1.01.35-1.52.81-1.42 1.13z" fill="#263238"/><path d="m130.05 138.59c.39.5 1.89 0 3.7 0s3.35.33 3.7-.18c.16-.25-.09-.75-.76-1.22a5.24 5.24 0 0 0 -6 .14c-.56.5-.78 1.01-.64 1.26z" fill="#263238"/><path d="m174.89 150.09c.17-.45 8.44-3.43 8.55 5.36.11 8.54-8.51 6.87-8.53 6.61s-.02-11.97-.02-11.97z" fill="#9d6054"/><path d="m177.51 158.8a3 3 0 0 0 .4.21 1.45 1.45 0 0 0 1.12 0c.9-.34 1.64-1.77 1.71-3.32a5.16 5.16 0 0 0 -.43-2.12 1.7 1.7 0 0 0 -1.14-1.13.76.76 0 0 0 -.86.41c-.11.24-.05.41-.09.43s-.19-.15-.12-.5a.88.88 0 0 1 .33-.53 1.15 1.15 0 0 1 .86-.24 2.11 2.11 0 0 1 1.56 1.32 5 5 0 0 1 .54 2.38c0 1.71-.9 3.34-2.14 3.7a1.6 1.6 0 0 1 -1.36-.21c-.36-.15-.4-.38-.38-.4z" fill="#724a44"/><path d="m178.48 160.31a1.72 1.72 0 1 1 -.4.13" fill="#fff"/><path d="m178.09 160.44a2.24 2.24 0 0 0 -.77 1.14 1.44 1.44 0 0 0 .33 1.35 1.61 1.61 0 0 0 1.6.45 1.57 1.57 0 0 0 1-1.3 1.45 1.45 0 0 0 -.5-1.28 2.32 2.32 0 0 0 -1.3-.49.63.63 0 0 1 .4-.1 1.79 1.79 0 0 1 1.75 1.83v.09a1.84 1.84 0 0 1 -2 1.71 1.86 1.86 0 0 1 -1.29-.67 1.78 1.78 0 0 1 .25-2.52l.07-.06c.3-.15.45-.17.46-.15z" fill="#263238"/><text fill="#66429c" font-family="Lato-Light, Lato" font-size="20" font-weight="300" transform="translate(14.98 35)"><tspan letter-spacing="-.01em">W</tspan><tspan x="19.54" y="0">ould</tspan><tspan letter-spacing="-.01em" x="60.71" y="0">y</tspan><tspan x="70.27" y="0">ou li</tspan><tspan letter-spacing="-.03em" x="105.27" y="0">k</tspan><tspan x="114.51" y="0">e to</tspan></text><text fill="#66429c" font-family="Lato-Bold, Lato" font-size="20" font-weight="700" transform="translate(165.37 35)"><tspan letter-spacing="-.12em">T</tspan><tspan letter-spacing="0em" x="9.46" y="0">ailor</tspan><tspan letter-spacing="-.02em" x="54.17" y="0">y</tspan><tspan x="64.51" y="0">our</tspan></text><text fill="#66429c" font-family="Lato-Bold, Lato" font-size="20" font-weight="700" transform="translate(14.98 59)">limits?</text><text fill="#662d91" font-family="SegoeUI-Light, Segoe UI" font-size="14" font-weight="300" transform="translate(16.98 78)">Move the slider and take note <tspan letter-spacing="-.03em" x="178.54" y="0">o</tspan><tspan x="186.02" y="0">f the changes</tspan></text><path d="m255.92 96.87-88.77.13c-14 0-28.07 0-42.1.05a43.44 43.44 0 0 0 -5.23.08c-6 .81-3.86 1.09-5.8 4.7-1.68 3.12-2.25 6.4-5 9a.77.77 0 0 1 -.92.11c-5.27-3.76-2.9-12-10-13.75-3.27-.83-8.68-.09-12-.09h-18.54c-17.34 0-35.84 1.66-53.13-.61-13.77-1.83-13.8-11.49-13.88-23.15-.07-9.82-3.27-62.18 6.6-68.34 3.51-2.2 7.42-1.64 11.45-1.65h37.21q37.35 0 74.7.15c51.27.13 102.55.66 153.81.26 6.85-.05 12.88-.68 18.07 4.76 6.67 7 6.7 53.86 6.52 62.87-.15 7.34-.12 16-6.52 20.86-7.3 5.59-18.52 5-27.16 5.06a1.08 1.08 0 0 1 0-2.16c11.58 0 27.5.74 30.82-13.35 3.24-13.8 2.18-74.8-15.68-76.09-23.21-1.71-47.22 0-70.51 0-53.57-.16-107.13-.45-160.7-.56q-19 0-38-.05c-2.37 0-4.75-.06-7.12 0-9.66.31-11.9 9.18-11.9 17.57 0 5.09.06 45.6.09 50.69 0 2.54-.08 5.1 0 7.64.51 10.05 5.92 13.26 14.77 14.09 18.73 1.77 38.13.41 56.89.42h18.32c2.26 0 6.67-.63 8.53.19 4.59 2 4.82 16.23 10.25 9.85 1.79-2.11 1.07-7.64 3.21-9.33 1.83-1.45 5.5-.7 7.68-.69 14.57.13 29.14 0 43.71 0h90.33a.67.67 0 1 1 0 1.33z" fill="#283cb1"/><path d="m285.9 1.12c-71.63.51-143.44 1.25-215.07 0a.25.25 0 0 1 0-.5c71.63-1.17 143.44-.44 215.07.08a.21.21 0 0 1 .21.21.21.21 0 0 1 -.21.2z" fill="#283cb1"/><path d="m66.44.75a115.39 115.39 0 0 1 -20 .12.21.21 0 0 1 -.21-.21.21.21 0 0 1 .21-.2 115.39 115.39 0 0 1 20 .12.08.08 0 0 1 .08.08.08.08 0 0 1 -.08.09z" fill="#283cb1"/></svg>