<svg width="180" height="188" viewBox="0 0 180 188" fill="none" xmlns="http://www.w3.org/2000/svg">
<g filter="url(#filter0_d)">
<path d="M155.396 30.5288C156.244 29.5549 156.799 28.3673 156.998 27.0999C157.198 25.8324 157.033 24.5354 156.524 23.3549C156.014 22.1744 155.18 21.1572 154.114 20.4178C153.049 19.6785 151.795 19.2463 150.493 19.17C150.896 17.9771 150.983 16.7029 150.746 15.4677C150.509 14.2325 149.956 13.0772 149.138 12.1107C148.321 11.1442 147.267 10.3985 146.076 9.94398C144.884 9.48945 143.595 9.34108 142.329 9.51289C142.245 8.25261 141.855 7.03054 141.191 5.94904C140.528 4.86755 139.611 3.95812 138.517 3.29693C137.423 2.63574 136.184 2.24203 134.903 2.1488C133.623 2.05556 132.338 2.2655 131.157 2.76104C130.397 1.85757 129.435 1.13892 128.346 0.661082C127.257 0.18324 126.071 -0.0408968 124.879 0.00612763C123.688 0.0531521 122.524 0.370068 121.477 0.932193C120.431 1.49432 119.53 2.28648 118.846 3.24696C117.514 3.46004 116.245 3.95762 115.13 4.70471C113.9 4.49315 112.634 4.67857 111.52 5.23329C110.15 5.97731 108.898 6.91456 107.803 8.01526C105.945 9.7271 103.99 11.5549 103.335 13.9742C102.594 16.669 103.571 19.7543 102.185 22.195C101.511 23.0701 100.914 24.0008 100.403 24.977C99.704 26.942 101.058 29.0572 100.897 31.1372C100.735 33.2172 98.8772 35.2471 99.1053 37.4773C99.2639 38.2612 99.5852 39.0046 100.049 39.6609C100.513 40.3171 101.11 40.8722 101.802 41.2914C103.187 42.124 104.48 43.0978 105.659 44.1967C106.518 45.1583 107.066 46.3101 107.915 47.3134C109.158 48.6548 110.874 49.48 112.714 49.6213C114.554 49.7625 116.38 49.2092 117.82 48.0738C118.805 48.8094 119.954 49.3026 121.173 49.5123C122.391 49.722 123.643 49.6421 124.823 49.2793C127.178 48.5368 129.394 47.4214 131.384 45.9771C131.83 46.5689 132.418 47.0418 133.097 47.3529C133.775 47.6639 134.522 47.8031 135.269 47.758C136.017 47.7128 136.74 47.4847 137.375 47.0943C138.01 46.7039 138.535 46.1637 138.904 45.5228C139.243 46.2974 139.835 46.9389 140.586 47.3464C141.337 47.7538 142.205 47.9041 143.052 47.7734C144.743 47.481 146.344 46.8152 147.736 45.826C150.464 44.167 153.526 41.9906 153.59 38.8312C153.59 36.8977 152.517 34.9003 153.258 33.1152C153.827 32.147 154.548 31.274 155.396 30.5288Z" fill="#263238"/>
<path d="M128.618 22.0158C129.706 22.131 130.709 22.6441 131.43 23.4535C132.15 24.2628 132.535 25.3091 132.507 26.3845L129.904 84.332C129.798 91.1776 119.628 95.0232 112.18 94.8553C104.647 94.6773 104.413 91.0533 104.318 84.5407C104.159 73.6613 104.169 69.5755 104.169 69.6386C104.169 69.7016 94.6602 68.0714 92.7153 55.865C91.7593 49.7929 92.0884 39.8446 92.6305 31.7138C93.1084 24.3981 98.0599 15.4216 105.476 16.2154L128.618 22.0158Z" fill="#B78876"/>
<path d="M95.4044 40.1785C95.4008 40.5866 95.5582 40.9802 95.8436 41.2764C96.1289 41.5727 96.52 41.7486 96.9345 41.767C97.3389 41.798 97.7393 41.6698 98.0476 41.4105C98.3559 41.1512 98.5469 40.7822 98.5787 40.3844V40.3566C98.5841 39.9491 98.4269 39.5558 98.1409 39.2611C97.8548 38.9664 97.4626 38.7937 97.0486 38.7801C96.8513 38.762 96.6523 38.7823 96.463 38.8398C96.2736 38.8973 96.0977 38.991 95.9451 39.1154C95.7926 39.2399 95.6666 39.3927 95.5741 39.565C95.4816 39.7374 95.4246 39.926 95.4063 40.1201C95.4044 40.1377 95.4044 40.1544 95.4044 40.1785Z" fill="#263238"/>
<path d="M94.8117 36.8966C95.0002 37.095 96.2145 36.2168 97.9228 36.2279C99.6312 36.2391 100.887 37.0848 101.11 36.8771C101.334 36.6693 101.004 36.4134 100.45 36.0304C99.7137 35.5205 98.8331 35.2501 97.9323 35.257C97.0394 35.2483 96.1676 35.5231 95.4462 36.0406C94.8966 36.4793 94.7155 36.8029 94.8117 36.8966Z" fill="#263238"/>
<path d="M112.14 40.1787C112.134 40.5874 112.29 40.9823 112.576 41.2791C112.862 41.5759 113.255 41.751 113.67 41.7672C114.074 41.7953 114.473 41.6646 114.78 41.4039C115.086 41.1432 115.275 40.7736 115.305 40.3762V40.3595C115.313 39.9531 115.158 39.5599 114.873 39.2649C114.589 38.9699 114.198 38.7969 113.785 38.783C113.588 38.7649 113.389 38.7852 113.199 38.8427C113.01 38.9003 112.834 38.9939 112.682 39.1184C112.529 39.2428 112.403 39.3956 112.31 39.568C112.218 39.7403 112.161 39.929 112.143 40.123C112.142 40.1379 112.141 40.1546 112.14 40.1787Z" fill="#263238"/>
<path d="M111.64 37.2418C111.829 37.4505 113.043 36.5732 114.752 36.5834C116.46 36.5936 117.716 37.4301 117.939 37.2325C118.162 37.035 117.833 36.7689 117.291 36.3757C116.552 35.8716 115.673 35.6018 114.773 35.6023C113.881 35.6 113.011 35.8742 112.287 36.3859C111.725 36.7819 111.545 37.1482 111.64 37.2418Z" fill="#263238"/>
<path d="M105.393 49.7197C104.494 49.4379 103.562 49.2693 102.62 49.218C102.185 49.218 101.772 49.0826 101.696 48.7896C101.653 48.346 101.752 47.9003 101.979 47.5145L103.286 44.2439C105.092 39.5933 106.397 35.7579 106.208 35.6847C106.02 35.6114 104.392 39.342 102.596 43.9926C102.16 45.1424 101.747 46.2395 101.342 47.2846C101.071 47.8067 100.992 48.405 101.118 48.9779C101.179 49.1298 101.275 49.2657 101.398 49.3746C101.522 49.4835 101.67 49.5623 101.83 49.6047C102.073 49.6709 102.323 49.7061 102.574 49.7095C103.51 49.8281 104.457 49.8316 105.393 49.7197Z" fill="#263238"/>
<path d="M104.172 69.639C110.011 69.7435 115.764 68.2493 120.789 65.3232C120.789 65.3232 116.539 73.9242 104.172 72.7539V69.639Z" fill="#AA6550"/>
<path d="M106.111 53.7713C106.437 53.3696 106.862 53.0561 107.345 52.8605C107.828 52.6648 108.354 52.5934 108.873 52.653C109.253 52.6877 109.621 52.7983 109.955 52.978C110.289 53.1577 110.583 53.4028 110.817 53.6981C111.044 53.9799 111.178 54.3231 111.201 54.6818C111.223 55.0405 111.134 55.3975 110.945 55.7048C110.67 56.0071 110.31 56.2217 109.91 56.3208C109.511 56.42 109.09 56.3992 108.703 56.2612C107.892 55.9763 107.148 55.5349 106.514 54.9629C106.32 54.8282 106.154 54.6579 106.025 54.4613C105.961 54.3692 105.926 54.2598 105.926 54.1478C105.926 54.0358 105.961 53.9265 106.025 53.8344" fill="#AA6550"/>
<path d="M110.43 50.8903C110.154 50.8903 110.148 52.7088 108.55 54.0256C106.952 55.3424 104.979 55.0707 104.967 55.3739C104.955 55.6772 105.403 55.7291 106.242 55.7504C107.335 55.7617 108.396 55.3913 109.238 54.7053C110.045 54.0542 110.566 53.1224 110.694 52.1032C110.77 51.3401 110.558 50.8801 110.43 50.8903Z" fill="#263238"/>
<path d="M110.876 34.2945C111.046 34.7582 112.746 34.5347 114.754 34.786C116.762 35.0373 118.387 35.5696 118.653 35.1514C118.781 34.9659 118.494 34.5245 117.846 34.1063C116.972 33.5602 115.983 33.2171 114.954 33.103C113.925 32.9889 112.883 33.1069 111.907 33.4479C111.142 33.7196 110.802 34.0748 110.876 34.2945Z" fill="#263238"/>
<path d="M95.448 33.8248C95.7459 34.2115 96.9357 33.8248 98.3489 33.8248C99.7621 33.8248 100.962 34.0863 101.25 33.6894C101.367 33.5039 101.175 33.1145 100.655 32.7491C99.9488 32.3218 99.131 32.107 98.3022 32.1312C97.4735 32.1555 96.6701 32.4176 95.991 32.8854C95.48 33.2397 95.3207 33.6366 95.448 33.8248Z" fill="#263238"/>
<path d="M128.141 45.0905C128.164 44.488 128.342 43.9011 128.658 43.3844C128.974 42.8678 129.418 42.4382 129.948 42.1357C130.479 41.8332 131.078 41.6677 131.691 41.6544C132.304 41.6412 132.91 41.7807 133.453 42.06C134.707 42.7815 135.663 44.2133 135.579 46.9748C135.27 54.2905 127.822 52.5035 127.822 52.294C127.822 52.0844 128.014 48.1312 128.141 45.0905Z" fill="#B78876"/>
<path d="M130.266 49.5946C130.374 49.6698 130.488 49.7361 130.607 49.7931C130.758 49.8662 130.921 49.9095 131.089 49.9203C131.257 49.9311 131.425 49.9093 131.584 49.8561C132.081 49.5764 132.491 49.1705 132.773 48.6811C133.055 48.1916 133.198 47.6366 133.187 47.0741C133.239 46.4443 133.142 45.8111 132.904 45.2241C132.848 44.9876 132.733 44.7685 132.57 44.5862C132.407 44.4038 132.2 44.264 131.969 44.179C131.82 44.1328 131.66 44.14 131.516 44.1993C131.372 44.2585 131.254 44.366 131.183 44.5027C131.076 44.7011 131.119 44.8476 131.076 44.8578C131.034 44.868 130.917 44.7327 130.991 44.4294C131.045 44.2495 131.157 44.0917 131.31 43.9797C131.414 43.9078 131.531 43.8569 131.655 43.83C131.779 43.8031 131.907 43.8007 132.032 43.8229C132.337 43.8952 132.618 44.0425 132.849 44.251C133.08 44.4594 133.253 44.7222 133.352 45.0146C133.642 45.6725 133.766 46.3896 133.713 47.1047C133.729 47.7663 133.545 48.4175 133.183 48.9758C132.822 49.534 132.3 49.9741 131.684 50.24C131.481 50.288 131.27 50.2904 131.066 50.247C130.862 50.2037 130.67 50.1157 130.505 49.9897C130.266 49.7717 130.182 49.6048 130.266 49.5946Z" fill="#AA6550"/>
<path d="M62.7137 142.97L41.7085 125.361L30.2236 128.089C30.2236 128.089 42.0697 152.553 51.4729 162.251C60.8762 171.949 65.8691 173.318 69.4074 173.472C74.2627 173.681 76.4839 167.86 76.4839 167.86L77.0364 148.735L62.7137 142.97Z" fill="#B78876"/>
<path d="M39.6767 91.0144H23.871C21.4697 91.0144 19.3343 93.7417 20.1941 95.9784L36.1271 126.442C36.4286 127.019 36.8852 127.503 37.4473 127.842C38.0094 128.181 38.6552 128.362 39.3146 128.365H58.5879C59.0405 128.317 59.4741 128.16 59.8501 127.908C60.2261 127.656 60.5329 127.316 60.7432 126.919C60.9535 126.522 61.0608 126.08 61.0555 125.632C61.0502 125.184 60.9325 124.745 60.7129 124.353L45.3428 94.4789C44.8217 93.4384 44.0147 92.5623 43.0132 91.95C42.0117 91.3376 40.8559 91.0135 39.6767 91.0144Z" fill="#455A64"/>
<path d="M38.6058 92.8486H22.7964C22.3432 92.8471 21.8972 92.9604 21.5013 93.1775C21.1055 93.3947 20.7732 93.7085 20.5364 94.0886C20.2996 94.4687 20.1663 94.9024 20.1493 95.3479C20.1323 95.7934 20.2322 96.2356 20.4394 96.6321L35.9623 126.437C36.2628 127.015 36.7193 127.5 37.2816 127.839C37.8438 128.178 38.4902 128.359 39.1499 128.361H58.2091C58.4747 128.361 58.7361 128.295 58.9683 128.168C59.2005 128.042 59.3957 127.858 59.5353 127.636C59.6749 127.414 59.7542 127.16 59.7657 126.899C59.7771 126.638 59.7203 126.378 59.6006 126.145L44.2588 96.3094C43.7382 95.2716 42.9329 94.3976 41.9341 93.7861C40.9352 93.1746 39.7824 92.8499 38.6058 92.8486Z" fill="#263238"/>
<path d="M37.2677 105.331L27.6419 109.115L25.5811 116.744L30.2242 128.093L47.2235 130.528L42.2409 125.521L42.8886 121.162C42.8886 121.162 47.627 119.699 47.7439 118.978C47.8608 118.258 47.1594 115.843 46.424 115.76C45.6886 115.676 40.7287 117.463 40.7287 117.463C40.7287 117.463 46.6145 112.876 46.4551 112.144C46.2958 111.412 45.6481 109.521 44.4753 109.312C43.3025 109.103 33.8502 113.492 33.8502 113.492L32.2474 116.951L30.9087 111.412C30.9087 111.412 39.3617 109.099 37.2677 105.331Z" fill="#B78876"/>
<path d="M38.4809 123.218C38.4281 123.218 38.2471 122.895 38.1519 122.278C38.0616 121.47 38.1644 120.653 38.4522 119.891C38.7399 119.129 39.2046 118.443 39.8093 117.889C40.2873 117.482 40.6483 117.333 40.6804 117.377C39.8991 118.131 39.2968 119.046 38.9166 120.056C38.5364 121.066 38.3876 122.146 38.4809 123.218Z" fill="#AA6550"/>
<path d="M33.9102 121.557C34.0843 120.739 34.2121 119.912 34.2929 119.08C34.3315 118.147 34.4921 117.224 34.7709 116.331C34.9739 115.781 35.2926 115.279 35.7062 114.858C36.1539 114.427 36.69 114.096 37.2787 113.886C39.5734 113.071 41.6456 112.402 43.1645 111.921C43.9698 111.621 44.8022 111.397 45.6506 111.252C44.8953 111.658 44.1018 111.99 43.2814 112.246C41.805 112.81 39.7224 113.544 37.4588 114.336C36.9336 114.52 36.4523 114.808 36.0446 115.182C35.6921 115.557 35.4211 115.999 35.248 116.481C34.9609 117.332 34.7684 118.212 34.6738 119.104C34.6375 119.973 34.3745 120.817 33.9102 121.557Z" fill="#AA6550"/>
<path d="M31.7015 119.843C31.5639 119.843 31.595 118.986 31.7656 117.983C31.9363 116.979 32.1805 116.174 32.3181 116.196C32.4532 116.811 32.4312 117.451 32.254 118.056C32.0843 119.038 31.8411 119.864 31.7015 119.843Z" fill="#AA6550"/>
<path d="M31.4561 98.6002C31.4561 98.9928 31.5745 99.3767 31.7962 99.7032C32.018 100.03 32.3333 100.284 32.7021 100.434C33.0709 100.585 33.4768 100.624 33.8684 100.547C34.2599 100.471 34.6195 100.282 34.9018 100.004C35.1841 99.7264 35.3764 99.3726 35.4542 98.9875C35.5321 98.6024 35.4922 98.2032 35.3394 97.8404C35.1866 97.4776 34.9279 97.1675 34.596 96.9493C34.264 96.7312 33.8738 96.6147 33.4745 96.6147H33.4642C32.9316 96.6147 32.4208 96.8229 32.0442 97.1933C31.6676 97.5637 31.4561 98.0661 31.4561 98.59V98.6002Z" fill="#FAFAFA"/>
<path d="M85.2908 147.024C84.7912 140.806 96.6909 80.1407 95.5539 80.4022C92.3664 81.0291 85.864 82.4924 77.1198 93.2568C72.5727 98.8578 62.6386 127.399 60.195 134.567L53.2995 131.322C52.217 130.812 50.9759 130.733 49.8357 131.102L34.1855 136.202C34.1855 136.202 55.4349 174.347 65.8686 174.158C67.4268 174.151 68.9836 174.064 70.5326 173.897L68.232 180H78.8716H90.9292C90.9292 180 85.7801 153.231 85.2908 147.024Z" fill="#FFC100"/>
<path d="M103.852 77.5082L92.6859 80.9152C87.1932 85.1688 85.1634 93.7271 85.3548 100.594L81.1915 157.545L78.1631 180H149.093L142.6 156.66L153.416 119.624C154.192 114.221 154.67 103.024 153.235 97.6775C149.558 84.0922 141.431 78.1453 130.296 75.7314C130.296 75.7314 119.549 85.6176 109.695 83.8622C108.135 83.6062 106.709 82.8392 105.649 81.6858C104.588 80.5323 103.955 79.0601 103.852 77.5082Z" fill="#263238"/>
<path d="M68.2324 180L68.2324 179.302V178.604L68.9417 177.209L70.3428 173.789V173.882C70.5238 169.702 70.7784 164.887 71.097 159.753C71.6174 151.392 72.2444 143.868 72.794 138.414C73.0703 135.686 73.3248 133.481 73.5275 131.966C73.6218 131.244 73.6972 130.668 73.7613 130.221C73.7783 130.015 73.8175 129.812 73.8782 129.614C73.9037 129.819 73.9037 130.026 73.8782 130.231C73.8782 130.681 73.7934 131.276 73.7293 131.986L73.1636 138.445C72.6922 143.901 72.1011 151.445 71.6014 159.785C71.2827 164.916 71.0065 169.744 70.7943 173.903V173.955L68.2324 180Z" fill="#263238"/>
<path d="M65.2862 143.691C65.1373 143.742 64.2238 141.6 62.8634 139.054C61.5029 136.507 60.0793 134.665 60.1962 134.57C61.4735 135.8 62.5234 137.24 63.2989 138.824C64.192 140.346 64.8611 141.984 65.2862 143.691Z" fill="#263238"/>
<path d="M124.88 95.5666C124.88 95.7233 116.135 95.8383 105.364 95.8383C94.5929 95.8383 85.8486 95.7233 85.8486 95.5666C85.8486 95.4099 94.5816 95.2949 105.364 95.2949C116.147 95.2949 124.88 95.4201 124.88 95.5666Z" fill="#FAFAFA"/>
<path d="M127.854 88.7312C127.327 88.7751 126.798 88.7751 126.271 88.7312H121.958L107.763 88.4595L93.5586 88.2509L89.3085 88.1581C88.7793 88.166 88.2502 88.135 87.7256 88.0654C88.2476 87.9723 88.7782 87.9337 89.3085 87.9504C90.3182 87.9504 91.7946 87.8873 93.5586 87.8669C97.192 87.8669 102.218 87.8669 107.775 87.9189C113.331 87.9708 118.346 88.1804 121.98 88.3473C123.796 88.4308 125.262 88.504 126.23 88.5773C126.775 88.5774 127.319 88.6289 127.854 88.7312Z" fill="#FAFAFA"/>
<path d="M104.321 80.0156C104.321 80.1723 101.24 80.8307 97.426 81.7609C95.1508 82.4102 92.8421 82.9405 90.5098 83.3494C92.6915 82.4199 94.9667 81.7193 97.2978 81.2592C99.587 80.5986 101.942 80.1817 104.321 80.0156Z" fill="#FAFAFA"/>
<path d="M132.328 80.2242C131.28 80.339 130.219 80.2763 129.193 80.0388C128.146 79.9639 127.118 79.7165 126.154 79.3071C127.199 79.1914 128.255 79.2541 129.278 79.4926C130.329 79.5643 131.361 79.8117 132.328 80.2242Z" fill="#FAFAFA"/>
<path d="M121.595 105.16C121.126 105.246 120.649 105.288 120.172 105.285C119.258 105.337 117.93 105.389 116.294 105.441C113.011 105.534 108.475 105.608 103.472 105.608C98.4699 105.608 93.9096 105.525 90.6504 105.423C89.0034 105.371 87.675 105.318 86.7614 105.266C86.2831 105.276 85.8052 105.231 85.3379 105.13C85.8125 105.061 86.2926 105.037 86.7719 105.057H120.175C120.651 105.036 121.128 105.07 121.595 105.16Z" fill="#FAFAFA"/>
<path d="M118.834 115.568C118.834 115.715 111.103 115.307 101.59 114.641C92.0776 113.975 84.3676 113.324 84.3779 113.178C84.3883 113.031 92.1087 113.439 101.621 114.098C111.134 114.756 118.844 115.423 118.834 115.568Z" fill="#FAFAFA"/>
<path d="M116.092 124.754C116.092 124.901 110.609 124.546 103.873 123.949C97.1371 123.353 91.6766 122.758 91.6973 122.612C91.7181 122.467 97.1796 122.821 103.916 123.406C110.652 123.991 116.104 124.608 116.092 124.754Z" fill="#FAFAFA"/>
<path d="M90.1157 143.983C87.4075 144.208 84.6884 143.698 82.2539 142.51C83.5797 142.666 84.8932 142.91 86.1853 143.241C87.5114 143.398 88.8248 143.646 90.1157 143.983Z" fill="#FAFAFA"/>
<path d="M111.14 172.493C110.682 172.409 110.233 172.279 109.801 172.106C108.953 171.835 107.74 171.385 106.263 170.779C102.419 169.206 98.7032 167.343 95.1495 165.209C91.5945 163.071 88.2097 160.671 85.024 158.03C83.8126 156.984 82.899 156.159 82.2089 155.542C81.8553 155.246 81.5349 154.913 81.2529 154.549C81.6356 154.79 81.9917 155.07 82.3155 155.384C82.9952 155.949 83.9945 156.753 85.2381 157.736C88.4711 160.28 91.8636 162.622 95.3955 164.748C98.9382 166.858 102.607 168.757 106.382 170.433C107.837 171.071 109.017 171.572 109.835 171.907C110.291 172.054 110.729 172.25 111.14 172.493Z" fill="#FAFAFA"/>
<path d="M98.0193 157.088C97.167 156.983 96.3295 156.783 95.5228 156.493C93.9927 156.029 91.9214 155.322 89.6776 154.402C87.7594 153.624 85.8867 152.741 84.0681 151.759C83.2861 151.401 82.551 150.952 81.8789 150.42C82.7029 150.688 83.4968 151.038 84.2481 151.466C85.6821 152.134 87.6695 153.022 89.8897 153.942C92.11 154.862 94.1397 155.636 95.6406 156.179C96.464 156.398 97.2614 156.703 98.0193 157.088Z" fill="#FAFAFA"/>
<path d="M121.767 136.502L120.12 142.772L87.1828 119.133L78.2056 106.658C76.5753 104.555 74.2739 103.053 71.6712 102.392C69.2275 101.922 67.1129 102.967 64.4995 104.377L56.9572 108.986C56.5048 109.25 56.1428 109.64 55.9175 110.108C55.6922 110.575 55.6141 111.098 55.693 111.61C55.8099 112.289 56.203 112.78 57.2334 112.331C59.5521 111.401 61.9215 110.599 64.3307 109.927L65.595 121.872L71.1838 125.854L76.7622 130.087L113.948 166.438C115.811 168.258 118.085 169.619 120.586 170.408C123.086 171.196 125.741 171.391 128.333 170.976C130.924 170.561 133.379 169.548 135.496 168.02C137.612 166.492 139.331 164.492 140.51 162.184L146.024 146.769L121.767 136.502Z" fill="#B78876"/>
<path d="M119.279 141.883C119.815 142.017 120.297 142.308 120.66 142.718C121.602 143.642 122.267 144.802 122.583 146.073C122.892 147.324 123.013 148.613 122.944 149.898C122.967 150.43 122.903 150.962 122.756 151.475C122.629 150.959 122.576 150.428 122.596 149.898C122.563 148.652 122.399 147.412 122.108 146.199C121.804 145.005 121.223 143.896 120.411 142.959C119.768 142.249 119.236 141.946 119.279 141.883Z" fill="#EB996E"/>
<path d="M64.255 110.552C64.2022 110.552 64.3615 110.134 64.7433 109.58C65.2586 108.822 66.0015 108.241 66.8684 107.919C67.317 107.766 67.7983 107.732 68.2644 107.82C68.7305 107.908 69.1649 108.115 69.5242 108.42C70.0663 108.932 70.0446 109.465 70.0022 109.465C69.8131 109.18 69.5759 108.93 69.3008 108.723C68.9699 108.507 68.5932 108.367 68.1993 108.314C67.8053 108.262 67.4043 108.298 67.0267 108.42C66.2559 108.723 65.575 109.212 65.0469 109.842C64.5736 110.269 64.3087 110.584 64.255 110.552Z" fill="#AA6550"/>
<path d="M70.1524 113.74C70.1524 113.74 69.8441 113.562 69.3981 113.311C68.8242 112.976 68.1691 112.799 67.5018 112.799C66.8344 112.799 66.1793 112.976 65.6053 113.311C65.1594 113.562 64.9039 113.781 64.8511 113.74C64.7983 113.698 64.968 113.384 65.4036 113.029C66.0078 112.558 66.7574 112.303 67.5286 112.308C68.298 112.292 69.049 112.54 69.6536 113.008C70.0355 113.384 70.2052 113.698 70.1524 113.74Z" fill="#AA6550"/>
<path d="M146.965 180H151.931H156.186H160.442C160.442 180 154.671 143.19 157.613 117.733C158.071 115.642 158.347 114.209 158.378 113.699C158.378 112.873 158.792 108.473 158.803 106.843C159.111 103.148 158.94 99.429 158.293 95.7763C157.89 88.6285 137.703 76.5056 136.056 77.4459C129.84 81.0096 119.534 111.598 114.03 133.586C108.374 130.711 101.355 127.201 100.473 127.044C98.9648 126.793 98.5293 129.584 98.5293 129.584V159.953L111.736 169.014C111.736 169.014 117.47 171.065 120.721 180H131.965H144.128C144.128 180 146.256 180 146.965 180Z" fill="#FFC100"/>
<path d="M154.161 130.408C154.152 130.668 154.123 130.926 154.076 131.182C154.001 131.693 153.887 132.435 153.725 133.397C153.396 135.309 152.877 138.068 152.153 141.475C151.429 144.882 150.517 148.906 149.39 153.368C148.816 155.593 148.201 157.925 147.489 160.327C146.789 162.835 145.791 165.252 144.513 167.528C141.933 171.941 137.792 175.267 132.879 176.871C130.729 177.537 128.445 177.674 126.228 177.268C124.334 176.826 122.513 176.122 120.82 175.178C118.396 173.814 116.068 172.292 113.85 170.622L112.034 169.273C111.81 169.132 111.604 168.967 111.417 168.782C111.656 168.901 111.883 169.041 112.097 169.2L113.966 170.465C116.212 172.076 118.558 173.549 120.989 174.875C122.657 175.78 124.445 176.452 126.302 176.871C128.452 177.24 130.662 177.089 132.74 176.432C137.523 174.835 141.553 171.581 144.077 167.278C145.335 165.038 146.319 162.659 147.009 160.192C147.731 157.799 148.358 155.468 148.932 153.253C150.09 148.811 151.057 144.788 151.801 141.402C152.545 138.015 153.14 135.257 153.522 133.354C153.711 132.434 153.852 131.714 153.968 131.159C154.003 130.903 154.068 130.651 154.161 130.408Z" fill="#263238"/>
<path d="M128.905 145.885C128.831 145.885 128.225 144.996 127.114 143.596C125.665 141.769 124.027 140.095 122.227 138.601C120.412 137.122 118.45 135.826 116.372 134.734C114.779 133.908 113.726 133.48 113.759 133.407C114.027 133.434 114.289 133.504 114.534 133.615C115.216 133.849 115.883 134.121 116.532 134.43C120.86 136.47 124.594 139.55 127.39 143.387C127.82 143.959 128.211 144.56 128.559 145.184C128.707 145.401 128.823 145.637 128.905 145.885Z" fill="#263238"/>
<path d="M133.655 141.873C133.59 141.873 133.06 141.298 132.061 140.462C130.75 139.378 129.268 138.51 127.674 137.892C126.078 137.275 124.39 136.922 122.677 136.847C121.37 136.795 120.552 136.898 120.552 136.847C121.235 136.617 121.955 136.511 122.677 136.533C126.23 136.496 129.659 137.818 132.239 140.222C132.813 140.679 133.293 141.239 133.655 141.873Z" fill="#263238"/>
<path d="M129.979 101.569C129.979 102.053 129.933 102.536 129.841 103.011C129.703 103.931 129.491 105.258 129.172 106.888C128.545 110.149 127.525 114.633 126.228 119.533C124.932 124.434 123.593 128.835 122.499 131.97C121.957 133.546 121.489 134.812 121.138 135.669C120.977 136.125 120.774 136.565 120.533 136.986C120.638 136.515 120.78 136.054 120.958 135.606L122.17 131.865C123.168 128.73 124.454 124.299 125.752 119.408C127.051 114.518 128.122 110.002 128.833 106.815L129.652 102.98C129.721 102.502 129.831 102.03 129.979 101.569Z" fill="#263238"/>
<path d="M108.368 134.714C108.499 135.052 108.594 135.402 108.651 135.759C108.858 136.717 109.003 137.688 109.086 138.664C109.208 140.114 109.225 141.57 109.139 143.023C109.012 144.801 108.739 146.566 108.321 148.3C107.881 150.031 107.295 151.723 106.568 153.358C105.962 154.692 105.252 155.978 104.443 157.203C103.913 158.032 103.331 158.828 102.701 159.586C102.485 159.874 102.235 160.137 101.957 160.369C101.883 160.317 102.881 159.136 104.146 157.025C104.889 155.786 105.55 154.502 106.126 153.18C106.814 151.558 107.379 149.888 107.815 148.184C108.23 146.466 108.51 144.719 108.655 142.959C108.765 141.526 108.783 140.088 108.707 138.653C108.602 136.184 108.273 134.714 108.368 134.714Z" fill="#263238"/>
<path d="M150.73 91.8679C149.597 91.9253 148.463 91.9253 147.33 91.8679C144.618 91.7988 141.91 92.1298 139.298 92.8499C136.703 93.6177 134.403 95.1364 132.698 97.2083C132.057 98.1108 131.509 99.0738 131.062 100.083C131.084 99.7808 131.155 99.4842 131.275 99.2048C131.544 98.4181 131.931 97.675 132.422 96.9997C134.105 94.7952 136.462 93.1798 139.148 92.3909C141.809 91.649 144.579 91.3592 147.34 91.534C148.171 91.5441 149.001 91.6036 149.826 91.7121C150.133 91.7171 150.439 91.7697 150.73 91.8679Z" fill="#263238"/>
<path d="M107.953 177.208C107.89 177.28 102.117 172.968 95.0639 167.573C88.0112 162.179 82.3475 157.749 82.4196 157.675C82.4918 157.601 88.2564 161.915 95.3091 167.31C102.362 172.705 108.011 177.134 107.953 177.208Z" fill="#455A64"/>
<path d="M132.996 26.2703C130.762 19.5398 120.74 10.273 113.564 10.8118L102.155 17.6693C102.54 19.5846 103.441 21.363 104.764 22.8185C106.087 24.274 107.783 25.3531 109.675 25.9429C111.706 26.5448 114.155 26.6931 115.368 28.3938C116.582 30.0946 115.916 32.6939 117.077 34.5012C118.688 36.9948 123.027 36.8473 124.242 39.5412C124.768 40.7245 124.51 42.1377 125.058 43.3136C125.789 44.8668 129.838 46.8318 131.503 46.2931C133.168 45.7543 133.158 42.9751 133.652 41.5062C134.328 39.8522 134.4 38.0183 133.855 36.3178C133.158 33.0221 134.06 29.4927 132.996 26.2703Z" fill="#263238"/>
<path d="M137.454 21.2418L136.573 24.9613C136.611 22.3075 135.928 19.692 134.594 17.3851C131.726 13.1583 125.419 10.253 120.446 8.8472C115.473 7.44138 109.36 8.2973 104.547 10.189C100.216 11.7945 96.4912 14.672 93.8796 18.4311C90.2272 23.2912 90.3771 30.899 92.6332 32.1982C93.2158 25.6401 96.2431 21.0934 100.722 18.0713C102.941 16.5195 105.479 15.4646 108.157 14.9808C110.835 14.4969 113.588 14.5959 116.223 15.2708C122.024 16.9511 126.439 21.7797 129.007 27.1582C130.258 29.9146 131.233 32.7847 131.918 35.7276C132.752 39.1835 132.726 42.7865 131.842 46.2304L131.316 52.5418L131.022 58.3228C138.08 55.755 140.297 49.6532 141.468 42.3412C142.639 35.0293 141.805 27.951 137.454 21.2418Z" fill="#FFC100"/>
<path d="M131.514 43.4428C131.46 43.4428 131.707 42.841 131.891 41.7421C132.125 40.1892 132 38.6044 131.526 37.1055C130.851 34.8792 129.402 32.9569 127.433 31.6741C126.224 30.9771 124.968 30.3627 123.673 29.8353C122.232 29.2545 120.929 28.3837 119.85 27.2786C118.929 26.0594 118.181 24.723 117.626 23.306C116.836 21.6388 115.591 20.2199 114.03 19.207C112.469 18.1941 110.653 17.627 108.784 17.5686C107.19 17.5337 105.608 17.8506 104.154 18.4959C103.08 18.9596 102.618 19.3417 102.597 19.299C102.696 19.1845 102.812 19.0849 102.941 19.0032C103.296 18.7386 103.675 18.5053 104.072 18.3058C105.897 17.3726 107.967 17.0043 110.009 17.2494C112.051 17.4945 113.969 18.3415 115.513 19.6792C116.612 20.62 117.501 21.7751 118.123 23.0714C118.668 24.4393 119.39 25.7322 120.272 26.9179C121.305 27.9633 122.544 28.7904 123.914 29.3484C125.226 29.8929 126.497 30.5285 127.717 31.2504C129.419 32.3961 130.743 34.0077 131.524 35.8856C132.305 37.7636 132.509 39.8255 132.11 41.8163C132.018 42.2454 131.888 42.666 131.724 43.0737C131.671 43.2056 131.6 43.3297 131.514 43.4428Z" fill="#455A64"/>
<path d="M130.429 30.9203C130.175 30.5409 129.884 30.1871 129.559 29.8641C128.628 29.0593 127.564 28.4167 126.414 27.964C125.705 27.6367 124.899 27.288 124.083 26.8123C123.178 26.3289 122.393 25.6539 121.785 24.8362C120.506 23.0826 120.098 20.7151 118.401 19.0868C116.801 17.5495 114.734 16.5698 112.514 16.2974C110.711 16.0929 108.885 16.2401 107.14 16.7304C105.519 17.2376 103.933 17.8482 102.393 18.5582C102.747 18.2649 103.136 18.0158 103.552 17.8163C104.657 17.2075 105.823 16.7152 107.033 16.3474C108.839 15.7845 110.745 15.5976 112.629 15.7985C114.977 16.0492 117.17 17.0731 118.852 18.7038C120.688 20.4898 121.086 22.9305 122.257 24.5366C123.428 26.1428 125.264 26.893 126.64 27.6117C127.815 28.1039 128.878 28.8225 129.766 29.725C130.002 29.9748 130.201 30.2557 130.357 30.5596C130.397 30.7933 130.451 30.9092 130.429 30.9203Z" fill="#455A64"/>
<path d="M136.413 53.9755C136.508 53.6917 136.634 53.4189 136.79 53.1622C137.047 52.6234 137.423 51.8417 137.811 50.7957C138.894 47.8281 139.426 44.6929 139.38 41.54C139.336 39.3658 139.106 37.199 138.692 35.0627C138.275 32.607 137.628 30.1947 136.759 27.8564C135.783 25.2797 134.413 22.8642 132.698 20.6929C130.842 18.3782 128.606 16.3853 126.081 14.7969C121.162 11.7078 115.29 10.4315 109.506 11.1943C107 11.5143 104.563 12.2278 102.287 13.3076C100.307 14.2567 98.4763 15.481 96.8508 16.9428C94.4894 19.0708 92.5861 21.6433 91.2536 24.5079C90.802 25.5641 90.4993 26.3468 90.3193 26.9069C90.2372 27.1947 90.1368 27.4772 90.0186 27.7526C90.0537 27.4547 90.1184 27.1609 90.2118 26.8753C90.4418 26.0416 90.7252 25.223 91.0603 24.4244C93.224 19.4138 97.1325 15.3258 102.084 12.8941C104.399 11.7699 106.884 11.0242 109.443 10.6861C115.35 9.86872 121.359 11.1582 126.383 14.3212C131.4 17.4677 135.215 22.1607 137.233 27.6663C138.107 30.0385 138.751 32.4868 139.155 34.9783C139.551 37.1406 139.759 39.332 139.778 41.5289C139.798 44.7206 139.2 47.8868 138.016 50.8587C137.702 51.6556 137.343 52.4351 136.943 53.1937C136.787 53.4673 136.609 53.7286 136.413 53.9755Z" fill="#263238"/>
</g>
<defs>
<filter id="filter0_d" x="16" y="0" width="148.442" height="188" filterUnits="userSpaceOnUse" color-interpolation-filters="sRGB">
<feFlood flood-opacity="0" result="BackgroundImageFix"/>
<feColorMatrix in="SourceAlpha" type="matrix" values="0 0 0 0 0 0 0 0 0 0 0 0 0 0 0 0 0 0 127 0" result="hardAlpha"/>
<feOffset dy="4"/>
<feGaussianBlur stdDeviation="2"/>
<feComposite in2="hardAlpha" operator="out"/>
<feColorMatrix type="matrix" values="0 0 0 0 0 0 0 0 0 0 0 0 0 0 0 0 0 0 0.25 0"/>
<feBlend mode="normal" in2="BackgroundImageFix" result="effect1_dropShadow"/>
<feBlend mode="normal" in="SourceGraphic" in2="effect1_dropShadow" result="shape"/>
</filter>
</defs>
</svg>
