<svg width="167" height="180" viewBox="0 0 167 180" fill="none" xmlns="http://www.w3.org/2000/svg">
<g clip-path="url(#clip0)">
<path d="M125.193 138.269C148.24 115.222 148.24 77.8548 125.193 54.8074C102.145 31.7601 64.7782 31.7601 41.7309 54.8074C18.6836 77.8548 18.6836 115.222 41.7309 138.269C64.7782 161.317 102.145 161.317 125.193 138.269Z" fill="#E0E0E0"/>
<path d="M49.335 65.8456C51.9546 62.6315 63.2883 60.6278 64.0891 60.6278L89.6265 58.4153C96.2248 60.1256 102.708 62.2522 109.038 64.7822L107.389 91.6347L103.026 119.123C109.79 127.409 115.706 137.772 117.136 145.067C96.5977 158.634 76.0172 158.697 56.9612 151.725L58.0019 123.276L49.335 65.8456Z" fill="#FFC100"/>
<path d="M51.641 64.1436C51.641 64.1436 43.386 68.1719 40.4217 73.6615C38.9188 76.4482 33.8467 94.4189 33.8467 94.4189C33.8467 94.4189 37.6558 104.52 53.6025 101.724L55.0423 97.2889L51.641 64.1436Z" fill="#FFC100"/>
<path d="M108.831 64.874C112.708 67.2853 115.563 71.0362 116.857 75.4143C118.114 80.777 118.941 86.2315 119.33 91.7259L103.676 94.6479L108.831 64.874Z" fill="#FFC100"/>
<path d="M57.8822 122.41C57.8891 121.902 57.8436 121.395 57.7463 120.897C57.6 119.856 57.412 118.444 57.1824 116.785C56.6713 113.32 55.9403 108.54 55.0954 103.27C54.2506 97.9995 53.4676 93.22 52.8621 89.7758C52.5701 88.1167 52.3197 86.749 52.1318 85.685C52.0668 85.1807 51.9513 84.6841 51.7871 84.2029C51.788 84.7103 51.8334 85.2168 51.923 85.7162C52.0693 86.757 52.2677 88.1583 52.4972 89.818C52.998 93.2831 53.7284 98.0625 54.5842 103.385C55.4401 108.708 56.2225 113.435 56.8176 116.89C57.1096 118.538 57.36 119.906 57.5479 120.97C57.6189 121.458 57.7308 121.94 57.8822 122.41V122.41Z" fill="#263238"/>
<path d="M54.1044 95.3384C54.0111 95.6769 53.9794 96.0294 54.0107 96.3791C54.0095 97.3082 54.1251 98.2338 54.3548 99.134C55.0748 102.165 56.88 104.827 59.4293 106.617C61.9786 108.407 65.0953 109.202 68.1905 108.85C69.113 108.76 70.0208 108.557 70.8934 108.245C71.2227 108.153 71.5335 108.005 71.8117 107.807C70.613 108.122 69.392 108.345 68.1593 108.474C65.1755 108.72 62.1994 107.916 59.7453 106.202C57.2911 104.487 55.5129 101.968 54.7178 99.082C54.4099 97.8533 54.2048 96.6011 54.1044 95.3384V95.3384Z" fill="#263238"/>
<path d="M92.4902 123.183C94.286 122.779 96.0591 122.281 97.8023 121.69C99.5956 121.278 101.365 120.769 103.104 120.166C101.249 120.263 99.4157 120.613 97.6554 121.207C95.8508 121.624 94.1125 122.289 92.4902 123.183V123.183Z" fill="#263238"/>
<path d="M89.0459 119.77C93.6074 120.168 98.2034 119.74 102.613 118.507C102.613 118.35 99.5758 118.874 95.8395 119.216C92.1032 119.558 89.0459 119.655 89.0459 119.77Z" fill="#263238"/>
<path d="M102.998 119.258C103.147 118.814 103.256 118.356 103.321 117.891C103.499 116.9 103.729 115.637 104.01 114.124C104.561 110.993 105.296 106.537 106.097 101.663C106.899 96.7893 107.548 92.3747 108.007 89.1399C108.216 87.6161 108.393 86.3427 108.529 85.3411C108.621 84.881 108.659 84.4118 108.644 83.9429C108.496 84.388 108.388 84.8455 108.321 85.3099L107.642 89.0774C107.078 92.2609 106.348 96.6645 105.555 101.538C104.763 106.412 104.094 110.837 103.635 114.061C103.426 115.585 103.249 116.859 103.113 117.86C103.028 118.321 102.99 118.79 102.998 119.258Z" fill="#263238"/>
<g opacity="0.2">
<path opacity="0.2" d="M91.925 110.628C88.7942 110.168 87.364 108.738 84.8283 107.371C82.2925 106.004 79.4226 104.739 76.6358 105.461C74.6945 105.972 73.085 107.403 71.1462 107.924C69.8063 108.17 68.4487 108.306 67.0866 108.331C66.4043 108.349 65.7323 108.503 65.1104 108.784C64.4885 109.066 63.9292 109.469 63.4655 109.969C63.0444 110.578 62.8059 111.294 62.7781 112.034C62.7504 112.774 62.9344 113.506 63.3087 114.144C64.0758 115.4 65.2512 116.354 66.6379 116.847C68.7736 117.692 71.1394 117.755 73.317 117.025C75.0312 116.429 76.5942 115.365 78.3892 115.065C79.9068 114.886 81.4455 115.072 82.8766 115.608C84.3275 116.077 85.7362 116.649 87.2184 117.048C88.6921 117.468 90.2602 117.421 91.7058 116.912C92.4207 116.643 93.0436 116.174 93.5005 115.562C93.9574 114.95 94.2292 114.219 94.2838 113.457C94.2874 112.721 93.9984 112.013 93.4804 111.49C92.9624 110.967 92.2578 110.671 91.5215 110.667C91.4756 110.667 91.4297 110.667 91.3826 110.67" fill="black"/>
</g>
<path d="M82.6992 105.881C82.8814 106.092 83.0767 106.29 83.2839 106.476C83.5254 106.693 83.7797 106.895 84.0454 107.082C84.38 107.336 84.7274 107.573 85.0862 107.791C86.0533 108.364 87.0784 108.833 88.1441 109.19C90.7945 110.062 93.6194 110.267 96.3679 109.785C97.4769 109.588 98.5616 109.274 99.6034 108.845C100.004 108.689 100.394 108.508 100.772 108.303C101.062 108.16 101.341 107.997 101.607 107.813C102.056 107.511 102.296 107.344 102.275 107.313C102.254 107.281 101.234 107.864 99.4675 108.502C98.4326 108.865 97.3671 109.134 96.284 109.306C94.9568 109.493 93.6142 109.545 92.2765 109.463C90.9427 109.354 89.6239 109.106 88.3419 108.722C87.293 108.399 86.2762 107.98 85.3047 107.469C83.6591 106.578 82.7721 105.795 82.6992 105.881Z" fill="#263238"/>
<path d="M34.5261 95.3384C34.5261 95.3384 29.4332 121.345 30.8841 133.242C31.4057 137.49 53.5099 146.058 53.5099 146.058L59.0197 136.958L46.371 124.873L53.6036 101.736C47.5097 102.842 39.7439 99.3875 34.5261 95.3384Z" fill="#B78876"/>
<path d="M64.2793 156.463C71.1238 157.794 78.1609 157.794 85.0055 156.463V130.571H64.2793V156.463Z" fill="#455A64"/>
<path d="M61.6601 134.485C61.1385 134.808 59.4059 136.05 58.2788 136.801C56.7967 137.793 54.5848 142.188 53.4675 144.952C53.2443 145.729 53.1181 146.531 53.0916 147.34C52.7684 149.678 53.5716 150.408 54.7091 151.055C55.8466 151.702 62.7136 153.956 63.4336 153.142C64.1535 152.328 63.4336 151.055 63.4336 151.055C63.4336 151.055 65.4581 151.535 66.3452 150.408C66.5937 150.117 66.7303 149.747 66.7303 149.364C66.7303 148.982 66.5937 148.612 66.3452 148.321C66.3452 148.321 71.9285 150.742 73.2956 150.178C74.6626 149.614 74.2243 148.258 73.4939 147.695C72.8361 147.16 72.2058 146.592 71.6053 145.993C71.8453 146.212 75.404 146.129 74.8304 144.678C74.2567 143.227 64.6556 137.167 64.6556 137.167C64.6556 137.167 65.6467 135.08 66.3361 133.065C67.3156 130.278 67.0768 129.861 66.2001 128.89C65.7514 128.389 64.6035 128.577 63.5805 132.021C63.1617 132.993 62.5005 133.841 61.6601 134.485V134.485Z" fill="#B78876"/>
<path d="M59.3956 136.613C59.3286 136.545 59.2465 136.493 59.1559 136.462C59.0653 136.432 58.9687 136.422 58.874 136.436C58.6179 136.462 58.371 136.545 58.1508 136.679C57.9307 136.812 57.7428 136.993 57.6006 137.208C57.2143 137.74 57.0582 138.471 56.651 139.065C56.4132 139.37 56.1277 139.634 55.8056 139.847C55.4106 140.11 55.0877 140.468 54.8665 140.888C54.6938 141.247 54.5999 141.638 54.5909 142.036C54.5819 142.433 54.6581 142.828 54.8144 143.194L54.9712 142.86C54.361 143.119 53.8723 143.601 53.6041 144.207C53.3787 144.64 53.2204 145.104 53.1346 145.584C52.9883 146.388 53.1346 146.87 53.2178 146.847C53.3011 146.825 53.2178 146.388 53.437 145.647C53.5656 145.217 53.7442 144.804 53.969 144.416C54.2157 143.947 54.6179 143.579 55.1065 143.375L55.3777 143.292L55.273 143.031C55.1542 142.73 55.0994 142.407 55.1119 142.084C55.1244 141.761 55.2041 141.443 55.3459 141.153C55.6587 140.391 56.5568 140.112 57.06 139.326C57.5632 138.541 57.6233 137.876 57.9171 137.416C58.1334 137.034 58.4885 136.749 58.9089 136.62C59.1972 136.571 59.3748 136.655 59.3956 136.613Z" fill="#AA6550"/>
<path d="M57.7461 147.686C57.7461 147.832 59.1444 148.354 60.7098 149.345C62.2752 150.336 63.4035 151.37 63.5173 151.255C62.8426 150.305 61.9842 149.5 60.993 148.886C60.0017 148.273 58.8977 147.865 57.7461 147.686V147.686Z" fill="#AA6550"/>
<path d="M61.0967 144.336C62.7108 145.914 64.5634 147.227 66.5863 148.229C65.8408 147.376 64.9676 146.643 63.9979 146.058C63.1284 145.333 62.1491 144.752 61.0967 144.336Z" fill="#AA6550"/>
<path d="M63.7471 140.934C65.0168 141.909 66.3524 142.794 67.7442 143.585C69.0359 144.524 70.3963 145.365 71.8141 146.1C69.4791 143.866 66.7418 142.096 63.7471 140.882V140.934Z" fill="#AA6550"/>
<path d="M66.9301 148.375C67.1742 148.58 67.4489 148.745 67.7443 148.864C68.5245 149.256 69.3259 149.603 70.1448 149.905C70.7129 150.163 71.3086 150.356 71.9202 150.479C72.2905 150.579 72.6782 150.595 73.0555 150.526C73.4327 150.458 73.79 150.306 74.1015 150.083C74.2633 149.957 74.4135 149.818 74.5502 149.665C74.6524 149.56 74.7183 149.424 74.7382 149.279C74.7675 149.152 74.7675 149.02 74.7382 148.893C74.5632 148.512 74.3309 148.161 74.0494 147.852C73.5003 147.187 72.9002 146.566 72.2545 145.994L71.9937 146.443C72.6629 146.714 73.4115 146.714 74.0807 146.443C74.5644 146.206 74.9374 145.791 75.1214 145.285V145.358C75.1673 145.272 75.1956 145.178 75.2045 145.081C75.2134 144.985 75.2029 144.887 75.1734 144.795C75.1283 144.668 75.065 144.548 74.9855 144.439C74.8527 144.239 74.7026 144.05 74.5368 143.876C74.2239 143.553 73.8897 143.25 73.5664 142.968C72.9089 142.417 72.241 141.928 71.6147 141.465C70.3413 140.547 69.1726 139.785 68.1919 139.149C67.2111 138.513 66.3969 138.042 65.833 137.719C65.5522 137.535 65.251 137.385 64.9355 137.271C65.1724 137.51 65.44 137.717 65.7314 137.886L67.9966 139.452C68.9565 140.12 70.0836 140.913 71.3361 141.839C71.952 142.309 72.5991 142.81 73.234 143.353C73.5468 143.634 73.8707 143.927 74.1523 144.229C74.2995 144.38 74.4323 144.544 74.549 144.719C74.6275 144.814 74.675 144.931 74.6849 145.053V145.126C74.5473 145.485 74.2841 145.782 73.9441 145.961C73.412 146.175 72.8178 146.175 72.2857 145.961L71.1274 145.594L72.0249 146.408C72.6537 146.958 73.2431 147.551 73.7887 148.184C74.0363 148.461 74.2401 148.774 74.3929 149.112C74.4097 149.174 74.4097 149.239 74.3929 149.3L74.3317 149.404C74.2174 149.54 74.0921 149.666 73.957 149.78C73.6961 149.967 73.3979 150.096 73.0827 150.157C72.7675 150.219 72.4428 150.211 72.1308 150.135C71.5415 150.032 70.9644 149.868 70.4086 149.646C69.3679 149.27 68.5402 148.946 67.9666 148.717C67.636 148.562 67.2881 148.447 66.9301 148.375Z" fill="#AA6550"/>
<path d="M82.667 149.564C82.667 149.732 82.907 150.013 83.5541 150.243C84.4834 150.527 85.4668 150.588 86.4241 150.42C87.899 150.168 89.2693 149.494 90.3692 148.479C91.7294 147.178 92.5965 145.446 92.823 143.577C93.0495 141.708 92.6213 139.819 91.6113 138.231C90.7825 136.987 89.6119 136.009 88.2405 135.415C87.3535 135.016 86.3825 134.84 85.4121 134.903C84.7338 134.965 84.3714 135.175 84.3714 135.342C84.3714 135.738 85.7384 135.926 87.335 137.064C88.2381 137.699 88.9813 138.535 89.5059 139.506C90.1043 140.662 90.3406 141.971 90.1843 143.263C90.0279 144.554 89.486 145.769 88.6292 146.749C87.8848 147.565 86.9634 148.201 85.9356 148.606C84.1284 149.324 82.7503 149.179 82.667 149.564Z" fill="#455A64"/>
<path d="M47.1645 125.833C46.8489 125.435 46.4246 125.137 45.9431 124.976C44.7796 124.558 43.5041 124.577 42.3532 125.028C41.2301 125.481 40.2318 126.197 39.4415 127.115C38.8361 127.803 38.5545 128.294 38.6169 128.336C38.6794 128.378 39.0552 127.981 39.6576 127.387C40.48 126.596 41.4428 125.966 42.4964 125.529C43.5455 125.125 44.6939 125.056 45.784 125.331C46.6637 125.551 47.1124 125.917 47.1645 125.833Z" fill="#AA6550"/>
<path d="M66.7324 131.959C67.5655 132.402 68.4584 132.722 69.3832 132.909C71.5877 133.468 73.8643 133.689 76.1353 133.566C78.4062 133.442 80.6447 132.97 82.7728 132.168C83.666 131.872 84.5154 131.458 85.2981 130.936C85.2369 130.748 81.3537 132.773 76.104 133.023C70.8544 133.274 66.7741 131.761 66.7324 131.959Z" fill="#263238"/>
<path d="M106.327 111.087C106.181 109.552 106.995 94.1176 106.995 94.1176L117.171 92.1586L118.61 65.6404L130.299 66.3916C130.299 66.3916 135.047 116.735 128.984 124.834C123.338 132.401 115.01 128.038 115.01 128.038C115.01 128.038 107.485 123.443 106.327 111.087Z" fill="#B78876"/>
<path d="M118.829 66.9727C118.829 66.9727 116.585 64.1131 116.742 61.5981C116.899 59.0832 121.126 45.2027 121.126 45.2027C121.126 45.2027 123.067 45.3907 123.213 48.3335C123.18 50.6338 123.013 52.9302 122.712 55.211L128.973 45.7347C130.372 43.6477 132.616 40.5169 133.878 40.8922C135.141 41.2675 132.522 45.4739 131.791 47.4458C131.061 49.4177 129.913 52.1837 129.913 52.1837C129.913 52.1837 135.621 43.9287 137.792 42.1233C139.367 40.7979 140.766 42.9896 139.295 44.8366C139.295 44.8366 141.56 43.6367 141.298 45.6612C141.037 47.6858 135.287 55.743 135.903 56.0981C136.519 56.4532 141.569 50.1181 142.853 50.2209C143.584 50.2822 143.699 51.3792 142.486 53.0371C141.273 54.6949 132.05 67.1177 130.432 68.5032C129.665 69.2575 128.68 69.7503 127.616 69.9112L118.829 66.9727Z" fill="#B78876"/>
<path d="M129.891 61.6507C129.351 61.4196 128.764 61.3195 128.177 61.3587C126.75 61.3148 125.328 61.5671 124.003 62.0994L124.358 62.3498V62.1723C124.388 60.7196 124.155 59.2734 123.669 57.904C123.514 57.3219 123.241 56.7783 122.865 56.3074C123.46 58.2041 123.787 60.1747 123.836 62.1619V62.7361L124.203 62.5794C126.03 61.9403 127.956 61.626 129.891 61.6507V61.6507Z" fill="#AA6550"/>
<path d="M139.44 44.5144C137.98 46.0427 136.637 47.6789 135.422 49.409C134.063 51.0432 132.926 52.8505 132.041 54.7835C132.156 54.8564 133.722 52.5086 135.84 49.7218C137.189 48.0943 138.394 46.3518 139.44 44.5144V44.5144Z" fill="#AA6550"/>
<path d="M126.98 68.7993C126.98 68.653 125.592 68.6848 123.964 68.361C122.335 68.0371 121.062 67.4843 121 67.6202C121.85 68.2415 122.826 68.669 123.859 68.8727C124.892 69.0764 125.958 69.0514 126.98 68.7993Z" fill="#AA6550"/>
<path d="M116.492 121.334C116.553 121.334 116.252 120.614 115.918 119.247C115.465 117.357 115.23 115.42 115.219 113.476C115.083 108.54 116.586 101.809 117.15 94.2633C117.714 86.7179 118.142 79.8924 118.435 74.9562C118.571 72.5349 118.686 70.552 118.759 69.1017C118.759 68.4546 118.82 67.933 118.842 67.5051C118.861 67.3219 118.861 67.1373 118.842 66.9541C118.784 67.1293 118.753 67.3121 118.748 67.4965C118.696 67.9251 118.644 68.446 118.571 69.0827C118.435 70.4602 118.268 72.4639 118.081 74.9268C117.695 79.863 117.299 86.6989 116.641 94.2235C115.984 101.748 114.637 108.479 114.866 113.489C114.905 115.457 115.196 117.411 115.732 119.305C115.878 119.82 116.055 120.325 116.264 120.818C116.318 120.999 116.395 121.173 116.492 121.334Z" fill="#AA6550"/>
<path d="M107.883 23.4241C108.524 22.677 108.943 21.7662 109.093 20.794C109.244 19.8218 109.12 18.8269 108.736 17.9212C108.352 17.0155 107.722 16.235 106.919 15.6676C106.115 15.1002 105.169 14.7683 104.187 14.7093C104.49 13.7942 104.556 12.8168 104.376 11.8694C104.197 10.9221 103.78 10.036 103.163 9.29473C102.547 8.55348 101.752 7.98151 100.853 7.63281C99.9538 7.2841 98.9809 7.17014 98.0258 7.30169C97.9623 6.33469 97.6679 5.397 97.1674 4.56717C96.6669 3.73733 95.9749 3.03952 95.1492 2.53219C94.3235 2.02487 93.3883 1.72281 92.4218 1.6513C91.4554 1.5798 90.4859 1.74094 89.5946 2.12123C89.0208 1.42807 88.2947 0.876713 87.473 0.51011C86.6512 0.143506 85.756 -0.0284485 84.8569 0.00763153C83.9578 0.0437115 83.0791 0.286855 82.2894 0.718126C81.4996 1.1494 80.8201 1.75715 80.3037 2.49406C79.2982 2.65739 78.3407 3.03918 77.4986 3.61255C76.5708 3.45027 75.6153 3.59244 74.7749 4.01783C73.7409 4.58797 72.7959 5.30634 71.9698 6.15014C70.5673 7.46331 69.0925 8.86587 68.5972 10.7227C68.0376 12.7901 68.7753 15.1569 67.7297 17.0284C67.2202 17.6991 66.7696 18.4125 66.3828 19.1607C65.8557 20.6685 66.8775 22.2896 66.7557 23.8869C66.6338 25.4841 65.2313 27.0403 65.4021 28.7508C65.5218 29.3523 65.7643 29.9227 66.1144 30.4262C66.4646 30.9297 66.9148 31.3556 67.437 31.6772C68.4828 32.3162 69.4583 33.0635 70.3475 33.9068C70.9958 34.6445 71.4097 35.5279 72.05 36.2981C72.9887 37.3266 74.2836 37.9592 75.6719 38.0676C77.0601 38.1759 78.4375 37.7519 79.5244 36.8815C80.2679 37.4458 81.1357 37.8242 82.0552 37.985C82.9746 38.1458 83.9192 38.0844 84.8102 37.8059C86.5879 37.2377 88.2609 36.3832 89.7635 35.2763C90.0996 35.7304 90.544 36.0932 91.056 36.3319C91.5681 36.5706 92.1317 36.6774 92.6956 36.6428C93.2595 36.6082 93.8058 36.4332 94.2849 36.1337C94.7639 35.8342 95.1605 35.4197 95.4386 34.928C95.695 35.5219 96.1415 36.0139 96.7078 36.3265C97.2742 36.6391 97.9284 36.7546 98.5676 36.655C99.8436 36.4314 101.052 35.9213 102.102 35.1631C104.161 33.8903 106.472 32.2202 106.521 29.7965C106.521 28.3131 105.71 26.7808 106.269 25.4107C106.698 24.667 107.243 23.9964 107.883 23.4241V23.4241Z" fill="#263238"/>
<path d="M90.9808 20.1568C89.2948 14.9929 81.731 7.88272 76.3155 8.29657L67.7061 13.5578C67.9963 15.0273 68.6762 16.3918 69.6744 17.5085C70.6727 18.6253 71.9527 19.4532 73.3806 19.9058C74.9111 20.368 76.7611 20.4813 77.677 21.7865C78.5929 23.0917 78.0903 25.0862 78.9663 26.4723C80.1821 28.3854 83.4574 28.2722 84.3733 30.3396C84.7706 31.2475 84.5759 32.3341 84.9892 33.2334C85.5402 34.4254 88.5969 35.9333 89.8531 35.5194C91.1094 35.1056 91.1014 32.9739 91.4749 31.8462C91.9855 30.5776 92.0398 29.1711 91.6285 27.8669C91.1026 25.3372 91.7834 22.6295 90.9808 20.1568Z" fill="#263238"/>
<path d="M94.3453 16.298L93.6804 19.1515C93.7096 17.1156 93.1946 15.1088 92.1885 13.3386C90.0237 10.094 85.2651 7.86677 81.5116 6.78807C77.7582 5.70937 73.1453 6.36626 69.5124 7.81779C66.2436 9.04948 63.433 11.2572 61.462 14.1412C58.7071 17.8702 58.0655 23.4884 59.7674 24.4875C61.1143 20.6202 63.2453 16.186 66.6241 13.8676C68.2989 12.677 70.2141 11.8677 72.2352 11.4965C74.2563 11.1254 76.3342 11.2015 78.3227 11.7194C82.7006 13.0087 86.0322 16.7131 87.9698 20.8412C88.9145 22.9559 89.6504 25.1579 90.167 27.4156C90.7968 30.0672 90.7773 32.8317 90.11 35.4741L87.9208 43.1352L87.8724 45.6238C93.1986 43.6537 96.4898 38.1004 97.3738 32.4908C98.2578 26.8812 97.6285 21.4461 94.3453 16.298Z" fill="#FFC100"/>
<path d="M89.8625 33.3307C89.8221 33.3307 90.0082 32.8685 90.146 32.0255C90.3228 30.8336 90.2287 29.6172 89.8705 28.4667C89.3612 26.7585 88.2681 25.2836 86.7819 24.2994C85.8695 23.7656 84.9214 23.2951 83.9443 22.8914C82.8564 22.4466 81.8734 21.7793 81.0584 20.9323C80.3638 19.9968 79.7993 18.9714 79.3804 17.8842C78.7842 16.6049 77.8449 15.516 76.6668 14.7388C75.4887 13.9616 74.118 13.5264 72.7074 13.4818C71.5041 13.4556 70.3102 13.6993 69.2135 14.195C68.4029 14.5519 68.054 14.8434 68.0381 14.8109C68.1132 14.723 68.2006 14.6465 68.2977 14.5838C68.5653 14.3809 68.8503 14.2018 69.1492 14.0487C70.5264 13.3331 72.0879 13.0508 73.6284 13.2388C75.169 13.4268 76.6167 14.0765 77.7813 15.1023C78.6111 15.8241 79.2819 16.7103 79.7514 17.7048C80.1623 18.7542 80.7072 19.746 81.3725 20.6556C82.1522 21.4576 83.0873 22.0922 84.1207 22.5204C85.1107 22.9382 86.0698 23.426 86.9907 23.9799C88.2757 24.8588 89.2747 26.0952 89.864 27.5361C90.4533 28.9771 90.6072 30.5592 90.3064 32.0867C90.2363 32.4159 90.1386 32.7387 90.0144 33.0515C89.9763 33.1509 89.9252 33.2447 89.8625 33.3307V33.3307Z" fill="#455A64"/>
<path d="M89.0434 23.7239C88.8516 23.4328 88.6316 23.1613 88.3865 22.9134C87.6836 22.2951 86.8803 21.8015 86.0111 21.4539C85.476 21.2023 84.8682 20.9354 84.2517 20.5705C83.5684 20.1997 82.9758 19.682 82.5167 19.0547C81.5518 17.7078 81.2439 15.8933 79.9632 14.6468C78.7561 13.4664 77.1957 12.7138 75.5204 12.5041C74.1606 12.3476 72.7832 12.4605 71.467 12.8365C70.2434 13.2257 69.0465 13.6943 67.8838 14.2391C68.1512 14.0147 68.4452 13.8241 68.7592 13.6716C69.5926 13.2045 70.4729 12.8267 71.3856 12.5445C72.7492 12.1123 74.1877 11.9686 75.6098 12.1227C77.3809 12.3157 79.0349 13.1014 80.3035 14.3523C81.6896 15.7224 81.9896 17.597 82.8748 18.8275C83.7601 20.0581 85.1449 20.6354 86.1807 21.1864C87.0672 21.564 87.8692 22.1152 88.5395 22.8075C88.7172 22.9991 88.8672 23.2147 88.9852 23.4478C89.0189 23.6266 89.0599 23.7154 89.0434 23.7239Z" fill="#455A64"/>
<path d="M93.5585 41.4131C93.63 41.1953 93.725 40.9859 93.842 40.7887C94.0367 40.3755 94.3201 39.7755 94.6122 38.9729C95.43 36.696 95.831 34.2904 95.7961 31.8713C95.7628 30.2033 95.5892 28.541 95.277 26.9021C94.9621 25.0181 94.4735 23.1672 93.8175 21.3733C93.0808 19.3963 92.0474 17.5429 90.7528 15.8769C89.3523 14.101 87.6644 12.572 85.7591 11.3534C82.047 8.98276 77.6153 8.0033 73.2499 8.58864C71.3587 8.83401 69.5191 9.38134 67.8013 10.2098C66.3075 10.9379 64.9261 11.877 63.6995 12.9983C61.9174 14.6311 60.481 16.6048 59.4753 18.8026C59.1349 19.6132 58.9078 20.2107 58.7701 20.6429C58.7081 20.8636 58.6322 21.0801 58.543 21.2912C58.5694 21.0626 58.6182 20.837 58.6887 20.6178C58.8622 19.978 59.0761 19.3499 59.329 18.7371C60.9619 14.8938 63.911 11.7581 67.647 9.89263C69.3938 9.02995 71.2695 8.45759 73.2003 8.19806C77.6581 7.57077 82.1933 8.55997 85.985 10.9866C89.772 13.4008 92.6522 17.002 94.175 21.227C94.8347 23.047 95.3205 24.9255 95.626 26.8372C95.9243 28.4963 96.0816 30.1777 96.0961 31.8634C96.1108 34.3123 95.6595 36.7416 94.7664 39.0219C94.5288 39.6334 94.2582 40.2316 93.9559 40.8138C93.839 41.0235 93.7061 41.2238 93.5585 41.4131V41.4131Z" fill="#263238"/>
<path d="M59.9485 26.0209C60.3452 20.0305 64.9018 10.8634 71.1187 12.1111L77.2126 19.2628C85.459 21.2121 82.2639 28.2132 90.6107 28.2291L89.9734 65.6048C89.9406 66.354 89.7672 67.0905 89.4622 67.7757C88.0743 70.8232 83.4822 78.5774 73.4947 75.4355C71.0526 74.674 69.936 71.9913 69.4456 69.2468C69.4456 68.9235 69.3097 68.6309 69.3097 68.3181C69.0689 66.2703 69.0445 64.2029 69.2368 62.1501V57.0688C69.2368 57.1 61.5843 55.7746 60.022 45.7871C59.2494 40.8197 59.5732 32.6793 59.9485 26.0209Z" fill="#B78876"/>
<path d="M62.6097 33.2535C62.6017 33.5884 62.7269 33.9128 62.9578 34.1555C63.1888 34.3982 63.5066 34.5392 63.8415 34.5477V34.5477C64.0028 34.5605 64.1649 34.5413 64.3187 34.4913C64.4726 34.4413 64.6151 34.3615 64.738 34.2564C64.861 34.1514 64.962 34.0231 65.0354 33.879C65.1088 33.7348 65.1531 33.5776 65.1657 33.4164V33.3999C65.1682 33.0665 65.0412 32.7453 64.8114 32.5038C64.5816 32.2624 64.267 32.1196 63.934 32.1056C63.6115 32.0785 63.2914 32.18 63.0436 32.3881C62.7959 32.5962 62.6405 32.8939 62.6116 33.2162L62.6097 33.2535Z" fill="#263238"/>
<path d="M75.801 33.2535C75.7953 33.5877 75.9213 33.9108 76.1518 34.1529C76.3822 34.3951 76.6986 34.5369 77.0327 34.5477C77.3553 34.5753 77.6757 34.4739 77.9238 34.2657C78.1718 34.0576 78.3274 33.7597 78.3563 33.4372V33.3999C78.3588 33.0666 78.2319 32.7455 78.0022 32.504C77.7725 32.2626 77.4581 32.1198 77.1251 32.1056C76.8027 32.0785 76.4826 32.18 76.2349 32.3881C75.9871 32.5962 75.8317 32.8939 75.8028 33.2162L75.801 33.2535Z" fill="#263238"/>
<path d="M75.5086 30.7386C75.7174 30.8219 76.6981 30.1227 78.2531 29.8515C79.8081 29.5803 81.0607 29.8515 81.2064 29.6844C81.3521 29.5173 81.0497 29.4444 80.4969 29.3171C79.7091 29.1567 78.8971 29.1567 78.1093 29.3171C77.3382 29.4523 76.6029 29.7439 75.9488 30.1742C75.519 30.4674 75.4045 30.7074 75.5086 30.7386Z" fill="#263238"/>
<path d="M61.9417 29.8197C62.1192 29.9661 63.2671 29.611 64.8325 29.8197C66.3979 30.0285 67.5042 30.6964 67.6817 30.5924C67.8593 30.4883 67.6089 30.3211 67.1307 30.0181C66.4329 29.6182 65.6632 29.3595 64.8656 29.2565C64.0925 29.1375 63.3029 29.1838 62.549 29.3924C62.0464 29.5694 61.856 29.7573 61.9417 29.8197Z" fill="#263238"/>
<path d="M70.2386 40.7572C69.5097 40.5322 68.7564 40.3955 67.9949 40.3501C67.6398 40.3501 67.3062 40.2461 67.2541 40.0055C67.2233 39.642 67.3072 39.278 67.4941 38.9647C67.818 38.1076 68.1724 37.2218 68.5348 36.2827C69.5054 34.0158 70.2908 31.674 70.8832 29.2803C69.7392 31.4671 68.7658 33.739 67.9716 36.0757C67.6316 37.0144 67.2847 37.9123 66.9309 38.7694C66.7104 39.1966 66.644 39.6868 66.7429 40.1573C66.7965 40.2804 66.8768 40.3901 66.9779 40.4785C67.079 40.5669 67.1984 40.6318 67.3276 40.6685C67.5211 40.7237 67.7214 40.7517 67.9226 40.7517C68.6908 40.8589 69.47 40.8608 70.2386 40.7572V40.7572Z" fill="#263238"/>
<path d="M69.2471 57.0377C73.9484 57.1206 78.5803 55.8957 82.6262 53.4998C82.6262 53.4998 79.2554 60.3981 69.2575 59.4485L69.2471 57.0377Z" fill="#AA6550"/>
<path d="M70.8134 44.0773C71.0757 43.749 71.4177 43.4932 71.8068 43.3343C72.1958 43.1754 72.6191 43.1186 73.0363 43.1694C73.3399 43.1966 73.6349 43.2845 73.9038 43.428C74.1727 43.5714 74.41 43.7675 74.6017 44.0045C74.7865 44.2352 74.8956 44.5173 74.9142 44.8124C74.9328 45.1074 74.86 45.401 74.7057 45.6531C74.4842 45.8999 74.1938 46.0746 73.8719 46.1546C73.5501 46.2346 73.2117 46.2162 72.9004 46.1019C72.2495 45.8748 71.65 45.5211 71.1366 45.0611C70.9825 44.9519 70.8513 44.8136 70.7503 44.654C70.6998 44.5783 70.6729 44.4894 70.6729 44.3984C70.6729 44.3074 70.6998 44.2185 70.7503 44.1428" fill="#AA6550"/>
<path d="M74.2878 41.7171C74.0686 41.7171 74.0582 43.1993 72.7744 44.2633C71.4907 45.3273 69.9044 45.1504 69.8836 45.3041C69.8628 45.4577 70.2387 45.5961 70.9244 45.6169C71.8008 45.6284 72.6537 45.333 73.3352 44.7818C73.9782 44.2619 74.3966 43.5147 74.5039 42.6948C74.559 42.0826 74.3907 41.7098 74.2878 41.7171Z" fill="#263238"/>
<path d="M74.7459 27.2082C74.8818 27.5841 76.2592 27.4065 77.8767 27.6049C79.4941 27.8032 80.7987 28.2416 81.0075 27.9073C81.1012 27.7506 80.8716 27.3961 80.35 27.0306C79.6451 26.5871 78.8489 26.3089 78.0212 26.2167C77.1935 26.1246 76.3557 26.221 75.5705 26.4986C74.9969 26.7723 74.6944 27.0337 74.7459 27.2082Z" fill="#263238"/>
<path d="M62.2233 26.2715C62.4633 26.5844 63.4128 26.2715 64.5607 26.2715C65.7086 26.2715 66.6477 26.4803 66.8871 26.1571C66.9917 26.0003 66.835 25.6875 66.4175 25.3845C65.8517 25.0247 65.1896 24.8463 64.5197 24.8733C63.8493 24.8778 63.198 25.0974 62.6616 25.4996C62.2545 25.7916 62.1186 26.1136 62.2233 26.2715Z" fill="#263238"/>
</g>
<path d="M33.6672 25.2758L33.9352 24.8114C33.9761 24.7406 34.0435 24.6888 34.1225 24.6677C34.2015 24.6465 34.2857 24.6576 34.3566 24.6984C34.4274 24.7393 34.4791 24.8067 34.5003 24.8857C34.5215 24.9648 34.5104 25.049 34.4695 25.1198L34.2013 25.5842C34.1812 25.6195 34.1543 25.6506 34.1222 25.6755C34.09 25.7004 34.0533 25.7187 34.014 25.7294C33.9748 25.74 33.9338 25.7428 33.8935 25.7376C33.8531 25.7323 33.8142 25.7192 33.779 25.6988C33.7438 25.6785 33.7129 25.6514 33.6882 25.6191C33.6635 25.5868 33.6455 25.5499 33.6351 25.5106C33.6247 25.4713 33.6222 25.4303 33.6277 25.39C33.6332 25.3497 33.6466 25.3109 33.6672 25.2758V25.2758ZM46.0682 31.5201L39.5021 20.1472C39.3565 19.8949 39.147 19.6855 38.8947 19.5399C38.6425 19.3943 38.3564 19.3176 38.0651 19.3176C37.7739 19.3176 37.4878 19.3943 37.2355 19.5399C36.9833 19.6855 36.7738 19.8949 36.6282 20.1472L34.921 23.1041C34.9005 23.1392 34.887 23.178 34.8815 23.2183C34.876 23.2586 34.8785 23.2996 34.8889 23.3389C34.8993 23.3782 34.9174 23.4151 34.9421 23.4474C34.9668 23.4797 34.9977 23.5068 35.0329 23.5272C35.0681 23.5475 35.107 23.5607 35.1473 23.5659C35.1877 23.5711 35.2286 23.5684 35.2679 23.5577C35.3071 23.547 35.3439 23.5287 35.376 23.5038C35.4082 23.4789 35.4351 23.4479 35.4552 23.4125L37.1623 20.4556C37.2538 20.2971 37.3854 20.1655 37.5439 20.074C37.7024 19.9826 37.8822 19.9344 38.0651 19.9344C38.2481 19.9344 38.4279 19.9826 38.5864 20.074C38.7448 20.1655 38.8764 20.2971 38.968 20.4556L45.5341 31.8285C45.6255 31.987 45.6737 32.1667 45.6736 32.3497C45.6736 32.5327 45.6254 32.7124 45.534 32.8709C45.4425 33.0294 45.3109 33.1609 45.1524 33.2524C44.994 33.344 44.8142 33.3921 44.6312 33.3922H31.499C31.316 33.3921 31.1363 33.344 30.9778 33.2524C30.8194 33.1609 30.6878 33.0294 30.5963 32.8709C30.5048 32.7124 30.4566 32.5327 30.4566 32.3497C30.4566 32.1667 30.5047 31.987 30.5962 31.8285L33.1566 27.3937C33.1772 27.3586 33.1906 27.3198 33.1961 27.2795C33.2016 27.2392 33.1991 27.1982 33.1887 27.1589C33.1783 27.1196 33.1603 27.0827 33.1356 27.0504C33.1109 27.0181 33.08 26.991 33.0448 26.9706C33.0096 26.9503 32.9707 26.9371 32.9303 26.9319C32.89 26.9266 32.849 26.9294 32.8098 26.9401C32.7705 26.9507 32.7338 26.9691 32.7016 26.994C32.6695 27.0189 32.6426 27.0499 32.6225 27.0853L30.0621 31.5201C29.9165 31.7723 29.8398 32.0585 29.8398 32.3497C29.8399 32.641 29.9165 32.9271 30.0622 33.1793C30.2078 33.4315 30.4172 33.641 30.6695 33.7866C30.9217 33.9322 31.2078 34.0089 31.499 34.009H44.6312C44.9225 34.0089 45.2086 33.9322 45.4608 33.7866C45.713 33.641 45.9225 33.4315 46.0681 33.1793C46.2137 32.9271 46.2904 32.641 46.2904 32.3497C46.2904 32.0585 46.2138 31.7723 46.0682 31.5201V31.5201ZM37.9793 29.2945C37.6951 29.2942 37.4225 29.1811 37.2215 28.9801C37.0205 28.7791 36.9075 28.5066 36.9071 28.2223V24.5726C36.9075 24.2884 37.0205 24.0159 37.2215 23.8149C37.4225 23.6139 37.6951 23.5009 37.9793 23.5006H38.1503C38.4345 23.5009 38.707 23.6139 38.908 23.8149C39.109 24.0159 39.2221 24.2884 39.2224 24.5726V28.2223C39.2221 28.5066 39.109 28.7791 38.908 28.9801C38.707 29.1811 38.4345 29.2942 38.1503 29.2945H37.9793ZM37.9793 28.6777H38.1503C38.271 28.6776 38.3867 28.6295 38.4721 28.5442C38.5575 28.4588 38.6055 28.343 38.6056 28.2223V24.5726C38.6055 24.4519 38.5575 24.3362 38.4721 24.2508C38.3867 24.1655 38.271 24.1175 38.1503 24.1174H37.9793C37.8586 24.1175 37.7429 24.1655 37.6575 24.2508C37.5721 24.3362 37.5241 24.4519 37.5239 24.5726V28.2223C37.5241 28.3431 37.5721 28.4589 37.6576 28.5443C37.743 28.6297 37.8589 28.6776 37.9797 28.6777H37.9793ZM36.9075 31.0316C36.9076 30.8026 36.9756 30.5789 37.1028 30.3886C37.2301 30.1983 37.4109 30.05 37.6225 29.9624C37.834 29.8749 38.0668 29.852 38.2913 29.8968C38.5158 29.9415 38.7221 30.0518 38.8839 30.2137C39.0457 30.3756 39.156 30.5819 39.2006 30.8065C39.2452 31.031 39.2222 31.2637 39.1346 31.4752C39.047 31.6867 38.8986 31.8675 38.7082 31.9947C38.5179 32.1219 38.2941 32.1898 38.0651 32.1898C37.7581 32.1894 37.4638 32.0672 37.2468 31.8501C37.0297 31.633 36.9077 31.3386 36.9075 31.0316V31.0316ZM37.5243 31.0316C37.5243 31.1386 37.556 31.2431 37.6154 31.3321C37.6749 31.421 37.7593 31.4903 37.8582 31.5313C37.957 31.5722 38.0657 31.5829 38.1706 31.562C38.2756 31.5412 38.3719 31.4897 38.4476 31.414C38.5232 31.3384 38.5747 31.242 38.5956 31.1371C38.6165 31.0322 38.6057 30.9234 38.5648 30.8246C38.5239 30.7258 38.4546 30.6413 38.3656 30.5819C38.2767 30.5225 38.1721 30.4907 38.0651 30.4907C37.9217 30.4909 37.7843 30.5479 37.6829 30.6493C37.5815 30.7507 37.5244 30.8882 37.5243 31.0316V31.0316Z" fill="url(#paint0_linear)"/>
<defs>
<linearGradient id="paint0_linear" x1="43.7242" y1="35.6054" x2="32.4061" y2="24.2873" gradientUnits="userSpaceOnUse">
<stop stop-color="#FF6136"/>
<stop offset="1" stop-color="#FFB400"/>
</linearGradient>
<clipPath id="clip0">
<rect width="166.924" height="180" fill="white"/>
</clipPath>
</defs>
</svg>
