<svg width="180" height="180" viewBox="0 0 180 180" fill="none" xmlns="http://www.w3.org/2000/svg">
<path d="M63.5644 67.4555L61.7958 60.9051C64.5316 56.4635 65.507 51.1592 64.5305 46.0348C63.5539 40.9105 60.6959 36.3367 56.5183 33.2126C52.3407 30.0884 47.1456 28.6399 41.9542 29.1516C36.7628 29.6634 31.9506 32.0984 28.4634 35.9782C24.9762 39.8579 23.0663 44.9017 23.1091 50.1181C23.1519 55.3345 25.1443 60.3462 28.6947 64.1682C32.2451 67.9901 37.0967 70.3459 42.2958 70.7724C47.4949 71.1989 52.6655 69.6653 56.7913 66.473V66.473L63.5644 67.4555Z" fill="white"/>
<path d="M25.7435 40.3234L25.2064 41.4435C25.1213 41.6334 25.0164 41.8169 24.9444 42.0068L24.7282 42.5833L24.309 43.7689C24.1845 44.1553 24.0994 44.5549 23.9946 44.9479C23.2066 48.0334 23.1416 51.2592 23.8046 54.374C24.4448 57.3024 25.7069 60.0591 27.5056 62.4571C30.7114 66.7338 35.449 69.6026 40.7243 70.4617C41.8595 70.6454 43.0068 70.7439 44.1567 70.7565C45.2318 70.7543 46.3051 70.6667 47.3664 70.4945C50.7815 69.9447 54.0068 68.556 56.7531 66.4529C56.7664 66.4405 56.784 66.4335 56.8022 66.4335C56.8205 66.4335 56.838 66.4405 56.8513 66.4529C56.8595 66.4656 56.8639 66.4804 56.8639 66.4955C56.8639 66.5106 56.8595 66.5253 56.8513 66.538V66.538L56.8055 66.4267L61.8166 67.1865L63.1266 67.3896L63.5786 67.4616L63.1528 67.4158L61.8427 67.2455L56.7662 66.5904C56.7569 66.5897 56.7479 66.587 56.7398 66.5825C56.7316 66.578 56.7246 66.5719 56.719 66.5644C56.7134 66.557 56.7095 66.5485 56.7075 66.5394C56.7054 66.5303 56.7054 66.5209 56.7072 66.5118L56.8055 66.6035C54.0553 68.7531 50.8099 70.1787 47.3664 70.7499C46.2945 70.927 45.2103 71.019 44.1239 71.0251C42.9612 71.0201 41.8006 70.9259 40.6522 70.7434C35.3034 69.8991 30.4938 67.0044 27.2436 62.6733C25.3436 60.1763 24.0337 57.2814 23.412 54.206C22.7904 51.1305 22.8731 47.9542 23.654 44.9152C23.7588 44.5156 23.8505 44.1095 23.9749 43.7165C24.0994 43.3234 24.2566 42.937 24.4007 42.544L24.6169 41.9544C24.6955 41.7645 24.7937 41.5745 24.8854 41.3845L25.4291 40.2513C25.6125 39.8714 25.8615 39.5242 26.0842 39.1574C26.2812 38.7868 26.5 38.4281 26.7392 38.0831C27.2274 37.3806 27.7613 36.711 28.3375 36.0787C28.6257 35.7643 28.9074 35.4237 29.2087 35.1289L30.2044 34.1922L30.6825 33.7664L31.1935 33.3865L32.2153 32.6332C36.3172 29.8657 41.2565 28.617 46.1808 29.1025C50.3864 29.5417 54.3618 31.2387 57.5882 33.972C60.8146 36.7052 63.1419 40.3477 64.2664 44.4239C64.3385 44.7121 64.4171 45.0069 64.4891 45.2886C64.57 45.5719 64.6291 45.8609 64.666 46.1532C64.7511 46.7297 64.8363 47.293 64.9149 47.8498C65.0021 48.9392 65.024 50.0329 64.9804 51.125C64.7897 54.6085 63.7241 57.9878 61.882 60.9506V60.8982C62.4388 63.0336 62.8712 64.6777 63.1921 65.7978C63.3297 66.3415 63.4345 66.7542 63.5131 67.0424C63.5917 67.3306 63.6114 67.4551 63.6114 67.4551L63.4803 67.0228C63.4017 66.7258 63.2838 66.3066 63.1266 65.7651L61.7773 60.9309C61.7707 60.9141 61.7707 60.8954 61.7773 60.8785C63.5769 57.9264 64.6104 54.5714 64.7839 51.1184C64.8222 50.0435 64.796 48.9673 64.7053 47.8956C64.6201 47.3454 64.535 46.7821 64.4498 46.2122C64.4107 45.924 64.3493 45.6393 64.2664 45.3606C64.1943 45.079 64.1223 44.7973 64.0437 44.5091C63.3765 42.0757 62.2662 39.7862 60.7685 37.7556C57.585 33.4498 52.8616 30.5399 47.5841 29.633C42.3066 28.7262 36.8828 29.8925 32.4446 32.8887L31.4424 33.6354L30.938 34.0153L30.4664 34.4346L29.5297 35.2861C29.2349 35.5809 28.9598 35.9412 28.6716 36.2163C28.1057 36.8385 27.5785 37.4947 27.0929 38.1814" fill="#263238"/>
<path d="M51.0413 41.7191L43.6474 38.9946L36.3266 41.6826C35.3907 42.1353 34.5725 42.4053 34.5725 43.3067V47.7467C34.5559 50.8624 35.3898 53.9236 36.9844 56.6003C38.5536 59.272 40.9048 61.3978 43.7205 62.6908C46.713 61.694 48.9462 59.0365 50.3125 56.7607C51.9057 54.0848 52.7395 51.0254 52.7243 47.9112V43.9198C52.7243 42.6469 52.0665 42.0257 51.0413 41.7191Z" fill="#66429C"/>
<g opacity="0.8">
<path opacity="0.8" d="M51.0413 41.7191L43.6474 38.9946L36.3266 41.6826C35.3907 42.1353 34.5725 42.4053 34.5725 43.3067V47.7467C34.5559 50.8624 35.3898 53.9236 36.9844 56.6003C38.5536 59.272 40.9048 61.3978 43.7205 62.6908C46.713 61.694 48.9462 59.0365 50.3125 56.7607C51.9057 54.0848 52.7395 51.0254 52.7243 47.9112V43.9198C52.7243 42.6469 52.0665 42.0257 51.0413 41.7191Z" fill="white"/>
</g>
<path d="M49.5779 43.5238L43.6457 41.3394L37.7724 43.4934C37.0212 43.8568 36.3635 44.074 36.3635 44.7907V48.3597C36.3502 50.8604 37.0199 53.3172 38.3003 55.4653C39.5572 57.6129 41.4438 59.3224 43.7046 60.3621C46.1043 59.5622 47.8969 57.4285 48.9932 55.6054C50.272 53.4568 50.9409 51.0002 50.928 48.4998V45.2901C50.928 44.2689 50.4001 43.7695 49.5779 43.5238Z" fill="#66429C"/>
<path d="M48.1368 49.6554H44.6489V46.1655H42.6451V49.6554H39.1553V51.6592H42.6451V55.147H44.6489V51.6592H48.1368V49.6554Z" fill="white"/>
<path d="M54.6563 59.8184C54.6563 59.8184 54.6887 59.7697 54.7578 59.6783L54.8166 59.6032C54.8369 59.5728 54.8532 59.5383 54.8755 59.5017C54.9276 59.4187 54.9718 59.3311 55.0075 59.2398C55.0278 59.187 55.0521 59.1343 55.0724 59.0754C55.0927 59.0165 55.107 58.9515 55.1252 58.8866C55.1445 58.8201 55.1587 58.7522 55.1679 58.6836C55.1832 58.6064 55.194 58.5285 55.2003 58.4501C55.2312 58.0766 55.2142 57.7006 55.1496 57.3315C54.9568 56.3159 54.609 55.336 54.1183 54.4263C53.4871 53.217 52.7478 52.0672 51.9094 50.9912C50.9001 49.6823 49.7997 48.4463 48.6165 47.2922C47.2638 45.9642 45.8195 44.7329 44.2942 43.6075C43.4822 43.0126 42.6356 42.4381 41.7382 41.896C40.8243 41.3386 39.8748 40.8415 38.896 40.4079C37.8888 39.9464 36.8274 39.6135 35.737 39.4172C35.1807 39.3184 34.6125 39.3047 34.052 39.3766C33.7718 39.4175 33.4986 39.4968 33.2399 39.6121C32.9798 39.7289 32.7472 39.8992 32.5573 40.1118C32.3673 40.3245 32.2243 40.5748 32.1375 40.8464C32.0529 41.1169 32.0051 41.3976 31.9954 41.6808C31.9882 42.2464 32.067 42.8097 32.2289 43.3517C32.5475 44.4129 32.9984 45.4299 33.5708 46.3787C34.1144 47.3001 34.7166 48.1857 35.3736 49.0301C36.0152 49.8604 36.6831 50.64 37.3652 51.3749C38.6614 52.7615 40.0535 54.0552 41.5312 55.2465C42.816 56.2883 44.1729 57.238 45.5915 58.0887C46.7527 58.7988 47.9758 59.4022 49.2458 59.8915C50.2027 60.2742 51.2126 60.5077 52.2403 60.5838C52.615 60.6065 52.991 60.5806 53.359 60.5067C53.4359 60.4925 53.5118 60.4735 53.5863 60.4498C53.6559 60.4328 53.7239 60.4097 53.7894 60.3808L53.9721 60.3077C54.0269 60.2813 54.0776 60.2509 54.1264 60.2245C54.2137 60.1798 54.296 60.126 54.372 60.0641C54.4065 60.0397 54.439 60.0174 54.4654 59.995L54.5344 59.9281C54.6177 59.8489 54.6623 59.8103 54.6623 59.8103L54.5405 59.9321L54.4715 60.0011C54.4451 60.0235 54.4126 60.0458 54.3781 60.0722C54.2982 60.1421 54.211 60.2033 54.1183 60.2549L53.964 60.3402L53.7812 60.4153C53.7156 60.4439 53.6477 60.467 53.5782 60.4843C53.5028 60.5085 53.4263 60.5288 53.3488 60.5452C52.9796 60.6204 52.6024 60.6483 52.2261 60.6285C51.1947 60.556 50.1806 60.3252 49.2194 59.9443C47.9427 59.458 46.7127 58.8566 45.5448 58.1476C44.1266 57.2963 42.7698 56.3466 41.4845 55.3053C40.0049 54.1126 38.6114 52.8169 37.3145 51.4277C36.6324 50.6908 35.9624 49.9112 35.3188 49.0788C34.6588 48.2331 34.0546 47.3454 33.5099 46.4213C32.9344 45.4666 32.4808 44.4436 32.1599 43.376C31.9966 42.8281 31.9179 42.2586 31.9264 41.6869C31.9359 41.3968 31.9844 41.1094 32.0705 40.8322C32.1673 40.5551 32.3146 40.2983 32.505 40.075C32.7038 39.8564 32.9422 39.6773 33.2074 39.5471C33.4722 39.4299 33.7515 39.3487 34.0378 39.3055C34.6051 39.2332 35.1801 39.2476 35.7431 39.3482C36.8389 39.5461 37.9055 39.8803 38.9183 40.3429C39.897 40.7792 40.8464 41.2783 41.7606 41.8372C42.6599 42.3812 43.5126 42.9578 44.3206 43.5527C45.8514 44.6857 47.3005 45.9252 48.6571 47.2618C49.8396 48.4203 50.9392 49.6604 51.948 50.9729C52.7869 52.0536 53.5249 53.2088 54.1528 54.4242C54.6389 55.3359 54.9813 56.3173 55.1679 57.3335C55.2313 57.7049 55.247 58.0828 55.2145 58.4582C55.2145 58.5414 55.1902 58.6186 55.18 58.6917C55.1699 58.7636 55.1549 58.8349 55.1354 58.9048C55.1151 58.9698 55.0968 59.0348 55.0806 59.0937C55.0643 59.1525 55.0339 59.2073 55.0136 59.2581C54.9761 59.3499 54.9306 59.4383 54.8775 59.522C54.8552 59.5586 54.8369 59.5931 54.8187 59.6215L54.7578 59.6966L54.6563 59.8184Z" fill="#66429C"/>
<path d="M58.7427 49.952C58.7427 49.952 58.7427 49.8931 58.7264 49.7794C58.7264 49.751 58.7264 49.7185 58.7264 49.684C58.7264 49.6495 58.7102 49.6109 58.7021 49.5703C58.6852 49.4734 58.6594 49.3783 58.6249 49.2861C58.6066 49.2354 58.5884 49.1785 58.564 49.1196L58.4787 48.945C58.4476 48.8798 58.4109 48.8173 58.3691 48.7583C58.3304 48.6878 58.287 48.6199 58.2392 48.5552C58.0147 48.2514 57.7512 47.9783 57.4555 47.7432C56.638 47.1157 55.7286 46.6179 54.7595 46.2672C53.4836 45.7847 52.1668 45.4185 50.825 45.173C49.1975 44.8746 47.551 44.6907 45.8977 44.6228C44.0024 44.5302 42.1028 44.5716 40.2133 44.7466C39.2144 44.8421 38.1973 44.9801 37.168 45.173C36.1156 45.3648 35.0766 45.6245 34.0578 45.9505C32.9999 46.278 31.9872 46.7363 31.043 47.3148C30.5609 47.6105 30.1268 47.9782 29.7558 48.405C29.5738 48.6231 29.4222 48.8649 29.3051 49.1237C29.189 49.384 29.1289 49.6659 29.1289 49.951C29.1289 50.2361 29.189 50.518 29.3051 50.7783C29.4222 51.0371 29.5738 51.2789 29.7558 51.497C30.1267 51.9237 30.56 52.292 31.0409 52.5892C31.9852 53.171 32.9987 53.632 34.0578 53.9616C35.0768 54.2876 36.1157 54.548 37.168 54.7412C38.1993 54.9442 39.2164 55.0701 40.2133 55.1655C42.1028 55.3405 44.0024 55.3818 45.8977 55.2893C47.5488 55.2161 49.1926 55.0262 50.8169 54.7209C52.159 54.475 53.4764 54.1095 54.7534 53.6287C55.7235 53.2722 56.6329 52.7682 57.4494 52.1344C57.7452 51.8993 58.0086 51.6263 58.2331 51.3224C58.2808 51.2572 58.3248 51.1894 58.3651 51.1194C58.4054 51.0598 58.4414 50.9974 58.4727 50.9326L58.56 50.758C58.5823 50.6991 58.6006 50.6443 58.6188 50.5915C58.6533 50.4994 58.6791 50.4042 58.696 50.3073C58.696 50.2667 58.7142 50.2281 58.7203 50.1936C58.7264 50.1591 58.7203 50.1266 58.7203 50.0982C58.7305 49.9845 58.7366 49.9256 58.7366 49.9256C58.7366 49.9256 58.7366 49.9845 58.7366 50.0982V50.1956C58.7366 50.2301 58.7224 50.2687 58.7142 50.3093C58.6992 50.4071 58.6741 50.503 58.6391 50.5956C58.6209 50.6484 58.6046 50.7052 58.5803 50.7641C58.5559 50.823 58.5254 50.8798 58.495 50.9407C58.4642 51.0064 58.4282 51.0695 58.3874 51.1295C58.3478 51.1995 58.3045 51.2673 58.2575 51.3325C58.0323 51.6358 57.7689 51.9087 57.4738 52.1446C56.6566 52.7778 55.7465 53.2811 54.7757 53.6368C53.4988 54.1229 52.1806 54.4925 50.8372 54.7412C49.2104 55.0493 47.5639 55.242 45.9099 55.3178C44.0147 55.4121 42.1151 55.3727 40.2254 55.2C39.2266 55.1066 38.2054 54.9686 37.1802 54.7757C36.1248 54.5842 35.0831 54.3238 34.0618 53.9961C32.9974 53.668 31.9784 53.2076 31.0287 52.6257C30.542 52.3259 30.1038 51.9534 29.7294 51.5213C29.5436 51.2981 29.3886 51.0509 29.2686 50.7864C29.1557 50.5152 29.0944 50.2254 29.0879 49.9317C29.0943 49.6385 29.1563 49.3491 29.2706 49.079C29.3899 48.8141 29.5449 48.5668 29.7315 48.3441C30.1005 47.9223 30.5302 47.5576 31.0064 47.262C31.9556 46.6805 32.9739 46.2202 34.0375 45.8917C35.0589 45.5638 36.1005 45.3027 37.1558 45.11C38.1892 44.907 39.2103 44.7811 40.2011 44.6857C42.0908 44.513 43.9903 44.4737 45.8856 44.568C47.539 44.6433 49.1849 44.8367 50.8108 45.1466C52.1605 45.392 53.4849 45.7603 54.7676 46.2469C55.7382 46.602 56.6483 47.1046 57.4657 47.7371C57.7607 47.9729 58.0241 48.2459 58.2493 48.5492C58.2963 48.6144 58.3397 48.6822 58.3793 48.7522C58.4193 48.8127 58.4552 48.8757 58.4869 48.941L58.5721 49.1196C58.5965 49.1765 58.6127 49.2333 58.631 49.2861C58.6656 49.3787 58.6908 49.4747 58.7061 49.5724C58.7061 49.613 58.7224 49.6515 58.7285 49.6881V49.7835C58.7406 49.9013 58.7427 49.952 58.7427 49.952Z" fill="#66429C"/>
<path d="M53.3262 37.671L53.1821 37.5776L53.1029 37.5167C53.0725 37.4984 53.0359 37.4842 52.9994 37.466C52.9122 37.4201 52.8212 37.382 52.7273 37.3523L52.5588 37.2974L52.366 37.2589C52.2958 37.2438 52.2245 37.2343 52.1528 37.2305C52.0753 37.2208 51.9974 37.2154 51.9193 37.2142C51.5439 37.2093 51.1693 37.2523 50.8047 37.3421C49.8086 37.6014 48.8582 38.0122 47.9869 38.5602C46.824 39.2718 45.728 40.0872 44.7122 40.9964C43.474 42.0997 42.3159 43.2896 41.2467 44.5574C40.0118 45.9979 38.8808 47.5244 37.8624 49.1253C37.3264 49.9718 36.8107 50.8611 36.3316 51.7929C35.8356 52.7421 35.4022 53.7227 35.0343 54.7285C34.6433 55.7653 34.3841 56.847 34.2629 57.9484C34.2026 58.51 34.228 59.0774 34.338 59.6314C34.3991 59.9084 34.4967 60.176 34.6283 60.4272C34.7634 60.6782 34.9495 60.8982 35.1747 61.073C35.3999 61.2478 35.6591 61.3736 35.9357 61.4423C36.2121 61.5085 36.4963 61.5365 36.7803 61.5256C37.3441 61.4948 37.9 61.3784 38.4288 61.1804C39.4655 60.7885 40.4491 60.2681 41.3563 59.6314C42.2395 59.0271 43.0818 58.3652 43.8778 57.65C44.6635 56.9536 45.3943 56.2288 46.0805 55.502C47.3771 54.1166 48.5738 52.641 49.6618 51.0864C50.6182 49.7384 51.4784 48.3246 52.236 46.8555C52.8643 45.6445 53.3821 44.3793 53.783 43.0753C54.0977 42.0941 54.2607 41.0706 54.2662 40.0402C54.2625 39.665 54.2106 39.2917 54.1119 38.9297C54.0957 38.8505 54.0612 38.7795 54.0388 38.7064C54.0169 38.6368 53.9897 38.5689 53.9576 38.5034C53.9278 38.4425 53.8994 38.3836 53.8723 38.3267C53.8399 38.274 53.8074 38.2252 53.7769 38.1785C53.726 38.0944 53.6669 38.0155 53.6003 37.943C53.5739 37.9126 53.5495 37.8801 53.5252 37.8557L53.4541 37.7908L53.3262 37.673C53.3262 37.673 53.3729 37.7096 53.4582 37.7867L53.5313 37.8497C53.5556 37.874 53.58 37.9045 53.6084 37.937C53.6758 38.009 53.7363 38.0871 53.7891 38.1704C53.8196 38.2171 53.8541 38.2658 53.8845 38.3207C53.915 38.3755 53.9414 38.4343 53.9718 38.4973C54.0059 38.5622 54.0337 38.6302 54.0551 38.7003C54.0794 38.7734 54.1139 38.8444 54.1322 38.9236C54.2331 39.2874 54.287 39.6627 54.2926 40.0402C54.2914 41.0737 54.1312 42.1008 53.8175 43.0855C53.4203 44.3932 52.9045 45.6619 52.2766 46.8758C51.5246 48.3493 50.6684 49.7673 49.7145 51.1189C48.6281 52.6785 47.4313 54.1582 46.1333 55.5467C45.4471 56.2796 44.7122 57.0023 43.9285 57.7007C43.13 58.4167 42.2857 59.0799 41.401 59.6862C40.4902 60.3276 39.5017 60.8508 38.4593 61.2434C37.9242 61.4449 37.3614 61.5634 36.7904 61.5946C36.5003 61.6047 36.2102 61.576 35.9276 61.5093C35.6445 61.4314 35.3782 61.302 35.1419 61.1277C34.9143 60.9414 34.7236 60.7141 34.5796 60.4577C34.444 60.2017 34.3436 59.9285 34.2811 59.6456C34.1692 59.085 34.1438 58.5106 34.206 57.9423C34.3275 56.8355 34.5874 55.7483 34.9795 54.7062C35.3473 53.6987 35.78 52.7161 36.2748 51.7645C36.7559 50.8286 37.2716 49.9373 37.8096 49.0928C38.8316 47.4905 39.9659 45.9626 41.204 44.5208C42.2774 43.2599 43.4388 42.0767 44.6797 40.9802C45.6985 40.0693 46.7987 39.2538 47.9666 38.544C48.8449 37.9927 49.8039 37.5817 50.8088 37.3259C51.1747 37.2362 51.5508 37.1945 51.9274 37.202C52.0062 37.2038 52.0848 37.2099 52.1629 37.2203C52.2353 37.2249 52.3073 37.2351 52.3781 37.2508L52.5812 37.2914C52.6421 37.3096 52.6969 37.3299 52.7497 37.3482C52.8436 37.3786 52.9346 37.4173 53.0217 37.4639C53.0582 37.4842 53.0948 37.4984 53.1252 37.5167L53.2044 37.5715L53.3262 37.671Z" fill="#66429C"/>
<path d="M28.9444 56.0706C29.0211 56.1476 29.0733 56.2457 29.0944 56.3524C29.1155 56.4592 29.1045 56.5697 29.0627 56.6702C29.021 56.7706 28.9504 56.8565 28.86 56.9169C28.7695 56.9773 28.6632 57.0095 28.5544 57.0095C28.4456 57.0095 28.3392 56.9773 28.2488 56.9169C28.1583 56.8565 28.0877 56.7706 28.046 56.6702C28.0043 56.5697 27.9933 56.4592 28.0143 56.3524C28.0354 56.2457 28.0876 56.1476 28.1644 56.0706C28.2154 56.019 28.2761 55.978 28.3431 55.9501C28.41 55.9221 28.4818 55.9077 28.5544 55.9077C28.6269 55.9077 28.6987 55.9221 28.7657 55.9501C28.8326 55.978 28.8934 56.019 28.9444 56.0706V56.0706Z" fill="#66429C"/>
<path d="M60.0052 39.0114C60.0052 39.1203 59.9729 39.2267 59.9125 39.3172C59.852 39.4077 59.766 39.4783 59.6654 39.52C59.5648 39.5616 59.4542 39.5725 59.3474 39.5513C59.2406 39.53 59.1425 39.4776 59.0655 39.4006C58.9885 39.3237 58.9361 39.2256 58.9149 39.1188C58.8936 39.012 58.9045 38.9013 58.9462 38.8007C58.9879 38.7002 59.0584 38.6142 59.1489 38.5537C59.2395 38.4932 59.3459 38.4609 59.4548 38.4609C59.6008 38.4609 59.7408 38.5189 59.844 38.6222C59.9472 38.7254 60.0052 38.8654 60.0052 39.0114V39.0114Z" fill="#66429C"/>
<path d="M32.4121 57.8794C32.4121 57.9071 32.4039 57.9342 32.3885 57.9573C32.3731 57.9803 32.3512 57.9983 32.3256 58.0089C32.3 58.0195 32.2718 58.0223 32.2446 58.0169C32.2175 58.0115 32.1925 57.9981 32.1729 57.9785C32.1533 57.9589 32.1399 57.9339 32.1345 57.9068C32.1291 57.8796 32.1319 57.8514 32.1425 57.8258C32.1531 57.8002 32.1711 57.7783 32.1941 57.7629C32.2172 57.7475 32.2443 57.7393 32.272 57.7393C32.3092 57.7393 32.3448 57.754 32.3711 57.7803C32.3974 57.8066 32.4121 57.8422 32.4121 57.8794V57.8794Z" fill="#66429C"/>
<path d="M35.3985 42.4541C35.3985 42.4818 35.3903 42.5089 35.3749 42.532C35.3595 42.555 35.3376 42.573 35.312 42.5836C35.2863 42.5942 35.2582 42.597 35.231 42.5916C35.2038 42.5862 35.1788 42.5728 35.1592 42.5532C35.1396 42.5336 35.1263 42.5087 35.1209 42.4815C35.1154 42.4543 35.1182 42.4261 35.1288 42.4005C35.1394 42.3749 35.1574 42.353 35.1805 42.3376C35.2035 42.3222 35.2306 42.314 35.2583 42.314C35.2955 42.314 35.3311 42.3287 35.3574 42.355C35.3837 42.3813 35.3985 42.4169 35.3985 42.4541V42.4541Z" fill="#66429C"/>
<path d="M57.2315 49.9517C57.2315 49.9794 57.2233 50.0065 57.2079 50.0295C57.1925 50.0526 57.1706 50.0706 57.145 50.0812C57.1194 50.0918 57.0912 50.0945 57.064 50.0891C57.0368 50.0837 57.0118 50.0704 56.9922 50.0508C56.9726 50.0312 56.9593 50.0062 56.9539 49.979C56.9485 49.9518 56.9512 49.9237 56.9618 49.898C56.9724 49.8724 56.9904 49.8505 57.0135 49.8351C57.0365 49.8197 57.0636 49.8115 57.0913 49.8115C57.1285 49.8115 57.1641 49.8263 57.1904 49.8526C57.2167 49.8789 57.2315 49.9145 57.2315 49.9517Z" fill="#66429C"/>
<path d="M59.1729 43.4287C59.1733 43.4565 59.1654 43.4838 59.1502 43.5071C59.1351 43.5304 59.1133 43.5487 59.0878 43.5596C59.0622 43.5705 59.034 43.5736 59.0066 43.5684C58.9793 43.5632 58.9542 43.55 58.9344 43.5305C58.9145 43.511 58.901 43.486 58.8954 43.4588C58.8898 43.4316 58.8925 43.4033 58.903 43.3775C58.9136 43.3518 58.9316 43.3298 58.9546 43.3143C58.9777 43.2988 59.0049 43.2905 59.0327 43.2905C59.051 43.2903 59.0692 43.2936 59.0862 43.3005C59.1032 43.3073 59.1187 43.3174 59.1317 43.3303C59.1447 43.3431 59.1551 43.3584 59.1622 43.3753C59.1692 43.3922 59.1729 43.4104 59.1729 43.4287V43.4287Z" fill="#66429C"/>
<path d="M124.578 3.97336C125.22 3.33985 126 2.86259 126.856 2.57847C127.713 2.29435 128.623 2.21099 129.516 2.33484C130.213 2.57412 130.97 2.57412 131.667 2.33484C132.075 2.01445 132.428 1.63021 132.714 1.19699C132.99 0.909607 133.321 0.680972 133.688 0.524787C134.054 0.368601 134.449 0.288086 134.847 0.288086C135.246 0.288086 135.64 0.368601 136.007 0.524787C136.373 0.680972 136.705 0.909607 136.981 1.19699C137.206 1.52054 137.483 1.80499 137.8 2.03901C139.2 2.81275 140.827 0.19568 142.215 0.992181C141.58 1.20584 141.022 1.60156 140.611 2.13004C140.416 2.41117 140.323 2.74971 140.346 3.09059C140.369 3.43147 140.506 3.75462 140.736 4.0075C142.033 5.20225 144.274 2.65345 145.72 3.65476C146.505 4.18956 146.584 5.55499 147.506 5.79394C147.882 5.861 148.268 5.861 148.644 5.79394C149.262 5.7668 149.867 5.9747 150.338 6.37582C150.809 6.77694 151.11 7.34149 151.181 7.95586C151.261 9.00269 150.703 10.2316 151.466 10.9939C151.736 11.1779 152.042 11.3015 152.364 11.3565C152.686 11.4115 153.016 11.3965 153.332 11.3125C153.294 12.2791 153.037 13.2245 152.581 14.0775C153.398 14.6278 153.971 15.4711 154.183 16.4329C154.395 17.3946 154.229 18.401 153.719 19.2434C154.57 19.8593 155.296 20.6316 155.858 21.5191C156.137 21.9704 156.285 22.4905 156.285 23.0211C156.285 23.5517 156.137 24.0718 155.858 24.5231C155.689 24.694 155.547 24.8897 155.437 25.1034C155.368 25.3567 155.368 25.6238 155.437 25.8771C155.731 26.8348 155.911 27.8241 155.972 28.8242C155.915 29.8255 155.141 30.9178 154.151 30.804C153.912 30.804 153.662 30.6903 153.457 30.804C153.387 30.8573 153.329 30.924 153.286 31.0003C153.243 31.0766 153.216 31.1608 153.207 31.2478C153.123 31.9688 153.154 32.6983 153.298 33.4097C153.443 34.1226 153.309 34.8642 152.922 35.4806C152.822 35.6271 152.69 35.7497 152.538 35.84C152.385 35.9304 152.214 35.9861 152.037 36.0035C151.86 36.0208 151.682 35.9993 151.515 35.9404C151.347 35.8816 151.194 35.7868 151.067 35.6627C151.318 36.8006 151.579 37.9384 151.841 39.0763C151.989 39.7476 152.114 40.5555 151.614 41.022C151.113 41.4885 149.839 41.113 149.338 40.3507C148.837 39.5883 148.769 38.6325 148.291 37.8702C148.062 37.5843 147.864 37.2754 147.699 36.9485C147.597 36.6754 147.574 36.3454 147.358 36.1634C146.914 35.7765 146.22 36.3909 146.22 36.9712C146.356 37.5396 146.652 38.057 147.074 38.4618C147.28 38.6675 147.42 38.9298 147.477 39.2155C147.534 39.5012 147.504 39.7974 147.392 40.0662C147.244 40.3052 146.983 40.4645 146.846 40.7034C146.345 41.5454 147.574 42.3988 147.699 43.366C147.69 43.7268 147.598 44.0807 147.43 44.4003C147.263 44.7199 147.024 44.9967 146.732 45.2093C146.095 45.8124 144.877 46.2789 144.456 45.4824C144.331 45.2093 144.388 44.8793 144.286 44.5949C144.139 44.2671 143.907 43.9843 143.614 43.7756C142.976 43.1546 142.526 42.3656 142.317 41.4999C143.034 42.4216 143.785 43.6505 143.239 44.6973C142.963 45.1041 142.625 45.465 142.238 45.7669C141.555 46.4496 141.1 47.3485 140.44 48.0426C140.13 48.4131 139.711 48.6756 139.243 48.7922C138.774 48.9087 138.281 48.8734 137.834 48.6912C137.968 49.1613 137.94 49.6629 137.754 50.115C137.568 50.5671 137.235 50.9433 136.809 51.1827C136.383 51.4221 135.888 51.5108 135.405 51.4345C134.922 51.3582 134.479 51.1213 134.147 50.7621C133.992 50.5436 133.795 50.358 133.567 50.2159C133.288 50.1365 132.993 50.1365 132.714 50.2159C131.851 50.3457 130.968 50.2337 130.165 49.8922C129.361 49.5507 128.668 48.9932 128.162 48.2815L129.027 47.9971C127.332 47.8608 125.691 47.331 124.237 46.4496C123.516 45.9882 122.976 45.2934 122.707 44.4814C122.438 43.6694 122.456 42.7896 122.758 41.9892C123.088 41.3292 123.713 40.6579 123.452 39.9638C123.281 39.4859 122.746 39.2583 122.314 39.0763L116.329 36.8006C115.327 36.5189 114.422 35.9679 113.712 35.2076C113.544 35.013 113.417 34.7872 113.337 34.5431C113.257 34.2991 113.226 34.0417 113.246 33.7857C113.266 33.5298 113.337 33.2803 113.454 33.0517C113.571 32.8232 113.732 32.62 113.928 32.4539C113.473 31.5209 112.768 30.7329 111.891 30.1782C110.901 29.5524 109.74 29.2566 108.716 28.6763C108.185 28.4247 107.734 28.0311 107.413 27.5391C107.092 27.0471 106.913 26.4759 106.896 25.8885C106.998 24.7506 108.625 23.8631 109.41 24.7506C109.297 22.987 106.156 22.8049 105.929 21.0526C105.747 19.6303 107.579 18.9362 108.546 17.8666C108.364 17.366 107.874 17.036 107.681 16.5467C107.271 15.5112 108.352 14.5213 109.365 14.0662C110.378 13.611 111.641 13.1559 111.891 12.0863C112.141 11.0167 111.242 9.70816 111.891 8.75236C112.071 8.49381 112.341 8.31196 112.649 8.24248C112.956 8.17301 113.278 8.22093 113.552 8.37687C114.406 6.37424 118.183 7.98999 119.344 6.10115C119.442 5.957 119.494 5.78626 119.492 5.61188C119.459 5.46462 119.397 5.32537 119.31 5.20225C118.81 4.69504 118.252 4.24822 117.649 3.87096C117.35 3.67772 117.12 3.39625 116.989 3.06582C116.859 2.73538 116.835 2.37246 116.92 2.02764C117.193 1.37906 118.445 1.42456 118.411 2.14141C118.602 2.00046 118.822 1.90456 119.055 1.86092C119.288 1.81728 119.528 1.82703 119.757 1.88945C119.986 1.95186 120.198 2.06533 120.376 2.22129C120.555 2.37726 120.696 2.5717 120.789 2.79C121.073 2.52807 121.438 2.37156 121.823 2.3467C122.208 2.32184 122.59 2.43014 122.905 2.65344C123.523 3.11384 124.022 3.71446 124.362 4.40575" fill="#263238"/>
<path d="M124.327 4.34885C124.327 4.34885 124.122 4.01887 123.644 3.40443C123.345 3.0213 122.954 2.71994 122.507 2.52827C122.223 2.39127 121.904 2.34402 121.593 2.39281C121.282 2.44161 120.994 2.58413 120.766 2.80136L120.652 2.9379V2.76723C120.564 2.56885 120.433 2.39256 120.269 2.25126C120.104 2.10995 119.91 2.00721 119.701 1.95051C119.491 1.8938 119.272 1.88457 119.058 1.92351C118.845 1.96244 118.643 2.04855 118.467 2.17554L118.228 2.36897V2.07314C118.228 1.7204 117.75 1.5611 117.375 1.69764C117.28 1.73692 117.194 1.7952 117.123 1.86887C117.052 1.94254 116.996 2.03003 116.96 2.12599C116.924 2.22194 116.907 2.3243 116.912 2.42675C116.917 2.52921 116.943 2.62961 116.988 2.72172C117.155 3.18888 117.471 3.58846 117.887 3.85958C118.373 4.15705 118.826 4.50404 119.241 4.89502C119.374 5.0074 119.476 5.15259 119.535 5.31623C119.595 5.47987 119.611 5.65629 119.582 5.82807C119.536 5.994 119.45 6.14624 119.332 6.27183C119.242 6.4106 119.126 6.53044 118.991 6.62457C118.443 7.00106 117.8 7.21415 117.136 7.239C116.487 7.30727 115.827 7.30728 115.19 7.42106C114.877 7.43655 114.573 7.53269 114.308 7.70015C114.043 7.8676 113.825 8.1007 113.677 8.37686L113.586 8.59305L113.381 8.46789C113.202 8.37406 113 8.33281 112.799 8.34892C112.597 8.36503 112.405 8.43784 112.243 8.55892C112.082 8.71987 111.966 8.91997 111.906 9.13947C111.846 9.35896 111.845 9.59027 111.902 9.81057C111.97 10.2999 112.152 10.8233 112.186 11.415C112.204 11.7263 112.15 12.0377 112.03 12.3255C111.91 12.6132 111.726 12.8699 111.492 13.0762C110.57 13.9182 109.319 14.0662 108.511 14.8285C108.301 14.9816 108.133 15.1846 108.022 15.419C107.911 15.6535 107.86 15.912 107.874 16.1712C107.874 16.6605 108.511 16.9791 108.807 17.6845L108.864 17.8325L108.761 17.9462C108.194 18.4799 107.598 18.9813 106.975 19.4482C106.683 19.629 106.459 19.9009 106.338 20.2218C106.216 20.5428 106.204 20.8948 106.303 21.2233C106.554 21.8491 107.305 22.236 107.999 22.6456C108.374 22.8582 108.728 23.1058 109.057 23.3852C109.43 23.7069 109.666 24.1586 109.717 24.6482V25.4789L109.194 24.8531C108.647 24.2045 107.339 24.853 107.191 25.7292C107.167 26.2309 107.287 26.729 107.537 27.1645C107.787 27.6001 108.156 27.9549 108.602 28.187C109.489 28.7787 110.616 29.0745 111.674 29.6434C112.774 30.2391 113.658 31.1669 114.2 32.2946L114.314 32.545L114.086 32.6815C113.78 32.9733 113.596 33.3702 113.57 33.7925C113.545 34.2148 113.681 34.6309 113.95 34.9572C114.646 35.6756 115.522 36.1943 116.487 36.4592L122.609 38.7349C122.908 38.8393 123.186 38.9974 123.428 39.2014C123.568 39.3234 123.68 39.4738 123.756 39.6426C123.833 39.8114 123.872 39.9947 123.872 40.18C123.786 40.7928 123.543 41.373 123.166 41.864C122.927 42.3222 122.815 42.8359 122.841 43.352C122.867 43.8681 123.031 44.3679 123.314 44.7997C123.89 45.7311 124.771 46.4347 125.806 46.7909C126.89 47.1661 128.012 47.4217 129.152 47.5533L130.551 47.7695L129.209 48.2133L128.332 48.4977L128.503 47.9857C129.065 48.7604 129.864 49.3315 130.779 49.6128C131.236 49.775 131.716 49.8596 132.201 49.8632C132.453 49.8476 132.704 49.8172 132.952 49.7721C133.123 49.7344 133.301 49.7321 133.473 49.7653C133.645 49.7986 133.809 49.8667 133.953 49.9656C134.238 50.1931 134.374 50.4321 134.534 50.5573C134.696 50.7084 134.885 50.828 135.091 50.91C135.521 51.0695 135.993 51.0695 136.423 50.91C136.852 50.7478 137.205 50.4325 137.415 50.0248C137.626 49.6171 137.677 49.1461 137.56 48.7025L137.31 47.8491L138.061 48.3043C138.306 48.4216 138.577 48.4737 138.848 48.4558C139.119 48.4378 139.381 48.3504 139.609 48.2019C140.139 47.8712 140.586 47.4236 140.917 46.8933C141.304 46.2969 141.754 45.7438 142.26 45.2435C142.817 44.7883 143.181 44.3673 143.136 43.7756C143.008 42.9731 142.648 42.2255 142.1 41.6251L142.715 41.3406C142.855 41.9553 143.131 42.5309 143.523 43.0246C143.733 43.2728 143.961 43.5048 144.205 43.7187C144.351 43.857 144.477 44.0139 144.581 44.1852C144.681 44.3757 144.739 44.5851 144.752 44.7997C144.752 45.1752 144.831 45.3345 144.968 45.4255C145.191 45.5148 145.439 45.5148 145.662 45.4255C146.223 45.191 146.703 44.7949 147.039 44.2877C147.223 44.0871 147.337 43.8313 147.362 43.5598C147.386 43.2883 147.321 43.0162 147.175 42.7857C147.039 42.524 146.845 42.2509 146.675 41.9437C146.444 41.5909 146.359 41.1631 146.436 40.7489C146.561 40.2596 146.982 40.0207 147.084 39.8614C147.147 39.7689 147.186 39.6624 147.198 39.5513C147.21 39.4402 147.194 39.3279 147.153 39.2242C147.016 38.7008 146.504 38.3139 146.128 37.6539C146.017 37.4763 145.944 37.277 145.914 37.0691C145.885 36.8613 145.9 36.6496 145.958 36.4478C146.033 36.2323 146.166 36.0418 146.343 35.8973C146.52 35.7527 146.733 35.6598 146.959 35.6286C147.093 35.6223 147.227 35.6479 147.35 35.7033C147.473 35.7586 147.58 35.8422 147.665 35.9472C147.787 36.1145 147.876 36.3038 147.926 36.5047C147.988 36.7821 148.117 37.04 148.302 37.2557C149.201 38.3936 149.144 39.8842 149.986 40.5327C150.395 40.8741 150.987 41.0106 151.294 40.7375C151.602 40.4645 151.624 39.8728 151.511 39.3038C151.237 38.0863 150.964 36.8916 150.691 35.6968L150.327 34.1152L151.272 35.4351C151.388 35.554 151.539 35.6316 151.704 35.6563C151.868 35.6809 152.036 35.6512 152.182 35.5717C152.357 35.4992 152.511 35.3842 152.63 35.2372C152.749 35.0902 152.83 34.9157 152.865 34.7296C152.98 33.8355 152.949 32.9286 152.774 32.0443C152.746 31.791 152.746 31.5353 152.774 31.2819C152.782 31.1172 152.83 30.9569 152.913 30.8144C152.996 30.6719 153.112 30.5513 153.251 30.4627C153.531 30.3889 153.825 30.3889 154.105 30.4627C154.277 30.484 154.452 30.4522 154.605 30.3717C154.94 30.1685 155.208 29.8716 155.376 29.5176C155.544 29.1637 155.604 28.7683 155.55 28.3804C155.55 27.5498 155.163 26.7191 155.015 25.7975C154.948 25.5323 154.948 25.2547 155.015 24.9896C155.122 24.7575 155.268 24.5458 155.447 24.3638C155.684 24.0659 155.83 23.7066 155.868 23.3283C155.927 22.5382 155.687 21.7549 155.197 21.1323C154.683 20.4927 154.094 19.916 153.445 19.4141L153.24 19.2434L153.388 19.0272C153.858 18.2488 154.01 17.3193 153.813 16.4316C153.616 15.5439 153.085 14.7661 152.33 14.2596L152.102 14.123L152.227 13.8841C152.672 13.0727 152.921 12.1689 152.956 11.2443L153.263 11.5287C152.692 11.6398 152.102 11.5926 151.556 11.3922C151.281 11.2471 151.054 11.0264 150.901 10.7562C150.748 10.486 150.675 10.1776 150.691 9.86747C150.691 8.72961 151.055 7.79656 150.509 7.0342C150.279 6.65339 149.937 6.35289 149.53 6.17368C149.122 5.99448 148.67 5.9453 148.233 6.03288C147.97 6.0797 147.7 6.0797 147.437 6.03288C147.153 5.96649 146.898 5.81099 146.709 5.58911C146.423 5.20197 146.172 4.79079 145.958 4.36022C145.877 4.18242 145.756 4.02602 145.603 3.90352C145.451 3.78102 145.273 3.69583 145.082 3.65476C144.675 3.61289 144.265 3.6715 143.887 3.82543C143.086 4.22734 142.21 4.45976 141.315 4.50815C141.069 4.48382 140.833 4.39397 140.633 4.24791C140.433 4.10185 140.276 3.9049 140.177 3.67752C140.087 3.46326 140.04 3.23306 140.04 3.00049C140.04 2.76793 140.087 2.53772 140.177 2.32347C140.365 1.94816 140.626 1.61403 140.945 1.34053C141.263 1.06704 141.633 0.85966 142.032 0.730472V1.08321C141.429 0.741848 140.701 1.1856 140.086 1.54971C139.487 2.04313 138.722 2.29113 137.947 2.24381C137.579 2.13104 137.261 1.89372 137.048 1.57248C136.861 1.312 136.639 1.07845 136.388 0.878382C135.89 0.537107 135.297 0.361889 134.693 0.377721C134.127 0.37805 133.575 0.552874 133.111 0.878382C132.715 1.21785 132.356 1.59937 132.042 2.01624C131.855 2.20856 131.627 2.35493 131.374 2.44379C131.121 2.53264 130.851 2.56156 130.585 2.52827C130.096 2.52827 129.664 2.36898 129.254 2.32347C127.975 2.1686 126.68 2.43632 125.567 3.08583C125.191 3.32538 124.83 3.58757 124.486 3.87095C124.775 3.52253 125.122 3.22618 125.51 2.9948C126.63 2.28355 127.957 1.97085 129.277 2.10727C129.709 2.10727 130.142 2.26657 130.597 2.28933C130.827 2.32038 131.061 2.29518 131.279 2.21591C131.497 2.13663 131.692 2.00564 131.848 1.83418C132.181 1.38003 132.562 0.964074 132.986 0.593917C133.493 0.224236 134.1 0.0178234 134.727 0.00222639C135.404 -0.023373 136.071 0.172361 136.627 0.559783C137.23 0.946654 137.481 1.69765 138.084 1.84557C138.687 1.99349 139.324 1.53834 139.938 1.16285C140.267 0.946415 140.618 0.767052 140.985 0.628052C141.19 0.539237 141.412 0.498203 141.635 0.508061C141.858 0.517918 142.075 0.578414 142.271 0.684948L142.612 0.878382L142.248 1.03768C141.546 1.26517 140.962 1.75972 140.621 2.4145C140.496 2.74837 140.496 3.11607 140.621 3.44995C140.696 3.60373 140.808 3.73635 140.947 3.83572C141.086 3.9351 141.248 3.99808 141.418 4.01888C142.242 3.94159 143.045 3.70999 143.784 3.33616C144.236 3.14397 144.732 3.07714 145.218 3.14272C145.462 3.20394 145.69 3.31691 145.886 3.47398C146.083 3.63105 146.243 3.82853 146.356 4.05301C146.563 4.44672 146.795 4.82678 147.05 5.19087C147.192 5.34275 147.378 5.44715 147.581 5.4899C147.785 5.53266 147.997 5.51167 148.188 5.42981C148.721 5.3322 149.27 5.39722 149.766 5.61641C150.261 5.83559 150.678 6.19878 150.964 6.6587C151.259 7.13105 151.395 7.68532 151.351 8.24032C151.351 8.77512 151.226 9.27577 151.237 9.75368C151.225 9.96256 151.271 10.1708 151.369 10.3555C151.467 10.5402 151.615 10.6941 151.795 10.8005C152.249 10.9554 152.737 10.9829 153.206 10.8802H153.536V11.2101C153.503 12.2202 153.239 13.2092 152.762 14.1003L152.66 13.7248C153.551 14.3078 154.179 15.2146 154.413 16.2533C154.647 17.2919 154.467 18.3807 153.911 19.2889L153.855 18.902C154.547 19.4288 155.17 20.0404 155.709 20.7226C156.296 21.4627 156.581 22.398 156.506 23.3397C156.451 23.8346 156.258 24.304 155.948 24.6938C155.618 25.0692 155.539 25.2172 155.607 25.6382C155.743 26.4688 156.085 27.3108 156.164 28.278C156.229 28.7918 156.14 29.3132 155.909 29.7768C155.679 30.2404 155.316 30.6255 154.867 30.8837C154.389 31.1909 153.57 30.8837 153.525 30.9975C153.479 31.1113 153.411 31.1454 153.388 31.3502C153.365 31.562 153.365 31.7756 153.388 31.9874C153.577 32.9357 153.603 33.909 153.468 34.8662C153.419 35.1594 153.291 35.4338 153.099 35.6601C152.906 35.8863 152.655 36.0559 152.373 36.1506C152.092 36.2453 151.789 36.2616 151.499 36.1977C151.209 36.1338 150.941 35.9921 150.725 35.7879L151.306 35.5261C151.579 36.7209 151.852 37.9157 152.136 39.1332C152.209 39.4693 152.236 39.8138 152.216 40.1572C152.187 40.5592 152.004 40.9344 151.704 41.2041C151.547 41.333 151.364 41.4255 151.167 41.4747C150.97 41.5239 150.765 41.5286 150.566 41.4885C150.199 41.4176 149.855 41.2574 149.565 41.022C149.06 40.5392 148.701 39.9241 148.529 39.2469C148.374 38.6578 148.112 38.1023 147.756 37.6084C147.528 37.3289 147.365 37.0026 147.278 36.6526C147.187 36.334 147.096 36.2544 147.005 36.2658C146.911 36.29 146.824 36.3369 146.753 36.4024C146.682 36.4679 146.627 36.5499 146.595 36.6413C146.572 36.7523 146.571 36.8668 146.592 36.9781C146.614 37.0895 146.657 37.1955 146.72 37.2898C146.97 37.7791 147.574 38.2229 147.801 38.9966C147.874 39.202 147.896 39.4217 147.866 39.6375C147.837 39.8532 147.756 40.0587 147.63 40.2369C147.346 40.5782 147.118 40.7034 147.096 40.8855C146.982 41.261 147.448 41.8299 147.778 42.4443C147.983 42.7872 148.078 43.184 148.051 43.5822C147.997 43.9761 147.84 44.3488 147.596 44.6631C147.168 45.2649 146.575 45.731 145.89 46.0058C145.692 46.0983 145.476 46.1462 145.258 46.1462C145.04 46.1462 144.824 46.0983 144.626 46.0058C144.446 45.8774 144.301 45.7061 144.204 45.5075C144.106 45.3088 144.06 45.089 144.069 44.868C144.061 44.7403 144.026 44.6157 143.968 44.5021C143.909 44.3885 143.827 44.2883 143.728 44.208C143.459 43.9766 143.211 43.7214 142.988 43.4456C142.528 42.8736 142.205 42.2042 142.044 41.4885L141.679 39.8841L142.647 41.2041C143.27 41.9219 143.667 42.8092 143.784 43.7529C143.801 44.1756 143.685 44.593 143.455 44.9476C143.232 45.2488 142.972 45.5203 142.681 45.7555C142.207 46.2191 141.788 46.7344 141.429 47.2916C141.039 47.9067 140.514 48.4244 139.893 48.805C139.562 49.0084 139.184 49.1235 138.795 49.1395C138.407 49.1554 138.021 49.0716 137.674 48.896L138.175 48.5091C138.305 48.9604 138.306 49.4394 138.177 49.8912C138.048 50.343 137.795 50.7494 137.446 51.064C137.097 51.3785 136.667 51.5885 136.204 51.67C135.741 51.7514 135.265 51.701 134.83 51.5244C134.539 51.4125 134.273 51.2465 134.044 51.0351C133.805 50.819 133.658 50.58 133.521 50.489C133.384 50.398 132.781 50.489 132.201 50.489C131.642 50.5006 131.084 50.4199 130.551 50.25C129.499 49.9222 128.587 49.2537 127.957 48.3498L127.695 47.9857L128.128 47.8378L128.992 47.5647L129.049 48.2133C127.858 48.0688 126.687 47.7941 125.556 47.394C124.385 46.9823 123.392 46.1783 122.745 45.1183C122.405 44.5878 122.212 43.9762 122.186 43.3462C122.16 42.7163 122.302 42.0908 122.598 41.534C122.903 41.1298 123.117 40.6639 123.223 40.1686C123.223 39.7817 122.859 39.5086 122.37 39.3152L116.271 37.0395C115.194 36.7365 114.221 36.1419 113.461 35.3213C113.099 34.8493 112.914 34.2656 112.937 33.6714C112.935 33.3643 113.008 33.0612 113.151 32.7893C113.294 32.5173 113.502 32.2849 113.756 32.1126L113.643 32.4995C113.159 31.4831 112.361 30.6493 111.367 30.1213C110.4 29.5751 109.262 29.2793 108.249 28.6194C107.709 28.3217 107.266 27.8746 106.974 27.3318C106.681 26.789 106.551 26.1733 106.599 25.5585C106.671 25.2531 106.811 24.9677 107.008 24.7235C107.205 24.4793 107.454 24.2825 107.737 24.1476C108.026 23.9921 108.357 23.9347 108.682 23.984C109.006 24.0332 109.305 24.1865 109.535 24.4207L109.057 24.6255C109.057 23.9314 108.295 23.4876 107.612 23.0552C106.816 22.71 106.15 22.1202 105.712 21.3712C105.619 21.1555 105.571 20.9232 105.571 20.6885C105.571 20.4537 105.619 20.2214 105.712 20.0058C105.903 19.6194 106.175 19.2782 106.508 19.0045C107.111 18.4697 107.771 18.0714 108.249 17.548V17.7983C108.113 17.3318 107.441 16.9677 107.305 16.194C107.278 15.8523 107.338 15.5094 107.48 15.1971C107.621 14.8849 107.839 14.6133 108.113 14.4075C109.08 13.5427 110.388 13.4062 111.094 12.678C111.284 12.5227 111.435 12.3237 111.532 12.0978C111.629 11.872 111.67 11.6259 111.651 11.3808C111.651 10.8688 111.469 10.3567 111.39 9.81057C111.325 9.51652 111.338 9.21068 111.428 8.9233C111.518 8.63593 111.681 8.37697 111.902 8.17205C112.135 7.98851 112.419 7.8795 112.715 7.8592C113.011 7.83891 113.307 7.90826 113.563 8.05826L113.267 8.14929C113.448 7.81967 113.71 7.54195 114.029 7.34272C114.348 7.1435 114.712 7.02942 115.088 7.01143C115.782 6.89765 116.442 6.89766 117.068 6.84076C117.661 6.82367 118.239 6.64677 118.74 6.32873C118.953 6.17445 119.115 5.96065 119.207 5.71428C119.286 5.50946 119.138 5.30464 118.956 5.08845C118.563 4.71219 118.132 4.37673 117.671 4.08715C117.204 3.78095 116.852 3.32881 116.669 2.80136C116.584 2.53495 116.584 2.24852 116.669 1.98211C116.716 1.84828 116.794 1.72765 116.897 1.63055C117 1.53345 117.125 1.46276 117.261 1.42455C117.508 1.33689 117.777 1.33689 118.023 1.42455C118.152 1.46889 118.263 1.55398 118.339 1.66691C118.415 1.77984 118.452 1.91447 118.444 2.05037L118.24 1.94797C118.446 1.79575 118.684 1.69287 118.936 1.64726C119.188 1.60164 119.447 1.6145 119.693 1.68486C119.939 1.75522 120.166 1.88121 120.356 2.05308C120.546 2.22496 120.694 2.43814 120.788 2.6762H120.618C120.874 2.43147 121.2 2.27259 121.551 2.22162C121.902 2.17064 122.259 2.2301 122.575 2.39173C123.03 2.60704 123.422 2.93627 123.713 3.34753C123.951 3.65988 124.156 3.99534 124.327 4.34885Z" fill="#455A64"/>
<path d="M133.646 26.6169C133.021 23.7039 130.881 21.3372 128.503 19.528C127.551 18.7153 126.414 18.1487 125.192 17.8781C124.577 17.7503 123.937 17.8074 123.354 18.0422C122.771 18.2771 122.27 18.6792 121.915 19.198L122.086 21.2803C121.824 24.5915 124.361 27.3792 125.59 30.4742C126.125 31.8169 126.546 33.4326 127.866 34.0129C128.58 34.2861 129.37 34.2861 130.085 34.0129C132.918 33.0116 134.272 29.5411 133.646 26.6169Z" fill="#FFC100"/>
<path d="M133.943 41.8976C134.841 40.6184 135.262 39.0641 135.131 37.5063C134.999 35.9485 134.325 34.4863 133.226 33.3751C134.42 31.8276 133.954 29.4722 132.691 27.9816C131.32 26.5768 129.646 25.5028 127.798 24.8411C127.192 22.6274 125.761 20.7298 123.799 19.5384C121.838 18.3469 119.494 17.9521 117.25 18.435C114.883 15.0214 109.934 14.589 105.985 15.8066C105.044 16.1729 104.056 16.4028 103.05 16.4893C102.313 16.4431 101.579 16.3519 100.854 16.2162C96.8142 15.7269 92.8886 18.6171 91.3411 22.3947C91.1387 23.0113 90.8596 23.6 90.5105 24.147C89.9231 24.7676 89.2621 25.3141 88.542 25.7742C87.8191 26.3515 87.2301 27.0787 86.8156 27.9058C86.4011 28.7328 86.171 29.6399 86.1411 30.5646C86.1411 32.1234 86.619 33.7847 85.9818 35.207C85.6632 35.9239 85.0715 36.5156 84.844 37.2552C84.1271 39.4171 86.5394 41.579 86.1298 43.8206C86.0501 44.2758 85.8453 44.7081 85.7315 45.1519C85.482 46.0809 85.5832 47.0692 86.016 47.9283C86.4365 48.5264 86.7414 49.1979 86.9149 49.9081C86.8788 50.4647 86.7756 51.0148 86.6076 51.5467C86.3573 52.8779 89.3044 57.9756 90.465 58.681L124.874 58.5104C126.171 58.1973 127.339 57.4897 128.218 56.4851C129.096 55.4804 129.641 54.2281 129.778 52.9007C129.758 52.4605 129.861 52.0234 130.074 51.6377C130.336 51.3645 130.655 51.1511 131.007 51.0119C133.203 49.7944 133.43 46.7449 133.157 44.1847C133.1 43.8381 133.1 43.4845 133.157 43.1379C133.337 42.6779 133.604 42.2568 133.943 41.8976Z" fill="#263238"/>
<path d="M123.929 41.9665C123.849 38.6585 122.879 35.4332 121.121 32.6299C119.363 29.8266 116.882 27.5489 113.939 26.0365C111.163 24.7858 108.164 24.1048 105.12 24.0339C102.302 23.8081 99.4807 24.4429 97.0303 25.8544C95.1415 26.321 88.2802 32.784 88.0185 39.6908C87.7226 47.3713 87.6657 56.7586 88.7126 62.4479C90.8176 73.9062 99.6701 75.1464 99.6701 75.1464V81.5639L123.861 82.2922L123.929 41.9665Z" fill="#B78876"/>
<path d="M92.377 48.4751C92.3828 48.8596 92.5382 49.2266 92.81 49.4985C93.0819 49.7704 93.449 49.9257 93.8334 49.9316C94.0212 49.9408 94.2089 49.9126 94.3857 49.8488C94.5625 49.785 94.7249 49.6867 94.8635 49.5598C95.0021 49.4328 95.1141 49.2796 95.1932 49.1091C95.2722 48.9385 95.3167 48.754 95.324 48.5662C95.3181 48.1817 95.1628 47.8147 94.8909 47.5428C94.619 47.2709 94.252 47.1156 93.8675 47.1097C93.6794 47.099 93.4911 47.126 93.3136 47.1893C93.1361 47.2525 92.9731 47.3507 92.8342 47.4779C92.6952 47.6052 92.5832 47.759 92.5047 47.9303C92.4261 48.1016 92.3827 48.2868 92.377 48.4751Z" fill="#263238"/>
<path d="M90.9082 44.174C91.1017 44.3561 92.194 43.5027 93.787 43.4686C95.38 43.4344 96.552 44.1968 96.7227 44.0034C96.8934 43.8099 96.6089 43.571 96.0968 43.2182C95.3963 42.7552 94.5695 42.5207 93.7301 42.5469C92.9052 42.5688 92.1085 42.8517 91.4544 43.3548C90.9765 43.7758 90.8172 44.174 90.9082 44.174Z" fill="#263238"/>
<path d="M100.512 56.5083C99.668 56.2664 98.7963 56.1326 97.9182 56.1101C97.5085 56.1101 97.1216 56.0077 97.0534 55.7346C97.0084 55.3176 97.0917 54.8968 97.2923 54.5285C97.6451 53.5272 98.0206 52.4917 98.4302 51.4107C99.4698 48.7634 100.303 46.0396 100.922 43.2637C100.74 43.2637 99.3291 46.7569 97.7816 51.2287L96.7006 54.3692C96.463 54.865 96.4028 55.4273 96.53 55.9622C96.595 56.1025 96.6898 56.2271 96.8076 56.3273C96.9255 56.4274 97.0637 56.5009 97.2127 56.5425C97.4399 56.5964 97.6734 56.6193 97.9068 56.6107C98.7761 56.6914 99.6522 56.657 100.512 56.5083Z" fill="#263238"/>
<path d="M99.6247 75.1467C105.039 75.0958 110.333 73.5438 114.917 70.6636C114.917 70.6636 111.151 78.7537 99.6133 77.9572L99.6247 75.1467Z" fill="#AA6550"/>
<path d="M91.4086 38.2455C91.6817 38.621 92.8878 38.3365 94.3101 38.4161C95.7325 38.4958 96.9272 38.8485 97.223 38.4844C97.3596 38.3137 97.223 37.9382 96.6996 37.5628C96.0289 37.099 95.2389 36.8383 94.4239 36.8118C93.5934 36.7571 92.7655 36.9513 92.0458 37.3693C91.4768 37.6993 91.2379 38.0634 91.4086 38.2455Z" fill="#263238"/>
<path d="M109.763 48.4635C109.758 48.8471 109.604 49.2138 109.335 49.4872C109.066 49.7606 108.702 49.9197 108.318 49.9313C108.13 49.9436 107.942 49.9181 107.764 49.8563C107.585 49.7945 107.422 49.6976 107.282 49.5714C107.142 49.4451 107.028 49.2921 106.948 49.1214C106.868 48.9507 106.824 48.7657 106.816 48.5773C106.816 48.1938 106.966 47.8256 107.234 47.5513C107.502 47.2769 107.867 47.1184 108.25 47.1095C108.439 47.0972 108.628 47.1226 108.807 47.1843C108.985 47.246 109.15 47.3427 109.291 47.4688C109.432 47.5949 109.546 47.7478 109.627 47.9186C109.709 48.0894 109.755 48.2746 109.763 48.4635Z" fill="#263238"/>
<path d="M112.641 44.2875C112.459 44.4809 111.344 43.6389 109.763 43.6275C108.181 43.6161 106.998 44.3899 106.827 44.1964C106.656 44.003 106.941 43.7641 107.453 43.3999C108.144 42.932 108.962 42.6896 109.797 42.7058C110.618 42.7187 111.414 42.9894 112.072 43.4796C112.573 43.8551 112.732 44.1737 112.641 44.2875Z" fill="#263238"/>
<path d="M112.96 38.9626C112.641 39.3153 111.424 38.9626 109.944 38.8943C108.465 38.826 107.225 39.0991 106.941 38.7236C106.827 38.5302 107.02 38.1774 107.566 37.8361C108.319 37.4277 109.169 37.2348 110.024 37.2785C110.876 37.3039 111.704 37.568 112.414 38.0409C112.937 38.4164 113.096 38.7919 112.96 38.9626Z" fill="#263238"/>
<path d="M122.495 53.0722C122.495 52.2188 123.417 50.1706 124.259 50.0227C126.534 49.6131 130.585 49.6927 130.767 55.4275C131.018 63.2674 123.087 61.8906 123.075 61.6744C123.064 61.4582 122.563 56.0306 122.495 53.0722Z" fill="#B78876"/>
<path d="M125.148 58.7385C125.148 58.7385 125.284 58.8295 125.523 58.9319C125.849 59.0584 126.21 59.0584 126.536 58.9319C127.03 58.5921 127.425 58.1282 127.683 57.5869C127.941 57.0456 128.051 56.446 128.004 55.8483C128.005 55.1745 127.853 54.5092 127.56 53.9026C127.482 53.6591 127.344 53.4389 127.159 53.262C126.975 53.0852 126.748 52.9573 126.502 52.8899C126.343 52.8546 126.178 52.875 126.033 52.9475C125.888 53.02 125.772 53.1403 125.705 53.2882C125.614 53.5157 125.705 53.6637 125.626 53.675C125.546 53.6864 125.455 53.5499 125.512 53.2313C125.543 53.0355 125.644 52.8576 125.796 52.7306C125.9 52.6452 126.02 52.5811 126.149 52.5421C126.278 52.503 126.413 52.4898 126.547 52.5031C126.868 52.5544 127.17 52.6855 127.427 52.8843C127.683 53.0831 127.886 53.3433 128.015 53.6409C128.369 54.3106 128.552 55.0569 128.55 55.8142C128.604 56.5043 128.455 57.195 128.121 57.8015C127.788 58.408 127.284 58.9038 126.672 59.2278C126.462 59.2953 126.24 59.315 126.022 59.2855C125.803 59.2559 125.594 59.1779 125.409 59.0571C125.159 58.9661 125.114 58.7499 125.148 58.7385Z" fill="#AA6550"/>
<path d="M86.4258 40.0095C87.191 39.601 87.8235 38.9823 88.2489 38.2264C88.6742 37.4704 88.8747 36.6086 88.8267 35.7425C89.8849 36.0384 90.909 34.6047 91.5007 33.7285C92.0923 32.8524 92.8319 32.329 92.7637 31.2366C92.7305 31.0228 92.7501 30.804 92.8206 30.5994C93.0285 30.3232 93.3335 30.1361 93.674 30.076C94.5109 29.7911 95.2624 29.2998 95.8591 28.6474C96.4557 27.9951 96.8783 27.2028 97.0875 26.3438C98.7953 27.0376 100.648 27.2995 102.481 27.1062C102.903 27.6889 103.467 28.1547 104.118 28.4598C104.77 28.7649 105.489 28.8993 106.206 28.8504C106.924 28.8015 107.618 28.5708 108.222 28.1801C108.827 27.7894 109.322 27.2515 109.661 26.6169C109.939 27.0878 110.314 27.4938 110.761 27.8078C111.209 28.1218 111.718 28.3365 112.255 28.4375C113.33 28.6254 114.425 28.6599 115.509 28.5399C115.345 29.6061 115.565 30.6958 116.13 31.6149C116.695 32.5339 117.568 33.2225 118.593 33.5578C118.878 33.6375 119.196 33.7171 119.333 33.9675C119.375 34.113 119.387 34.2654 119.37 34.4159C119.352 34.5663 119.305 34.7118 119.23 34.8436C119.092 35.2986 119.047 35.7767 119.098 36.2494C119.149 36.7221 119.294 37.1798 119.526 37.595C119.757 38.0103 120.07 38.3746 120.445 38.6663C120.821 38.958 121.251 39.171 121.711 39.2927C121.419 39.5647 121.193 39.8993 121.049 40.2713C120.905 40.6433 120.848 41.0431 120.88 41.4406C120.913 41.8381 121.036 42.223 121.239 42.5663C121.442 42.9097 121.72 43.2026 122.052 43.4231C122.337 43.5938 122.712 43.7872 122.678 44.1172C122.653 44.2422 122.599 44.3594 122.519 44.4585C121.902 45.2071 121.507 46.1139 121.381 47.0756C121.332 47.5594 121.471 48.0435 121.77 48.4272C122.069 48.8108 122.504 49.0644 122.985 49.1351C122.719 49.3483 122.498 49.6118 122.334 49.9105C122.17 50.2092 122.067 50.5373 122.029 50.876C122.029 51.5588 122.746 52.2415 123.372 52.0139C123.645 51.9001 127.525 51.0467 127.696 50.8078C129.846 47.7356 126.968 44.4813 126.66 40.7491C126.277 37.0098 125.031 33.4107 123.019 30.2353C122.227 28.8779 121.259 27.6307 120.141 26.5259C118.799 25.3421 117.33 24.3116 115.76 23.4537C113.807 22.169 111.659 21.2084 109.399 20.609C105.144 19.7101 100.774 21.36 96.8827 23.2716C95.3666 23.9479 93.9501 24.8285 92.6726 25.8887C91.24 27.2576 90.0646 28.8723 89.2022 30.6563C87.7704 33.1456 86.8679 35.9037 86.551 38.7579" fill="#263238"/>
<path d="M84.8213 37.3463C84.9111 37.0417 85.0495 36.7536 85.2309 36.4929C85.3902 36.2312 85.6178 35.924 85.8226 35.5257C86.068 35.0736 86.2081 34.5718 86.2323 34.0579C86.2599 33.4083 86.2333 32.7574 86.1526 32.1122C86.0489 31.3571 86.0489 30.5915 86.1526 29.8365C86.3706 28.4483 87.0429 27.1718 88.0642 26.2067C88.4453 25.8579 88.8523 25.5383 89.2817 25.2509C89.7143 24.9648 90.0984 24.6114 90.4196 24.2041C90.7133 23.7371 90.9501 23.2367 91.125 22.7135C91.5495 21.5858 92.1697 20.542 92.957 19.6299C93.7968 18.6507 94.8116 17.8366 95.9496 17.229C96.5412 16.909 97.1672 16.657 97.8156 16.478C98.4874 16.2967 99.1794 16.2011 99.8752 16.1936C100.228 16.1936 100.581 16.1936 100.933 16.1936C101.286 16.1936 101.627 16.3073 101.98 16.3642C102.67 16.5121 103.384 16.5121 104.074 16.3642C104.768 16.2049 105.451 15.9432 106.179 15.7498C106.901 15.5387 107.639 15.3903 108.386 15.306C109.141 15.2125 109.903 15.1858 110.662 15.2264C111.431 15.275 112.194 15.4008 112.938 15.6019C114.505 15.9965 115.907 16.8767 116.943 18.1165L117.25 18.492H117.114C119.389 18.0022 121.766 18.4027 123.755 19.6111C125.745 20.8195 127.195 22.7441 127.81 24.9892L127.741 24.9096C128.692 25.3196 129.619 25.783 130.518 26.2977C131.386 26.8099 132.157 27.4726 132.793 28.2548C133.39 29.0356 133.764 29.9637 133.874 30.9402C133.992 31.8838 133.743 32.8365 133.18 33.6028V33.4776C134.26 34.5422 134.932 35.9513 135.08 37.4601C135.241 38.8085 134.987 40.1737 134.352 41.3743C134.202 41.6486 134.03 41.911 133.84 42.1595C133.658 42.4098 133.465 42.6374 133.317 42.8763C133.169 43.1098 133.08 43.375 133.055 43.65C133.038 43.9229 133.038 44.1965 133.055 44.4693C133.17 45.4559 133.17 46.4525 133.055 47.4391C132.969 48.2375 132.725 49.011 132.338 49.7148C132.047 50.2344 131.637 50.6786 131.143 51.012C130.745 51.2851 130.392 51.3989 130.199 51.5468C130.097 51.6219 130.002 51.7057 129.915 51.7971C129.984 51.6903 130.073 51.5976 130.176 51.524C130.37 51.3647 130.734 51.2396 131.109 50.9665C131.585 50.6289 131.974 50.1847 132.247 49.6693C132.625 48.9636 132.861 48.1903 132.941 47.3936C133.049 46.4142 133.049 45.4259 132.941 44.4466C132.918 44.1664 132.918 43.8847 132.941 43.6045C132.966 43.3065 133.06 43.0183 133.214 42.7625C133.374 42.5122 133.567 42.2732 133.749 42.0343C133.928 41.7932 134.088 41.5383 134.227 41.2719C134.847 40.0996 135.09 38.7642 134.921 37.4487C134.772 35.9825 134.116 34.6142 133.066 33.58V33.5231V33.4549C133.6 32.7276 133.832 31.8229 133.715 30.9288C133.606 29.9926 133.244 29.1037 132.668 28.3573C132.036 27.5859 131.264 26.9411 130.393 26.457C129.504 25.9416 128.584 25.4818 127.639 25.0802V25.0233C127.089 22.8828 125.726 21.0414 123.838 19.8916C122.871 19.2697 121.788 18.8486 120.654 18.6531C119.52 18.4576 118.359 18.4919 117.239 18.7537H117.159V18.6855L116.863 18.3213C115.858 17.1219 114.5 16.2698 112.983 15.8863C112.238 15.6916 111.476 15.5696 110.708 15.5222C109.948 15.4808 109.187 15.5036 108.432 15.5905C107.692 15.6698 106.961 15.8145 106.247 16.0229C105.542 16.2163 104.859 16.478 104.131 16.6373C103.757 16.7249 103.376 16.7744 102.993 16.7852C102.63 16.7799 102.269 16.7456 101.912 16.6828L100.865 16.5235C100.526 16.4781 100.184 16.4553 99.841 16.4553C99.1645 16.4599 98.4914 16.5517 97.8384 16.7284C97.2034 16.9047 96.5892 17.1488 96.0064 17.4566C93.8386 18.623 92.1567 20.5227 91.2616 22.8159C91.0872 23.3596 90.8383 23.8766 90.522 24.352C90.1786 24.7771 89.7672 25.1423 89.3045 25.433C88.8834 25.7136 88.484 26.0255 88.1097 26.366C87.7539 26.7032 87.444 27.0858 87.1881 27.5039C86.6959 28.2385 86.3625 29.0679 86.2095 29.9389C86.1086 30.6941 86.1086 31.4594 86.2095 32.2146C86.2836 32.8642 86.3026 33.5189 86.2664 34.1717C86.2289 34.6971 86.0816 35.2088 85.834 35.6737C85.6064 36.0719 85.3789 36.3792 85.2082 36.6409C85.0774 36.8318 84.9632 37.0335 84.8668 37.2439C84.8532 37.2787 84.838 37.3129 84.8213 37.3463Z" fill="#455A64"/>
<path d="M113.529 16.8649C113.529 16.8649 113.324 16.7511 112.938 16.5691C112.394 16.3238 111.813 16.17 111.219 16.1139C110.339 16.0233 109.45 16.1727 108.648 16.5463C107.679 17.012 106.882 17.7728 106.372 18.7196C106.214 19.0045 106.088 19.306 105.997 19.6185C105.948 19.7524 105.93 19.8954 105.944 20.0372C105.958 20.1789 106.003 20.3158 106.076 20.4378L106.27 20.6995L105.951 20.6198C105.133 20.4121 104.267 20.5347 103.539 20.9612C102.957 21.3001 102.502 21.8194 102.242 22.4404C102.066 22.8509 101.969 23.2911 101.957 23.7376C101.957 24.0562 101.957 24.2268 101.957 24.2268C101.957 24.2268 101.957 24.2268 101.957 24.1017C101.957 23.9765 101.957 23.8969 101.957 23.7376C101.941 23.2754 102.018 22.8148 102.185 22.3835C102.437 21.7179 102.906 21.1566 103.516 20.7905C104.287 20.3234 105.212 20.1803 106.088 20.3923L105.974 20.5743C105.876 20.4269 105.813 20.2586 105.791 20.0828C105.77 19.907 105.789 19.7285 105.849 19.5616C105.941 19.2276 106.075 18.9065 106.247 18.6058C106.784 17.6063 107.63 16.8079 108.659 16.3301C109.498 15.9558 110.422 15.8181 111.333 15.9318C111.946 16.0036 112.54 16.1888 113.086 16.478C113.231 16.5569 113.371 16.6443 113.507 16.7397C113.495 16.7966 113.541 16.8649 113.529 16.8649Z" fill="#455A64"/>
<path d="M126.512 25.5703C126.435 25.6776 126.343 25.7734 126.239 25.8547C125.971 26.099 125.677 26.3128 125.362 26.4919C124.889 26.7682 124.361 26.939 123.815 26.9926C123.117 27.0588 122.42 26.8642 121.858 26.4464H122.028L121.801 26.7764L121.539 27.095C121.006 27.6661 120.342 28.0995 119.605 28.358C119.008 28.5614 118.38 28.6539 117.75 28.6311C117.326 28.6059 116.908 28.5177 116.51 28.3694C116.361 28.3204 116.219 28.2515 116.089 28.1646C116.628 28.3323 117.186 28.4317 117.75 28.4604C118.359 28.4648 118.964 28.3608 119.537 28.1532C120.231 27.8906 120.857 27.4744 121.369 26.9357L121.619 26.6398L121.824 26.3326L121.903 26.2188L121.994 26.2985C122.515 26.6847 123.157 26.8705 123.804 26.8219C124.324 26.7775 124.831 26.6306 125.294 26.3895C126.022 25.9685 126.421 25.5361 126.512 25.5703Z" fill="#455A64"/>
<path d="M130.756 32.7954C130.756 32.7954 130.756 32.7954 130.756 32.9433C130.728 33.0776 130.674 33.205 130.597 33.3188C130.305 33.7563 129.858 34.0656 129.345 34.1836C128.584 34.3468 127.792 34.2794 127.07 33.9902C126.644 33.8633 126.226 33.7113 125.818 33.535C125.338 33.3546 124.935 33.0126 124.68 32.5678V32.4427H124.862C124.18 33.036 123.413 33.5232 122.586 33.8878C121.894 34.182 121.133 34.2766 120.39 34.1608C119.894 34.0841 119.425 33.8847 119.025 33.5805C118.919 33.4942 118.82 33.399 118.729 33.2961L118.649 33.1709C118.649 33.1709 118.797 33.3074 119.082 33.5009C119.479 33.7715 119.936 33.9432 120.413 34.0015C121.127 34.0823 121.849 33.9724 122.507 33.6829C123.331 33.3239 124.098 32.8445 124.782 32.2606L124.908 32.1582L124.965 32.3061V32.4085C125.185 32.7999 125.535 33.1018 125.954 33.2619C126.351 33.4402 126.758 33.596 127.172 33.7285C127.849 34.0059 128.59 34.0886 129.311 33.9674C129.79 33.869 130.218 33.6026 130.517 33.2164C130.605 33.0806 130.684 32.9401 130.756 32.7954Z" fill="#455A64"/>
<path d="M138.539 4.56543C138.539 4.56543 138.402 4.56543 138.163 4.6337C137.824 4.74371 137.524 4.94914 137.299 5.22539C136.949 5.64882 136.752 6.17814 136.741 6.72735C136.747 7.45348 136.862 8.1746 137.082 8.86653V8.99169H136.957C135.985 8.98341 135.038 9.2953 134.26 9.87922C133.82 10.1957 133.461 10.6126 133.214 11.0954C132.966 11.5783 132.838 12.1131 132.838 12.6556C132.823 13.1494 132.922 13.64 133.13 14.0884C133.337 14.5368 133.646 14.9307 134.033 15.2385L134.306 15.4433H133.965C133.41 15.47 132.866 15.6099 132.367 15.8545C131.868 16.0991 131.424 16.4432 131.063 16.8657C130.476 17.5438 130.143 18.4043 130.119 19.3007C130.096 19.8888 130.201 20.4748 130.426 21.0188C130.574 21.4057 130.699 21.5992 130.688 21.6105C130.649 21.5687 130.615 21.5229 130.585 21.474C130.492 21.3418 130.412 21.2008 130.346 21.053C130.096 20.4988 129.968 19.8973 129.971 19.2893C129.982 18.3561 130.315 17.4555 130.915 16.7405C131.301 16.2932 131.775 15.9308 132.307 15.6762C132.84 15.4216 133.42 15.2803 134.01 15.2613L133.942 15.4661C133.526 15.1376 133.192 14.7167 132.967 14.2368C132.742 13.7568 132.631 13.2311 132.645 12.7011C132.642 12.1098 132.787 11.5271 133.066 11.0057C133.349 10.5073 133.737 10.0764 134.204 9.74268C135.025 9.14108 136.019 8.82171 137.037 8.8324L136.934 8.95756C136.722 8.24901 136.619 7.51244 136.627 6.77288C136.65 6.18775 136.875 5.62867 137.264 5.19125C137.507 4.90761 137.834 4.7084 138.197 4.62233C138.292 4.60723 138.388 4.60723 138.482 4.62233L138.539 4.56543Z" fill="#455A64"/>
<path d="M152.911 21.2458L152.775 21.3255C152.695 21.3255 152.57 21.4393 152.388 21.5075C151.886 21.7154 151.357 21.8495 150.818 21.9058C149.987 21.9914 149.147 21.9101 148.348 21.6668C147.321 21.3567 146.394 20.7795 145.663 19.9942H145.845C145.486 20.6409 144.989 21.2006 144.389 21.6333C143.79 22.066 143.102 22.3611 142.375 22.4975C141.589 22.6215 140.785 22.496 140.074 22.1388C139.364 21.7816 138.784 21.2106 138.415 20.5062H138.62C138.439 21.0258 138.125 21.4888 137.709 21.8489C137.334 22.1781 136.903 22.4364 136.435 22.6112C135.673 22.8791 134.862 22.9838 134.057 22.9185C133.537 22.8802 133.02 22.808 132.509 22.7023C132.328 22.6723 132.149 22.6266 131.975 22.5657C132.158 22.5728 132.341 22.5956 132.521 22.634C133.034 22.7097 133.55 22.759 134.068 22.7819C134.842 22.8209 135.616 22.7048 136.344 22.4406C136.81 22.2751 137.235 22.0103 137.588 21.6645C137.942 21.3187 138.216 20.9002 138.392 20.4379L138.472 20.1648L138.597 20.4266C138.946 21.0822 139.491 21.6124 140.156 21.943C140.821 22.2735 141.573 22.3878 142.306 22.2699C143.001 22.1415 143.658 21.8619 144.233 21.4509C144.807 21.0399 145.283 20.5076 145.629 19.8918L145.709 19.7666L145.811 19.8804C146.506 20.6464 147.394 21.2122 148.383 21.5189C149.157 21.7694 149.972 21.8661 150.783 21.8034C151.516 21.721 152.233 21.5332 152.911 21.2458Z" fill="#455A64"/>
<path d="M144.933 32.8975C144.933 32.8975 144.933 32.8975 144.842 33.0455C144.723 33.1584 144.572 33.2302 144.409 33.2503C143.817 33.3067 143.221 33.2209 142.669 32.9999C141.739 32.6486 140.963 31.9825 140.474 31.1175C139.986 30.2526 139.816 29.2437 139.995 28.2665L140.165 28.3916C139.204 28.8921 138.107 29.0716 137.036 28.9037C136.167 28.7683 135.342 28.4333 134.624 27.9251C134.15 27.6052 133.721 27.2224 133.349 26.7872C133.203 26.6272 133.081 26.4471 132.985 26.2524C133.49 26.8529 134.072 27.3846 134.715 27.8341C135.423 28.2973 136.222 28.6038 137.059 28.733C138.084 28.8781 139.129 28.7033 140.051 28.2323L140.256 28.1185V28.3575C140.085 29.2884 140.241 30.2498 140.697 31.0791C141.153 31.9084 141.882 32.5548 142.76 32.9089C143.286 33.1395 143.858 33.2484 144.432 33.2275C144.634 33.1837 144.813 33.066 144.933 32.8975Z" fill="#455A64"/>
<path d="M121.403 5.2251C121.153 6.0075 121.049 6.82887 121.095 7.64872C121.174 8.524 121.455 9.36916 121.915 10.1179C122.505 11.0248 123.353 11.7342 124.35 12.1546C124.918 12.4053 125.527 12.5517 126.148 12.587H126.295V12.7236C125.859 14.2259 125.951 15.8327 126.557 17.275C126.647 17.5119 126.757 17.7404 126.887 17.9577C126.927 18.0403 126.986 18.1123 127.059 18.1677C127.133 18.2231 127.218 18.2603 127.308 18.2763C127.365 18.2826 127.423 18.2768 127.478 18.2591C127.533 18.2415 127.584 18.2124 127.627 18.1739C127.627 18.1739 127.684 18.0715 127.695 18.0715C127.706 18.0715 127.695 18.0715 127.695 18.1967C127.654 18.2479 127.602 18.289 127.543 18.3166C127.484 18.3443 127.419 18.3577 127.354 18.356C127.249 18.3435 127.148 18.3073 127.06 18.2502C126.971 18.193 126.896 18.1163 126.842 18.026C126.694 17.8077 126.568 17.5752 126.466 17.3319C126.173 16.6909 125.985 16.0071 125.909 15.3065C125.807 14.4291 125.876 13.5403 126.113 12.6894L126.216 12.8374C125.568 12.804 124.932 12.6536 124.338 12.3936C123.299 11.9582 122.418 11.2158 121.812 10.2658C121.334 9.48556 121.06 8.59714 121.016 7.68286C120.983 7.06885 121.052 6.45363 121.221 5.8623C121.268 5.70564 121.329 5.55336 121.403 5.40714C121.369 5.28198 121.391 5.2251 121.403 5.2251Z" fill="#455A64"/>
<path d="M99.8414 80.9153C99.8414 80.9153 98.7035 94.4558 109.274 95.4798C119.845 96.5039 124.009 86.9345 124.066 82.4627L119.026 79.3223L99.8414 80.9153Z" fill="#B78876"/>
<path d="M100.921 60.6385C101.047 60.8205 100.921 60.6954 101.104 60.8319C101.771 61.3885 102.546 61.8028 103.379 62.0494C103.77 62.1733 104.189 62.1777 104.582 62.0621C104.975 61.9466 105.325 61.7163 105.587 61.4008C105.765 61.0823 105.839 60.7165 105.801 60.3538C105.762 59.9911 105.612 59.6493 105.371 59.3755C104.856 58.768 104.142 58.3644 103.356 58.2376H103.14C102.846 58.1856 102.543 58.2023 102.256 58.2863C101.969 58.3702 101.705 58.5193 101.485 58.7218C101.265 58.9243 101.094 59.1749 100.987 59.4541C100.879 59.7332 100.837 60.0334 100.865 60.3313C100.864 60.4364 100.883 60.5407 100.921 60.6385Z" fill="#AA6550"/>
<path d="M106.543 58.8179C105.584 59.5169 104.52 60.0585 103.391 60.4223C102.322 60.9678 101.168 61.3258 99.9775 61.4805C100.936 60.7814 102 60.2398 103.129 59.8761C104.197 59.3275 105.352 58.9694 106.543 58.8179Z" fill="#263238"/>
<path d="M84.7079 84.7047L99.4318 79.8005C103.767 90.4053 117.865 88.9034 123.93 78.9585L141.476 84.9209L151.341 104.651L143.933 146.331L157.39 180H121.165H86.7333V163.24L81.3398 92.2259L84.7079 84.7047Z" fill="#FFC100"/>
<path d="M84.7076 84.7041C84.7076 84.7041 73.0105 89.5628 71.7929 102.489C71.315 107.484 67.7877 130.878 67.7877 130.878L51.2546 128.91L47.2607 142.098C47.2607 142.098 65.7509 151.735 71.463 152.987C81.3168 155.149 86.0844 149.573 86.0844 149.573L84.7076 84.7041Z" fill="#FFC100"/>
<path d="M81.5678 100.475C81.5949 100.69 81.5949 100.908 81.5678 101.124C81.5678 101.579 81.5678 102.193 81.5109 102.956C81.454 103.718 81.4426 104.731 81.5109 105.857C81.5791 106.984 81.5109 108.281 81.5109 109.703C81.5109 111.125 81.6019 112.684 81.7157 114.357C81.8295 116.03 81.9546 117.771 82.1025 119.693C82.4553 123.448 82.9104 127.556 83.4793 131.88C84.6172 140.505 85.7551 148.311 86.2216 154C86.3695 155.422 86.4605 156.708 86.5288 157.846C86.5971 158.984 86.6767 159.951 86.6995 160.747C86.7223 161.544 86.6995 162.124 86.7564 162.579C86.7835 162.795 86.7835 163.013 86.7564 163.228C86.7179 163.017 86.6913 162.804 86.6767 162.591L86.5402 160.759C86.4947 159.962 86.415 158.995 86.3012 157.857C86.1988 156.719 86.085 155.445 85.9257 154.034C85.334 148.345 84.1962 140.562 83.0583 131.925C82.4894 127.613 82.0343 123.483 81.7157 119.728C81.5791 117.839 81.4198 116.052 81.3629 114.38C81.3061 112.707 81.2264 111.137 81.215 109.703C81.2036 108.269 81.215 106.984 81.215 105.857C81.215 104.731 81.2719 103.741 81.3402 102.944C81.4084 102.148 81.4426 101.579 81.4881 101.112C81.5 100.898 81.5266 100.685 81.5678 100.475Z" fill="#263238"/>
<path d="M50.5029 102.944C50.5029 102.944 55.5436 98.0626 57.4666 98.6542C58.7778 99.119 59.9843 99.8382 61.0167 100.771C61.0167 100.771 62.9397 99.6328 63.9752 100.771C64.78 101.762 65.4744 102.838 66.046 103.979C66.046 103.979 67.878 103.718 69.3003 106.084C70.7227 108.451 74.2159 116.405 75.5244 117.736C76.8772 119.011 78.5102 119.95 80.292 120.478C82.1695 121.15 97.8833 126.452 97.8833 126.452L92.0916 140.892C92.0916 140.892 69.0045 127.385 68.1169 126.498C67.2294 125.61 60.2771 121.025 59.2417 118.203C58.2062 115.381 50.5029 106.824 50.5029 106.824V102.944Z" fill="#B78876"/>
<path d="M65.7844 108.667C65.7844 108.667 65.7844 108.884 65.5113 109.214C65.1705 109.687 64.7059 110.057 64.1686 110.283L64.2597 110.135C64.4027 111.241 64.1487 112.362 63.5428 113.298C63.3634 113.582 63.1493 113.842 62.9056 114.072C62.6326 114.346 62.2765 114.522 61.8929 114.573C61.6775 114.583 61.4637 114.532 61.2763 114.425C61.089 114.318 60.9358 114.16 60.8347 113.97C60.6464 113.618 60.534 113.23 60.5047 112.832C60.3227 111.512 60.152 110.283 60.0269 109.134C59.9423 108.543 60.0935 107.942 60.4479 107.461C60.7772 107.085 61.185 106.786 61.6426 106.585C62.2737 106.341 62.8796 106.036 63.4518 105.675C63.8273 105.402 63.9752 105.174 64.0094 105.197C64.0435 105.22 63.9297 105.47 63.5542 105.811C63.006 106.232 62.4102 106.587 61.7791 106.87C61.3784 107.064 61.0221 107.339 60.7323 107.677C60.4549 108.096 60.3489 108.605 60.4365 109.1C60.5844 110.238 60.7551 111.478 60.9371 112.775C61.0054 113.458 61.3012 114.175 61.8702 114.118C62.4383 113.953 62.9198 113.573 63.2128 113.059C63.7691 112.204 64.0216 111.186 63.9297 110.169V110.067H64.0321C64.5422 109.874 64.9987 109.562 65.3634 109.157C65.6479 108.827 65.7617 108.645 65.7844 108.667Z" fill="#AA6550"/>
<path d="M67.2529 112.946C67.2529 113.048 66.445 112.752 65.9102 111.956C65.3754 111.159 65.364 110.34 65.4778 110.329C65.5916 110.317 65.785 111 66.2743 111.706C66.7636 112.411 67.3439 112.832 67.2529 112.946Z" fill="#AA6550"/>
<path d="M66.6835 122.22C66.5469 122.22 66.6038 120.763 66.0463 119.09C65.4887 117.418 64.6239 116.269 64.7377 116.189C65.5916 116.905 66.197 117.873 66.4673 118.954C66.8774 119.993 66.9529 121.135 66.6835 122.22Z" fill="#AA6550"/>
<path d="M60.6191 110.17C60.6191 110.17 60.6191 110.431 60.4143 110.875C60.1799 111.517 59.765 112.079 59.2195 112.491C58.8121 112.786 58.308 112.916 57.8086 112.855C57.5249 112.801 57.2566 112.686 57.0226 112.516C56.7886 112.347 56.5946 112.129 56.4545 111.876C56.1586 111.358 55.9437 110.798 55.8173 110.215C55.6639 109.605 55.5536 108.986 55.4873 108.36C55.3617 107.115 55.6713 105.865 56.3635 104.822C56.9057 103.988 57.5824 103.25 58.3661 102.637C59.0261 102.114 59.595 101.738 59.9819 101.499C60.1801 101.354 60.3986 101.239 60.6305 101.158C60.6305 101.226 59.8112 101.806 58.5709 102.887C57.8398 103.506 57.2102 104.236 56.7048 105.049C56.0858 106.028 55.8096 107.185 55.9197 108.338C55.9898 108.939 56.0962 109.536 56.2383 110.124C56.3472 110.668 56.535 111.193 56.7959 111.683C56.9053 111.889 57.0571 112.07 57.2415 112.213C57.4259 112.356 57.6386 112.459 57.8655 112.514C58.2648 112.556 58.6665 112.459 59.0033 112.24C59.5269 111.88 59.9435 111.384 60.2095 110.807C60.3189 110.578 60.4565 110.364 60.6191 110.17Z" fill="#AA6550"/>
<g opacity="0.3">
<path opacity="0.3" d="M129.414 147.855C127.98 149.277 126.376 150.745 124.385 151.075C122.591 151.209 120.793 150.867 119.173 150.085L90.7269 139.276L88.4512 142.416C98.2254 150.381 110.435 157.288 122.496 160.212C124.48 160.675 126.539 160.711 128.538 160.319C130.536 159.927 132.429 159.115 134.091 157.937C136.617 156.093 138.164 153.214 139.439 150.358C142.399 143.689 144.318 136.605 145.128 129.354C140.43 135.96 135.173 142.15 129.414 147.855Z" fill="black"/>
</g>
<path d="M136.753 93.9324C136.036 94.6947 119.515 129.957 119.515 129.957L87.4612 122.788L83.8428 140.437C83.8428 140.437 112.892 153.329 120.493 155.616C125.352 157.083 128.686 156.753 133.442 152.202C138.198 147.651 150.248 118.465 151.648 112.593C152.922 107.006 157.53 92.1687 141.521 84.875L136.753 93.9324Z" fill="#FFC100"/>
<path d="M61.8133 119.386C62.07 119.293 62.3024 119.143 62.4936 118.947C62.6847 118.752 62.8298 118.517 62.9182 118.258C63.0065 118 63.0359 117.725 63.0042 117.453C62.9725 117.182 62.8806 116.921 62.735 116.69L43.7328 84.75C43.5823 84.4672 43.3414 84.2429 43.0485 84.1129C42.7556 83.983 42.4277 83.9549 42.117 84.0331L23.9682 89.0511C22.5345 89.3242 22.1362 91.7137 22.7507 92.7264L41.878 123.187C42.2971 123.686 42.8372 124.07 43.4468 124.301C44.0564 124.532 44.7151 124.603 45.3599 124.507" fill="#263238"/>
<path d="M62.4281 118.863C62.2881 118.706 62.166 118.535 62.064 118.351L61.1082 116.815L57.6263 111.126L46.2477 92.2599C45.1099 90.428 44.0744 88.5619 43.0162 86.912C42.7461 86.5789 42.3745 86.3432 41.958 86.2407C41.5543 86.1618 41.1366 86.1972 40.7519 86.3431L38.3055 87.0144L29.8512 89.2901L24.105 90.8262L22.5462 91.2131C22.369 91.2694 22.1856 91.3038 22 91.3155C22.1669 91.2322 22.3424 91.1674 22.5234 91.1221L24.0709 90.6556L29.7602 89.0057L38.2031 86.6275L40.6381 85.9335C41.0712 85.7754 41.5388 85.7361 41.9922 85.8197C42.4784 85.9433 42.9127 86.2183 43.2324 86.6048C44.3703 88.3571 45.383 90.1549 46.5095 91.9982L57.8084 110.944C59.2193 113.356 60.3799 115.313 61.222 116.712L62.1323 118.294C62.2447 118.476 62.3436 118.666 62.4281 118.863Z" fill="#455A64"/>
<path d="M35.8705 93.9777C35.866 94.1747 35.8035 94.366 35.6908 94.5276C35.5781 94.6893 35.4202 94.8141 35.2369 94.8864C35.0536 94.9587 34.853 94.9753 34.6603 94.9342C34.4676 94.893 34.2913 94.7959 34.1535 94.655C34.0158 94.5141 33.9226 94.3357 33.8858 94.1421C33.849 93.9485 33.8701 93.7483 33.9465 93.5667C34.0229 93.385 34.1512 93.23 34.3153 93.1209C34.4795 93.0119 34.6721 92.9537 34.8692 92.9536C35.0022 92.9551 35.1336 92.9828 35.2559 93.035C35.3782 93.0873 35.489 93.1632 35.582 93.2583C35.675 93.3533 35.7483 93.4658 35.7978 93.5893C35.8473 93.7127 35.872 93.8447 35.8705 93.9777Z" fill="white"/>
<path d="M36.4387 100.578C36.3363 101.203 32.24 113.617 31.6256 114.835C31.0111 116.052 31.6256 118.396 31.6256 118.396C31.6256 118.396 30.2032 121.366 32.4448 123.414C32.4448 123.414 32.6155 126.077 33.8103 126.589C34.6374 127.003 35.3607 127.598 35.9267 128.33C35.9267 128.33 42.6855 137.535 43.4024 138.457C44.6245 139.736 45.912 140.952 47.2598 142.098C47.2598 142.098 56.8064 138.628 51.7429 129.582L48.8641 127.761L49.8541 120.41C49.8541 120.41 52.2094 118.556 51.6974 117.316C51.6511 117.162 51.573 117.021 51.4682 116.9C51.3635 116.779 51.2344 116.682 51.0895 116.614C50.9445 116.546 50.7869 116.51 50.627 116.507C50.4671 116.505 50.3084 116.536 50.1613 116.599C50.1613 116.599 51.0602 114.038 48.8641 113.629L40.4326 117.702C40.4326 117.702 46.6794 111.41 45.7578 109.669C44.8361 107.928 44.4265 108.213 44.4265 108.213L36.3363 115.04C36.3363 115.04 38.3503 107.507 38.8965 105.106C39.9206 100.578 36.4387 100.578 36.4387 100.578Z" fill="#B78876"/>
<path d="M50.0476 116.997C49.6082 117.606 49.0962 118.16 48.5229 118.646C47.1942 119.874 45.7543 120.974 44.2218 121.935C42.6879 122.893 41.0691 123.708 39.3859 124.37C38.6974 124.671 37.9755 124.889 37.2354 125.018C37.886 124.657 38.5631 124.345 39.2607 124.085C40.8907 123.349 42.4717 122.509 43.9942 121.571C45.5034 120.612 46.9478 119.556 48.3181 118.408C48.8615 117.898 49.4394 117.427 50.0476 116.997Z" fill="#AA6550"/>
<path d="M44.4269 108.167C44.0328 108.758 43.5579 109.29 43.016 109.749C42.083 110.659 40.7403 111.842 39.1587 113.083C37.3365 114.658 35.3352 116.014 33.1963 117.122C33.7229 116.656 34.2777 116.223 34.8576 115.825C35.9044 115.051 37.3267 113.959 38.8856 112.73C40.4444 111.501 41.8326 110.363 42.8112 109.521C43.3154 109.03 43.8554 108.578 44.4269 108.167Z" fill="#AA6550"/>
<path d="M48.7846 118.931C48.7846 118.931 48.9325 118.749 49.2966 118.817C49.5435 118.891 49.7609 119.041 49.9182 119.245C50.0754 119.449 50.1645 119.697 50.1727 119.955C50.0966 120.681 49.7613 121.356 49.2283 121.855C48.739 122.435 48.1701 123.073 47.5556 123.71C46.5046 124.809 45.3834 125.839 44.199 126.793C43.7337 127.221 43.2132 127.585 42.6515 127.874C42.5718 127.772 44.802 125.963 47.2029 123.414C47.8174 122.777 48.3408 122.162 48.887 121.582C49.3731 121.159 49.7052 120.587 49.8314 119.955C49.834 119.751 49.7774 119.552 49.6682 119.38C49.5591 119.208 49.4023 119.072 49.2169 118.988C48.978 118.874 48.7959 118.965 48.7846 118.931Z" fill="#AA6550"/>
<path d="M47.9993 127.408C47.8969 127.476 47.4646 126.987 46.8615 126.497C46.2584 126.008 45.7236 125.678 45.7236 125.564C45.7236 125.451 46.4519 125.564 47.1118 126.156C47.7718 126.748 48.1131 127.339 47.9993 127.408Z" fill="#AA6550"/>
<path d="M48.2389 132.585C48.2958 132.585 48.2958 133.029 48.0114 133.643C47.6435 134.462 47.0045 135.129 46.2022 135.532C45.3951 135.931 44.4775 136.047 43.5965 135.862C42.9251 135.703 42.5838 135.441 42.6065 135.396C42.9545 135.428 43.3003 135.481 43.642 135.555C44.4502 135.651 45.2689 135.509 45.9969 135.145C46.725 134.781 47.3303 134.211 47.7383 133.507C48.0682 132.927 48.1706 132.574 48.2389 132.585Z" fill="#AA6550"/>
<path d="M49.0005 113.663C48.4116 114.106 47.7787 114.488 47.1116 114.801C45.9738 115.427 44.2556 116.246 42.3781 117.077C40.5007 117.907 38.7939 118.613 37.5308 119.091C36.8668 119.391 36.1726 119.62 35.46 119.773C36.0781 119.386 36.7338 119.062 37.4171 118.806L42.2074 116.667L46.9751 114.516C47.618 114.161 48.297 113.875 49.0005 113.663Z" fill="#AA6550"/>
<path d="M133.556 100.475C133.556 100.475 133.488 100.669 133.329 101.021C133.169 101.374 132.93 101.897 132.623 102.569L129.847 108.497C127.412 113.629 123.93 121.013 119.663 130.025L119.595 130.15H119.469L87.4046 123.027L87.6663 122.868C86.5284 128.557 85.2996 134.429 84.0479 140.516L83.9228 140.266L86.4488 141.404C97.3609 146.171 107.772 150.723 117.41 154.398C119.703 155.377 122.132 156.003 124.613 156.253C126.967 156.302 129.263 155.52 131.098 154.045C132.008 153.395 132.85 152.656 133.613 151.838C133.983 151.447 134.319 151.025 134.614 150.575C134.91 150.12 135.24 149.699 135.502 149.244C136.048 148.322 136.571 147.434 137.049 146.524C137.527 145.614 137.982 144.749 138.415 143.873C141.828 136.875 144.241 131.015 145.925 126.987L147.825 122.333L148.314 121.127C148.428 120.854 148.496 120.718 148.496 120.718L148.36 121.139L147.904 122.367C147.495 123.448 146.892 125.03 146.084 127.055C144.445 131.106 142.113 136.978 138.699 144.01C138.267 144.886 137.823 145.785 137.334 146.683C136.845 147.582 136.332 148.493 135.786 149.414C135.525 149.881 135.195 150.313 134.899 150.78C134.59 151.244 134.244 151.682 133.863 152.088C133.088 152.926 132.235 153.688 131.315 154.364C130.37 155.082 129.328 155.66 128.22 156.082C127.065 156.516 125.834 156.714 124.601 156.662C122.074 156.416 119.6 155.787 117.262 154.796C107.602 151.133 97.1902 146.592 86.2781 141.825L83.7521 140.687L83.5928 140.607V140.437C84.833 134.36 86.0505 128.444 87.2112 122.788V122.572L87.416 122.629L119.458 129.832L119.265 129.923L129.596 108.451C130.825 105.925 131.781 103.9 132.452 102.569C132.771 101.909 133.033 101.431 133.203 101.044L133.556 100.475Z" fill="#263238"/>
<path d="M146.059 153.886C145.821 154.154 145.554 154.394 145.263 154.603C144.74 155.047 143.943 155.65 142.93 156.344C137.601 159.983 131.517 162.368 125.134 163.319C123.917 163.49 122.927 163.592 122.233 163.615C121.878 163.662 121.518 163.662 121.163 163.615C121.51 163.523 121.864 163.462 122.221 163.433C122.904 163.353 123.883 163.205 125.089 163C128.225 162.436 131.3 161.571 134.271 160.418C137.235 159.248 140.078 157.792 142.76 156.071C143.784 155.411 144.603 154.853 145.161 154.455C145.438 154.232 145.739 154.041 146.059 153.886Z" fill="#263238"/>
<path d="M74.7506 147.344C74.6709 147.344 74.8871 146.263 74.8757 144.522C74.8652 143.503 74.77 142.487 74.5913 141.484C74.3581 140.264 74.0154 139.069 73.5672 137.911C73.083 136.761 72.4965 135.656 71.8149 134.611C71.2466 133.768 70.6112 132.973 69.9147 132.233C68.7086 130.981 67.8097 130.367 67.8552 130.299C67.9007 130.23 68.1055 130.412 68.5151 130.685C68.7681 130.848 69.0078 131.031 69.232 131.232C69.5466 131.476 69.8468 131.738 70.1309 132.017C70.882 132.737 71.5604 133.53 72.1563 134.383C72.8757 135.456 73.482 136.6 73.9655 137.797C74.4353 138.983 74.7786 140.215 74.9895 141.472C75.1592 142.499 75.2241 143.539 75.183 144.579C75.1789 144.978 75.1485 145.378 75.0919 145.773C75.0663 146.072 75.0207 146.369 74.9554 146.661C74.853 147.093 74.7847 147.355 74.7506 147.344Z" fill="#263238"/>
<path d="M78.051 142.974C77.9714 142.974 77.8348 142.132 77.4138 140.823C76.3125 137.388 74.1837 134.374 71.3149 132.187C70.177 131.345 69.4602 130.935 69.4943 130.867C69.6946 130.907 69.8868 130.98 70.0633 131.083C70.5604 131.33 71.0395 131.611 71.4969 131.925C73.0086 132.975 74.3256 134.28 75.3884 135.783C76.4329 137.286 77.2033 138.961 77.6641 140.732C77.8157 141.269 77.9222 141.817 77.9827 142.371C78.0404 142.566 78.0635 142.771 78.051 142.974Z" fill="#263238"/>
<path d="M145.856 157.288C145.856 157.288 145.697 157.504 145.355 157.846C145.014 158.187 144.502 158.654 143.853 159.211C142.161 160.666 140.375 162.008 138.506 163.228C136.639 164.446 134.697 165.544 132.691 166.516C131.917 166.88 131.28 167.165 130.836 167.335C130.615 167.449 130.377 167.526 130.131 167.563C130.915 167.077 131.724 166.633 132.555 166.232C134.045 165.435 136.093 164.275 138.244 162.818C140.394 161.362 142.306 159.985 143.637 158.938C144.343 158.344 145.084 157.794 145.856 157.288Z" fill="#263238"/>
</svg>
