<svg width="180" height="180" viewBox="0 0 180 180" fill="none" xmlns="http://www.w3.org/2000/svg">
<path d="M73.6882 87.8298C70.5296 84.7378 66.4485 80.9975 61.6276 82.3357C57.081 83.5908 55.3438 88.5447 54.5292 92.6757C53.4819 97.9953 52.6674 103.373 51.8279 108.734C50.9884 114.095 50.1655 119.54 49.3925 124.984C48.9492 128.043 48.5142 131.104 48.0875 134.169C47.8714 135.698 47.6636 137.227 47.4475 138.757C47.2314 140.286 46.9903 141.757 46.9072 143.279C46.9129 143.379 46.9538 143.474 47.0228 143.546C47.0918 143.619 47.1844 143.665 47.2841 143.676C47.3838 143.687 47.4842 143.662 47.5674 143.606C47.6506 143.55 47.7112 143.466 47.7384 143.37C48.3202 140.818 48.5696 138.158 48.9353 135.565C49.3011 132.972 49.6917 130.354 50.0741 127.752C50.8327 122.576 51.6057 117.401 52.3931 112.225C53.1805 107.05 53.984 101.877 54.8035 96.707C55.51 92.3266 55.8342 86.8823 59.7242 83.9897C60.7762 83.2654 61.9961 82.8225 63.2678 82.7032C64.5394 82.5839 65.8204 82.7922 66.9888 83.3082C69.5488 84.2807 71.5936 86.1176 73.5884 87.9296C73.6632 87.9878 73.763 87.888 73.6882 87.8298Z" fill="#263238"/>
<path d="M69.3648 84.6713C69.3648 84.6713 62.9148 82.344 59.7313 87.0569C56.5479 91.7697 60.3547 103.747 89.7373 110.505C88.8755 101.307 86.4848 92.3175 82.6639 83.9066C76.3634 70.2086 65.1424 75.4036 69.3648 84.6713Z" fill="#FFC727"/>
<path d="M88.0506 108.568C87.6019 107.746 87.108 106.95 86.5711 106.182C86.0807 105.426 85.582 104.678 85.0833 103.922C84.7009 103.356 84.3186 102.8 83.9279 102.259C83.9561 102.119 83.9755 101.978 83.9861 101.835L84.0859 101.079C84.1524 100.522 84.2355 99.9735 84.3186 99.4166C84.4017 98.8597 84.4931 98.3194 84.5929 97.7542C84.6629 97.166 84.7938 96.5866 84.9835 96.0254C84.9835 95.9339 84.8589 95.8924 84.8505 96.0254C84.7789 96.3339 84.6845 96.6368 84.5679 96.9314C84.4931 97.1807 84.435 97.4301 84.3685 97.6794C84.2272 98.2363 84.0858 98.7932 83.9612 99.3418C83.8365 99.8904 83.7534 100.372 83.662 100.896C83.6204 101.145 83.5788 101.403 83.5456 101.653C83.0219 100.904 82.49 100.165 81.9414 99.4415C80.3787 97.3802 78.7247 95.402 77.0208 93.4736V93.4237C77.1704 90.3317 77.0955 87.2812 77.7854 84.2391C77.7854 84.156 77.6774 84.1144 77.6608 84.2391C76.8862 87.102 76.5169 90.0593 76.5636 93.0247C75.9485 92.3349 75.3334 91.6616 74.7017 90.9883C73.2721 89.4423 71.8147 87.9296 70.3297 86.4501C70.3237 86.4435 70.3164 86.4382 70.3084 86.4344C70.3003 86.4307 70.2916 86.4286 70.2827 86.4282C70.2648 86.4274 70.2473 86.4338 70.2341 86.4459C70.2209 86.458 70.213 86.4749 70.2122 86.4928C70.2114 86.5108 70.2178 86.5282 70.2299 86.5415C72.7235 89.2013 75.0591 91.9775 77.3449 94.8035C75.5528 94.7785 73.7607 94.8451 71.9754 95.003C69.9806 95.1526 68.0023 95.4103 66.0241 95.6846C65.941 95.6846 65.9659 95.8259 66.0241 95.8092C67.9944 95.5282 69.9782 95.3506 71.9671 95.2773C73.8872 95.2025 75.7906 95.2773 77.7023 95.2773C78.9408 96.815 80.1959 98.361 81.3762 99.9153H79.7471C78.8577 99.9153 77.96 99.9901 77.0706 100.065C75.2477 100.221 73.4372 100.499 71.6512 100.896C71.6336 100.896 71.6167 100.903 71.6042 100.916C71.5918 100.928 71.5848 100.945 71.5848 100.963C71.5848 100.98 71.5918 100.997 71.6042 101.01C71.6167 101.022 71.6336 101.029 71.6512 101.029V101.029C73.4549 100.821 75.2586 100.655 77.0789 100.589H81.0271C81.2756 100.619 81.5277 100.596 81.7668 100.522C82.5648 101.547 83.3544 102.575 84.1357 103.606C84.7591 104.437 85.3742 105.268 85.981 106.099C86.5877 106.931 87.153 107.886 87.8428 108.684C87.8583 108.712 87.884 108.732 87.9144 108.741C87.9448 108.749 87.9774 108.746 88.0049 108.73C88.0325 108.715 88.0528 108.689 88.0613 108.659C88.0699 108.628 88.0661 108.596 88.0506 108.568V108.568Z" fill="#263238"/>
<path d="M72.1741 91.3457C71.1322 91.2142 70.0819 91.1614 69.0322 91.1878C67.9849 91.1878 66.9376 91.1877 65.8903 91.2626C65.874 91.2573 65.8564 91.2585 65.841 91.2657C65.8256 91.273 65.8135 91.2858 65.8071 91.3016C65.8017 91.3178 65.8028 91.3355 65.81 91.351C65.8173 91.3665 65.8303 91.3786 65.8462 91.3847C65.8612 91.3906 65.8778 91.3906 65.8928 91.3847C66.9567 91.3099 68.0206 91.2933 69.0845 91.3099C70.1484 91.3266 71.1376 91.418 72.1683 91.3931C72.2073 91.3956 72.2156 91.3457 72.1741 91.3457Z" fill="#263238"/>
<path d="M81.4013 93.7147C81.526 92.709 81.6506 91.7032 81.8584 90.7141C81.8646 90.6975 81.864 90.6793 81.8566 90.6632C81.8493 90.6471 81.8359 90.6346 81.8194 90.6285C81.8028 90.6223 81.7845 90.6229 81.7685 90.6303C81.7524 90.6376 81.7399 90.651 81.7338 90.6675C81.7279 90.6825 81.7279 90.6991 81.7338 90.7141C81.5841 91.6949 81.393 92.6757 81.2434 93.6648C81.1686 94.1635 81.1021 94.6539 81.0439 95.1526C80.9571 95.6158 80.9153 96.0862 80.9192 96.5573C80.9192 96.6405 81.0688 96.6488 81.0938 96.5573C81.1855 96.0973 81.2356 95.63 81.2434 95.161C81.2932 94.6622 81.3431 94.1885 81.4013 93.7147Z" fill="#263238"/>
<path d="M79.4733 82.5933C79.2156 83.5658 78.9579 84.5549 78.7751 85.5524C78.6837 86.0594 78.6088 86.5664 78.5424 87.0735C78.4473 87.5605 78.4138 88.0576 78.4426 88.553C78.4426 88.5945 78.5091 88.5945 78.5174 88.553C78.6364 88.0897 78.7143 87.6169 78.7502 87.14C78.8166 86.6496 78.8914 86.1591 78.9746 85.6771C79.1491 84.6547 79.332 83.6406 79.598 82.6266C79.5813 82.5601 79.4899 82.5102 79.4733 82.5933Z" fill="#263238"/>
<path d="M41.2044 142.19C41.0443 140.338 40.8642 138.49 40.6642 136.646C40.2818 132.98 39.833 129.331 39.3426 125.682C38.8522 122.033 38.3867 118.401 37.8049 114.777C37.5837 113.084 37.2081 111.415 36.6828 109.79C36.4899 109.1 36.1428 108.463 35.6676 107.928C35.1924 107.392 34.6016 106.972 33.9398 106.698C30.4821 105.501 28.1215 109.092 26.75 111.627C26.7085 111.702 26.8248 111.76 26.8664 111.693C27.6976 110.488 30.0166 107.113 32.6349 107.271C34.4053 107.379 35.8183 108.626 36.6661 113.031C38.769 123.995 40.6725 146.279 40.8969 147.7C41.0133 148.473 41.5619 148.44 41.5619 147.609C41.5785 145.822 41.3457 144.002 41.2044 142.19Z" fill="#263238"/>
<path d="M27.6902 110.297C27.6902 110.297 30.7075 99.6245 24.0247 104.961C12.9117 113.846 12.5127 133.163 12.5127 133.163C12.5127 133.163 32.2784 121.676 34.7387 114.104C38.4043 102.825 27.6902 110.297 27.6902 110.297Z" fill="#FFC727"/>
<path d="M31.4295 115.534C29.8752 115.849 28.3043 116.057 26.7333 116.282L24.514 116.589C24.0153 116.664 23.5083 116.706 23.0013 116.772C24.4725 114.744 25.9603 112.724 27.365 110.654C27.4232 110.571 27.2985 110.488 27.2403 110.555C26.0619 111.764 24.9519 113.037 23.9156 114.37L23.0595 111.893C22.6979 110.945 22.3845 109.98 22.1202 109C22.1202 108.917 21.9706 109 21.9872 109.042C22.2615 110.014 22.4527 111.012 22.7103 111.993C22.968 112.973 23.2506 113.879 23.5914 114.802C22.86 115.741 22.1701 116.697 21.4968 117.678C21.156 116.714 20.7321 115.775 20.4329 114.794C20.4256 114.78 20.4135 114.769 20.3988 114.763C20.3842 114.757 20.3678 114.756 20.3527 114.761C20.3377 114.766 20.3249 114.776 20.3168 114.79C20.3086 114.804 20.3056 114.82 20.3082 114.835C20.6656 115.916 20.8485 117.046 21.1893 118.16C20.7321 118.825 20.275 119.482 19.8428 120.155C19.0116 121.385 18.2967 122.649 17.557 123.912C17.5003 123.935 17.4527 123.976 17.4212 124.028C17.3897 124.081 17.3761 124.142 17.3824 124.203C16.1357 126.364 14.947 128.558 13.7751 130.769C13.7696 130.777 13.7659 130.786 13.764 130.795C13.7622 130.804 13.7623 130.814 13.7643 130.823C13.7663 130.832 13.7702 130.841 13.7758 130.848C13.7814 130.856 13.7885 130.862 13.7966 130.867C13.8048 130.871 13.8138 130.874 13.8231 130.875C13.8325 130.876 13.8419 130.875 13.8508 130.872C13.8598 130.869 13.868 130.865 13.875 130.858C13.882 130.852 13.8876 130.844 13.8914 130.836C15.0634 128.65 16.385 126.522 17.7315 124.436C17.9417 124.368 18.1594 124.326 18.3799 124.311L19.0614 124.161C19.5768 124.045 20.0838 123.912 20.5908 123.787C21.5882 123.538 22.5857 123.305 23.5997 123.131C23.6828 123.131 23.6496 122.989 23.5997 123.006C22.4028 123.23 21.1976 123.363 19.9924 123.505C19.4188 123.571 18.8536 123.646 18.2801 123.737H18.197C18.9118 122.629 19.6322 121.56 20.3581 120.529C21.0812 119.482 21.821 118.459 22.5607 117.429C23.2423 117.337 23.9239 117.154 24.6055 117.021L26.8995 116.581C28.4289 116.273 29.95 115.933 31.4877 115.675C31.5459 115.65 31.5127 115.517 31.4295 115.534Z" fill="#263238"/>
<path d="M19.5528 116.589C19.453 116.306 19.3699 116.015 19.2785 115.758C19.0987 115.17 18.9488 114.574 18.8296 113.971C18.8296 113.887 18.68 113.929 18.705 113.971C18.8296 114.569 18.9709 115.176 19.1122 115.774C19.2334 116.378 19.4058 116.97 19.6276 117.545C19.6376 117.573 19.6581 117.596 19.6848 117.61C19.7116 117.624 19.7425 117.626 19.7713 117.618C19.8001 117.609 19.8245 117.59 19.8395 117.564C19.8545 117.538 19.859 117.507 19.852 117.478V117.478C19.7356 117.187 19.6442 116.88 19.5528 116.589Z" fill="#263238"/>
<path d="M33.4502 113.065C32.5525 113.198 31.6382 113.264 30.7322 113.339C29.8262 113.414 28.9202 113.547 28.0142 113.68C28.0032 113.68 27.9926 113.684 27.9848 113.692C27.977 113.7 27.9727 113.71 27.9727 113.721C27.9727 113.733 27.977 113.743 27.9848 113.751C27.9926 113.759 28.0032 113.763 28.0142 113.763C28.9285 113.697 29.8345 113.63 30.7405 113.514C31.6465 113.397 32.5442 113.256 33.4502 113.198C33.5416 113.19 33.5333 113.048 33.4502 113.065Z" fill="#263238"/>
<path d="M55.7503 128.683C55.4012 120.828 54.9191 112.982 54.0879 105.16C53.6972 101.262 53.2567 97.3636 52.7081 93.5235C52.2285 89.7008 51.487 85.9155 50.4889 82.1944C49.7941 79.3112 48.5154 76.6011 46.7319 74.2316C45.8521 73.0779 44.693 72.1672 43.3638 71.5855C42.0347 71.0038 40.5792 70.7702 39.1348 70.9068C35.6937 71.3308 32.9258 73.5002 30.532 75.8524C27.8472 78.4956 25.3869 81.3715 22.8933 84.1643L21.0232 86.3254C20.965 86.3836 21.0232 86.475 21.1229 86.4169C23.55 83.613 26.0851 80.9088 28.7283 78.3044C31.172 75.9106 33.7154 73.3173 37.0402 72.2949C38.6108 71.7915 40.2931 71.7511 41.886 72.1786C43.1571 72.5811 44.3024 73.3055 45.2108 74.2815C47.0171 76.3702 48.2969 78.8612 48.9428 81.5461C51.0624 88.7691 51.8188 96.3413 52.6001 103.797C53.3814 111.253 53.9383 118.966 54.3206 126.572C54.703 134.177 55.0022 141.882 55.7337 149.504C55.8251 150.452 55.9498 151.383 56.0661 152.322C56.1492 152.954 57.1301 152.954 57.0719 152.322C56.4651 144.459 56.1077 136.579 55.7503 128.683Z" fill="#263238"/>
<path d="M30.0917 76.7085C30.0917 76.7085 34.5801 68.3966 29.2605 65.7451C23.9408 63.0936 6.21987 82.8842 1 111.843C1 111.843 29.6595 99.1672 39.3844 86.5331C49.1093 73.899 38.1376 71.1146 30.0917 76.7085Z" fill="#FFC727"/>
<path d="M34.3058 83.4659C31.0808 83.4659 27.8724 83.2166 24.6474 83.2415C25.2541 82.5516 25.8526 81.8534 26.4677 81.1718C27.3562 80.247 28.1889 79.27 28.9612 78.246C29.0028 78.1795 28.903 78.0798 28.8449 78.138C27.9692 78.8891 27.1522 79.706 26.4012 80.5817C25.57 81.4129 24.797 82.2939 23.999 83.1584C22.7689 84.4883 21.5553 85.8431 20.3584 87.198V85.1449C20.3584 84.0478 20.3584 82.9589 20.4 81.87C20.4 79.6508 20.4 77.4232 20.5662 75.2205C20.5662 75.1291 20.4415 75.1374 20.4332 75.2205C20.2753 77.4398 20.0509 79.6508 19.9428 81.87C19.8846 82.9589 19.8597 84.0561 19.8514 85.1449V87.7549L19.2779 88.3866C16.7095 91.3207 14.2907 94.3628 11.8886 97.4549C11.8958 97.282 11.8818 97.109 11.847 96.9395C11.8288 96.5967 11.7899 96.2553 11.7307 95.9171C11.6475 95.1774 11.5478 94.4459 11.4397 93.7062C11.3317 92.9664 11.2236 92.3264 11.1073 91.6365C10.9909 90.9466 10.7914 90.0822 10.7332 89.3009C10.7332 89.2832 10.7262 89.2663 10.7138 89.2539C10.7013 89.2414 10.6844 89.2344 10.6667 89.2344C10.6491 89.2344 10.6322 89.2414 10.6197 89.2539C10.6072 89.2663 10.6003 89.2832 10.6003 89.3009C10.7391 90.0813 10.8279 90.8697 10.8662 91.6615L11.0657 93.7893C11.1322 94.4958 11.1904 95.2023 11.2652 95.9171C11.2806 96.257 11.3167 96.5957 11.3733 96.9312C11.3638 97.105 11.3834 97.2792 11.4314 97.4465C11.4488 97.5909 11.497 97.7297 11.5727 97.8538L10.3426 99.4497C8.68021 101.602 7.12587 103.78 5.52999 105.95C5.48012 106.016 5.57154 106.108 5.62973 106.041C7.13418 104.071 8.6885 102.134 10.2678 100.223C11.448 100.273 12.645 100.223 13.8253 100.173C15.0056 100.123 16.3188 100.173 17.5573 100.173C17.5749 100.173 17.5918 100.166 17.6043 100.153C17.6168 100.141 17.6238 100.124 17.6238 100.106C17.6238 100.089 17.6168 100.072 17.6043 100.059C17.5918 100.047 17.5749 100.04 17.5573 100.04H13.8336C12.6034 100.04 11.5478 99.99 10.4091 100.04C11.7972 98.3775 13.1936 96.7151 14.565 95.0112C15.0804 94.4044 15.5957 93.7976 16.1027 93.1825C16.579 93.249 17.0609 93.2657 17.5407 93.2324H19.203C20.267 93.2324 21.3226 93.2324 22.3782 93.1908C24.5642 93.1908 26.7586 93.0828 28.9446 93.0745C28.9622 93.0745 28.9792 93.0675 28.9916 93.055C29.0041 93.0425 29.0111 93.0256 29.0111 93.008C29.0111 92.9903 29.0041 92.9734 28.9916 92.961C28.9792 92.9485 28.9622 92.9415 28.9446 92.9415C26.7586 92.9415 24.5725 92.8251 22.3782 92.7669L19.203 92.6921H16.5599C17.7651 91.2625 18.962 89.8328 20.1672 88.4115C20.1832 88.4049 20.1976 88.3947 20.2091 88.3817C20.2206 88.3688 20.229 88.3534 20.2337 88.3367C21.414 86.9486 22.586 85.5605 23.7746 84.1808L24.265 83.6238C27.5898 83.7236 30.9145 83.5075 34.2393 83.574C34.253 83.5774 34.2675 83.5764 34.2806 83.5711C34.2937 83.5658 34.3048 83.5564 34.3122 83.5443C34.3196 83.5323 34.323 83.5182 34.3218 83.5041C34.3207 83.49 34.3151 83.4766 34.3058 83.4659Z" fill="#263238"/>
<path d="M32.6598 89.1599H31.8785C31.863 89.1599 31.8483 89.166 31.8374 89.177C31.8264 89.1879 31.8203 89.2027 31.8203 89.2181C31.8203 89.2335 31.8264 89.2483 31.8374 89.2592C31.8483 89.2702 31.863 89.2763 31.8785 89.2763H32.6598C32.6675 89.2721 32.6744 89.2664 32.6799 89.2596C32.6854 89.2528 32.6894 89.2449 32.6918 89.2364C32.6942 89.228 32.6949 89.2191 32.6938 89.2104C32.6928 89.2017 32.69 89.1933 32.6856 89.1857C32.6797 89.1748 32.6707 89.1658 32.6598 89.1599V89.1599Z" fill="#263238"/>
<path d="M30.9223 89.1681C29.8916 89.1681 28.8609 89.168 27.8302 89.1016L26.2759 89.0517C25.7984 88.9935 25.3155 88.9935 24.838 89.0517C24.8248 89.0517 24.812 89.0569 24.8027 89.0663C24.7933 89.0756 24.7881 89.0883 24.7881 89.1016C24.7881 89.1148 24.7933 89.1275 24.8027 89.1368C24.812 89.1462 24.8248 89.1514 24.838 89.1514C25.3109 89.2473 25.7943 89.2808 26.2759 89.2512H30.914C30.9247 89.2404 30.9313 89.2262 30.9328 89.2111C30.9343 89.196 30.9306 89.1808 30.9223 89.1681V89.1681Z" fill="#263238"/>
<path d="M21.9128 98.8348C19.8183 98.4901 17.7014 98.2984 15.5791 98.2612V98.3111C17.682 98.5106 19.7932 98.627 21.8795 98.9677C21.9626 98.9761 21.9959 98.8514 21.9128 98.8348Z" fill="#263238"/>
<path d="M13.3017 89.6167C13.2919 89.4326 13.2697 89.2493 13.2352 89.0682C13.177 88.6526 13.1189 88.237 13.0524 87.8214C12.9277 87.0401 12.7864 86.2504 12.6368 85.4691C12.6368 85.3943 12.5038 85.4192 12.5121 85.4691C12.6118 86.3003 12.695 87.0899 12.7698 87.8962C12.8113 88.2951 12.8363 88.7274 12.8778 89.0931C12.8627 89.479 12.9162 89.8646 13.0357 90.2318C13.0458 90.2488 13.059 90.2635 13.0748 90.2753C13.0905 90.2871 13.1084 90.2957 13.1275 90.3006C13.1466 90.3055 13.1664 90.3065 13.1859 90.3037C13.2054 90.3009 13.2241 90.2942 13.2411 90.2842C13.2583 90.274 13.2734 90.2605 13.2852 90.2443C13.2971 90.2282 13.3055 90.2098 13.31 90.1903C13.3455 90.0004 13.3427 89.8055 13.3017 89.6167Z" fill="#263238"/>
<path d="M55.4761 66.0443C54.4538 64.1408 53.1488 61.614 50.5887 61.7803C48.4775 61.9132 47.5216 64.066 47.0728 65.8531C45.6764 71.3639 45.5767 77.1822 45.3024 82.8343C44.7288 94.7785 44.2135 106.731 44.1387 118.692V128.666C44.1387 131.991 44.1387 135.449 44.3797 138.823C44.3797 138.889 44.406 138.953 44.4528 139C44.4995 139.046 44.563 139.073 44.6291 139.073C44.6952 139.073 44.7587 139.046 44.8054 139C44.8522 138.953 44.8784 138.889 44.8784 138.823C44.8784 135.939 44.7953 133.005 44.7787 130.154C44.7621 127.303 44.7787 124.502 44.8369 121.684C44.9305 115.966 45.0829 110.252 45.294 104.545C45.5018 98.8596 45.7512 93.1909 45.9922 87.5139C46.1169 84.6712 46.2333 81.8369 46.3663 79.0025C46.4993 76.1681 46.6073 73.5 46.9232 70.7654C47.0977 69.236 47.3221 67.7066 47.638 66.1939C47.8012 65.0756 48.2571 64.0203 48.9596 63.1351C49.4488 62.6525 50.0939 62.3599 50.7793 62.3096C51.4647 62.2594 52.1455 62.4547 52.6999 62.8608C53.8668 63.7103 54.7829 64.8589 55.3514 66.1856C55.3845 66.1782 55.4143 66.1605 55.4367 66.1351C55.4591 66.1098 55.4729 66.0779 55.4761 66.0443V66.0443Z" fill="#263238"/>
<path d="M54.7789 65.1386C54.7789 65.1386 52.676 57.7077 57.3223 61.4231C65.069 67.6072 65.3433 81.0642 65.3433 81.0642C65.3433 81.0642 51.5788 73.0681 49.8665 67.7651C47.3148 59.9353 54.7789 65.1386 54.7789 65.1386Z" fill="#FFC727"/>
<path d="M62.4499 75.5448L62.0593 74.9381C62.0759 74.7278 62.0759 74.5166 62.0593 74.3064V73.3422C62.0593 72.7188 62.1008 72.0871 62.1258 71.4637C62.1258 71.3722 62.0011 71.3806 61.9928 71.4637C61.9928 72.0788 61.9429 72.6938 61.9263 73.3089V74.6305C61.386 73.7993 60.8374 72.9682 60.2639 72.137L59.7486 71.4387C59.6683 70.6322 59.6544 69.8205 59.707 69.0117C59.707 68.1472 59.7236 67.2828 59.7569 66.4184C59.7569 66.4102 59.7553 66.4021 59.7521 66.3945C59.749 66.3869 59.7444 66.3801 59.7386 66.3743C59.7328 66.3685 59.726 66.3639 59.7184 66.3608C59.7108 66.3576 59.7027 66.356 59.6945 66.356C59.6864 66.356 59.6782 66.3576 59.6707 66.3608C59.6631 66.3639 59.6563 66.3685 59.6505 66.3743C59.6447 66.3801 59.6401 66.3869 59.6369 66.3945C59.6338 66.4021 59.6322 66.4102 59.6322 66.4184C59.6322 67.3244 59.5574 68.2221 59.5158 69.1197C59.4632 69.7583 59.4438 70.3992 59.4577 71.0398C58.1278 69.2278 56.723 67.4906 55.3017 65.7534C55.2907 65.7391 55.2744 65.7297 55.2565 65.7274C55.2386 65.725 55.2204 65.7299 55.2061 65.7409C55.1918 65.752 55.1824 65.7682 55.1801 65.7862C55.1777 65.8041 55.1826 65.8222 55.1936 65.8365C56.083 66.9586 56.9308 68.1057 57.762 69.261C56.0996 68.887 54.4954 68.6709 52.8497 68.4298C52.7583 68.4298 52.7333 68.5462 52.8497 68.5628C54.5869 68.8205 56.2991 69.261 58.0197 69.6434C58.6846 70.5743 59.333 71.5053 59.9813 72.4445C60.2473 72.8185 60.5049 73.2092 60.7626 73.5915H60.6878L60.1559 73.5167L59.0088 73.4087C58.1776 73.3505 57.4212 73.3089 56.6233 73.2674C56.5402 73.2674 56.5402 73.3921 56.6233 73.4004C57.4069 73.4113 58.1893 73.464 58.9673 73.5583L60.1974 73.7079L60.7377 73.7744H60.8956L62.1258 75.736C62.9071 76.883 63.597 78.1215 64.4282 79.227C64.4348 79.2328 64.4424 79.2371 64.4507 79.2399C64.459 79.2427 64.4678 79.2438 64.4765 79.2432C64.4852 79.2426 64.4937 79.2402 64.5016 79.2363C64.5094 79.2324 64.5164 79.227 64.5221 79.2203C64.529 79.2122 64.5338 79.2025 64.5363 79.1921C64.5387 79.1817 64.5387 79.1709 64.5362 79.1605C63.9086 77.9174 63.2121 76.7103 62.4499 75.5448V75.5448Z" fill="#263238"/>
<path d="M59.017 67.1498V66.3186C59.0003 65.7108 59.0253 65.1026 59.0918 64.4983C59.0933 64.4887 59.0927 64.4788 59.0901 64.4695C59.0874 64.4601 59.0828 64.4514 59.0765 64.444C59.0701 64.4366 59.0623 64.4307 59.0535 64.4266C59.0446 64.4225 59.035 64.4204 59.0253 64.4204C59.0155 64.4204 59.0059 64.4225 58.9971 64.4266C58.9882 64.4307 58.9804 64.4366 58.9741 64.444C58.9677 64.4514 58.9631 64.4601 58.9605 64.4695C58.9578 64.4788 58.9572 64.4887 58.9588 64.4983C58.9588 65.0967 58.8923 65.7035 58.8673 66.302V67.6236C58.8424 67.7665 58.8424 67.9128 58.8673 68.0558C58.8673 68.114 58.9588 68.1057 58.9837 68.0558C59.0045 67.9264 59.0045 67.7945 58.9837 67.6651C59.0093 67.4946 59.0205 67.3222 59.017 67.1498V67.1498Z" fill="#263238"/>
<path d="M57.3218 70.2336C56.8065 70.1422 56.2828 70.1172 55.7675 70.0757C55.2522 70.0341 54.6288 69.9759 54.0636 69.9011C54.0459 69.9011 54.029 69.9081 54.0166 69.9206C54.0041 69.933 53.9971 69.95 53.9971 69.9676C53.9971 69.9852 54.0041 70.0022 54.0166 70.0146C54.029 70.0271 54.0459 70.0341 54.0636 70.0341V70.0341C55.1524 70.1006 56.233 70.3001 57.3218 70.3333C57.3634 70.3333 57.38 70.2419 57.3218 70.2336Z" fill="#263238"/>
<path d="M61.6431 70.2748C61.6847 70.333 61.6431 70.4909 61.6431 70.5574V71.8375C61.6098 71.988 61.6098 72.144 61.6431 72.2946H61.693C61.7096 72.2235 61.7096 72.1496 61.693 72.0785V70.2748C61.693 70.2166 61.5517 70.1501 61.6431 70.2748Z" fill="#263238"/>
<path d="M55.7915 105.709C52.8906 103.531 50.289 100.406 46.399 100.256C43.1823 100.131 40.9298 102.55 39.6414 105.243C38.9921 106.676 38.4638 108.161 38.0622 109.682C37.4803 111.718 36.9401 113.763 36.3998 115.816C35.394 119.856 34.5213 123.928 33.8231 128.034C33.4324 130.32 33.0667 132.614 32.7758 134.917C32.4061 137.25 32.1813 139.604 32.1025 141.965C32.108 142.051 32.1433 142.131 32.2023 142.194C32.2613 142.256 32.3402 142.295 32.4253 142.305C32.5103 142.315 32.5962 142.295 32.6678 142.248C32.7395 142.201 32.7924 142.13 32.8174 142.048C33.208 140.12 33.3742 138.133 33.6485 136.23C33.9228 134.327 34.2304 132.315 34.5629 130.362C35.2278 126.464 35.9925 122.574 36.8652 118.725C37.6964 115.085 38.5276 111.386 39.6913 107.837C40.5225 105.293 41.8857 102.326 44.6286 101.411C48.7845 100.023 52.608 103.556 55.6668 105.85C55.7665 105.858 55.858 105.759 55.7915 105.709Z" fill="#263238"/>
<path d="M52.7918 103.631C52.7918 103.631 50.1237 96.0086 53.9887 94.4876C59.807 92.2434 74.9181 109.299 71.9507 135.44C71.9507 135.44 60.2476 128.99 51.6115 121.742C42.9755 114.494 40.7562 105.019 44.563 102.567C48.3699 100.115 52.7918 103.631 52.7918 103.631Z" fill="#FFC727"/>
<path d="M70.2051 129.863C69.8003 128.951 69.3279 128.07 68.7921 127.228C68.3017 126.331 67.8029 125.441 67.2876 124.56C66.2736 122.84 65.2761 121.111 64.2454 119.407C64.0792 119.133 63.913 118.858 63.7384 118.576C63.7486 118.471 63.7709 118.368 63.8049 118.268L63.9795 117.512C64.1042 116.947 64.2039 116.373 64.312 115.8C64.5198 114.686 64.7192 113.547 65.0185 112.475C65.0185 112.457 65.0115 112.44 64.999 112.428C64.9865 112.415 64.9696 112.408 64.952 112.408C64.9343 112.408 64.9174 112.415 64.905 112.428C64.8925 112.44 64.8855 112.457 64.8855 112.475C64.6444 113.597 64.2953 114.694 63.9628 115.8C63.8049 116.34 63.6304 116.872 63.4891 117.42L63.3394 117.977C62.0927 115.941 60.8459 113.913 59.4661 111.951C59.5526 111.683 59.5975 111.402 59.5991 111.12C59.6407 110.738 59.6905 110.355 59.7321 109.973C59.8318 109.142 59.9316 108.252 60.0563 107.396C60.2759 105.719 60.5838 104.054 60.9789 102.409C60.9789 102.326 60.8708 102.301 60.8459 102.409C60.4303 104.072 60.0147 105.734 59.6656 107.396C59.5077 108.227 59.3664 109.059 59.2583 109.89C59.2001 110.305 59.1586 110.721 59.117 111.128L59.0671 111.511C58.6432 110.912 58.2359 110.322 57.7871 109.74C56.4489 107.986 55.0691 106.266 53.6727 104.562C53.6145 104.495 53.5065 104.562 53.5647 104.637C55.9561 107.698 58.152 110.907 60.1394 114.245L61.2781 116.091L60.9041 116.049C60.4137 115.982 59.915 115.949 59.4246 115.908L56.4738 115.65C54.5039 115.492 52.5257 115.376 50.5557 115.16C50.5381 115.16 50.5212 115.167 50.5087 115.179C50.4963 115.192 50.4893 115.208 50.4893 115.226C50.4893 115.244 50.4963 115.261 50.5087 115.273C50.5212 115.286 50.5381 115.293 50.5557 115.293C52.5423 115.517 54.5288 115.841 56.5154 116.124C57.4879 116.265 58.4687 116.39 59.4412 116.514C60.1848 116.669 60.9424 116.747 61.702 116.747L64.021 120.521C63.8467 120.508 63.6717 120.508 63.4974 120.521H56.8728C56.7897 120.521 56.8063 120.654 56.8728 120.654C58.1611 120.654 59.4412 120.737 60.7212 120.803L62.5498 120.911L63.4641 120.978C63.7377 121.04 64.0218 121.04 64.2953 120.978L66.2735 124.195C66.872 125.175 67.4871 126.165 68.1105 127.137C68.6982 128.179 69.3622 129.177 70.097 130.121C70.1139 130.128 70.1321 130.132 70.1505 130.132C70.1688 130.132 70.187 130.128 70.2039 130.122C70.2209 130.115 70.2364 130.104 70.2494 130.091C70.2624 130.079 70.2728 130.063 70.2799 130.046C70.287 130.029 70.2907 130.011 70.2908 129.993C70.2909 129.974 70.2873 129.956 70.2804 129.939C70.2734 129.922 70.2632 129.907 70.2503 129.894C70.2373 129.881 70.222 129.87 70.2051 129.863V129.863Z" fill="#263238"/>
<path d="M64.6194 108.734C64.5037 109.577 64.3287 110.41 64.0958 111.228C63.8796 112.059 63.6303 112.89 63.356 113.721C63.3475 113.742 63.3475 113.764 63.3559 113.785C63.3643 113.805 63.3805 113.822 63.4009 113.83C63.4213 113.839 63.4442 113.839 63.4646 113.83C63.485 113.822 63.5013 113.806 63.5098 113.785L63.5139 113.771C63.7688 112.951 64.0016 112.12 64.2121 111.277C64.4116 110.446 64.5446 109.615 64.7524 108.784C64.7773 108.676 64.6194 108.651 64.6194 108.734Z" fill="#263238"/>
<path d="M56.0334 113.846C55.858 113.688 55.6294 113.602 55.3933 113.605L54.2879 113.455C53.6063 113.364 52.9164 113.289 52.2265 113.206C50.8052 113.04 49.3755 112.898 47.9542 112.716C47.9366 112.716 47.9196 112.723 47.9072 112.735C47.8947 112.748 47.8877 112.764 47.8877 112.782C47.8877 112.8 47.8947 112.817 47.9072 112.829C47.9196 112.842 47.9366 112.849 47.9542 112.849C49.3007 113.015 50.6389 113.214 51.9772 113.397L53.9554 113.647L54.9029 113.755C55.2739 113.759 55.6416 113.823 55.9918 113.946C56.0034 113.946 56.0148 113.943 56.0246 113.936C56.0343 113.93 56.0419 113.921 56.0464 113.91C56.0508 113.899 56.052 113.887 56.0497 113.876C56.0473 113.865 56.0417 113.854 56.0334 113.846Z" fill="#263238"/>
<path d="M64.6193 125.333C63.946 125.275 63.2728 125.258 62.5995 125.233H61.0867C60.8781 125.24 60.6693 125.226 60.4633 125.192C60.3719 125.192 60.3636 125.342 60.4633 125.325C60.6623 125.304 60.8628 125.304 61.0618 125.325H61.5937L62.6161 125.391C63.2894 125.391 63.9709 125.466 64.6442 125.474C64.6775 125.483 64.6858 125.342 64.6193 125.333Z" fill="#263238"/>
<path d="M68.7754 122.416C68.8502 122.033 68.925 121.643 68.9915 121.26C69.1328 120.512 69.2658 119.756 69.4071 119C69.4071 118.917 69.2991 118.9 69.2741 119C69.1079 119.731 68.95 120.463 68.7837 121.194C68.7006 121.568 68.6175 121.934 68.5427 122.299C68.5011 122.466 68.4679 122.64 68.4346 122.806C68.3785 122.981 68.3587 123.165 68.3764 123.347C68.3764 123.413 68.4762 123.463 68.5177 123.397C68.6644 123.089 68.7518 122.756 68.7754 122.416Z" fill="#263238"/>
<path d="M29.1113 139.04L29.9259 148.307L32.6938 179.585H57.1972L60.655 148.307L61.6773 139.04H29.1113Z" fill="#455A64"/>
<path d="M29.1113 139.04L29.9259 148.307H60.655L61.6773 139.04H29.1113Z" fill="#263238"/>
<path d="M64.1042 136.521H26.6924V144.035H64.1042V136.521Z" fill="#455A64"/>
<path d="M164.619 32.0229C165.494 31.0016 166.066 29.7564 166.272 28.4274C166.478 27.0984 166.308 25.7383 165.783 24.5003C165.258 23.2622 164.398 22.1953 163.299 21.4196C162.201 20.6439 160.907 20.1901 159.565 20.1094C159.98 18.8582 160.07 17.5218 159.825 16.2263C159.581 14.9308 159.01 13.719 158.167 12.7053C157.324 11.6915 156.237 10.9093 155.008 10.4324C153.779 9.95555 152.449 9.79975 151.143 9.97973C151.056 8.65756 150.654 7.37537 149.97 6.24062C149.286 5.10587 148.34 4.15161 147.211 3.4578C146.082 2.764 144.804 2.35088 143.482 2.25304C142.161 2.1552 140.835 2.37551 139.616 2.89549C138.832 1.94802 137.84 1.19438 136.716 0.693276C135.593 0.19217 134.369 -0.0428823 133.14 0.00642408C131.911 0.0557305 130.71 0.388064 129.63 0.977545C128.551 1.56703 127.622 2.39775 126.916 3.40501C125.541 3.62848 124.233 4.15054 123.082 4.9344C121.813 4.71266 120.507 4.90714 119.358 5.48881C117.944 6.26825 116.653 7.25031 115.524 8.40379C113.606 10.1992 111.59 12.1167 110.913 14.6543C110.148 17.4804 111.157 20.7162 109.727 23.2763C109.031 24.1932 108.416 25.1685 107.887 26.1913C107.167 28.2526 108.563 30.4694 108.397 32.6521C108.231 34.8348 106.313 36.9635 106.546 39.3016C106.71 40.1239 107.041 40.9036 107.52 41.592C107.998 42.2803 108.614 42.8625 109.328 43.3021C110.758 44.1757 112.091 45.1973 113.307 46.3501C114.194 47.3583 114.759 48.5669 115.634 49.6192C116.917 51.0251 118.688 51.89 120.585 52.0382C122.483 52.1864 124.366 51.6068 125.852 50.4171C126.868 51.1884 128.055 51.7055 129.311 51.9253C130.568 52.1451 131.86 52.0612 133.078 51.6805C135.508 50.9038 137.795 49.7359 139.849 48.2228C140.309 48.8434 140.916 49.3393 141.616 49.6655C142.316 49.9916 143.086 50.1377 143.857 50.0904C144.628 50.0431 145.375 49.8039 146.03 49.3945C146.684 48.9852 147.227 48.4187 147.607 47.7465C147.957 48.5585 148.568 49.231 149.342 49.6583C150.117 50.0856 151.011 50.2435 151.885 50.1071C153.629 49.8015 155.281 49.1044 156.717 48.0682C159.532 46.3285 162.69 44.0452 162.757 40.7313C162.757 38.7032 161.649 36.6086 162.414 34.7359C163 33.7204 163.744 32.8046 164.619 32.0229V32.0229Z" fill="#263238"/>
<path d="M101.792 18.8128C103.487 16.4481 105.657 14.4629 108.162 12.9841C110.668 11.5052 113.454 10.5652 116.344 10.2241C124.379 8.86096 133.311 10.2241 139.839 15.1007C145.823 19.5334 149.148 26.9477 150.079 34.3735C150.401 36.9893 149.614 39.5045 148.882 42.0313C147.751 44.9646 145.656 47.4265 142.942 49.0133C140.604 50.2434 139.617 49.4563 137.655 47.7166C136.53 46.5546 135.655 45.1741 135.084 43.6604C132.248 37.4655 129 31.3255 124.223 26.4606C119.446 21.5956 112.919 18.1154 106.103 18.3257" fill="#FFC100"/>
<path d="M137.235 31.0664C136.414 28.8496 136.769 26.3785 136.47 24.0179C135.794 18.8421 131.76 14.465 126.884 12.5583C121.906 10.8194 116.481 10.8508 111.523 12.6472C107.776 13.7691 104.409 15.9008 101.793 18.8088C100.141 20.8049 98.9897 23.1672 98.4363 25.6986C97.883 28.23 97.9431 30.8571 98.6117 33.3605L125.121 29.847C127.461 32.0619 130.149 33.8778 133.078 35.2223C133.938 35.6255 134.892 35.7899 135.837 35.6986C136.307 35.6492 136.753 35.465 137.121 35.1681C137.488 34.8713 137.762 34.4744 137.91 34.0254C137.982 32.994 137.747 31.9643 137.235 31.0664V31.0664Z" fill="#263238"/>
<path d="M110.868 19.9431L133.898 25.1406C134.975 25.2239 135.982 25.7085 136.719 26.4986C137.456 27.2887 137.869 28.3267 137.877 29.4071L136.957 79.4007C136.91 82.8098 135.742 86.1086 133.632 88.7873L131.415 91.6025C130.244 93.0919 128.721 94.2661 126.982 95.019C125.243 95.7718 123.345 96.0797 121.457 95.9147C119.57 95.7497 117.753 95.1171 116.171 94.074C114.59 93.0309 113.293 91.6101 112.398 89.9401C112.175 89.5228 112.004 89.0798 111.888 88.621C111.795 88.257 111.729 87.8867 111.689 87.5131C111.322 85.0076 111.218 82.4705 111.379 79.9434C111.213 75.5107 111.169 73.6596 111.169 73.7037C111.169 73.7477 101.726 72.3846 99.4545 60.1719C98.3466 54.0984 98.3466 44.0909 98.679 35.9012C98.8769 28.5102 103.51 19.3447 110.868 19.9431Z" fill="#B78876"/>
<path d="M103.388 43.4942C103.393 43.904 103.559 44.2954 103.849 44.5851C104.138 44.8749 104.53 45.0403 104.94 45.0461C105.335 45.0688 105.724 44.9335 106.02 44.67C106.316 44.4065 106.495 44.0362 106.519 43.6405V43.5832C106.513 43.1745 106.347 42.7844 106.057 42.4965C105.767 42.2086 105.376 42.0458 104.967 42.043C104.572 42.0203 104.183 42.1553 103.887 42.4185C103.591 42.6816 103.411 43.0515 103.388 43.4469V43.4942Z" fill="#263238"/>
<path d="M100.905 41.0337C101.105 41.2332 102.279 40.3131 103.964 40.2798C105.649 40.2466 106.923 41.0553 107.1 40.8342C107.277 40.6131 106.978 40.3796 106.424 40.0031C105.683 39.5127 104.808 39.2649 103.92 39.294C103.037 39.3113 102.182 39.6104 101.481 40.1477C100.972 40.5683 100.828 40.9448 100.905 41.0337Z" fill="#263238"/>
<path d="M119.424 43.4942C119.432 43.905 119.6 44.2964 119.892 44.5859C120.183 44.8753 120.576 45.0404 120.986 45.0461C121.386 45.0667 121.777 44.9279 122.074 44.6603C122.371 44.3927 122.549 44.0181 122.57 43.6189V43.5832C122.564 43.1726 122.397 42.7809 122.104 42.4927C121.812 42.2045 121.418 42.043 121.007 42.043C120.612 42.0203 120.223 42.1553 119.927 42.4185C119.631 42.6816 119.452 43.0515 119.428 43.4469L119.424 43.4942Z" fill="#263238"/>
<path d="M117.553 40.9116C117.752 41.1111 118.916 40.2026 120.612 40.1577C122.307 40.1129 123.571 40.9332 123.748 40.723C123.925 40.5127 123.625 40.2683 123.072 39.881C122.325 39.3944 121.446 39.1505 120.556 39.1828C119.677 39.2025 118.827 39.5015 118.129 40.0364C117.618 40.4021 117.451 40.8227 117.553 40.9116Z" fill="#263238"/>
<path d="M111.733 53.623C110.836 53.3624 109.908 53.2207 108.973 53.2016C108.541 53.2016 108.131 53.091 108.043 52.7918C108.004 52.3476 108.092 51.9017 108.298 51.5059C108.686 50.398 109.073 49.2892 109.495 48.1812C111.146 43.4492 112.331 39.57 112.144 39.5035C111.956 39.4371 110.459 43.2165 108.819 47.9484C108.42 49.1121 108.032 50.2317 107.711 51.2732C107.448 51.7982 107.385 52.4009 107.534 52.9688C107.6 53.1193 107.7 53.253 107.824 53.3604C107.949 53.4678 108.096 53.5461 108.255 53.5897C108.498 53.6453 108.747 53.6712 108.997 53.667C109.907 53.7653 110.826 53.7506 111.733 53.623V53.623Z" fill="#263238"/>
<path d="M111.09 73.6496C116.872 73.5985 122.527 71.9449 127.425 68.8728C127.425 68.8728 123.524 77.4656 111.212 76.6345L111.09 73.6496Z" fill="#AA6550"/>
<path d="M112.554 57.679C112.865 57.2655 113.277 56.9385 113.75 56.729C114.223 56.5195 114.742 56.4345 115.257 56.4821C115.632 56.5022 115.999 56.5991 116.334 56.7668C116.67 56.9345 116.967 57.1695 117.208 57.4571C117.442 57.7338 117.586 58.0754 117.619 58.4361C117.653 58.7968 117.575 59.1592 117.397 59.4744C117.131 59.7865 116.778 60.0122 116.383 60.1228C115.988 60.2334 115.57 60.2238 115.18 60.0953C114.366 59.8344 113.612 59.4123 112.963 58.8543C112.768 58.7239 112.599 58.5585 112.465 58.3664C112.402 58.2731 112.368 58.1631 112.368 58.0506C112.368 57.938 112.402 57.828 112.465 57.7347" fill="#AA6550"/>
<path d="M116.743 54.6652C116.466 54.6652 116.51 56.4939 114.98 57.8346C113.451 59.1753 111.479 59.0315 111.467 59.2866C111.455 59.5418 111.91 59.6299 112.741 59.6299C113.818 59.6221 114.856 59.2291 115.667 58.522C116.452 57.8513 116.945 56.9011 117.041 55.873C117.086 55.0975 116.876 54.6544 116.743 54.6652Z" fill="#263238"/>
<path d="M117.131 35.8023C117.308 36.2569 118.992 36.0017 120.987 36.1788C122.982 36.3558 124.6 36.8662 124.855 36.4556C124.965 36.2561 124.678 35.8239 124.013 35.3476C123.135 34.8261 122.15 34.5112 121.132 34.4267C120.114 34.3421 119.091 34.4902 118.139 34.8597C117.452 35.2154 117.053 35.592 117.131 35.8023Z" fill="#263238"/>
<path d="M101.204 33.6188C101.514 33.9953 102.667 33.6188 104.074 33.5082C105.482 33.3977 106.668 33.6969 106.923 33.2863C107.045 33.0868 106.846 32.7103 106.314 32.3554C105.612 31.929 104.795 31.7315 103.975 31.7901C103.151 31.8281 102.358 32.1183 101.704 32.6213C101.215 33.0328 101.071 33.4301 101.204 33.6188Z" fill="#263238"/>
<path d="M141.511 27.5569C139.206 20.4976 128.866 10.7777 121.463 11.3429L109.693 18.5352C110.09 20.544 111.02 22.4092 112.384 23.9358C113.749 25.4624 115.499 26.5942 117.451 27.2128C119.545 27.8445 122.072 28 123.325 29.7837C124.577 31.5674 123.89 34.2946 125.087 36.1897C126.749 38.8054 131.227 38.65 132.479 41.476C133.022 42.717 132.756 44.2023 133.321 45.4325C134.075 47.0616 138.252 49.123 139.97 48.5578C141.688 47.9926 141.677 45.0776 142.187 43.5374C142.886 41.8026 142.96 39.8791 142.397 38.0956C141.678 34.6387 142.609 30.9374 141.511 27.5569Z" fill="#263238"/>
<path d="M146.111 22.2815L145.203 26.1822C145.243 23.3992 144.539 20.6559 143.164 18.2361C140.205 13.8033 133.699 10.7553 128.568 9.28165C123.437 7.80795 117.131 8.70563 112.167 10.6889C107.698 12.3727 103.856 15.3907 101.162 19.3332C97.3937 24.4309 96.5177 32.1111 98.845 33.4743C100.684 28.1879 103.599 22.126 108.221 18.9559C110.51 17.3283 113.129 16.222 115.891 15.7147C118.654 15.2073 121.495 15.3113 124.213 16.0193C130.198 17.7814 134.752 22.8458 137.401 28.4871C138.693 31.3781 139.698 34.3883 140.405 37.4748C141.266 41.0994 141.239 44.8783 140.327 48.4905L137.335 58.9635L137.268 62.3656C144.55 59.6726 149.049 52.0813 150.257 44.4119C151.466 36.7425 150.6 29.3191 146.111 22.2815Z" fill="#FFC100"/>
<path d="M139.979 45.5662C139.924 45.5662 140.179 44.9345 140.368 43.7817C140.609 42.1523 140.481 40.4894 139.991 38.9167C139.295 36.5818 137.8 34.5657 135.769 33.2206C134.521 32.4896 133.225 31.8453 131.889 31.2922C130.402 30.683 129.058 29.7693 127.944 28.61C126.994 27.3311 126.223 25.9294 125.65 24.4432C124.835 22.6947 123.551 21.2064 121.941 20.144C120.331 19.0816 118.457 18.4867 116.529 18.4254C114.884 18.3895 113.252 18.7226 111.752 19.4004C110.644 19.8883 110.167 20.2873 110.146 20.2424C110.248 20.1224 110.368 20.018 110.5 19.9323C110.866 19.655 111.256 19.4103 111.664 19.2009C113.547 18.222 115.682 17.8358 117.789 18.0928C119.895 18.3499 121.875 19.2383 123.467 20.6413C124.601 21.6279 125.518 22.8393 126.16 24.1988C126.722 25.6334 127.467 26.9892 128.377 28.2326C129.443 29.329 130.721 30.1965 132.134 30.7819C133.487 31.353 134.798 32.0196 136.057 32.7767C137.813 33.9785 139.179 35.6688 139.984 37.6385C140.79 39.6082 141 41.7709 140.59 43.859C140.494 44.3091 140.36 44.7504 140.191 45.1781C140.138 45.3164 140.067 45.4469 139.979 45.5662Z" fill="#455A64"/>
<path d="M138.863 32.4333C138.601 32.0353 138.3 31.6642 137.965 31.3253C137.004 30.4802 135.906 29.8055 134.718 29.3305C133.986 28.9872 133.155 28.6215 132.313 28.1228C131.379 27.6158 130.569 26.9081 129.942 26.0506C128.623 24.2112 128.202 21.7284 126.451 20.022C124.8 18.4095 122.667 17.3819 120.377 17.0962C118.518 16.8822 116.635 17.0367 114.836 17.5509C113.163 18.083 111.527 18.7235 109.938 19.4684C110.303 19.1618 110.705 18.9013 111.134 18.6929C112.274 18.0546 113.477 17.5383 114.725 17.1527C116.589 16.5621 118.556 16.366 120.499 16.5767C122.921 16.8405 125.182 17.9145 126.916 19.6247C128.811 21.4973 129.221 24.0574 130.43 25.7422C131.638 27.4271 133.533 28.2134 134.951 28.9673C136.163 29.4837 137.26 30.2374 138.176 31.184C138.419 31.446 138.624 31.7406 138.786 32.0593C138.83 32.3003 138.885 32.4217 138.863 32.4333Z" fill="#455A64"/>
<path d="M134.94 50.0448C134.94 49.1363 135.915 46.9528 136.813 46.7865C139.207 46.3543 143.552 46.4316 143.751 52.5492C144.028 60.9051 135.583 59.4539 135.561 59.1987C135.54 58.9435 135.007 53.2033 134.94 50.0448Z" fill="#B78876"/>
<path d="M138.01 55.9172C138.137 55.9989 138.271 56.0692 138.409 56.1274C138.765 56.2726 139.162 56.2726 139.517 56.1274C140.054 55.7661 140.482 55.2661 140.758 54.6807C141.033 54.0953 141.144 53.4463 141.08 52.8027C141.08 52.0848 140.917 51.3763 140.604 50.7305C140.523 50.4698 140.38 50.2327 140.187 50.0397C139.994 49.8466 139.757 49.7035 139.496 49.6226C139.327 49.583 139.15 49.6047 138.995 49.6839C138.841 49.7631 138.72 49.8945 138.654 50.0548C138.543 50.2875 138.598 50.4537 138.554 50.4645C138.51 50.4753 138.377 50.3315 138.432 49.9883C138.474 49.7817 138.583 49.5948 138.742 49.4563C138.966 49.2741 139.252 49.1867 139.54 49.2128C139.886 49.2695 140.212 49.4146 140.486 49.634C140.759 49.8534 140.972 50.1398 141.103 50.4654C141.483 51.1745 141.684 51.9656 141.69 52.7703C141.69 54.4659 140.881 56.095 139.685 56.4499C139.462 56.5243 139.226 56.547 138.994 56.5163C138.761 56.4857 138.539 56.4024 138.344 56.2729C138.032 56.1748 137.977 55.9836 138.01 55.9172Z" fill="#AA6550"/>
<path d="M145.036 56.6159C145.134 56.3181 145.264 56.0318 145.424 55.7623C145.69 55.1971 146.078 54.3767 146.477 53.2795C147.595 50.1669 148.143 46.8783 148.096 43.5712C148.05 41.2909 147.813 39.0185 147.387 36.7779C146.956 34.2024 146.288 31.6723 145.392 29.2199C144.385 26.5172 142.972 23.9835 141.202 21.706C139.288 19.2782 136.98 17.188 134.376 15.5219C129.301 12.2814 123.243 10.9424 117.276 11.7425C114.691 12.0782 112.176 12.8267 109.828 13.9593C107.786 14.9547 105.897 16.2388 104.22 17.7719C101.784 20.0041 99.8206 22.7025 98.4461 25.7073C97.9806 26.8153 97.6706 27.6357 97.4819 28.2233C97.3973 28.5252 97.2938 28.8214 97.1719 29.1102C97.2082 28.7977 97.275 28.4895 97.3714 28.1901C97.6086 27.3155 97.9009 26.4568 98.2466 25.6192C100.479 20.365 104.51 16.0782 109.617 13.5279C112.005 12.3486 114.569 11.5662 117.209 11.2113C123.303 10.3543 129.502 11.7068 134.686 15.024C139.862 18.3242 143.798 23.2465 145.88 29.0213C146.782 31.5093 147.446 34.0773 147.864 36.6906C148.271 38.9589 148.486 41.2576 148.506 43.5621C148.526 46.9097 147.909 50.2306 146.688 53.3477C146.364 54.1836 145.994 55.0014 145.58 55.7972C145.42 56.0837 145.238 56.3574 145.036 56.6159V56.6159Z" fill="#263238"/>
<path d="M141.491 58.134C141.602 57.9785 141.868 57.912 142.245 58.134C142.497 58.2756 142.716 58.4679 142.89 58.6986C143.064 58.9294 143.187 59.1936 143.254 59.4747C143.369 59.886 143.388 60.3182 143.31 60.7381C143.211 61.2624 142.969 61.7493 142.611 62.1453C142.215 62.5818 141.714 62.909 141.155 63.0955C140.595 63.282 139.998 63.3215 139.419 63.2102C138.84 63.0989 138.3 62.8406 137.849 62.46C137.399 62.0795 137.055 61.5896 136.849 61.0373C136.679 60.6194 136.6 60.1706 136.615 59.72C136.63 59.2693 136.74 58.827 136.938 58.4216C137.068 58.1425 137.26 57.8973 137.501 57.7051C137.741 57.5129 138.023 57.3789 138.323 57.3136C138.778 57.2471 138.999 57.4574 139.022 57.6461C139.015 57.8619 138.974 58.0752 138.899 58.2778C138.859 58.5347 138.859 58.7963 138.899 59.0533C138.965 59.3571 139.093 59.6439 139.276 59.8953C139.443 60.1241 139.687 60.2853 139.963 60.3499C140.239 60.3967 140.522 60.3538 140.772 60.2277C140.887 60.1703 140.989 60.0893 141.071 59.9901C141.153 59.8909 141.214 59.7756 141.248 59.6517C141.458 59.0433 141.269 58.4556 141.491 58.134Z" fill="#455A64"/>
<path d="M75.9037 110.488C75.9037 110.488 77.2894 99.4059 82.6639 93.787C88.0383 88.1682 111.246 81.0199 111.246 81.0199C111.246 81.0199 111.401 89.1989 116.787 91.1164C122.484 93.1445 128.025 92.0698 132.204 87.2264C134.697 84.1946 136.358 80.5662 137.025 76.6978C137.025 76.6978 165.13 79.3019 169.497 86.672C173.863 94.0422 179.515 122.48 179.515 122.48L154.446 127.799L157.86 176.862H91.2525L92.5633 130.824L74.4209 133.407L75.9037 110.488Z" fill="#FFC100"/>
<path d="M149.47 129.417C149.395 129.052 149.366 128.68 149.381 128.309V125.294C149.381 122.745 149.381 119.232 149.503 115.32C149.625 111.407 149.68 107.928 149.791 105.345C149.847 104.071 149.891 103.04 149.947 102.331C149.937 101.957 149.981 101.583 150.08 101.223C150.16 101.586 150.19 101.959 150.169 102.331V105.345C150.169 107.883 150.169 111.396 150.047 115.32C149.924 119.243 149.858 122.711 149.747 125.294C149.747 126.568 149.648 127.599 149.604 128.309C149.614 128.683 149.569 129.056 149.47 129.417V129.417Z" fill="#263238"/>
<path d="M86.4206 109.225C86.576 109.225 88.1386 114.156 89.9224 120.307C91.7061 126.458 93.0144 131.545 92.859 131.578C91.5105 127.944 90.3454 124.246 89.368 120.496C87.5286 114.311 86.2319 109.269 86.4206 109.225Z" fill="#263238"/>
<path d="M166.692 84.8874C166.692 84.9872 165.495 85.2091 163.666 85.9073C158.866 87.7373 154.871 91.2134 152.395 95.7154C151.454 97.4334 151.066 98.5971 150.966 98.5639C150.985 98.2713 151.048 97.9834 151.154 97.7102C151.381 96.9473 151.674 96.2056 152.03 95.4934C153.198 93.1566 154.815 91.0729 156.789 89.3614C158.763 87.65 161.055 86.3443 163.533 85.5192C164.282 85.2718 165.049 85.0828 165.828 84.9539C166.382 84.8725 166.681 84.8434 166.692 84.8874Z" fill="#263238"/>
<path d="M82.2539 96.0361C82.8205 97.1216 83.2166 98.2879 83.4284 99.4939C83.823 100.654 84.0325 101.87 84.0493 103.095C83.0839 100.851 82.478 98.4689 82.2539 96.0361Z" fill="#263238"/>
<path d="M175.081 123.432C175.081 123.432 167.567 161.556 166.713 164.815C165.86 168.073 164.496 176.861 155.376 178.679C143.097 181.128 94.8984 179.421 94.8984 179.421L103.986 167.907L146.166 156.082L151.929 128.375L175.081 123.432Z" fill="#B78876"/>
<path d="M62.8145 116.355C62.8145 116.355 69.6078 139.218 72.423 149.103C75.4261 159.599 81.965 183.46 95.929 179.215C106.546 175.99 103.421 162.225 103.421 162.225L92.5594 130.828L84.1037 132.23L75.9023 111.052L62.8145 116.355Z" fill="#B78876"/>
<path d="M99.7194 163.208C100.098 161.507 100.098 159.744 99.7194 158.044C99.2871 156.213 98.5368 154.473 97.5026 152.901C96.1643 150.989 94.6824 149.181 93.0699 147.493C91.4523 145.782 89.9703 143.948 88.6371 142.007C87.5755 140.4 86.646 138.709 85.8577 136.952C85.3337 135.768 84.882 134.555 84.5053 133.317C84.3389 132.87 84.2273 132.405 84.1729 131.931C84.3901 132.351 84.5716 132.788 84.7156 133.239C85.0481 134.092 85.5244 135.311 86.2342 136.774C87.0579 138.487 88.0101 140.136 89.0827 141.705C90.4305 143.611 91.9118 145.418 93.5154 147.114C95.1473 148.832 96.6302 150.686 97.9482 152.655C99.0138 154.282 99.7656 156.094 100.165 157.997C100.432 159.282 100.451 160.606 100.221 161.898C100.148 162.245 100.048 162.586 99.9214 162.918C99.7743 163.108 99.7194 163.217 99.7194 163.208Z" fill="#AA6550"/>
<path d="M51.4882 73.3945C51.4882 73.3945 52.5962 71.8427 55.3341 74.2365C58.0721 76.6303 69.1427 95.4377 70.0071 97.1665C70.8716 98.8954 75.9027 111.053 75.9027 111.053L64.6875 118.999L62.8148 116.35C62.8148 116.35 53.4058 108.005 51.4882 105.7C49.8046 103.771 48.2673 101.719 46.8892 99.5604C46.7895 99.0841 46.1245 96.657 47.9972 95.9472C47.9972 95.9472 46.1686 93.0438 47.7977 91.6026C49.4269 90.1613 52.4083 91.5028 52.4083 91.5028L42.434 78.6468C42.434 78.6468 41.5696 74.8125 44.4513 76.253C47.3331 77.6934 54.9019 88.7208 56.2435 89.0092C57.585 89.2977 57.5841 87.9013 57.5841 87.9013C57.5841 87.9013 49.7701 76.0094 51.4882 73.3945Z" fill="#B78876"/>
<path d="M61.7509 107.141C61.6553 106.972 61.5774 106.794 61.5182 106.609C61.331 106.09 61.2047 105.551 61.1416 105.002C60.9853 104.001 61.0375 102.978 61.2949 101.998C61.5524 101.018 62.0095 100.101 62.6378 99.3061V99.6161C61.6295 98.3967 60.5324 97.0452 59.313 95.6156L59.3903 95.6821C58.6032 95.2274 57.7944 94.7287 56.9857 94.1967L55.7555 93.3547C55.3223 93.0612 54.9179 92.7273 54.5478 92.3573C54.1923 91.9978 53.9796 91.5213 53.9493 91.0166C53.9465 90.7615 53.9984 90.5087 54.1017 90.2754C54.2049 90.0421 54.3571 89.8337 54.5478 89.6643L54.6476 89.5537H54.803L61.7076 91.5153L67.1378 95.5607C67.8469 96.0473 68.5142 96.5922 69.1327 97.1899C68.3836 96.7744 67.6617 96.3116 66.9716 95.8043L61.43 91.9143H61.5074L54.5918 90.03H54.847C54.7247 90.1476 54.6272 90.2887 54.5605 90.4447C54.4939 90.6008 54.4593 90.7687 54.4589 90.9385C54.4928 91.3032 54.6537 91.6444 54.9135 91.9027C55.2542 92.2423 55.625 92.5503 56.0215 92.8228L57.2184 93.654C58.0163 94.1859 58.8143 94.6847 59.5898 95.1277C60.6978 96.5906 61.8066 97.9537 62.8148 99.1839L62.937 99.3393L62.804 99.4947C62.1101 100.32 61.6272 101.301 61.3968 102.354C61.2115 103.168 61.1554 104.006 61.2306 104.837C61.5398 106.365 61.8174 107.118 61.7509 107.141Z" fill="#AA6550"/>
<path d="M52.575 92.1353C52.9301 92.4675 53.2461 92.8393 53.5168 93.2432C54.3114 94.3238 55.0262 95.4608 55.6554 96.6453C56.1018 97.468 56.5014 98.3152 56.8523 99.1829C57.0687 99.7054 57.1229 100.281 57.0078 100.834C56.9216 101.145 56.7486 101.425 56.5091 101.641C56.2696 101.857 55.9734 102 55.6554 102.054C55.0297 102.173 54.3818 102.067 53.8268 101.755C53.2757 101.468 52.762 101.114 52.2974 100.701C51.36 99.8506 50.5366 98.882 49.8479 97.8198C49.4381 97.2321 49.0724 96.6337 48.74 96.0685L49.1946 95.736C50.6367 97.4057 51.8652 99.2485 52.8518 101.222C53.098 101.693 53.2201 102.22 53.2067 102.751C53.1926 103.016 53.1184 103.275 52.9899 103.507C52.8613 103.739 52.6817 103.939 52.4645 104.092C52.2461 104.209 52.0038 104.275 51.7561 104.285C51.5084 104.294 51.2618 104.247 51.0349 104.148C50.6574 103.979 50.3094 103.751 50.0042 103.472C49.1203 102.683 48.3183 101.806 47.6104 100.856C47.3339 100.521 47.1063 100.148 46.9346 99.7481C47.9681 100.956 49.0787 102.097 50.2593 103.162C50.7913 103.594 51.6001 104.082 52.2318 103.683C52.383 103.566 52.5062 103.417 52.5925 103.246C52.6788 103.075 52.7259 102.888 52.7305 102.696C52.7279 102.252 52.6175 101.815 52.4088 101.422C51.3918 99.5156 50.1612 97.7309 48.7408 96.1025L49.2062 95.77C49.5495 96.3245 49.9269 96.878 50.3142 97.4989C50.9893 98.5286 51.7898 99.4704 52.6972 100.303C53.5841 101.045 54.6148 101.776 55.579 101.566C55.8038 101.53 56.0143 101.433 56.1865 101.284C56.3588 101.135 56.4861 100.941 56.5539 100.724C56.6454 100.267 56.603 99.7939 56.4318 99.3608C56.0993 98.4631 55.6895 97.6095 55.3238 96.8564C54.7361 95.6675 54.0812 94.5131 53.3622 93.3987C53.0587 93.0046 52.795 92.5814 52.575 92.1353V92.1353Z" fill="#AA6550"/>
<path d="M103.166 161.468C103.338 161.741 103.462 162.041 103.532 162.355C103.782 163.182 103.945 164.032 104.02 164.893C104.271 167.77 103.67 170.657 102.291 173.194C101.555 174.591 100.626 175.879 99.5313 177.017C98.6236 177.953 97.5282 178.686 96.3171 179.168C95.5038 179.48 94.6486 179.671 93.7795 179.733C93.4649 179.796 93.1408 179.796 92.8262 179.733C93.9595 179.53 95.0722 179.226 96.1509 178.824C97.2759 178.309 98.2916 177.583 99.1432 176.686C100.174 175.555 101.06 174.301 101.781 172.951C103.099 170.497 103.727 167.732 103.598 164.949C103.509 162.776 103.044 161.502 103.166 161.468Z" fill="#AA6550"/>
</svg>
