<svg enable-background="new 0 0 309 290" viewBox="0 0 309 290" xmlns="http://www.w3.org/2000/svg"><path d="m255.9 113.1c-29.6 0-59.2.1-88.8.1-14 0-28.1 0-42.1 0-1.7-.1-3.5-.1-5.2.1-6 .8-3.9 1.1-5.8 4.7-1.7 3.1-2.3 6.4-5 9-.1.1-.3.2-.4.2-.2 0-.3 0-.5-.1-5.3-3.8-2.9-12-10-13.8-3.3-.8-8.7-.1-12-.1h-18.5c-17.3 0-35.8 1.7-53.1-.6-13.8-1.8-13.9-11.5-14-23.1 0-9.8-3.2-81.6 6.6-87.8 3.5-2.2 7.4-1.6 11.5-1.6 12.4-.1 24.8-.1 37.2-.1 24.9 0 49.8.1 74.7.1 51.3.1 102.5.7 153.8.3 6.8-.1 12.9-.7 18.1 4.8 6.7 7 6.7 73.3 6.5 82.3-.1 7.3-.1 16-6.5 20.9-7.3 5.6-18.5 5-27.2 5.1-.3 0-.5-.1-.7-.3s-.3-.5-.3-.7c0-.3.1-.5.3-.7s.5-.3.7-.3c11.6 0 27.5.7 30.8-13.3 3.2-13.8 2.2-94.2-15.7-95.5-23.2-1.7-47.2 0-70.5 0-53.5-.5-107.1-.8-160.6-.9-12.7 0-25.3 0-38-.1-2.4 0-4.8-.1-7.1 0-9.7.4-12 9.3-12 17.7 0 5.1.1 65.1.1 70.2 0 2.5-.1 5.1 0 7.6.5 10.1 5.9 13.3 14.7 14.1 18.7 1.8 38.1.4 56.9.4h18.3c2.3 0 6.7-.6 8.5.2 4.6 2 4.8 16.2 10.2 9.8 1.8-2.1 1.1-7.6 3.2-9.3 1.8-1.5 5.5-.7 7.7-.7 14.6.1 29.1 0 43.7 0h90.3c.2 0 .3.1.5.2.1.1.2.3.2.5s-.1.3-.2.5c.1.1-.1.2-.3.2z" fill="#283cb1"/><path d="m193.1 142.6c.7-.7 1.2-1.5 1.3-2.4.2-.9 0-1.8-.4-2.7-.4-.8-1.1-1.6-2-2.1s-1.9-.8-3-.9c.3-.8.4-1.7.2-2.6s-.7-1.7-1.3-2.4c-.7-.7-1.6-1.2-2.6-1.5s-2.1-.4-3.1-.3c-.1-.9-.4-1.8-1-2.5-.6-.8-1.3-1.4-2.2-1.9s-1.9-.7-3-.8-2.1.1-3.1.4c-.6-.6-1.4-1.1-2.3-1.5-.9-.3-1.9-.5-2.9-.5s-2 .3-2.8.7c-.9.4-1.6 1-2.2 1.6-1.1.2-2.2.5-3.1 1-1-.2-2.1 0-3 .4-1.1.5-2.2 1.2-3.1 2-1.6 1.2-3.2 2.5-3.7 4.2-.6 1.9.2 4.1-1 5.8-.6.6-1.1 1.3-1.5 2-.6 1.4.5 2.9.4 4.4s-1.7 2.9-1.5 4.5c.1.6.4 1.1.8 1.5.4.5.9.9 1.5 1.2 1.2.6 2.2 1.3 3.2 2.1.7.7 1.2 1.5 1.9 2.2 1 .9 2.5 1.5 4 1.6s3.1-.3 4.3-1.1c.8.5 1.8.9 2.8 1s2.1.1 3.1-.2c2-.5 3.8-1.3 5.5-2.3.4.4.9.8 1.4 1 .6.2 1.2.3 1.8.3s1.2-.2 1.8-.5c.5-.3 1-.7 1.3-1.1.3.5.8 1 1.4 1.3s1.4.4 2.1.3c1.4-.2 2.8-.7 3.9-1.4 2.3-1.2 4.8-2.7 4.9-5 0-1.4-.9-2.8-.3-4 .2-.6.8-1.2 1.5-1.8z" fill="#263238"/><path d="m170.8 136.6c.9.1 1.7.4 2.4 1 .6.6.9 1.3.9 2.1l-2.2 41c-.1 4.8-8.6 7.6-14.8 7.5-6.3-.1-6.5-2.7-6.6-7.3-.1-7.7-.1-10.6-.1-10.6s-7.9-1.1-9.6-9.8c-.8-4.3-.5-11.3-.1-17.1.4-5.2 4.5-11.5 10.7-11z" fill="#b78876"/><path d="m143 149.5c0 .3.1.6.4.8.2.2.6.3.9.3s.7-.1.9-.3c.3-.2.4-.4.4-.7 0-.3-.1-.6-.4-.8-.2-.2-.6-.3-.9-.3-.2 0-.3 0-.5 0s-.3.1-.4.2-.2.2-.3.3-.1.3-.1.5c0-.1 0-.1 0 0z" fill="#263238"/><path d="m142.5 147.1c.2.1 1.2-.5 2.6-.5s2.5.6 2.7.5-.1-.3-.6-.6c-.6-.4-1.4-.6-2.1-.5-.7 0-1.5.2-2.1.6-.4.2-.6.5-.5.5z" fill="#263238"/><path d="m157 149.5c0 .3.1.6.4.8.2.2.6.3.9.3s.7-.1.9-.3.4-.4.4-.7c0-.3-.1-.6-.4-.8-.2-.2-.6-.3-.9-.3-.2 0-.3 0-.5 0s-.3.1-.4.2-.2.2-.3.3c0 .1-.1.3-.1.5 0-.1 0-.1 0 0z" fill="#263238"/><path d="m156.6 147.4c.2.1 1.2-.5 2.6-.5s2.5.6 2.7.5-.1-.3-.5-.6c-.6-.4-1.4-.5-2.1-.5s-1.5.2-2.1.6c-.5.2-.7.4-.6.5z" fill="#263238"/><path d="m151.4 156.2c-.8-.2-1.5-.3-2.3-.4-.4 0-.7-.1-.8-.3 0-.3 0-.6.2-.9l1.1-2.3c1.5-3.3 2.6-6 2.4-6.1s-1.5 2.6-3 5.9c-.4.8-.7 1.6-1 2.3-.2.4-.3.8-.2 1.2.1.1.1.2.2.3s.2.1.4.2c.2 0 .4.1.6.1.8.1 1.6.1 2.4 0z" fill="#263238"/><path d="m150.3 170.3c4.9.1 9.7-1 13.9-3.1 0 0-3.6 6.1-13.9 5.3z" fill="#aa6550"/><path d="m152 159.1c.3-.3.6-.5 1-.6s.8-.2 1.3-.1c.3 0 .6.1.9.2s.5.3.7.5.3.4.3.7-.1.5-.2.7c-.2.2-.5.4-.9.4-.3.1-.7.1-1 0-.7-.2-1.3-.5-1.8-.9-.2-.1-.3-.2-.4-.4-.1-.1-.1-.1-.1-.2s0-.2.2-.3" fill="#aa6550"/><path d="m155.6 157c-.2 0-.2 1.3-1.6 2.2-1.3.9-3 .7-3 1 0 .2.4.3 1.1.3.9 0 1.8-.3 2.5-.7.7-.5 1.1-1.1 1.2-1.8.1-.6-.1-1-.2-1z" fill="#263238"/><path d="m155.9 145.3c.1.3 1.6.2 3.2.3 1.7.2 3 .6 3.3.3.1-.1-.1-.4-.7-.7-.7-.4-1.6-.6-2.4-.7-.9-.1-1.7 0-2.5.2-.6.2-.9.4-.9.6z" fill="#263238"/><path d="m143.1 145c.2.3 1.2 0 2.4 0s2.2.2 2.4-.1c.1-.1-.1-.4-.5-.7-.6-.3-1.3-.5-2-.4-.7 0-1.4.2-1.9.5-.4.2-.6.5-.4.7z" fill="#263238"/><path d="m170.4 152.9c0-.4.2-.8.4-1.2.3-.4.6-.7 1.1-.9.4-.2.9-.3 1.5-.3.5 0 1 .1 1.5.3 1 .5 1.8 1.5 1.8 3.5-.3 5.2-6.5 3.9-6.5 3.8-.1-.2.1-3 .2-5.2z" fill="#b78876"/><path d="m172.1 156.1c.1.1.2.1.3.1.1.1.3.1.4.1h.4c.4-.2.8-.5 1-.8s.4-.7.3-1.1c0-.4 0-.9-.2-1.3 0-.2-.1-.3-.3-.5-.1-.1-.3-.2-.5-.3-.1 0-.3 0-.4 0s-.2.1-.3.2-.1.2-.1.3c0 0-.1-.1-.1-.3 0-.1.1-.2.3-.3.1-.1.2-.1.3-.1h.3c.3.1.5.2.7.3s.3.3.4.5c.2.5.3 1 .3 1.5s-.1.9-.4 1.3-.7.7-1.3.9c-.2 0-.3 0-.5 0s-.3-.1-.5-.2c-.1-.1-.1-.3-.1-.3z" fill="#aa6550"/><path d="m115.7 222.3-17.6-12.5-9.6 1.9s9.9 17.3 17.8 24.2 12 7.8 15 7.9c4.1.1 5.9-4 5.9-4l.5-13.5z" fill="#b78876"/><path d="m96.4 185.5h-13.2c-2 0-3.8 1.9-3.1 3.5l13.3 21.6c.3.4.6.8 1.1 1s1 .4 1.6.4h16.1c.4 0 .7-.1 1.1-.3.3-.2.6-.4.7-.7.2-.3.3-.6.3-.9s-.1-.6-.3-.9l-12.8-21.2c-.4-.7-1.1-1.4-1.9-1.8-.9-.5-1.9-.7-2.9-.7z" fill="#455a64"/><path d="m95.5 186.8h-13.2c-.4 0-.8.1-1.1.2-.3.2-.6.4-.8.6s-.3.6-.3.9.1.6.2.9l13 21.1c.3.4.6.8 1.1 1s1 .4 1.6.4h15.9c.2 0 .4 0 .6-.1s.4-.2.5-.4.2-.3.2-.5 0-.4-.1-.5l-12.8-21.1c-.4-.7-1.1-1.4-1.9-1.8s-1.9-.7-2.9-.7z" fill="#263238"/><path d="m94.4 195.6-8 2.7-1.7 5.4 3.9 8 14.2 1.7-4.2-3.5.5-3.1s4-1 4.1-1.5-.5-2.2-1.1-2.3-4.8 1.2-4.8 1.2 4.9-3.2 4.8-3.8c-.1-.5-.7-1.9-1.7-2s-8.9 3-8.9 3l-1.3 2.4-1.1-3.9s7.1-1.6 5.3-4.3z" fill="#b78876"/><path d="m95.4 208.3s-.2-.2-.3-.7c-.1-.6 0-1.2.3-1.7.2-.5.6-1 1.1-1.4.4-.3.7-.4.7-.4-.7.5-1.2 1.2-1.5 1.9-.2.8-.3 1.5-.3 2.3z" fill="#aa6550"/><path d="m91.6 207.1c.1-.6.3-1.2.3-1.8 0-.7.2-1.3.4-1.9.2-.4.4-.7.8-1s.8-.5 1.3-.7c1.9-.6 3.6-1.1 4.9-1.4.7-.2 1.4-.4 2.1-.5-.6.3-1.3.5-2 .7-1.2.4-3 .9-4.9 1.5-.4.1-.8.3-1.2.6-.3.3-.5.6-.7.9-.2.6-.4 1.2-.5 1.9.1.6-.1 1.2-.5 1.7z" fill="#aa6550"/><path d="m89.8 205.9c-.1 0-.1-.6.1-1.3.1-.7.3-1.3.5-1.3.1.4.1.9-.1 1.3-.2.7-.4 1.3-.5 1.3z" fill="#aa6550"/><path d="m89.6 190.8c0 .3.1.6.3.8s.4.4.8.5c.3.1.6.1 1 .1s.6-.2.9-.4c.2-.2.4-.4.5-.7s0-.6-.1-.8c-.1-.3-.3-.5-.6-.6-.3-.2-.6-.2-.9-.2-.4 0-.9.1-1.2.4-.5.2-.7.6-.7.9z" fill="#fafafa"/><path d="m134.6 225.1c-.4-4.4 9.5-47.4 8.6-47.2-2.7.4-8.1 1.5-15.4 9.1-3.8 4-12.1 24.2-14.1 29.3l-5.8-2.3c-.9-.4-1.9-.4-2.9-.2l-13.1 3.6s17.8 27 26.5 26.9c1.3 0 2.6-.1 3.9-.2l-18.5 29s-19 13.4-19.8 15.8h63.6c-.1.1-12.6-59.4-13-63.8z" fill="#ffc100"/><path d="m150.1 175.9-9.3 2.4c-4.6 3-6.3 9.1-6.1 13.9l-3.5 40.3-.3 13.9s26.7 12.1 56.6-3.6l-5-11 9-26.2c.6-3.8 1-11.8-.2-15.5-3.1-9.6-9.9-13.8-19.2-15.5 0 0-9 7-17.2 5.8-1.3-.2-2.5-.7-3.4-1.5-.8-.9-1.3-1.9-1.4-3z" fill="#263238"/><path d="m115.8 254.3c0-.1 0-.1.1-.2l.3-.6 1.3-2.1 4.6-7.3v.1c.2-3 .4-6.4.6-10 .4-5.9 1-11.3 1.4-15.1.2-1.9.4-3.5.6-4.6.1-.5.1-.9.2-1.2 0-.1 0-.3.1-.4v.4c0 .3-.1.7-.1 1.2l-.5 4.6c-.4 3.9-.9 9.2-1.3 15.1-.3 3.6-.5 7.1-.7 10l-4.7 7.3c-.6.9-1 1.5-1.3 2l-.4.5c-.1.2-.2.3-.2.3z" fill="#263238"/><path d="m117.8 222.8c-.1 0-.9-1.5-2-3.3s-2.3-3.1-2.2-3.2c1.1.9 1.9 1.9 2.6 3s1.3 2.3 1.6 3.5z" fill="#263238"/><g fill="#fafafa"><path d="m167.6 188.7c0 .1-7.3.2-16.3.2s-16.3-.1-16.3-.2 7.3-.2 16.3-.2 16.3.1 16.3.2z"/><path d="m170.1 183.9c-.4 0-.9 0-1.3 0h-3.6l-11.9-.2-11.9-.1-3.6-.1c-.4 0-.9 0-1.3-.1.4-.1.9-.1 1.3-.1.8 0 2.1 0 3.6-.1h11.9c4.6 0 8.8.2 11.9.3 1.5.1 2.7.1 3.6.2.4 0 .9.1 1.3.2z"/><path d="m150.5 177.7c0 .1-2.6.6-5.8 1.2-1.9.5-3.8.8-5.8 1.1 1.8-.7 3.7-1.2 5.7-1.5 1.9-.4 3.9-.7 5.9-.8z"/><path d="m173.9 177.8c-.9.1-1.8 0-2.6-.1-.9-.1-1.7-.2-2.5-.5.9-.1 1.8 0 2.6.1s1.7.2 2.5.5z"/><path d="m164.9 195.5c-.4.1-.8.1-1.2.1-.8 0-1.9.1-3.2.1-2.7.1-6.5.1-10.7.1s-8-.1-10.7-.1c-1.4 0-2.5-.1-3.3-.1-.4 0-.8 0-1.2-.1.4 0 .8-.1 1.2-.1h27.9c.4 0 .8 0 1.2.1z"/><path d="m162.6 202.9c0 .1-6.5-.2-14.4-.7s-14.4-.9-14.4-1 6.5.2 14.4.7c8 .4 14.4.9 14.4 1z"/><path d="m160.3 209.4c0 .1-4.6-.1-10.2-.6-5.6-.4-10.2-.8-10.2-.9s4.6.1 10.2.6c5.7.3 10.2.8 10.2.9z"/><path d="m138.6 223c-2.3.2-4.5-.2-6.6-1 1.1.1 2.2.3 3.3.5 1.1.1 2.2.3 3.3.5z"/><path d="m156.2 243.2c-.4-.1-.8-.2-1.1-.3-.7-.2-1.7-.5-3-.9-3.2-1.1-6.3-2.4-9.3-3.9s-5.8-3.2-8.5-5.1c-1-.7-1.8-1.3-2.4-1.8-.3-.2-.6-.4-.8-.7.3.2.6.4.9.6.6.4 1.4 1 2.4 1.7 2.7 1.8 5.5 3.5 8.5 5s6 2.8 9.2 4c1.2.5 2.2.8 2.9 1 .5.1.8.2 1.2.4z"/><path d="m145.2 232.3c-.7-.1-1.4-.2-2.1-.4-1.3-.3-3-.8-4.9-1.5-1.6-.6-3.2-1.2-4.7-1.9-.7-.3-1.3-.6-1.8-.9.7.2 1.4.4 2 .7 1.2.5 2.9 1.1 4.7 1.8 1.9.7 3.6 1.2 4.8 1.6.7.1 1.4.3 2 .6z"/></g><path d="m165 217.7-1.4 4.4-27.5-16.7-7.5-8.8c-1.4-1.5-3.3-2.6-5.5-3-2-.3-3.8.4-6 1.4l-6.3 3.3c-.4.2-.7.5-.9.8s-.3.7-.2 1.1c.1.5.4.8 1.3.5 1.9-.7 3.9-1.2 5.9-1.7l1.1 8.5 4.7 2.8 4.7 3 31.1 25.7c1.6 1.3 3.5 2.3 5.5 2.8 2.1.6 4.3.7 6.5.4s4.2-1 6-2.1 3.2-2.5 4.2-4.1l4.6-10.9z" fill="#b78876"/><path d="m163 221.5c.4.1.9.3 1.2.6.8.7 1.3 1.5 1.6 2.4s.4 1.8.3 2.7c0 .4 0 .8-.2 1.1-.1-.4-.1-.7-.1-1.1 0-.9-.2-1.8-.4-2.6-.3-.8-.7-1.6-1.4-2.3-.6-.5-1.1-.8-1-.8z" fill="#eb996e"/><path d="m117 199.3s.1-.3.4-.7c.4-.5 1.1-.9 1.8-1.2.4-.1.8-.1 1.2-.1.4.1.8.2 1.1.4.5.4.4.7.4.7-.2-.2-.4-.4-.6-.5-.3-.2-.6-.3-.9-.3s-.7 0-1 .1c-.6.2-1.2.6-1.7 1s-.7.6-.7.6z" fill="#aa6550"/><path d="m121.9 201.6s-.3-.1-.6-.3c-.5-.2-1-.4-1.6-.4s-1.1.1-1.6.4c-.4.2-.6.3-.6.3s.1-.3.5-.5c.5-.3 1.1-.5 1.8-.5.6 0 1.3.2 1.8.5.2.2.4.4.3.5z" fill="#aa6550"/><path d="m203.8 279.6c-2.9-.5-7.7-16.2-7.7-16.2s2.2-5.3 2.2-6.9-10.5-4.7-10.5-4.7 4.7-29.3 7.2-47.3c.4-1.5.6-2.5.6-2.9 0-.6.3-3.7.4-4.9.3-2.6.1-5.3-.4-7.8-.3-5.1-17.2-13.6-18.6-13-5.2 2.5-13.8 24.2-18.4 39.8-4.7-2-10.6-4.5-11.3-4.6-1.3-.2-1.6 1.8-1.6 1.8v21.5l11 6.4c2.9 11.3 8.5 28.1 11.3 34.4 4.3 10 .9 12.7 5.6 14.3l53-.4c4.1-3-19.9-9-22.8-9.5z" fill="#ffc100"/><path d="m192.1 213.4c0 .2 0 .4-.1.5-.1.4-.2.9-.3 1.6-.3 1.4-.7 3.3-1.3 5.7s-1.4 5.3-2.3 8.4c-.5 1.6-1 3.2-1.6 4.9-.6 1.8-1.4 3.5-2.5 5.1-2.2 3.1-5.6 5.5-9.7 6.6-1.8.5-3.7.6-5.6.3-1.6-.3-3.1-.8-4.5-1.5-2-1-4-2-5.8-3.2l-1.5-1c-.2-.1-.4-.2-.5-.3.2.1.4.2.6.3l1.6.9c1.9 1.1 3.8 2.2 5.9 3.1 1.4.6 2.9 1.1 4.4 1.4 1.8.3 3.6.2 5.4-.3 4-1.1 7.4-3.4 9.5-6.5 1.1-1.6 1.9-3.3 2.4-5 .6-1.7 1.1-3.3 1.6-4.9 1-3.1 1.8-6 2.4-8.4s1.1-4.4 1.4-5.7c.2-.7.3-1.2.4-1.6 0-.1 0-.3.1-.4z" fill="#263238"/><path d="m171 224.3c-.1 0-.6-.6-1.5-1.6-1.2-1.3-2.6-2.5-4.1-3.5s-3.2-2-4.9-2.7c-1.3-.6-2.2-.9-2.2-.9.2 0 .4.1.6.1.6.2 1.1.4 1.7.6 3.6 1.4 6.7 3.6 9.1 6.3.4.4.7.8 1 1.3.1.1.2.3.3.4z" fill="#263238"/><path d="m175 221.5c-.1 0-.5-.4-1.3-1-1.1-.8-2.3-1.4-3.7-1.8-1.3-.4-2.7-.7-4.2-.7-1.1 0-1.8 0-1.8 0 .6-.2 1.2-.2 1.8-.2 3 0 5.8.9 8 2.6.5.2.9.6 1.2 1.1z" fill="#263238"/><path d="m171.9 192.9c0 .3 0 .7-.1 1-.1.7-.3 1.6-.6 2.7-.5 2.3-1.4 5.5-2.5 9s-2.2 6.6-3.1 8.8c-.5 1.1-.8 2-1.1 2.6-.1.3-.3.6-.5.9.1-.3.2-.7.4-1l1-2.6c.8-2.2 1.9-5.4 3-8.8s2-6.7 2.6-8.9l.7-2.7c0-.3.1-.6.2-1z" fill="#263238"/><path d="m187.7 252.1c-.2.1-.4.1-.6.1-.5.1-1.1.2-1.6.2-3.6.3-7.2-.4-10.3-1.9-.5-.2-.9-.5-1.3-.7-.3-.2-.5-.3-.4-.3 0 0 .7.4 1.9.9 1.6.7 3.2 1.2 4.9 1.5s3.5.4 5.2.4c1.4-.1 2.2-.3 2.2-.2z" fill="#263238"/><path d="m193.9 262.1c-.1.1-.2.1-.3.1-.3.1-.5.2-.8.3-1 .4-2.1.6-3.2.7-3.6.3-7.2-.3-10.4-1.8-3.1-1.5-6-3.3-8.4-5.5-1-.8-1.7-1.5-2.2-2-.3-.2-.5-.5-.8-.7.3.2.6.4.9.7l2.3 1.9c2.5 2.1 5.3 3.9 8.4 5.4 3.1 1.4 6.7 2.1 10.2 1.9 1.5-.2 2.9-.5 4.3-1z" fill="#263238"/><path d="m153.8 216.4c.1.2.2.5.2.7.2.7.3 1.4.4 2.1.1 1 .1 2.1 0 3.1-.1 1.3-.3 2.5-.7 3.7s-.9 2.4-1.5 3.6c-.5.9-1.1 1.9-1.8 2.7-.4.6-.9 1.1-1.5 1.7-.2.2-.4.4-.6.6-.1 0 .8-.9 1.8-2.4.6-.9 1.2-1.8 1.7-2.7.6-1.1 1-2.3 1.4-3.5.3-1.2.6-2.5.7-3.7.1-1 .1-2 0-3.1.1-1.7-.1-2.8-.1-2.8z" fill="#263238"/><path d="m189.2 186.1c-.9 0-1.9 0-2.8 0-2.3 0-4.5.2-6.7.7s-4.1 1.6-5.5 3.1c-.5.6-1 1.3-1.4 2 0-.2.1-.4.2-.6.2-.6.5-1.1 1-1.6 1.4-1.6 3.4-2.7 5.6-3.3 2.2-.5 4.5-.7 6.8-.6.7 0 1.4 0 2.1.1.2.1.5.1.7.2z" fill="#263238"/><path d="m159.7 251.5c-.1.1-7.2-4.8-15.9-10.9s-15.7-11.1-15.6-11.2 7.2 4.8 15.9 10.9 15.7 11.1 15.6 11.2z" fill="#455a64"/><path d="m174.4 139.6c-1.9-4.8-10.2-11.3-16.2-10.9l-9.5 4.9c.3 1.4 1.1 2.6 2.2 3.6s2.5 1.8 4.1 2.2c1.7.4 3.7.5 4.8 1.7 1 1.2.5 3 1.4 4.3 1.3 1.8 5 1.7 6 3.6.4.8.2 1.8.7 2.7.6 1.1 4 2.5 5.4 2.1s1.4-2.4 1.8-3.4c.6-1.2.6-2.5.2-3.7-.7-2.3 0-4.8-.9-7.1z" fill="#263238"/><path d="m178.2 136-.7 2.6c0-1.9-.5-3.7-1.7-5.4-2.4-3-7.7-5.1-11.8-6-4.2-1-9.3-.4-13.3.9-3.6 1.1-6.7 3.2-8.9 5.8-3.1 3.4-2.9 8.8-1 9.8.5-4.6 3-7.9 6.8-10 1.9-1.1 4-1.8 6.2-2.2 2.2-.3 4.5-.3 6.7.2 4.8 1.2 8.5 4.6 10.7 8.4 1 2 1.9 4 2.4 6.1.7 2.4.7 5-.1 7.4l-.4 4.5-.2 4.1c5.9-1.8 7.8-6.1 8.7-11.3.9-5.1.2-10.1-3.4-14.9z" fill="#ffc100"/><path d="m173.2 151.8s.2-.4.3-1.2c.2-1.1.1-2.2-.3-3.3-.6-1.6-1.8-2.9-3.4-3.8-1-.5-2.1-.9-3.1-1.3-1.2-.4-2.3-1-3.2-1.8-.8-.9-1.4-1.8-1.9-2.8-.7-1.2-1.7-2.2-3-2.9s-2.8-1.1-4.4-1.2c-1.3 0-2.7.2-3.9.7-.9.3-1.3.6-1.3.6.1-.1.2-.2.3-.2.3-.2.6-.4.9-.5 1.5-.7 3.3-.9 5-.7s3.3.8 4.6 1.7c.9.7 1.7 1.5 2.2 2.4.5 1 1.1 1.9 1.8 2.7.9.7 1.9 1.3 3 1.7s2.2.8 3.2 1.3c1.4.8 2.5 2 3.2 3.3s.8 2.8.5 4.2c-.1.3-.2.6-.3.9-.1 0-.1.1-.2.2z" fill="#455a64"/><path d="m172.3 142.9c-.2-.3-.5-.5-.7-.7-.8-.6-1.7-1-2.6-1.3-.6-.2-1.3-.5-1.9-.8-.8-.3-1.4-.8-1.9-1.4-1.1-1.2-1.4-2.9-2.8-4.1-1.3-1.1-3.1-1.8-4.9-2-1.5-.1-3 0-4.5.3-1.4.4-2.7.8-4 1.3.3-.2.6-.4 1-.5.9-.4 1.9-.8 2.9-1 1.5-.4 3.1-.5 4.7-.4 2 .2 3.8.9 5.2 2.1 1.5 1.3 1.9 3 2.8 4.1 1 1.1 2.5 1.7 3.7 2.2 1 .3 1.9.9 2.6 1.5.2.2.4.4.5.6-.1 0-.1.1-.1.1z" fill="#455a64"/><path d="m177.3 159.2c.1-.2.2-.4.3-.6.2-.4.5-.9.9-1.7.9-2.1 1.3-4.3 1.3-6.6 0-1.5-.2-3.1-.6-4.6-.3-1.7-.9-3.4-1.6-5.1-.8-1.8-2-3.5-3.4-5.1-1.6-1.6-3.4-3.1-5.5-4.2-4.1-2.2-9-3.1-13.9-2.6-2.1.2-4.1.7-6 1.5-1.7.7-3.2 1.5-4.5 2.6-2 1.5-3.6 3.3-4.7 5.4-.4.7-.6 1.3-.8 1.7-.1.2-.2.4-.3.6 0-.2.1-.4.2-.6.2-.6.4-1.2.7-1.7 1.8-3.5 5.1-6.4 9.2-8.2 1.9-.8 4-1.3 6.1-1.6 4.9-.6 10 .3 14.2 2.6 4.2 2.2 7.4 5.6 9.1 9.5.7 1.7 1.3 3.4 1.6 5.2.3 1.5.5 3.1.5 4.6 0 2.3-.5 4.5-1.5 6.6-.3.6-.6 1.1-.9 1.7-.1.3-.3.5-.4.6z" fill="#263238"/><path d="m33.4 30.8h1.1v4.3c-.5.5-1.1.8-1.9 1.1-.7.2-1.5.4-2.3.4-1.1 0-2.1-.2-3-.7s-1.6-1.2-2.1-2c-.5-.9-.8-1.9-.8-2.9s.3-2 .8-2.9 1.2-1.6 2.1-2c.9-.5 1.9-.7 3-.7.9 0 1.6.1 2.4.4.7.3 1.3.7 1.8 1.2l-.7.8c-.9-.9-2-1.3-3.4-1.3-.9 0-1.7.2-2.5.6-.7.4-1.3.9-1.7 1.7-.4.7-.6 1.5-.6 2.4s.2 1.7.6 2.4 1 1.3 1.7 1.7 1.5.6 2.4.6c1.2 0 2.1-.3 2.9-.9v-4.2zm5.3-1.1c.3-.6.7-1 1.2-1.3s1.2-.4 2-.4v1.1h-.3c-.9 0-1.6.3-2.1.8s-.8 1.3-.8 2.3v4.3h-1.1v-8.5h1.1zm12.5 2.9h-7c.1.9.4 1.6 1 2.1s1.4.8 2.3.8c.5 0 1-.1 1.4-.3s.8-.5 1.1-.8l.6.7c-.4.4-.8.8-1.4 1s-1.2.4-1.8.4c-.9 0-1.6-.2-2.3-.5-.7-.4-1.2-.9-1.6-1.5-.4-.7-.6-1.4-.6-2.2s.2-1.6.5-2.2c.4-.7.9-1.2 1.5-1.5.6-.4 1.3-.5 2.1-.5s1.5.2 2.1.5c.6.4 1.1.9 1.5 1.5s.5 1.4.5 2.2zm-4.1-3.7c-.8 0-1.5.3-2 .8s-.9 1.2-.9 2h6c-.1-.8-.4-1.5-.9-2-.7-.5-1.4-.8-2.2-.8zm9.1-.9c1.1 0 1.9.3 2.5.8s.9 1.4.9 2.4v5.2h-1.1v-1.3c-.3.4-.6.8-1.1 1s-1.1.4-1.8.4c-.9 0-1.7-.2-2.2-.7-.6-.4-.8-1-.8-1.8 0-.7.3-1.3.8-1.7s1.3-.7 2.5-.7h2.7v-.5c0-.7-.2-1.3-.6-1.6-.4-.4-1-.6-1.8-.6-.5 0-1 .1-1.5.3s-.9.4-1.3.7l-.5-.8c.4-.4.9-.6 1.5-.8.5-.2 1.1-.3 1.8-.3zm-.4 7.6c.6 0 1.2-.1 1.6-.4.5-.3.8-.7 1-1.3v-1.4h-2.6c-1.4 0-2.2.5-2.2 1.5 0 .5.2.9.6 1.2s.9.4 1.6.4zm11.3.3c-.2.2-.5.3-.8.4s-.6.1-1 .1c-.8 0-1.4-.2-1.8-.6s-.6-1-.6-1.8v-5h-1.5v-1h1.5v-1.8h1.1v1.8h2.6v1h-2.6v5c0 .5.1.9.4 1.2s.6.4 1.1.4c.2 0 .5 0 .7-.1s.4-.2.6-.3zm9.8.6c-.8 0-1.6-.2-2.2-.5-.7-.4-1.2-.9-1.5-1.5-.4-.7-.6-1.4-.6-2.2s.2-1.6.6-2.2c.4-.7.9-1.2 1.5-1.5.7-.4 1.4-.5 2.2-.5.7 0 1.4.1 1.9.4.6.3 1 .7 1.4 1.2l-.8.6c-.3-.4-.6-.7-1.1-.9-.4-.2-.9-.3-1.4-.3-.6 0-1.2.1-1.6.4-.5.3-.9.7-1.1 1.2-.3.5-.4 1.1-.4 1.7 0 .7.1 1.2.4 1.7s.7.9 1.1 1.2c.5.3 1 .4 1.6.4.5 0 1-.1 1.4-.3s.8-.5 1.1-.9l.8.6c-.3.5-.8 1-1.4 1.2-.6.1-1.2.2-1.9.2zm9.7-8.5c1.1 0 1.9.3 2.5.9s.9 1.5.9 2.7v4.9h-1.1v-4.8c0-.9-.2-1.5-.7-2s-1-.7-1.8-.7c-.9 0-1.6.3-2.2.8-.5.5-.8 1.3-.8 2.2v4.4h-1.1v-11.8h1.1v4.9c.3-.5.7-.9 1.3-1.1.5-.3 1.2-.4 1.9-.4zm10 8.5c-.8 0-1.5-.2-2.2-.5-.7-.4-1.2-.9-1.5-1.5-.4-.7-.6-1.4-.6-2.2s.2-1.6.6-2.2c.4-.7.9-1.2 1.5-1.5.6-.4 1.4-.5 2.2-.5s1.5.2 2.2.5c.6.4 1.2.9 1.5 1.5.4.7.6 1.4.6 2.2s-.2 1.6-.6 2.2c-.4.7-.9 1.2-1.5 1.5-.7.3-1.4.5-2.2.5zm0-1c.6 0 1.1-.1 1.6-.4s.9-.7 1.1-1.2c.3-.5.4-1.1.4-1.7s-.1-1.2-.4-1.7-.6-.9-1.1-1.2-1-.4-1.6-.4-1.1.1-1.6.4-.8.7-1.1 1.2-.4 1.1-.4 1.7.1 1.2.4 1.7.7.9 1.1 1.2 1 .4 1.6.4zm6.6-7.5h1.1v8.4h-1.1zm.5-1.8c-.2 0-.4-.1-.6-.2s-.2-.4-.2-.6.1-.4.2-.6.4-.2.6-.2.4.1.6.2.2.3.2.5-.1.4-.2.6-.3.3-.6.3zm7.2 10.3c-.8 0-1.6-.2-2.2-.5-.7-.4-1.2-.9-1.5-1.5-.4-.7-.6-1.4-.6-2.2s.2-1.6.6-2.2c.4-.7.9-1.2 1.5-1.5.7-.4 1.4-.5 2.2-.5.7 0 1.4.1 1.9.4.6.3 1 .7 1.4 1.2l-.8.6c-.3-.4-.6-.7-1.1-.9-.4-.2-.9-.3-1.4-.3-.6 0-1.2.1-1.6.4-.5.3-.9.7-1.1 1.2-.3.5-.4 1.1-.4 1.7 0 .7.1 1.2.4 1.7s.7.9 1.1 1.2c.5.3 1 .4 1.6.4.5 0 1-.1 1.4-.3s.8-.5 1.1-.9l.8.6c-.3.5-.8 1-1.4 1.2-.5.1-1.1.2-1.9.2zm12.8-3.9h-7c.1.9.4 1.6 1 2.1s1.4.8 2.3.8c.5 0 1-.1 1.4-.3s.8-.5 1.1-.8l.6.7c-.4.4-.8.8-1.4 1s-1.2.4-1.8.4c-.9 0-1.6-.2-2.3-.5-.7-.4-1.2-.9-1.6-1.5-.4-.7-.6-1.4-.6-2.2s.2-1.6.5-2.2c.4-.7.9-1.2 1.5-1.5.6-.4 1.3-.5 2.1-.5s1.5.2 2.1.5c.6.4 1.1.9 1.5 1.5s.5 1.4.5 2.2zm-4.1-3.7c-.8 0-1.5.3-2 .8s-.9 1.2-.9 2h6c-.1-.8-.4-1.5-.9-2-.7-.5-1.4-.8-2.2-.8zm6.2-3.7h1.3l-.2 7.8h-.9zm.7 11.3c-.2 0-.4-.1-.6-.2-.2-.2-.2-.4-.2-.6s.1-.4.2-.6c.2-.2.4-.2.6-.2s.4.1.6.2.2.3.2.6c0 .2-.1.4-.2.6-.2.1-.4.2-.6.2zm8.7-11.5h1.2v11.2h-1.2zm21.1 2.8-3.2 8.4h-1.1l-2.7-6.9-2.7 6.9h-1.1l-3.2-8.4h1.1l2.6 7.2 2.7-7.2h1l2.7 7.2 2.7-7.2zm1.7 0h1.1v8.4h-1.1zm.6-1.8c-.2 0-.4-.1-.6-.2-.2-.2-.2-.4-.2-.6s.1-.4.2-.6c.2-.2.4-.2.6-.2s.4.1.6.2.2.3.2.5-.1.4-.2.6-.4.3-.6.3zm3.7-1.6h1.1v11.9h-1.1zm4.3 0h1.1v11.9h-1.1zm12.8 3.4c1.1 0 1.9.3 2.5.9s.9 1.5.9 2.7v4.9h-1.1v-4.8c0-.9-.2-1.5-.7-2-.4-.5-1.1-.7-1.9-.7-.9 0-1.6.3-2.2.8-.5.5-.8 1.3-.8 2.2v4.4h-1.1v-8.4h1.1v1.6c.3-.5.7-.9 1.3-1.2s1.2-.4 2-.4zm13.9 4.6h-7c.1.9.4 1.6 1 2.1s1.4.8 2.3.8c.5 0 1-.1 1.4-.3s.8-.5 1.1-.8l.6.7c-.4.4-.8.8-1.4 1s-1.2.4-1.8.4c-.9 0-1.6-.2-2.3-.5-.7-.4-1.2-.9-1.6-1.5-.4-.7-.6-1.4-.6-2.2s.2-1.6.5-2.2c.4-.7.9-1.2 1.5-1.5.6-.4 1.3-.5 2.1-.5s1.5.2 2.1.5c.6.4 1.1.9 1.5 1.5s.5 1.4.5 2.2zm-4.1-3.7c-.8 0-1.5.3-2 .8s-.9 1.2-.9 2h6c-.1-.8-.4-1.5-.9-2-.7-.5-1.4-.8-2.2-.8zm13.7 3.7h-7c.1.9.4 1.6 1 2.1s1.4.8 2.3.8c.5 0 1-.1 1.4-.3s.8-.5 1.1-.8l.6.7c-.4.4-.8.8-1.4 1s-1.2.4-1.8.4c-.9 0-1.6-.2-2.3-.5-.7-.4-1.2-.9-1.6-1.5-.4-.7-.6-1.4-.6-2.2s.2-1.6.5-2.2c.4-.7.9-1.2 1.5-1.5.6-.4 1.3-.5 2.1-.5s1.5.2 2.1.5c.6.4 1.1.9 1.5 1.5s.5 1.4.5 2.2zm-4-3.7c-.8 0-1.5.3-2 .8s-.9 1.2-.9 2h6c-.1-.8-.4-1.5-.9-2-.7-.5-1.4-.8-2.2-.8zm14-4.3v11.9h-1.1v-1.7c-.3.6-.8 1-1.4 1.3s-1.2.4-1.9.4c-.8 0-1.5-.2-2.1-.5-.6-.4-1.1-.9-1.5-1.5-.4-.7-.5-1.4-.5-2.2s.2-1.6.5-2.2c.4-.7.9-1.2 1.5-1.5.6-.4 1.4-.5 2.1-.5s1.3.1 1.8.4c.6.3 1 .7 1.4 1.2v-5.1zm-4.2 10.9c.6 0 1.1-.1 1.6-.4s.9-.7 1.1-1.2c.3-.5.4-1.1.4-1.7s-.1-1.2-.4-1.7-.6-.9-1.1-1.2-1-.4-1.6-.4-1.1.1-1.6.4-.8.7-1.1 1.2-.4 1.1-.4 1.7.1 1.2.4 1.7.7.9 1.1 1.2c.5.3 1 .4 1.6.4zm13.8 1c-.7 0-1.3-.1-2-.3-.6-.2-1.1-.5-1.5-.8l.5-.9c.4.3.8.5 1.3.7s1.1.3 1.7.3c.8 0 1.3-.1 1.7-.4.4-.2.6-.6.6-1 0-.3-.1-.5-.3-.7s-.5-.3-.8-.4-.7-.2-1.2-.3c-.7-.1-1.2-.3-1.6-.4s-.8-.4-1.1-.7-.4-.8-.4-1.3c0-.7.3-1.3.9-1.7s1.4-.7 2.4-.7c.5 0 1.1.1 1.6.2s1 .3 1.3.6l-.5.9c-.7-.5-1.5-.7-2.5-.7-.7 0-1.3.1-1.6.4-.4.3-.5.6-.5 1 0 .3.1.6.3.8s.5.3.8.4.7.2 1.3.3c.7.1 1.2.3 1.6.4s.8.3 1 .7c.3.3.4.7.4 1.3 0 .7-.3 1.3-.9 1.8-.5.3-1.4.5-2.5.5zm9.1 0c-.8 0-1.5-.2-2.2-.5-.7-.4-1.2-.9-1.5-1.5s-.6-1.4-.6-2.2.2-1.6.6-2.2.9-1.2 1.5-1.5c.7-.4 1.4-.5 2.2-.5s1.5.2 2.2.5c.7.4 1.2.9 1.5 1.5.4.7.6 1.4.6 2.2s-.2 1.6-.6 2.2c-.4.7-.9 1.2-1.5 1.5-.7.3-1.4.5-2.2.5zm0-1c.6 0 1.1-.1 1.6-.4s.9-.7 1.1-1.2c.3-.5.4-1.1.4-1.7s-.1-1.2-.4-1.7-.6-.9-1.1-1.2-1-.4-1.6-.4-1.1.1-1.6.4-.8.7-1.1 1.2-.4 1.1-.4 1.7.1 1.2.4 1.7.7.9 1.1 1.2 1 .4 1.6.4zm17-7.5c1.1 0 1.9.3 2.5.9s.9 1.5.9 2.7v4.9h-1.1v-4.8c0-.9-.2-1.5-.6-2s-1-.7-1.8-.7c-.9 0-1.6.3-2.1.8s-.8 1.3-.8 2.2v4.4h-1.1v-4.8c0-.9-.2-1.5-.6-2s-1-.7-1.8-.7c-.9 0-1.6.3-2.1.8s-.8 1.3-.8 2.2v4.4h-1.1v-8.4h1.1v1.5c.3-.5.7-.9 1.2-1.2s1.1-.4 1.8-.4 1.3.1 1.8.4.9.7 1.2 1.3c.3-.6.8-1 1.3-1.3.7-.1 1.4-.2 2.1-.2zm13.9 4.6h-7c.1.9.4 1.6 1 2.1s1.4.8 2.3.8c.5 0 1-.1 1.4-.3s.8-.5 1.1-.8l.6.7c-.4.4-.8.8-1.4 1s-1.2.4-1.8.4c-.9 0-1.6-.2-2.3-.5-.7-.4-1.2-.9-1.6-1.5-.4-.7-.6-1.4-.6-2.2s.2-1.6.5-2.2c.4-.7.9-1.2 1.5-1.5.6-.4 1.3-.5 2.1-.5s1.5.2 2.1.5c.6.4 1.1.9 1.5 1.5s.5 1.4.5 2.2zm-4.1-3.7c-.8 0-1.5.3-2 .8s-.9 1.2-.9 2h6c-.1-.8-.4-1.5-.9-2-.7-.5-1.4-.8-2.2-.8zm-231.8 15.9h1.1v11.9h-1.1zm4.3 3.4h1.1v8.4h-1.1zm.5-1.8c-.2 0-.4-.1-.6-.2-.2-.2-.2-.4-.2-.6s.1-.4.2-.6c.2-.2.4-.2.6-.2s.4.1.6.2.2.3.2.5-.1.4-.2.6-.3.3-.6.3zm8.2 9.7c-.2.2-.5.3-.8.4s-.6.1-1 .1c-.8 0-1.4-.2-1.8-.6s-.6-1-.6-1.8v-5h-1.5v-1h1.5v-1.8h1.1v1.8h2.6v1h-2.6v5c0 .5.1.9.4 1.2s.6.4 1.1.4c.2 0 .5 0 .7-.1s.4-.2.6-.3zm6.3 0c-.2.2-.5.3-.8.4s-.6.1-1 .1c-.8 0-1.4-.2-1.8-.6s-.6-1-.6-1.8v-5h-1.5v-1h1.5v-1.8h1.1v1.8h2.6v1h-2.6v5c0 .5.1.9.4 1.2s.6.4 1.1.4c.2 0 .5 0 .7-.1s.4-.2.6-.3zm2-11.3h1.1v11.9h-1.1zm11.7 8h-7c.1.9.4 1.6 1 2.1s1.4.8 2.3.8c.5 0 1-.1 1.4-.3s.8-.5 1.1-.8l.6.7c-.4.4-.8.8-1.4 1s-1.2.4-1.8.4c-.9 0-1.6-.2-2.3-.5-.7-.4-1.2-.9-1.6-1.5s-.6-1.4-.6-2.2.2-1.6.5-2.2c.4-.7.9-1.2 1.5-1.5.6-.4 1.3-.5 2.1-.5s1.5.2 2.1.5c.6.4 1.1.9 1.5 1.5s.5 1.4.5 2.2zm-4.1-3.7c-.8 0-1.5.3-2 .8s-.9 1.2-.9 2h6c-.1-.8-.4-1.5-.9-2-.7-.5-1.4-.8-2.2-.8zm10.6-.9h1.1v8.4h-1.1zm.6-1.8c-.2 0-.4-.1-.6-.2s-.2-.4-.2-.6.1-.4.2-.6.4-.2.6-.2.4.1.6.2.2.3.2.5-.1.4-.2.6c-.2.2-.4.3-.6.3zm8 1.8c1.1 0 1.9.3 2.5.9s.9 1.5.9 2.7v4.9h-1.1v-4.8c0-.9-.2-1.5-.7-2-.4-.5-1.1-.7-1.9-.7-.9 0-1.6.3-2.2.8-.5.5-.8 1.3-.8 2.2v4.4h-1.1v-8.4h1.1v1.6c.3-.5.7-.9 1.3-1.2s1.2-.4 2-.4zm9.3-2.5c-.5 0-.9.1-1.1.4s-.4.7-.4 1.2v1h2.6v1h-2.6v7.5h-1.1v-7.6h-1.5v-1h1.5v-1c0-.8.2-1.4.7-1.8.4-.4 1.1-.7 1.9-.7.3 0 .6 0 .9.1s.5.2.8.4l-.4.8c-.4-.2-.8-.3-1.3-.3zm5.9 11c-.8 0-1.5-.2-2.2-.5-.7-.4-1.2-.9-1.5-1.5s-.6-1.4-.6-2.2.2-1.6.6-2.2.9-1.2 1.5-1.5c.7-.4 1.4-.5 2.2-.5s1.5.2 2.2.5c.7.4 1.2.9 1.5 1.5.4.7.6 1.4.6 2.2s-.2 1.6-.6 2.2c-.4.7-.9 1.2-1.5 1.5s-1.4.5-2.2.5zm0-1c.6 0 1.1-.1 1.6-.4s.9-.7 1.1-1.2c.3-.5.4-1.1.4-1.7s-.1-1.2-.4-1.7-.6-.9-1.1-1.2-1-.4-1.6-.4-1.1.1-1.6.4-.8.7-1.1 1.2-.4 1.1-.4 1.7.1 1.2.4 1.7.7.9 1.1 1.2c.5.3 1 .4 1.6.4zm7.7-5.8c.3-.6.7-1 1.2-1.3s1.2-.4 2-.4v1.1h-.3c-.9 0-1.6.3-2.1.8s-.8 1.3-.8 2.3v4.3h-1.1v-8.5h1.1zm15.7-1.7c1.1 0 1.9.3 2.5.9s.9 1.5.9 2.7v4.9h-1.1v-4.8c0-.9-.2-1.5-.6-2s-1-.7-1.8-.7c-.9 0-1.6.3-2.1.8s-.8 1.3-.8 2.2v4.4h-1.1v-4.8c0-.9-.2-1.5-.6-2s-1-.7-1.8-.7c-.9 0-1.6.3-2.1.8s-.8 1.3-.8 2.2v4.4h-1.1v-8.3h1.1v1.5c.3-.5.7-.9 1.2-1.2s1.1-.4 1.8-.4 1.3.1 1.8.4.9.7 1.2 1.3c.3-.6.8-1 1.3-1.3.7-.2 1.4-.3 2.1-.3zm9.4 0c1.1 0 1.9.3 2.5.8s.9 1.4.9 2.4v5.2h-1.1v-1.3c-.3.4-.6.8-1.1 1s-1.1.4-1.8.4c-.9 0-1.7-.2-2.2-.7-.6-.4-.8-1-.8-1.8 0-.7.3-1.3.8-1.7s1.3-.7 2.5-.7h2.7v-.5c0-.7-.2-1.3-.6-1.6-.4-.4-1-.6-1.8-.6-.5 0-1 .1-1.5.3s-.9.4-1.3.7l-.5-.8c.4-.4.9-.6 1.5-.8.5-.2 1.2-.3 1.8-.3zm-.4 7.6c.6 0 1.2-.1 1.6-.4.5-.3.8-.7 1-1.3v-1.4h-2.6c-1.4 0-2.2.5-2.2 1.5 0 .5.2.9.6 1.2s1 .4 1.6.4zm11.4.3c-.2.2-.5.3-.8.4s-.6.1-1 .1c-.8 0-1.4-.2-1.8-.6s-.6-1-.6-1.8v-5h-1.5v-1h1.5v-1.8h1.1v1.8h2.6v1h-2.6v5c0 .5.1.9.4 1.2s.6.4 1.1.4c.2 0 .5 0 .7-.1s.4-.2.6-.3zm2-7.9h1.1v8.4h-1.1zm.6-1.8c-.2 0-.4-.1-.6-.2s-.2-.4-.2-.6.1-.4.2-.6.4-.2.6-.2.4.1.6.2.2.3.2.5-.1.4-.2.6-.4.3-.6.3zm7.2 10.3c-.8 0-1.5-.2-2.2-.5-.7-.4-1.2-.9-1.5-1.5-.4-.7-.6-1.4-.6-2.2s.2-1.6.6-2.2c.4-.7.9-1.2 1.5-1.5.7-.4 1.4-.5 2.2-.5s1.5.2 2.2.5c.7.4 1.2.9 1.5 1.5.4.7.6 1.4.6 2.2s-.2 1.6-.6 2.2c-.4.7-.9 1.2-1.5 1.5-.7.3-1.4.5-2.2.5zm0-1c.6 0 1.1-.1 1.6-.4s.9-.7 1.1-1.2c.3-.5.4-1.1.4-1.7s-.1-1.2-.4-1.7-.6-.9-1.1-1.2-1-.4-1.6-.4-1.1.1-1.6.4-.8.7-1.1 1.2-.4 1.1-.4 1.7.1 1.2.4 1.7.7.9 1.1 1.2 1 .4 1.6.4zm10.8-7.5c1.1 0 1.9.3 2.5.9s.9 1.5.9 2.7v4.9h-1.1v-4.8c0-.9-.2-1.5-.7-2-.4-.5-1.1-.7-1.9-.7-.9 0-1.6.3-2.2.8-.5.5-.8 1.3-.8 2.2v4.4h-1.1v-8.4h1.1v1.6c.3-.5.7-.9 1.3-1.2.7-.3 1.3-.4 2-.4zm13.4 7.9c-.2.2-.5.3-.8.4s-.6.1-1 .1c-.8 0-1.4-.2-1.8-.6s-.6-1-.6-1.8v-5h-1.5v-1h1.5v-1.8h1.1v1.8h2.6v1h-2.6v5c0 .5.1.9.4 1.2s.6.4 1.1.4c.2 0 .5 0 .7-.1s.4-.2.6-.3zm5.2.6c-.8 0-1.5-.2-2.2-.5-.7-.4-1.2-.9-1.5-1.5-.4-.7-.6-1.4-.6-2.2s.2-1.6.6-2.2c.4-.7.9-1.2 1.5-1.5.7-.4 1.4-.5 2.2-.5s1.5.2 2.2.5c.7.4 1.2.9 1.5 1.5.4.7.6 1.4.6 2.2s-.2 1.6-.6 2.2c-.4.7-.9 1.2-1.5 1.5-.7.3-1.4.5-2.2.5zm0-1c.6 0 1.1-.1 1.6-.4s.9-.7 1.1-1.2c.3-.5.4-1.1.4-1.7s-.1-1.2-.4-1.7-.6-.9-1.1-1.2-1-.4-1.6-.4-1.1.1-1.6.4-.8.7-1.1 1.2-.4 1.1-.4 1.7.1 1.2.4 1.7.7.9 1.1 1.2c.5.3 1 .4 1.6.4zm18.6-7.5v7.4c0 1.4-.4 2.5-1.1 3.2s-1.7 1-3.2 1c-.8 0-1.5-.1-2.2-.4-.7-.2-1.3-.5-1.7-.9l.6-.9c.4.4.9.6 1.5.8s1.2.3 1.8.3c1.1 0 1.9-.3 2.4-.8s.8-1.3.8-2.3v-1.1c-.4.5-.8.9-1.4 1.2s-1.2.4-1.9.4c-.8 0-1.5-.2-2.2-.5-.6-.4-1.1-.8-1.5-1.5-.4-.6-.5-1.3-.5-2.1s.2-1.5.5-2.1c.4-.6.9-1.1 1.5-1.4s1.4-.5 2.2-.5c.7 0 1.4.1 1.9.4.6.3 1 .7 1.4 1.2v-1.4zm-4.3 7.1c.6 0 1.2-.1 1.6-.4.5-.3.9-.6 1.1-1.1.3-.5.4-1 .4-1.6s-.1-1.1-.4-1.6-.6-.8-1.1-1.1-1-.4-1.6-.4-1.2.1-1.6.4c-.5.3-.9.6-1.1 1.1-.3.5-.4 1-.4 1.6s.1 1.1.4 1.6.7.8 1.1 1.1 1 .4 1.6.4zm14.8-2.5h-7c.1.9.4 1.6 1 2.1s1.4.8 2.3.8c.5 0 1-.1 1.4-.3s.8-.5 1.1-.8l.6.7c-.4.4-.8.8-1.4 1s-1.2.4-1.8.4c-.9 0-1.6-.2-2.3-.5-.7-.4-1.2-.9-1.6-1.5-.4-.7-.6-1.4-.6-2.2s.2-1.6.5-2.2c.4-.7.9-1.2 1.5-1.5.6-.4 1.3-.5 2.1-.5s1.5.2 2.1.5c.6.4 1.1.9 1.5 1.5s.5 1.4.5 2.2zm-4.1-3.7c-.8 0-1.5.3-2 .8s-.9 1.2-.9 2h6c-.1-.8-.4-1.5-.9-2-.7-.5-1.4-.8-2.2-.8zm10.8 7c-.2.2-.5.3-.8.4s-.6.1-1 .1c-.8 0-1.4-.2-1.8-.6s-.6-1-.6-1.8v-5h-1.5v-1h1.5v-1.8h1.1v1.8h2.6v1h-2.6v5c0 .5.1.9.4 1.2s.6.4 1.1.4c.2 0 .5 0 .7-.1s.4-.2.6-.3zm10.7 0c-.2.2-.5.3-.8.4s-.6.1-1 .1c-.8 0-1.4-.2-1.8-.6s-.6-1-.6-1.8v-5h-1.5v-1h1.5v-1.8h1.1v1.8h2.6v1h-2.6v5c0 .5.1.9.4 1.2s.6.4 1.1.4c.2 0 .5 0 .7-.1s.4-.2.6-.3zm6.4-7.9c1.1 0 1.9.3 2.5.9s.9 1.5.9 2.7v4.9h-1.1v-4.8c0-.9-.2-1.5-.7-2-.4-.5-1.1-.7-1.9-.7-.9 0-1.6.3-2.2.8-.5.5-.8 1.3-.8 2.2v4.4h-1.1v-11.8h1.1v4.9c.3-.5.7-.9 1.3-1.1.7-.3 1.3-.4 2-.4zm13.9 4.6h-7c.1.9.4 1.6 1 2.1s1.4.8 2.3.8c.5 0 1-.1 1.4-.3s.8-.5 1.1-.8l.6.7c-.4.4-.8.8-1.4 1s-1.2.4-1.8.4c-.9 0-1.6-.2-2.3-.5-.7-.4-1.2-.9-1.6-1.5-.4-.7-.6-1.4-.6-2.2s.2-1.6.5-2.2c.4-.7.9-1.2 1.5-1.5.6-.4 1.3-.5 2.1-.5s1.5.2 2.1.5c.6.4 1.1.9 1.5 1.5s.5 1.4.5 2.2zm-4.1-3.7c-.8 0-1.5.3-2 .8s-.9 1.2-.9 2h6c-.1-.8-.4-1.5-.9-2-.7-.5-1.4-.8-2.2-.8zm-206.1 19.1c.8 0 1.5.2 2.1.5.6.4 1.1.9 1.5 1.5.4.7.5 1.4.5 2.2s-.2 1.6-.5 2.2c-.4.7-.9 1.2-1.5 1.5-.6.4-1.3.5-2.1.5-.7 0-1.3-.1-1.9-.4-.5-.3-1-.7-1.3-1.2v4.7h-1.1v-11.5h1.1v1.7c.3-.6.8-1 1.3-1.3.6-.3 1.2-.4 1.9-.4zm0 7.5c.6 0 1.1-.1 1.6-.4s.9-.7 1.1-1.2c.3-.5.4-1.1.4-1.7s-.1-1.2-.4-1.7-.6-.9-1.1-1.2-1.1-.3-1.6-.3c-.6 0-1.1.1-1.6.4s-.8.7-1.1 1.2-.4 1.1-.4 1.7.1 1.2.4 1.7.7.9 1.1 1.2c.4.2 1 .3 1.6.3zm9.4-7.5c1.1 0 1.9.3 2.5.8s.9 1.4.9 2.4v5.2h-1.1v-1.3c-.3.4-.6.8-1.1 1s-1.1.4-1.8.4c-.9 0-1.7-.2-2.2-.7-.6-.4-.8-1-.8-1.8 0-.7.3-1.3.8-1.7s1.3-.7 2.5-.7h2.7v-.5c0-.7-.2-1.3-.6-1.6-.4-.4-1-.6-1.8-.6-.5 0-1 .1-1.5.3s-.9.4-1.3.7l-.5-.8c.4-.4.9-.6 1.5-.8.5-.2 1.2-.3 1.8-.3zm-.4 7.6c.6 0 1.2-.1 1.6-.4.5-.3.8-.7 1-1.3v-1.4h-2.6c-1.4 0-2.2.5-2.2 1.5 0 .5.2.9.6 1.2s1 .4 1.6.4zm11.3-7.6c.8 0 1.5.2 2.1.5.6.4 1.1.9 1.5 1.5.4.7.5 1.4.5 2.2s-.2 1.6-.5 2.2c-.4.7-.9 1.2-1.5 1.5-.6.4-1.3.5-2.1.5-.7 0-1.3-.1-1.9-.4-.5-.3-1-.7-1.3-1.2v4.7h-1.1v-11.5h1.1v1.7c.3-.6.8-1 1.3-1.3s1.2-.4 1.9-.4zm-.1 7.5c.6 0 1.1-.1 1.6-.4s.9-.7 1.1-1.2c.3-.5.4-1.1.4-1.7s-.1-1.2-.4-1.7-.6-.9-1.1-1.2-1-.4-1.6-.4-1.1.1-1.6.4-.8.7-1.1 1.2-.4 1.1-.4 1.7.1 1.2.4 1.7.7.9 1.1 1.2 1 .4 1.6.4zm13.9-2.9h-7c.1.9.4 1.6 1 2.1s1.4.8 2.3.8c.5 0 1-.1 1.4-.3s.8-.5 1.1-.8l.6.7c-.4.4-.8.8-1.4 1s-1.2.4-1.8.4c-.9 0-1.6-.2-2.3-.5-.7-.4-1.2-.9-1.6-1.5-.4-.7-.6-1.4-.6-2.2s.2-1.6.5-2.2c.4-.7.9-1.2 1.5-1.5.6-.4 1.3-.5 2.1-.5s1.5.2 2.1.5c.6.4 1.1.9 1.5 1.5s.5 1.4.5 2.2zm-4.1-3.7c-.8 0-1.5.3-2 .8s-.9 1.2-.9 2h6c-.1-.8-.4-1.5-.9-2-.7-.5-1.3-.8-2.2-.8zm7.5.8c.3-.6.7-1 1.2-1.3s1.2-.4 2-.4v1.1h-.3c-.9 0-1.6.3-2.1.8s-.8 1.3-.8 2.3v4.3h-1.1v-8.5h1.1zm17.9-1.7-3.2 8.4h-1.1l-2.6-6.9-2.7 6.9h-1.1l-3.1-8.4h1.1l2.6 7.2 2.7-7.2h1l2.7 7.2 2.7-7.2zm5 8.5c-.8 0-1.5-.2-2.2-.5-.7-.4-1.2-.9-1.5-1.5-.4-.7-.6-1.4-.6-2.2s.2-1.6.6-2.2c.4-.7.9-1.2 1.5-1.5.7-.4 1.4-.5 2.2-.5s1.5.2 2.2.5c.7.4 1.2.9 1.5 1.5.4.7.6 1.4.6 2.2s-.2 1.6-.6 2.2c-.4.7-.9 1.2-1.5 1.5-.7.3-1.4.5-2.2.5zm0-1c.6 0 1.1-.1 1.6-.4s.9-.7 1.1-1.2c.3-.5.4-1.1.4-1.7s-.1-1.2-.4-1.7-.6-.9-1.1-1.2-1-.4-1.6-.4-1.1.1-1.6.4-.8.7-1.1 1.2-.4 1.1-.4 1.7.1 1.2.4 1.7.6.9 1.1 1.2c.4.3 1 .4 1.6.4zm7.6-5.8c.3-.6.7-1 1.2-1.3s1.2-.4 2-.4v1.1h-.3c-.9 0-1.6.3-2.1.8s-.8 1.3-.8 2.3v4.3h-1.1v-8.5h1.1zm8.4 2.5-2 1.8v2.4h-1.1v-11.8h1.1v8l5-4.6h1.4l-3.6 3.4 3.9 5h-1.4zm18.3-7.6v11.9h-1.1v-1.7c-.3.6-.8 1-1.4 1.3s-1.2.4-1.9.4c-.8 0-1.5-.2-2.1-.5-.6-.4-1.1-.9-1.5-1.5-.4-.7-.5-1.4-.5-2.2s.2-1.6.5-2.2c.4-.7.9-1.2 1.5-1.5.6-.4 1.4-.5 2.1-.5s1.3.1 1.8.4c.6.3 1 .7 1.4 1.2v-5.1zm-4.2 10.9c.6 0 1.1-.1 1.6-.4s.9-.7 1.1-1.2c.3-.5.4-1.1.4-1.7s-.1-1.2-.4-1.7-.6-.9-1.1-1.2-1-.4-1.6-.4-1.1.1-1.6.4-.8.7-1.1 1.2-.4 1.1-.4 1.7.1 1.2.4 1.7.6.9 1.1 1.2c.4.3 1 .4 1.6.4zm10.8 1c-.8 0-1.5-.2-2.2-.5-.7-.4-1.2-.9-1.5-1.5-.4-.7-.6-1.4-.6-2.2s.2-1.6.6-2.2c.4-.7.9-1.2 1.5-1.5.6-.4 1.4-.5 2.2-.5s1.5.2 2.2.5c.6.4 1.2.9 1.5 1.5.4.7.6 1.4.6 2.2s-.2 1.6-.6 2.2c-.4.7-.9 1.2-1.5 1.5s-1.4.5-2.2.5zm0-1c.6 0 1.1-.1 1.6-.4s.9-.7 1.1-1.2c.3-.5.4-1.1.4-1.7s-.1-1.2-.4-1.7-.6-.9-1.1-1.2-1-.4-1.6-.4-1.1.1-1.6.4-.8.7-1.1 1.2-.4 1.1-.4 1.7.1 1.2.4 1.7.7.9 1.1 1.2c.5.3 1 .4 1.6.4zm10.9-7.5c1.1 0 1.9.3 2.5.9s.9 1.5.9 2.7v4.9h-1.1v-4.8c0-.9-.2-1.5-.7-2-.4-.5-1.1-.7-1.9-.7-.9 0-1.6.3-2.2.8-.5.5-.8 1.3-.8 2.2v4.4h-1.1v-8.4h1.1v1.6c.3-.5.7-.9 1.3-1.2s1.3-.4 2-.4zm13.9 4.6h-7c.1.9.4 1.6 1 2.1s1.4.8 2.3.8c.5 0 1-.1 1.4-.3s.8-.5 1.1-.8l.6.7c-.4.4-.8.8-1.4 1s-1.2.4-1.8.4c-.9 0-1.6-.2-2.3-.5-.7-.4-1.2-.9-1.6-1.5-.4-.7-.6-1.4-.6-2.2s.2-1.6.5-2.2c.4-.7.9-1.2 1.5-1.5.6-.4 1.3-.5 2.1-.5s1.5.2 2.1.5c.6.4 1.1.9 1.5 1.5s.5 1.4.5 2.2zm-4.1-3.7c-.8 0-1.5.3-2 .8s-.9 1.2-.9 2h6c-.1-.8-.4-1.5-.9-2-.7-.5-1.3-.8-2.2-.8zm6.5 7.6c-.2 0-.4-.1-.6-.3s-.2-.4-.2-.6.1-.4.2-.6c.2-.2.4-.3.6-.3s.4.1.6.3.3.4.3.6-.1.5-.3.6c-.1.2-.3.3-.6.3z" fill="#66429c"/></svg>