<svg width="181" height="181" viewBox="0 0 181 181" fill="none" xmlns="http://www.w3.org/2000/svg">
<path d="M45.536 87.5343C41.2507 89.1682 38.5599 91.8305 35.7642 95.3429C30.6971 101.71 1.12011 132.852 1.02478 133.519C-2.7656 145.258 14.8404 156.026 26.0797 147.245C31.8967 142.704 49.8571 119.483 49.8571 119.483L48.9983 86.218L45.536 87.5343Z" fill="#FFC100"/>
<path d="M130.449 86.7361C126.953 83.8643 115.906 82.1306 115.906 82.1306L114.129 82.6577C115.07 87.2594 120.946 116.01 120.946 116.673C120.946 117.335 169.152 147.088 169.152 147.088L174.651 126.399C174.651 126.399 133.948 89.6125 130.449 86.7361Z" fill="#FFC100"/>
<path d="M48.6132 86.5142L68.0282 81.5728L74.3267 73.8076L103.576 74.692L108.48 80.0036L125.627 84.5352L124.345 165.192L129.504 180.914H39.8828L47.0409 158.813L43.6414 120.846L48.6132 86.5142Z" fill="#FFC100"/>
<path d="M66.6509 66.544C66.6779 66.5699 66.4467 66.8448 65.8961 67.18C65.1026 67.6469 64.2094 67.936 63.2831 68.0255C61.7141 68.2066 60.1295 67.8399 58.8193 66.9926C57.5091 66.1452 56.5609 64.8739 56.1482 63.4112C55.7355 61.9484 55.8858 60.3921 56.5718 59.027C57.2577 57.6619 58.4334 56.5792 59.8836 55.9771C60.7312 55.608 61.6542 55.4258 62.5848 55.4438C63.2347 55.4697 63.5803 55.5924 63.5707 55.6312C62.3765 55.6866 61.2044 55.9601 60.1172 56.4372C58.9842 56.9976 58.0473 57.8641 57.4224 58.9296C56.7189 60.2474 56.5516 61.769 56.953 63.1985C57.3544 64.628 58.2959 65.8633 59.5945 66.6643C60.6925 67.2834 61.9564 67.5788 63.2283 67.5137C64.4231 67.4017 65.5846 67.0726 66.6509 66.544Z" fill="#E0E0E0"/>
<path d="M127.751 31.8609C128.633 30.8738 129.211 29.6703 129.418 28.3858C129.625 27.1013 129.455 25.7868 128.925 24.5902C128.396 23.3937 127.529 22.3625 126.421 21.6127C125.314 20.863 124.011 20.4244 122.657 20.3464C123.076 19.137 123.167 17.8453 122.92 16.5932C122.673 15.341 122.098 14.1698 121.248 13.19C120.399 12.2102 119.303 11.4543 118.064 10.9935C116.825 10.5327 115.483 10.3823 114.167 10.5564C114.079 9.27884 113.674 8.03999 112.984 6.94364C112.294 5.8473 111.341 4.92538 110.203 4.25513C109.065 3.58488 107.776 3.18581 106.445 3.09134C105.113 2.99687 103.777 3.20976 102.549 3.71217C101.758 2.79652 100.758 2.06821 99.6253 1.58396C98.493 1.09971 97.2594 0.872589 96.0206 0.920282C94.7817 0.967974 93.5711 1.28919 92.4829 1.85893C91.3947 2.42866 90.4584 3.23153 89.7468 4.20502C88.3613 4.42089 87.042 4.92532 85.8817 5.6828C84.6032 5.46756 83.2864 5.65462 82.1279 6.21603C80.7031 6.96975 79.401 7.91929 78.2629 9.03447C76.33 10.7697 74.2969 12.623 73.6153 15.0759C72.8446 17.8075 73.8607 20.9352 72.4236 23.4093C71.722 24.2959 71.1016 25.2389 70.5693 26.2278C69.8432 28.2197 71.251 30.3625 71.0833 32.4741C70.9157 34.5856 68.9836 36.6408 69.2179 38.9009C69.3828 39.6956 69.7168 40.4492 70.1992 41.1145C70.6816 41.7798 71.302 42.3425 72.0216 42.7675C73.4625 43.6117 74.8068 44.599 76.032 45.7132C76.9258 46.6882 77.4954 47.8552 78.3781 48.8729C79.6716 50.2319 81.4561 51.0678 83.3692 51.211C85.2822 51.3542 87.1805 50.7938 88.6783 49.6437C89.7031 50.3889 90.8989 50.8882 92.1659 51.1003C93.4329 51.3123 94.7344 51.2308 95.9619 50.8625C98.4113 50.1118 100.717 48.9831 102.787 47.5208C103.25 48.1207 103.862 48.6002 104.568 48.9157C105.273 49.2311 106.049 49.3726 106.826 49.3272C107.603 49.2818 108.356 49.0509 109.016 48.6556C109.677 48.2603 110.223 47.7131 110.607 47.0637C110.96 47.8492 111.575 48.5 112.355 48.9137C113.136 49.3274 114.038 49.4805 114.919 49.3489C116.677 49.0537 118.343 48.3799 119.79 47.3783C122.628 45.6964 125.811 43.4934 125.879 40.2873C125.879 38.3273 124.762 36.3026 125.533 34.4927C126.122 33.508 126.871 32.6196 127.751 31.8609Z" fill="#263238"/>
<path d="M104.458 27.5444C102.134 20.7215 91.7118 11.3277 84.2494 11.8738L72.3857 18.8255C72.786 20.767 73.723 22.5696 75.0987 24.045C76.4743 25.5204 78.2381 26.6143 80.2056 27.2123C82.3173 27.8217 84.8644 27.974 86.1268 29.6971C87.3892 31.4202 86.6964 34.0566 87.9031 35.8886C89.5787 38.416 94.092 38.2667 95.3544 40.9976C95.9018 42.1973 95.634 43.6324 96.2037 44.8215C96.9632 46.396 101.175 48.388 102.907 47.8418C104.638 47.2957 104.627 44.4787 105.141 42.9895C105.844 41.3139 105.919 39.4562 105.353 37.7335C104.626 34.3894 105.564 30.8115 104.458 27.5444Z" fill="#263238"/>
<path d="M109.095 22.4457L108.179 26.2132C108.22 23.5235 107.51 20.8722 106.124 18.5334C103.141 14.2539 96.5803 11.3059 91.4107 9.88148C86.2412 8.45702 79.8823 9.32464 74.8772 11.242C70.3729 12.8694 66.5 15.7863 63.7842 19.5967C59.9858 24.5237 59.1032 31.9469 61.4492 33.2639C63.3035 28.1549 66.2414 22.2948 70.9033 19.2326C73.2111 17.6594 75.8502 16.5899 78.6353 16.0996C81.4203 15.6092 84.2836 15.7099 87.0237 16.3944C93.056 18.0976 97.6473 22.9926 100.317 28.4444C101.619 31.2376 102.633 34.146 103.345 37.1283C104.213 40.6316 104.185 44.284 103.266 47.7751L100.247 57.8972L100.18 61.1856C107.519 58.5827 112.055 51.2456 113.273 43.8339C114.491 36.4221 113.619 29.2473 109.095 22.4457Z" fill="#FFC100"/>
<path d="M102.918 44.9501C102.862 44.9501 103.119 44.3407 103.309 43.2255C103.552 41.6506 103.422 40.0433 102.929 38.5232C102.227 36.2664 100.721 34.3177 98.6728 33.0174C97.416 32.3108 96.11 31.688 94.7641 31.1534C93.2646 30.5653 91.91 29.6831 90.787 28.5635C89.8298 27.3274 89.0518 25.9726 88.4743 24.5361C87.6529 22.8461 86.3585 21.4078 84.7353 20.381C83.1121 19.3542 81.2237 18.7793 79.28 18.7202C77.622 18.6856 75.9769 19.0076 74.4656 19.6625C73.3486 20.134 72.8679 20.5194 72.8457 20.4768C72.9491 20.3607 73.0695 20.2596 73.2032 20.1767C73.5721 19.9086 73.9647 19.6721 74.3766 19.4698C76.2747 18.5238 78.4267 18.1506 80.5501 18.3991C82.6735 18.6476 84.6687 19.5063 86.2737 20.8622C87.4171 21.8159 88.3415 22.9867 88.9883 24.3007C89.5547 25.6872 90.3056 26.9976 91.2224 28.1993C92.2969 29.2589 93.5856 30.0972 95.0096 30.6628C96.3739 31.2148 97.6954 31.8591 98.9644 32.5908C100.735 33.7522 102.111 35.3859 102.923 37.2896C103.735 39.1933 103.947 41.2836 103.533 43.3017C103.437 43.7365 103.302 44.1629 103.131 44.5761C103.078 44.7094 103.006 44.8352 102.918 44.9501Z" fill="#455A64"/>
<path d="M101.789 32.2571C101.524 31.8724 101.221 31.5136 100.884 31.1861C99.9152 30.3693 98.8082 29.7173 97.6105 29.2581C96.8733 28.926 96.0351 28.5725 95.1866 28.0904C94.2452 27.6005 93.4287 26.9165 92.7961 26.0877C91.467 24.3098 91.0419 21.9103 89.2774 20.2612C87.6137 18.7027 85.4634 17.7096 83.1553 17.4336C81.2813 17.2268 79.3832 17.3762 77.5694 17.8731C75.8833 18.3874 74.234 19.0065 72.6318 19.7264C73.0005 19.43 73.4058 19.1783 73.8387 18.9769C74.9871 18.3597 76.2004 17.8605 77.4582 17.4877C79.337 16.9169 81.3191 16.7272 83.2784 16.9308C85.7192 17.1856 87.9987 18.2236 89.7469 19.8765C91.6536 21.6864 92.0707 24.1613 93.2887 25.7891C94.5066 27.417 96.4164 28.178 97.8465 28.9062C99.0683 29.4052 100.174 30.1335 101.097 31.0482C101.342 31.3015 101.549 31.5864 101.712 31.8945C101.755 32.1284 101.812 32.2464 101.789 32.2571Z" fill="#455A64"/>
<path d="M108.012 55.6289C108.11 55.3411 108.241 55.0644 108.402 54.8039C108.67 54.2578 109.062 53.4648 109.464 52.4044C110.591 49.396 111.143 46.2175 111.095 43.0213C111.049 40.8172 110.81 38.6207 110.38 36.4551C109.946 33.9658 109.273 31.5203 108.369 29.15C107.354 26.5377 105.93 24.0889 104.146 21.8875C102.216 19.5411 99.8904 17.521 97.2648 15.9109C92.149 12.7783 86.0412 11.4843 80.025 12.2583C77.4193 12.5827 74.8848 13.3059 72.5182 14.4003C70.4595 15.3623 68.5558 16.6032 66.8656 18.0849C64.41 20.2423 62.4309 22.8502 61.0454 25.7541C60.5759 26.8251 60.2636 27.6181 60.0737 28.1856C59.9883 28.4773 59.8838 28.7635 59.7607 29.0426C59.7974 28.7407 59.8647 28.4429 59.9617 28.1536C60.2016 27.3075 60.4973 26.4768 60.8468 25.6665C63.0968 20.5885 67.1604 16.4454 72.3085 13.9806C74.7155 12.8409 77.3001 12.0847 79.9607 11.7419C86.1045 10.9136 92.3545 12.2217 97.5795 15.4294C102.796 18.6194 106.763 23.3769 108.861 28.958C109.77 31.3625 110.439 33.8442 110.86 36.3698C111.272 38.5619 111.489 40.7834 111.509 43.0106C111.529 46.2461 110.907 49.4557 109.677 52.4684C109.349 53.2764 108.976 54.0667 108.56 54.8359C108.398 55.1133 108.215 55.3784 108.012 55.6289Z" fill="#263238"/>
<path d="M103.81 40.4747C104.109 33.2382 93.617 33.68 93.2222 28.6319C92.8273 23.5838 90.5893 22.0687 85.9822 21.3115C81.3751 20.5544 84.0755 15.8849 76.2755 16.8934C68.4755 17.902 60.9376 26.9294 60.8693 34.642C60.7962 43.2132 61.0647 53.6803 62.4828 59.9982C65.3429 72.7048 75.6622 73.7941 75.6622 73.7941C75.6273 76.1319 75.8327 78.4672 76.2755 80.7663L88.932 118.267L104.016 80.9415C104.016 80.9415 103.51 47.7136 103.81 40.4747Z" fill="#B78876"/>
<path d="M82.3582 57.0272C82.2583 56.3754 81.9122 55.7815 81.3858 55.3582C80.9056 54.9633 80.3034 54.7306 79.6718 54.6959C79.0402 54.6613 78.4143 54.8265 77.8902 55.1662C77.3437 55.5691 76.9194 56.1046 76.6613 56.7175C76.4031 57.3303 76.3205 57.9982 76.422 58.652C76.7128 59.0429 77.0875 59.3696 77.521 59.6102C77.9544 59.8508 78.4365 59.9996 78.9349 60.0467C79.0863 60.0546 79.238 60.0546 79.3893 60.0467C80.1768 60.0415 80.9337 59.754 81.5113 59.2408C81.8189 58.9579 82.0551 58.6115 82.2018 58.2279C82.3486 57.8443 82.4021 57.4336 82.3582 57.0272Z" fill="#9A6957"/>
<path d="M67.4413 43.4224C67.4615 43.8508 67.6557 44.2547 67.9822 44.5477C68.3088 44.8408 68.7419 44.9998 69.1891 44.9908C69.6227 45.0023 70.0433 44.8483 70.3585 44.5626C70.6737 44.277 70.8577 43.883 70.8702 43.4673C70.8702 43.4513 70.8702 43.4353 70.8702 43.4186C70.8502 42.9897 70.6563 42.5852 70.3298 42.2914C70.0033 41.9976 69.5701 41.8376 69.1224 41.8456C68.907 41.8398 68.6925 41.8748 68.4912 41.9485C68.2899 42.0222 68.1057 42.1332 67.9492 42.2752C67.7926 42.4171 67.6668 42.5873 67.5788 42.7759C67.4908 42.9645 67.4425 43.1679 67.4365 43.3744C67.4413 43.3904 67.4413 43.4087 67.4413 43.4224Z" fill="#263238"/>
<path d="M64.1602 39.3957C64.3875 39.6006 65.6324 38.6111 67.4779 38.5242C69.3235 38.4374 70.7225 39.2479 70.9139 39.0209C71.0045 38.9165 70.7686 38.5418 70.1553 38.1495C69.3252 37.662 68.359 37.4307 67.3874 37.4867C66.4288 37.5356 65.5111 37.8743 64.7656 38.4542C64.223 38.912 64.0506 39.3088 64.1602 39.3957Z" fill="#263238"/>
<path d="M75.7528 52.8006C74.7634 52.5602 73.7466 52.4386 72.7259 52.4388C72.2715 52.4167 71.817 52.3519 71.7082 52.0465C71.6523 51.5822 71.7349 51.1123 71.9465 50.6913C72.3286 49.5761 72.7235 48.4061 73.1382 47.1789C74.7923 42.1811 75.9601 38.0807 75.7512 38.0281C75.5422 37.9755 74.0288 41.9496 72.3747 46.9656C71.9775 48.1989 71.5977 49.3712 71.2386 50.4956C70.9726 51.0562 70.9227 51.6892 71.098 52.2818C71.1742 52.438 71.2868 52.5754 71.427 52.6834C71.5672 52.7914 71.7313 52.8672 71.9068 52.9049C72.1729 52.9563 72.4442 52.9783 72.7156 52.9705C74.5913 52.9529 75.7528 52.9049 75.7528 52.8006Z" fill="#263238"/>
<path d="M75.6758 73.7945C81.9745 73.5552 88.0803 71.6438 93.3128 68.2734C93.3128 68.2734 89.2229 77.4243 75.7751 76.9314L75.6758 73.7945Z" fill="#9A6957"/>
<path d="M81.2538 53.7373C80.9535 53.7373 81.0584 55.6546 79.4361 57.1103C77.8138 58.566 75.6592 58.4654 75.6592 58.7313C75.6592 58.8532 76.155 59.0802 77.0543 59.0581C78.2338 59.0153 79.3595 58.5739 80.2321 57.8119C81.0636 57.0802 81.567 56.0681 81.6367 54.9881C81.6399 54.1814 81.4079 53.7198 81.2538 53.7373Z" fill="#263238"/>
<path d="M64.5276 32.7336C64.8637 33.1693 66.2587 32.7861 67.9176 32.8295C69.5764 32.873 70.9627 33.2218 71.3035 32.8295C71.4577 32.6338 71.2535 32.2201 70.6537 31.8141C69.8406 31.3131 68.8936 31.0486 67.9271 31.0524C66.9664 31.0266 66.0187 31.2704 65.2005 31.754C64.5927 32.128 64.3822 32.5332 64.5276 32.7336Z" fill="#263238"/>
<path d="M88.9064 42.9516C88.9203 43.3809 88.7583 43.7983 88.455 44.1144C88.1518 44.4306 87.7315 44.6202 87.2841 44.6427C87.0687 44.6644 86.8509 44.6453 86.6431 44.5863C86.4354 44.5273 86.2418 44.4297 86.0735 44.2989C85.9051 44.1682 85.7653 44.007 85.6619 43.8244C85.5586 43.6419 85.4937 43.4416 85.4711 43.235C85.4711 43.219 85.4712 43.203 85.4664 43.187C85.4549 42.7583 85.6178 42.3422 85.9205 42.0266C86.2233 41.711 86.6422 41.5207 87.0887 41.4959C87.521 41.4499 87.9547 41.5705 88.2944 41.831C88.6341 42.0916 88.852 42.4708 88.9001 42.8853C88.9025 42.9074 88.9048 42.9295 88.9064 42.9516Z" fill="#263238"/>
<path d="M89.4384 38.7691C89.2295 38.987 87.9162 38.0836 86.0659 38.1201C84.2156 38.1567 82.8881 39.0654 82.68 38.8522C82.5751 38.7562 82.7888 38.3639 83.3711 37.9381C84.167 37.3922 85.1193 37.0956 86.0977 37.0887C87.0587 37.0708 88.0007 37.3455 88.7886 37.8733C89.3431 38.2816 89.5433 38.6686 89.4384 38.7691Z" fill="#263238"/>
<path d="M90.4973 34.9641C90.1382 35.3739 88.7066 34.9641 86.9929 34.99C85.2793 35.0159 83.8151 35.3122 83.4973 34.894C83.3431 34.6937 83.5656 34.2846 84.1924 33.8961C85.0494 33.4095 86.0322 33.1647 87.0279 33.19C88.0206 33.1819 88.9951 33.4462 89.8363 33.9518C90.4488 34.3547 90.6562 34.7638 90.4973 34.9641Z" fill="#263238"/>
<path d="M101.212 48.2246C101.157 47.2701 102.18 44.9605 103.157 44.7602C105.756 44.233 110.501 44.185 110.91 50.573C111.466 59.2881 102.211 58.0465 102.175 57.7974C102.138 57.5483 101.403 51.5199 101.212 48.2246Z" fill="#B78876"/>
<path d="M104.485 54.4557C104.526 54.4252 104.654 54.5562 104.94 54.656C105.328 54.789 105.756 54.7718 106.131 54.608C107.072 54.2157 107.79 52.6991 107.731 51.1223C107.707 50.3722 107.509 49.6367 107.15 48.9696C107.047 48.7015 106.877 48.4615 106.656 48.2702C106.434 48.0788 106.168 47.9419 105.879 47.8712C105.694 47.8357 105.502 47.8633 105.336 47.9493C105.17 48.0353 105.04 48.1742 104.97 48.3419C104.865 48.5948 104.933 48.7777 104.891 48.7777C104.848 48.7777 104.682 48.6428 104.736 48.281C104.769 48.0601 104.883 47.8578 105.058 47.7104C105.298 47.5143 105.608 47.4159 105.922 47.4362C106.3 47.486 106.659 47.6272 106.965 47.8467C107.271 48.0662 107.513 48.3567 107.67 48.6908C108.105 49.4259 108.346 50.2516 108.374 51.0964C108.429 52.8393 107.592 54.5608 106.301 55.0179C106.061 55.1002 105.804 55.1296 105.55 55.1039C105.296 55.0782 105.051 54.998 104.833 54.8693C104.517 54.669 104.458 54.4732 104.485 54.4557Z" fill="#7B4B45"/>
<path d="M103.318 66.5436C103.291 66.5695 103.522 66.8445 104.072 67.1796C104.865 67.6472 105.759 67.9363 106.685 68.0252C108.254 68.2049 109.837 67.8374 111.147 66.99C112.456 66.1425 113.403 64.8716 113.816 63.4096C114.228 61.9476 114.078 60.392 113.393 59.0273C112.708 57.6625 111.534 56.5797 110.085 55.9767C109.237 55.6081 108.314 55.4259 107.384 55.4435C107.042 55.4192 106.699 55.4839 106.393 55.6308C107.589 55.6863 108.762 55.9599 109.851 56.4368C110.984 56.9972 111.921 57.8637 112.546 58.9292C113.249 60.2499 113.414 61.7739 113.01 63.2049C112.606 64.636 111.661 65.8718 110.36 66.6723C109.261 67.2912 107.997 67.5866 106.724 67.5217C105.535 67.4033 104.379 67.0715 103.318 66.5436Z" fill="#E0E0E0"/>
<g opacity="0.3">
<path opacity="0.3" d="M122.237 129.213C122.067 128.474 121.629 127.816 121.001 127.357C120.015 126.764 118.665 127.183 117.823 127.945C117.051 128.78 116.371 129.69 115.796 130.66C114.731 132.1 113.297 133.254 111.634 134.011C109.97 134.768 108.131 135.102 106.294 134.983C103.735 134.783 101.317 133.697 98.7631 133.493C95.5426 133.378 92.3316 133.896 89.3281 135.016L89.5101 140.786C89.3965 141.915 90.7812 142.372 91.9641 142.28C93.1471 142.189 94.3777 141.747 95.4677 142.189C96.1741 142.572 96.7924 143.088 97.2854 143.706C98.6511 145.025 100.414 145.9 102.326 146.207C104.238 146.514 106.203 146.238 107.942 145.418C109.269 144.755 110.47 143.762 111.95 143.523C113.314 143.3 114.7 143.758 116.063 143.588C117.841 143.36 119.299 142.102 120.34 140.699C121.544 139.048 122.341 137.156 122.67 135.166C122.998 133.176 122.85 131.14 122.237 129.213Z" fill="black"/>
</g>
<g opacity="0.3">
<path opacity="0.3" d="M39.5243 94.8723C40.3243 93.8005 40.6421 92.1879 39.7062 91.2205C37.5199 93.1294 33.9575 93.4295 32.371 95.8221C31.6848 97.0777 31.3422 98.4796 31.3755 99.8967C30.8241 108.42 30.4031 116.952 30.1123 125.491L30.5302 127.67C33.0661 121.334 35.6049 114.997 38.1467 108.658C38.8236 106.972 39.4512 104.911 38.2833 103.491C37.6104 102.672 36.4656 102.272 35.9111 101.368C35.2199 100.226 35.7792 98.7541 36.661 97.7257C37.5429 96.6974 38.7195 95.944 39.5243 94.8723Z" fill="black"/>
</g>
<path d="M19.3998 93.887L1.02148 133.518L24.3993 144.179L37.5969 105.349L19.3998 93.887Z" fill="#FFC100"/>
<path d="M19.3994 93.8867C19.4357 93.8925 19.4692 93.9093 19.4947 93.9347L19.7673 94.0916L20.8 94.7193L24.627 97.0898L37.6601 105.253L37.7237 105.297V105.345C37.5918 105.872 37.4281 106.317 37.2692 106.804C37.1103 107.292 36.9515 107.767 36.7926 108.26C36.4605 109.236 36.1244 110.234 35.7884 111.245C33.3843 118.344 31.1662 124.753 29.5574 129.398L27.6308 134.883C27.4036 135.519 27.2217 136.02 27.0945 136.373L26.9539 136.754C26.9385 136.799 26.9188 136.843 26.8952 136.885C26.9015 136.839 26.9121 136.794 26.9269 136.75L27.0493 136.358C27.1677 136 27.3353 135.486 27.545 134.854C27.9994 133.547 28.6175 131.66 29.3993 129.342L35.5619 111.171L36.5662 108.186C36.7298 107.698 36.8935 107.214 37.0524 106.739C37.1318 106.499 37.2065 106.26 37.2795 106.024L37.3932 105.675L37.4432 105.51V105.358H37.5338L37.4973 105.454L24.5078 97.2201L20.7174 94.797L19.7084 94.1343L19.4495 93.9598L19.3994 93.8867Z" fill="#263238"/>
<path d="M28.7715 136.164C28.8124 135.642 28.8921 135.124 29.0098 134.613C29.1957 133.602 29.4277 132.316 29.6828 130.892C29.9378 129.467 30.1372 128.177 30.3056 127.159C30.3661 126.639 30.4632 126.124 30.5964 125.616C30.6209 125.761 30.6209 125.908 30.5964 126.052C30.5964 126.323 30.5376 126.71 30.478 127.195C30.3692 128.154 30.1777 129.48 29.9282 130.943C29.6788 132.405 29.4007 133.709 29.1878 134.66C29.0789 135.131 28.9836 135.531 28.9105 135.775C28.8802 135.909 28.8336 136.04 28.7715 136.164Z" fill="#263238"/>
<path d="M42.0016 105.787C42.0197 105.829 42.0304 105.873 42.0334 105.918C42.0474 106.051 42.0716 106.182 42.1057 106.311C42.1605 106.655 42.2511 107.182 42.344 107.818C42.437 108.454 42.5307 109.287 42.6483 110.219C42.7659 111.152 42.8707 112.223 42.9979 113.4C43.4841 118.115 44.0434 124.643 44.6384 131.85C45.2335 139.056 45.761 145.588 46.2067 150.308C46.3203 151.484 46.4291 152.552 46.5205 153.489C46.6118 154.426 46.7111 155.232 46.789 155.89C46.8669 156.548 46.9392 157.045 46.9845 157.402C46.9912 157.535 47.0064 157.668 47.0298 157.799C47.0348 157.844 47.0348 157.889 47.0298 157.934C47.0144 157.891 47.0037 157.848 46.9979 157.803L46.9296 157.411C46.8708 157.066 46.7842 156.539 46.6913 155.903C46.5983 155.267 46.5006 154.435 46.3823 153.507C46.2639 152.579 46.1638 151.498 46.0327 150.321C45.5465 145.606 44.9872 139.079 44.3969 131.867C43.8066 124.656 43.2695 118.132 42.8246 113.413C42.711 112.236 42.6062 111.169 42.5108 110.232C42.4155 109.295 42.3202 108.489 42.2471 107.831C42.174 107.173 42.0969 106.681 42.0469 106.319C42.0424 106.186 42.0273 106.053 42.0016 105.922C41.9969 105.877 41.9969 105.832 42.0016 105.787Z" fill="#263238"/>
<path d="M89.2561 134.202C89.2178 134.158 89.1843 134.109 89.156 134.058C89.0924 133.949 89.0058 133.802 88.8922 133.623C88.6602 133.222 88.3242 132.655 87.8968 131.928L84.2613 125.662L72.3817 104.964L66.0912 93.9397L66.0276 93.8354L66.146 93.7919L70.6903 92.1359V92.3103L63.1914 87.5693L63.123 87.5258L63.1731 87.4649L66.7363 83.0552L67.6896 81.892C67.7945 81.7655 67.8803 81.6696 67.9399 81.5911L68.0304 81.4951C68.0304 81.4951 68.0074 81.534 67.9581 81.6041L67.7262 81.9133L66.8173 83.1032L63.309 87.5525V87.4481L70.8349 92.1496L71.0033 92.2502L70.8174 92.3202L66.2731 93.9892L66.3279 93.8414L72.6407 104.857L84.4567 125.59L88.0151 131.887C88.4243 132.623 88.7468 133.194 88.9685 133.604L89.214 134.039C89.2332 134.092 89.2474 134.147 89.2561 134.202Z" fill="#263238"/>
<path d="M89.2559 134.203C89.2727 134.147 89.2956 134.092 89.3242 134.041C89.3742 133.924 89.4465 133.771 89.5426 133.575L90.4014 131.789L93.5793 125.252C96.3059 119.723 100.078 112.11 104.236 103.695L110.036 92.0645L110.095 92.2039L105.55 90.5349L105.364 90.4694L105.532 90.365L113.058 85.6673V85.7679L109.55 81.3186L108.641 80.1287L108.409 79.824C108.379 79.7915 108.354 79.7548 108.336 79.7151C108.368 79.7444 108.397 79.7765 108.423 79.8111L108.673 80.1074L109.632 81.2751L113.195 85.6849L113.245 85.7412L113.177 85.7847L105.678 90.5257V90.3559L110.222 92.0073L110.331 92.0508L110.281 92.1513C108.509 95.7246 106.564 99.659 104.519 103.79L93.8002 125.313C92.4369 128.055 91.3095 130.28 90.5278 131.827C90.1416 132.589 89.8414 133.178 89.6189 133.592C89.5188 133.788 89.437 133.937 89.3806 134.049C89.3443 134.104 89.3025 134.156 89.2559 134.203Z" fill="#263238"/>
<path d="M76.2041 80.9758C76.2041 80.9758 87.5649 101.343 104.017 80.9758L89.0704 124.72L76.2041 80.9758Z" fill="#455A64"/>
<path d="M92.7692 178.122C92.7535 178.078 92.7444 178.033 92.7422 177.987L92.6874 177.586C92.6373 177.216 92.5738 176.715 92.4872 176.035C92.3283 174.675 92.0963 172.732 91.8143 170.336C91.278 165.516 90.5734 158.858 90.0236 151.481C89.4738 144.104 89.2291 137.406 89.1147 132.561C89.0646 130.138 89.0353 128.182 89.0353 126.827V124.857C89.0312 124.812 89.0312 124.767 89.0353 124.722C89.0412 124.767 89.0412 124.812 89.0353 124.857V125.262C89.0353 125.637 89.0623 126.159 89.0806 126.822C89.1123 128.193 89.1672 130.147 89.2307 132.556C89.3761 137.402 89.6533 144.091 90.1944 151.464C90.7354 158.837 91.4234 165.498 91.9192 170.32C92.1694 172.721 92.3736 174.677 92.5142 176.028C92.5826 176.691 92.6326 177.214 92.6691 177.584C92.6691 177.749 92.6962 177.885 92.7009 177.989C92.7314 178.029 92.7545 178.074 92.7692 178.122Z" fill="#263238"/>
<g opacity="0.3">
<path opacity="0.3" d="M112.204 86.2917L113.1 87.3376L108.524 90.2749L112.968 91.8304L92.7002 127.257L110.139 92.1092L105.59 90.4493L112.204 86.2917Z" fill="black"/>
</g>
<path d="M125.526 101.138C125.532 101.191 125.532 101.245 125.526 101.299V103.617C125.526 105.23 125.526 107.539 125.499 110.384C125.462 116.093 125.38 123.984 125.235 132.699C125.09 141.414 124.913 149.305 124.722 155.013C124.627 157.868 124.545 160.177 124.463 161.772L124.368 163.611C124.376 163.77 124.365 163.929 124.336 164.086C124.343 164.141 124.343 164.196 124.336 164.251C124.331 164.196 124.331 164.141 124.336 164.086V163.607C124.336 163.171 124.363 162.556 124.386 161.772C124.427 160.16 124.491 157.851 124.573 155.01C124.718 149.301 124.873 141.41 125.027 132.695C125.181 123.98 125.272 116.102 125.359 110.381C125.404 107.536 125.438 105.23 125.463 103.618C125.463 102.83 125.49 102.21 125.5 101.779V101.3L125.526 101.138Z" fill="#263238"/>
<path d="M74.4903 127.828C74.4861 127.796 74.4861 127.763 74.4903 127.732V126.424C74.4903 125.51 74.4672 124.206 74.449 122.555L74.522 122.624L51.9991 122.668L52.1174 122.554V127.853L52.0038 127.744L68.0416 127.792L72.7861 127.827H74.5268C74.4924 127.833 74.4571 127.833 74.4227 127.827H72.841L68.1234 127.857L52.0038 127.91H51.8672V122.563L51.9856 122.45L74.5086 122.498H74.5769V122.563C74.5769 124.232 74.5451 125.552 74.5356 126.485V127.766C74.5223 127.788 74.5071 127.808 74.4903 127.828Z" fill="#263238"/>
<g opacity="0.3">
<path opacity="0.3" d="M53.2041 127.828C53.2041 127.828 63.7204 131.797 73.3913 127.828H53.2041Z" fill="black"/>
</g>
<path d="M69.4093 114.595H69.5499C69.9947 114.595 70.4213 114.765 70.7358 115.066C71.0504 115.368 71.227 115.777 71.227 116.203V122.556H67.7314V116.203C67.7314 115.777 67.9081 115.368 68.2226 115.066C68.5372 114.765 68.9637 114.595 69.4085 114.595H69.4093Z" fill="#455A64"/>
<path d="M69.4782 120.769H71.226V129.723C71.226 129.937 71.1374 130.142 70.9798 130.293C70.8222 130.444 70.6084 130.529 70.3855 130.529H70.3171C70.0942 130.529 69.8804 130.444 69.7227 130.293C69.5651 130.142 69.4766 129.937 69.4766 129.723V120.769H69.4782Z" fill="#455A64"/>
<path d="M71.3261 131.749C71.3668 131.935 71.3865 132.125 71.3849 132.316C71.4079 132.681 71.4254 133.213 71.4397 133.867C71.4397 135.174 71.4397 136.982 71.3079 138.97C71.2443 139.968 71.1577 140.918 71.0695 141.777C71.0354 142.552 70.8903 143.319 70.6381 144.056C70.5397 144.305 70.3883 144.532 70.1936 144.723C69.9989 144.913 69.765 145.063 69.5068 145.163C69.3621 145.217 69.2076 145.243 69.0524 145.239H68.8975C69.0902 145.218 69.2795 145.174 69.4607 145.108C69.9358 144.888 70.3003 144.496 70.4745 144.018C70.6961 143.291 70.8197 142.54 70.8423 141.783C70.9217 140.911 71.0012 139.974 71.0647 138.981C71.1918 136.994 71.2419 135.19 71.2649 133.887C71.2649 133.269 71.2649 132.75 71.288 132.34C71.2803 132.142 71.2931 131.944 71.3261 131.749Z" fill="#263238"/>
<path d="M66.8052 140.882C66.6644 138.268 66.6781 135.649 66.8465 133.036C66.9573 134.34 66.9907 135.65 66.9466 136.958C66.9796 138.267 66.9324 139.578 66.8052 140.882Z" fill="#263238"/>
<path d="M93.9319 106.149C95.2248 105.394 96.6171 104.808 98.0718 104.406L98.9219 100.485L105.843 100.367L106.843 104.263C108.31 104.61 109.722 105.144 111.042 105.849L112.773 103.631H114.537L119.536 108.241L117.368 111.669C118.154 112.909 118.765 114.245 119.183 115.641L123.273 116.46L123.395 123.096L119.332 124.051C118.97 125.457 118.414 126.812 117.678 128.077L119.974 131.429L115.165 136.222L113.279 136.135L111.589 134.144C110.296 134.894 108.903 135.473 107.449 135.865L106.598 139.788L99.6766 139.906L98.6811 136.006C97.2142 135.659 95.8019 135.127 94.4816 134.423L90.986 136.602H89.2183L85.9555 132.032L88.1275 128.604C87.3358 127.366 86.7243 126.031 86.3098 124.634L82.2199 123.819L82.1016 117.183L86.1644 116.228C86.5245 114.82 87.0795 113.465 87.8145 112.198L85.5424 108.846L88.5827 104.054H90.3441L93.9192 106.132L93.9319 106.149ZM97.6221 114.991C96.602 116.004 95.9182 117.284 95.657 118.67C95.3958 120.056 95.5691 121.484 96.1549 122.776C96.7407 124.067 97.7127 125.163 98.948 125.925C100.183 126.686 101.626 127.08 103.095 127.055C104.563 127.03 105.991 126.588 107.198 125.786C108.404 124.983 109.336 123.855 109.874 122.545C110.412 121.235 110.533 119.801 110.221 118.425C109.909 117.049 109.179 115.792 108.123 114.814C106.705 113.503 104.803 112.786 102.834 112.819C100.865 112.852 98.9907 113.633 97.6221 114.991Z" fill="#FFC100"/>
<g opacity="0.3">
<path opacity="0.3" d="M93.9319 106.149C95.2248 105.394 96.6171 104.808 98.0718 104.406L98.9219 100.485L105.843 100.367L106.843 104.263C108.31 104.61 109.722 105.144 111.042 105.849L112.773 103.631H114.537L119.536 108.241L117.368 111.669C118.154 112.909 118.765 114.245 119.183 115.641L123.273 116.46L123.395 123.096L119.332 124.051C118.97 125.457 118.414 126.812 117.678 128.077L119.974 131.429L115.165 136.222L113.279 136.135L111.589 134.144C110.296 134.894 108.903 135.473 107.449 135.865L106.598 139.788L99.6766 139.906L98.6811 136.006C97.2142 135.659 95.8019 135.127 94.4816 134.423L90.986 136.602H89.2183L85.9555 132.032L88.1275 128.604C87.3358 127.366 86.7243 126.031 86.3098 124.634L82.2199 123.819L82.1016 117.183L86.1644 116.228C86.5245 114.82 87.0795 113.465 87.8145 112.198L85.5424 108.846L88.5827 104.054H90.3441L93.9192 106.132L93.9319 106.149ZM97.6221 114.991C96.602 116.004 95.9182 117.284 95.657 118.67C95.3958 120.056 95.5691 121.484 96.1549 122.776C96.7407 124.067 97.7127 125.163 98.948 125.925C100.183 126.686 101.626 127.08 103.095 127.055C104.563 127.03 105.991 126.588 107.198 125.786C108.404 124.983 109.336 123.855 109.874 122.545C110.412 121.235 110.533 119.801 110.221 118.425C109.909 117.049 109.179 115.792 108.123 114.814C106.705 113.503 104.803 112.786 102.834 112.819C100.865 112.852 98.9907 113.633 97.6221 114.991Z" fill="black"/>
</g>
<path d="M92.164 106.132C93.4569 105.377 94.8492 104.791 96.3039 104.389L97.154 100.468L104.08 100.35L105.076 104.246C106.543 104.593 107.955 105.126 109.275 105.832L112.771 103.631L117.761 108.246L115.589 111.674C116.378 112.912 116.989 114.248 117.406 115.643L121.496 116.462L121.615 123.098L117.552 124.053C117.189 125.459 116.634 126.813 115.902 128.079L118.174 131.431L113.366 136.224L109.791 134.145C108.498 134.895 107.105 135.474 105.651 135.867L104.801 139.788L97.8793 139.905L96.8799 136.005C95.413 135.659 94.0007 135.127 92.6804 134.423L89.1847 136.602L84.186 131.992L86.3541 128.564C85.5659 127.324 84.9546 125.989 84.5364 124.594L80.4465 123.779L80.3281 117.143L84.3878 116.187C84.7501 114.78 85.3063 113.426 86.0419 112.16L83.7697 108.809L88.5778 104.016L92.1529 106.095L92.164 106.132ZM95.8543 114.974C94.8361 115.988 94.1547 117.27 93.896 118.656C93.6373 120.042 93.813 121.47 94.401 122.76C94.9889 124.051 95.9626 125.145 97.199 125.904C98.4354 126.664 99.879 127.055 101.347 127.029C102.815 127.002 104.242 126.558 105.448 125.754C106.653 124.949 107.583 123.82 108.119 122.51C108.655 121.199 108.774 119.765 108.46 118.389C108.147 117.014 107.415 115.758 106.357 114.782C105.654 114.133 104.825 113.623 103.917 113.281C103.009 112.94 102.04 112.773 101.064 112.791C100.089 112.809 99.1267 113.011 98.2327 113.385C97.3388 113.76 96.5306 114.299 95.8543 114.974Z" fill="#263238"/>
<path d="M119.523 108.282C119.523 108.348 119.125 108.396 118.641 108.396C118.156 108.396 117.755 108.348 117.755 108.282C117.755 108.217 118.152 108.169 118.641 108.169C119.129 108.169 119.523 108.219 119.523 108.282Z" fill="#263238"/>
<path d="M117.405 111.657C117.405 111.722 117.023 111.766 116.555 111.766C116.087 111.766 115.701 111.705 115.701 111.644C115.701 111.583 116.087 111.53 116.555 111.535C117.023 111.539 117.41 111.596 117.405 111.657Z" fill="#263238"/>
<path d="M123.044 116.494C123.044 116.559 122.698 116.625 122.262 116.646C121.826 116.667 121.468 116.646 121.468 116.576C121.468 116.506 121.813 116.445 122.245 116.424C122.676 116.402 123.04 116.43 123.044 116.494Z" fill="#263238"/>
<path d="M123 123.139C123 123.2 122.672 123.244 122.277 123.231C121.881 123.218 121.554 123.161 121.562 123.096C121.569 123.03 121.889 122.991 122.285 123.004C122.68 123.017 123.004 123.061 123 123.139Z" fill="#263238"/>
<path d="M117.669 128.189C117.669 128.25 117.282 128.265 116.823 128.22C116.364 128.174 116.001 128.089 116.005 128.028C116.009 127.967 116.391 127.952 116.85 127.997C117.309 128.043 117.672 128.126 117.669 128.189Z" fill="#263238"/>
<path d="M119.859 131.431C119.859 131.497 119.482 131.558 119.009 131.566C118.537 131.575 118.155 131.536 118.155 131.475C118.155 131.414 118.533 131.353 119.005 131.34C119.478 131.327 119.851 131.37 119.859 131.431Z" fill="#263238"/>
<path d="M107.398 135.98C107.398 136.041 106.984 136.028 106.489 135.98C106.18 135.985 105.873 135.941 105.58 135.849C105.867 135.732 106.183 135.699 106.489 135.753C107.018 135.805 107.407 135.919 107.398 135.98Z" fill="#263238"/>
<path d="M106.921 104.325C106.921 104.391 106.535 104.43 106.067 104.421C105.599 104.413 105.213 104.345 105.217 104.287C105.221 104.228 105.598 104.182 106.071 104.195C106.361 104.173 106.652 104.218 106.921 104.325Z" fill="#263238"/>
<path d="M88.3823 105.155C87.2122 106.457 85.9242 107.657 84.5332 108.741C85.0906 108.067 85.7081 107.44 86.3787 106.867C86.9947 106.243 87.6649 105.67 88.3823 105.155Z" fill="#FBFAFB"/>
<path d="M98.1407 112.276C97.4775 112.555 96.8398 112.886 96.234 113.266C94.7801 114.212 93.6798 115.579 93.0938 117.168C92.5078 118.756 92.4667 120.482 92.9767 122.095C93.1995 122.758 93.4766 123.403 93.8054 124.023C93.6748 123.881 93.5619 123.725 93.4693 123.557C93.1985 123.109 92.979 122.634 92.8147 122.141C92.2491 120.5 92.2686 118.725 92.87 117.095C93.4715 115.466 94.6207 114.074 96.1371 113.139C96.5872 112.853 97.0689 112.616 97.5735 112.433C97.7542 112.356 97.945 112.303 98.1407 112.276Z" fill="#FBFAFB"/>
<path d="M101.154 111.923C101.154 111.989 100.915 112.054 100.622 112.072C100.329 112.089 100.081 112.072 100.077 111.989C100.073 111.906 100.316 111.862 100.609 111.845C100.902 111.827 101.149 111.862 101.154 111.923Z" fill="#FBFAFB"/>
<path d="M97.3138 101.617C97.3892 102.006 97.3892 102.405 97.3138 102.794C97.3068 103.189 97.2219 103.579 97.0635 103.944C96.984 103.555 96.984 103.155 97.0635 102.767C97.0702 102.372 97.1551 101.982 97.3138 101.617Z" fill="#FBFAFB"/>
<path d="M111.888 104.51C111.928 104.558 111.619 104.872 111.193 105.207C110.766 105.543 110.388 105.783 110.347 105.735C110.307 105.687 110.616 105.373 111.042 105.033C111.469 104.693 111.856 104.462 111.888 104.51Z" fill="#FBFAFB"/>
<path d="M120.569 117.234C120.148 117.256 119.727 117.201 119.328 117.072C118.911 117.016 118.51 116.887 118.142 116.692C118.562 116.669 118.983 116.724 119.383 116.853C119.799 116.909 120.201 117.038 120.569 117.234Z" fill="#FBFAFB"/>
<path d="M83.3627 117.083C83.0458 117.35 82.6611 117.534 82.2471 117.614C81.8331 117.694 81.4044 117.668 81.0039 117.54C81.0039 117.474 81.56 117.518 82.1956 117.392C82.8312 117.266 83.3261 117.025 83.3627 117.083Z" fill="#FBFAFB"/>
<path d="M86.1751 129.566C86.0988 129.956 85.9445 130.329 85.7206 130.664C85.5627 130.966 85.3836 131.257 85.1843 131.536L85.0842 131.475C85.1637 131.398 85.2248 131.366 85.2391 131.379C85.2534 131.392 85.2392 131.455 85.1756 131.548L84.8936 132.019L85.0755 131.486C85.2054 131.17 85.3572 130.863 85.5299 130.567C85.6787 130.198 85.8974 129.858 86.1751 129.566Z" fill="#FBFAFB"/>
<path d="M98.6355 139.104C98.3972 138.726 98.2294 138.31 98.1397 137.876C97.9707 137.458 97.8785 137.016 97.8672 136.569C98.2749 137.359 98.535 138.211 98.6355 139.087V139.104Z" fill="#FBFAFB"/>
<path d="M122.004 115.164C122.004 115.164 120.609 112.55 118.641 112.388C116.673 112.227 98.2764 116.994 98.2764 116.994C98.2764 116.994 98.7038 119.565 100.753 119.464C103.024 119.199 105.275 118.799 107.493 118.266L98.8579 121.782C99.2545 122.682 99.9857 123.408 100.91 123.819C101.833 124.231 102.884 124.298 103.857 124.009C107.492 123.037 113.723 121.856 113.723 121.856L102.42 126.615C102.42 126.615 103.252 129.509 106.247 128.584C108.467 127.957 110.741 127.52 113.041 127.277L105.997 130.288C105.997 130.288 106.229 132.715 109.392 132.289C112.554 131.862 118.299 130.908 118.299 130.908C119.435 132.794 120.75 134.577 122.226 136.232C127.134 141.565 130.012 138.411 130.012 138.411L134.457 139.945C134.634 139.074 136.952 125.426 136.952 125.426L128.134 124.367C128.134 124.367 124.684 117.065 124.082 116.328C123.554 115.717 122.818 115.305 122.004 115.164Z" fill="#B78876"/>
<path d="M117.568 115.395C117.568 115.456 115.191 116.206 112.214 117.071C109.238 117.936 106.812 118.583 106.788 118.527C106.764 118.47 109.172 117.716 112.146 116.851C115.121 115.985 117.553 115.334 117.568 115.395Z" fill="#7B4B45"/>
<path d="M118.038 120.146C117.849 120.26 117.65 120.359 117.443 120.442L115.789 121.182C114.389 121.797 112.444 122.624 110.29 123.527C108.135 124.43 106.172 125.226 104.745 125.784C104.03 126.063 103.45 126.281 103.046 126.425C102.842 126.512 102.629 126.578 102.41 126.62C102.601 126.51 102.802 126.417 103.01 126.342L104.682 125.635L110.195 123.317L115.721 121.032L117.407 120.361C117.608 120.267 117.82 120.195 118.038 120.146Z" fill="#7B4B45"/>
<path d="M121.154 124.634C119.778 125.211 118.37 125.717 116.936 126.15C115.53 126.657 114.096 127.094 112.642 127.457C114.016 126.878 115.421 126.369 116.852 125.934C118.263 125.431 119.698 124.997 121.154 124.634Z" fill="#7B4B45"/>
<path d="M122.464 130.002C121.051 130.674 119.497 131.026 117.92 131.031C117.92 130.965 118.953 130.835 120.192 130.547C121.431 130.259 122.437 129.941 122.464 130.002Z" fill="#7B4B45"/>
<path d="M130.99 130.246L127.971 124.193L124.967 118.149C125.08 118.063 126.517 120.764 128.184 124.097C129.852 127.431 131.125 130.203 130.99 130.246Z" fill="#7B4B45"/>
<path d="M50.0314 59.2986L35.3887 87.6903L38.4609 88.9852L52.6905 60.2523L50.0314 59.2986Z" fill="#455A64"/>
<path d="M57.2386 61.4767C65.6898 61.4767 72.5408 54.9078 72.5408 46.8047C72.5408 38.7017 65.6898 32.1328 57.2386 32.1328C48.7875 32.1328 41.9365 38.7017 41.9365 46.8047C41.9365 54.9078 48.7875 61.4767 57.2386 61.4767Z" fill="#B78876"/>
<path d="M72.5224 47.4842C72.4301 47.1816 72.3885 46.8669 72.3992 46.5519C72.3992 46.3995 72.3902 46.2296 72.3722 46.0423C72.3491 45.8549 72.3134 45.6545 72.2808 45.4329C72.2188 44.9263 72.1233 44.4241 71.9948 43.9292C71.6755 42.5719 71.1503 41.2669 70.4361 40.0557C69.5092 38.4559 68.2758 37.0381 66.8006 35.8768C65.0172 34.4685 62.9145 33.4805 60.661 32.9921C60.0482 32.8609 59.4273 32.7677 58.802 32.7133C58.4842 32.7133 58.1609 32.6478 57.8383 32.6432H56.3614L55.8657 32.6958C55.5384 32.7346 55.2023 32.7567 54.8654 32.8093C54.1932 32.9272 53.5297 33.0872 52.8793 33.2884C52.2097 33.487 51.5553 33.7301 50.921 34.0159C50.6032 34.1682 50.2941 34.3426 49.9803 34.5041C49.6636 34.6669 49.3599 34.8517 49.0715 35.0572C48.4635 35.4558 47.8836 35.8925 47.3356 36.3643C46.7975 36.8568 46.2933 37.3823 45.8261 37.9373C44.8618 39.0776 44.0946 40.3589 43.5539 41.7323C42.404 44.5718 42.2445 47.692 43.0995 50.6257C43.5083 52.0414 44.1521 53.3847 45.0062 54.6042C45.4196 55.2014 45.8751 55.7707 46.3695 56.3083C46.8691 56.8222 47.4036 57.3039 47.9695 57.7502C48.2397 57.979 48.5267 58.1887 48.8283 58.3779C49.1239 58.5699 49.4146 58.7702 49.7141 58.9485C50.3201 59.288 50.9486 59.5893 51.5955 59.8504C52.225 60.1079 52.8718 60.3247 53.5315 60.4994C53.8588 60.5824 54.1901 60.6342 54.5135 60.7043L55.0045 60.8003C55.1633 60.8307 55.3318 60.8391 55.4955 60.8566L56.4679 60.9572H57.4363C58.0653 60.9627 58.6939 60.9263 59.3176 60.8482C62.1347 60.4726 64.7856 59.3475 66.9698 57.6007C69.1539 55.8539 70.7838 53.5552 71.6747 50.9654C71.851 50.4839 71.9938 49.9918 72.1021 49.4922C72.1569 49.2789 72.2157 49.0786 72.2522 48.895C72.2888 48.7114 72.307 48.5423 72.3316 48.3892C72.3502 48.0741 72.4207 47.7637 72.5406 47.4698C72.6027 47.7814 72.6118 48.1006 72.5676 48.4151C72.5715 48.5884 72.5625 48.7617 72.5406 48.9338C72.5136 49.1212 72.4818 49.3307 72.4453 49.5569C72.3773 50.0759 72.2665 50.5889 72.114 51.0911C71.7246 52.481 71.1113 53.804 70.2963 55.0125C69.0964 56.8154 67.507 58.3504 65.6356 59.514C63.7641 60.6776 61.6541 61.4428 59.4479 61.7578C58.7841 61.8517 58.1144 61.9013 57.4435 61.9063H56.4107L55.3699 61.8149C55.1928 61.8128 55.0162 61.7952 54.8424 61.7623L54.3149 61.6664C53.9645 61.5963 53.6102 61.5445 53.2606 61.4614C52.5497 61.2788 51.8516 61.0531 51.1704 60.7858C50.4727 60.525 49.794 60.2196 49.1389 59.8717C48.8116 59.6843 48.4978 59.471 48.1753 59.2623C47.8572 59.0597 47.5536 58.8371 47.2664 58.5958C46.6533 58.1184 46.0735 57.6032 45.5305 57.0532C44.9964 56.4772 44.5045 55.8663 44.0584 55.2251C43.1281 53.9117 42.4267 52.4619 41.9817 50.9326C41.0335 47.7757 41.1931 44.4076 42.4361 41.3461C43.0253 39.8631 43.8634 38.4824 44.9172 37.2586C45.424 36.6603 45.9738 36.0968 46.5625 35.5721C47.154 35.0723 47.7796 34.611 48.4351 34.1911C48.751 33.9748 49.082 33.7796 49.4258 33.6068C49.7666 33.4324 50.0987 33.2495 50.4435 33.0926C51.1274 32.7901 51.8318 32.5323 52.552 32.321C53.2549 32.114 53.9715 31.9524 54.697 31.8373C55.0514 31.7847 55.412 31.7611 55.7695 31.7238L56.301 31.6758H57.878C58.2236 31.6758 58.5645 31.7367 58.9053 31.7672C59.573 31.8307 60.2351 31.9399 60.8866 32.094C63.0518 32.6048 65.0779 33.5543 66.8284 34.8786C68.5789 36.2029 70.0133 37.8713 71.0351 39.7716C71.7332 41.0534 72.2159 42.4329 72.4651 43.8591C72.5691 44.3737 72.6312 44.8953 72.6511 45.4191C72.6511 45.6477 72.6828 45.8549 72.6876 46.0468C72.6954 46.2202 72.6864 46.3938 72.6606 46.5656C72.6669 46.877 72.6202 47.1872 72.5224 47.4842Z" fill="#263238"/>
<path d="M61.8657 49.3144C61.8502 50.0924 61.5185 50.8338 60.9412 51.3808C60.3639 51.9277 59.5867 52.2369 58.7752 52.2425C57.9868 52.2807 57.2149 52.0171 56.6291 51.5097C56.0433 51.0023 55.6916 50.2927 55.6514 49.5368C55.6514 49.5124 55.6514 49.4873 55.6514 49.4606C55.6652 48.6838 55.9948 47.9429 56.57 47.3957C57.1452 46.8485 57.9205 46.5382 58.7307 46.531C59.5191 46.4916 60.2914 46.754 60.878 47.2605C61.4645 47.7671 61.8173 48.4763 61.8585 49.2321C61.8633 49.2618 61.8649 49.2877 61.8657 49.3144Z" fill="#263238"/>
<path d="M63.1972 41.7758C62.8 42.1506 60.4706 40.4161 57.1434 40.3285C53.8162 40.2409 51.2898 41.7842 50.9403 41.3789C50.7679 41.1999 51.1786 40.5075 52.2717 39.793C53.7569 38.8721 55.5034 38.4154 57.2705 38.4858C59.0128 38.5276 60.6955 39.1017 62.0738 40.1243C63.0653 40.8914 63.3942 41.6059 63.1972 41.7758Z" fill="#263238"/>
<path d="M48.6096 55.8587C48.5301 55.9676 47.4973 55.458 46.2739 54.1158C44.6848 52.3459 43.681 50.1625 43.3904 47.8438C43.0998 45.525 43.5355 43.1758 44.642 41.0953C45.5008 39.5223 46.3779 38.7949 46.4828 38.8817C46.5877 38.9685 46.0284 39.872 45.4103 41.4221C44.5887 43.4175 44.298 45.5777 44.5646 47.7077C44.8311 49.8377 45.6466 51.8706 46.9372 53.6229C47.9097 54.9994 48.7271 55.7238 48.6096 55.8587Z" fill="#FBFAFB"/>
<path d="M52.6304 58.3125C52.6034 58.4649 52.4532 58.5868 52.2029 58.6309C51.8919 58.6632 51.5781 58.6017 51.3053 58.4549C51.0325 58.3081 50.8141 58.0834 50.6807 57.8121C50.6326 57.7311 50.6128 57.6375 50.6243 57.545C50.6357 57.4524 50.6778 57.3658 50.7443 57.2979C51.0033 57.1021 51.4593 57.2453 51.8851 57.4632C52.311 57.6811 52.6669 57.9987 52.6304 58.3125Z" fill="#FBFAFB"/>
<path d="M26.4167 85.9207C26.4167 85.9207 33.0473 71.7241 33.9561 71.0134C34.865 70.3027 44.1721 63.9292 44.1721 63.9292C45.1201 63.8334 46.0775 63.9839 46.944 64.3649C47.8179 64.8661 49.8835 67.9946 50.6978 69.2759C50.8083 69.4473 50.8796 69.6394 50.907 69.8392C50.9343 70.0391 50.9172 70.2422 50.8567 70.4352L49.7754 73.259C49.7754 73.259 50.9028 74.963 50.5794 76.1483C50.3501 76.9225 49.996 77.6576 49.5299 78.3269C49.81 78.8422 49.9807 79.4056 50.0323 79.9846C50.0838 80.5635 50.0152 81.1465 49.8302 81.6999C49.2999 82.7508 48.3815 83.5755 47.253 84.0141C47.253 84.0141 46.4585 86.9513 46.3441 87.5303C46.2297 88.1092 42.8541 89.3036 42.5085 89.2061C42.1629 89.1086 39.7819 88.0772 39.7819 88.0772C39.7819 88.0772 38.5005 92.8701 37.0553 93.903C36.0738 94.5476 34.9453 94.9569 33.7647 95.0967L32.7605 102.012L21.2217 94.9915L26.4167 85.9207Z" fill="#B78876"/>
<path d="M41.4512 82.187C42.4414 82.4438 43.413 82.7627 44.3597 83.1415C45.9486 83.712 47.2412 84.1477 47.2197 84.2079C46.2075 84.0167 45.2189 83.7246 44.2699 83.3365C43.2977 83.0315 42.3547 82.6469 41.4512 82.187Z" fill="#7B4B45"/>
<path d="M41.7422 76.1782C42.1487 76.2014 42.5511 76.2686 42.9418 76.3786C43.6783 76.5355 44.6896 76.7838 45.7868 77.106C46.8839 77.4282 47.8683 77.755 48.573 78.0201C48.9616 78.1396 49.3362 78.2973 49.6908 78.4909C49.2902 78.419 48.8977 78.3111 48.5182 78.1687C47.8032 77.9508 46.814 77.6461 45.7185 77.3307C44.6229 77.0154 43.6235 76.7381 42.9005 76.5423C42.5042 76.4532 42.1166 76.3314 41.7422 76.1782Z" fill="#7B4B45"/>
<path d="M40.7275 71.4277C41.1742 71.3884 41.624 71.3971 42.0686 71.4537C43.1372 71.5387 44.1988 71.6913 45.2464 71.9107C46.3025 72.1281 47.3426 72.4118 48.3599 72.76C48.7888 72.8858 49.2017 73.0567 49.5913 73.2696C49.1567 73.1768 48.7287 73.0575 48.3099 72.9124C47.5154 72.6839 46.4286 72.3853 45.1972 72.1278C44.1481 71.9016 43.0874 71.7284 42.0194 71.609C41.5849 71.5775 41.1532 71.5169 40.7275 71.4277Z" fill="#7B4B45"/>
<path d="M47.4595 72.4609C47.1917 71.7806 47.1241 71.0427 47.2641 70.328C46.9042 70.3479 46.544 70.2945 46.2071 70.1713C45.8703 70.0482 45.5644 69.8581 45.3097 69.6135C44.7234 70.2283 43.9464 71.0776 43.3418 71.6923L47.4595 72.4609Z" fill="#455A64"/>
<path d="M135.73 121.953L160.486 113.622L176.247 127.827C187.299 142.159 174.665 154.488 162.758 152.595C153.978 151.197 130.219 142.16 130.219 142.16L135.73 121.953Z" fill="#FFC100"/>
<path d="M130.204 142.159V142.063L130.272 141.78C130.336 141.519 130.431 141.152 130.55 140.691C130.804 139.728 131.173 138.351 131.627 136.634L135.39 122.77L135.413 122.674H135.518L141.881 123.664L160.969 126.68L166.745 127.622L168.314 127.887L168.718 127.964C168.765 127.968 168.811 127.98 168.855 127.999H168.714L168.305 127.942L166.728 127.72L160.943 126.848L141.855 123.898L135.492 122.9L135.624 122.817C134.083 128.369 132.742 133.197 131.783 136.661C131.297 138.369 130.91 139.742 130.638 140.698L130.32 141.779C130.288 141.893 130.257 141.984 130.233 142.058C130.231 142.093 130.221 142.128 130.204 142.159Z" fill="#263238"/>
<path d="M165.484 124.367C165.484 124.428 163.28 124.855 160.535 125.322C157.79 125.788 155.536 126.11 155.536 126.049C155.536 125.988 157.761 125.543 160.485 125.077C162.135 124.748 163.804 124.511 165.484 124.367Z" fill="#263238"/>
</svg>
