<svg viewBox="0 0 341.04 309.56" xmlns="http://www.w3.org/2000/svg"><text fill="#662d91" font-family="ArialMT, Arial" font-size="18" transform="translate(29.5 33.98)">Hi there, tell us about yourself</text><path d="m59 53 76.62.08h36.33a35.7 35.7 0 0 1 4.51.07c5.16.7 3.33.94 5 4.05 1.45 2.7 1.94 5.52 4.28 7.76a.65.65 0 0 0 .79.1c4.55-3.24 2.5-10.32 8.62-11.87 2.83-.72 7.5-.07 10.34-.07h16c15 0 30.93 1.43 45.86-.52 11.95-1.57 12-9.93 12-20 .06-8.47 2.82-23.1-5.7-28.43-3-1.9-6.4-1.41-9.88-1.42-10.7 0-21.41 0-32.11 0q-32.24 0-64.47.13c-44.25.12-88.51.57-132.75.23-5.91-.05-11.11-.59-15.59 4.1-5.76 6-5.79 15.92-5.63 23.7.13 6.34.1 13.78 5.62 18 6.3 4.82 16 4.33 23.45 4.36a.93.93 0 0 0 0-1.86c-10 0-23.74.63-26.6-11.52-2.8-11.87-1.88-34 13.53-35.09 20-1.48 40.76 0 60.86 0 46.23-.14 92.46-.38 138.69-.48q16.39 0 32.8-.05h6.14c8.34.37 10.29 8.03 10.29 15.26 0 4.4-.05 8.8-.07 13.19 0 2.19.06 4.41 0 6.6-.41 8.69-5.09 11.46-12.72 12.18-16.17 1.52-32.9.35-49.1.35-5.27 0-10.54 0-15.82 0-1.94 0-5.75-.55-7.36.16-4 1.73-4.15 14-8.84 8.5-1.55-1.82-.93-6.6-2.77-8.06-1.59-1.25-4.75-.6-6.63-.59-12.57.12-25.15 0-37.73 0h-77.96a.58.58 0 1 0 0 1.14z" fill="#66429c"/><path d="m33.08 1c61.82.41 123.8 1 185.61 0a.21.21 0 0 0 .2-.23.21.21 0 0 0 -.2-.2c-61.82-1.05-123.79-.42-185.61.03a.19.19 0 0 0 -.17.2.18.18 0 0 0 .17.16z" fill="#66429c"/><path d="m222.48.64a99.73 99.73 0 0 0 17.28.11.17.17 0 0 0 .16-.19.17.17 0 0 0 -.16-.17 99.73 99.73 0 0 0 -17.28.11.07.07 0 1 0 0 .14z" fill="#66429c"/><g opacity=".1"><g fill="#ebebeb"><path d="m34.05 271.16-10.7.23-5.43.08c-1.82 0-3.64 0-5.46 0h-.36v-.37-9.13-.41h.41l10.8.05c3.6 0 7.2.09 10.8.14h.22v.25c0 1.55-.07 3.09-.1 4.61zm0 0-.11-4.62c0-1.52-.09-3-.11-4.51l.22.22c-3.6 0-7.19.13-10.8.14l-10.8.05.41-.41v9.13l-.36-.37h5.34l5.37.09z"/><path d="m22 282.67-10.7.22-5.43.11c-1.82 0-3.64 0-5.46 0h-.36v-.37-9.13-.41h.36l10.8.05c3.6 0 7.2.09 10.8.14h.23v.22c0 1.55-.07 3.09-.11 4.61zm0 0-.12-4.62c0-1.52-.09-3-.1-4.51l.22.22c-3.6 0-7.2.13-10.8.14l-10.79.1.4-.41v9.13l-.36-.37c1.77 0 3.55 0 5.34.05l5.37.09z"/><path d="m306.27 174.11-10.71.23-5.43.09c-1.81 0-3.64 0-5.46 0h-.37v-.37-9.13-.41h.41l10.8.05c3.6 0 7.19.09 10.8.13h.22v.3c0 1.55-.07 3.08-.11 4.61zm0 0-.11-4.62c-.05-1.52-.1-3-.11-4.51l.22.22c-3.61 0-7.2.13-10.8.13l-10.8.06.41-.41-.05 9.13-.36-.37h5.33l5.37.09z"/><path d="m294.22 185.62-10.71.22-5.43.1h-5.83v-.37-9.13-.44h.42 10.8c3.6 0 7.19.09 10.8.13h.22v.22c0 1.55-.07 3.08-.11 4.61zm0 0-.12-4.62c0-1.52-.09-3-.11-4.51l.23.22c-3.6 0-7.2.13-10.8.13l-10.8.06.41-.41v9.13l-.36-.37c1.78 0 3.55 0 5.34.05l5.36.09z"/><path d="m282.21 174.11-10.7.23-5.43.09c-1.82 0-3.65 0-5.46 0h-.36v-.37l-.05-9.13v-.41h.41l10.8.05c3.6 0 7.2.09 10.8.13h.22v.3c0 1.55-.07 3.08-.1 4.61zm0 0-.11-4.62c0-1.52-.09-3-.11-4.51l.22.22c-3.6 0-7.19.13-10.8.13l-10.8.06.39-.39v9.13l-.37-.37h5.35l5.36.09z"/><path d="m340.82 282.67-10.71.22-5.43.09c-1.81 0-3.64 0-5.46 0h-.36v-.37-9.13-.41h.4l10.8.05c3.6 0 7.2.09 10.8.14h.14v.22c0 1.55-.06 3.09-.1 4.61zm0 0-.11-4.62c0-1.52-.1-3-.11-4.51l.22.22c-3.6 0-7.2.13-10.8.14l-10.8.05.41-.41-.05 9.13-.36-.37c1.78 0 3.56 0 5.34.05l5.37.09z"/><path d="m328.78 52.28-10.71.22-5.44.1h-5.79v-9.9h.42 10.8c3.6 0 7.2.09 10.8.14h.22v.22c0 1.54-.07 3.08-.11 4.6zm0 0-.12-4.62c0-1.52-.1-3-.11-4.51l.23.22c-3.61 0-7.2.13-10.8.13l-10.8.06.4-.41-.05 9.13-.35-.37h5.33l5.37.1z"/><path d="m340.82 63.76-10.71.24-5.43.1h-5.82v-.32-9.13-.41h.4l10.8.05c3.6 0 7.2.09 10.8.13h.14v.22c0 1.54-.06 3.08-.1 4.61zm0 0-.11-4.62c0-1.51-.1-3-.11-4.51l.22.22c-3.6 0-7.2.13-10.8.13l-10.8.05.41-.4-.05 9.13-.36-.37h5.34l5.37.1z"/><path d="m22 52.28-10.7.22-5.47.1h-5.78v-.36-9.13-.42h.36l10.8.05c3.6 0 7.2.09 10.8.13h.23v.22c0 1.55-.07 3.09-.11 4.61zm0 0-.12-4.62c0-1.52-.09-3-.1-4.51l.22.22c-3.6 0-7.2.13-10.8.13l-10.8.06.4-.41v9.13l-.36-.37h5.34l5.37.1z"/></g><path d="m292.04 59.31h40.06v40.06h-40.06z" fill="#fff"/><path d="m290 57.23v44.23h44.22v-44.23zm42.17 42.14h-40.17v-40.06h40.09z" fill="#dbdbdb"/><path d="m297.99 77.76h31.23v13.85h-31.23z" fill="#ebebeb"/><path d="m304.08 71.34h16v16h-16z" fill="#c7c7c7"/><path d="m334.19 57.23h1.71v44.23h-1.71z" fill="#c7c7c7"/><path d="m292.04 116.19h40.06v40.06h-40.06z" fill="#fff"/><path d="m298.93 122.6h10.46v30.21h-10.46z" fill="#c7c7c7"/><path d="m290 114.1v44.23h44.22v-44.23zm42.17 42.14h-40.17v-40.06h40.09z" fill="#dbdbdb"/><path d="m304.07 128.22h16v16h-16z" fill="#ebebeb"/><path d="m334.19 114.11h1.71v44.23h-1.71z" fill="#c7c7c7"/><path d="m292.04 173.08h40.06v40.06h-40.06z" fill="#fff"/><path d="m296.49 178.53h21.98v13.14h-21.98z" fill="#ebebeb"/><path d="m290 171v44.23h44.22v-44.23zm42.17 42.15h-40.17v-40.08h40.09z" fill="#dbdbdb"/><path d="m304.07 185.11h16v16h-16z" fill="#c7c7c7"/><path d="m334.19 170.99h1.71v44.23h-1.71z" fill="#c7c7c7"/><path d="m6.25 53.65h102.72v157.52h-102.72z" fill="#ebebeb"/><path d="m11.84 59.96h43.38v70.06h-43.38z" fill="#fff"/><path d="m59.99 59.96h43.38v70.06h-43.38z" fill="#fff"/><path d="m11.84 134.79h43.38v70.06h-43.38z" fill="#fff"/><path d="m59.99 134.79h43.38v70.06h-43.38z" fill="#fff"/><path d="m6.25 53.65h24.33v225.35h-24.33z" fill="#dbdbdb"/><path d="m26 64.36.2 24.37.07 24.37.13 48.73-.13 48.73-.07 24.36-.2 24.37-.19-24.37-.06-24.36-.13-48.73.13-48.73.06-24.37z" fill="#ebebeb"/><path d="m14.8 70 .2 21.76.11 21.77.07 43.47-.09 43.51-.09 21.79-.18 21.77-.19-21.77-.12-21.75-.1-43.55.09-43.51.11-21.76z" fill="#ebebeb"/><path d="m20.38 75.15.19 25.47.07 25.48.13 51-.13 50.9-.07 25.47-.19 25.53-.2-25.48-.06-25.52-.12-50.95.13-51 .07-25.48z" fill="#ebebeb"/><path d="m10.64 65.64.18 26.67.08 26.69.1 53.3-.13 53.32-.07 26.67-.17 26.71-.19-26.66-.06-26.67-.13-53.32.13-53.35.06-26.67z" fill="#ebebeb"/><path d="m84.64 53.65h24.33v225.35h-24.33z" fill="#dbdbdb"/><path d="m89.25 64.36.19 24.37.08 24.37.13 48.73-.13 48.73-.07 24.36-.2 24.37-.19-24.37-.06-24.36-.13-48.73.13-48.73.06-24.37z" fill="#ebebeb"/><path d="m100.43 70 .19 21.75.1 21.77.09 43.51-.09 43.51-.1 21.75-.19 21.77-.19-21.77-.1-21.75-.09-43.54.09-43.51.1-21.77z" fill="#ebebeb"/><path d="m94.84 75.15.16 25.47.07 25.48.13 51-.1 50.9-.1 25.47-.16 25.53-.19-25.48-.06-25.52-.13-50.95.13-51 .06-25.48z" fill="#ebebeb"/><path d="m104.58 65.64.19 26.67.07 26.67.16 53.32-.13 53.32-.06 26.67-.2 26.66-.19-26.66-.07-26.67-.13-53.32.13-53.32.07-26.67z" fill="#ebebeb"/><path d="m249 97.84a19.41 19.41 0 0 0 4.83 4 20 20 0 1 0 -4.8-4z" fill="#ebebeb"/><path d="m258.93 80.7a6.09 6.09 0 1 0 7.62-4 6.1 6.1 0 0 0 -7.62 4z" fill="#fff"/><path d="m249.74 95.44-.74 2.44a19.43 19.43 0 0 0 4.82 4 20 20 0 0 0 15.31 2.2l.74-2.39a10.54 10.54 0 1 0 -20.13-6.24z" fill="#fff"/><path d="m272 137.54a9.43 9.43 0 1 0 -4.08-12.7 9.59 9.59 0 0 0 -.92 2.8 9.44 9.44 0 0 0 5 9.9z" fill="#ebebeb"/><path d="m273.4 128.3a2.87 2.87 0 1 0 2.64-3.09 2.86 2.86 0 0 0 -2.64 3.07z" fill="#fff"/><path d="m271.9 136.36.09 1.18a9.45 9.45 0 0 0 9.9-.81l-.1-1.18a5 5 0 0 0 -9.92.28 2.64 2.64 0 0 0 0 .28v.22z" fill="#fff"/><path d="m20.69 309.46a9.43 9.43 0 1 0 -8-10.65 9.06 9.06 0 0 0 .05 2.94 9.41 9.41 0 0 0 7.95 7.71z" fill="#ebebeb"/><path d="m19 300.32a2.87 2.87 0 1 0 1.47-3.79 2.87 2.87 0 0 0 -1.47 3.79z" fill="#fff"/><path d="m20.21 308.38.48 1.08a9.41 9.41 0 0 0 9.08-4l-.47-1.07a5 5 0 1 0 -9.09 4z" fill="#fff"/></g><path d="m94 182.59c-3.8-3.72-8.71-8.22-14.51-6.61-5.47 1.51-7.56 7.47-8.54 12.44-1.26 6.4-2.24 12.87-3.25 19.32s-2 13-2.93 19.55q-.8 5.52-1.57 11.05c-.26 1.84-.51 3.68-.77 5.52s-.55 3.61-.65 5.44a.51.51 0 0 0 .54.48.5.5 0 0 0 .46-.37c.7-3.07 1-6.27 1.44-9.39s.91-6.27 1.37-9.4q1.36-9.33 2.79-18.68t2.9-18.67c.85-5.27 1.24-11.82 5.92-15.3a9 9 0 0 1 8.74-.82c3.08 1.17 5.54 3.38 7.94 5.56.04.07.12-.05.12-.12z" fill="#263238"/><path d="m88.75 178.79s-7.75-2.79-11.59 2.87.75 20.08 36.1 28.21a100 100 0 0 0 -8.51-32c-7.58-16.48-21.08-10.23-16 .92z" fill="#ffc727"/><path d="m111.23 207.54a29.18 29.18 0 0 0 -1.78-2.87c-.59-.91-1.19-1.81-1.79-2.72-.46-.68-.92-1.35-1.39-2a4.46 4.46 0 0 0 .07-.51l.12-.91c.08-.67.18-1.33.28-2s.21-1.32.33-2a10.61 10.61 0 0 1 .47-2.08c0-.11-.15-.16-.16 0a8.1 8.1 0 0 1 -.34 1.09c-.09.3-.16.6-.24.9-.17.67-.34 1.34-.49 2s-.25 1.24-.36 1.87c0 .3-.1.61-.14.91-.63-.9-1.27-1.79-1.93-2.66-1.88-2.48-3.88-4.86-5.88-7.18v-.06c.18-3.72.09-7.39.92-11 0-.1-.13-.15-.15 0a38.11 38.11 0 0 0 -1.32 10.57c-.74-.83-1.48-1.64-2.24-2.45q-2.58-2.79-5.26-5.46a.08.08 0 0 0 -.11 0 .07.07 0 0 0 0 .11c3 3.2 5.81 6.54 8.56 9.94a63.4 63.4 0 0 0 -6.46.24c-2.4.18-4.78.49-7.16.82-.1 0-.07.17 0 .15a68.54 68.54 0 0 1 7.15-.64c2.31-.09 4.6 0 6.9 0 1.49 1.85 3 3.71 4.42 5.58h-2c-1.07 0-2.15.09-3.22.18a49.6 49.6 0 0 0 -6.52 1 .09.09 0 0 0 -.08.08.08.08 0 0 0 .08.08c2.17-.25 4.34-.45 6.53-.53h4.75a2.07 2.07 0 0 0 .89-.08c1 1.24 1.91 2.47 2.85 3.71q1.13 1.5 2.22 3c.73 1 1.41 2.15 2.24 3.11a.15.15 0 0 0 .2.06.15.15 0 0 0 0-.2z" fill="#263238"/><path d="m92.13 186.82a25.13 25.13 0 0 0 -3.78-.19c-1.26 0-2.52 0-3.78.09a.08.08 0 0 0 0 .15c1.28-.09 2.56-.11 3.84-.09s2.47.13 3.71.1c.05 0 .06-.06.01-.06z" fill="#263238"/><path d="m103.23 189.67c.15-1.21.3-2.42.55-3.61a.07.07 0 0 0 0-.1s-.08 0-.1 0a0 0 0 0 0 0 .05c-.18 1.18-.41 2.36-.59 3.55-.09.6-.17 1.19-.24 1.79a9.57 9.57 0 0 0 -.15 1.69c0 .1.18.11.21 0a9.39 9.39 0 0 0 .18-1.68c.01-.55.07-1.12.14-1.69z" fill="#263238"/><path d="m100.91 176.29c-.31 1.17-.62 2.36-.84 3.56-.11.61-.2 1.22-.28 1.83a7.62 7.62 0 0 0 -.12 1.78s.08 0 .09 0a9.73 9.73 0 0 0 .28-1.7c.08-.59.17-1.18.27-1.76.21-1.23.43-2.45.75-3.67-.06-.08-.13-.14-.15-.04z" fill="#263238"/><path d="m54.87 248q-.28-3.35-.65-6.67c-.46-4.41-1-8.8-1.59-13.19s-1.15-8.76-1.85-13.12a34.26 34.26 0 0 0 -1.35-6 5.7 5.7 0 0 0 -3.3-3.72c-4.16-1.44-7 2.88-8.65 5.93 0 .09.09.16.14.08 1-1.45 3.79-5.51 6.94-5.32 2.13.13 3.83 1.63 4.85 6.93 2.53 13.19 4.82 40 5.09 41.71.14.93.8.89.8-.11.02-2.16-.3-4.35-.43-6.52z" fill="#263238"/><path d="m38.61 209.62s3.63-12.84-4.41-6.42c-13.37 10.69-13.85 33.93-13.85 33.93s23.78-13.82 26.74-22.93c4.41-13.57-8.48-4.58-8.48-4.58z" fill="#ffc727"/><path d="m43.11 215.92c-1.87.38-3.76.63-5.65.9l-2.67.37c-.6.09-1.21.14-1.82.22 1.77-2.44 3.56-4.87 5.25-7.36.07-.1-.08-.2-.15-.12a56.17 56.17 0 0 0 -4 4.59l-1-3c-.43-1.14-.81-2.3-1.13-3.48 0-.1-.18 0-.16.05.33 1.17.56 2.37.87 3.55s.65 2.27 1.06 3.38c-.88 1.13-1.71 2.28-2.52 3.46-.41-1.16-.92-2.29-1.28-3.47a.08.08 0 0 0 -.11 0s0 .05 0 .08c.43 1.3.65 2.66 1.06 4-.55.8-1.1 1.59-1.62 2.4-1 1.48-1.86 3-2.75 4.52a.35.35 0 0 0 -.21.35c-1.5 2.6-2.93 5.24-4.34 7.9v.11a.08.08 0 0 0 .11 0c1.41-2.63 3-5.19 4.62-7.7a3.47 3.47 0 0 1 .78-.15l.82-.18c.62-.14 1.23-.3 1.84-.45 1.2-.3 2.4-.58 3.62-.79.1 0 .06-.17 0-.15-1.44.27-2.89.43-4.34.6-.69.08-1.37.17-2.06.28h-.1q1.29-2 2.6-3.86c.87-1.26 1.76-2.49 2.65-3.73.82-.11 1.64-.33 2.46-.49l2.76-.53c1.84-.37 3.67-.78 5.52-1.09.03-.07-.01-.23-.11-.21z" fill="#263238"/><path d="m28.82 217.19c-.12-.34-.22-.69-.33-1a19.88 19.88 0 0 1 -.49-2.19c0-.1-.18 0-.15 0 .15.72.32 1.45.49 2.17a13 13 0 0 0 .62 2.13.15.15 0 0 0 .18.09.14.14 0 0 0 .09-.17c-.23-.31-.3-.68-.41-1.03z" fill="#263238"/><path d="m45.54 213c-1.08.16-2.18.24-3.27.33s-2.18.25-3.27.41a.05.05 0 1 0 0 .1c1.1-.08 2.19-.16 3.28-.3s2.17-.31 3.26-.38c.11-.06.1-.23 0-.16z" fill="#263238"/><path d="m72.37 231.74c-.42-9.45-1-18.89-2-28.3-.47-4.69-1-9.38-1.66-14a101.94 101.94 0 0 0 -2.71-13.63 25.92 25.92 0 0 0 -4.52-9.58 10.29 10.29 0 0 0 -9.14-4c-4.14.51-7.47 3.12-10.35 6-3.23 3.18-6.19 6.64-9.19 10l-2.25 2.6c-.07.07 0 .18.12.11q4.38-5.05 9.15-9.76c2.94-2.88 6-6 10-7.23a10.42 10.42 0 0 1 5.83-.14 9.37 9.37 0 0 1 4 2.53 20.85 20.85 0 0 1 4.53 8.66c2.55 8.69 3.46 17.8 4.4 26.77s1.61 18.25 2.07 27.4.82 18.42 1.7 27.59c.11 1.14.26 2.26.4 3.39.1.76 1.28.76 1.21 0-.73-9.43-1.16-18.91-1.59-28.41z" fill="#263238"/><path d="m41.5 169.21s5.4-10-1-13.19-27.72 20.62-34 55.46c0 0 34.48-15.25 46.18-30.45s-1.5-18.55-11.18-11.82z" fill="#ffc727"/><g fill="#263238"><path d="m46.57 177.34c-3.88 0-7.74-.3-11.62-.27.73-.83 1.45-1.67 2.19-2.49a38.7 38.7 0 0 0 3-3.52c0-.08-.07-.2-.14-.13a28.14 28.14 0 0 0 -2.94 2.94c-1 1-1.93 2.06-2.89 3.1-1.48 1.6-2.94 3.23-4.38 4.86v-2.47c0-1.32 0-2.63.05-3.94 0-2.67 0-5.35.2-8 0-.11-.15-.1-.16 0-.19 2.67-.46 5.33-.59 8-.07 1.31-.1 2.63-.11 3.94v3.14l-.69.76c-3.09 3.53-6 7.19-8.89 10.91a2.6 2.6 0 0 0 -.05-.62 10.29 10.29 0 0 0 -.14-1.23c-.1-.89-.22-1.77-.35-2.66s-.26-1.66-.4-2.49-.38-1.87-.45-2.81a.08.08 0 0 0 -.08-.08.09.09 0 0 0 -.08.08 22.64 22.64 0 0 1 .32 2.84l.24 2.56c.08.85.15 1.7.24 2.56a9.89 9.89 0 0 0 .13 1.22 1.85 1.85 0 0 0 .07.62 1.19 1.19 0 0 0 .17.49l-1.48 1.92c-2 2.59-3.87 5.21-5.79 7.82-.06.08.05.19.12.11 1.81-2.37 3.68-4.7 5.58-7 1.42.06 2.86 0 4.28-.06s3 0 4.49 0a.07.07 0 0 0 .08-.08.08.08 0 0 0 -.08-.08h-4.48c-1.48 0-2.75-.06-4.12 0 1.67-2 3.35-4 5-6.05.62-.73 1.24-1.46 1.85-2.2a8.33 8.33 0 0 0 1.73.06h2c1.28 0 2.55 0 3.82-.05 2.63 0 5.27-.13 7.9-.14a.07.07 0 0 0 .08-.08.08.08 0 0 0 -.08-.08c-2.63 0-5.26-.14-7.9-.21l-3.82-.09h-3.18c1.45-1.72 2.89-3.44 4.34-5.15a.12.12 0 0 0 .08-.09c1.42-1.67 2.83-3.34 4.26-5l.59-.67c4 .12 8-.14 12-.06a.08.08 0 0 0 .1-.06.1.1 0 0 0 0-.07z"/><path d="m44.59 184.19h-.94a.07.07 0 1 0 0 .14h.94a.08.08 0 0 0 0-.11z"/><path d="m42.5 184.2c-1.24 0-2.48 0-3.72-.08l-1.87-.06a7.15 7.15 0 0 0 -1.73 0 .06.06 0 0 0 -.06.06.06.06 0 0 0 .06.06 6.28 6.28 0 0 0 1.73.12h5.58a.08.08 0 0 0 .01-.1z"/><path d="m31.66 195.83a54.09 54.09 0 0 0 -7.62-.69v.06c2.53.24 5.07.38 7.58.79.1.01.14-.14.04-.16z"/><path d="m21.3 184.74a5 5 0 0 0 -.08-.66c-.07-.5-.14-1-.22-1.5-.15-.94-.32-1.89-.5-2.83 0-.09-.16-.06-.15 0 .12 1 .22 1.95.31 2.92.05.48.08 1 .13 1.44a4 4 0 0 0 .19 1.37.18.18 0 0 0 .25.07.15.15 0 0 0 .08-.11 1.78 1.78 0 0 0 -.01-.7z"/><path d="m72 156.38c-1.23-2.29-2.8-5.33-5.88-5.13-2.54.16-3.69 2.75-4.23 4.9-1.68 6.63-1.8 13.63-2.13 20.43-.69 14.37-1.31 28.75-1.4 43.14v12c0 4 0 8.16.29 12.22a.3.3 0 0 0 .3.3.29.29 0 0 0 .3-.3c0-3.47-.1-7-.12-10.43s0-6.8.07-10.19q.16-10.32.55-20.62c.25-6.84.55-13.66.84-20.49.15-3.42.29-6.83.45-10.24s.29-6.62.67-9.91c.21-1.84.48-3.68.86-5.5a7.84 7.84 0 0 1 1.59-3.68 3.48 3.48 0 0 1 4.5-.33 9.59 9.59 0 0 1 3.19 4 .2.2 0 0 0 .15-.17z"/></g><path d="m71.2 155.29s-2.53-8.94 3.06-4.47c9.32 7.44 9.65 23.63 9.65 23.63s-16.56-9.62-18.62-16c-3.07-9.45 5.91-3.16 5.91-3.16z" fill="#ffc727"/><path d="m80.43 167.81-.47-.73a4.82 4.82 0 0 0 0-.76v-1.16c0-.75.05-1.51.08-2.26 0-.11-.15-.1-.16 0 0 .74-.06 1.48-.08 2.22v1.59c-.65-1-1.31-2-2-3l-.62-.84a17.8 17.8 0 0 1 -.05-2.92q0-1.56.06-3.12a.07.07 0 0 0 -.07-.07.08.08 0 0 0 -.08.07c0 1.09-.09 2.17-.14 3.25a22.28 22.28 0 0 0 -.07 2.31c-1.6-2.18-3.29-4.27-5-6.36a.08.08 0 0 0 -.11 0 .07.07 0 0 0 0 .11c1.07 1.35 2.09 2.73 3.09 4.12-2-.45-3.93-.71-5.91-1-.11 0-.14.14 0 .16 2.09.31 4.15.84 6.22 1.3.8 1.12 1.58 2.24 2.36 3.37.32.45.63.92.94 1.38h-.09l-.64-.09-1.38-.13c-1-.07-1.91-.12-2.87-.17-.1 0-.1.15 0 .16a26.53 26.53 0 0 1 2.82.19l1.48.18.65.08h.19l1.42 2.31c.94 1.38 1.77 2.87 2.77 4.2a.07.07 0 0 0 .11 0 .06.06 0 0 0 0-.07 43.77 43.77 0 0 0 -2.45-4.32z" fill="#263238"/><path d="m76.3 157.71v-1a16 16 0 0 1 .09-2.19.08.08 0 0 0 -.16 0c0 .72-.08 1.45-.11 2.17v1.59a1.51 1.51 0 0 0 0 .52c0 .07.11.06.14 0a1.24 1.24 0 0 0 0-.47 3.18 3.18 0 0 0 .04-.62z" fill="#263238"/><path d="m74.26 161.42c-.62-.11-1.25-.14-1.87-.19s-1.37-.12-2-.21a.09.09 0 0 0 -.08.08.08.08 0 0 0 .08.08c1.31.08 2.61.32 3.92.36 0 0 .02-.11-.05-.12z" fill="#263238"/><path d="m79.46 161.47c.05.07 0 .26 0 .34v1.54a1.28 1.28 0 0 0 0 .55h.06a.57.57 0 0 0 0-.26v-2.17c0-.07-.17-.15-.06 0z" fill="#263238"/><path d="m72.42 204.1c-3.49-2.62-6.62-6.38-11.3-6.56-3.87-.15-6.58 2.76-8.13 6a33.93 33.93 0 0 0 -1.9 5.34c-.7 2.45-1.35 4.91-2 7.38-1.21 4.86-2.26 9.74-3.09 14.74-.47 2.75-.91 5.51-1.26 8.28a70.93 70.93 0 0 0 -.81 8.48.44.44 0 0 0 .47.41.43.43 0 0 0 .39-.31c.47-2.32.67-4.71 1-7s.7-4.71 1.1-7.06c.8-4.69 1.72-9.37 2.77-14 1-4.38 2-8.83 3.4-13.1 1-3.06 2.64-6.63 5.94-7.73 5-1.67 9.6 2.58 13.28 5.34.11-.03.22-.15.14-.21z" fill="#263238"/><path d="m68.81 201.6s-3.21-9.17 1.44-11c7-2.7 25.18 17.82 21.61 49.27 0 0-14.08-7.76-24.47-16.48s-13.06-20.12-8.48-23.07 9.9 1.28 9.9 1.28z" fill="#ffc727"/><path d="m89.76 233.16a23.53 23.53 0 0 0 -1.7-3.17c-.59-1.08-1.19-2.15-1.81-3.21-1.22-2.07-2.42-4.15-3.66-6.2l-.61-1a1.63 1.63 0 0 1 .08-.37l.21-.91c.15-.68.27-1.37.4-2.06.25-1.34.49-2.71.85-4a.08.08 0 0 0 -.08-.08.09.09 0 0 0 -.08.08c-.29 1.35-.71 2.67-1.11 4-.19.65-.4 1.29-.57 1.95l-.18.67c-1.5-2.45-3-4.89-4.66-7.25a3.08 3.08 0 0 0 .16-1c0-.46.11-.92.16-1.38.12-1 .24-2.07.39-3.1a60.89 60.89 0 0 1 1.11-6c0-.1-.13-.13-.16 0-.5 2-1 4-1.42 6-.19 1-.36 2-.49 3-.07.5-.12 1-.17 1.49l-.06.46c-.51-.72-1-1.43-1.54-2.13-1.61-2.11-3.27-4.18-4.95-6.23-.07-.08-.2 0-.13.09a110.82 110.82 0 0 1 7.91 11.56l1.35 2.22-.45-.05c-.59-.08-1.19-.12-1.78-.17l-3.55-.31c-2.37-.19-4.75-.33-7.12-.59a.09.09 0 0 0 -.08.08.08.08 0 0 0 .08.08c2.39.27 4.78.66 7.17 1 1.17.17 2.35.32 3.52.47a13.15 13.15 0 0 0 2.72.28l2.79 4.54h-8.6c-.1 0-.08.16 0 .16 1.55 0 3.09.1 4.63.18l2.2.13 1.1.08a2.11 2.11 0 0 0 1 0l2.37 3.87c.72 1.18 1.46 2.37 2.21 3.54a29.07 29.07 0 0 0 2.39 3.59.16.16 0 0 0 .22-.09.16.16 0 0 0 -.09-.22z" fill="#263238"/><path d="m83 207.74a21.59 21.59 0 0 1 -.63 3c-.26 1-.56 2-.89 3a.1.1 0 0 0 .06.13.1.1 0 0 0 .13-.05q.47-1.47.84-3c.24-1 .4-2 .65-3 .07-.15-.16-.18-.16-.08z" fill="#263238"/><path d="m72.71 213.89a1.13 1.13 0 0 0 -.77-.29l-1.33-.18c-.82-.11-1.65-.2-2.48-.3-1.71-.2-3.43-.37-5.14-.59a.09.09 0 0 0 -.08.08.08.08 0 0 0 .08.08c1.62.2 3.23.44 4.84.66l2.38.3 1.14.13a4.15 4.15 0 0 1 1.31.23.07.07 0 0 0 .07-.07s0 0 0-.05z" fill="#263238"/><path d="m83 227.71c-.81-.07-1.62-.09-2.43-.12h-1.78a3.78 3.78 0 0 1 -.75-.05c-.11 0-.12.18 0 .16a4.33 4.33 0 0 1 .72 0h.64l1.23.08c.81 0 1.63.09 2.44.1.04.01.05-.16-.07-.17z" fill="#263238"/><path d="m88 224.2c.09-.46.18-.93.26-1.39.17-.9.33-1.81.5-2.72 0-.1-.13-.12-.16 0-.2.88-.39 1.76-.59 2.64-.1.45-.2.89-.29 1.33-.05.2-.09.41-.13.61a1.59 1.59 0 0 0 -.07.65c0 .08.12.14.17.06a3.23 3.23 0 0 0 .31-1.18z" fill="#263238"/><path d="m40.32 244.2 1 11.15 3.31 37.65h29.48l4.16-37.63 1.23-11.17z" fill="#455a64"/><path d="m40.32 244.2 1 11.15h37l1.18-11.15z" fill="#263238"/><path d="m37.41 241.17h45.01v9.04h-45.01z" fill="#455a64"/><path d="m228.61 115.45a8.68 8.68 0 0 0 -6.08-14.33 9.33 9.33 0 0 0 -5.91-11.8 9.43 9.43 0 0 0 -4.22-.39 10 10 0 0 0 -13.87-8.52 9.61 9.61 0 0 0 -13.53-1.28 9.8 9.8 0 0 0 -1.75 1.87 11.56 11.56 0 0 0 -4.61 1.84 7.15 7.15 0 0 0 -4.48.67 20.19 20.19 0 0 0 -4.61 3.5c-2.31 2.16-4.73 4.47-5.55 7.52-.92 3.4.29 7.3-1.43 10.38a24.87 24.87 0 0 0 -2.21 3.5c-.87 2.48.81 5.15.61 7.78s-2.5 5.18-2.22 8a7.35 7.35 0 0 0 3.34 4.81 28.44 28.44 0 0 1 4.79 3.67c1.07 1.21 1.75 2.66 2.8 3.93a9 9 0 0 0 12.29 1 9.65 9.65 0 0 0 8.7 1.52 28.12 28.12 0 0 0 8.14-4.16 5.59 5.59 0 0 0 9.34-.57 4.78 4.78 0 0 0 5.14 2.84 14.12 14.12 0 0 0 5.82-2.46c3.38-2.09 7.18-4.84 7.26-8.82 0-2.44-1.33-5-.41-7.22a13.44 13.44 0 0 1 2.65-3.28z" fill="#263238"/><path d="m153 99.56a25.19 25.19 0 0 1 17.5-10.34c9.67-1.64 20.42 0 28.27 5.87 7.2 5.33 11.2 14.25 12.32 23.19.39 3.15-.56 6.17-1.44 9.21a16.66 16.66 0 0 1 -7.15 8.4c-2.81 1.48-4 .53-6.36-1.56a14.36 14.36 0 0 1 -3.09-4.88c-3.41-7.45-7.32-14.84-13.07-20.69s-13.6-10-21.8-9.79" fill="#ffc100"/><path d="m195.67 114.3c-1-2.67-.56-5.64-.92-8.48-.82-6.23-5.67-11.49-11.54-13.79a27.58 27.58 0 0 0 -18.48.11 25.66 25.66 0 0 0 -11.73 7.41 19.55 19.55 0 0 0 -3.83 17.51l31.89-4.23a35.38 35.38 0 0 0 9.58 6.47 6.42 6.42 0 0 0 3.32.57 3 3 0 0 0 2.49-2 6.32 6.32 0 0 0 -.78-3.57z" fill="#263238"/><path d="m164 100.92 27.7 6.25a5.19 5.19 0 0 1 4.79 5.13l-1.11 60.15a18.6 18.6 0 0 1 -4 11.29l-2.66 3.39a13.71 13.71 0 0 1 -22.88-2 6.82 6.82 0 0 1 -.62-1.59 9.74 9.74 0 0 1 -.24-1.33 44.05 44.05 0 0 1 -.37-9.11c-.2-5.33-.25-7.56-.25-7.5s-11.36-1.6-14.14-16.28c-1.34-7.31-1.34-19.35-.94-29.2.24-8.9 5.81-19.92 14.72-19.2z" fill="#b78876"/><path d="m155 129.25a1.89 1.89 0 0 0 1.86 1.87 1.79 1.79 0 0 0 1.9-1.69v-.07a1.87 1.87 0 0 0 -1.86-1.85 1.79 1.79 0 0 0 -1.9 1.68z" fill="#263238"/><path d="m152 126.29c.24.24 1.65-.87 3.68-.91s3.56.94 3.77.67-.14-.55-.81-1a5.1 5.1 0 0 0 -3-.85 5 5 0 0 0 -2.94 1c-.7.53-.83.98-.7 1.09z" fill="#263238"/><path d="m174.24 129.25a1.91 1.91 0 0 0 1.88 1.87 1.83 1.83 0 0 0 1.88-1.72 1.88 1.88 0 0 0 -1.88-1.85 1.79 1.79 0 0 0 -1.9 1.68z" fill="#263238"/><path d="m172 126.14c.24.24 1.64-.85 3.68-.9s3.56.93 3.77.68-.14-.55-.81-1a5.32 5.32 0 0 0 -3-.84 5 5 0 0 0 -2.92 1c-.65.45-.85.92-.72 1.06z" fill="#263238"/><path d="m165 141.44a12.49 12.49 0 0 0 -3.32-.51c-.52 0-1-.13-1.12-.49a2.86 2.86 0 0 1 .3-1.55c.47-1.33.94-2.67 1.44-4 2-5.69 3.42-10.36 3.19-10.44s-2 4.47-4 10.16c-.48 1.4-.95 2.75-1.33 4a2.88 2.88 0 0 0 -.21 2 1.34 1.34 0 0 0 .86.75 3.82 3.82 0 0 0 .9.09 13.42 13.42 0 0 0 3.29-.01z" fill="#263238"/><path d="m164.21 165.53a37.6 37.6 0 0 0 19.66-5.75s-4.7 10.34-19.51 9.34z" fill="#aa6550"/><path d="m166 146.32a3.67 3.67 0 0 1 3.26-1.44 3.27 3.27 0 0 1 2.34 1.17 2.13 2.13 0 0 1 .23 2.43 2.47 2.47 0 0 1 -2.67.74 7.6 7.6 0 0 1 -2.66-1.49 2.11 2.11 0 0 1 -.6-.59.66.66 0 0 1 0-.76" fill="#aa6550"/><path d="m171 142.69c-.33 0-.28 2.2-2.12 3.81s-4.21 1.44-4.22 1.75.53.41 1.53.41a5.37 5.37 0 0 0 3.52-1.33 4.77 4.77 0 0 0 1.65-3.19c.07-.93-.19-1.46-.36-1.45z" fill="#263238"/><path d="m171.48 120c.21.54 2.24.24 4.64.45s4.35.83 4.65.33c.14-.24-.21-.76-1-1.33a8.11 8.11 0 0 0 -7.07-.59c-.83.43-1.31.88-1.22 1.14z" fill="#263238"/><path d="m152.32 117.37c.37.45 1.76 0 3.45-.13s3.12.22 3.43-.27c.15-.24-.09-.69-.73-1.12a4.81 4.81 0 0 0 -2.82-.68 4.92 4.92 0 0 0 -2.73 1c-.59.5-.76.97-.6 1.2z" fill="#263238"/><path d="m200.81 110.08c-2.77-8.5-15.21-20.19-24.12-19.51l-14.16 8.65a13.74 13.74 0 0 0 9.34 10.44c2.52.76 5.56 1 7.06 3.1s.68 5.42 2.12 7.7c2 3.15 7.39 3 8.9 6.36.65 1.5.33 3.28 1 4.76.91 2 5.93 4.44 8 3.76s2-4.18 2.67-6a9.67 9.67 0 0 0 .25-6.54c-.87-4.2.26-8.66-1.06-12.72z" fill="#263238"/><path d="m206.35 103.73-1.09 4.69a18.88 18.88 0 0 0 -2.46-9.56c-3.56-5.33-11.38-9-17.56-10.77s-13.76-.69-19.73 1.69a28 28 0 0 0 -13.24 10.4c-4.53 6.14-5.59 15.38-2.79 17 2.22-6.36 5.72-13.66 11.28-17.47a23.14 23.14 0 0 1 19.24-3.51c7.2 2.12 12.68 8.21 15.87 15a58.65 58.65 0 0 1 3.61 10.8 27.75 27.75 0 0 1 -.09 13.25l-3.6 12.6-.08 4.1c8.76-3.24 14.17-12.38 15.63-21.6s.41-18.15-4.99-26.62z" fill="#ffc100"/><path d="m199 131.74c-.07 0 .24-.76.47-2.14a13.37 13.37 0 0 0 -.45-5.86 12.57 12.57 0 0 0 -5.08-6.85 39 39 0 0 0 -4.67-2.32 13.78 13.78 0 0 1 -4.75-3.23 21.09 21.09 0 0 1 -2.76-5 12.54 12.54 0 0 0 -11-7.24 13.4 13.4 0 0 0 -5.75 1.17c-1.33.59-1.91 1.07-1.93 1a2 2 0 0 1 .43-.38 10 10 0 0 1 1.4-.88 12.65 12.65 0 0 1 14.2 1.74 13.12 13.12 0 0 1 3.24 4.28 21.6 21.6 0 0 0 2.66 4.85 13.58 13.58 0 0 0 4.52 3.07 36.08 36.08 0 0 1 4.72 2.4 13.09 13.09 0 0 1 5.46 13.33 11.18 11.18 0 0 1 -.48 1.59 2.09 2.09 0 0 1 -.23.47z" fill="#455a64"/><path d="m197.63 115.94a9.81 9.81 0 0 0 -1.08-1.33 13.47 13.47 0 0 0 -3.91-2.4 31.2 31.2 0 0 1 -2.89-1.45 8.67 8.67 0 0 1 -2.86-2.49c-1.58-2.22-2.09-5.2-4.2-7.26a12.72 12.72 0 0 0 -7.3-3.52 17.25 17.25 0 0 0 -6.67.55 48 48 0 0 0 -5.89 2.31 6.86 6.86 0 0 1 1.44-.94 22.58 22.58 0 0 1 4.32-1.85 16.83 16.83 0 0 1 6.94-.69 13 13 0 0 1 7.72 3.66c2.28 2.26 2.78 5.34 4.23 7.36s3.73 3 5.44 3.88a12 12 0 0 1 3.88 2.67 4.71 4.71 0 0 1 .73 1 3.17 3.17 0 0 1 .1.5z" fill="#455a64"/><path d="m192.91 137.13c0-1.09 1.17-3.72 2.25-3.92 2.88-.52 8.11-.42 8.35 6.94.33 10-9.83 8.3-9.85 8s-.66-7.22-.75-11.02z" fill="#b78876"/><path d="m196.6 144.2a2.73 2.73 0 0 0 .48.25 1.71 1.71 0 0 0 1.33 0 4.29 4.29 0 0 0 1.88-4 5.64 5.64 0 0 0 -.57-2.49 2 2 0 0 0 -1.33-1.34.89.89 0 0 0 -1 .52c-.14.28-.07.48-.12.5s-.22-.16-.15-.58a1.2 1.2 0 0 1 .37-.64 1.39 1.39 0 0 1 1-.29 2.45 2.45 0 0 1 1.88 1.51 5.94 5.94 0 0 1 .71 2.77c0 2-1 4-2.41 4.43a1.89 1.89 0 0 1 -1.62-.21c-.42-.12-.49-.35-.45-.43z" fill="#aa6550"/><path d="m205.05 145a5.63 5.63 0 0 1 .47-1c.32-.68.79-1.67 1.27-3a33.4 33.4 0 0 0 2-11.68 48.82 48.82 0 0 0 -.86-8.17 50.93 50.93 0 0 0 -2.4-9.09 34.14 34.14 0 0 0 -5-9 33.26 33.26 0 0 0 -8.21-7.44 30.66 30.66 0 0 0 -20.57-4.55 29.52 29.52 0 0 0 -9 2.67 28.44 28.44 0 0 0 -6.75 4.57 29.8 29.8 0 0 0 -6.95 9.54c-.56 1.34-.93 2.32-1.16 3a8.47 8.47 0 0 1 -.37 1.07 5.23 5.23 0 0 1 .24-1.11 25.54 25.54 0 0 1 1-3.09 28.94 28.94 0 0 1 13.68-14.52 29.54 29.54 0 0 1 9.14-2.79 31 31 0 0 1 21 4.59 33.41 33.41 0 0 1 13.47 16.84 51.3 51.3 0 0 1 2.39 9.23 48.72 48.72 0 0 1 .77 8.26 31.85 31.85 0 0 1 -2.21 11.78 28.75 28.75 0 0 1 -1.33 2.94 6.56 6.56 0 0 1 -.62.95z" fill="#263238"/><path d="m200.79 146.86c.13-.18.45-.26.91 0a2.52 2.52 0 0 1 1.21 1.62 3.39 3.39 0 0 1 .09 1.52 3.51 3.51 0 0 1 -.84 1.69 4.13 4.13 0 0 1 -5.84.28 4.07 4.07 0 0 1 -1.1-1.61 3.89 3.89 0 0 1 .11-3.15 2.4 2.4 0 0 1 1.67-1.33c.54-.08.81.17.84.4a2.5 2.5 0 0 1 -.15.76 2.9 2.9 0 0 0 0 .93 2.64 2.64 0 0 0 .45 1 1.43 1.43 0 0 0 .83.55 1.49 1.49 0 0 0 1-.15 1.14 1.14 0 0 0 .58-.69c.2-.68-.03-1.43.24-1.82z" fill="#455a64"/><path d="m121.88 209.85s1.67-13.33 8.13-20.09 34.39-15.36 34.39-15.36.19 9.84 6.67 12.15c6.85 2.44 13.52 1.14 18.55-4.68a27.44 27.44 0 0 0 5.8-12.67s33.81 3.13 39.06 12 12.06 43.08 12.06 43.08l-30.16 6.4 4.1 59h-80.13l1.57-55.39-21.82 3.1z" fill="#ffc100"/><path d="m210.39 232.62a5.36 5.36 0 0 1 -.11-1.33v-3.63c0-3.06 0-7.29.15-12s.21-8.89.35-12c.06-1.53.12-2.77.18-3.62a4.68 4.68 0 0 1 .16-1.34 5 5 0 0 1 .11 1.34v3.62c0 3.06 0 7.28-.15 12s-.22 8.9-.36 12c0 1.54-.12 2.78-.17 3.63a4.57 4.57 0 0 1 -.16 1.33z" fill="#263238"/><path d="m134.53 208.33c.19 0 2.07 5.93 4.22 13.33s3.72 13.52 3.53 13.56q-2.43-6.56-4.2-13.33c-2.21-7.44-3.77-13.51-3.55-13.56z" fill="#263238"/><path d="m231.11 179.05c0 .12-1.44.39-3.64 1.23a26 26 0 0 0 -13.56 11.8c-1.13 2.07-1.6 3.47-1.72 3.43a3.28 3.28 0 0 1 .23-1 16.09 16.09 0 0 1 1.05-2.67 23.94 23.94 0 0 1 13.84-12 18.54 18.54 0 0 1 2.76-.68 2.85 2.85 0 0 1 1.04-.11z" fill="#263238"/><path d="m129.52 192.46a14.31 14.31 0 0 1 1.41 4.16 13.94 13.94 0 0 1 .75 4.34 28.06 28.06 0 0 1 -2.16-8.5z" fill="#263238"/><path d="m241.2 225.42s-9 45.87-10.07 49.79-2.66 14.49-13.64 16.68c-14.77 2.95-72.76.89-72.76.89l10.94-13.85 50.74-14.22 6.94-33.34z" fill="#b78876"/><path d="m106.13 216.91s8.18 27.51 11.56 39.4c3.62 12.63 11.48 41.33 28.28 36.23 12.78-3.88 9-20.44 9-20.44l-13.07-37.78-10.15 1.68-9.87-25.48z" fill="#b78876"/><path d="m150.53 273.28a14.14 14.14 0 0 0 0-6.21 19.35 19.35 0 0 0 -2.66-6.19 55.5 55.5 0 0 0 -5.34-6.51 54.55 54.55 0 0 1 -5.33-6.6 42.74 42.74 0 0 1 -3.34-6.08 37.59 37.59 0 0 1 -1.63-4.37 7.39 7.39 0 0 1 -.4-1.67 9.79 9.79 0 0 1 .65 1.57c.4 1 1 2.5 1.83 4.26a45.43 45.43 0 0 0 3.43 5.93 59.33 59.33 0 0 0 5.33 6.51 49.55 49.55 0 0 1 5.33 6.66 18.64 18.64 0 0 1 2.67 6.43 12.54 12.54 0 0 1 .07 4.69 8.67 8.67 0 0 1 -.36 1.23c-.18.23-.25.36-.25.35z" fill="#aa6550"/><path d="m92.51 165.22s1.33-1.86 4.62 1 16.62 25.5 17.66 27.58 7.09 16.71 7.09 16.71l-13.49 9.56-2.26-3.19s-11.32-10-13.62-12.81a61.37 61.37 0 0 1 -5.51-7.37c-.12-.57-.92-3.49 1.34-4.34 0 0-2.2-3.5-.24-5.23s5.54-.12 5.54-.12l-12-15.47s-1-4.61 2.43-2.88 12.57 15 14.19 15.35 1.61-1.33 1.61-1.33-9.43-14.31-7.36-17.46z" fill="#b78876"/><path d="m104.85 205.82a4.12 4.12 0 0 1 -.28-.64 9 9 0 0 1 -.45-1.93 8.84 8.84 0 0 1 1.8-6.85v.37c-1.21-1.47-2.53-3.09-4-4.81l.09.08c-.94-.55-1.92-1.15-2.89-1.79l-1.48-1a9.83 9.83 0 0 1 -1.45-1.2 2.47 2.47 0 0 1 -.72-1.61 2.1 2.1 0 0 1 .72-1.63l.12-.13h.19l8.3 2.36 6.54 4.86a19.55 19.55 0 0 1 2.4 2 23.39 23.39 0 0 1 -2.6-1.66l-6.67-4.68h.09l-8.32-2.27h.31a1.5 1.5 0 0 0 -.47 1.09 1.89 1.89 0 0 0 .55 1.16 9.43 9.43 0 0 0 1.37 1.06l1.44 1c1 .64 1.92 1.24 2.85 1.77 1.34 1.76 2.67 3.4 3.88 4.88l.15.19-.16.19a8.05 8.05 0 0 0 -1.69 3.44 9.61 9.61 0 0 0 -.2 3c.33 1.82.66 2.73.58 2.75z" fill="#aa6550"/><path d="m93.81 187.77a8 8 0 0 1 1.19 1.33 34 34 0 0 1 2.57 4.1 29.23 29.23 0 0 1 1.43 3.05 3.39 3.39 0 0 1 .19 2 2 2 0 0 1 -1.63 1.46 3.19 3.19 0 0 1 -2.2-.36 9.23 9.23 0 0 1 -1.84-1.26 17.78 17.78 0 0 1 -3-3.47c-.49-.71-.93-1.43-1.33-2.11l.55-.4a32.44 32.44 0 0 1 4.4 6.6 3.8 3.8 0 0 1 .42 1.84 2.11 2.11 0 0 1 -.89 1.62 2 2 0 0 1 -1.72.06 4.57 4.57 0 0 1 -1.24-.81 21 21 0 0 1 -2.88-3.15 5.32 5.32 0 0 1 -.81-1.33 44.33 44.33 0 0 0 3.98 4.06c.64.52 1.61 1.1 2.37.62a1.53 1.53 0 0 0 .6-1.18 3.2 3.2 0 0 0 -.39-1.54 34.2 34.2 0 0 0 -4.41-6.4l.56-.4c.41.67.87 1.34 1.33 2.08a18.21 18.21 0 0 0 2.94 3.42c1.07.89 2.31 1.77 3.47 1.52a1.47 1.47 0 0 0 1.17-1 2.89 2.89 0 0 0 -.15-1.64c-.4-1.08-.89-2.1-1.33-3a41.57 41.57 0 0 0 -2.36-4.16 9.46 9.46 0 0 1 -.99-1.55z" fill="#aa6550"/><path d="m154.68 271.19a3.1 3.1 0 0 1 .44 1.06 15.18 15.18 0 0 1 .59 3.06 17.68 17.68 0 0 1 -2.08 10 20.65 20.65 0 0 1 -3.32 4.6 11 11 0 0 1 -3.87 2.59 10.7 10.7 0 0 1 -3.05.68 2.79 2.79 0 0 1 -1.15 0 23.21 23.21 0 0 0 4-1.09 11.66 11.66 0 0 0 3.6-2.58 22 22 0 0 0 3.16-4.51 18.45 18.45 0 0 0 2.19-9.63c-.1-2.61-.66-4.14-.51-4.18z" fill="#aa6550"/></svg>