<svg viewBox="0 0 308.96 366.95" xmlns="http://www.w3.org/2000/svg"><text fill="#662d91" font-family="ArialMT, Arial" font-size="18" transform="translate(24.98 29)">Here are the options we have</text><text fill="#662d91" font-family="ArialMT, Arial" font-size="18" transform="translate(24.98 51)">depending on what you qualify</text><text fill="#662d91" font-family="ArialMT, Arial" font-size="18" transform="translate(24.98 73)">for and this is how they link to</text><text fill="#662d91" font-family="ArialMT, Arial" font-size="18" transform="translate(24.98 95)">your budget</text><path d="m53 113.06 88.78.1h42.1a43.27 43.27 0 0 1 5.22.09c6 .81 3.86 1.08 5.8 4.7 1.68 3.12 2.25 6.4 5 9a.77.77 0 0 0 .92.12c5.26-3.76 2.89-12 10-13.76 3.28-.83 8.69-.09 12-.08h18.53c17.34 0 35.84 1.66 53.14-.6 13.84-1.82 13.88-11.5 14-23.14.06-9.82 3.26-81.65-6.6-87.82-3.6-2.16-7.51-1.6-11.54-1.61-12.4 0-24.8 0-37.21 0q-37.35 0-74.7.14c-51.26.13-102.54.65-153.81.26-6.85-.05-12.87-.68-18.06 4.75-6.67 6.99-6.71 73.35-6.52 82.35.15 7.34.11 16 6.51 20.87 7.3 5.58 18.53 5 27.17 5a1.07 1.07 0 0 0 1-1.12 1.09 1.09 0 0 0 -1-1c-11.59 0-27.51.74-30.82-13.35-3.24-13.74-2.19-94.21 15.67-95.53 23.21-1.71 47.23 0 70.52 0 53.56-.16 107.13-.45 160.7-.56q19 0 38-.05c2.38 0 4.76-.06 7.13 0 9.66.31 11.9 9.18 11.9 17.57 0 5.09-.06 65.07-.09 70.17 0 2.54.07 5.1-.05 7.64-.47 10.07-5.89 13.28-14.74 14.11-18.72 1.76-38.12.4-56.89.41-6.1 0-12.21 0-18.32 0-2.25 0-6.66-.63-8.53.18-4.59 2-4.81 16.23-10.24 9.85-1.79-2.1-1.08-7.64-3.21-9.33-1.84-1.45-5.5-.7-7.69-.68-14.56.13-29.14 0-43.71 0h-90.36a.67.67 0 0 0 0 1.33z" fill="#283cb1"/><path d="m108.67 244.36c-5.39 2.15-8.78 5.64-12.3 10.26-6.37 8.38-43.6 49.24-43.72 50.11-4.78 15.41 17.39 29.55 31.53 18 7.32-6 29.93-36.44 29.93-36.44l-1.11-43.65z" fill="#ffc100"/><path d="m215.55 243.32c-4.4-3.77-18.3-6-18.3-6l-2.25.68c1.19 6 8.58 43.79 8.58 44.66s60.68 39.93 60.68 39.93l6.92-27.17s-51.18-48.33-55.63-52.1z" fill="#ffc100"/><path d="m112.55 243 24.45-6.46 7.93-10.2 36.82 1.17 6.17 7 21.58 6-1.61 105.88 6.47 20.61h-112.8l9-29-4.28-49.84z" fill="#ffc100"/><path d="m135.25 216.81s-.26.39-.95.83a7.58 7.58 0 0 1 -3.29 1.11 8.28 8.28 0 0 1 -4.28-15.81 7.69 7.69 0 0 1 3.4-.7c.82 0 1.26.19 1.24.24a11.88 11.88 0 0 0 -4.34 1.06 8.24 8.24 0 0 0 -3.4 3.27 7.84 7.84 0 0 0 2.74 10.19 8.13 8.13 0 0 0 4.57 1.11 12 12 0 0 0 4.31-1.3z" fill="#e0e0e0"/><path d="m212.16 171.28a9.17 9.17 0 0 0 -6.41-15.12 9.84 9.84 0 0 0 -10.69-12.85 10.52 10.52 0 0 0 -11.19-9.81 10.81 10.81 0 0 0 -3.44.82 10.15 10.15 0 0 0 -16.11.65 12.25 12.25 0 0 0 -4.86 1.94 7.59 7.59 0 0 0 -4.73.7 21.12 21.12 0 0 0 -4.86 3.7c-2.44 2.28-5 4.71-5.85 7.93-1 3.59.3 7.69-1.5 10.94a25.06 25.06 0 0 0 -2.34 3.7c-.91 2.62.86 5.43.65 8.2s-2.64 5.47-2.35 8.44a7.75 7.75 0 0 0 3.52 5.08 30 30 0 0 1 5.05 3.86c1.12 1.28 1.84 2.81 2.95 4.15a9.51 9.51 0 0 0 13 1 10.12 10.12 0 0 0 9.16 1.6 29.44 29.44 0 0 0 8.59-4.38 5.88 5.88 0 0 0 8.23 1.22 6 6 0 0 0 1.62-1.82 5.06 5.06 0 0 0 5.43 3 15 15 0 0 0 6.13-2.59c3.57-2.21 7.58-5.1 7.66-9.31 0-2.57-1.41-5.23-.44-7.61a14.13 14.13 0 0 1 2.78-3.44z" fill="#263238"/><path d="m182.84 165.61c-2.93-9-16.05-21.29-25.44-20.57l-14.93 9.12a14.47 14.47 0 0 0 9.84 11c2.66.8 5.87 1 7.45 3.27s.72 5.72 2.24 8.12c2.11 3.32 7.79 3.13 9.38 6.71.69 1.58.35 3.46 1.07 5 1 2.07 6.26 4.68 8.44 4s2.16-4.42 2.81-6.37a10.23 10.23 0 0 0 .3-6.89c-.95-4.4.23-9.1-1.16-13.39z" fill="#263238"/><path d="m188.67 158.92-1.15 4.94a19.87 19.87 0 0 0 -2.58-10.08c-3.76-5.62-12-9.49-18.52-11.36s-14.52-.73-20.82 1.79a29.6 29.6 0 0 0 -14 11c-4.78 6.47-5.89 16.21-2.94 17.94 2.34-6.71 6-14.4 11.9-18.42a24.4 24.4 0 0 1 20.33-3.73c7.6 2.24 13.38 8.67 16.74 15.82a62.05 62.05 0 0 1 3.81 11.4 29.38 29.38 0 0 1 -.1 14l-3.8 13.29-.09 4.31c9.24-3.41 15-13 16.48-22.77s.44-19.2-5.26-28.13z" fill="#ffc100"/><path d="m180.9 188.46c-.07 0 .25-.8.49-2.26a13.91 13.91 0 0 0 -.48-6.18 13.16 13.16 0 0 0 -5.35-7.22 40.25 40.25 0 0 0 -4.92-2.45 14.56 14.56 0 0 1 -5-3.4 22.17 22.17 0 0 1 -2.91-5.29 13.23 13.23 0 0 0 -11.58-7.66 13.88 13.88 0 0 0 -6.06 1.23c-1.41.62-2 1.13-2 1.07a2.11 2.11 0 0 1 .45-.39 10.71 10.71 0 0 1 1.46-.91 13.36 13.36 0 0 1 15 1.83 13.87 13.87 0 0 1 3.42 4.51 22.39 22.39 0 0 0 2.81 5.12 14.2 14.2 0 0 0 4.76 3.23 39.52 39.52 0 0 1 5 2.54 13.78 13.78 0 0 1 5.75 14.06 10.7 10.7 0 0 1 -.5 1.67 2.34 2.34 0 0 1 -.34.5z" fill="#455a64"/><path d="m179.48 171.8a9.13 9.13 0 0 0 -1.14-1.41 14.21 14.21 0 0 0 -4.12-2.53c-.93-.44-2-.9-3.05-1.53a9.17 9.17 0 0 1 -3-2.63c-1.67-2.34-2.21-5.49-4.43-7.65a13.34 13.34 0 0 0 -7.71-3.71 18.16 18.16 0 0 0 -7 .57 51.6 51.6 0 0 0 -6.21 2.44 7.36 7.36 0 0 1 1.52-1 23.45 23.45 0 0 1 4.55-2 17.84 17.84 0 0 1 7.33-.73 13.67 13.67 0 0 1 8.14 3.86c2.4 2.38 2.93 5.63 4.46 7.77s3.94 3.13 5.74 4.09a12.51 12.51 0 0 1 4.09 2.81 4.69 4.69 0 0 1 .77 1.11c.02.37.09.52.06.54z" fill="#455a64"/><path d="m187.31 202.48a5.26 5.26 0 0 1 .49-1.08c.34-.72.83-1.76 1.34-3.15a35 35 0 0 0 2.05-12.32 52 52 0 0 0 -.9-8.62 52.92 52.92 0 0 0 -2.53-9.59 36.28 36.28 0 0 0 -5.31-9.54 35 35 0 0 0 -8.67-7.84 32.37 32.37 0 0 0 -21.7-4.8 31 31 0 0 0 -9.45 2.82 30.15 30.15 0 0 0 -7.11 4.83 31.46 31.46 0 0 0 -7.33 10.07c-.59 1.41-1 2.45-1.22 3.19a10.75 10.75 0 0 1 -.39 1.13 5.8 5.8 0 0 1 .25-1.17 26.62 26.62 0 0 1 1.11-3.26 30.52 30.52 0 0 1 14.43-15.35 31.24 31.24 0 0 1 9.63-2.93 32.68 32.68 0 0 1 22.18 4.84 35.16 35.16 0 0 1 14.2 17.76 53.31 53.31 0 0 1 2.52 9.73 51.88 51.88 0 0 1 .81 8.71 33.37 33.37 0 0 1 -2.3 12.42 32.19 32.19 0 0 1 -1.41 3.11 7.81 7.81 0 0 1 -.69 1.04z" fill="#263238"/><path d="m182 182.59c.38-9.5-12.83-8.92-13.32-15.55s-3.32-8.62-9.12-9.61-2.4-7.13-12.21-5.8-19.31 13.17-19.4 23.3c-.09 11.25.25 25 2 33.29 3.6 16.68 16.59 18.11 16.59 18.11a46.8 46.8 0 0 0 .78 9.15l15.93 49.23 19-49s-.6-43.62-.25-53.12z" fill="#a26760"/><path d="m155 204.32a3.58 3.58 0 0 0 -1.22-2.2 3.65 3.65 0 0 0 -4.4-.25 4.88 4.88 0 0 0 -1.85 4.58 4.42 4.42 0 0 0 3.16 1.83h.57a3.94 3.94 0 0 0 2.67-1.06 3.5 3.5 0 0 0 1.07-2.9z" fill="#7b4b45"/><path d="m136.25 186.46a2.14 2.14 0 0 0 2.2 2 2 2 0 0 0 2.11-2v-.06a2.15 2.15 0 0 0 -2.2-2.06 2.05 2.05 0 0 0 -2.12 2 .17.17 0 0 1 .01.12z" fill="#263238"/><path d="m132.12 181.17c.28.27 1.85-1 4.17-1.14s4.09.95 4.33.65c.11-.14-.19-.63-1-1.15a6 6 0 0 0 -3.48-.87 5.76 5.76 0 0 0 -3.3 1.27c-.65.6-.84 1.13-.72 1.24z" fill="#263238"/><path d="m146.71 198.77a15.36 15.36 0 0 0 -3.81-.48c-.57 0-1.15-.11-1.28-.51a3.21 3.21 0 0 1 .3-1.78c.48-1.47 1-3 1.5-4.61 2.08-6.56 3.55-11.95 3.29-12s-2.17 5.15-4.25 11.74c-.5 1.62-1 3.15-1.43 4.63a3.4 3.4 0 0 0 -.18 2.35 1.47 1.47 0 0 0 1 .81 4.27 4.27 0 0 0 1 .09 15.79 15.79 0 0 0 3.86-.24z" fill="#263238"/><path d="m146.61 226.33a43 43 0 0 0 22.2-7.25s-5.15 12-22.07 11.37z" fill="#7b4b45"/><path d="m153.63 200c-.38 0-.25 2.51-2.29 4.42s-4.75 1.78-4.75 2.13c0 .16.62.46 1.75.43a6.23 6.23 0 0 0 4-1.63 5.49 5.49 0 0 0 1.77-3.71c.01-1.06-.29-1.64-.48-1.64z" fill="#263238"/><path d="m132.58 172.42c.42.58 2.18.07 4.27.13s3.83.51 4.26 0c.19-.26-.07-.8-.82-1.33a6.24 6.24 0 0 0 -3.43-1 6.11 6.11 0 0 0 -3.43.92c-.77.49-1.03 1.02-.85 1.28z" fill="#263238"/><path d="m163.26 185.84a2.15 2.15 0 0 1 -2 2.22 2.08 2.08 0 0 1 -2.28-1.85.13.13 0 0 0 0-.06 2.17 2.17 0 0 1 2-2.22 2.07 2.07 0 0 1 2.28 1.82z" fill="#263238"/><path d="m163.93 180.35c-.26.28-1.91-.9-4.24-.86s-4 1.25-4.26 1c-.14-.13.13-.65.87-1.2a6 6 0 0 1 3.43-1.12 5.74 5.74 0 0 1 3.38 1c.7.54.95 1.04.82 1.18z" fill="#263238"/><path d="m165.27 175.35c-.46.54-2.26 0-4.42 0s-4 .42-4.4-.13c-.19-.26.09-.8.88-1.31a6.69 6.69 0 0 1 3.57-.93 6.57 6.57 0 0 1 3.53 1c.77.57 1.04 1.11.84 1.37z" fill="#263238"/><path d="m178.75 192.76c-.07-1.25 1.22-4.29 2.45-4.55 3.27-.69 9.25-.75 9.76 7.63.7 11.44-11 9.81-11 9.49s-.96-8.24-1.21-12.57z" fill="#a26760"/><path d="m182.87 200.94s.21.13.57.26a2 2 0 0 0 1.5-.06c1.19-.52 2.09-2.51 2-4.58a6.6 6.6 0 0 0 -.73-2.82 2.31 2.31 0 0 0 -1.6-1.44 1 1 0 0 0 -1.15.61c-.13.34 0 .58-.1.58s-.26-.18-.19-.66a1.23 1.23 0 0 1 .4-.75 1.61 1.61 0 0 1 1.09-.36 2.85 2.85 0 0 1 2.2 1.65 6.89 6.89 0 0 1 .89 3.16c.07 2.29-1 4.55-2.61 5.15a2.16 2.16 0 0 1 -1.85-.2c-.38-.26-.45-.48-.42-.54z" fill="#7b4b45"/><path d="m181.4 216.81s.26.39.95.83a7.62 7.62 0 0 0 3.29 1.11 8.28 8.28 0 0 0 4.28-15.81 7.69 7.69 0 0 0 -3.4-.7 2.36 2.36 0 0 0 -1.25.24 11.93 11.93 0 0 1 4.36 1.06 8.28 8.28 0 0 1 3.39 3.27 7.86 7.86 0 0 1 -2.75 10.19 8.18 8.18 0 0 1 -4.58 1.11 12 12 0 0 1 -4.29-1.3z" fill="#e0e0e0"/><path d="m205.22 299.08a4.27 4.27 0 0 0 -1.56-2.44c-1.24-.78-2.94-.23-4 .77a20.88 20.88 0 0 0 -2.55 3.57 13.55 13.55 0 0 1 -12 5.67c-3.22-.26-6.27-1.68-9.48-1.95a29.76 29.76 0 0 0 -11.88 2l.23 7.57c-.14 1.48 1.6 2.08 3.09 2s3-.7 4.41-.12a7.68 7.68 0 0 1 2.29 2 11.63 11.63 0 0 0 13.41 2.25c1.67-.87 3.18-2.17 5.05-2.49 1.71-.29 3.46.31 5.18.09 2.23-.3 4.07-1.95 5.38-3.79a17.45 17.45 0 0 0 2.43-15.13z" opacity=".3"/><path d="m101.1 254c1-1.41 1.41-3.53.23-4.8-2.75 2.51-7.23 2.9-9.23 6a11.06 11.06 0 0 0 -1.25 5.35q-1 16.79-1.59 33.6l.52 2.86q4.8-12.46 9.59-24.95c.85-2.22 1.64-4.92.17-6.79-.84-1.07-2.29-1.6-3-2.78-.87-1.5-.17-3.44.94-4.79s2.61-2.3 3.62-3.7z" opacity=".3"/><path d="m75.77 252.7-23.13 52 29.43 14 16.61-51z" fill="#ffc100"/><path d="m75.77 252.7a.19.19 0 0 1 .12.07l.35.2 1.3.83 4.81 3.11 16.41 10.72.08.05v.07c-.17.69-.37 1.27-.57 1.91l-.6 1.91c-.42 1.28-.84 2.59-1.27 3.92-3 9.32-5.81 17.73-7.84 23.83l-2.42 7.2-.68 2-.18.5a.87.87 0 0 1 -.07.17 1.16 1.16 0 0 1 0-.18l.15-.51c.15-.47.36-1.15.63-2 .57-1.71 1.35-4.19 2.33-7.23l7.76-23.86 1.26-3.91.61-1.9c.1-.32.2-.63.29-.94l.14-.46.07-.22v-.2h.11v.13l-16.36-10.83-4.77-3.18-1.27-.9-.32-.23z" fill="#263238"/><path d="m87.57 308.2a14 14 0 0 1 .3-2c.23-1.33.53-3 .85-4.89s.57-3.56.78-4.9a15.28 15.28 0 0 1 .37-2 1.82 1.82 0 0 1 0 .57c0 .35-.08.86-.15 1.5-.14 1.26-.38 3-.69 4.92s-.67 3.63-.94 4.88c-.13.62-.25 1.14-.34 1.46a2.21 2.21 0 0 1 -.18.46z" fill="#263238"/><path d="m104.22 268.33a.33.33 0 0 1 0 .17 4.54 4.54 0 0 0 .09.51c.07.46.19 1.15.3 2s.24 1.93.39 3.15.28 2.64.44 4.18c.61 6.19 1.31 14.76 2.06 24.22s1.41 18 2 24.23c.14 1.55.28 3 .39 4.18s.24 2.29.34 3.15.19 1.52.24 2a4.88 4.88 0 0 0 .06.52.49.49 0 0 1 0 .17.85.85 0 0 1 0-.17l-.08-.51c-.08-.46-.19-1.15-.3-2s-.24-1.93-.39-3.15-.28-2.64-.44-4.18c-.62-6.19-1.32-14.76-2.06-24.23s-1.42-18-2-24.22c-.14-1.55-.28-2.95-.4-4.18s-.24-2.29-.33-3.15-.19-1.51-.25-2a4.88 4.88 0 0 0 -.06-.52z" fill="#263238"/><path d="m163.7 305.63a1.22 1.22 0 0 1 -.12-.19c-.08-.14-.19-.34-.33-.57l-1.25-2.23-4.57-8.22-15-27.17-7.91-14.48-.08-.13.14-.06 5.72-2.17v.22l-9.43-6.22-.09-.06.06-.08 4.49-5.79 1.2-1.52c.13-.17.24-.29.31-.4l.12-.12-.09.14-.3.41-1.14 1.56-4.43 5.84v-.14l9.48 6.17.21.14-.24.09-5.72 2.19.07-.2 7.95 14.47 14.87 27.21 4.48 8.27 1.2 2.25.31.58a1.6 1.6 0 0 1 .09.21z" fill="#263238"/><path d="m163.7 305.63a1 1 0 0 1 .09-.21c.06-.16.15-.36.27-.61l1.09-2.35 4-8.58c3.43-7.26 8.18-17.25 13.41-28.3l7.3-15.27.07.18-5.72-2.19-.23-.08.21-.14 9.47-6.17v.14l-4.41-5.85-1.15-1.56-.29-.4a.42.42 0 0 1 -.09-.14.69.69 0 0 1 .11.13l.31.38 1.21 1.54 4.49 5.79.06.07-.09.06-9.44 6.22v-.22l5.72 2.17h.14l-.06.14-7.25 15.27-13.5 28.35c-1.71 3.6-3.13 6.52-4.12 8.55-.48 1-.86 1.77-1.14 2.32-.13.26-.23.45-.3.6a1.56 1.56 0 0 1 -.16.16z" fill="#263238"/><path d="m147.27 235.75s14.3 26.74 35 0l-18.81 57.43z" fill="#455a64"/><path d="m168.13 363.29a.58.58 0 0 1 0-.18l-.07-.53-.25-2c-.2-1.79-.49-4.34-.85-7.49-.67-6.32-1.56-15.06-2.25-24.75s-1-18.47-1.14-24.84c-.07-3.18-.1-5.74-.1-7.52v-2.59a.54.54 0 0 1 0-.18v.71 2.05c0 1.8.11 4.37.19 7.53.18 6.36.53 15.14 1.21 24.82s1.55 18.42 2.18 24.75c.31 3.16.57 5.72.74 7.5.09.87.15 1.55.2 2v.53a.51.51 0 0 1 .14.19z" fill="#263238"/><path d="m192.59 242.73 1.13 1.38-5.72 3.89 5.59 2-25.59 46.51 22-46.14-5.73-2.18z" opacity=".3"/><path d="m209.36 262.22a.74.74 0 0 1 0 .21v3.05 8.88c0 7.5-.15 17.85-.33 29.3s-.4 21.8-.64 29.29c-.12 3.75-.23 6.78-.33 8.87l-.12 2.42a2.62 2.62 0 0 1 0 .62.81.81 0 0 1 0 .22.81.81 0 0 1 0-.22v-.63c0-.57 0-1.38.06-2.41.05-2.11.13-5.15.24-8.88.18-7.49.38-17.85.57-29.29s.31-21.78.42-29.29c0-3.74.1-6.77.13-8.88 0-1 0-1.85 0-2.42v-.62z" fill="#263238"/><path d="m145.12 297.26a.28.28 0 0 1 0-.13v-1.71c0-1.2 0-2.91-.05-5.08l.09.09-28.35.06.15-.15v7l-.15-.14 20.19.06 6 .05h-5.94l-20.29.07h-.17v-7l.15-.15 28.35.06h.09v.09c0 2.19 0 3.92-.06 5.15v1.68a.22.22 0 0 1 -.01.05z" fill="#263238"/><path d="m118.32 297.26s13.24 5.21 25.41 0z" opacity=".3"/><path d="m138.72 279.89h.18a2.1 2.1 0 0 1 2.1 2.11v8.34h-4.4v-8.34a2.11 2.11 0 0 1 2.11-2.11z" fill="#455a64"/><path d="m138.81 288h2.19v11.76a1.07 1.07 0 0 1 -1.06 1.06h-.09a1.06 1.06 0 0 1 -1.05-1.06v-11.76z" fill="#455a64"/><path d="m141.14 302.41a3.64 3.64 0 0 1 .07.74c0 .48 0 1.18.07 2 0 1.71 0 4.09-.17 6.7-.08 1.31-.19 2.56-.3 3.68a10.81 10.81 0 0 1 -.54 3 2.55 2.55 0 0 1 -1.42 1.46 1.65 1.65 0 0 1 -.58.1h-.19a3.5 3.5 0 0 0 .71-.17 2.52 2.52 0 0 0 1.27-1.43 11.79 11.79 0 0 0 .47-2.94c.1-1.14.2-2.37.28-3.68.16-2.61.22-5 .25-6.68 0-.82 0-1.5 0-2a3.36 3.36 0 0 1 .08-.78z" fill="#263238"/><path d="m135.44 314.4a90.75 90.75 0 0 1 .06-10.3 88.49 88.49 0 0 1 -.06 10.3z" fill="#263238"/><path d="m169.59 268.8a21.62 21.62 0 0 1 5.21-2.29l1.07-5.14 8.71-.16 1.26 5.12a21 21 0 0 1 5.29 2.08l2.18-2.91h2.22l6.29 6.05-2.73 4.5a21.2 21.2 0 0 1 2.28 5.21l5.15 1.08.16 8.71-5.12 1.25a21 21 0 0 1 -2.08 5.29l2.89 4.4-6.05 6.29-2.38-.11-2.13-2.62a20.62 20.62 0 0 1 -5.21 2.26l-1.07 5.19-8.71.16-1.25-5.16a21.74 21.74 0 0 1 -5.29-2.08l-4.4 2.86h-2.22l-4.11-6 2.73-4.5a21.2 21.2 0 0 1 -2.28-5.21l-5.15-1.07-.15-8.71 5.11-1.26a21.65 21.65 0 0 1 2.08-5.29l-2.86-4.4 3.83-6.29h2.21l4.5 2.73zm4.64 11.61a9.35 9.35 0 1 0 13.22-.23 9.35 9.35 0 0 0 -13.22.23z" fill="#ffc100"/><path d="m169.59 268.8a21.62 21.62 0 0 1 5.21-2.29l1.07-5.14 8.71-.16 1.26 5.12a21 21 0 0 1 5.29 2.08l2.18-2.91h2.22l6.29 6.05-2.73 4.5a21.2 21.2 0 0 1 2.28 5.21l5.15 1.08.16 8.71-5.12 1.25a21 21 0 0 1 -2.08 5.29l2.89 4.4-6.05 6.29-2.38-.11-2.13-2.62a20.62 20.62 0 0 1 -5.21 2.26l-1.07 5.19-8.71.16-1.25-5.16a21.74 21.74 0 0 1 -5.29-2.08l-4.4 2.86h-2.22l-4.11-6 2.73-4.5a21.2 21.2 0 0 1 -2.28-5.21l-5.15-1.07-.15-8.71 5.11-1.26a21.65 21.65 0 0 1 2.08-5.29l-2.86-4.4 3.83-6.29h2.21l4.5 2.73zm4.64 11.61a9.35 9.35 0 1 0 13.22-.23 9.35 9.35 0 0 0 -13.22.23z" opacity=".3"/><g fill="#263238"><path d="m167.36 268.78a21.52 21.52 0 0 1 5.22-2.29l1.07-5.15 8.71-.15 1.26 5.11a21.45 21.45 0 0 1 5.28 2.09l4.4-2.89 6.28 6.05-2.73 4.5a21.52 21.52 0 0 1 2.29 5.22l5.15 1.07.14 8.71-5.11 1.26a21.42 21.42 0 0 1 -2.08 5.28l2.86 4.4-6 6.29-4.5-2.73a20.77 20.77 0 0 1 -5.21 2.26l-1.12 5.19-8.71.16-1.26-5.16a21.9 21.9 0 0 1 -5.29-2.08l-4.4 2.86-6.29-6 2.73-4.5a21.62 21.62 0 0 1 -2.29-5.21l-5.14-1.07-.15-8.72 5.11-1.25a21.11 21.11 0 0 1 2.08-5.29l-2.86-4.4 6-6.29 4.5 2.73zm4.64 11.61a9.35 9.35 0 1 0 13.22-.26 9.34 9.34 0 0 0 -13.22.26z"/><path d="m201.8 271.6c0 .09-.5.15-1.11.15s-1.11-.06-1.11-.15.5-.15 1.11-.15 1.11.07 1.11.15z"/><path d="m199.14 276c0 .09-.49.14-1.07.14s-1.07-.05-1.07-.14.49-.14 1.08-.14 1.06.14 1.06.14z"/><path d="m206.23 282.38c0 .09-.43.17-1 .2s-1 0-1-.09.44-.17 1-.2 1 .01 1 .09z"/><path d="m206.18 291.11c0 .08-.41.13-.91.12s-.91-.1-.9-.18.41-.14.91-.12.9.07.9.18z"/><path d="m199.47 297.74c0 .08-.49.1-1.07 0s-1-.18-1-.26.49-.1 1.07 0 1 .17 1 .26z"/><path d="m202.22 302c0 .09-.47.17-1.07.18s-1.07 0-1.07-.12.47-.16 1.07-.18 1.06.03 1.07.12z"/><path d="m186.54 308c0 .08-.52.07-1.14 0a3.45 3.45 0 0 1 -1.15-.17 2.05 2.05 0 0 1 1.15-.13c.66.03 1.15.18 1.14.3z"/><path d="m185.94 266.41c0 .08-.49.13-1.08.12a2.21 2.21 0 0 1 -1.07-.17c0-.08.48-.14 1.08-.12a2.32 2.32 0 0 1 1.07.17z"/></g><path d="m162.6 267.5a37.71 37.71 0 0 1 -4.84 4.7 38.37 38.37 0 0 1 4.84-4.7z" fill="#fff"/><path d="m174.89 276.84a17.32 17.32 0 0 0 -2.4 1.3 10.36 10.36 0 0 0 -4.1 11.59 18.06 18.06 0 0 0 1 2.54 3.22 3.22 0 0 1 -.42-.62 9.6 9.6 0 0 1 -.83-1.85 10.24 10.24 0 0 1 4.22-11.8 9.11 9.11 0 0 1 1.81-.93 3 3 0 0 1 .72-.23z" fill="#fff"/><path d="m178.68 276.38c0 .09-.3.17-.67.2s-.68 0-.69-.11.3-.17.67-.19.68.02.69.1z" fill="#fff"/><path d="m173.85 262.85a4.48 4.48 0 0 1 0 1.55 4.13 4.13 0 0 1 -.32 1.51 4 4 0 0 1 0-1.55 4.13 4.13 0 0 1 .32-1.51z" fill="#fff"/><path d="m192.19 266.65c.05.06-.34.48-.87.92s-1 .75-1.07.69.34-.48.88-.92 1.02-.75 1.06-.69z" fill="#fff"/><path d="m203.12 283.35a4.12 4.12 0 0 1 -1.56-.21 4.22 4.22 0 0 1 -1.5-.5 4.12 4.12 0 0 1 1.56.21 4.58 4.58 0 0 1 1.5.5z" fill="#fff"/><path d="m156.28 283.15a3 3 0 0 1 -3 .6c0-.08.7 0 1.5-.19s1.46-.48 1.5-.41z" fill="#fff"/><path d="m159.82 299.54a3.85 3.85 0 0 1 -.57 1.44 10.14 10.14 0 0 1 -.67 1.15l-.13-.08c.1-.1.18-.14.2-.13s0 .1-.08.23l-.36.61.23-.7a11 11 0 0 1 .57-1.2 4.47 4.47 0 0 1 .81-1.32z" fill="#fff"/><path d="m175.51 312.06a4.85 4.85 0 0 1 -.62-1.61 5.07 5.07 0 0 1 -.35-1.71 9.74 9.74 0 0 1 1 3.3z" fill="#fff"/><path d="m204.92 280.64s-1.75-3.44-4.23-3.65-25.63 6.01-25.63 6.01.54 3.37 3.12 3.24a69.89 69.89 0 0 0 8.48-1.57l-10.87 4.61a5.16 5.16 0 0 0 6.29 2.93c4.58-1.28 12.42-2.83 12.42-2.83l-14.23 6.25s1 3.8 4.82 2.58a50 50 0 0 1 8.55-1.71l-8.86 3.95s.29 3.19 4.27 2.63 11.21-1.82 11.21-1.82a46.89 46.89 0 0 0 4.94 7c6.18 7 9.8 2.86 9.8 2.86l5.6 2c.22-1.15 3.14-19.06 3.14-19.06l-11.1-1.39s-4.34-9.59-5.1-10.56a4.37 4.37 0 0 0 -2.62-1.47z" fill="#a26760"/><path d="m199.34 280.94c0 .08-3 1.06-6.74 2.2s-6.8 2-6.83 1.91 3-1.06 6.75-2.2 6.8-1.99 6.82-1.91z" fill="#7b4b45"/><path d="m199.93 287.18a4.4 4.4 0 0 1 -.75.38l-2.08 1c-1.76.8-4.21 1.89-6.92 3.07s-5.18 2.24-7 3c-.9.36-1.63.65-2.14.84a4.4 4.4 0 0 1 -.8.26 4.11 4.11 0 0 1 .76-.37l2.1-.93 6.94-3 7-3 2.12-.88a3.24 3.24 0 0 1 .77-.37z" fill="#7b4b45"/><path d="m203.85 293.07a52.8 52.8 0 0 1 -5.3 2 54.72 54.72 0 0 1 -5.41 1.71 55.42 55.42 0 0 1 5.3-2 56.54 56.54 0 0 1 5.41-1.71z" fill="#7b4b45"/><path d="m205.5 300.12a13 13 0 0 1 -5.72 1.35c0-.09 1.3-.26 2.86-.64a27.62 27.62 0 0 1 2.86-.71z" fill="#7b4b45"/><path d="m216.23 300.44-3.8-7.95-3.78-7.93c.15-.12 1.95 3.43 4 7.8s3.75 8.02 3.58 8.08z" fill="#7b4b45"/><path d="m114.33 207.3-18.43 37.27 3.87 1.7 17.91-37.72z" fill="#455a64"/><circle cx="123.4" cy="190.9" fill="#a26760" r="19.26"/><path d="m142.64 191.79a3.65 3.65 0 0 1 -.15-1.23c0-.2 0-.42 0-.67s-.07-.5-.11-.8a16.62 16.62 0 0 0 -.36-2 19.51 19.51 0 0 0 -6.54-10.57 18.6 18.6 0 0 0 -7.73-3.79 18.36 18.36 0 0 0 -2.34-.36c-.4 0-.81-.09-1.21-.1h-1.9l-.63.07c-.41 0-.83.08-1.25.15a20.78 20.78 0 0 0 -2.5.63 18 18 0 0 0 -2.47 1c-.4.2-.79.43-1.18.64a9.2 9.2 0 0 0 -1.15.72 22.56 22.56 0 0 0 -2.18 1.72 23.06 23.06 0 0 0 -1.9 2.06 17.83 17.83 0 0 0 -2.86 5 18.44 18.44 0 0 0 -.57 11.67 17.68 17.68 0 0 0 2.4 5.22 19.77 19.77 0 0 0 1.71 2.24 19 19 0 0 0 2 1.89 9.67 9.67 0 0 0 1.08.83c.37.25.73.51 1.11.75a20.92 20.92 0 0 0 2.39 1.14 19 19 0 0 0 2.44.85c.41.11.83.18 1.23.27l.62.13a6.18 6.18 0 0 0 .62.07l1.22.13h1.22a17.13 17.13 0 0 0 2.37-.14 19.14 19.14 0 0 0 15.55-13 13 13 0 0 0 .54-1.94c.07-.28.14-.54.19-.78s.07-.46.1-.66a3.79 3.79 0 0 1 .26-1.21 4 4 0 0 1 0 1.24 5.17 5.17 0 0 1 0 .68c0 .25-.07.52-.12.82a12.57 12.57 0 0 1 -.41 2 18.31 18.31 0 0 1 -2.29 5.15 19.66 19.66 0 0 1 -13.66 8.86 19.3 19.3 0 0 1 -2.52.19h-1.3l-1.31-.12a3.7 3.7 0 0 1 -.66-.07l-.67-.12c-.44-.1-.88-.16-1.32-.27a22.13 22.13 0 0 1 -2.64-.89 20.41 20.41 0 0 1 -2.55-1.2c-.41-.25-.81-.53-1.22-.8a10.81 10.81 0 0 1 -1.14-.88 21.91 21.91 0 0 1 -2.18-2 21.39 21.39 0 0 1 -1.86-2.4 19.19 19.19 0 0 1 -2.61-5.64 19.72 19.72 0 0 1 .57-12.58 19.25 19.25 0 0 1 3.12-5.37 18.34 18.34 0 0 1 4.43-4 10.76 10.76 0 0 1 1.25-.77c.43-.23.85-.47 1.28-.68a22.93 22.93 0 0 1 2.65-1 21.13 21.13 0 0 1 2.7-.63c.45-.07.9-.1 1.35-.15l.67-.07h2c.43 0 .86.08 1.29.12a19.06 19.06 0 0 1 2.49.43 19.68 19.68 0 0 1 12.78 10.08 18.29 18.29 0 0 1 1.8 5.37 12.74 12.74 0 0 1 .23 2.05v.82a3.07 3.07 0 0 1 0 .68 3.81 3.81 0 0 1 -.17 1.22z" fill="#263238"/><path d="m129.23 194.19a3.92 3.92 0 0 1 -3.89 3.84 3.75 3.75 0 0 1 -3.94-3.55v-.1a3.91 3.91 0 0 1 3.88-3.84 3.75 3.75 0 0 1 3.94 3.54s.01.08.01.11z" fill="#263238"/><path d="m130.9 184.29c-.5.5-3.43-1.78-7.62-1.9s-7.37 1.91-7.81 1.38c-.21-.23.3-1.14 1.68-2.08a10.78 10.78 0 0 1 6.29-1.72 10.3 10.3 0 0 1 6.05 2.16c1.25 1 1.66 1.94 1.41 2.16z" fill="#263238"/><path d="m112.54 202.78c-.1.14-1.4-.52-2.94-2.29a15.44 15.44 0 0 1 -2-17.09c1.08-2.06 2.18-3 2.31-2.91s-.57 1.3-1.35 3.34a17 17 0 0 0 1.93 16c1.17 1.82 2.2 2.77 2.05 2.95z" fill="#fff"/><path d="m117.6 206c0 .2-.22.36-.54.42a1.88 1.88 0 0 1 -1.91-1.07.57.57 0 0 1 .08-.68c.32-.26.9-.07 1.43.22s.99.7.94 1.11z" fill="#fff"/><path d="m84.61 242.25s8.39-18.64 9.49-19.57 12.86-9.3 12.86-9.3a6.62 6.62 0 0 1 3.48.57c1.1.66 3.7 4.76 4.73 6.45a1.89 1.89 0 0 1 .2 1.52l-1.36 3.7s1.42 2.24 1 3.8a10.18 10.18 0 0 1 -1.32 2.86 5.78 5.78 0 0 1 .38 4.43 6.17 6.17 0 0 1 -3.25 3s-1 3.86-1.14 4.62-4.39 2.33-4.83 2.2-3.43-1.48-3.43-1.48-1.61 6.29-3.43 7.65a9.42 9.42 0 0 1 -4.14 1.56l-1.27 9.08-14.52-9.22z" fill="#a26760"/><path d="m103.53 237.34a29.27 29.27 0 0 1 3.66 1.26 37 37 0 0 1 3.6 1.4 18.54 18.54 0 0 1 -3.71-1.15 21.76 21.76 0 0 1 -3.55-1.51z" fill="#7b4b45"/><path d="m103.9 229.46a7.13 7.13 0 0 1 1.51.26c.92.21 2.2.53 3.58.95s2.62.86 3.5 1.2a7.73 7.73 0 0 1 1.41.62 7.48 7.48 0 0 1 -1.47-.42c-.9-.29-2.15-.69-3.53-1.1l-3.55-1a8.46 8.46 0 0 1 -1.45-.51z" fill="#7b4b45"/><path d="m102.62 223.22a8 8 0 0 1 1.69 0 33.86 33.86 0 0 1 4 .6 31.3 31.3 0 0 1 3.92 1.12 7.34 7.34 0 0 1 1.55.67 13 13 0 0 1 -1.62-.47c-1-.3-2.36-.69-3.91-1a38.84 38.84 0 0 0 -4-.68 11.24 11.24 0 0 1 -1.63-.24z" fill="#7b4b45"/><path d="m111.09 224.58a5.25 5.25 0 0 1 -.24-2.8 3.22 3.22 0 0 1 -2.46-.94c-.74.81-1.72 1.92-2.48 2.73z" fill="#455a64"/><path d="m222.2 289.55 31.16-10.94 19.84 18.65c13.91 18.81-2 35-17 32.52-11.05-1.84-41-13.7-41-13.7z" fill="#ffc100"/><path d="m215.24 316.08v-.08l.09-.37c.08-.35.2-.83.35-1.43.32-1.27.78-3.07 1.36-5.33l4.73-18.2v-.12h.13l8 1.3 24 3.95 7.27 1.24 2 .35.51.1a.48.48 0 0 1 .17.05h-.17l-.52-.08-2-.29-7.22-1.17-24-3.88-8-1.31.17-.11-4.84 18.18-1.44 5.3-.4 1.42c0 .15-.08.27-.11.36a.25.25 0 0 1 -.08.12z" fill="#263238"/><path d="m259.65 292.72c0 .08-2.77.64-6.23 1.25s-6.29 1-6.29 1 2.8-.67 6.23-1.28a55.78 55.78 0 0 1 6.29-.97z" fill="#263238"/></svg>