<svg viewBox="0 0 392.99 405.36" xmlns="http://www.w3.org/2000/svg"><g opacity=".38"><path d="m12.29 178.52h158.63v6.96h-158.63z" fill="#ebebeb"/><path d="m155.06 185.49h6.96v23.01h-6.96z" fill="#ebebeb"/><path d="m155.06 185.49h6.96v7.11h-6.96z" fill="#dbdbdb"/><path d="m21.17 185.49h6.96v23.01h-6.96z" fill="#ebebeb"/><path d="m21.17 185.49h6.96v7.11h-6.96z" fill="#dbdbdb"/><path d="m130.13 134.19h11.17v44.33h-11.17z" fill="#c7c7c7"/><path d="m130.13 131.82h11.17v4.87h-11.17z" fill="#dbdbdb"/><path d="m130.13 142.93h11.17v1.81h-11.17z" fill="#dbdbdb"/><path d="m128.74 167.84h12.56v4.87h-12.56z" fill="#dbdbdb"/><path d="m122.33 126.81h7.81v51.72h-7.81z" fill="#dbdbdb"/><path d="m123.93 131.67h4.68v19.89h-4.68z" fill="#ebebeb"/><path d="m62.1 153.69h51.72v7.81h-51.72z" fill="#c7c7c7" transform="matrix(.71116767 -.70302243 .70302243 .71116767 -85.38 107.36)"/><path d="m75.31 157.89h19.89v4.68h-19.89z" fill="#dbdbdb" transform="matrix(.71116767 -.70302243 .70302243 .71116767 -88.02 106.21)"/><path d="m109.09 139.25h13.25v39.28h-13.25z" fill="#a6a6a6"/><path d="m109.09 170.71h13.25v3.66h-13.25z" fill="#c7c7c7"/><path d="m109.09 166.89h13.25v1.42h-13.25z" fill="#c7c7c7"/><path d="m141.31 141.62h9.15v36.92h-9.15z" fill="#a6a6a6"/><path d="m141.31 171.18h9.15v3.44h-9.15z" fill="#c7c7c7"/><path d="m141.31 149.23h9.15v3.44h-9.15z" fill="#c7c7c7"/><path d="m141.3 155.02h9.15v1.33h-9.15z" fill="#c7c7c7"/><path d="m44.36 131.23c7.81 7.62 9.12 19.48 7.48 29.84 0 .23-.41.17-.41-.06 0-2.35.07-4.69.06-7a.88.88 0 0 0 -.12-.32 15.67 15.67 0 0 1 -5.07-5.45c-1.3-2.56-1.82-5.46-2.81-8.14-.1-.26.18-.18.35-.05 4.76 3.5 6.26 7.27 7.62 12.31a42.93 42.93 0 0 0 -.83-7.84 26.77 26.77 0 0 0 -6.48-13.07.15.15 0 0 1 .05-.2.15.15 0 0 1 .16 0z" fill="#a6a6a6"/><path d="m42.89 132.13c-1.35 0-2.19 2.19-3.23 2.86a1 1 0 0 1 -1.42-.15l-.07-.09c-1-1.45.39-3.23 1.73-4.23a14.5 14.5 0 0 1 -2.78 1.2 1 1 0 0 1 -1.22-.58.85.85 0 0 1 0-.17c-.46-2 2-2.85 3.72-2.85-.83-.57-3.19-2.13-1.9-2.86s4 1.46 4.94 2.19c1.33 1.08 2.91 2.69 3 4.38-.01 1.92-1.74.71-2.77.3z" fill="#dbdbdb"/><path d="m43.28 132.46c-1.72-.79-5 .35-5.3-.31-.57-1.32 2.07-2.23 3.5-2.41-1.32-.35-3.81-1-3.75-2.18.1-1.54 3.85-.22 5.76 1.24 2.38 1.84 2.38 3.62 2 4s-1.93-.21-2.21-.34z" fill="#ebebeb"/><path d="m62.15 130.48c-8.1 7.34-9.86 19.11-8.57 29.51 0 .24.4.19.41 0 .08-2.35.1-4.69.2-7l.13-.32a15.54 15.54 0 0 0 5.27-5.24c1.41-2.51 2-5.39 3.13-8 .09-.25-.18-.19-.36-.06-4.88 3.32-6.54 7-8.09 12a43 43 0 0 1 1.12-7.81 26.81 26.81 0 0 1 7-12.81.16.16 0 0 0 0-.24.18.18 0 0 0 -.24 0z" fill="#a6a6a6"/><path d="m63.57 131.42c1.35.1 2.1 2.28 3.13 3a1 1 0 0 0 1.42-.09l.07-.09c1.09-1.41-.27-3.25-1.56-4.3a14.61 14.61 0 0 0 2.73 1.39 1 1 0 0 0 1.24-.53l.05-.17c.52-2-1.9-2.93-3.61-3 .84-.54 3.25-2 2-2.85s-4.08 1.32-5 2c-1.37 1-3 2.58-3.13 4.26-.15 1.9 1.61.76 2.66.38z" fill="#dbdbdb"/><path d="m63.17 131.72c1.76-.71 5 .53 5.3-.1.62-1.3-2-2.3-3.39-2.53 1.33-.3 3.81-.78 3.81-2 0-1.54-3.81-.36-5.8 1-2.45 1.74-2.51 3.51-2.13 3.88.54.5 1.93-.11 2.21-.25z" fill="#ebebeb"/><path d="m53.86 149.87a78.1 78.1 0 0 1 -2.51 11.6.29.29 0 0 1 -.57-.09c.53-3.58 1.5-7.1 2-10.67a53.53 53.53 0 0 0 .62-10.95c-.34-6-2-12.45-5.91-17.14-.08-.11.1-.27.18-.17 7.88 9.19 6.67 20.45 6.67 21.46 1.11-3.81 2.26-8.16 6.48-12 .18-.17.32-.08.3.2-.75 7-2.71 10.73-6.81 14.5-.13 1.05-.31 2.16-.45 3.26z" fill="#a6a6a6"/><path d="m47.45 123.65c-1.41-.63-3.37 1.17-4.76 1.29a1.16 1.16 0 0 1 -1.4-.86s0-.06 0-.09c-.36-2 2-3.16 3.91-3.52-1.19-.08-2.36.25-3.53-.07a1.12 1.12 0 0 1 -1-1.24 1.16 1.16 0 0 1 0-.18c.52-2.27 3.53-1.9 5.32-1.13-.57-.95-2.24-3.81-.56-4s3.47 3.54 4 4.76c.84 1.79 1.68 4.25.89 6-.82 2.1-2-.02-2.87-.96z" fill="#dbdbdb"/><path d="m47.69 124.18c-1.39-1.67-5.38-2.16-5.34-3 .08-1.66 3.27-1.28 4.84-.74-1.18-1-3.5-2.86-2.79-4.15.88-1.56 4.1 1.71 5.35 4.18 1.56 3.12.65 5 .06 5.12-.81.25-1.89-1.12-2.12-1.41z" fill="#ebebeb"/><path d="m59.05 152 3.48 26.54h-21.15c.44-2.35 4.37-26.57 4.37-26.57z" fill="#dbdbdb"/><g fill="#ebebeb"><path d="m311.19 158.78a19.13 19.13 0 0 1 3.08-6.78 12 12 0 0 1 6.72-4.16c1-.28 2.07-.59 3.41-1a25.21 25.21 0 0 0 4-1.35 13.36 13.36 0 0 0 3.62-2.31 7.17 7.17 0 0 0 2.18-3.7 6.59 6.59 0 0 0 .1-3.15 6.94 6.94 0 0 0 -1.14-2.61 7.24 7.24 0 0 0 -2.13-2 9.58 9.58 0 0 0 -2.76-1.16 8.45 8.45 0 0 0 -3.43-.17 11.69 11.69 0 0 0 -3 .88 13.38 13.38 0 0 0 -2.62 1.57 25 25 0 0 0 -2.15 1.83l-5.8-6.66a16.39 16.39 0 0 1 3.9-3.76 17.52 17.52 0 0 1 4.76-2.27 19.09 19.09 0 0 1 5.31-.81 20.48 20.48 0 0 1 5.51.66 21.76 21.76 0 0 1 5.84 2.41 15.79 15.79 0 0 1 4.66 4.18 15 15 0 0 1 2.63 6 16.78 16.78 0 0 1 -.32 7.62 16.4 16.4 0 0 1 -1.76 4.42 13.34 13.34 0 0 1 -2.64 3.16 16.26 16.26 0 0 1 -3.4 2.24 32 32 0 0 1 -4.1 1.62c-1.25.38-2.48.73-3.7 1a20 20 0 0 0 -3.45 1.24 9.79 9.79 0 0 0 -2.85 2 6.79 6.79 0 0 0 -1.66 3.28zm-4.58 18.88 2.81-11.16 9 2.26-2.8 11.16z"/><path d="m28 365.69a14.14 14.14 0 0 1 .15 5.5 9 9 0 0 1 -3.15 4.93c-.54.48-1.19 1.05-2 1.7a17.24 17.24 0 0 0 -2.24 2.2 9.76 9.76 0 0 0 -1.67 2.7 5.25 5.25 0 0 0 -.24 3.16 5 5 0 0 0 1 2.13 5.23 5.23 0 0 0 1.6 1.36 5.41 5.41 0 0 0 2 .6 7.12 7.12 0 0 0 2.21-.11 6.47 6.47 0 0 0 2.32-.95 8.44 8.44 0 0 0 1.71-1.56 10 10 0 0 0 1.24-1.9 17.89 17.89 0 0 0 .83-1.9l6 2.52a12 12 0 0 1 -1.39 3.75 12.84 12.84 0 0 1 -2.37 3.05 13.44 13.44 0 0 1 -3.27 2.26 15.5 15.5 0 0 1 -3.86 1.34 16.13 16.13 0 0 1 -4.65.3 11.68 11.68 0 0 1 -4.44-1.26 11.35 11.35 0 0 1 -3.68-3.1 12.3 12.3 0 0 1 -2.23-5.15 11.46 11.46 0 0 1 -.27-3.5 9.39 9.39 0 0 1 .73-2.95 11.78 11.78 0 0 1 1.53-2.58 22.88 22.88 0 0 1 2.14-2.42c.7-.64 1.41-1.27 2.13-1.9a14.83 14.83 0 0 0 1.9-1.9 7.24 7.24 0 0 0 1.16-2.22 5 5 0 0 0 .1-2.69zm-3.06-14 1.69 8.31-6.63 1.4-1.74-8.3z"/><path d="m327.74 280.75a14.29 14.29 0 0 1 2.43 4.93 9 9 0 0 1 -.79 5.78q-.42 1-1.08 2.37a17.88 17.88 0 0 0 -1.12 2.93 9.87 9.87 0 0 0 -.39 3.15 5.37 5.37 0 0 0 1.09 3 5 5 0 0 0 1.75 1.54 5.19 5.19 0 0 0 4.14.27 7.15 7.15 0 0 0 2-1 6.15 6.15 0 0 0 1.7-1.82 8 8 0 0 0 .95-2.14 10.55 10.55 0 0 0 .34-2.23 17.87 17.87 0 0 0 0-2.07l6.49-.21a12.12 12.12 0 0 1 .3 4 13.57 13.57 0 0 1 -.95 3.81 14.75 14.75 0 0 1 -2 3.41 15.89 15.89 0 0 1 -7.06 5.05 11.89 11.89 0 0 1 -4.57.7 11.5 11.5 0 0 1 -4.63-1.29 12.56 12.56 0 0 1 -4.18-3.76 11.94 11.94 0 0 1 -1.69-3.07 9.26 9.26 0 0 1 -.56-3 11.6 11.6 0 0 1 .31-3 24.33 24.33 0 0 1 1-3.1c.37-.88.75-1.75 1.14-2.6a14.12 14.12 0 0 0 1-2.54 7.62 7.62 0 0 0 .21-2.52 5.15 5.15 0 0 0 -1-2.49zm-8.56-11.42 5 6.82-5.49 4.06-5-6.83z"/><path d="m359 263.58a15.31 15.31 0 0 1 1.08-5.95 9.8 9.8 0 0 1 4.46-4.6c.67-.41 1.51-.87 2.5-1.39a20.5 20.5 0 0 0 2.85-1.86 10.31 10.31 0 0 0 2.4-2.53 5.78 5.78 0 0 0 .95-3.35 5.45 5.45 0 0 0 -2-4.32 5.79 5.79 0 0 0 -2.05-1.12 8.18 8.18 0 0 0 -2.4-.37 7.07 7.07 0 0 0 -2.7.5 9.34 9.34 0 0 0 -2.2 1.29 9.77 9.77 0 0 0 -1.76 1.76 18.3 18.3 0 0 0 -1.32 1.85l-5.81-4.05a13.09 13.09 0 0 1 2.33-3.72 14.51 14.51 0 0 1 3.31-2.74 15.66 15.66 0 0 1 4-1.69 17.14 17.14 0 0 1 4.45-.57 17.84 17.84 0 0 1 5.08.74 12.76 12.76 0 0 1 4.49 2.37 12.29 12.29 0 0 1 3.25 4.15 13.67 13.67 0 0 1 1.32 6.07 13.23 13.23 0 0 1 -.5 3.8 10.76 10.76 0 0 1 -1.46 3 12.8 12.8 0 0 1 -2.22 2.43 23.89 23.89 0 0 1 -2.92 2.09c-.89.55-1.8 1.07-2.7 1.56a17.2 17.2 0 0 0 -2.43 1.67 8.13 8.13 0 0 0 -1.82 2.1 5.47 5.47 0 0 0 -.71 2.85zm.13 15.74v-9.32h7.5v9.33z"/><path d="m124.33 317.66a15.6 15.6 0 0 1 -.18-6.05 9.81 9.81 0 0 1 3.41-5.41c.58-.55 1.3-1.17 2.16-1.9a20.83 20.83 0 0 0 2.46-2.42 11 11 0 0 0 1.82-3 5.92 5.92 0 0 0 .27-3.48 5.77 5.77 0 0 0 -1.05-2.34 5.9 5.9 0 0 0 -4-2.09 8.2 8.2 0 0 0 -2.42.13 6.94 6.94 0 0 0 -2.54 1.06 9.38 9.38 0 0 0 -1.9 1.71 10.67 10.67 0 0 0 -1.36 2.13 17.14 17.14 0 0 0 -.95 2.09l-6.49-2.78a13.2 13.2 0 0 1 1.52-4.12 13.78 13.78 0 0 1 2.67-3.36 15.56 15.56 0 0 1 3.58-2.5 17.72 17.72 0 0 1 9.36-1.81 13.21 13.21 0 0 1 4.88 1.38 12.28 12.28 0 0 1 4 3.4 15 15 0 0 1 2.78 9.52 10.92 10.92 0 0 1 -.8 3.24 12.48 12.48 0 0 1 -1.68 2.86 26.21 26.21 0 0 1 -2.4 2.65c-.78.72-1.55 1.41-2.33 2.08a17.36 17.36 0 0 0 -2.07 2.13 8.17 8.17 0 0 0 -1.35 2.43 5.51 5.51 0 0 0 -.1 3zm3.4 15.37-1.9-9.12 7.34-1.56 1.9 9.13z"/><path d="m353.25 391.5 12.71-.26 6.27-.1c2.08-.05 4.15 0 6.22-.06l-.41.43-.04-10.66.47.48-12.63-.06c-4.2 0-8.4-.11-12.6-.16l.27-.26c0 1.75-.09 3.5-.13 5.28zm0 0-.14-5.27c0-1.77-.1-3.57-.12-5.38v-.26h.26c4.2 0 8.4-.15 12.6-.16l12.6-.06h.47v11.56h-.43c-2.12 0-4.25 0-6.36-.06l-6.35-.1z"/><path d="m367.31 404.93 12.71-.26 6.27-.1c2.08-.05 4.15 0 6.22-.06l-.42.43v-10.65l.46.47-12.6-.06c-4.2 0-8.4-.11-12.6-.16l.27-.25c0 1.74-.09 3.49-.12 5.27zm0 0-.14-5.27c0-1.77-.1-3.57-.12-5.38v-.28h.26c4.2 0 8.4-.15 12.6-.16l12.6-.06h.49v.48l-.06 10.65v.43h-.46c-2.13 0-4.25 0-6.37-.06l-6.34-.1z"/><path d="m339.17 404.93 12.71-.26 6.27-.1c2.07-.05 4.15 0 6.22-.06l-.42.43v-10.65l.47.47-12.6-.06c-4.2 0-8.4-.11-12.6-.16l.26-.25c0 1.74-.08 3.49-.12 5.27zm0 0-.14-5.27c0-1.77-.1-3.57-.12-5.38v-.28h.26c4.2 0 8.4-.15 12.6-.16l12.6-.06h.47v.48 10.65.43h-.42c-2.12 0-4.25 0-6.37-.06l-6.34-.1z"/><path d="m14.29 404.93 12.71-.26 6.26-.1c2.09-.05 4.16 0 6.24-.06l-.43.43v-10.65l.48.47-12.58-.06c-4.21 0-8.4-.11-12.6-.16l.26-.25c0 1.74-.09 3.49-.13 5.27zm0 0-.14-5.27c0-1.77-.1-3.57-.13-5.38v-.28h.27c4.2 0 8.4-.15 12.6-.16l12.6-.06h.51v.48l-.06 10.65v.43h-.42c-2.12 0-4.26 0-6.38-.06l-6.34-.1z"/><path d="m14.29 108.65 12.71-.26 6.26-.12h6.24l-.43.43v-10.65l.48.46-12.63-.11c-4.21 0-8.4-.1-12.6-.15l.26-.26c0 1.74-.09 3.5-.13 5.27zm0 0-.14-5.27c0-1.78-.1-3.58-.13-5.38v-.26h.27c4.2 0 8.4-.15 12.6-.15l12.6-.06h.51v.47l-.06 10.65v.42h-.42c-2.12 0-4.26 0-6.38 0l-6.34-.17z"/><path d="m.27 122.09 12.73-.27 6.26-.12h6.23l-.42.43v-10.65l.47.47-12.69-.1c-4.21 0-8.4-.12-12.56-.12l.25-.25c0 1.74-.08 3.49-.12 5.26zm0 0-.15-5.28c0-1.78-.1-3.58-.12-5.38v-.25h.27c4.2 0 8.4-.16 12.6-.16h12.6.47v.48l-.05 10.65v.42h-6.8l-6.34-.11z"/><path d="m367.31 108.66 12.69-.26 6.27-.1c2.08 0 4.15 0 6.22-.06l-.42.43v-10.66l.46.48-12.6-.09c-4.2 0-8.4-.1-12.6-.15l.27-.25c0 1.74-.09 3.49-.12 5.26zm0 0-.14-5.27c0-1.78-.1-3.57-.12-5.38v-.26h.26c4.2 0 8.4-.14 12.6-.15l12.56-.07h.53v.47 10.65.43h-6.9l-6.34-.1z"/><path d="m230.84 246.75-12.71.26-6.26.1c-2.09 0-4.16 0-6.24.06l.43-.43.05 10.65-.48-.47 12.6.06c4.21 0 8.41.1 12.6.16l-.25.25c0-1.74.08-3.49.12-5.26zm0 0 .16 5.25c0 1.78.09 3.57.12 5.38v.26h-.27c-4.2 0-8.4.14-12.6.15l-12.6.05h-.47v-.48l.05-10.65v-.43h.42 6.38l6.34.1z"/><path d="m216.78 233.31-12.71.27-6.26.1c-2.09 0-4.16 0-6.24.06l.43-.43.05 10.65-.48-.47 12.6.06c4.2 0 8.41.1 12.6.16l-.25.25c0-1.74.07-3.49.12-5.26zm0 0 .14 5.28c0 1.78.11 3.57.12 5.38v.25h-.27c-4.2.05-8.4.15-12.6.16l-12.6.05h-.47v-.43l.05-10.66v-.42h.47 6.38l6.34.1z"/></g></g><path d="m248.28 319.57-5.53-9.33-84.63 2.59s-13 33.67-13.12 36-2.14 8.57-2.14 8.57l111.24 18.7s8.62-29.28-5.82-56.53z" fill="#263238"/><g fill="#455a64"><path d="m175.66 333.56a3.15 3.15 0 0 1 -.67.78c-.46.45-1.14 1.11-2.05 1.89a18.33 18.33 0 0 1 -3.44 2.28 12.88 12.88 0 0 1 -4.91 1.23 28.41 28.41 0 0 1 -9.09-.88 23.75 23.75 0 0 1 -2.64-.82 2.92 2.92 0 0 1 -.93-.43c0-.09 1.41.35 3.67.83a32.82 32.82 0 0 0 9 .69 13.29 13.29 0 0 0 4.72-1.23 20.8 20.8 0 0 0 3.42-2.13c1.78-1.31 2.86-2.28 2.92-2.21z"/><path d="m195.14 366.27a4 4 0 0 1 0-1.15c0-.73.05-1.81.14-3.13.15-2.65.47-6.3 1-10.31s1.2-7.63 1.75-10.21c.32-1.28.49-2.29.7-3.07a3.88 3.88 0 0 1 .35-1.11 35.8 35.8 0 0 1 -.62 4.24c-.43 2.6-1 6.21-1.57 10.21s-.93 7.62-1.2 10.26a32.34 32.34 0 0 1 -.55 4.27z"/><path d="m203.14 366.35c-.17-.05.63-6.09 1.78-13.52s2.16-13.47 2.38-13.44-.63 6.09-1.78 13.52-2.22 13.46-2.38 13.44z"/><path d="m251.6 335.34a5.19 5.19 0 0 1 -1 .71 31.27 31.27 0 0 1 -2.83 1.71 25.07 25.07 0 0 1 -4.42 2 15.32 15.32 0 0 1 -5.93.79 11.13 11.13 0 0 1 -5.6-2.08 18.14 18.14 0 0 1 -3.51-3.38 26.25 26.25 0 0 1 -1.89-2.67 4.47 4.47 0 0 1 -.58-1.05c.08-.06 1 1.37 2.76 3.43a18.24 18.24 0 0 0 3.49 3.19 10.85 10.85 0 0 0 5.34 1.94 14.85 14.85 0 0 0 5.69-.72 28.37 28.37 0 0 0 4.41-1.85c2.55-1.24 4.02-2.11 4.07-2.02z"/><path d="m252.16 358.86a5.35 5.35 0 0 1 -1.2.35l-3.29.79c-2.78.68-6.61 1.69-10.76 3s-7.91 2.73-10.58 3.78l-3.15 1.27a4.83 4.83 0 0 1 -1.18.4 6.05 6.05 0 0 1 1.08-.62c.72-.37 1.77-.86 3.08-1.45a107.49 107.49 0 0 1 21.45-6.81c1.41-.29 2.53-.51 3.36-.61a4 4 0 0 1 1.19-.1z"/><path d="m182.35 331.6a4.58 4.58 0 0 1 -.34-1.68 20.76 20.76 0 0 1 0-4.17 10.85 10.85 0 0 1 1.24-4 3.89 3.89 0 0 1 1.08-1.37 18.94 18.94 0 0 0 -1.71 5.44 36.83 36.83 0 0 0 -.16 4.07 5.17 5.17 0 0 1 -.11 1.71z"/><path d="m187 333.08a5.27 5.27 0 0 1 -.15-1.77 23.41 23.41 0 0 1 .28-4.26 10.34 10.34 0 0 1 .68-2.24 7 7 0 0 1 1.07-1.65c.74-.84 1.36-1.16 1.39-1.1a10.78 10.78 0 0 1 -1.06 1.36 9.3 9.3 0 0 0 -1.49 3.79c-.29 1.59-.34 3.08-.44 4.17a5.22 5.22 0 0 1 -.28 1.7z"/><path d="m216.93 337.61a21.59 21.59 0 0 0 -2.77-16.74 7.44 7.44 0 0 1 1.58 2.07 17.59 17.59 0 0 1 2.13 5.92 17.28 17.28 0 0 1 -.1 6.29 7.18 7.18 0 0 1 -.84 2.46z"/><path d="m222.64 337.08a53.86 53.86 0 0 0 -.21-8 56 56 0 0 0 -2-7.73 7.35 7.35 0 0 1 1.11 2.11 23.53 23.53 0 0 1 1.6 11.35 7.49 7.49 0 0 1 -.5 2.27z"/><path d="m203.53 328.16a2 2 0 0 1 .94-.38 3.74 3.74 0 0 1 2.69.56 3.86 3.86 0 0 1 1.33 1.45 3.56 3.56 0 0 1 .27 2.25 4.3 4.3 0 0 1 -1.21 2.18 3.51 3.51 0 0 1 -2.51 1 4 4 0 0 1 -3.76-3.17 3.9 3.9 0 0 1 .34-2.23 3.62 3.62 0 0 1 1.2-1.56 3.93 3.93 0 0 1 2.7-.54 1.26 1.26 0 0 1 .89.48 5.75 5.75 0 0 0 -.93-.23 3.79 3.79 0 0 0 -2.42.67 3.2 3.2 0 0 0 -1 1.4 3.36 3.36 0 0 0 -.27 1.93 3.51 3.51 0 0 0 3.23 2.66 3.33 3.33 0 0 0 3.18-2.63 3.08 3.08 0 0 0 -.2-2 3.49 3.49 0 0 0 -1.11-1.3 3.79 3.79 0 0 0 -2.43-.7c-.58.07-.85.23-.93.16z"/></g><path d="m160.31 200.41c-.81.61-21.9 7.66-26.49 14.45s-7.79 38.33-8.34 43.78 4.81 27.9 4.81 27.9-4.3 8-2.78 14a19.8 19.8 0 0 0 6 9.63l20.79-5.46 1.45-54.17z" fill="#ffc100"/><path d="m148.85 254.84c.71-.61 1.53-.91 2.1-1.36s1.56-.47 1.87.18-.38 1.52-1.11 2c1.82.53 3.85-1.64 5.51-.7a2.35 2.35 0 0 1 .38 3.29 5.88 5.88 0 0 1 -3.19 1.82 9.65 9.65 0 0 0 -3.44 1.4c-.51.4-.95 1.1-.64 1.68.51 1 2.4.44 2.82 1.47.28.7-.43 1.37-1.06 1.79q-3.42 2.24-6.81 4.51a4.2 4.2 0 0 1 -2 .85 1.43 1.43 0 0 1 -1.57-1.15 1.69 1.69 0 0 1 1.31-1.48 11.39 11.39 0 0 0 2.06-.55 1.37 1.37 0 0 0 .78-1.72c-.45-.76-1.6-.5-2.38-.13l-7.43 3.26a3.39 3.39 0 0 1 -1.73.43 1.17 1.17 0 0 1 -1.08-1.2 1.58 1.58 0 0 1 .49-.78 16 16 0 0 1 5.78-3.87 8.38 8.38 0 0 0 2.42-1.14 2.12 2.12 0 0 0 .79-2.35 22.49 22.49 0 0 1 -4.78 2c-.59.18-1.4.24-1.68-.32s.29-1.14.83-1.55l8.35-6a3.3 3.3 0 0 1 2.38-.87z" fill="#fff"/><path d="m175.44 186.54-3.72 8.61-16.11 7.4s-8.23 19.47-10.33 40.81c0 0 6.39 58.22 6.3 60.61-.18 4.54 6.86 10.14 6.86 10.14s29.91 7.76 40.56 8.89 39.46-8.42 42.36-9.92 8.09-10.85 8.09-10.85l-5.53-55.92 8-36.38-25.65-13.93-7.51-9.51z" fill="#ffc100"/><path d="m246.89 244.14c.7-.6 1.53-.9 2.09-1.35s1.57-.47 1.88.18-.38 1.52-1.11 2c1.83.53 3.85-1.64 5.51-.7a2.34 2.34 0 0 1 .39 3.28 5.88 5.88 0 0 1 -3.19 1.82 9.51 9.51 0 0 0 -3.44 1.4c-.52.41-1 1.1-.65 1.68.5 1 2.41.44 2.83 1.47.27.7-.44 1.36-1.07 1.79l-6.81 4.5a4.12 4.12 0 0 1 -2 .86 1.42 1.42 0 0 1 -1.57-1.15 1.65 1.65 0 0 1 1.3-1.47 13.34 13.34 0 0 0 2.06-.56 1.37 1.37 0 0 0 .78-1.72c-.45-.76-1.6-.51-2.38-.13l-7.5 3.33a3.27 3.27 0 0 1 -1.73.43 1.17 1.17 0 0 1 -1.07-1.2 1.63 1.63 0 0 1 .48-.78 16.07 16.07 0 0 1 5.79-3.87 8.21 8.21 0 0 0 2.41-1.14 2.11 2.11 0 0 0 .8-2.35 22.57 22.57 0 0 1 -4.79 2c-.6.17-1.4.24-1.67-.32s.28-1.14.83-1.55l8.34-6a3.33 3.33 0 0 1 2.38-.87z" fill="#fff"/><path d="m251.43 210s13.84 9.1 15.55 19.16 6.16 57 3.22 64.67-7.72 16.15-14.7 14.84-13.1-10.27-13.1-10.27l-3.67-11.57 3-10.44v-29.74z" fill="#ffc100"/><path d="m174.92 191.08c0 .07 21.76 46.2 21.76 46.2l13.11-34.45 10.29-16-43.35-.1z" fill="#967262"/><path d="m240.27 204.44c-1.62-1.39-4-1.21-6.11-.8-11.85 2.36-24.87 5.56-30.8 16.07l-1.82 6.78c0 4.35 3.52 8.11 7.64 9.52s8.64.88 12.89-.09a65.85 65.85 0 0 0 11.13-3.56c2-.84 4.1-2 5-4 1.13-2.73-.64-5.8-.47-8.74.14-2.75 1.92-5.1 3.09-7.59s1.55-5.8-.55-7.59z" opacity=".3"/><path d="m145.23 243.4a3.14 3.14 0 0 1 .15.74l.29 2.12c.23 1.85.55 4.52.91 7.83.75 6.62 1.47 15.78 2.36 25.89.46 5.06.94 9.88 1.39 14.24.22 2.19.42 4.27.68 6.2a28.53 28.53 0 0 0 1.24 5.24 18.16 18.16 0 0 0 4 6.61c1.29 1.32 2.14 1.92 2.1 2a3.75 3.75 0 0 1 -.62-.42 13.54 13.54 0 0 1 -1.64-1.39 17.45 17.45 0 0 1 -4.27-6.62 28 28 0 0 1 -1.33-5.32c-.3-1.95-.51-4-.76-6.21-.47-4.37-1-9.18-1.42-14.25-.86-10.07-1.64-19.19-2.21-25.85-.29-3.27-.53-5.92-.7-7.85l-.18-2.14a4.15 4.15 0 0 1 .01-.82z" fill="#263238"/><path d="m196.23 238.45a1.74 1.74 0 0 1 -.2-.41l-.55-1.23c-.48-1.07-1.16-2.7-2.1-4.62a127.76 127.76 0 0 0 -8.7-15.54l.51-.08-4.69 17.07-.7 2.8-.24-1.26c-2.36-11.09-4.47-21.05-6-28.32-.73-3.56-1.31-6.45-1.74-8.53-.19-1-.33-1.73-.44-2.33a5.66 5.66 0 0 1 -.12-.81 3.61 3.61 0 0 1 .24.79c.14.58.34 1.29.55 2.3l1.93 8.49c1.59 7.26 3.76 17.2 6.2 28.28h-.59l.4-1.59c1.7-6.11 3.3-11.9 4.73-17.06l.15-.6.33.51a120.41 120.41 0 0 1 8.53 15.69c.88 2 1.51 3.6 2 4.69l.47 1.27a2 2 0 0 1 .03.49z" fill="#263238"/><path d="m233.93 277.29c.09.14-11.55 7.64-25.87 16.77s-26.11 16.38-26.2 16.25 11.48-7.64 25.87-16.77 26.11-16.39 26.2-16.25z" fill="#263238"/><path d="m204.62 322.39a29.64 29.64 0 0 1 0-3.77c0-2.33 0-5.54-.22-9.07s-.67-6.72-1-9a31.6 31.6 0 0 1 -.52-3.75 20.31 20.31 0 0 1 .95 3.66 69 69 0 0 1 1.21 9.05 67.85 67.85 0 0 1 .05 9.13 18.47 18.47 0 0 1 -.47 3.75z" fill="#263238"/><path d="m143.36 240.94a71.33 71.33 0 0 1 -6.42-6.71 71.09 71.09 0 0 1 -6-7.11 71.28 71.28 0 0 1 6.42 6.7 71.2 71.2 0 0 1 6 7.12z" fill="#263238"/><path d="m255.51 308.55-1.53-.38a10.62 10.62 0 0 1 -1.83-.61 15.33 15.33 0 0 1 -2.33-1.16 17 17 0 0 1 -5-4.86 20.94 20.94 0 0 1 -3.25-8.32c0-4.58 0-9.64 0-15 .12-10.16.14-19.37.2-26.13l.12-7.92.11-2.17a3 3 0 0 1 .06-.74 2.69 2.69 0 0 1 .07.75v2.14c0 2 0 4.64.06 7.92v26.15c0 5.34-.06 10.43-.12 15a20.71 20.71 0 0 0 3.09 8.13 16.77 16.77 0 0 0 4.82 4.82 24.3 24.3 0 0 0 5.53 2.38z" fill="#263238"/><path d="m144.53 281.63a21.27 21.27 0 0 1 -2.39-.07 15.93 15.93 0 0 0 -10.35 3.82c-.56.56-1.14 1.09-1.75 1.59a5.93 5.93 0 0 1 1.46-1.91 13.93 13.93 0 0 1 4.91-3.08 13.7 13.7 0 0 1 5.74-.85 5.56 5.56 0 0 1 2.38.5z" fill="#263238"/><path d="m145.06 280.39a17.38 17.38 0 0 1 -5.82.69 16.77 16.77 0 0 1 -5.85-.71c0-.17 2.61.1 5.82.1s5.79-.26 5.85-.08z" fill="#263238"/><path d="m157.22 216.49c.72-.61 1.54-.91 2.1-1.36s1.56-.48 1.88.18-.37 1.51-1.11 1.95c1.83.54 3.85-1.63 5.51-.69a2.35 2.35 0 0 1 .39 3.29 5.84 5.84 0 0 1 -3.19 1.83 9.56 9.56 0 0 0 -3.44 1.39c-.51.4-1 1.1-.64 1.68.5 1 2.4.45 2.81 1.48.28.69-.42 1.36-1.06 1.77l-6.8 4.52a4.21 4.21 0 0 1 -2 .86 1.45 1.45 0 0 1 -1.57-1.15 1.68 1.68 0 0 1 1.31-1.48 14.06 14.06 0 0 0 2.05-.55 1.37 1.37 0 0 0 .77-1.73c-.43-.77-1.58-.5-2.37-.14l-7.48 3.35a3.24 3.24 0 0 1 -1.72.43 1.17 1.17 0 0 1 -1.07-1.2 1.63 1.63 0 0 1 .48-.78 16 16 0 0 1 5.84-3.86 8.57 8.57 0 0 0 2.41-1.13 2.14 2.14 0 0 0 .8-2.36 23.66 23.66 0 0 1 -4.79 2c-.6.18-1.4.23-1.67-.32s.28-1.13.82-1.55l8.35-6a3.36 3.36 0 0 1 2.39-.89z" fill="#fff"/><path d="m201.05 243.78c.71-.61 1.53-.91 2.1-1.36s1.56-.48 1.87.18-.38 1.51-1.11 2c1.82.54 3.85-1.63 5.5-.69a2.34 2.34 0 0 1 .39 3.29 5.88 5.88 0 0 1 -3.18 1.81 9.64 9.64 0 0 0 -3.45 1.41c-.51.4-.95 1.1-.65 1.68.52 1 2.41.44 2.83 1.48.27.69-.43 1.36-1.06 1.77l-6.81 4.52a4.25 4.25 0 0 1 -2 .88 1.44 1.44 0 0 1 -1.57-1.16 1.67 1.67 0 0 1 1.31-1.47 14.77 14.77 0 0 0 2.05-.55c.63-.31 1.13-1.12.78-1.72s-1.6-.51-2.38-.15l-7.43 3.3a3.49 3.49 0 0 1 -1.73.42 1.17 1.17 0 0 1 -1.08-1.19 1.56 1.56 0 0 1 .49-.79 16 16 0 0 1 5.78-3.87 8.63 8.63 0 0 0 2.42-1.13 2.13 2.13 0 0 0 .79-2.36 22.36 22.36 0 0 1 -4.79 2c-.58.17-1.39.23-1.67-.32s.28-1.13.83-1.55q4.18-3 8.35-6a3.36 3.36 0 0 1 2.38-.87z" fill="#fff"/><path d="m171.63 284.41c.72-.6 1.54-.91 2.1-1.36a1.28 1.28 0 0 1 1.88.18c.32.65-.38 1.52-1.11 1.95 1.82.55 3.85-1.63 5.5-.68a2.33 2.33 0 0 1 .39 3.28 5.88 5.88 0 0 1 -3.19 1.82 9.69 9.69 0 0 0 -3.43 1.39c-.51.4-1 1.11-.65 1.68.5 1 2.41.45 2.82 1.48.28.69-.43 1.36-1.06 1.77l-6.81 4.52a4.18 4.18 0 0 1 -2 .86 1.44 1.44 0 0 1 -1.57-1.15 1.68 1.68 0 0 1 1.31-1.48 12.17 12.17 0 0 0 2.05-.55 1.36 1.36 0 0 0 .77-1.73c-.44-.77-1.59-.5-2.38-.14l-7.47 3.35a3.24 3.24 0 0 1 -1.72.43 1.18 1.18 0 0 1 -1.08-1.2 1.58 1.58 0 0 1 .49-.78 16 16 0 0 1 5.78-3.87 8.08 8.08 0 0 0 2.41-1.14 2.13 2.13 0 0 0 .8-2.35 23.1 23.1 0 0 1 -4.79 2c-.6.18-1.4.24-1.67-.32s.28-1.14.82-1.55l8.35-6a3.36 3.36 0 0 1 2.39-.89z" fill="#fff"/><path d="m226.81 294c.7-.61 1.54-.91 2.1-1.36s1.56-.47 1.88.18-.43 1.5-1.11 2c1.83.54 3.85-1.64 5.51-.69a2.34 2.34 0 0 1 .38 3.28 5.8 5.8 0 0 1 -3.18 1.8 9.8 9.8 0 0 0 -3.44 1.42c-.51.4-.95 1.1-.65 1.68.5 1 2.41.44 2.82 1.47.28.7-.44 1.36-1.06 1.77l-6.82 4.45a4.08 4.08 0 0 1 -2 .86 1.46 1.46 0 0 1 -1.57-1.16 1.66 1.66 0 0 1 1.32-1.47 13.38 13.38 0 0 0 2-.55c.63-.31 1.13-1.11.78-1.72s-1.59-.5-2.38-.15l-7.39 3.35a3.38 3.38 0 0 1 -1.73.42 1.17 1.17 0 0 1 -1.08-1.19 1.51 1.51 0 0 1 .5-.78 15.7 15.7 0 0 1 5.84-3.86 8.41 8.41 0 0 0 2.4-1.14 2.13 2.13 0 0 0 .81-2.35 23.66 23.66 0 0 1 -4.79 2c-.6.18-1.41.23-1.68-.32s.28-1.14.83-1.55l8.36-6a3.32 3.32 0 0 1 2.38-.89z" fill="#fff"/><path d="m204.6 294.86a2.47 2.47 0 0 1 -.19-.54l-.44-1.59c-.38-1.38-.89-3.39-1.46-5.89-1.17-5-2.58-11.94-3.75-19.67s-1.87-14.79-2.26-19.91c-.19-2.57-.29-4.63-.34-6.11q0-1 0-1.65a2.26 2.26 0 0 1 0-.58 2.27 2.27 0 0 1 .1.58c0 .44.09 1 .16 1.64.12 1.51.31 3.56.53 6 .46 5.1 1.23 12.13 2.38 19.88s2.5 14.66 3.53 19.65c.52 2.44 1 4.44 1.27 5.93l.34 1.62a1.81 1.81 0 0 1 .13.64z" fill="#263238"/><path d="m270.49 292.82c-.21.85-4.58 1.65-5.4 1.35l-.91-.55c-.79.49-1.65.66-2.27 1s-1.63.22-1.84-.46.65-1.41 1.4-1.76c-1.73-.8-4.06 1-5.55-.18a2.34 2.34 0 0 1 .14-3.3 5.84 5.84 0 0 1 3.43-1.3 9.83 9.83 0 0 0 3.62-.85 1.47 1.47 0 0 0 .89-1.57c-.34-1.05-2.3-.81-2.56-1.85-.17-.73.63-1.27 1.32-1.58 2.47-1.15 5.87-2.75 8.34-3.89.02-.03.28 11.04-.61 14.94z" fill="#fff"/><path d="m182.31 309.75c18.69-4.87 37-15.66 49.16-30.64z" opacity=".3"/><path d="m130.07 287c4.94-6.12 11.76-6.43 17.89-4.82a1.51 1.51 0 0 0 -.64-1.93 4.28 4.28 0 0 0 -2.16-.54 25.21 25.21 0 0 0 -9.23.79 8.77 8.77 0 0 0 -5.7 6.28" opacity=".3"/><path d="m171.32 195.46a160.53 160.53 0 0 0 8.49 48.11 25.81 25.81 0 0 0 7.95-15.66 19.89 19.89 0 0 0 7.74 8.94c-2.87-7.09-6-13.93-10.47-20.12 0 0-5.29 19.16-5.15 18.63-3-13.4-5.81-26.58-8.58-39.91" opacity=".3"/><path d="m250.13 136.56a8.36 8.36 0 0 0 -5.84-13.78 9 9 0 0 0 -9.74-11.71 9.58 9.58 0 0 0 -10.2-8.93 9.73 9.73 0 0 0 -3.13.74 9.22 9.22 0 0 0 -13-1.22 8.75 8.75 0 0 0 -1.68 1.81 11 11 0 0 0 -4.43 1.77 6.91 6.91 0 0 0 -4.31.64 19.15 19.15 0 0 0 -4.43 3.37c-2.22 2.08-4.55 4.29-5.33 7.23-.89 3.26.28 7-1.37 10a22.26 22.26 0 0 0 -2.13 3.37c-.83 2.38.78 4.94.59 7.47s-2.41 5-2.14 7.68a7 7 0 0 0 3.22 4.63 28 28 0 0 1 4.6 3.52c1 1.17 1.67 2.57 2.69 3.78a8.66 8.66 0 0 0 11.81.93 9.27 9.27 0 0 0 8.36 1.46 27.23 27.23 0 0 0 7.83-4 5.36 5.36 0 0 0 7.5 1.08 5.28 5.28 0 0 0 1.48-1.67 4.58 4.58 0 0 0 4.94 2.73 13.58 13.58 0 0 0 5.59-2.35c3.25-2 6.9-4.66 7-8.49 0-2.34-1.28-4.76-.4-6.93a12.82 12.82 0 0 1 2.52-3.13z" fill="#263238"/><path d="m223.41 131.39c-2.66-8.16-14.62-19.4-23.17-18.74l-13.61 8.35a13.18 13.18 0 0 0 9 10c2.42.73 5.34.91 6.79 3s.65 5.21 2 7.4c1.92 3 7.1 2.85 8.54 6.12.63 1.43.32 3.15 1 4.57.87 1.88 5.7 4.27 7.68 3.61s2-4 2.57-5.8a9.37 9.37 0 0 0 .24-6.29c-.84-4.03.23-8.31-1.04-12.22z" fill="#263238"/><path d="m228.73 125.29-1 4.51a18 18 0 0 0 -2.36-9.18c-3.42-5.13-10.94-8.65-16.87-10.36s-13.22-.66-19 1.63a26.94 26.94 0 0 0 -12.73 10c-4.35 5.89-5.37 14.77-2.68 16.34 2.13-6.11 5.5-13.12 10.84-16.78a22.23 22.23 0 0 1 18.49-3.4c6.92 2 12.19 7.9 15.25 14.42a55.85 55.85 0 0 1 3.47 10.39 26.65 26.65 0 0 1 -.14 12.74l-3.46 12.1-.07 3.94c8.41-3.12 13.62-11.89 15-20.76s.45-17.45-4.74-25.59z" fill="#ffc100"/><path d="m221.65 152.21c-.07 0 .23-.73.44-2.06a12.58 12.58 0 0 0 -.43-5.62 12 12 0 0 0 -4.88-6.59 36.07 36.07 0 0 0 -4.49-2.23 13.29 13.29 0 0 1 -4.56-3.1 20.22 20.22 0 0 1 -2.65-4.82 12 12 0 0 0 -10.55-7 12.67 12.67 0 0 0 -5.53 1.21c-1.28.57-1.83 1-1.86 1a2 2 0 0 1 .41-.36 9.55 9.55 0 0 1 1.35-.85 12.16 12.16 0 0 1 13.64 1.67 12.43 12.43 0 0 1 3.12 4.11 20.51 20.51 0 0 0 2.56 4.66 13 13 0 0 0 4.35 3 35.09 35.09 0 0 1 4.53 2.31 12.56 12.56 0 0 1 5.24 12.81 9.27 9.27 0 0 1 -.46 1.53 1.88 1.88 0 0 1 -.23.33z" fill="#455a64"/><path d="m220.35 137a8 8 0 0 0 -1-1.28 13 13 0 0 0 -3.75-2.31 30.2 30.2 0 0 1 -2.78-1.4 8.23 8.23 0 0 1 -2.75-2.4c-1.52-2.12-2-5-4-7a12.21 12.21 0 0 0 -7-3.37 16.51 16.51 0 0 0 -6.41.52 48.12 48.12 0 0 0 -5.66 2.22 6.55 6.55 0 0 1 1.38-.9 21.54 21.54 0 0 1 4.16-1.78 16.36 16.36 0 0 1 6.67-.67 12.5 12.5 0 0 1 7.42 3.53c2.19 2.16 2.67 5.12 4.06 7.07s3.59 2.86 5.23 3.73a11.55 11.55 0 0 1 3.73 2.56 4.74 4.74 0 0 1 .7 1c-.04.36.03.48 0 .48z" fill="#455a64"/><path d="m227.49 165a4.43 4.43 0 0 1 .45-1c.3-.65.75-1.6 1.21-2.87a31.81 31.81 0 0 0 1.85-11.23 48.17 48.17 0 0 0 -.82-7.85 48.94 48.94 0 0 0 -2.31-8.74 33.09 33.09 0 0 0 -4.84-8.69 32.24 32.24 0 0 0 -7.9-7.15 29.45 29.45 0 0 0 -19.77-4.36 28.23 28.23 0 0 0 -8.61 2.56 27.49 27.49 0 0 0 -6.48 4.41 28.54 28.54 0 0 0 -6.68 9.17c-.53 1.28-.9 2.23-1.11 2.91a9.67 9.67 0 0 1 -.36 1 5.51 5.51 0 0 1 .23-1.07 26 26 0 0 1 1-3 27.81 27.81 0 0 1 13.15-14 28.38 28.38 0 0 1 8.78-2.68 29.81 29.81 0 0 1 20.2 4.41 32.07 32.07 0 0 1 12.94 16.18 48.6 48.6 0 0 1 2.3 8.87 47 47 0 0 1 .74 7.94 30.67 30.67 0 0 1 -2.1 11.32 29.91 29.91 0 0 1 -1.28 2.83 8.69 8.69 0 0 1 -.59 1.04z" fill="#263238"/><path d="m200.2 117.67c-9.44-.47-21 4.21-24.16 13.42-3.46 10.22-7.28 22.84-8.15 30.92-1.73 16.26 9.69 21.48 9.69 21.48l-2.58 7.85 37.52 2.06s9.83-25.33 10-39.65-1.57-16.67-9.8-18.34-3.07-17.27-12.52-17.74z" fill="#967262"/><path d="m179 143.86a2.07 2.07 0 0 0 1.38 2.53 2 2 0 0 0 2.62-1.19 2.06 2.06 0 0 0 -1.38-2.53 2 2 0 0 0 -2.54 1.19z" fill="#263238"/><path d="m177.55 138.61c.18.32 2-.38 4.15.21s3.45 2.06 3.75 1.88 0-.62-.53-1.33a5.74 5.74 0 0 0 -2.91-1.84 5.57 5.57 0 0 0 -3.4.17c-.79.35-1.18.75-1.06.91z" fill="#263238"/><path d="m199 149.68a2.08 2.08 0 0 0 1.38 2.54 2 2 0 0 0 2.62-1.22 2.09 2.09 0 0 0 -1.38-2.55 2 2 0 0 0 -2.54 1.21z" fill="#263238"/><path d="m198.6 144.72c.18.33 2-.38 4.15.21s3.44 2.06 3.74 1.88 0-.62-.52-1.33a5.74 5.74 0 0 0 -2.91-1.84 5.53 5.53 0 0 0 -3.39.17c-.77.36-1.15.76-1.07.91z" fill="#263238"/><path d="m186.48 158.57a15.1 15.1 0 0 0 -3.33-1.56c-.53-.21-1-.46-1-.85a2.85 2.85 0 0 1 .81-1.54c.88-1.19 1.82-2.44 2.76-3.74 3.86-5.35 6.82-9.81 6.6-10s-3.53 4.05-7.39 9.4q-1.42 2-2.7 3.8a3.2 3.2 0 0 0 -.87 2.07 1.4 1.4 0 0 0 .69 1.05 4 4 0 0 0 .9.38 13.9 13.9 0 0 0 3.53.99z" fill="#263238"/><path d="m177.57 183.53a42.75 42.75 0 0 0 22.94.19s-8.43 9.4-24.18 3.61z" fill="#77574a"/><path d="m186 164a4 4 0 0 1 3.86-.51 3.63 3.63 0 0 1 2.09 2 2.35 2.35 0 0 1 -.52 2.62 2.69 2.69 0 0 1 -3-.05 8.31 8.31 0 0 1 -2.31-2.38 2.72 2.72 0 0 1 -.44-.8.73.73 0 0 1 .2-.81" fill="#77574a"/><path d="m192.41 161.77c-.35-.09-1 2.17-3.43 3.34s-4.86.2-4.95.53c0 .13.43.6 1.48.91a6 6 0 0 0 4.12-.3 5.29 5.29 0 0 0 2.72-2.84c.33-.96.23-1.61.06-1.64z" fill="#263238"/><path d="m200.33 136.14c0 .64 2.27.94 4.71 1.92s4.26 2.27 4.78 1.8c.22-.21 0-.85-.66-1.65a8.57 8.57 0 0 0 -3.29-2.25 8.42 8.42 0 0 0 -3.94-.57c-1.04.13-1.62.45-1.6.75z" fill="#263238"/><path d="m180.09 132.6c.24.59 1.87.47 3.65.91s3.22 1.23 3.7.8c.22-.21.11-.75-.42-1.4a5.18 5.18 0 0 0 -2.75-1.6 5.29 5.29 0 0 0 -3.17.2c-.83.36-1.18.8-1.01 1.09z" fill="#263238"/><path d="m202.8 222.5a3.2 3.2 0 0 1 -.76-.44 6 6 0 0 1 -1.67-1.94 6.87 6.87 0 0 1 -.82-4 5.77 5.77 0 0 1 .8-2.44 10.61 10.61 0 0 1 1.81-2.2 21 21 0 0 0 2.11-2.21 8.41 8.41 0 0 0 1.41-2.9 13.88 13.88 0 0 0 -.38-7.15 72.33 72.33 0 0 0 -3-7.54 18.53 18.53 0 0 1 -1.74-8.64 21.41 21.41 0 0 1 2.63-8.43 51.9 51.9 0 0 1 4.54-6.83c1.55-2.09 3.06-4.06 4.29-6a30.23 30.23 0 0 0 2.95-5.67 21.56 21.56 0 0 0 1.68-9 13.39 13.39 0 0 0 -.66-3.32 3.87 3.87 0 0 1 .37.8 11.08 11.08 0 0 1 .57 2.55 21.23 21.23 0 0 1 -1.52 9.19 30.77 30.77 0 0 1 -2.93 5.78c-1.23 2-2.73 3.94-4.27 6a50.86 50.86 0 0 0 -4.45 6.79 20.71 20.71 0 0 0 -2.56 8.18 18.18 18.18 0 0 0 1.68 8.37 72.17 72.17 0 0 1 3 7.61 14.24 14.24 0 0 1 .31 7.44 8.62 8.62 0 0 1 -1.52 3.06 23.5 23.5 0 0 1 -2.17 2.18 11 11 0 0 0 -1.78 2.08 5.71 5.71 0 0 0 -.77 2.22 6.72 6.72 0 0 0 .69 3.79 7 7 0 0 0 2.16 2.67z" fill="#263238"/><path d="m246.71 233-4.71-14.14 2.46-12.1 5.07-7.44s2.56 0 2.24 3a16.12 16.12 0 0 1 -2.48 6.15l.21 6.23s.39.76 1.5-1.53 4.69-20.43 5-21.65 1.13-4.14 2.89-3.42 1.73 3.31 1.43 4.55-2 13.6-2 13.6.16 1.18.63 1.13 2.83-13 3.25-15 1.09-6.61 3.44-6 1.8 2.85 1.33 5.31-2.39 16.68-2.39 16.68.15.95.78-.12 4.79-16 5.22-16.6 2.06-1.22 2.7.74-.6 5.88-2.49 12.82c-1.7 6.26-2.55 8.82-1.95 9.5s4.25-2.56 4.25-2.56 5.29-7.5 7.95-6.52.3 2.64-.65 4.45c-.81 1.54-8 10.06-8.14 10.16s-9.14 16.22-9.14 16.22l5.43 22.41a19.07 19.07 0 0 1 -.8 11.75c-1.68 4.08-5 8.26-11.71 8.64-4.89.3-7.79-2.59-9.45-5.56a15.47 15.47 0 0 1 -1.77-8.52c.58-8 1.86-32.17 1.86-32.17z" fill="#967262"/><path d="m256.61 226.14c-.1 0 .23-.93.33-2.39a9.7 9.7 0 0 0 -1.31-5.5 6.76 6.76 0 0 0 -3.39-3 4.23 4.23 0 0 0 -2.81-.06h-.13v-.1c-.07-.35-.1-.55-.06-.55s.12.15.26.5h-.16a4 4 0 0 1 3-.21 6.78 6.78 0 0 1 3.77 3.11 9.12 9.12 0 0 1 1.22 5.84 4.82 4.82 0 0 1 -.72 2.36z" fill="#77574a"/><path d="m265.42 218.57c.07.17-1.2.81-2.55 1.88a23.66 23.66 0 0 1 -2.44 2 7.53 7.53 0 0 1 4.99-3.88z" fill="#77574a"/><path d="m133.58 300.81a21.65 21.65 0 0 0 2.15 15 111.74 111.74 0 0 0 6.07 9.85l17.35 13.63s4.9 2.05 11.26-1.66a17.37 17.37 0 0 0 5.24-4.12s5.2 4.08 7.52 4.56c3.9.79 4-2.09 4-2.09s-11.12-10.31-13.5-13.82-10.76-7.51-17.22-8.26l-3.45-1.63-.1-5.21s-4.46-12.3-11.92-10.2-7.4 3.95-7.4 3.95z" fill="#967262"/><path d="m298 96.87-88.83.13c-14 0-28.07 0-42.1.05a43.31 43.31 0 0 0 -5.22.08c-6 .81-3.86 1.09-5.8 4.7-1.68 3.12-2.25 6.4-5 9a.76.76 0 0 1 -.91.11c-5.27-3.76-2.9-12-10-13.75-3.28-.83-8.69-.09-12-.09h-18.53c-17.34 0-35.84 1.66-53.14-.61-13.84-1.81-13.88-11.5-14-23.13-.06-9.82-3.26-62.18 6.6-68.35 3.52-2.2 7.43-1.64 11.46-1.65h37.21q37.35 0 74.7.15c51.26.13 102.55.66 153.81.26 6.85-.05 12.88-.68 18.06 4.76 6.67 7 6.71 53.86 6.53 62.87-.15 7.34-.12 16-6.52 20.86-7.3 5.59-18.53 5-27.17 5.06a1.08 1.08 0 0 1 -1-1.13 1.07 1.07 0 0 1 1-1c11.59 0 27.51.74 30.83-13.35 3.33-13.84 2.28-74.84-15.58-76.13-23.21-1.71-47.23 0-70.52 0-53.56-.16-107.13-.45-160.7-.56q-19 0-38-.05c-2.37 0-4.76-.06-7.12 0-9.67.31-11.9 9.18-11.9 17.57 0 5.09.05 45.6.08 50.69 0 2.54-.07 5.1 0 7.64.52 10.05 5.94 13.26 14.76 14.09 18.73 1.77 38.12.41 56.89.42h18.32c2.25 0 6.66-.63 8.53.19 4.59 2 4.81 16.23 10.24 9.85 1.8-2.11 1.08-7.64 3.21-9.33 1.84-1.45 5.5-.7 7.69-.69 14.56.13 29.14 0 43.71 0h90.41a.67.67 0 0 1 0 1.33z" fill="#283cb1"/><path d="m327.92 1.12c-71.63.51-143.44 1.25-215.06 0a.25.25 0 0 1 0-.5c71.62-1.17 143.43-.44 215.06.08a.21.21 0 0 1 .21.21.2.2 0 0 1 -.21.2z" fill="#283cb1"/><path d="m108.47.75a115.4 115.4 0 0 1 -20 .12.21.21 0 0 1 -.21-.21.2.2 0 0 1 .21-.2 115.4 115.4 0 0 1 20 .12.09.09 0 0 1 .08.08.09.09 0 0 1 -.08.09z" fill="#283cb1"/><text fill="#662d91" font-family="ArialMT, Arial" font-size="18" transform="translate(73 33)">Great! How much from a range</text><text fill="#662d91" font-family="ArialMT, Arial" font-size="18" transform="translate(73 55)">perspective are you looking to</text><text fill="#662d91" font-family="ArialMT, Arial" font-size="18" transform="translate(73 77)">spend?</text><path d="m107.69 235.61c-3.8-3.72-8.71-8.22-14.51-6.61-5.47 1.51-7.56 7.47-8.54 12.44-1.26 6.4-2.24 12.87-3.25 19.32s-2 13-2.93 19.55q-.79 5.52-1.57 11.05c-.26 1.84-.51 3.68-.77 5.52s-.55 3.61-.65 5.44a.51.51 0 0 0 .54.48.5.5 0 0 0 .46-.37c.7-3.07 1-6.27 1.44-9.39s.91-6.27 1.37-9.4q1.36-9.33 2.79-18.68t2.93-18.67c.85-5.27 1.24-11.82 5.92-15.3a9 9 0 0 1 8.74-.82c3.08 1.17 5.54 3.38 7.94 5.56.06.07.18-.05.09-.12z" fill="#263238"/><path d="m102.49 231.81s-7.76-2.8-11.59 2.87.75 20.08 36.1 28.21a100 100 0 0 0 -8.51-32c-7.58-16.48-21.08-10.23-16 .92z" fill="#ffc727"/><path d="m125 260.56a30.41 30.41 0 0 0 -1.78-2.87c-.59-.91-1.19-1.81-1.79-2.72-.46-.68-.92-1.35-1.39-2a4.46 4.46 0 0 0 .07-.51l.12-.91c.08-.67.18-1.33.28-2s.21-1.32.33-2a9.94 9.94 0 0 1 .47-2.08c0-.11-.15-.16-.16 0a8.1 8.1 0 0 1 -.34 1.09c-.09.3-.16.6-.24.9-.17.67-.34 1.34-.49 2s-.25 1.24-.36 1.87c0 .3-.1.61-.14.91-.63-.9-1.27-1.79-1.93-2.66-1.88-2.48-3.87-4.86-5.92-7.18v-.06c.18-3.72.09-7.39.92-11.05 0-.1-.13-.15-.15 0a38.11 38.11 0 0 0 -1.32 10.57c-.74-.83-1.48-1.64-2.24-2.45q-2.58-2.79-5.26-5.46a.08.08 0 0 0 -.11 0 .07.07 0 0 0 0 .11c3 3.2 5.81 6.54 8.56 9.94a63.3 63.3 0 0 0 -6.46.24c-2.4.18-4.78.49-7.16.82-.1 0-.07.17 0 .15a68.54 68.54 0 0 1 7.15-.64c2.31-.09 4.6 0 6.9 0 1.49 1.85 3 3.71 4.42 5.58h-2c-1.07 0-2.15.09-3.22.18a49.6 49.6 0 0 0 -6.52 1 .09.09 0 0 0 -.08.08.08.08 0 0 0 .08.08c2.17-.25 4.34-.45 6.53-.53h4.75a2.07 2.07 0 0 0 .89-.08c1 1.24 1.91 2.47 2.85 3.71q1.13 1.5 2.22 3c.73 1 1.41 2.15 2.24 3.11a.15.15 0 0 0 .2.06.16.16 0 0 0 0-.2z" fill="#263238"/><path d="m105.87 239.84a25.13 25.13 0 0 0 -3.78-.19c-1.26 0-2.52 0-3.78.09a.08.08 0 0 0 0 .15 0 0 0 0 0 0 0c1.28-.09 2.56-.11 3.84-.09s2.47.13 3.71.1c.05 0 .06-.06.01-.06z" fill="#263238"/><path d="m117 242.69c.15-1.21.3-2.42.55-3.61a.07.07 0 0 0 0-.1s-.08 0-.1.05a0 0 0 0 0 0 .05c-.18 1.18-.41 2.36-.59 3.55-.09.6-.17 1.19-.24 1.79a9.65 9.65 0 0 0 -.15 1.69c0 .1.18.11.21 0a9.39 9.39 0 0 0 .18-1.68c-.02-.6.04-1.17.14-1.74z" fill="#263238"/><path d="m114.65 229.31c-.31 1.17-.62 2.36-.84 3.56-.11.61-.2 1.22-.28 1.83a7.62 7.62 0 0 0 -.12 1.78c0 .05.08.05.09 0a9.73 9.73 0 0 0 .28-1.7c.08-.59.17-1.18.27-1.76.21-1.23.43-2.45.75-3.67-.02-.08-.13-.14-.15-.04z" fill="#263238"/><path d="m68.61 301q-.28-3.35-.65-6.67c-.46-4.41-1-8.8-1.59-13.19s-1.15-8.76-1.85-13.12a34.46 34.46 0 0 0 -1.35-6 5.7 5.7 0 0 0 -3.3-3.72c-4.16-1.44-7 2.88-8.65 5.93 0 .09.09.16.14.08 1-1.45 3.79-5.51 6.94-5.32 2.13.13 3.83 1.63 4.85 6.93 2.53 13.19 4.82 40 5.09 41.71.14.93.8.89.8-.11.02-2.14-.26-4.33-.43-6.52z" fill="#263238"/><path d="m52.35 262.64s3.63-12.84-4.41-6.42c-13.37 10.69-13.85 33.93-13.85 33.93s23.78-13.82 26.74-22.93c4.41-13.57-8.48-4.58-8.48-4.58z" fill="#ffc727"/><path d="m56.85 268.94c-1.87.38-3.76.63-5.65.9l-2.67.37c-.6.09-1.21.14-1.82.22 1.77-2.44 3.56-4.87 5.25-7.36.07-.1-.08-.2-.15-.12a56.17 56.17 0 0 0 -4 4.59l-1-3c-.43-1.14-.81-2.3-1.13-3.48 0-.1-.18 0-.16.05.33 1.17.56 2.37.87 3.55s.65 2.27 1.06 3.38c-.88 1.13-1.71 2.28-2.52 3.46-.41-1.16-.92-2.29-1.28-3.47a.08.08 0 0 0 -.11 0 .07.07 0 0 0 0 .08c.43 1.3.65 2.66 1.06 4-.55.8-1.1 1.59-1.62 2.4-1 1.48-1.86 3-2.75 4.52a.34.34 0 0 0 -.21.35c-1.5 2.6-2.93 5.24-4.34 7.9a.08.08 0 0 0 0 .12.09.09 0 0 0 .11 0c1.41-2.63 3-5.19 4.62-7.7a3.37 3.37 0 0 1 .78-.15l.82-.18c.62-.14 1.23-.3 1.84-.45 1.2-.3 2.4-.58 3.62-.79.1 0 .06-.17 0-.15-1.44.27-2.89.43-4.34.6-.69.08-1.37.17-2.06.28h-.1q1.29-2 2.6-3.86c.87-1.26 1.76-2.49 2.65-3.73.82-.11 1.64-.33 2.46-.49l2.76-.53c1.84-.37 3.67-.78 5.52-1.09.04-.08.04-.24-.11-.22z" fill="#263238"/><path d="m42.56 270.21c-.12-.34-.22-.69-.33-1a19.31 19.31 0 0 1 -.54-2.15c0-.1-.18-.05-.15 0 .15.72.32 1.45.49 2.17a13 13 0 0 0 .62 2.13.15.15 0 0 0 .18.09.14.14 0 0 0 .09-.17c-.14-.35-.25-.72-.36-1.07z" fill="#263238"/><path d="m59.28 266c-1.08.16-2.18.24-3.27.33s-2.18.25-3.27.41a0 0 0 1 0 0 .1c1.1-.08 2.19-.16 3.28-.3s2.17-.31 3.26-.38c.11-.04.1-.16 0-.16z" fill="#263238"/><path d="m86.11 284.76c-.42-9.45-1-18.89-2-28.3-.47-4.69-1-9.38-1.66-14a101.94 101.94 0 0 0 -2.67-13.63 26.08 26.08 0 0 0 -4.52-9.58 10.29 10.29 0 0 0 -9.14-4c-4.14.51-7.47 3.12-10.35 5.95-3.23 3.18-6.19 6.64-9.19 10l-2.25 2.6c-.07.07 0 .18.12.11q4.38-5.06 9.15-9.76c2.94-2.88 6-6 10-7.23a10.42 10.42 0 0 1 5.83-.14 9.37 9.37 0 0 1 4 2.53 20.91 20.91 0 0 1 4.49 8.74c2.55 8.69 3.46 17.8 4.4 26.77s1.61 18.25 2.07 27.4.82 18.42 1.7 27.59c.11 1.14.26 2.26.4 3.39.1.76 1.28.76 1.21 0-.7-9.46-1.16-18.94-1.59-28.44z" fill="#263238"/><path d="m55.24 222.23s5.4-10-1-13.19-27.72 20.62-34 55.46c0 0 34.48-15.25 46.18-30.45s-1.5-18.55-11.18-11.82z" fill="#ffc727"/><path d="m60.31 230.36c-3.88 0-7.74-.3-11.62-.27.73-.83 1.45-1.67 2.19-2.49a38.7 38.7 0 0 0 3-3.52c0-.08-.07-.2-.14-.13a28.14 28.14 0 0 0 -2.94 2.94c-1 1-1.93 2.06-2.89 3.1-1.48 1.6-2.94 3.23-4.38 4.86v-2.47c0-1.32 0-2.63 0-3.94 0-2.67 0-5.35.2-8 0-.11-.15-.1-.16 0-.19 2.67-.46 5.33-.59 8-.07 1.31-.1 2.63-.11 3.94v3.14l-.69.76c-3.09 3.53-6 7.19-8.89 10.91a2.6 2.6 0 0 0 -.05-.62 10.29 10.29 0 0 0 -.14-1.23c-.1-.89-.22-1.77-.35-2.66s-.26-1.66-.4-2.49-.38-1.87-.45-2.81a.08.08 0 0 0 -.16 0 22.64 22.64 0 0 1 .32 2.84l.24 2.56c.08.85.15 1.7.24 2.56a9.89 9.89 0 0 0 .13 1.22 1.85 1.85 0 0 0 .07.62 1.19 1.19 0 0 0 .17.49l-1.48 1.92c-2 2.59-3.87 5.21-5.79 7.82-.06.08 0 .19.12.11 1.81-2.37 3.68-4.7 5.58-7 1.42.06 2.86 0 4.28-.06s3 0 4.49 0a.08.08 0 0 0 .08-.08.09.09 0 0 0 -.08-.08h-4.43c-1.48 0-2.75-.06-4.12 0 1.67-2 3.35-4 5-6.05.62-.73 1.24-1.46 1.85-2.2a8.33 8.33 0 0 0 1.73.06h2c1.28 0 2.55 0 3.82-.05 2.63 0 5.27-.13 7.9-.14a.08.08 0 0 0 .08-.08.09.09 0 0 0 -.08-.08c-2.63 0-5.26-.14-7.9-.21l-3.82-.09h-3.14c1.45-1.72 2.89-3.44 4.34-5.15a.12.12 0 0 0 .08-.09c1.42-1.67 2.83-3.34 4.26-5l.59-.67c4 .12 8-.14 12-.06a.08.08 0 0 0 .1-.06.1.1 0 0 0 0-.07z" fill="#263238"/><path d="m58.33 237.21h-.94a.07.07 0 1 0 0 .14h.94a.07.07 0 0 0 0-.1z" fill="#263238"/><path d="m56.24 237.22c-1.24 0-2.48 0-3.72-.08l-1.87-.06a7.15 7.15 0 0 0 -1.73 0 .06.06 0 0 0 -.06.06.06.06 0 0 0 .06.06 6.28 6.28 0 0 0 1.73.12h5.58a.08.08 0 0 0 .01-.1z" fill="#263238"/><path d="m45.4 248.85a54.09 54.09 0 0 0 -7.62-.69v.06c2.53.24 5.07.38 7.58.79.1-.01.14-.14.04-.16z" fill="#263238"/><path d="m35 237.76a5 5 0 0 0 -.08-.66c-.07-.5-.14-1-.22-1.5-.15-.94-.32-1.89-.5-2.83 0-.09-.16-.06-.15 0 .12 1 .22 1.95.31 2.92.05.48.08 1 .13 1.44a4 4 0 0 0 .19 1.37.18.18 0 0 0 .25.07.2.2 0 0 0 .08-.12 1.78 1.78 0 0 0 -.01-.69z" fill="#263238"/><path d="m85.78 209.4c-1.23-2.29-2.8-5.33-5.88-5.13-2.54.16-3.69 2.75-4.23 4.9-1.68 6.63-1.8 13.63-2.13 20.43-.69 14.37-1.31 28.75-1.4 43.14v12c0 4 0 8.16.29 12.22a.3.3 0 1 0 .6 0c0-3.47-.1-7-.12-10.43s0-6.8.07-10.19q.17-10.32.55-20.62c.25-6.84.55-13.66.84-20.49.15-3.42.29-6.83.45-10.24s.29-6.62.67-9.91c.21-1.84.48-3.68.86-5.5a7.74 7.74 0 0 1 1.59-3.68 3.48 3.48 0 0 1 4.5-.33 9.67 9.67 0 0 1 3.19 4 .19.19 0 0 0 .15-.17z" fill="#263238"/><path d="m84.94 208.31s-2.53-8.94 3.06-4.47c9.32 7.44 9.65 23.63 9.65 23.63s-16.56-9.62-18.62-16c-3.03-9.42 5.91-3.16 5.91-3.16z" fill="#ffc727"/><path d="m94.17 220.83-.47-.73a4.82 4.82 0 0 0 0-.76v-1.16c0-.75 0-1.51.08-2.26 0-.11-.15-.1-.16 0 0 .74-.06 1.48-.08 2.22v1.59c-.65-1-1.31-2-2-3l-.62-.84a17.78 17.78 0 0 1 0-2.92q0-1.56.06-3.12a.07.07 0 0 0 -.07-.07.07.07 0 0 0 -.08.07c0 1.09-.09 2.17-.14 3.25a22.28 22.28 0 0 0 -.07 2.31c-1.6-2.18-3.29-4.27-5-6.36a.08.08 0 0 0 -.11 0 .07.07 0 0 0 0 .11c1.07 1.35 2.09 2.73 3.09 4.12-2-.45-3.93-.71-5.91-1-.11 0-.14.14 0 .16 2.09.31 4.15.84 6.22 1.3.8 1.12 1.58 2.24 2.36 3.37.32.45.63.92.94 1.38h-.09l-.64-.09-1.48-.14c-1-.07-1.91-.12-2.87-.17-.1 0-.1.15 0 .16.94 0 1.88.08 2.82.19l1.48.18.65.08h.19l1.48 2.36c.94 1.38 1.77 2.87 2.77 4.2a.07.07 0 0 0 .11 0 .06.06 0 0 0 0-.07 45.84 45.84 0 0 0 -2.46-4.36z" fill="#263238"/><path d="m90 210.73v-1a16 16 0 0 1 .09-2.19.08.08 0 0 0 -.16 0c0 .72-.08 1.45-.11 2.17v1.59a1.51 1.51 0 0 0 0 .52c0 .07.11.06.14 0a1.24 1.24 0 0 0 0-.47 4.21 4.21 0 0 0 .04-.62z" fill="#263238"/><path d="m88 214.44c-.62-.11-1.25-.14-1.87-.19s-1.37-.12-2-.21a.09.09 0 0 0 -.08.08.08.08 0 0 0 .08.08c1.31.08 2.61.32 3.92.36 0 0 .02-.11-.05-.12z" fill="#263238"/><path d="m93.2 214.49v.34 1.54a1.28 1.28 0 0 0 0 .55h.06a.57.57 0 0 0 0-.26v-2.17c0-.07-.17-.15-.06 0z" fill="#263238"/><path d="m86.16 257.12c-3.49-2.62-6.62-6.38-11.3-6.56-3.87-.15-6.58 2.76-8.13 6a33.93 33.93 0 0 0 -1.9 5.34c-.7 2.45-1.35 4.91-2 7.38-1.21 4.86-2.26 9.76-3.1 14.7-.47 2.75-.91 5.51-1.26 8.28a68.93 68.93 0 0 0 -.81 8.48.44.44 0 0 0 .47.41.43.43 0 0 0 .39-.31c.47-2.32.67-4.71 1-7s.7-4.71 1.1-7.06c.8-4.69 1.72-9.37 2.77-14 1-4.38 2-8.83 3.4-13.1 1-3.06 2.64-6.63 5.94-7.73 5-1.67 9.6 2.58 13.28 5.34.12.01.23-.11.15-.17z" fill="#263238"/><path d="m82.55 254.62s-3.21-9.17 1.44-11c7-2.7 25.18 17.82 21.61 49.27 0 0-14.08-7.76-24.47-16.48s-13.06-20.12-8.48-23.07 9.9 1.28 9.9 1.28z" fill="#ffc727"/><path d="m103.5 286.18a25.4 25.4 0 0 0 -1.7-3.17c-.59-1.08-1.19-2.15-1.81-3.21-1.22-2.07-2.42-4.15-3.66-6.2l-.61-1a1.63 1.63 0 0 1 .08-.37l.21-.91c.15-.68.27-1.37.4-2.06.25-1.34.49-2.71.85-4a.08.08 0 0 0 -.16 0c-.29 1.35-.71 2.67-1.11 4-.19.65-.4 1.29-.57 1.95l-.18.67c-1.5-2.45-3-4.89-4.66-7.25a3.37 3.37 0 0 0 .16-1c.05-.46.11-.92.16-1.38.12-1 .24-2.07.39-3.1a55.54 55.54 0 0 1 1.11-6c0-.1-.13-.13-.16 0-.5 2-1 4-1.42 6-.19 1-.36 2-.49 3-.07.5-.12 1-.17 1.49l-.06.46c-.51-.72-1-1.43-1.54-2.13-1.61-2.11-3.27-4.18-5-6.23-.07-.08-.2 0-.13.09a111.89 111.89 0 0 1 7.91 11.56l1.37 2.22-.45-.05c-.59-.08-1.19-.12-1.78-.17l-3.48-.31c-2.37-.19-4.75-.33-7.12-.59a.09.09 0 0 0 -.08.08.08.08 0 0 0 .08.08c2.39.27 4.78.66 7.17 1 1.17.17 2.35.32 3.52.47a13.08 13.08 0 0 0 2.72.28l2.79 4.54h-8.6c-.1 0-.08.16 0 .16 1.55 0 3.09.1 4.63.18l2.2.13 1.1.08a2.11 2.11 0 0 0 1 0l2.38 3.87c.72 1.18 1.46 2.37 2.21 3.54a29.07 29.07 0 0 0 2.39 3.59.16.16 0 0 0 .22-.09.16.16 0 0 0 -.09-.22z" fill="#263238"/><path d="m96.78 260.76a21.59 21.59 0 0 1 -.63 3c-.26 1-.56 2-.89 3a.1.1 0 0 0 0 .13.1.1 0 0 0 .13-.05q.47-1.47.84-3c.24-1 .4-2 .65-3 .12-.15-.1-.18-.1-.08z" fill="#263238"/><path d="m86.45 266.91a1.15 1.15 0 0 0 -.77-.29l-1.33-.18c-.82-.11-1.65-.2-2.48-.3-1.71-.2-3.43-.37-5.14-.59a.09.09 0 0 0 -.08.08.08.08 0 0 0 .08.08c1.62.2 3.23.44 4.84.66l2.38.3 1.14.13a4.45 4.45 0 0 1 1.31.23.07.07 0 0 0 .07-.07s0 0 0 0z" fill="#263238"/><path d="m96.78 280.73c-.81-.07-1.62-.09-2.43-.12h-1.82a3.78 3.78 0 0 1 -.75-.05c-.11 0-.12.18 0 .16a4.33 4.33 0 0 1 .72 0h.64l1.23.08c.81 0 1.63.09 2.44.1.04.01.05-.16-.03-.17z" fill="#263238"/><path d="m101.78 277.22c.09-.46.18-.93.26-1.39.17-.9.33-1.81.5-2.72 0-.1-.13-.12-.16 0-.2.88-.39 1.76-.59 2.64-.1.45-.2.89-.29 1.33 0 .2-.09.41-.13.61a1.59 1.59 0 0 0 -.07.65c0 .08.12.14.17.06a3.23 3.23 0 0 0 .31-1.18z" fill="#263238"/><path d="m54.06 297.22 1 11.15 3.31 37.63h29.48l4.15-37.63 1.23-11.15z" fill="#455a64"/><path d="m54.06 297.22 1 11.15h36.94l1.23-11.15z" fill="#263238"/><path d="m51.15 294.19h45.01v9.04h-45.01z" fill="#455a64"/></svg>