<svg width="180" height="180" viewBox="0 0 180 180" fill="none" xmlns="http://www.w3.org/2000/svg">
<path d="M61.6992 75.2684C64.6939 71.5943 77.6501 69.3037 78.5655 69.3037L107.759 66.7744C115.302 68.7296 122.713 71.1606 129.949 74.0528L128.064 104.749L123.077 136.172C130.809 145.645 137.572 157.492 139.206 165.831C115.728 181.341 92.2013 181.412 70.4172 173.443L71.607 140.921L61.6992 75.2684Z" fill="url(#paint0_linear)"/>
<path d="M64.3358 73.3228C64.3358 73.3228 54.8991 77.9277 51.5105 84.2032C49.7924 87.3889 43.9941 107.932 43.9941 107.932C43.9941 107.932 48.3485 119.48 66.5781 116.283L68.2242 111.213L64.3358 73.3228Z" fill="#FFC100"/>
<path d="M129.712 74.1577C134.143 76.9142 137.408 81.202 138.886 86.207C140.323 92.3374 141.269 98.5727 141.713 104.854L123.818 108.194L129.712 74.1577Z" fill="#FFC100"/>
<path d="M71.4696 139.931C71.4775 139.35 71.4255 138.77 71.3143 138.201C71.147 137.011 70.9321 135.397 70.6697 133.5C70.0853 129.539 69.2497 124.076 68.2839 118.051C67.3181 112.026 66.423 106.562 65.7309 102.625C65.397 100.728 65.1108 99.1646 64.896 97.9482C64.8217 97.3717 64.6897 96.8041 64.502 96.2539C64.5029 96.834 64.5549 97.4129 64.6573 97.9839C64.8246 99.1737 65.0513 100.776 65.3138 102.673C65.8862 106.634 66.7211 112.098 67.6995 118.182C68.6779 124.267 69.5723 129.671 70.2526 133.62C70.5864 135.505 70.8726 137.068 71.0875 138.285C71.1687 138.843 71.2965 139.394 71.4696 139.931V139.931Z" fill="#263238"/>
<path d="M67.1517 108.984C67.0451 109.371 67.0088 109.774 67.0446 110.173C67.0433 111.235 67.1754 112.294 67.4379 113.323C68.261 116.787 70.3247 119.83 73.2389 121.877C76.1531 123.924 79.7161 124.832 83.2544 124.43C84.3089 124.327 85.3467 124.095 86.3442 123.738C86.7206 123.633 87.0759 123.464 87.394 123.237C86.0237 123.597 84.6279 123.852 83.2187 124C79.8077 124.281 76.4056 123.362 73.6001 121.402C70.7946 119.442 68.7618 116.563 67.8529 113.263C67.501 111.859 67.2665 110.427 67.1517 108.984V108.984Z" fill="#263238"/>
<path d="M111.033 140.814C113.086 140.352 115.113 139.783 117.106 139.108C119.156 138.636 121.179 138.055 123.166 137.366C121.046 137.477 118.95 137.877 116.938 138.555C114.875 139.032 112.888 139.792 111.033 140.814V140.814Z" fill="#263238"/>
<path d="M107.096 136.912C112.31 137.368 117.564 136.879 122.605 135.468C122.605 135.289 119.133 135.888 114.862 136.28C110.591 136.671 107.096 136.781 107.096 136.912Z" fill="#263238"/>
<path d="M123.044 136.328C123.215 135.819 123.339 135.296 123.414 134.765C123.617 133.632 123.879 132.188 124.201 130.458C124.831 126.879 125.671 121.785 126.587 116.214C127.503 110.642 128.245 105.596 128.77 101.898C129.009 100.156 129.212 98.6999 129.367 97.555C129.472 97.029 129.516 96.4926 129.498 95.9565C129.329 96.4654 129.205 96.9884 129.129 97.5193L128.353 101.826C127.709 105.465 126.874 110.499 125.967 116.071C125.061 121.642 124.297 126.701 123.772 130.387C123.533 132.129 123.33 133.584 123.176 134.729C123.079 135.256 123.035 135.792 123.044 136.328Z" fill="#263238"/>
<g opacity="0.2">
<path opacity="0.2" d="M110.387 126.461C106.808 125.936 105.173 124.302 102.274 122.739C99.3756 121.176 96.0948 119.729 92.9091 120.555C90.6899 121.14 88.85 122.774 86.6336 123.371C85.1019 123.652 83.5499 123.808 81.9929 123.836C81.2128 123.856 80.4447 124.032 79.7337 124.354C79.0228 124.676 78.3834 125.136 77.8533 125.709C77.3719 126.405 77.0993 127.223 77.0676 128.069C77.0358 128.914 77.2463 129.751 77.6741 130.481C78.551 131.917 79.8947 133.008 81.4799 133.571C83.9214 134.537 86.6259 134.609 89.1152 133.774C91.0748 133.094 92.8615 131.877 94.9135 131.534C96.6484 131.329 98.4073 131.541 100.043 132.154C101.702 132.691 103.312 133.344 105.007 133.801C106.691 134.281 108.484 134.227 110.136 133.645C110.954 133.337 111.666 132.802 112.188 132.102C112.71 131.402 113.021 130.567 113.084 129.696C113.088 128.854 112.757 128.046 112.165 127.447C111.573 126.849 110.767 126.511 109.926 126.507C109.873 126.507 109.821 126.507 109.767 126.51" fill="black"/>
</g>
<path d="M99.8398 121.035C100.048 121.276 100.271 121.503 100.508 121.716C100.784 121.964 101.075 122.195 101.379 122.408C101.761 122.698 102.158 122.969 102.569 123.219C103.674 123.874 104.846 124.409 106.064 124.817C109.094 125.815 112.323 126.049 115.465 125.498C116.733 125.273 117.973 124.913 119.164 124.424C119.622 124.246 120.068 124.039 120.5 123.804C120.831 123.641 121.15 123.454 121.455 123.244C121.968 122.898 122.242 122.707 122.218 122.672C122.194 122.636 121.028 123.302 119.009 124.031C117.826 124.446 116.608 124.754 115.369 124.95C113.852 125.164 112.317 125.224 110.788 125.13C109.263 125.005 107.756 124.722 106.29 124.283C105.091 123.914 103.929 123.434 102.818 122.851C100.937 121.832 99.9231 120.937 99.8398 121.035Z" fill="#263238"/>
<path d="M44.7693 108.984C44.7693 108.984 38.9473 138.714 40.6059 152.314C41.2022 157.169 66.4708 166.964 66.4708 166.964L72.7694 156.561L58.3099 142.746L66.5779 116.297C59.6116 117.562 50.7341 113.612 44.7693 108.984Z" fill="#B78876"/>
<path d="M78.7832 178.858C86.6076 180.381 94.6521 180.381 102.476 178.858V149.26H78.7832V178.858Z" fill="#455A64"/>
<path d="M75.7876 153.734C75.1914 154.103 73.2108 155.523 71.9224 156.382C70.2281 157.516 67.6995 162.541 66.4223 165.7C66.1672 166.588 66.0228 167.505 65.9926 168.429C65.6231 171.102 66.5413 171.937 67.8416 172.677C69.1419 173.416 76.9921 175.993 77.8151 175.062C78.6381 174.132 77.8151 172.677 77.8151 172.677C77.8151 172.677 80.1294 173.225 81.1435 171.937C81.4276 171.604 81.5837 171.181 81.5837 170.744C81.5837 170.307 81.4276 169.884 81.1435 169.551C81.1435 169.551 87.5261 172.319 89.0889 171.674C90.6516 171.03 90.1505 169.479 89.3156 168.835C88.5636 168.224 87.8431 167.575 87.1566 166.89C87.431 167.141 91.4992 167.046 90.8434 165.387C90.1877 163.728 79.212 156.8 79.212 156.8C79.212 156.8 80.345 154.414 81.1331 152.111C82.2528 148.925 81.9798 148.449 80.9777 147.339C80.4647 146.766 79.1525 146.981 77.983 150.918C77.5043 152.029 76.7484 152.998 75.7876 153.734V153.734Z" fill="#B78876"/>
<path d="M73.1992 156.167C73.1226 156.089 73.0288 156.03 72.9252 155.995C72.8217 155.959 72.7113 155.949 72.603 155.964C72.3103 155.995 72.0279 156.09 71.7763 156.242C71.5246 156.395 71.3098 156.601 71.1473 156.846C70.7057 157.455 70.5272 158.29 70.0618 158.97C69.7899 159.318 69.4636 159.62 69.0953 159.864C68.6438 160.165 68.2747 160.574 68.0218 161.054C67.8244 161.464 67.717 161.911 67.7067 162.366C67.6965 162.82 67.7836 163.272 67.9623 163.69L68.1415 163.308C67.444 163.604 66.8852 164.155 66.5787 164.848C66.321 165.342 66.14 165.873 66.0419 166.422C65.8747 167.341 66.0419 167.892 66.1371 167.866C66.2323 167.84 66.1371 167.341 66.3876 166.495C66.5347 166.003 66.7388 165.531 66.9958 165.086C67.2779 164.551 67.7377 164.13 68.2961 163.897L68.6062 163.802L68.4865 163.503C68.3507 163.159 68.288 162.791 68.3023 162.421C68.3167 162.051 68.4078 161.689 68.5698 161.356C68.9274 160.486 69.9541 160.167 70.5293 159.269C71.1046 158.371 71.1732 157.611 71.5091 157.085C71.7564 156.648 72.1623 156.322 72.6429 156.175C72.9725 156.119 73.1755 156.215 73.1992 156.167Z" fill="#AA6550"/>
<path d="M71.3125 168.825C71.3125 168.992 72.9109 169.589 74.7005 170.722C76.49 171.855 77.7798 173.036 77.9099 172.905C77.1386 171.819 76.1573 170.898 75.0242 170.198C73.8911 169.497 72.629 169.03 71.3125 168.825V168.825Z" fill="#AA6550"/>
<path d="M75.1426 164.996C76.9877 166.799 79.1055 168.301 81.4181 169.445C80.5658 168.47 79.5677 167.633 78.4592 166.964C77.4652 166.136 76.3456 165.472 75.1426 164.996Z" fill="#AA6550"/>
<path d="M78.1738 161.107C79.6253 162.221 81.1521 163.233 82.7432 164.137C84.2198 165.21 85.775 166.172 87.3957 167.012C84.7265 164.458 81.5972 162.434 78.1738 161.047V161.107Z" fill="#AA6550"/>
<path d="M81.8133 169.613C82.0923 169.847 82.4064 170.036 82.7441 170.173C83.6359 170.62 84.5521 171.017 85.4882 171.362C86.1377 171.657 86.8186 171.878 87.5178 172.019C87.9411 172.133 88.3843 172.151 88.8156 172.073C89.2468 171.994 89.6552 171.821 90.0113 171.565C90.1963 171.422 90.368 171.262 90.5243 171.088C90.6412 170.967 90.7164 170.813 90.7391 170.646C90.7726 170.501 90.7726 170.35 90.7391 170.205C90.5391 169.77 90.2736 169.369 89.9518 169.015C89.3241 168.255 88.638 167.545 87.8999 166.892L87.6018 167.405C88.3668 167.715 89.2225 167.715 89.9875 167.405C90.5405 167.134 90.9669 166.659 91.1772 166.081V166.164C91.2297 166.066 91.262 165.959 91.2722 165.848C91.2824 165.737 91.2704 165.626 91.2367 165.52C91.1851 165.375 91.1128 165.238 91.0219 165.114C90.8701 164.885 90.6985 164.669 90.5089 164.47C90.1513 164.101 89.7692 163.754 89.3996 163.432C88.648 162.803 87.8845 162.243 87.1685 161.714C85.7129 160.665 84.3769 159.793 83.2557 159.066C82.1346 158.339 81.2037 157.801 80.5592 157.432C80.2382 157.222 79.8939 157.05 79.5332 156.919C79.8039 157.193 80.1099 157.43 80.443 157.623L83.0324 159.413C84.1298 160.176 85.4182 161.083 86.8501 162.142C87.5541 162.679 88.2939 163.251 89.0196 163.872C89.3773 164.194 89.7475 164.528 90.0694 164.874C90.2377 165.046 90.3895 165.234 90.5229 165.434C90.6127 165.542 90.667 165.676 90.6783 165.816V165.899C90.521 166.31 90.2201 166.649 89.8314 166.854C89.2231 167.099 88.5439 167.099 87.9356 166.854L86.6114 166.434L87.6374 167.365C88.3563 167.993 89.0301 168.671 89.6537 169.394C89.9368 169.711 90.1697 170.069 90.3445 170.456C90.3636 170.526 90.3636 170.601 90.3445 170.671L90.2744 170.79C90.1439 170.945 90.0006 171.089 89.8461 171.22C89.5479 171.434 89.207 171.581 88.8467 171.651C88.4864 171.721 88.1152 171.712 87.7585 171.626C87.0848 171.507 86.4251 171.319 85.7898 171.066C84.6001 170.636 83.6539 170.266 82.9982 170.004C82.6203 169.827 82.2225 169.695 81.8133 169.613Z" fill="#AA6550"/>
<path d="M99.8027 170.972C99.8027 171.163 100.077 171.485 100.817 171.748C101.879 172.073 103.003 172.143 104.098 171.951C105.784 171.662 107.35 170.891 108.608 169.732C110.162 168.244 111.154 166.264 111.413 164.128C111.672 161.992 111.182 159.832 110.028 158.016C109.08 156.594 107.742 155.476 106.174 154.797C105.16 154.341 104.05 154.141 102.941 154.213C102.165 154.282 101.751 154.523 101.751 154.714C101.751 155.167 103.314 155.382 105.139 156.682C106.171 157.408 107.021 158.364 107.621 159.474C108.305 160.795 108.575 162.292 108.396 163.768C108.217 165.245 107.598 166.634 106.619 167.754C105.767 168.687 104.714 169.413 103.539 169.877C101.473 170.698 99.8979 170.531 99.8027 170.972Z" fill="#455A64"/>
<path d="M59.2185 143.843C58.8577 143.389 58.3727 143.048 57.8223 142.864C56.4921 142.386 55.0341 142.408 53.7184 142.923C52.4345 143.442 51.2933 144.26 50.3899 145.309C49.6978 146.096 49.3759 146.657 49.4472 146.705C49.5186 146.753 49.9483 146.299 50.6369 145.62C51.577 144.716 52.6777 143.996 53.8821 143.496C55.0813 143.034 56.3942 142.955 57.6403 143.27C58.646 143.521 59.159 143.939 59.2185 143.843Z" fill="#AA6550"/>
<path d="M81.5859 150.847C82.5383 151.354 83.559 151.719 84.6162 151.933C87.1363 152.572 89.7388 152.825 92.3349 152.684C94.9309 152.542 97.4899 152.003 99.9226 151.086C100.944 150.748 101.915 150.274 102.809 149.678C102.739 149.463 98.3003 151.777 92.2992 152.063C86.298 152.35 81.6335 150.62 81.5859 150.847Z" fill="#263238"/>
<path d="M126.848 126.986C126.681 125.232 127.612 107.588 127.612 107.588L139.244 105.348L140.89 75.0339L154.252 75.8926C154.252 75.8926 159.68 133.444 152.749 142.702C146.295 151.351 136.774 146.364 136.774 146.364C136.774 146.364 128.172 141.112 126.848 126.986Z" fill="#B78876"/>
<path d="M141.141 76.5569C141.141 76.5569 138.576 73.2879 138.755 70.413C138.934 67.538 143.766 51.6704 143.766 51.6704C143.766 51.6704 145.985 51.8853 146.152 55.2494C146.114 57.879 145.923 60.5042 145.579 63.1115L152.737 52.2786C154.336 49.8928 156.901 46.3138 158.344 46.7428C159.788 47.1718 156.794 51.9804 155.959 54.2346C155.124 56.4888 153.811 59.6508 153.811 59.6508C153.811 59.6508 160.337 50.214 162.818 48.1502C164.619 46.635 166.218 49.1405 164.536 51.2519C164.536 51.2519 167.125 49.8802 166.827 52.1946C166.528 54.509 159.955 63.7196 160.659 64.1256C161.363 64.5315 167.137 57.2895 168.604 57.407C169.439 57.477 169.571 58.7312 168.184 60.6263C166.798 62.5215 156.254 76.7228 154.405 78.3065C153.528 79.1688 152.402 79.7322 151.186 79.9162L141.141 76.5569Z" fill="#B78876"/>
<path d="M153.788 70.4732C153.17 70.209 152.499 70.0947 151.828 70.1394C150.196 70.0893 148.571 70.3776 147.056 70.9862L147.462 71.2725V71.0695C147.497 69.4088 147.23 67.7556 146.675 66.1902C146.498 65.5248 146.185 64.9033 145.756 64.365C146.436 66.5333 146.809 68.7859 146.865 71.0576V71.7141L147.285 71.5349C149.374 70.8043 151.575 70.445 153.788 70.4732V70.4732Z" fill="#AA6550"/>
<path d="M164.702 50.8838C163.033 52.6309 161.498 54.5013 160.109 56.479C158.555 58.3473 157.255 60.4132 156.244 62.623C156.376 62.7063 158.165 60.0224 160.587 56.8367C162.13 54.9761 163.507 52.9843 164.702 50.8838V50.8838Z" fill="#AA6550"/>
<path d="M150.459 78.6452C150.459 78.4779 148.873 78.5143 147.011 78.1441C145.149 77.7739 143.694 77.1419 143.623 77.2973C144.595 78.0075 145.711 78.4962 146.892 78.7291C148.073 78.962 149.29 78.9333 150.459 78.6452Z" fill="#AA6550"/>
<path d="M138.469 138.701C138.539 138.701 138.195 137.878 137.813 136.315C137.295 134.154 137.027 131.94 137.013 129.718C136.858 124.075 138.576 116.38 139.221 107.755C139.865 99.129 140.354 91.3264 140.69 85.6836C140.846 82.9157 140.977 80.6489 141.06 78.9909C141.06 78.2512 141.13 77.6549 141.155 77.1657C141.176 76.9563 141.176 76.7453 141.155 76.5359C141.089 76.7362 141.053 76.9451 141.048 77.156C140.989 77.6458 140.928 78.2414 140.845 78.9693C140.69 80.5439 140.499 82.8345 140.285 85.65C139.844 91.2928 139.391 99.1073 138.639 107.709C137.887 116.311 136.349 124.006 136.61 129.733C136.654 131.982 136.987 134.216 137.6 136.381C137.766 136.97 137.97 137.548 138.208 138.111C138.27 138.318 138.358 138.516 138.469 138.701Z" fill="#AA6550"/>
<path d="M128.63 26.7741C129.362 25.9201 129.841 24.8788 130.013 23.7675C130.185 22.6561 130.044 21.5188 129.605 20.4834C129.165 19.4481 128.446 18.5559 127.527 17.9072C126.609 17.2585 125.527 16.8792 124.405 16.8118C124.751 15.7656 124.826 14.6483 124.621 13.5653C124.416 12.4823 123.939 11.4694 123.234 10.622C122.529 9.77463 121.62 9.12079 120.593 8.72216C119.565 8.32353 118.453 8.19326 117.361 8.34364C117.289 7.23821 116.952 6.16628 116.38 5.21765C115.808 4.26901 115.017 3.4713 114.073 2.89135C113.129 2.3114 112.06 1.96609 110.955 1.88435C109.85 1.80261 108.742 1.98682 107.723 2.42155C107.067 1.62916 106.237 0.998873 105.298 0.579787C104.358 0.160702 103.335 -0.0358702 102.307 0.00537496C101.279 0.0466201 100.275 0.324571 99.3721 0.817583C98.4693 1.31059 97.6925 2.00536 97.1022 2.84775C95.9527 3.03447 94.8581 3.47092 93.8955 4.12637C92.8348 3.94086 91.7426 4.10338 90.7819 4.58967C89.5998 5.24142 88.5195 6.06264 87.5752 7.02723C85.9719 8.5284 84.2859 10.1317 83.7197 12.2544C83.0801 14.6178 83.9234 17.3234 82.7281 19.4628C82.1457 20.2295 81.6305 21.045 81.1884 21.9003C80.5858 23.6241 81.7539 25.4773 81.6146 27.3032C81.4753 29.129 79.872 30.9081 80.0672 32.8634C80.2041 33.551 80.4813 34.203 80.8816 34.7786C81.2818 35.3542 81.7965 35.8411 82.3935 36.2087C83.5889 36.9392 84.7041 37.7935 85.7206 38.7575C86.4617 39.6008 86.9348 40.6107 87.6669 41.4911C88.7399 42.6668 90.2203 43.3901 91.8072 43.5139C93.3942 43.6378 94.9688 43.153 96.2113 42.1581C97.0613 42.8032 98.0532 43.2357 99.1043 43.4195C100.155 43.6033 101.235 43.5331 102.254 43.2148C104.286 42.5652 106.198 41.5885 107.916 40.3231C108.3 40.8422 108.808 41.257 109.394 41.5298C109.979 41.8026 110.623 41.9248 111.268 41.8852C111.913 41.8456 112.537 41.6456 113.085 41.3032C113.632 40.9609 114.086 40.487 114.404 39.9249C114.697 40.6038 115.207 41.1662 115.855 41.5236C116.502 41.8809 117.25 42.013 117.981 41.8991C119.439 41.6435 120.821 41.0604 122.022 40.1936C124.375 38.7386 127.017 36.8294 127.072 34.0588C127.072 32.363 126.146 30.6113 126.785 29.0451C127.276 28.1949 127.898 27.4283 128.63 26.7741V26.7741Z" fill="#263238"/>
<path d="M109.306 23.0388C107.379 17.1356 98.732 9.00759 92.5411 9.48069L82.6992 15.4952C83.0311 17.175 83.8082 18.7348 84.9494 20.0114C86.0905 21.288 87.5538 22.2345 89.1861 22.7519C90.9357 23.2802 93.0506 23.4097 94.0976 24.9018C95.1446 26.3938 94.57 28.6739 95.5715 30.2584C96.9614 32.4454 100.706 32.3159 101.752 34.6793C102.207 35.7172 101.984 36.9594 102.457 37.9875C103.086 39.3501 106.581 41.0738 108.017 40.6007C109.453 40.1276 109.444 37.6907 109.871 36.4016C110.454 34.9514 110.517 33.3435 110.046 31.8526C109.445 28.9609 110.223 25.8655 109.306 23.0388Z" fill="#263238"/>
<path d="M113.151 18.6277L112.391 21.8897C112.425 19.5623 111.836 17.2683 110.686 15.2447C108.211 11.5355 102.771 8.98944 98.4805 7.75631C94.1898 6.52319 88.9164 7.27412 84.7635 8.93345C81.0267 10.3415 77.8137 12.8652 75.5606 16.1622C72.4113 20.4249 71.6779 26.8474 73.6234 27.9895C75.1631 23.5686 77.5993 18.4996 81.4617 15.8493C83.3763 14.4883 85.5657 13.5631 87.8761 13.1388C90.1865 12.7146 92.5618 12.8015 94.8351 13.3936C99.8396 14.8674 103.648 19.1022 105.863 23.8213C106.943 26.2387 107.784 28.7559 108.375 31.3369C109.095 34.3681 109.073 37.5283 108.31 40.549L105.807 49.3068L105.752 52.1517C111.841 49.8996 115.603 43.5513 116.614 37.1386C117.624 30.7259 116.905 24.5127 113.151 18.6277Z" fill="#FFC100"/>
<path d="M108.027 38.0989C107.981 38.0989 108.193 37.5705 108.351 36.6068C108.553 35.2443 108.445 33.8538 108.036 32.5386C107.454 30.5859 106.204 28.8998 104.505 27.7748C103.462 27.1645 102.378 26.6267 101.262 26.1651C100.018 25.6567 98.8941 24.8938 97.9624 23.9256C97.1684 22.8562 96.5231 21.684 96.0441 20.4411C95.3627 18.9786 94.2888 17.7339 92.9421 16.8454C91.5953 15.957 90.0285 15.4595 88.4159 15.4085C87.0403 15.3786 85.6756 15.6572 84.4218 16.2238C83.4952 16.6318 83.0963 16.965 83.0781 16.9279C83.164 16.8274 83.2639 16.74 83.3749 16.6682C83.6809 16.4363 84.0066 16.2316 84.3483 16.0566C85.9227 15.2385 87.7077 14.9158 89.4688 15.1307C91.2299 15.3457 92.8848 16.0883 94.2161 17.261C95.1647 18.0861 95.9316 19.0991 96.4683 20.236C96.938 21.4356 97.5609 22.5694 98.3215 23.6093C99.2128 24.5261 100.282 25.2515 101.463 25.741C102.595 26.2187 103.691 26.7763 104.744 27.4095C106.213 28.4141 107.355 29.8276 108.029 31.4748C108.702 33.122 108.878 34.9307 108.534 36.6768C108.454 37.0532 108.343 37.4221 108.201 37.7798C108.157 37.8933 108.099 38.0006 108.027 38.0989V38.0989Z" fill="#455A64"/>
<path d="M107.091 27.117C106.872 26.7841 106.62 26.4737 106.34 26.1904C105.537 25.4836 104.618 24.9193 103.625 24.5219C103.013 24.2343 102.318 23.9292 101.613 23.5121C100.832 23.0882 100.155 22.4964 99.63 21.7793C98.5271 20.2396 98.1751 18.1653 96.711 16.7404C95.3312 15.3909 93.5473 14.5306 91.6322 14.2909C90.0777 14.112 88.5032 14.2411 86.9986 14.6709C85.5998 15.1159 84.2315 15.6515 82.9023 16.2743C83.208 16.0178 83.5442 15.7999 83.9031 15.6255C84.8558 15.0916 85.8621 14.6597 86.9055 14.3371C88.4642 13.843 90.1087 13.6788 91.7344 13.8549C93.7591 14.0756 95.6499 14.9737 97.1001 16.4037C98.6845 17.97 99.0275 20.1129 100.039 21.5196C101.051 22.9263 102.635 23.5863 103.819 24.2161C104.832 24.6478 105.749 25.2779 106.515 26.0693C106.718 26.2884 106.89 26.5348 107.025 26.8013C107.063 27.0057 107.11 27.1072 107.091 27.117Z" fill="#455A64"/>
<path d="M112.253 47.3383C112.335 47.0892 112.443 46.8499 112.577 46.6244C112.8 46.152 113.124 45.4662 113.457 44.5487C114.392 41.9458 114.851 39.1959 114.811 36.4305C114.773 34.5237 114.574 32.6234 114.217 30.7499C113.857 28.5961 113.299 26.4803 112.549 24.4295C111.707 22.1695 110.525 20.0508 109.046 18.1463C107.445 16.1162 105.515 14.3683 103.337 12.9752C99.0934 10.2652 94.0273 9.14554 89.037 9.81468C86.875 10.0952 84.772 10.7209 82.8084 11.6679C81.1006 12.5002 79.5215 13.5738 78.1194 14.8557C76.0821 16.7221 74.4401 18.9784 73.2904 21.4909C72.9013 22.4175 72.6417 23.1005 72.4842 23.5946C72.4134 23.8469 72.3267 24.0944 72.2246 24.3358C72.2548 24.0743 72.3106 23.8165 72.3912 23.5659C72.5895 22.8346 72.834 22.1165 73.1232 21.416C74.9899 17.0224 78.3611 13.4378 82.632 11.3054C84.6289 10.3192 86.773 9.66487 88.9803 9.36818C94.0763 8.65109 99.2606 9.78191 103.595 12.556C107.924 15.3157 111.217 19.4325 112.958 24.2623C113.712 26.3429 114.267 28.4903 114.616 30.6757C114.957 32.5723 115.137 34.4944 115.154 36.4214C115.171 39.2209 114.655 41.998 113.634 44.6047C113.362 45.3038 113.053 45.9876 112.707 46.6531C112.574 46.8928 112.422 47.1219 112.253 47.3383V47.3383Z" fill="#263238"/>
<path d="M73.8308 29.7428C74.2843 22.8949 79.4932 12.4154 86.6001 13.8417L93.5664 22.0173C102.993 24.2456 99.3408 32.249 108.883 32.2672L108.154 74.9935C108.117 75.85 107.918 76.6919 107.57 77.4751C105.983 80.9589 100.734 89.8232 89.3163 86.2316C86.5246 85.361 85.248 82.2942 84.6875 79.1568C84.6875 78.7873 84.5321 78.4528 84.5321 78.0952C84.2569 75.7543 84.229 73.3909 84.4488 71.0442V65.2355C84.4488 65.2712 75.7007 63.756 73.9147 52.3388C73.0315 46.6602 73.4018 37.3544 73.8308 29.7428Z" fill="#B78876"/>
<path d="M76.8735 38.011C76.8643 38.3939 77.0074 38.7647 77.2714 39.0421C77.5354 39.3195 77.8987 39.4808 78.2816 39.4905V39.4905C78.4659 39.505 78.6513 39.4831 78.8271 39.426C79.003 39.3688 79.1659 39.2776 79.3064 39.1575C79.447 39.0374 79.5625 38.8908 79.6464 38.726C79.7303 38.5612 79.7809 38.3815 79.7953 38.1972V38.1783C79.7982 37.7972 79.653 37.43 79.3903 37.154C79.1276 36.878 78.768 36.7148 78.3872 36.6988C78.0187 36.6677 77.6527 36.7838 77.3695 37.0217C77.0862 37.2596 76.9087 37.5999 76.8756 37.9683L76.8735 38.011Z" fill="#263238"/>
<path d="M91.9533 38.011C91.9469 38.3931 92.0909 38.7624 92.3543 39.0392C92.6178 39.3159 92.9795 39.4781 93.3614 39.4905C93.7302 39.522 94.0965 39.406 94.3801 39.1681C94.6636 38.9302 94.8414 38.5896 94.8745 38.221V38.1783C94.8774 37.7974 94.7322 37.4302 94.4697 37.1542C94.2071 36.8782 93.8477 36.7149 93.4671 36.6988C93.0985 36.6677 92.7326 36.7838 92.4493 37.0217C92.1661 37.2596 91.9885 37.5999 91.9554 37.9683L91.9533 38.011Z" fill="#263238"/>
<path d="M91.6192 35.1359C91.8579 35.231 92.9791 34.4318 94.7567 34.1218C96.5343 33.8117 97.9661 34.1218 98.1327 33.9307C98.2993 33.7397 97.9535 33.6564 97.3216 33.5108C96.421 33.3274 95.4928 33.3274 94.5922 33.5108C93.7107 33.6653 92.8701 33.9988 92.1224 34.4906C91.6311 34.8258 91.5003 35.1002 91.6192 35.1359Z" fill="#263238"/>
<path d="M76.1105 34.0854C76.3135 34.2526 77.6257 33.8467 79.4152 34.0854C81.2047 34.324 82.4694 35.0876 82.6723 34.9686C82.8753 34.8496 82.589 34.6585 82.0424 34.3121C81.2447 33.855 80.3649 33.5592 79.453 33.4415C78.5692 33.3055 77.6666 33.3584 76.8048 33.5969C76.2302 33.7991 76.0126 34.014 76.1105 34.0854Z" fill="#263238"/>
<path d="M85.5941 46.589C84.7608 46.3317 83.8997 46.1755 83.0292 46.1236C82.6232 46.1236 82.2418 46.0046 82.1823 45.7296C82.1471 45.3141 82.243 44.898 82.4567 44.5398C82.8269 43.5601 83.2321 42.5474 83.6464 41.4738C84.7559 38.8824 85.6537 36.2054 86.331 33.469C85.0232 35.9689 83.9104 38.566 83.0025 41.2373C82.6139 42.3104 82.2173 43.3368 81.8128 44.3166C81.5608 44.805 81.4849 45.3653 81.5979 45.9031C81.6592 46.0439 81.751 46.1693 81.8665 46.2703C81.9821 46.3714 82.1186 46.4456 82.2663 46.4875C82.4876 46.5506 82.7165 46.5827 82.9465 46.5827C83.8247 46.7052 84.7154 46.7073 85.5941 46.589V46.589Z" fill="#263238"/>
<path d="M84.4629 65.1997C89.8373 65.2944 95.1323 63.8942 99.7573 61.1553C99.7573 61.1553 95.904 69.0411 84.4748 67.9557L84.4629 65.1997Z" fill="#AA6550"/>
<path d="M86.2524 50.3842C86.5524 50.0089 86.9433 49.7165 87.388 49.5348C87.8328 49.3531 88.3167 49.2883 88.7936 49.3463C89.1406 49.3774 89.4779 49.4779 89.7853 49.6419C90.0927 49.8059 90.364 50.03 90.5831 50.3009C90.7943 50.5647 90.9191 50.8872 90.9404 51.2245C90.9616 51.5617 90.8784 51.8973 90.702 52.1856C90.4488 52.4677 90.1168 52.6674 89.7489 52.7589C89.3809 52.8503 88.9941 52.8293 88.6382 52.6986C87.8942 52.439 87.2089 52.0347 86.6219 51.5089C86.4458 51.384 86.2958 51.2259 86.1803 51.0435C86.1226 50.9569 86.0918 50.8553 86.0918 50.7513C86.0918 50.6473 86.1226 50.5456 86.1803 50.4591" fill="#AA6550"/>
<path d="M90.2251 47.6862C89.9745 47.6862 89.9626 49.3805 88.4951 50.5968C87.0275 51.8132 85.2142 51.6109 85.1904 51.7866C85.1666 51.9622 85.5963 52.1204 86.3801 52.1442C87.3821 52.1574 88.357 51.8197 89.1361 51.1896C89.8711 50.5952 90.3494 49.741 90.4721 48.8038C90.5351 48.104 90.3426 47.6778 90.2251 47.6862Z" fill="#263238"/>
<path d="M90.7467 31.1001C90.902 31.5298 92.4767 31.3268 94.3257 31.5536C96.1747 31.7803 97.6661 32.2814 97.9047 31.8993C98.0118 31.7201 97.7493 31.3149 97.1531 30.8971C96.3472 30.3901 95.4371 30.072 94.4909 29.9667C93.5447 29.8614 92.5869 29.9716 91.6894 30.2889C91.0336 30.6018 90.6879 30.9006 90.7467 31.1001Z" fill="#263238"/>
<path d="M76.4332 30.029C76.7076 30.3866 77.793 30.029 79.1052 30.029C80.4174 30.029 81.491 30.2676 81.7646 29.8981C81.8843 29.7189 81.7051 29.3613 81.2278 29.0149C80.5811 28.6036 79.8242 28.3997 79.0583 28.4305C78.292 28.4357 77.5475 28.6867 76.9343 29.1465C76.4689 29.4803 76.3136 29.8484 76.4332 30.029Z" fill="#263238"/>
<path d="M41.8807 128.936C41.2089 131.382 40.7666 133.886 40.5594 136.415C40.627 136.538 40.6086 137.029 40.5594 136.876C40.5594 137.287 39.9449 137.214 39.9449 136.808V136.021C38.4822 134.208 36.3619 133.059 34.6473 131.48C33.2638 130.244 32.2581 128.642 31.7466 126.858C30.3208 121.942 31.6544 116.761 29.9459 111.869C28.4709 107.653 25.8221 103.984 23.5851 100.192C21.219 96.1484 19.4737 91.9017 19.2831 87.1696C19.1418 83.5498 19.5781 78.7193 22.356 76.0029C25.2813 73.1206 28.9073 75.2839 31.1443 77.8466C37.6402 85.3013 40.6455 94.7165 41.8623 104.353C42.5322 109.681 43.2266 115.046 43.0914 120.424C42.971 123.294 42.5654 126.145 41.8807 128.936Z" fill="#FFC727"/>
<path d="M40.5831 138.369C40.939 133.34 40.8794 128.289 40.4049 123.269C40.4105 123.251 40.4105 123.232 40.4049 123.214C40.4909 119.133 40.8105 115.065 40.6507 110.978C40.4652 106.56 39.8769 102.168 38.8931 97.8571C38.8931 97.8079 38.8009 97.8202 38.8132 97.8571C39.6084 102.093 40.0829 106.382 40.2328 110.689C40.3189 113 40.3004 115.307 40.1775 117.609C40.1406 118.359 40.0669 119.115 40.0177 119.871C38.3197 108.411 34.1782 97.449 27.8739 87.729C27.7879 87.6 27.5543 87.729 27.6342 87.8765C32.1394 95.2635 35.475 103.303 37.5226 111.709C34.3883 105.926 29.6746 101.17 26.1716 95.6078C26.1716 95.577 26.0978 95.6078 26.1162 95.6078C29.2567 101.803 34.4559 106.67 37.793 112.779C38.3707 115.27 38.8357 117.777 39.1881 120.301C39.658 123.764 39.9104 127.254 39.944 130.749C38.0388 127.196 36.0661 123.792 34.5112 120.031C34.4682 119.932 34.3268 120.031 34.3576 120.098C35.685 124.007 37.4611 128.217 39.9563 131.548C39.9563 134.006 39.8866 136.478 39.7473 138.965C39.3601 145.554 38.2355 152.062 37.7131 158.632C37.7145 158.668 37.7288 158.703 37.7535 158.73C37.7782 158.757 37.8117 158.774 37.848 158.778C37.8842 158.783 37.9209 158.774 37.9513 158.754C37.9818 158.734 38.0041 158.703 38.0142 158.668C39.3295 151.968 40.1878 145.186 40.5831 138.369V138.369Z" fill="#263238"/>
<path d="M33.584 87.526C33.584 87.4768 33.4918 87.526 33.5103 87.5567C34.7394 90.8877 35.397 94.2616 36.2635 97.6786C36.273 97.7083 36.2928 97.7335 36.3194 97.7497C36.346 97.7659 36.3775 97.7719 36.4082 97.7667C36.4389 97.7614 36.4666 97.7453 36.4863 97.7212C36.5061 97.6971 36.5164 97.6667 36.5155 97.6356C36.159 94.1756 34.9238 90.7156 33.584 87.526Z" fill="#263238"/>
<path d="M64.1651 101.483C63.3607 103.436 62.435 105.337 61.3934 107.174C59.224 111.113 56.9624 114.721 56.5567 119.305C56.3724 121.352 56.3048 123.411 55.6841 125.384C55.1126 127.078 54.2969 128.681 53.2627 130.14C50.9089 133.563 47.9713 136.513 45.7957 140.066C43.5303 143.77 41.857 147.805 40.8361 152.025C40.7808 152.259 40.4182 152.197 40.4735 151.964V151.865C40.1294 142.032 40.916 132.125 43.9151 122.704C45.2378 118.561 46.8288 114.509 48.678 110.572C50.2882 107.162 52.2855 103.874 55.1064 101.323C56.9501 99.6762 60.9079 96.5542 63.5136 98.2074C64.7489 99.0002 64.6567 100.254 64.1651 101.483Z" fill="#FFC727"/>
<path d="M54.256 123.773C52.5233 126.626 50.6145 129.368 48.5405 131.984C47.5879 133.213 46.623 134.442 45.6766 135.702C45.228 136.316 44.724 136.876 44.3123 137.509C44.5704 136.476 44.8224 135.437 45.0866 134.405C46.3526 129.439 47.5449 124.431 49.4623 119.655C51.4008 115.031 53.6831 110.559 56.2902 106.276C56.3578 106.16 56.1734 106.08 56.1058 106.19C54.0286 109.607 51.9206 113.018 50.1752 116.638C49.2092 118.647 48.3677 120.714 47.6555 122.827C48.4554 118.343 49.5768 113.923 51.011 109.601C51.011 109.597 51.0102 109.593 51.0087 109.589C51.0072 109.586 51.0049 109.582 51.002 109.579C50.9992 109.577 50.9958 109.574 50.9921 109.573C50.9883 109.571 50.9843 109.57 50.9803 109.57C50.9763 109.57 50.9723 109.571 50.9686 109.573C50.9648 109.574 50.9614 109.577 50.9586 109.579C50.9557 109.582 50.9535 109.586 50.9519 109.589C50.9504 109.593 50.9496 109.597 50.9496 109.601C49.0867 113.96 47.9212 118.585 47.4957 123.306C47.086 124.58 46.6906 125.868 46.3096 127.172C44.7609 132.703 43.4027 138.234 42.1429 143.808C42.1196 140.142 42.4365 136.482 43.0893 132.875C43.0893 132.789 42.9848 132.77 42.9602 132.875C42.002 136.636 41.6821 140.531 42.0138 144.398C41.5344 146.524 41.0694 148.649 40.6187 150.771C39.6539 155.3 38.4677 159.916 37.9023 164.519C37.9029 164.54 37.9108 164.561 37.9247 164.577C37.9387 164.593 37.9578 164.604 37.9788 164.607C37.9999 164.611 38.0215 164.607 38.0401 164.597C38.0586 164.586 38.0729 164.569 38.0806 164.549C38.7566 162.091 39.1622 159.498 39.7153 156.984C40.2684 154.471 40.84 151.951 41.4238 149.437C42.2781 145.781 43.1753 142.13 44.0849 138.486C44.6994 137.152 45.8733 135.966 46.7521 134.841C47.7231 133.612 48.688 132.383 49.6283 131.154C51.3994 128.843 52.9818 126.393 54.3604 123.828C54.3973 123.755 54.3113 123.718 54.256 123.773Z" fill="#263238"/>
<path d="M54.7 119.57C52.5369 122.331 50.6629 125.306 49.1074 128.45C49.1074 128.493 49.1504 128.536 49.175 128.493C51.0617 125.543 52.9116 122.575 54.786 119.625C54.8229 119.57 54.7368 119.52 54.7 119.57Z" fill="#263238"/>
<path d="M12.8481 110.806C14.1202 113 15.5767 115.636 15.0298 118.267C14.6795 119.938 13.4626 121.29 13.2414 122.993C12.7497 126.748 16.4924 129.231 19.1965 130.982C25.9568 135.407 35.206 139.359 36.4351 148.405C36.4843 148.725 37.0497 148.645 36.9944 148.331C36.9975 148.311 36.9975 148.29 36.9944 148.27C36.9944 148.27 37.0312 148.27 37.0312 148.215C37.9117 143.649 37.8636 138.952 36.8899 134.405C35.882 129.747 33.8478 125.556 31.4448 121.463C27.3826 114.53 23.0806 107.432 16.9349 102.122C15.2387 100.653 11.7541 98.0107 10.4021 101.329C9.08692 104.568 11.2871 108.133 12.8481 110.806Z" fill="#FFC727"/>
<path d="M19.023 125.5C23.5032 130.349 30.6199 133.066 34.4732 138.492C32.3208 130.231 28.2532 122.593 22.5998 116.196C22.4523 116.024 22.6858 115.79 22.8456 115.944C26.9667 119.948 30.2635 124.721 32.5496 129.993C31.4821 126.313 30.0834 122.738 28.3706 119.312C28.3091 119.183 28.4935 119.066 28.5672 119.195C30.6905 122.936 32.2108 126.989 33.072 131.204C38.1483 143.495 38.6031 157.913 37.5522 170.861C37.5522 171.046 37.2572 171.052 37.2633 170.861C37.5522 160.654 37.3862 150.267 34.9403 140.299C34.8911 140.09 34.8358 139.887 34.7805 139.685C30.5891 133.84 23.5032 131.13 18.9493 125.586C18.9062 125.525 18.9738 125.445 19.023 125.5Z" fill="#263238"/>
<path d="M17.9985 121.34C20.3461 123.497 22.6569 125.697 25.0107 127.854C25.0107 127.854 25.0107 127.915 24.9799 127.897C22.3165 126.108 19.9168 123.954 17.851 121.499C17.8308 121.48 17.8191 121.453 17.8184 121.424C17.8177 121.396 17.828 121.369 17.8472 121.348C17.8664 121.327 17.8929 121.315 17.9211 121.313C17.9494 121.312 17.9771 121.321 17.9985 121.34V121.34Z" fill="#263238"/>
<path d="M17.6164 111.998C19.6947 115.407 22.046 118.642 24.6471 121.671C24.6839 121.708 24.6471 121.763 24.5856 121.727C21.6694 118.953 19.2682 115.684 17.4935 112.072C17.4878 112.053 17.4896 112.033 17.4987 112.016C17.5078 111.998 17.5234 111.985 17.5421 111.98C17.555 111.975 17.5687 111.975 17.5819 111.978C17.595 111.981 17.607 111.988 17.6164 111.998V111.998Z" fill="#263238"/>
<path d="M28.1934 180H48.7752L46.0035 152.308H31.3645L28.1934 180Z" fill="#455A64"/>
<path d="M30.8477 156.812H46.4576L46.0029 152.308H31.3639L30.8477 156.812Z" fill="#263238"/>
<path d="M48.135 149.241H28.8438V153.659H48.135V149.241Z" fill="#455A64"/>
<defs>
<linearGradient id="paint0_linear" x1="100.453" y1="66.7744" x2="100.453" y2="178.681" gradientUnits="userSpaceOnUse">
<stop offset="0.458333" stop-color="#FFC100"/>
<stop offset="1" stop-color="#FFC100" stop-opacity="0"/>
</linearGradient>
</defs>
</svg>
