<svg viewBox="0 0 212.63 234.76" xmlns="http://www.w3.org/2000/svg"><path d="m85.35 27.08a6.12 6.12 0 0 1 4.28-10.08 6.57 6.57 0 0 1 7.12-8.57 7 7 0 0 1 9.75-6 6.76 6.76 0 0 1 9.5-.87 6.36 6.36 0 0 1 1.22 1.32 8.09 8.09 0 0 1 3.24 1.29 5.11 5.11 0 0 1 3.15.47 14 14 0 0 1 3.25 2.47c1.62 1.52 3.33 3.14 3.9 5.28.64 2.39-.21 5.13 1 7.3a16.15 16.15 0 0 1 1.55 2.46c.61 1.75-.57 3.62-.43 5.47s1.76 3.64 1.57 5.62a5.16 5.16 0 0 1 -2.36 3.39 20.35 20.35 0 0 0 -3.36 2.57c-.75.86-1.23 1.88-2 2.77a6.33 6.33 0 0 1 -8.64.67 6.73 6.73 0 0 1 -6.09 1.07 19.52 19.52 0 0 1 -5.73-2.92 3.91 3.91 0 0 1 -6.56-.4 3.39 3.39 0 0 1 -3.62 2 9.85 9.85 0 0 1 -4.09-1.73c-2.38-1.47-5-3.4-5.11-6.2 0-1.72.94-3.49.29-5.07a9.22 9.22 0 0 0 -1.83-2.31z" fill="#263238"/><path d="m106.19 38.54s-.19-.54-.32-1.54a9.13 9.13 0 0 1 .32-4.12 8.71 8.71 0 0 1 3.57-4.81 26.41 26.41 0 0 1 3.24-1.61 9.72 9.72 0 0 0 3.33-2.27 14.4 14.4 0 0 0 1.94-3.52 8.81 8.81 0 0 1 7.73-5.09 9.37 9.37 0 0 1 4 .82c.94.41 1.34.75 1.36.71a1.87 1.87 0 0 0 -.3-.26 7.16 7.16 0 0 0 -1-.62 8.91 8.91 0 0 0 -10 1.22 9.34 9.34 0 0 0 -2.28 3 14.69 14.69 0 0 1 -1.78 3.42 9.49 9.49 0 0 1 -3.17 2.13 26.57 26.57 0 0 0 -3.32 1.69 9.19 9.19 0 0 0 -3.83 9.37 6.29 6.29 0 0 0 .34 1.12 1.48 1.48 0 0 0 .17.36z" fill="#455a64"/><path d="m107.14 27.43a6.25 6.25 0 0 1 .76-.94 9.46 9.46 0 0 1 2.75-1.68c.61-.3 1.32-.6 2-1a6 6 0 0 0 2-1.75c1.11-1.56 1.47-3.66 3-5.1a8.92 8.92 0 0 1 5.14-2.47 11.93 11.93 0 0 1 4.68.38 34.29 34.29 0 0 1 4.15 1.62 4.53 4.53 0 0 0 -1-.65 15.29 15.29 0 0 0 -3-1.3 11.91 11.91 0 0 0 -4.89-.49 9.11 9.11 0 0 0 -5.43 2.58c-1.6 1.58-1.95 3.75-3 5.17a10 10 0 0 1 -3.82 2.73 8.3 8.3 0 0 0 -2.73 1.87 3.67 3.67 0 0 0 -.52.74c-.06.18-.11.28-.09.29z" fill="#455a64"/><path d="m136.13 82.38c0 .39-6.27-4.82-6.27-4.82v-8.15s9.54-1.65 11.43-14.12c.94-6.2.56-16.35 0-24.65-.52-7.47-5.53-16.61-13-15.77 0 0-14.2-1.73-17.67 6.86s-7.78 14.27-7.69 16.52l.65 37.26-5.41 2.69 6.59 12.67 17.28 3 14.76 1.19-.86-7.81.19-4.91z" fill="#be8671"/><path d="m104.9 23.3c1.95-6 10.7-14.19 17-13.71l10 6.08a9.64 9.64 0 0 1 -6.65 7.33c-1.77.54-3.91.67-5 2.18s-.48 3.81-1.49 5.42c-1.4 2.21-5.19 2.08-6.25 4.47-.46 1.05-.23 2.3-.71 3.35-.64 1.37-4.18 3.12-5.63 2.64s-1.44-2.94-1.87-4.25a6.8 6.8 0 0 1 -.18-4.6c.64-2.92-.12-6.05.78-8.91z" fill="#263238"/><path d="m137.55 38.31a1.6 1.6 0 0 1 -1.55 1.62 1.52 1.52 0 0 1 -1.65-1.4 1.58 1.58 0 0 1 1.53-1.62 1.5 1.5 0 0 1 1.64 1.35.15.15 0 0 0 .03.05z" fill="#263238"/><path d="m139.11 35.93c-.2.21-1.42-.68-3.14-.67s-3 .89-3.16.68.11-.47.66-.87a4.38 4.38 0 0 1 5 0c.53.39.73.76.64.86z" fill="#263238"/><path d="m122.12 39.21c-.2.21-1.42-.68-3.13-.66s-3 .88-3.16.67.1-.47.65-.87a4.39 4.39 0 0 1 2.53-.8 4.28 4.28 0 0 1 2.49.79c.5.4.72.77.62.87z" fill="#263238"/><path d="m128.54 49.07a11.39 11.39 0 0 1 2.78-.53c.44 0 .86-.13.93-.43a2.29 2.29 0 0 0 -.3-1.3l-1.27-3.34c-1.84-4.74-3.17-8.65-3-8.72s1.84 3.72 3.67 8.46c.44 1.17.87 2.29 1.27 3.36a2.57 2.57 0 0 1 .24 1.72 1.09 1.09 0 0 1 -.72.65 2.64 2.64 0 0 1 -.74.1 10.54 10.54 0 0 1 -2.86.03z" fill="#263238"/><path d="m129.86 69.38a31.6 31.6 0 0 1 -16.71-4.33s4.25 8.65 16.71 7.4z" fill="#a24c2c"/><path d="m128.74 52.94a4.41 4.41 0 0 0 -3.57-1.89 2.63 2.63 0 0 0 -2.67 2.59 2.6 2.6 0 0 0 .46 1.53 2.69 2.69 0 0 0 2.85 1 6.26 6.26 0 0 0 2.56-1.61 1.83 1.83 0 0 0 .54-.66.93.93 0 0 0 -.08-.9" fill="#a24c2c"/><path d="m123.49 50.29c.27 0 .29 1.85 1.9 3.16s3.59 1.1 3.6 1.36c0 .11-.44.36-1.28.39a4.59 4.59 0 0 1 -3-1 4 4 0 0 1 -1.47-2.66c-.09-.8.12-1.26.25-1.25z" fill="#263238"/><path d="m123 34.38c-.16.47-1.88.26-3.9.52s-3.64.81-3.91.4c-.12-.2.16-.64.82-1.1a6.62 6.62 0 0 1 2.89-1 6.77 6.77 0 0 1 3.06.34c.72.24 1.04.61 1.04.84z" fill="#263238"/><path d="m138.44 31c-.3.4-1.49 0-2.91 0s-2.63.28-2.91-.13c-.12-.19.07-.59.59-1a4.25 4.25 0 0 1 4.69.11c.5.4.67.78.54 1.02z" fill="#263238"/><path d="m104.55 40.53c-.17-.08-6.94-2.23-6.87 4.72s7 5.46 7 5.26-.13-9.98-.13-9.98z" fill="#be8671"/><path d="m102.57 47.9a2.68 2.68 0 0 1 -.33.18 1.17 1.17 0 0 1 -.9 0 3 3 0 0 1 -1.41-2.67 3.88 3.88 0 0 1 .32-1.74 1.41 1.41 0 0 1 .9-.94.62.62 0 0 1 .72.33c.1.19 0 .33.09.34s.15-.12.09-.4a.8.8 0 0 0 -.28-.44 1 1 0 0 0 -.67-.17 1.71 1.71 0 0 0 -1.25 1.09 4.09 4.09 0 0 0 -.41 1.94 3.16 3.16 0 0 0 1.8 3 1.28 1.28 0 0 0 1.1-.19c.22-.17.25-.32.23-.33z" fill="#a24c2c"/><path d="m101 18.84.77 3.3a13.2 13.2 0 0 1 1.72-6.72c2.5-3.75 8-6.33 12.35-7.57s9.67-.49 13.87 1.19a19.69 19.69 0 0 1 9.29 7.31c3.19 4.31 3.93 10.81 2 12-1.55-4.47-4-9.6-7.93-12.28a16.23 16.23 0 0 0 -13.53-2.48c-5.06 1.49-8.91 5.77-11.15 10.54a41.62 41.62 0 0 0 -2.54 7.6c-.73 3.07-3.11 6.82-2.34 9.88v7.39l-.5 4c-6.15-2.28-6.9-8.67-7.91-15.16s2.11-13.04 5.9-19z" fill="#ffc100"/><path d="m127.29 38.38a19.35 19.35 0 0 0 -.32-2 8.28 8.28 0 0 0 -3-4.46 8.15 8.15 0 0 0 -9.73 0 7.5 7.5 0 0 0 -1.7 1.72 8 8 0 0 0 0 9.56 7.5 7.5 0 0 0 1.7 1.72 7.28 7.28 0 0 0 2.05 1.08 8.16 8.16 0 0 0 10.46-4.91c.08-.23.15-.46.22-.7a18.93 18.93 0 0 0 .32-2 4.68 4.68 0 0 1 0 .53 4.48 4.48 0 0 1 -.05.64 6.19 6.19 0 0 1 -.15.86 8.35 8.35 0 0 1 -6.51 6.2 8.34 8.34 0 0 1 -4.4-.35 7.81 7.81 0 0 1 -2.13-1.14 7.48 7.48 0 0 1 -1.77-1.78 8.34 8.34 0 1 1 13.41-9.93 8.15 8.15 0 0 1 1.11 2.05 8.57 8.57 0 0 1 .28.9 6.33 6.33 0 0 1 .15.87 4.46 4.46 0 0 1 0 .63c.06.13.06.34.06.51z" fill="#455a64"/><path d="m146.91 38.38a19.35 19.35 0 0 0 -.32-2 8.37 8.37 0 0 0 -3-4.46 8.1 8.1 0 0 0 -11.43 11.24 7.54 7.54 0 0 0 1.71 1.72 7.28 7.28 0 0 0 2 1.11 8.08 8.08 0 0 0 7.67-1.15 8.21 8.21 0 0 0 3-4.46 18.93 18.93 0 0 0 .32-2 4.68 4.68 0 0 1 0 .53 4.48 4.48 0 0 1 0 .64 6.19 6.19 0 0 1 -.15.86 8.3 8.3 0 0 1 -10.9 5.85 7.67 7.67 0 0 1 -2.13-1.14 7.52 7.52 0 0 1 -1.78-1.78 8.34 8.34 0 0 1 13.33-10 8.42 8.42 0 0 1 1.45 3.07 6.6 6.6 0 0 1 .15.87 4.46 4.46 0 0 1 0 .63 4.32 4.32 0 0 1 .08.47z" fill="#455a64"/><path d="m101.92 47.88a3.34 3.34 0 0 0 -.33-.72c-.22-.48-.55-1.17-.89-2.1a23.18 23.18 0 0 1 -1.37-8.21 34.73 34.73 0 0 1 .6-5.75 35.62 35.62 0 0 1 1.69-6.39 23.85 23.85 0 0 1 3.54-6.35 23.28 23.28 0 0 1 5.78-5.24 21.58 21.58 0 0 1 14.46-3.2 20.74 20.74 0 0 1 6.3 1.88 20.13 20.13 0 0 1 4.74 3.2 21.1 21.1 0 0 1 4.89 6.72c.39.93.65 1.63.81 2.12a6 6 0 0 0 .26.75 3.42 3.42 0 0 0 -.17-.77 17 17 0 0 0 -.74-2.18 20.29 20.29 0 0 0 -9.61-10.23 20.92 20.92 0 0 0 -6.43-1.95 21.74 21.74 0 0 0 -14.78 3.22 23.49 23.49 0 0 0 -9.47 11.84 35.55 35.55 0 0 0 -1.67 6.48 34.32 34.32 0 0 0 -.53 5.84 22.36 22.36 0 0 0 1.54 8.28 20.23 20.23 0 0 0 .94 2.07 4.6 4.6 0 0 0 .44.69z" fill="#263238"/><path d="m130.78 36.47c0 .08-.83-.24-1.86-.27s-1.85.23-1.88.14a3.65 3.65 0 0 1 3.74.13z" fill="#455a64"/><path d="m110.75 39.22a13.58 13.58 0 0 1 -3.48.88 13.54 13.54 0 0 1 -3.59.28c0-.1 1.58-.25 3.52-.57s3.48-.68 3.55-.59z" fill="#455a64"/><path d="m126.42 37.11a4.73 4.73 0 0 1 -.08 1.55 9.92 9.92 0 0 1 -1.37 3.5 8.45 8.45 0 0 1 -2.62 2.7 1.84 1.84 0 0 1 -1.52.33 3.61 3.61 0 0 0 1.4-.52 9.3 9.3 0 0 0 2.47-2.67 11.28 11.28 0 0 0 1.42-3.37c.21-.94.25-1.53.3-1.52z" fill="#fff"/><path d="m144.36 42.38a10 10 0 0 1 .67-1.3 6 6 0 0 0 .54-1.45 4.9 4.9 0 0 0 0-1.87 10.2 10.2 0 0 0 -1-3.32c-.42-.78-.85-1.15-.8-1.2a1.49 1.49 0 0 1 .32.24 5.45 5.45 0 0 1 .67.85 9 9 0 0 1 1.11 3.38 5.17 5.17 0 0 1 -.06 2 6.38 6.38 0 0 1 -.64 1.49 5.37 5.37 0 0 1 -.81 1.18z" fill="#fff"/><path d="m34.81 68.75s31.68-.49 41.28 4.69c0 0 3.92-2.15 6.06-1.26s1.9 1.26 1.9 1.26-2-4.08 2.14-2.61 4.3 2.61 4.3 2.61l13-.3.16 2.78-9.09 10-5.56 20-20.12 82.08-9.27 41.73a72.52 72.52 0 0 1 -10.83-29.43c-2.54-17.79 10.31-94.42 10.31-94.42s-49.66-20.56-51.82-29c-1.59-6.05 27.54-8.13 27.54-8.13z" fill="#ffc727"/><path d="m129.86 77.55s9.06 1.71 12 3.88 9.82 8.95 9.82 8.95 4.87-.38 4.63 4.54c0 0 16.06 7.48 17.1 10.1s27.69 45 27.41 47.32-5.72 19.66-13.08 17.36-26.49-23-26.49-23 8.31 81.39-2.52 88.06l-13.87-17.27-2.54-60z" fill="#ffc727"/><path d="m129.86 77.55c2.24 10.48-6.32 14.75-15.6 12.72s-10.7-15.33-10.7-15.33l-10.88 3.81-9.79 22.25-14 87 75.3 18.73-4.51-123.4z" fill="#f5f5f5"/><path d="m50.88 71.13s-15.24-8.3-19.81-8.91c-7.77-1-23.4-2.37-26.6 5.5s11.72 19.71 31.47 20.28a18.65 18.65 0 0 1 8.88 2.28z" fill="#ffc727"/><g fill="#263238"><path d="m81.27 86.12a50.87 50.87 0 0 0 -1.87-6.62 52.09 52.09 0 0 0 -3.26-6.07 6.62 6.62 0 0 1 1.35 1.57 21.76 21.76 0 0 1 2.39 4.33 21 21 0 0 1 1.3 4.77 6.43 6.43 0 0 1 .09 2.02z"/><path d="m83.12 85.91a34.66 34.66 0 0 0 1.21-6.64 33.82 33.82 0 0 0 -.68-6.72 5.91 5.91 0 0 1 .7 1.89 17.28 17.28 0 0 1 -.35 9.64 6 6 0 0 1 -.88 1.83z"/><path d="m84.5 95.53a3.67 3.67 0 0 1 .33-1c.24-.6.6-1.46 1.06-2.52.92-2.12 2.22-5 3.69-8.24s2.72-6.17 4.21-8a8.9 8.9 0 0 1 2-1.92 3 3 0 0 1 .89-.47 14 14 0 0 0 -2.59 2.62c-1.37 1.83-2.54 4.81-4 8s-2.82 6.09-3.82 8.17c-.51 1-.92 1.88-1.22 2.45a3.81 3.81 0 0 1 -.55.91z"/><path d="m32 62.43a3.66 3.66 0 0 1 .43.15l1.21.51c1.06.46 2.59 1.15 4.5 2.1a126 126 0 0 1 15.05 8.81l.17.12-.09.18-8.21 16-.12.23-.23-.11-.56-.26c-1.36-.6-2.63-1.31-4-1.8a9.15 9.15 0 0 0 -4.06-.7 54.35 54.35 0 0 1 -8.07 0 26.63 26.63 0 0 1 -7.06-2 43.21 43.21 0 0 1 -5.75-2.66 31.78 31.78 0 0 1 -7.32-5.57 19.64 19.64 0 0 1 -1.65-1.88 5.11 5.11 0 0 1 -.51-.71 6 6 0 0 1 .59.64c.37.43.94 1.05 1.72 1.81a33.28 33.28 0 0 0 7.35 5.39 42.52 42.52 0 0 0 5.73 2.65 26.52 26.52 0 0 0 7 1.89 57.75 57.75 0 0 0 8-.07c3-.26 5.65 1.35 8.28 2.54l.55.26-.34.12 8.26-16 .08.3a137.18 137.18 0 0 0 -15-9c-1.89-1-3.4-1.71-4.43-2.21l-1.18-.58a1.33 1.33 0 0 1 -.34-.15z"/><path d="m140.28 99.78a15.2 15.2 0 0 1 -.25-3.16c-.06-2 0-4.67-.13-7.64-.06-1.49-.16-2.9-.32-4.17a10.53 10.53 0 0 0 -.8-3.26 4.68 4.68 0 0 0 -1.42-1.7c-.44-.31-.73-.4-.72-.44a1.65 1.65 0 0 1 .83.26 4.39 4.39 0 0 1 1.63 1.71 9.89 9.89 0 0 1 1 3.36c.18 1.29.3 2.72.36 4.22.1 3 0 5.7 0 7.66a27.63 27.63 0 0 1 -.18 3.16z"/><path d="m156.68 95.38a111.84 111.84 0 0 1 -13.52-7.38 116.29 116.29 0 0 1 13.52 7.38z"/><path d="m46.94 70.71a27.75 27.75 0 0 0 -2.62 1.29 12.4 12.4 0 0 0 -4.46 5.24 18.24 18.24 0 0 0 -1.48 6.82c-.06 1.81.06 2.93 0 2.94a2.27 2.27 0 0 1 -.17-.78 17.23 17.23 0 0 1 1.21-9.22 11.94 11.94 0 0 1 4.74-5.35 9.55 9.55 0 0 1 2-.85 2.28 2.28 0 0 1 .78-.09z"/><path d="m43.28 83.7a4.94 4.94 0 0 1 -2.68-.45 5 5 0 0 1 -2.35-1.37 12.64 12.64 0 0 1 2.53.88 14 14 0 0 1 2.5.94z"/><path d="m44 80.38a6.16 6.16 0 0 1 -2.62-.8 6.36 6.36 0 0 1 -2.38-1.42 20.35 20.35 0 0 1 5 2.22z"/><path d="m45.52 77.32a6.25 6.25 0 0 1 -2.34-1 6.22 6.22 0 0 1 -2.09-1.46 6.32 6.32 0 0 1 2.34 1c1.25.68 2.16 1.33 2.09 1.46z"/><path d="m48.24 75.19c-.12.09-.87-.88-2.05-1.76s-2.31-1.34-2.27-1.43a5.62 5.62 0 0 1 4.32 3.24z"/><path d="m132 79.66s-.15.65-.37 1.83-.4 2.91-.92 5a9.91 9.91 0 0 1 -1.47 3.26 8.28 8.28 0 0 1 -3.18 2.6 17 17 0 0 1 -17.75-2.1 16.88 16.88 0 0 1 -4.66-6 15.68 15.68 0 0 1 -1.42-4.93 8.05 8.05 0 0 1 -.09-1.39 1.29 1.29 0 0 1 0-.48s.07.66.27 1.85a17.11 17.11 0 0 0 1.59 4.79 16.94 16.94 0 0 0 4.63 5.79 16.77 16.77 0 0 0 17.24 2 8.18 8.18 0 0 0 3-2.42 9.64 9.64 0 0 0 1.46-3.11c.56-2.06.78-3.81 1.08-5a10.76 10.76 0 0 1 .39-1.34 1.56 1.56 0 0 1 .2-.35z"/></g><path d="m21.19 90.18 174.7 14.11a13 13 0 0 1 11.91 14l-8.07 99.88a13 13 0 0 1 -14 11.91l-174.73-14.08a12 12 0 0 1 -11-13l8.27-101.83a12 12 0 0 1 12.93-11z" fill="#ffc100"/><path d="m3.22 164 204.78-48-1.26 15.54-205.23 53.64z" opacity=".2"/><path d="m118.16 98 17.69 50 17.27 79.42 18.51 1.5-29.77-92.77-7.11-36.85z" opacity=".2"/><path d="m30.22 196.68 2.41.2-.37 4.62a7.85 7.85 0 0 1 -4.73 1.07 5.9 5.9 0 0 1 -5.76-6.06c0-.11 0-.22 0-.33.26-3.39 3.11-5.68 6.74-5.39a6.15 6.15 0 0 1 4.61 2.36l-1.82 1.42a3.89 3.89 0 0 0 -2.84-1.52 3.66 3.66 0 1 0 -.93 7.27h.07.24a4.06 4.06 0 0 0 2.16-.32z" fill="#fff"/><path d="m35.52 191.56 2.63.21-.92 11.39-2.63-.16z" fill="#fff"/><path d="m43.32 194.32-.24 3 5.27.42-.17 2.12-5.27-.43-.34 4.15-2.63-.21.92-11.37 8.6.69-.17 2.12z" fill="#fff"/><path d="m53.52 195.17-3.64-.29.17-2.15 9.93.8-.17 2.15-3.65-.29-.75 9.24-2.63-.25z" fill="#fff"/><path d="m143.2 217.75c0 .14-27.44-1.88-61.25-4.52s-61.27-4.85-61.27-5 27.44 1.88 61.27 4.51 61.27 4.87 61.25 5.01z" fill="#fff"/><path d="m131 135.6c-3.51.83-7.2.18-10.63-.92s-6.71-2.63-10.17-3.63a34.82 34.82 0 0 0 -25.55 2.6 1.56 1.56 0 0 0 -1 1.94 1.22 1.22 0 0 0 .1.24l8.52 30.91a5.2 5.2 0 0 0 1.5 2.87c1.24 1 3 .64 4.56.24a72 72 0 0 0 14.37-5 29.69 29.69 0 0 0 11.52-9.74c1.31-2 2.31-4.16 3.68-6.1a10 10 0 0 1 5.55-4.21z" fill="#ffc100"/><path d="m193.19 145.92c-2.24-13.14-4.49-26.35-8.84-38.94-8.73-.18-17 4.07-23.93 9.38s-13 11.72-20 16.93l.1 9.43a12.8 12.8 0 0 1 8-.05 48.22 48.22 0 0 1 7.45 3.15 61.08 61.08 0 0 0 17.55 5.85c6.12.89 12.6.27 18.06-2.64a3 3 0 0 0 1.63-1.53 3.38 3.38 0 0 0 -.02-1.58z" fill="#ffc100"/><path d="m131 135.6c-3.51.83-7.2.18-10.63-.92s-6.71-2.63-10.17-3.63a34.82 34.82 0 0 0 -25.55 2.6 1.56 1.56 0 0 0 -1 1.94 1.22 1.22 0 0 0 .1.24l8.52 30.91a5.2 5.2 0 0 0 1.5 2.87c1.24 1 3 .64 4.56.24a72 72 0 0 0 14.37-5 29.69 29.69 0 0 0 11.52-9.74c1.31-2 2.31-4.16 3.68-6.1a10 10 0 0 1 5.55-4.21z" opacity=".3"/><path d="m131 135.6.18.57c.12.42.28 1 .5 1.74l1.9 6.82v.12h-.12a8.63 8.63 0 0 0 -4.17 2.61 24.51 24.51 0 0 0 -3.34 5 27.58 27.58 0 0 1 -4 5.74 29.32 29.32 0 0 1 -6 5c-4.6 3-10.25 4.93-16.27 6.54-1.49.36-3 1-4.76.69a3.09 3.09 0 0 1 -2.1-1.44 8.51 8.51 0 0 1 -.89-2.34c-.87-3.15-1.76-6.38-2.67-9.65-1.33-4.82-2.62-9.53-3.88-14.08-.62-2.27-1.24-4.51-1.84-6.69a2.91 2.91 0 0 1 -.14-1.82 2.57 2.57 0 0 1 1.4-1.13 27 27 0 0 1 3-1.36 35 35 0 0 1 12.09-2.38 34.45 34.45 0 0 1 10.79 1.46c3.15 1 5.86 2.18 8.31 3a29.61 29.61 0 0 0 6.42 1.68 17.27 17.27 0 0 0 4.19.09c1-.11 1.48-.23 1.46-.21a1.73 1.73 0 0 1 -.37.11 8 8 0 0 1 -1.07.2 15.77 15.77 0 0 1 -4.23 0 29.58 29.58 0 0 1 -6.5-1.61c-2.47-.84-5.19-2-8.32-3a34.83 34.83 0 0 0 -22.45 1c-1 .4-2 .84-3 1.34-.5.25-1 .49-1.17.89a2.45 2.45 0 0 0 .16 1.49q.9 3.28 1.86 6.7c1.25 4.54 2.55 9.25 3.89 14.07q1.35 4.92 2.66 9.65a7.57 7.57 0 0 0 .83 2.21 2.55 2.55 0 0 0 1.76 1.21c1.49.27 3-.3 4.53-.67 6-1.59 11.61-3.54 16.16-6.44a29.78 29.78 0 0 0 5.94-4.86 28 28 0 0 0 4-5.64 23.94 23.94 0 0 1 3.42-5 8.87 8.87 0 0 1 4.34-2.65l-.1.16c-.75-2.93-1.34-5.21-1.74-6.78l-.45-1.78a2.11 2.11 0 0 1 -.21-.56z" fill="#263238"/><path d="m193.19 145.92c-2.24-13.14-4.49-26.35-8.84-38.94-8.73-.18-17 4.07-23.93 9.38s-13 11.72-20 16.93l.1 9.43a12.8 12.8 0 0 1 8-.05 48.22 48.22 0 0 1 7.45 3.15 61.08 61.08 0 0 0 17.55 5.85c6.12.89 12.6.27 18.06-2.64a3 3 0 0 0 1.63-1.53 3.38 3.38 0 0 0 -.02-1.58z" opacity=".3"/><path d="m193.19 145.92a4 4 0 0 1 .15 1.09 1.86 1.86 0 0 1 -.54 1.24 5.17 5.17 0 0 1 -1.54 1 26.78 26.78 0 0 1 -11.5 2.9c-5.11.25-11.28-.91-17.73-3.46-1.62-.66-3.26-1.37-4.91-2.11s-3.34-1.62-5.08-2.39a22.86 22.86 0 0 0 -5.52-1.74 11.44 11.44 0 0 0 -5.89.47l-.34.13v-.36c0-3-.07-6.18-.11-9.43v-.13l.11-.08c3.3-2.46 6.54-5.31 9.81-8.25 5.36-4.83 10.64-9.56 16.44-12.89s12-5.33 17.81-5.19h.16l.05.14a193.36 193.36 0 0 1 6.87 28.14c.61 3.45 1 6.16 1.35 8 .14.91.25 1.61.32 2.12a2.34 2.34 0 0 0 .08.54v.19a1.21 1.21 0 0 0 -.05-.18l-.11-.54q-.15-.75-.39-2.1c-.34-1.88-.84-4.57-1.47-8a202.27 202.27 0 0 0 -7-28.06l.2.15c-5.72-.12-11.86 1.83-17.55 5.17s-11 8-16.34 12.85c-3.28 2.94-6.53 5.8-9.86 8.27l.11-.21c0 3.25.06 6.43.09 9.43l-.34-.23a12.08 12.08 0 0 1 6.14-.48 22.87 22.87 0 0 1 5.64 1.79c1.76.78 3.42 1.65 5.08 2.41s3.27 1.48 4.88 2.12a43.58 43.58 0 0 0 17.56 3.54 27.06 27.06 0 0 0 11.44-2.73 5.27 5.27 0 0 0 1.52-1 1.83 1.83 0 0 0 .54-1.15c-.02-.31-.04-.64-.08-.98z" fill="#263238"/><path d="m134.82 146.69s-2.39.39-4.3 7.09-5.77 37.79-5.77 37.79l29.73 8-12.8-51.89z" fill="#ffc100"/><path d="m143.77 146.6 17.49 33.62 15.42-19.78s-19.56-17.21-32-16.9z" fill="#ffc100"/><path d="m134.82 146.69s-2.39.39-4.3 7.09-5.77 37.79-5.77 37.79l29.73 8-12.8-51.89z" opacity=".3"/><path d="m143.77 146.6 17.49 33.62 15.42-19.78s-19.56-17.21-32-16.9z" opacity=".3"/><path d="m134.82 146.69h.44l1.31.15 5.14.65h.08v.08c2.39 9.38 7.22 28.77 12.92 51.85l.1.42-.42-.11-8.29-2.22-21.42-5.71h-.21v-.21c1.74-13.53 3.37-25.12 4.9-33.27a27.33 27.33 0 0 1 2.94-9.22 7 7 0 0 1 1.67-2 3.08 3.08 0 0 1 .59-.33c.14-.05.22-.06.22-.05l-.21.09a2.54 2.54 0 0 0 -.54.36 7.13 7.13 0 0 0 -1.59 2 28.13 28.13 0 0 0 -2.77 9.21c-1.44 8.15-3 19.74-4.71 33.27l-.18-.27 21.44 5.72 8.29 2.22-.31.31c-5.68-23.08-10.4-42.5-12.64-51.92l.09.08-5.11-.75-1.31-.21z" fill="#263238"/><path d="m143.77 146.6v-.19l.15-.59.66-2.3v-.06h.1c3-.17 8 1.07 13.58 4a102.59 102.59 0 0 1 18.6 12.8l.18.16-.15.19-7.07 9.06-8.36 10.71-.25.31-.18-.35-12.46-24.17-3.57-7-.94-1.88a3.23 3.23 0 0 1 -.29-.66s.14.22.38.65l1 1.86c.88 1.67 2.14 4 3.71 7l12.6 24h-.46l8.39-10.76 7.08-9v.34a106.19 106.19 0 0 0 -18.44-12.84c-5.57-3-10.43-4.25-13.39-4.16l.08-.06-.74 2.25c-.08.23-.14.43-.2.58s.01.06-.01.11z" fill="#263238"/><path d="m131.45 142.6c0 .07-1.35.34-3.53.85s-5.17 1.29-8.41 2.36a83.56 83.56 0 0 0 -8.13 3.19 34.75 34.75 0 0 1 -3.31 1.47 3.47 3.47 0 0 1 .81-.54c.54-.33 1.34-.76 2.34-1.27a64 64 0 0 1 8.13-3.34 65 65 0 0 1 8.49-2.23c1.11-.21 2-.36 2.63-.43a3.22 3.22 0 0 1 .98-.06z" fill="#263238"/><path d="m130.38 139.38a29.26 29.26 0 0 1 -3.37.11 72.51 72.51 0 0 0 -8.08.63c-3.13.44-5.94 1-8 1.51a25.06 25.06 0 0 1 -3.3.67 3.42 3.42 0 0 1 .84-.33c.56-.19 1.37-.43 2.37-.7a65.63 65.63 0 0 1 8-1.66 52.78 52.78 0 0 1 8.15-.49c1 0 1.89.07 2.47.12a3.21 3.21 0 0 1 .92.14z" fill="#263238"/><path d="m172.23 128.28c0 .09-1.59.08-4.16.3a49.65 49.65 0 0 0 -9.84 1.84 47.06 47.06 0 0 0 -9.21 3.92c-2.23 1.27-3.53 2.2-3.59 2.12a5 5 0 0 1 .87-.72 25.63 25.63 0 0 1 2.54-1.71 39.85 39.85 0 0 1 9.24-4.11 43.44 43.44 0 0 1 10-1.71 26 26 0 0 1 3.06 0 5.71 5.71 0 0 1 1.09.07z" fill="#263238"/><path d="m170.68 137.26a4.06 4.06 0 0 1 -.92.33c-.59.19-1.46.42-2.55.67a57.15 57.15 0 0 1 -8.62 1.31 55.19 55.19 0 0 1 -8.72 0c-1.11-.1-2-.2-2.63-.3a3.34 3.34 0 0 1 -1-.19q1.8 0 3.6.12a73.66 73.66 0 0 0 8.66-.15 80.32 80.32 0 0 0 8.58-1.15c1.22-.27 2.4-.48 3.6-.64z" fill="#263238"/><path d="m146.68 140.38a17.81 17.81 0 0 0 -1.94-5.13c-.75-1.41-1-2.81-3-3.56a6 6 0 0 0 -5.26 1c-1.3-1.21-3.46-.52-4.86.57a5.69 5.69 0 0 0 -2 4.75 11.14 11.14 0 0 0 1.68 5 12.9 12.9 0 0 0 5.44 5.41 6.9 6.9 0 0 0 6.66-.38 7.28 7.28 0 0 0 3.28-7.66z" fill="#ffc100"/><path d="m146.68 140.38a17.81 17.81 0 0 0 -1.94-5.13c-.75-1.41-1-2.81-3-3.56a6 6 0 0 0 -5.26 1c-1.3-1.21-3.46-.52-4.86.57a5.69 5.69 0 0 0 -2 4.75 11.14 11.14 0 0 0 1.68 5 12.9 12.9 0 0 0 5.44 5.41 6.9 6.9 0 0 0 6.66-.38 7.28 7.28 0 0 0 3.28-7.66z" opacity=".3"/><path d="m146.68 140.38a2.7 2.7 0 0 1 .14.56 8.79 8.79 0 0 1 .07 1.62 7.23 7.23 0 0 1 -6.59 6.76 7.37 7.37 0 0 1 -4.61-1.2 12.75 12.75 0 0 1 -3.76-3.7 14.18 14.18 0 0 1 -2.37-5.14 5.84 5.84 0 0 1 4.3-7.4 3 3 0 0 1 2.8.61h-.33a5.49 5.49 0 0 1 3.25-1.26 4.8 4.8 0 0 1 3.07.63 4.73 4.73 0 0 1 1.72 2.18c.33.77.7 1.43 1 2.08a16.84 16.84 0 0 1 1.12 3.07 8.52 8.52 0 0 1 .17.85v.29s-.11-.39-.33-1.1a20.55 20.55 0 0 0 -1.23-3c-.31-.61-.71-1.3-1.06-2.06a4.32 4.32 0 0 0 -1.61-2 4.44 4.44 0 0 0 -2.83-.53 5.22 5.22 0 0 0 -3 1.16l-.16.16-.16-.15a2.6 2.6 0 0 0 -2.37-.48 5.72 5.72 0 0 0 -2.43 1.29 5.9 5.9 0 0 0 -1.47 5.49 13.71 13.71 0 0 0 2.28 4.95 12.49 12.49 0 0 0 3.59 3.58 6.92 6.92 0 0 0 4.33 1.18 6.75 6.75 0 0 0 3.67-1.4 7.07 7.07 0 0 0 2.75-4.94 18.35 18.35 0 0 0 .05-2.1z" fill="#263238"/><path d="m135.19 147.51c-.07-.06.5-.75 1.17-2a13.59 13.59 0 0 0 1-10.65c-.43-1.35-.87-2.12-.79-2.17a6 6 0 0 1 1.14 2.05 12.55 12.55 0 0 1 .78 5.59 12.4 12.4 0 0 1 -1.79 5.36 6.17 6.17 0 0 1 -1.51 1.82z" fill="#263238"/><path d="m145.43 136.46a6.53 6.53 0 0 1 -.18 2.16 15.76 15.76 0 0 1 -1.84 4.88 14.81 14.81 0 0 1 -3.39 4 5.77 5.77 0 0 1 -1.83 1.15 22.7 22.7 0 0 0 4.77-5.38c2.04-3.49 2.29-6.89 2.47-6.81z" fill="#263238"/><path d="m122.18 137.38a7.48 7.48 0 0 1 -1.42-.31l-3.84-1a93.08 93.08 0 0 0 -12.8-2.61 42 42 0 0 0 -13 .38 33 33 0 0 0 -3.82 1 10.25 10.25 0 0 1 -1.4.43 6.73 6.73 0 0 1 1.33-.62 26.26 26.26 0 0 1 3.77-1.18 39 39 0 0 1 13.11-.54 79.62 79.62 0 0 1 12.89 2.77c1.61.47 2.9.88 3.79 1.17a9 9 0 0 1 1.39.51z" fill="#fff"/><path d="m117.16 142a25.17 25.17 0 0 1 -3.93.65 23 23 0 0 1 -4 .53 17.65 17.65 0 0 1 7.93-1.18z" fill="#fff"/><path d="m115.23 148.47c.06.13-.6.55-1.47.94s-1.62.59-1.68.46.6-.55 1.47-.94a3.53 3.53 0 0 1 1.68-.46z" fill="#fff"/><path d="m132.13 141.07a2.51 2.51 0 0 1 -.67-1.13 7.1 7.1 0 0 1 .59-6.17 3 3 0 0 1 .89-1 11.94 11.94 0 0 0 -1.38 4 12.23 12.23 0 0 0 .57 4.3z" fill="#fff"/><path d="m139.06 142.53a12.45 12.45 0 0 1 .11-2.28 10.86 10.86 0 0 1 0-2.28 5 5 0 0 1 -.15 4.56z" fill="#fff"/><path d="m160.06 119.59a85.89 85.89 0 0 1 -7.11 5.82 83.07 83.07 0 0 1 -7.42 5.4 81.19 81.19 0 0 1 7.11-5.82 84.16 84.16 0 0 1 7.42-5.4z" fill="#fff"/><path d="m154.78 133a12.53 12.53 0 0 1 -4.58 2.23 6.49 6.49 0 0 1 2.18-1.35 6.37 6.37 0 0 1 2.4-.88z" fill="#fff"/><path d="m131.87 159.85a15 15 0 0 1 .3-5.77 14.79 14.79 0 0 1 2-5.43c.14.06-.84 2.44-1.46 5.53s-.71 5.67-.84 5.67z" fill="#fff"/><path d="m152.68 157.92a38.83 38.83 0 0 1 -3.85-8.23 20.32 20.32 0 0 1 2.16 4 21.1 21.1 0 0 1 1.69 4.23z" fill="#fff"/><path d="m56.19 104.3c0 .15-6.16-.45-13.71-1.32s-13.67-1.7-13.66-1.84 6.16.45 13.72 1.32 13.67 1.7 13.65 1.84z" fill="#fff"/><path d="m211.41 145.91v-3.44a4.25 4.25 0 0 0 -4.67-3.75l-6.78.67-3.85 2.41a2 2 0 0 0 1.75 2.22h.25l-5.11 1.98a1.9 1.9 0 0 0 2 2.54l-2.14 1.15a2.58 2.58 0 0 0 2.1 3 2.27 2.27 0 0 0 .9 0s-1.56 1.55 2 2.37a25.16 25.16 0 0 0 4.65.82l2.09 2.79-.2 2.51s3.37.39 4-.94a12.6 12.6 0 0 0 .65-4 2.7 2.7 0 0 0 2.38-2.87 4.19 4.19 0 0 0 .7-5.08 17.62 17.62 0 0 1 -.72-2.38z" fill="#be8671"/><path d="m208.6 155.57c-.08 0-.45-.71-1.23-1.77a6.57 6.57 0 0 0 -1.63-1.57 4.69 4.69 0 0 0 -2.56-.8c-1 0-2 .21-2.84.28a17.36 17.36 0 0 0 -2.29.38 15.67 15.67 0 0 1 -2.11.48 7.07 7.07 0 0 1 2-.84 14.22 14.22 0 0 1 2.33-.5c.88-.09 1.82-.29 2.89-.32a5.13 5.13 0 0 1 2.83.92 6.66 6.66 0 0 1 1.67 1.76 6.12 6.12 0 0 1 .94 1.98z" fill="#a24c2c"/><path d="m210.8 151.71a13.69 13.69 0 0 1 -1.74-2.2 16 16 0 0 0 -1.87-2.31 2.93 2.93 0 0 0 -1.47-.68 5.89 5.89 0 0 0 -1.83.13c-2.54.63-4.86 1.22-6.54 1.6a15.16 15.16 0 0 1 -2.75.52 15.08 15.08 0 0 1 2.66-.88c1.66-.47 4-1.12 6.53-1.75a6.1 6.1 0 0 1 2-.12 3.29 3.29 0 0 1 1.72.82 13.5 13.5 0 0 1 1.85 2.47 18.82 18.82 0 0 1 1.44 2.4z" fill="#a24c2c"/><path d="m210.51 145.27a4.24 4.24 0 0 1 -1.7-1.29 7.4 7.4 0 0 0 -1.72-1.38 4.07 4.07 0 0 0 -2.6-.14 56.6 56.6 0 0 1 -7 1.69 9.27 9.27 0 0 1 2-.76c1.25-.39 3-1 4.92-1.45a4.48 4.48 0 0 1 2.91.23 6.8 6.8 0 0 1 1.78 1.56c.81 1.01 1.44 1.48 1.41 1.54z" fill="#a24c2c"/><path d="m43.37 84.23 4.63 1.64s3 10.24 4.68 10.44 3.69 2.26 5.33.41c0 0 2.35 1.85 3.68-.2 0 0 4.92.92 5.43-.51l.51-1.44s8 10 9.63 10 2-.93 1.43-2.15-8.5-14.13-10.34-16.28-10.14-12.25-17.67-12.25c0 0-5.43 2.46-6.76 6.25s-.55 4.09-.55 4.09z" fill="#be8671"/><path d="m52 73.58a28.87 28.87 0 0 0 -2.87 1.19 11 11 0 0 0 -5.48 12.61 25.43 25.43 0 0 0 1.08 2.91 3.1 3.1 0 0 1 -.51-.68 9.59 9.59 0 0 1 -.92-2.13 10.84 10.84 0 0 1 5.7-13 9.82 9.82 0 0 1 2.19-.77 2.75 2.75 0 0 1 .81-.13z" fill="#263238"/><path d="m66 91.66a7.45 7.45 0 0 1 1 1.24c.62.79 1.47 1.9 2.39 3.12l2.34 3.16a8.25 8.25 0 0 1 .92 1.35c-.14.13-1.84-1.73-3.68-4.19s-3.17-4.58-2.97-4.68z" fill="#a24c2c"/><path d="m60.68 95.14c.12-.09.46.16.76.56s.46.8.35.88-.46-.16-.76-.56-.46-.8-.35-.88z" fill="#a24c2c"/><path d="m57 96a.68.68 0 0 1 .47.34c.15.22.25.45.16.56s-.39 0-.59-.27-.21-.63-.04-.63z" fill="#a24c2c"/><path d="m68.6 88.29c.06 0 .17.15.17.46a1.5 1.5 0 0 1 -.53 1.07 1.45 1.45 0 0 1 -1.14.33c-.31-.05-.46-.19-.43-.25a2.5 2.5 0 0 0 1.24-.48c.54-.48.55-1.12.69-1.13z" fill="#a24c2c"/><path d="m63.54 92.19c.07 0 .08.22 0 .5a1.92 1.92 0 0 1 -2 1c-.3-.07-.45-.2-.43-.27a4.7 4.7 0 0 0 1.37-.36c.62-.36.92-.91 1.06-.87z" fill="#a24c2c"/></svg>