<svg width="181" height="180" viewBox="0 0 181 180" fill="none" xmlns="http://www.w3.org/2000/svg">
<path d="M147.421 3.97361C148.059 3.3401 148.833 2.86284 149.683 2.57872C150.533 2.2946 151.437 2.21123 152.324 2.33509C153.016 2.57436 153.768 2.57436 154.46 2.33509C154.865 2.01469 155.216 1.63045 155.499 1.19723C155.773 0.909851 156.102 0.681217 156.466 0.525031C156.83 0.368845 157.222 0.28833 157.618 0.28833C158.013 0.28833 158.405 0.368845 158.769 0.525031C159.133 0.681217 159.462 0.909851 159.736 1.19723C159.96 1.52079 160.235 1.80524 160.55 2.03925C161.939 2.813 163.555 0.195924 164.933 0.992425C164.303 1.20608 163.749 1.6018 163.34 2.13028C163.148 2.41141 163.055 2.74996 163.077 3.09084C163.1 3.43172 163.236 3.75487 163.465 4.00774C164.753 5.20249 166.978 2.65369 168.413 3.65501C169.193 4.1898 169.272 5.55524 170.187 5.79419C170.561 5.86125 170.943 5.86125 171.317 5.79419C171.93 5.76705 172.531 5.97495 172.999 6.37607C173.466 6.77719 173.765 7.34174 173.836 7.95611C173.915 9.00294 173.362 10.2318 174.119 10.9942C174.387 11.1781 174.691 11.3018 175.011 11.3567C175.331 11.4117 175.658 11.3967 175.972 11.3128C175.934 12.2794 175.679 13.2248 175.226 14.0778C176.037 14.628 176.607 15.4714 176.817 16.4331C177.027 17.3948 176.862 18.4012 176.356 19.2437C177.201 19.8595 177.922 20.6319 178.48 21.5194C178.757 21.9707 178.904 22.4908 178.904 23.0214C178.904 23.5519 178.757 24.072 178.48 24.5233C178.312 24.6943 178.171 24.8899 178.062 25.1036C177.994 25.357 177.994 25.624 178.062 25.8774C178.354 26.8351 178.532 27.8244 178.593 28.8244C178.536 29.8257 177.768 30.9181 176.785 30.8043C176.548 30.8043 176.299 30.6905 176.096 30.8043C176.027 30.8575 175.969 30.9243 175.927 31.0006C175.884 31.0768 175.857 31.161 175.847 31.2481C175.765 31.969 175.795 32.6986 175.938 33.41C176.082 34.1229 175.949 34.8644 175.565 35.4809C175.465 35.6273 175.335 35.75 175.183 35.8403C175.031 35.9306 174.862 35.9864 174.686 36.0037C174.511 36.0211 174.334 35.9996 174.167 35.9407C174.001 35.8818 173.849 35.787 173.723 35.663C173.972 36.8008 174.232 37.9387 174.492 39.0765C174.638 39.7479 174.763 40.5557 174.266 41.0223C173.769 41.4888 172.503 41.1133 172.006 40.3509C171.509 39.5886 171.441 38.6328 170.967 37.8704C170.74 37.5845 170.543 37.2756 170.379 36.9487C170.277 36.6756 170.255 36.3457 170.04 36.1636C169.599 35.7767 168.91 36.3912 168.91 36.9715C169.045 37.5399 169.339 38.0572 169.758 38.4621C169.962 38.6677 170.102 38.9301 170.158 39.2158C170.215 39.5015 170.185 39.7976 170.074 40.0665C169.927 40.3054 169.667 40.4647 169.532 40.7037C169.035 41.5457 170.255 42.3991 170.379 43.3662C170.37 43.7271 170.279 44.081 170.112 44.4006C169.946 44.7202 169.708 44.997 169.419 45.2096C168.786 45.8127 167.577 46.2792 167.159 45.4827C167.035 45.2096 167.091 44.8796 166.99 44.5951C166.843 44.2673 166.613 43.9846 166.323 43.7759C165.689 43.1548 165.243 42.3659 165.035 41.5002C165.747 42.4218 166.492 43.6507 165.95 44.6976C165.676 45.1044 165.341 45.4653 164.956 45.7671C164.278 46.4498 163.826 47.3488 163.171 48.0428C162.864 48.4133 162.447 48.6758 161.982 48.7924C161.517 48.909 161.027 48.8736 160.583 48.6914C160.717 49.1615 160.689 49.6632 160.504 50.1153C160.319 50.5674 159.989 50.9435 159.565 51.183C159.142 51.4224 158.651 51.5111 158.172 51.4348C157.692 51.3585 157.252 51.1215 156.923 50.7623C156.768 50.5438 156.573 50.3582 156.347 50.2162C156.07 50.1368 155.776 50.1368 155.499 50.2162C154.642 50.346 153.766 50.2339 152.968 49.8925C152.17 49.551 151.482 48.9935 150.98 48.2818L151.839 47.9973C150.155 47.8611 148.526 47.3312 147.082 46.4498C146.367 45.9885 145.83 45.2937 145.563 44.4817C145.296 43.6697 145.313 42.7899 145.613 41.9894C145.941 41.3295 146.562 40.6582 146.302 39.9641C146.133 39.4862 145.602 39.2586 145.173 39.0765L139.23 36.8008C138.235 36.5191 137.336 35.9681 136.631 35.2078C136.465 35.0132 136.338 34.7874 136.259 34.5434C136.18 34.2994 136.149 34.042 136.169 33.786C136.189 33.53 136.259 33.2806 136.375 33.052C136.491 32.8234 136.651 32.6202 136.846 32.4542C136.395 31.5212 135.694 30.7332 134.823 30.1785C133.84 29.5527 132.688 29.2568 131.671 28.6765C131.144 28.4249 130.696 28.0314 130.377 27.5394C130.058 27.0474 129.88 26.4761 129.864 25.8887C129.965 24.7509 131.581 23.8634 132.36 24.7509C132.247 22.9872 129.129 22.8052 128.903 21.0529C128.722 19.6305 130.541 18.9364 131.502 17.8669C131.321 17.3662 130.835 17.0362 130.643 16.5469C130.236 15.5115 131.31 14.5215 132.315 14.0664C133.321 13.6113 134.575 13.1561 134.823 12.0865C135.072 11.017 134.179 9.70841 134.823 8.75261C135.002 8.49406 135.271 8.3122 135.576 8.24273C135.881 8.17325 136.201 8.22117 136.473 8.37711C137.32 6.37448 141.071 7.99024 142.224 6.1014C142.321 5.95725 142.372 5.7865 142.371 5.61213C142.338 5.46486 142.277 5.32562 142.19 5.2025C141.694 4.69528 141.14 4.24846 140.54 3.8712C140.244 3.67797 140.016 3.39649 139.886 3.06606C139.756 2.73563 139.732 2.37271 139.817 2.02788C140.088 1.3793 141.331 1.4248 141.297 2.14166C141.487 2.0007 141.705 1.9048 141.937 1.86117C142.168 1.81753 142.407 1.82728 142.634 1.88969C142.861 1.95211 143.072 2.06557 143.249 2.22154C143.426 2.37751 143.567 2.57194 143.659 2.79024C143.94 2.52832 144.303 2.37181 144.685 2.34695C145.068 2.32209 145.447 2.43038 145.76 2.65369C146.373 3.11408 146.869 3.71471 147.206 4.406" fill="#263238"/>
<path d="M147.17 4.34885C147.17 4.34885 146.967 4.01887 146.492 3.40443C146.195 3.0213 145.806 2.71994 145.363 2.52827C145.081 2.39127 144.765 2.34402 144.456 2.39281C144.147 2.44161 143.86 2.58413 143.634 2.80136L143.521 2.9379V2.76723C143.434 2.56885 143.304 2.39256 143.14 2.25126C142.977 2.10995 142.784 2.00721 142.576 1.95051C142.368 1.8938 142.151 1.88457 141.939 1.92351C141.727 1.96244 141.526 2.04855 141.352 2.17554L141.114 2.36897V2.07314C141.114 1.7204 140.64 1.5611 140.267 1.69764C140.173 1.73692 140.088 1.7952 140.017 1.86887C139.946 1.94254 139.891 2.03004 139.855 2.12599C139.819 2.22194 139.803 2.3243 139.808 2.42676C139.813 2.52921 139.838 2.62961 139.883 2.72172C140.049 3.18888 140.363 3.58846 140.775 3.85958C141.258 4.15705 141.708 4.50404 142.12 4.89502C142.252 5.0074 142.353 5.15259 142.412 5.31623C142.472 5.47987 142.488 5.65629 142.459 5.82807C142.413 5.994 142.327 6.14624 142.21 6.27184C142.121 6.41061 142.006 6.53044 141.871 6.62457C141.328 7.00106 140.689 7.21415 140.03 7.239C139.386 7.30728 138.73 7.30728 138.098 7.42107C137.787 7.43655 137.485 7.53269 137.222 7.70015C136.958 7.8676 136.743 8.1007 136.595 8.37686L136.505 8.59306L136.301 8.46789C136.124 8.37406 135.923 8.33282 135.723 8.34893C135.523 8.36504 135.332 8.43784 135.172 8.55892C135.012 8.71987 134.897 8.91997 134.837 9.13947C134.778 9.35896 134.776 9.59027 134.833 9.81057C134.9 10.2999 135.081 10.8233 135.115 11.415C135.133 11.7263 135.08 12.0377 134.96 12.3255C134.841 12.6132 134.658 12.8699 134.426 13.0762C133.511 13.9182 132.268 14.0662 131.466 14.8285C131.258 14.9816 131.091 15.1846 130.98 15.419C130.87 15.6535 130.819 15.912 130.833 16.1712C130.833 16.6605 131.466 16.9791 131.759 17.6846L131.816 17.8325L131.714 17.9463C131.151 18.4799 130.559 18.9813 129.94 19.4482C129.651 19.629 129.429 19.9009 129.308 20.2218C129.188 20.5428 129.175 20.8948 129.274 21.2233C129.522 21.8491 130.268 22.236 130.957 22.6456C131.33 22.8582 131.682 23.1058 132.008 23.3852C132.378 23.7069 132.612 24.1586 132.663 24.6482V25.4789L132.144 24.8531C131.601 24.2045 130.302 24.853 130.155 25.7292C130.131 26.2309 130.25 26.729 130.499 27.1645C130.747 27.6001 131.114 27.9549 131.556 28.187C132.437 28.7787 133.556 29.0745 134.607 29.6434C135.699 30.2391 136.577 31.1669 137.115 32.2946L137.228 32.545L137.002 32.6815C136.698 32.9733 136.515 33.3702 136.489 33.7925C136.464 34.2148 136.599 34.6309 136.866 34.9572C137.558 35.6756 138.428 36.1943 139.386 36.4592L145.464 38.7349C145.761 38.8393 146.037 38.9974 146.278 39.2014C146.416 39.3234 146.527 39.4738 146.603 39.6426C146.679 39.8114 146.719 39.9947 146.718 40.18C146.633 40.7928 146.392 41.373 146.018 41.864C145.781 42.3222 145.669 42.8359 145.695 43.352C145.721 43.8681 145.883 44.3679 146.165 44.7997C146.737 45.7311 147.611 46.4347 148.639 46.791C149.715 47.1661 150.829 47.4217 151.961 47.5533L153.35 47.7695L152.017 48.2133L151.147 48.4977L151.317 47.9857C151.875 48.7605 152.668 49.3315 153.576 49.6128C154.03 49.775 154.507 49.8596 154.989 49.8632C155.239 49.8477 155.488 49.8173 155.734 49.7721C155.904 49.7344 156.08 49.7321 156.251 49.7653C156.422 49.7986 156.585 49.8667 156.729 49.9656C157.011 50.1931 157.147 50.4321 157.305 50.5573C157.466 50.7084 157.654 50.8281 157.858 50.91C158.285 51.0695 158.754 51.0695 159.18 50.91C159.606 50.7479 159.958 50.4325 160.166 50.0248C160.375 49.6172 160.426 49.1461 160.31 48.7026L160.062 47.8492L160.807 48.3043C161.051 48.4216 161.32 48.4737 161.589 48.4558C161.858 48.4379 162.118 48.3504 162.344 48.2019C162.87 47.8712 163.315 47.4236 163.643 46.8934C164.028 46.2969 164.475 45.7438 164.976 45.2435C165.53 44.7883 165.891 44.3673 165.846 43.7756C165.719 42.9731 165.362 42.2255 164.818 41.6251L165.428 41.3406C165.567 41.9554 165.841 42.5309 166.23 43.0247C166.439 43.2728 166.665 43.5048 166.908 43.7187C167.052 43.857 167.178 44.0139 167.281 44.1853C167.38 44.3758 167.438 44.5852 167.451 44.7997C167.451 45.1752 167.53 45.3345 167.665 45.4255C167.886 45.5148 168.133 45.5148 168.354 45.4255C168.912 45.191 169.388 44.7949 169.722 44.2877C169.905 44.0871 170.018 43.8313 170.042 43.5598C170.067 43.2883 170.002 43.0163 169.857 42.7857C169.722 42.524 169.53 42.2509 169.36 41.9437C169.131 41.5909 169.046 41.1631 169.123 40.7489C169.247 40.2597 169.665 40.0207 169.767 39.8614C169.829 39.7689 169.868 39.6624 169.88 39.5513C169.891 39.4402 169.876 39.3279 169.835 39.2242C169.699 38.7008 169.191 38.3139 168.818 37.654C168.707 37.4763 168.634 37.277 168.605 37.0691C168.576 36.8613 168.591 36.6496 168.648 36.4478C168.723 36.2324 168.855 36.0418 169.031 35.8973C169.206 35.7527 169.418 35.6598 169.643 35.6286C169.776 35.6223 169.909 35.6479 170.031 35.7033C170.152 35.7587 170.259 35.8422 170.343 35.9472C170.464 36.1145 170.553 36.3038 170.603 36.5047C170.664 36.7821 170.792 37.04 170.976 37.2557C171.868 38.3936 171.812 39.8842 172.648 40.5327C173.055 40.8741 173.642 41.0106 173.947 40.7375C174.252 40.4645 174.275 39.8728 174.162 39.3039C173.891 38.0863 173.619 36.8916 173.348 35.6968L172.987 34.1152L173.925 35.4351C174.04 35.554 174.191 35.6316 174.354 35.6563C174.517 35.6809 174.684 35.6512 174.828 35.5717C175.002 35.4992 175.155 35.3842 175.273 35.2372C175.392 35.0902 175.472 34.9157 175.506 34.7297C175.621 33.8355 175.59 32.9286 175.416 32.0443C175.388 31.791 175.388 31.5353 175.416 31.282C175.424 31.1172 175.472 30.9569 175.555 30.8144C175.637 30.6719 175.752 30.5513 175.89 30.4627C176.168 30.3889 176.46 30.3889 176.738 30.4627C176.909 30.484 177.082 30.4522 177.235 30.3717C177.567 30.1685 177.834 29.8716 178 29.5176C178.167 29.1637 178.227 28.7683 178.173 28.3804C178.173 27.5498 177.789 26.7191 177.642 25.7975C177.575 25.5324 177.575 25.2547 177.642 24.9896C177.748 24.7575 177.893 24.5458 178.071 24.3638C178.306 24.0659 178.451 23.7066 178.489 23.3283C178.547 22.5382 178.309 21.7549 177.822 21.1323C177.312 20.4927 176.728 19.916 176.083 19.4141L175.879 19.2434L176.026 19.0272C176.493 18.2488 176.644 17.3193 176.448 16.4316C176.253 15.5439 175.725 14.7661 174.975 14.2596L174.749 14.123L174.874 13.8841C175.315 13.0727 175.563 12.1689 175.597 11.2443L175.902 11.5287C175.335 11.6398 174.749 11.5926 174.207 11.3922C173.934 11.2471 173.709 11.0264 173.556 10.7562C173.404 10.486 173.332 10.1777 173.348 9.86747C173.348 8.72961 173.71 7.79656 173.168 7.0342C172.939 6.65339 172.599 6.35289 172.195 6.17369C171.791 5.99448 171.341 5.9453 170.908 6.03288C170.646 6.0797 170.379 6.0797 170.117 6.03288C169.835 5.9665 169.582 5.81099 169.394 5.58911C169.111 5.20197 168.861 4.7908 168.648 4.36022C168.568 4.18243 168.447 4.02603 168.296 3.90353C168.145 3.78103 167.968 3.69583 167.778 3.65476C167.375 3.61289 166.968 3.6715 166.592 3.82543C165.796 4.22734 164.927 4.45976 164.039 4.50815C163.794 4.48382 163.56 4.39397 163.361 4.24791C163.163 4.10185 163.006 3.90491 162.909 3.67752C162.819 3.46326 162.773 3.23306 162.773 3.00049C162.773 2.76793 162.819 2.53772 162.909 2.32347C163.095 1.94816 163.354 1.61403 163.671 1.34053C163.987 1.06704 164.354 0.859661 164.75 0.730472V1.08321C164.152 0.741848 163.428 1.1856 162.818 1.54971C162.223 2.04313 161.464 2.29113 160.694 2.24381C160.328 2.13104 160.013 1.89372 159.802 1.57248C159.616 1.312 159.395 1.07845 159.146 0.878382C158.652 0.537107 158.062 0.361889 157.463 0.377722C156.901 0.37805 156.352 0.552875 155.893 0.878382C155.499 1.21785 155.143 1.59937 154.83 2.01624C154.645 2.20856 154.418 2.35493 154.167 2.44379C153.916 2.53265 153.648 2.56156 153.384 2.52827C152.898 2.52827 152.469 2.36898 152.062 2.32347C150.792 2.1686 149.507 2.43633 148.402 3.08583C148.029 3.32538 147.67 3.58757 147.328 3.87095C147.615 3.52253 147.959 3.22618 148.345 2.9948C149.457 2.28355 150.775 1.97085 152.085 2.10727C152.514 2.10727 152.944 2.26658 153.396 2.28933C153.624 2.32039 153.856 2.29518 154.073 2.21591C154.289 2.13663 154.483 2.00564 154.638 1.83418C154.968 1.38003 155.347 0.964074 155.768 0.593917C156.271 0.224236 156.874 0.0178234 157.497 0.00222639C158.169 -0.023373 158.832 0.172361 159.384 0.559783C159.983 0.946655 160.231 1.69765 160.83 1.84557C161.429 1.99349 162.061 1.53834 162.671 1.16285C162.997 0.946415 163.346 0.767052 163.711 0.628052C163.914 0.539238 164.135 0.498203 164.356 0.508061C164.577 0.517919 164.793 0.578414 164.988 0.684948L165.327 0.878382L164.965 1.03768C164.268 1.26517 163.688 1.75972 163.349 2.4145C163.226 2.74838 163.226 3.11607 163.349 3.44995C163.424 3.60374 163.535 3.73635 163.673 3.83573C163.811 3.9351 163.972 3.99808 164.14 4.01888C164.959 3.94159 165.756 3.70999 166.49 3.33616C166.939 3.14397 167.431 3.07714 167.914 3.14273C168.156 3.20394 168.382 3.31691 168.577 3.47398C168.772 3.63105 168.931 3.82854 169.044 4.05302C169.249 4.44672 169.479 4.82678 169.733 5.19087C169.874 5.34275 170.058 5.44715 170.26 5.4899C170.462 5.53266 170.673 5.51168 170.863 5.42981C171.392 5.33221 171.937 5.39722 172.429 5.61641C172.921 5.83559 173.336 6.19879 173.619 6.6587C173.912 7.13105 174.047 7.68533 174.004 8.24032C174.004 8.77512 173.879 9.27578 173.891 9.75368C173.878 9.96256 173.924 10.1708 174.021 10.3555C174.119 10.5402 174.265 10.6942 174.444 10.8005C174.895 10.9554 175.38 10.9829 175.845 10.8802H176.173V11.2101C176.141 12.2202 175.878 13.2092 175.405 14.1003L175.303 13.7248C176.187 14.3078 176.812 15.2147 177.044 16.2533C177.276 17.2919 177.097 18.3807 176.546 19.2889L176.489 18.902C177.176 19.4288 177.795 20.0404 178.331 20.7226C178.914 21.4627 179.196 22.398 179.122 23.3397C179.068 23.8346 178.876 24.304 178.568 24.6938C178.24 25.0693 178.161 25.2172 178.229 25.6382C178.365 26.4688 178.704 27.3108 178.783 28.278C178.847 28.7918 178.759 29.3132 178.53 29.7768C178.3 30.2404 177.94 30.6255 177.495 30.8837C177.02 31.1909 176.207 30.8837 176.162 30.9975C176.116 31.1113 176.049 31.1454 176.026 31.3502C176.003 31.562 176.003 31.7756 176.026 31.9874C176.213 32.9357 176.24 33.909 176.105 34.8662C176.057 35.1594 175.93 35.4339 175.739 35.6601C175.547 35.8864 175.298 36.0559 175.019 36.1506C174.739 36.2453 174.439 36.2616 174.15 36.1977C173.862 36.1338 173.597 35.9921 173.382 35.7879L173.958 35.5262C174.23 36.7209 174.501 37.9157 174.783 39.1332C174.856 39.4693 174.882 39.8139 174.862 40.1572C174.834 40.5593 174.651 40.9344 174.354 41.2041C174.198 41.333 174.016 41.4255 173.821 41.4747C173.625 41.5239 173.422 41.5286 173.224 41.4885C172.86 41.4176 172.518 41.2574 172.23 41.022C171.728 40.5393 171.372 39.9241 171.202 39.247C171.048 38.6578 170.787 38.1023 170.433 37.6084C170.207 37.3289 170.045 37.0026 169.959 36.6526C169.868 36.334 169.778 36.2544 169.688 36.2658C169.595 36.29 169.509 36.337 169.438 36.4024C169.367 36.4679 169.313 36.5499 169.281 36.6413C169.258 36.7523 169.257 36.8668 169.278 36.9782C169.3 37.0895 169.343 37.1955 169.405 37.2898C169.654 37.7791 170.253 38.2229 170.479 38.9966C170.551 39.202 170.573 39.4217 170.543 39.6375C170.514 39.8532 170.434 40.0588 170.309 40.2369C170.027 40.5782 169.801 40.7034 169.778 40.8855C169.665 41.261 170.128 41.8299 170.456 42.4443C170.659 42.7872 170.753 43.184 170.727 43.5822C170.673 43.9761 170.517 44.3488 170.275 44.6632C169.85 45.2649 169.261 45.731 168.58 46.0058C168.384 46.0983 168.17 46.1462 167.953 46.1462C167.737 46.1462 167.523 46.0983 167.326 46.0058C167.147 45.8774 167.003 45.7062 166.907 45.5075C166.81 45.3088 166.764 45.089 166.773 44.868C166.765 44.7403 166.731 44.6157 166.672 44.5021C166.614 44.3885 166.533 44.2883 166.434 44.208C166.167 43.9766 165.921 43.7214 165.699 43.4457C165.243 42.8736 164.922 42.2042 164.762 41.4885L164.4 39.8842L165.36 41.2041C165.98 41.9219 166.373 42.8092 166.49 43.7529C166.506 44.1757 166.392 44.593 166.163 44.9476C165.942 45.2488 165.684 45.5203 165.394 45.7555C164.924 46.2192 164.508 46.7344 164.152 47.2916C163.765 47.9068 163.243 48.4245 162.626 48.805C162.297 49.0084 161.922 49.1236 161.536 49.1395C161.151 49.1554 160.768 49.0716 160.423 48.896L160.92 48.5091C161.05 48.9605 161.051 49.4394 160.923 49.8912C160.795 50.343 160.543 50.7494 160.197 51.064C159.85 51.3786 159.423 51.5886 158.963 51.67C158.504 51.7514 158.031 51.701 157.599 51.5245C157.31 51.4125 157.046 51.2465 156.819 51.0352C156.582 50.819 156.435 50.58 156.299 50.489C156.164 50.398 155.565 50.489 154.989 50.489C154.433 50.5006 153.88 50.4199 153.35 50.25C152.306 49.9223 151.4 49.2537 150.774 48.3498L150.515 47.9857L150.944 47.8378L151.803 47.5647L151.859 48.2133C150.677 48.0688 149.513 47.7941 148.39 47.394C147.227 46.9823 146.242 46.1783 145.6 45.1183C145.262 44.5878 145.07 43.9762 145.044 43.3462C145.018 42.7163 145.159 42.0908 145.453 41.534C145.756 41.1299 145.968 40.6639 146.074 40.1686C146.074 39.7817 145.713 39.5087 145.227 39.3152L139.171 37.0395C138.102 36.7365 137.136 36.1419 136.38 35.3213C136.021 34.8493 135.838 34.2656 135.861 33.6715C135.858 33.3643 135.932 33.0612 136.073 32.7893C136.215 32.5174 136.422 32.2849 136.674 32.1126L136.561 32.4995C136.081 31.4831 135.289 30.6493 134.302 30.1213C133.341 29.5752 132.211 29.2793 131.206 28.6194C130.67 28.3217 130.23 27.8746 129.939 27.3318C129.649 26.789 129.52 26.1733 129.568 25.5585C129.639 25.2531 129.777 24.9678 129.973 24.7235C130.169 24.4793 130.416 24.2825 130.697 24.1476C130.984 23.9921 131.313 23.9347 131.635 23.984C131.957 24.0332 132.255 24.1865 132.483 24.4207L132.008 24.6255C132.008 23.9314 131.251 23.4876 130.573 23.0552C129.783 22.71 129.122 22.1202 128.686 21.3712C128.594 21.1555 128.547 20.9232 128.547 20.6885C128.547 20.4538 128.594 20.2215 128.686 20.0058C128.877 19.6194 129.146 19.2782 129.477 19.0045C130.076 18.4697 130.731 18.0714 131.206 17.548V17.7983C131.07 17.3318 130.404 16.9677 130.268 16.194C130.242 15.8523 130.301 15.5094 130.442 15.1971C130.582 14.8849 130.798 14.6133 131.07 14.4075C132.031 13.5427 133.33 13.4062 134.03 12.678C134.22 12.5227 134.369 12.3237 134.465 12.0978C134.562 11.872 134.602 11.626 134.584 11.3808C134.584 10.8688 134.403 10.3567 134.324 9.81057C134.26 9.51652 134.273 9.21068 134.362 8.92331C134.451 8.63593 134.614 8.37698 134.833 8.17206C135.064 7.98851 135.346 7.8795 135.64 7.8592C135.934 7.83891 136.228 7.90827 136.482 8.05826L136.188 8.14929C136.368 7.81967 136.628 7.54196 136.945 7.34273C137.261 7.1435 137.623 7.02943 137.996 7.01144C138.685 6.89765 139.341 6.89766 139.962 6.84076C140.551 6.82367 141.125 6.64678 141.623 6.32873C141.834 6.17445 141.995 5.96065 142.086 5.71428C142.165 5.50946 142.018 5.30465 141.837 5.08845C141.447 4.7122 141.019 4.37673 140.561 4.08715C140.097 3.78095 139.748 3.32881 139.567 2.80136C139.482 2.53495 139.482 2.24852 139.567 1.98211C139.612 1.84828 139.69 1.72765 139.792 1.63055C139.895 1.53345 140.019 1.46276 140.154 1.42455C140.399 1.33689 140.666 1.33689 140.911 1.42455C141.039 1.46889 141.149 1.55398 141.224 1.66691C141.3 1.77984 141.336 1.91447 141.329 2.05037L141.126 1.94797C141.33 1.79575 141.567 1.69287 141.817 1.64726C142.067 1.60164 142.325 1.6145 142.569 1.68486C142.814 1.75522 143.039 1.88121 143.227 2.05308C143.416 2.22496 143.563 2.43814 143.657 2.6762H143.487C143.742 2.43147 144.065 2.27259 144.414 2.22162C144.762 2.17064 145.117 2.2301 145.43 2.39174C145.882 2.60704 146.272 2.93627 146.56 3.34753C146.796 3.65988 147.001 3.99534 147.17 4.34885V4.34885Z" fill="#455A64"/>
<path d="M156.426 26.6166C155.804 23.7037 153.68 21.3369 151.319 19.5277C150.374 18.715 149.245 18.1485 148.031 17.8779C147.42 17.75 146.785 17.8071 146.206 18.042C145.627 18.2769 145.13 18.679 144.777 19.1978L144.947 21.2801C144.687 24.5912 147.206 27.379 148.427 30.474C148.958 31.8166 149.376 33.4324 150.686 34.0127C151.396 34.2858 152.18 34.2858 152.89 34.0127C155.703 33.0114 157.047 29.5409 156.426 26.6166Z" fill="#FFC100"/>
<path d="M156.719 41.8984C157.611 40.6191 158.029 39.0648 157.899 37.507C157.769 35.9492 157.099 34.487 156.007 33.3758C157.194 31.8283 156.73 29.473 155.476 27.9824C154.115 26.5776 152.453 25.5036 150.618 24.8419C150.016 22.6281 148.595 20.7305 146.647 19.5391C144.7 18.3477 142.372 17.9528 140.144 18.4357C137.794 15.0222 132.88 14.5898 128.959 15.8073C128.025 16.1736 127.043 16.4035 126.044 16.49C125.313 16.4439 124.584 16.3527 123.864 16.2169C119.853 15.7276 115.955 18.6178 114.418 22.3955C114.217 23.0121 113.94 23.6008 113.594 24.1478C113.01 24.7684 112.354 25.3148 111.639 25.7749C110.921 26.3522 110.336 27.0795 109.925 27.9065C109.513 28.7336 109.285 29.6407 109.255 30.5653C109.255 32.1242 109.73 33.7854 109.097 35.2078C108.781 35.9246 108.193 36.5163 107.967 37.2559C107.255 39.4178 109.65 41.5798 109.244 43.8214C109.165 44.2765 108.961 44.7089 108.848 45.1526C108.601 46.0816 108.701 47.07 109.131 47.929C109.548 48.5271 109.851 49.1986 110.023 49.9089C109.987 50.4654 109.885 51.0156 109.718 51.5474C109.47 52.8787 112.396 57.9763 113.548 58.6818L147.714 58.5111C149.002 58.1981 150.162 57.4905 151.034 56.4858C151.907 55.4812 152.448 54.2289 152.584 52.9015C152.564 52.4612 152.666 52.0241 152.878 51.6384C153.138 51.3653 153.454 51.1519 153.804 51.0126C155.985 49.7951 156.211 46.7456 155.939 44.1855C155.883 43.8388 155.883 43.4853 155.939 43.1386C156.118 42.6786 156.382 42.2576 156.719 41.8984Z" fill="#263238"/>
<path d="M146.776 41.9665C146.697 38.6585 145.733 35.4332 143.988 32.6299C142.242 29.8266 139.778 27.5489 136.856 26.0365C134.1 24.7858 131.122 24.1048 128.1 24.0339C125.301 23.8081 122.5 24.4429 120.067 25.8544C118.191 26.321 111.379 32.784 111.119 39.6908C110.825 47.3713 110.768 56.7587 111.808 62.4479C113.898 73.9062 122.688 75.1464 122.688 75.1464V81.5639L146.708 82.2922L146.776 41.9665Z" fill="#B78876"/>
<path d="M115.447 48.4749C115.453 48.8593 115.607 49.2264 115.877 49.4983C116.147 49.7702 116.512 49.9255 116.893 49.9313C117.08 49.9405 117.266 49.9124 117.442 49.8485C117.617 49.7847 117.779 49.6865 117.916 49.5595C118.054 49.4325 118.165 49.2794 118.244 49.1088C118.322 48.9383 118.366 48.7538 118.374 48.5659C118.368 48.1815 118.213 47.8144 117.943 47.5426C117.674 47.2707 117.309 47.1153 116.927 47.1095C116.741 47.0987 116.554 47.1258 116.377 47.189C116.201 47.2523 116.039 47.3504 115.901 47.4777C115.763 47.605 115.652 47.7588 115.574 47.93C115.496 48.1013 115.453 48.2866 115.447 48.4749V48.4749Z" fill="#263238"/>
<path d="M113.987 44.1738C114.179 44.3558 115.264 43.5025 116.846 43.4683C118.427 43.4342 119.591 44.1966 119.761 44.0031C119.93 43.8097 119.648 43.5707 119.139 43.218C118.444 42.755 117.623 42.5204 116.789 42.5467C115.97 42.5686 115.179 42.8514 114.529 43.3545C114.055 43.7755 113.897 44.1738 113.987 44.1738Z" fill="#263238"/>
<path d="M123.525 56.5083C122.686 56.2664 121.821 56.1326 120.949 56.1101C120.542 56.1101 120.158 56.0077 120.09 55.7346C120.046 55.3176 120.128 54.8968 120.328 54.5285C120.678 53.5272 121.051 52.4917 121.457 51.4107C122.49 48.7634 123.317 46.0396 123.932 43.2637C123.751 43.2637 122.35 46.7569 120.813 51.2287L119.74 54.3692C119.504 54.865 119.444 55.4273 119.571 55.9622C119.635 56.1025 119.729 56.2271 119.846 56.3273C119.963 56.4275 120.1 56.5009 120.248 56.5425C120.474 56.5964 120.706 56.6193 120.938 56.6107C121.801 56.6914 122.671 56.657 123.525 56.5083Z" fill="#263238"/>
<path d="M122.646 75.1462C128.022 75.0953 133.279 73.5434 137.831 70.6631C137.831 70.6631 134.091 78.7533 122.635 77.9568L122.646 75.1462Z" fill="#AA6550"/>
<path d="M114.485 38.2455C114.756 38.621 115.954 38.3365 117.366 38.4161C118.779 38.4958 119.965 38.8485 120.259 38.4844C120.394 38.3137 120.259 37.9382 119.739 37.5628C119.073 37.099 118.289 36.8383 117.479 36.8118C116.655 36.7571 115.833 36.9513 115.118 37.3693C114.553 37.6993 114.316 38.0634 114.485 38.2455Z" fill="#263238"/>
<path d="M132.709 48.4635C132.704 48.8471 132.552 49.2138 132.284 49.4872C132.017 49.7606 131.655 49.9197 131.275 49.9313C131.088 49.9436 130.9 49.9181 130.724 49.8563C130.547 49.7945 130.384 49.6976 130.245 49.5714C130.106 49.4451 129.994 49.2921 129.914 49.1214C129.835 48.9507 129.79 48.7657 129.783 48.5773C129.783 48.1938 129.932 47.8256 130.198 47.5513C130.464 47.2769 130.826 47.1184 131.207 47.1095C131.394 47.0972 131.582 47.1226 131.76 47.1843C131.937 47.246 132.1 47.3427 132.24 47.4688C132.38 47.5949 132.494 47.7478 132.574 47.9186C132.655 48.0894 132.701 48.2746 132.709 48.4635V48.4635Z" fill="#263238"/>
<path d="M135.569 44.2877C135.388 44.4812 134.281 43.6391 132.71 43.6278C131.14 43.6164 129.965 44.3901 129.795 44.1967C129.626 44.0032 129.908 43.7643 130.417 43.4002C131.103 42.9323 131.916 42.6898 132.744 42.7061C133.559 42.7189 134.35 42.9896 135.004 43.4798C135.501 43.8553 135.659 44.1739 135.569 44.2877Z" fill="#263238"/>
<path d="M135.885 38.9626C135.568 39.3153 134.36 38.9626 132.891 38.8943C131.422 38.826 130.191 39.0991 129.908 38.7236C129.795 38.5302 129.987 38.1774 130.529 37.8361C131.277 37.4277 132.121 37.2348 132.97 37.2785C133.816 37.3039 134.638 37.568 135.343 38.0409C135.862 38.4164 136.02 38.7919 135.885 38.9626Z" fill="#263238"/>
<path d="M145.354 53.0719C145.354 52.2185 146.269 50.1704 147.105 50.0225C149.364 49.6128 153.387 49.6925 153.567 55.4273C153.816 63.2671 145.941 61.8903 145.93 61.6741C145.918 61.458 145.421 56.0304 145.354 53.0719Z" fill="#B78876"/>
<path d="M147.985 58.7385C147.985 58.7385 148.12 58.8295 148.357 58.9319C148.681 59.0584 149.039 59.0584 149.363 58.9319C149.853 58.5921 150.246 58.1282 150.502 57.5869C150.758 57.0456 150.868 56.446 150.82 55.8483C150.822 55.1745 150.671 54.5092 150.38 53.9026C150.302 53.6591 150.165 53.4389 149.982 53.262C149.798 53.0852 149.574 52.9573 149.329 52.8899C149.172 52.8546 149.007 52.875 148.863 52.9475C148.719 53.02 148.604 53.1403 148.538 53.2882C148.448 53.5157 148.538 53.6637 148.459 53.675C148.38 53.6864 148.29 53.5499 148.346 53.2313C148.377 53.0355 148.477 52.8576 148.629 52.7306C148.732 52.6452 148.851 52.5811 148.979 52.5421C149.107 52.503 149.241 52.4898 149.374 52.5031C149.692 52.5544 149.993 52.6855 150.247 52.8843C150.502 53.0831 150.703 53.3433 150.832 53.6409C151.183 54.3106 151.365 55.0569 151.363 55.8142C151.416 56.5043 151.268 57.1951 150.937 57.8015C150.606 58.408 150.106 58.9038 149.499 59.2278C149.29 59.2953 149.069 59.315 148.852 59.2855C148.635 59.2559 148.428 59.1779 148.244 59.0571C147.996 58.9661 147.951 58.7499 147.985 58.7385Z" fill="#AA6550"/>
<path d="M109.535 40.009C110.295 39.6005 110.923 38.9818 111.345 38.2259C111.768 37.4699 111.967 36.6081 111.919 35.742C112.97 36.0379 113.987 34.6042 114.574 33.7281C115.162 32.8519 115.896 32.3285 115.828 31.2361C115.795 31.0223 115.815 30.8036 115.885 30.5989C116.091 30.3227 116.394 30.1357 116.732 30.0755C117.563 29.7906 118.309 29.2993 118.902 28.6469C119.494 27.9946 119.914 27.2023 120.122 26.3433C121.817 27.0371 123.657 27.299 125.477 27.1057C125.896 27.6884 126.456 28.1542 127.103 28.4593C127.75 28.7644 128.463 28.8989 129.176 28.8499C129.889 28.801 130.578 28.5704 131.178 28.1797C131.778 27.789 132.269 27.251 132.606 26.6164C132.882 27.0873 133.254 27.4933 133.699 27.8073C134.143 28.1213 134.649 28.336 135.182 28.437C136.249 28.6249 137.337 28.6594 138.413 28.5394C138.251 29.6056 138.469 30.6953 139.03 31.6144C139.591 32.5334 140.457 33.222 141.475 33.5574C141.758 33.637 142.074 33.7167 142.21 33.967C142.252 34.1125 142.264 34.2649 142.247 34.4154C142.229 34.5658 142.182 34.7113 142.108 34.8431C141.971 35.2981 141.926 35.7762 141.977 36.2489C142.027 36.7216 142.171 37.1793 142.401 37.5945C142.631 38.0098 142.942 38.3741 143.315 38.6658C143.687 38.9575 144.115 39.1705 144.571 39.2922C144.281 39.5642 144.057 39.8988 143.914 40.2708C143.771 40.6428 143.714 41.0426 143.747 41.4401C143.779 41.8376 143.901 42.2225 144.102 42.5659C144.304 42.9092 144.58 43.2021 144.91 43.4226C145.192 43.5933 145.565 43.7867 145.531 44.1167C145.507 44.2417 145.453 44.3589 145.373 44.458C144.761 45.2066 144.369 46.1134 144.243 47.0751C144.195 47.5589 144.333 48.043 144.63 48.4267C144.927 48.8103 145.359 49.0639 145.836 49.1346C145.572 49.3478 145.353 49.6113 145.19 49.91C145.027 50.2087 144.924 50.5368 144.887 50.8756C144.887 51.5583 145.599 52.241 146.221 52.0134C146.492 51.8996 150.344 51.0462 150.514 50.8073C152.649 47.7351 149.791 44.4808 149.486 40.7486C149.105 37.0094 147.868 33.4102 145.87 30.2348C145.083 28.8774 144.122 27.6302 143.012 26.5254C141.68 25.3416 140.221 24.3111 138.662 23.4532C136.723 22.1685 134.59 21.2079 132.346 20.6085C128.121 19.7096 123.782 21.3595 119.918 23.2711C118.413 23.9475 117.006 24.828 115.738 25.8882C114.315 27.2571 113.148 28.8719 112.292 30.6558C110.87 33.1452 109.974 35.9032 109.659 38.7574" fill="#263238"/>
<path d="M107.943 37.3468C108.033 37.0422 108.17 36.7541 108.35 36.4934C108.508 36.2317 108.734 35.9245 108.938 35.5262C109.181 35.0741 109.32 34.5723 109.344 34.0584C109.372 33.4087 109.345 32.7579 109.265 32.1127C109.162 31.3576 109.162 30.592 109.265 29.837C109.482 28.4488 110.149 27.1723 111.163 26.2072C111.542 25.8583 111.946 25.5388 112.372 25.2514C112.802 24.9653 113.183 24.6119 113.502 24.2046C113.794 23.7376 114.029 23.2372 114.203 22.714C114.624 21.5863 115.24 20.5425 116.022 19.6304C116.856 18.6512 117.863 17.8371 118.993 17.2295C119.581 16.9094 120.202 16.6575 120.846 16.4785C121.513 16.2972 122.2 16.2016 122.891 16.1941C123.241 16.1941 123.591 16.1941 123.942 16.1941C124.292 16.1941 124.631 16.3078 124.981 16.3647C125.666 16.5126 126.375 16.5126 127.06 16.3647C127.749 16.2054 128.427 15.9437 129.15 15.7503C129.867 15.5392 130.6 15.3907 131.342 15.3065C132.091 15.213 132.848 15.1863 133.602 15.2269C134.366 15.2755 135.123 15.4013 135.861 15.6024C137.417 15.997 138.809 16.8772 139.838 18.117L140.143 18.4925H140.008C142.267 18.0027 144.627 18.4032 146.602 19.6116C148.578 20.82 150.018 22.7446 150.628 24.9897L150.56 24.91C151.505 25.3201 152.425 25.7835 153.317 26.2982C154.18 26.8104 154.945 27.4731 155.577 28.2553C156.169 29.0361 156.54 29.9642 156.65 30.9407C156.767 31.8843 156.52 32.837 155.961 33.6033V33.4781C157.033 34.5427 157.7 35.9518 157.848 37.4606C158.007 38.809 157.755 40.1742 157.125 41.3748C156.975 41.6491 156.805 41.9115 156.616 42.16C156.435 42.4103 156.243 42.6379 156.097 42.8768C155.95 43.1103 155.861 43.3755 155.837 43.6505C155.82 43.9234 155.82 44.197 155.837 44.4698C155.951 45.4564 155.951 46.453 155.837 47.4396C155.751 48.238 155.509 49.0115 155.125 49.7153C154.835 50.2349 154.429 50.6791 153.939 51.0125C153.543 51.2856 153.193 51.3994 153.001 51.5473C152.9 51.6224 152.805 51.7062 152.718 51.7976C152.787 51.6908 152.875 51.5981 152.978 51.5245C153.17 51.3652 153.532 51.2401 153.905 50.967C154.377 50.6294 154.764 50.1852 155.035 49.6698C155.41 48.9641 155.644 48.1908 155.724 47.3941C155.831 46.4147 155.831 45.4264 155.724 44.4471C155.701 44.1669 155.701 43.8852 155.724 43.605C155.748 43.307 155.841 43.0188 155.995 42.763C156.153 42.5127 156.345 42.2737 156.526 42.0348C156.704 41.7937 156.862 41.5388 157 41.2724C157.616 40.1001 157.857 38.7647 157.69 37.4492C157.542 35.983 156.891 34.6147 155.848 33.5805V33.5236V33.4554C156.377 32.7281 156.608 31.8234 156.492 30.9293C156.383 29.9931 156.024 29.1042 155.453 28.3578C154.825 27.5864 154.058 26.9416 153.193 26.4575C152.311 25.9421 151.397 25.4823 150.459 25.0807V25.0807V25.0238C149.913 22.8832 148.559 21.0419 146.685 19.8921C145.724 19.2702 144.649 18.8491 143.523 18.6536C142.398 18.4581 141.244 18.4924 140.132 18.7542H140.053V18.686L139.759 18.3218C138.761 17.1224 137.413 16.2703 135.907 15.8868C135.167 15.6921 134.41 15.5701 133.647 15.5227C132.893 15.4813 132.137 15.5041 131.387 15.591C130.653 15.6703 129.927 15.815 129.218 16.0234C128.517 16.2168 127.84 16.4785 127.116 16.6378C126.746 16.7253 126.367 16.7749 125.987 16.7857C125.627 16.7803 125.268 16.7461 124.913 16.6833L123.874 16.524C123.537 16.4786 123.197 16.4558 122.857 16.4558C122.185 16.4604 121.517 16.5522 120.869 16.7288C120.238 16.9051 119.628 17.1493 119.05 17.4571C116.897 18.6234 115.227 20.5232 114.338 22.8164C114.165 23.3601 113.918 23.8771 113.604 24.3525C113.263 24.7775 112.854 25.1428 112.395 25.4335C111.977 25.7141 111.58 26.026 111.209 26.3665C110.855 26.7037 110.548 27.0863 110.293 27.5044C109.805 28.239 109.474 29.0684 109.322 29.9394C109.222 30.6946 109.222 31.4599 109.322 32.2151C109.395 32.8647 109.414 33.5194 109.378 34.1722C109.341 34.6976 109.195 35.2093 108.949 35.6742C108.723 36.0724 108.497 36.3797 108.328 36.6414C108.198 36.8323 108.084 37.034 107.989 37.2444C107.975 37.2792 107.96 37.3134 107.943 37.3468V37.3468Z" fill="#455A64"/>
<path d="M136.45 16.8654C136.45 16.8654 136.246 16.7516 135.862 16.5696C135.322 16.3243 134.746 16.1705 134.156 16.1144C133.282 16.0238 132.399 16.1732 131.603 16.5468C130.64 17.0125 129.849 17.7733 129.343 18.7201C129.186 19.005 129.061 19.3065 128.97 19.619C128.922 19.7529 128.904 19.8959 128.918 20.0376C128.931 20.1794 128.976 20.3163 129.049 20.4383L129.241 20.7L128.925 20.6203C128.113 20.4126 127.252 20.5352 126.53 20.9617C125.952 21.3005 125.5 21.8199 125.242 22.4409C125.067 22.8514 124.971 23.2915 124.959 23.738C124.959 24.0566 124.959 24.2273 124.959 24.2273C124.959 24.2273 124.959 24.2273 124.959 24.1022C124.959 23.977 124.959 23.8973 124.959 23.738C124.943 23.2759 125.02 22.8153 125.185 22.384C125.435 21.7184 125.901 21.1571 126.507 20.791C127.273 20.3239 128.191 20.1808 129.06 20.3928L128.948 20.5748C128.85 20.4274 128.788 20.2591 128.766 20.0833C128.745 19.9075 128.764 19.729 128.823 19.5621C128.915 19.2281 129.048 18.907 129.219 18.6063C129.752 17.6068 130.592 16.8083 131.614 16.3306C132.446 15.9563 133.364 15.8185 134.269 15.9323C134.878 16.0041 135.468 16.1893 136.009 16.4785C136.153 16.5574 136.293 16.6448 136.427 16.7402C136.416 16.7971 136.461 16.8654 136.45 16.8654Z" fill="#455A64"/>
<path d="M149.339 25.5698C149.263 25.6771 149.172 25.7729 149.068 25.8542C148.803 26.0986 148.511 26.3123 148.198 26.4914C147.728 26.7677 147.204 26.9385 146.662 26.9921C145.969 27.0583 145.277 26.8637 144.718 26.4459H144.888L144.662 26.7759L144.402 27.0945C143.873 27.6656 143.214 28.099 142.481 28.3575C141.889 28.5609 141.265 28.6535 140.64 28.6306C140.219 28.6054 139.804 28.5172 139.408 28.3689C139.26 28.3199 139.12 28.251 138.99 28.1641C139.526 28.3318 140.08 28.4312 140.64 28.4599C141.244 28.4643 141.845 28.3603 142.414 28.1527C143.103 27.8901 143.725 27.4739 144.233 26.9352L144.481 26.6394L144.685 26.3321L144.764 26.2184L144.854 26.298C145.371 26.6842 146.009 26.8701 146.65 26.8214C147.167 26.777 147.67 26.6301 148.131 26.389C148.854 25.968 149.249 25.5356 149.339 25.5698Z" fill="#455A64"/>
<path d="M153.557 32.7952C153.557 32.7952 153.557 32.7952 153.557 32.9431C153.528 33.0773 153.474 33.2048 153.398 33.3186C153.109 33.756 152.664 34.0654 152.156 34.1833C151.4 34.3465 150.613 34.2792 149.896 33.9899C149.473 33.863 149.058 33.711 148.653 33.5348C148.176 33.3543 147.777 33.0124 147.523 32.5676V32.4424H147.704C147.027 33.0358 146.265 33.5229 145.444 33.8875C144.757 34.1818 144.002 34.2764 143.264 34.1606C142.771 34.0839 142.305 33.8844 141.908 33.5803C141.802 33.4939 141.704 33.3988 141.614 33.2958L141.535 33.1707C141.535 33.1707 141.682 33.3072 141.964 33.5006C142.359 33.7713 142.812 33.9429 143.286 34.0013C143.995 34.0821 144.712 33.9721 145.365 33.6827C146.184 33.3236 146.946 32.8443 147.625 32.2604L147.749 32.158L147.806 32.3059V32.4083C148.024 32.7996 148.372 33.1015 148.789 33.2617C149.183 33.44 149.586 33.5957 149.998 33.7282C150.67 34.0056 151.405 34.0884 152.122 33.9671C152.597 33.8688 153.022 33.6024 153.319 33.2162C153.406 33.0804 153.485 32.9398 153.557 32.7952V32.7952Z" fill="#455A64"/>
<path d="M161.283 4.56543C161.283 4.56543 161.147 4.56543 160.91 4.6337C160.573 4.74371 160.275 4.94914 160.052 5.22539C159.704 5.64882 159.509 6.17814 159.498 6.72735C159.504 7.45348 159.618 8.1746 159.837 8.86653V8.9917H159.713C158.747 8.98341 157.806 9.29531 157.035 9.87922C156.597 10.1957 156.241 10.6126 155.995 11.0954C155.75 11.5783 155.622 12.1131 155.623 12.6556C155.607 13.1494 155.706 13.64 155.912 14.0884C156.118 14.5369 156.425 14.9307 156.809 15.2385L157.08 15.4433H156.741C156.19 15.47 155.65 15.6099 155.155 15.8545C154.659 16.0991 154.219 16.4432 153.86 16.8657C153.277 17.5438 152.946 18.4043 152.922 19.3007C152.9 19.8888 153.004 20.4748 153.227 21.0188C153.374 21.4057 153.499 21.5992 153.487 21.6105C153.449 21.5687 153.415 21.5229 153.386 21.474C153.293 21.3418 153.214 21.2008 153.148 21.053C152.9 20.4988 152.773 19.8973 152.775 19.2893C152.786 18.3561 153.118 17.4555 153.713 16.7405C154.096 16.2932 154.567 15.9308 155.096 15.6762C155.625 15.4216 156.2 15.2803 156.786 15.2613L156.719 15.4661C156.305 15.1376 155.974 14.7167 155.75 14.2368C155.527 13.7568 155.417 13.2311 155.431 12.7011C155.428 12.1098 155.572 11.5271 155.849 11.0057C156.13 10.5073 156.515 10.0764 156.978 9.74269C157.794 9.14108 158.781 8.82171 159.792 8.8324L159.69 8.95756C159.479 8.24901 159.377 7.51244 159.385 6.77288C159.407 6.18775 159.631 5.62867 160.018 5.19126C160.259 4.90761 160.583 4.7084 160.944 4.62233C161.038 4.60723 161.133 4.60723 161.226 4.62233L161.283 4.56543Z" fill="#455A64"/>
<path d="M175.552 21.2461L175.417 21.3257C175.338 21.3257 175.214 21.4395 175.033 21.5078C174.535 21.7156 174.01 21.8498 173.474 21.906C172.649 21.9916 171.815 21.9104 171.022 21.6671C170.002 21.3569 169.082 20.7797 168.355 19.9944H168.536C168.18 20.6412 167.686 21.2009 167.091 21.6336C166.495 22.0662 165.812 22.3613 165.09 22.4977C164.31 22.6217 163.512 22.4963 162.806 22.1391C162.101 21.7819 161.525 21.2109 161.158 20.5064H161.362C161.183 21.026 160.871 21.489 160.458 21.8491C160.086 22.1784 159.657 22.4367 159.193 22.6115C158.436 22.8793 157.631 22.984 156.831 22.9187C156.315 22.8805 155.802 22.8082 155.295 22.7025C155.114 22.6726 154.936 22.6269 154.764 22.566C154.946 22.573 155.128 22.5959 155.306 22.6343C155.815 22.7099 156.328 22.7593 156.843 22.7822C157.611 22.8211 158.379 22.7051 159.102 22.4408C159.565 22.2753 159.987 22.0105 160.338 21.6647C160.689 21.3189 160.961 20.9004 161.136 20.4382L161.215 20.1651L161.339 20.4268C161.686 21.0825 162.227 21.6127 162.887 21.9432C163.548 22.2737 164.294 22.388 165.023 22.2701C165.712 22.1417 166.365 21.8621 166.935 21.4511C167.505 21.0401 167.979 20.5079 168.322 19.892L168.401 19.7668L168.502 19.8806C169.193 20.6467 170.075 21.2125 171.056 21.5191C171.824 21.7697 172.634 21.8663 173.44 21.8036C174.167 21.7213 174.879 21.5335 175.552 21.2461V21.2461Z" fill="#455A64"/>
<path d="M167.633 32.8975C167.633 32.8975 167.633 32.8975 167.542 33.0455C167.425 33.1584 167.274 33.2302 167.113 33.2503C166.525 33.3067 165.933 33.2209 165.384 32.9999C164.462 32.6486 163.691 31.9825 163.205 31.1175C162.72 30.2526 162.552 29.2437 162.729 28.2665V28.2665L162.899 28.3916C161.944 28.8921 160.855 29.0716 159.792 28.9037C158.929 28.7683 158.109 28.4333 157.396 27.9251C156.926 27.6052 156.5 27.2224 156.131 26.7872C155.986 26.6272 155.864 26.4471 155.77 26.2524C156.271 26.8529 156.848 27.3846 157.487 27.8341C158.19 28.2973 158.984 28.6038 159.814 28.733C160.832 28.8781 161.87 28.7033 162.786 28.2323L162.989 28.1185V28.3575C162.819 29.2884 162.974 30.2498 163.427 31.0791C163.88 31.9084 164.603 32.5548 165.475 32.9089C165.998 33.1395 166.565 33.2484 167.136 33.2275C167.336 33.1837 167.514 33.066 167.633 32.8975V32.8975Z" fill="#455A64"/>
<path d="M144.267 5.22485C144.02 6.00725 143.916 6.82863 143.962 7.64848C144.04 8.52376 144.319 9.36892 144.775 10.1176C145.361 11.0245 146.203 11.7339 147.193 12.1544C147.758 12.405 148.362 12.5515 148.978 12.5868H149.125V12.7233C148.692 14.2256 148.783 15.8324 149.385 17.2748C149.474 17.5117 149.584 17.7402 149.713 17.9575C149.753 18.0401 149.811 18.1121 149.884 18.1674C149.956 18.2228 150.041 18.2601 150.131 18.2761C150.188 18.2824 150.245 18.2765 150.3 18.2589C150.354 18.2413 150.405 18.2122 150.447 18.1737C150.447 18.1737 150.504 18.0713 150.515 18.0713C150.526 18.0713 150.515 18.0713 150.515 18.1964C150.475 18.2477 150.423 18.2887 150.364 18.3164C150.305 18.344 150.241 18.3575 150.176 18.3557C150.072 18.3433 149.972 18.3071 149.884 18.2499C149.796 18.1927 149.722 18.1161 149.668 18.0258C149.521 17.8075 149.396 17.575 149.295 17.3317C149.004 16.6906 148.817 16.0068 148.741 15.3063C148.64 14.4289 148.709 13.5401 148.945 12.6892L149.046 12.8371C148.403 12.8037 147.772 12.6534 147.182 12.3934C146.15 11.958 145.275 11.2156 144.674 10.2656C144.199 9.48532 143.927 8.5969 143.883 7.68261C143.85 7.0686 143.919 6.45338 144.086 5.86205C144.134 5.7054 144.194 5.55311 144.267 5.4069C144.233 5.28173 144.256 5.22485 144.267 5.22485Z" fill="#455A64"/>
<path d="M122.858 80.9153C122.858 80.9153 121.728 94.4558 132.224 95.4798C142.72 96.5039 146.855 86.9345 146.912 82.4627L141.907 79.3223L122.858 80.9153Z" fill="#B78876"/>
<path d="M123.932 60.6387C124.056 60.8208 123.932 60.6956 124.113 60.8322C124.776 61.3887 125.545 61.803 126.372 62.0497C126.76 62.1735 127.176 62.1779 127.566 62.0624C127.957 61.9468 128.304 61.7166 128.564 61.4011C128.741 61.0826 128.815 60.7168 128.776 60.354C128.738 59.9913 128.589 59.6495 128.349 59.3757C127.839 58.7682 127.13 58.3646 126.35 58.2378H126.135C125.842 58.1859 125.542 58.2025 125.257 58.2865C124.972 58.3705 124.71 58.5195 124.491 58.7221C124.273 58.9246 124.103 59.1752 123.996 59.4543C123.89 59.7334 123.848 60.0336 123.875 60.3315C123.874 60.4366 123.894 60.5409 123.932 60.6387V60.6387Z" fill="#AA6550"/>
<path d="M129.513 58.8181C128.561 59.5172 127.505 60.0588 126.384 60.4225C125.322 60.9681 124.176 61.326 122.994 61.4807C123.946 60.7817 125.002 60.24 126.124 59.8763C127.184 59.3278 128.331 58.9697 129.513 58.8181Z" fill="#263238"/>
<path d="M107.833 84.7044L122.453 79.8003C126.757 90.4051 140.756 88.9031 146.778 78.9583L164.2 84.9206L173.995 104.651L166.64 146.331V146.331C173.003 162.365 161.283 180 144.032 180V180H126.604C117.348 180 109.844 172.496 109.844 163.239V163.239L104.488 92.2257L107.833 84.7044Z" fill="url(#paint0_linear)"/>
<path d="M107.831 84.7046C107.831 84.7046 96.2164 89.5633 95.0075 102.489C94.5329 107.485 91.0305 130.879 91.0305 130.879L74.6141 128.91L70.6484 142.098C70.6484 142.098 89.0081 151.736 94.6798 152.987C104.464 155.149 109.198 149.574 109.198 149.574L107.831 84.7046Z" fill="#FFC100"/>
<path d="M104.715 100.475C104.742 100.691 104.742 100.909 104.715 101.124C104.715 101.579 104.715 102.193 104.658 102.956C104.602 103.718 104.59 104.731 104.658 105.857C104.726 106.984 104.658 108.281 104.658 109.703C104.658 111.126 104.749 112.685 104.862 114.357C104.975 116.03 105.099 117.771 105.246 119.694C105.596 123.449 106.048 127.556 106.613 131.88C107.743 140.505 108.872 148.311 109.336 154C109.482 155.422 109.573 156.708 109.641 157.846C109.708 158.984 109.788 159.951 109.81 160.748C109.833 161.544 109.81 162.124 109.867 162.58C109.894 162.795 109.894 163.013 109.867 163.228C109.828 163.017 109.802 162.805 109.788 162.591L109.652 160.759C109.607 159.963 109.528 158.995 109.415 157.858C109.313 156.72 109.2 155.445 109.042 154.034C108.454 148.345 107.325 140.562 106.195 131.926C105.63 127.613 105.178 123.483 104.862 119.728C104.726 117.839 104.568 116.053 104.511 114.38C104.455 112.707 104.376 111.137 104.364 109.703C104.353 108.27 104.364 106.984 104.364 105.857C104.364 104.731 104.421 103.741 104.489 102.944C104.556 102.148 104.59 101.579 104.636 101.113C104.647 100.899 104.674 100.686 104.715 100.475Z" fill="#263238"/>
<path d="M73.8691 102.944C73.8691 102.944 78.8743 98.0626 80.7837 98.6542C82.0856 99.119 83.2836 99.8382 84.3087 100.771C84.3087 100.771 86.2181 99.6328 87.2463 100.771C88.0454 101.762 88.7349 102.838 89.3025 103.979C89.3025 103.979 91.1216 103.718 92.5338 106.084C93.9461 108.451 97.4147 116.405 98.714 117.736C100.057 119.011 101.679 119.95 103.448 120.478C105.312 121.15 120.915 126.452 120.915 126.452L115.164 140.892C115.164 140.892 92.2401 127.385 91.3588 126.498C90.4775 125.61 83.5743 121.025 82.5462 118.203C81.518 115.381 73.8691 106.824 73.8691 106.824V102.944Z" fill="#B78876"/>
<path d="M89.0444 108.668C89.0444 108.668 89.0444 108.884 88.7732 109.214C88.4348 109.687 87.9735 110.057 87.44 110.284L87.5304 110.136C87.6724 111.242 87.4202 112.363 86.8186 113.299C86.6404 113.582 86.4279 113.842 86.1859 114.073C85.9148 114.347 85.5612 114.523 85.1804 114.573C84.9665 114.583 84.7542 114.532 84.5681 114.425C84.3821 114.319 84.23 114.161 84.1296 113.97C83.9427 113.618 83.831 113.231 83.802 112.832C83.6212 111.512 83.4518 110.284 83.3275 109.134C83.2435 108.543 83.3936 107.942 83.7455 107.462C84.0725 107.086 84.4774 106.787 84.9318 106.586C85.5585 106.341 86.1601 106.037 86.7282 105.675C87.1011 105.402 87.248 105.175 87.2819 105.197C87.3158 105.22 87.2028 105.47 86.8299 105.812C86.2856 106.233 85.694 106.588 85.0674 106.87C84.6695 107.065 84.3157 107.34 84.028 107.678C83.7525 108.096 83.6473 108.606 83.7342 109.1C83.8811 110.238 84.0505 111.478 84.2313 112.776C84.2991 113.458 84.5929 114.175 85.1578 114.118C85.7218 113.953 86.2 113.574 86.491 113.06C87.0433 112.204 87.294 111.186 87.2028 110.17V110.067H87.3044C87.8109 109.875 88.2642 109.563 88.6264 109.157C88.9088 108.827 89.0218 108.645 89.0444 108.668Z" fill="#AA6550"/>
<path d="M90.5017 112.946C90.5017 113.049 89.6995 112.753 89.1685 111.956C88.6374 111.16 88.6261 110.341 88.7391 110.329C88.8521 110.318 89.0442 111.001 89.53 111.706C90.0158 112.412 90.5921 112.833 90.5017 112.946Z" fill="#AA6550"/>
<path d="M89.9343 122.22C89.7988 122.22 89.8552 120.763 89.3016 119.09C88.748 117.418 87.8893 116.269 88.0023 116.189C88.8501 116.905 89.4513 117.873 89.7197 118.954C90.1268 119.994 90.2019 121.135 89.9343 122.22V122.22Z" fill="#AA6550"/>
<path d="M83.9117 110.17C83.9117 110.17 83.9118 110.432 83.7084 110.875C83.4757 111.518 83.0638 112.079 82.5221 112.491C82.1175 112.786 81.617 112.916 81.1211 112.855C80.8394 112.801 80.573 112.686 80.3406 112.517C80.1083 112.348 79.9157 112.129 79.7766 111.877C79.4828 111.359 79.2694 110.798 79.1439 110.215C78.9916 109.606 78.8821 108.986 78.8162 108.361C78.6915 107.115 78.9989 105.865 79.6862 104.822C80.2246 103.988 80.8965 103.25 81.6747 102.637C82.33 102.114 82.8949 101.738 83.279 101.499C83.4758 101.354 83.6929 101.239 83.9231 101.158C83.9231 101.226 83.1096 101.807 81.8781 102.888C81.1521 103.506 80.5269 104.236 80.0251 105.049C79.4105 106.028 79.1362 107.185 79.2456 108.338C79.3151 108.939 79.4208 109.536 79.5619 110.124C79.67 110.668 79.8565 111.193 80.1156 111.683C80.2242 111.889 80.375 112.07 80.558 112.213C80.7411 112.356 80.9523 112.459 81.1776 112.514C81.5741 112.556 81.973 112.459 82.3074 112.241C82.8273 111.88 83.241 111.385 83.505 110.807C83.6137 110.578 83.7503 110.364 83.9117 110.17Z" fill="#AA6550"/>
<g opacity="0.3">
<path opacity="0.3" d="M152.223 147.856C150.799 149.278 149.206 150.746 147.229 151.076C145.447 151.209 143.663 150.868 142.054 150.086L113.808 139.276L111.549 142.417C121.254 150.382 133.377 157.288 145.353 160.213C147.323 160.675 149.368 160.712 151.352 160.319C153.337 159.927 155.216 159.115 156.866 157.937C159.374 156.094 160.911 153.215 162.176 150.359C165.116 143.69 167.021 136.606 167.825 129.354C163.161 135.96 157.941 142.15 152.223 147.856V147.856Z" fill="black"/>
</g>
<path d="M159.511 93.9324C158.8 94.6947 142.395 129.957 142.395 129.957L110.567 122.788L106.975 140.437C106.975 140.437 135.819 153.329 143.366 155.616C148.191 157.083 151.501 156.754 156.224 152.202C160.946 147.651 172.911 118.465 174.301 112.593C175.566 107.006 180.142 92.1687 164.245 84.875L159.511 93.9324Z" fill="#FFC100"/>
<path d="M85.0991 119.386C85.3539 119.292 85.5847 119.142 85.7745 118.947C85.9643 118.752 86.1084 118.516 86.1961 118.258C86.2839 117.999 86.3131 117.724 86.2816 117.453C86.2501 117.182 86.1588 116.921 86.0142 116.689L67.1461 84.7498C66.9967 84.4669 66.7575 84.2426 66.4667 84.1127C66.1759 83.9828 65.8503 83.9547 65.5418 84.0329L47.5211 89.0509C46.0975 89.3239 45.7021 91.7135 46.3122 92.7261L65.3045 123.187C65.7206 123.686 66.2569 124.07 66.8622 124.301C67.4675 124.532 68.1215 124.603 68.7618 124.507" fill="#263238"/>
<path d="M85.7091 118.863C85.5701 118.706 85.4488 118.535 85.3475 118.351L84.3985 116.815L80.9412 111.126L69.643 92.26C68.5132 90.428 67.485 88.5619 66.4343 86.912C66.166 86.5789 65.7971 86.3432 65.3835 86.2407C64.9827 86.1618 64.5679 86.1972 64.1859 86.3431L61.7568 87.0144L53.3622 89.2901L47.6566 90.8262L46.1087 91.2131C45.9328 91.2694 45.7507 91.3038 45.5664 91.3155C45.7322 91.2322 45.9064 91.1674 46.0861 91.1221L47.6227 90.6556L53.2718 89.0057L61.6551 86.6275L64.0729 85.9335C64.503 85.7754 64.9672 85.7361 65.4174 85.8197C65.9002 85.9433 66.3314 86.2183 66.6489 86.6048C67.7788 88.3571 68.7843 90.1549 69.9028 91.9982L81.122 110.944C82.523 113.356 83.6754 115.313 84.5115 116.713L85.4154 118.294C85.527 118.476 85.6252 118.666 85.7091 118.863V118.863Z" fill="#455A64"/>
<path d="M59.3398 93.9777C59.3353 94.1747 59.2733 94.366 59.1614 94.5276C59.0494 94.6893 58.8927 94.8141 58.7106 94.8864C58.5286 94.9587 58.3295 94.9753 58.1381 94.9342C57.9468 94.893 57.7717 94.7959 57.6349 94.655C57.4981 94.5141 57.4056 94.3357 57.3691 94.1421C57.3325 93.9485 57.3535 93.7483 57.4293 93.5667C57.5052 93.385 57.6326 93.23 57.7956 93.1209C57.9586 93.0119 58.1499 92.9537 58.3455 92.9536C58.4776 92.9551 58.6081 92.9828 58.7295 93.035C58.8509 93.0873 58.961 93.1632 59.0533 93.2583C59.1456 93.3533 59.2184 93.4658 59.2676 93.5893C59.3168 93.7127 59.3413 93.8447 59.3398 93.9777Z" fill="white"/>
<path d="M59.9045 100.578C59.8028 101.203 55.7355 113.617 55.1254 114.835C54.5152 116.053 55.1254 118.397 55.1254 118.397C55.1254 118.397 53.7131 121.366 55.9388 123.414C55.9388 123.414 56.1083 126.077 57.2946 126.589C58.1159 127.003 58.8341 127.598 59.3961 128.33C59.3961 128.33 66.1073 137.535 66.8191 138.457C68.0325 139.736 69.311 140.952 70.6492 142.098C70.6492 142.098 80.1284 138.628 75.1007 129.582L72.2422 127.761L73.2252 120.41C73.2252 120.41 75.5639 118.556 75.0555 117.316C75.0095 117.162 74.932 117.021 74.828 116.9C74.7239 116.779 74.5958 116.682 74.4519 116.614C74.3079 116.546 74.1515 116.51 73.9927 116.507C73.8338 116.505 73.6763 116.536 73.5302 116.599C73.5302 116.599 74.4228 114.039 72.2422 113.629L63.8702 117.702C63.8702 117.702 70.073 111.41 69.1578 109.669C68.2426 107.928 67.8359 108.213 67.8359 108.213L59.8028 115.04C59.8028 115.04 61.8026 107.507 62.345 105.106C63.3618 100.578 59.9045 100.578 59.9045 100.578Z" fill="#B78876"/>
<path d="M73.4171 116.997C72.9808 117.607 72.4724 118.161 71.9032 118.647C70.5839 119.874 69.1541 120.975 67.6324 121.935C66.1094 122.894 64.502 123.709 62.8307 124.37C62.1471 124.671 61.4302 124.889 60.6953 125.019C61.3414 124.657 62.0137 124.346 62.7064 124.086C64.3248 123.35 65.8947 122.51 67.4065 121.571C68.905 120.613 70.3392 119.556 71.6998 118.408C72.2394 117.899 72.8132 117.427 73.4171 116.997Z" fill="#AA6550"/>
<path d="M67.835 108.167C67.4436 108.758 66.972 109.29 66.434 109.749C65.5075 110.659 64.1744 111.842 62.6039 113.083C60.7945 114.658 58.8074 116.014 56.6836 117.122C57.2065 116.656 57.7574 116.223 58.3332 115.825C59.3726 115.051 60.7849 113.959 62.3327 112.73C63.8806 111.501 65.259 110.363 66.2306 109.521C66.7313 109.03 67.2675 108.578 67.835 108.167V108.167Z" fill="#AA6550"/>
<path d="M72.1621 118.931C72.1621 118.931 72.309 118.749 72.6706 118.817C72.9157 118.891 73.1316 119.041 73.2878 119.245C73.4439 119.449 73.5323 119.698 73.5405 119.955C73.4649 120.682 73.132 121.356 72.6028 121.855C72.1169 122.436 71.552 123.073 70.9419 123.71C69.8983 124.809 68.785 125.839 67.6089 126.794C67.1469 127.221 66.6301 127.585 66.0724 127.875C65.9933 127.772 68.2077 125.963 70.5917 123.414C71.2018 122.777 71.7215 122.163 72.2638 121.582C72.7465 121.159 73.0763 120.587 73.2016 119.955C73.2042 119.752 73.1479 119.552 73.0396 119.38C72.9312 119.208 72.7755 119.072 72.5915 118.988C72.3542 118.874 72.1734 118.965 72.1621 118.931Z" fill="#AA6550"/>
<path d="M71.3807 127.408C71.2791 127.477 70.8497 126.987 70.2509 126.498C69.6521 126.009 69.1211 125.679 69.1211 125.565C69.1211 125.451 69.8442 125.565 70.4995 126.157C71.1548 126.748 71.4937 127.34 71.3807 127.408Z" fill="#AA6550"/>
<path d="M71.621 132.585C71.6775 132.585 71.6775 133.029 71.3951 133.643C71.0298 134.462 70.3954 135.129 69.5987 135.532C68.7973 135.931 67.8861 136.047 67.0113 135.862C66.3447 135.703 66.0058 135.441 66.0284 135.396C66.3739 135.428 66.7173 135.481 67.0565 135.555C67.8591 135.651 68.672 135.509 69.3949 135.145C70.1178 134.781 70.7188 134.211 71.1239 133.507C71.4515 132.927 71.5532 132.574 71.621 132.585Z" fill="#AA6550"/>
<path d="M72.3766 113.663C71.7919 114.106 71.1634 114.487 70.501 114.801C69.3712 115.427 67.6652 116.246 65.801 117.076C63.9368 117.907 62.242 118.613 60.9879 119.09C60.3285 119.391 59.6392 119.62 58.9316 119.773C59.5455 119.386 60.1965 119.062 60.8749 118.806L65.6315 116.667L70.3655 114.516C71.0039 114.161 71.678 113.875 72.3766 113.663V113.663Z" fill="#AA6550"/>
<path d="M156.333 100.475C156.333 100.475 156.265 100.669 156.107 101.021C155.949 101.374 155.712 101.898 155.407 102.569L152.65 108.497C150.232 113.629 146.775 121.014 142.538 130.026L142.47 130.151H142.346L110.508 123.028L110.767 122.868C109.638 128.558 108.417 134.429 107.175 140.517L107.05 140.266L109.559 141.404C120.394 146.172 130.731 150.723 140.301 154.398C142.578 155.377 144.989 156.003 147.453 156.253C149.79 156.302 152.07 155.52 153.893 154.046C154.796 153.395 155.632 152.656 156.39 151.838C156.758 151.448 157.09 151.025 157.384 150.575C157.678 150.12 158.005 149.699 158.265 149.244C158.808 148.322 159.327 147.435 159.802 146.524C160.276 145.614 160.728 144.749 161.158 143.873C164.547 136.875 166.942 131.015 168.614 126.987L170.501 122.334L170.987 121.127C171.1 120.854 171.168 120.718 171.168 120.718L171.032 121.139L170.58 122.368C170.174 123.449 169.575 125.03 168.773 127.056C167.146 131.106 164.83 136.978 161.44 144.01C161.011 144.886 160.57 145.785 160.084 146.684C159.598 147.583 159.09 148.493 158.548 149.415C158.288 149.881 157.96 150.314 157.666 150.78C157.36 151.244 157.016 151.682 156.638 152.089C155.868 152.926 155.021 153.688 154.108 154.364C153.17 155.082 152.135 155.661 151.034 156.082C149.888 156.517 148.666 156.714 147.442 156.663C144.933 156.416 142.475 155.787 140.154 154.797C130.562 151.133 120.224 146.593 109.389 141.825L106.881 140.687L106.723 140.608V140.437C107.954 134.361 109.163 128.444 110.315 122.789V122.573L110.519 122.629L142.335 129.832L142.143 129.923L152.401 108.452C153.622 105.926 154.571 103.9 155.237 102.569C155.554 101.909 155.814 101.431 155.983 101.044L156.333 100.475Z" fill="#263238"/>
<path d="M168.752 153.886C168.515 154.154 168.25 154.394 167.961 154.603C167.441 155.047 166.65 155.65 165.645 156.344C160.353 159.983 154.312 162.368 147.974 163.319C146.765 163.49 145.782 163.592 145.093 163.615C144.741 163.662 144.384 163.662 144.031 163.615C144.376 163.523 144.727 163.462 145.082 163.433C145.76 163.353 146.732 163.205 147.929 163C151.044 162.436 154.097 161.571 157.047 160.418C159.99 159.248 162.813 157.792 165.475 156.071C166.492 155.411 167.306 154.853 167.859 154.455C168.134 154.232 168.434 154.041 168.752 153.886V153.886Z" fill="#263238"/>
<path d="M97.9441 147.344C97.865 147.344 98.0796 146.263 98.0683 144.522C98.0579 143.503 97.9634 142.487 97.7859 141.484C97.5544 140.264 97.2141 139.069 96.7691 137.911C96.2883 136.761 95.7059 135.656 95.0291 134.611C94.4649 133.768 93.8339 132.973 93.1423 132.233C91.9447 130.981 91.0522 130.367 91.0973 130.299C91.1425 130.23 91.3459 130.412 91.7526 130.685C92.0039 130.848 92.2419 131.031 92.4644 131.232C92.7768 131.476 93.0749 131.738 93.357 132.017C94.1028 132.737 94.7765 133.53 95.3681 134.383C96.0824 135.456 96.6844 136.6 97.1645 137.797C97.631 138.983 97.9719 140.215 98.1813 141.472C98.3499 142.499 98.4142 143.539 98.3734 144.579C98.3694 144.978 98.3392 145.378 98.283 145.773C98.2576 146.072 98.2123 146.369 98.1474 146.661C98.0458 147.093 97.978 147.355 97.9441 147.344Z" fill="#263238"/>
<path d="M101.22 142.974C101.141 142.974 101.005 142.132 100.587 140.824C99.4939 137.389 97.3801 134.374 94.5315 132.187C93.4017 131.345 92.6899 130.936 92.7238 130.867C92.9227 130.908 93.1135 130.981 93.2887 131.084C93.7824 131.33 94.258 131.612 94.7123 131.926C96.2133 132.975 97.5209 134.281 98.5763 135.783C99.6134 137.286 100.378 138.961 100.836 140.733C100.986 141.269 101.092 141.817 101.152 142.371C101.21 142.567 101.232 142.771 101.22 142.974V142.974Z" fill="#263238"/>
<path d="M168.548 157.289C168.548 157.289 168.39 157.505 168.051 157.846C167.712 158.187 167.203 158.654 166.559 159.212C164.879 160.667 163.105 162.009 161.249 163.228C159.396 164.447 157.467 165.545 155.476 166.517C154.707 166.881 154.075 167.165 153.634 167.336C153.415 167.45 153.178 167.527 152.934 167.563C153.712 167.078 154.515 166.633 155.34 166.232C156.82 165.436 158.854 164.275 160.989 162.819C163.125 161.362 165.023 159.985 166.345 158.938C167.046 158.345 167.782 157.794 168.548 157.289Z" fill="#263238"/>
<path d="M44.0078 80.2565L42.0892 73.0998C45.0571 68.247 46.1153 62.4517 45.0559 56.853C43.9964 51.2543 40.896 46.2572 36.3639 42.8439C31.8318 39.4306 26.1959 37.8479 20.564 38.4071C14.9321 38.9662 9.71155 41.6266 5.92848 45.8655C2.14541 50.1043 0.0734641 55.6149 0.119905 61.3142C0.166345 67.0134 2.32781 72.4891 6.17945 76.6648C10.0311 80.8406 15.2943 83.4144 20.9346 83.8803C26.5748 84.3463 32.1842 82.6707 36.66 79.183V79.183L44.0078 80.2565Z" fill="white"/>
<path d="M2.97633 50.6132L2.39362 51.837C2.30124 52.0445 2.18754 52.2449 2.10937 52.4525L1.87487 53.0823L1.42007 54.3776C1.28506 54.7999 1.19268 55.2364 1.07898 55.6658C0.224093 59.0369 0.153563 62.5613 0.872894 65.9643C1.56737 69.1639 2.93663 72.1757 4.8879 74.7957C8.36572 79.4682 13.5053 82.6026 19.2282 83.5412C20.4597 83.7419 21.7044 83.8496 22.9518 83.8633C24.1182 83.8608 25.2825 83.7651 26.4339 83.577C30.1388 82.9764 33.6377 81.4591 36.617 79.1613C36.6315 79.1477 36.6506 79.1402 36.6703 79.1402C36.6901 79.1402 36.7092 79.1477 36.7236 79.1613C36.7325 79.1752 36.7372 79.1913 36.7372 79.2078C36.7372 79.2243 36.7325 79.2405 36.7236 79.2544V79.2544L36.6739 79.1327L42.1101 79.9629L43.5314 80.1847L44.0217 80.2635L43.5598 80.2134L42.1385 80.0273L36.6312 79.3116C36.6212 79.3108 36.6114 79.3079 36.6026 79.303C36.5938 79.2981 36.5861 79.2913 36.58 79.2832C36.574 79.2751 36.5697 79.2658 36.5675 79.2559C36.5653 79.2459 36.5652 79.2357 36.5673 79.2257L36.6739 79.3259C33.6903 81.6744 30.1696 83.232 26.4339 83.8561C25.271 84.0495 24.0949 84.15 22.9163 84.1567C21.6549 84.1512 20.3958 84.0484 19.15 83.849C13.3474 82.9265 8.12968 79.7639 4.60364 75.0319C2.5425 72.3037 1.12143 69.1409 0.447006 65.7808C-0.227419 62.4206 -0.137693 58.9503 0.709454 55.63C0.823153 55.1935 0.922644 54.7498 1.05766 54.3204C1.19268 53.891 1.36322 53.4687 1.51956 53.0393L1.75407 52.3952C1.83934 52.1877 1.94593 51.9801 2.04542 51.7726L2.63524 50.5345C2.83421 50.1194 3.10425 49.7401 3.34586 49.3393C3.55966 48.9344 3.79694 48.5424 4.05647 48.1656C4.58609 47.3981 5.1653 46.6665 5.79038 45.9756C6.10305 45.6321 6.40862 45.26 6.7355 44.9379L7.81564 43.9145L8.33439 43.4493L8.88868 43.0342L9.99725 42.2112C14.4472 39.1876 19.8056 37.8233 25.1477 38.3537C29.7101 38.8336 34.0229 40.6877 37.523 43.6739C41.0231 46.6601 43.5479 50.6398 44.7678 55.0933C44.846 55.4082 44.9313 55.7302 45.0094 56.038C45.0972 56.3475 45.1613 56.6633 45.2013 56.9827C45.2937 57.6125 45.3861 58.2279 45.4713 58.8363C45.566 60.0265 45.5897 61.2215 45.5424 62.4146C45.3355 66.2206 44.1795 69.9126 42.1812 73.1497V73.0924C42.7852 75.4255 43.2542 77.2219 43.6024 78.4456C43.7516 79.0397 43.8654 79.4905 43.9506 79.8054C44.0359 80.1203 44.0572 80.2563 44.0572 80.2563L43.9151 79.784C43.8298 79.4595 43.7019 79.0015 43.5314 78.4099L42.0675 73.1282C42.0604 73.1098 42.0604 73.0894 42.0675 73.071C44.0198 69.8456 45.141 66.1801 45.3292 62.4075C45.3708 61.2331 45.3424 60.0573 45.244 58.8864C45.1516 58.2852 45.0592 57.6697 44.9668 57.0471C44.9243 56.7323 44.8578 56.4212 44.7678 56.1167C44.6897 55.809 44.6115 55.5012 44.5262 55.1863C43.8025 52.5277 42.598 50.0263 40.9731 47.8078C37.5195 43.1034 32.3953 39.9241 26.6701 38.9333C20.9448 37.9425 15.0607 39.2169 10.246 42.4903L9.15871 43.3062L8.61153 43.7213L8.09989 44.1793L7.08371 45.1097C6.76393 45.4317 6.46547 45.8253 6.1528 46.1259C5.53895 46.8057 4.96702 47.5227 4.4402 48.2729" fill="#263238"/>
<g clip-path="url(#clip0)">
<path d="M35.3352 51.941C34.7147 51.3159 33.7103 51.3159 33.0897 51.9409L18.0963 67.0409L12.4715 61.3761C11.851 60.751 10.8465 60.751 10.226 61.376C9.60695 61.9995 9.60695 63.014 10.226 63.6374L16.9737 70.4331C17.594 71.0578 18.5986 71.0579 19.2191 70.4331L35.3352 54.2023C35.9542 53.5788 35.9542 52.5643 35.3352 51.941Z" fill="#B7E183"/>
<path d="M35.3343 51.941C34.7138 51.3159 33.7093 51.3159 33.0888 51.9409L22.1445 62.963V67.4857L35.3343 54.2023C35.9533 53.5788 35.9533 52.5643 35.3343 51.941Z" fill="#71DE56"/>
</g>
<defs>
<linearGradient id="paint0_linear" x1="142.245" y1="78.9583" x2="142.245" y2="180" gradientUnits="userSpaceOnUse">
<stop stop-color="#FFC100"/>
<stop offset="1" stop-color="#FFC100" stop-opacity="0"/>
</linearGradient>
<clipPath id="clip0">
<rect width="26.0377" height="26.2229" fill="white" transform="translate(9.76172 48.0754)"/>
</clipPath>
</defs>
</svg>
