<svg id="Capa_1" enable-background="new 0 0 497 497" height="512" viewBox="0 0 497 497" width="512" xmlns="http://www.w3.org/2000/svg"><g><path d="m443.5 7.5v339.5l-90 45v-362l60-30h22.5c4.142 0 7.5 3.358 7.5 7.5z" fill="#1e8aff"/><path d="m413.5 0h-315c-24.85 0-45 20.15-45 45v347h360v-75l-150-143.5 150-143.5z" fill="#54a5ff"/><path d="m383.5 317-120-143.5 120-143.5h30v287z" fill="#1b74d6"/><path d="m128.5 317v-287h255v60l-120 83.5 120 83.5v60z" fill="#1e8aff"/><path d="m353.5 60-90 113.5 90 113.5c0-16.569 13.431-30 30-30v-167c-16.569 0-30-13.431-30-30z" fill="#54a5ff"/><path d="m188.5 60c0 16.569-13.431 30-30 30v167c16.569 0 30 13.431 30 30h165v-227z" fill="#89c1ff"/><path d="m443.5 347h-30l-70 75 70 75h22.5c4.142 0 7.5-3.358 7.5-7.5v-22.5l-60-45 60-45z" fill="#1b74d6"/><path d="m98.5 347c-24.85 0-45 20.15-45 45v60c0 24.85 20.15 45 45 45h315v-150z" fill="#1e8aff"/><path d="m426.64 437-26.92-15h-36.944l43.624 45h37.1c-8.59-8.59-14.21-19.01-16.86-30z" fill="#ffd17e"/><path d="m406.401 377-43.624 45h36.944l26.92-15c2.65-10.99 8.27-21.41 16.86-30z" fill="#fff7e8"/><path d="m406.401 377h-307.901v45l37.5.111 260.128-.111v-15c1.673-10.392 5.098-20.548 10.273-30z" fill="#fff"/><path d="m396.128 437v-15h-297.628v45h307.901c-5.175-9.452-8.6-19.608-10.273-30z" fill="#ffe7ba"/><path d="m426.64 407h-30.512l-26.407 15 26.407 15h30.512c-2.39-9.85-2.39-20.15 0-30z" fill="#ffe7ba"/><path d="m396.128 407h-297.628v30h297.628c-1.599-9.932-1.599-20.068 0-30z" fill="#fff7e8"/><path d="m98.5 377c-8.284 0-15 6.716-15 15v60c0 8.284 6.716 15 15 15s15-6.716 15-15v-60c0-8.284-6.716-15-15-15z" fill="#3d5168"/></g></svg>