<svg width="243" height="281" viewBox="0 0 243 281" fill="none" xmlns="http://www.w3.org/2000/svg">

    <path
        d="M112.629 126.923C148.801 148.205 196.153 162.023 207.91 154.582C219.667 147.141 238.428 87.0242 236.95 72.7452C236.34 66.5772 194.433 63.2842 190.257 68.4082C186.081 73.5322 181.616 109.993 179.351 113.382C177.745 115.823 140.721 109.929 117.56 107.6C102.783 106.09 93.5478 115.695 112.629 126.923Z"
        fill="#AD6359" />
    <path
        d="M236.486 80.8892C237.916 74.7212 242.911 42.8212 242.204 34.5492C241.497 26.2772 237.883 2.61718 231.504 2.42518C225.125 2.23318 225.625 9.30018 225.625 9.30018C225.625 9.30018 222.509 -0.449812 216.068 0.0161875C209.627 0.482188 210.784 11.2602 210.784 11.2602C210.784 11.2602 206.849 1.49419 200.456 2.39419C194.063 3.29419 197.067 14.0552 197.067 14.0552C197.067 14.0552 193.855 4.94819 188.939 7.91919C182.98 11.4852 190.739 27.6112 190.802 36.8312C190.802 38.9192 188.023 79.1232 188.023 79.1232L236.486 80.8892Z"
        fill="#AD6359" />
    <path
        d="M196.908 13.2832C202.594 25.1532 203.028 31.3212 201.518 44.1832C201.518 44.4402 201.855 44.5362 201.903 44.2832C204.537 31.8192 205.115 23.9962 197.47 12.9782C197.02 12.4362 196.555 12.7052 196.908 13.2832Z"
        fill="#263238" />
    <path
        d="M210.32 10.5162C215.139 23.3662 215.669 30.0642 215.139 43.6522C215.137 43.6765 215.14 43.7009 215.148 43.7239C215.156 43.7469 215.169 43.768 215.185 43.7859C215.202 43.8037 215.222 43.818 215.244 43.8277C215.267 43.8375 215.291 43.8425 215.315 43.8425C215.34 43.8425 215.364 43.8375 215.386 43.8277C215.408 43.818 215.428 43.8037 215.445 43.7859C215.462 43.768 215.474 43.7469 215.482 43.7239C215.49 43.7009 215.494 43.6765 215.492 43.6522C217.179 30.3692 217.58 22.5462 211.075 10.3392C210.706 9.78119 210.095 9.89419 210.32 10.5162Z"
        fill="#263238" />
    <path
        d="M225.58 10.0542C229.355 22.9042 230.254 30.1482 227.973 43.2712C227.958 43.3351 227.969 43.4023 228.004 43.458C228.038 43.5137 228.094 43.5533 228.158 43.5682C228.222 43.583 228.289 43.5719 228.345 43.5372C228.4 43.5025 228.44 43.4471 228.455 43.3832C232.069 30.2282 231.025 21.0892 225.981 9.99018C225.644 9.21918 225.339 9.25118 225.58 10.0542Z"
        fill="#263238" />
    <path
        d="M186.918 87.4422C186.918 87.4422 177.168 74.1422 174.181 67.3482C171.194 60.5542 169.362 31.1602 175.675 30.4052C183.851 29.4252 188.252 46.1782 189.328 54.6752C189.328 54.6752 208.233 52.3942 214 63.7502C219.767 75.1062 186.918 87.4422 186.918 87.4422Z"
        fill="#AD6359" />
    <path
        d="M178.003 30.8702C186.034 35.3512 186.803 46.5952 188.476 54.7552C188.493 54.8549 188.53 54.9502 188.585 55.0357C188.639 55.1211 188.71 55.195 188.793 55.2532C188.875 55.3113 188.969 55.3525 189.068 55.3745C189.167 55.3965 189.269 55.3987 189.369 55.3812C189.449 55.3667 189.527 55.3397 189.6 55.3012C197.631 54.8672 208.971 56.5862 214.159 63.3322C214.189 63.3681 214.232 63.3918 214.278 63.3986C214.325 63.4055 214.372 63.3951 214.412 63.3694C214.451 63.3438 214.48 63.3046 214.492 63.2592C214.505 63.2139 214.5 63.1655 214.48 63.1232C209.886 55.2232 198.835 52.6232 190.13 53.6462C188.524 45.2462 187.335 34.0022 178.051 30.8702C177.987 30.7742 177.955 30.8382 178.003 30.8702Z"
        fill="#263238" />
    <path
        d="M168.639 159.015L178.517 110.828C178.517 110.828 140.899 104.612 117.817 104.981C94.7348 105.35 87.1058 114.249 116.082 131.564C133.028 141.772 150.579 150.939 168.639 159.015V159.015Z"
        fill="#FFC727" />
    <path
        d="M169.185 111.568C167.236 118.197 165.458 124.879 163.852 131.614C163.065 134.923 162.246 138.232 161.491 141.573C160.736 144.914 160.222 148.512 159.451 151.949C159.451 152.19 159.772 152.302 159.836 152.061C160.687 148.768 161.763 145.524 162.647 142.231C163.531 138.938 164.253 135.405 165.137 131.999C166.754 125.253 168.205 118.47 169.49 111.648C169.493 111.606 169.479 111.564 169.451 111.531C169.423 111.499 169.383 111.479 169.341 111.476C169.309 111.474 169.277 111.482 169.249 111.499C169.221 111.515 169.199 111.539 169.185 111.568V111.568Z"
        fill="#263238" />
    <path
        d="M160.254 236.516C154.086 239.639 147.596 242.078 140.899 243.792L139.518 244.145C138.651 244.37 137.751 244.563 136.884 244.755C123.309 247.703 109.259 247.703 95.6838 244.755C94.3668 244.466 93.0497 244.145 91.7487 243.791C83.9378 241.757 76.4147 238.746 69.3578 234.828C68.8044 234.55 68.2681 234.239 67.7518 233.896C66.8848 233.396 66.0168 232.868 65.1338 232.29C61.5278 230.056 58.0724 227.588 54.7897 224.901C54.3897 224.612 54.0028 224.291 53.6168 223.953C50.3229 221.179 47.2161 218.19 44.3168 215.006L43.4498 214.058C41.8111 212.206 40.2424 210.295 38.7438 208.324C39.0008 207.264 39.2737 206.204 39.5307 205.112C39.6307 204.807 39.6918 204.486 39.7718 204.18C40.5268 201.257 41.3778 198.285 42.1808 195.217C42.2608 194.896 42.3738 194.591 42.4538 194.253C43.2888 191.346 44.1727 188.342 45.1537 185.338C45.2309 185.011 45.3274 184.689 45.4427 184.374C46.3907 181.435 47.3867 178.431 48.4427 175.411C48.5427 175.122 48.6678 174.801 48.7798 174.479C49.8398 171.524 50.9318 168.536 52.1048 165.532C52.2168 165.243 52.3297 164.938 52.4577 164.632C53.6307 161.644 54.8827 158.689 56.1837 155.701C56.3127 155.364 56.4568 155.059 56.6018 154.737C57.9348 151.737 59.3327 148.762 60.7937 145.79C60.9217 145.501 61.0667 145.196 61.2117 144.923C62.7104 141.903 64.2791 138.921 65.9178 135.976C65.9828 135.832 66.058 135.692 66.1427 135.558L66.4638 134.996C68.1638 131.976 69.9498 128.989 71.8288 126.081C72.0218 125.76 72.2288 125.439 72.4388 125.117C74.4148 122.065 76.5027 119.078 78.6707 116.186C78.8242 115.947 78.9912 115.716 79.1707 115.495L79.3798 115.238C81.2908 112.7 83.2988 110.21 85.3708 107.838C85.8685 107.267 86.4051 106.73 86.9768 106.232L87.2178 106.039C87.5068 105.814 87.7798 105.605 88.1008 105.397C88.1534 105.351 88.2132 105.313 88.2778 105.285V105.285C98.1078 98.7322 116.837 101.366 119.23 104.851C119.337 104.988 119.434 105.133 119.519 105.285L119.84 105.751C121.823 108.791 123.626 111.945 125.24 115.196C126.846 118.248 128.292 121.621 129.77 125.074C131.103 128.206 132.388 131.499 133.657 134.92C133.691 135.095 133.751 135.263 133.834 135.42C133.91 135.574 133.969 135.736 134.011 135.902C135.2 139.114 136.356 142.327 137.496 145.764C138.46 148.703 139.44 151.691 140.355 154.711C140.455 155.048 140.564 155.337 140.66 155.675C141.624 158.775 142.571 161.923 143.471 165.075C143.504 165.238 143.547 165.399 143.6 165.557C144.483 168.545 145.3 171.532 146.122 174.504C146.146 174.77 146.211 175.03 146.315 175.275C147.15 178.343 147.921 181.395 148.708 184.398L148.965 185.362C149.736 188.362 150.475 191.353 151.182 194.277V194.534C151.182 194.614 151.294 195 151.343 195.241C152.081 198.293 152.788 201.281 153.463 204.204C154.234 207.609 154.973 210.918 155.647 214.082C155.727 214.419 155.792 214.725 155.856 215.03C156.547 218.242 157.205 221.33 157.8 224.25C157.78 224.483 157.824 224.716 157.929 224.925C158.62 228.346 159.229 231.511 159.76 234.354C159.746 234.509 159.773 234.664 159.84 234.804L160.254 236.516Z"
        fill="#FFC727" />
    <path opacity="0.1"
        d="M91.7487 243.792C93.0487 244.145 94.3667 244.467 95.6837 244.756H136.884C137.751 244.563 138.651 244.37 139.518 244.146L140.899 243.793L91.7487 243.792ZM159.968 234.381C159.946 234.217 159.908 234.056 159.856 233.899H67.6878C68.2498 234.236 68.7958 234.541 69.2938 234.831H159.968V234.381ZM158.008 224.281C157.975 224.192 157.949 224.101 157.928 224.008H53.5527C53.9387 224.345 54.3237 224.667 54.7257 224.956H158.054C158.006 224.731 157.954 224.506 157.925 224.281H158.008ZM155.856 214.114H43.4178L44.2848 215.062H156.014C155.914 214.751 155.834 214.435 155.773 214.114H155.856ZM37.3968 214.114C37.3812 214.278 37.3476 214.44 37.2967 214.596C37.2797 214.428 37.319 214.258 37.4087 214.114H37.3968ZM153.543 204.236H39.6907C39.654 204.555 39.5784 204.868 39.4658 205.168H153.781L153.543 204.236ZM151.262 194.599V194.342H42.3898C42.3098 194.679 42.1968 194.984 42.1168 195.306H151.485C151.421 195.049 151.372 194.824 151.308 194.567L151.262 194.599ZM148.724 184.432H45.3928C45.2718 184.747 45.17 185.069 45.0877 185.396H149.027L148.724 184.432ZM146.331 175.309C146.251 175.052 146.202 174.809 146.138 174.538H48.7378C48.6258 174.859 48.4967 175.181 48.3847 175.47H146.365C146.363 175.416 146.368 175.362 146.381 175.309H146.331ZM143.488 165.109L143.343 164.643H52.4427C52.3147 164.948 52.2018 165.253 52.0738 165.543H143.629C143.587 165.4 143.554 165.256 143.529 165.109H143.488ZM140.372 154.749H56.5888C56.4438 155.07 56.2998 155.375 56.1708 155.713H140.691C140.645 155.381 140.553 155.056 140.418 154.749H140.372ZM137.16 144.871H61.2308C61.0858 145.144 60.9418 145.449 60.8128 145.738H137.591C137.451 145.457 137.328 145.167 137.222 144.871H137.16ZM133.835 135.442C133.802 135.267 133.743 135.098 133.658 134.942H66.4828L66.1777 135.504C66.093 135.638 66.0178 135.778 65.9528 135.922H134.073C134.031 135.756 133.972 135.594 133.896 135.44L133.835 135.442ZM129.768 125.092H72.4418C72.2488 125.413 72.0418 125.735 71.8638 126.056H130.202C130.09 125.719 129.945 125.397 129.833 125.092H129.768ZM125.222 115.182H79.4127L79.2037 115.439C79.0242 115.66 78.8572 115.891 78.7037 116.13H125.734C125.573 115.809 125.429 115.488 125.284 115.182H125.222ZM119.822 105.737L119.501 105.271H88.3117C88.2472 105.299 88.1874 105.337 88.1347 105.383C87.8137 105.592 87.5408 105.801 87.2518 106.026L87.0108 106.219H120.196C120.081 106.067 119.979 105.906 119.891 105.737H119.822Z"
        fill="black" />
    <path
        d="M117.416 130.617C109.835 131.982 97.5948 119.855 93.0008 110.317C92.6958 109.674 94.0288 103.025 95.2498 94.8652C95.9888 89.9182 96.6797 84.3762 96.9497 79.2852L128.48 88.7462C126.316 95.0154 124.93 101.526 124.352 108.133C124.331 108.835 124.369 109.537 124.464 110.233C124.473 110.345 124.473 110.458 124.464 110.57C124.933 114.587 124.741 129.284 117.416 130.617Z"
        fill="#AD6359" />
    <path
        d="M124.516 110.572V111.311C105.354 107.263 99.4428 97.5622 96.0538 88.6312C96.4388 85.4992 96.7608 82.3192 96.9048 79.2832L128.435 88.7282C126.274 95.0018 124.893 101.517 124.323 108.128C124.286 108.83 124.324 109.534 124.435 110.228C124.447 110.346 124.475 110.461 124.516 110.572V110.572Z"
        fill="#263238" />
    <path
        d="M89.7248 42.8052C86.2068 54.1292 92.0538 86.9282 100.101 94.2052C111.746 104.838 130.892 105.93 139.951 91.9242C148.737 78.3352 140.351 35.7062 131.374 29.0562C118.204 19.2742 94.9128 26.0682 89.7248 42.8052Z"
        fill="#AD6359" />
    <path
        d="M116.598 63.5252C116.598 63.5252 116.437 63.6702 116.453 63.7502C116.903 65.9502 117.063 68.5692 115.184 69.6292V69.7412C117.674 68.9062 117.433 65.4522 116.598 63.5252Z"
        fill="#263238" />
    <path
        d="M114.284 61.4852C110.67 61.8222 111.634 69.0022 114.975 68.6852C118.316 68.3682 117.303 61.1962 114.284 61.4852Z"
        fill="#263238" />
    <path
        d="M130.41 61.4052C130.41 61.3052 130.603 61.4052 130.619 61.5662C130.844 63.7992 131.47 66.3852 133.59 66.8022V66.9142C131.053 66.8982 130.266 63.5252 130.41 61.4052Z"
        fill="#263238" />
    <path
        d="M132.1 58.8192C135.634 58.0642 136.919 65.2442 133.594 65.8862C130.269 66.5282 129.126 59.4452 132.1 58.8192Z"
        fill="#263238" />
    <path
        d="M111.007 58.5752C111.914 58.1742 112.799 57.7239 113.657 57.2262C114.657 56.8784 115.515 56.2106 116.098 55.3262C116.215 55.0133 116.231 54.6718 116.145 54.3491C116.058 54.0265 115.873 53.7389 115.616 53.5262C115.022 53.1966 114.351 53.0331 113.673 53.0528C112.994 53.0725 112.334 53.2747 111.761 53.6382C110.494 54.1902 109.475 55.1915 108.902 56.4492C108.773 56.7438 108.736 57.0702 108.795 57.3861C108.854 57.702 109.007 57.9929 109.233 58.2212C109.459 58.4495 109.749 58.6047 110.064 58.6668C110.379 58.7288 110.706 58.6948 111.002 58.5692L111.007 58.5752Z"
        fill="#263238" />
    <path
        d="M134.394 54.8202C133.403 54.7596 132.416 54.6417 131.439 54.4672C130.38 54.4959 129.342 54.1614 128.5 53.5192C128.282 53.2642 128.149 52.9475 128.121 52.6135C128.092 52.2795 128.168 51.9448 128.339 51.6562C128.784 51.1484 129.357 50.7693 129.998 50.5582C130.639 50.3472 131.325 50.3119 131.985 50.4562C133.36 50.5217 134.663 51.0921 135.644 52.0582C135.885 52.2881 136.05 52.5875 136.113 52.9149C136.177 53.2423 136.137 53.5814 136 53.8851C135.862 54.1889 135.633 54.4422 135.345 54.61C135.056 54.7777 134.723 54.8515 134.391 54.8212L134.394 54.8202Z"
        fill="#263238" />
    <path
        d="M119.087 84.0672C119.697 84.5012 120.324 85.1592 121.127 85.1112C121.956 84.9924 122.751 84.6968 123.456 84.2442L119.087 84.0672ZM123.568 84.3442C123.313 84.8301 122.929 85.2368 122.459 85.52C121.989 85.8031 121.451 85.9519 120.902 85.9502C120.434 85.8967 119.992 85.7044 119.635 85.398C119.277 85.0917 119.019 84.6854 118.894 84.2312C118.878 84.2052 118.872 84.1743 118.877 84.1442C118.882 84.1141 118.897 84.0868 118.921 84.0673C118.944 84.0477 118.974 84.0373 119.004 84.0378C119.035 84.0383 119.064 84.0498 119.087 84.0702L123.568 84.3442Z"
        fill="#263238" />
    <path
        d="M120.388 76.8252C121.068 77.6295 121.907 78.2846 122.852 78.7492C123.797 79.2139 124.828 79.4781 125.881 79.5252C126.803 79.5818 127.729 79.5006 128.628 79.2842C128.803 79.2582 128.975 79.215 129.142 79.1552L129.608 79.0102C129.722 78.9725 129.821 78.8991 129.891 78.8008C129.96 78.7026 129.996 78.5845 129.994 78.4642C130.005 78.3896 130.005 78.3138 129.994 78.2392V78.2392V78.0462C129.801 76.3272 129.287 73.7572 129.287 73.7572C129.962 73.9822 133.335 74.9942 133.174 74.1102C131.744 66.7532 130.154 58.5942 127.183 51.6232C127.163 51.5756 127.127 51.5367 127.081 51.5141C127.035 51.4914 126.982 51.4866 126.933 51.5004C126.883 51.5143 126.841 51.5459 126.813 51.5892C126.785 51.6325 126.775 51.6845 126.783 51.7352C127.875 58.8512 130.22 65.7252 131.425 72.8572C130.223 72.4814 128.974 72.276 127.715 72.2472C127.474 72.3472 128.791 77.2262 128.807 77.9972C128.816 78.023 128.816 78.0514 128.807 78.0772C125.98 78.8322 123.699 78.2542 120.647 76.6962C120.372 76.4882 120.228 76.6642 120.388 76.8252Z"
        fill="#263238" />
    <path
        d="M127.279 78.6402C126.552 79.8773 125.519 80.9063 124.279 81.6282C123.59 81.9943 122.803 82.1342 122.03 82.0282C120.33 81.8032 120.103 80.3092 120.247 78.9762C120.341 78.2752 120.508 77.586 120.747 76.9202C122.683 78.1803 124.973 78.7834 127.279 78.6402V78.6402Z"
        fill="#263238" />
    <path
        d="M124.275 81.6282C123.586 81.9943 122.799 82.1342 122.026 82.0282C120.326 81.8032 120.099 80.3092 120.243 78.9762C121.115 78.9016 121.987 79.1226 122.718 79.6036C123.45 80.0847 123.998 80.7978 124.275 81.6282V81.6282Z"
        fill="#FF9CBD" />
    <path opacity="0.2"
        d="M89.7887 65.2932C91.8447 64.0722 95.3297 56.7482 96.8717 53.7442C98.4137 50.7402 97.2087 36.7822 96.7267 32.6542C93.4563 35.339 91.0265 38.9074 89.7267 42.9342C88.2147 47.6402 88.4237 56.4262 89.7887 65.2932Z"
        fill="#263238" />
    <path
        d="M124.74 40.8132C123.735 42.359 122.352 43.6222 120.721 44.4825C119.09 45.3428 117.267 45.7716 115.424 45.7282C113.547 45.6849 111.713 45.1635 110.094 44.2136C108.475 43.2636 107.125 41.9163 106.172 40.2992C106.172 40.1992 105.963 40.2992 106.011 40.2992C106.863 42.089 108.186 43.6132 109.839 44.7083C111.491 45.8033 113.41 46.4279 115.391 46.5152C117.351 46.5074 119.275 45.9819 120.967 44.9919C122.66 44.0018 124.06 42.5824 125.028 40.8772C125.045 40.8132 124.837 40.6692 124.74 40.8132Z"
        fill="#263238" />
    <path
        d="M110.173 15.8202C103.973 16.7682 98.7208 20.9442 97.0018 25.4572C96.041 28.0397 95.9898 30.8727 96.8568 33.4882C96.8568 33.6002 97.1138 33.4882 97.0818 33.4882C96.6474 31.1435 96.8521 28.7251 97.6745 26.4868C98.4969 24.2485 99.9067 22.2729 101.756 20.7672C103.763 19.0217 106.149 17.7676 108.726 17.104C111.302 16.4405 113.997 16.3857 116.598 16.9442C119.132 17.4384 121.409 18.8158 123.023 20.8312C123.168 21.0402 123.617 20.8312 123.489 20.6222C121.272 16.9462 115.815 14.9692 110.173 15.8202Z"
        fill="#263238" />
    <path
        d="M148.016 24.5902C146.596 21.661 144.191 19.3246 141.222 17.9902C137.11 16.1272 132.854 17.0422 128.629 17.9902C128.606 18.0011 128.588 18.0203 128.579 18.0438C128.569 18.0674 128.569 18.0936 128.579 18.1172C128.588 18.1397 128.606 18.1577 128.629 18.1672C132.211 17.3482 135.905 16.7052 139.471 17.9902C142.423 19.0268 144.925 21.0527 146.554 23.7242C148.137 26.483 148.672 29.72 148.061 32.8414C147.45 35.9628 145.735 38.7593 143.229 40.7182C141.76 41.8108 140.083 42.5911 138.301 43.0109C136.52 43.4307 134.671 43.4812 132.869 43.1592C132.724 43.1592 132.66 43.3362 132.869 43.3682C136.121 44.0461 139.51 43.5147 142.398 41.8736C145.287 40.2325 147.479 37.5942 148.562 34.4532C149.6 31.2104 149.405 27.6987 148.016 24.5902V24.5902Z"
        fill="#263238" />
    <path
        d="M88.6488 49.4392C88.6488 49.4392 81.3568 39.0632 85.4368 32.0112C87.7818 28.0282 97.1138 27.3372 97.1138 27.3372C99.1228 23.343 102.635 20.3098 106.88 18.9042C114.429 16.1572 124.211 19.5302 124.211 19.5302C124.211 19.5302 131.053 14.3902 138.442 17.4742C148.754 21.7632 149.396 36.5742 140.305 42.4992C133.88 46.6592 123.922 41.8082 123.922 41.8082C123.055 42.0332 114.638 48.6512 106.751 41.4082C106.751 41.4082 101.788 47.0782 96.3268 44.2192C95.7292 45.7665 94.6743 47.095 93.3025 48.0276C91.9308 48.9602 90.3074 49.4526 88.6488 49.4392V49.4392Z"
        fill="#263238" />
    <path
        d="M96.6158 69.5332C96.6158 69.5332 89.0347 59.0602 84.2637 61.7752C79.4927 64.4902 85.3238 79.7652 90.9938 81.7752C91.6842 82.0757 92.4271 82.2372 93.1801 82.2506C93.933 82.2639 94.6812 82.1289 95.3819 81.8531C96.0826 81.5773 96.7221 81.1662 97.264 80.6432C97.8058 80.1203 98.2393 79.4957 98.5397 78.8052C98.5747 78.7252 98.6088 78.6442 98.6398 78.5622L96.6158 69.5332Z"
        fill="#AD6359" />
    <path
        d="M86.0788 66.1112C86.0574 66.1112 86.0369 66.1197 86.0219 66.1348C86.0068 66.1498 85.9983 66.1703 85.9983 66.1917C85.9983 66.213 86.0068 66.2335 86.0219 66.2486C86.0369 66.2637 86.0574 66.2722 86.0788 66.2722V66.2722C90.0618 67.8782 92.2148 71.4442 93.7248 75.2192C93.2823 74.491 92.5689 73.9682 91.7411 73.7659C90.9134 73.5636 90.0392 73.6982 89.3108 74.1402C89.1703 74.2273 89.0366 74.3249 88.9108 74.4322C88.8945 74.4518 88.8845 74.4758 88.8819 74.5011C88.8794 74.5264 88.8844 74.5519 88.8965 74.5743C88.9085 74.5968 88.9269 74.6151 88.9494 74.627C88.9719 74.6389 88.9975 74.6439 89.0228 74.6412C89.7142 74.408 90.461 74.3956 91.1598 74.6057C91.8586 74.8159 92.4747 75.2382 92.9228 75.8142C93.6656 76.7841 94.3061 77.8283 94.8338 78.9302C95.0268 79.2832 95.6528 79.0752 95.5248 78.6732C95.5178 78.6402 95.5178 78.6062 95.5248 78.5732C95.5078 73.5322 91.4758 66.5292 86.0788 66.1112Z"
        fill="#263238" />
    <path
        d="M72.3618 114.057C38.0368 145.973 -6.34325 214.301 0.75575 228.857C8.65575 245.064 56.4557 200.298 56.3957 197.568C56.3957 195.496 74.3048 157.814 87.8458 127.36C101.387 96.9062 80.8428 106.17 72.3618 114.057Z"
        fill="#AD6359" />
    <path
        d="M0.755751 228.854C7.69475 239.76 27.7558 242.654 77.5818 254.654C84.4728 256.26 109.305 210.82 102.029 208.668C92.8738 205.953 56.7288 197.424 54.0188 197.119C31.0658 194.657 -3.96625 221.449 0.755751 228.854Z"
        fill="#AD6359" />
    <path
        d="M85.4838 206.865C85.4838 206.865 105.706 206.624 116.372 209.804C130.651 214.044 141.236 223.585 145.429 227.842C154.183 236.757 169.201 264.335 162.005 270.042C155.58 275.214 141.59 246.242 141.59 246.242C141.59 246.242 160.64 273.451 151.661 278.222C142.682 282.993 128.435 248.459 128.435 248.459C128.435 248.459 147.405 276.841 137.366 280.31C129.766 282.928 115.104 252.362 115.104 252.362C115.104 252.362 131.247 276.873 123.553 279.893C115.053 283.25 99.7528 255.88 99.7528 255.88C78.8718 260.297 67.1948 253.872 59.3888 248.315C57.5038 246.956 85.4838 206.865 85.4838 206.865Z"
        fill="#AD6359" />
    <path
        d="M135.599 236.419C138.053 239.501 140.332 242.719 142.425 246.056C144.433 249.445 146.441 252.756 148.208 256.239C150.575 260.762 152.429 265.535 153.733 270.47C150.794 261.877 143.566 249.91 141.494 246.585C139.422 243.26 137.527 239.871 135.471 236.562C135.406 236.403 135.535 236.339 135.599 236.419Z"
        fill="#263238" />
    <path
        d="M123.488 243.663C126.331 247.775 129.303 251.694 131.953 255.983C134.603 260.272 136.772 264.416 139.069 268.833C139.262 269.17 139.069 269.154 138.812 268.833C136.306 264.544 133.64 260.802 131.07 256.513C128.5 252.224 126.107 247.904 123.392 243.76C123.343 243.663 123.457 243.615 123.488 243.663Z"
        fill="#263238" />
    <path
        d="M111.988 248.033C116.49 254.229 120.343 260.871 123.488 267.854C123.649 268.191 123.343 268.143 123.151 267.854C119.457 261.092 116.598 255.888 111.779 248.242C111.779 248.081 111.891 247.904 111.988 248.033Z"
        fill="#263238" />
    <path
        d="M25.6847 204.022C34.6908 198.12 45.551 195.73 56.2028 197.308C56.3308 197.308 56.3308 197.549 56.2028 197.533C45.1678 196.746 30.0217 201.886 25.6847 204.215C25.6527 204.279 25.5717 204.102 25.6847 204.022Z"
        fill="#263238" />
    <path
        d="M23.0988 158.89L65.7598 183.273C65.7598 183.273 83.4288 149.462 90.2228 127.409C97.0168 105.356 90.9778 95.2842 65.5028 117.499C50.5414 130.423 36.3806 144.246 23.0988 158.89V158.89Z"
        fill="#FFC727" />
    <path
        d="M68.0248 174.21C62.3274 170.291 56.5344 166.543 50.6458 162.966C47.7388 161.183 44.8458 159.352 41.9078 157.617C38.9698 155.882 35.7238 154.244 32.6878 152.461C32.4788 152.332 32.2538 152.638 32.4628 152.782C35.3218 154.613 38.0688 156.653 40.9278 158.5C43.7868 160.347 46.8868 162.21 49.8748 164.058C55.7854 167.709 61.7768 171.205 67.8488 174.547C68.0248 174.563 68.2018 174.354 68.0248 174.21Z"
        fill="#263238" />
    <path
        d="M63.9608 182.237C64.6028 182.526 65.2298 182.799 65.8608 183.104L65.5878 183.184C66.7878 180.068 68.1578 177.048 69.4748 173.996C70.7918 170.944 72.2698 167.989 73.7478 165.017C75.2258 162.045 76.7188 159.09 78.3418 156.183C79.9648 153.276 81.5538 150.368 83.3418 147.541C82.2018 150.673 80.9008 153.725 79.5508 156.761C78.2008 159.797 76.8038 162.8 75.3588 165.804C73.9138 168.808 72.4038 171.731 70.8448 174.67C69.2858 177.609 67.6328 180.517 66.0258 183.36L65.9138 183.537L65.7528 183.437C65.0848 183.061 64.5228 182.643 63.9608 182.237Z"
        fill="#263238" />
    <path
        d="M84.1678 153.474C82.3773 156.373 79.9144 158.797 76.9878 160.541C77.8767 159.081 78.9569 157.747 80.1998 156.574C81.3834 155.374 82.7171 154.332 84.1678 153.474V153.474Z"
        fill="#263238" />
</svg>