<svg width="150" height="150" viewBox="0 0 150 150" fill="none" xmlns="http://www.w3.org/2000/svg">
<path d="M150 123.374H0V123.449H150V123.374Z" fill="#EBEBEB"/>
<path d="M23.3998 126.23H15.7378V126.305H23.3998V126.23Z" fill="#EBEBEB"/>
<path d="M79.1998 125.417H46.2178V125.492H79.1998V125.417Z" fill="#EBEBEB"/>
<path d="M51.0002 127.208H29.1992V127.283H51.0002V127.208Z" fill="#EBEBEB"/>
<path d="M134.973 128.513H106.098V128.588H134.973V128.513Z" fill="#EBEBEB"/>
<path d="M103.425 128.513H101.526V128.588H103.425V128.513Z" fill="#EBEBEB"/>
<path d="M111.267 127.247H90.3662V127.322H111.267V127.247Z" fill="#EBEBEB"/>
<path d="M71.0999 109.994H13.1729C12.7191 109.993 12.2842 109.812 11.9636 109.491C11.643 109.17 11.4629 108.735 11.4629 108.281V26.8519C11.4668 26.4007 11.6486 25.9693 11.9688 25.6513C12.289 25.3334 12.7217 25.1546 13.1729 25.1539H71.0999C71.5542 25.1539 71.9899 25.3343 72.3112 25.6556C72.6324 25.9768 72.8129 26.4126 72.8129 26.8669V108.281C72.8129 108.735 72.6324 109.171 72.3112 109.492C71.9899 109.813 71.5542 109.994 71.0999 109.994ZM13.1729 25.2139C12.739 25.2147 12.3231 25.3876 12.0166 25.6947C11.7101 26.0018 11.5379 26.418 11.5379 26.8519V108.281C11.5379 108.715 11.7101 109.131 12.0166 109.438C12.3231 109.745 12.739 109.918 13.1729 109.919H71.0999C71.5341 109.918 71.9503 109.745 72.2573 109.438C72.5643 109.131 72.7371 108.715 72.7379 108.281V26.8519C72.7371 26.4177 72.5643 26.0015 72.2573 25.6945C71.9503 25.3875 71.5341 25.2147 71.0999 25.2139H13.1729Z" fill="#EBEBEB"/>
<path d="M135.993 109.994H78.0631C77.609 109.993 77.1738 109.812 76.8527 109.491C76.5316 109.17 76.3509 108.735 76.3501 108.281V26.8519C76.3548 26.4004 76.5373 25.969 76.858 25.6511C77.1786 25.3333 77.6116 25.1546 78.0631 25.1539H135.993C136.444 25.1554 136.876 25.3345 137.195 25.6524C137.515 25.9702 137.696 26.4012 137.7 26.8519V108.281C137.7 108.734 137.52 109.169 137.2 109.49C136.881 109.811 136.446 109.992 135.993 109.994ZM78.0631 25.2139C77.6289 25.2147 77.2127 25.3875 76.9057 25.6945C76.5987 26.0015 76.4259 26.4177 76.4251 26.8519V108.281C76.4259 108.715 76.5987 109.131 76.9057 109.438C77.2127 109.745 77.6289 109.918 78.0631 109.919H135.993C136.427 109.918 136.843 109.745 137.15 109.438C137.457 109.131 137.63 108.715 137.631 108.281V26.8519C137.63 26.4177 137.457 26.0015 137.15 25.6945C136.843 25.3875 136.427 25.2147 135.993 25.2139H78.0631Z" fill="#EBEBEB"/>
<path d="M37.878 67.2829L116.541 67.2829V32.0509L37.878 32.0509V67.2829Z" fill="#E6E6E6"/>
<path d="M36.2191 67.2829L115.767 67.2829V32.0509L36.2191 32.0509V67.2829Z" fill="#F0F0F0"/>
<path d="M37.878 68.4739L116.541 68.4739V67.2799L37.878 67.2799V68.4739Z" fill="#E6E6E6"/>
<path d="M33.4588 68.4739L113.007 68.4739V67.2799L33.4588 67.2799V68.4739Z" fill="#F0F0F0"/>
<path d="M113.448 64.9639V34.3699L38.5412 34.3699V64.9639H113.448Z" fill="#FAFAFA"/>
<path d="M93.2129 64.9639L79.6019 34.3699H65.6699L79.2839 64.9639H93.2129Z" fill="white"/>
<path d="M112.374 59.8489C112.418 59.8489 112.46 59.8315 112.491 59.8006C112.522 59.7696 112.539 59.7276 112.539 59.6839V35.8789C112.539 35.8348 112.522 35.7926 112.491 35.7611C112.46 35.7297 112.418 35.7117 112.374 35.7109C112.352 35.7109 112.33 35.7152 112.31 35.7237C112.29 35.7322 112.272 35.7446 112.256 35.7603C112.241 35.7759 112.229 35.7944 112.221 35.8148C112.213 35.8352 112.209 35.857 112.209 35.8789V59.6839C112.209 59.7057 112.213 59.7273 112.221 59.7475C112.229 59.7677 112.241 59.7861 112.256 59.8015C112.272 59.8169 112.29 59.829 112.31 59.8371C112.331 59.8453 112.352 59.8493 112.374 59.8489Z" fill="#F0F0F0"/>
<path d="M74.0458 64.9639L60.4318 34.3699H55.6138L69.2248 64.9639H74.0458Z" fill="white"/>
<path d="M38.835 64.9609V34.3669H38.541V64.9609H38.835Z" fill="#E6E6E6"/>
<g opacity="0.5">
<path opacity="0.5" d="M35.6699 37.5529H114.336L114.549 35.2699H35.8829L35.6699 37.5529Z" fill="#E6E6E6"/>
<path opacity="0.5" d="M35.6699 41.3269H114.336L114.549 39.0409H35.8829L35.6699 41.3269Z" fill="#E6E6E6"/>
<path opacity="0.5" d="M35.6699 45.0979H114.336L114.549 42.8149H35.8829L35.6699 45.0979Z" fill="#E6E6E6"/>
<path opacity="0.5" d="M35.6699 48.8719H114.336L114.549 46.5859H35.8829L35.6699 48.8719Z" fill="#E6E6E6"/>
<path opacity="0.5" d="M35.6699 52.6429H114.336L114.549 50.3569H35.8829L35.6699 52.6429Z" fill="#E6E6E6"/>
<path opacity="0.5" d="M35.6699 56.4139H114.336L114.549 54.1309H35.8829L35.6699 56.4139Z" fill="#E6E6E6"/>
</g>
<path d="M118.578 121.919H126.348V91.0728H118.578V121.919Z" fill="#F0F0F0"/>
<path d="M88.191 123.374H124.854V121.919H88.191V123.374Z" fill="#F0F0F0"/>
<path d="M118.578 91.0729H86.7002V121.919H118.578V91.0729Z" fill="#F5F5F5"/>
<path d="M115.518 110.387H89.7539C89.7375 110.387 89.7212 110.384 89.7061 110.377C89.691 110.371 89.6773 110.362 89.6659 110.35C89.6544 110.338 89.6454 110.324 89.6394 110.309C89.6334 110.294 89.6305 110.277 89.6309 110.261V102.728C89.6305 102.711 89.6334 102.695 89.6394 102.68C89.6454 102.665 89.6544 102.651 89.6659 102.639C89.6773 102.627 89.691 102.618 89.7061 102.612C89.7212 102.605 89.7375 102.602 89.7539 102.602H99.7379C99.7616 102.602 99.7848 102.609 99.8048 102.621C99.8249 102.634 99.841 102.652 99.8513 102.673C99.8616 102.694 99.8658 102.718 99.8632 102.741C99.8607 102.765 99.8516 102.787 99.8369 102.806C99.7848 102.872 99.7563 102.953 99.7559 103.037C99.7571 103.09 99.7686 103.141 99.79 103.19C99.8113 103.238 99.842 103.281 99.8802 103.317C99.9184 103.354 99.9634 103.382 100.013 103.401C100.062 103.42 100.114 103.428 100.167 103.427H105.108C105.161 103.428 105.213 103.42 105.262 103.401C105.311 103.382 105.356 103.354 105.395 103.317C105.433 103.281 105.464 103.238 105.485 103.19C105.506 103.141 105.518 103.09 105.519 103.037C105.519 102.953 105.49 102.872 105.438 102.806C105.423 102.787 105.414 102.765 105.412 102.741C105.409 102.718 105.413 102.694 105.424 102.673C105.434 102.652 105.45 102.634 105.47 102.621C105.49 102.609 105.513 102.602 105.537 102.602H115.518C115.551 102.602 115.583 102.615 115.607 102.639C115.631 102.662 115.644 102.694 115.644 102.728V110.261C115.644 110.294 115.631 110.326 115.607 110.35C115.583 110.374 115.551 110.387 115.518 110.387ZM89.8799 110.135H115.38V102.854H105.744C105.762 102.913 105.771 102.975 105.771 103.037C105.768 103.21 105.696 103.374 105.572 103.495C105.448 103.615 105.281 103.681 105.108 103.679H100.167C99.994 103.681 99.8271 103.615 99.7028 103.495C99.5786 103.374 99.5071 103.21 99.5039 103.037C99.5038 102.975 99.5129 102.913 99.5309 102.854H89.8799V110.135Z" fill="white"/>
<path d="M115.518 119.294H89.7539C89.7375 119.294 89.7212 119.291 89.7061 119.284C89.691 119.278 89.6773 119.269 89.6659 119.257C89.6544 119.245 89.6454 119.231 89.6394 119.216C89.6334 119.201 89.6305 119.184 89.6309 119.168V111.635C89.6305 111.619 89.6334 111.602 89.6394 111.587C89.6454 111.572 89.6544 111.558 89.6659 111.546C89.6773 111.534 89.691 111.525 89.7061 111.519C89.7212 111.512 89.7375 111.509 89.7539 111.509H99.7409C99.7646 111.51 99.7877 111.517 99.8078 111.529C99.8279 111.542 99.8441 111.56 99.8549 111.581C99.8648 111.603 99.8684 111.627 99.8652 111.651C99.862 111.675 99.8522 111.697 99.8369 111.716C99.7835 111.78 99.7548 111.861 99.7559 111.944C99.7571 111.997 99.7686 112.049 99.7899 112.097C99.8112 112.145 99.8418 112.189 99.88 112.226C99.9181 112.262 99.9631 112.291 100.012 112.31C100.062 112.329 100.114 112.338 100.167 112.337H105.108C105.161 112.338 105.213 112.329 105.262 112.31C105.312 112.291 105.357 112.262 105.395 112.226C105.433 112.189 105.464 112.145 105.485 112.097C105.506 112.049 105.518 111.997 105.519 111.944C105.519 111.861 105.49 111.781 105.438 111.716C105.422 111.698 105.412 111.675 105.409 111.651C105.405 111.627 105.409 111.603 105.42 111.581C105.431 111.56 105.447 111.542 105.467 111.529C105.487 111.517 105.51 111.51 105.534 111.509H115.518C115.551 111.509 115.583 111.522 115.607 111.546C115.631 111.569 115.644 111.601 115.644 111.635V119.168C115.644 119.201 115.631 119.233 115.607 119.257C115.583 119.281 115.551 119.294 115.518 119.294ZM89.8799 119.054H115.38V111.761H105.744C105.762 111.82 105.771 111.882 105.771 111.944C105.77 112.03 105.752 112.115 105.718 112.194C105.684 112.272 105.635 112.344 105.573 112.404C105.511 112.464 105.439 112.511 105.359 112.543C105.279 112.574 105.194 112.59 105.108 112.589H100.167C100.081 112.59 99.9957 112.574 99.9159 112.543C99.8361 112.511 99.7634 112.464 99.7018 112.404C99.6402 112.344 99.5911 112.272 99.5571 112.194C99.5232 112.115 99.5051 112.03 99.5039 111.944C99.5038 111.882 99.5129 111.82 99.5309 111.761H89.8799V119.054Z" fill="white"/>
<path d="M115.518 101.48H89.7539C89.7375 101.48 89.7212 101.477 89.7061 101.47C89.691 101.464 89.6773 101.455 89.6659 101.443C89.6544 101.431 89.6454 101.417 89.6394 101.402C89.6334 101.387 89.6305 101.37 89.6309 101.354V93.8209C89.6305 93.8045 89.6334 93.7882 89.6394 93.7729C89.6454 93.7576 89.6544 93.7437 89.6659 93.732C89.6773 93.7202 89.691 93.7109 89.7061 93.7045C89.7212 93.6982 89.7375 93.6949 89.7539 93.6949H99.7379C99.7616 93.6955 99.7847 93.7026 99.8048 93.7152C99.8249 93.7279 99.8411 93.7457 99.8519 93.7669C99.8644 93.7872 99.871 93.8106 99.871 93.8344C99.871 93.8582 99.8644 93.8816 99.8519 93.9019C99.7985 93.9658 99.7698 94.0466 99.7709 94.1299C99.7721 94.1826 99.7836 94.2345 99.805 94.2826C99.8263 94.3308 99.857 94.3742 99.8952 94.4105C99.9334 94.4468 99.9784 94.4751 100.028 94.4939C100.077 94.5126 100.129 94.5215 100.182 94.5199H105.123C105.176 94.5215 105.228 94.5126 105.277 94.4939C105.326 94.4751 105.371 94.4468 105.41 94.4105C105.448 94.3742 105.479 94.3308 105.5 94.2826C105.521 94.2345 105.533 94.1826 105.534 94.1299C105.535 94.0466 105.506 93.9658 105.453 93.9019C105.44 93.8816 105.434 93.8582 105.434 93.8344C105.434 93.8106 105.44 93.7872 105.453 93.7669C105.464 93.7457 105.48 93.7279 105.5 93.7152C105.52 93.7026 105.543 93.6955 105.567 93.6949H115.548C115.564 93.6949 115.581 93.6981 115.596 93.7045C115.611 93.7108 115.625 93.7201 115.637 93.7318C115.649 93.7435 115.658 93.7574 115.664 93.7727C115.671 93.788 115.674 93.8043 115.674 93.8209V101.354C115.675 101.374 115.672 101.393 115.664 101.411C115.656 101.429 115.644 101.445 115.628 101.457C115.613 101.47 115.595 101.478 115.576 101.482C115.557 101.486 115.537 101.485 115.518 101.48ZM89.8799 101.228H115.38V93.9469H105.744C105.762 94.0062 105.771 94.0679 105.771 94.1299C105.768 94.3028 105.696 94.4675 105.572 94.5878C105.448 94.7081 105.281 94.7743 105.108 94.7719H100.167C99.994 94.7743 99.8271 94.7081 99.7028 94.5878C99.5786 94.4675 99.5071 94.3028 99.5039 94.1299C99.5038 94.0679 99.5129 94.0062 99.5309 93.9469H89.8799V101.228Z" fill="white"/>
<path d="M85.6651 91.0729H118.578V88.5409H85.6651V91.0729Z" fill="#F0F0F0"/>
<path d="M127.431 88.5408H118.575V91.0728H127.431V88.5408Z" fill="#E6E6E6"/>
<path d="M14.6372 123.371H27.0962L27.0962 81.5268H14.6372L14.6372 123.371Z" fill="#F5F5F5"/>
<path d="M14.6398 123.371H16.6948L16.6948 81.5268H14.6398L14.6398 123.371Z" fill="#F0F0F0"/>
<path d="M72.4768 82.9099H25.1758V93.3799H72.4768V82.9099Z" fill="#E6E6E6"/>
<path d="M72.4768 96.5149H25.1758V98.9329H72.4768V96.5149Z" fill="#E6E6E6"/>
<path d="M69.7141 81.5299H14.6401V85.1659H69.7141V81.5299Z" fill="#F0F0F0"/>
<path d="M69.7139 123.371H82.1699V81.5268H69.7139V123.371Z" fill="#F5F5F5"/>
<path d="M69.7111 123.371H71.7661V81.5268H69.7111V123.371Z" fill="#F0F0F0"/>
<path d="M75 136.922C107.125 136.922 133.167 135.401 133.167 133.526C133.167 131.65 107.125 130.13 75 130.13C42.8753 130.13 16.833 131.65 16.833 133.526C16.833 135.401 42.8753 136.922 75 136.922Z" fill="#F5F5F5"/>
<path d="M56.0998 53.9539C55.563 54.4642 54.9253 54.8566 54.2278 55.1059C54.19 54.3416 54.058 53.5849 53.8348 52.8529C53.8348 52.8529 53.8949 54.4879 53.4299 55.3879C52.7689 55.5974 52.0956 55.7658 51.4139 55.8919C51.3718 55.6882 51.3156 55.4878 51.2459 55.2919C51.2247 55.5141 51.1794 55.7334 51.1108 55.9459C48.8398 56.3599 45.7109 57.0349 42.8819 56.5459C41.1569 54.3259 42.9629 52.6849 43.1399 51.3739C43.3709 49.6579 41.7629 49.2559 41.9579 47.8639C42.1529 46.4719 43.7099 47.3179 44.4929 45.7429C45.5309 43.6429 47.8108 42.3979 49.8028 42.7909C52.4398 43.3159 51.5308 47.2669 53.5678 48.5359C55.6048 49.8049 56.6158 51.9949 56.0998 53.9539Z" fill="#263238"/>
<path d="M56.0548 54.4729H56.0308C56.0217 54.4699 56.0132 54.465 56.006 54.4587C55.9987 54.4523 55.9928 54.4446 55.9886 54.4359C55.9844 54.4272 55.982 54.4178 55.9815 54.4082C55.9811 54.3986 55.9825 54.389 55.9858 54.3799C56.5408 52.7659 56.8018 50.6899 53.8528 48.9409C52.7638 48.2929 52.4608 47.1259 52.1638 45.9979C51.7648 44.4709 51.3928 43.0309 49.0918 43.0639C49.0732 43.0625 49.0556 43.0545 49.0424 43.0413C49.0292 43.0281 49.0212 43.0105 49.0198 42.9919C49.0189 42.9821 49.0202 42.9722 49.0234 42.9629C49.0267 42.9536 49.0319 42.9451 49.0388 42.938C49.0456 42.9309 49.0538 42.9254 49.063 42.9217C49.0721 42.9181 49.082 42.9164 49.0918 42.9169C51.4918 42.8839 51.9118 44.4469 52.3078 45.9589C52.5928 47.0599 52.8928 48.1969 53.9278 48.8149C57.0028 50.6389 56.6518 52.8919 56.1238 54.4279C56.1179 54.4413 56.1083 54.4527 56.096 54.4607C56.0838 54.4687 56.0694 54.473 56.0548 54.4729Z" fill="#263238"/>
<path d="M52.7998 73.8499C52.7998 73.8499 52.6798 88.5199 51.7618 100.571C49.7728 112.499 48.0298 128.873 48.0298 128.873H46.1278C46.1278 128.873 44.2108 107.144 46.3258 100.154C45.0718 91.1899 45.4618 74.0929 45.4618 74.0929L52.7998 73.8499Z" fill="#B55B52"/>
<path d="M55.3109 60.9169C55.3109 61.0549 55.3109 61.2589 55.3109 61.4329L55.3349 61.9819C55.3559 62.3509 55.3889 62.7199 55.4309 63.0829C55.5086 63.8076 55.6348 64.5262 55.8089 65.2339C55.976 65.9092 56.2091 66.5663 56.5049 67.1959C56.7772 67.7771 57.1465 68.3077 57.5969 68.7649L57.7079 68.8759C57.6568 68.8239 57.5907 68.7893 57.5189 68.7769C57.4829 68.7769 57.5189 68.7949 57.6119 68.7919C57.8597 68.7656 58.1023 68.7029 58.3319 68.6059C58.9447 68.3572 59.5349 68.0561 60.0959 67.7059C60.6959 67.3489 61.2779 66.9529 61.8629 66.5449C62.4479 66.1369 63.0359 65.7109 63.6029 65.2909C63.7397 65.1891 63.9094 65.1413 64.0793 65.1567C64.2492 65.1721 64.4074 65.2497 64.5237 65.3745C64.64 65.4993 64.7062 65.6627 64.7095 65.8332C64.7129 66.0038 64.6532 66.1696 64.5419 66.2989C64.0439 66.8809 63.5249 67.4059 62.9879 67.9339C62.4509 68.4619 61.8839 68.9569 61.2809 69.4339C60.6573 69.9371 59.9861 70.3781 59.2769 70.7509C58.8488 70.9709 58.391 71.1276 57.9179 71.2159C57.5879 71.2755 57.2495 71.2693 56.9219 71.1979C56.4904 71.1023 56.0993 70.8748 55.8029 70.5469L55.9169 70.6609C55.1947 70.0386 54.5928 69.2893 54.1409 68.4499C53.7129 67.6634 53.3776 66.8298 53.1419 65.9659C52.9091 65.1349 52.7396 64.2875 52.6349 63.4309C52.5839 63.0079 52.5479 62.5819 52.5239 62.1559C52.5239 61.9429 52.5029 61.7299 52.4999 61.5139C52.4969 61.2979 52.4999 61.0969 52.4999 60.8389C52.5222 60.4805 52.6822 60.1445 52.9464 59.9013C53.2106 59.658 53.5586 59.5263 53.9177 59.5337C54.2768 59.541 54.6191 59.6869 54.8731 59.9408C55.1272 60.1946 55.2733 60.5369 55.2809 60.8959L55.3109 60.9169Z" fill="#B55B52"/>
<path d="M66.5218 65.2729L66.4468 64.1179C66.4405 64.0267 66.4152 63.9379 66.3725 63.8571C66.3298 63.7763 66.2707 63.7054 66.1989 63.6488C66.1271 63.5923 66.0443 63.5514 65.9557 63.5289C65.8672 63.5063 65.7749 63.5026 65.6848 63.5179C65.1091 63.615 64.5817 63.8998 64.1848 64.3279L62.9248 65.6779L62.6968 66.9379C63.7108 67.4359 65.1298 66.4159 65.1298 66.4159L66.1648 65.9059C66.2802 65.8475 66.3757 65.7562 66.4393 65.6435C66.5028 65.5309 66.5315 65.4019 66.5218 65.2729Z" fill="#B55B52"/>
<path d="M54.3989 58.7959C56.3879 60.3949 56.0849 62.1589 56.5259 63.4609C55.6049 65.0209 51.9629 65.7559 51.9629 65.7559C51.9629 65.7559 52.2539 57.0709 54.3989 58.7959Z" fill="#7D942D"/>
<path d="M55.2809 60.5539C55.5809 64.6489 53.0939 67.7539 52.8809 72.0709L42.5429 71.8189C42.8429 67.6189 42.7169 68.0329 41.2409 59.8999C41.2 59.6754 41.2056 59.4449 41.2573 59.2227C41.309 59.0005 41.4058 58.7912 41.5416 58.6079C41.6774 58.4246 41.8494 58.271 42.0469 58.1568C42.2444 58.0426 42.4633 57.9701 42.6899 57.9439C43.4579 57.8569 44.4089 57.7729 45.4079 57.7549C47.0821 57.6815 48.7594 57.7287 50.4269 57.8959C51.5039 58.0249 52.6529 58.2319 53.5289 58.4059C54.5579 58.6009 55.1999 59.5039 55.2809 60.5539Z" fill="#7D942D"/>
<path d="M50.7208 62.0029C50.7628 62.4259 50.5498 62.7679 50.2438 62.7679C49.9378 62.7679 49.6438 62.4289 49.6138 62.0059C49.5838 61.5829 49.7848 61.2379 50.0908 61.2379C50.3968 61.2379 50.6788 61.5799 50.7208 62.0029Z" fill="white"/>
<path d="M50.166 60.0919C50.862 60.2689 51.606 60.7459 51.903 61.9639C53.979 58.8559 50.433 57.8869 50.433 57.8869L50.166 60.0919Z" fill="white"/>
<path d="M48.945 60.2539C48.6894 60.2207 48.4298 60.2383 48.181 60.3058C47.9323 60.3732 47.6993 60.4892 47.4955 60.647C47.2917 60.8048 47.1211 61.0013 46.9935 61.2252C46.8659 61.4492 46.7838 61.6961 46.752 61.9519C44.475 58.9879 45.414 57.7339 45.414 57.7339L48.945 60.2539Z" fill="white"/>
<path d="M46.0711 52.1089C46.3411 53.7319 46.5751 56.6989 45.4141 57.7459C45.4141 57.7459 47.4601 59.9629 49.7911 60.5479C50.1317 60.2058 50.3717 59.7766 50.4849 59.3073C50.5981 58.838 50.5802 58.3467 50.4331 57.8869C48.6331 57.4069 48.7291 56.0719 49.0771 54.8269L46.0711 52.1089Z" fill="#B55B52"/>
<path opacity="0.2" d="M47.2948 53.2189L49.0768 54.8239C48.9888 55.1176 48.9285 55.4189 48.8968 55.7239C48.2098 55.6039 47.2858 54.8239 47.2348 54.1009C47.2 53.8057 47.2203 53.5066 47.2948 53.2189Z" fill="black"/>
<path d="M44.1662 50.3029C45.2222 52.7899 45.6182 53.8639 47.3642 54.7129C49.9892 55.9909 52.8122 54.1489 52.5212 51.3979C52.2572 48.9199 50.5742 45.2719 47.7212 45.1399C47.0941 45.1095 46.4697 45.2398 45.907 45.5184C45.3444 45.7969 44.8622 46.2145 44.5062 46.7316C44.1502 47.2487 43.9321 47.8481 43.8726 48.4731C43.8131 49.0981 43.9141 49.7279 44.1662 50.3029Z" fill="#B55B52"/>
<path d="M43.8447 48.3199C47.2227 48.2929 51.9447 46.6039 50.5557 44.8369C49.8447 41.3209 43.8927 44.9809 43.8447 48.3199Z" fill="#263238"/>
<path d="M44.3549 47.7379C46.6169 49.0039 46.0169 51.4549 44.5829 51.9379C43.0679 50.1199 42.6899 47.4199 44.3549 47.7379Z" fill="#263238"/>
<path d="M48.4981 51.3108C48.4981 51.3108 49.2661 51.1698 51.3931 51.2898C51.0931 51.9408 50.6101 52.4598 49.5211 52.3878C49.3817 52.3893 49.2435 52.3621 49.1151 52.3078C48.9867 52.2535 48.8709 52.1733 48.7749 52.0722C48.6789 51.9712 48.6048 51.8514 48.5571 51.7204C48.5095 51.5894 48.4894 51.45 48.4981 51.3108Z" fill="#263238"/>
<path d="M49.9559 51.6919C49.5388 51.6447 49.1177 51.7342 48.7559 51.9469C48.9467 52.0976 49.1817 52.1819 49.4249 52.1869C49.8423 52.2338 50.2636 52.1432 50.6249 51.9289C50.434 51.7784 50.1989 51.6951 49.9559 51.6919Z" fill="#A02724"/>
<path d="M48.6001 51.2959C48.6001 51.4219 48.6601 51.4969 48.8551 51.5779C49.4245 51.6459 49.9991 51.66 50.5711 51.6199C50.849 51.6089 51.1112 51.488 51.3001 51.2839C50.4012 51.2162 49.4984 51.2202 48.6001 51.2959Z" fill="white"/>
<path d="M48.2398 49.5409C48.3118 49.7479 48.4798 49.8769 48.6177 49.8409C48.7557 49.8049 48.8007 49.5859 48.7287 49.3789C48.6567 49.1719 48.4858 49.0429 48.3508 49.0789C48.2158 49.1149 48.1648 49.3339 48.2398 49.5409Z" fill="#263238"/>
<path d="M50.8922 48.6109C50.9642 48.8179 51.1352 48.9469 51.2702 48.9109C51.4052 48.8749 51.4562 48.6559 51.3812 48.4489C51.3062 48.2419 51.1382 48.1129 51.0032 48.1489C50.8682 48.1849 50.8202 48.4039 50.8922 48.6109Z" fill="#263238"/>
<path d="M50.9487 48.1819L51.3957 47.8609C51.3957 47.8609 51.2757 48.3409 50.9487 48.1819Z" fill="#263238"/>
<path d="M50.1357 49.1238C50.4847 49.5308 50.8886 49.8872 51.3357 50.1828C51.257 50.2962 51.1545 50.3909 51.0353 50.4603C50.9161 50.5298 50.7831 50.5723 50.6457 50.5849L50.1357 49.1238Z" fill="#A02724"/>
<path d="M44.0999 52.7089C44.2759 52.9023 44.4884 53.0589 44.7253 53.1697C44.9622 53.2804 45.2187 53.343 45.4799 53.3539C46.1729 53.3779 46.3559 52.7209 46.0259 52.1539C45.7259 51.6439 45.0149 51.0169 44.3849 51.2539C44.2511 51.312 44.1334 51.4017 44.042 51.5154C43.9505 51.6291 43.8881 51.7633 43.86 51.9065C43.832 52.0497 43.8392 52.1975 43.881 52.3373C43.9228 52.4771 43.9979 52.6046 44.0999 52.7089Z" fill="#B55B52"/>
<path d="M47.016 49.1719C47.0325 49.168 47.0479 49.1606 47.0614 49.1502C47.0748 49.1399 47.0859 49.1268 47.0939 49.1119C47.1683 48.9677 47.2759 48.8432 47.4079 48.7488C47.5399 48.6544 47.6924 48.5927 47.8529 48.5689C47.8866 48.5651 47.9176 48.5489 47.9399 48.5233C47.9621 48.4977 47.9739 48.4647 47.9729 48.4309C47.9718 48.4139 47.9673 48.3974 47.9598 48.3821C47.9522 48.3669 47.9417 48.3534 47.9289 48.3422C47.9161 48.3311 47.9012 48.3225 47.885 48.3172C47.8689 48.3118 47.8519 48.3097 47.8349 48.3109C47.6315 48.3374 47.4375 48.4126 47.2693 48.5301C47.1011 48.6476 46.9638 48.804 46.869 48.9859C46.8529 49.0158 46.8492 49.0508 46.8587 49.0834C46.8683 49.1159 46.8903 49.1434 46.9199 49.1599C46.9342 49.1684 46.9502 49.1739 46.9667 49.176C46.9832 49.1781 47 49.1767 47.016 49.1719Z" fill="#263238"/>
<path d="M51.1202 47.6299C51.1485 47.6129 51.1698 47.5863 51.1802 47.5549C51.1852 47.5388 51.1869 47.5218 51.1853 47.5049C51.1836 47.4881 51.1785 47.4718 51.1704 47.4569C51.1623 47.4421 51.1513 47.4291 51.138 47.4186C51.1247 47.4081 51.1095 47.4004 51.0932 47.3959C50.8988 47.3311 50.6916 47.3145 50.4894 47.3474C50.2872 47.3803 50.096 47.4618 49.9322 47.5849C49.9076 47.6073 49.8927 47.6383 49.8904 47.6714C49.8882 47.7045 49.8988 47.7373 49.92 47.7628C49.9413 47.7883 49.9716 47.8046 50.0046 47.8084C50.0376 47.8121 50.0707 47.803 50.0972 47.7829C50.2282 47.6875 50.3803 47.6249 50.5405 47.6004C50.7008 47.5758 50.8646 47.5901 51.0182 47.6419C51.0351 47.6468 51.0529 47.6483 51.0704 47.6462C51.0879 47.6442 51.1048 47.6386 51.1202 47.6299Z" fill="#263238"/>
<path d="M48.2998 49.1119L48.7438 48.7909C48.7438 48.7909 48.6238 49.2709 48.2998 49.1119Z" fill="#263238"/>
<path d="M50.0338 74.2039C50.0338 74.2039 48.1078 89.2039 44.9998 101.054C40.7578 110.081 35.7628 117.053 30.6418 124.454L28.8418 123.494C32.3548 115.52 36.1138 106.076 39.6718 99.8599C42.2458 77.2339 41.9608 74.2129 41.9608 74.2129L50.0338 74.2039Z" fill="#B55B52"/>
<path d="M31.89 130.454C31.776 129.971 30.804 128.699 30.804 128.699C30.804 128.699 30.504 126.974 31.386 123.794C31.3966 123.757 31.3965 123.717 31.3859 123.68C31.3753 123.643 31.3546 123.61 31.326 123.584L29.562 121.988C29.5115 121.945 29.4466 121.924 29.3808 121.928C29.315 121.932 29.2531 121.961 29.208 122.009C29.058 122.165 28.572 123.029 28.398 123.293C28.224 123.557 27.966 123.941 27.798 124.193C27.198 125.141 25.917 127.31 25.917 127.31L26.148 127.433C26.5722 126.79 27.034 126.173 27.531 125.585C28.053 125.03 28.029 126.008 27.831 126.845C27.633 127.682 28.167 128.987 29.631 129.845C31.371 130.814 32.01 130.949 31.89 130.454Z" fill="#263238"/>
<path d="M52.8871 72.0619C55.0771 78.9859 53.4121 86.0149 52.3711 99.2869C47.5711 100.01 43.2721 99.2869 38.3311 97.7869C41.5051 82.5529 37.5901 78.7549 42.5491 71.8099L52.8871 72.0619Z" fill="#7D942D"/>
<path d="M42.372 71.0539C42.3128 71.3227 42.2727 71.5954 42.252 71.8699C42.2419 71.9226 42.2513 71.9771 42.2783 72.0234C42.3053 72.0697 42.3482 72.1047 42.399 72.1219C43.512 72.2929 50.028 73.2409 52.938 72.5209C52.9794 72.5041 53.0142 72.4741 53.037 72.4357C53.0598 72.3972 53.0692 72.3523 53.064 72.3079C53.064 72.0589 53.064 71.6689 53.064 71.4259C53.064 71.2999 52.989 71.1949 52.896 71.1949C51.879 71.1949 46.512 71.2189 42.522 70.9189C42.4849 70.9194 42.4492 70.9333 42.4216 70.9581C42.394 70.983 42.3764 71.017 42.372 71.0539Z" fill="#263238"/>
<path d="M47.6549 70.9489C48.1559 70.8169 51.0959 70.9039 51.3629 71.0269C51.6299 71.1499 51.5009 72.7729 51.2639 72.8749C50.7929 73.0849 48.1139 73.0309 47.6309 72.9229C47.1479 72.8149 47.3129 71.0539 47.6549 70.9489Z" fill="white"/>
<path opacity="0.2" d="M47.6851 88.8319L48.0901 82.1419L50.4001 78.9648L47.6851 88.8319Z" fill="black"/>
<path d="M43.1701 61.7539C42.7711 62.2459 42.3331 62.7889 41.9401 63.3259C41.5471 63.8629 41.1421 64.4089 40.7821 64.9669C40.0591 66.0086 39.477 67.1415 39.0511 68.3359C39.0151 68.4739 38.9731 68.6089 38.9491 68.7379L38.9281 68.8219C38.9281 68.8219 38.9281 68.8369 38.9281 68.8579C38.9574 69.055 39.0225 69.2451 39.1201 69.4189C39.4223 69.9558 39.7814 70.4586 40.1911 70.9189C41.0876 71.9361 42.04 72.9026 43.0441 73.8139L43.0621 73.8319C43.1856 73.9477 43.2625 74.1047 43.2782 74.2733C43.2939 74.4419 43.2473 74.6104 43.1472 74.747C43.0472 74.8836 42.9006 74.9788 42.7351 75.0147C42.5696 75.0506 42.3967 75.0247 42.2491 74.9419C40.9686 74.2308 39.7678 73.385 38.6671 72.4189C38.0674 71.8983 37.5353 71.3047 37.0831 70.6519C36.7942 70.2358 36.5903 69.7669 36.4831 69.2719C36.4524 69.1106 36.4363 68.947 36.4351 68.7829C36.4351 68.6989 36.4351 68.6059 36.4351 68.5129C36.4351 68.4199 36.4501 68.3989 36.4591 68.3389C36.4861 68.1199 36.5311 67.9159 36.5731 67.7089C36.7613 66.9393 37.0287 66.1913 37.3711 65.4769C37.6921 64.7983 38.0527 64.1391 38.4511 63.5029C38.8411 62.8729 39.2431 62.2579 39.6811 61.6729C40.1191 61.0879 40.5541 60.5209 41.0671 59.9419C41.3104 59.677 41.6469 59.5166 42.0059 59.4943C42.3649 59.472 42.7185 59.5896 42.9928 59.8223C43.267 60.0551 43.4406 60.3849 43.477 60.7428C43.5134 61.1006 43.4098 61.4587 43.1881 61.7419L43.1701 61.7539Z" fill="#B55B52"/>
<path d="M42.819 57.9199C40.86 58.0369 40.218 59.1499 39.543 60.3469C40.143 62.0539 42.633 64.7959 42.633 64.7959C42.633 64.7959 46.377 57.7099 42.819 57.9199Z" fill="#7D942D"/>
<path d="M64.2628 63.6918C60.9298 61.4928 56.4988 62.7348 54.3628 66.4608C51.0268 64.2618 46.5958 65.5038 44.4628 69.2298C42.3298 72.9558 43.3048 77.7618 46.6378 79.9608L58.7128 87.9198L66.4348 74.4198C68.5738 70.6938 67.5988 65.8908 64.2628 63.6918Z" fill="#7D942D"/>
<path opacity="0.9" d="M64.2628 63.6918C60.9298 61.4928 56.4988 62.7348 54.3628 66.4608C51.0268 64.2618 46.5958 65.5038 44.4628 69.2298C42.3298 72.9558 43.3048 77.7618 46.6378 79.9608L58.7128 87.9198L66.4348 74.4198C68.5738 70.6938 67.5988 65.8908 64.2628 63.6918Z" fill="white"/>
<path opacity="0.2" d="M47.379 78.6798C46.7189 78.2335 46.1542 77.6605 45.7175 76.9941C45.2807 76.3277 44.9808 75.5812 44.835 74.7978C44.5038 73.1562 44.7811 71.4502 45.615 69.9978C46.3943 68.5802 47.704 67.5294 49.257 67.0759C49.992 66.8645 50.7643 66.8157 51.5201 66.9328C52.276 67.0499 52.9973 67.33 53.634 67.7538L54.78 68.5098L55.512 67.2288C56.2925 65.811 57.6032 64.7603 59.157 64.3068C59.8915 64.0956 60.6633 64.0468 61.4187 64.1639C62.174 64.281 62.8948 64.5611 63.531 64.9849C66.231 66.7639 67.02 70.6638 65.295 73.6848L58.308 85.9008L47.379 78.6798Z" fill="#7D942D"/>
<path d="M58.9349 80.1169L55.5299 81.0679L53.3369 70.2589L56.7419 69.3079L58.9349 80.1169Z" fill="#7D942D"/>
<path d="M51.5249 78.4279L50.7749 74.7379L60.7469 71.9479L61.4939 75.6379L51.5249 78.4279Z" fill="#7D942D"/>
<path d="M42.189 73.3339L44.775 73.3969L43.416 75.4759C43.416 75.4759 41.874 75.0949 41.478 74.0059L42.189 73.3339Z" fill="#B55B52"/>
<path d="M45.846 74.8969L45.357 75.9919C45.3299 76.0566 45.2889 76.1144 45.2368 76.1612C45.1846 76.2081 45.1228 76.2428 45.0557 76.2629C44.9885 76.283 44.9178 76.2879 44.8485 76.2774C44.7792 76.2668 44.7131 76.2411 44.655 76.2019L43.416 75.4759L44.775 73.3969L45.693 74.2429C45.7808 74.3242 45.8423 74.43 45.8696 74.5465C45.8969 74.663 45.8886 74.7851 45.846 74.8969Z" fill="#B55B52"/>
<path d="M52.4308 132.995C52.0678 132.623 50.6848 132.134 50.6848 132.134C50.6848 132.134 49.3918 130.397 48.3658 127.181C48.3535 127.143 48.3316 127.108 48.3022 127.081C48.2728 127.054 48.2368 127.034 48.1978 127.025L45.8398 126.461C45.8078 126.451 45.7741 126.448 45.7409 126.452C45.7078 126.457 45.6759 126.468 45.6475 126.486C45.619 126.503 45.5947 126.527 45.5761 126.555C45.5576 126.582 45.5452 126.614 45.5398 126.647C45.5008 126.854 45.5398 128.036 45.5398 128.354C45.5398 128.672 45.5398 129.128 45.5398 129.431C45.5608 130.55 45.6838 133.067 45.6838 133.067H45.9448C45.9459 132.304 45.993 131.541 46.0858 130.784C46.2148 130.046 46.7368 130.919 47.0278 131.753C47.3188 132.587 48.4918 133.475 50.1958 133.517C52.1998 133.565 52.7998 133.382 52.4308 132.995Z" fill="#263238"/>
<path d="M99.4106 126.386L104.001 126.428L103.827 131.846L99.9926 131.813L99.4106 126.386Z" fill="#B55B52"/>
<path opacity="0.2" d="M99.4136 126.386L104.004 126.431L103.905 129.464L99.7376 129.428L99.4136 126.386Z" fill="black"/>
<path d="M104.283 104.816C105.885 97.6908 108.537 90.1668 105.744 83.7738L93 84.8868C93 84.8868 94.263 100.052 94.602 106.46C94.956 113.123 99.282 128.495 99.282 128.495H104.532C104.532 128.495 105.342 112.193 104.283 104.816Z" fill="#263238"/>
<path d="M104.562 133.52H103.362L103.062 133.115L102.561 133.526H95.793C95.7264 133.058 95.7887 132.581 95.973 132.146C95.973 132.146 98.322 131.765 99.231 131.141C99.3081 131.088 99.3952 131.051 99.487 131.032C99.5788 131.014 99.6733 131.014 99.765 131.033C100.584 131.189 102.75 131.54 103.923 131.084C103.952 131.075 103.982 131.073 104.012 131.078C104.042 131.083 104.07 131.094 104.095 131.111C104.12 131.128 104.141 131.15 104.157 131.176C104.172 131.202 104.181 131.231 104.184 131.261C104.251 132.023 104.378 132.778 104.562 133.52Z" fill="#263238"/>
<path d="M119.202 123.242L123.624 122.003L125.328 127.148L121.635 128.189L119.202 123.242Z" fill="#B55B52"/>
<path opacity="0.2" d="M119.205 123.245L123.627 122.003L124.581 124.886L120.567 126.014L119.205 123.245Z" fill="black"/>
<path d="M118.629 103.517C118.371 96.5628 117.936 86.1618 115.329 83.1888L101.058 84.1578C101.058 84.1578 106.389 98.9538 108.444 105.206C110.583 111.707 119.817 125.261 119.817 125.261L124.587 123.89C124.587 123.89 121.2 111.254 118.629 103.517Z" fill="#263238"/>
<path d="M79.9406 74.2398L80.3336 76.1328C80.0336 78.1398 77.5076 77.2848 77.5076 77.2848L76.1366 77.3628C75.8933 77.3614 75.6586 77.2733 75.4744 77.1144C75.2902 76.9555 75.1687 76.7362 75.1316 76.4958L74.8466 75.1758C74.7706 74.9077 74.8025 74.6206 74.9353 74.3757C75.0682 74.1307 75.2915 73.9474 75.5576 73.8648L76.7276 73.6038C77.0676 73.5287 77.4209 73.538 77.7566 73.6308L79.9406 74.2398Z" fill="#B55B52"/>
<path d="M72.747 78.0528C71.6913 78.0509 70.6668 77.6952 69.8369 77.0426C69.0071 76.3901 68.4199 75.4783 68.169 74.4528C68.1408 74.3367 68.1598 74.214 68.222 74.1119C68.2842 74.0098 68.3844 73.9366 68.5005 73.9083C68.6167 73.8801 68.7393 73.8991 68.8414 73.9613C68.9435 74.0235 69.0168 74.1237 69.045 74.2398C69.2837 75.2244 69.9038 76.0739 70.7688 76.6013C71.6338 77.1288 72.6729 77.291 73.6575 77.0523C74.6421 76.8136 75.4916 76.1936 76.0191 75.3286C76.5465 74.4636 76.7087 73.4244 76.47 72.4398L64.029 20.9808C64.0012 20.8647 64.0206 20.7422 64.0831 20.6404C64.1455 20.5385 64.2458 20.4657 64.362 20.4378C64.4782 20.41 64.6006 20.4294 64.7025 20.4919C64.8043 20.5543 64.8772 20.6547 64.905 20.7708L77.343 72.2208C77.4897 72.8234 77.5161 73.449 77.4206 74.0618C77.3252 74.6746 77.1099 75.2626 76.7869 75.7921C76.4639 76.3215 76.0397 76.7821 75.5385 77.1474C75.0373 77.5126 74.4689 77.7755 73.866 77.9208C73.4996 78.009 73.1239 78.0533 72.747 78.0528Z" fill="#263238"/>
<path d="M32.2858 44.0178C32.1478 42.7788 34.3348 41.2398 37.2988 40.5228C40.3678 39.7818 43.0918 40.1988 43.3978 41.4558C43.0978 40.1988 46.1638 38.3808 50.2558 37.3908C54.3478 36.4008 57.8998 36.6168 58.1998 37.8738C57.8998 36.6168 62.0368 34.5408 67.4458 33.2328C72.8548 31.9248 77.4958 31.8798 77.7988 33.1368C77.4988 31.8798 80.5618 30.0618 84.6538 29.0718C88.7458 28.0818 92.3008 28.2978 92.6038 29.5548C92.3038 28.2978 94.5418 26.6808 97.6018 25.9548C100.566 25.2378 103.224 25.6038 103.665 26.7738C101.67 19.2108 84.2668 16.9218 64.6468 21.6738C45.0268 26.4258 30.5998 36.3798 32.2858 44.0178Z" fill="#7D942D"/>
<path opacity="0.2" d="M43.3978 41.4558C43.0978 40.1988 46.1638 38.3808 50.2558 37.3908C54.3478 36.4008 57.8998 36.6168 58.1998 37.8738C57.8998 36.6168 62.0368 34.5408 67.4458 33.2328C72.8548 31.9248 77.4958 31.8798 77.7988 33.1368C77.4988 31.8798 80.5618 30.0618 84.6538 29.0718C88.7458 28.0818 92.3008 28.2978 92.6038 29.5548C90.7558 21.9048 78.2398 18.3648 64.6468 21.6528C51.0538 24.9408 41.5468 33.8028 43.3978 41.4558Z" fill="black"/>
<path d="M58.2 37.8739C57.9 36.6169 62.037 34.5409 67.446 33.2329C72.8549 31.9249 77.4959 31.8799 77.7989 33.1369C75.9569 25.4839 70.065 20.3539 64.656 21.6529C59.247 22.9519 56.358 30.2209 58.2 37.8739Z" fill="#7D942D"/>
<path d="M80.3998 74.4588C79.5808 73.0128 78.0928 73.0968 76.9198 72.7998C76.7218 72.7488 76.4068 73.1988 76.6498 73.4808C76.7841 73.6658 76.9542 73.822 77.15 73.94C77.3459 74.058 77.5634 74.1355 77.7898 74.1678C77.8468 74.6838 78.5068 76.0338 79.9648 75.8868C80.2798 75.4802 80.4345 74.972 80.3998 74.4588Z" fill="#B55B52"/>
<path d="M101.265 62.5758C100.641 63.5118 99.9987 64.4178 99.3597 65.3328C98.7207 66.2478 98.0667 67.1508 97.4037 68.0508C96.0807 69.8508 94.7277 71.6358 93.3027 73.4148L92.7027 74.1738L92.1417 74.4168C91.8417 74.5458 91.5417 74.6808 91.2627 74.7918L90.4407 75.0918C89.9127 75.2658 89.3877 75.4368 88.8747 75.5838C87.8487 75.8838 86.8317 76.1418 85.8237 76.3818C84.8157 76.6218 83.8017 76.8318 82.7937 77.0238C81.7857 77.2158 80.7777 77.3958 79.7397 77.5428L78.5127 72.8328L84.0447 70.6668C84.9597 70.3128 85.8447 69.9348 86.7297 69.5658C87.1677 69.3798 87.5817 69.1878 87.9927 68.9988L88.5627 68.6988L89.0487 68.4288L87.8787 69.4308C89.0637 67.6308 90.2457 65.7738 91.4337 63.9288L93.2337 61.1568C93.8337 60.2388 94.4337 59.3058 95.0337 58.4028L101.265 62.5758Z" fill="#7D942D"/>
<g opacity="0.6">
<path opacity="0.6" d="M101.265 62.5758C100.641 63.5118 99.9987 64.4178 99.3597 65.3328C98.7207 66.2478 98.0667 67.1508 97.4037 68.0508C96.0807 69.8508 94.7277 71.6358 93.3027 73.4148L92.7027 74.1738L92.1417 74.4168C91.8417 74.5458 91.5417 74.6808 91.2627 74.7918L90.4407 75.0918C89.9127 75.2658 89.3877 75.4368 88.8747 75.5838C87.8487 75.8838 86.8317 76.1418 85.8237 76.3818C84.8157 76.6218 83.8017 76.8318 82.7937 77.0238C81.7857 77.2158 80.7777 77.3958 79.7397 77.5428L78.5127 72.8328L84.0447 70.6668C84.9597 70.3128 85.8447 69.9348 86.7297 69.5658C87.1677 69.3798 87.5817 69.1878 87.9927 68.9988L88.5627 68.6988L89.0487 68.4288L87.8787 69.4308C89.0637 67.6308 90.2457 65.7738 91.4337 63.9288L93.2337 61.1568C93.8337 60.2388 94.4337 59.3058 95.0337 58.4028L101.265 62.5758Z" fill="white"/>
</g>
<path d="M98.2438 55.9129C102.438 55.1271 106.706 54.8092 110.97 54.9649C111.554 54.9982 112.126 55.1505 112.649 55.4124C113.173 55.6743 113.637 56.0403 114.014 56.488C114.392 56.9356 114.673 57.4555 114.843 58.0159C115.012 58.5762 115.065 59.1653 114.999 59.7469C113.925 69.8749 115.986 81.7789 115.959 83.7649C115.959 83.7649 97.3588 91.4239 92.3818 85.6219C89.9818 73.5499 93.4378 63.0379 95.0518 58.6429C95.3049 57.9522 95.7315 57.3383 96.2905 56.8602C96.8496 56.382 97.5222 56.0558 98.2438 55.9129Z" fill="#7D942D"/>
<path d="M115.158 56.7799C114.357 55.7539 112.932 54.4039 108.153 54.6499C104.007 58.2799 101.118 63.2779 101.118 63.2779C101.118 63.2779 98.4839 59.5549 100.983 55.3279C98.2319 55.4029 96.4319 56.2549 95.7839 56.7049C95.1359 57.1549 91.9589 63.2029 91.2569 72.8029C90.5549 82.4029 92.0999 100.355 92.6999 104.954C101.649 108.554 116.448 104.504 119.598 101.354C119.199 94.0549 116.451 83.1049 115.95 78.4549C115.449 73.8049 116.457 58.8049 115.158 56.7799Z" fill="#7D942D"/>
<path opacity="0.7" d="M115.158 56.7799C114.357 55.7539 112.932 54.4039 108.153 54.6499C104.007 58.2799 101.118 63.2779 101.118 63.2779C101.118 63.2779 98.4839 59.5549 100.983 55.3279C98.2319 55.4029 96.4319 56.2549 95.7839 56.7049C95.1359 57.1549 91.9589 63.2029 91.2569 72.8029C90.5549 82.4029 92.0999 100.355 92.6999 104.954C101.649 108.554 116.448 104.504 119.598 101.354C119.199 94.0549 116.451 83.1049 115.95 78.4549C115.449 73.8049 116.457 58.8049 115.158 56.7799Z" fill="white"/>
<path d="M100.311 56.4648C100.54 55.9013 100.954 55.432 101.484 55.1328C101.641 54.579 101.603 53.9878 101.376 53.4588L107.457 50.8998C107.136 53.0148 106.89 54.6858 107.757 55.6218C106.593 56.4828 104.457 58.0368 101.994 58.1898C99.5307 58.3428 99.9897 57.3678 100.311 56.4648Z" fill="#B55B52"/>
<path opacity="0.2" d="M101.442 53.6538L106.116 52.9518C104.79 54.6558 102.615 55.4478 101.544 54.9018C101.617 54.484 101.582 54.0543 101.442 53.6538Z" fill="black"/>
<path d="M101.841 58.1958L102.78 57.2538L104.208 57.8148C104.208 57.8148 103.41 58.7148 101.841 58.1958Z" fill="#7D942D"/>
<path opacity="0.3" d="M101.841 58.1958L102.78 57.2538L104.208 57.8148C104.208 57.8148 103.41 58.7148 101.841 58.1958Z" fill="black"/>
<path d="M101.271 49.9578C100.044 49.7628 99.471 47.9898 100.275 47.0058C101.079 46.0218 99.171 45.6438 99.804 44.6958C100.437 43.7478 102.252 42.7968 103.359 43.6698C104.466 44.5428 101.952 47.1258 102.495 48.6558C102.11 49.1107 101.701 49.5453 101.271 49.9578Z" fill="#263238"/>
<path d="M108.387 47.5969C107.919 50.5758 107.538 52.5888 105.687 53.6898C101.997 55.8768 100.077 54.0468 99.6446 50.9898C99.2546 48.2329 100.083 43.8259 103.131 42.9379C103.804 42.7421 104.516 42.7202 105.2 42.8741C105.885 43.0279 106.519 43.3526 107.043 43.8178C107.568 44.283 107.967 44.8736 108.202 45.5344C108.436 46.1952 108.5 46.9048 108.387 47.5969Z" fill="#B55B52"/>
<path d="M107.058 50.7529C105.903 50.2999 105.72 48.4399 106.725 47.6569C107.73 46.8739 105.942 46.0879 106.767 45.2959C107.592 44.5039 110.016 43.7299 110.457 45.0649C111.15 47.1649 108.336 48.1369 108.534 49.7479C108.06 50.1082 107.567 50.4437 107.058 50.7529Z" fill="#263238"/>
<path d="M107.352 45.1698C104.463 46.1658 105.15 44.1378 103.542 44.4198C101.934 44.7018 100.332 44.9778 100.005 43.5198C99.7378 42.3438 100.518 41.2698 102.066 41.3748C101.265 41.9088 101.466 42.4398 102.255 42.1728C103.044 41.9058 105.036 39.9768 106.077 41.5128C107.118 43.0488 108.909 41.8698 109.746 42.8718C110.583 43.8738 109.242 45.5538 107.352 45.1698Z" fill="#263238"/>
<path d="M100.329 53.1559C100.413 53.0114 100.527 52.8864 100.663 52.7892C100.799 52.692 100.954 52.6247 101.118 52.5919C101.522 52.7312 101.893 52.954 102.207 53.2459C102.357 53.9719 100.707 54.7039 100.467 54.8029C100.383 54.1549 100.329 53.1559 100.329 53.1559Z" fill="#263238"/>
<path opacity="0.2" d="M104.4 47.8069C104.571 47.7447 104.752 47.7169 104.934 47.7251C105.116 47.7333 105.294 47.7774 105.459 47.8549C105.106 47.9068 104.747 47.8905 104.4 47.8069Z" fill="black"/>
<path opacity="0.2" d="M104.4 48.0588C104.565 48.0368 104.732 48.0506 104.891 48.0993C105.05 48.1479 105.197 48.2303 105.321 48.3408C104.997 48.3138 104.683 48.2176 104.4 48.0588Z" fill="black"/>
<path opacity="0.2" d="M100.269 47.4589C100.269 47.4589 100.023 47.1589 99.8398 47.3269C99.9604 47.4247 100.114 47.472 100.269 47.4589Z" fill="black"/>
<path opacity="0.2" d="M100.224 47.6928C100.224 47.6928 100.023 47.4288 99.8936 47.6928C99.9425 47.7251 99.9999 47.7423 100.059 47.7423C100.117 47.7423 100.175 47.7251 100.224 47.6928Z" fill="black"/>
<path opacity="0.2" d="M101.169 45.1518C102.045 44.9899 102.94 44.9495 103.827 45.0318C102.354 45.1698 101.169 45.1518 101.169 45.1518Z" fill="black"/>
<path opacity="0.2" d="M100.827 45.5538C100.827 45.5538 102.858 45.4818 103.875 45.8838C102.851 45.8556 101.832 45.7452 100.827 45.5538Z" fill="black"/>
<path d="M109.53 50.6809C109.321 50.9907 109.053 51.2563 108.741 51.4622C108.429 51.6682 108.079 51.8104 107.712 51.8809C106.725 52.0639 106.311 51.1609 106.65 50.2729C106.95 49.4748 107.85 48.4188 108.801 48.6348C109.752 48.8508 110.037 49.9038 109.53 50.6809Z" fill="#B55B52"/>
<path d="M103.59 47.8909C103.566 48.1339 103.419 48.3169 103.26 48.3019C103.101 48.2869 102.99 48.0739 103.011 47.8309C103.032 47.5879 103.182 47.4019 103.344 47.4169C103.506 47.4319 103.614 47.6539 103.59 47.8909Z" fill="#263238"/>
<path d="M101.001 47.6808C100.977 47.9238 100.83 48.1068 100.671 48.0918C100.512 48.0768 100.401 47.8638 100.422 47.6208C100.443 47.3778 100.593 47.1918 100.755 47.2068C100.917 47.2218 101.025 47.4348 101.001 47.6808Z" fill="#263238"/>
<path d="M103.277 50.5938C103.661 50.8758 104.753 50.6928 104.828 50.2938C105.533 50.7738 104.957 51.5208 103.928 51.7488C102.899 51.9768 101.565 51.5598 101.271 51.1878L101.307 49.9548C102.086 49.8078 102.599 50.1018 103.277 50.5938Z" fill="#263238"/>
<path d="M99.8367 50.2849C99.4197 50.5609 99.1497 50.3839 99.1647 49.9849C98.5107 50.3809 98.5647 51.0049 99.3297 51.3438C100.095 51.6828 100.98 51.5268 101.283 51.1938L101.355 49.9759C100.767 49.7539 100.467 49.8709 99.8367 50.2849Z" fill="#263238"/>
<path d="M101.823 47.9539L101.643 50.0059C101.643 50.0059 100.845 50.1139 100.416 49.7239C100.717 49.0179 101.203 48.4063 101.823 47.9539Z" fill="#B55B52"/>
<path d="M104.469 47.1648C104.494 47.1649 104.519 47.1576 104.541 47.1438C104.573 47.1235 104.596 47.0912 104.604 47.0541C104.613 47.017 104.606 46.9781 104.586 46.9458C104.471 46.7473 104.31 46.5792 104.117 46.4555C103.924 46.3318 103.704 46.2562 103.476 46.2348C103.457 46.234 103.438 46.237 103.421 46.2435C103.403 46.25 103.387 46.26 103.373 46.2729C103.36 46.2857 103.349 46.3012 103.341 46.3184C103.333 46.3355 103.329 46.354 103.329 46.3728C103.328 46.3917 103.331 46.4106 103.337 46.4284C103.344 46.4462 103.354 46.4625 103.367 46.4764C103.379 46.4904 103.395 46.5016 103.412 46.5096C103.429 46.5175 103.448 46.522 103.467 46.5228C103.648 46.5426 103.821 46.6048 103.973 46.7044C104.126 46.804 104.252 46.9381 104.343 47.0958C104.356 47.1176 104.374 47.1354 104.396 47.1476C104.418 47.1597 104.443 47.1657 104.469 47.1648Z" fill="#263238"/>
<path d="M99.666 46.8078C99.6901 46.8097 99.7143 46.8054 99.7363 46.7954C99.7583 46.7855 99.7775 46.7701 99.792 46.7508C99.8983 46.6056 100.038 46.488 100.199 46.4081C100.361 46.3282 100.539 46.2883 100.719 46.2918C100.738 46.2935 100.757 46.2914 100.775 46.2856C100.793 46.2798 100.81 46.2706 100.824 46.2583C100.839 46.246 100.851 46.231 100.86 46.2141C100.868 46.1972 100.873 46.1788 100.875 46.1598C100.878 46.1218 100.865 46.0842 100.841 46.0551C100.816 46.026 100.781 46.0076 100.743 46.0038C100.515 45.9969 100.289 46.0451 100.084 46.1443C99.8784 46.2436 99.7001 46.3909 99.564 46.5738C99.5407 46.6037 99.5302 46.6416 99.5347 46.6793C99.5392 46.7169 99.5583 46.7512 99.588 46.7748C99.6106 46.7925 99.6375 46.8039 99.666 46.8078Z" fill="#263238"/>
<path d="M120.978 80.9328L122.778 80.2308C124.809 80.2128 124.383 82.8288 124.383 82.8288L124.683 84.1698C124.721 84.4092 124.674 84.6546 124.548 84.8618C124.422 85.0691 124.226 85.2247 123.996 85.3008L122.739 85.8018C122.487 85.9206 122.199 85.9363 121.936 85.8454C121.673 85.7546 121.456 85.5645 121.332 85.3158L120.879 84.2058C120.748 83.8828 120.698 83.5325 120.735 83.1858L120.978 80.9328Z" fill="#B55B52"/>
<path d="M114.78 56.3778L115.173 56.6778L115.527 56.9778C115.758 57.1698 115.98 57.3648 116.202 57.5598C116.646 57.9528 117.081 58.3488 117.507 58.7598C118.359 59.5728 119.178 60.4338 119.97 61.3338C120.37 61.7838 120.757 62.2478 121.131 62.7258C121.505 63.2038 121.869 63.7038 122.223 64.2258C122.961 65.2973 123.601 66.4329 124.137 67.6188L124.404 68.2188L124.437 68.6628C124.518 69.7068 124.581 70.7628 124.647 71.8038L124.848 74.9448C124.962 77.0448 125.076 79.1448 125.148 81.2448L119.877 81.8298C119.481 79.7718 119.13 77.7078 118.773 75.6468L118.269 72.5538C118.101 71.5218 117.933 70.4898 117.78 69.4578L118.08 70.5018C117.653 69.7386 117.161 69.0139 116.61 68.3358C116.028 67.6188 115.386 66.9108 114.702 66.2178C114.018 65.5248 113.289 64.8558 112.539 64.2078C112.165 63.8798 111.784 63.5608 111.396 63.2508L110.82 62.7948L110.535 62.5758L110.286 62.3898L114.78 56.3778Z" fill="#7D942D"/>
<g opacity="0.7">
<path opacity="0.7" d="M114.78 56.3778L115.173 56.6778L115.527 56.9778C115.758 57.1698 115.98 57.3648 116.202 57.5598C116.646 57.9528 117.081 58.3488 117.507 58.7598C118.359 59.5728 119.178 60.4338 119.97 61.3338C120.37 61.7838 120.757 62.2478 121.131 62.7258C121.505 63.2038 121.869 63.7038 122.223 64.2258C122.961 65.2973 123.601 66.4329 124.137 67.6188L124.404 68.2188L124.437 68.6628C124.518 69.7068 124.581 70.7628 124.647 71.8038L124.848 74.9448C124.962 77.0448 125.076 79.1448 125.148 81.2448L119.877 81.8298C119.481 79.7718 119.13 77.7078 118.773 75.6468L118.269 72.5538C118.101 71.5218 117.933 70.4898 117.78 69.4578L118.08 70.5018C117.653 69.7386 117.161 69.0139 116.61 68.3358C116.028 67.6188 115.386 66.9108 114.702 66.2178C114.018 65.5248 113.289 64.8558 112.539 64.2078C112.165 63.8798 111.784 63.5608 111.396 63.2508L110.82 62.7948L110.535 62.5758L110.286 62.3898L114.78 56.3778Z" fill="white"/>
</g>
<path d="M107.199 54.3109C107.199 54.3109 105.399 56.8939 102.78 57.2599C103.838 57.6964 104.783 58.3684 105.543 59.2249C105.543 59.2249 108.243 57.1249 108.612 55.0669C108.351 54.3259 107.199 54.3109 107.199 54.3109Z" fill="#7D942D"/>
<path opacity="0.3" d="M102.717 105.305C102.682 105.305 102.648 105.294 102.621 105.272C102.594 105.25 102.576 105.219 102.57 105.185C98.4299 84.7638 100.884 63.8448 100.908 63.6348C100.91 63.6151 100.916 63.5961 100.926 63.5788C100.936 63.5615 100.949 63.5463 100.964 63.5341C100.98 63.5218 100.998 63.5127 101.017 63.5074C101.036 63.502 101.056 63.5005 101.076 63.5028C101.096 63.5052 101.115 63.5114 101.132 63.5212C101.149 63.5309 101.164 63.5439 101.177 63.5595C101.189 63.5751 101.198 63.593 101.203 63.6121C101.209 63.6312 101.21 63.6511 101.208 63.6708C101.184 63.8808 98.7359 84.7518 102.867 105.125C102.874 105.164 102.866 105.204 102.844 105.237C102.822 105.27 102.788 105.293 102.75 105.302L102.717 105.305Z" fill="#7D942D"/>
<path d="M107.142 68.8488H102.627C102.549 68.851 102.472 68.8358 102.401 68.8043C102.33 68.7729 102.267 68.726 102.216 68.6671C102.166 68.6081 102.129 68.5387 102.109 68.4637C102.088 68.3888 102.085 68.3102 102.099 68.2338L102.399 66.1728C102.432 66.0071 102.52 65.8576 102.649 65.7486C102.779 65.6397 102.941 65.5777 103.11 65.5728H107.61C107.686 65.5711 107.761 65.586 107.831 65.6166C107.901 65.6472 107.963 65.6927 108.013 65.7498C108.064 65.807 108.101 65.8745 108.122 65.9476C108.144 66.0206 108.149 66.0975 108.138 66.1728L107.838 68.2338C107.808 68.3998 107.723 68.551 107.597 68.6626C107.471 68.7743 107.31 68.8399 107.142 68.8488Z" fill="white"/>
<path d="M105.543 66.0619H105.054C105.034 66.0626 105.014 66.059 104.996 66.0511C104.978 66.0432 104.962 66.0313 104.949 66.0163C104.936 66.0014 104.926 65.9836 104.921 65.9645C104.916 65.9454 104.915 65.9253 104.919 65.9059L105.102 64.6819C105.109 64.6389 105.131 64.5998 105.163 64.5713C105.196 64.5428 105.238 64.5267 105.282 64.5259H105.771C105.791 64.5251 105.81 64.5288 105.828 64.5366C105.847 64.5445 105.863 64.5564 105.876 64.5714C105.889 64.5864 105.898 64.6041 105.903 64.6232C105.909 64.6423 105.909 64.6624 105.906 64.6819L105.723 65.9059C105.716 65.9488 105.694 65.9879 105.661 66.0164C105.628 66.045 105.586 66.061 105.543 66.0619Z" fill="#7D942D"/>
<path d="M101.841 58.1959L100.596 57.2689L99.1709 57.8359C99.1709 57.8359 100.392 58.9879 101.841 58.1959Z" fill="#7D942D"/>
<path opacity="0.3" d="M101.841 58.1959L100.596 57.2689L99.1709 57.8359C99.1709 57.8359 100.392 58.9879 101.841 58.1959Z" fill="black"/>
<path d="M101.484 55.1328C101.484 55.1328 100.584 56.4108 100.584 57.2688C99.6838 57.6828 98.3218 58.8318 98.3218 58.8318C98.3218 58.8318 98.4988 57.0318 100.302 55.4628C100.653 55.2362 101.066 55.1212 101.484 55.1328Z" fill="#7D942D"/>
<path d="M126.753 127.577L125.928 128.141L125.478 127.958L125.274 128.591L120.3 131.99C120.001 131.619 119.805 131.176 119.733 130.706C119.733 130.706 121.131 129.554 121.194 128.42C121.195 128.377 121.209 128.336 121.233 128.301C121.257 128.266 121.29 128.239 121.329 128.222C121.896 127.988 124.116 127.022 124.929 125.885C124.949 125.856 124.975 125.833 125.006 125.817C125.037 125.801 125.071 125.793 125.106 125.793C125.141 125.793 125.175 125.801 125.206 125.817C125.237 125.833 125.263 125.856 125.283 125.885C125.729 126.485 126.221 127.051 126.753 127.577Z" fill="#263238"/>
</svg>
