<svg width="25" height="26" viewBox="0 0 25 26" fill="none" xmlns="http://www.w3.org/2000/svg">
<path d="M22.5751 2.6571C21.9759 2.05776 21.2646 1.58231 20.4816 1.25793C19.6987 0.933559 18.8596 0.766602 18.0121 0.766602C17.1646 0.766602 16.3254 0.933559 15.5425 1.25793C14.7596 1.58231 14.0482 2.05776 13.449 2.6571L7.67004 8.4361L1.89105 14.2161C1.29183 14.8153 0.816484 15.5267 0.492188 16.3096C0.167891 17.0925 0.000976589 17.9317 0.000976562 18.7791C0.000976536 19.6265 0.167891 20.4656 0.492188 21.2486C0.816484 22.0315 1.29183 22.7429 1.89105 23.3421C2.49027 23.9413 3.20164 24.4166 3.98456 24.7409C4.76748 25.0652 5.60661 25.2321 6.45404 25.2321C7.30147 25.2321 8.1406 25.0652 8.92352 24.7409C9.70644 24.4166 10.4179 23.9413 11.0171 23.3421L16.8 17.5671L22.579 11.7871C23.1783 11.1879 23.6536 10.4765 23.9779 9.69357C24.3022 8.91065 24.4691 8.07152 24.4691 7.22409C24.4691 6.37666 24.3022 5.53753 23.9779 4.75461C23.6536 3.97169 23.1783 3.26032 22.579 2.6611L22.5751 2.6571ZM9.80005 22.1251C8.91136 23.0064 7.70976 23.4997 6.45819 23.4971C5.20662 23.4945 4.00701 22.9961 3.12201 22.1111C2.23701 21.2261 1.7387 20.0266 1.73608 18.775C1.73347 17.5234 2.22675 16.3218 3.10803 15.4331L8.27905 10.2611L14.9711 16.9541L9.80005 22.1251ZM21.358 10.5671L16.1871 15.7381L9.49506 9.0451L14.6661 3.87408C15.5548 2.9928 16.7564 2.49949 18.0079 2.50211C19.2595 2.50472 20.4591 3.00306 21.3441 3.88806C22.2291 4.77306 22.7274 5.97261 22.73 7.22418C22.7327 8.47575 22.2393 9.67741 21.358 10.5661V10.5671Z" fill="#06103B"/>
<path d="M20.313 6.56911C20.1731 6.56926 20.0351 6.53528 19.9113 6.47011C19.7874 6.40494 19.6812 6.31052 19.6021 6.19508C19.4236 5.93363 19.1897 5.71476 18.9171 5.55406C18.6444 5.39336 18.3396 5.29481 18.0245 5.26539C17.7093 5.23598 17.3915 5.27643 17.0938 5.38389C16.7961 5.49136 16.5258 5.66318 16.3021 5.8871C16.2222 5.96701 16.1273 6.03041 16.0229 6.07365C15.9185 6.1169 15.8066 6.13914 15.6935 6.13914C15.5805 6.13914 15.4687 6.1169 15.3643 6.07365C15.2599 6.03041 15.1649 5.96701 15.085 5.8871C15.0051 5.80719 14.9417 5.71233 14.8985 5.60792C14.8553 5.50352 14.833 5.39162 14.833 5.27861C14.833 5.1656 14.8553 5.0537 14.8985 4.94929C14.9417 4.84489 15.0051 4.75 15.085 4.67009C15.4875 4.26771 15.9736 3.95898 16.5089 3.76582C17.0442 3.57267 17.6156 3.49986 18.1822 3.55256C18.7488 3.60527 19.2969 3.78216 19.7874 4.07072C20.2778 4.35928 20.6988 4.7524 21.0201 5.22209C21.1088 5.35124 21.1605 5.50219 21.1697 5.65861C21.1789 5.81504 21.1453 5.971 21.0723 6.10966C20.9993 6.24832 20.8898 6.36442 20.7556 6.44539C20.6215 6.52636 20.4677 6.56914 20.311 6.56911H20.313Z" fill="#06103B"/>
</svg>
