<svg width="512" height="458" viewBox="0 0 512 458" fill="none" xmlns="http://www.w3.org/2000/svg">
<path d="M364.033 332.037C396.289 332.037 422.437 302.62 422.437 266.333C422.437 230.046 396.289 200.629 364.033 200.629C331.777 200.629 305.629 230.046 305.629 266.333C305.629 302.62 331.777 332.037 364.033 332.037Z" fill="#E8C79C"/>
<path d="M499.165 310.942C479.537 255.342 405.933 232.426 405.933 232.426L360.801 294.602L315.641 232.426C315.641 232.426 242.037 255.326 222.401 310.942C202.765 366.558 211.497 454.882 211.497 454.882H510.061C510.061 454.882 518.801 366.554 499.165 310.942Z" fill="#C76DA5"/>
<path d="M390.825 240.941L360.785 294.585L412.969 312.229L422.437 243.449L390.825 240.941Z" fill="#D686B5"/>
<path d="M330.749 240.941L360.785 294.585L312.481 312.229L299.133 243.449L330.749 240.941Z" fill="#D686B5"/>
<path d="M453.778 85.3226C441.402 9.51859 372.758 8.52659 360.802 8.93459C360.494 8.93459 360.054 8.93459 359.822 8.96259C350.622 8.51859 278.546 7.56258 265.846 85.3226C252.302 168.199 235.434 266.199 359.806 254.959C484.174 266.199 467.306 168.199 453.778 85.3226V85.3226Z" fill="#1B1B1B"/>
<path d="M428.437 101.76C413.534 105.686 397.958 106.347 382.775 103.697C367.592 101.046 353.161 95.1476 340.469 86.4038C339.34 85.5842 337.954 85.1971 336.564 85.3131C335.174 85.4291 333.871 86.0404 332.893 87.0358C327.596 92.3725 321.128 96.4015 314.002 98.8031C306.876 101.205 299.289 101.913 291.841 100.872C290.415 100.68 288.964 100.797 287.587 101.213C286.209 101.63 284.937 102.337 283.856 103.287C282.775 104.237 281.91 105.408 281.319 106.72C280.729 108.033 280.427 109.457 280.433 110.896V149.8C280.157 167.996 284.835 185.925 293.965 201.668C300.533 213.187 309.942 222.831 321.296 229.68C332.65 236.529 345.569 240.355 358.821 240.792C360.123 241.005 361.451 241.005 362.753 240.792C376.006 240.352 388.924 236.524 400.277 229.673C411.629 222.822 421.036 213.176 427.601 201.656C436.732 185.917 441.41 167.993 441.137 149.8V111.528C441.128 109.982 440.767 108.46 440.08 107.075C439.393 105.691 438.4 104.482 437.175 103.54C435.95 102.598 434.526 101.948 433.012 101.639C431.498 101.331 429.933 101.372 428.437 101.76V101.76Z" fill="#7B4B00"/>
<path d="M469.747 159.632C468.687 159.632 467.669 159.211 466.919 158.461C466.169 157.71 465.747 156.693 465.747 155.632V105.232C465.747 51.9801 419.503 8.66016 362.667 8.66016H356.935C300.099 8.66016 253.855 51.9801 253.855 105.232V155.632C253.855 156.693 253.434 157.71 252.684 158.461C251.934 159.211 250.916 159.632 249.855 159.632C248.795 159.632 247.777 159.211 247.027 158.461C246.277 157.71 245.855 156.693 245.855 155.632V105.232C245.855 47.5721 295.687 0.660156 356.935 0.660156H362.667C423.915 0.660156 473.747 47.5721 473.747 105.232V155.632C473.747 156.693 473.326 157.71 472.576 158.461C471.826 159.211 470.808 159.632 469.747 159.632Z" fill="#2F3A5A"/>
<path d="M463.948 115.932H443.168C442.403 115.9 441.655 116.172 441.09 116.689C440.525 117.207 440.188 117.927 440.152 118.692V165.256C440.188 166.022 440.525 166.743 441.09 167.261C441.655 167.779 442.402 168.052 443.168 168.02H463.948C464.715 168.053 465.463 167.78 466.029 167.262C466.595 166.744 466.933 166.023 466.968 165.256V118.692C466.932 117.926 466.594 117.206 466.028 116.689C465.462 116.172 464.714 115.9 463.948 115.932V115.932Z" fill="#9297AB"/>
<path d="M349.429 214.629H310.629C298.482 214.624 286.833 209.798 278.241 201.212C269.648 192.625 264.815 180.98 264.801 168.833V155.633C264.801 154.572 265.222 153.555 265.972 152.804C266.722 152.054 267.74 151.633 268.801 151.633C269.862 151.633 270.879 152.054 271.629 152.804C272.379 153.555 272.801 154.572 272.801 155.633V168.833C272.812 178.853 276.798 188.46 283.884 195.546C290.969 202.631 300.576 206.617 310.597 206.629H349.397C350.458 206.629 351.475 207.05 352.225 207.8C352.975 208.551 353.397 209.568 353.397 210.629C353.397 211.69 352.975 212.707 352.225 213.457C351.475 214.207 350.458 214.629 349.397 214.629H349.429Z" fill="#2F3A5A"/>
<path d="M354.884 225.868C364.571 225.868 372.424 219.029 372.424 210.592C372.424 202.156 364.571 195.316 354.884 195.316C345.197 195.316 337.344 202.156 337.344 210.592C337.344 219.029 345.197 225.868 354.884 225.868Z" fill="#2F3A5A"/>
<path d="M276.065 115.932H255.461C254.699 115.903 253.956 116.177 253.396 116.694C252.836 117.212 252.504 117.93 252.473 118.692V165.256C252.503 166.018 252.834 166.738 253.395 167.256C253.955 167.774 254.698 168.049 255.461 168.02H276.065C276.827 168.048 277.569 167.773 278.129 167.255C278.689 166.737 279.021 166.018 279.053 165.256V118.692C279.02 117.93 278.688 117.212 278.128 116.695C277.568 116.178 276.826 115.904 276.065 115.932V115.932Z" fill="#9297AB"/>
<path d="M275.33 421.399L231.886 282.327C231.331 280.551 230.223 278.998 228.723 277.896C227.224 276.793 225.411 276.199 223.55 276.199L22.202 280.919C20.8445 280.919 19.5056 281.235 18.2917 281.843C17.0779 282.451 16.0227 283.334 15.2099 284.422C14.3971 285.509 13.8491 286.771 13.6096 288.107C13.3701 289.443 13.4455 290.817 13.83 292.119L53.43 426.467C53.9643 428.273 55.0682 429.858 56.5771 430.984C58.086 432.111 59.9189 432.72 61.802 432.719H267.002C268.37 432.718 269.718 432.396 270.938 431.778C272.158 431.161 273.216 430.265 274.026 429.163C274.837 428.062 275.377 426.785 275.603 425.437C275.83 424.088 275.736 422.705 275.33 421.399V421.399Z" fill="#384868"/>
<path d="M253.105 432.727H54.1047C50.8425 432.727 47.714 434.022 45.4073 436.329C43.1006 438.636 41.8047 441.764 41.8047 445.027C41.8047 448.289 43.1006 451.417 45.4073 453.724C47.714 456.031 50.8425 457.327 54.1047 457.327H253.105C256.367 457.327 259.495 456.031 261.802 453.724C264.109 451.417 265.405 448.289 265.405 445.027C265.405 441.764 264.109 438.636 261.802 436.329C259.495 434.022 256.367 432.727 253.105 432.727V432.727Z" fill="#2F3A5A"/>
<path d="M354.862 432.727H256.402C253.139 432.727 250.011 434.022 247.704 436.329C245.397 438.636 244.102 441.764 244.102 445.027C244.102 448.289 245.397 451.417 247.704 453.724C250.011 456.031 253.139 457.327 256.402 457.327H354.862C358.124 457.327 361.252 456.031 363.559 453.724C365.866 451.417 367.162 448.289 367.162 445.027C367.162 441.764 365.866 438.636 363.559 436.329C361.252 434.022 358.124 432.727 354.862 432.727V432.727Z" fill="#384868"/>
<path d="M261.869 421.402L218.597 282.718C218.041 280.944 216.933 279.394 215.434 278.294C213.935 277.194 212.124 276.601 210.265 276.602L8.7372 280.922C7.37962 280.921 6.04071 281.238 4.8269 281.846C3.61309 282.454 2.55784 283.337 1.74503 284.424C0.932229 285.511 0.384282 286.773 0.144747 288.11C-0.0947868 289.446 -0.0193033 290.82 0.365198 292.122L39.9652 426.47C40.5 428.275 41.6041 429.859 43.1129 430.986C44.6216 432.113 46.4542 432.721 48.3372 432.722H253.537C254.905 432.72 256.253 432.398 257.473 431.78C258.693 431.163 259.751 430.267 260.562 429.166C261.373 428.064 261.913 426.788 262.14 425.439C262.367 424.091 262.275 422.708 261.869 421.402V421.402Z" fill="#43567C"/>
<path d="M356.277 293.793H364.033V383.525H356.277V293.793Z" fill="#D686B5"/>
</svg>
