<svg width="215" height="213" viewBox="0 0 215 213" fill="none" xmlns="http://www.w3.org/2000/svg">
<path d="M183.264 105.871C141.148 81.5536 73.0848 81.5536 31.2395 105.871C-10.6059 130.189 -10.3832 169.618 31.7323 193.931C73.8477 218.244 141.916 218.249 183.761 193.931C225.606 169.613 225.384 130.189 183.264 105.871Z" fill="#F5F5F5"/>
<path d="M152.241 132.814C138.831 125.072 117.176 125.072 103.833 132.814C92.0623 139.657 90.7545 150.252 99.8571 157.966C92.5125 157.492 84.8978 158.914 79.2874 162.174C69.4409 167.893 69.493 177.171 79.4059 182.895C89.3188 188.619 105.33 188.614 115.177 182.895C123.014 178.341 124.573 171.523 119.915 166.069C131.202 167.699 143.607 165.965 152.421 160.857C165.722 153.114 165.655 140.557 152.241 132.814Z" fill="#E6E6E6"/>
<path d="M177.312 177.237L153.985 163.771C153.828 163.679 153.699 163.548 153.609 163.391C153.519 163.234 153.471 163.056 153.471 162.875C153.471 162.694 153.519 162.516 153.609 162.359C153.699 162.202 153.828 162.071 153.985 161.98L174.545 150.034C174.702 149.942 174.881 149.893 175.064 149.893C175.246 149.893 175.425 149.942 175.583 150.034L199.427 163.799C199.583 163.89 199.713 164.02 199.803 164.177C199.893 164.334 199.941 164.512 199.941 164.692C199.941 164.873 199.893 165.051 199.803 165.208C199.713 165.364 199.583 165.495 199.427 165.586L179.383 177.233C179.069 177.416 178.712 177.513 178.348 177.514C177.984 177.515 177.627 177.419 177.312 177.237Z" fill="#E6E6E6"/>
<path d="M20.3694 148.963C19.2559 149.608 19.2511 150.65 20.3694 151.294L24.9088 153.938C25.5317 154.256 26.2211 154.422 26.9203 154.422C27.6196 154.422 28.3089 154.256 28.9318 153.938L78.8468 125.119C79.9603 124.479 79.9698 123.432 78.8468 122.788L74.2978 120.163C73.6742 119.847 72.9852 119.683 72.2864 119.683C71.5876 119.683 70.8985 119.847 70.2749 120.163L20.3694 148.963Z" fill="#E6E6E6"/>
<path d="M34.3715 153.105C33.2533 153.749 33.2533 154.791 34.3715 155.431L38.9252 158.061C39.5481 158.379 40.2374 158.544 40.9367 158.544C41.636 158.544 42.3253 158.379 42.9482 158.061L85.5943 133.421C86.7079 132.777 86.7173 131.734 85.5943 131.09L81.0407 128.465C80.4186 128.147 79.7301 127.981 79.0316 127.981C78.333 127.981 77.6445 128.147 77.0224 128.465L34.3715 153.105Z" fill="#E6E6E6"/>
<path d="M115.371 24.1756L117.138 23.1473L135.822 33.8942V35.9364L115.371 24.1756Z" fill="#F5F5F5"/>
<path d="M115.371 24.1757L135.822 35.9365V38.2726L115.366 26.5212L115.371 24.1757Z" fill="#E0E0E0"/>
<path d="M146.503 42.0871L148.27 41.0588L166.954 51.8057V53.8479L146.503 42.0871Z" fill="#F5F5F5"/>
<path d="M146.503 42.087L166.954 53.8479V56.184L146.498 44.4326L146.503 42.087Z" fill="#E0E0E0"/>
<path d="M177.634 59.9937L179.402 58.9655L198.085 69.7123V71.7593L177.634 59.9937Z" fill="#F5F5F5"/>
<path d="M177.634 59.9937L198.086 71.7593V74.0953L177.63 62.3392L177.634 59.9937Z" fill="#E0E0E0"/>
<path d="M115.471 4.53948L117.238 3.51123L117.134 56.4162L115.366 57.4397L115.471 4.53948Z" fill="#F0F0F0"/>
<path d="M115.366 57.4398L117.134 56.4163L137.485 68.0966L135.718 69.1248L115.366 57.4398Z" fill="#F5F5F5"/>
<path d="M113.442 1.0282L137.864 15.0588L137.746 72.6358L113.329 58.6053L113.442 1.0282ZM135.713 69.1246L135.817 16.2197L115.471 4.5394L115.366 57.4443L135.718 69.1199" fill="#E0E0E0"/>
<path d="M113.442 1.02825L115.21 0L139.632 14.0306L137.864 15.0588L113.442 1.02825Z" fill="#F5F5F5"/>
<path d="M137.864 15.0588L139.632 14.0305L139.513 71.6076L137.746 72.6358L137.864 15.0588Z" fill="#F0F0F0"/>
<path d="M146.602 22.4509L148.37 21.4226L148.265 74.3228L146.498 75.351L146.602 22.4509Z" fill="#F0F0F0"/>
<path d="M146.498 75.3511L148.265 74.3229L168.617 86.0079L166.85 87.0362L146.498 75.3511Z" fill="#F5F5F5"/>
<path d="M144.574 18.9397L168.991 32.9703L168.878 90.5473L144.46 76.5168L144.574 18.9397ZM166.845 87.0361L166.949 34.1312L146.574 22.4509L146.469 75.3511L166.821 87.0361" fill="#E0E0E0"/>
<path d="M144.574 18.9397L146.342 17.9115L170.759 31.9421L168.991 32.9703L144.574 18.9397Z" fill="#F5F5F5"/>
<path d="M168.992 32.9703L170.759 31.942L170.645 89.5191L168.878 90.5473L168.992 32.9703Z" fill="#F0F0F0"/>
<path d="M177.734 40.3575L179.501 39.334L179.397 92.2342L177.63 93.2624L177.734 40.3575Z" fill="#F0F0F0"/>
<path d="M177.63 93.2624L179.397 92.2341L199.749 103.914L197.981 104.943L177.63 93.2624Z" fill="#F5F5F5"/>
<path d="M175.706 36.8463L200.123 50.8769L200.009 108.449L175.587 94.4234L175.706 36.8463ZM198.005 104.943L198.086 52.0615L177.734 40.3575L177.63 93.2861L198.005 104.943Z" fill="#E0E0E0"/>
<path d="M175.706 36.8464L177.473 35.8181L201.891 49.8534L200.123 50.8769L175.706 36.8464Z" fill="#F5F5F5"/>
<path d="M200.123 50.8769L201.891 49.8534L201.777 107.426L200.009 108.454L200.123 50.8769Z" fill="#F0F0F0"/>
<path d="M158.244 48.3844C157.964 47.8793 157.551 47.4601 157.05 47.1714L140.669 37.7655C139.248 36.9458 135.836 38.0593 135.836 40.3669V49.8439C135.836 50.4082 135.985 50.9626 136.268 51.4509C136.551 51.9393 136.958 52.3444 137.447 52.6253L150.099 59.8515L147.915 58.6053L148.962 61.5763C148.977 61.6192 149.008 61.6545 149.049 61.6749C149.089 61.6952 149.136 61.6989 149.18 61.6853C149.364 61.5858 150.189 61.1451 150.658 60.8371H150.691C150.691 60.8371 150.724 60.8371 150.734 60.7992L150.99 60.3822L153.833 62.0075C154.306 62.3026 154.848 62.4675 155.405 62.4854C155.962 62.5033 156.514 62.3736 157.004 62.1095C157.495 61.8454 157.907 61.4562 158.199 60.9814C158.491 60.5067 158.652 59.9632 158.666 59.4061V49.9481C158.663 49.3992 158.518 48.8604 158.244 48.3844Z" fill="#BA68C8"/>
<path opacity="0.2" d="M150.72 60.7613C150.72 60.7613 150.691 60.7613 150.677 60.7992H150.644C150.17 61.1072 149.35 61.5479 149.166 61.6474C149.187 61.6432 149.207 61.6347 149.225 61.6225C149.243 61.6103 149.258 61.5946 149.27 61.5763L150.284 59.9273L150.085 59.8136L150.976 60.3254L150.72 60.7613Z" fill="white"/>
<path opacity="0.4" d="M155.06 50.1895C154.857 49.7748 154.566 49.4093 154.207 49.1187C154.084 49.0211 153.954 48.9324 153.819 48.8533L137.424 39.4475C137.262 39.3544 137.078 39.3056 136.891 39.306C136.704 39.3063 136.521 39.3557 136.359 39.4493C136.197 39.5429 136.063 39.6774 135.97 39.8392C135.876 40.001 135.827 40.1846 135.827 40.3715C135.827 38.0638 139.224 36.9503 140.66 37.77L157.055 47.1759C157.556 47.4646 157.969 47.8839 158.249 48.3889L155.06 50.1895Z" fill="white"/>
<path opacity="0.2" d="M155.42 61.0645V51.6255C155.422 51.4987 155.414 51.372 155.397 51.2464C155.347 50.8773 155.233 50.5197 155.06 50.1898L158.244 48.3844C158.516 48.8609 158.66 49.3996 158.661 49.9481V59.3682C158.647 59.9253 158.486 60.4687 158.194 60.9435C157.903 61.4183 157.49 61.8075 157 62.0716C156.509 62.3357 155.957 62.4654 155.4 62.4475C154.843 62.4296 154.301 62.2647 153.828 61.9696C153.988 62.0622 154.17 62.1112 154.355 62.1118C154.54 62.1125 154.723 62.0646 154.883 61.9732C155.044 61.8817 155.179 61.7497 155.273 61.5903C155.367 61.4309 155.418 61.2496 155.42 61.0645Z" fill="white"/>
<path d="M149.838 48.9814C150.135 49.1663 150.38 49.424 150.549 49.7301C150.938 50.4077 150.938 51.1516 150.549 51.3554L145.072 54.478C144.957 54.5304 144.831 54.5515 144.707 54.539C144.582 54.5265 144.462 54.4809 144.361 54.4069C144.065 54.2237 143.822 53.9675 143.655 53.663L141.816 50.4598C141.423 49.7822 141.428 49.0382 141.816 48.8298C141.93 48.7782 142.055 48.7577 142.179 48.7702C142.303 48.7826 142.421 48.8277 142.522 48.9008C142.819 49.0857 143.064 49.3435 143.233 49.6495L144.366 51.6302L149.132 48.9103C149.246 48.8597 149.371 48.8397 149.495 48.8522C149.619 48.8646 149.737 48.9092 149.838 48.9814Z" fill="white"/>
<path d="M75.4256 10.8793C75.075 9.65677 72.5825 7.33492 70.1233 7.38231C69.8865 7.38867 69.6526 7.43514 69.4314 7.51972L21.4498 34.8133C20.7514 35.2191 20.1704 35.7992 19.7634 36.4969C19.3564 37.1946 19.1375 37.9859 19.1279 38.7936V142.599C19.1279 145.243 22.1795 147.764 25.0415 146.551C25.1055 146.532 25.1674 146.506 25.2263 146.475L73.2127 119.129C73.9163 118.729 74.5013 118.149 74.9083 117.449C75.3152 116.749 75.5297 115.954 75.5299 115.144V11.3721C75.5335 11.202 75.4979 11.0333 75.4256 10.8793Z" fill="#455A64"/>
<path d="M25.8235 49.7727C25.8272 49.3706 25.9364 48.9764 26.1401 48.6297C26.3438 48.2829 26.6349 47.9957 26.9844 47.7968L71.526 22.4507C71.7003 22.3512 71.8977 22.2991 72.0985 22.2998C72.2993 22.3005 72.4963 22.3539 72.67 22.4546C72.8436 22.5554 72.9878 22.6999 73.0881 22.8739C73.1883 23.0478 73.2411 23.245 73.2413 23.4458V107.122C73.2409 107.528 73.1333 107.926 72.9294 108.276C72.7255 108.626 72.4326 108.917 72.0804 109.117L27.5388 134.511C27.3645 134.61 27.167 134.662 26.9663 134.662C26.7655 134.661 26.5684 134.607 26.3948 134.507C26.2211 134.406 26.077 134.261 25.9767 134.087C25.8764 133.914 25.8236 133.716 25.8235 133.516V49.7727Z" fill="#BA68C8"/>
<path opacity="0.2" d="M25.8235 49.7727C25.8272 49.3706 25.9364 48.9764 26.1401 48.6297C26.3438 48.2829 26.6349 47.9957 26.9844 47.7968L71.526 22.4507C71.7003 22.3512 71.8977 22.2991 72.0985 22.2998C72.2993 22.3005 72.4963 22.3539 72.67 22.4546C72.8436 22.5554 72.9878 22.6999 73.0881 22.8739C73.1883 23.0478 73.2411 23.245 73.2413 23.4458V107.122C73.2409 107.528 73.1333 107.926 72.9294 108.276C72.7255 108.626 72.4326 108.917 72.0804 109.117L27.5388 134.511C27.3645 134.61 27.167 134.662 26.9663 134.662C26.7655 134.661 26.5684 134.607 26.3948 134.507C26.2211 134.406 26.077 134.261 25.9767 134.087C25.8764 133.914 25.8236 133.716 25.8235 133.516V49.7727Z" fill="black"/>
<path opacity="0.3" d="M19.1279 38.7937V142.599C19.1279 145.243 22.1795 147.764 25.0415 146.551C24.8693 146.613 24.6846 146.633 24.503 146.609C24.3215 146.585 24.1484 146.518 23.9983 146.413C23.8482 146.308 23.7256 146.168 23.6408 146.006C23.556 145.844 23.5115 145.663 23.511 145.48V41.7079C23.5151 40.8055 23.7836 39.9242 24.2834 39.1728L19.5876 36.8036C19.2859 37.4237 19.1288 38.1041 19.1279 38.7937Z" fill="black"/>
<path opacity="0.1" d="M70.1282 7.37779C69.8915 7.38416 69.6575 7.43062 69.4364 7.51521L21.45 34.8135C20.6507 35.2716 20.0083 35.9603 19.6067 36.7894L24.3025 39.1587C24.6981 38.5609 25.2269 38.063 25.8472 37.7039L73.8573 10.363C73.9934 10.2859 74.1438 10.2375 74.2993 10.2208C74.4548 10.2042 74.6121 10.2197 74.7614 10.2664C74.9106 10.313 75.0487 10.3898 75.1671 10.492C75.2855 10.5942 75.3816 10.7197 75.4495 10.8606C75.0799 9.65225 72.5969 7.3304 70.1282 7.37779Z" fill="white"/>
<path d="M55.453 27.5208C55.7894 27.3265 56.069 27.4782 56.069 27.8667C56.0565 28.079 55.9947 28.2854 55.8886 28.4696C55.7826 28.6538 55.635 28.8108 55.4577 28.9282L46.0424 34.3632C45.706 34.5574 45.4312 34.3916 45.4312 34.0078C45.442 33.797 45.5026 33.5918 45.608 33.4089C45.7134 33.2261 45.8607 33.0708 46.0377 32.9558L55.453 27.5208Z" fill="#263238"/>
<path d="M43.6211 34.3538C43.9576 34.1596 44.2277 34.3112 44.2324 34.6997C44.2208 34.9116 44.1599 35.1179 44.0546 35.3022C43.9493 35.4864 43.8025 35.6436 43.6259 35.7612C43.2894 35.9554 43.0099 35.7943 43.0051 35.4058C43.0185 35.1945 43.0812 34.9893 43.1882 34.8066C43.2951 34.624 43.4434 34.4689 43.6211 34.3538Z" fill="#263238"/>
<path d="M49.6484 26.7296C50.3213 26.3411 50.8614 26.6538 50.8662 27.4262C50.8437 27.8489 50.7222 28.2603 50.5115 28.6274C50.3008 28.9945 50.0068 29.307 49.6531 29.5395C48.9803 29.9281 48.4211 29.6106 48.4211 28.8382C48.4459 28.4151 48.5699 28.0038 48.7831 27.6375C48.9963 27.2712 49.2927 26.9602 49.6484 26.7296Z" fill="#263238"/>
<path d="M49.6484 124.446C51.0226 123.655 52.1266 124.285 52.1314 125.868C52.0883 126.729 51.8427 127.568 51.4146 128.316C50.9865 129.065 50.3879 129.701 49.6674 130.175C48.2932 130.966 47.1607 130.317 47.156 128.754C47.2019 127.89 47.4516 127.049 47.8849 126.3C48.3181 125.552 48.9224 124.916 49.6484 124.446Z" fill="#263238"/>
<path d="M84.2109 28.6867C83.8982 27.5779 81.6426 25.4645 79.4013 25.5119C79.1859 25.5175 78.9729 25.5592 78.7711 25.6351L35.2152 50.4078C34.579 50.7767 34.05 51.305 33.6802 51.9406C33.3105 52.5763 33.1128 53.2973 33.1066 54.0327V148.252C33.1066 150.655 35.8738 152.943 38.4705 151.844C38.5276 151.827 38.5831 151.805 38.6364 151.778L82.216 126.929C82.8551 126.565 83.3864 126.039 83.7559 125.403C84.1254 124.767 84.32 124.044 84.3199 123.309V29.1368C84.3193 28.9803 84.282 28.8261 84.2109 28.6867Z" fill="#BA68C8"/>
<path opacity="0.2" d="M33.1064 54.0328V148.252C33.1064 150.655 35.8737 152.943 38.4704 151.844C38.3157 151.901 38.1499 151.919 37.9866 151.899C37.8232 151.879 37.667 151.82 37.5309 151.727C37.3948 151.635 37.2827 151.511 37.2038 151.367C37.1249 151.222 37.0816 151.061 37.0773 150.896V56.6342C37.0807 55.8153 37.3264 55.0157 37.7833 54.336L33.5187 52.2037C33.2431 52.7738 33.102 53.3996 33.1064 54.0328Z" fill="white"/>
<path opacity="0.4" d="M79.4012 25.5262C79.1857 25.5318 78.9727 25.5735 78.771 25.6494L35.215 50.4078C34.4896 50.8247 33.9067 51.4505 33.5424 52.2037L37.807 54.336C38.1688 53.7885 38.6562 53.3352 39.2285 53.014L82.7845 28.2318C82.9084 28.1673 83.0442 28.1283 83.1835 28.1172C83.3229 28.1062 83.463 28.1232 83.5957 28.1675C83.7283 28.2117 83.8507 28.2821 83.9555 28.3746C84.0604 28.467 84.1456 28.5796 84.206 28.7057C83.898 27.5732 81.6425 25.4598 79.4012 25.5262Z" fill="white"/>
<path opacity="0.3" d="M84.2109 28.6867C83.8982 27.5779 81.6426 25.4645 79.4013 25.5119C79.1859 25.5175 78.9729 25.5592 78.7711 25.6351L35.2152 50.4078C34.579 50.7767 34.05 51.305 33.6802 51.9406C33.3105 52.5763 33.1128 53.2973 33.1066 54.0327V148.252C33.1066 150.655 35.8738 152.943 38.4705 151.844C38.5276 151.827 38.5831 151.805 38.6364 151.778L82.216 126.929C82.8551 126.565 83.3864 126.039 83.7559 125.403C84.1254 124.767 84.32 124.044 84.3199 123.309V29.1368C84.3193 28.9803 84.282 28.8261 84.2109 28.6867Z" fill="white"/>
<path d="M80.4912 96.712C80.9034 96.4751 81.2493 96.6646 81.2493 97.1479V106.208C81.2331 106.468 81.156 106.72 81.0243 106.945C80.8926 107.17 80.71 107.36 80.4912 107.501L40.6881 130.384C40.2711 130.625 39.9299 130.436 39.9299 129.952V120.888C39.9439 120.626 40.0193 120.371 40.1502 120.144C40.2812 119.916 40.4638 119.723 40.6833 119.58L80.4912 96.712Z" fill="#BA68C8"/>
<g opacity="0.7">
<path d="M80.4912 96.712C80.9034 96.4751 81.2493 96.6646 81.2493 97.1479V106.208C81.2331 106.468 81.156 106.72 81.0243 106.945C80.8926 107.17 80.71 107.36 80.4912 107.501L40.6881 130.384C40.2711 130.625 39.9299 130.436 39.9299 129.952V120.888C39.9439 120.626 40.0193 120.371 40.1502 120.144C40.2812 119.916 40.4638 119.723 40.6833 119.58L80.4912 96.712Z" fill="white"/>
</g>
<path d="M80.4912 109.956C80.9034 109.714 81.2493 109.909 81.2493 110.387V119.452C81.236 119.716 81.1603 119.973 81.0285 120.202C80.8967 120.431 80.7126 120.625 80.4912 120.769L40.6881 143.651C40.2711 143.893 39.9299 143.703 39.9299 143.22V134.155C39.9439 133.893 40.0193 133.639 40.1502 133.411C40.2812 133.184 40.4638 132.991 40.6833 132.848L80.4912 109.956Z" fill="#BA68C8"/>
<g opacity="0.2">
<path d="M80.4912 109.956C80.9034 109.714 81.2493 109.909 81.2493 110.387V119.452C81.236 119.716 81.1603 119.973 81.0285 120.202C80.8967 120.431 80.7126 120.625 80.4912 120.769L40.6881 143.651C40.2711 143.893 39.9299 143.703 39.9299 143.22V134.155C39.9439 133.893 40.0193 133.639 40.1502 133.411C40.2812 133.184 40.4638 132.991 40.6833 132.848L80.4912 109.956Z" fill="black"/>
</g>
<path d="M80.4912 42.978C80.9034 42.7411 81.2493 42.9306 81.2493 43.4139V88.7705C81.2345 89.032 81.1581 89.2864 81.0264 89.5129C80.8946 89.7393 80.7112 89.9314 80.4912 90.0736L40.6881 112.956C40.2711 113.202 39.9299 113.008 39.9299 112.524V67.1678C39.9442 66.906 40.0199 66.6513 40.1507 66.4241C40.2816 66.1969 40.4641 66.0037 40.6833 65.86L80.4912 42.978Z" fill="#BA68C8"/>
<g opacity="0.2">
<path d="M80.4912 42.978C80.9034 42.7411 81.2493 42.9306 81.2493 43.4139V88.7705C81.2345 89.032 81.1581 89.2864 81.0264 89.5129C80.8946 89.7393 80.7112 89.9314 80.4912 90.0736L40.6881 112.956C40.2711 113.202 39.9299 113.008 39.9299 112.524V67.1678C39.9442 66.906 40.0199 66.6513 40.1507 66.4241C40.2816 66.1969 40.4641 66.0037 40.6833 65.86L80.4912 42.978Z" fill="black"/>
</g>
<path d="M70.5971 94.7077C70.5086 93.3525 70.4217 91.9989 70.3364 90.6468L55.5619 90.0498V92.3432C53.0553 95.8781 52.1881 100.072 52.0365 106.426L70.8103 95.6554C70.7376 95.3395 70.6666 95.0236 70.5971 94.7077Z" fill="#37474F"/>
<path d="M72.4025 65.3813C72.194 65.8551 71.6206 66.1063 71.3411 66.5612C71.2635 66.6925 71.2131 66.8381 71.193 66.9893C71.1728 67.1406 71.1833 67.2943 71.2238 67.4414C71.2643 67.5884 71.334 67.7259 71.4286 67.8455C71.5233 67.9651 71.6411 68.0644 71.775 68.1376C71.9089 68.2107 72.0561 68.2561 72.2079 68.2712C72.3597 68.2863 72.513 68.2707 72.6587 68.2253C72.8043 68.1799 72.9393 68.1056 73.0557 68.007C73.172 67.9083 73.2674 67.7873 73.336 67.651C73.4259 68.0807 73.4259 68.5244 73.336 68.9541C73.2951 69.1689 73.1989 69.3694 73.0568 69.5356C72.9147 69.7018 72.7316 69.828 72.5257 69.9018C72.8315 70.2152 73.0421 70.6089 73.1329 71.0373C73.2237 71.4657 73.191 71.911 73.0386 72.3215C72.8862 72.732 72.6204 73.0909 72.2721 73.3562C71.9237 73.6216 71.5072 73.7826 71.071 73.8205C71.2368 75.0098 70.4597 76.294 69.4789 76.9858C68.4655 77.653 67.2474 77.9369 66.0435 77.7866C64.8499 77.6375 63.6883 77.2967 62.6034 76.7773C60.9419 77.408 59.1644 77.6746 57.391 77.5591C56.2633 77.4501 55.0834 77.1469 54.3016 76.3271C53.5197 75.5074 53.3539 74.0479 54.1736 73.2803C53.9052 73.441 53.5981 73.5259 53.2852 73.5259C52.9722 73.5259 52.6652 73.441 52.3967 73.2803C52.1334 73.1406 51.9174 72.9259 51.7761 72.6634C51.6348 72.4009 51.5745 72.1024 51.6029 71.8056C51.6313 71.5089 51.7471 71.2272 51.9357 70.9963C52.1242 70.7653 52.377 70.5955 52.6621 70.5083C52.464 70.3814 52.3036 70.2037 52.1977 69.9936C52.0918 69.7836 52.0444 69.5489 52.0603 69.3142C52.097 69.0902 52.1947 68.8806 52.3427 68.7085C52.4906 68.5363 52.6831 68.4081 52.899 68.3381C52.8393 68.5311 52.8352 68.7371 52.8872 68.9323C52.9391 69.1276 53.045 69.3043 53.1928 69.4421C53.3503 69.5564 53.5378 69.6223 53.7323 69.6315C53.9267 69.6408 54.1196 69.5931 54.2874 69.4943C54.4436 69.3857 54.5747 69.245 54.672 69.0815C54.7693 68.9181 54.8304 68.7356 54.8512 68.5466C54.8986 68.1706 54.8986 67.7901 54.8512 67.4141C54.6698 66.109 54.798 64.7796 55.2256 63.5333C55.4469 62.9146 55.8195 62.3611 56.3094 61.9233C56.7994 61.4855 57.3912 61.1772 58.0307 61.0266C58.5377 59.5014 59.5863 58.2151 60.9781 57.4112C62.3712 56.6183 64.0089 56.3701 65.5744 56.7146C66.8727 57.0037 68.1426 57.7808 68.6638 59.0081C69.2245 58.8905 69.7972 58.8412 70.3697 58.8612C70.9356 58.8542 71.4841 59.0567 71.9097 59.4298C72.116 59.6206 72.2589 59.87 72.3191 60.1446C72.3792 60.4191 72.3538 60.7054 72.2461 60.965C72.0755 61.3157 71.7107 61.6332 71.796 62.017C71.8813 62.4008 72.2461 62.4908 72.4262 62.7893C72.4985 62.9301 72.5363 63.086 72.5363 63.2442C72.5363 63.4025 72.4985 63.5584 72.4262 63.6991C72.2843 63.9836 72.0988 64.2442 71.8765 64.4715C71.687 64.6895 71.488 64.9785 71.5922 65.2486C71.6965 65.5187 72.2556 65.6466 72.4025 65.3813Z" fill="#263238"/>
<path d="M67.4602 75.6543L68.46 75.5216C69.4128 75.3962 70.3808 75.5763 71.2247 76.0361C72.0686 76.496 72.7447 77.2118 73.1558 78.0804L77.4726 87.1925C77.4726 87.1925 81.9552 83.4965 83.0545 82.1318C83.4004 81.7006 83.3198 81.0562 83.3767 80.5018C83.3938 79.9449 83.545 79.4004 83.8174 78.9144C84.1987 78.2981 84.4186 77.5958 84.4571 76.8721C84.4612 76.8105 84.4803 76.7508 84.5127 76.6982C84.5452 76.6457 84.59 76.6018 84.6432 76.5706C84.6965 76.5393 84.7566 76.5214 84.8183 76.5187C84.88 76.5159 84.9414 76.5282 84.9973 76.5546L85.0731 76.5925C85.2544 76.6746 85.4017 76.8169 85.4901 76.9953C85.5581 77.1816 85.5793 77.3817 85.5517 77.5781C85.5145 78.0878 85.4272 78.5925 85.291 79.085C86.0488 78.3448 86.6288 77.4424 86.9874 76.4456C87.0938 76.0531 87.2532 75.6768 87.4613 75.3274C87.57 75.1578 87.7251 75.0229 87.9083 74.9389C88.0914 74.8549 88.2948 74.8253 88.4942 74.8535C88.5778 75.1977 88.5954 75.5547 88.5464 75.9055C88.6745 75.9047 88.8014 75.9299 88.9195 75.9796C89.0376 76.0293 89.1444 76.1024 89.2334 76.1945C89.3064 76.2923 89.3566 76.4052 89.3804 76.5249C89.4041 76.6446 89.4009 76.768 89.3709 76.8863C89.6312 77.047 89.8453 77.2726 89.9923 77.5408C90.1393 77.8091 90.2142 78.111 90.2096 78.4168C90.2021 79.0136 90.0527 79.5999 89.7736 80.1274C88.9306 81.8957 87.588 83.3783 85.9118 84.392C83.68 87.4104 81.3723 90.8979 78.932 93.3525C78.6491 93.6317 78.3085 93.8455 77.9341 93.9789C77.5596 94.1123 77.1605 94.162 76.7648 94.1245C76.3691 94.087 75.9864 93.9632 75.6437 93.7619C75.301 93.5606 75.0065 93.2866 74.7811 92.9592C72.5234 89.6773 70.4357 86.2817 68.5264 82.7857L67.4602 75.6543Z" fill="#FFA8A7"/>
<path d="M67.4602 75.6543L68.46 75.5216C69.4128 75.3962 70.3808 75.5763 71.2247 76.0362C72.0686 76.496 72.7447 77.2118 73.1558 78.0804L76.5533 85.2545C74.9233 87.7895 71.5779 88.6661 71.5779 88.6661L68.5216 82.7668L67.4602 75.6543Z" fill="#E0E0E0"/>
<path opacity="0.2" d="M75.5204 90.0782C75.9294 88.9732 76.5991 87.9833 77.4726 87.1925L77.2452 86.7186C76.7429 87.0077 75.6388 87.8985 75.5204 90.0782Z" fill="black"/>
<path opacity="0.2" d="M84.5425 82.8616C85.0629 82.6105 85.4665 82.1686 85.6695 81.6276C85.8725 81.0867 85.8592 80.4883 85.6323 79.9569C85.8594 80.1786 86.0197 80.4595 86.0951 80.7678C86.1705 81.076 86.1579 81.3992 86.0588 81.7007C85.9314 82.0111 85.7239 82.2821 85.4575 82.486C85.1911 82.69 84.8754 82.8196 84.5425 82.8616Z" fill="black"/>
<path d="M54.4294 76.0761L58.9547 75.6828C59.7637 76.7386 60.8054 77.5936 61.9987 78.1812C63.192 78.7688 64.5048 79.0732 65.8349 79.0708C66.3783 79.1156 66.9206 78.9717 67.3702 78.6633C67.6308 78.4084 67.8107 78.0824 67.8874 77.726C67.9641 77.3695 67.9341 76.9984 67.8014 76.6589C67.653 76.2405 67.4333 75.851 67.1522 75.5074H68.4742C70.055 76.9528 71.292 78.7338 72.0944 80.7198C72.4967 81.5826 72.6976 82.5256 72.682 83.4775C72.6641 83.9498 72.5341 84.411 72.3025 84.823C72.071 85.235 71.7446 85.586 71.3505 85.8468C71.4441 86.9529 71.4076 88.0661 71.2415 89.1637C71.1212 90.2576 70.6036 91.2693 69.7868 92.0068C68.9698 92.601 68.0102 92.9688 67.0053 93.0729C64.4694 93.5022 61.8756 93.454 59.3574 92.9308C57.9075 92.6275 56.3959 92.111 55.4956 90.9359C54.6522 89.8413 54.491 88.3724 54.5195 86.9935C54.5479 85.6146 54.4294 76.0761 54.4294 76.0761Z" fill="#EBEBEB"/>
<path d="M67.3702 78.6776C66.9205 78.986 66.3783 79.1299 65.8349 79.0851C64.506 79.0837 63.1952 78.776 62.0045 78.186C60.8137 77.5959 59.775 76.7394 58.9689 75.6829L60.4947 75.5502V70.6459L65.8017 72.6882V75.5312H67.1569C67.438 75.8748 67.6577 76.2643 67.8061 76.6827C67.9363 77.0214 67.9643 77.3909 67.8869 77.7454C67.8094 78.0999 67.6298 78.424 67.3702 78.6776Z" fill="#FFA8A7"/>
<path opacity="0.2" d="M60.8689 70.7878C62.4563 73.8678 63.4419 73.9342 65.7969 74.209V72.688L60.8689 70.7878Z" fill="black"/>
<path d="M70.474 63.6613C70.9381 65.9861 70.9671 68.3768 70.5593 70.7121C70.4077 71.5888 70.1518 72.5175 69.4553 73.0814C68.6023 73.7685 67.3751 73.6689 66.29 73.5268C65.0944 73.435 63.9183 73.1717 62.7977 72.7449C62.2384 72.5281 61.7311 72.1958 61.3089 71.7696C60.8868 71.3433 60.5593 70.8329 60.3479 70.2715C60.0488 70.435 59.7036 70.494 59.3671 70.4391C59.0306 70.3842 58.722 70.2184 58.4904 69.9682C58.0343 69.4547 57.7889 68.7879 57.8034 68.1013C57.7668 67.7947 57.8094 67.4839 57.9272 67.1985C58.045 66.9131 58.2341 66.6627 58.4762 66.4712C58.6626 66.3728 58.8686 66.317 59.0793 66.308C59.2899 66.299 59.4999 66.3369 59.694 66.4191C60.0812 66.5877 60.4271 66.8383 60.708 67.1536C60.8455 67.3129 61.0051 67.4517 61.1819 67.5658C61.2736 67.6205 61.3784 67.6493 61.4852 67.6493C61.5919 67.6493 61.6967 67.6205 61.7884 67.5658C61.8823 67.4734 61.9544 67.3612 61.9995 67.2375C62.0446 67.1137 62.0615 66.9814 62.049 66.8503C62.0305 65.7734 62.2744 64.7081 62.7598 63.7466C63.3047 62.8273 64.4135 62.1497 65.4465 62.4293C65.9204 62.5573 66.3516 62.8747 66.8396 62.9032C67.2348 62.8844 67.6177 62.76 67.9484 62.543C68.1755 62.3816 68.4406 62.2821 68.7178 62.2541C68.995 62.2261 69.2747 62.2707 69.5294 62.3835C69.7842 62.4963 70.0052 62.6734 70.1708 62.8974C70.3364 63.1215 70.4409 63.3847 70.474 63.6613Z" fill="#FFA8A7"/>
<path d="M67.1334 66.5516L68.5454 68.9256L66.8633 69.2383L67.1334 66.5516Z" fill="#F28F8F"/>
<path d="M65.2426 70.0676L66.522 70.6884C66.4119 70.8334 66.2575 70.9387 66.0823 70.9883C65.907 71.0379 65.7204 71.0291 65.5506 70.9632C65.4052 70.871 65.2956 70.7322 65.2396 70.5694C65.1836 70.4067 65.1847 70.2297 65.2426 70.0676Z" fill="#F28F8F"/>
<path opacity="0.3" d="M65.2426 70.0676L66.522 70.6884C66.4119 70.8334 66.2575 70.9387 66.0823 70.9883C65.907 71.0379 65.7204 71.0291 65.5506 70.9632C65.4052 70.871 65.2956 70.7322 65.2396 70.5694C65.1836 70.4067 65.1847 70.2297 65.2426 70.0676Z" fill="black"/>
<path d="M65.9961 71.0154C65.8467 71.0446 65.6919 71.0298 65.5507 70.9728C65.4336 70.9071 65.3386 70.808 65.2778 70.6882C65.2171 70.5684 65.1933 70.4333 65.2096 70.2999C65.3935 70.2995 65.5722 70.3613 65.7166 70.4752C65.8776 70.6112 65.9781 70.8055 65.9961 71.0154Z" fill="#F28F8F"/>
<path opacity="0.1" d="M65.9961 71.0154C65.8467 71.0446 65.6919 71.0298 65.5507 70.9728C65.4336 70.9071 65.3386 70.808 65.2778 70.6882C65.2171 70.5684 65.1933 70.4333 65.2096 70.2999C65.3935 70.2995 65.5722 70.3613 65.7166 70.4752C65.8776 70.6112 65.9781 70.8055 65.9961 71.0154Z" fill="black"/>
<path d="M64.7026 66.6465C64.6963 66.7087 64.7024 66.7715 64.7205 66.8314C64.7386 66.8913 64.7682 66.947 64.8078 66.9954C64.8474 67.0438 64.8962 67.0839 64.9513 67.1135C65.0064 67.1431 65.0668 67.1615 65.129 67.1677C65.1913 67.1739 65.2541 67.1678 65.314 67.1498C65.3738 67.1317 65.4296 67.102 65.478 67.0624C65.5264 67.0228 65.5665 66.9741 65.5961 66.919C65.6256 66.8639 65.644 66.8035 65.6503 66.7412C65.6565 66.679 65.6504 66.6162 65.6323 66.5563C65.6143 66.4964 65.5846 66.4407 65.545 66.3923C65.5054 66.3439 65.4566 66.3038 65.4015 66.2742C65.3464 66.2447 65.286 66.2262 65.2238 66.22C65.1616 66.2138 65.0987 66.2199 65.0389 66.2379C64.979 66.256 64.9233 66.2857 64.8749 66.3253C64.8265 66.3649 64.7863 66.4136 64.7568 66.4687C64.7272 66.5239 64.7088 66.5842 64.7026 66.6465Z" fill="#263238"/>
<path d="M68.749 66.8976C68.7423 66.9901 68.7629 67.0825 68.8082 67.1634C68.8534 67.2443 68.9214 67.3101 69.0038 67.3527C69.0861 67.3954 69.1791 67.4129 69.2713 67.4032C69.3635 67.3935 69.4508 67.357 69.5224 67.2981C69.5941 67.2393 69.6468 67.1607 69.6743 67.0722C69.7017 66.9836 69.7026 66.889 69.6767 66.7999C69.6509 66.7109 69.5995 66.6314 69.529 66.5713C69.4584 66.5112 69.3718 66.4731 69.2798 66.4617C69.216 66.4538 69.1513 66.459 69.0896 66.4769C69.0279 66.4948 68.9705 66.525 68.9209 66.5658C68.8712 66.6066 68.8304 66.657 68.8009 66.7141C68.7713 66.7711 68.7537 66.8336 68.749 66.8976Z" fill="#263238"/>
<path d="M69.4077 65.0307L70.4028 65.8741C70.4614 65.7471 70.4801 65.6052 70.4564 65.4673C70.4327 65.3295 70.3677 65.202 70.2701 65.1018C70.148 65.0091 70.002 64.9532 69.8493 64.9406C69.6965 64.928 69.5433 64.9593 69.4077 65.0307Z" fill="#263238"/>
<path d="M65.3279 64.5569L64.1859 65.1871C64.1537 65.0503 64.1636 64.907 64.2143 64.7759C64.2651 64.6448 64.3543 64.5321 64.4703 64.4527C64.6089 64.389 64.7624 64.3651 64.9138 64.3835C65.0652 64.4019 65.2086 64.4619 65.3279 64.5569Z" fill="#263238"/>
<path d="M53.7283 88.9031L52.2167 94.4423L58.0877 99.3609C58.5041 99.712 59.036 99.896 59.5803 99.8773C60.1809 99.8378 60.7842 99.8728 61.3762 99.9816C61.85 100.086 62.2812 100.237 62.7408 100.342C63.0631 100.423 63.3941 100.464 63.7264 100.465C63.7944 100.461 63.862 100.476 63.923 100.506C63.984 100.536 64.0362 100.581 64.0747 100.637C64.1132 100.693 64.1366 100.758 64.1429 100.826C64.1491 100.894 64.1379 100.962 64.1103 101.024C64.0592 101.123 63.9919 101.213 63.9112 101.289C63.6647 101.48 63.3686 101.595 63.0583 101.621C62.5683 101.688 62.0699 101.663 61.5894 101.545C62.073 102.085 62.7012 102.475 63.3995 102.668C64.0581 102.886 64.75 103.014 65.4039 103.246C65.6568 103.312 65.8825 103.457 66.0483 103.659C66.0902 103.708 66.1214 103.766 66.1401 103.828C66.1588 103.89 66.1645 103.955 66.157 104.02C66.1494 104.084 66.1287 104.146 66.0962 104.202C66.0636 104.258 66.0199 104.307 65.9677 104.346C65.6882 104.521 65.3044 104.26 65.0201 104.384C65.0579 104.562 65.0579 104.746 65.0201 104.924C64.9673 105.104 64.8511 105.259 64.6931 105.36C64.6111 105.405 64.519 105.429 64.4254 105.429C64.3317 105.429 64.2396 105.405 64.1576 105.36C64.0186 105.577 63.8368 105.763 63.6233 105.907C63.4098 106.051 63.1692 106.15 62.9162 106.198C62.4127 106.3 61.8939 106.3 61.3904 106.198C59.3007 105.81 57.9787 103.99 56.3344 102.635C56.1117 102.45 50.3308 99.2234 47.3693 97.5792C46.8796 97.3074 46.4939 96.8808 46.2727 96.3663C46.0515 95.8518 46.0072 95.2785 46.1468 94.7361L48.0421 87.3962L53.7283 88.9031Z" fill="#FFA8A7"/>
<path opacity="0.2" d="M48.6106 94.319C49.2455 94.0205 51.2736 93.7788 52.2166 94.4422L52.3729 93.8736C51.7753 93.5548 51.0945 93.4267 50.4219 93.5063C49.7493 93.5859 49.1172 93.8695 48.6106 94.319Z" fill="black"/>
<path d="M54.4579 76.0997L53.6287 76.3319C52.7852 76.5731 52.0127 77.015 51.3772 77.6199C50.7418 78.2248 50.2624 78.9746 49.9801 79.8052L47.3218 87.6C49.691 90.1161 54.0077 89.3437 54.0077 89.3437L54.8607 85.3729C57.8649 80.1511 55.1071 76.9479 54.4579 76.0997Z" fill="#E0E0E0"/>
<g opacity="0.6">
<path d="M42.7824 56.8096L42.7871 57.6957L41.3419 58.5296L41.3466 59.1267L42.6118 58.397V59.283L41.3466 60.0128L41.3513 61.131L40.3278 61.7186L40.3184 58.2311L42.7824 56.8096Z" fill="white"/>
<path d="M45.3885 57.7193L46.0329 58.4301L44.9526 59.0603L44.4313 58.4775L44.1565 58.6386V59.5152L43.1188 60.117V56.6295L44.5782 55.786C45.4264 55.3122 45.9666 55.497 45.9713 56.3025C45.9536 56.8295 45.7467 57.3324 45.3885 57.7193ZM44.5119 57.5393C44.6332 57.4789 44.7357 57.3865 44.8084 57.2721C44.881 57.1577 44.9211 57.0256 44.9241 56.8901C44.9241 56.639 44.7915 56.5584 44.5071 56.7242L44.1375 56.9375V57.7478L44.5119 57.5345" fill="white"/>
<path d="M47.3645 54.1654L47.3739 57.6529L46.3504 58.2405L46.3457 54.753L47.3645 54.1654Z" fill="white"/>
<path d="M50.3262 52.4548L50.3309 53.3409L48.8715 54.1844V54.5919L50.1508 53.8527L50.1556 54.7009L48.8715 55.4401L48.8762 55.8997L50.3878 55.0231L50.3925 55.9092L47.8669 57.3686L47.8574 53.8811L50.3262 52.4548Z" fill="white"/>
<path d="M53.7661 50.4695L53.7803 53.957L52.9369 54.4403L51.7807 53.5211L51.7854 55.1084L50.7904 55.6818L50.7809 52.1943L51.6196 51.711L52.7758 52.6255L52.771 51.0428L53.7661 50.4695Z" fill="white"/>
<path d="M55.7611 49.318C56.7751 48.7304 57.4764 48.991 57.4764 50.0761C57.4507 50.6393 57.2802 51.1864 56.9814 51.6645C56.6826 52.1426 56.2656 52.5356 55.7706 52.8055L54.278 53.6679V50.1804L55.7611 49.318ZM55.7232 51.9147C55.9442 51.7904 56.1279 51.6094 56.2554 51.3903C56.3829 51.1712 56.4494 50.9219 56.4482 50.6684C56.4482 50.133 56.1497 50.0098 55.7185 50.2562L55.292 50.5073V52.1611L55.7185 51.9147" fill="white"/>
<path d="M61.4235 48.4605L62.0679 49.1713L60.9733 49.8015L60.4568 49.2186L60.1773 49.3797V50.2611L59.168 50.8487V47.3612L60.5895 46.5177C61.433 46.0439 61.9731 46.2287 61.9779 47.0342C61.9702 47.5608 61.7735 48.067 61.4235 48.4605ZM60.5469 48.2804C60.6694 48.2211 60.7732 48.1291 60.8468 48.0146C60.9203 47.9 60.9609 47.7674 60.9638 47.6313C60.9638 47.3754 60.8312 47.2996 60.5469 47.4654L60.1725 47.6786V48.4937L60.5469 48.2804Z" fill="white"/>
<path d="M64.8447 44.0726L64.8495 44.9587L63.3853 45.8022V46.2144L64.6694 45.4705L64.6741 46.3187L63.39 47.0579V47.5175L64.911 46.6409V47.527L62.3854 48.9817L62.376 45.4989L64.8447 44.0726Z" fill="white"/>
<path d="M68.3322 45.3898L68.7776 45.7309C68.5785 46.1248 68.2711 46.4536 67.8915 46.6786C67.6854 46.8338 67.433 46.915 67.175 46.909C66.917 46.903 66.6687 46.8101 66.47 46.6455C65.7071 46.9013 65.1764 46.5128 65.1764 45.6172C65.2075 45.044 65.3794 44.4873 65.677 43.9963C65.9745 43.5054 66.3885 43.0954 66.8822 42.8026C67.8678 42.234 68.5976 42.5846 68.6023 43.6413C68.5646 44.4791 68.2167 45.2729 67.6262 45.8683C67.668 45.8971 67.7176 45.9125 67.7683 45.9125C67.8191 45.9125 67.8686 45.8971 67.9105 45.8683C68.0889 45.7467 68.234 45.5821 68.3322 45.3898ZM66.9107 45.5082C67.1208 45.3713 67.2931 45.1836 67.4115 44.9624C67.5299 44.7413 67.5907 44.4939 67.5883 44.2431C67.5883 43.6981 67.285 43.5465 66.9059 43.7692C66.6945 43.9064 66.5212 44.0947 66.4019 44.3166C66.2826 44.5386 66.2213 44.7871 66.2236 45.0391C66.2236 45.5793 66.5316 45.7309 66.9107 45.513" fill="white"/>
<path d="M71.905 39.9974V41.8928C71.9061 42.403 71.7698 42.904 71.5105 43.3434C71.2512 43.7828 70.8785 44.1443 70.4314 44.39C69.4837 44.9302 68.953 44.6459 68.9482 43.5987V41.7033L69.9718 41.111V43.0064C69.9718 43.5371 70.1518 43.6366 70.4456 43.4802C70.6109 43.3752 70.743 43.2256 70.8269 43.0487C70.9107 42.8718 70.9428 42.6748 70.9194 42.4804V40.585L71.905 39.9974Z" fill="white"/>
<path d="M74.8429 38.3011V39.1872L73.3834 40.0307V40.4429L74.6676 39.7037V40.5472L73.3882 41.2864V41.746L74.9045 40.8694L74.9092 41.7555L72.3884 43.2102L72.3741 39.7227L74.8429 38.3011Z" fill="white"/>
<path d="M76.5629 37.2301C76.9042 37.0057 77.3013 36.881 77.7097 36.87L77.4064 37.8982C77.108 37.8988 76.8153 37.979 76.5582 38.1304C76.2597 38.301 76.1602 38.4574 76.1602 38.5758C76.1602 38.9928 77.8423 37.6803 77.8423 38.9644C77.7952 39.3893 77.6397 39.7951 77.3908 40.1427C77.1419 40.4903 76.8079 40.7683 76.4208 40.9498C76.0289 41.2108 75.5696 41.3524 75.0988 41.3573L75.4257 40.3101C75.7775 40.3248 76.1257 40.234 76.4255 40.0495C76.7193 39.8837 76.8236 39.7557 76.8236 39.6373C76.8236 39.1966 75.1414 40.5186 75.1414 39.2155C75.1872 38.7902 75.3422 38.3839 75.5912 38.036C75.8403 37.6881 76.175 37.4105 76.5629 37.2301Z" fill="white"/>
<path d="M80.6712 34.9368V35.8466L79.7851 36.3583L79.7898 38.936L78.7663 39.5283L78.7616 36.9506L77.8707 37.4624V36.5526L80.6712 34.9368Z" fill="white"/>
</g>
<path d="M57.5616 114.259C58.0781 113.96 58.4856 113.937 58.7415 114.178L58.1824 115.083C58.0999 115.021 57.9992 114.987 57.8957 114.987C57.7921 114.987 57.6915 115.021 57.609 115.083C57.42 115.2 57.2643 115.363 57.1572 115.557C57.0501 115.751 56.9951 115.97 56.9977 116.192C56.9977 116.666 57.2441 116.808 57.6137 116.595C57.8679 116.427 58.0672 116.188 58.1871 115.908L58.751 116.159C58.495 116.695 58.084 117.143 57.5711 117.443C56.7229 117.917 56.1069 117.637 56.1022 116.709C56.1205 116.211 56.2637 115.725 56.5188 115.297C56.7738 114.869 57.1324 114.512 57.5616 114.259Z" fill="#BA68C8"/>
<path d="M54.946 115.837L56.1022 118.206L55.1876 118.736L55.0076 118.31L54.0125 118.888L53.8372 119.518L52.9321 120.04L54.0741 116.353L54.946 115.837ZM54.2494 118.002L54.7659 117.704L54.5053 117.092L54.2494 118.002Z" fill="#BA68C8"/>
<path d="M60.3005 112.676C60.817 112.378 61.2482 112.359 61.4851 112.595L60.926 113.491C60.8431 113.427 60.7415 113.393 60.6369 113.393C60.5324 113.393 60.4308 113.427 60.3479 113.491C60.1598 113.608 60.0049 113.772 59.8979 113.966C59.7909 114.16 59.7354 114.378 59.7366 114.6C59.7366 115.074 59.9878 115.216 60.3526 115.003C60.6079 114.836 60.8076 114.597 60.926 114.316L61.4899 114.567C61.2339 115.103 60.8229 115.55 60.31 115.851C59.4618 116.325 58.8411 116.045 58.8411 115.116C58.8614 114.62 59.0055 114.137 59.2605 113.711C59.5154 113.284 59.8729 112.929 60.3005 112.676Z" fill="#BA68C8"/>
<path d="M63.8731 110.681L63.8779 111.449L62.6127 112.178V112.529L63.7215 111.889L63.7262 112.624L62.6127 113.268L62.6174 113.666L63.93 112.908V113.676L61.7456 114.936L61.7361 111.913L63.8731 110.681Z" fill="#BA68C8"/>
<path d="M65.5317 109.724C66.2662 109.302 66.7305 109.473 66.7305 110.169C66.708 110.552 66.586 110.923 66.3766 111.245C66.1672 111.566 65.8777 111.828 65.5364 112.003L65.1621 112.221V112.96L64.276 113.477V110.454L65.5317 109.724ZM65.4796 111.25C65.5858 111.198 65.6757 111.118 65.7392 111.019C65.8028 110.919 65.8376 110.804 65.8397 110.686C65.8397 110.468 65.7212 110.397 65.4796 110.539L65.1574 110.724V111.434L65.4796 111.25Z" fill="#BA68C8"/>
<path d="M69.1945 107.61V108.397L68.4221 108.847L68.4269 111.079L67.5455 111.586L67.536 109.354L66.7684 109.8L66.7637 109.008L69.1945 107.61Z" fill="#BA68C8"/>
<g opacity="0.3">
<path d="M57.5616 114.259C58.0781 113.96 58.4856 113.936 58.7415 114.178L58.1824 115.083C58.0999 115.02 57.9992 114.986 57.8957 114.986C57.7921 114.986 57.6915 115.02 57.609 115.083C57.42 115.199 57.2643 115.363 57.1572 115.557C57.0501 115.751 56.9951 115.97 56.9977 116.192C56.9977 116.666 57.2441 116.808 57.6137 116.595C57.8679 116.427 58.0672 116.188 58.1871 115.908L58.751 116.159C58.495 116.695 58.084 117.142 57.5711 117.443C56.7229 117.917 56.1069 117.637 56.1022 116.708C56.1205 116.21 56.2637 115.725 56.5188 115.297C56.7738 114.869 57.1324 114.512 57.5616 114.259Z" fill="white"/>
<path d="M54.946 115.837L56.1022 118.206L55.1876 118.736L55.0076 118.31L54.0125 118.888L53.8372 119.518L52.9321 120.04L54.0741 116.353L54.946 115.837ZM54.2494 118.002L54.7659 117.704L54.5053 117.092L54.2494 118.002Z" fill="white"/>
<path d="M60.3005 112.676C60.817 112.378 61.2482 112.359 61.4851 112.595L60.926 113.491C60.8431 113.427 60.7415 113.393 60.6369 113.393C60.5324 113.393 60.4308 113.427 60.3479 113.491C60.1598 113.608 60.0049 113.772 59.8979 113.966C59.7909 114.16 59.7354 114.378 59.7366 114.6C59.7366 115.074 59.9878 115.216 60.3526 115.003C60.6079 114.836 60.8076 114.597 60.926 114.316L61.4899 114.567C61.2339 115.103 60.8229 115.55 60.31 115.851C59.4618 116.325 58.8411 116.045 58.8411 115.116C58.8614 114.62 59.0055 114.137 59.2605 113.711C59.5154 113.284 59.8729 112.929 60.3005 112.676Z" fill="white"/>
<path d="M63.8731 110.681L63.8779 111.449L62.6127 112.178V112.529L63.7215 111.889L63.7262 112.624L62.6127 113.268L62.6174 113.666L63.93 112.908V113.676L61.7456 114.936L61.7361 111.913L63.8731 110.681Z" fill="white"/>
<path d="M65.5317 109.724C66.2662 109.302 66.7305 109.473 66.7305 110.169C66.708 110.552 66.586 110.923 66.3766 111.245C66.1672 111.566 65.8777 111.828 65.5364 112.003L65.1621 112.221V112.96L64.276 113.477V110.454L65.5317 109.724ZM65.4796 111.25C65.5858 111.198 65.6757 111.118 65.7392 111.019C65.8028 110.919 65.8376 110.804 65.8397 110.686C65.8397 110.468 65.7212 110.397 65.4796 110.539L65.1574 110.724V111.434L65.4796 111.25Z" fill="white"/>
<path d="M69.1945 107.61V108.397L68.4221 108.847L68.4269 111.079L67.5455 111.586L67.536 109.354L66.7684 109.8L66.7637 109.008L69.1945 107.61Z" fill="white"/>
</g>
<g opacity="0.5">
<path d="M54.3963 128.739C55.2729 128.232 55.8794 128.46 55.8842 129.393C55.8619 129.883 55.7137 130.358 55.4539 130.773C55.194 131.188 54.8314 131.529 54.401 131.763L53.1074 132.511V129.488L54.3963 128.739ZM54.3631 130.99C54.5528 130.881 54.7105 130.723 54.8202 130.534C54.93 130.344 54.9881 130.129 54.9886 129.91C54.9886 129.436 54.7327 129.341 54.3584 129.559L53.9888 129.772V131.194L54.3584 130.981" fill="white"/>
<path d="M58.3389 126.46L58.3436 127.232L57.0784 127.962V128.318L58.1872 127.673L58.192 128.408L57.0784 129.047L57.0832 129.445L58.3957 128.687V129.455L56.2113 130.715L56.2065 127.697L58.3389 126.46Z" fill="white"/>
<path d="M60.1155 125.38C60.632 125.086 61.0348 125.067 61.2954 125.309L60.7363 126.204C60.6564 126.138 60.5571 126.1 60.4536 126.096C60.35 126.091 60.2479 126.121 60.1629 126.181C59.973 126.297 59.8165 126.461 59.7085 126.656C59.6006 126.851 59.5449 127.071 59.5469 127.294C59.5469 127.768 59.7981 127.905 60.1677 127.692C60.4232 127.526 60.6229 127.286 60.741 127.005L61.3001 127.256C61.0462 127.795 60.6326 128.244 60.1155 128.54C59.2721 129.014 58.6466 128.735 58.6466 127.806C58.6707 127.311 58.8175 126.83 59.074 126.407C59.3305 125.983 59.6884 125.63 60.1155 125.38Z" fill="white"/>
<path d="M62.4137 124.11L62.4232 126.342L63.6078 125.655L63.6125 126.446L61.5371 127.64L61.5276 124.622L62.4137 124.11Z" fill="white"/>
<path d="M64.7308 122.769L64.7403 125.792L63.8542 126.304L63.8495 123.281L64.7308 122.769Z" fill="white"/>
<path d="M67.7539 121.025L67.7634 124.048L67.0337 124.47L66.0291 123.674L66.0339 125.043L65.1715 125.546L65.162 122.523L65.8917 122.101L66.8915 122.902L66.8868 121.527L67.7539 121.025Z" fill="white"/>
<path d="M70.3222 119.547V120.314L69.057 121.044L69.0618 121.399L70.1706 120.76V121.49L69.0618 122.129V122.527L70.3743 121.769L70.3791 122.537L68.1899 123.802L68.1804 120.779L70.3222 119.547Z" fill="white"/>
</g>
<path d="M110.315 106.137C105.738 109.312 100.587 111.51 96.7676 115.77C89.6599 123.721 89.4704 136.52 95.0713 145.622C100.672 154.725 111.097 160.184 121.706 161.435C132.837 162.747 144.522 159.672 153.255 152.645C161.988 145.618 167.546 134.639 167.541 123.427C167.537 112.216 161.798 101.057 152.407 94.9351C143.84 89.3484 131.557 87.7515 122.938 94.1437C118.593 97.3754 115.693 102.147 111.362 105.388C111.016 105.639 110.666 105.89 110.315 106.137Z" fill="#BA68C8"/>
<path opacity="0.2" d="M110.315 106.137C105.738 109.312 100.587 111.51 96.7676 115.77C89.6599 123.721 89.4704 136.52 95.0713 145.622C100.672 154.725 111.097 160.184 121.706 161.435C132.837 162.747 144.522 159.672 153.255 152.645C161.988 145.618 167.546 134.639 167.541 123.427C167.537 112.216 161.798 101.057 152.407 94.9351C143.84 89.3484 131.557 87.7515 122.938 94.1437C118.593 97.3754 115.693 102.147 111.362 105.388C111.016 105.639 110.666 105.89 110.315 106.137Z" fill="black"/>
<path opacity="0.1" d="M110.315 106.137C105.738 109.312 100.587 111.51 96.7676 115.77C89.6599 123.721 89.4704 136.52 95.0713 145.622C100.672 154.725 111.097 160.184 121.706 161.435C132.837 162.747 144.522 159.672 153.255 152.645C161.988 145.618 167.546 134.639 167.541 123.427C167.537 112.216 161.798 101.057 152.407 94.9351C143.84 89.3484 131.557 87.7515 122.938 94.1437C118.593 97.3754 115.693 102.147 111.362 105.388C111.016 105.639 110.666 105.89 110.315 106.137Z" fill="white"/>
<path d="M161.566 121.887C161.419 114.15 158.535 106.715 153.425 100.903C148.316 95.0902 141.312 91.2769 133.657 90.1398C132.594 90.245 131.54 90.4223 130.501 90.6705C138.552 91.0989 146.143 94.5599 151.746 100.358C157.35 106.155 160.55 113.859 160.704 121.921C160.908 132.345 155.804 142.988 147.052 150.351C140.191 156.137 131.079 159.97 121.067 161.349L121.706 161.435C122.607 161.539 123.51 161.615 124.417 161.662C133.316 159.937 141.371 156.27 147.607 151.01C156.558 143.462 161.775 132.577 161.566 121.887Z" fill="white"/>
<path opacity="0.1" d="M112.177 152.735C112.177 152.659 112.177 152.583 112.21 152.507C112.587 150.028 113.73 147.728 115.479 145.931C117.227 144.133 119.494 142.927 121.962 142.481C126.377 141.634 130.607 140.014 134.457 137.695C137.192 136.041 139.769 134.018 142.835 133.122C145.809 132.273 148.983 132.458 151.838 133.648C149.265 130.943 144.854 129.753 141.323 130.976C143.768 127.242 145.915 123.214 146.754 118.831C147.592 114.448 147 109.639 144.356 106.037C143.229 104.504 141.777 103.239 140.102 102.334C138.428 101.43 136.574 100.908 134.674 100.806C132.774 100.704 130.875 101.024 129.113 101.745C127.352 102.465 125.772 103.567 124.488 104.971C121.872 107.838 120.394 111.866 118.674 115.344C117.442 117.841 116.162 120.4 114.129 122.304C111.059 125.176 106.638 126.214 103.454 128.938C99.8477 132.056 98.2887 137.036 98.2698 141.808C98.3308 145.026 98.8005 148.223 99.6676 151.323C103.403 154.884 107.855 157.606 112.727 159.307C112.03 157.19 111.841 154.938 112.177 152.735Z" fill="black"/>
<path d="M100.516 149.252C100.846 150.971 101.033 152.715 101.075 154.464L102.312 153.991C102.897 153.771 103.534 153.728 104.144 153.867C104.754 154.006 105.31 154.321 105.742 154.773L105.804 154.834C106.024 155.066 106.326 155.204 106.645 155.219C106.965 155.234 107.278 155.125 107.519 154.915C107.648 154.801 107.752 154.663 107.825 154.508C107.898 154.354 107.939 154.186 107.946 154.014L108.112 148.759L100.516 149.252Z" fill="#FFA8A7"/>
<path d="M105.283 168.789C102.724 171.528 98.0044 173.925 94.5737 171.585L94.9575 172.461C98.3882 174.797 103.108 172.4 105.671 169.661C108.235 166.922 106.572 165.017 108.874 162.586C109.745 161.755 110.426 160.744 110.869 159.625C110.765 159.364 110.67 159.023 110.547 158.63C110.049 159.771 109.353 160.816 108.491 161.714C106.183 164.145 107.846 166.045 105.283 168.789Z" fill="#263238"/>
<path d="M109.287 155.768C108.89 155.207 108.616 154.569 108.481 153.896C108.456 153.74 108.398 153.591 108.311 153.459C108.223 153.327 108.109 153.216 107.974 153.133L107.946 154.014C107.94 154.185 107.898 154.354 107.825 154.508C107.752 154.663 107.648 154.801 107.519 154.915C107.278 155.125 106.965 155.234 106.645 155.219C106.326 155.204 106.024 155.066 105.804 154.834L105.742 154.772C105.31 154.32 104.754 154.005 104.144 153.866C103.534 153.727 102.897 153.771 102.312 153.991L101.056 154.464C100.867 154.532 100.705 154.659 100.593 154.825C100.48 154.991 100.424 155.188 100.43 155.388C100.511 158.98 98.8336 163.757 97.0709 166.382C95.2608 167.13 93.6971 169.599 94.4932 171.404L94.5737 171.585C98.0044 173.925 102.724 171.528 105.283 168.789C107.841 166.05 106.183 164.145 108.491 161.714C109.353 160.816 110.049 159.771 110.547 158.63C110.262 157.622 109.838 156.658 109.287 155.768Z" fill="#37474F"/>
<path d="M104.273 160.956C104.376 161.009 104.496 161.02 104.607 160.985C104.718 160.95 104.81 160.872 104.863 160.769C104.917 160.666 104.927 160.546 104.892 160.435C104.857 160.324 104.779 160.232 104.676 160.179C103.925 159.755 103.077 159.532 102.214 159.532C101.352 159.532 100.504 159.755 99.7529 160.179C99.677 160.463 99.5918 160.748 99.5065 161.027C100.227 160.604 101.045 160.375 101.881 160.362C102.716 160.35 103.541 160.554 104.273 160.956Z" fill="white"/>
<path d="M104.904 159.013C105.007 159.063 105.125 159.069 105.233 159.032C105.342 158.995 105.431 158.917 105.482 158.814C105.508 158.765 105.525 158.711 105.53 158.655C105.536 158.599 105.53 158.542 105.514 158.489C105.498 158.435 105.471 158.385 105.435 158.342C105.4 158.298 105.356 158.263 105.306 158.236C104.52 157.805 103.637 157.583 102.74 157.589C101.844 157.596 100.964 157.832 100.184 158.274C100.132 158.568 100.07 158.862 100.004 159.155C101.501 158.369 103.008 158.051 104.904 159.013Z" fill="white"/>
<path d="M103.577 162.889C103.68 162.939 103.799 162.947 103.908 162.911C104.017 162.874 104.107 162.797 104.16 162.695C104.186 162.645 104.203 162.59 104.208 162.534C104.213 162.477 104.207 162.42 104.19 162.366C104.174 162.312 104.147 162.262 104.11 162.218C104.074 162.175 104.03 162.139 103.98 162.112C103.246 161.699 102.42 161.478 101.579 161.469C100.737 161.461 99.9067 161.666 99.1654 162.065C99.0564 162.368 98.9379 162.667 98.8242 162.96C99.5425 162.538 100.358 162.31 101.191 162.297C102.024 162.285 102.846 162.489 103.577 162.889Z" fill="white"/>
<path d="M97.0757 166.382C95.2656 167.13 93.7019 169.599 94.4979 171.404L94.5785 171.584C97.957 173.892 102.582 171.584 105.169 168.907C103.008 164.676 98.4972 165.732 97.0757 166.382Z" fill="white"/>
<path d="M102.819 164.78C102.923 164.829 103.042 164.836 103.151 164.799C103.26 164.762 103.35 164.684 103.401 164.581C103.428 164.531 103.444 164.477 103.449 164.421C103.455 164.365 103.449 164.308 103.432 164.254C103.415 164.201 103.388 164.151 103.352 164.108C103.316 164.064 103.271 164.029 103.221 164.003C102.487 163.588 101.659 163.366 100.816 163.358C99.9721 163.35 99.1403 163.555 98.3977 163.955C98.2413 164.292 98.0849 164.614 97.9238 164.903C99.4449 164.136 100.923 163.818 102.819 164.78Z" fill="white"/>
<path d="M95.1283 159.7C94.737 161.404 94.206 163.073 93.5409 164.69L94.8582 164.761C95.4859 164.793 96.0903 165.009 96.596 165.382C97.1016 165.756 97.4861 166.27 97.7013 166.86L97.7297 166.945C97.8384 167.247 98.0594 167.494 98.3464 167.636C98.6333 167.779 98.9642 167.804 99.2697 167.708C99.4331 167.658 99.5843 167.574 99.714 167.462C99.8436 167.35 99.9488 167.213 100.023 167.059L102.293 162.321L95.1283 159.7Z" fill="#FFA8A7"/>
<path d="M91.6074 179.526C88.1578 181 82.8697 181.284 80.6758 177.763V178.711C82.8697 182.237 88.1578 181.947 91.6074 180.474C95.057 179 94.3036 176.588 97.3931 175.295C98.5255 174.888 99.5568 174.241 100.416 173.399C100.416 173.12 100.473 172.769 100.52 172.362C99.6053 173.206 98.5461 173.88 97.3931 174.352C94.3036 175.617 95.057 178.029 91.6074 179.526Z" fill="#263238"/>
<path d="M100.521 169.201C100.381 168.531 100.381 167.839 100.521 167.168C100.566 167.016 100.579 166.856 100.557 166.699C100.535 166.542 100.479 166.392 100.393 166.258L100.014 167.054C99.9071 167.275 99.738 167.46 99.5274 167.585C99.3167 167.71 99.0738 167.77 98.8291 167.758C98.5843 167.746 98.3486 167.662 98.1513 167.517C97.9541 167.371 97.8041 167.171 97.7201 166.941L97.6917 166.855C97.4764 166.265 97.092 165.751 96.5864 165.378C96.0807 165.004 95.4763 164.788 94.8486 164.756L93.5076 164.685C93.3072 164.671 93.1075 164.72 92.9371 164.827C92.7668 164.933 92.6347 165.091 92.5599 165.278C91.181 168.594 87.7172 172.29 85.0494 173.977C83.0924 173.935 80.6616 175.56 80.6616 177.536V177.735C82.8555 181.256 88.1436 180.971 91.5932 179.498C95.0429 178.024 94.2894 175.612 97.3789 174.318C98.5319 173.847 99.5911 173.173 100.506 172.328C100.659 171.292 100.664 170.239 100.521 169.201Z" fill="#37474F"/>
<path d="M93.8392 171.945C93.9121 172.035 94.018 172.093 94.1335 172.105C94.249 172.118 94.3647 172.084 94.4552 172.011C94.5457 171.938 94.6035 171.832 94.616 171.717C94.6284 171.601 94.5945 171.485 94.5216 171.395C94.0046 170.705 93.318 170.16 92.5284 169.814C91.7388 169.468 90.873 169.332 90.0153 169.419C89.8305 169.646 89.6457 169.869 89.4514 170.092C90.2806 169.994 91.121 170.113 91.8902 170.438C92.6594 170.763 93.331 171.282 93.8392 171.945Z" fill="white"/>
<path d="M95.204 170.405C95.2791 170.491 95.385 170.545 95.4991 170.554C95.6132 170.564 95.7266 170.529 95.8153 170.457C95.9028 170.385 95.9592 170.282 95.9725 170.17C95.9857 170.058 95.9548 169.945 95.8863 169.855C95.3405 169.143 94.6216 168.582 93.7981 168.226C92.9745 167.871 92.0736 167.731 91.181 167.822C91.0152 168.068 90.8446 168.296 90.6646 168.561C92.3372 168.443 93.8535 168.76 95.204 170.405Z" fill="white"/>
<path d="M92.4273 173.413C92.4995 173.504 92.6048 173.562 92.7198 173.575C92.8349 173.588 92.9504 173.554 93.0409 173.482C93.1314 173.41 93.1895 173.305 93.2023 173.19C93.2152 173.075 93.1819 172.959 93.1096 172.869C92.6054 172.194 91.9387 171.657 91.1715 171.309C90.4044 170.961 89.5617 170.813 88.7218 170.878C88.4991 171.115 88.2479 171.352 88.0442 171.561C88.8725 171.465 89.7115 171.586 90.4795 171.91C91.2476 172.235 91.9186 172.753 92.4273 173.413Z" fill="white"/>
<path d="M85.0636 173.982C83.1066 173.939 80.6758 175.565 80.6758 177.541V177.74C82.8365 181.208 87.9967 180.981 91.451 179.564C91.181 174.821 86.651 173.963 85.0636 173.982Z" fill="white"/>
<path d="M90.9726 174.84C91.0494 174.916 91.152 174.962 91.2604 174.968C91.3689 174.974 91.4757 174.939 91.5603 174.871C91.6449 174.803 91.7013 174.706 91.7188 174.599C91.7363 174.491 91.7135 174.382 91.6549 174.29C91.1485 173.614 90.4793 173.077 89.7097 172.729C88.94 172.381 88.0949 172.234 87.2529 172.3C86.978 172.546 86.7032 172.774 86.4331 172.996C88.12 172.892 89.6221 173.195 90.9726 174.84Z" fill="white"/>
<path d="M115.404 114.808L98.1323 124.432C96.5636 125.302 95.308 126.643 94.5427 128.265C93.7775 129.888 93.5413 131.709 93.8677 133.473L97.2178 151.531L94.4695 160.269C96.8387 163.449 102.288 163.61 102.288 163.61C105.325 157.516 107.552 154.929 109.282 149.826C111.011 144.722 112.158 141.197 112.158 141.197L126.501 137.273C129.783 136.384 132.723 134.53 134.939 131.952C137.156 129.374 138.548 126.19 138.935 122.812C139.182 120.641 139.191 119.158 139.191 119.158L115.404 114.808Z" fill="#455A64"/>
<path opacity="0.2" d="M115.556 119.66C115.546 121.585 116.218 123.452 117.451 124.93L105.259 132.558C103.47 133.679 102.146 135.407 101.53 137.425L97.213 151.531L101.103 135.819C101.552 134.012 102.69 132.452 104.273 131.473L115.556 124.517C114.399 121.641 115.556 119.66 115.556 119.66Z" fill="black"/>
<path d="M104.781 98.3372C106.538 103.076 112.523 101.848 112.523 101.848C112.826 95.4989 104.781 98.3372 104.781 98.3372Z" fill="#BA68C8"/>
<path opacity="0.3" d="M104.781 98.3372C106.538 103.076 112.523 101.848 112.523 101.848C112.826 95.4989 104.781 98.3372 104.781 98.3372Z" fill="black"/>
<path d="M117.276 85.1263H116.83C113.845 85.1595 110.069 87.1923 108.225 92.3999L101.056 106.284L109.239 109.913L113.717 96.8066L117.276 85.1263Z" fill="#FFA8A7"/>
<path opacity="0.2" d="M111.528 94.3427C110.955 95.9822 110.921 97.7497 110.831 99.484C110.741 101.218 110.538 103.313 109.746 104.857C108.871 104.252 107.824 103.946 106.76 103.985C105.697 104.025 104.675 104.407 103.847 105.075C103.253 105.573 102.796 106.214 102.52 106.938L109.239 109.918L113.717 96.8115L115.921 89.5853C114.909 90.0468 114 90.7051 113.245 91.522C112.491 92.3388 111.907 93.2977 111.528 94.3427Z" fill="black"/>
<path d="M109.315 107.411C109.003 106.638 108.498 105.957 107.849 105.434C107.2 104.911 106.427 104.562 105.605 104.421C104.75 104.333 103.887 104.457 103.091 104.782C102.296 105.108 101.594 105.625 101.047 106.288C100.156 107.369 100.293 108.828 100.857 110.108C101.321 111.112 102.122 111.923 103.12 112.399C104.119 112.875 105.253 112.986 106.325 112.714C108.448 112.107 110.111 109.458 109.315 107.411Z" fill="#FFA8A7"/>
<path d="M117.276 85.1264C113.713 84.7331 109.22 86.3774 104.781 98.3372C110.561 98.4841 112.523 101.848 112.523 101.848C115.134 95.2146 118.077 85.9651 118.077 85.9651L117.276 85.1264Z" fill="#BA68C8"/>
<path opacity="0.1" d="M117.276 85.1264C113.713 84.7331 109.22 86.3774 104.781 98.3372C110.561 98.4841 112.523 101.848 112.523 101.848C115.134 95.2146 118.077 85.9651 118.077 85.9651L117.276 85.1264Z" fill="white"/>
<path d="M139.48 120.508C136.414 123.451 121.697 123.991 114.186 116.841C114.906 111.794 114.66 106.388 114.186 101.043C113.712 95.6979 110.58 86.3537 116.555 85.2543C124.525 83.6954 128.553 85.1264 135.035 86.8228C140.741 96.2949 139.963 110.472 139.48 120.508Z" fill="#BA68C8"/>
<path opacity="0.2" d="M139.48 120.508C136.414 123.451 121.697 123.991 114.186 116.841C114.906 111.794 114.66 106.388 114.186 101.043C113.712 95.6979 110.58 86.3537 116.555 85.2543C124.525 83.6954 128.553 85.1264 135.035 86.8228C140.741 96.2949 139.963 110.472 139.48 120.508Z" fill="white"/>
<path d="M112.665 76.9621C111.344 76.3221 110.308 75.2129 109.759 73.8507C109.211 72.4886 109.19 70.971 109.699 69.5938C108.989 69.4159 108.361 69.0014 107.917 68.4187C107.723 68.1337 107.619 67.7967 107.618 67.4516C107.618 67.1065 107.722 66.7695 107.917 66.4844C108.111 66.1993 108.387 65.9796 108.709 65.8538C109.03 65.728 109.382 65.7021 109.718 65.7794C109.457 65.3072 109.362 64.7612 109.448 64.2287C109.534 63.6961 109.796 63.2077 110.192 62.8415C110.597 62.5093 111.106 62.3278 111.63 62.3278C112.154 62.3278 112.662 62.5093 113.068 62.8415C113.001 62.5162 113.041 62.1781 113.181 61.877C113.321 61.5758 113.554 61.3276 113.845 61.1688C114.456 60.8881 115.14 60.8116 115.797 60.9509C116.456 61.0551 117.096 61.2636 117.754 61.3489C118.88 61.4316 120.011 61.3791 121.123 61.1925C122.236 61.012 123.377 61.113 124.44 61.4863C125.478 61.9223 126.549 63.1874 126.26 64.4905C126.38 64.2567 126.549 64.0512 126.755 63.8878C126.961 63.7244 127.199 63.6068 127.454 63.5428C127.707 63.4924 127.968 63.4964 128.22 63.5543C128.471 63.6123 128.708 63.7231 128.913 63.8792C128.293 64.4336 127.705 65.0117 127.089 65.5614C127.729 65.1255 128.857 65.4335 129.349 66.0352C129.797 66.6738 130.061 67.4227 130.112 68.2007C130.53 71.1229 130.519 74.0905 130.079 77.0095C129.856 78.5163 129.269 80.4496 128.032 81.3452L112.665 76.9621Z" fill="#37474F"/>
<path d="M120.024 82.5251L120.337 85.9842C120.351 86.253 120.282 86.5197 120.138 86.7471C119.947 87.108 119.874 87.5198 119.929 87.9244C119.984 88.329 120.165 88.7061 120.446 89.0026C120.891 89.3387 121.433 89.5231 121.99 89.5286C123.044 89.5839 124.097 89.4162 125.081 89.0365C126.065 88.6568 126.957 88.0737 127.7 87.3252C127.854 87.1694 127.976 86.9843 128.057 86.7808C128.139 86.5774 128.178 86.3596 128.174 86.1405L127.947 77.3744L120.024 82.5251Z" fill="#FFA8A7"/>
<path opacity="0.3" d="M127.928 77.3744L120.024 82.5251L120.299 85.5909C121.976 85.1976 123.658 84.7143 124.985 83.6386C126.672 82.2645 128.155 80.9093 127.928 77.3744Z" fill="black"/>
<path d="M111.04 70.0154C111.216 74.0557 112.181 78.0223 113.883 81.691C114.231 82.5042 114.69 83.2649 115.248 83.9512C115.811 84.6416 116.591 85.1222 117.461 85.3159C118.527 85.5149 119.607 85.1406 120.631 84.771C122.498 84.0934 124.421 83.3874 125.904 82.0843C127.388 80.7812 128.411 78.7105 127.904 76.7914C128.432 77.0034 129.004 77.0793 129.569 77.0123C130.134 76.9452 130.672 76.7373 131.136 76.4076C131.583 76.0504 131.934 75.5874 132.157 75.0604C132.381 74.5334 132.469 73.959 132.415 73.3892C132.297 72.2851 131.467 71.1763 130.344 71.1479C130.004 71.1594 129.67 71.243 129.365 71.3933C129.059 71.5436 128.789 71.7572 128.572 72.0198C128.146 72.5502 127.798 73.139 127.539 73.7683C127.421 74.0699 127.242 74.3441 127.013 74.5738C126.896 74.686 126.748 74.7602 126.588 74.7864C126.428 74.8126 126.264 74.7897 126.118 74.7207C125.98 74.6047 125.871 74.4593 125.797 74.2953C125.723 74.1313 125.687 73.9528 125.691 73.773L125.374 71.2806C125.348 71.0892 125.267 70.9095 125.14 70.7631C125.014 70.6168 124.848 70.5102 124.663 70.4561C124.105 70.2655 123.633 69.8825 123.331 69.3757C123.072 68.9322 122.879 68.4533 122.758 67.9542C122.735 67.8598 122.689 67.7723 122.626 67.6988C122.562 67.6254 122.482 67.568 122.392 67.5315C122.301 67.495 122.204 67.4804 122.107 67.4888C122.01 67.4972 121.917 67.5284 121.834 67.5799C118.74 69.5084 114.608 70.295 111.04 70.0154Z" fill="#FFA8A7"/>
<path d="M117.527 75.0571L115.963 79.1891L118.697 79.2222L117.527 75.0571Z" fill="#F28F8F"/>
<path d="M121.479 80.061L119.635 81.3925C119.848 81.5917 120.12 81.7161 120.41 81.7468C120.7 81.7776 120.992 81.7131 121.242 81.5631C121.447 81.3778 121.583 81.1274 121.626 80.854C121.669 80.5806 121.617 80.3007 121.479 80.061Z" fill="#F28F8F"/>
<path opacity="0.3" d="M121.479 80.061L119.635 81.3925C119.848 81.5917 120.12 81.7161 120.41 81.7468C120.7 81.7776 120.992 81.7131 121.242 81.5631C121.447 81.3778 121.583 81.1274 121.626 80.854C121.669 80.5806 121.617 80.3007 121.479 80.061Z" fill="black"/>
<path d="M120.555 81.748C120.797 81.7539 121.035 81.6897 121.242 81.5632C121.407 81.4261 121.529 81.2434 121.591 81.0378C121.653 80.8322 121.654 80.6128 121.592 80.407C121.281 80.4551 120.999 80.6211 120.806 80.8705C120.613 81.12 120.523 81.4341 120.555 81.748Z" fill="#F28F8F"/>
<path d="M121.394 74.5312C121.435 74.6785 121.432 74.8348 121.384 74.9802C121.337 75.1257 121.247 75.2537 121.127 75.3482C121.007 75.4427 120.861 75.4993 120.709 75.5108C120.556 75.5224 120.403 75.4884 120.27 75.4131C120.137 75.3379 120.029 75.2248 119.96 75.0881C119.892 74.9515 119.865 74.7975 119.884 74.6457C119.902 74.4938 119.966 74.351 120.066 74.2353C120.166 74.1196 120.298 74.0363 120.446 73.9958C120.643 73.9432 120.852 73.9698 121.029 74.0699C121.206 74.17 121.337 74.3357 121.394 74.5312Z" fill="#263238"/>
<path d="M115.082 76.0476C115.109 76.1446 115.117 76.2462 115.106 76.3464C115.094 76.4465 115.062 76.5434 115.013 76.6314C114.964 76.7194 114.898 76.7969 114.818 76.8593C114.739 76.9217 114.648 76.9679 114.551 76.9953C114.404 77.0377 114.248 77.0354 114.102 76.9886C113.956 76.9419 113.827 76.8529 113.732 76.733C113.637 76.613 113.58 76.4674 113.568 76.3148C113.555 76.1621 113.589 76.0093 113.664 75.8757C113.738 75.7421 113.851 75.6337 113.988 75.5644C114.124 75.4951 114.278 75.4679 114.43 75.4863C114.582 75.5047 114.725 75.5679 114.841 75.6679C114.958 75.7678 115.041 75.9 115.082 76.0476Z" fill="#263238"/>
<path d="M113.523 73.2898L112.196 74.8914C112.068 74.7071 111.999 74.488 111.999 74.2635C111.999 74.0391 112.068 73.82 112.196 73.6357C112.364 73.4614 112.577 73.3368 112.811 73.2757C113.045 73.2147 113.291 73.2196 113.523 73.2898Z" fill="#263238"/>
<path d="M119.868 71.4087L121.839 72.0863C121.853 71.8622 121.798 71.6393 121.682 71.4471C121.566 71.2549 121.394 71.1027 121.19 71.0106C120.954 70.9471 120.706 70.9506 120.472 71.021C120.238 71.0913 120.029 71.2256 119.868 71.4087Z" fill="#263238"/>
<path opacity="0.15" d="M117.759 120.148C117.759 120.148 117.759 120.148 117.759 120.12C117.759 120.092 117.759 120.12 117.759 120.096C117.759 120.073 117.759 120.096 117.759 120.068C117.757 120.058 117.757 120.049 117.759 120.039V120.011L112.4 110.06L111.599 110.818L116.977 120.798C117.011 120.853 117.035 120.914 117.048 120.978C117.053 120.996 117.053 121.016 117.049 121.035C117.044 121.054 117.036 121.071 117.025 121.087L117.759 120.248C117.762 120.235 117.762 120.222 117.759 120.21C117.761 120.197 117.761 120.185 117.759 120.172C117.759 120.172 117.759 120.158 117.759 120.148Z" fill="white"/>
<path opacity="0.2" d="M112.319 109.956V109.923V109.894C112.318 109.883 112.318 109.872 112.319 109.861L112.296 109.833L112.272 109.8L112.248 109.766V109.733L112.225 109.705L112.201 109.676V109.653L112.12 109.582H112.092H112.068H112.04H112.007H111.973L111.936 109.558L105.776 106.094H105.742H105.704H105.671H105.638H105.605H105.572H105.543H105.51H105.477H105.363C105.346 106.093 105.328 106.096 105.312 106.102C105.295 106.109 105.28 106.119 105.269 106.132L104.534 106.971C104.559 106.951 104.589 106.938 104.62 106.933C104.652 106.928 104.684 106.932 104.714 106.942C104.832 106.974 104.945 107.022 105.051 107.084L111.211 110.548C111.324 110.615 111.443 110.695 111.561 110.78C111.679 110.871 111.791 110.967 111.898 111.07C112 111.166 112.097 111.269 112.187 111.378C112.264 111.469 112.332 111.567 112.39 111.671L113.125 110.828L112.319 109.956Z" fill="white"/>
<path d="M138.997 89.4952C138.125 87.9978 136.784 86.9412 135.054 86.8132L134.036 88.4054C132.957 90.3785 132.403 92.5961 132.429 94.8449L132.614 111.486L131.392 111.993C127.956 113.47 124.365 114.556 120.687 115.23C118.769 113.709 116.383 112.899 113.935 112.936L114.845 114.628C113.125 115.732 109.235 113.747 109.235 113.747C108.95 116.173 110.519 118.689 112.604 119.964C114.688 121.238 134.585 119.366 138.803 116.647C141.579 114.851 140.921 97.6927 140.921 97.6927C141.114 94.8293 140.443 91.9738 138.997 89.4952Z" fill="#FFA8A7"/>
<path d="M105.013 108.724C104.88 109.379 104.805 110.045 104.79 110.714C104.941 112.309 105.615 113.808 106.709 114.979C106.935 115.235 107.217 115.434 107.533 115.561C107.691 115.623 107.861 115.641 108.028 115.615C108.195 115.588 108.351 115.517 108.481 115.41C108.715 115.129 108.835 114.77 108.818 114.405C108.866 113.867 108.836 113.324 108.728 112.794C108.614 112.262 108.313 111.788 107.879 111.458C107.54 111.256 107.177 111.097 106.799 110.984C106.436 110.824 106.112 110.587 105.851 110.288L105.013 108.724Z" fill="#FFA8A7"/>
<path d="M135.054 86.8228C139.836 87.2729 142.494 90.5898 141.319 105.241C137.917 107.445 131.918 105.568 131.918 105.568C130.894 89.5189 133.496 87.7562 135.054 86.8228Z" fill="#BA68C8"/>
<path opacity="0.1" d="M135.054 86.8228C139.836 87.2729 142.494 90.5898 141.319 105.241C137.917 107.445 131.918 105.568 131.918 105.568C130.894 89.5189 133.496 87.7562 135.054 86.8228Z" fill="white"/>
<path d="M117.759 120.148C117.759 120.148 117.759 120.148 117.759 120.12C117.759 120.092 117.759 120.12 117.759 120.096C117.759 120.073 117.759 120.096 117.759 120.068C117.757 120.059 117.757 120.049 117.759 120.039V120.011L112.4 110.06V110.037V110.003V109.975C112.399 109.964 112.399 109.953 112.4 109.942L112.376 109.913L112.353 109.88L112.329 109.847V109.814L112.305 109.785L112.281 109.757V109.733L112.201 109.662H112.173H112.149H112.12H112.087H112.054L112.016 109.639L105.856 106.175H105.823H105.785H105.752H105.719H105.686H105.652H105.624H105.591H105.558H105.444C105.426 106.174 105.409 106.176 105.392 106.183C105.376 106.189 105.361 106.2 105.349 106.213L104.615 107.051C104.553 107.094 104.548 107.193 104.638 107.359L109.993 117.31C110.293 117.773 110.699 118.158 111.177 118.433L117.337 121.897C117.66 122.077 117.849 122.082 117.873 121.949C117.878 121.968 117.878 121.987 117.873 122.006L118.607 121.167C118.61 121.155 118.61 121.142 118.607 121.129C118.61 121.117 118.61 121.104 118.607 121.091C118.607 121.091 117.759 120.158 117.759 120.148ZM103.871 106.08C103.871 106.08 103.871 106.08 103.913 106.08C103.899 106.079 103.885 106.079 103.871 106.08ZM110.936 110.056L111.102 110.198L110.936 110.056ZM111.32 110.43L111.395 110.51L111.32 110.43ZM117.006 120.978C117.001 120.907 116.979 120.838 116.939 120.779C116.973 120.834 116.997 120.895 117.01 120.959C117.01 120.959 117.02 120.987 117.02 120.997L117.006 120.978Z" fill="#455A64"/>
<path d="M159.178 162.07L157.183 163.226L157.192 160.923L159.178 162.07Z" fill="#E6E6E6"/>
<path d="M157.273 138.553L176.658 149.75L157.273 138.553Z" fill="#CFCFCF"/>
<path d="M159.178 162.07L176.615 172.139V174.442L178.691 175.641L178.767 148.551L155.188 134.942L155.112 162.032L157.188 163.226V160.923L159.178 162.07ZM176.634 158.535L157.254 147.338L157.283 138.553L176.682 149.75L176.634 158.535ZM176.606 169.722L157.216 158.53L157.254 149.769V149.745L176.644 160.937L176.606 169.722Z" fill="#E0E0E0"/>
<path d="M157.216 158.53L157.24 149.769V149.745L176.63 160.937L176.601 169.722L157.216 158.53Z" fill="#E0E0E0"/>
<path d="M157.245 147.338L157.273 138.553L176.658 149.75L176.634 158.535L157.245 147.338Z" fill="#E0E0E0"/>
<path d="M178.762 148.551L199.346 136.591L199.265 163.681L178.686 175.641L178.762 148.551Z" fill="#EBEBEB"/>
<path d="M178.762 148.551L155.183 134.942L175.767 122.982L199.346 136.591L178.762 148.551Z" fill="#F5F5F5"/>
<path opacity="0.2" d="M159.178 162.07L157.183 163.226L157.192 160.923L159.178 162.07Z" fill="white"/>
<path d="M157.273 138.553L176.658 149.75L157.273 138.553Z" fill="#CFCFCF"/>
<path opacity="0.8" d="M157.216 158.53L157.24 149.769V149.745L176.63 160.937L176.601 169.722L157.216 158.53Z" fill="white"/>
<path opacity="0.8" d="M157.245 147.338L157.273 138.553L176.658 149.75L176.634 158.535L157.245 147.338Z" fill="white"/>
<path d="M163.594 145.471L163.599 144.258L170.313 148.134L170.309 149.347L163.594 145.471Z" fill="#E0E0E0"/>
<path d="M163.594 156.507L163.599 155.289L170.313 159.17L170.309 160.383L163.594 156.507Z" fill="#E0E0E0"/>
<path opacity="0.05" d="M183.316 129.967C180.695 128.455 176.469 128.455 173.867 129.967C171.266 131.478 171.28 133.928 173.896 135.439C176.511 136.951 180.747 136.951 183.344 135.439C185.941 133.928 185.95 131.478 183.316 129.967Z" fill="black"/>
<path d="M185.604 120.457L178.421 120.665L171.242 120.457C170.929 125.309 171.877 130.251 173.185 132.663C173.496 133.276 173.994 133.774 174.606 134.084C176.725 135.312 180.15 135.312 182.254 134.084C182.879 133.761 183.38 133.239 183.676 132.601C184.974 130.199 185.912 125.285 185.604 120.457Z" fill="white"/>
<path d="M183.481 117.514C186.296 119.139 186.325 121.778 183.515 123.399C180.705 125.02 176.175 125.024 173.36 123.399C170.545 121.774 170.517 119.134 173.327 117.514C176.137 115.893 180.672 115.893 183.481 117.514Z" fill="#EBEBEB"/>
<path d="M182.368 118.163C184.562 119.428 184.571 121.48 182.392 122.75C180.212 124.02 176.663 124.02 174.469 122.75C172.275 121.48 172.261 119.433 174.44 118.163C176.62 116.893 180.174 116.893 182.368 118.163Z" fill="#E0E0E0"/>
<g opacity="0.15">
<path d="M182.368 118.163C184.562 119.428 184.571 121.48 182.392 122.75C180.212 124.02 176.663 124.02 174.469 122.75C172.275 121.48 172.261 119.433 174.44 118.163C176.62 116.893 180.174 116.893 182.368 118.163Z" fill="black"/>
</g>
<path d="M177.824 120.66C178.401 121.141 179.083 121.477 179.816 121.642C180.548 121.807 181.309 121.795 182.036 121.608C182.738 121.395 183.375 121.01 183.89 120.489C184.406 119.968 184.783 119.326 184.988 118.623C184.138 118.219 183.358 117.68 182.681 117.026C183.758 116.753 184.89 116.793 185.945 117.14C186.239 116.681 186.415 116.157 186.458 115.614C186.501 115.071 186.41 114.526 186.192 114.026C184.966 113.481 183.587 113.386 182.297 113.756C182.833 113.29 183.459 112.94 184.137 112.726C184.814 112.513 185.528 112.441 186.235 112.515C186.333 110.456 186.01 108.399 185.287 106.469C182.61 106.606 180.013 107.762 179.127 108.591C179.087 109.549 179.188 110.506 179.425 111.434C179.079 111.259 178.783 110.998 178.565 110.676C178.347 110.354 178.214 109.983 178.179 109.596C176.502 110.018 175.786 110.852 175.526 111.491C175.767 112.682 176.314 113.789 177.113 114.704C175.54 114.23 174.9 112.477 174.9 112.477C173.365 116.154 173.663 120.295 177.824 120.66Z" fill="#BA68C8"/>
<path opacity="0.2" d="M177.824 120.66C178.401 121.141 179.083 121.477 179.816 121.642C180.548 121.807 181.309 121.795 182.036 121.608C182.738 121.395 183.375 121.01 183.89 120.489C184.406 119.968 184.783 119.326 184.988 118.623C184.138 118.219 183.358 117.68 182.681 117.026C183.758 116.753 184.89 116.793 185.945 117.14C186.239 116.681 186.415 116.157 186.458 115.614C186.501 115.071 186.41 114.526 186.192 114.026C184.966 113.481 183.587 113.386 182.297 113.756C182.833 113.29 183.459 112.94 184.137 112.726C184.814 112.513 185.528 112.441 186.235 112.515C186.333 110.456 186.01 108.399 185.287 106.469C182.61 106.606 180.013 107.762 179.127 108.591C179.087 109.549 179.188 110.506 179.425 111.434C179.079 111.259 178.783 110.998 178.565 110.676C178.347 110.354 178.214 109.983 178.179 109.596C176.502 110.018 175.786 110.852 175.526 111.491C175.767 112.682 176.314 113.789 177.113 114.704C175.54 114.23 174.9 112.477 174.9 112.477C173.365 116.154 173.663 120.295 177.824 120.66Z" fill="black"/>
<path opacity="0.3" d="M177.824 120.66C178.401 121.141 179.083 121.477 179.816 121.642C180.548 121.807 181.309 121.795 182.036 121.608C182.738 121.395 183.375 121.01 183.89 120.489C184.406 119.968 184.783 119.326 184.988 118.623C184.138 118.219 183.358 117.68 182.681 117.026C183.758 116.753 184.89 116.793 185.945 117.14C186.239 116.681 186.415 116.157 186.458 115.614C186.501 115.071 186.41 114.526 186.192 114.026C184.966 113.481 183.587 113.386 182.297 113.756C182.833 113.29 183.459 112.94 184.137 112.726C184.814 112.513 185.528 112.441 186.235 112.515C186.333 110.456 186.01 108.399 185.287 106.469C182.61 106.606 180.013 107.762 179.127 108.591C179.087 109.549 179.188 110.506 179.425 111.434C179.079 111.259 178.783 110.998 178.565 110.676C178.347 110.354 178.214 109.983 178.179 109.596C176.502 110.018 175.786 110.852 175.526 111.491C175.767 112.682 176.314 113.789 177.113 114.704C175.54 114.23 174.9 112.477 174.9 112.477C173.365 116.154 173.663 120.295 177.824 120.66Z" fill="white"/>
<path d="M177.729 121.058C177.689 121.054 177.652 121.034 177.626 121.003C177.599 120.972 177.585 120.933 177.587 120.892C177.843 117.509 179.781 111.927 184.391 107.326C184.421 107.305 184.458 107.295 184.495 107.298C184.532 107.301 184.566 107.317 184.592 107.343C184.618 107.369 184.634 107.404 184.637 107.441C184.641 107.477 184.631 107.514 184.609 107.544C180.056 112.088 178.151 117.585 177.9 120.916C177.898 120.937 177.892 120.957 177.882 120.975C177.873 120.993 177.86 121.01 177.844 121.023C177.828 121.036 177.81 121.046 177.79 121.052C177.77 121.058 177.75 121.06 177.729 121.058Z" fill="#F5F5F5"/>
<path d="M178.994 122.47C178.457 122.908 177.824 123.213 177.146 123.36C176.469 123.507 175.766 123.491 175.096 123.315C174.426 123.138 173.806 122.806 173.289 122.345C172.772 121.883 172.371 121.306 172.119 120.66C172.888 120.308 173.591 119.827 174.199 119.239C173.181 118.993 172.116 119.024 171.114 119.329C170.81 118.942 170.611 118.483 170.536 117.997C170.46 117.511 170.511 117.013 170.683 116.552C171.851 116.073 173.144 115.997 174.36 116.334C173.278 115.487 171.915 115.082 170.546 115.202C170.315 113.386 170.491 111.543 171.062 109.804C173.611 109.956 176.137 111.013 177.014 111.761C177.114 112.603 177.08 113.456 176.914 114.287C177.223 114.141 177.486 113.913 177.672 113.627C177.859 113.34 177.962 113.008 177.971 112.666C179.568 113.05 180.288 113.799 180.572 114.368C180.423 115.419 179.976 116.406 179.283 117.211C179.732 117.052 180.14 116.793 180.474 116.454C180.809 116.115 181.063 115.705 181.217 115.254C182.88 118.5 182.842 122.158 178.994 122.47Z" fill="#BA68C8"/>
<path opacity="0.3" d="M178.994 122.47C178.457 122.908 177.824 123.213 177.146 123.36C176.469 123.507 175.766 123.491 175.096 123.315C174.426 123.138 173.806 122.806 173.289 122.345C172.772 121.883 172.371 121.306 172.119 120.66C172.888 120.308 173.591 119.827 174.199 119.239C173.181 118.993 172.116 119.024 171.114 119.329C170.81 118.942 170.611 118.483 170.536 117.997C170.46 117.511 170.511 117.013 170.683 116.552C171.851 116.073 173.144 115.997 174.36 116.334C173.278 115.487 171.915 115.082 170.546 115.202C170.315 113.386 170.491 111.543 171.062 109.804C173.611 109.956 176.137 111.013 177.014 111.761C177.114 112.603 177.08 113.456 176.914 114.287C177.223 114.141 177.486 113.913 177.672 113.627C177.859 113.34 177.962 113.008 177.971 112.666C179.568 113.05 180.288 113.799 180.572 114.368C180.423 115.419 179.976 116.406 179.283 117.211C179.732 117.052 180.14 116.793 180.474 116.454C180.809 116.115 181.063 115.705 181.217 115.254C182.88 118.5 182.842 122.158 178.994 122.47Z" fill="white"/>
<path d="M179.098 122.84C179.061 122.839 179.025 122.826 178.996 122.802C178.968 122.777 178.949 122.744 178.942 122.707C178.506 119.765 176.364 114.875 171.782 110.79C171.752 110.763 171.734 110.725 171.732 110.685C171.729 110.644 171.743 110.605 171.77 110.574C171.797 110.544 171.835 110.526 171.876 110.524C171.916 110.522 171.956 110.535 171.986 110.563C176.634 114.699 178.805 119.665 179.25 122.66C179.253 122.68 179.253 122.7 179.248 122.72C179.244 122.74 179.235 122.758 179.223 122.774C179.211 122.791 179.196 122.805 179.179 122.815C179.161 122.825 179.142 122.832 179.122 122.835L179.098 122.84Z" fill="white"/>
</svg>
