<svg width="25" height="25" viewBox="0 0 25 25" fill="none" xmlns="http://www.w3.org/2000/svg">
<rect width="25" height="25" rx="4" fill="#603A8B"/>
<path d="M9.99661 15.6035C9.33694 15.6035 8.80859 16.1401 8.80859 16.8025C8.80859 17.465 9.33694 18.0015 9.99661 18.0015C10.6563 18.0015 11.1906 17.465 11.1906 16.8025C11.1906 16.1401 10.6563 15.6035 9.99661 15.6035Z" fill="white"/>
<path d="M10.6606 12.5945H15.1082C15.5559 12.5945 15.9469 12.3458 16.1529 11.9771L18.2872 8.08627C18.3349 8.00233 18.3618 7.90341 18.3618 7.79851C18.3618 7.46578 18.0932 7.19901 17.7648 7.19901H8.93821L8.37106 6H6.42188V7.19901H7.61588L9.76207 11.7462L8.95612 13.215C8.86358 13.3889 8.80985 13.5837 8.80985 13.7936C8.80985 14.456 9.34418 14.9925 10.0039 14.9925H17.1678V13.7935H10.2576C10.174 13.7935 10.1083 13.7276 10.1083 13.6437C10.1083 13.6167 10.1143 13.5927 10.1263 13.5717L10.6606 12.5945Z" fill="white"/>
<path d="M15.9693 15.6035C15.3096 15.6035 14.7812 16.1401 14.7812 16.8025C14.7812 17.465 15.3096 18.0015 15.9693 18.0015C16.629 18.0015 17.1633 17.465 17.1633 16.8025C17.1633 16.1401 16.629 15.6035 15.9693 15.6035Z" fill="white"/>
</svg>
