<svg width="184" height="120" viewBox="0 0 184 120" fill="none" xmlns="http://www.w3.org/2000/svg">
<g clip-path="url(#clip0)">
<path opacity="0.1" d="M3.54653 38.2604C2.16726 42.4359 6.22246 46.1912 9.41202 49.2155C13.7778 53.3645 17.2227 58.3849 19.5231 63.9511C20.9095 67.3148 21.8739 70.9336 21.6153 74.5632C20.8826 84.8574 11.1882 91.7161 3.44237 98.5352C2.34506 99.5104 1.24775 100.53 0.608399 101.845C-1.44434 106.064 2.04514 110.925 5.88841 113.616C19.5751 123.191 39.3303 120.343 52.6058 110.205C59.4806 104.954 65.3891 97.8132 73.7204 95.4785C79.0471 93.9933 84.7007 94.6973 90.2124 95.1553C98.4767 95.84 106.779 95.9384 115.057 95.4498C117.963 95.2702 121.002 94.99 123.435 93.3935C129.597 89.3562 128.557 79.784 133.004 73.9113C136.201 69.6909 141.662 68.0638 146.416 65.7309C153.733 62.1202 159.839 56.4546 163.985 49.4275C167.802 42.9316 169.779 35.5468 171.708 28.2661C173.163 22.7957 174.623 17.0667 173.391 11.5407C172.159 6.0146 167.295 0.854912 161.656 1.33981C157.326 1.71157 153.881 5.1328 149.711 6.35762C139.722 9.29934 130.024 -0.917664 119.662 0.0682976C113.137 0.687891 107.875 5.63566 103.897 10.8438C99.9194 16.052 96.552 21.9157 91.2989 25.838C83.1275 31.9441 71.9317 32.1597 61.9284 30.1823C51.9251 28.205 42.3277 24.3133 32.2131 23.0166C26.2542 22.2533 21.6872 25.8039 16.3209 27.756C11.3965 29.5484 5.37119 32.7379 3.54653 38.2604Z" fill="#6C63FF"/>
<path opacity="0.1" d="M24.7745 119.999C31.9893 119.999 37.838 118.223 37.838 116.031C37.838 113.839 31.9893 112.062 24.7745 112.062C17.5597 112.062 11.7109 113.839 11.7109 116.031C11.7109 118.223 17.5597 119.999 24.7745 119.999Z" fill="#6C63FF"/>
<path opacity="0.1" d="M148.296 67.582C167.564 67.582 183.185 66.5456 183.185 65.2671C183.185 63.9886 167.564 62.9521 148.296 62.9521C129.027 62.9521 113.406 63.9886 113.406 65.2671C113.406 66.5456 129.027 67.582 148.296 67.582Z" fill="#6C63FF"/>
<g opacity="0.5">
<path opacity="0.5" d="M127.204 12.2842C127.687 12.2842 128.152 12.4764 128.494 12.8186C128.836 13.1608 129.028 13.6249 129.028 14.1088V64.8436H125.379V14.107C125.379 13.6234 125.572 13.1598 125.914 12.818C126.256 12.4762 126.72 12.2842 127.204 12.2842Z" fill="#6C63FF"/>
<path opacity="0.5" d="M167.24 12.2842C167.724 12.2842 168.188 12.4764 168.53 12.8186C168.872 13.1608 169.065 13.6249 169.065 14.1089V64.8437H165.406V14.1071C165.406 13.8668 165.454 13.629 165.547 13.4073C165.639 13.1855 165.774 12.9842 165.944 12.8148C166.115 12.6454 166.317 12.5114 166.539 12.4203C166.762 12.3293 167 12.283 167.24 12.2842Z" fill="#6C63FF"/>
<path opacity="0.5" d="M177.89 23.6259C178.898 23.6259 179.715 22.8089 179.715 21.8012C179.715 20.7935 178.898 19.9766 177.89 19.9766L116.556 19.9766C115.548 19.9766 114.731 20.7935 114.731 21.8012C114.731 22.8089 115.548 23.6259 116.556 23.6259L177.89 23.6259Z" fill="#6C63FF"/>
<path opacity="0.5" d="M124.293 16.3749C124.293 15.5853 123.653 14.9453 122.863 14.9453C122.074 14.9453 121.434 15.5853 121.434 16.3749V27.2222C121.434 28.0118 122.074 28.6518 122.863 28.6518C123.653 28.6518 124.293 28.0118 124.293 27.2222V16.3749Z" fill="#6C63FF"/>
<path opacity="0.5" d="M121.433 17.6581C121.433 16.8685 120.793 16.2285 120.004 16.2285C119.214 16.2285 118.574 16.8685 118.574 17.6581V25.9427C118.574 26.7322 119.214 27.3722 120.004 27.3722C120.793 27.3722 121.433 26.7322 121.433 25.9427V17.6581Z" fill="#6C63FF"/>
<path opacity="0.5" d="M170.149 27.2228C170.149 28.0123 170.789 28.6523 171.578 28.6523C172.368 28.6523 173.008 28.0123 173.008 27.2228V16.3754C173.008 15.5859 172.368 14.9459 171.578 14.9459C170.789 14.9459 170.149 15.5859 170.149 16.3754V27.2228Z" fill="#6C63FF"/>
<path opacity="0.5" d="M173.008 25.9406C173.008 26.7301 173.648 27.3701 174.438 27.3701C175.227 27.3701 175.867 26.7301 175.867 25.9406V17.656C175.867 16.8665 175.227 16.2264 174.438 16.2264C173.648 16.2264 173.008 16.8665 173.008 17.656V25.9406Z" fill="#6C63FF"/>
</g>
<g opacity="0.5">
<path opacity="0.5" d="M143.577 33.5195H151.037C151.847 33.5195 152.624 33.8412 153.196 34.4138C153.769 34.9863 154.09 35.7629 154.09 36.5726V49.3883H140.531V36.5726C140.531 35.7641 140.852 34.9886 141.423 34.4163C141.994 33.8439 142.769 33.5214 143.577 33.5195Z" fill="#6C63FF"/>
<path opacity="0.5" d="M148.293 48.2373H146.309V54.8517H148.293V48.2373Z" fill="#6C63FF"/>
<path opacity="0.5" d="M144.324 55.6777H142.34V62.2921H144.324V55.6777Z" fill="#6C63FF"/>
<path opacity="0.5" d="M152.594 55.6777H150.609V62.2921H152.594V55.6777Z" fill="#6C63FF"/>
<path opacity="0.5" d="M154.083 54.3545H140.523V56.1738H154.083V54.3545Z" fill="#6C63FF"/>
</g>
<path opacity="0.1" d="M84.9634 109.251C126.058 109.251 159.372 106.808 159.372 103.795C159.372 100.782 126.058 98.3389 84.9634 98.3389C43.8686 98.3389 10.5547 100.782 10.5547 103.795C10.5547 106.808 43.8686 109.251 84.9634 109.251Z" fill="#6C63FF"/>
<path d="M104.23 84.365C104.23 84.365 109.356 86.6799 111.836 86.6799C111.836 86.6799 114.482 87.3408 115.967 88.0035C117.452 88.6662 123.242 88.9948 123.242 88.9948C123.242 88.9948 130.022 91.475 130.848 92.6334C131.674 93.7917 134.154 88.5028 134.154 88.5028L132.831 85.1965L107.867 80.4014L104.23 84.365Z" fill="#FFB9B9"/>
<path opacity="0.05" d="M104.23 84.365C104.23 84.365 109.356 86.6799 111.836 86.6799C111.836 86.6799 114.482 87.3408 115.967 88.0035C117.452 88.6662 123.242 88.9948 123.242 88.9948C123.242 88.9948 130.022 91.475 130.848 92.6334C131.674 93.7917 134.154 88.5028 134.154 88.5028L132.831 85.1965L107.867 80.4014L104.23 84.365Z" fill="black"/>
<path d="M129.527 91.6426C129.527 91.6426 132.668 95.7732 131.347 98.257C130.025 100.741 130.52 100.737 131.347 100.902C132.173 101.068 136.803 102.061 137.3 98.4222C137.798 94.7836 138.789 86.6822 138.789 86.6822L132 86.0195C132 86.0195 133.827 92.1382 129.527 91.6426Z" fill="#737A9D"/>
<path d="M90.5039 78.9091L104.724 85.5235C104.724 85.5235 109.189 82.0501 108.855 80.2327L92.3196 76.2637L90.5039 78.9091Z" fill="#4C4C78"/>
<path opacity="0.1" d="M90.5039 78.9091L104.724 85.5235C104.724 85.5235 109.189 82.0501 108.855 80.2327L92.3196 76.2637L90.5039 78.9091Z" fill="black"/>
<path d="M150.197 87.5074L148.703 91.1442L145.237 91.9667C144.266 91.1562 143.227 90.4303 142.132 89.7972C140.266 88.7197 137.811 87.6654 135.487 87.8325C135.487 87.8325 126.227 86.3436 125.732 85.6774C125.732 85.6774 119.778 84.3538 118.456 84.519C117.819 84.598 116.448 84.1401 115.202 83.6426C113.864 83.1038 112.668 82.5345 112.668 82.5345L116.967 75.7549C117.469 75.9707 117.985 76.1508 118.512 76.2937C120.155 76.775 123.113 77.4 127.386 77.4C134.33 77.4 143.921 84.51 143.921 84.51C143.921 84.51 144.016 84.5423 144.179 84.5908C144.898 84.8081 146.945 85.32 147.89 84.51C149.039 83.5384 150.197 87.5074 150.197 87.5074Z" fill="#FFB9B9"/>
<path opacity="0.1" d="M150.198 87.508L148.704 91.1448L145.238 91.9673C144.267 91.1568 143.228 90.4309 142.133 89.7978C147.176 90.1768 144.164 84.6094 144.164 84.6094H144.175C144.893 84.8267 146.941 85.3385 147.885 84.5286C149.04 83.539 150.198 87.508 150.198 87.508Z" fill="black"/>
<path d="M142.152 89.9376C142.152 89.9376 146.152 95.5463 144.469 98.7053C142.786 101.864 143.417 101.863 144.469 102.074C145.521 102.286 151.418 103.549 152.048 98.9172C152.533 95.3559 152.107 88.5206 151.884 85.5538C151.87 85.3665 151.819 85.1839 151.733 85.0166C151.648 84.8494 151.53 84.7007 151.387 84.5794C151.243 84.4581 151.077 84.3665 150.898 84.3099C150.719 84.2534 150.531 84.233 150.344 84.2499L144.494 84.7887C144.494 84.7887 147.626 90.5698 142.152 89.9376Z" fill="#737A9D"/>
<path d="M47.1797 95.4441L47.3449 103.547L49.1642 104.869H55.4481L56.6047 103.217V95.4441L54.7854 93.79H48.8337L47.1797 95.4441Z" fill="#6C63FF"/>
<path opacity="0.2" d="M48.171 95.6094C48.171 95.6094 49.3294 103.05 48.171 103.713L47.3449 103.547L47.1797 95.6112L48.171 95.6094Z" fill="white"/>
<path d="M61.7302 94.9486L63.0538 93.625H69.3395L70.6631 94.9486C70.6631 94.9486 72.3171 99.7437 70.9935 102.885L69.5011 104.374H63.2154L61.7266 103.05L61.7302 94.9486Z" fill="#6C63FF"/>
<path opacity="0.1" d="M47.1797 95.4441L47.3449 103.547L49.1642 104.869H55.4481L56.6047 103.217V95.4441L54.7854 93.79H48.8337L47.1797 95.4441Z" fill="black"/>
<path opacity="0.1" d="M61.7302 94.9486L63.0538 93.625H69.3395L70.6631 94.9486C70.6631 94.9486 72.3171 99.7437 70.9935 102.885L69.5011 104.374H63.2154L61.7266 103.05L61.7302 94.9486Z" fill="black"/>
<path opacity="0.2" d="M63.2154 95.2787C63.2154 95.2787 64.539 101.067 63.2154 103.05H61.7266V94.9482L63.2154 95.2787Z" fill="white"/>
<path d="M56.6055 67.5C56.6055 67.5 57.2664 73.9492 57.2664 74.7753C57.2664 75.6014 56.9359 81.061 57.9273 86.35C58.9186 91.639 57.2664 98.2534 57.2664 98.2534H62.7224L65.0373 80.3947L63.3833 70.9697L62.7224 67.9939L56.6055 67.5Z" fill="#FFB9B9"/>
<path opacity="0.05" d="M56.6055 67.5C56.6055 67.5 57.2664 73.9492 57.2664 74.7753C57.2664 75.6014 56.9359 81.061 57.9273 86.35C58.9186 91.639 57.2664 98.2534 57.2664 98.2534H62.7224L65.0373 80.3947L63.3833 70.9697L62.7224 67.9939L56.6055 67.5Z" fill="black"/>
<path d="M55.6148 51.1301C55.6148 51.1301 48.3396 51.2953 54.126 63.3657C54.126 63.3657 55.6148 68.3261 55.6148 69.154C55.6148 69.9819 63.0554 69.9801 63.8761 69.154C64.6968 68.3279 62.5525 61.5483 62.5525 58.4054C62.5525 55.2625 60.41 50.1388 55.6148 51.1301Z" fill="#CBCDDA"/>
<path opacity="0.05" d="M55.6148 51.1301C55.6148 51.1301 48.3396 51.2953 54.126 63.3657C54.126 63.3657 55.6148 68.3261 55.6148 69.154C55.6148 69.9819 63.0554 69.9801 63.8761 69.154C64.6968 68.3279 62.5525 61.5483 62.5525 58.4054C62.5525 55.2625 60.41 50.1388 55.6148 51.1301Z" fill="black"/>
<path d="M46.848 44.0166C46.848 44.0166 53.1337 50.7962 58.4227 45.8359L57.7618 63.3641C57.7618 63.3641 49.1629 52.9477 43.2148 53.7738L46.848 44.0166Z" fill="#FFB9B9"/>
<path opacity="0.1" d="M118.504 76.3144C118.253 78.2522 117.462 82.3325 115.194 83.6543C113.856 83.1155 112.66 82.5462 112.66 82.5462L116.96 75.7666C117.461 75.9855 117.977 76.1686 118.504 76.3144Z" fill="black"/>
<path d="M118.115 75.2659C118.115 75.2659 117.62 83.3692 113.651 84.0301L89.6788 79.7055C88.5154 79.4941 87.4215 79.0008 86.4928 78.2687C85.5248 77.5072 84.3377 76.4728 83.6355 75.5246C83.2548 75.0073 83.0249 74.5134 83.0626 74.1058C83.2278 72.2865 90.5031 67.9871 88.023 60.3813C88.3756 60.1021 88.7678 59.877 89.1867 59.7132C91.2574 58.853 96.0238 58.2208 102.904 65.3417C102.904 65.3506 115.635 75.6036 118.115 75.2659Z" fill="#4C4C78"/>
<path d="M53.3008 96.1054L53.466 104.209L55.2835 105.532H61.5674L62.7258 103.878V96.1054L60.9065 94.4531H54.953L53.3008 96.1054Z" fill="#6C63FF"/>
<path opacity="0.2" d="M54.2921 96.2773C54.2921 96.2773 55.4505 103.718 54.2921 104.381L53.466 104.215L53.3008 96.2773H54.2921Z" fill="white"/>
<path d="M71.4883 95.4447L72.8119 94.1211H79.0976L80.4212 95.4447C80.4212 95.4447 82.0752 100.24 80.7517 103.381L79.2628 104.87H72.9771L71.4883 103.546V95.4447Z" fill="#6C63FF"/>
<path opacity="0.2" d="M72.9732 95.7748C72.9732 95.7748 74.2968 101.563 72.9732 103.546H71.4844V95.4443L72.9732 95.7748Z" fill="white"/>
<path d="M62.6767 98.5869H71.6222C72.3226 98.5869 72.8901 99.2155 72.8901 99.9931C72.8901 100.769 72.3226 101.399 71.6222 101.399H62.6767C61.917 101.399 61.328 100.665 61.4196 99.8297C61.4932 99.1203 62.0356 98.5869 62.6767 98.5869Z" fill="#6C63FF"/>
<path opacity="0.1" d="M88.5186 72.7905C86.7497 74.0296 84.8855 74.8414 83.6355 75.5328C83.2548 75.0156 83.0249 74.5217 83.0626 74.1141C83.2278 72.2948 90.5031 67.9953 88.023 60.3896C88.3756 60.1104 88.7678 59.8852 89.1867 59.7215C89.5753 59.7133 89.9615 59.6603 90.3379 59.5635C90.3379 59.5635 91.8249 70.4755 88.5186 72.7905Z" fill="black"/>
<path d="M51.3965 56.8339C51.3965 56.8339 53.8767 59.3141 56.2742 60.8855C58.4868 62.3348 54.5376 47.7394 54.5376 47.7394C54.5376 47.7394 56.9872 45.7639 58.4257 44.5911C59.3864 43.8007 60.6105 43.403 61.8524 43.4776C65.1622 43.6914 71.2253 45.0832 76.1174 51.7928C83.2274 61.5482 89.6766 59.5637 89.6766 59.5637C89.6766 59.5637 91.1654 70.4775 87.8573 72.7925C84.5492 75.1074 80.9125 75.9336 81.5716 77.2572C82.2307 78.5807 78.5957 70.808 70.3273 69.4862C62.0589 68.1644 52.9643 62.3761 53.1314 59.5655C53.1331 59.5637 50.7356 57.6654 51.3965 56.8339Z" fill="#CBCDDA"/>
<path opacity="0.1" d="M49.6582 48.3264C49.6574 47.8484 49.6154 47.3713 49.5325 46.9005C47.3666 45.8229 47.6737 44.3574 47.6737 44.3574L44.0352 54.1129C45.3659 53.9333 46.8296 54.3068 48.2987 55.0108C50.2329 53.4825 49.6582 50.9646 49.6582 48.3264Z" fill="black"/>
<path d="M42.3856 56.4226C46.9521 56.4226 50.654 52.7207 50.654 48.1542C50.654 43.5876 46.9521 39.8857 42.3856 39.8857C37.8191 39.8857 34.1172 43.5876 34.1172 48.1542C34.1172 52.7207 37.8191 56.4226 42.3856 56.4226Z" fill="#FFB9B9"/>
<path opacity="0.1" d="M34.8731 50.0186C34.7205 50.5089 34.4852 51.0135 34.0416 51.2757C33.5029 51.5954 32.7593 51.4374 32.2798 51.0243C31.8003 50.6112 31.5417 49.9934 31.407 49.3756C31.213 48.4811 31.2439 47.5524 31.4968 46.6728C31.7123 45.9275 32.0841 45.236 32.2403 44.4728C32.4073 43.661 32.3229 42.8115 32.5097 42.0034C32.7629 40.9078 33.4849 39.9901 34.1889 39.1119C34.4095 38.7767 34.6955 38.4894 35.0297 38.2672C35.3639 38.0451 35.7394 37.8926 36.1339 37.8189L39.5946 36.7754C40.2507 36.5557 40.9251 36.3946 41.6097 36.2941C42.4898 36.204 43.379 36.282 44.2299 36.524C44.9076 36.6944 45.5505 36.9813 46.13 37.3717C46.7042 37.7983 47.2099 38.31 47.6296 38.8892C49.4596 41.2814 50.5031 45.1947 52.3906 47.5492C51.6453 47.7791 50.9 47.0104 50.1547 47.2439C50.0487 47.2895 49.9307 47.299 49.8188 47.2708C49.708 47.2106 49.6212 47.1143 49.5728 46.9978C48.916 45.8505 47.8823 44.9659 46.6472 44.4943C45.7313 44.1477 44.4921 44.1495 43.9911 44.99C43.6516 45.5575 43.7881 46.2741 43.8779 46.9296C43.9677 47.5851 43.9515 48.3663 43.4325 48.7704C43.1457 48.9642 42.8119 49.0772 42.4663 49.0973C40.8555 49.3084 39.2177 49.148 37.6784 48.6285C37.1396 48.4489 36.5918 47.8868 36.0225 48.0664C35.2539 48.3088 35.0761 49.3667 34.8731 50.0186Z" fill="black"/>
<path d="M34.6935 49.8371C34.5408 50.3274 34.3055 50.832 33.862 51.0942C33.3232 51.4139 32.5797 51.2559 32.1002 50.8428C31.6206 50.4297 31.362 49.8119 31.2273 49.1941C31.0333 48.2996 31.0642 47.3709 31.3171 46.4913C31.5326 45.746 31.9044 45.0545 32.0606 44.2913C32.2277 43.4795 32.1433 42.63 32.33 41.8219C32.5833 40.7264 33.3052 39.8086 34.0092 38.9304C34.2298 38.5952 34.5158 38.3079 34.85 38.0858C35.1842 37.8636 35.5597 37.7111 35.9542 37.6374L39.4149 36.5939C40.0711 36.3748 40.7454 36.2143 41.43 36.1144C42.3101 36.0243 43.1993 36.1023 44.0502 36.3443C44.7279 36.5148 45.3708 36.8016 45.9503 37.192C46.5245 37.6186 47.0302 38.1303 47.4499 38.7095C49.28 41.1017 50.3234 45.015 52.2109 47.3695C51.4656 47.5994 50.7203 46.8307 49.975 47.0642C49.869 47.1099 49.751 47.1193 49.6391 47.0911C49.527 47.0316 49.4388 46.9352 49.3895 46.8181C48.7327 45.6708 47.699 44.7862 46.464 44.3146C45.548 43.968 44.3088 43.9698 43.8078 44.8103C43.4684 45.3778 43.6048 46.0944 43.6946 46.7499C43.7844 47.4054 43.7683 48.1866 43.2492 48.5907C42.9624 48.7846 42.6286 48.8975 42.283 48.9176C40.6722 49.1287 39.0344 48.9684 37.4951 48.4488C36.9563 48.2692 36.4086 47.7071 35.8393 47.8867C35.0742 48.1274 34.8964 49.1852 34.6935 49.8371Z" fill="#B96B6B"/>
<g opacity="0.1">
<path opacity="0.1" d="M55.0994 47.2891L54.5391 47.7416C54.5391 47.7416 56.854 56.2956 56.9456 59.6558C58.1273 59.3361 55.8537 50.1841 55.0994 47.2891Z" fill="black"/>
<path opacity="0.1" d="M88.1797 71.4691C84.8734 73.7841 81.2348 74.6102 81.8939 75.9338C82.553 77.2574 78.9181 69.4846 70.6496 68.1628C62.8931 66.9219 54.4091 61.7514 53.5255 58.7953C52.2863 57.7357 51.3848 56.8359 51.3848 56.8359C50.7239 57.6621 53.1214 59.5639 53.1214 59.5639C52.9562 62.3746 62.0508 68.1628 70.3174 69.4846C78.584 70.8064 82.2226 78.5792 81.5617 77.2556C80.9008 75.932 84.5375 75.1005 87.8474 72.7909C88.7939 72.1282 89.347 70.7615 89.6559 69.147C89.3362 70.1689 88.8621 70.9968 88.1797 71.4691Z" fill="black"/>
</g>
<path d="M71.4874 87.3427C70.9917 88.0036 70.6613 94.7832 70.6613 94.7832C70.6613 94.7832 72.6368 104.539 66.5307 103.547C60.4245 102.556 65.7045 95.6111 65.7045 95.6111L64.8784 86.0209C61.7373 77.7597 62.3982 71.8008 62.3982 71.8008L61.811 66.4005L61.5703 64.1951L68.6804 62.541C68.4864 62.7996 68.569 64.4124 68.7432 66.2855C69.0144 69.22 69.5065 72.7921 69.5065 72.7921C70.9899 74.4444 71.9831 86.68 71.4874 87.3427Z" fill="#FFB9B9"/>
<path opacity="0.1" d="M61.4 47.6578C61.4 47.6578 54.1247 47.8231 59.9112 59.8935C59.9112 59.8935 61.4 64.8538 61.4 65.6817C61.4 66.5097 68.8405 66.5079 69.6612 65.6817C70.482 64.8556 68.3376 58.076 68.3376 54.9331C68.3376 51.7903 66.1951 46.6647 61.4 47.6578Z" fill="black"/>
<path opacity="0.1" d="M68.7372 66.2855C67.1927 66.7075 63.4069 66.7453 61.8032 66.4004L61.5625 64.1951L68.6726 62.541C68.4822 62.7978 68.5648 64.4106 68.7372 66.2855Z" fill="black"/>
<path d="M61.0719 47.6578C61.0719 47.6578 53.7966 47.8231 59.5831 59.8935C59.5831 59.8935 61.0719 64.8538 61.0719 65.6817C61.0719 66.5097 68.5124 66.5079 69.3331 65.6817C70.1539 64.8556 68.0095 58.076 68.0095 54.9331C68.0095 51.7903 65.867 46.6647 61.0719 47.6578Z" fill="#CBCDDA"/>
<g opacity="0.5">
<path opacity="0.5" d="M13.4757 73.543L8.21001 73.6507L7.35156 74.8324V78.9164L8.42553 79.6689H13.4757L14.5514 78.4872V74.6187L13.4757 73.543Z" fill="#6C63FF"/>
<path opacity="0.2" d="M13.3711 74.1876C13.3711 74.1876 8.53469 74.9401 8.10547 74.1876L8.21322 73.6488L13.3711 73.541V74.1876Z" fill="white"/>
<path opacity="0.5" d="M13.9071 85.3633L14.7674 86.2235V90.3075L13.9071 91.1677C13.9071 91.1677 10.7912 92.2453 8.74925 91.3833L7.78125 90.4152V86.3313L8.6415 85.3633H13.9071Z" fill="#6C63FF"/>
<path opacity="0.2" d="M13.6908 86.3313C13.6908 86.3313 9.9301 87.1916 8.64062 86.3313V85.3633H13.9063L13.6908 86.3313Z" fill="white"/>
<path opacity="0.5" d="M11.8673 79.6401V85.4535C11.8548 85.6838 11.7516 85.8998 11.5803 86.0542C11.409 86.2087 11.1836 86.2891 10.9532 86.2778C10.7228 86.2891 10.4974 86.2087 10.3261 86.0542C10.1548 85.8998 10.0516 85.6838 10.0391 85.4535V79.6401C10.0391 79.1462 10.5168 78.7637 11.0591 78.8212C11.2712 78.8338 11.4711 78.9244 11.6203 79.0756C11.7695 79.2268 11.8575 79.4279 11.8673 79.6401Z" fill="#6C63FF"/>
<path opacity="0.5" d="M21.911 73.708L16.6454 73.8158L15.7852 74.9975V79.0814L16.8609 79.8339H21.911L22.985 78.6522V74.7838L21.911 73.708Z" fill="#6C63FF"/>
<path opacity="0.2" d="M21.8008 74.3545C21.8008 74.3545 16.9644 75.107 16.5352 74.3545L16.6429 73.8158L21.8008 73.708V74.3545Z" fill="white"/>
<path opacity="0.5" d="M22.3407 85.5311L23.201 86.3913V90.4753L22.3407 91.3355C22.3407 91.3355 19.2248 92.4131 17.1828 91.551L16.2148 90.583V86.4973L17.0751 85.5293L22.3407 85.5311Z" fill="#6C63FF"/>
<path opacity="0.2" d="M22.1244 86.4973C22.1244 86.4973 18.3637 87.3576 17.0742 86.4973V85.5293H22.3399L22.1244 86.4973Z" fill="white"/>
<path opacity="0.5" d="M20.2931 79.8051V85.6185C20.2806 85.8488 20.1774 86.0648 20.0061 86.2193C19.8348 86.3737 19.6093 86.4541 19.379 86.4429C19.1486 86.4541 18.9231 86.3737 18.7519 86.2193C18.5806 86.0648 18.4774 85.8488 18.4648 85.6185V79.8051C18.4648 79.3113 18.9426 78.9287 19.4849 78.9862C19.697 78.9988 19.8969 79.0895 20.0461 79.2407C20.1953 79.3919 20.2833 79.5929 20.2931 79.8051Z" fill="#6C63FF"/>
<path opacity="0.5" d="M32.6445 76.8184L28.3092 76.9064L27.6016 77.8797V81.2417L28.487 81.8595H32.6445L33.5281 80.8861V77.702L32.6445 76.8184Z" fill="#6C63FF"/>
<path opacity="0.2" d="M32.5541 77.3481C32.5541 77.3481 28.5725 77.9677 28.2188 77.3481L28.3068 76.9064L32.5523 76.8184L32.5541 77.3481Z" fill="white"/>
<path opacity="0.5" d="M33 86.5488L33.7076 87.2564V90.6184L33 91.326C33 91.326 30.4354 92.2114 28.7544 91.5056L27.957 90.71V87.3444L28.6646 86.5488H33Z" fill="#6C63FF"/>
<path opacity="0.2" d="M32.8216 87.3444C32.8216 87.3444 29.7255 88.052 28.6641 87.3444V86.5488H32.9994L32.8216 87.3444Z" fill="white"/>
<path opacity="0.5" d="M31.3175 81.8359V86.622C31.3064 86.811 31.2211 86.988 31.0801 87.1144C30.9392 87.2409 30.7541 87.3066 30.565 87.2973C30.3753 87.3066 30.1896 87.2404 30.0486 87.1132C29.9076 86.9859 29.8227 86.8081 29.8125 86.6184V81.8359C29.8187 81.7346 29.8461 81.6358 29.8928 81.5458C29.9395 81.4557 30.0045 81.3765 30.0837 81.3131C30.1628 81.2496 30.2543 81.2035 30.3524 81.1775C30.4504 81.1516 30.5528 81.1464 30.653 81.1624C30.8273 81.1728 30.9917 81.2474 31.1143 81.3717C31.237 81.4961 31.3094 81.6614 31.3175 81.8359Z" fill="#6C63FF"/>
<path opacity="0.5" d="M39.5859 76.9531L35.2506 77.0429L34.543 78.0145V81.3765L35.4284 81.996H39.5859L40.4713 81.0227V77.8385L39.5859 76.9531Z" fill="#6C63FF"/>
<path opacity="0.2" d="M39.4994 77.4849C39.4994 77.4849 35.5179 78.1044 35.1641 77.4849L35.2521 77.0431L39.4976 76.9551L39.4994 77.4849Z" fill="white"/>
<path opacity="0.5" d="M39.9396 86.6852L40.6472 87.3928V90.7548L39.9396 91.4624C39.9396 91.4624 37.375 92.3477 35.694 91.6419L34.8984 90.8464V87.4772L35.606 86.6816L39.9396 86.6852Z" fill="#6C63FF"/>
<path opacity="0.2" d="M39.763 87.4772C39.763 87.4772 36.6669 88.1848 35.6055 87.4772V86.6816H39.939L39.763 87.4772Z" fill="white"/>
<path opacity="0.5" d="M38.2511 81.9726V86.7587C38.2409 86.9483 38.156 87.1262 38.015 87.2534C37.8739 87.3807 37.6883 87.4469 37.4986 87.4376C37.3089 87.4469 37.1232 87.3807 36.9822 87.2534C36.8412 87.1262 36.7563 86.9483 36.7461 86.7587V81.9726C36.7523 81.8713 36.7797 81.7725 36.8264 81.6825C36.8731 81.5925 36.9381 81.5132 37.0172 81.4498C37.0964 81.3864 37.1879 81.3402 37.286 81.3142C37.384 81.2883 37.4864 81.2831 37.5866 81.2991C37.7609 81.3096 37.9253 81.3841 38.0479 81.5085C38.1706 81.6328 38.243 81.7981 38.2511 81.9726Z" fill="#6C63FF"/>
</g>
<g opacity="0.8">
<path opacity="0.8" d="M21.043 105.797C21.043 105.797 18.4982 104.935 17.2716 107.178C16.9484 107.786 16.7839 108.466 16.7934 109.154C16.8028 109.842 16.9858 110.517 17.3255 111.116C18.13 112.571 19.7877 114.459 22.9288 114.292C25.5939 114.15 26.4793 112.115 26.72 110.224C26.812 109.514 26.7204 108.793 26.454 108.129C26.1876 107.466 25.7553 106.881 25.1984 106.432C24.6416 105.983 23.9788 105.685 23.2735 105.566C22.5683 105.446 21.8442 105.51 21.1705 105.75L21.043 105.797Z" fill="#6C63FF"/>
<path opacity="0.1" d="M17.866 111.315C17.5264 110.716 17.3433 110.041 17.3339 109.353C17.3245 108.664 17.489 107.985 17.8122 107.377C19.037 105.134 21.5836 105.996 21.5836 105.996L21.7147 105.949C22.6849 105.598 23.7513 105.622 24.7049 106.015C24.1781 105.701 23.5881 105.508 22.9775 105.449C22.3669 105.391 21.7509 105.469 21.1741 105.678L21.043 105.724C21.043 105.724 18.4982 104.862 17.2716 107.106C16.9484 107.713 16.7839 108.393 16.7934 109.082C16.8028 109.77 16.9858 110.445 17.3255 111.044C17.8642 112.001 18.7622 113.145 20.1989 113.768C19.2123 113.178 18.4057 112.33 17.866 111.315Z" fill="white"/>
<path opacity="0.2" d="M19.7266 106.874C19.7266 106.874 20.6694 107.616 22.9592 106.874H19.7266Z" fill="black"/>
<path opacity="0.8" d="M19.5273 101.486C19.5273 101.486 21.1437 105.868 21.0108 107.014L22.2913 106.879C22.2913 106.879 20.1362 103.038 20.6749 101.492L19.5273 101.486Z" fill="#6C63FF"/>
<path opacity="0.2" d="M19.5273 101.486C19.5273 101.486 21.1437 105.868 21.0108 107.014L22.2913 106.879C22.2913 106.879 20.1362 103.038 20.6749 101.492L19.5273 101.486Z" fill="black"/>
<path opacity="0.8" d="M26.1288 101.845C26.1288 101.845 23.5821 100.543 22.4435 101.619C21.3049 102.695 21.1289 105.444 21.1289 105.444C21.1289 105.444 25.2811 106.017 26.1288 101.845Z" fill="#6C63FF"/>
<path opacity="0.1" d="M26.1288 101.845C26.1288 101.845 23.5821 100.543 22.4435 101.619C21.3049 102.695 21.1289 105.444 21.1289 105.444C21.1289 105.444 25.2811 106.017 26.1288 101.845Z" fill="white"/>
<path opacity="0.8" d="M21.1289 105.438C21.1289 105.438 21.797 102.246 26.1288 101.846" stroke="#6C63FF" stroke-miterlimit="10"/>
</g>
<path d="M31.7852 109.764C31.7852 109.764 29.2404 108.902 28.0138 111.145C27.6906 111.753 27.5261 112.432 27.5355 113.121C27.545 113.809 27.728 114.484 28.0677 115.083C28.8722 116.538 30.5299 118.425 33.6709 118.258C36.3361 118.116 37.2215 116.082 37.4621 114.191C37.5542 113.481 37.4626 112.76 37.1962 112.096C36.9298 111.432 36.4975 110.848 35.9406 110.399C35.3837 109.95 34.721 109.652 34.0157 109.532C33.3105 109.413 32.5864 109.476 31.9127 109.717L31.7852 109.764Z" fill="#6C63FF"/>
<path opacity="0.1" d="M28.616 115.284C28.2764 114.685 28.0933 114.01 28.0839 113.322C28.0745 112.633 28.239 111.953 28.5622 111.345C29.787 109.102 32.3336 109.964 32.3336 109.964L32.4647 109.918C33.4349 109.567 34.5013 109.59 35.4549 109.984C34.9281 109.67 34.3381 109.477 33.7275 109.418C33.1169 109.36 32.5009 109.438 31.9241 109.647L31.793 109.693C31.793 109.693 29.2482 108.831 28.0216 111.074C27.6984 111.682 27.5339 112.362 27.5434 113.05C27.5528 113.739 27.7358 114.414 28.0755 115.013C28.6142 115.97 29.5122 117.114 30.9489 117.737C29.9623 117.147 29.1557 116.299 28.616 115.284Z" fill="white"/>
<path opacity="0.2" d="M30.4766 110.841C30.4766 110.841 31.4194 111.582 33.7092 110.841H30.4766Z" fill="black"/>
<path d="M30.2773 105.449C30.2773 105.449 31.8937 109.831 31.7608 110.977L33.0413 110.842C33.0413 110.842 30.8862 107.001 31.4249 105.455L30.2773 105.449Z" fill="#6C63FF"/>
<path opacity="0.2" d="M30.2773 105.449C30.2773 105.449 31.8937 109.831 31.7608 110.977L33.0413 110.842C33.0413 110.842 30.8862 107.001 31.4249 105.455L30.2773 105.449Z" fill="black"/>
<path d="M36.8788 105.814C36.8788 105.814 34.3321 104.512 33.1935 105.588C32.0549 106.664 31.8789 109.413 31.8789 109.413C31.8789 109.413 36.0311 109.984 36.8788 105.814Z" fill="#6C63FF"/>
<path opacity="0.1" d="M36.8788 105.814C36.8788 105.814 34.3321 104.512 33.1935 105.588C32.0549 106.664 31.8789 109.413 31.8789 109.413C31.8789 109.413 36.0311 109.984 36.8788 105.814Z" fill="white"/>
<path d="M31.8789 109.413C31.8789 109.413 32.547 106.222 36.8788 105.821" stroke="#6C63FF" stroke-miterlimit="10"/>
<path d="M11.3144 99.3614C11.3144 99.3614 11.564 99.083 11.0953 98.9717V98.5137H11.3772C11.377 97.9601 11.1868 97.4233 10.8383 96.9931C10.4898 96.563 10.0043 96.2654 9.46277 96.1503V95.5953H9.53641V94.877H7.72252V95.5953H7.7746V96.1574C7.24028 96.2788 6.76302 96.578 6.42106 97.0061C6.0791 97.4342 5.89272 97.9658 5.89248 98.5137H6.1439V98.9537C6.1439 98.9537 5.54766 99.2357 6.1439 99.7385C6.74015 100.241 6.64676 100.617 6.64676 100.617C6.64676 100.617 6.39533 101.558 5.89427 101.683V110.439C5.89427 110.954 6.09919 111.449 6.46394 111.814C6.8287 112.179 7.32341 112.384 7.83926 112.384H9.37657C9.89085 112.382 10.3835 112.176 10.7466 111.812C11.1098 111.448 11.3139 110.955 11.3144 110.44V101.683C11.3144 101.683 10.4362 101.024 10.596 100.617C10.8045 100.181 11.0446 99.7617 11.3144 99.3614Z" fill="#6C63FF"/>
</g>
<defs>
<clipPath id="clip0">
<rect width="183.184" height="120" fill="white"/>
</clipPath>
</defs>
</svg>
