<svg width="215" height="209" viewBox="0 0 215 209" fill="none" xmlns="http://www.w3.org/2000/svg">
<path d="M107.5 208.407C166.871 208.407 215 180.619 215 146.342C215 112.064 166.871 84.2762 107.5 84.2762C48.1294 84.2762 0 112.064 0 146.342C0 180.619 48.1294 208.407 107.5 208.407Z" fill="#F0F0F0"/>
<path d="M174.324 173.453C184.394 173.453 192.557 168.74 192.557 162.927C192.557 157.114 184.394 152.401 174.324 152.401C164.255 152.401 156.092 157.114 156.092 162.927C156.092 168.74 164.255 173.453 174.324 173.453Z" fill="#E0E0E0"/>
<path d="M48.4095 176.697L11.2195 155.225C10.0561 154.554 10.0561 153.469 11.2195 152.798L72.0667 117.666C72.7177 117.335 73.4376 117.163 74.1678 117.163C74.898 117.163 75.6178 117.335 76.2689 117.666L113.459 139.137C114.622 139.808 114.622 140.894 113.459 141.565L52.6117 176.697C51.9606 177.028 51.2407 177.2 50.5106 177.2C49.7804 177.2 49.0605 177.028 48.4095 176.697V176.697Z" fill="#E0E0E0"/>
<path d="M47.1408 149.148C47.1408 149.148 46.8762 140.301 43.0801 133.133C39.284 125.965 33.6537 121.225 28.101 120.317C22.5483 119.409 17.607 124.177 23.292 128.205C28.977 132.234 39.3022 136.724 43.0892 150.339L47.1408 149.148Z" fill="#BA68C8"/>
<g opacity="0.15">
<path d="M47.1408 149.148C47.1408 149.148 46.8762 140.301 43.0801 133.133C39.284 125.965 33.6537 121.225 28.101 120.317C22.5483 119.409 17.607 124.177 23.292 128.205C28.977 132.234 39.3022 136.724 43.0892 150.339L47.1408 149.148Z" fill="black"/>
</g>
<path d="M45.6899 146.734C45.7094 146.739 45.7297 146.739 45.7492 146.734C45.8253 146.711 45.8891 146.659 45.9267 146.589C45.9644 146.518 45.9727 146.436 45.95 146.36C41.2641 131.331 30.5374 124.327 25.5231 122.726C25.4859 122.714 25.4468 122.709 25.4078 122.712C25.3689 122.715 25.331 122.726 25.2962 122.744C25.2614 122.762 25.2305 122.786 25.2053 122.816C25.18 122.846 25.1609 122.88 25.149 122.917C25.1244 122.993 25.1308 123.075 25.1667 123.146C25.2026 123.217 25.2651 123.271 25.3406 123.296C30.2545 124.866 40.7623 131.746 45.3705 146.511C45.3894 146.579 45.4316 146.639 45.4899 146.68C45.5482 146.721 45.619 146.74 45.6899 146.734Z" fill="white"/>
<path d="M18.3144 141.729C18.6886 142.847 19.811 143.518 20.8604 144.061C21.9098 144.603 23.0504 145.187 23.5478 146.26C24.5424 148.422 22.3204 151.128 23.4063 153.25C23.6674 153.678 24.0127 154.048 24.4214 154.338C24.83 154.628 25.2934 154.832 25.7834 154.938C26.5904 155.131 27.4066 155.283 28.229 155.394C28.622 155.427 29.0167 155.434 29.4107 155.417C30.5559 155.358 31.7924 155.417 32.7734 156.097C34.3201 157.169 34.6258 159.291 35.4699 160.956C35.993 161.953 36.7267 162.824 37.6202 163.508C38.5136 164.193 39.5454 164.675 40.6439 164.921C42.469 165.341 45.2841 165.185 45.8407 164.414C46.2605 163.826 45.3525 161.846 45.3845 161.125C45.4994 159.269 45.4383 157.407 45.202 155.563C45.0599 154.728 45.0201 153.879 45.0833 153.035C45.1776 152.092 45.2674 151.146 45.3525 150.197C45.4392 149.175 45.754 148.372 45.4849 147.327C45.1718 146.319 44.7105 145.362 44.1161 144.489C43.5731 143.609 43.0256 142.737 42.469 141.866C41.8522 140.814 41.1074 139.842 40.2515 138.973C39.478 138.258 38.5669 137.708 37.5738 137.357C36.5807 137.005 35.5264 136.86 34.4752 136.929C32.7278 137.052 30.9529 137.864 29.1872 137.614C27.4214 137.363 25.8245 136.751 24.0496 136.701C22.1972 136.655 20.2444 137.262 19.0308 138.745C18.6754 139.145 18.4242 139.627 18.2992 140.147C18.1743 140.668 18.1795 141.211 18.3144 141.729Z" fill="#BA68C8"/>
<path d="M44.7502 159.678C44.7846 159.673 44.8175 159.66 44.847 159.642C44.8766 159.624 44.9021 159.599 44.9221 159.571C44.9421 159.542 44.9562 159.51 44.9635 159.476C44.9708 159.442 44.9712 159.407 44.9646 159.373C42.1906 142.883 25.464 138.969 21.4717 138.882C21.401 138.881 21.3328 138.907 21.2815 138.956C21.2303 139.005 21.2003 139.071 21.1979 139.142C21.1967 139.177 21.2025 139.212 21.215 139.244C21.2275 139.277 21.2465 139.307 21.2708 139.332C21.2951 139.357 21.3241 139.377 21.3563 139.391C21.3885 139.404 21.423 139.411 21.458 139.411C25.3636 139.498 41.7252 143.33 44.4399 159.459C44.4533 159.529 44.493 159.591 44.5509 159.631C44.6088 159.672 44.6802 159.689 44.7502 159.678V159.678Z" fill="white"/>
<path d="M26.6867 149.755C26.7404 149.751 26.7915 149.73 26.8327 149.695C26.8783 149.659 31.6006 145.803 38.6727 147.533C38.7381 147.54 38.804 147.523 38.8578 147.485C38.9117 147.448 38.9498 147.391 38.9649 147.327C38.9801 147.263 38.9713 147.196 38.9401 147.138C38.909 147.08 38.8577 147.035 38.7959 147.013C36.7013 146.461 34.5107 146.38 32.381 146.774C30.2513 147.169 28.2351 148.029 26.4768 149.294C26.4375 149.331 26.4106 149.379 26.3997 149.432C26.3888 149.486 26.3944 149.541 26.4158 149.59C26.4372 149.64 26.4733 149.682 26.5193 149.711C26.5653 149.739 26.6189 149.753 26.673 149.75L26.6867 149.755Z" fill="white"/>
<path d="M109.882 4.33461L51.7585 37.8882C51.1459 38.2894 50.6357 38.8285 50.2689 39.4624C49.902 40.0962 49.6887 40.8072 49.646 41.5383V172.622C49.646 173.968 50.595 174.521 51.7585 173.841L109.877 140.292C110.49 139.89 111 139.351 111.367 138.717C111.734 138.084 111.947 137.373 111.99 136.642V5.55284C111.985 4.20686 111.045 3.65935 109.882 4.33461ZM108.969 124.551C108.969 125.705 108.162 126.44 107.144 127.014L54.2953 157.525C53.2961 158.1 52.4703 157.634 52.4703 156.475V53.8163C52.5068 53.1859 52.6911 52.573 53.0081 52.0269C53.3251 51.4809 53.766 51.017 54.2953 50.6726L107.14 20.1578C108.143 19.5738 108.965 20.0437 108.965 21.1981L108.969 124.551Z" fill="#37474F"/>
<path d="M51.4984 173.978C50.8672 174.244 50.1859 174.369 49.5014 174.347C48.8169 174.324 48.1455 174.153 47.5335 173.845L45.1153 172.449C44.4994 172.051 43.9863 171.512 43.6177 170.878C43.249 170.244 43.0352 169.531 42.9937 168.799V37.7194C43.0061 37.1733 43.132 36.6357 43.3632 36.1407C43.4358 35.9667 43.5196 35.7975 43.6142 35.6343L50.2619 39.476C50.1204 39.7254 49.9969 39.9846 49.8923 40.2517C49.7325 40.6702 49.6461 41.1132 49.6368 41.5611V172.627C49.6505 173.886 50.4581 174.429 51.4984 173.978Z" fill="#263238"/>
<path d="M81.3243 145.548C83.1493 144.485 84.6596 145.347 84.6596 147.473C84.5978 148.631 84.2635 149.758 83.6839 150.763C83.1044 151.767 82.2959 152.621 81.3243 153.254C79.4992 154.317 77.989 153.455 77.989 151.329C78.0515 150.171 78.3861 149.044 78.9656 148.04C79.5451 147.035 80.3532 146.182 81.3243 145.548V145.548Z" fill="#BA68C8"/>
<path d="M80.8223 23.9402C81.6025 23.484 82.2367 23.8535 82.2367 24.7569C82.2102 25.2484 82.0684 25.7267 81.8226 26.1532C81.5769 26.5796 81.2342 26.9422 80.8223 27.2116C80.0375 27.6679 79.4033 27.2983 79.4033 26.3904C79.4299 25.899 79.5724 25.4209 79.819 24.9951C80.0656 24.5693 80.4094 24.2078 80.8223 23.9402V23.9402Z" fill="black"/>
<path d="M75.3519 32.5589L86.3022 26.2397C86.9546 25.8656 87.4839 26.1302 87.4839 26.8374C87.4553 27.2344 87.3334 27.619 87.128 27.9599C86.9227 28.3008 86.6397 28.5884 86.3022 28.7993L75.3519 35.1186C74.6994 35.4927 74.1702 35.2281 74.1702 34.5209C74.1988 34.1239 74.3207 33.7393 74.5261 33.3984C74.7314 33.0575 75.0144 32.7698 75.3519 32.5589V32.5589Z" fill="black"/>
<path d="M108.951 124.551C108.951 125.705 108.143 126.439 107.126 127.014L54.2953 157.525C53.296 158.1 52.4702 157.634 52.4702 156.475V53.8162C52.5068 53.1858 52.691 52.5729 53.008 52.0268C53.3251 51.4808 53.766 51.0169 54.2953 50.6725L107.14 20.1577C108.143 19.5737 108.965 20.0436 108.965 21.198L108.951 124.551Z" fill="#BA68C8"/>
<path d="M111.985 5.21976C111.834 4.12017 110.954 3.72322 109.9 4.33461L51.7584 37.8882C51.1351 38.2792 50.6217 38.8225 50.2664 39.4668L43.6187 35.6388C43.9758 34.9968 44.4909 34.4565 45.1152 34.0692L103.229 0.506569C103.885 0.173566 104.609 0 105.344 0C106.079 0 106.804 0.173566 107.459 0.506569L109.886 1.87536C110.456 2.24878 110.939 2.74094 111.301 3.31816C111.663 3.89538 111.897 4.54404 111.985 5.21976V5.21976Z" fill="#455A64"/>
<path d="M116.31 24.5791C116.105 24.4834 115.877 24.4448 115.652 24.4673C115.426 24.4898 115.211 24.5725 115.028 24.7068L62.1839 55.208C61.6547 55.5523 61.2137 56.0162 60.8967 56.5622C60.5797 57.1083 60.3955 57.7212 60.3589 58.3516V161.011C60.3393 161.227 60.3736 161.445 60.4588 161.645C60.544 161.845 60.6774 162.02 60.8471 162.156C61.1802 162.375 62.5216 163.105 62.8318 163.301C63.0388 163.406 63.2708 163.452 63.5021 163.432C63.7334 163.413 63.9547 163.33 64.1413 163.192L117.004 132.7C118.008 132.125 118.829 131.39 118.829 130.236V26.8832C118.852 26.6591 118.815 26.4329 118.722 26.2277C118.629 26.0224 118.483 25.8456 118.3 25.7152L116.31 24.5791Z" fill="#E0E0E0"/>
<path d="M118.829 130.236C118.829 131.39 118.017 132.125 117.004 132.699L64.1502 163.21C63.151 163.789 62.3252 163.319 62.3252 162.165V59.5058C62.3607 58.8758 62.5445 58.2631 62.8616 57.7176C63.1788 57.1721 63.6203 56.7093 64.1502 56.3667L117.004 25.8428C118.007 25.2588 118.829 25.7333 118.829 26.8831V130.236Z" fill="#FAFAFA"/>
<path d="M117.807 26.0572C118.299 26.0572 118.354 26.6412 118.354 26.8921V130.236C118.354 131.039 117.866 131.677 116.766 132.307L63.9221 162.817C63.7473 162.926 63.5481 162.988 63.3427 163C62.8499 163 62.7951 162.416 62.7951 162.165V59.5058C62.8322 58.9588 62.9942 58.4276 63.2687 57.9531C63.5432 57.4785 63.9228 57.0731 64.3784 56.7682L117.227 26.2351C117.401 26.1236 117.601 26.0591 117.807 26.0481M117.807 25.5918C117.519 25.6036 117.239 25.6901 116.995 25.8427L64.1502 56.3484C63.6203 56.691 63.1788 57.1538 62.8616 57.6993C62.5445 58.2448 62.3607 58.8575 62.3252 59.4875V162.147C62.3252 162.968 62.7358 163.438 63.329 163.438C63.6152 163.429 63.8939 163.343 64.1366 163.191L117.004 132.699C118.007 132.125 118.829 131.39 118.829 130.236V26.883C118.829 26.0663 118.423 25.5918 117.825 25.5918H117.807Z" fill="#E0E0E0"/>
<path d="M91.9092 58.4154C99.5333 54.017 105.711 57.5804 105.711 66.3817C105.711 75.183 99.5288 85.8824 91.9092 90.2808C84.2896 94.6791 78.1118 91.1157 78.1118 82.3144C78.1118 73.5131 84.2851 62.8138 91.9092 58.4154Z" fill="#BA68C8"/>
<path d="M93.0454 64.1141L94.9936 68.2478L99.3464 66.5779C99.9487 66.3497 100.186 67.1938 99.7525 68.006L96.6043 73.9374L97.348 79.2893C97.4483 80.0239 96.8233 80.9958 96.2849 80.9273L92.393 80.4711L88.4965 85.4489C87.9626 86.1333 87.333 85.9052 87.4379 85.0337L88.1817 78.8194L85.0289 76.5381C84.5954 76.2233 84.8327 75.1009 85.4349 74.64L89.7877 71.2819L91.7359 64.8943C92.0051 63.9909 92.7808 63.5437 93.0454 64.1141Z" fill="#FAFAFA"/>
<path d="M72.9839 113.723C72.9839 115.612 74.3983 116.324 76.1367 115.32L105.707 98.247C107.445 97.2433 108.855 94.9026 108.855 93.0137C108.855 91.1248 107.445 90.4176 105.707 91.4214L76.1367 108.49C74.3983 109.498 72.9839 111.835 72.9839 113.723Z" fill="#BA68C8"/>
<path opacity="0.6" d="M72.9839 113.723C72.9839 115.612 74.3983 116.324 76.1367 115.32L105.707 98.247C107.445 97.2433 108.855 94.9026 108.855 93.0137C108.855 91.1248 107.445 90.4176 105.707 91.4214L76.1367 108.49C74.3983 109.498 72.9839 111.835 72.9839 113.723Z" fill="white"/>
<path d="M76.0086 110.845L105.834 93.6206C106.414 93.2875 106.884 93.5248 106.884 94.1544C106.858 94.5069 106.749 94.8483 106.567 95.151C106.385 95.4538 106.134 95.7095 105.834 95.8974L76.0086 113.121C75.4291 113.454 74.9546 113.217 74.9546 112.587C74.98 112.234 75.0888 111.892 75.272 111.589C75.4552 111.286 75.7076 111.031 76.0086 110.845V110.845Z" fill="#455A64"/>
<path d="M72.9839 125.103C72.9839 126.992 74.3983 127.704 76.1367 126.7L105.707 109.626C107.445 108.623 108.855 106.282 108.855 104.393C108.855 102.504 107.445 101.797 105.707 102.801L76.1367 119.87C74.3983 120.878 72.9839 123.241 72.9839 125.103Z" fill="#BA68C8"/>
<path opacity="0.6" d="M72.9839 125.103C72.9839 126.992 74.3983 127.704 76.1367 126.7L105.707 109.626C107.445 108.623 108.855 106.282 108.855 104.393C108.855 102.504 107.445 101.797 105.707 102.801L76.1367 119.87C74.3983 120.878 72.9839 123.241 72.9839 125.103Z" fill="white"/>
<path d="M77.9113 121.124C78.4588 120.809 78.8968 121.065 78.8968 121.69C78.8791 122.033 78.7805 122.366 78.6093 122.664C78.438 122.961 78.1988 123.214 77.9113 123.401C77.3684 123.711 76.9258 123.46 76.9258 122.831C76.9446 122.489 77.0436 122.156 77.2148 121.86C77.386 121.563 77.6246 121.311 77.9113 121.124V121.124Z" fill="#455A64"/>
<path d="M81.7197 120.87C82.1038 120.205 82.1039 119.485 81.7197 119.264C81.3356 119.042 80.7128 119.402 80.3286 120.067C79.9445 120.733 79.9444 121.452 80.3286 121.674C80.7127 121.896 81.3355 121.536 81.7197 120.87Z" fill="#455A64"/>
<path d="M84.153 117.533C84.7005 117.219 85.1385 117.474 85.1385 118.099C85.1208 118.442 85.0222 118.775 84.851 119.073C84.6797 119.37 84.4405 119.623 84.153 119.81C83.6101 120.12 83.1675 119.869 83.1675 119.24C83.1863 118.898 83.2853 118.565 83.4565 118.269C83.6277 117.972 83.8663 117.72 84.153 117.533V117.533Z" fill="#455A64"/>
<path d="M87.2419 115.736C87.7848 115.421 88.2274 115.676 88.2274 116.306C88.2086 116.648 88.1096 116.98 87.9384 117.277C87.7671 117.573 87.5285 117.825 87.2419 118.012C86.6989 118.327 86.2563 118.072 86.2563 117.442C86.2755 117.1 86.3747 116.768 86.5459 116.471C86.717 116.175 86.9555 115.923 87.2419 115.736V115.736Z" fill="#455A64"/>
<path d="M90.3537 113.943C90.8966 113.628 91.3347 113.883 91.3347 114.508C91.3167 114.85 91.2186 115.184 91.0482 115.481C90.8778 115.778 90.6399 116.031 90.3537 116.219C89.8062 116.534 89.3682 116.279 89.3682 115.649C89.3859 115.307 89.4845 114.974 89.6558 114.677C89.8271 114.381 90.0663 114.129 90.3537 113.943V113.943Z" fill="#455A64"/>
<path d="M94.1589 113.69C94.543 113.024 94.5431 112.305 94.1589 112.083C93.7748 111.861 93.152 112.221 92.7679 112.887C92.3837 113.553 92.3836 114.272 92.7678 114.494C93.1519 114.715 93.7747 114.355 94.1589 113.69Z" fill="#455A64"/>
<path d="M96.5724 110.352C97.1154 110.037 97.558 110.292 97.558 110.918C97.5391 111.26 97.4401 111.593 97.269 111.89C97.0978 112.188 96.8592 112.44 96.5724 112.629C96.0249 112.943 95.5869 112.688 95.5869 112.058C95.6046 111.716 95.7032 111.383 95.8745 111.087C96.0458 110.79 96.285 110.538 96.5724 110.352V110.352Z" fill="#455A64"/>
<path d="M100.376 110.099C100.76 109.434 100.76 108.714 100.376 108.493C99.9921 108.271 99.3693 108.631 98.9851 109.297C98.601 109.962 98.6009 110.682 98.9851 110.903C99.3692 111.125 99.992 110.765 100.376 110.099Z" fill="#455A64"/>
<path d="M102.791 106.761C103.334 106.446 103.777 106.702 103.777 107.331C103.758 107.673 103.658 108.006 103.487 108.302C103.316 108.598 103.078 108.85 102.791 109.038C102.244 109.353 101.806 109.097 101.806 108.467C101.823 108.125 101.922 107.792 102.093 107.496C102.265 107.199 102.504 106.947 102.791 106.761V106.761Z" fill="#455A64"/>
<path d="M105.898 104.963C106.441 104.648 106.884 104.904 106.884 105.534C106.865 105.875 106.766 106.208 106.595 106.504C106.424 106.801 106.185 107.053 105.898 107.24C105.355 107.555 104.913 107.299 104.913 106.67C104.932 106.328 105.031 105.996 105.202 105.699C105.374 105.403 105.612 105.151 105.898 104.963V104.963Z" fill="#455A64"/>
<path d="M86.124 128.899L99.6658 121.083C100.825 120.412 101.765 120.955 101.765 122.297V124.272C101.727 125.003 101.517 125.714 101.152 126.349C100.787 126.983 100.278 127.522 99.6658 127.922L86.1285 135.738C84.965 136.409 84.0251 135.866 84.0251 134.525V132.549C84.0624 131.818 84.272 131.107 84.6367 130.472C85.0015 129.838 85.5111 129.299 86.124 128.899V128.899Z" fill="#BA68C8"/>
<path d="M85.9778 132.325V132.453C85.9778 133.124 86.434 133.398 87.0317 133.06L98.7531 126.312C99.0592 126.112 99.3137 125.842 99.496 125.525C99.6784 125.208 99.7834 124.852 99.8025 124.487V124.354C99.8025 123.684 99.3463 123.41 98.7531 123.748L87.0591 130.5C86.7464 130.696 86.485 130.964 86.2969 131.282C86.1088 131.599 85.9994 131.957 85.9778 132.325V132.325Z" fill="#FAFAFA"/>
<path opacity="0.7" d="M83.1129 87.8305L138.17 56.0473C138.75 55.7142 139.219 55.9834 139.219 56.6541V100.455C139.201 100.821 139.096 101.176 138.913 101.494C138.731 101.811 138.476 102.08 138.17 102.28L83.1129 134.054C82.5334 134.392 82.0635 134.118 82.0635 133.448V89.6464C82.0837 89.2826 82.1892 88.9287 82.3715 88.6133C82.5538 88.2978 82.8078 88.0297 83.1129 87.8305V87.8305Z" fill="#37474F"/>
<path opacity="0.7" d="M82.3691 88.6154L79.6908 87.0641C79.5004 87.3771 79.3936 87.7337 79.3805 88.0998V131.901C79.3688 132.03 79.3904 132.16 79.4431 132.278C79.4958 132.396 79.578 132.499 79.6817 132.576C79.8779 132.69 82.1683 134 82.3508 134.118C82.2503 134.04 82.1712 133.937 82.121 133.82C82.0707 133.703 82.0509 133.575 82.0634 133.448V89.6465C82.077 89.2826 82.1821 88.9279 82.3691 88.6154V88.6154Z" fill="#263238"/>
<path opacity="0.5" d="M138.873 55.9515C138.499 55.7233 136.413 54.5279 136.245 54.4276C136.125 54.3695 135.992 54.3448 135.859 54.356C135.727 54.3673 135.6 54.4141 135.492 54.4914L80.4346 86.2838C80.1243 86.4782 79.8684 86.7482 79.6909 87.0686L82.3692 88.6199C82.5466 88.2995 82.8025 88.0295 83.1129 87.8351L138.175 56.0473C138.275 55.977 138.391 55.9316 138.512 55.915C138.634 55.8983 138.757 55.9108 138.873 55.9515Z" fill="#455A64"/>
<path d="M90.5406 88.2593C90.5525 88.2504 90.5669 88.2456 90.5817 88.2456C90.5965 88.2456 90.6109 88.2504 90.6228 88.2593C90.6357 88.2742 90.6457 88.2916 90.6519 88.3104C90.6582 88.3292 90.6607 88.349 90.6593 88.3688V89.0806C90.658 89.1328 90.6456 89.1841 90.6228 89.2311C90.6054 89.2717 90.577 89.3065 90.5406 89.3315L89.7741 89.7878V93.2371C89.7729 93.2893 89.7604 93.3407 89.7376 93.3877C89.7203 93.4283 89.6918 93.4631 89.6555 93.4881L89.0806 93.8166C89.0691 93.8262 89.0545 93.8315 89.0395 93.8315C89.0245 93.8315 89.01 93.8262 88.9985 93.8166C88.9746 93.7871 88.9631 93.7494 88.9665 93.7116V90.2577L88.1954 90.714C88.1839 90.7236 88.1694 90.7289 88.1544 90.7289C88.1394 90.7289 88.1248 90.7236 88.1133 90.714C88.1 90.7002 88.0898 90.6837 88.0835 90.6655C88.0772 90.6474 88.0749 90.6281 88.0768 90.609V89.8973C88.0781 89.8451 88.0905 89.7937 88.1133 89.7467C88.1294 89.7054 88.1582 89.6703 88.1954 89.6463L90.5406 88.2593Z" fill="#FAFAFA"/>
<path d="M93.4471 90.2077C93.4593 90.1977 93.4746 90.1922 93.4904 90.1922C93.5062 90.1922 93.5215 90.1977 93.5338 90.2077C93.5584 90.2386 93.5698 90.2779 93.5657 90.3172V91.029C93.5666 91.0795 93.5557 91.1295 93.5338 91.175C93.5149 91.2172 93.4849 91.2534 93.4471 91.2799L91.3802 92.4754C91.3687 92.485 91.3542 92.4903 91.3392 92.4903C91.3241 92.4903 91.3096 92.485 91.2981 92.4754C91.2845 92.4617 91.2742 92.4452 91.2678 92.4271C91.2615 92.4089 91.2594 92.3895 91.2616 92.3704V88.0268C91.2606 87.9743 91.2732 87.9224 91.2981 87.8762C91.3142 87.8349 91.3429 87.7998 91.3802 87.7758L93.4151 86.5987C93.4267 86.589 93.4412 86.5837 93.4562 86.5837C93.4712 86.5837 93.4858 86.589 93.4973 86.5987C93.5104 86.6127 93.5204 86.6292 93.5267 86.6473C93.5329 86.6654 93.5354 86.6846 93.5338 86.7036V87.4154C93.5325 87.4676 93.5201 87.519 93.4973 87.566C93.4812 87.6073 93.4524 87.6424 93.4151 87.6663L92.0464 88.442V89.1674L93.2965 88.4466C93.308 88.4369 93.3226 88.4316 93.3376 88.4316C93.3526 88.4316 93.3671 88.4369 93.3786 88.4466C93.3917 88.4605 93.4017 88.4771 93.408 88.4951C93.4143 88.5132 93.4167 88.5324 93.4151 88.5515V89.2678C93.4138 89.3186 93.4014 89.3684 93.3786 89.4138C93.3626 89.4551 93.3338 89.4903 93.2965 89.5142L92.0464 90.2351V90.9879L93.4471 90.2077Z" fill="#FAFAFA"/>
<path d="M95.587 85.3393C95.7454 85.242 95.92 85.174 96.1025 85.1386C96.2347 85.1093 96.373 85.1305 96.4904 85.1979C96.6091 85.2785 96.6961 85.3979 96.7368 85.5355C96.7973 85.7413 96.825 85.9553 96.8189 86.1697C96.8217 86.4789 96.7771 86.7866 96.6866 87.0822C96.6025 87.3461 96.4728 87.5932 96.3033 87.8123L96.8417 89.1035C96.8464 89.1245 96.8464 89.1463 96.8417 89.1674C96.8414 89.2099 96.832 89.2519 96.8143 89.2906C96.7992 89.3235 96.7755 89.3518 96.7459 89.3727L96.1527 89.7149C96.0934 89.7468 96.0524 89.7514 96.0295 89.7149C96.0033 89.691 95.983 89.6613 95.9702 89.6282L95.482 88.4693L95.0805 88.702V90.1392C95.081 90.1911 95.0701 90.2425 95.0486 90.2898C95.031 90.3316 95.0007 90.3667 94.9619 90.3902L94.3916 90.7232C94.3801 90.7329 94.3655 90.7382 94.3505 90.7382C94.3355 90.7382 94.3209 90.7329 94.3094 90.7232C94.2839 90.6944 94.2708 90.6567 94.2729 90.6183V86.2838C94.2742 86.2316 94.2866 86.1802 94.3094 86.1332C94.3255 86.0919 94.3543 86.0568 94.3916 86.0328L95.587 85.3393ZM95.1033 87.6526L95.5961 87.3697C95.7176 87.2991 95.822 87.2025 95.9018 87.0868C95.9866 86.9502 96.028 86.7911 96.0204 86.6305C96.0204 86.4435 95.9839 86.334 95.9018 86.3112C95.8489 86.3001 95.7943 86.3005 95.7415 86.3123C95.6888 86.3241 95.6392 86.3471 95.5961 86.3796L95.1033 86.6625V87.6526Z" fill="#FAFAFA"/>
<path d="M98.8175 86.9955C98.7952 86.9717 98.7753 86.9457 98.7582 86.918L98.3475 86.0465V88.2731C98.3475 88.3235 98.3366 88.3732 98.3156 88.4191C98.2983 88.4622 98.268 88.4989 98.2289 88.524L97.6586 88.8525C97.6467 88.8614 97.6323 88.8662 97.6175 88.8662C97.6027 88.8662 97.5883 88.8614 97.5764 88.8525C97.5635 88.8376 97.5535 88.8202 97.5473 88.8014C97.541 88.7826 97.5385 88.7628 97.5399 88.743V84.3994C97.5412 84.3472 97.5536 84.2958 97.5764 84.2488C97.5937 84.2083 97.6222 84.1734 97.6586 84.1484L98.165 83.8564C98.2243 83.8245 98.27 83.8245 98.2973 83.8564C98.3182 83.8787 98.3365 83.9032 98.3521 83.9294L99.0593 85.3849L99.7711 83.1036C99.7861 83.0553 99.8044 83.008 99.8258 82.9622C99.852 82.8998 99.8987 82.8483 99.9581 82.8162L100.465 82.5196C100.476 82.5099 100.491 82.5046 100.506 82.5046C100.521 82.5046 100.535 82.5099 100.547 82.5196C100.56 82.5336 100.57 82.5501 100.576 82.5682C100.582 82.5863 100.585 82.6055 100.583 82.6245V86.9681C100.582 87.0204 100.57 87.0717 100.547 87.1187C100.531 87.16 100.502 87.1951 100.465 87.2191L99.8897 87.5476C99.8786 87.5582 99.8639 87.5641 99.8486 87.5641C99.8333 87.5641 99.8186 87.5582 99.8076 87.5476C99.782 87.5188 99.7689 87.4811 99.7711 87.4427V85.2161L99.3604 86.5621C99.3447 86.6116 99.3264 86.6604 99.3057 86.7081C99.2834 86.756 99.2467 86.7959 99.2007 86.8221L98.9224 86.9864C98.8768 87.0183 98.8448 87.0183 98.8175 86.9955Z" fill="#FAFAFA"/>
<path d="M102.545 81.265C102.701 81.1675 102.877 81.1081 103.061 81.0917C103.2 81.083 103.339 81.113 103.462 81.1784C103.577 81.2435 103.67 81.3401 103.731 81.4567C103.795 81.5778 103.829 81.7122 103.832 81.8491C103.832 81.8902 103.822 81.9308 103.804 81.9677C103.79 81.9999 103.768 82.0281 103.74 82.0498L103.165 82.3783C103.138 82.3988 103.104 82.4099 103.07 82.4103C103.041 82.4038 103.015 82.3914 102.992 82.3738L102.951 82.3281C102.928 82.3058 102.9 82.2886 102.869 82.2779C102.826 82.2656 102.78 82.2656 102.737 82.2779C102.668 82.2883 102.603 82.3132 102.545 82.351C102.489 82.3832 102.436 82.4198 102.385 82.4605C102.336 82.4987 102.291 82.5431 102.253 82.5928C102.212 82.6397 102.179 82.6939 102.157 82.7525C102.13 82.8112 102.116 82.875 102.116 82.9395C102.113 82.9657 102.116 82.9922 102.124 83.0173C102.132 83.0424 102.144 83.0656 102.162 83.0855C102.2 83.1168 102.249 83.1316 102.299 83.1266C102.386 83.1255 102.474 83.1132 102.559 83.0901L102.96 82.9852C103.097 82.947 103.238 82.9286 103.38 82.9304C103.49 82.9353 103.595 82.9753 103.681 83.0445C103.767 83.1266 103.828 83.2308 103.859 83.3456C103.904 83.5121 103.924 83.6843 103.918 83.8566C103.919 84.084 103.885 84.3102 103.818 84.5273C103.75 84.7467 103.655 84.9567 103.535 85.1524C103.414 85.3485 103.27 85.5293 103.106 85.6908C102.947 85.852 102.765 85.9902 102.568 86.1014C102.403 86.2044 102.218 86.2698 102.025 86.2931C101.881 86.3105 101.735 86.2851 101.605 86.2201C101.486 86.1543 101.389 86.0542 101.327 85.9326C101.255 85.7913 101.219 85.6347 101.222 85.4763C101.221 85.4332 101.232 85.3907 101.254 85.3532C101.265 85.3217 101.286 85.2946 101.313 85.2756L101.888 84.9425C101.917 84.9242 101.95 84.9133 101.984 84.9106C102.009 84.9154 102.032 84.9264 102.052 84.9425C102.072 84.9595 102.09 84.9778 102.107 84.9973C102.133 85.0262 102.164 85.0508 102.198 85.0703C102.248 85.0826 102.299 85.0826 102.349 85.0703C102.427 85.0637 102.503 85.037 102.568 84.9927C102.71 84.9107 102.841 84.8093 102.956 84.6916C103.051 84.5919 103.107 84.4602 103.111 84.322C103.115 84.2959 103.111 84.2693 103.101 84.2451C103.09 84.2209 103.073 84.2001 103.051 84.1851C102.999 84.1588 102.94 84.1508 102.883 84.1623C102.784 84.1709 102.686 84.1892 102.591 84.2171L102.175 84.322C102.066 84.3669 101.947 84.3801 101.83 84.3599C101.714 84.3397 101.606 84.287 101.518 84.2079C101.355 83.9736 101.281 83.689 101.308 83.4049C101.312 83.2013 101.341 82.9989 101.395 82.8026C101.456 82.5923 101.538 82.3889 101.642 82.1958C101.749 81.9992 101.881 81.8168 102.034 81.6529C102.183 81.4982 102.356 81.3674 102.545 81.265Z" fill="#FAFAFA"/>
<path d="M105.597 81.306C105.607 81.0458 105.644 80.7874 105.707 80.5349C105.765 80.2818 105.854 80.0367 105.972 79.8049C106.084 79.5765 106.225 79.3634 106.391 79.1707C106.554 78.9876 106.747 78.8334 106.962 78.7144C107.131 78.605 107.326 78.5421 107.527 78.5319C107.682 78.5285 107.832 78.5802 107.952 78.6779C108.078 78.7919 108.169 78.9389 108.216 79.1022C108.284 79.3118 108.321 79.53 108.326 79.7501C108.326 79.9417 108.326 80.1425 108.326 80.3524C108.326 80.5623 108.326 80.7585 108.326 80.9455C108.317 81.2057 108.28 81.4642 108.216 81.7166C108.155 81.9718 108.066 82.2196 107.952 82.4558C107.839 82.6835 107.696 82.8952 107.527 83.0854C107.365 83.2676 107.174 83.4217 106.962 83.5417C106.792 83.6538 106.595 83.7184 106.391 83.7287C106.238 83.7363 106.087 83.684 105.972 83.5827C105.845 83.4674 105.753 83.3188 105.707 83.1538C105.639 82.9443 105.602 82.7261 105.597 82.5059C105.597 82.328 105.597 82.1318 105.597 81.9219C105.597 81.7121 105.597 81.5022 105.597 81.306ZM107.514 81.3607C107.514 81.2786 107.514 81.1873 107.514 81.087C107.514 80.9866 107.514 80.8862 107.514 80.7813C107.514 80.6763 107.514 80.5805 107.514 80.4847C107.514 80.3889 107.514 80.3068 107.514 80.2338C107.512 80.1378 107.497 80.0425 107.468 79.9509C107.45 79.8803 107.414 79.8158 107.363 79.7638C107.318 79.7221 107.26 79.6978 107.199 79.6954C107.115 79.7012 107.033 79.7279 106.962 79.7729C106.872 79.8244 106.792 79.8908 106.724 79.9691C106.657 80.0482 106.6 80.1356 106.556 80.2292C106.511 80.3276 106.476 80.4299 106.451 80.5349C106.428 80.6464 106.413 80.7591 106.405 80.8725C106.405 80.9547 106.405 81.0413 106.405 81.1372C106.405 81.233 106.405 81.3334 106.405 81.4383C106.405 81.5432 106.405 81.6436 106.405 81.7394C106.405 81.8352 106.405 81.9265 106.405 82.0041C106.406 82.1682 106.458 82.328 106.556 82.4603C106.647 82.5561 106.779 82.5516 106.962 82.4603C107.14 82.3546 107.281 82.1948 107.363 82.0041C107.457 81.8012 107.514 81.5834 107.532 81.3607H107.514Z" fill="#FAFAFA"/>
<path d="M111.187 76.3373C111.198 76.3277 111.213 76.3224 111.228 76.3224C111.243 76.3224 111.257 76.3277 111.269 76.3373C111.293 76.3682 111.305 76.4076 111.301 76.4468V77.1586C111.301 77.2091 111.29 77.2589 111.269 77.3046C111.252 77.3465 111.223 77.3828 111.187 77.4096L109.877 78.1624V79.0749L111.1 78.3677C111.112 78.358 111.126 78.3528 111.141 78.3528C111.156 78.3528 111.171 78.358 111.182 78.3677C111.206 78.3972 111.218 78.4348 111.214 78.4726V79.189C111.214 79.2394 111.203 79.2892 111.182 79.335C111.166 79.3763 111.137 79.4114 111.1 79.4354L109.877 80.138V81.5935C109.878 81.6439 109.867 81.6938 109.845 81.7395C109.829 81.7808 109.801 81.8159 109.763 81.8399L109.188 82.1729C109.177 82.1818 109.162 82.1866 109.147 82.1866C109.132 82.1866 109.118 82.1818 109.106 82.1729C109.093 82.158 109.083 82.1406 109.077 82.1218C109.071 82.103 109.068 82.0832 109.07 82.0634V77.7198C109.07 77.669 109.083 77.619 109.106 77.5738C109.122 77.5313 109.151 77.4947 109.188 77.4689L111.187 76.3373Z" fill="#FAFAFA"/>
<path d="M114.193 74.5304C114.35 74.4349 114.526 74.3757 114.709 74.357C114.848 74.3484 114.987 74.3784 115.11 74.4437C115.224 74.51 115.317 74.6063 115.38 74.7221C115.443 74.8432 115.478 74.9776 115.48 75.1144C115.479 75.1559 115.468 75.1965 115.448 75.2331C115.437 75.267 115.414 75.296 115.384 75.3152L114.814 75.6437C114.787 75.6662 114.753 75.6776 114.718 75.6756C114.689 75.6712 114.662 75.6586 114.641 75.6391L114.599 75.5935C114.576 75.5711 114.548 75.554 114.517 75.5433C114.474 75.5313 114.428 75.5313 114.385 75.5433C114.317 75.5537 114.251 75.5786 114.193 75.6163C114.137 75.6486 114.084 75.6852 114.034 75.7258C113.984 75.764 113.94 75.8085 113.901 75.8581C113.86 75.906 113.826 75.9599 113.801 76.0178C113.778 76.0774 113.765 76.1408 113.765 76.2049C113.76 76.2301 113.761 76.2561 113.769 76.2806C113.776 76.3051 113.789 76.3275 113.807 76.3459C113.825 76.3642 113.847 76.378 113.871 76.386C113.896 76.394 113.922 76.3961 113.947 76.392C114.035 76.3903 114.122 76.3781 114.207 76.3555L114.609 76.2505C114.745 76.2124 114.887 76.194 115.028 76.1958C115.138 76.2007 115.244 76.2407 115.329 76.3098C115.415 76.392 115.477 76.4962 115.507 76.611C115.55 76.7779 115.57 76.9498 115.567 77.122C115.566 77.3492 115.532 77.5752 115.466 77.7927C115.398 78.0117 115.303 78.2215 115.183 78.4178C115.064 78.6146 114.92 78.7955 114.755 78.9562C114.595 79.1174 114.414 79.2556 114.216 79.3668C114.053 79.4738 113.867 79.5396 113.673 79.5584C113.529 79.5764 113.383 79.551 113.254 79.4854C113.134 79.4197 113.037 79.3196 112.975 79.198C112.904 79.0567 112.868 78.9001 112.87 78.7417C112.871 78.6992 112.88 78.6572 112.898 78.6185C112.912 78.5875 112.934 78.5607 112.962 78.541L113.536 78.2079C113.565 78.1896 113.598 78.1786 113.632 78.176C113.657 78.1808 113.681 78.1918 113.701 78.2079C113.718 78.2253 113.735 78.2435 113.751 78.2627C113.78 78.2906 113.812 78.315 113.847 78.3357C113.896 78.348 113.948 78.348 113.997 78.3357C114.076 78.3291 114.151 78.3024 114.216 78.2581C114.359 78.1761 114.489 78.0747 114.604 77.957C114.701 77.8578 114.756 77.7258 114.759 77.5874C114.762 77.5614 114.757 77.5353 114.747 77.5113C114.737 77.4874 114.72 77.4665 114.7 77.4505C114.645 77.4317 114.586 77.4317 114.531 77.4505C114.432 77.4591 114.334 77.4774 114.239 77.5053L113.81 77.6148C113.701 77.6597 113.581 77.6728 113.465 77.6527C113.349 77.6325 113.241 77.5798 113.153 77.5007C112.988 77.2674 112.913 76.982 112.943 76.6977C112.944 76.4939 112.973 76.2912 113.03 76.0954C113.087 75.8837 113.169 75.6799 113.276 75.4886C113.384 75.292 113.516 75.1096 113.669 74.9456C113.82 74.7801 113.997 74.6399 114.193 74.5304V74.5304Z" fill="#FAFAFA"/>
<path d="M118.409 75.7898C118.421 75.7802 118.435 75.7749 118.45 75.7749C118.465 75.7749 118.48 75.7802 118.491 75.7898C118.517 75.8186 118.53 75.8563 118.528 75.8948V76.6111C118.526 76.6618 118.514 76.7115 118.491 76.7571C118.475 76.7984 118.446 76.8335 118.409 76.8575L116.338 78.0711C116.326 78.0808 116.312 78.0861 116.297 78.0861C116.282 78.0861 116.267 78.0808 116.256 78.0711C116.243 78.0562 116.233 78.0388 116.226 78.02C116.22 78.0012 116.218 77.9814 116.219 77.9616V73.618C116.221 73.5673 116.233 73.5176 116.256 73.472C116.272 73.4307 116.3 73.3956 116.338 73.3716L118.373 72.1854C118.384 72.1757 118.399 72.1704 118.414 72.1704C118.429 72.1704 118.443 72.1757 118.455 72.1854C118.468 72.2003 118.478 72.2177 118.484 72.2365C118.49 72.2553 118.493 72.2751 118.491 72.2949V73.0066C118.49 73.0588 118.478 73.1102 118.455 73.1572C118.438 73.1978 118.409 73.2326 118.373 73.2576L117.027 74.0332V74.7587L118.277 74.0378C118.289 74.0289 118.303 74.0241 118.318 74.0241C118.333 74.0241 118.347 74.0289 118.359 74.0378C118.372 74.0527 118.382 74.0701 118.388 74.0889C118.394 74.1077 118.397 74.1275 118.396 74.1473V74.8773C118.394 74.9295 118.382 74.9809 118.359 75.0279C118.343 75.0692 118.314 75.1043 118.277 75.1282L117.027 75.8491V76.602L118.409 75.7898Z" fill="#FAFAFA"/>
<path d="M120.549 70.9306C120.709 70.8341 120.883 70.7647 121.065 70.7253C121.197 70.699 121.334 70.72 121.453 70.7846C121.571 70.8663 121.657 70.9876 121.694 71.1268C121.759 71.3302 121.788 71.5432 121.781 71.7564C121.785 72.066 121.739 72.3741 121.644 72.669C121.558 72.932 121.429 73.1788 121.261 73.399L121.804 74.6857C121.808 74.7083 121.808 74.7315 121.804 74.7541C121.802 74.7955 121.791 74.8359 121.772 74.8727C121.759 74.9071 121.735 74.9361 121.704 74.9548L121.11 75.297C121.056 75.3335 121.01 75.3381 120.987 75.297C120.963 75.2712 120.943 75.242 120.928 75.2104L120.444 74.0514L120.043 74.2841V75.7214C120.042 75.7722 120.03 75.8222 120.006 75.8674C119.99 75.9099 119.962 75.9465 119.924 75.9723L119.349 76.3008C119.338 76.3105 119.323 76.3158 119.308 76.3158C119.293 76.3158 119.279 76.3105 119.267 76.3008C119.243 76.2699 119.231 76.2306 119.235 76.1913V71.8477C119.235 71.7973 119.246 71.7475 119.267 71.7017C119.283 71.6604 119.312 71.6253 119.349 71.6013L120.549 70.9306ZM120.056 73.253L120.549 72.9655C120.671 72.8973 120.775 72.8002 120.85 72.6827C120.938 72.5472 120.981 72.3876 120.974 72.2264C120.974 72.0348 120.932 71.9298 120.85 71.9025C120.745 71.8852 120.637 71.9098 120.549 71.9709L120.056 72.2583V73.253Z" fill="#FAFAFA"/>
<path d="M123.328 74.0332C123.215 74.0971 123.138 74.0515 123.095 73.8964L122.183 70.2098C122.183 70.1824 122.183 70.1641 122.183 70.155V70.1276C122.183 70.0866 122.193 70.0462 122.21 70.009C122.223 69.9746 122.247 69.9456 122.278 69.9269L122.826 69.6075C122.885 69.5756 122.926 69.571 122.954 69.6075C122.976 69.6304 122.992 69.6587 122.999 69.6896L123.606 72.2994L124.213 68.9915C124.219 68.9434 124.235 68.8968 124.259 68.8547C124.284 68.7983 124.327 68.7518 124.382 68.7223L124.934 68.4075C124.944 68.3997 124.956 68.3955 124.968 68.3955C124.981 68.3955 124.993 68.3997 125.002 68.4075C125.013 68.4193 125.02 68.4331 125.025 68.448C125.03 68.4629 125.031 68.4787 125.03 68.4942C125.032 68.5032 125.032 68.5126 125.03 68.5216C125.03 68.5216 125.03 68.5535 125.03 68.59L124.14 73.3078C124.132 73.3874 124.107 73.4645 124.067 73.5337C124.027 73.603 123.972 73.6628 123.907 73.7093L123.328 74.0332Z" fill="#FAFAFA"/>
<path d="M125.778 72.6188C125.766 72.6285 125.752 72.6338 125.737 72.6338C125.722 72.6338 125.707 72.6285 125.696 72.6188C125.682 72.6045 125.671 72.5872 125.665 72.5682C125.659 72.5493 125.657 72.5291 125.659 72.5093V68.1657C125.658 68.1146 125.67 68.0641 125.696 68.0197C125.712 67.9772 125.741 67.9406 125.778 67.9147L126.348 67.5862C126.36 67.5766 126.374 67.5713 126.389 67.5713C126.404 67.5713 126.419 67.5766 126.43 67.5862C126.443 67.6012 126.453 67.6186 126.46 67.6374C126.466 67.6561 126.468 67.676 126.467 67.6957V72.0394C126.466 72.0901 126.453 72.14 126.43 72.1854C126.413 72.2272 126.385 72.2635 126.348 72.2903L125.778 72.6188Z" fill="#FAFAFA"/>
<path d="M128 68.4167C128 68.476 128 68.5581 128 68.663V69.3064C128 69.4113 128 69.4889 128 69.5482C128.004 69.6388 128.017 69.7289 128.036 69.8174C128.052 69.8906 128.087 69.9583 128.137 70.0136C128.157 70.0369 128.183 70.0555 128.211 70.0681C128.239 70.0807 128.27 70.087 128.301 70.0866C128.389 70.085 128.475 70.0581 128.547 70.009C128.64 69.9571 128.723 69.8909 128.794 69.8128C128.855 69.7466 128.907 69.673 128.949 69.5938C128.989 69.5212 129.021 69.4448 129.045 69.3657C129.067 69.2987 129.084 69.23 129.095 69.1604C129.105 69.0993 129.122 69.0396 129.145 68.9824C129.168 68.9395 129.203 68.9045 129.246 68.8821L129.816 68.5535C129.826 68.5458 129.838 68.5415 129.85 68.5415C129.863 68.5415 129.875 68.5458 129.884 68.5535C129.904 68.5797 129.914 68.6121 129.912 68.6448C129.906 68.8842 129.869 69.1219 129.802 69.352C129.735 69.5925 129.638 69.8239 129.515 70.041C129.395 70.2569 129.251 70.4589 129.086 70.6432C128.932 70.823 128.75 70.977 128.547 71.0995C128.379 71.2063 128.186 71.2676 127.986 71.2774C127.833 71.2806 127.683 71.227 127.567 71.1269C127.441 71.0119 127.348 70.8654 127.297 70.7025C127.234 70.4938 127.198 70.2774 127.192 70.0592C127.192 69.8813 127.192 69.6851 127.192 69.4752C127.192 69.2653 127.192 69.06 127.192 68.8638C127.208 68.3425 127.336 67.8306 127.567 67.3627C127.679 67.1344 127.82 66.9212 127.986 66.7285C128.147 66.5463 128.336 66.3921 128.547 66.2722C128.709 66.1689 128.894 66.1077 129.086 66.0943C129.236 66.0826 129.387 66.1194 129.515 66.1992C129.645 66.2854 129.745 66.4097 129.802 66.5551C129.875 66.7412 129.912 66.9393 129.912 67.1391C129.911 67.1802 129.902 67.2207 129.884 67.2578C129.872 67.2922 129.847 67.3212 129.816 67.3399L129.246 67.673C129.195 67.7003 129.163 67.7049 129.145 67.673C129.118 67.6368 129.101 67.5944 129.095 67.5498C129.084 67.4992 129.068 67.4501 129.045 67.4038C129.025 67.3561 128.991 67.315 128.949 67.2851C128.903 67.2554 128.849 67.2411 128.794 67.2441C128.707 67.2557 128.623 67.2852 128.547 67.3308C128.454 67.3869 128.371 67.4578 128.301 67.5406C128.233 67.6212 128.177 67.7121 128.137 67.8098C128.092 67.906 128.058 68.007 128.036 68.111C128.018 68.212 128.006 68.3141 128 68.4167V68.4167Z" fill="#FAFAFA"/>
<path d="M132.768 67.504C132.779 67.4944 132.794 67.4891 132.809 67.4891C132.824 67.4891 132.838 67.4944 132.85 67.504C132.863 67.518 132.873 67.5345 132.879 67.5526C132.886 67.5707 132.888 67.5899 132.886 67.609V68.3207C132.885 68.3729 132.873 68.4243 132.85 68.4713C132.834 68.5126 132.805 68.5477 132.768 68.5717L130.692 69.7762C130.68 69.7859 130.666 69.7911 130.651 69.7911C130.636 69.7911 130.621 69.7859 130.61 69.7762C130.585 69.7453 130.574 69.706 130.578 69.6667V65.3231C130.577 65.2726 130.588 65.2227 130.61 65.1771C130.626 65.1358 130.655 65.1006 130.692 65.0767L132.727 63.8995C132.763 63.8995 132.791 63.8995 132.813 63.8995C132.838 63.9304 132.849 63.9698 132.845 64.009V64.7208C132.846 64.7713 132.835 64.8213 132.813 64.8668C132.797 64.9106 132.767 64.9476 132.727 64.9717L131.385 65.7474V66.4729L132.631 65.752C132.643 65.742 132.658 65.7365 132.674 65.7365C132.69 65.7365 132.705 65.742 132.718 65.752C132.742 65.7829 132.754 65.8222 132.75 65.8615V66.5732C132.75 66.6252 132.739 66.6765 132.718 66.7238C132.697 66.7639 132.668 66.7983 132.631 66.8242L131.385 67.5451V68.2979L132.768 67.504Z" fill="#FAFAFA"/>
<path d="M111.771 87.3743L117.205 84.2398C117.506 84.0664 117.748 84.2033 117.752 84.5546V84.6915C117.741 84.8809 117.686 85.065 117.591 85.2291C117.496 85.3931 117.364 85.5325 117.205 85.636L111.771 88.7751C111.47 88.9485 111.223 88.807 111.223 88.4602V88.3234C111.233 88.1332 111.288 87.9482 111.383 87.7833C111.478 87.6184 111.611 87.4783 111.771 87.3743V87.3743Z" fill="#FAFAFA"/>
<path d="M88.1135 101.03L109.398 88.7477C109.699 88.5743 109.946 88.7157 109.946 89.0671V89.2039C109.936 89.3935 109.881 89.5781 109.786 89.7423C109.691 89.9066 109.558 90.0458 109.398 90.1484L88.1135 102.431C87.8124 102.604 87.5706 102.463 87.5706 102.116V101.979C87.5805 101.79 87.6348 101.605 87.7291 101.44C87.8234 101.275 87.9551 101.135 88.1135 101.03V101.03Z" fill="#FAFAFA"/>
<path d="M119.655 82.8254L132.357 75.4887C132.663 75.3107 132.905 75.4522 132.905 75.8035V75.9404C132.895 76.1294 132.841 76.3134 132.746 76.4775C132.652 76.6416 132.52 76.7811 132.362 76.8848L119.655 84.2215C119.354 84.3949 119.107 84.2535 119.107 83.9067V83.7698C119.118 83.5805 119.173 83.3963 119.269 83.2323C119.364 83.0682 119.496 82.9288 119.655 82.8254V82.8254Z" fill="#FAFAFA"/>
<path d="M103.047 96.0844L108.481 92.9453C108.782 92.7719 109.029 92.9134 109.029 93.2601V93.397C109.019 93.5871 108.964 93.7722 108.869 93.9371C108.773 94.102 108.641 94.2421 108.481 94.346L103.047 97.4805C102.746 97.6539 102.5 97.5125 102.5 97.1657V97.0288C102.51 96.8395 102.565 96.6554 102.661 96.4913C102.756 96.3272 102.888 96.1878 103.047 96.0844V96.0844Z" fill="#FAFAFA"/>
<path d="M111.072 91.435L132.353 79.157C132.658 78.979 132.9 79.1205 132.9 79.4718V79.6087C132.89 79.7977 132.836 79.9817 132.741 80.1458C132.647 80.3099 132.515 80.4495 132.357 80.5531L111.072 92.8357C110.767 93.0091 110.525 92.8677 110.525 92.5209V92.384C110.535 92.1938 110.589 92.0086 110.685 91.8437C110.78 91.6787 110.913 91.5386 111.072 91.435Z" fill="#FAFAFA"/>
<path d="M88.0815 104.726L100.788 97.3893C101.09 97.2113 101.336 97.3528 101.336 97.7041V97.841C101.325 98.0303 101.27 98.2145 101.175 98.3785C101.08 98.5426 100.947 98.682 100.788 98.7854L88.0815 106.122C87.7804 106.3 87.5386 106.159 87.5386 105.807V105.67C87.5485 105.481 87.6028 105.297 87.6972 105.133C87.7915 104.969 87.9232 104.83 88.0815 104.726V104.726Z" fill="#FAFAFA"/>
<path d="M88.1135 97.3574L97.4258 91.9827C97.727 91.8093 97.9688 91.9507 97.9688 92.2975V92.4343C97.9588 92.624 97.9045 92.8086 97.8102 92.9735C97.7159 93.1383 97.5843 93.2787 97.4258 93.3834L88.1135 98.7581C87.8124 98.9315 87.5706 98.7901 87.5706 98.4388V98.3064C87.5798 98.1166 87.6338 97.9317 87.7281 97.7668C87.8225 97.6018 87.9546 97.4616 88.1135 97.3574V97.3574Z" fill="#FAFAFA"/>
<path d="M124.053 76.6112L132.467 71.752C132.773 71.574 133.014 71.7155 133.014 72.0668V72.2037C133.005 72.3933 132.95 72.5778 132.855 72.742C132.76 72.9063 132.627 73.0455 132.467 73.1481L124.053 78.0073C123.752 78.1807 123.506 78.0393 123.506 77.6925V77.5556C123.517 77.3663 123.572 77.1821 123.667 77.0181C123.762 76.854 123.894 76.7146 124.053 76.6112V76.6112Z" fill="#FAFAFA"/>
<path d="M99.7936 90.6092L121.078 78.3266C121.379 78.1533 121.626 78.2947 121.626 78.6415V78.7783C121.615 78.9677 121.56 79.1518 121.465 79.3159C121.37 79.48 121.237 79.6193 121.078 79.7228L99.7936 92.0054C99.4925 92.1788 99.2461 92.0373 99.2461 91.6906V91.5537C99.2569 91.3644 99.3121 91.1802 99.4072 91.0162C99.5023 90.8521 99.6347 90.7127 99.7936 90.6092V90.6092Z" fill="#FAFAFA"/>
<path d="M111.771 98.7579L117.205 95.6234C117.506 95.4455 117.748 95.5869 117.752 95.9382V96.0751C117.741 96.2645 117.686 96.4486 117.591 96.6127C117.496 96.7767 117.364 96.9161 117.205 97.0196L111.771 100.159C111.47 100.332 111.223 100.191 111.223 99.8438V99.707C111.233 99.5168 111.288 99.3318 111.383 99.1669C111.478 99.002 111.611 98.8618 111.771 98.7579V98.7579Z" fill="#FAFAFA"/>
<path d="M88.1135 112.414L109.398 100.131C109.699 99.958 109.946 100.099 109.946 100.451V100.588C109.936 100.777 109.881 100.962 109.786 101.126C109.691 101.29 109.558 101.429 109.398 101.532L88.1135 113.815C87.8124 113.988 87.5706 113.847 87.5706 113.5V113.363C87.5805 113.173 87.6348 112.989 87.7291 112.824C87.8234 112.659 87.9551 112.519 88.1135 112.414V112.414Z" fill="#FAFAFA"/>
<path d="M119.655 94.2092L132.357 86.8679C132.663 86.6945 132.905 86.836 132.905 87.1873V87.3242C132.895 87.5132 132.841 87.6972 132.746 87.8613C132.652 88.0254 132.52 88.1649 132.362 88.2686L119.655 95.6053C119.354 95.7787 119.107 95.6373 119.107 95.2905V95.1536C119.118 94.9643 119.173 94.7802 119.269 94.6161C119.364 94.452 119.496 94.3126 119.655 94.2092V94.2092Z" fill="#FAFAFA"/>
<path d="M103.047 107.468L108.481 104.329C108.782 104.156 109.029 104.297 109.029 104.644V104.781C109.019 104.971 108.964 105.156 108.869 105.321C108.773 105.486 108.641 105.626 108.481 105.73L103.047 108.864C102.746 109.038 102.5 108.896 102.5 108.55V108.413C102.51 108.223 102.565 108.039 102.661 107.875C102.756 107.711 102.888 107.572 103.047 107.468V107.468Z" fill="#FAFAFA"/>
<path d="M111.072 102.819L132.353 90.5408C132.658 90.3628 132.9 90.5043 132.9 90.8556V90.9925C132.89 91.1815 132.836 91.3655 132.741 91.5296C132.647 91.6937 132.515 91.8332 132.357 91.9369L111.072 104.22C110.767 104.393 110.525 104.251 110.525 103.905V103.768C110.535 103.578 110.589 103.392 110.685 103.227C110.78 103.062 110.913 102.922 111.072 102.819Z" fill="#FAFAFA"/>
<path d="M88.0815 116.11L100.788 108.773C101.09 108.595 101.336 108.736 101.336 109.088V109.225C101.325 109.414 101.27 109.598 101.175 109.762C101.08 109.926 100.947 110.066 100.788 110.169L88.0815 117.506C87.7804 117.684 87.5386 117.542 87.5386 117.191V117.054C87.5485 116.865 87.6028 116.681 87.6972 116.517C87.7915 116.353 87.9232 116.213 88.0815 116.11V116.11Z" fill="#FAFAFA"/>
<path d="M88.1135 108.741L97.4258 103.366C97.727 103.193 97.9688 103.334 97.9688 103.681V103.818C97.9588 104.008 97.9045 104.192 97.8102 104.357C97.7159 104.522 97.5843 104.662 97.4258 104.767L88.1135 110.142C87.8124 110.315 87.5706 110.174 87.5706 109.822V109.69C87.5798 109.5 87.6338 109.315 87.7281 109.15C87.8225 108.985 87.9546 108.845 88.1135 108.741V108.741Z" fill="#FAFAFA"/>
<path d="M124.053 87.9902L132.467 83.131C132.773 82.9576 133.014 83.099 133.014 83.4504V83.5872C133.005 83.7768 132.95 83.9614 132.855 84.1256C132.76 84.2899 132.627 84.4291 132.467 84.5317L124.053 89.3909C123.752 89.5643 123.506 89.4228 123.506 89.0761V88.9392C123.517 88.7493 123.572 88.5647 123.667 88.3999C123.762 88.2352 123.895 88.0949 124.053 87.9902V87.9902Z" fill="#FAFAFA"/>
<path d="M99.7936 101.993L121.078 89.7103C121.379 89.5369 121.626 89.6784 121.626 90.0251V90.162C121.615 90.3513 121.56 90.5355 121.465 90.6996C121.37 90.8636 121.237 91.003 121.078 91.1065L99.7936 103.389C99.4925 103.562 99.2461 103.421 99.2461 103.074V102.937C99.2569 102.748 99.3121 102.564 99.4072 102.4C99.5023 102.236 99.6347 102.096 99.7936 101.993V101.993Z" fill="#FAFAFA"/>
<path d="M121.489 102.331C122.858 101.546 123.953 102.18 123.953 103.754C123.906 104.609 123.659 105.44 123.231 106.182C122.803 106.923 122.206 107.553 121.489 108.02C120.12 108.805 119.025 108.171 119.025 106.597C119.072 105.742 119.319 104.91 119.748 104.169C120.176 103.428 120.772 102.798 121.489 102.331V102.331Z" fill="#BA68C8"/>
<path d="M121.567 107.048C121.447 107.048 121.332 107 121.247 106.916L120.166 105.867C120.09 105.78 120.049 105.669 120.052 105.554C120.054 105.439 120.1 105.329 120.181 105.246C120.261 105.164 120.369 105.115 120.484 105.109C120.599 105.103 120.712 105.14 120.8 105.214L121.402 105.803L123.556 100.679C123.576 100.619 123.608 100.565 123.65 100.518C123.692 100.471 123.743 100.434 123.8 100.408C123.857 100.382 123.919 100.368 123.982 100.367C124.045 100.367 124.107 100.379 124.165 100.403C124.223 100.427 124.275 100.463 124.318 100.508C124.362 100.554 124.395 100.607 124.417 100.666C124.438 100.725 124.448 100.788 124.444 100.85C124.44 100.913 124.424 100.974 124.395 101.03L121.986 106.77C121.958 106.838 121.913 106.898 121.855 106.945C121.798 106.992 121.73 107.024 121.658 107.039L121.567 107.048Z" fill="#FAFAFA"/>
<path opacity="0.3" d="M126.257 100.031L128.538 98.7262C128.995 98.4615 129.378 98.676 129.378 99.2144V101.824C129.361 102.115 129.276 102.399 129.131 102.652C128.985 102.904 128.782 103.119 128.538 103.28L126.257 104.585C125.801 104.854 125.417 104.635 125.417 104.101V101.491C125.433 101.199 125.517 100.914 125.663 100.661C125.809 100.407 126.012 100.191 126.257 100.031Z" fill="white"/>
<path d="M95.8471 117.022C97.2159 116.237 98.3109 116.876 98.3109 118.446C98.2653 119.301 98.0184 120.134 97.5903 120.876C97.1622 121.618 96.5649 122.249 95.8471 122.716C94.4783 123.501 93.3833 122.862 93.3833 121.293C93.4314 120.438 93.6794 119.606 94.1073 118.865C94.5352 118.123 95.1311 117.492 95.8471 117.022V117.022Z" fill="#F28F8F"/>
<path opacity="0.3" d="M100.579 114.887L102.86 113.582C103.316 113.313 103.699 113.532 103.699 114.066V116.676C103.686 116.968 103.603 117.252 103.457 117.506C103.311 117.759 103.106 117.973 102.86 118.131L100.579 119.44C100.122 119.705 99.739 119.491 99.739 118.952V116.342C99.755 116.051 99.8394 115.767 99.9852 115.515C100.131 115.262 100.334 115.047 100.579 114.887V114.887Z" fill="white"/>
<path d="M96.7687 121.211C96.6512 121.21 96.5385 121.165 96.4539 121.083L94.6288 119.317C94.5779 119.278 94.5358 119.229 94.5052 119.172C94.4747 119.116 94.4565 119.053 94.4517 118.989C94.4469 118.925 94.4558 118.861 94.4776 118.8C94.4994 118.74 94.5338 118.685 94.5784 118.639C94.623 118.592 94.6769 118.556 94.7365 118.532C94.7961 118.508 94.8601 118.497 94.9243 118.499C94.9885 118.502 95.0515 118.518 95.1091 118.546C95.1666 118.575 95.2176 118.615 95.2585 118.665L97.0835 120.426C97.1685 120.512 97.2162 120.627 97.2162 120.748C97.2162 120.868 97.1685 120.984 97.0835 121.069C97.0012 121.156 96.8881 121.207 96.7687 121.211Z" fill="#FAFAFA"/>
<path d="M94.8525 122.429C94.7859 122.429 94.7202 122.414 94.6608 122.383C94.5533 122.331 94.4706 122.239 94.4305 122.126C94.3904 122.013 94.3961 121.89 94.4464 121.781L96.4311 117.57C96.4834 117.461 96.5766 117.378 96.6903 117.337C96.804 117.297 96.929 117.304 97.038 117.355C97.1455 117.408 97.2282 117.5 97.2683 117.613C97.3084 117.725 97.3027 117.849 97.2524 117.958L95.2677 122.169C95.2303 122.247 95.1715 122.313 95.0979 122.359C95.0244 122.405 94.9392 122.43 94.8525 122.429Z" fill="#FAFAFA"/>
<path d="M171.139 44.691L169.643 41.8713L170.843 38.3764V36.2456L167.156 38.3764V40.5071L168.744 43.2447C168.768 43.2868 168.805 43.3203 168.849 43.3405L171.139 44.691Z" fill="#BA68C8"/>
<path opacity="0.2" d="M171.139 44.691L169.643 41.8713L170.843 38.3764V36.2456L167.156 38.3764V40.5071L168.744 43.2447C168.768 43.2868 168.805 43.3203 168.849 43.3405L171.139 44.691Z" fill="black"/>
<path d="M179.968 19.332C179.946 18.9481 179.835 18.5746 179.642 18.2418C179.449 17.9089 179.181 17.626 178.859 17.4157L177.947 16.8956C177.604 16.7223 177.225 16.6321 176.84 16.6321C176.456 16.6321 176.077 16.7223 175.734 16.8956L161.918 24.8847C161.596 25.0944 161.328 25.3773 161.136 25.7104C160.944 26.0434 160.834 26.4172 160.814 26.801V41.9946C160.834 42.3785 160.944 42.7522 161.136 43.0852C161.328 43.4183 161.596 43.7012 161.918 43.9109L162.831 44.431C163.173 44.6042 163.551 44.6945 163.935 44.6945C164.319 44.6945 164.697 44.6042 165.039 44.431L169.483 41.8668L171.066 44.6044C171.089 44.6436 171.123 44.6754 171.163 44.696C171.203 44.7167 171.249 44.7254 171.294 44.7211C171.339 44.7168 171.382 44.6996 171.418 44.6717C171.453 44.6437 171.48 44.6061 171.495 44.5633L173.156 39.7452L178.841 36.451C179.168 36.2432 179.44 35.9606 179.636 35.6266C179.832 35.2926 179.946 34.9167 179.968 34.5301V19.332Z" fill="#BA68C8"/>
<path opacity="0.2" d="M160.805 41.9946C160.825 42.3785 160.935 42.7522 161.127 43.0852C161.319 43.4183 161.587 43.7012 161.909 43.9109L162.822 44.431C163.133 44.5879 163.474 44.6771 163.823 44.6928C164.171 44.7085 164.519 44.6504 164.843 44.5223C164.323 44.7185 163.931 44.4219 163.931 43.7923V28.5987C163.943 28.2134 164.055 27.8379 164.255 27.5082L161.143 25.7106C160.944 26.0409 160.833 26.416 160.819 26.801L160.805 41.9946Z" fill="black"/>
<path opacity="0.5" d="M179.913 19.0172C179.786 18.5609 179.357 18.4012 178.846 18.6932L165.03 26.6824C164.705 26.8862 164.438 27.1706 164.255 27.5082L161.143 25.7151C161.326 25.3775 161.593 25.093 161.918 24.8893L175.73 16.9001C176.073 16.7269 176.452 16.6366 176.836 16.6366C177.22 16.6366 177.599 16.7269 177.942 16.9001L178.855 17.4202C179.13 17.6011 179.366 17.8358 179.548 18.1103C179.73 18.3848 179.854 18.6933 179.913 19.0172V19.0172Z" fill="white"/>
<path d="M176.537 22.941C176.227 22.812 175.878 22.8111 175.567 22.9385C175.255 23.0659 175.007 23.3112 174.876 23.6208L170.076 35.0274L168.936 33.9187C168.694 33.6839 168.368 33.5549 168.031 33.5601C167.694 33.5652 167.373 33.7041 167.138 33.9461C166.903 34.1881 166.774 34.5134 166.779 34.8506C166.785 35.1877 166.923 35.509 167.165 35.7437L169.643 38.1528C169.881 38.3817 170.198 38.5093 170.528 38.5087C170.612 38.5154 170.696 38.5154 170.779 38.5087C170.981 38.4672 171.17 38.3769 171.329 38.2456C171.488 38.1144 171.612 37.9463 171.692 37.7559L177.231 24.6064C177.295 24.4515 177.328 24.2855 177.328 24.1179C177.327 23.9503 177.294 23.7844 177.23 23.6296C177.165 23.4749 177.071 23.3344 176.952 23.2163C176.833 23.0981 176.692 23.0045 176.537 22.941Z" fill="#FAFAFA"/>
<path d="M179.886 74.4211C183.135 74.4211 184.764 75.4979 186.119 78.4636C187.415 81.297 190.563 91.2846 190.367 93.283C190.17 95.2815 183.208 103.923 183.208 103.923L180.292 100.36L185.019 92.6808L180.589 83.4415L179.886 74.4211Z" fill="#FFA8A7"/>
<path d="M177.942 159.605L175.406 163.109C175.406 163.109 176.66 164.232 179.156 164.328C181.414 164.414 182.035 163.561 182.117 163.383C182.332 162.927 182.236 161.978 182.158 161.024C182.099 160.303 182.117 159.067 181.702 159.067L177.942 159.605Z" fill="#263238"/>
<path d="M174.206 160.554C174.206 160.554 169.287 161.28 168.133 161.156C166.942 161.271 165.145 161.28 164.228 161.544C162.713 161.978 163.653 164.282 166.509 165.044C168.334 165.537 171.327 165.569 173.202 166.13C175.077 166.691 176.396 167.535 178.595 166.914C180.083 166.49 180.142 165.295 180.001 164.414C179.759 162.95 179.718 161.531 178.924 161.375C177.943 161.179 174.206 160.554 174.206 160.554Z" fill="#263238"/>
<path d="M186.58 105.054C186.155 101.372 184.152 98.4842 182.044 95.2083L176.601 111.241L175.232 116.26C175.232 116.26 175.328 127.781 175.506 130.537C175.684 133.292 177.532 155.704 177.532 155.704L177.865 160.13C181 160.997 181.657 160.175 181.689 159.491C181.72 158.807 182.063 156.078 182.063 156.078C182.063 156.078 185.038 139.689 185.156 137.317C185.302 134.545 184.908 131.771 183.997 129.15C184.604 123.401 187.483 112.834 186.58 105.054Z" fill="#FFA8A7"/>
<path d="M177.513 155.709L177.847 160.135C180.981 161.002 181.638 160.18 181.67 159.496C181.67 159.341 181.702 159.072 181.734 158.757C181.227 159.888 180.192 159.56 179.599 157.945C179.005 156.329 176.405 142.249 176.405 142.249C176.948 148.847 177.513 155.709 177.513 155.709Z" fill="#F28F8F"/>
<path d="M182.044 95.2083L166.098 97.0333C166.098 97.0333 162.16 125.189 161.859 127.845C161.448 130.798 161.997 133.805 163.424 136.422C164.487 138.59 172.919 157.132 173.918 160.54C173.918 160.54 169.812 160.997 168.142 161.138C166.216 161.64 167.07 162.315 167.654 162.717C168.384 163.214 169.912 163.173 171.587 163.292C173.371 163.424 174.917 163.346 176.441 163.365C179.065 163.397 179.179 162.178 179.179 162.178C178.791 160.467 178.458 158.747 178.193 157.018C177.395 151.858 175.688 141.368 174.543 137.978C173.667 135.35 171.258 132.138 171.258 132.138L176.592 111.228C182.619 109.435 184.59 106.861 185.284 103.197C185.863 100.191 183.162 97.047 182.044 95.2083Z" fill="#FFA8A7"/>
<path d="M172.299 71.4645L172.956 78.313L179.079 77.9343L178.586 70.3375L172.299 71.4645Z" fill="#FFA8A7"/>
<path d="M184.577 77.3412C183.956 75.5162 182.688 74.4668 179.886 74.4348L178.855 74.4668C178.659 75.4751 175.661 76.2918 172.664 75.2606C171.37 75.3909 170.087 75.6166 168.826 75.9359C166.944 79.0215 165.862 82.5282 165.678 86.1379C165.601 88.1318 165.833 90.3447 166.253 94.4739C165.546 99.1871 163.894 108.194 162.836 117.771C163.262 117.82 163.695 117.769 164.099 117.623C164.502 117.476 164.867 117.238 165.163 116.927C165.842 116.201 166.609 114.864 167.389 110.32C167.389 116.064 168.849 118.076 170.848 119.345C172.485 120.365 174.391 120.867 176.318 120.787C183.815 120.212 185.256 118.961 186.233 116.708C187.264 109.257 187.323 105.62 186.776 103.412C186.228 101.204 185.051 99.3696 183.509 96.5681C182.861 95.3773 181.976 93.169 182.14 92.4891C182.98 89.2086 184.339 86.0376 184.723 83.0992C185.024 80.6445 184.987 78.5594 184.577 77.3412Z" fill="#BA68C8"/>
<g opacity="0.6">
<path d="M184.577 77.3412C183.956 75.5162 182.688 74.4668 179.886 74.4348L178.855 74.4668C178.659 75.4751 175.661 76.2918 172.664 75.2606C171.37 75.3909 170.087 75.6166 168.826 75.9359C166.944 79.0215 165.862 82.5282 165.678 86.1379C165.601 88.1318 165.833 90.3447 166.253 94.4739C165.546 99.1871 163.894 108.194 162.836 117.771C163.262 117.82 163.695 117.769 164.099 117.623C164.502 117.476 164.867 117.238 165.163 116.927C165.842 116.201 166.609 114.864 167.389 110.32C167.389 116.064 168.849 118.076 170.848 119.345C172.485 120.365 174.391 120.867 176.318 120.787C183.815 120.212 185.256 118.961 186.233 116.708C187.264 109.257 187.323 105.62 186.776 103.412C186.228 101.204 185.051 99.3696 183.509 96.5681C182.861 95.3773 181.976 93.169 182.14 92.4891C182.98 89.2086 184.339 86.0376 184.723 83.0992C185.024 80.6445 184.987 78.5594 184.577 77.3412Z" fill="black"/>
</g>
<path d="M168.826 75.9358C165.546 76.0909 164.099 79.2254 163.963 82.1683C163.707 87.6024 163.351 92.4935 162.594 94.7931C161.763 97.2569 156.448 102.326 154.837 102.782C153.227 103.239 151.096 102.326 150.526 103.12C149.955 103.914 152.259 104.215 152.351 104.63C152.442 105.045 149.449 105.935 147.752 105.643C146.054 105.351 146.488 108.253 149.034 109.398C151.58 110.543 154.883 109.635 157.963 107.395C161.042 105.155 166.668 100.674 168.083 97.2752C169.502 93.971 170.432 90.4772 170.843 86.9043C172.298 77.0399 168.826 75.9358 168.826 75.9358Z" fill="#FFA8A7"/>
<path d="M164.455 58.2967C164.403 57.9748 164.403 57.6466 164.455 57.3248C164.532 56.9085 164.698 56.5138 164.942 56.168C165.186 55.8223 165.502 55.5337 165.869 55.3224C166.236 55.111 166.644 54.9819 167.066 54.944C167.487 54.9061 167.912 54.9603 168.311 55.1028C168.193 54.4729 168.29 53.8219 168.585 53.2531C168.88 52.6844 169.357 52.2306 169.939 51.9637C170.392 51.7946 170.875 51.7171 171.358 51.7359C171.841 51.7547 172.316 51.8694 172.755 52.0732C173.28 52.2598 173.718 52.6356 173.982 53.1272C174.289 52.6012 174.745 52.1779 175.293 51.9107C175.84 51.6436 176.454 51.5445 177.058 51.626C177.662 51.7075 178.228 51.9659 178.685 52.3687C179.142 52.7715 179.469 53.3005 179.626 53.8892C180.538 53.6793 181.871 54.0945 182.29 55.0207C182.747 56.0747 182.181 57.375 182.4 58.4792C182.541 59.1909 182.856 59.848 182.979 60.5871C183.112 61.396 183.189 62.2132 183.208 63.0327C183.34 66.4136 175.492 68.6128 175.647 70.9306L171.463 65.8387C171.463 65.6288 170.87 65.0995 170.738 64.9262C170.487 64.5885 170.282 64.2281 170.035 63.8768C169.31 62.8579 168.31 62.0666 167.152 61.5954C166.331 61.2185 165.621 60.6373 165.089 59.9073C164.754 59.4279 164.537 58.876 164.455 58.2967V58.2967Z" fill="#263238"/>
<path d="M167.759 63.9498C167.759 63.9498 166.39 65.9665 166.577 66.1764C166.894 66.388 167.246 66.5424 167.617 66.6326L167.759 63.9498Z" fill="#F28F8F"/>
<path d="M171.901 57.5666C170.583 58.2373 168.306 59.4738 167.718 64.2463C167.12 69.142 168.229 70.8439 168.908 71.4872C169.365 71.9435 171.733 72.0758 172.965 71.7016C174.511 71.2454 177.856 69.6028 179.425 67.0751C181.25 64.1003 181.652 60.1399 179.521 58.5841C176.523 56.3986 173.015 57.0009 171.901 57.5666Z" fill="#FFA8A7"/>
<path d="M169.018 71.574C169.574 71.8797 171.149 72.0303 172.321 71.8341L172.285 70.9535C171.782 71.1731 171.259 71.3442 170.724 71.4645C170.164 71.5855 169.589 71.6224 169.018 71.574Z" fill="#F28F8F"/>
<path d="M171.322 57.4253C170.763 57.627 170.245 57.925 169.789 58.3059C169.561 58.4979 169.376 58.7358 169.246 59.0039C169.144 59.2536 169.106 59.5251 169.137 59.7933C169.175 60.1599 169.309 60.51 169.525 60.8086C169.742 61.1072 170.032 61.344 170.368 61.4951C170.191 61.7369 170.07 62.0148 170.012 62.3089C169.954 62.6031 169.962 62.9063 170.035 63.197C170.278 63.8733 170.693 64.4743 171.24 64.9399C171.269 64.9697 171.303 64.9943 171.34 65.0129C171.38 65.0187 171.42 65.0155 171.458 65.0037C171.496 64.9918 171.53 64.9716 171.559 64.9445C172.385 64.3924 172.896 63.4388 174.069 63.8221C175.602 64.324 175.529 66.222 174.324 67.4037C173.894 67.8358 173.326 68.1038 172.718 68.1611C172.41 68.1668 172.109 68.0597 171.874 67.86C171.874 67.86 171.915 70.3329 174.064 71.3139C174.064 71.3139 176.455 72.0759 178.654 71.3687C179.462 70.3375 180.821 69.0235 181.939 67.8463C185.626 63.9772 185.836 58.3469 180.402 56.5721C180.215 56.5082 180.028 56.4534 179.836 56.4032C178.088 55.9483 176.258 55.9093 174.493 56.2892C173.614 56.4764 172.76 56.7642 171.947 57.147C171.755 57.2473 171.527 57.334 171.322 57.4253Z" fill="#263238"/>
<path d="M171.149 66.6645C171.006 66.6154 170.875 66.5385 170.763 66.4382C170.65 66.338 170.559 66.2164 170.494 66.0805C170.429 65.9447 170.392 65.7973 170.384 65.6469C170.377 65.4965 170.399 65.3461 170.451 65.2045C170.559 64.9192 170.775 64.6879 171.053 64.56C171.33 64.4321 171.646 64.4178 171.934 64.5201L171.149 66.6645Z" fill="#263238"/>
</svg>
