<svg width="96" height="120" viewBox="0 0 96 120" fill="none" xmlns="http://www.w3.org/2000/svg">
<path d="M48 119.883C47.6434 119.883 47.2866 119.829 46.9424 119.72C33.2312 115.39 21.4916 106.972 12.9918 95.3744C4.49257 83.7769 0 70.047 0 55.6685V19.9024C0 17.9628 1.57253 16.3902 3.5122 16.3902C13.6566 16.3902 22.8796 10.8279 27.6026 1.87364C28.2102 0.721405 29.4062 0 30.709 0H65.2908C66.5936 0 67.7896 0.721171 68.3974 1.87364C73.1204 10.8279 82.3434 16.3902 92.4667 16.3902C94.4064 16.3902 96 17.9628 96 19.9024V55.6685C96 70.047 91.5074 83.7769 83.0082 95.3741C74.5084 106.971 62.7688 115.39 49.0576 119.72C48.7134 119.829 48.3566 119.883 48 119.883Z" fill="#D7E6F0"/>
<path d="M92.4667 16.3902C82.3434 16.3902 73.1204 10.8279 68.3974 1.87364C67.7898 0.721171 66.5938 0 65.291 0H48V119.883C48.3566 119.883 48.7134 119.829 49.0576 119.72C62.7688 115.39 74.5084 106.972 83.0082 95.3744C91.5074 83.7769 96 70.047 96 55.6685V19.9024C96 17.9628 94.4064 16.3902 92.4667 16.3902Z" fill="#603A8B"/>
<path d="M47.9981 104.938C47.5385 104.938 47.0788 104.848 46.6464 104.668C26.8427 96.41 14.0469 77.176 14.0469 55.6669V31.7074C14.0469 30.1903 15.0209 28.8447 16.4621 28.3708C23.9168 25.92 30.4823 21.4129 35.4486 15.3366C36.1156 14.5203 37.1138 14.0469 38.1679 14.0469H57.828C58.8821 14.0469 59.8808 14.5203 60.5476 15.3366C65.5136 21.4138 72.0791 25.9216 79.5341 28.3731C80.9753 28.847 81.9491 30.1927 81.9491 31.7097V55.6669C81.9491 77.176 69.1532 96.41 49.3496 104.668C48.9174 104.848 48.4577 104.938 47.9981 104.938Z" fill="#F5F5FF"/>
<path d="M79.5362 28.3731C72.0812 25.9216 65.5158 21.4138 60.5498 15.3366C59.8827 14.5203 58.8841 14.0469 57.8299 14.0469H48V104.938C48.4596 104.938 48.9193 104.848 49.3517 104.668C69.1554 96.41 81.9512 77.176 81.9512 55.6669V31.7097C81.9512 30.1927 80.9774 28.847 79.5362 28.3731Z" fill="#E2E7FA"/>
<path d="M52.6858 74.2284H43.3199C41.3803 74.2284 39.8077 72.6558 39.8077 70.7162V61.3503H30.4419C28.5022 61.3503 26.9297 59.7778 26.9297 57.8381V48.4723C26.9297 46.5326 28.5022 44.9601 30.4419 44.9601H39.8077V35.5942C39.8077 33.6546 41.3803 32.082 43.3199 32.082H52.6858C54.6255 32.082 56.198 33.6546 56.198 35.5942V44.9601H65.5638C67.5035 44.9601 69.076 46.5326 69.076 48.4723V57.8381C69.076 59.7778 67.5035 61.3503 65.5638 61.3503H56.198V70.7162C56.198 72.6558 54.6255 74.2284 52.6858 74.2284ZM56.198 61.3503V70.7162C56.198 72.6558 54.6255 74.2284 52.6858 74.2284H43.3199C41.3803 74.2284 39.8077 72.6558 39.8077 70.7162V61.3503H56.198ZM56.198 44.9601H65.5638C67.5035 44.9601 69.076 46.5326 69.076 48.4723V57.8381C69.076 59.7778 67.5035 61.3503 65.5638 61.3503H56.198V44.9601ZM39.8077 44.9601V35.5942C39.8077 33.6546 41.3803 32.082 43.3199 32.082H52.6858C54.6255 32.082 56.198 33.6546 56.198 35.5942V44.9601H39.8077ZM39.8077 61.3503H30.4419C28.5022 61.3503 26.9297 59.7778 26.9297 57.8381V48.4723C26.9297 46.5326 28.5022 44.9601 30.4419 44.9601H39.8077" fill="#EF5CA2"/>
<path d="M65.561 44.9601H56.1951V35.5942C56.1951 33.6546 54.6226 32.082 52.6829 32.082H48V74.2284H52.6829C54.6226 74.2284 56.1951 72.6558 56.1951 70.7162V61.3503H65.561C67.5006 61.3503 69.0732 59.7778 69.0732 57.8381V48.4723C69.0732 46.5326 67.5006 44.9601 65.561 44.9601Z" fill="#603A8B"/>
</svg>
