<svg width="309" height="316" viewBox="0 0 309 316" fill="none" xmlns="http://www.w3.org/2000/svg">
<path d="M255.923 96.8694C226.331 96.8974 196.739 96.9287 167.147 96.9634C153.113 96.9794 139.078 96.9333 125.046 97.0093C123.305 96.9312 121.56 96.9597 119.822 97.0944C113.846 97.9004 115.962 98.1794 114.022 101.794C112.345 104.914 111.771 108.194 109.056 110.785C108.937 110.902 108.783 110.977 108.618 110.999C108.452 111.02 108.284 110.987 108.14 110.904C102.873 107.142 105.244 98.9404 98.1535 97.1454C94.8775 96.3154 89.4685 97.0604 86.1775 97.0624L67.6445 97.0784C50.3015 97.0904 31.8045 98.7374 14.5055 96.4714C0.661473 94.6584 0.627526 84.9713 0.547526 73.3403C0.480526 63.5203 -2.7195 11.1603 7.1475 4.98834C10.6605 2.78834 14.5715 3.35038 18.6015 3.33838C31.0015 3.29938 43.4075 3.32236 55.8105 3.33136C80.7105 3.35269 105.61 3.40105 130.51 3.47638C181.776 3.61438 233.06 4.13537 284.324 3.74237C291.171 3.68937 297.2 3.06034 302.388 8.49634C309.056 15.4833 309.094 62.3613 308.91 71.3663C308.761 78.7103 308.795 87.3353 302.392 92.2333C295.092 97.8193 283.867 97.2564 275.226 97.2864C274.948 97.2744 274.686 97.1554 274.493 96.9544C274.3 96.7534 274.193 96.4857 274.193 96.2073C274.193 95.9289 274.3 95.6613 274.493 95.4603C274.686 95.2592 274.948 95.1403 275.226 95.1284C286.813 95.1024 302.735 95.8664 306.051 81.7794C309.289 68.0254 308.231 7.02637 290.371 5.71137C267.162 3.99937 243.147 5.74136 219.859 5.67236C166.293 5.51136 112.728 5.22439 59.1595 5.11139C46.4929 5.08339 33.8235 5.06636 21.1515 5.06036C18.7805 5.06036 16.3995 5.00037 14.0305 5.07837C4.3665 5.39137 2.13047 14.2644 2.13047 22.6494C2.13047 27.7434 2.18851 68.2494 2.21751 73.3414C2.23351 75.8804 2.14152 78.4414 2.26152 80.9814C2.73952 91.0524 8.1525 94.2604 17.0015 95.0934C35.7305 96.8584 55.1275 95.5004 73.8925 95.5074C79.9995 95.5074 86.1075 95.4663 92.2145 95.5143C94.4685 95.5323 98.8775 94.8804 100.744 95.6964C105.332 97.6964 105.56 111.929 110.989 105.546C112.781 103.439 112.061 97.9083 114.198 96.2173C116.034 94.7653 119.698 95.5173 121.882 95.5323C136.449 95.6633 151.024 95.5324 165.593 95.5374C195.704 95.5374 225.814 95.541 255.923 95.5483C256.099 95.5483 256.267 95.6183 256.392 95.7429C256.517 95.8674 256.586 96.0362 256.586 96.2123C256.586 96.3884 256.517 96.5574 256.392 96.6819C256.267 96.8064 256.099 96.8763 255.923 96.8763V96.8694Z" fill="#283CB1"/>
<path d="M285.898 1.11637C214.265 1.63337 142.456 2.36632 70.8325 1.15732C70.7662 1.15732 70.7026 1.13103 70.6557 1.08414C70.6088 1.03726 70.5825 0.973628 70.5825 0.907324C70.5825 0.84102 70.6088 0.77745 70.6557 0.730566C70.7026 0.683682 70.7662 0.657324 70.8325 0.657324C142.456 -0.551676 214.265 0.179339 285.898 0.698339C285.954 0.698339 286.007 0.720245 286.046 0.759252C286.085 0.79826 286.107 0.851182 286.107 0.906347C286.107 0.961512 286.085 1.01443 286.046 1.05344C286.007 1.09245 285.954 1.11435 285.898 1.11435V1.11637Z" fill="#283CB1"/>
<path d="M66.4395 0.746354C59.7831 1.36725 53.0853 1.40945 46.4215 0.872391C46.3663 0.872391 46.3134 0.850486 46.2744 0.811478C46.2354 0.772471 46.2135 0.719549 46.2135 0.664384C46.2135 0.609219 46.2354 0.556296 46.2744 0.517289C46.3134 0.478281 46.3663 0.456376 46.4215 0.456376C53.0853 -0.0805414 59.783 -0.0384068 66.4395 0.582352C66.4614 0.582352 66.4824 0.59105 66.4979 0.606522C66.5133 0.621994 66.522 0.642991 66.522 0.664872C66.522 0.686752 66.5133 0.70775 66.4979 0.723221C66.4824 0.738693 66.4614 0.747391 66.4395 0.747391V0.746354Z" fill="#283CB1"/>
<path d="M71.5195 200.794C80.0375 216.779 118.058 252.284 132.02 253.794C142.12 254.894 178.679 228.91 188.615 219.63C198.185 210.67 166.474 183.363 160.485 188.239C152.028 195.111 133.27 215.195 129.323 215.668C126.565 215.988 110.062 207.211 84.6135 190.921C70.5135 181.975 66.4295 191.316 71.5195 200.794Z" fill="#D3766A"/>
<path d="M173.052 174.158C178.858 171.278 185.243 167.499 192.024 166.798C198.805 166.097 205.464 174.298 205.738 176.84C206.012 179.382 205.464 195.583 198.728 196.406C191.992 197.229 194.568 184.535 194.157 183.164C193.746 181.793 193.257 180.116 191.993 180.33C190.729 180.544 169.806 193.907 169.806 193.907L173.052 174.158Z" fill="#D3766A"/>
<path d="M173.601 175.041C173.982 175.041 191.155 165.654 197.901 164.953C204.647 164.252 211.326 172.453 211.615 174.995C211.904 177.537 211.341 193.738 204.605 194.561C197.869 195.384 200.43 182.69 200.034 181.334C199.638 179.978 199.134 178.286 197.885 178.5C196.636 178.714 175.698 192.062 175.698 192.062L173.601 175.041Z" fill="#D3766A"/>
<path d="M202.278 193.998C201.442 192.874 200.917 191.55 200.754 190.158C200.421 188.741 200.323 187.279 200.464 185.83C200.684 184.572 200.806 183.298 200.83 182.02C200.663 180.774 200.186 179.59 199.443 178.576C198.803 177.692 197.919 178.134 197.051 178.576C195.856 179.206 194.701 179.907 193.592 180.676C192.392 181.468 191.184 182.291 189.992 183.114C188.722 183.908 187.506 184.784 186.35 185.735C186.338 185.744 186.329 185.755 186.322 185.767C186.314 185.779 186.31 185.793 186.308 185.807C186.306 185.821 186.307 185.835 186.311 185.849C186.314 185.862 186.321 185.875 186.33 185.886C186.344 185.905 186.364 185.918 186.387 185.924C186.41 185.93 186.434 185.928 186.456 185.918C187.561 185.32 188.634 184.664 189.671 183.952L193.313 181.712C194.456 181.026 195.553 180.295 196.713 179.624C197.113 179.38 197.913 178.816 198.42 178.877C198.927 178.938 199.35 180.157 199.52 180.553C199.948 181.73 200.022 183.007 199.733 184.225C199.537 185.47 199.455 186.73 199.489 187.989C199.517 189.181 199.76 190.358 200.205 191.463C200.754 192.439 201.414 193.349 202.171 194.175C202.157 194.273 202.355 194.105 202.278 193.998Z" fill="#263238"/>
<path d="M154.416 195.339C154.416 195.339 170.98 176.047 174.454 172.177C181.418 164.451 212.554 147.003 217.121 145.952C221.688 144.901 224.435 154.074 203.407 166.569C192.298 173.137 191.034 180.131 191.719 183.819C192.404 187.507 196.809 194.029 203.056 193.084C209.303 192.139 212.199 182.493 217.883 180.772C223.567 179.051 221.007 190.083 217.7 196.681C214.161 203.097 208.877 208.38 202.462 211.919C197.296 214.619 181.403 223.911 181.403 223.911L154.416 195.339Z" fill="#D3766A"/>
<path d="M210.233 187.722C208.1 189.84 205.662 192.537 202.614 193.04C199.566 193.543 197.067 191.73 195.254 189.291C193.299 186.924 192.328 183.897 192.542 180.834C192.92 178.015 194.111 175.368 195.971 173.215C198.234 170.617 200.861 168.361 203.771 166.515C203.893 166.515 203.771 166.256 203.619 166.332C200.891 167.978 192.373 172.747 191.55 180.9C191.358 184.031 192.372 187.116 194.383 189.522C196.09 191.838 198.406 194.002 201.469 193.865C205.218 193.713 208.021 190.315 210.414 187.765C210.538 187.675 210.34 187.614 210.233 187.722Z" fill="#263238"/>
<path d="M159.795 188.832L183.018 236.312C183.018 236.312 143.581 256.929 131.208 255.07C118.835 253.211 84.4265 222.125 71.3075 202.315C63.3225 190.231 69.8755 180.692 86.1495 190.262C102.912 200.106 126.364 213.683 128.07 214.062C129.776 214.441 159.795 188.832 159.795 188.832Z" fill="#FFC727"/>
<path d="M160.831 218.806C159.307 215.225 153.456 200.806 152.267 197.122C152.267 197.122 152.267 197.015 152.374 197.122C154.203 200.413 160.42 214.463 161.928 218.059C165.104 225.146 167.891 232.4 170.279 239.789C170.279 239.926 170.111 240.048 170.05 239.911C166.515 233.097 163.787 225.897 160.831 218.806Z" fill="#263238"/>
<path d="M71.3065 202.318C81.9735 218.41 106.66 241.937 122.187 251.187L76.3955 186.487C67.6035 185.251 65.1345 193.012 71.3065 202.318Z" fill="#EAA907"/>
<path d="M28.0445 288.826C28.2735 289.085 109.508 289.926 110.331 288.826C111.55 287.302 92.5175 205.671 85.4305 190.526C82.3825 184.065 66.4895 182.358 59.8755 187.966C43.3585 202.09 27.2065 287.911 28.0445 288.826Z" fill="white"/>
<path d="M61.3395 186.318C61.3395 186.318 70.2995 228.33 71.1395 231.362C71.9795 234.394 75.1775 311.134 75.1775 311.134L19.4195 304.414C19.4195 304.414 31.3055 261.747 32.6315 259.736C33.9575 257.725 44.5475 212.498 53.1875 196.025C57.1035 188.599 61.3395 186.318 61.3395 186.318Z" fill="#FFC727"/>
<path d="M83.5275 188.147C83.5275 188.147 87.9275 221.763 88.0985 223.759C88.2695 225.755 103.337 308.88 103.337 308.88L117.752 301.169C117.752 301.169 102.392 246.51 101.706 243.904C101.02 241.298 89.2405 198.433 87.3055 193.74C85.3705 189.047 83.5275 188.147 83.5275 188.147Z" fill="#FFC727"/>
<path d="M123.421 258.471L103.611 303.927C103.471 304.105 103.367 304.309 103.306 304.526C103.245 304.744 103.227 304.972 103.254 305.196C103.281 305.421 103.352 305.638 103.463 305.835C103.574 306.032 103.723 306.206 103.901 306.345C104.147 306.54 104.442 306.663 104.754 306.7L129.227 310.738C129.982 310.8 130.739 310.648 131.413 310.301C132.086 309.953 132.649 309.424 133.037 308.772L152.847 263.316C152.988 263.143 153.094 262.943 153.158 262.728C153.222 262.513 153.243 262.288 153.22 262.065C153.197 261.842 153.13 261.626 153.023 261.429C152.917 261.232 152.772 261.058 152.599 260.916C152.343 260.708 152.032 260.578 151.704 260.543L127.247 256.52C126.489 256.446 125.726 256.59 125.048 256.935C124.37 257.281 123.805 257.814 123.421 258.471V258.471Z" fill="#37474F"/>
<path d="M126.332 258.928L106.522 304.368C106.236 304.725 106.103 305.18 106.153 305.634C106.202 306.087 106.43 306.503 106.786 306.789C107.038 306.992 107.343 307.119 107.665 307.156L132.183 311.179C132.935 311.245 133.69 311.097 134.361 310.752C135.033 310.407 135.593 309.878 135.977 309.228L155.787 263.772C155.928 263.599 156.034 263.399 156.098 263.184C156.162 262.969 156.183 262.744 156.16 262.521C156.137 262.298 156.07 262.082 155.963 261.885C155.857 261.688 155.712 261.514 155.539 261.372C155.283 261.164 154.972 261.034 154.645 260.999L130.188 256.961C129.424 256.888 128.656 257.034 127.973 257.383C127.29 257.731 126.72 258.267 126.332 258.928V258.928Z" fill="#455A64"/>
<path d="M132.671 262.204C132.618 262.476 132.513 262.734 132.36 262.965C132.208 263.195 132.012 263.393 131.783 263.548C131.554 263.702 131.296 263.81 131.025 263.865C130.755 263.92 130.476 263.921 130.205 263.867C129.933 263.815 129.675 263.709 129.445 263.557C129.214 263.405 129.016 263.208 128.862 262.979C128.707 262.75 128.6 262.493 128.545 262.222C128.49 261.951 128.489 261.672 128.543 261.401C128.648 260.856 128.965 260.374 129.424 260.062C129.884 259.75 130.449 259.632 130.995 259.735C131.543 259.843 132.027 260.163 132.341 260.625C132.654 261.087 132.773 261.655 132.671 262.204V262.204Z" fill="#263238"/>
<path d="M51.0235 197.457C35.1605 217.267 0.923532 262.738 9.75853 274.09C24.2955 292.757 61.2025 310.342 72.8295 314.471C77.8585 316.271 97.9875 280.155 93.3405 276.863C87.7635 272.901 51.5575 256.505 51.4655 254.707C51.3735 252.909 59.5875 227.751 62.8785 207.865C66.9625 183.179 57.6375 189.168 51.0235 197.457Z" fill="#D3766A"/>
<path d="M74.9025 273.313C74.9025 273.313 90.6745 269.549 101.097 267.583C106.918 266.471 117.051 265.483 121.697 266.623C128.646 268.33 156.608 279.923 153.941 286.768C151.518 292.968 128.767 279.941 128.767 279.941C128.767 279.941 152.889 291.05 148.577 297.968C144.265 304.886 120.554 286.768 120.554 286.768C120.554 286.768 145.088 298.73 139.541 305.176C135.35 310.037 112.92 294.829 112.92 294.829C112.92 294.829 133.934 305.267 129.834 310.448C125.263 316.178 103.734 303.454 103.734 303.454C91.1165 314.898 80.6175 315.965 72.7995 314.471C71.0165 314.136 74.9025 273.313 74.9025 273.313Z" fill="#D3766A"/>
<path d="M121.806 276.132C140.183 282.959 147.117 291.932 146.888 291.732C141.402 286.978 131.65 281.614 128.815 280.166C125.98 278.718 124.503 277.682 121.744 276.235C121.669 276.193 121.73 276.102 121.806 276.132Z" fill="#263238"/>
<path d="M115.236 285.458C122.799 287.887 129.873 291.638 136.128 296.536C136.357 296.749 136.219 296.78 135.945 296.643C132.486 294.693 118.745 287.317 115.191 285.534C115.147 285.519 115.193 285.442 115.236 285.458Z" fill="#263238"/>
<path d="M109.051 293.106C114.875 295.108 120.275 298.177 124.975 302.157C125.204 302.34 124.975 302.416 124.716 302.264C119.489 299.14 115.405 296.672 108.975 293.304C108.868 293.245 108.929 293.062 109.051 293.106Z" fill="#263238"/>
<path d="M82.2625 270.54L59.2075 313.832C59.2075 313.832 11.0075 284.605 7.90053 271.832C4.79353 259.059 41.3335 205.607 52.0915 194.864C62.8495 184.121 66.0045 188.906 65.0595 201.736C64.1145 214.566 51.9695 254.11 52.1675 254.872C52.3655 255.634 82.2625 270.54 82.2625 270.54Z" fill="#FFC727"/>
<path d="M56.8735 236.147C57.6962 233.182 58.5039 230.211 59.2965 227.233C59.7075 225.709 60.1045 224.185 60.5465 222.662C60.7465 221.962 60.9275 221.245 61.1405 220.529C61.2315 220.179 61.3695 219.829 61.4405 219.478C61.5246 218.99 61.668 218.515 61.8675 218.061C61.8675 217.985 62.0355 218.061 62.0195 218.061C61.9936 218.44 61.9479 218.816 61.8825 219.189C61.7579 219.653 61.6578 220.119 61.5825 220.589L61.1255 222.753C60.8055 224.277 60.4705 225.709 60.1045 227.172L59.9675 227.751C59.9615 227.701 59.9615 227.65 59.9675 227.599C60.5925 226.075 61.2475 224.445 61.8875 222.875L56.8735 236.147ZM62.0095 222.875C61.5375 224.521 61.0195 226.121 60.3945 227.721C60.0445 228.635 59.6325 229.534 59.2215 230.421C58.7215 232.387 58.2465 234.352 57.6975 236.303C56.0975 242.403 54.4515 248.494 52.3645 254.315C54.8945 255.625 57.4995 256.829 59.9835 258.155C62.4675 259.481 65.0425 260.855 67.6025 262.224C70.1625 263.593 72.6465 264.936 75.1455 266.338L78.6955 268.38C79.9955 269.111 81.1955 270.01 82.4895 270.711C82.6265 270.711 82.4895 270.985 82.3675 270.911C81.0115 270.195 79.5485 269.661 78.1765 268.991C76.8045 268.321 75.7535 267.802 74.5495 267.178C71.9895 265.878 69.4595 264.527 66.9305 263.186C64.4015 261.845 61.8565 260.504 59.3115 259.133C56.7665 257.762 54.3595 256.253 51.8605 254.882C51.8211 254.863 51.7868 254.836 51.7604 254.801C51.7339 254.766 51.7162 254.725 51.7085 254.682C51.6543 254.644 51.6133 254.59 51.5915 254.527C51.5696 254.464 51.5679 254.396 51.5865 254.332C53.3085 248.232 55.1865 242.218 56.8745 236.153L62.0095 222.875Z" fill="#263238"/>
<path d="M60.7005 286.982C62.4225 283.858 69.3555 271.363 71.3675 268.391H71.4745C70.1485 271.591 63.6745 284.117 61.9655 287.256C58.7091 293.615 55.1074 299.791 51.1765 305.756C51.1005 305.863 50.9025 305.756 50.9635 305.665C53.7525 299.248 57.3335 293.168 60.7005 286.982Z" fill="#263238"/>
<path d="M22.8335 288.597C25.5455 290.243 49.3025 307.736 54.8335 311.028C55.1535 311.211 54.7425 311.302 54.4335 311.119C48.7805 307.706 27.5535 293.443 22.6775 288.841C22.4675 288.658 22.6045 288.46 22.8335 288.597Z" fill="#263238"/>
<path d="M78.5435 201.846C73.4695 202.425 64.8295 193.146 62.2535 186.608C62.0705 186.166 63.2435 181.823 64.4025 176.49C65.0885 173.244 65.7735 169.618 66.1705 166.265L86.6045 173.884C84.9194 177.942 83.7324 182.189 83.0695 186.532C83.0238 186.994 83.0238 187.458 83.0695 187.919V188.148C83.1765 190.814 83.4195 201.267 78.5435 201.846Z" fill="#D3766A"/>
<path d="M83.0545 187.918C83.0469 187.995 83.0469 188.071 83.0545 188.147C82.3261 188.165 81.5974 188.125 80.8755 188.025C68.6845 186.318 67.6185 171.08 67.5575 166.825L72.6575 168.715L86.6005 173.881C84.908 177.936 83.7208 182.184 83.0655 186.529C83.0168 186.991 83.0131 187.456 83.0545 187.918V187.918Z" fill="#263238"/>
<path d="M63.3815 145.724C61.6595 153.343 67.2215 174.677 72.9205 179.141C81.1645 185.556 93.8575 185.241 99.0995 175.56C104.19 166.128 96.4325 138.44 90.1545 134.508C80.9055 128.698 65.9225 134.398 63.3815 145.724Z" fill="#D3766A"/>
<path d="M85.7375 158.127C85.7375 158.127 85.6465 158.218 85.6615 158.279C86.0725 159.711 86.3015 161.403 85.1285 162.226V162.302C86.6975 161.708 86.3615 159.453 85.7375 158.127Z" fill="#263238"/>
<path d="M84.0605 157C81.6985 157.411 82.7195 162.1 84.8985 161.709C87.0775 161.318 86.0415 156.604 84.0605 157Z" fill="#263238"/>
<path d="M93.9195 156.131C93.9195 156.131 94.0415 156.131 94.0565 156.238C94.3155 157.762 94.8795 159.286 96.2965 159.529L93.9195 156.131ZM96.2965 159.605C94.6505 159.727 93.9345 157.563 93.9195 156.131L96.2965 159.605Z" fill="#263238"/>
<path d="M94.8945 154.333C97.1805 153.647 98.3685 158.295 96.2505 158.904C94.1325 159.513 92.9585 154.896 94.8945 154.333Z" fill="#263238"/>
<path d="M81.7595 155.247C82.3357 154.937 82.8952 154.596 83.4355 154.226C84.076 153.935 84.609 153.45 84.9595 152.839C85.0258 152.628 85.0216 152.401 84.9475 152.192C84.8733 151.983 84.7333 151.804 84.5485 151.681C84.1382 151.497 83.6861 151.425 83.2389 151.473C82.7916 151.521 82.3652 151.688 82.0035 151.955C81.1922 152.383 80.5719 153.101 80.2665 153.966C80.2273 154.103 80.2153 154.246 80.2314 154.387C80.2474 154.528 80.2912 154.665 80.3601 154.789C80.429 154.913 80.5218 155.023 80.633 155.111C80.7443 155.2 80.8719 155.265 81.0085 155.304C81.2575 155.377 81.5243 155.356 81.7595 155.247V155.247Z" fill="#263238"/>
<path d="M96.1905 151.59C95.5339 151.606 94.8769 151.575 94.2245 151.499C93.5303 151.563 92.8345 151.397 92.2435 151.027C92.075 150.878 91.9621 150.677 91.9234 150.455C91.8847 150.234 91.9224 150.006 92.0305 149.808C92.3003 149.452 92.6592 149.172 93.0712 148.998C93.4832 148.824 93.9337 148.762 94.3775 148.817C95.2997 148.801 96.1952 149.127 96.8915 149.731C97.0977 149.931 97.2164 150.204 97.2215 150.491C97.2266 150.778 97.1176 151.055 96.9185 151.261C96.7271 151.46 96.4664 151.578 96.1905 151.59V151.59Z" fill="#263238"/>
<path d="M86.6055 171.507C87.0325 171.766 87.4745 172.162 88.0055 172.101C88.5556 171.973 89.074 171.735 89.5295 171.401C89.383 171.732 89.1499 172.017 88.8549 172.226C88.56 172.436 88.214 172.561 87.8535 172.59C87.5374 172.584 87.231 172.48 86.9771 172.291C86.7231 172.103 86.5342 171.84 86.4365 171.539C86.4675 171.522 86.5445 171.461 86.6055 171.507Z" fill="#263238"/>
<path d="M87.2035 166.829C87.6932 167.332 88.2821 167.727 88.9327 167.989C89.5833 168.251 90.2814 168.375 90.9825 168.353C91.5941 168.343 92.2007 168.242 92.7825 168.053L93.1025 167.946L93.4225 167.824C93.4958 167.794 93.5568 167.74 93.5955 167.671C93.6341 167.602 93.6483 167.522 93.6355 167.443V167.443C93.6416 167.398 93.6416 167.352 93.6355 167.306V167.306V167.184C93.4225 166.056 92.9495 164.384 92.9495 164.384C93.4065 164.491 95.6925 164.978 95.5245 164.384C94.3105 159.369 92.5952 154.488 90.4045 149.816C90.3902 149.782 90.3629 149.755 90.3286 149.741C90.2944 149.727 90.2559 149.726 90.2215 149.74C90.1873 149.755 90.1602 149.782 90.146 149.816C90.1317 149.85 90.1316 149.889 90.1455 149.923C91.2275 154.494 93.1935 158.974 94.3055 163.637C93.4908 163.456 92.6548 163.389 91.8215 163.437C91.6695 163.513 92.7965 166.667 92.8425 167.17C91.9444 167.459 90.9973 167.565 90.0575 167.481C89.1177 167.397 88.2043 167.126 87.3715 166.682C87.1835 166.619 87.0925 166.737 87.2035 166.829Z" fill="#263238"/>
<path d="M91.9845 167.59C91.5419 168.52 90.871 169.322 90.0345 169.921C89.5832 170.22 89.0516 170.374 88.5105 170.363C87.2915 170.363 86.9865 169.251 86.9865 168.291C87.0018 167.777 87.0732 167.266 87.1995 166.767C88.6618 167.557 90.3424 167.846 91.9845 167.59V167.59Z" fill="#263238"/>
<path d="M90.0345 169.922C89.5832 170.221 89.0516 170.375 88.5105 170.364C87.2915 170.364 86.9865 169.252 86.9865 168.292C87.6038 168.182 88.2402 168.283 88.7932 168.579C89.3462 168.874 89.7834 169.348 90.0345 169.922Z" fill="#FF98B9"/>
<path d="M71.0925 156.603C72.1745 152.26 69.1575 145.388 71.0925 143.315C75.2985 138.835 85.3095 145.905 91.7255 145.403C98.1415 144.901 99.6795 140.832 98.1255 135.803C96.5715 130.774 92.0255 127.833 84.9595 127.376C78.8054 127.186 72.7803 129.165 67.9385 132.968C67.9385 132.968 69.2945 130.317 68.6385 129.585C67.9825 128.853 65.1485 131.52 64.2955 132.633C63.6982 133.567 63.2699 134.599 63.0305 135.681C62.0803 135.546 61.1157 135.546 60.1655 135.681C58.7938 135.904 57.5431 136.599 56.6305 137.647C56.5395 138.028 58.8245 138.135 60.4245 138.074C60.4245 138.074 57.8035 142.249 58.1385 145.602C58.4735 148.955 65.0715 164.482 66.3385 164.543C67.9835 164.573 70.6505 158.279 71.0925 156.603Z" fill="#263238"/>
<path d="M61.0205 137.556C59.5937 138.937 58.5716 140.681 58.0645 142.6C57.6178 144.916 57.7966 147.31 58.5825 149.533C60.1832 153.756 62.228 157.796 64.6825 161.586C64.7585 161.708 64.5605 161.815 64.4825 161.708C61.64 157.74 59.4297 153.354 57.9305 148.708C56.9035 144.825 57.5155 140.116 61.0205 137.556Z" fill="#263238"/>
<path d="M70.7125 141.639C72.5785 141.247 74.502 141.21 76.3815 141.532C78.1386 141.981 79.833 142.646 81.4255 143.513C85.06 145.327 89.1313 146.082 93.1745 145.692L70.7125 141.639ZM93.1745 145.783C89.4892 146.401 85.7034 145.914 82.2945 144.383C80.5886 143.548 78.8387 142.805 77.0525 142.158C74.9726 141.762 72.8429 141.701 70.7435 141.975C70.7215 141.977 70.6993 141.975 70.6782 141.969C70.6571 141.962 70.6375 141.951 70.6205 141.937C70.6035 141.923 70.5894 141.906 70.5791 141.886C70.5689 141.867 70.5625 141.845 70.5605 141.823C70.5566 141.779 70.5704 141.735 70.5989 141.701C70.6273 141.666 70.6682 141.645 70.7125 141.64L93.1745 145.783Z" fill="#263238"/>
<path d="M71.6265 130.79C74.0456 129.333 76.6561 128.22 79.3825 127.483C81.9793 126.707 84.6913 126.387 87.3975 126.538C92.0605 126.888 96.5405 129.464 98.0645 134.157C98.8627 136.532 98.7431 139.119 97.7295 141.41C97.7226 141.426 97.7128 141.439 97.7006 141.45C97.6884 141.462 97.674 141.471 97.6584 141.476C97.6427 141.482 97.6261 141.484 97.6094 141.484C97.5928 141.483 97.5765 141.479 97.5615 141.471C97.5313 141.457 97.5079 141.431 97.4965 141.4C97.4851 141.368 97.4865 141.334 97.5005 141.303C98.3075 139.203 98.4124 136.898 97.7995 134.733C97.1865 132.569 95.8888 130.661 94.1005 129.295C90.0475 126.339 84.7295 126.537 80.0815 127.68C77.1796 128.451 74.3647 129.518 71.6815 130.865C71.6815 130.865 71.6105 130.805 71.6265 130.79Z" fill="#263238"/>
<path d="M83.8775 165.898C83.0596 165.963 82.237 165.865 81.4568 165.612C80.6765 165.358 79.9539 164.953 79.3301 164.42C78.7064 163.887 78.1937 163.237 77.8214 162.506C77.4492 161.775 77.2246 160.977 77.1605 160.159C77.0961 159.341 77.1935 158.519 77.4471 157.739C77.7007 156.958 78.1056 156.236 78.6385 155.612C79.1715 154.988 79.8221 154.476 80.5532 154.103C81.2843 153.731 82.0816 153.506 82.8995 153.442C84.2826 153.334 85.6623 153.689 86.8212 154.452C87.98 155.214 88.852 156.341 89.2995 157.654C89.8326 159.222 89.7212 160.938 88.9899 162.424C88.2586 163.91 86.9672 165.044 85.3995 165.578C84.9086 165.752 84.3968 165.86 83.8775 165.898V165.898ZM82.9475 154.271C82.5007 154.304 82.0602 154.397 81.6375 154.545C80.2805 155.011 79.1639 155.996 78.5334 157.285C77.9029 158.574 77.8102 160.06 78.2755 161.417C78.5058 162.089 78.8662 162.709 79.3362 163.242C79.8062 163.775 80.3765 164.21 81.0146 164.522C81.6526 164.834 82.3459 165.017 83.0549 165.062C83.7639 165.106 84.4746 165.01 85.1465 164.779C85.8185 164.549 86.4386 164.189 86.9713 163.719C87.5039 163.249 87.9389 162.678 88.2511 162.04C88.5634 161.402 88.747 160.709 88.7913 160C88.8357 159.291 88.7399 158.58 88.5095 157.908C88.1186 156.77 87.3596 155.795 86.3523 155.136C85.345 154.478 84.1469 154.174 82.9475 154.272V154.271Z" fill="#FFC727"/>
<path d="M97.9425 163.034C95.5505 163.217 93.1885 160.946 92.5635 157.746C92.2251 156.214 92.3798 154.614 93.0055 153.175C93.2513 152.556 93.6435 152.005 94.1485 151.569C94.6535 151.134 95.2563 150.827 95.9055 150.675C96.5634 150.57 97.2369 150.623 97.8702 150.83C98.5036 151.036 99.0785 151.391 99.5475 151.864C100.667 152.953 101.419 154.365 101.697 155.902C102.367 159.285 100.859 162.439 98.3445 162.942L97.9425 163.034ZM96.4185 151.483H96.1185C95.5994 151.613 95.1186 151.865 94.7159 152.217C94.3132 152.57 94.0001 153.013 93.8025 153.51C93.2723 154.782 93.1395 156.185 93.4215 157.533C94.0155 160.474 96.1645 162.516 98.2365 162.104C100.309 161.692 101.498 159.056 100.919 156.004C100.676 154.641 100.012 153.388 99.0185 152.423C98.6712 152.088 98.2566 151.83 97.8021 151.667C97.3477 151.505 96.8638 151.44 96.3825 151.478L96.4185 151.483Z" fill="#FFC727"/>
<path d="M89.2415 158.402L88.5865 157.884C89.3635 156.909 91.2985 155.431 93.1575 156.741L92.6695 157.411C91.0395 156.238 89.3025 158.31 89.2415 158.402Z" fill="#FFC727"/>
<path d="M62.2395 165.411L61.4315 165.182C61.5385 164.801 62.5315 161.51 64.3115 160.839C66.0915 160.168 77.1575 159.071 77.6295 159.026L77.7205 159.849C74.5055 160.184 65.8805 161.149 64.6005 161.632C63.3205 162.115 62.4985 164.512 62.2395 165.411Z" fill="#FFC727"/>
<path d="M69.3255 163.008C69.3255 163.008 63.7785 156.486 60.7765 158.528C57.7745 160.57 62.4065 170.353 66.2625 171.374C66.7361 171.536 67.2369 171.602 67.7362 171.57C68.2354 171.537 68.7235 171.407 69.1724 171.186C69.6213 170.965 70.0222 170.658 70.3524 170.282C70.6825 169.906 70.9354 169.469 71.0965 168.995C71.1115 168.949 71.1255 168.905 71.1395 168.859L69.3255 163.008Z" fill="#D3766A"/>
<path d="M62.1785 161.298C62.1785 161.298 62.1025 161.298 62.1785 161.389C63.4297 161.877 64.566 162.619 65.5155 163.568C66.4649 164.518 67.207 165.654 67.6945 166.905C67.3633 166.452 66.8657 166.148 66.3108 166.062C65.756 165.975 65.1894 166.112 64.7355 166.442C64.6561 166.5 64.5806 166.563 64.5095 166.631V166.768C64.9559 166.579 65.4497 166.532 65.9239 166.633C66.3981 166.734 66.8298 166.978 67.1605 167.332C67.7015 167.935 68.1765 168.594 68.5775 169.298C68.7295 169.511 69.1265 169.298 69.0195 169.085C68.8065 165.747 65.7745 161.298 62.1785 161.298Z" fill="#263238"/>
<path d="M83.1615 187.796L77.3705 199.987L62.8635 183.225L58.1705 188.01C58.1705 188.01 71.7475 214.01 71.8845 212.879L77.6905 202.456L84.6395 210.395L85.2035 191.595L83.1615 187.796Z" fill="white"/>
<path d="M85.4775 201.099C85.4775 198.051 85.4775 194.867 85.3865 191.758C85.3865 191.651 85.2185 191.59 85.1865 191.758C84.3785 194.699 84.4705 206.585 84.2865 209.419C83.9965 209.069 77.8255 202.409 77.7495 202.501C76.5305 204.147 72.2635 211.735 71.9745 212.421C69.8255 208.291 61.5515 193.251 58.9455 189.321C58.933 189.295 58.9108 189.275 58.8837 189.266C58.8567 189.256 58.8268 189.257 58.8005 189.268C58.7875 189.274 58.7758 189.283 58.7661 189.293C58.7564 189.304 58.7488 189.316 58.7439 189.33C58.739 189.343 58.7368 189.358 58.7374 189.372C58.738 189.386 58.7415 189.4 58.7475 189.413C60.6065 193.741 71.5325 213.992 71.7305 213.947C73.955 210.384 75.9911 206.707 77.8305 202.93C78.8515 204.347 85.0385 211.83 85.0835 211.372C85.4 207.958 85.5315 204.528 85.4775 201.099Z" fill="#263238"/>
<path d="M39.2 25.8L35.424 37H34.176L30.896 27.448L27.6 37H26.368L22.592 25.8H23.808L27.04 35.432L30.384 25.8H31.488L34.784 35.48L38.064 25.8H39.2ZM43.9303 37.08C43.1196 37.08 42.3889 36.8987 41.7383 36.536C41.0876 36.1627 40.5756 35.6507 40.2023 35C39.8289 34.3493 39.6423 33.6133 39.6423 32.792C39.6423 31.9707 39.8289 31.2347 40.2023 30.584C40.5756 29.9333 41.0876 29.4267 41.7383 29.064C42.3889 28.7013 43.1196 28.52 43.9303 28.52C44.7409 28.52 45.4716 28.7013 46.1223 29.064C46.7729 29.4267 47.2796 29.9333 47.6423 30.584C48.0156 31.2347 48.2023 31.9707 48.2023 32.792C48.2023 33.6133 48.0156 34.3493 47.6423 35C47.2796 35.6507 46.7729 36.1627 46.1223 36.536C45.4716 36.8987 44.7409 37.08 43.9303 37.08ZM43.9303 36.072C44.5276 36.072 45.0609 35.9387 45.5303 35.672C46.0103 35.3947 46.3836 35.0053 46.6503 34.504C46.9169 34.0027 47.0503 33.432 47.0503 32.792C47.0503 32.152 46.9169 31.5813 46.6503 31.08C46.3836 30.5787 46.0103 30.1947 45.5303 29.928C45.0609 29.6507 44.5276 29.512 43.9303 29.512C43.3329 29.512 42.7943 29.6507 42.3143 29.928C41.8449 30.1947 41.4716 30.5787 41.1943 31.08C40.9276 31.5813 40.7943 32.152 40.7943 32.792C40.7943 33.432 40.9276 34.0027 41.1943 34.504C41.4716 35.0053 41.8449 35.3947 42.3143 35.672C42.7943 35.9387 43.3329 36.072 43.9303 36.072ZM58.1055 28.584V37H57.0175V35.464C56.7188 35.976 56.3082 36.376 55.7855 36.664C55.2628 36.9413 54.6655 37.08 53.9935 37.08C52.8948 37.08 52.0255 36.776 51.3855 36.168C50.7562 35.5493 50.4415 34.648 50.4415 33.464V28.584H51.5775V33.352C51.5775 34.2373 51.7962 34.9093 52.2335 35.368C52.6708 35.8267 53.2948 36.056 54.1055 36.056C54.9908 36.056 55.6895 35.7893 56.2015 35.256C56.7135 34.712 56.9695 33.96 56.9695 33V28.584H58.1055ZM61.2871 25.128H62.4231V37H61.2871V25.128ZM73.264 25.128V37H72.176V35.336C71.8347 35.9013 71.3813 36.3333 70.816 36.632C70.2613 36.9307 69.632 37.08 68.928 37.08C68.1387 37.08 67.424 36.8987 66.784 36.536C66.144 36.1733 65.6427 35.6667 65.28 35.016C64.9173 34.3653 64.736 33.624 64.736 32.792C64.736 31.96 64.9173 31.2187 65.28 30.568C65.6427 29.9173 66.144 29.416 66.784 29.064C67.424 28.7013 68.1387 28.52 68.928 28.52C69.6107 28.52 70.224 28.664 70.768 28.952C71.3227 29.2293 71.776 29.64 72.128 30.184V25.128H73.264ZM69.024 36.072C69.6107 36.072 70.1387 35.9387 70.608 35.672C71.088 35.3947 71.4613 35.0053 71.728 34.504C72.0053 34.0027 72.144 33.432 72.144 32.792C72.144 32.152 72.0053 31.5813 71.728 31.08C71.4613 30.5787 71.088 30.1947 70.608 29.928C70.1387 29.6507 69.6107 29.512 69.024 29.512C68.4267 29.512 67.888 29.6507 67.408 29.928C66.9387 30.1947 66.5653 30.5787 66.288 31.08C66.0213 31.5813 65.888 32.152 65.888 32.792C65.888 33.432 66.0213 34.0027 66.288 34.504C66.5653 35.0053 66.9387 35.3947 67.408 35.672C67.888 35.9387 68.4267 36.072 69.024 36.072ZM87.6873 28.584L83.4793 38.008C83.1379 38.7973 82.7433 39.3573 82.2953 39.688C81.8473 40.0187 81.3086 40.184 80.6793 40.184C80.2739 40.184 79.8953 40.12 79.5433 39.992C79.1913 39.864 78.8872 39.672 78.6312 39.416L79.1593 38.568C79.5859 38.9947 80.0979 39.208 80.6953 39.208C81.0793 39.208 81.4046 39.1013 81.6713 38.888C81.9486 38.6747 82.2046 38.312 82.4393 37.8L82.8073 36.984L79.0473 28.584H80.2313L83.3993 35.736L86.5673 28.584H87.6873ZM92.4928 37.08C91.6821 37.08 90.9514 36.8987 90.3008 36.536C89.6501 36.1627 89.1381 35.6507 88.7648 35C88.3914 34.3493 88.2048 33.6133 88.2048 32.792C88.2048 31.9707 88.3914 31.2347 88.7648 30.584C89.1381 29.9333 89.6501 29.4267 90.3008 29.064C90.9514 28.7013 91.6821 28.52 92.4928 28.52C93.3034 28.52 94.0341 28.7013 94.6848 29.064C95.3354 29.4267 95.8421 29.9333 96.2048 30.584C96.5781 31.2347 96.7648 31.9707 96.7648 32.792C96.7648 33.6133 96.5781 34.3493 96.2048 35C95.8421 35.6507 95.3354 36.1627 94.6848 36.536C94.0341 36.8987 93.3034 37.08 92.4928 37.08ZM92.4928 36.072C93.0901 36.072 93.6234 35.9387 94.0928 35.672C94.5728 35.3947 94.9461 35.0053 95.2128 34.504C95.4794 34.0027 95.6128 33.432 95.6128 32.792C95.6128 32.152 95.4794 31.5813 95.2128 31.08C94.9461 30.5787 94.5728 30.1947 94.0928 29.928C93.6234 29.6507 93.0901 29.512 92.4928 29.512C91.8954 29.512 91.3568 29.6507 90.8768 29.928C90.4074 30.1947 90.0341 30.5787 89.7568 31.08C89.4901 31.5813 89.3568 32.152 89.3568 32.792C89.3568 33.432 89.4901 34.0027 89.7568 34.504C90.0341 35.0053 90.4074 35.3947 90.8768 35.672C91.3568 35.9387 91.8954 36.072 92.4928 36.072ZM106.668 28.584V37H105.58V35.464C105.281 35.976 104.871 36.376 104.348 36.664C103.825 36.9413 103.228 37.08 102.556 37.08C101.457 37.08 100.588 36.776 99.948 36.168C99.3187 35.5493 99.004 34.648 99.004 33.464V28.584H100.14V33.352C100.14 34.2373 100.359 34.9093 100.796 35.368C101.233 35.8267 101.857 36.056 102.668 36.056C103.553 36.056 104.252 35.7893 104.764 35.256C105.276 34.712 105.532 33.96 105.532 33V28.584H106.668ZM114.037 25.128H115.173V37H114.037V25.128ZM118.334 28.584H119.47V37H118.334V28.584ZM118.91 26.744C118.675 26.744 118.478 26.664 118.318 26.504C118.158 26.344 118.078 26.152 118.078 25.928C118.078 25.7147 118.158 25.528 118.318 25.368C118.478 25.208 118.675 25.128 118.91 25.128C119.145 25.128 119.342 25.208 119.502 25.368C119.662 25.5173 119.742 25.6987 119.742 25.912C119.742 26.1467 119.662 26.344 119.502 26.504C119.342 26.664 119.145 26.744 118.91 26.744ZM125.751 32.776L123.767 34.6V37H122.631V25.128H123.767V33.176L128.791 28.584H130.199L126.599 32.024L130.535 37H129.143L125.751 32.776ZM139.225 33.144H132.185C132.249 34.0187 132.585 34.728 133.193 35.272C133.801 35.8053 134.569 36.072 135.497 36.072C136.019 36.072 136.499 35.9813 136.937 35.8C137.374 35.608 137.753 35.3307 138.073 34.968L138.713 35.704C138.339 36.152 137.87 36.4933 137.305 36.728C136.75 36.9627 136.137 37.08 135.465 37.08C134.601 37.08 133.833 36.8987 133.161 36.536C132.499 36.1627 131.982 35.6507 131.609 35C131.235 34.3493 131.049 33.6133 131.049 32.792C131.049 31.9707 131.225 31.2347 131.577 30.584C131.939 29.9333 132.43 29.4267 133.049 29.064C133.678 28.7013 134.382 28.52 135.161 28.52C135.939 28.52 136.638 28.7013 137.257 29.064C137.875 29.4267 138.361 29.9333 138.713 30.584C139.065 31.224 139.241 31.96 139.241 32.792L139.225 33.144ZM135.161 29.496C134.35 29.496 133.667 29.7573 133.113 30.28C132.569 30.792 132.259 31.464 132.185 32.296H138.153C138.078 31.464 137.763 30.792 137.209 30.28C136.665 29.7573 135.982 29.496 135.161 29.496ZM150.172 36.488C149.959 36.68 149.692 36.8293 149.372 36.936C149.063 37.032 148.738 37.08 148.396 37.08C147.607 37.08 146.999 36.8667 146.572 36.44C146.146 36.0133 145.932 35.4107 145.932 34.632V29.544H144.428V28.584H145.932V26.744H147.068V28.584H149.628V29.544H147.068V34.568C147.068 35.0693 147.191 35.4533 147.436 35.72C147.692 35.976 148.055 36.104 148.524 36.104C148.759 36.104 148.983 36.0667 149.196 35.992C149.42 35.9173 149.612 35.8107 149.772 35.672L150.172 36.488ZM155.383 37.08C154.573 37.08 153.842 36.8987 153.191 36.536C152.541 36.1627 152.029 35.6507 151.655 35C151.282 34.3493 151.095 33.6133 151.095 32.792C151.095 31.9707 151.282 31.2347 151.655 30.584C152.029 29.9333 152.541 29.4267 153.191 29.064C153.842 28.7013 154.573 28.52 155.383 28.52C156.194 28.52 156.925 28.7013 157.575 29.064C158.226 29.4267 158.733 29.9333 159.095 30.584C159.469 31.2347 159.655 31.9707 159.655 32.792C159.655 33.6133 159.469 34.3493 159.095 35C158.733 35.6507 158.226 36.1627 157.575 36.536C156.925 36.8987 156.194 37.08 155.383 37.08ZM155.383 36.072C155.981 36.072 156.514 35.9387 156.983 35.672C157.463 35.3947 157.837 35.0053 158.103 34.504C158.37 34.0027 158.503 33.432 158.503 32.792C158.503 32.152 158.37 31.5813 158.103 31.08C157.837 30.5787 157.463 30.1947 156.983 29.928C156.514 29.6507 155.981 29.512 155.383 29.512C154.786 29.512 154.247 29.6507 153.767 29.928C153.298 30.1947 152.925 30.5787 152.647 31.08C152.381 31.5813 152.247 32.152 152.247 32.792C152.247 33.432 152.381 34.0027 152.647 34.504C152.925 35.0053 153.298 35.3947 153.767 35.672C154.247 35.9387 154.786 36.072 155.383 36.072ZM168.226 27.912H164.642V25.8H174.402V27.912H170.818V37H168.226V27.912ZM178.655 28.264C179.989 28.264 181.013 28.584 181.727 29.224C182.442 29.8533 182.799 30.808 182.799 32.088V37H180.463V35.928C179.994 36.728 179.119 37.128 177.839 37.128C177.178 37.128 176.602 37.016 176.111 36.792C175.631 36.568 175.263 36.2587 175.007 35.864C174.751 35.4693 174.623 35.0213 174.623 34.52C174.623 33.72 174.922 33.0907 175.519 32.632C176.127 32.1733 177.061 31.944 178.319 31.944H180.303C180.303 31.4 180.138 30.984 179.807 30.696C179.477 30.3973 178.981 30.248 178.319 30.248C177.861 30.248 177.407 30.3227 176.959 30.472C176.522 30.6107 176.149 30.8027 175.839 31.048L174.943 29.304C175.413 28.9733 175.973 28.7173 176.623 28.536C177.285 28.3547 177.962 28.264 178.655 28.264ZM178.463 35.448C178.89 35.448 179.269 35.352 179.599 35.16C179.93 34.9573 180.165 34.664 180.303 34.28V33.4H178.591C177.567 33.4 177.055 33.736 177.055 34.408C177.055 34.728 177.178 34.984 177.423 35.176C177.679 35.3573 178.026 35.448 178.463 35.448ZM185.058 28.392H187.554V37H185.058V28.392ZM186.306 27.192C185.848 27.192 185.474 27.0587 185.186 26.792C184.898 26.5253 184.754 26.1947 184.754 25.8C184.754 25.4053 184.898 25.0747 185.186 24.808C185.474 24.5413 185.848 24.408 186.306 24.408C186.765 24.408 187.138 24.536 187.426 24.792C187.714 25.048 187.858 25.368 187.858 25.752C187.858 26.168 187.714 26.5147 187.426 26.792C187.138 27.0587 186.765 27.192 186.306 27.192ZM189.871 25.128H192.367V37H189.871V25.128ZM198.779 37.128C197.873 37.128 197.057 36.9413 196.331 36.568C195.617 36.184 195.057 35.656 194.651 34.984C194.246 34.312 194.043 33.5493 194.043 32.696C194.043 31.8427 194.246 31.08 194.651 30.408C195.057 29.736 195.617 29.2133 196.331 28.84C197.057 28.456 197.873 28.264 198.779 28.264C199.686 28.264 200.497 28.456 201.211 28.84C201.926 29.2133 202.486 29.736 202.891 30.408C203.297 31.08 203.499 31.8427 203.499 32.696C203.499 33.5493 203.297 34.312 202.891 34.984C202.486 35.656 201.926 36.184 201.211 36.568C200.497 36.9413 199.686 37.128 198.779 37.128ZM198.779 35.08C199.419 35.08 199.942 34.8667 200.347 34.44C200.763 34.0027 200.971 33.4213 200.971 32.696C200.971 31.9707 200.763 31.3947 200.347 30.968C199.942 30.5307 199.419 30.312 198.779 30.312C198.139 30.312 197.611 30.5307 197.195 30.968C196.779 31.3947 196.571 31.9707 196.571 32.696C196.571 33.4213 196.779 34.0027 197.195 34.44C197.611 34.8667 198.139 35.08 198.779 35.08ZM207.552 29.528C207.85 29.112 208.25 28.7973 208.752 28.584C209.264 28.3707 209.85 28.264 210.512 28.264V30.568C210.234 30.5467 210.048 30.536 209.952 30.536C209.237 30.536 208.677 30.7387 208.272 31.144C207.866 31.5387 207.664 32.136 207.664 32.936V37H205.168V28.392H207.552V29.528ZM225.134 28.392L221.246 37.528C220.851 38.52 220.36 39.2187 219.774 39.624C219.198 40.0293 218.499 40.232 217.678 40.232C217.23 40.232 216.787 40.1627 216.35 40.024C215.912 39.8853 215.555 39.6933 215.277 39.448L216.19 37.672C216.382 37.8427 216.6 37.976 216.846 38.072C217.102 38.168 217.352 38.216 217.598 38.216C217.939 38.216 218.216 38.1307 218.43 37.96C218.643 37.8 218.835 37.528 219.006 37.144L219.038 37.064L215.309 28.392H217.886L220.302 34.232L222.734 28.392H225.134ZM230.014 37.128C229.107 37.128 228.291 36.9413 227.566 36.568C226.851 36.184 226.291 35.656 225.886 34.984C225.48 34.312 225.278 33.5493 225.278 32.696C225.278 31.8427 225.48 31.08 225.886 30.408C226.291 29.736 226.851 29.2133 227.566 28.84C228.291 28.456 229.107 28.264 230.014 28.264C230.92 28.264 231.731 28.456 232.446 28.84C233.16 29.2133 233.72 29.736 234.126 30.408C234.531 31.08 234.734 31.8427 234.734 32.696C234.734 33.5493 234.531 34.312 234.126 34.984C233.72 35.656 233.16 36.184 232.446 36.568C231.731 36.9413 230.92 37.128 230.014 37.128ZM230.014 35.08C230.654 35.08 231.176 34.8667 231.582 34.44C231.998 34.0027 232.206 33.4213 232.206 32.696C232.206 31.9707 231.998 31.3947 231.582 30.968C231.176 30.5307 230.654 30.312 230.014 30.312C229.374 30.312 228.846 30.5307 228.43 30.968C228.014 31.3947 227.806 31.9707 227.806 32.696C227.806 33.4213 228.014 34.0027 228.43 34.44C228.846 34.8667 229.374 35.08 230.014 35.08ZM245.074 28.392V37H242.706V35.976C242.375 36.3493 241.981 36.6373 241.522 36.84C241.063 37.032 240.567 37.128 240.034 37.128C238.903 37.128 238.007 36.8027 237.346 36.152C236.685 35.5013 236.354 34.536 236.354 33.256V28.392H238.85V32.888C238.85 34.2747 239.431 34.968 240.594 34.968C241.191 34.968 241.671 34.776 242.034 34.392C242.397 33.9973 242.578 33.416 242.578 32.648V28.392H245.074ZM249.77 29.528C250.069 29.112 250.469 28.7973 250.97 28.584C251.482 28.3707 252.069 28.264 252.73 28.264V30.568C252.453 30.5467 252.266 30.536 252.17 30.536C251.456 30.536 250.896 30.7387 250.49 31.144C250.085 31.5387 249.882 32.136 249.882 32.936V37H247.386V28.392H249.77V29.528ZM23.152 45.128H25.648V57H23.152V45.128ZM27.9645 48.392H30.4605V57H27.9645V48.392ZM29.2125 47.192C28.7538 47.192 28.3805 47.0587 28.0925 46.792C27.8045 46.5253 27.6605 46.1947 27.6605 45.8C27.6605 45.4053 27.8045 45.0747 28.0925 44.808C28.3805 44.5413 28.7538 44.408 29.2125 44.408C29.6712 44.408 30.0445 44.536 30.3325 44.792C30.6205 45.048 30.7645 45.368 30.7645 45.752C30.7645 46.168 30.6205 46.5147 30.3325 46.792C30.0445 47.0587 29.6712 47.192 29.2125 47.192ZM43.801 48.264C44.8783 48.264 45.7317 48.584 46.361 49.224C47.001 49.8533 47.321 50.8027 47.321 52.072V57H44.825V52.456C44.825 51.7733 44.681 51.2667 44.393 50.936C44.1157 50.5947 43.7157 50.424 43.193 50.424C42.6063 50.424 42.1423 50.616 41.801 51C41.4597 51.3733 41.289 51.9333 41.289 52.68V57H38.793V52.456C38.793 51.1013 38.249 50.424 37.161 50.424C36.585 50.424 36.1263 50.616 35.785 51C35.4437 51.3733 35.273 51.9333 35.273 52.68V57H32.777V48.392H35.161V49.384C35.481 49.0213 35.8703 48.744 36.329 48.552C36.7983 48.36 37.3103 48.264 37.865 48.264C38.473 48.264 39.0223 48.3867 39.513 48.632C40.0037 48.8667 40.3983 49.2133 40.697 49.672C41.049 49.224 41.4917 48.8773 42.025 48.632C42.569 48.3867 43.161 48.264 43.801 48.264ZM49.5583 48.392H52.0543V57H49.5583V48.392ZM50.8063 47.192C50.3476 47.192 49.9743 47.0587 49.6863 46.792C49.3983 46.5253 49.2543 46.1947 49.2543 45.8C49.2543 45.4053 49.3983 45.0747 49.6863 44.808C49.9743 44.5413 50.3476 44.408 50.8063 44.408C51.2649 44.408 51.6383 44.536 51.9263 44.792C52.2143 45.048 52.3583 45.368 52.3583 45.752C52.3583 46.168 52.2143 46.5147 51.9263 46.792C51.6383 47.0587 51.2649 47.192 50.8063 47.192ZM59.9228 56.584C59.6774 56.7653 59.3734 56.904 59.0108 57C58.6588 57.0853 58.2854 57.128 57.8908 57.128C56.8668 57.128 56.0721 56.8667 55.5068 56.344C54.9521 55.8213 54.6748 55.0533 54.6748 54.04V50.504H53.3468V48.584H54.6748V46.488H57.1708V48.584H59.3148V50.504H57.1708V54.008C57.1708 54.3707 57.2614 54.6533 57.4427 54.856C57.6348 55.048 57.9014 55.144 58.2428 55.144C58.6374 55.144 58.9734 55.0373 59.2508 54.824L59.9228 56.584ZM64.2199 57.128C63.5052 57.128 62.8065 57.0427 62.1239 56.872C61.4412 56.6907 60.8972 56.4667 60.4919 56.2L61.3239 54.408C61.7079 54.6533 62.1719 54.856 62.7159 55.016C63.2599 55.1653 63.7932 55.24 64.3159 55.24C65.3719 55.24 65.8999 54.9787 65.8999 54.456C65.8999 54.2107 65.7559 54.0347 65.4679 53.928C65.1799 53.8213 64.7372 53.7307 64.1399 53.656C63.4359 53.5493 62.8545 53.4267 62.3959 53.288C61.9372 53.1493 61.5372 52.904 61.1959 52.552C60.8652 52.2 60.6999 51.6987 60.6999 51.048C60.6999 50.504 60.8545 50.024 61.1639 49.608C61.4839 49.1813 61.9425 48.8507 62.5399 48.616C63.1479 48.3813 63.8625 48.264 64.6839 48.264C65.2919 48.264 65.8945 48.3333 66.4919 48.472C67.0999 48.6 67.6012 48.7813 67.9959 49.016L67.1639 50.792C66.4065 50.3653 65.5799 50.152 64.6839 50.152C64.1505 50.152 63.7505 50.2267 63.4839 50.376C63.2172 50.5253 63.0839 50.7173 63.0839 50.952C63.0839 51.2187 63.2279 51.4053 63.5159 51.512C63.8039 51.6187 64.2625 51.72 64.8919 51.816C65.5959 51.9333 66.1719 52.0613 66.6199 52.2C67.0679 52.328 67.4572 52.568 67.7879 52.92C68.1185 53.272 68.2839 53.7627 68.2839 54.392C68.2839 54.9253 68.1239 55.4 67.8039 55.816C67.4839 56.232 67.0145 56.5573 66.3959 56.792C65.7879 57.016 65.0625 57.128 64.2199 57.128ZM71.9251 53.112C71.9251 52.5573 72.0478 52.0987 72.2931 51.736C72.5491 51.3733 72.9171 50.9733 73.3971 50.536C73.7491 50.216 74.0051 49.9493 74.1651 49.736C74.3358 49.512 74.4211 49.2613 74.4211 48.984C74.4211 48.5893 74.2611 48.28 73.9411 48.056C73.6318 47.8213 73.2158 47.704 72.6931 47.704C72.1918 47.704 71.7438 47.8107 71.3491 48.024C70.9651 48.2267 70.6398 48.5147 70.3731 48.888L68.4371 47.752C68.8851 47.0693 69.4878 46.5413 70.2451 46.168C71.0131 45.7947 71.9198 45.608 72.9651 45.608C74.1918 45.608 75.1731 45.8693 75.9091 46.392C76.6558 46.9147 77.0291 47.64 77.0291 48.568C77.0291 49.0053 76.9545 49.3893 76.8051 49.72C76.6665 50.0507 76.4905 50.3333 76.2771 50.568C76.0745 50.792 75.8078 51.0533 75.4771 51.352C75.0825 51.704 74.7945 52.0027 74.6131 52.248C74.4318 52.4827 74.3411 52.7707 74.3411 53.112H71.9251ZM73.1411 57.128C72.7038 57.128 72.3358 56.9893 72.0371 56.712C71.7491 56.424 71.6051 56.0773 71.6051 55.672C71.6051 55.2667 71.7491 54.9307 72.0371 54.664C72.3251 54.3867 72.6931 54.248 73.1411 54.248C73.5891 54.248 73.9571 54.3867 74.2451 54.664C74.5331 54.9307 74.6771 55.2667 74.6771 55.672C74.6771 56.0773 74.5278 56.424 74.2291 56.712C73.9411 56.9893 73.5785 57.128 73.1411 57.128ZM32.092 63.6V72H31.24V65.28L27.94 70.932H27.52L24.22 65.316V72H23.368V63.6H24.1L27.748 69.828L31.36 63.6H32.092ZM37.2289 72.06C36.6209 72.06 36.0729 71.924 35.5849 71.652C35.0969 71.372 34.7129 70.988 34.4329 70.5C34.1529 70.012 34.0129 69.46 34.0129 68.844C34.0129 68.228 34.1529 67.676 34.4329 67.188C34.7129 66.7 35.0969 66.32 35.5849 66.048C36.0729 65.776 36.6209 65.64 37.2289 65.64C37.8369 65.64 38.3849 65.776 38.8729 66.048C39.3609 66.32 39.7409 66.7 40.0129 67.188C40.2929 67.676 40.4329 68.228 40.4329 68.844C40.4329 69.46 40.2929 70.012 40.0129 70.5C39.7409 70.988 39.3609 71.372 38.8729 71.652C38.3849 71.924 37.8369 72.06 37.2289 72.06ZM37.2289 71.304C37.6769 71.304 38.0769 71.204 38.4289 71.004C38.7889 70.796 39.0689 70.504 39.2689 70.128C39.4689 69.752 39.5689 69.324 39.5689 68.844C39.5689 68.364 39.4689 67.936 39.2689 67.56C39.0689 67.184 38.7889 66.896 38.4289 66.696C38.0769 66.488 37.6769 66.384 37.2289 66.384C36.7809 66.384 36.3769 66.488 36.0169 66.696C35.6649 66.896 35.3849 67.184 35.1769 67.56C34.9769 67.936 34.8769 68.364 34.8769 68.844C34.8769 69.324 34.9769 69.752 35.1769 70.128C35.3849 70.504 35.6649 70.796 36.0169 71.004C36.3769 71.204 36.7809 71.304 37.2289 71.304ZM47.3006 65.688L44.4926 72H43.6166L40.8206 65.688H41.7086L44.0726 71.064L46.4606 65.688H47.3006ZM53.8207 69.108H48.5407C48.5887 69.764 48.8407 70.296 49.2967 70.704C49.7527 71.104 50.3287 71.304 51.0247 71.304C51.4167 71.304 51.7767 71.236 52.1047 71.1C52.4327 70.956 52.7167 70.748 52.9567 70.476L53.4367 71.028C53.1567 71.364 52.8047 71.62 52.3807 71.796C51.9647 71.972 51.5047 72.06 51.0007 72.06C50.3527 72.06 49.7767 71.924 49.2727 71.652C48.7767 71.372 48.3887 70.988 48.1087 70.5C47.8287 70.012 47.6887 69.46 47.6887 68.844C47.6887 68.228 47.8207 67.676 48.0847 67.188C48.3567 66.7 48.7247 66.32 49.1887 66.048C49.6607 65.776 50.1887 65.64 50.7727 65.64C51.3567 65.64 51.8807 65.776 52.3447 66.048C52.8087 66.32 53.1727 66.7 53.4367 67.188C53.7007 67.668 53.8327 68.22 53.8327 68.844L53.8207 69.108ZM50.7727 66.372C50.1647 66.372 49.6527 66.568 49.2367 66.96C48.8287 67.344 48.5967 67.848 48.5407 68.472H53.0167C52.9607 67.848 52.7247 67.344 52.3087 66.96C51.9007 66.568 51.3887 66.372 50.7727 66.372ZM62.0315 71.616C61.8715 71.76 61.6715 71.872 61.4315 71.952C61.1995 72.024 60.9555 72.06 60.6995 72.06C60.1075 72.06 59.6515 71.9 59.3315 71.58C59.0115 71.26 58.8515 70.808 58.8515 70.224V66.408H57.7235V65.688H58.8515V64.308H59.7035V65.688H61.6235V66.408H59.7035V70.176C59.7035 70.552 59.7955 70.84 59.9795 71.04C60.1715 71.232 60.4435 71.328 60.7955 71.328C60.9715 71.328 61.1395 71.3 61.2995 71.244C61.4675 71.188 61.6115 71.108 61.7315 71.004L62.0315 71.616ZM66.7985 65.64C67.5905 65.64 68.2185 65.872 68.6825 66.336C69.1545 66.792 69.3905 67.46 69.3905 68.34V72H68.5385V68.424C68.5385 67.768 68.3745 67.268 68.0465 66.924C67.7185 66.58 67.2505 66.408 66.6425 66.408C65.9625 66.408 65.4225 66.612 65.0225 67.02C64.6305 67.42 64.4345 67.976 64.4345 68.688V72H63.5825V63.096H64.4345V66.792C64.6665 66.424 64.9865 66.14 65.3945 65.94C65.8025 65.74 66.2705 65.64 66.7985 65.64ZM77.2231 69.108H71.9431C71.9911 69.764 72.2431 70.296 72.6991 70.704C73.1551 71.104 73.7311 71.304 74.4271 71.304C74.8191 71.304 75.1791 71.236 75.5071 71.1C75.8351 70.956 76.1191 70.748 76.3591 70.476L76.8391 71.028C76.5591 71.364 76.2071 71.62 75.7831 71.796C75.3671 71.972 74.9071 72.06 74.4031 72.06C73.7551 72.06 73.1791 71.924 72.6751 71.652C72.1791 71.372 71.7911 70.988 71.5111 70.5C71.2311 70.012 71.0911 69.46 71.0911 68.844C71.0911 68.228 71.2231 67.676 71.4871 67.188C71.7591 66.7 72.1271 66.32 72.5911 66.048C73.0631 65.776 73.5911 65.64 74.1751 65.64C74.7591 65.64 75.2831 65.776 75.7471 66.048C76.2111 66.32 76.5751 66.7 76.8391 67.188C77.1031 67.668 77.2351 68.22 77.2351 68.844L77.2231 69.108ZM74.1751 66.372C73.5671 66.372 73.0551 66.568 72.6391 66.96C72.2311 67.344 71.9991 67.848 71.9431 68.472H76.4191C76.3631 67.848 76.1271 67.344 75.7111 66.96C75.3031 66.568 74.7911 66.372 74.1751 66.372ZM83.8019 72.06C83.2899 72.06 82.7979 71.988 82.3259 71.844C81.8619 71.692 81.4979 71.504 81.2339 71.28L81.6179 70.608C81.8819 70.816 82.2139 70.988 82.6139 71.124C83.0139 71.252 83.4299 71.316 83.8619 71.316C84.4379 71.316 84.8619 71.228 85.1339 71.052C85.4139 70.868 85.5539 70.612 85.5539 70.284C85.5539 70.052 85.4779 69.872 85.3259 69.744C85.1739 69.608 84.9819 69.508 84.7499 69.444C84.5179 69.372 84.2099 69.304 83.8259 69.24C83.3139 69.144 82.9019 69.048 82.5899 68.952C82.2779 68.848 82.0099 68.676 81.7859 68.436C81.5699 68.196 81.4619 67.864 81.4619 67.44C81.4619 66.912 81.6819 66.48 82.1219 66.144C82.5619 65.808 83.1739 65.64 83.9579 65.64C84.3659 65.64 84.7739 65.696 85.1819 65.808C85.5899 65.912 85.9259 66.052 86.1899 66.228L85.8179 66.912C85.2979 66.552 84.6779 66.372 83.9579 66.372C83.4139 66.372 83.0019 66.468 82.7219 66.66C82.4499 66.852 82.3139 67.104 82.3139 67.416C82.3139 67.656 82.3899 67.848 82.5419 67.992C82.7019 68.136 82.8979 68.244 83.1299 68.316C83.3619 68.38 83.6819 68.448 84.0899 68.52C84.5939 68.616 84.9979 68.712 85.3019 68.808C85.6059 68.904 85.8659 69.068 86.0819 69.3C86.2979 69.532 86.4059 69.852 86.4059 70.26C86.4059 70.812 86.1739 71.252 85.7099 71.58C85.2539 71.9 84.6179 72.06 83.8019 72.06ZM87.981 63.096H88.833V72H87.981V63.096ZM91.2036 65.688H92.0556V72H91.2036V65.688ZM91.6356 64.308C91.4596 64.308 91.3116 64.248 91.1916 64.128C91.0716 64.008 91.0116 63.864 91.0116 63.696C91.0116 63.536 91.0716 63.396 91.1916 63.276C91.3116 63.156 91.4596 63.096 91.6356 63.096C91.8116 63.096 91.9596 63.156 92.0796 63.276C92.1996 63.388 92.2596 63.524 92.2596 63.684C92.2596 63.86 92.1996 64.008 92.0796 64.128C91.9596 64.248 91.8116 64.308 91.6356 64.308ZM100.186 63.096V72H99.3703V70.752C99.1143 71.176 98.7743 71.5 98.3503 71.724C97.9343 71.948 97.4623 72.06 96.9343 72.06C96.3423 72.06 95.8063 71.924 95.3263 71.652C94.8463 71.38 94.4703 71 94.1983 70.512C93.9263 70.024 93.7903 69.468 93.7903 68.844C93.7903 68.22 93.9263 67.664 94.1983 67.176C94.4703 66.688 94.8463 66.312 95.3263 66.048C95.8063 65.776 96.3423 65.64 96.9343 65.64C97.4463 65.64 97.9063 65.748 98.3143 65.964C98.7303 66.172 99.0703 66.48 99.3343 66.888V63.096H100.186ZM97.0063 71.304C97.4463 71.304 97.8423 71.204 98.1943 71.004C98.5543 70.796 98.8343 70.504 99.0343 70.128C99.2423 69.752 99.3463 69.324 99.3463 68.844C99.3463 68.364 99.2423 67.936 99.0343 67.56C98.8343 67.184 98.5543 66.896 98.1943 66.696C97.8423 66.488 97.4463 66.384 97.0063 66.384C96.5583 66.384 96.1543 66.488 95.7943 66.696C95.4423 66.896 95.1623 67.184 94.9543 67.56C94.7543 67.936 94.6543 68.364 94.6543 68.844C94.6543 69.324 94.7543 69.752 94.9543 70.128C95.1623 70.504 95.4423 70.796 95.7943 71.004C96.1543 71.204 96.5583 71.304 97.0063 71.304ZM108.055 69.108H102.775C102.823 69.764 103.075 70.296 103.531 70.704C103.987 71.104 104.563 71.304 105.259 71.304C105.651 71.304 106.011 71.236 106.339 71.1C106.667 70.956 106.951 70.748 107.191 70.476L107.671 71.028C107.391 71.364 107.039 71.62 106.615 71.796C106.199 71.972 105.739 72.06 105.235 72.06C104.587 72.06 104.011 71.924 103.507 71.652C103.011 71.372 102.623 70.988 102.343 70.5C102.063 70.012 101.923 69.46 101.923 68.844C101.923 68.228 102.055 67.676 102.319 67.188C102.591 66.7 102.959 66.32 103.423 66.048C103.895 65.776 104.423 65.64 105.007 65.64C105.591 65.64 106.115 65.776 106.579 66.048C107.043 66.32 107.407 66.7 107.671 67.188C107.935 67.668 108.067 68.22 108.067 68.844L108.055 69.108ZM105.007 66.372C104.399 66.372 103.887 66.568 103.471 66.96C103.063 67.344 102.831 67.848 102.775 68.472H107.251C107.195 67.848 106.959 67.344 106.543 66.96C106.135 66.568 105.623 66.372 105.007 66.372ZM110.617 66.924C110.817 66.5 111.113 66.18 111.505 65.964C111.905 65.748 112.397 65.64 112.981 65.64V66.468L112.777 66.456C112.113 66.456 111.593 66.66 111.217 67.068C110.841 67.476 110.653 68.048 110.653 68.784V72H109.801V65.688H110.617V66.924ZM119.966 65.64C120.79 65.64 121.422 65.848 121.862 66.264C122.302 66.672 122.522 67.28 122.522 68.088V72H121.706V71.016C121.514 71.344 121.23 71.6 120.854 71.784C120.486 71.968 120.046 72.06 119.534 72.06C118.83 72.06 118.27 71.892 117.854 71.556C117.438 71.22 117.23 70.776 117.23 70.224C117.23 69.688 117.422 69.256 117.806 68.928C118.198 68.6 118.818 68.436 119.666 68.436H121.67V68.052C121.67 67.508 121.518 67.096 121.214 66.816C120.91 66.528 120.466 66.384 119.882 66.384C119.482 66.384 119.098 66.452 118.73 66.588C118.362 66.716 118.046 66.896 117.782 67.128L117.398 66.492C117.718 66.22 118.102 66.012 118.55 65.868C118.998 65.716 119.47 65.64 119.966 65.64ZM119.666 71.388C120.146 71.388 120.558 71.28 120.902 71.064C121.246 70.84 121.502 70.52 121.67 70.104V69.072H119.69C118.61 69.072 118.07 69.448 118.07 70.2C118.07 70.568 118.21 70.86 118.49 71.076C118.77 71.284 119.162 71.388 119.666 71.388ZM128.052 65.64C128.844 65.64 129.472 65.872 129.936 66.336C130.408 66.792 130.644 67.46 130.644 68.34V72H129.792V68.424C129.792 67.768 129.628 67.268 129.3 66.924C128.972 66.58 128.504 66.408 127.896 66.408C127.216 66.408 126.676 66.612 126.276 67.02C125.884 67.42 125.688 67.976 125.688 68.688V72H124.836V65.688H125.652V66.852C125.884 66.468 126.204 66.172 126.612 65.964C127.028 65.748 127.508 65.64 128.052 65.64ZM138.741 63.096V72H137.925V70.752C137.669 71.176 137.329 71.5 136.905 71.724C136.489 71.948 136.017 72.06 135.489 72.06C134.897 72.06 134.361 71.924 133.881 71.652C133.401 71.38 133.025 71 132.753 70.512C132.481 70.024 132.345 69.468 132.345 68.844C132.345 68.22 132.481 67.664 132.753 67.176C133.025 66.688 133.401 66.312 133.881 66.048C134.361 65.776 134.897 65.64 135.489 65.64C136.001 65.64 136.461 65.748 136.869 65.964C137.285 66.172 137.625 66.48 137.889 66.888V63.096H138.741ZM135.561 71.304C136.001 71.304 136.397 71.204 136.749 71.004C137.109 70.796 137.389 70.504 137.589 70.128C137.797 69.752 137.901 69.324 137.901 68.844C137.901 68.364 137.797 67.936 137.589 67.56C137.389 67.184 137.109 66.896 136.749 66.696C136.397 66.488 136.001 66.384 135.561 66.384C135.113 66.384 134.709 66.488 134.349 66.696C133.997 66.896 133.717 67.184 133.509 67.56C133.309 67.936 133.209 68.364 133.209 68.844C133.209 69.324 133.309 69.752 133.509 70.128C133.717 70.504 133.997 70.796 134.349 71.004C134.709 71.204 135.113 71.304 135.561 71.304ZM147.578 71.616C147.418 71.76 147.218 71.872 146.978 71.952C146.746 72.024 146.502 72.06 146.246 72.06C145.654 72.06 145.198 71.9 144.878 71.58C144.558 71.26 144.398 70.808 144.398 70.224V66.408H143.27V65.688H144.398V64.308H145.25V65.688H147.17V66.408H145.25V70.176C145.25 70.552 145.342 70.84 145.526 71.04C145.718 71.232 145.99 71.328 146.342 71.328C146.518 71.328 146.686 71.3 146.846 71.244C147.014 71.188 147.158 71.108 147.278 71.004L147.578 71.616ZM151.337 65.64C152.161 65.64 152.793 65.848 153.233 66.264C153.673 66.672 153.893 67.28 153.893 68.088V72H153.077V71.016C152.885 71.344 152.601 71.6 152.225 71.784C151.857 71.968 151.417 72.06 150.905 72.06C150.201 72.06 149.641 71.892 149.225 71.556C148.809 71.22 148.601 70.776 148.601 70.224C148.601 69.688 148.793 69.256 149.177 68.928C149.569 68.6 150.189 68.436 151.037 68.436H153.041V68.052C153.041 67.508 152.889 67.096 152.585 66.816C152.281 66.528 151.837 66.384 151.253 66.384C150.853 66.384 150.469 66.452 150.101 66.588C149.733 66.716 149.417 66.896 149.153 67.128L148.769 66.492C149.089 66.22 149.473 66.012 149.921 65.868C150.369 65.716 150.841 65.64 151.337 65.64ZM151.037 71.388C151.517 71.388 151.929 71.28 152.273 71.064C152.617 70.84 152.873 70.52 153.041 70.104V69.072H151.061C149.981 69.072 149.441 69.448 149.441 70.2C149.441 70.568 149.581 70.86 149.861 71.076C150.141 71.284 150.533 71.388 151.037 71.388ZM158.548 68.832L157.06 70.2V72H156.208V63.096H157.06V69.132L160.828 65.688H161.884L159.184 68.268L162.136 72H161.092L158.548 68.832ZM168.653 69.108H163.373C163.421 69.764 163.673 70.296 164.129 70.704C164.585 71.104 165.161 71.304 165.857 71.304C166.249 71.304 166.609 71.236 166.937 71.1C167.265 70.956 167.549 70.748 167.789 70.476L168.269 71.028C167.989 71.364 167.637 71.62 167.213 71.796C166.797 71.972 166.337 72.06 165.833 72.06C165.185 72.06 164.609 71.924 164.105 71.652C163.609 71.372 163.221 70.988 162.941 70.5C162.661 70.012 162.521 69.46 162.521 68.844C162.521 68.228 162.653 67.676 162.917 67.188C163.189 66.7 163.557 66.32 164.021 66.048C164.493 65.776 165.021 65.64 165.605 65.64C166.189 65.64 166.713 65.776 167.177 66.048C167.641 66.32 168.005 66.7 168.269 67.188C168.533 67.668 168.665 68.22 168.665 68.844L168.653 69.108ZM165.605 66.372C164.997 66.372 164.485 66.568 164.069 66.96C163.661 67.344 163.429 67.848 163.373 68.472H167.849C167.793 67.848 167.557 67.344 167.141 66.96C166.733 66.568 166.221 66.372 165.605 66.372ZM176.756 65.64C177.548 65.64 178.176 65.872 178.64 66.336C179.112 66.792 179.348 67.46 179.348 68.34V72H178.496V68.424C178.496 67.768 178.332 67.268 178.004 66.924C177.676 66.58 177.208 66.408 176.6 66.408C175.92 66.408 175.38 66.612 174.98 67.02C174.588 67.42 174.392 67.976 174.392 68.688V72H173.54V65.688H174.356V66.852C174.588 66.468 174.908 66.172 175.316 65.964C175.732 65.748 176.212 65.64 176.756 65.64ZM184.264 72.06C183.656 72.06 183.108 71.924 182.62 71.652C182.132 71.372 181.748 70.988 181.468 70.5C181.188 70.012 181.048 69.46 181.048 68.844C181.048 68.228 181.188 67.676 181.468 67.188C181.748 66.7 182.132 66.32 182.62 66.048C183.108 65.776 183.656 65.64 184.264 65.64C184.872 65.64 185.42 65.776 185.908 66.048C186.396 66.32 186.776 66.7 187.048 67.188C187.328 67.676 187.468 68.228 187.468 68.844C187.468 69.46 187.328 70.012 187.048 70.5C186.776 70.988 186.396 71.372 185.908 71.652C185.42 71.924 184.872 72.06 184.264 72.06ZM184.264 71.304C184.712 71.304 185.112 71.204 185.464 71.004C185.824 70.796 186.104 70.504 186.304 70.128C186.504 69.752 186.604 69.324 186.604 68.844C186.604 68.364 186.504 67.936 186.304 67.56C186.104 67.184 185.824 66.896 185.464 66.696C185.112 66.488 184.712 66.384 184.264 66.384C183.816 66.384 183.412 66.488 183.052 66.696C182.7 66.896 182.42 67.184 182.212 67.56C182.012 67.936 181.912 68.364 181.912 68.844C181.912 69.324 182.012 69.752 182.212 70.128C182.42 70.504 182.7 70.796 183.052 71.004C183.412 71.204 183.816 71.304 184.264 71.304ZM192.532 71.616C192.372 71.76 192.172 71.872 191.932 71.952C191.7 72.024 191.456 72.06 191.2 72.06C190.608 72.06 190.152 71.9 189.832 71.58C189.512 71.26 189.352 70.808 189.352 70.224V66.408H188.224V65.688H189.352V64.308H190.204V65.688H192.124V66.408H190.204V70.176C190.204 70.552 190.296 70.84 190.48 71.04C190.672 71.232 190.944 71.328 191.296 71.328C191.472 71.328 191.64 71.3 191.8 71.244C191.968 71.188 192.112 71.108 192.232 71.004L192.532 71.616ZM199.356 69.108H194.076C194.124 69.764 194.376 70.296 194.832 70.704C195.288 71.104 195.864 71.304 196.56 71.304C196.952 71.304 197.312 71.236 197.64 71.1C197.968 70.956 198.252 70.748 198.492 70.476L198.972 71.028C198.692 71.364 198.34 71.62 197.916 71.796C197.5 71.972 197.04 72.06 196.536 72.06C195.888 72.06 195.312 71.924 194.808 71.652C194.312 71.372 193.924 70.988 193.644 70.5C193.364 70.012 193.224 69.46 193.224 68.844C193.224 68.228 193.356 67.676 193.62 67.188C193.892 66.7 194.26 66.32 194.724 66.048C195.196 65.776 195.724 65.64 196.308 65.64C196.892 65.64 197.416 65.776 197.88 66.048C198.344 66.32 198.708 66.7 198.972 67.188C199.236 67.668 199.368 68.22 199.368 68.844L199.356 69.108ZM196.308 66.372C195.7 66.372 195.188 66.568 194.772 66.96C194.364 67.344 194.132 67.848 194.076 68.472H198.552C198.496 67.848 198.26 67.344 197.844 66.96C197.436 66.568 196.924 66.372 196.308 66.372ZM206.823 72.06C206.215 72.06 205.667 71.924 205.179 71.652C204.691 71.372 204.307 70.988 204.027 70.5C203.747 70.012 203.607 69.46 203.607 68.844C203.607 68.228 203.747 67.676 204.027 67.188C204.307 66.7 204.691 66.32 205.179 66.048C205.667 65.776 206.215 65.64 206.823 65.64C207.431 65.64 207.979 65.776 208.467 66.048C208.955 66.32 209.335 66.7 209.607 67.188C209.887 67.676 210.027 68.228 210.027 68.844C210.027 69.46 209.887 70.012 209.607 70.5C209.335 70.988 208.955 71.372 208.467 71.652C207.979 71.924 207.431 72.06 206.823 72.06ZM206.823 71.304C207.271 71.304 207.671 71.204 208.023 71.004C208.383 70.796 208.663 70.504 208.863 70.128C209.063 69.752 209.163 69.324 209.163 68.844C209.163 68.364 209.063 67.936 208.863 67.56C208.663 67.184 208.383 66.896 208.023 66.696C207.671 66.488 207.271 66.384 206.823 66.384C206.375 66.384 205.971 66.488 205.611 66.696C205.259 66.896 204.979 67.184 204.771 67.56C204.571 67.936 204.471 68.364 204.471 68.844C204.471 69.324 204.571 69.752 204.771 70.128C204.979 70.504 205.259 70.796 205.611 71.004C205.971 71.204 206.375 71.304 206.823 71.304ZM213.854 63.756C213.486 63.756 213.206 63.856 213.014 64.056C212.83 64.256 212.738 64.552 212.738 64.944V65.688H214.682V66.408H212.762V72H211.91V66.408H210.782V65.688H211.91V64.908C211.91 64.332 212.074 63.876 212.402 63.54C212.738 63.204 213.21 63.036 213.818 63.036C214.058 63.036 214.29 63.072 214.514 63.144C214.738 63.208 214.926 63.304 215.078 63.432L214.79 64.068C214.542 63.86 214.23 63.756 213.854 63.756ZM222.297 71.616C222.137 71.76 221.937 71.872 221.697 71.952C221.465 72.024 221.221 72.06 220.965 72.06C220.373 72.06 219.917 71.9 219.597 71.58C219.277 71.26 219.117 70.808 219.117 70.224V66.408H217.989V65.688H219.117V64.308H219.969V65.688H221.889V66.408H219.969V70.176C219.969 70.552 220.061 70.84 220.245 71.04C220.437 71.232 220.709 71.328 221.061 71.328C221.237 71.328 221.405 71.3 221.565 71.244C221.733 71.188 221.877 71.108 221.997 71.004L222.297 71.616ZM227.064 65.64C227.856 65.64 228.484 65.872 228.948 66.336C229.42 66.792 229.656 67.46 229.656 68.34V72H228.804V68.424C228.804 67.768 228.64 67.268 228.312 66.924C227.984 66.58 227.516 66.408 226.908 66.408C226.228 66.408 225.688 66.612 225.288 67.02C224.896 67.42 224.7 67.976 224.7 68.688V72H223.848V63.096H224.7V66.792C224.932 66.424 225.252 66.14 225.66 65.94C226.068 65.74 226.536 65.64 227.064 65.64ZM237.489 69.108H232.209C232.257 69.764 232.509 70.296 232.965 70.704C233.421 71.104 233.997 71.304 234.693 71.304C235.085 71.304 235.445 71.236 235.773 71.1C236.101 70.956 236.385 70.748 236.625 70.476L237.105 71.028C236.825 71.364 236.473 71.62 236.049 71.796C235.633 71.972 235.173 72.06 234.669 72.06C234.021 72.06 233.445 71.924 232.941 71.652C232.445 71.372 232.057 70.988 231.777 70.5C231.497 70.012 231.357 69.46 231.357 68.844C231.357 68.228 231.489 67.676 231.753 67.188C232.025 66.7 232.393 66.32 232.857 66.048C233.329 65.776 233.857 65.64 234.441 65.64C235.025 65.64 235.549 65.776 236.013 66.048C236.477 66.32 236.841 66.7 237.105 67.188C237.369 67.668 237.501 68.22 237.501 68.844L237.489 69.108ZM234.441 66.372C233.833 66.372 233.321 66.568 232.905 66.96C232.497 67.344 232.265 67.848 232.209 68.472H236.685C236.629 67.848 236.393 67.344 235.977 66.96C235.569 66.568 235.057 66.372 234.441 66.372ZM244.992 72.06C244.368 72.06 243.808 71.924 243.312 71.652C242.824 71.38 242.44 71 242.16 70.512C241.88 70.016 241.74 69.46 241.74 68.844C241.74 68.228 241.88 67.676 242.16 67.188C242.44 66.7 242.824 66.32 243.312 66.048C243.808 65.776 244.368 65.64 244.992 65.64C245.536 65.64 246.02 65.748 246.444 65.964C246.876 66.172 247.216 66.48 247.464 66.888L246.828 67.32C246.62 67.008 246.356 66.776 246.036 66.624C245.716 66.464 245.368 66.384 244.992 66.384C244.536 66.384 244.124 66.488 243.756 66.696C243.396 66.896 243.112 67.184 242.904 67.56C242.704 67.936 242.604 68.364 242.604 68.844C242.604 69.332 242.704 69.764 242.904 70.14C243.112 70.508 243.396 70.796 243.756 71.004C244.124 71.204 244.536 71.304 244.992 71.304C245.368 71.304 245.716 71.228 246.036 71.076C246.356 70.924 246.62 70.692 246.828 70.38L247.464 70.812C247.216 71.22 246.876 71.532 246.444 71.748C246.012 71.956 245.528 72.06 244.992 72.06ZM252.259 65.64C253.051 65.64 253.679 65.872 254.143 66.336C254.615 66.792 254.851 67.46 254.851 68.34V72H253.999V68.424C253.999 67.768 253.835 67.268 253.507 66.924C253.179 66.58 252.711 66.408 252.103 66.408C251.423 66.408 250.883 66.612 250.483 67.02C250.091 67.42 249.895 67.976 249.895 68.688V72H249.043V63.096H249.895V66.792C250.127 66.424 250.447 66.14 250.855 65.94C251.263 65.74 251.731 65.64 252.259 65.64ZM259.373 65.64C260.197 65.64 260.829 65.848 261.269 66.264C261.709 66.672 261.929 67.28 261.929 68.088V72H261.113V71.016C260.921 71.344 260.637 71.6 260.261 71.784C259.893 71.968 259.453 72.06 258.941 72.06C258.237 72.06 257.677 71.892 257.261 71.556C256.845 71.22 256.637 70.776 256.637 70.224C256.637 69.688 256.829 69.256 257.213 68.928C257.605 68.6 258.225 68.436 259.073 68.436H261.077V68.052C261.077 67.508 260.925 67.096 260.621 66.816C260.317 66.528 259.873 66.384 259.289 66.384C258.889 66.384 258.505 66.452 258.137 66.588C257.769 66.716 257.453 66.896 257.189 67.128L256.805 66.492C257.125 66.22 257.509 66.012 257.957 65.868C258.405 65.716 258.877 65.64 259.373 65.64ZM259.073 71.388C259.553 71.388 259.965 71.28 260.309 71.064C260.653 70.84 260.909 70.52 261.077 70.104V69.072H259.097C258.017 69.072 257.477 69.448 257.477 70.2C257.477 70.568 257.617 70.86 257.897 71.076C258.177 71.284 258.569 71.388 259.073 71.388ZM267.459 65.64C268.251 65.64 268.879 65.872 269.343 66.336C269.815 66.792 270.051 67.46 270.051 68.34V72H269.199V68.424C269.199 67.768 269.035 67.268 268.707 66.924C268.379 66.58 267.911 66.408 267.303 66.408C266.623 66.408 266.083 66.612 265.683 67.02C265.291 67.42 265.095 67.976 265.095 68.688V72H264.243V65.688H265.059V66.852C265.291 66.468 265.611 66.172 266.019 65.964C266.435 65.748 266.915 65.64 267.459 65.64ZM278.231 65.688V71.232C278.231 72.304 277.967 73.096 277.439 73.608C276.919 74.128 276.131 74.388 275.075 74.388C274.491 74.388 273.935 74.3 273.407 74.124C272.887 73.956 272.463 73.72 272.135 73.416L272.567 72.768C272.871 73.04 273.239 73.252 273.671 73.404C274.111 73.556 274.571 73.632 275.051 73.632C275.851 73.632 276.439 73.444 276.815 73.068C277.191 72.7 277.379 72.124 277.379 71.34V70.536C277.115 70.936 276.767 71.24 276.335 71.448C275.911 71.656 275.439 71.76 274.919 71.76C274.327 71.76 273.787 71.632 273.299 71.376C272.819 71.112 272.439 70.748 272.159 70.284C271.887 69.812 271.751 69.28 271.751 68.688C271.751 68.096 271.887 67.568 272.159 67.104C272.439 66.64 272.819 66.28 273.299 66.024C273.779 65.768 274.319 65.64 274.919 65.64C275.455 65.64 275.939 65.748 276.371 65.964C276.803 66.18 277.151 66.492 277.415 66.9V65.688H278.231ZM275.003 71.004C275.459 71.004 275.871 70.908 276.239 70.716C276.607 70.516 276.891 70.24 277.091 69.888C277.299 69.536 277.403 69.136 277.403 68.688C277.403 68.24 277.299 67.844 277.091 67.5C276.891 67.148 276.607 66.876 276.239 66.684C275.879 66.484 275.467 66.384 275.003 66.384C274.547 66.384 274.135 66.48 273.767 66.672C273.407 66.864 273.123 67.136 272.915 67.488C272.715 67.84 272.615 68.24 272.615 68.688C272.615 69.136 272.715 69.536 272.915 69.888C273.123 70.24 273.407 70.516 273.767 70.716C274.135 70.908 274.547 71.004 275.003 71.004ZM286.11 69.108H280.83C280.878 69.764 281.13 70.296 281.586 70.704C282.042 71.104 282.618 71.304 283.314 71.304C283.706 71.304 284.066 71.236 284.394 71.1C284.722 70.956 285.006 70.748 285.246 70.476L285.726 71.028C285.446 71.364 285.094 71.62 284.67 71.796C284.254 71.972 283.794 72.06 283.29 72.06C282.642 72.06 282.066 71.924 281.562 71.652C281.066 71.372 280.678 70.988 280.398 70.5C280.118 70.012 279.978 69.46 279.978 68.844C279.978 68.228 280.11 67.676 280.374 67.188C280.646 66.7 281.014 66.32 281.478 66.048C281.95 65.776 282.478 65.64 283.062 65.64C283.646 65.64 284.17 65.776 284.634 66.048C285.098 66.32 285.462 66.7 285.726 67.188C285.99 67.668 286.122 68.22 286.122 68.844L286.11 69.108ZM283.062 66.372C282.454 66.372 281.942 66.568 281.526 66.96C281.118 67.344 280.886 67.848 280.83 68.472H285.306C285.25 67.848 285.014 67.344 284.598 66.96C284.19 66.568 283.678 66.372 283.062 66.372ZM289.548 72.06C289.036 72.06 288.544 71.988 288.072 71.844C287.608 71.692 287.244 71.504 286.98 71.28L287.364 70.608C287.628 70.816 287.96 70.988 288.36 71.124C288.76 71.252 289.176 71.316 289.608 71.316C290.184 71.316 290.608 71.228 290.88 71.052C291.16 70.868 291.3 70.612 291.3 70.284C291.3 70.052 291.224 69.872 291.072 69.744C290.92 69.608 290.728 69.508 290.496 69.444C290.264 69.372 289.956 69.304 289.572 69.24C289.06 69.144 288.648 69.048 288.336 68.952C288.024 68.848 287.756 68.676 287.532 68.436C287.316 68.196 287.208 67.864 287.208 67.44C287.208 66.912 287.428 66.48 287.868 66.144C288.308 65.808 288.92 65.64 289.704 65.64C290.112 65.64 290.52 65.696 290.928 65.808C291.336 65.912 291.672 66.052 291.936 66.228L291.564 66.912C291.044 66.552 290.424 66.372 289.704 66.372C289.16 66.372 288.748 66.468 288.468 66.66C288.196 66.852 288.06 67.104 288.06 67.416C288.06 67.656 288.136 67.848 288.288 67.992C288.448 68.136 288.644 68.244 288.876 68.316C289.108 68.38 289.428 68.448 289.836 68.52C290.34 68.616 290.744 68.712 291.048 68.808C291.352 68.904 291.612 69.068 291.828 69.3C292.044 69.532 292.152 69.852 292.152 70.26C292.152 70.812 291.92 71.252 291.456 71.58C291 71.9 290.364 72.06 289.548 72.06Z" fill="#66429C"/>
</svg>
