<svg width="408" height="390" viewBox="0 0 408 390" fill="none" xmlns="http://www.w3.org/2000/svg">
<path d="M376.328 36.686C355.197 13.028 326.115 0 294.437 0C269.672 0 242.962 14.7337 223.446 25.4995L223.443 25.501C216.338 29.423 206.622 34.785 203.75 35.138C200.893 34.7912 191.239 29.4505 184.152 25.5303L184.137 25.522C164.67 14.751 138.009 0 113.068 0C81.389 0 52.306 13.028 31.174 36.686C11.071 59.193 0 88.819 0 120.106C0 164.801 16.05 228.361 42.933 290.135C54.893 317.619 67.624 341.368 79.749 358.815C94.181 379.581 106.566 389.674 117.613 389.674C122.515 389.674 131.491 387.595 136.527 373.667C141.421 360.133 145.823 344.598 150.491 328.12L150.494 328.11C162.847 284.506 178.221 230.242 202.971 230.242H204.534C215.539 230.242 225.39 239.668 234.649 259.06C243.818 278.263 250.79 303.797 257.541 328.523L257.547 328.545C262.01 344.896 266.227 360.337 270.963 373.63C275.897 387.472 284.772 389.542 289.629 389.545C300.621 389.544 312.994 379.296 327.457 358.216C339.551 340.59 352.309 316.605 364.352 288.855C391.372 226.584 407.504 163.501 407.504 120.105C407.504 88.818 396.432 59.192 376.328 36.686ZM286.797 68.77C286.79 68.7696 286.767 68.7683 286.726 68.7661C285.211 68.6858 260.346 67.3673 237.658 61.359C227.154 58.578 214.734 52.99 214.734 51.332C214.734 49.718 228.228 41.861 231.482 40.065L231.489 40.0613C249.412 30.1736 273.954 16.635 294.437 16.635C354.798 16.635 390.869 69.244 390.869 120.106C390.869 160.726 374.861 222.85 349.09 282.232C337.633 308.636 325.078 332.279 313.74 348.804C300.658 367.871 292.193 373.414 289.629 372.909C288.238 372.634 287.923 371.731 287.024 369.153C286.906 368.813 286.777 368.444 286.635 368.044C282.104 355.332 277.967 340.181 273.588 324.14L273.57 324.073C266.637 298.684 259.47 272.435 249.66 251.89C237.359 226.128 222.598 213.605 204.534 213.605H202.971C185.57 213.605 171.15 226.028 158.89 251.583C149.104 271.98 141.672 298.214 134.486 323.585L134.463 323.666C129.891 339.801 125.573 355.043 120.884 368.009C120.728 368.439 120.589 368.847 120.458 369.23C119.715 371.402 119.24 372.791 117.613 373.038C116.113 373.266 109.706 372.769 93.409 349.32C82.063 332.995 69.554 309.618 58.186 283.496C32.556 224.602 16.635 161.995 16.635 120.105C16.635 69.243 52.706 16.634 113.068 16.634C128.758 16.634 149.377 23.783 168.223 35.758C170.987 37.515 174.879 40.506 178.643 43.4C180.145 44.555 181.625 45.692 183.003 46.729C187.421 50.038 193.391 54.365 200.401 58.492L200.417 58.5015C203.403 60.2639 207.116 62.455 211.059 64.128C226.164 70.54 242.18 73.791 258.661 73.791C275.454 73.791 286.749 70.804 286.86 70.769C286.86 70.769 289.387 70.101 289.307 69.444C289.227 68.787 286.797 68.77 286.797 68.77Z" fill="black"/>
<path d="M376.328 36.686C355.197 13.028 326.115 0 294.437 0C269.672 0 242.962 14.7337 223.446 25.4995L223.443 25.501C216.338 29.423 206.622 34.785 203.75 35.138C200.893 34.7912 191.239 29.4505 184.152 25.5303L184.137 25.522C164.67 14.751 138.009 0 113.068 0C81.389 0 52.306 13.028 31.174 36.686C11.071 59.193 0 88.819 0 120.106C0 164.801 16.05 228.361 42.933 290.135C54.893 317.619 67.624 341.368 79.749 358.815C94.181 379.581 106.566 389.674 117.613 389.674C122.515 389.674 131.491 387.595 136.527 373.667C141.421 360.133 145.823 344.598 150.491 328.12L150.494 328.11C162.847 284.506 178.221 230.242 202.971 230.242H204.534C215.539 230.242 225.39 239.668 234.649 259.06C243.818 278.263 250.79 303.797 257.541 328.523L257.547 328.545C262.01 344.896 266.227 360.337 270.963 373.63C275.897 387.472 284.772 389.542 289.629 389.545C300.621 389.544 312.994 379.296 327.457 358.216C339.551 340.59 352.309 316.605 364.352 288.855C391.372 226.584 407.504 163.501 407.504 120.105C407.504 88.818 396.432 59.192 376.328 36.686ZM286.797 68.77C286.79 68.7696 286.767 68.7683 286.726 68.7661C285.211 68.6858 260.346 67.3673 237.658 61.359C227.154 58.578 214.734 52.99 214.734 51.332C214.734 49.718 228.228 41.861 231.482 40.065L231.489 40.0613C249.412 30.1736 273.954 16.635 294.437 16.635C354.798 16.635 390.869 69.244 390.869 120.106C390.869 160.726 374.861 222.85 349.09 282.232C337.633 308.636 325.078 332.279 313.74 348.804C300.658 367.871 292.193 373.414 289.629 372.909C288.238 372.634 287.923 371.731 287.024 369.153C286.906 368.813 286.777 368.444 286.635 368.044C282.104 355.332 277.967 340.181 273.588 324.14L273.57 324.073C266.637 298.684 259.47 272.435 249.66 251.89C237.359 226.128 222.598 213.605 204.534 213.605H202.971C185.57 213.605 171.15 226.028 158.89 251.583C149.104 271.98 141.672 298.214 134.486 323.585L134.463 323.666C129.891 339.801 125.573 355.043 120.884 368.009C120.728 368.439 120.589 368.847 120.458 369.23C119.715 371.402 119.24 372.791 117.613 373.038C116.113 373.266 109.706 372.769 93.409 349.32C82.063 332.995 69.554 309.618 58.186 283.496C32.556 224.602 16.635 161.995 16.635 120.105C16.635 69.243 52.706 16.634 113.068 16.634C128.758 16.634 149.377 23.783 168.223 35.758C170.987 37.515 174.879 40.506 178.643 43.4C180.145 44.555 181.625 45.692 183.003 46.729C187.421 50.038 193.391 54.365 200.401 58.492L200.417 58.5015C203.403 60.2639 207.116 62.455 211.059 64.128C226.164 70.54 242.18 73.791 258.661 73.791C275.454 73.791 286.749 70.804 286.86 70.769C286.86 70.769 289.387 70.101 289.307 69.444C289.227 68.787 286.797 68.77 286.797 68.77Z" stroke="black"/>
</svg>
