<svg width="350" height="350" viewBox="0 0 350 350" fill="none" xmlns="http://www.w3.org/2000/svg">
<path d="M177.618 334.327C268.581 334.327 342.321 291.751 342.321 239.232C342.321 186.712 268.581 144.137 177.618 144.137C86.6551 144.137 12.915 186.712 12.915 239.232C12.915 291.751 86.6551 334.327 177.618 334.327Z" fill="#F5F5F5"/>
<path d="M286.216 285.866C312.021 285.866 332.941 273.788 332.941 258.888C332.941 243.989 312.021 231.91 286.216 231.91C260.41 231.91 239.491 243.989 239.491 258.888C239.491 273.788 260.41 285.866 286.216 285.866Z" fill="#E0E0E0"/>
<path d="M167.965 273.441L115.255 242.998L175.504 208.215L228.221 238.651L167.965 273.441Z" fill="#E0E0E0"/>
<path d="M24.437 264.026L92.421 303.275L149.443 270.361L81.459 231.112L24.437 264.026Z" fill="#E0E0E0"/>
<path d="M124.964 79.541V75.677C124.935 75.4538 124.849 75.2418 124.714 75.0615C124.579 74.8813 124.4 74.7389 124.194 74.648L100.863 61.264C100.307 60.9845 99.6932 60.839 99.0709 60.839C98.4486 60.839 97.8349 60.9845 97.2789 61.264L30.2259 99.764C30.0199 99.8549 29.8408 99.9973 29.706 100.178C29.5711 100.358 29.485 100.57 29.4559 100.793V104.657C29.4843 104.881 29.5702 105.093 29.7051 105.273C29.8401 105.454 30.0195 105.596 30.2259 105.686L53.5499 119.049C54.1059 119.329 54.7196 119.474 55.3419 119.474C55.9642 119.474 56.5779 119.329 57.1339 119.049L124.187 80.549C124.393 80.4588 124.573 80.3165 124.708 80.1362C124.843 79.9558 124.929 79.7435 124.957 79.52L124.964 79.541Z" fill="#F0F0F0"/>
<path d="M30.226 101.801L53.55 115.185C54.105 115.468 54.7191 115.615 55.342 115.615C55.9649 115.615 56.5789 115.468 57.134 115.185L124.187 76.685C125.174 76.118 125.174 75.201 124.187 74.627L100.863 61.264C100.307 60.9845 99.6933 60.839 99.071 60.839C98.4487 60.839 97.835 60.9845 97.279 61.264L30.226 99.764C29.239 100.317 29.239 101.234 30.226 101.801Z" fill="#FAFAFA"/>
<path d="M55.3419 115.619V119.476C54.7184 119.485 54.1024 119.338 53.5499 119.049L30.2259 105.7C30.0195 105.61 29.8401 105.468 29.7051 105.287C29.5702 105.107 29.4843 104.895 29.4559 104.671V100.8C29.4696 100.644 29.52 100.492 29.6029 100.359C29.3299 100.856 29.5329 101.43 30.2259 101.829L53.5499 115.192C54.1009 115.485 54.7179 115.632 55.3419 115.619Z" fill="#E0E0E0"/>
<path d="M67.8719 82.971L87.6329 94.234L120.274 75.502L100.52 64.232L67.8719 82.971Z" fill="#E0E0E0"/>
<path d="M87.8569 93.38L68.7959 82.439C69.2912 80.823 69.2544 79.0906 68.6909 77.497L87.6329 88.319C87.6329 88.319 87.9969 89.516 87.8569 93.38Z" fill="white"/>
<path d="M86.6599 86.8C87.1919 87.1437 87.6352 87.6081 87.9539 88.1555C88.2726 88.7028 88.4576 89.3177 88.4939 89.95V93.632C88.4939 94.794 87.6679 95.263 86.6599 94.689L67.8999 83.881V82.971L86.4359 93.541C87.0449 93.891 87.5349 93.604 87.5349 92.911V89.495C87.5138 89.1156 87.4033 88.7466 87.2123 88.4181C87.0213 88.0896 86.7552 87.811 86.4359 87.605L67.8999 77V75.964L86.6599 86.8Z" fill="#EBEBEB"/>
<path d="M67.8999 75.999L100.52 57.26L119.301 68.04C119.834 68.384 120.278 68.8494 120.597 69.3982C120.916 69.9469 121.1 70.5633 121.135 71.197V74.9C121.16 75.1264 121.123 75.3554 121.028 75.5625C120.933 75.7695 120.784 75.947 120.596 76.076L87.9549 94.815C88.1392 94.6831 88.2854 94.5049 88.3788 94.2984C88.4723 94.092 88.5095 93.8645 88.4869 93.639V89.95C88.4528 89.3171 88.2688 88.7015 87.9499 88.1538C87.631 87.6061 87.1864 87.142 86.6529 86.8L67.8999 75.999Z" fill="#FAFAFA"/>
<path d="M87.955 88.137C88.2877 88.6772 88.4735 89.2949 88.494 89.929V93.618C88.5166 93.8435 88.4793 94.071 88.3859 94.2775C88.2925 94.484 88.1463 94.6621 87.962 94.794L120.603 76.055C120.791 75.926 120.94 75.7486 121.035 75.5415C121.13 75.3344 121.167 75.1055 121.142 74.879V71.197C121.122 70.5629 120.936 69.9452 120.603 69.405L87.955 88.137Z" fill="#F0F0F0"/>
<path d="M47.782 54.936L47.593 57.428L69.657 69.265L70.154 67.809L47.782 54.936Z" fill="#EBEBEB"/>
<path d="M69.86 68.39L48.489 56.056L44.772 58.198L66.563 70.945L69.86 68.39Z" fill="white"/>
<path d="M62.552 69.622L60.452 94.388C60.4624 94.6676 60.5396 94.9406 60.6772 95.1842C60.8148 95.4278 61.0089 95.6349 61.243 95.788L73.64 102.963C73.8378 103.072 74.0582 103.135 74.284 103.145L66.584 71.778C66.3594 71.7657 66.14 71.7061 65.94 71.603L65.051 71.085L62.552 69.622Z" fill="#E0E0E0"/>
<path d="M67.5079 71.575L69.7199 69.678L71.3369 68.278C71.5049 68.012 71.7009 67.816 71.5959 67.578L79.1979 98.714C79.3029 98.931 79.3309 99.414 79.0299 99.596L75.2009 102.872C74.9111 103.026 74.582 103.089 74.2559 103.054L66.5559 71.687C66.8774 71.7425 67.2081 71.7036 67.5079 71.575Z" fill="#F0F0F0"/>
<path d="M71.344 67.375C71.778 67.627 71.673 67.907 71.344 68.285L67.508 71.568C67.2638 71.6956 66.9924 71.7622 66.717 71.7622C66.4415 71.7622 66.1701 71.6956 65.926 71.568L62.552 69.622C62.111 69.37 62.034 69.006 62.377 68.81C62.6024 68.7186 62.8457 68.6799 63.0883 68.6969C63.331 68.7139 63.5665 68.7861 63.777 68.908L66.437 70.448C66.5184 70.4892 66.6083 70.5107 66.6995 70.5107C66.7907 70.5107 66.8806 70.4892 66.962 70.448L69.762 68.012C69.909 67.928 69.909 67.795 69.762 67.711L47.782 54.936L48.832 54.327L71.344 67.375Z" fill="#FAFAFA"/>
<path d="M41.4119 56.133L62.4329 68.271V108.269L41.4119 96.124V56.133Z" fill="#EBEBEB"/>
<path d="M61.7538 68.936L41.4118 57.26C40.1677 58.579 38.5384 59.4709 36.7568 59.808L56.9308 71.435C56.9308 71.435 58.2328 71.127 61.7538 68.936Z" fill="white"/>
<path d="M54.9779 71.4C55.5841 71.7037 56.2528 71.8618 56.9309 71.8618C57.6089 71.8618 58.2776 71.7037 58.8839 71.4L62.2999 69.398C63.3779 68.775 63.3779 67.774 62.2999 67.151L42.2589 55.643L41.4119 56.133L61.1309 67.522C61.2763 67.5644 61.404 67.6528 61.4949 67.774C61.5857 67.8952 61.6349 68.0425 61.6349 68.194C61.6349 68.3455 61.5857 68.4928 61.4949 68.614C61.404 68.7352 61.2763 68.8236 61.1309 68.866L57.9459 70.7C57.582 70.8828 57.1805 70.9781 56.7734 70.9781C56.3662 70.9781 55.9647 70.8828 55.6009 70.7L35.8889 59.304L34.9229 59.857L54.9779 71.4Z" fill="#FAFAFA"/>
<path d="M34.9298 59.857V99.848L54.9778 111.356C55.5841 111.66 56.2528 111.818 56.9308 111.818C57.6089 111.818 58.2776 111.66 58.8838 111.356L62.3138 109.389C62.5368 109.291 62.7291 109.134 62.8708 108.936C63.0124 108.738 63.0981 108.505 63.1188 108.262V68.271C63.0971 68.5145 63.0093 68.7475 62.865 68.9449C62.7207 69.1422 62.5253 69.2965 62.2998 69.391L58.8838 71.4C58.2776 71.7036 57.6089 71.8618 56.9308 71.8618C56.2528 71.8618 55.5841 71.7036 54.9778 71.4L34.9298 59.857Z" fill="#EBEBEB"/>
<path d="M56.9309 71.827C57.6104 71.8404 58.2823 71.6814 58.8839 71.365L62.2999 69.391C62.5227 69.2945 62.7153 69.1393 62.857 68.9421C62.9987 68.7449 63.0844 68.513 63.1049 68.271V108.262C63.0842 108.505 62.9985 108.738 62.8568 108.936C62.7152 109.134 62.5228 109.291 62.2999 109.389L58.8699 111.356C58.2683 111.672 57.5964 111.831 56.9169 111.818L56.9309 71.827Z" fill="#F0F0F0"/>
<path d="M225.799 217C225.694 215.229 225.456 213.108 225.169 210.644C224.098 201.292 222.635 188.482 226.513 176.211C228.872 168.742 234.556 159.887 243.432 157.43C245.406 156.884 250.18 156.079 252.014 160.314C252.272 160.926 252.426 161.576 252.469 162.239C252.658 164.927 251.447 167.3 250.103 169.463C248.556 171.976 246.764 174.363 245.028 176.687C243.39 178.885 241.689 181.153 240.205 183.505C238.602 186.061 237.198 188.735 236.005 191.506L235.438 191.261C236.629 188.462 238.033 185.759 239.638 183.176C241.129 180.803 242.837 178.521 244.489 176.316C246.211 174.006 247.989 171.626 249.529 169.141C250.817 167.041 251.979 164.794 251.804 162.281C251.766 161.688 251.629 161.106 251.398 160.559C249.76 156.772 245.364 157.528 243.551 158.025C234.913 160.419 229.362 169.085 227.052 176.393C223.216 188.545 224.672 201.278 225.736 210.574C226.016 213.045 226.261 215.18 226.366 216.965L225.799 217Z" fill="#9269AD"/>
<path d="M226.429 227.178C226.383 227.185 226.335 227.185 226.289 227.178C226.155 227.152 226.028 227.094 225.92 227.011C225.812 226.927 225.725 226.819 225.666 226.695C225.544 226.348 225.544 225.971 225.666 225.624C225.765 224.953 225.765 224.272 225.666 223.601C225.666 223.223 225.603 222.824 225.603 222.467V218.12C226.162 210.311 228.45 202.725 232.302 195.909C235.718 189.966 239.498 186.011 244.202 183.449C246.738 182.056 249.519 181.164 252.392 180.824C254.929 180.544 257.479 181.217 259.546 182.714C261.681 184.401 262.64 187.292 261.835 189.581C261.268 191.184 259.973 192.381 258.65 193.466C256.291 195.391 253.715 197.113 251.23 198.779C249.165 200.179 247.03 201.579 245.035 203.119C238.931 207.83 233.811 213.692 229.964 220.374C229.334 221.459 228.739 222.579 228.193 223.699L227.969 224.14C227.751 224.54 227.559 224.954 227.395 225.379C227.36 225.47 227.325 225.659 227.276 225.876C227.24 226.275 227.114 226.661 226.905 227.003C226.774 227.119 226.604 227.181 226.429 227.178ZM253.4 181.405C253.085 181.405 252.77 181.405 252.448 181.447C249.659 181.772 246.961 182.638 244.503 183.995C239.911 186.494 236.208 190.379 232.848 196.217C229.048 202.948 226.789 210.438 226.233 218.148V222.453C226.233 222.789 226.233 223.153 226.296 223.538C226.409 224.271 226.409 225.017 226.296 225.75C226.221 225.977 226.221 226.223 226.296 226.45C226.314 226.485 226.34 226.516 226.371 226.541C226.403 226.565 226.439 226.582 226.478 226.59C226.603 226.331 226.688 226.055 226.73 225.771C226.763 225.577 226.81 225.385 226.87 225.197C227.041 224.747 227.242 224.31 227.472 223.888L227.689 223.454C228.249 222.32 228.851 221.193 229.481 220.094C230.79 217.829 232.242 215.65 233.828 213.57C236.964 209.473 240.624 205.804 244.713 202.657C246.729 201.117 248.871 199.682 250.943 198.296C253.421 196.637 255.976 194.922 258.321 193.018C259.567 192.003 260.792 190.862 261.31 189.406C262.01 187.355 261.149 184.758 259.21 183.225C257.536 181.977 255.487 181.335 253.4 181.405Z" fill="#9269AD"/>
<path d="M225.904 221.2H225.827C225.788 221.191 225.75 221.174 225.718 221.15C225.685 221.127 225.657 221.097 225.636 221.062C225.615 221.027 225.602 220.989 225.596 220.949C225.59 220.909 225.593 220.868 225.603 220.829C231.378 197.799 247.345 187.523 255.871 185.08C255.949 185.058 256.032 185.068 256.103 185.107C256.174 185.147 256.226 185.212 256.249 185.29C256.271 185.369 256.261 185.453 256.222 185.525C256.183 185.597 256.117 185.651 256.039 185.675C247.639 188.076 231.91 198.219 226.205 220.976C226.186 221.041 226.146 221.097 226.092 221.138C226.037 221.178 225.972 221.2 225.904 221.2Z" fill="#9269AD"/>
<path d="M225.869 202.3C225.787 202.293 225.71 202.254 225.657 202.191C225.603 202.128 225.576 202.046 225.582 201.964C227.423 177.093 243.691 163.464 245.539 162.001C245.57 161.975 245.607 161.955 245.646 161.943C245.685 161.931 245.726 161.928 245.767 161.932C245.807 161.937 245.846 161.95 245.882 161.97C245.917 161.99 245.948 162.017 245.973 162.05C245.998 162.082 246.017 162.118 246.029 162.157C246.04 162.196 246.043 162.237 246.039 162.277C246.034 162.317 246.022 162.357 246.002 162.392C245.982 162.427 245.956 162.459 245.924 162.484C244.097 163.933 228.018 177.401 226.205 202.013C226.196 202.095 226.157 202.17 226.094 202.223C226.032 202.277 225.951 202.304 225.869 202.3Z" fill="#9269AD"/>
<path d="M223.93 115.563L185.003 93.1C184.702 92.8839 184.349 92.7513 183.98 92.7156C183.612 92.68 183.24 92.7425 182.903 92.897L180.103 94.514C179.795 94.7283 179.55 95.0212 179.394 95.3622C179.238 95.7032 179.175 96.0798 179.214 96.453V203C179.271 204.038 179.572 205.048 180.093 205.948C180.613 206.848 181.339 207.613 182.21 208.18L221.13 230.615C221.43 230.832 221.783 230.966 222.152 231.003C222.521 231.04 222.893 230.978 223.23 230.825L226.03 229.201C226.334 228.986 226.576 228.693 226.729 228.354C226.883 228.014 226.944 227.64 226.905 227.269V120.743C226.851 119.707 226.553 118.698 226.036 117.798C225.519 116.898 224.798 116.132 223.93 115.563Z" fill="#263238"/>
<path d="M187.6 204.827L184.8 206.444V215.306C184.814 215.566 184.889 215.818 185.019 216.043C185.15 216.268 185.331 216.459 185.549 216.601L186.858 217.357C187.09 217.474 187.347 217.536 187.607 217.536C187.867 217.536 188.124 217.474 188.356 217.357L189.665 216.601C190.13 216.301 190.49 215.863 190.694 215.348L193.221 208.068L187.6 204.827Z" fill="#263238"/>
<path d="M184.8 215.306C184.814 215.566 184.889 215.818 185.019 216.043C185.15 216.268 185.331 216.459 185.549 216.601L186.858 217.357C186.948 217.412 187.05 217.445 187.155 217.455C187.261 217.465 187.367 217.451 187.466 217.414C187.565 217.377 187.654 217.318 187.727 217.241C187.8 217.165 187.855 217.073 187.887 216.972L190.4 209.685L184.8 206.444V215.306Z" fill="#37474F"/>
<path d="M215.684 220.99L212.884 222.614V231.469C212.897 231.729 212.971 231.982 213.1 232.209C213.228 232.435 213.409 232.627 213.626 232.771L214.942 233.527C215.173 233.644 215.428 233.706 215.687 233.706C215.947 233.706 216.202 233.644 216.433 233.527L217.749 232.771C218.214 232.471 218.574 232.033 218.778 231.518L221.298 224.231L215.684 220.99Z" fill="#263238"/>
<path d="M212.884 231.469C212.897 231.729 212.971 231.982 213.1 232.209C213.228 232.435 213.409 232.627 213.626 232.771L214.942 233.527C215.032 233.582 215.134 233.615 215.239 233.625C215.345 233.635 215.451 233.621 215.55 233.584C215.649 233.547 215.738 233.488 215.811 233.411C215.884 233.335 215.939 233.243 215.971 233.142L218.498 225.855L212.898 222.614L212.884 231.469Z" fill="#37474F"/>
<path d="M182.392 94.801L221.312 117.201C222.183 117.77 222.909 118.536 223.429 119.437C223.95 120.338 224.251 121.349 224.308 122.388V228.935C224.382 229.309 224.337 229.697 224.179 230.045C224.022 230.392 223.759 230.681 223.429 230.872C223.099 231.063 222.717 231.145 222.337 231.108C221.957 231.071 221.599 230.915 221.312 230.664L182.392 208.222C181.522 207.654 180.797 206.89 180.278 205.989C179.759 205.089 179.459 204.08 179.403 203.042V96.523C179.328 96.1494 179.372 95.7617 179.53 95.4147C179.687 95.0676 179.949 94.7786 180.279 94.5884C180.609 94.3982 180.991 94.3164 181.37 94.3545C181.749 94.3927 182.106 94.5488 182.392 94.801Z" fill="#37474F"/>
<path d="M125.874 240.436L167.972 264.74L226.912 230.713L224.105 229.089L182.007 204.785L125.874 237.195V240.436Z" fill="#455A64"/>
<path d="M167.972 264.74V261.499L226.912 227.472V230.713L167.972 264.74Z" fill="#263238"/>
<path d="M168.238 260.022L167.811 259.735C175.28 248.43 175.231 228.9 174.622 224C174.573 223.671 174.538 223.468 174.531 223.391L175.042 223.307C175.042 223.461 175.098 223.643 175.126 223.86C175.672 227.325 178.759 246.148 182.413 251.86L181.979 252.14C179.088 247.653 176.617 235.543 175.378 228.557C175.455 236.488 174.3 250.901 168.238 260.022Z" fill="#FAFAFA"/>
<path d="M192.822 242.76C192.185 242.571 177.303 238.063 175.931 231.497L176.442 231.392C177.744 237.657 192.815 242.221 192.969 242.27L192.822 242.76Z" fill="#FAFAFA"/>
<path d="M177.8 240.1L177.422 238.497C177.37 238.203 177.22 237.934 176.996 237.736C176.773 237.538 176.488 237.421 176.19 237.405C175.943 237.369 175.692 237.409 175.469 237.521C175.246 237.632 175.063 237.809 174.944 238.028L174.461 237.825C174.623 237.505 174.88 237.243 175.197 237.075C175.515 236.907 175.876 236.841 176.232 236.887C176.489 236.903 176.741 236.974 176.969 237.095C177.197 237.215 177.397 237.383 177.555 237.587C177.639 236.923 177.978 236.318 178.5 235.9C178.698 235.797 178.919 235.746 179.142 235.753C179.366 235.761 179.583 235.826 179.774 235.942L179.543 236.404C179.426 236.329 179.292 236.285 179.154 236.276C179.015 236.268 178.877 236.295 178.752 236.355C178.157 236.691 177.926 237.986 177.891 238.455L177.8 240.1Z" fill="#FAFAFA"/>
<path d="M179.263 245.441L178.801 243.985C178.276 242.34 177.401 241.395 176.365 241.332C175.932 241.324 175.506 241.442 175.139 241.672C174.773 241.902 174.481 242.234 174.3 242.627L173.831 242.403C174.052 241.911 174.415 241.497 174.872 241.211C175.329 240.926 175.861 240.783 176.4 240.8C177.023 240.835 178.094 241.171 178.892 242.795C179.067 241.514 179.592 239.456 180.943 238.595C181.428 238.329 181.973 238.193 182.526 238.199C183.079 238.205 183.621 238.354 184.1 238.63L183.883 239.099C183.482 238.862 183.027 238.731 182.561 238.72C182.095 238.709 181.635 238.818 181.223 239.036C179.424 240.156 179.305 243.859 179.305 243.901L179.263 245.441Z" fill="#FAFAFA"/>
<path d="M172.942 248.997L172.48 248.759C173.516 246.764 175.791 245.329 177.765 245.427C178.184 245.432 178.596 245.531 178.972 245.716C179.347 245.901 179.676 246.169 179.935 246.498C180.125 245.491 180.517 244.532 181.087 243.681C181.657 242.829 182.394 242.101 183.253 241.542C184.175 240.93 185.238 240.565 186.342 240.483C187.445 240.401 188.551 240.604 189.553 241.073L189.35 241.542C188.427 241.115 187.41 240.93 186.396 241.006C185.381 241.082 184.403 241.416 183.554 241.976C182.646 242.564 181.888 243.357 181.341 244.29C180.794 245.224 180.473 246.272 180.404 247.352V248.675L179.914 247.443C179.752 247.005 179.46 246.627 179.077 246.359C178.694 246.092 178.239 245.947 177.772 245.945C175.959 245.854 173.894 247.17 172.942 248.997Z" fill="#FAFAFA"/>
<path d="M170.1 256.725L169.645 256.473C170.275 255.325 173.628 249.557 177.597 248.514C178.157 248.353 178.745 248.313 179.322 248.397C179.898 248.48 180.451 248.685 180.943 248.997L180.677 249.438C180.243 249.164 179.757 248.984 179.249 248.911C178.741 248.837 178.224 248.871 177.73 249.011C174.818 249.781 171.808 253.645 170.1 256.725Z" fill="#FAFAFA"/>
<path d="M221.298 195.062V198.303L167.972 229.089L125.874 204.785V201.544L179.2 170.758L221.298 195.062Z" fill="#263238"/>
<path d="M221.298 195.062L167.972 225.848L125.874 201.544L179.2 170.758L221.298 195.062Z" fill="#455A64"/>
<path d="M221.298 159.418V162.652L167.972 193.445L125.874 169.134V165.9L179.2 135.107L221.298 159.418Z" fill="#263238"/>
<path d="M221.298 159.418L167.972 190.204L125.874 165.9L179.2 135.107L221.298 159.418Z" fill="#455A64"/>
<path d="M167.79 147.931L128.87 125.496C128.57 125.279 128.217 125.145 127.848 125.108C127.479 125.071 127.107 125.133 126.77 125.286C126.266 125.573 124.474 126.616 123.97 126.903C123.663 127.118 123.42 127.411 123.265 127.752C123.11 128.093 123.049 128.47 123.088 128.842V235.361C123.145 236.399 123.446 237.409 123.967 238.309C124.487 239.209 125.213 239.974 126.084 240.541L165.004 262.983C165.304 263.2 165.657 263.334 166.026 263.371C166.395 263.408 166.767 263.346 167.104 263.193C167.608 262.899 169.414 261.863 169.904 261.562C170.212 261.349 170.458 261.058 170.615 260.718C170.773 260.378 170.836 260.003 170.8 259.63V153.118C170.742 152.077 170.44 151.065 169.917 150.164C169.393 149.262 168.665 148.497 167.79 147.931Z" fill="#263238"/>
<path opacity="0.2" d="M167.972 164.283L170.786 162.659V152.929L167.965 154.553L167.972 164.283Z" fill="black"/>
<path opacity="0.2" d="M224.112 131.873L226.926 130.256V120.526L224.105 122.15L224.112 131.873Z" fill="black"/>
<path d="M131.488 237.195L128.688 238.812V247.674C128.702 247.934 128.777 248.186 128.908 248.411C129.038 248.636 129.219 248.827 129.437 248.969L130.746 249.725C130.978 249.842 131.235 249.904 131.495 249.904C131.755 249.904 132.012 249.842 132.244 249.725L133.553 248.969C134.016 248.67 134.376 248.235 134.582 247.723L137.109 240.436L131.488 237.195Z" fill="#263238"/>
<path d="M128.681 247.674C128.695 247.934 128.77 248.186 128.9 248.411C129.031 248.636 129.212 248.827 129.43 248.969L130.739 249.725C130.829 249.78 130.931 249.813 131.036 249.823C131.142 249.833 131.248 249.819 131.347 249.782C131.446 249.745 131.535 249.686 131.608 249.609C131.681 249.533 131.736 249.441 131.768 249.34L134.295 242.053L128.695 238.812L128.681 247.674Z" fill="#37474F"/>
<path d="M159.551 253.4L156.751 255.017V263.879C156.764 264.138 156.838 264.39 156.967 264.616C157.096 264.841 157.276 265.032 157.493 265.174L158.809 265.93C159.04 266.047 159.295 266.109 159.554 266.109C159.814 266.109 160.069 266.047 160.3 265.93L161.616 265.174C162.077 264.873 162.436 264.438 162.645 263.928L165.165 256.641L159.551 253.4Z" fill="#263238"/>
<path d="M156.751 263.844C156.764 264.103 156.838 264.355 156.967 264.58C157.096 264.806 157.276 264.997 157.493 265.139L158.809 265.895C158.899 265.95 159.001 265.983 159.106 265.993C159.212 266.003 159.318 265.989 159.417 265.952C159.516 265.915 159.605 265.856 159.678 265.779C159.751 265.703 159.806 265.611 159.838 265.51L162.358 258.223L156.758 254.982L156.751 263.844Z" fill="#37474F"/>
<path d="M126.056 127.12L164.983 149.555C165.854 150.124 166.578 150.89 167.097 151.791C167.616 152.693 167.916 153.703 167.972 154.742V264.74C167.972 264.74 165.809 263.459 164.983 262.983L126.063 240.541C125.192 239.974 124.466 239.209 123.946 238.309C123.425 237.409 123.124 236.399 123.067 235.361V128.842C122.992 128.468 123.036 128.081 123.194 127.734C123.351 127.387 123.613 127.098 123.943 126.907C124.273 126.717 124.655 126.635 125.034 126.674C125.413 126.712 125.77 126.868 126.056 127.12Z" fill="#37474F"/>
<path opacity="0.2" d="M164.983 149.555L126.056 127.12C125.77 126.868 125.413 126.712 125.034 126.674C124.655 126.635 124.273 126.717 123.943 126.907C123.613 127.098 123.351 127.387 123.194 127.734C123.036 128.081 122.992 128.468 123.067 128.842V138.355L167.972 164.255V154.742C167.916 153.703 167.616 152.693 167.097 151.791C166.578 150.89 165.854 150.124 164.983 149.555Z" fill="black"/>
<path d="M218.491 159.677C218.423 159.675 218.358 159.647 218.31 159.599C218.262 159.551 218.234 159.486 218.232 159.418V127.456L187.747 145.054C187.718 145.072 187.686 145.085 187.653 145.09C187.619 145.096 187.585 145.094 187.552 145.086C187.519 145.077 187.488 145.062 187.462 145.041C187.435 145.019 187.413 144.993 187.397 144.963C187.379 144.934 187.368 144.901 187.363 144.867C187.358 144.833 187.359 144.799 187.368 144.765C187.376 144.732 187.391 144.701 187.412 144.674C187.433 144.646 187.458 144.623 187.488 144.606L218.4 126.784C218.439 126.76 218.484 126.747 218.529 126.747C218.575 126.747 218.62 126.76 218.659 126.784C218.698 126.807 218.73 126.84 218.752 126.879C218.774 126.919 218.785 126.963 218.785 127.008V159.418C218.785 159.455 218.778 159.492 218.762 159.526C218.747 159.56 218.725 159.59 218.697 159.615C218.669 159.639 218.636 159.658 218.601 159.668C218.565 159.679 218.528 159.682 218.491 159.677Z" fill="#FAFAFA"/>
<path d="M212.877 151.571H212.8C212.733 151.556 212.675 151.515 212.638 151.457C212.602 151.4 212.589 151.33 212.604 151.263L217.826 128.646L207.466 146.587C207.45 146.617 207.428 146.643 207.402 146.664C207.375 146.686 207.345 146.701 207.312 146.711C207.279 146.72 207.245 146.722 207.211 146.718C207.178 146.713 207.145 146.702 207.116 146.685C207.086 146.668 207.059 146.646 207.038 146.619C207.017 146.591 207.001 146.56 206.992 146.527C206.983 146.494 206.98 146.459 206.985 146.425C206.989 146.391 207.001 146.358 207.018 146.328L218.218 126.882C218.25 126.829 218.3 126.788 218.359 126.768C218.418 126.747 218.482 126.748 218.54 126.77C218.597 126.793 218.645 126.837 218.673 126.892C218.701 126.947 218.709 127.011 218.694 127.071L213.094 151.382C213.081 151.432 213.054 151.477 213.015 151.511C212.976 151.544 212.928 151.565 212.877 151.571Z" fill="#FAFAFA"/>
<path d="M201.656 143.5C201.62 143.5 201.585 143.493 201.552 143.478C201.52 143.464 201.491 143.443 201.467 143.416C201.419 143.368 201.392 143.302 201.392 143.234C201.392 143.166 201.419 143.1 201.467 143.052L218.309 126.847C218.357 126.799 218.423 126.772 218.491 126.772C218.559 126.772 218.624 126.799 218.673 126.847C218.721 126.897 218.748 126.963 218.748 127.033C218.748 127.102 218.721 127.168 218.673 127.218L201.831 143.416C201.809 143.441 201.782 143.461 201.752 143.476C201.722 143.49 201.689 143.498 201.656 143.5Z" fill="#FAFAFA"/>
<path d="M218.491 154.504C218.423 154.502 218.358 154.474 218.31 154.426C218.262 154.378 218.234 154.313 218.232 154.245C218.232 150.003 213.5 149.716 213.297 149.709C213.259 149.706 213.222 149.695 213.188 149.677C213.154 149.659 213.124 149.634 213.101 149.604C213.079 149.574 213.064 149.54 213.057 149.504C213.049 149.467 213.05 149.43 213.059 149.394C213.232 148.527 213.173 147.631 212.889 146.794C212.605 145.957 212.106 145.21 211.442 144.627C211.199 144.385 210.907 144.197 210.586 144.076C210.265 143.956 209.922 143.905 209.58 143.927C209.397 143.958 209.223 144.028 209.07 144.132C208.917 144.235 208.787 144.371 208.691 144.529C208.662 144.58 208.616 144.62 208.561 144.641C208.507 144.663 208.446 144.665 208.39 144.648C208.334 144.631 208.286 144.595 208.253 144.547C208.219 144.498 208.204 144.44 208.208 144.382C208.208 144.221 208.495 140.448 205.177 140.077C205.134 140.072 205.094 140.056 205.058 140.032C205.023 140.008 204.994 139.975 204.974 139.937C204.955 139.9 204.945 139.859 204.945 139.818C204.945 139.777 204.955 139.736 204.974 139.699C204.974 139.699 206.444 136.948 205.877 135.597C205.811 135.438 205.71 135.297 205.579 135.185C205.449 135.074 205.295 134.994 205.128 134.953C205.095 134.944 205.064 134.929 205.037 134.908C205.01 134.886 204.987 134.86 204.971 134.83C204.955 134.8 204.945 134.766 204.941 134.732C204.938 134.698 204.942 134.664 204.953 134.631C204.974 134.566 205.019 134.512 205.079 134.479C205.139 134.447 205.209 134.438 205.275 134.456C205.516 134.518 205.739 134.636 205.927 134.8C206.114 134.964 206.26 135.17 206.353 135.401C206.892 136.682 205.982 138.803 205.59 139.601C208.166 140.098 208.642 142.527 208.712 143.731C208.942 143.568 209.205 143.455 209.482 143.402C209.903 143.361 210.327 143.416 210.724 143.563C211.12 143.71 211.478 143.944 211.771 144.249C212.466 144.862 212.999 145.639 213.32 146.509C213.641 147.379 213.742 148.315 213.612 149.233C214.746 149.38 218.75 150.171 218.743 154.259C218.739 154.324 218.712 154.385 218.665 154.431C218.618 154.476 218.556 154.502 218.491 154.504Z" fill="#FAFAFA"/>
<path d="M218.491 147.518C218.426 147.518 218.363 147.494 218.315 147.45C218.267 147.406 218.237 147.345 218.232 147.28C218.12 145.796 217.259 143.878 216.174 143.402C215.959 143.306 215.721 143.275 215.488 143.312C215.256 143.349 215.039 143.454 214.865 143.612C214.822 143.639 214.772 143.654 214.721 143.654C214.671 143.654 214.621 143.639 214.578 143.612C214.534 143.588 214.497 143.551 214.474 143.506C214.45 143.461 214.44 143.41 214.445 143.36C214.445 143.36 214.676 140.735 213.493 139.65C213.236 139.436 212.932 139.286 212.606 139.213C212.279 139.14 211.94 139.146 211.617 139.23C211.572 139.239 211.526 139.237 211.483 139.222C211.44 139.207 211.401 139.181 211.372 139.146C211.342 139.111 211.322 139.068 211.313 139.023C211.304 138.978 211.308 138.931 211.323 138.887C211.561 138.236 212.023 136.409 211.4 135.758C211.106 135.457 210.567 135.429 209.79 135.681C209.737 135.699 209.68 135.698 209.627 135.681C209.574 135.663 209.528 135.629 209.496 135.583C209.464 135.538 209.447 135.484 209.447 135.429C209.447 135.374 209.464 135.32 209.496 135.275C209.93 134.729 211.001 133.133 210.735 132.37C210.691 132.265 210.62 132.173 210.529 132.104C210.438 132.035 210.33 131.992 210.217 131.978C210.184 131.97 210.153 131.955 210.125 131.935C210.098 131.915 210.074 131.889 210.057 131.86C210.039 131.831 210.028 131.798 210.023 131.764C210.018 131.731 210.02 131.696 210.028 131.663C210.034 131.63 210.048 131.598 210.067 131.57C210.086 131.542 210.111 131.518 210.14 131.501C210.169 131.483 210.202 131.471 210.235 131.467C210.269 131.462 210.303 131.465 210.336 131.474C210.532 131.503 210.718 131.582 210.874 131.705C211.03 131.828 211.151 131.99 211.225 132.174C211.512 133.007 210.812 134.274 210.322 134.974C210.574 134.914 210.838 134.916 211.089 134.981C211.34 135.046 211.572 135.171 211.764 135.345C212.534 136.143 212.163 137.83 211.932 138.621C212.273 138.58 212.619 138.612 212.948 138.715C213.276 138.817 213.578 138.988 213.836 139.216C214.879 140.168 214.991 142.016 214.977 142.863C215.196 142.76 215.435 142.707 215.677 142.707C215.919 142.707 216.158 142.76 216.377 142.863C217.7 143.444 218.617 145.509 218.75 147.182C218.753 147.216 218.749 147.25 218.738 147.282C218.728 147.314 218.711 147.343 218.689 147.369C218.667 147.394 218.639 147.415 218.609 147.43C218.579 147.445 218.546 147.453 218.512 147.455L218.491 147.518Z" fill="#FAFAFA"/>
<path d="M233.569 115.668C233.536 115.296 233.404 114.94 233.188 114.636C232.971 114.332 232.677 114.092 232.337 113.939L190.61 89.845C189.682 89.3757 188.657 89.1311 187.617 89.1311C186.578 89.1311 185.553 89.3757 184.625 89.845L120.449 126.903C120.108 127.056 119.815 127.296 119.598 127.6C119.382 127.904 119.25 128.26 119.217 128.632V131.873C119.25 132.245 119.382 132.601 119.598 132.905C119.815 133.209 120.108 133.449 120.449 133.602L162.176 157.689C163.103 158.162 164.128 158.408 165.168 158.408C166.209 158.408 167.234 158.162 168.161 157.689L232.337 120.638C232.677 120.485 232.971 120.245 233.188 119.941C233.404 119.637 233.536 119.281 233.569 118.909V115.668Z" fill="#37474F"/>
<path d="M162.176 154.448L120.449 130.361C118.797 129.402 118.797 127.855 120.449 126.903L184.625 89.845C185.553 89.3757 186.578 89.1311 187.617 89.1311C188.657 89.1311 189.682 89.3757 190.61 89.845L232.337 113.939C233.996 114.898 233.996 116.438 232.337 117.397L168.161 154.448C167.234 154.921 166.209 155.167 165.168 155.167C164.128 155.167 163.103 154.921 162.176 154.448Z" fill="#455A64"/>
<path opacity="0.1" d="M224.105 125.384L204.463 149.695L170.786 169.141L170.779 156.177L224.105 125.384Z" fill="black"/>
<path opacity="0.1" d="M221.298 162.652L204.463 185.339L170.786 204.792V191.821L221.298 162.652Z" fill="black"/>
<path opacity="0.1" d="M221.298 198.303L204.463 220.99L170.786 240.443V227.472L221.298 198.303Z" fill="black"/>
<path d="M144.046 269.108L92.414 298.921L34.272 265.272L85.904 235.466L144.046 269.108Z" fill="#9269AD"/>
<path opacity="0.5" d="M144.046 269.108L92.414 298.921L34.272 265.272L85.904 235.466L144.046 269.108Z" fill="black"/>
<path d="M85.904 195.055V235.466L34.272 265.272V224.868L85.904 195.055Z" fill="#9269AD"/>
<path opacity="0.23" d="M85.904 195.055V235.466L34.272 265.272V224.868L85.904 195.055Z" fill="black"/>
<path d="M92.414 258.51V298.921L34.272 265.272V224.868L92.414 258.51Z" fill="#9269AD"/>
<path opacity="0.38" d="M92.414 258.51V298.921L34.272 265.272V224.868L92.414 258.51Z" fill="black"/>
<path d="M144.046 228.697V269.108L85.9039 235.466V195.055L144.046 228.697Z" fill="#9269AD"/>
<path opacity="0.4" d="M144.046 228.697V269.108L85.9039 235.466V195.055L144.046 228.697Z" fill="black"/>
<path d="M144.046 269.108V228.697L92.4141 258.51V298.921L144.046 269.108Z" fill="#9269AD"/>
<path opacity="0.23" d="M144.046 269.108V228.697L92.4141 258.51V298.921L144.046 269.108Z" fill="black"/>
<path d="M85.9039 195.055L85.9739 172.683L143.976 206.367L144.046 228.697L85.9039 195.055Z" fill="#9269AD"/>
<path opacity="0.2" d="M85.9039 195.055L85.9739 172.683L143.976 206.367L144.046 228.697L85.9039 195.055Z" fill="black"/>
<path d="M92.4141 258.51L97.2581 238.938L148.421 209.398L144.046 228.697L92.4141 258.51Z" fill="#9269AD"/>
<path opacity="0.3" d="M92.4141 258.51L97.2581 238.938L148.421 209.398L144.046 228.697L92.4141 258.51Z" fill="black"/>
<path d="M34.2719 224.868L28.1119 204.568L79.7439 174.762L85.9039 195.055L34.2719 224.868Z" fill="#9269AD"/>
<path opacity="0.1" d="M34.2719 224.868L28.1119 204.568L79.7439 174.762L85.9039 195.055L34.2719 224.868Z" fill="black"/>
<path d="M34.272 224.868L22.12 208.089L80.269 241.731L92.414 258.51L34.272 224.868Z" fill="#9269AD"/>
<path opacity="0.45" d="M34.272 224.868L22.12 208.089L80.269 241.731L92.414 258.51L34.272 224.868Z" fill="black"/>
<g opacity="0.7">
<path opacity="0.7" d="M107.618 286.902C107.534 286.902 107.453 286.869 107.393 286.81C107.333 286.751 107.298 286.671 107.296 286.587V279.475C107.298 279.39 107.332 279.309 107.392 279.249C107.452 279.189 107.533 279.155 107.618 279.153C107.702 279.155 107.782 279.19 107.841 279.25C107.9 279.31 107.933 279.391 107.933 279.475V286.587C107.933 286.671 107.9 286.751 107.841 286.81C107.782 286.869 107.702 286.902 107.618 286.902Z" fill="white"/>
<path opacity="0.7" d="M106.687 281.939C106.645 281.946 106.603 281.946 106.561 281.939C106.485 281.904 106.425 281.841 106.393 281.762C106.362 281.684 106.362 281.597 106.393 281.519L107.527 278.908L108.787 280.364C108.832 280.429 108.852 280.509 108.842 280.587C108.832 280.666 108.793 280.738 108.734 280.79C108.674 280.842 108.597 280.87 108.518 280.869C108.438 280.868 108.362 280.838 108.304 280.784L107.709 280.084L107.009 281.764C106.979 281.822 106.932 281.869 106.875 281.9C106.817 281.932 106.752 281.945 106.687 281.939Z" fill="white"/>
<path opacity="0.7" d="M110.551 285.229C110.467 285.227 110.387 285.192 110.328 285.132C110.269 285.072 110.236 284.991 110.236 284.907V277.802C110.236 277.718 110.269 277.638 110.328 277.579C110.387 277.52 110.467 277.487 110.551 277.487C110.635 277.487 110.715 277.52 110.774 277.579C110.833 277.638 110.866 277.718 110.866 277.802V284.9C110.867 284.942 110.859 284.984 110.844 285.024C110.829 285.063 110.806 285.099 110.777 285.13C110.747 285.16 110.712 285.185 110.674 285.202C110.635 285.219 110.593 285.228 110.551 285.229Z" fill="white"/>
<path opacity="0.7" d="M109.62 280.266C109.578 280.273 109.536 280.273 109.494 280.266C109.456 280.249 109.421 280.225 109.392 280.195C109.363 280.165 109.34 280.129 109.325 280.09C109.31 280.051 109.303 280.009 109.305 279.967C109.306 279.925 109.316 279.884 109.333 279.846L110.46 277.2L111.72 278.649C111.778 278.709 111.811 278.789 111.811 278.873C111.811 278.957 111.778 279.037 111.72 279.097C111.691 279.127 111.656 279.15 111.617 279.166C111.579 279.182 111.538 279.191 111.496 279.191C111.454 279.191 111.413 279.182 111.375 279.166C111.336 279.15 111.301 279.127 111.272 279.097L110.677 278.397L109.977 280.077C109.948 280.144 109.897 280.2 109.832 280.234C109.767 280.269 109.692 280.28 109.62 280.266Z" fill="white"/>
</g>
<g opacity="0.7">
<path opacity="0.7" d="M99.155 291.725C99.0354 291.727 98.9173 291.698 98.812 291.641C98.6854 291.56 98.583 291.446 98.5152 291.312C98.4475 291.178 98.4171 291.028 98.427 290.878V290.003C98.4289 289.919 98.4636 289.839 98.5238 289.78C98.584 289.721 98.6648 289.688 98.749 289.688C98.8326 289.688 98.9127 289.721 98.9718 289.78C99.0308 289.839 99.064 289.919 99.064 290.003V290.878C99.064 291.004 99.064 291.074 99.127 291.088C99.19 291.102 99.225 291.088 99.33 291.032C99.527 290.85 99.6823 290.628 99.785 290.38C99.8877 290.132 99.9355 289.865 99.925 289.597V285.957C99.925 285.873 99.9582 285.793 100.017 285.734C100.076 285.675 100.156 285.642 100.24 285.642C100.324 285.642 100.404 285.675 100.463 285.734C100.522 285.793 100.555 285.873 100.555 285.957V289.597C100.571 289.975 100.497 290.351 100.34 290.695C100.183 291.04 99.9476 291.342 99.652 291.578C99.5024 291.67 99.3308 291.721 99.155 291.725Z" fill="white"/>
<path opacity="0.7" d="M95.816 288.792V288.246C95.8992 286.844 96.3091 285.481 97.0128 284.265C97.7165 283.05 98.6946 282.016 99.869 281.246C101.017 280.588 102.109 280.49 102.949 280.98C103.397 281.287 103.754 281.709 103.983 282.202C104.212 282.694 104.305 283.239 104.251 283.78V283.962L95.816 288.792ZM101.773 281.274C101.213 281.3 100.668 281.468 100.191 281.764C99.1846 282.426 98.3325 283.297 97.6923 284.318C97.0522 285.338 96.6391 286.485 96.481 287.679L103.6 283.563C103.63 283.158 103.556 282.751 103.383 282.383C103.21 282.015 102.945 281.698 102.613 281.463C102.354 281.327 102.065 281.262 101.773 281.274Z" fill="white"/>
</g>
<path opacity="0.7" d="M22.12 208.089L80.269 241.731L92.414 258.51L79.625 242.326L22.12 208.089Z" fill="white"/>
<path opacity="0.7" d="M144.046 228.697L92.4141 258.51V298.921L93.3801 259.322L144.046 228.697Z" fill="white"/>
<path d="M68.2779 212.534C73.6049 211.764 78.4699 208.334 81.5779 204.022C83.0273 202.007 84.095 199.744 84.7279 197.344C85.4001 195.1 85.5107 192.725 85.0499 190.428C84.0909 186.585 80.5349 184.31 76.7759 183.834C74.8685 183.583 72.9289 183.772 71.1059 184.387C69.2157 185.036 67.5757 186.26 66.4159 187.887C65.6887 188.754 65.2312 189.815 65.0999 190.939C65.0887 191.379 65.2439 191.807 65.5346 192.138C65.8252 192.469 66.2299 192.678 66.6679 192.724C67.7951 192.819 68.9215 192.533 69.8669 191.912C71.0197 191.266 72.0351 190.4 72.8559 189.364C74.6166 187.191 75.9341 184.694 76.7339 182.014C77.2951 179.714 77.2951 177.314 76.7339 175.014C76.3076 172.608 75.2081 170.373 73.5629 168.567C71.6769 166.852 69.2835 165.798 66.7449 165.564C64.2184 165.217 61.6459 165.456 59.2269 166.264C58.1644 166.586 57.1801 167.125 56.3359 167.846C55.7339 168.406 55.0479 169.33 55.2929 170.24C55.5379 171.15 56.8679 171.556 57.7709 171.437C59.1074 171.187 60.3315 170.523 61.2709 169.54C62.3178 168.509 63.207 167.33 63.9099 166.04C64.4321 165.113 64.7047 164.066 64.7009 163.002C64.6099 158.564 59.7029 155.694 55.8599 154.882C54.8225 154.665 53.7599 154.595 52.7029 154.672C52.3459 154.672 52.5629 155.26 52.8499 155.239C54.9179 155.145 56.9731 155.609 58.7999 156.583C60.6022 157.411 62.116 158.759 63.1469 160.454C63.6063 161.289 63.8331 162.233 63.8036 163.186C63.774 164.139 63.4892 165.067 62.9789 165.872C62.2935 167.066 61.4401 168.155 60.4449 169.106C59.6119 169.862 58.3449 170.737 57.1759 170.653C56.9829 170.653 56.7939 170.598 56.6305 170.495C56.4671 170.392 56.3359 170.246 56.2519 170.072C56.2166 169.842 56.2356 169.607 56.3073 169.386C56.379 169.165 56.5015 168.963 56.6649 168.798C57.283 168.132 58.0475 167.619 58.8979 167.3C60.998 166.427 63.2719 166.053 65.5409 166.208C67.8792 166.25 70.1533 166.981 72.0789 168.308C73.7564 169.701 74.9478 171.591 75.4809 173.705C76.1563 175.853 76.3663 178.12 76.0969 180.355C75.6812 182.604 74.817 184.747 73.5559 186.655C72.2609 188.797 70.6369 190.855 68.2009 191.695C67.5989 191.912 66.3389 192.227 66.1009 191.352C65.8629 190.477 66.5489 189.399 66.9899 188.72C67.9651 187.185 69.3868 185.986 71.0639 185.283C72.6822 184.634 74.4292 184.371 76.1669 184.513C79.4639 184.758 82.8099 186.48 83.9579 189.756C84.5338 191.714 84.5964 193.787 84.1399 195.776C83.7281 197.956 82.9443 200.049 81.8229 201.964C79.4107 206.032 75.7575 209.219 71.3999 211.057C70.3639 211.505 69.2999 211.883 68.2149 212.233C68.1029 212.275 68.1519 212.555 68.2779 212.534Z" fill="#E0E0E0"/>
<path d="M46.0249 151.76C43.2249 151.557 39.3679 153.762 40.7399 155.372C42.1119 156.982 45.7519 154.378 45.7519 154.378C45.7519 154.378 45.4089 157.633 46.5989 158.004C47.7889 158.375 49.3989 155.267 48.2089 153.279C48.7828 153.505 49.4046 153.583 50.0165 153.504C50.6283 153.426 51.2105 153.195 51.7089 152.831C53.4029 151.585 51.6109 150.409 49.2239 150.619C49.2239 150.619 50.9319 145.019 47.4809 146.09C45.7519 146.615 45.1429 148.638 46.0249 151.76Z" fill="#9269AD"/>
<path opacity="0.65" d="M46.0249 151.76C43.2249 151.557 39.3679 153.762 40.7399 155.372C42.1119 156.982 45.7519 154.378 45.7519 154.378C45.7519 154.378 45.4089 157.633 46.5989 158.004C47.7889 158.375 49.3989 155.267 48.2089 153.279C48.7828 153.505 49.4046 153.583 50.0165 153.504C50.6283 153.426 51.2105 153.195 51.7089 152.831C53.4029 151.585 51.6109 150.409 49.2239 150.619C49.2239 150.619 50.9319 145.019 47.4809 146.09C45.7519 146.615 45.1429 148.638 46.0249 151.76Z" fill="white"/>
<path d="M48.6289 152.95C48.474 152.798 48.3104 152.656 48.1389 152.523C47.8939 152.334 47.6349 152.152 47.3899 151.97C47.1514 151.797 46.9011 151.64 46.6409 151.501C46.4912 151.418 46.3369 151.343 46.1789 151.277C45.9608 151.175 45.7181 151.136 45.4789 151.165C45.4162 151.167 45.3552 151.185 45.3021 151.219C45.2491 151.252 45.206 151.299 45.1774 151.355C45.1487 151.411 45.1356 151.473 45.1394 151.536C45.1432 151.599 45.1638 151.659 45.1989 151.711C45.3914 151.919 45.6316 152.078 45.8989 152.173L46.2769 152.376C46.5359 152.53 46.7669 152.705 46.9769 152.88C47.1869 153.055 47.4669 153.223 47.6769 153.398C48.038 153.691 48.4416 153.927 48.8739 154.098C48.8933 154.108 48.9149 154.114 48.9369 154.114C48.9589 154.114 48.9805 154.108 48.9999 154.098C49.3569 153.818 48.8319 153.153 48.6289 152.95Z" fill="#455A64"/>
<path d="M271.796 74.753C268.737 78.869 264.642 101.5 263.095 108.759C255.654 108.542 245.7 108.192 241.934 107.8C237.734 107.359 228.767 106.498 224.364 107.1C213.437 108.5 213.864 115.682 214.13 117.558C214.417 119.7 215.95 120.68 221.83 119.343C223.146 119.054 224.487 118.897 225.834 118.874C226.401 118.874 227.598 118.587 228.046 119.07C228.746 119.77 226.723 120.946 226.219 121.268C225.442 121.772 224.63 122.409 224.469 123.319C224.423 123.485 224.425 123.662 224.476 123.827C224.527 123.992 224.624 124.138 224.756 124.25C225.041 124.366 225.36 124.366 225.645 124.25C228.329 123.613 230.918 122.627 233.345 121.317C234.26 120.765 235.223 120.297 236.222 119.917C237.741 119.427 239.309 119.714 240.835 119.714C244.118 119.714 261.471 121.436 269.185 122.22C274.526 122.759 275.093 117.488 276.934 112.147C279.195 105.525 284.55 70.7 284.55 70.7C279.146 69.916 275.436 69.867 271.796 74.753Z" fill="#FFA8A7"/>
<path d="M284.634 70.1539C282.051 69.6779 276.234 68.9569 273.07 72.4919C269.906 76.0269 269.157 79.7369 267.764 85.0919C266.371 90.4469 263.9 100.037 263.9 100.037C263.9 100.037 267.981 105.896 280.756 104.237L284.634 70.1539Z" fill="#37474F"/>
<path d="M316.715 255.248L307.734 255.255L305.151 235.76L316.484 235.312L316.715 255.248Z" fill="#FFA8A7"/>
<path d="M286.895 245.511C285.369 248.164 280.462 247.947 276.395 247.009L275.926 227.843L287.931 227.367L286.895 245.511Z" fill="#FFA8A7"/>
<path d="M316.106 132.062C316.428 140.357 315.329 189.406 315.329 189.406C315.63 191.786 318.094 195.937 318.605 204.526C319.354 217 316.813 243.6 316.813 243.6C316.813 243.6 311.668 246.288 306.124 244.23C306.124 244.23 300.482 205.73 298.424 193.424C296.646 182.714 294.364 153.986 294.364 153.986L289.933 190.806C290.745 195.164 291.081 199.598 290.934 204.029C290.752 209.755 287.49 237.559 287.49 237.559C283.769 238.776 279.771 238.871 275.996 237.832C275.996 237.832 273.322 194.684 273.014 189.455C272.664 183.491 272.902 130.844 272.902 130.844L316.106 132.062Z" fill="#9269AD"/>
<path opacity="0.2" d="M294.378 154C294.378 154 286.531 151.774 281.183 147C281.183 147 283.689 151.277 290.787 155.071L290.381 187.208L294.378 154Z" fill="black"/>
<path d="M297.5 271.509C297.213 271.803 297.381 273.742 297.731 274.246C298.081 274.75 300.223 276.458 303.94 276.584C307.489 276.696 310.625 276.094 312.648 274.694C314.671 273.294 315.623 271.803 315.742 269.794C315.861 267.785 315.56 265.832 316.442 264.243C317.275 262.78 318.626 261.107 318.899 260.316C319.508 258.601 318.766 256.214 318.766 256.214L297.5 271.509Z" fill="#263238"/>
<path d="M306.46 253.54C306.464 254.305 306.356 255.067 306.138 255.801C305.378 258.188 304.236 260.436 302.757 262.458C301.735 263.767 300.447 264.866 299.362 266.133C298.201 267.335 297.489 268.899 297.346 270.564C297.304 273.364 300.356 274.169 302.687 274.491C305.214 274.824 307.783 274.585 310.205 273.791C311.481 273.407 312.618 272.662 313.48 271.646C314.342 270.63 314.891 269.386 315.063 268.065C315.161 267.288 315.063 266.504 315.147 265.727C315.384 263.942 316.06 262.244 317.114 260.785C317.724 259.94 318.245 259.035 318.668 258.083C319.319 256.333 318.668 254.422 318.136 252.735C317.681 251.272 317.163 249.613 316.652 249.774C316.652 250.551 316.652 250.621 316.155 251.174C315.455 251.874 315.49 252.847 314.755 253.456C314.967 252.81 315.113 252.144 315.189 251.468C315.223 251.192 315.156 250.914 315 250.684C314.747 250.479 314.45 250.335 314.132 250.264C313.025 249.937 311.887 249.723 310.737 249.627C309.642 249.483 308.531 249.519 307.447 249.732C307.126 249.806 306.84 249.986 306.635 250.243C306.455 250.53 306.364 250.864 306.376 251.202C306.376 251.657 306.453 252.798 306.46 253.54Z" fill="#455A64"/>
<path d="M303.8 260.911C304.808 260.099 307.118 259.994 308.392 260.085C309.683 260.143 310.938 260.529 312.039 261.205C312.201 261.313 312.397 261.36 312.591 261.337C312.785 261.314 312.964 261.222 313.096 261.079C313.173 260.997 313.232 260.9 313.268 260.793C313.304 260.687 313.316 260.574 313.304 260.462C313.292 260.35 313.256 260.242 313.199 260.146C313.141 260.049 313.063 259.966 312.97 259.903C311.753 259.078 310.33 258.613 308.861 258.559C305.739 258.468 304.85 259.035 304.85 259.035C304.85 259.035 303.457 260.001 303.8 260.911Z" fill="#F5F5F5"/>
<path d="M301.532 263.851C302.799 263.032 305.354 263.039 306.621 263.151C307.891 263.231 309.117 263.644 310.177 264.348C310.338 264.456 310.533 264.502 310.725 264.479C310.918 264.456 311.096 264.365 311.227 264.222C311.306 264.141 311.366 264.044 311.403 263.938C311.44 263.832 311.454 263.718 311.442 263.606C311.431 263.494 311.395 263.386 311.338 263.289C311.28 263.192 311.201 263.109 311.108 263.046C309.871 262.178 308.416 261.674 306.908 261.59C303.779 261.492 302.995 262.157 302.995 262.157C302.639 262.311 302.323 262.543 302.07 262.837C301.817 263.13 301.633 263.477 301.532 263.851Z" fill="#F5F5F5"/>
<path d="M309.981 255.535C308.66 255.355 307.314 255.519 306.075 256.011C305.543 256.34 305.214 257.222 305.571 257.411C306.655 256.924 307.843 256.712 309.029 256.795C310.2 256.864 311.351 257.134 312.431 257.593C312.704 257.698 313.026 257.852 313.306 257.992C313.395 258.038 313.493 258.065 313.594 258.072C313.694 258.078 313.795 258.065 313.89 258.031C313.985 257.998 314.072 257.946 314.146 257.877C314.22 257.809 314.28 257.727 314.321 257.635C314.387 257.476 314.392 257.298 314.336 257.135C314.279 256.972 314.164 256.836 314.013 256.753C312.772 256.062 311.397 255.647 309.981 255.535Z" fill="#F5F5F5"/>
<path d="M255.871 257.467C255.553 258.267 255.553 259.159 255.871 259.959C256.179 260.708 259.889 263.032 265.041 262.934C268.872 262.841 272.609 261.724 275.863 259.7C277.886 258.496 279.937 258.349 282.485 258.3C285.033 258.251 288.435 257.166 289.051 256.004C289.667 254.842 289.121 252.763 289.121 252.763L255.871 257.467Z" fill="#263238"/>
<path d="M277.361 242.417L276.962 242.312C276.735 242.243 276.497 242.222 276.262 242.249C276.01 242.31 275.782 242.446 275.611 242.641C275.081 243.262 274.612 243.932 274.211 244.643C273.056 246.344 270.711 247.695 268.191 248.906C266.469 249.725 264.796 250.348 263.025 251.041C261.254 251.734 258.825 252.126 257.425 252.994C255.325 254.261 254.926 257.656 257.152 259.112C259.084 260.372 264.236 261.877 269.752 260.589C272.769 259.889 276.227 256.865 280.147 256.746C282.646 256.669 287.378 256.193 289.065 254.38C289.702 253.575 289.065 250.88 288.498 248.556C287.91 246.022 288.176 242.256 287.042 242.256L286.972 243.523C286.867 243.901 285.978 244.272 285.698 244.566L284.69 245.63C284.277 246.123 283.773 246.531 283.206 246.834C282.205 247.282 281.036 247.016 279.965 246.736C279.923 246.736 280.504 244.79 280.567 244.601C280.63 244.453 280.65 244.29 280.623 244.132C280.569 243.977 280.463 243.846 280.322 243.761C279.438 243.113 278.43 242.656 277.361 242.417Z" fill="#455A64"/>
<path d="M270.585 247.66C270.781 247.327 271.057 247.048 271.388 246.848C271.72 246.649 272.096 246.536 272.482 246.519C273.623 246.365 275.576 247.289 276.773 248.374C276.886 248.476 276.972 248.603 277.024 248.746C277.076 248.889 277.093 249.042 277.072 249.193C277.051 249.343 276.994 249.486 276.905 249.61C276.817 249.733 276.699 249.833 276.563 249.9C276.392 249.985 276.199 250.014 276.011 249.984C275.823 249.954 275.649 249.866 275.513 249.732C274.202 248.427 272.435 247.683 270.585 247.66Z" fill="#F5F5F5"/>
<path d="M266.987 249.459C267.249 249.124 267.589 248.856 267.976 248.68C268.363 248.503 268.788 248.422 269.213 248.444C269.213 248.444 272.167 248.668 273.91 250.46C274.018 250.558 274.1 250.681 274.15 250.818C274.199 250.955 274.215 251.102 274.196 251.246C274.177 251.391 274.123 251.528 274.039 251.647C273.955 251.766 273.844 251.863 273.714 251.93C273.549 252.011 273.363 252.038 273.181 252.009C272.999 251.981 272.831 251.897 272.699 251.769C271.982 250.979 271.096 250.362 270.107 249.962C269.118 249.562 268.051 249.39 266.987 249.459Z" fill="#F5F5F5"/>
<path d="M263.032 251.041C263.329 250.733 263.69 250.493 264.088 250.337C264.487 250.181 264.915 250.113 265.342 250.138C267.016 250.323 268.588 251.031 269.836 252.161C269.944 252.26 270.026 252.383 270.075 252.521C270.125 252.658 270.141 252.806 270.122 252.95C270.103 253.095 270.049 253.233 269.965 253.353C269.881 253.473 269.77 253.57 269.64 253.638C269.474 253.72 269.288 253.747 269.105 253.717C268.923 253.687 268.755 253.601 268.625 253.47C267.946 252.658 267.086 252.016 266.115 251.595C265.145 251.173 264.089 250.983 263.032 251.041Z" fill="#F5F5F5"/>
<path d="M299.6 70.308C302.904 70.686 306.81 70.889 309.967 71.302C314.034 71.834 317.205 76.041 318.199 82.551C319.291 89.719 314.699 110.271 314.699 110.271L316.162 134.505C310.205 138.894 284.837 141.197 272.195 132.069C272.195 132.069 272.489 90.825 273.476 84.469C274.834 75.754 276.976 70.343 286.776 69.72L299.6 70.308Z" fill="#455A64"/>
<path d="M322.189 122.808C321.118 124.6 320.04 126.392 318.934 128.163C318.528 128.821 318.115 129.472 317.688 130.116C317.456 130.431 317.186 130.716 316.883 130.963C316.351 131.327 315.245 131.096 314.601 131.117C311.437 131.224 308.282 131.458 305.137 131.817C304.874 131.809 304.612 131.858 304.37 131.962C304.128 132.066 303.912 132.222 303.737 132.419C303.608 132.69 303.582 132.999 303.664 133.288C303.747 133.576 303.932 133.825 304.185 133.987C304.7 134.296 305.285 134.47 305.886 134.491L308.616 134.813C309.005 134.826 309.383 134.947 309.708 135.163C310.702 135.968 308.805 136.934 308.238 137.326C307.098 138.118 305.881 138.794 304.605 139.342C298.914 141.736 298.221 143.472 299.271 145.446C300.181 147.161 304.115 153.398 314.111 148.029C318.136 145.866 324.261 139.034 327.054 135.73C331.072 130.963 337.869 120.33 337.869 120.33C341.733 115.024 342.23 112.847 342.321 110.642C342.412 108.437 330.421 91.476 326.347 85.519C322.273 79.562 320.334 72.317 309.967 71.323C309.967 71.323 306.019 83.839 312.557 91.938L327.656 113.001C327.656 113.001 323.659 120.351 322.189 122.808Z" fill="#FFA8A7"/>
<path d="M333.144 93.597C331.205 90.797 329.182 87.913 327.229 85.057C319.004 73.052 319.697 70.854 307.839 70.686C306.789 72.296 306.166 79.226 307.748 86.184C309.071 92.029 314.048 96.152 314.048 96.152L319.984 104.195C319.984 104.195 323.617 104.083 327.971 100.891C330.485 99.1296 332.313 96.5525 333.144 93.597Z" fill="#37474F"/>
<path d="M307.419 38.759C306.823 37.8707 305.997 37.1608 305.029 36.7047C304.062 36.2486 302.989 36.0635 301.924 36.169L301.308 51.198L300.3 56.749L300.475 62.93C301.06 62.8473 301.615 62.6177 302.087 62.2627C302.56 61.9078 302.935 61.439 303.177 60.9C304.101 59.122 306.677 50.526 306.677 50.526C308.987 43.463 308.497 40.271 307.419 38.759Z" fill="#263238"/>
<path d="M300.608 51.268C300.868 50.3546 301.368 49.5277 302.057 48.874C302.918 47.95 306.348 46.949 307.909 49.861C309.47 52.773 306.838 56.616 304.808 57.792C302.211 59.304 300.685 57.246 300.685 57.246L300.748 71.085C299.537 73.885 294.07 76.377 290.815 75.985C288.225 75.656 285.838 73.619 288.155 70.651L287.966 66.703C287.966 66.703 284.501 67.403 282.786 67.228C279.937 66.934 278.04 64.785 277.032 61.761C275.408 56.903 274.687 52.955 275.373 43.211C276.129 32.536 288.47 31.815 295.351 35.679C302.232 39.543 300.608 51.268 300.608 51.268Z" fill="#FFA8A7"/>
<path d="M271.446 32.123C271.131 29.792 271.936 27.293 274.379 26.467C275.276 26.092 276.26 25.9777 277.218 26.1375C278.177 26.2972 279.071 26.7245 279.797 27.37C280.103 26.5476 280.633 25.827 281.326 25.2891C282.02 24.7511 282.849 24.4172 283.722 24.3249C284.594 24.2325 285.476 24.3853 286.266 24.7662C287.057 25.1471 287.725 25.741 288.197 26.481C288.846 25.4954 289.848 24.7963 290.997 24.528C291.705 24.3698 292.438 24.3552 293.153 24.485C293.867 24.6149 294.548 24.8865 295.155 25.284C296.149 26.019 297.318 27.384 297.024 29.155C298.991 28.364 301.042 29.022 302.505 30.758C303.376 31.821 303.868 33.1434 303.905 34.517C303.956 35.2304 303.853 35.9465 303.604 36.617C303.324 37.254 302.75 37.674 302.582 38.395C302.338 39.0293 302.212 39.7032 302.211 40.383C302.372 41.559 302.631 42.735 302.785 43.883C302.951 45.0264 303.047 46.1789 303.072 47.334C303.036 47.6056 302.941 47.8663 302.795 48.0982C302.649 48.3301 302.454 48.5278 302.225 48.678C301.572 49.2495 301.065 49.9698 300.748 50.778C300.503 51.282 300.265 52.528 299.782 52.878C298.291 53.921 298.123 50.547 298.053 49.896C297.957 48.4019 297.957 46.9031 298.053 45.409C297.301 45.3993 296.56 45.2323 295.876 44.9189C295.192 44.6054 294.582 44.1524 294.084 43.589C293.568 42.9558 293.227 42.1977 293.097 41.391C293.016 40.9288 292.979 40.4601 292.985 39.991C292.012 41.601 289.751 42.259 288.141 42.091C285.439 41.846 284.508 40.691 284.074 39.844C283.903 40.6789 283.536 41.4611 283.003 42.126C282.313 42.7746 281.481 43.2539 280.574 43.526C279.792 43.7348 278.967 43.7265 278.189 43.5021C277.411 43.2776 276.708 42.8455 276.157 42.252C275.058 43.827 272.272 43.127 271.656 42.686C270.256 41.671 269.801 40.46 269.647 38.731C269.493 37.002 270.193 35.028 272.111 34.349C271.765 33.6498 271.54 32.8972 271.446 32.123Z" fill="#263238"/>
<path d="M287.966 66.682C287.966 66.682 294.224 65.1 296.366 63.812C297.633 63.0701 298.646 61.9622 299.271 60.634C299.001 61.9442 298.47 63.1868 297.71 64.288C296.198 66.437 288.036 68.369 288.036 68.369L287.966 66.682Z" fill="#F28F8F"/>
<path d="M288.316 50.806C288.34 51.0711 288.441 51.3235 288.607 51.5317C288.772 51.7399 288.996 51.8947 289.249 51.977C289.502 52.0593 289.774 52.0653 290.03 51.9943C290.287 51.9234 290.517 51.7786 290.692 51.578C290.867 51.3774 290.979 51.1297 291.015 50.8659C291.05 50.602 291.007 50.3336 290.891 50.094C290.775 49.8544 290.591 49.6541 290.362 49.5181C290.134 49.3821 289.87 49.3163 289.604 49.329C289.239 49.3577 288.899 49.5284 288.658 49.8046C288.418 50.0807 288.295 50.4402 288.316 50.806Z" fill="#263238"/>
<path d="M286.223 60.935C286.255 61.2765 286.387 61.6011 286.602 61.8684C286.817 62.1357 287.105 62.3339 287.432 62.4384C287.759 62.543 288.109 62.5492 288.439 62.4563C288.769 62.3635 289.065 62.1756 289.289 61.9161C289.514 61.6567 289.657 61.337 289.701 60.9968C289.745 60.6567 289.688 60.311 289.537 60.0029C289.387 59.6948 289.149 59.4377 288.853 59.2637C288.558 59.0896 288.217 59.0063 287.875 59.024C287.404 59.0616 286.966 59.2832 286.657 59.6408C286.348 59.9984 286.192 60.4633 286.223 60.935Z" fill="#F28F8F"/>
<path d="M289.443 46.144L292.327 47.544C292.507 47.1487 292.528 46.6995 292.386 46.2892C292.244 45.8788 291.95 45.5387 291.564 45.339C291.373 45.2475 291.165 45.1958 290.953 45.187C290.741 45.1781 290.53 45.2124 290.331 45.2876C290.133 45.3629 289.952 45.4776 289.799 45.6248C289.647 45.772 289.525 45.9486 289.443 46.144Z" fill="#263238"/>
<path d="M276.899 47.355L279.356 45.255C279.228 45.0875 279.067 44.9479 278.883 44.8449C278.699 44.7419 278.496 44.6776 278.286 44.6559C278.076 44.6343 277.864 44.6558 277.663 44.7191C277.462 44.7824 277.276 44.8861 277.116 45.024C276.788 45.3109 276.583 45.7125 276.543 46.1462C276.502 46.5799 276.63 47.0125 276.899 47.355Z" fill="#263238"/>
<path d="M277.634 50.533C277.651 50.7919 277.744 51.0401 277.901 51.2463C278.059 51.4525 278.274 51.6075 278.519 51.6918C278.765 51.7762 279.03 51.7861 279.281 51.7203C279.532 51.6545 279.758 51.516 279.93 51.3222C280.103 51.1284 280.214 50.8878 280.25 50.6309C280.287 50.3739 280.246 50.112 280.134 49.8781C280.021 49.6441 279.843 49.4485 279.619 49.316C279.396 49.1834 279.139 49.1198 278.88 49.133C278.53 49.1564 278.204 49.3163 277.971 49.5781C277.738 49.84 277.617 50.1829 277.634 50.533Z" fill="#263238"/>
<path d="M284.13 48.979L284.088 57.26L279.706 56L284.13 48.979Z" fill="#F28F8F"/>
<path d="M273.133 60.564C273.173 60.555 273.212 60.538 273.245 60.5139C273.279 60.4899 273.307 60.4593 273.329 60.424C273.354 60.3894 273.371 60.3501 273.381 60.3085C273.39 60.2669 273.391 60.2239 273.383 60.182C273.375 60.1401 273.359 60.1003 273.335 60.0649C273.311 60.0295 273.281 59.9992 273.245 59.976L269.437 57.442C269.402 57.4184 269.362 57.402 269.32 57.3938C269.279 57.3856 269.236 57.3857 269.194 57.3942C269.152 57.4027 269.113 57.4193 269.078 57.4431C269.042 57.4669 269.012 57.4975 268.989 57.533C268.964 57.568 268.947 57.6077 268.939 57.6495C268.93 57.6914 268.93 57.7346 268.938 57.7766C268.947 57.8185 268.964 57.8582 268.988 57.8934C269.012 57.9285 269.044 57.9583 269.08 57.981L272.881 60.515C272.917 60.5412 272.958 60.5592 273.001 60.5677C273.045 60.5762 273.09 60.5749 273.133 60.564Z" fill="#E0E0E0"/>
<path d="M272.727 62.202C272.786 62.1873 272.84 62.1567 272.883 62.1135C272.927 62.0704 272.957 62.0162 272.972 61.957C272.991 61.8726 272.976 61.7841 272.93 61.7107C272.884 61.6374 272.811 61.585 272.727 61.565L268.275 60.536C268.234 60.5256 268.191 60.5235 268.148 60.5298C268.106 60.5362 268.066 60.5509 268.029 60.573C267.993 60.5951 267.961 60.6243 267.936 60.6588C267.911 60.6933 267.893 60.7325 267.883 60.774C267.864 60.8584 267.879 60.9469 267.925 61.0203C267.971 61.0937 268.044 61.146 268.128 61.166L272.58 62.202C272.629 62.209 272.678 62.209 272.727 62.202Z" fill="#E0E0E0"/>
<path d="M268.59 65.163H268.632L272.923 63.595C273.004 63.5653 273.069 63.5047 273.106 63.4266C273.142 63.3485 273.145 63.2593 273.116 63.1785C273.086 63.0977 273.025 63.0321 272.947 62.996C272.869 62.9599 272.78 62.9563 272.699 62.986L268.408 64.554C268.368 64.5688 268.331 64.5914 268.299 64.6207C268.268 64.6499 268.243 64.6851 268.225 64.7242C268.208 64.7634 268.198 64.8056 268.197 64.8485C268.196 64.8914 268.203 64.9341 268.219 64.974C268.248 65.0443 268.302 65.1019 268.37 65.1365C268.438 65.1712 268.516 65.1805 268.59 65.163Z" fill="#E0E0E0"/>
<path d="M232.288 98.742C232.376 98.9196 232.515 99.0674 232.687 99.167C232.858 99.2667 233.055 99.3138 233.254 99.3027C233.452 99.2915 233.642 99.2225 233.802 99.1042C233.961 98.9859 234.082 98.8235 234.15 98.637L237.342 90.762C237.394 90.6358 237.42 90.5004 237.418 90.3639C237.416 90.2275 237.387 90.0927 237.332 89.9678C237.277 89.8429 237.197 89.7304 237.098 89.6369C236.999 89.5435 236.881 89.4711 236.753 89.424C236.625 89.3769 236.489 89.3561 236.353 89.3629C236.216 89.3697 236.083 89.4038 235.96 89.4634C235.837 89.523 235.728 89.6067 235.638 89.7095C235.548 89.8124 235.48 89.9323 235.438 90.062L232.239 97.937C232.192 98.0674 232.172 98.2061 232.18 98.3446C232.189 98.483 232.225 98.6183 232.288 98.742Z" fill="#E0E0E0"/>
<path d="M227.031 98.7C227.133 98.9063 227.302 99.0719 227.51 99.1696C227.719 99.2673 227.954 99.2912 228.178 99.2375C228.402 99.1838 228.601 99.0556 228.742 98.874C228.883 98.6924 228.959 98.4681 228.956 98.238L228.851 88.438C228.83 88.1842 228.714 87.9477 228.527 87.7753C228.339 87.6029 228.094 87.5072 227.839 87.5072C227.585 87.5072 227.34 87.6029 227.152 87.7753C226.965 87.9477 226.849 88.1842 226.828 88.438L226.926 98.238C226.924 98.3981 226.96 98.5564 227.031 98.7Z" fill="#E0E0E0"/>
<path d="M218.12 93.247L218.183 93.366L223.006 100.366C223.155 100.588 223.386 100.741 223.648 100.794C223.911 100.846 224.183 100.793 224.406 100.646C224.624 100.493 224.774 100.262 224.824 100.001C224.875 99.74 224.823 99.4694 224.679 99.246L219.856 92.246C219.716 92.0289 219.497 91.874 219.245 91.8135C218.994 91.7531 218.729 91.7915 218.505 91.921C218.281 92.0505 218.116 92.261 218.043 92.5091C217.97 92.7573 217.995 93.0239 218.113 93.254L218.12 93.247Z" fill="#E0E0E0"/>
</svg>
