<svg width="300" height="300" viewBox="0 0 300 300" fill="none" xmlns="http://www.w3.org/2000/svg">
    <path d="M59.52 256.914c51.522 30.51 135.048 30.516 186.6 0 51.552-30.516 51.516-79.98 0-110.49-51.516-30.51-135.048-30.51-186.57 0-51.522 30.51-51.546 79.98-.03 110.49Z" fill="#F5F5F5"/>
    <path d="M240.282 164.148c-8.004 3.816-21 3.816-28.998 0-7.998-3.816-8.01-10.008 0-13.8 8.01-3.792 21-3.816 28.998 0 7.998 3.816 8.01 9.978 0 13.8Z" fill="#E0E0E0"/>
    <path d="m262.92 197.628-4.038-2.31s-1.938-10.68-.492-19.866c2.04-12.912 10.831-17.364 14.023-16.08 3.192 1.284 3.948 5.106-1.8 12.564-3.42 4.404-7.813 13.71-7.693 25.692Z" fill="#9269AD"/>
    <path opacity=".1" d="m262.92 197.628-4.038-2.31s-1.938-10.68-.492-19.866c2.04-12.912 10.831-17.364 14.023-16.08 3.192 1.284 3.948 5.106-1.8 12.564-3.42 4.404-7.813 13.71-7.693 25.692Z" fill="#000"/>
    <path d="M261.457 192.498h.042a.286.286 0 0 0 .246-.324c-1.668-12.09 3.192-25.332 8.652-30.672a.307.307 0 0 0 .076-.092.296.296 0 0 0 .014-.234.28.28 0 0 0-.164-.167.284.284 0 0 0-.328.085c-5.562 5.43-10.518 18.894-8.82 31.158a.282.282 0 0 0 .282.246Z" fill="#fff"/>
    <path d="M274.14 204.108c.636.366 1.95-.438 2.454-.774a6.07 6.07 0 0 0 2.028-2.328 5.726 5.726 0 0 0 .51-3.432 13.928 13.928 0 0 0-.438-1.8l-.504-1.77a4.555 4.555 0 0 1-.264-1.8c.156-1.2 1.23-2.064 2.208-2.796 1.08-.804 2.208-1.872 2.202-3.33a5.133 5.133 0 0 0-1.284-3.054c-.696-.882-1.524-1.662-2.154-2.598a3.566 3.566 0 0 1-.738-2.262c.07-.501.239-.982.498-1.416a20.25 20.25 0 0 0 1.548-2.838c.354-1.02.306-2.286-.492-3a3.327 3.327 0 0 0-2.508-.6 5.798 5.798 0 0 0-2.334.822c-2.316 1.284-3.636 4.026-6.09 5.016-.983.307-1.985.55-3 .726a3.684 3.684 0 0 0-2.448 1.68c-.9 1.8.768 4.02.138 5.934-.564 1.692-2.208 2.334-3.126 3.864a3.603 3.603 0 0 0-.432 2.214c.079 1.292.394 2.559.93 3.738a26.578 26.578 0 0 0 2.052 3.372c.066-.012 11.142 6.372 11.244 6.432Z" fill="#9269AD"/>
    <path d="M267.601 200.61a.285.285 0 0 0 .204-.091.293.293 0 0 0 .078-.209c-.474-11.442 4.914-24.072 8.832-27.744a.276.276 0 0 0 .062-.31.294.294 0 0 0-.155-.155.296.296 0 0 0-.315.063c-4.002 3.744-9.498 16.584-9 28.2a.286.286 0 0 0 .294.246Z" fill="#fff"/>
    <path d="M269.293 187.092a.198.198 0 0 0 .084 0 38.655 38.655 0 0 1 8.303-1.338.297.297 0 0 0 .199-.094.295.295 0 0 0 .053-.316.29.29 0 0 0-.164-.15.282.282 0 0 0-.112-.016c-2.857.144-5.69.601-8.447 1.362a.283.283 0 0 0-.171.14.282.282 0 0 0-.021.22.283.283 0 0 0 .276.192Z" fill="#fff"/>
    <path d="m46.56 197.748 4.038-2.31s1.938-10.686.492-19.866c-2.04-12.912-10.83-17.37-14.022-16.086-3.192 1.284-3.948 5.112 1.8 12.57 3.426 4.404 7.8 13.71 7.692 25.692Z" fill="#37474F"/>
    <path d="M48 192.6a.294.294 0 0 1-.246-.33c1.674-12.084-3.192-25.332-8.652-30.666a.288.288 0 0 1-.006-.408.292.292 0 0 1 .203-.088.29.29 0 0 1 .205.082c5.562 5.436 10.518 18.894 8.82 31.164a.28.28 0 0 1-.211.241.285.285 0 0 1-.113.005Z" fill="#fff"/>
    <path d="M35.346 204.222c-.642.366-1.956-.432-2.46-.774a6.057 6.057 0 0 1-2.028-2.322 5.73 5.73 0 0 1-.51-3.432c.105-.609.252-1.211.438-1.8l.504-1.77c.21-.576.3-1.188.264-1.8-.156-1.2-1.23-2.058-2.208-2.79-1.08-.81-2.208-1.878-2.202-3.336a5.136 5.136 0 0 1 1.284-3.048c.702-.888 1.524-1.668 2.154-2.598a3.601 3.601 0 0 0 .738-2.262 3.736 3.736 0 0 0-.498-1.416A20.72 20.72 0 0 1 29.274 174c-.354-1.02-.3-2.292.492-3a3.325 3.325 0 0 1 2.508-.6 5.68 5.68 0 0 1 2.334.822c2.316 1.284 3.636 4.026 6.09 5.016.984.304 1.986.547 3 .726a3.65 3.65 0 0 1 2.448 1.68c.906 1.8-.768 4.02-.138 5.928.564 1.692 2.208 2.34 3.132 3.864.373.674.524 1.449.432 2.214a10.752 10.752 0 0 1-.972 3.75c-.6 1.173-1.287 2.3-2.052 3.372-.03.012-11.106 6.396-11.202 6.45Z" fill="#455A64"/>
    <path d="M41.904 200.73a.293.293 0 0 1-.282-.3c.48-11.442-4.914-24.072-8.832-27.744a.291.291 0 0 1-.062-.314.291.291 0 0 1 .062-.094.293.293 0 0 1 .408 0c4.002 3.744 9.504 16.584 9 28.2a.29.29 0 0 1-.294.252Z" fill="#fff"/>
    <path d="M40.2 187.2h-.084a38.267 38.267 0 0 0-8.316-1.338.295.295 0 0 1-.276-.3.278.278 0 0 1 .091-.202.285.285 0 0 1 .209-.074 39.22 39.22 0 0 1 8.454 1.362.287.287 0 0 1 .186.36.282.282 0 0 1-.264.192Z" fill="#fff"/>
    <path d="M234.228 147.126c.312-3.03 3.156-9.078 6.714-12.69 3.558-3.612 8.796-5.97 12.186-4.404 3.156 1.458 2.352 5.712-1.914 8.148s-10.602 5.4-12.858 10.116l-4.29 5.652.162-6.822Z" fill="#37474F"/>
    <path d="M233.574 151.254a.23.23 0 0 0 .216-.156c3.102-10.14 12.348-17.682 17.55-19.02a.224.224 0 0 0 .162-.27.224.224 0 0 0-.102-.136.233.233 0 0 0-.082-.027.208.208 0 0 0-.086.007c-5.304 1.362-14.718 9-17.868 19.314a.209.209 0 0 0-.008.086.242.242 0 0 0 .025.083.225.225 0 0 0 .133.107l.06.012Z" fill="#fff"/>
    <path d="M234.426 158.034c.666-1.65 3.036-4.248 6.648-6.222 3.99-2.178 8.826-2.874 10.116-4.758 1.554-2.268-.234-4.746-4.11-4.668-3.876.078-11.142 4.596-13.032 12.342l.378 3.306Z" fill="#455A64"/>
    <path d="M233.874 156.174a.227.227 0 0 0 .204-.132c4.092-8.532 11.178-10.938 14.358-11.022a.23.23 0 0 0 .216-.228.208.208 0 0 0-.027-.084.207.207 0 0 0-.058-.067.218.218 0 0 0-.167-.041c-3.51.09-10.566 2.562-14.748 11.274a.216.216 0 0 0-.01.173.223.223 0 0 0 .118.127h.114Z" fill="#fff"/>
    <path d="m48.468 218.31 65.484 37.8a5.734 5.734 0 0 0 5.196 0l123.978-71.592c1.434-.828 1.434-2.172 0-3l-65.484-37.8a5.71 5.71 0 0 0-5.196 0L48.468 215.31c-1.434.828-1.434 2.172 0 3Z" fill="#37474F"/>
    <path d="M84.918 235.086a7.97 7.97 0 0 0 7.2 0c1.992-1.152 1.992-3 0-4.17a8.008 8.008 0 0 0-7.2 0c-1.992 1.152-1.992 3.018 0 4.17Z" fill="#263238"/>
    <path d="m113.952 256.11-65.484-37.8c-1.284-.744-1.416-1.896-.402-2.724a5.816 5.816 0 0 0-2.196 4.2v2.442a5.745 5.745 0 0 0 2.598 4.5l65.484 37.8a5.298 5.298 0 0 0 2.598.6v-8.394a5.299 5.299 0 0 1-2.598-.624Z" fill="#455A64"/>
    <path d="M243.126 192.96a5.751 5.751 0 0 0 2.598-4.5V186a5.79 5.79 0 0 0-2.196-4.2c1.014.828.882 1.98-.402 2.718L119.148 256.11a5.32 5.32 0 0 1-2.598.6v8.49a5.32 5.32 0 0 0 2.598-.6l123.978-71.64Z" fill="#263238"/>
    <path d="m127.2 246.87-60.27-34.8c-.858-.492-.858-1.302 0-1.8L166.128 153a3.438 3.438 0 0 1 3.114 0l60.294 34.8c.858.498.858 1.302 0 1.8l-99.24 57.324a3.452 3.452 0 0 1-1.554.341 3.454 3.454 0 0 1-1.542-.395Z" fill="#FAFAFA"/>
    <path d="m122.286 238.41-45.6-26.346c-.864-.498-.864-1.302 0-1.8l1.752-1.014a3.439 3.439 0 0 1 3.12 0l45.6 26.346c.864.492.864 1.302 0 1.8l-1.758 1.014a3.437 3.437 0 0 1-3.114 0Z" fill="#E6E6E6"/>
    <path d="m127.062 240.264 3.318-1.914a.908.908 0 0 1 1.2.33l1.536 2.664c.246.432.054.702-.438.6l-5.478-1.056c-.522-.096-.57-.372-.138-.624Z" fill="#9269AD"/>
    <path d="M164.058 159.804a8.092 8.092 0 0 1 7.314 0c2.022 1.164 2.016 3.054 0 4.2a8.095 8.095 0 0 1-7.314 0c-2.016-1.14-2.016-3.03 0-4.2Zm45.972 25.134c.858.498.858 1.302 0 1.8L200.958 192a3.438 3.438 0 0 1-3.12 0l-28.566-16.488c-.858-.498-.858-1.302 0-1.8l8.19-4.728-2.436-4.2 35.004 20.154Z" fill="#E6E6E6"/>
    <path d="m180.204 171.168 25.254 14.58c.426.246.504.6.168.804a1.561 1.561 0 0 1-1.386-.102l-25.254-14.58c-.432-.246-.504-.6-.168-.798a1.543 1.543 0 0 1 1.386.096Zm-2.442 1.416 25.248 14.58c.432.246.51.6.174.804a1.572 1.572 0 0 1-1.392-.102l-25.248-14.58c-.432-.246-.51-.6-.174-.798a1.56 1.56 0 0 1 1.392.096ZM175.32 174l25.248 14.58c.432.246.51.6.174.804a1.574 1.574 0 0 1-1.392-.102l-25.248-14.58c-.432-.246-.51-.6-.174-.798a1.558 1.558 0 0 1 1.392.096Z" fill="#FAFAFA"/>
    <path d="M159.198 216.108a8.098 8.098 0 0 1 7.314 0c2.016 1.164 2.016 3.054 0 4.2a8.058 8.058 0 0 1-7.314 0c-1.998-1.146-1.998-3.036 0-4.2Zm-8.532-3.516-8.196 4.74a3.426 3.426 0 0 1-3.114 0l-28.584-16.5c-.864-.498-.864-1.302 0-1.8l9.078-5.232a3.438 3.438 0 0 1 3.114 0l35.016 20.214-7.314-1.422Z" fill="#E6E6E6"/>
    <path d="m121.602 196.5 25.248 14.58c.432.246.51.6.174.798a1.554 1.554 0 0 1-1.392-.096l-25.248-14.58c-.432-.246-.51-.6-.174-.798a1.56 1.56 0 0 1 1.392.096Zm-2.448 1.416 25.254 14.58c.432.246.504.6.168.798a1.543 1.543 0 0 1-1.386-.096L117.936 198.6c-.426-.246-.504-.6-.168-.798a1.552 1.552 0 0 1 1.386.114Zm-2.442 1.416 25.254 14.58c.426.246.504.6.168.798a1.543 1.543 0 0 1-1.386-.096l-25.254-14.58c-.432-.246-.504-.6-.168-.798a1.548 1.548 0 0 1 1.386.096Z" fill="#FAFAFA"/>
    <path d="M129.936 179.508a8.058 8.058 0 0 1 7.314 0c2.022 1.164 2.022 3.054 0 4.2a8.092 8.092 0 0 1-7.314 0c-2.016-1.146-2.016-3.036 0-4.2ZM168.6 200.4c.858.498.858 1.302 0 1.8l-6.678 3.828a3.438 3.438 0 0 1-3.12 0L137.544 193.8c-.858-.498-.858-1.302 0-1.8l5.802-3.318-2.442-4.2L168.6 200.4Z" fill="#E6E6E6"/>
    <path d="m147 190.038 18.306 10.566c.432.252.51.6.174.804-.224.091-.466.13-.707.114a1.593 1.593 0 0 1-.685-.21l-18.33-10.572c-.432-.252-.51-.6-.174-.804a1.573 1.573 0 0 1 1.416.102Zm-2.472 1.416 18.312 10.566c.432.252.51.6.174.804-.224.091-.466.13-.707.114a1.597 1.597 0 0 1-.685-.21l-18.312-10.572c-.426-.252-.504-.6-.168-.804a1.561 1.561 0 0 1 1.386.102Zm-2.442 1.416 18.312 10.566c.432.252.504.6.168.804a1.57 1.57 0 0 1-1.386-.096l-18.312-10.572c-.432-.252-.504-.6-.168-.804a1.561 1.561 0 0 1 1.386.102Z" fill="#FAFAFA"/>
    <path d="M190.884 197.814a8.098 8.098 0 0 1 7.314 0c2.016 1.17 2.016 3.06 0 4.2a8.092 8.092 0 0 1-7.314 0c-2.022-1.14-2.022-3.03 0-4.2Zm-8.532-3.516-3.312 1.902a3.438 3.438 0 0 1-3.12 0L162 188.16c-.858-.498-.858-1.302 0-1.8l4.2-2.4a3.438 3.438 0 0 1 3.12 0l20.4 11.766-7.368-1.428Z" fill="#E6E6E6"/>
    <path d="m168.294 185.4 12.216 7.056c.432.246.51.6.174.798a1.554 1.554 0 0 1-1.392-.096l-12.216-7.056c-.432-.246-.504-.6-.168-.798a1.548 1.548 0 0 1 1.386.096Zm-2.442 1.44 12.216 7.056c.432.246.504.6.168.798a1.543 1.543 0 0 1-1.386-.096l-12.216-7.056c-.432-.246-.51-.6-.174-.798a1.56 1.56 0 0 1 1.392.096Z" fill="#FAFAFA"/>
    <path d="M93.384 200.61a8.082 8.082 0 0 1 7.308 0c2.022 1.17 2.022 3.06 0 4.2a8.081 8.081 0 0 1-7.308 0c-2.022-1.14-2.022-3.03 0-4.2Zm28.86 15.288c.858.498.858 1.302 0 1.8l-4.2 2.43a3.438 3.438 0 0 1-3.12 0l-11.46-6.648c-.858-.498-.858-1.302 0-1.8l3.3-1.92-2.436-4.2 17.916 10.338Z" fill="#E6E6E6"/>
    <path d="m110.292 211.002 9.348 5.4c.432.246.51.6.174.798a1.556 1.556 0 0 1-1.392-.096l-9.348-5.4c-.432-.246-.51-.6-.174-.798a1.558 1.558 0 0 1 1.392.096Zm-2.442 1.398 9.348 5.4c.432.246.51.6.168.798a1.543 1.543 0 0 1-1.386-.096l-9.354-5.4c-.426-.246-.504-.6-.168-.798a1.56 1.56 0 0 1 1.392.096Z" fill="#FAFAFA"/>
    <path d="M205.356 165.684a1.772 1.772 0 0 0 1.59 0 .484.484 0 0 0 .34-.459.477.477 0 0 0-.34-.459 1.732 1.732 0 0 0-1.59 0 .478.478 0 0 0-.339.459.477.477 0 0 0 .339.459Zm2.544 7.224a3.54 3.54 0 0 0 3.186 0c.876-.51.876-1.332 0-1.842a3.54 3.54 0 0 0-3.186 0c-.9.534-.9 1.332 0 1.842Zm-2.244-3.204c.6-.336.552-.906-.072-1.266l-10.476-6.048a2.448 2.448 0 0 0-2.196-.042c-.6.342-.552.906.072 1.266l10.476 6.054a2.403 2.403 0 0 0 2.196.036Z" fill="#263238"/>
    <path d="m77.076 171.186-3.324-1.92a.318.318 0 0 1-.156-.138l-.6-1.068 1.974-1.14-.06.174 2.166 4.092Z" fill="#DC0000"/>
    <path d="m74.658 167.082 2.304 3.984a.34.34 0 0 0 .318.157.336.336 0 0 0 .282-.217l2.436-7.014-5.34 3.09Z" fill="#DC0000"/>
    <path d="M123.378 116.796A3.557 3.557 0 0 0 121.8 114l-1.308-.756a3.54 3.54 0 0 0-3.216 0l-52.338 30.198a3.548 3.548 0 0 0-1.608 2.784v20.334a3.559 3.559 0 0 0 1.608 2.784l1.314.756a3.552 3.552 0 0 0 3.21 0l52.458-30.3c1.446-.828 1.458-1.65 1.458-2.676v-20.328Z" fill="#DC0000"/>
    <path opacity=".2" d="M63.3 166.572a3.559 3.559 0 0 0 1.608 2.784l1.314.756a3.601 3.601 0 0 0 2.94.132c-.756.288-1.332-.144-1.332-1.062v-20.334c.02-.559.18-1.104.468-1.584l-4.524-2.61a3.245 3.245 0 0 0-.474 1.584v20.334Z" fill="#000"/>
    <path opacity=".4" d="M123.324 116.34c-.186-.684-.81-.9-1.554-.474l-52.338 30.198a3.21 3.21 0 0 0-1.128 1.2l-4.524-2.61c.269-.49.66-.904 1.134-1.2l52.326-30.198a3.604 3.604 0 0 1 3.222 0l1.338.744a3.545 3.545 0 0 1 1.524 2.34Z" fill="#fff"/>
    <path d="m72.15 149.202 46.05-26.64c.54-.312.978-.168.978.318a1.956 1.956 0 0 1-.978 1.44l-46.032 26.64c-.54.312-.978.174-.978-.312a1.967 1.967 0 0 1 .96-1.446Zm0 9.072 38.142-22.026c.534-.312.972-.168.972.312a1.97 1.97 0 0 1-.972 1.446L72.15 160.032c-.54.312-.978.168-.978-.318a1.936 1.936 0 0 1 .978-1.44Zm0 4.416 44.898-25.968c.534-.312.972-.168.972.318a1.962 1.962 0 0 1-.972 1.44L72.15 164.448c-.54.306-.978.168-.978-.318a1.936 1.936 0 0 1 .978-1.44Zm0-9.054 44.898-25.968c.534-.306.972-.168.972.318a1.97 1.97 0 0 1-.972 1.446L72.15 155.4c-.54.312-.978.168-.978-.318a1.963 1.963 0 0 1 .978-1.446Z" fill="#fff"/>
    <path d="m77.076 71.04-3.324-1.92a.318.318 0 0 1-.156-.138l-.6-1.068 1.974-1.14-.06.174 2.166 4.092Z" fill="#9269AD"/>
    <path opacity=".2" d="m77.076 71.04-3.324-1.92a.318.318 0 0 1-.156-.138l-.6-1.068 1.974-1.14-.06.174 2.166 4.092Z" fill="#000"/>
    <path d="m74.658 66.936 2.304 3.984a.343.343 0 0 0 .6-.06l2.436-7.02-5.34 3.096Z" fill="#9269AD"/>
    <path d="M117.96 24.93a3.543 3.543 0 0 0-1.608-2.784l-1.308-.756a3.534 3.534 0 0 0-3.216 0l-46.92 27.078a3.546 3.546 0 0 0-1.608 2.784V66.42a3.546 3.546 0 0 0 1.608 2.784l1.314.756a3.521 3.521 0 0 0 3.21 0l47.07-27.186c1.446-.828 1.458-1.65 1.458-2.676V24.93Z" fill="#9269AD"/>
    <path opacity=".2" d="M63.3 66.42a3.546 3.546 0 0 0 1.608 2.784l1.314.756a3.6 3.6 0 0 0 2.94.138c-.756.282-1.332-.15-1.332-1.062V53.862c.02-.559.18-1.104.468-1.584l-4.524-2.61a3.264 3.264 0 0 0-.474 1.584V66.42Z" fill="#000"/>
    <path opacity=".4" d="M117.906 24.474c-.186-.684-.81-.9-1.554-.474l-46.92 27.084a3.163 3.163 0 0 0-1.128 1.2l-4.524-2.61a3.222 3.222 0 0 1 1.134-1.2l46.908-27.084a3.601 3.601 0 0 1 3.222 0l1.308.756a3.553 3.553 0 0 1 1.554 2.328Z" fill="#fff"/>
    <path d="m72.15 58.122 32.718-18.906c.54-.312.978-.168.978.318a1.955 1.955 0 0 1-.978 1.44L72.15 59.88c-.54.312-.978.168-.978-.312a1.962 1.962 0 0 1 .978-1.446Zm0 4.416L111.6 39.69c.54-.312.978-.168.978.318a1.954 1.954 0 0 1-.978 1.44L72.126 64.296c-.54.312-.978.168-.978-.318a1.95 1.95 0 0 1 1.002-1.44Zm0-9.048 39.45-22.848c.54-.312.978-.174.978.312a1.965 1.965 0 0 1-.978 1.446L72.15 55.248c-.54.312-.978.168-.978-.318a1.95 1.95 0 0 1 .978-1.44Z" fill="#fff"/>
    <path d="m155.778 50.316-3.324-1.92a.318.318 0 0 1-.156-.138l-.6-1.068 1.974-1.14-.072.15 2.178 4.116Z" fill="#DC0000"/>
    <path d="m153.36 46.2 2.304 3.984a.338.338 0 0 0 .318.15.345.345 0 0 0 .282-.21l2.436-7.02-5.34 3.096Z" fill="#DC0000"/>
    <path d="M164.214 24.954A3.55 3.55 0 0 0 162.6 22.2l-1.308-.756a3.602 3.602 0 0 0-3.216 0L113.496 47.1a3.538 3.538 0 0 0-1.608 2.784v13.2a3.542 3.542 0 0 0 1.608 2.784l1.308.756a3.535 3.535 0 0 0 3.216 0l44.736-25.8c1.446-.822 1.458-1.65 1.458-2.676V24.954Z" fill="#DC0000"/>
    <path d="M111.888 63.066a3.541 3.541 0 0 0 1.608 2.784l1.308.756a3.594 3.594 0 0 0 2.94.138c-.756.282-1.332-.15-1.332-1.062v-13.2c.019-.56.182-1.105.474-1.584l-4.524-2.61a3.252 3.252 0 0 0-.474 1.584v13.194Z" fill="#DC0000"/>
    <path d="M164.16 24.498c-.186-.684-.81-.9-1.554-.474L118.02 49.716a3.175 3.175 0 0 0-1.134 1.2l-4.518-2.61a3.208 3.208 0 0 1 1.128-1.2l44.58-25.692a3.598 3.598 0 0 1 3.222 0l1.302.786a3.542 3.542 0 0 1 1.56 2.298Z" fill="#DC0000"/>
    <path d="m120.732 53.454 30.39-17.52c.54-.306.978-.168.978.318a1.94 1.94 0 0 1-.978 1.44L120.732 55.2c-.534.306-.972.168-.972-.318a1.95 1.95 0 0 1 .972-1.428Zm0 4.41 37.152-21.45c.534-.312.972-.174.972.312a1.972 1.972 0 0 1-.972 1.446l-37.152 21.456c-.534.306-.972.168-.972-.318a1.96 1.96 0 0 1 .972-1.446Z" fill="#fff"/>
    <path d="m77.076 119.112-3.324-1.92a.318.318 0 0 1-.156-.138l-.6-1.068 1.974-1.14-.06.174 2.166 4.092Z" fill="#9269AD"/>
    <path opacity=".2" d="m77.076 119.112-3.324-1.92a.318.318 0 0 1-.156-.138l-.6-1.068 1.974-1.14-.06.174 2.166 4.092Z" fill="#000"/>
    <path d="m74.658 115.008 2.304 3.984a.34.34 0 0 0 .486.088.338.338 0 0 0 .114-.142l2.436-7.02-5.34 3.09Z" fill="#9269AD"/>
    <path d="M99.51 82.836a3.558 3.558 0 0 0-1.608-2.784l-1.302-.756a3.6 3.6 0 0 0-3.216 0l-28.47 16.422a3.558 3.558 0 0 0-1.608 2.784v15.996a3.558 3.558 0 0 0 1.608 2.784l1.314.756a3.552 3.552 0 0 0 3.21 0l28.62-16.536c1.446-.822 1.458-1.65 1.458-2.67l-.006-15.996Z" fill="#9269AD"/>
    <path opacity=".2" d="M63.3 114.498a3.559 3.559 0 0 0 1.608 2.784l1.314.756a3.601 3.601 0 0 0 2.94.132c-.756.288-1.332-.144-1.332-1.062v-15.99c.019-.559.18-1.104.468-1.584l-4.524-2.616a3.264 3.264 0 0 0-.474 1.584v15.996Z" fill="#000"/>
    <path opacity=".4" d="M99.456 82.38c-.186-.684-.81-.9-1.548-.474L69.432 98.334a3.163 3.163 0 0 0-1.128 1.2l-4.524-2.61a3.222 3.222 0 0 1 1.134-1.2l28.464-16.428a3.6 3.6 0 0 1 3.216 0l1.314.762a3.534 3.534 0 0 1 1.548 2.322Z" fill="#fff"/>
    <path d="m72.15 106.2 14.25-8.256c.534-.306.972-.168.972.318a1.968 1.968 0 0 1-.972 1.446l-14.274 8.25c-.54.312-.978.168-.978-.318a1.938 1.938 0 0 1 1.002-1.44Zm0 4.416L93.18 98.4c.54-.312.972-.168.972.318a1.937 1.937 0 0 1-.972 1.44L72.15 112.35c-.54.306-.978.168-.978-.318a1.943 1.943 0 0 1 .978-1.416Zm0-9.054L93.18 89.4c.54-.306.972-.168.972.318a1.95 1.95 0 0 1-.972 1.446L72.15 103.32c-.54.312-.978.168-.978-.312a1.963 1.963 0 0 1 .978-1.446Z" fill="#fff"/>
    <path d="m159 136.32-1.428-2.688 1.152-3.318v-2.034l-3.522 2.034v2.034l1.512 2.616a.216.216 0 0 0 .102.096l2.184 1.26Z" fill="#9269AD"/>
    <path d="m159 136.308-2.166-1.248a.247.247 0 0 1-.102-.09l-.408-.708 1.104-.636 1.512 2.616a.29.29 0 0 0 .06.066Z" fill="#E0E0E0"/>
    <path d="M164.55 117.996a2.335 2.335 0 0 0-1.056-1.8l-.864-.498a2.32 2.32 0 0 0-2.106 0L140.622 127.2a2.327 2.327 0 0 0-1.056 1.8v10.296a2.339 2.339 0 0 0 1.056 1.8l.858.498a2.333 2.333 0 0 0 2.112 0l13.836-7.986 1.512 2.616c.021.039.053.07.091.091a.223.223 0 0 0 .317-.133l1.596-4.608 2.55-1.476a2.337 2.337 0 0 0 1.056-1.83v-10.272Z" fill="#E6E6E6"/>
    <path d="M139.566 139.29a2.33 2.33 0 0 0 1.056 1.8l.858.498a2.357 2.357 0 0 0 1.932.084c-.498.192-.876-.09-.876-.69V130.71c.014-.366.119-.723.306-1.038l-2.97-1.716a2.198 2.198 0 0 0-.306 1.038v10.296Z" fill="#E0E0E0"/>
    <path d="M164.514 117.696c-.126-.45-.534-.6-1.02-.312l-19.902 11.502c-.314.19-.571.462-.744.786l-3-1.716c.176-.322.432-.592.744-.786l19.896-11.502a2.399 2.399 0 0 1 2.112 0l.864.498a2.334 2.334 0 0 1 1.05 1.53Z" fill="#F0F0F0"/>
    <path d="M148.35 130.878a3.108 3.108 0 0 0-1.41 2.436c0 .9.6 1.266 1.41.816a3.127 3.127 0 0 0 1.41-2.442c0-.894-.636-1.26-1.41-.81Zm5.19-3.006a3.127 3.127 0 0 0-1.41 2.442c0 .894.636 1.26 1.41.81a3.105 3.105 0 0 0 1.41-2.436c0-.888-.63-1.266-1.41-.816Zm5.196-3.006a3.11 3.11 0 0 0-1.41 2.442c0 .9.63 1.26 1.41.816a3.113 3.113 0 0 0 1.404-2.442c0-.882-.63-1.26-1.404-.816Z" fill="#fff"/>
    <path d="m155.844 95.082-2.178-4.092 1.752-5.058v-3.096l-5.364 3.096v3.096l2.31 3.996c.035.062.09.11.156.138l3.324 1.92Z" fill="#9269AD"/>
    <path d="M152.514 93.162a.324.324 0 0 1-.162-.138l-.6-1.068 1.68-.972 2.304 3.978a.34.34 0 0 0 .114.126l-3.336-1.926Z" fill="#263238"/>
    <path d="M164.268 67.164a3.567 3.567 0 0 0-1.608-2.784l-1.308-.78a3.602 3.602 0 0 0-3.216 0l-40.2 23.196a3.538 3.538 0 0 0-1.608 2.784v15.678a3.6 3.6 0 0 0 1.608 2.79l1.308.756a3.6 3.6 0 0 0 3.216 0l30.96-17.85 2.298 3.984a.337.337 0 0 0 .318.15.345.345 0 0 0 .282-.21l2.43-7.014 3.882-2.256a3.562 3.562 0 0 0 1.608-2.784l.03-15.66Z" fill="#37474F"/>
    <path d="M126.108 91.626 159.486 72.3c.54-.312.978-.168.978.318a1.956 1.956 0 0 1-.978 1.44l-33.378 19.326c-.534.312-.972.174-.972-.312a1.96 1.96 0 0 1 .972-1.446Zm0 4.416L151.59 81.33c.54-.312.978-.168.978.318a1.94 1.94 0 0 1-.978 1.44L126.108 97.8c-.534.312-.972.168-.972-.312a1.96 1.96 0 0 1 .972-1.446Zm0 4.416 32.244-18.654c.534-.306.972-.168.972.318-.04.3-.149.586-.318.836-.168.251-.392.46-.654.61l-32.244 18.648c-.534.312-.972.168-.972-.318a1.949 1.949 0 0 1 .972-1.44Z" fill="#9269AD"/>
    <path d="M116.334 105.282a3.6 3.6 0 0 0 1.608 2.79l1.308.756a3.599 3.599 0 0 0 2.946.126c-.762.288-1.338-.138-1.338-1.056V92.214c.019-.56.183-1.105.474-1.584l-4.524-2.61a3.263 3.263 0 0 0-.474 1.584v15.678Z" fill="#263238"/>
    <path d="M164.214 66.708c-.186-.684-.81-.9-1.554-.474l-40.2 23.202a3.174 3.174 0 0 0-1.134 1.2l-4.518-2.61a3.208 3.208 0 0 1 1.128-1.2l40.2-23.202a3.596 3.596 0 0 1 3.216 0l1.314.762a3.537 3.537 0 0 1 1.548 2.322Z" fill="#455A64"/>
    <path d="M239.4 83.892c-.036-.48-.93-5.568-1.542-8.4l-6 1.8.96 3.99 4.974 4.8a1.96 1.96 0 0 0 1.608-2.19Z" fill="#FFA8A7"/>
    <path d="M234.384 69.468h-19.092V48.852a8.09 8.09 0 0 1 4.996-7.478 8.098 8.098 0 0 1 3.098-.616h2.91a8.093 8.093 0 0 1 8.094 8.094v20.616h-.006Z" fill="#263238"/>
    <path d="m210.474 73.164-2.832 5.178 4.404 3.774 4.026-6.39-5.598-2.562Zm-3.834 5.982c-.6 1.632-2.04 4.2-.372 5.478 1.668 1.278 6.318-.258 6.318-.258l-5.946-5.22Z" fill="#F28F8F"/>
    <path d="M221.082 61.608c-2.802 0-5.892 1.05-6.954 3.246-1.062 2.196-4.386 9.048-4.386 9.048s2.478 3.6 6.414 3.372l4.926-15.666Z" fill="#EBEBEB"/>
    <path d="M217.08 153a25.15 25.15 0 0 1-3.474 3.354 1.512 1.512 0 0 0-.48.552c-.15.366-.372 1.26 1.284 1.746a6.067 6.067 0 0 0 4.992-.744c1.296-.906 1.266-2.646 2.472-3.708.894-.78 2.052-1.032 2.76-2.028.492-.696.306-1.578 0-2.67-.36-1.2-.546-2.088-.942-1.974l.096.552c-.456.816-3 1.2-4.2.696-.763 1.45-1.6 2.86-2.508 4.224Z" fill="#263238"/>
    <path d="M216 154.2c.378-.381.737-.782 1.074-1.2a30.478 30.478 0 0 0 1.938-3.204c.324-.662.431-1.41.306-2.136l-.348-2.91 4.386-.648.402 3.972c.144.906-.564 1.746-1.83 2.958-1.266 1.212-2.814 3.966-3.984 4.704-1.17.738-2.028.75-2.556.432s-.588-.582.612-1.968Z" fill="#FFA8A7"/>
    <path d="M230.544 153.75v-.6c-.24.72-1.368 3.816-3.066 5.4-1.356 1.236-3.204 2.664-3.672 4.038-.468 1.374 2.568 1.914 3.834 1.692a7.8 7.8 0 0 0 4.404-2.4c.732-.888 1.2-1.95 1.716-2.652.516-.702 1.716-1.488 1.998-2.304a5.268 5.268 0 0 0-.246-2.25c-.204-.762-.414-1.596-.678-1.524v.45c-.61.48-1.366.736-2.142.726-.63.03-2.154-.096-2.148-.576Z" fill="#263238"/>
    <path d="M226.248 159.6c.42-.372.846-.738 1.23-1.086a12.518 12.518 0 0 0 2.616-4.2 5.838 5.838 0 0 0 .45-2.262v-2.442h4.29v4.098c-.21.888-2.178 3.264-3.3 4.8-.744 1.038-2.172 2.352-3.876 2.58-1.632.24-2.454-.288-1.41-1.488Z" fill="#FFA8A7"/>
    <path d="M234 87.048c3.33 7.266-.12 32.868-.12 32.868.102 1.2 1.446 3.498 1.95 8.694.6 6.132-.93 21.528-.93 21.528a4.63 4.63 0 0 1-4.338.174s-4.092-23.19-4.86-29.292c-.672-5.322-1.8-14.142-1.8-14.142l-1.698 14.076s.78 3.354 1.014 5.628c.444 4.2.408 18.534.408 18.534a6.946 6.946 0 0 1-4.656.846s-4.164-22.074-5.328-26.25c-.522-1.878-.762-23.496 1.314-33.726L234 87.048Z" fill="#9269AD"/>
    <path opacity=".2" d="m223.908 106.878-1.2-9.084a9.948 9.948 0 0 1-5.088-1.674 12.16 12.16 0 0 0 4.266 2.628l1.2 7.698-.336 9.816 1.158-9.384Z" fill="#000"/>
    <path d="M228.114 61.8a8.401 8.401 0 0 1 5.634 4.608 7.319 7.319 0 0 1 .198 5.496l-3 8.604s3.948 6.384 3.948 9.996c-6.6 3.684-17.244 2.484-20.634.09-.096-.642.708-8.16.528-11.466-.192-3.522-.678-7.5-.126-9.678 1.032-4.044 2.958-7.842 6.792-7.842l6.66.192Z" fill="#F5F5F5"/>
    <path d="M229.2 61.8c2.544.36 6.282.876 7.572 6.924s1.68 8.268 1.68 8.268-2.088 2.43-6.312 2.4l-1.314-4.65L229.2 61.8Z" fill="#F5F5F5"/>
    <path d="M227.778 66.906a3.343 3.343 0 0 0 3.342-3.342v-9.738h-3.342v13.08Z" fill="#263238"/>
    <path d="M218.43 44.64c-1.008.6-2.256 3.132-2.136 8.448.108 4.506 1.566 5.622 2.304 5.94.738.318 2.148.126 3.522-.102v2.706s-1.902 2.208-1.8 3.45c.102 1.242 2.742 1.53 4.524.318a11.533 11.533 0 0 0 2.916-3.054V55.8a1.731 1.731 0 0 0 2.448.234c1.518-1.008 1.578-3.504.69-4.398-.888-.894-2.784-.6-3.138.6a10.9 10.9 0 0 1-5.112-1.524 8.201 8.201 0 0 1-4.218-6.072Z" fill="#FFA8A7"/>
    <path d="M221.328 51.96a.598.598 0 0 0 .534.6.6.6 0 0 0 .6-.558.563.563 0 0 0-.126-.443.562.562 0 0 0-.411-.205.57.57 0 0 0-.597.594v.012Z" fill="#263238"/>
    <path d="m221.178 55.8-1.32.42a.69.69 0 0 0 .329.418.684.684 0 0 0 .529.056.724.724 0 0 0 .462-.894Z" fill="#F28F8F"/>
    <path d="m216.684 50.22 1.146-.798a.663.663 0 0 0-.436-.3.673.673 0 0 0-.518.108.727.727 0 0 0-.192.99Zm.264 1.326a.562.562 0 0 0 .658.561.566.566 0 0 0 .437-.746.564.564 0 0 0-.495-.373.6.6 0 0 0-.6.558Z" fill="#263238"/>
    <path d="m219.618 51.222-.09 3.414-1.794-.558 1.884-2.856Zm2.502 7.704c1.446-.186 4.428-1.044 4.896-2.226a3.045 3.045 0 0 1-1.05 1.5c-.888.762-3.846 1.626-3.846 1.626v-.9Z" fill="#F28F8F"/>
    <path d="M213.6 79.152c-.822-1.53-1.026-1.602-1.518-1.932-.492-.33-3.486-.786-4.728-.888-1.464-.126-1.986.144-1.578 1.404.87 2.694 3.126 7.746 3.72 8.538.384.516.204 1.014 2.118 1.41 1.512.312 3.846.642 4.41.678.564.036 1.356.174.846-1.494a55.198 55.198 0 0 0-2.25-5.55 199.774 199.774 0 0 0-1.02-2.166Z" fill="#263238"/>
    <path d="M232.842 81.3s-12.246 1.098-13.968.564c-1.722-.534-2.442-1.518-3.528-2.46-1.086-.942-1.842-.714-1.842-.42.222.438.858 1.854 1.11 2.334.33.636-1.146.678-2.964.258-1.818-.42-2.55-1.482-3-.858-.45.624 1.008 3.648 4.032 4.8 3.024 1.152 5.268.384 7.77.486 2.502.102 13.92 1.2 17.4.132a3.07 3.07 0 0 0-1.2-2.958 10.593 10.593 0 0 0-3.81-1.878Z" fill="#FFA8A7"/>
    <path d="M231.882 77.88a45.426 45.426 0 0 1-1.464-4.716s.24 3.51 1.23 5.4l.234-.684Z" fill="#E0E0E0"/>
  </svg>
  