<svg width="260" height="260" viewBox="0 0 260 260" fill="none" xmlns="http://www.w3.org/2000/svg">
<g filter="url(#filter0_d_705_2869)">
<path d="M10.4415 156.733C10.9979 159.671 17.3263 208.177 17.3263 208.177L40.5027 219.991L38.4799 188.36L10.4415 156.733Z" fill="#9269AD" fill-opacity="0.4"/>
<path d="M222.128 185.328L228.54 230.973L230.204 231.025C229.143 215.524 228.01 199.711 222.128 185.328Z" fill="#E0E0E0"/>
<path d="M239.928 183.191C235.451 188.094 233.651 194.844 232.518 201.391C230.911 210.673 230.765 221.629 231.244 231.031L233.584 231.083C232.658 214.862 234.811 198.612 239.928 183.191Z" fill="#E0E0E0"/>
<path d="M223.304 212.332C222.784 210.07 222.201 207.771 220.912 205.847C219.17 203.247 216.325 201.599 213.47 200.314C210.616 199.03 207.605 198.011 205.02 196.238C207.901 200.964 214.443 202.223 217.776 206.638C219.43 208.837 220.121 211.598 220.766 214.271C222.186 220.106 223.054 225.155 224.474 230.989H226.366C225.741 224.712 224.718 218.48 223.304 212.332Z" fill="#E0E0E0"/>
<path d="M235.295 231.025C235.295 231.025 236.896 212.898 238.087 209.57C239.278 206.242 250.531 197.049 250.421 197.48C250.312 197.912 241.982 208 240.791 210.028C239.6 212.056 237.546 231.025 237.546 231.025H235.295Z" fill="#E0E0E0"/>
<path d="M248.17 250.77L245.263 233.61L215.472 216.97L195.489 224.832L191.974 230.526C189.839 233.968 186.929 236.863 183.477 238.982C179.202 241.613 172.557 246.527 170.477 250.739L248.17 250.77Z" fill="#E0E0E0"/>
<path d="M217.916 40.227C218.956 41.0902 226.585 51.2406 226.585 51.2406L242.497 48.9682V32.1878L223.288 18.8186L217.916 40.227Z" fill="#FAFAFA"/>
<path d="M55.7335 30.3472L62.4415 47.4136L85.1135 55.1304L99.2263 37.0864L84.1879 14.9292L61.9787 16.7596L55.7335 30.3472Z" fill="#FAFAFA"/>
<path d="M175.131 53.2843L181.839 70.3507L204.511 78.0727L218.624 60.0235L203.585 37.8663L181.376 39.6967L175.131 53.2843Z" fill="#9269AD" fill-opacity="0.4"/>
<path d="M143.307 38.3603L152.771 36.4727L158.881 25.4487L150.847 16.4631L137.972 22.1883L136.848 33.8623L143.307 38.3603Z" fill="#F5F5F5"/>
<path d="M68.0316 88.9928L75.4156 82.2848L74.0688 61.0636L50.5856 47.97L30.576 69.2848L34.7152 78.9672L24.2268 85.1448L22.9684 98.4464L40.2116 100.896L43.4356 88.556L57.1116 90.2928L68.0316 88.9928Z" fill="#9269AD" fill-opacity="0.4"/>
<path d="M226.84 75.327C225.098 76.2734 216.367 86.4134 216.367 86.4134L235.966 131.222L234.406 98.2122L226.84 75.327Z" fill="#F5F5F5"/>
<path d="M35.3445 51.2409L50.7365 38.3605L46.4256 22.3705L26.1768 25.3137V44.9229L35.3445 51.2409Z" fill="#FAFAFA"/>
<path d="M220.652 163.852L230.204 154.128L248.17 156.541L250.422 167.476L232.305 175.791L219.742 163.852" fill="#FAFAFA"/>
<path d="M44.2 183.654H61.75L78.572 213.642L82.2328 228.275L118.071 231.93L137.821 216.57L169.27 211.448L199.259 192.431L214.62 178.537V164.637L230.708 150.01H240.947L229.247 142.698L208.291 88.946L172.302 75.0724L158.298 45.4168H129.043L125.258 29.328L116.61 23.478L107.609 6.34399L109.294 25.6724L105.638 41.7612L104.905 57.122L81.4996 69.5552L82.2328 87.8384L71.2608 97.3492L50.778 95.888L44.2 115.461L20.7896 128.066V146.354L36.1504 172.687L44.2 183.654Z" fill="#E0E0E0"/>
<path d="M110.032 92.4459L105.352 111.093L99.5072 98.9251L94.5204 162.687L103.256 178.36L111.982 172.307C111.982 172.307 114.478 190.476 115.544 191.189C116.61 191.901 127.301 197.949 127.301 197.949L135.138 193.674H143.686L159.006 187.263L161.855 171.6L166.842 164.84L171.116 168.402L173.254 176.597L178.599 169.837L182.161 159.51L175.76 139.313C175.76 139.313 172.91 145.507 170.768 139.313C168.626 133.12 167.565 119.938 167.565 119.938L162.219 102.841L155.459 112.102L152.61 117.089L147.976 110.329L146.91 100.709L145.127 91.4475L138.367 88.5979V98.9303L135.164 104.65L128.752 97.1675L127.327 90.4075V84.6875L119.491 95.3735L110.032 92.4459Z" fill="#EBEBEB"/>
<path d="M82.1028 227.76L92.95 206.336L78.0988 196.232L69.186 183.752L66.5132 182.863C66.5132 182.863 65.624 139.495 67.1112 134.144C68.5984 128.794 71.2712 121.966 74.5368 126.422C77.8024 130.879 81.0056 140.234 83.0856 136.672C85.1656 133.11 88.4988 111.571 88.4988 111.571L92.95 91.0728V70.5848C92.95 70.5848 101.852 92.8668 103.87 93.7248C105.643 94.4892 106.038 69.6644 106.038 69.6644L108.68 60.32L112.45 39.806C112.45 39.806 113.968 59.566 115.742 62.0932C117.515 64.6204 120.302 67.158 121.316 67.6676C122.33 68.1772 124.098 56.0144 124.098 54.7508V47.8868C124.098 47.8868 129.251 76.7572 130.858 74.4796C132.465 72.202 132.465 63.5856 132.465 63.5856V50.44L136.516 47.6528L150.696 49.6808L163.363 63.102C163.363 63.102 171.72 101.093 173.493 98.306C175.266 95.5188 178.053 81.3384 178.053 81.3384L190.211 96.0284L192.488 163.628L186.035 200.814L197.548 193.508L214.609 178.537V164.637L204.656 101.327L208.296 88.946L172.307 75.0724L158.304 45.4324H129.043L125.258 29.328L116.61 23.478L107.609 6.34399L109.294 25.6724L105.654 41.7612L104.92 57.122L81.5204 69.5552L82.2536 87.8384L71.24 97.3492L50.778 95.888L44.2 115.44L45.4168 121.061L44.2 183.654H61.75L78.572 213.642L82.1028 227.76Z" fill="#EBEBEB"/>
<path d="M137.821 216.57L139.433 207.319L152.875 207.454L151.284 202.228L151.356 195.094L156 197.059L161.788 206.44L154.497 183.056L154.596 173.176L160.415 167.476L171.584 175.547L178.162 202.987L178.261 193.175L180.788 187.439L183.524 188.562L187.689 199.768L169.27 211.448L137.821 216.57Z" fill="#F5F5F5"/>
<path d="M137.8 216.57L169.234 211.37H169.198L187.606 199.67L187.559 199.81L183.399 188.604L183.466 188.677L180.736 187.554L180.898 187.486C180.112 189.28 179.249 191.235 178.376 193.206V193.154C178.344 196.248 178.308 199.576 178.277 202.966V204.032L178.027 202.992C176.124 195.062 174.112 186.664 172.037 178.032L171.444 175.557L171.496 175.635L160.332 167.565H160.503C158.538 169.492 156.598 171.399 154.684 173.285L154.721 173.191C154.69 176.55 154.655 179.844 154.617 183.071V183.04C157.217 191.391 159.661 199.233 161.897 206.44L162.167 207.308L161.694 206.539L155.912 197.153L155.958 197.194L151.315 195.218L151.455 195.13C151.424 197.647 151.398 200.018 151.372 202.264C151.949 204.157 152.464 205.868 152.958 207.496L152.989 207.6H152.88L139.438 207.433L139.49 207.392L137.8 216.57C137.8 216.57 137.8 216.372 137.894 215.977L138.19 214.204C138.455 212.644 138.85 210.309 139.36 207.308V207.262H139.407L152.849 207.371L152.771 207.48C152.251 205.852 151.731 204.147 151.169 202.254V202.223C151.169 199.976 151.211 197.61 151.237 195.094V194.943L151.372 195L156.021 196.966H156.047V196.997L161.845 206.357L161.637 206.45C159.39 199.254 156.957 191.412 154.331 183.05V183.04C154.362 179.823 154.395 176.53 154.43 173.16V173.108L154.466 173.066L160.285 167.346L160.368 167.268L160.456 167.336L171.626 175.406L171.668 175.432V175.484L172.26 177.96C174.34 186.597 176.342 194.995 178.24 202.92L177.98 202.946C178.017 199.56 178.053 196.232 178.084 193.133V193.107L180.617 187.387L180.669 187.273L180.778 187.32L183.56 188.448H183.607V188.5L187.767 199.706L187.798 199.794L187.72 199.846L169.291 211.51L146.203 215.212L139.963 216.206L138.356 216.46L137.8 216.57Z" fill="#263238"/>
<path d="M73.8088 205.15L76.4712 198.214L78.7592 197.298L80.8184 202.108V211.957L86.5488 187.45L95.94 180.804L100.75 185.614V193.861L93.8756 214.245L99.372 205.54L103.267 203.939V209.893L101.894 214.245H113.116L115.18 226.616L123.635 227.599L118.071 231.93L82.2328 228.275L78.572 213.642L73.8088 205.15Z" fill="#FAFAFA"/>
<path d="M44.2 183.654L36.1244 172.708L20.7376 146.385C20.7376 140.915 20.7376 134.748 20.7376 128.102V128.055H20.7792L44.1792 115.44L44.1376 115.487L50.7156 95.9089V95.8361H50.7936L71.2712 97.2921L71.1984 97.3181L82.16 87.7605L82.1236 87.8437C81.8948 82.1913 81.6452 75.9513 81.3852 69.5605V69.4877L81.4476 69.4565L104.848 57.0181L104.785 57.1169C105.009 52.3745 105.264 47.1017 105.513 41.7561C106.642 36.7693 107.895 31.2573 109.153 25.6621V25.7037C108.633 19.6873 108.051 13.0781 107.463 6.37529L107.411 5.74609L107.708 6.30769C110.516 11.6481 113.589 17.5085 116.709 23.4365L116.667 23.3897L125.32 29.2189L125.362 29.2449V29.2969C126.547 34.3305 127.842 39.8321 129.147 45.3857L129.022 45.2869H158.361L158.397 45.3649L172.406 75.0049L172.333 74.9321L183.04 79.0713L208.322 88.8213H208.38V88.8733C215.556 107.281 222.555 125.273 229.33 142.626L229.278 142.563L240.978 149.88L241.368 150.119H230.708L230.797 150.088L214.703 164.71L214.744 164.617C214.744 169.323 214.744 173.945 214.744 178.516V178.568L214.708 178.61L199.342 192.499L169.348 211.51H169.322L137.873 216.622H137.92L118.16 231.972H118.128H118.04L82.2016 228.296H82.16V228.244C80.782 222.706 79.612 218.015 78.52 213.616C71.1932 200.528 65.676 190.679 61.724 183.612H61.7552L44.2 183.654L61.75 183.617L78.598 213.59L82.3056 228.28L82.238 228.223L118.082 231.863H118.014L137.774 216.497H137.8L169.25 211.37H169.208L199.191 192.348L214.552 178.449L214.51 178.542C214.51 173.971 214.51 169.349 214.51 164.643V164.59L214.552 164.549L230.62 149.916L230.656 149.88H240.947L240.88 150.119L229.174 142.808H229.138V142.766C222.378 125.382 215.358 107.406 208.177 89.0137L208.255 89.0917L182.972 79.3469L172.271 75.2181H172.219V75.1713C167.414 65.0001 162.666 54.9485 158.215 45.5313L158.335 45.6093H128.96L128.934 45.5053C127.629 39.9517 126.334 34.4449 125.148 29.4165L125.206 29.4945L116.537 23.5821H116.506V23.5509C113.386 17.6229 110.318 11.7625 107.51 6.42209L107.749 6.34929C108.332 13.0521 108.909 19.6613 109.434 25.6725V25.7141C108.165 31.3041 106.907 36.8213 105.794 41.8029C105.539 47.1485 105.274 52.4213 105.061 57.1637V57.2001L105.004 57.2313L81.6036 69.6593L81.666 69.5553C81.9156 75.9461 82.186 82.1913 82.3888 87.8437V87.8957L82.3472 87.9269L71.3752 97.4325H71.344H71.24L50.7624 95.9609L50.8612 95.8985L44.2832 115.492V115.523L20.8832 128.118L20.9248 128.055C20.9248 134.701 20.9248 140.868 20.9248 146.339V146.307C27.4456 157.503 32.6248 166.405 36.2596 172.651L44.2 183.654Z" fill="#263238"/>
<path d="M20.8625 128.336C21.9441 138.065 25.8129 148.008 30.0301 156.843C29.1461 156.843 35.3445 128.378 35.3445 128.378L41.3245 144.472C41.3245 144.472 48.0065 120.411 49.8213 112.351L20.8625 128.336Z" fill="#EBEBEB"/>
<path d="M108.16 7.4931C108.16 7.4931 108.16 7.6023 108.202 7.8103C108.243 8.0183 108.254 8.3303 108.295 8.7567C108.368 9.5991 108.483 10.8367 108.623 12.3967C108.899 15.5635 109.299 20.1291 109.788 25.7503V25.7815C108.748 30.3471 107.5 35.7395 106.148 41.6623C105.919 46.5191 105.669 51.8439 105.404 57.4027V57.4807L105.337 57.5171L101.208 59.6959L81.9262 69.8723L81.9938 69.7579C82.259 76.6895 82.5138 82.8619 82.6854 87.9267V87.9735L82.6542 87.9995L74.3342 95.2535L72.0774 97.1983L71.4898 97.7183L71.2818 97.8795L71.4742 97.6975L72.0462 97.1775L74.2718 95.1963L82.5502 87.8799L82.519 87.9527C82.311 82.8931 82.051 76.7207 81.765 69.7839V69.6799L81.8326 69.6435L101.104 59.4515L105.227 57.2727L105.16 57.3819C105.425 51.8231 105.68 46.5035 105.919 41.6415L109.611 25.7763V25.8075C109.159 20.1759 108.795 15.6103 108.54 12.4435C108.42 10.8835 108.327 9.6459 108.259 8.8035C108.233 8.3979 108.212 8.0807 108.197 7.8571C108.177 7.73662 108.165 7.61506 108.16 7.4931Z" fill="#9269AD"/>
<path d="M204.194 87.36C204.14 87.351 204.088 87.3353 204.038 87.3132L203.57 87.1572L201.776 86.5332L195.042 84.1464L171.642 75.7588H171.59V75.7068C169.234 70.6212 166.655 65.052 163.967 59.2384C161.824 54.5948 159.749 50.1124 157.805 45.8952L157.924 45.9732L128.804 45.916H128.747V45.8588C128.076 43.1288 127.541 40.9656 127.187 39.4732C127.01 38.74 126.875 38.1732 126.776 37.7728C126.735 37.5908 126.703 37.4452 126.677 37.336C126.663 37.287 126.654 37.2364 126.651 37.1852C126.672 37.2319 126.688 37.2807 126.698 37.3308L126.818 37.7676L127.265 39.4524C127.645 40.9396 128.201 43.0924 128.903 45.8224L128.83 45.7652L157.95 45.7132H158.033L158.065 45.786L164.237 59.124C166.92 64.9428 169.494 70.5172 171.845 75.6028L171.772 75.5352L195.135 84.0112L201.843 86.4708L203.627 87.1364L204.085 87.3132C204.122 87.3261 204.159 87.3417 204.194 87.36Z" fill="#9269AD"/>
<path d="M249.408 151.975C246.427 151.544 243.475 150.934 240.568 150.15C243.548 150.581 246.5 151.191 249.408 151.975Z" fill="#263238"/>
<path d="M94.791 52.3329C94.4647 50.9629 94.2268 49.5734 94.0786 48.1729C93.8368 46.7838 93.6874 45.3802 93.6314 43.9713C93.9545 45.3419 94.1925 46.7313 94.3438 48.1313C94.5821 49.5209 94.7315 50.9243 94.791 52.3329Z" fill="#263238"/>
<path d="M105.909 57.2886C105.746 57.2732 105.586 57.2329 105.435 57.169C105.139 57.0702 104.713 56.9194 104.187 56.7218C103.147 56.3266 101.707 55.7442 100.152 55.0266C98.5974 54.309 97.2246 53.6018 96.247 53.061C95.727 52.7906 95.363 52.541 95.0978 52.3954C94.9507 52.3223 94.8143 52.2296 94.6922 52.1198C95.2576 52.3368 95.8067 52.594 96.3354 52.8894C97.3338 53.4094 98.717 54.0698 100.267 54.7822C101.816 55.4946 103.231 56.1082 104.26 56.545C104.825 56.7563 105.376 57.0047 105.909 57.2886Z" fill="#263238"/>
<path d="M85.5661 51.2408C87.1306 51.2424 88.6935 51.3397 90.2461 51.532C91.8021 51.6261 93.351 51.8136 94.8845 52.0936C93.3202 52.0855 91.7577 51.9883 90.2045 51.8024C88.6491 51.7017 87.1006 51.5142 85.5661 51.2408Z" fill="#263238"/>
<path d="M130.645 22.0483C129.88 23.3088 129.043 24.5242 128.138 25.6883C127.301 26.9017 126.39 28.0618 125.408 29.1619C126.172 27.8992 127.01 26.6837 127.92 25.5219C128.754 24.3079 129.664 23.1478 130.645 22.0483Z" fill="#263238"/>
<path d="M158.99 39.1822C158.993 40.2708 158.906 41.3578 158.73 42.4322C158.647 43.5178 158.473 44.5945 158.21 45.651C158.207 44.5626 158.292 43.4757 158.465 42.401C158.549 41.3152 158.725 40.2385 158.99 39.1822Z" fill="#263238"/>
<path d="M164.32 37.2737C163.523 37.7742 162.681 38.1973 161.803 38.5373C160.971 38.965 160.101 39.3132 159.203 39.5773C160.83 38.6449 162.544 37.8734 164.32 37.2737Z" fill="#263238"/>
<path d="M166.816 27.196C166.529 28.8734 166.154 30.5344 165.693 32.1724C165.324 33.8324 164.866 35.471 164.32 37.0812C164.607 35.4036 164.984 33.7424 165.448 32.1048C165.817 30.4454 166.273 28.8068 166.816 27.196Z" fill="#263238"/>
<path d="M171.964 33.197C171.013 33.2838 170.055 33.2838 169.104 33.197C168.149 33.2093 167.194 33.1274 166.254 32.9526C167.205 32.857 168.162 32.8483 169.114 32.9266C170.071 32.9234 171.025 33.0139 171.964 33.197Z" fill="#263238"/>
<path d="M219.648 81.7806C219.516 81.9079 219.368 82.0164 219.206 82.103C218.858 82.3214 218.442 82.5814 217.958 82.8934C216.918 83.559 215.452 84.4846 213.881 85.5558C212.311 86.627 210.912 87.6358 209.908 88.3742L208.712 89.2426C208.573 89.3606 208.42 89.4603 208.255 89.539C208.369 89.3956 208.502 89.2679 208.65 89.1594C208.91 88.9306 209.3 88.6082 209.789 88.2182C210.766 87.4434 212.15 86.4086 213.73 85.3322C215.311 84.2558 216.778 83.351 217.859 82.7322C218.379 82.4202 218.842 82.1758 219.154 82.0146C219.308 81.9159 219.474 81.8372 219.648 81.7806Z" fill="#263238"/>
<path d="M243.974 159.526C243.367 158.045 242.847 156.531 242.414 154.991C241.899 153.478 241.47 151.936 241.129 150.374C241.734 151.855 242.255 153.369 242.689 154.908C243.205 156.422 243.633 157.963 243.974 159.526Z" fill="#263238"/>
<path d="M10.8265 135.757C10.7797 135.699 12.9065 133.957 15.5637 131.867C18.2209 129.777 20.4153 128.133 20.4621 128.191C20.5089 128.248 18.3821 129.99 15.7301 132.08C13.0781 134.171 10.8733 135.814 10.8265 135.757Z" fill="#263238"/>
<path d="M11.1592 129.168C11.8501 129.582 12.492 130.072 13.0728 130.629C13.7126 131.119 14.2952 131.679 14.8096 132.299C14.1199 131.884 13.4781 131.394 12.896 130.837C12.2577 130.346 11.6753 129.787 11.1592 129.168Z" fill="#263238"/>
<path d="M37.0137 107.843C38.2165 108.96 39.3554 110.144 40.4249 111.389C41.5604 112.576 42.6314 113.822 43.6333 115.123C42.4314 114.003 41.2926 112.817 40.2221 111.571C39.0875 110.386 38.0166 109.142 37.0137 107.843Z" fill="#263238"/>
<path d="M135.481 113.88L149.167 109.116L145.08 93.6569L149.287 92.1957C149.287 92.1957 158.007 106.485 158.558 111.436C159.11 116.386 143.151 122.574 143.151 122.574L135.481 113.88Z" fill="#FFBE9D"/>
<path d="M153.306 107.739C152.926 107.978 152.515 108.166 152.084 108.295C151.304 108.586 150.223 108.95 149.027 109.335L145.964 110.349C145.549 110.513 145.126 110.653 144.695 110.77C145.064 110.511 145.469 110.308 145.896 110.167C146.661 109.85 147.742 109.47 148.944 109.08C150.145 108.69 151.232 108.352 152.022 108.108C152.441 107.956 152.871 107.833 153.306 107.739Z" fill="#EB996E"/>
<path d="M147.342 85.2801C147.087 84.9577 147.113 84.8589 146.822 84.7913C146.531 84.7237 145.922 84.4533 145.714 84.5625C145.506 84.6717 145.361 85.0825 145.361 85.0825C145.361 85.0825 144.648 84.4481 144.149 84.5261C143.65 84.6041 143.452 84.8277 143.442 84.9993C143.332 84.8958 143.2 84.8187 143.056 84.7737C142.912 84.7286 142.759 84.7169 142.61 84.7393C142.09 84.8225 141.757 85.0565 141.757 85.4101C141.546 85.3723 141.329 85.3723 141.118 85.4101C140.997 85.4516 140.885 85.5131 140.785 85.5921C140.658 85.6891 140.567 85.8256 140.527 85.9801C140.486 86.1345 140.498 86.2981 140.561 86.4449L140.826 87.1001C140.826 87.1001 140.244 87.3185 140.213 87.5629C140.191 87.7899 140.227 88.0188 140.317 88.2285C140.572 88.7924 140.784 89.3747 140.951 89.9705C141.04 90.291 141.21 90.5831 141.445 90.8181L144.009 92.1701C144.16 92.2752 144.304 92.3898 144.44 92.5133C144.694 92.8988 144.87 93.3296 144.96 93.7821C145.397 94.9885 146.702 97.9421 146.702 97.9421L151.102 96.0493L149.443 92.2013L148.923 90.9533C149 90.4766 148.986 89.9894 148.881 89.5181C148.721 88.9693 148.532 88.4295 148.314 87.9009C148.2 87.5993 147.602 85.5921 147.342 85.2801Z" fill="#FFBE9D"/>
<path d="M142.225 86.3199C142.012 86.0447 141.838 85.7421 141.705 85.4203V85.3683C141.705 85.4567 141.737 85.4255 141.705 85.4359H141.612H141.435C141.306 85.4506 141.179 85.4785 141.055 85.5191C140.931 85.5645 140.824 85.6476 140.75 85.7567C140.675 85.8657 140.637 85.9954 140.639 86.1275V86.0755C140.743 86.3043 140.837 86.5435 140.931 86.7879C141.279 87.7031 141.555 88.5403 141.757 89.1435C141.887 89.466 141.984 89.8004 142.049 90.1419C141.843 89.858 141.684 89.544 141.575 89.2111C141.326 88.6235 141.024 87.7915 140.676 86.8815C140.582 86.6423 140.494 86.4031 140.4 86.1847V86.1587C140.397 85.9734 140.453 85.792 140.561 85.6412C140.668 85.4905 140.822 85.3784 140.998 85.3215C141.141 85.2826 141.287 85.2565 141.435 85.2435C141.502 85.2383 141.57 85.2383 141.638 85.2435H141.747H141.815C141.815 85.2435 141.882 85.2435 141.893 85.3735V85.3215C142.046 85.6386 142.158 85.9741 142.225 86.3199Z" fill="#EB996E"/>
<path d="M143.983 85.9352C143.91 85.9352 143.796 85.7688 143.671 85.5452C143.546 85.3216 143.442 85.1188 143.499 85.0668C143.556 85.0148 143.759 85.1552 143.905 85.41C144.05 85.6648 144.04 85.9196 143.983 85.9352Z" fill="#EB996E"/>
<path d="M145.787 85.883C145.709 85.883 145.657 85.7166 145.579 85.5398C145.501 85.363 145.434 85.2018 145.491 85.1446C145.548 85.0874 145.735 85.1966 145.834 85.4358C145.933 85.675 145.86 85.8934 145.787 85.883Z" fill="#EB996E"/>
<path d="M149.105 108.893C149.032 108.893 148.065 105.477 146.936 101.218C145.808 96.9593 144.955 93.4909 145.028 93.4753C145.101 93.4597 146.068 96.8917 147.196 101.15C148.325 105.409 149.178 108.878 149.105 108.893Z" fill="#9269AD"/>
<path d="M137.119 83.8292L134.295 82.3524L134.03 84.3388L137.015 85.8208C137.186 86.008 156.967 95.7007 156.967 95.7007L157.596 94.3644L137.119 83.8292Z" fill="#455A64"/>
<path d="M139.781 67.6623C139.968 64.3343 137.842 61.3755 135.814 58.7339C135.091 57.7875 134.16 56.7423 132.974 56.8359C132.57 56.8988 132.187 57.0596 131.859 57.3043C131.531 57.549 131.268 57.8702 131.092 58.2399C130.742 58.9718 130.488 59.7462 130.338 60.5435C129.662 63.1851 128.508 65.6707 127.514 68.2031C126.521 70.7355 125.679 73.4031 125.679 76.1175C125.679 78.8319 126.625 81.6711 128.705 83.4339C130.608 85.0511 133.546 85.5139 135.678 84.2763C137.301 84.0059 138.278 82.1339 138.346 80.4491C138.414 78.7643 137.862 76.9443 137.961 75.1815C138.107 72.5815 139.641 70.2363 139.781 67.6623Z" fill="#9269AD"/>
<g opacity="0.8">
<path opacity="0.8" d="M139.781 67.6623C139.968 64.3343 137.842 61.3755 135.814 58.7339C135.091 57.7875 134.16 56.7423 132.974 56.8359C132.57 56.8988 132.187 57.0596 131.859 57.3043C131.531 57.549 131.268 57.8702 131.092 58.2399C130.742 58.9718 130.488 59.7462 130.338 60.5435C129.662 63.1851 128.508 65.6707 127.514 68.2031C126.521 70.7355 125.679 73.4031 125.679 76.1175C125.679 78.8319 126.625 81.6711 128.705 83.4339C130.608 85.0511 133.546 85.5139 135.678 84.2763C137.301 84.0059 138.278 82.1339 138.346 80.4491C138.414 78.7643 137.862 76.9443 137.961 75.1815C138.107 72.5815 139.641 70.2363 139.781 67.6623Z" fill="white"/>
</g>
<path d="M136.9 79.6533C136.817 77.5733 136.38 75.4933 136.521 73.4133C136.604 72.1965 136.88 70.9849 136.776 69.7733C136.672 68.5617 136.074 67.2773 134.945 66.8197C134.637 66.6971 134.306 66.6418 133.974 66.6574C133.643 66.6731 133.319 66.7594 133.023 66.9106C132.728 67.0617 132.468 67.2742 132.261 67.5339C132.055 67.7935 131.906 68.0943 131.825 68.4161C131.659 69.0973 131.799 69.8409 131.529 70.4961C131.102 71.5361 129.797 71.9521 129.334 72.9661C129.078 73.7188 129.119 74.5409 129.449 75.2645C129.776 75.9797 129.992 76.7408 130.088 77.5213C130.13 78.7849 129.308 79.9445 129.256 81.2081C129.267 81.9005 129.466 82.5769 129.832 83.1643C130.199 83.7517 130.719 84.2279 131.336 84.5413C132.582 85.154 133.995 85.3369 135.356 85.0613C137.753 83.3973 136.984 81.7385 136.9 79.6533Z" fill="#9269AD"/>
<g opacity="0.3">
<path opacity="0.3" d="M136.022 79.8875C135.741 78.7019 135.065 77.6359 134.789 76.4451C134.704 75.84 134.573 75.2421 134.399 74.6563C134.306 74.3643 134.133 74.1042 133.9 73.9057C133.666 73.7071 133.382 73.578 133.078 73.5331C132.734 73.5599 132.409 73.7 132.153 73.9314C131.897 74.1629 131.725 74.4727 131.664 74.8123C131.569 75.5002 131.631 76.2008 131.846 76.8611C132.06 77.5222 132.108 78.2258 131.986 78.9099C131.82 79.5599 131.357 80.1111 131.217 80.7663C131.147 81.2724 131.222 81.788 131.433 82.253C131.645 82.718 131.985 83.1131 132.413 83.3923C132.793 83.6758 133.249 83.8404 133.723 83.8655C134.158 83.8943 134.591 83.7973 134.972 83.5861C135.353 83.3749 135.665 83.0585 135.871 82.6747C136.249 81.7928 136.303 80.8052 136.022 79.8875Z" fill="white"/>
</g>
<g opacity="0.3">
<path opacity="0.3" d="M133.541 69.5186C133.41 69.5904 133.302 69.698 133.229 69.829C133.157 69.9599 133.123 70.1088 133.131 70.2582C133.14 70.4076 133.191 70.5515 133.278 70.6731C133.366 70.7947 133.486 70.889 133.625 70.945C133.763 71.0011 133.915 71.0165 134.063 70.9896C134.21 70.9627 134.346 70.8946 134.456 70.7931C134.566 70.6916 134.645 70.5609 134.684 70.4163C134.723 70.2717 134.72 70.1191 134.675 69.9762C134.609 69.7906 134.477 69.6355 134.305 69.5398C134.133 69.4441 133.931 69.4144 133.739 69.4562" fill="white"/>
</g>
<path d="M134.68 60.5331C134.68 60.5331 133.536 61.8071 133.583 62.7951C133.573 63.0683 133.662 63.3359 133.834 63.5482C134.006 63.7605 134.249 63.9031 134.519 63.9495L134.794 62.2387L134.68 60.5331Z" fill="#9269AD"/>
<path d="M140.036 87.2663C139.224 87.0156 138.442 86.6792 137.701 86.2627C136.922 85.9247 136.179 85.5064 135.486 85.0147C136.298 85.2648 137.081 85.6013 137.821 86.0183C138.6 86.3569 139.343 86.7751 140.036 87.2663Z" fill="#9269AD"/>
<path d="M123.001 80.9432C122.911 80.6883 122.847 80.4254 122.809 80.158C122.694 79.638 122.58 78.91 122.471 77.9896C122.351 76.9104 122.292 75.8254 122.294 74.7396C122.296 72.074 122.656 69.4208 123.365 66.8512C123.653 65.8028 124 64.7716 124.405 63.7624C124.753 62.9044 125.065 62.2024 125.305 61.7604C125.418 61.5165 125.55 61.2818 125.7 61.0584C125.621 61.3154 125.522 61.5658 125.403 61.8072C125.19 62.2752 124.883 62.9668 124.582 63.83C124.28 64.6932 123.927 65.7384 123.609 66.9136C122.948 69.4619 122.599 72.0811 122.569 74.7136C122.569 75.9304 122.606 77.0276 122.689 77.948C122.772 78.8684 122.855 79.6068 122.939 80.1164C122.981 80.3899 123.002 80.6664 123.001 80.9432Z" fill="#9269AD"/>
<path d="M120.359 75.2856C120.269 74.9553 120.227 74.6138 120.234 74.2716C120.164 72.6203 120.339 70.9677 120.754 69.368C120.82 69.0301 120.935 68.704 121.098 68.4008C121.176 68.4008 120.775 69.9296 120.578 71.8276C120.38 73.7256 120.442 75.2804 120.359 75.2856Z" fill="#9269AD"/>
<path d="M142.1 69.316C142.017 69.316 142.381 67.808 142.35 65.9412C142.319 64.0744 141.929 62.5924 142.007 62.5716C142.169 62.8673 142.279 63.1895 142.329 63.5232C142.695 65.1103 142.718 66.7573 142.397 68.354C142.354 68.6893 142.253 69.0146 142.1 69.316Z" fill="#9269AD"/>
<path d="M143.738 69.4718C144.044 68.2231 144.249 66.952 144.352 65.6706C144.364 64.3847 144.275 63.0999 144.087 61.8278C144.255 62.1733 144.366 62.5439 144.414 62.925C144.774 64.7451 144.691 66.625 144.17 68.4058C144.084 68.7818 143.938 69.1416 143.738 69.4718Z" fill="#9269AD"/>
<path d="M121.347 86.658L121.586 86.5956C121.963 85.9592 122.494 85.428 123.13 85.0508C123.766 84.6737 124.487 84.4628 125.226 84.4376C126.708 84.3979 128.147 84.9348 129.241 85.9352C130.005 86.6112 130.608 87.4484 131.373 88.1244C131.732 88.4867 132.17 88.7618 132.652 88.9286C133.134 89.0953 133.648 89.1493 134.155 89.0864C134.274 89.4608 133.583 89.6792 133.635 90.0692C133.658 90.1596 133.709 90.2408 133.779 90.302C133.85 90.3633 133.937 90.4018 134.03 90.4124C134.302 90.4332 134.575 90.4332 134.846 90.4124C134.983 90.4021 135.12 90.4352 135.236 90.5071C135.353 90.579 135.444 90.686 135.496 90.8128C135.52 90.945 135.509 91.0811 135.465 91.208C135.203 92.3836 134.647 93.4733 133.848 94.3748C133.445 94.8203 132.939 95.1607 132.374 95.3664C131.81 95.5721 131.204 95.6369 130.608 95.5552C129.681 95.3007 128.831 94.8221 128.133 94.1616L123.88 90.7504C123.201 90.2554 122.591 89.6732 122.065 89.0188C121.524 88.3571 121.266 87.5087 121.347 86.658Z" fill="#263238"/>
<path d="M122.236 86.8918C121.665 86.4096 120.985 86.0725 120.255 85.909C119.89 85.8305 119.514 85.8264 119.147 85.897C118.781 85.9676 118.433 86.1114 118.123 86.3198C117.602 86.7779 117.162 87.3213 116.823 87.9266C116.651 88.2266 116.421 88.4892 116.146 88.6991C115.871 88.9089 115.556 89.0617 115.222 89.1486C115.099 89.1482 114.979 89.1864 114.878 89.2578C114.722 89.4034 114.837 89.6946 115.029 89.7778C115.236 89.8439 115.457 89.8439 115.664 89.7778C115.321 90.1749 114.85 90.4398 114.332 90.5266C114.365 90.6509 114.422 90.7675 114.5 90.8696C114.578 90.9718 114.675 91.0575 114.786 91.1218C114.897 91.1861 115.02 91.2277 115.148 91.2443C115.275 91.2608 115.404 91.252 115.528 91.2182C115.297 92.0153 115.164 92.8379 115.133 93.6674C115.107 94.5047 115.392 95.3219 115.934 95.9606C116.553 96.6314 117.562 97.0006 117.832 97.8742" fill="#263238"/>
<path d="M128.206 116.116L117.135 115.96L118.373 106.517C118.373 106.517 117.614 106.356 117.562 102.248C117.51 98.1396 117.323 91.1664 117.323 91.1664C119.654 90.1624 122.212 89.7998 124.73 90.1161C127.249 90.4324 129.638 91.4162 131.649 92.9656L132.257 93.4336L128.206 116.116Z" fill="#FFBE9D"/>
<path d="M130.972 98.5033C131.04 98.4721 133.791 97.6661 133.697 100.474C133.604 103.282 130.811 102.611 130.811 102.554C130.811 102.497 130.972 98.5033 130.972 98.5033Z" fill="#FFBE9D"/>
<path d="M117.801 97.916C117.733 97.8848 115.232 97.2088 115.32 99.996C115.409 102.783 118.206 102.138 118.212 102.076C118.217 102.014 117.801 97.916 117.801 97.916Z" fill="#FFBE9D"/>
<path d="M131.877 98.1862C131.461 100.542 131.544 101.779 131.154 103.35C130.541 105.835 129.308 107.744 127.072 108.987C124.836 110.229 121.81 110.203 119.886 108.513C118.555 107.338 117.608 106.012 117.411 104.249C117.213 102.487 116.693 99.1638 116.678 97.3854C116.678 94.1822 116.766 91.3066 116.766 91.3066L125.908 89.6478L131.108 92.7678L131.877 98.1862Z" fill="#263238"/>
<path d="M122.444 110.401C122.954 110.597 123.509 110.646 124.046 110.541C124.592 110.523 125.122 110.356 125.58 110.058C125.554 109.985 124.878 110.198 124.02 110.286C123.162 110.375 122.455 110.328 122.444 110.401Z" fill="#263238"/>
<path d="M131.435 102.19C131.706 99.7775 131.877 97.0215 132.257 94.4787C132.397 93.5219 132.735 92.1491 132.652 91.1871C132.569 90.2251 132.304 90.5163 131.877 89.6271C131.357 88.5351 129.314 87.8071 128.128 87.5471C126.942 87.2871 126.792 86.2783 125.876 87.0791C125.537 86.5753 125.052 86.1876 124.486 85.9682C123.919 85.7489 123.299 85.7085 122.709 85.8524C122.119 85.9964 121.588 86.3178 121.186 86.7733C120.784 87.2288 120.532 87.7965 120.463 88.3999C120.13 88.1005 119.709 87.9167 119.263 87.8758C118.817 87.8348 118.37 87.9389 117.988 88.1726C117.606 88.4063 117.309 88.7571 117.142 89.1728C116.976 89.5885 116.948 90.0469 117.062 90.4799C116.733 90.5359 116.422 90.6728 116.158 90.8784C115.894 91.0839 115.685 91.3517 115.55 91.6578C115.415 91.9639 115.358 92.2986 115.384 92.6321C115.411 92.9656 115.519 93.2874 115.7 93.5687C116.126 94.2239 116.891 94.5827 117.359 95.2067C117.622 95.5712 117.775 96.0035 117.8 96.4523C117.825 96.9012 117.72 97.3477 117.499 97.7391" fill="#263238"/>
<path d="M119.652 101.686C119.524 102.523 119.633 103.379 119.969 104.156C120.225 104.968 120.709 105.69 121.363 106.236C120.922 105.55 120.536 104.83 120.208 104.083C119.962 103.299 119.776 102.498 119.652 101.686Z" fill="#455A64"/>
<path d="M118.425 99.637C118.174 100.35 118.113 101.117 118.248 101.86C118.383 102.604 118.709 103.3 119.194 103.88C118.903 103.208 118.669 102.512 118.498 101.8C118.411 101.083 118.386 100.359 118.425 99.637Z" fill="#455A64"/>
<path d="M129.943 89.9597C129.29 88.813 128.291 87.9027 127.088 87.3597C126.491 87.1016 125.835 87.0084 125.189 87.0898C124.544 87.1712 123.932 87.4242 123.417 87.8225" fill="#263238"/>
<path d="M129.714 96.148C129.667 96.148 129.714 95.8204 129.802 95.316C129.931 94.6754 130.003 94.0245 130.016 93.3712C130.013 92.7273 129.869 92.0918 129.594 91.5096C129.376 91.0676 129.152 90.8388 129.189 90.8024C129.225 90.766 129.501 90.948 129.792 91.3952C130.154 91.9883 130.343 92.671 130.338 93.366C130.333 94.0468 130.228 94.7231 130.026 95.3732C129.973 95.649 129.867 95.9121 129.714 96.148Z" fill="#455A64"/>
<path d="M127.821 97.0734C127.738 97.0318 127.967 96.4754 128.185 95.7786C128.404 95.0818 128.544 94.4942 128.638 94.5098C128.736 94.9691 128.687 95.4477 128.497 95.8774C128.263 96.6106 127.92 97.1202 127.821 97.0734Z" fill="#455A64"/>
<path d="M119.038 96.3558C118.748 96.0794 118.531 95.7342 118.409 95.3522C118.036 94.448 117.938 93.4534 118.129 92.4938C118.319 91.5342 118.79 90.6525 119.48 89.9598C119.74 89.6546 120.073 89.4203 120.448 89.2786C120.479 89.3202 120.11 89.5802 119.652 90.1158C119.052 90.8117 118.641 91.6495 118.456 92.5494C118.282 93.452 118.339 94.384 118.622 95.2586C118.841 95.945 119.08 96.3246 119.038 96.3558Z" fill="#455A64"/>
<path d="M129.038 85.9091C128.722 85.8192 128.419 85.6917 128.133 85.5295C127.444 85.1997 126.692 85.0223 125.928 85.0095C125.554 85.0026 125.182 85.0745 124.837 85.2205C124.493 85.3665 124.182 85.5834 123.926 85.8571C123.731 86.1088 123.557 86.3767 123.406 86.6579C123.37 86.6579 123.36 86.2315 123.739 85.7115C123.966 85.4108 124.257 85.1654 124.592 84.9939C125.003 84.792 125.455 84.687 125.913 84.6871C126.729 84.7003 127.527 84.9281 128.227 85.3475C128.768 85.6283 129.059 85.8727 129.038 85.9091Z" fill="#455A64"/>
<path d="M116.527 88.5091C116.496 88.5091 116.558 88.1815 116.854 87.7655C117.248 87.2213 117.812 86.8238 118.457 86.6355C119.102 86.4472 119.791 86.4789 120.416 86.7255C120.89 86.9179 121.113 87.1467 121.092 87.1779C121.072 87.2091 120.801 87.0687 120.344 86.9439C119.757 86.7741 119.134 86.7743 118.548 86.9447C117.962 87.115 117.436 87.4483 117.031 87.9059C116.714 88.2595 116.574 88.5299 116.527 88.5091Z" fill="#455A64"/>
<path d="M119.543 98.8312C119.543 98.7896 119.995 98.67 120.734 98.3372C121.735 97.8857 122.652 97.2647 123.443 96.5016L123.963 95.9816L123.672 96.668C123.491 97.0957 123.359 97.5422 123.276 97.9992C123.23 98.2332 123.193 98.5192 123.276 98.5608C123.36 98.6024 123.588 98.5088 123.796 98.358C124.505 97.9023 125.14 97.3412 125.679 96.694L126.168 96.1116L125.944 96.8344L125.32 98.852L125.112 98.722C125.795 98.0413 126.396 97.282 126.901 96.46C126.841 96.7209 126.735 96.9692 126.589 97.1932C126.236 97.8207 125.799 98.3964 125.289 98.904L124.946 99.2472L125.076 98.7792C125.247 98.1604 125.44 97.4844 125.648 96.7512L125.913 96.8916C125.36 97.5725 124.704 98.1621 123.968 98.6388C123.852 98.7167 123.73 98.7862 123.604 98.8468C123.525 98.8924 123.435 98.9164 123.344 98.9164C123.253 98.9164 123.163 98.8924 123.084 98.8468C123.017 98.7866 122.966 98.7112 122.936 98.6269C122.905 98.5426 122.895 98.4521 122.907 98.3632C122.917 98.2303 122.936 98.0982 122.964 97.968C123.052 97.4879 123.197 97.0201 123.396 96.5744L123.64 96.7408C122.818 97.5152 121.851 98.1211 120.796 98.5244C120.398 98.6955 119.975 98.7992 119.543 98.8312Z" fill="#455A64"/>
<path d="M124.894 88.0045C124.8 87.8367 124.673 87.6895 124.521 87.5716C124.369 87.4537 124.195 87.3675 124.01 87.3181C123.637 87.2323 123.249 87.2323 122.876 87.3181C121.944 87.487 121.099 87.9762 120.489 88.7013C120.349 88.8625 120.229 89.1173 120.375 89.2733C120.462 89.3464 120.573 89.3853 120.687 89.3825C122.066 89.4954 123.453 89.4466 124.821 89.2369" fill="#263238"/>
<path d="M134.202 88.8105C134.202 88.8105 134.155 88.8834 134.025 88.9718C133.829 89.0982 133.606 89.1766 133.375 89.2005C133.005 89.2395 132.632 89.1859 132.288 89.0446C131.84 88.8514 131.44 88.5641 131.113 88.2021C130.733 87.8225 130.39 87.3546 129.974 86.9074C129.535 86.4248 129.045 85.9907 128.513 85.6125C127.938 85.187 127.289 84.8714 126.599 84.6818C125.856 84.5024 125.08 84.5132 124.342 84.713C123.265 84.9521 122.318 85.5891 121.69 86.4965L121.597 86.6474L121.482 86.5174C121.116 86.1037 120.607 85.8422 120.058 85.7842C119.55 85.7345 119.039 85.8263 118.581 86.0493C117.676 86.4497 117.286 87.2974 116.854 87.8902C116.641 88.1918 116.475 88.4726 116.277 88.7014C116.114 88.8989 115.897 89.0451 115.653 89.1226C115.501 89.1653 115.342 89.1777 115.185 89.159C115.131 89.1587 115.078 89.1463 115.029 89.1226C115.231 89.1215 115.432 89.0936 115.627 89.0393C115.847 88.9511 116.039 88.8057 116.184 88.6181C116.355 88.3997 116.516 88.0982 116.704 87.8018C116.891 87.5054 117.109 87.157 117.364 86.7618C117.651 86.3661 118.029 86.0451 118.466 85.8258C118.961 85.5762 119.516 85.4716 120.068 85.5242C120.681 85.5799 121.249 85.8661 121.659 86.3249H121.451C122.111 85.3548 123.115 84.6711 124.259 84.4114C125.044 84.2113 125.866 84.2113 126.651 84.4114C127.37 84.6121 128.046 84.9454 128.643 85.3942C129.183 85.7869 129.68 86.2367 130.125 86.7358C130.541 87.209 130.879 87.6769 131.232 88.0565C131.483 88.3796 131.803 88.6413 132.17 88.8215C132.537 89.0017 132.94 89.0958 133.349 89.0965C133.652 89.0717 133.945 88.9736 134.202 88.8105Z" fill="#9269AD"/>
<path d="M120.297 95.8673C120.075 95.5925 119.918 95.2706 119.839 94.9261C119.581 94.1103 119.525 93.2436 119.679 92.4015C119.832 91.5595 120.189 90.7678 120.718 90.0953C120.916 89.8022 121.177 89.557 121.482 89.3777C121.514 89.4089 121.228 89.6897 120.874 90.2097C120.404 90.8829 120.085 91.6493 119.938 92.4568C119.791 93.2644 119.819 94.0941 120.021 94.8897C120.167 95.4877 120.338 95.8465 120.297 95.8673Z" fill="#9269AD"/>
<path d="M129.714 91.2131C129.672 91.2391 129.464 90.9167 129.054 90.4695C128.516 89.8905 127.885 89.4055 127.187 89.0343C126.488 88.6667 125.732 88.4206 124.951 88.3063C124.619 88.283 124.29 88.2413 123.963 88.1815C124.29 88.0861 124.634 88.063 124.972 88.1139C125.79 88.1808 126.587 88.4129 127.314 88.7964C128.04 89.1798 128.682 89.7065 129.199 90.3447C129.427 90.5966 129.603 90.892 129.714 91.2131Z" fill="#9269AD"/>
<path d="M113.469 205.92L119.226 239.949L126.984 242.84C126.984 242.84 126.693 219.918 126.396 217.022C125.809 211.302 125.497 204.417 125.497 204.417L113.469 205.92Z" fill="#FFBE9D"/>
<path d="M131.992 204.038L145.33 240.11L153.187 237.297L143.317 201.521L131.992 204.038Z" fill="#FFBE9D"/>
<path d="M109.824 173.68L111.202 206.169L127.322 204.167L126.693 191.88L127.733 189.28L127.296 190.372L130.364 204.297L144.784 201.24L141.268 167.7C141.268 167.7 139.391 162.931 139.261 162.053C139.131 161.174 134.129 158.543 134.129 158.543L109.824 170.56V173.68Z" fill="#263238"/>
<path d="M132.512 179.535C132.467 179.717 132.397 179.892 132.304 180.055L131.669 181.371C131.149 182.478 130.395 184.012 129.589 185.718L127.566 190.091C127.327 190.611 127.119 191.048 126.942 191.412C126.878 191.581 126.791 191.74 126.682 191.885C126.714 191.705 126.77 191.53 126.849 191.365C126.968 191.042 127.156 190.58 127.369 190.008C127.842 188.869 128.523 187.304 129.319 185.598C130.114 183.893 130.879 182.364 131.461 181.277C131.752 180.731 131.981 180.299 132.174 180.003C132.264 179.832 132.378 179.675 132.512 179.535Z" fill="#455A64"/>
<path d="M117.036 113.173C116.371 113.266 108.134 116.563 106.99 118.643C106.413 119.683 104.598 134.851 104.598 134.851L114.478 135.231C114.478 135.231 112.486 151.679 112.96 153.103C112.96 153.103 112.07 157.612 111.758 158.517C111.062 160.55 109.829 170.56 109.829 170.56C109.829 170.56 143.343 168.599 143.151 168.313C142.958 168.027 142.298 160.55 142.298 160.55L141.258 118.877L135.2 113.131L129.584 112.699L117.036 113.173Z" fill="#9269AD"/>
<path d="M105.04 134.867C105.109 134.86 105.179 134.86 105.248 134.867H105.851L108.118 134.909L115.981 135.122L115.851 135.247C115.851 133.583 115.804 131.763 115.684 129.865C115.612 128.742 115.518 127.644 115.409 126.589C115.346 126.069 115.289 125.549 115.232 125.029C115.185 124.536 115.107 124.046 114.998 123.562C114.798 122.665 114.535 121.782 114.213 120.921C113.897 120.196 113.392 119.569 112.752 119.106C111.807 118.432 110.66 118.103 109.502 118.175C109.078 118.218 108.657 118.291 108.243 118.394C108.637 118.213 109.059 118.104 109.491 118.071C110.683 117.953 111.879 118.264 112.861 118.95C113.542 119.425 114.081 120.075 114.421 120.832C114.756 121.703 115.031 122.596 115.242 123.505C115.353 123.998 115.436 124.496 115.492 124.998C115.549 125.518 115.612 126.038 115.674 126.558C115.788 127.598 115.882 128.716 115.955 129.844C116.074 131.742 116.121 133.572 116.106 135.242V135.377H115.976L108.113 135.065L105.846 134.95L105.243 134.914C105.174 134.906 105.106 134.89 105.04 134.867Z" fill="#263238"/>
<path d="M144.586 110.495L151.736 119.142L143.702 124.191L134.581 115.32L135.184 113.131L144.586 110.495Z" fill="#9269AD"/>
<g opacity="0.3">
<path opacity="0.3" d="M115.019 123.359C115.32 126.705 115.624 130.047 115.929 133.385C116.038 133.929 115.971 134.494 115.736 134.997C115.45 135.47 114.696 135.683 114.348 135.262L113.204 146.921C114.516 144.054 115.494 141.046 116.121 137.956C116.332 136.953 116.483 135.939 116.574 134.919C116.886 131.04 115.96 127.155 115.019 123.359Z" fill="black"/>
</g>
<path d="M107.12 174.345C107.9 175.072 108.383 176.061 108.477 177.122C108.481 177.543 108.521 177.962 108.597 178.375C108.784 179.077 109.34 179.618 109.611 180.294C109.741 180.578 109.772 180.896 109.699 181.199C109.658 181.349 109.572 181.482 109.451 181.58C109.331 181.678 109.183 181.735 109.028 181.745C108.909 181.735 108.793 181.701 108.688 181.645C108.582 181.589 108.489 181.511 108.415 181.417C107.786 180.752 107.676 179.707 107.011 179.077" fill="#FFBE9D"/>
<path d="M107.021 179.077C107.021 179.077 107.177 179.161 107.364 179.405C107.604 179.761 107.81 180.139 107.978 180.533C108.097 180.793 108.249 181.036 108.43 181.256C108.618 181.485 108.904 181.693 109.174 181.599C109.321 181.54 109.445 181.433 109.525 181.295C109.605 181.158 109.637 180.998 109.616 180.84C109.565 180.465 109.424 180.109 109.205 179.8C108.979 179.468 108.776 179.12 108.597 178.76C108.45 178.399 108.379 178.011 108.389 177.621C108.397 177.001 108.28 176.386 108.046 175.812C107.803 175.291 107.496 174.804 107.13 174.361C107.13 174.361 107.281 174.444 107.494 174.663C107.794 174.978 108.039 175.34 108.222 175.734C108.493 176.323 108.635 176.963 108.638 177.611C108.636 177.968 108.705 178.321 108.841 178.651C109.017 179.011 109.217 179.358 109.439 179.691C109.68 180.039 109.831 180.441 109.881 180.861C109.905 181.077 109.855 181.294 109.74 181.478C109.625 181.662 109.451 181.802 109.247 181.875C109.148 181.904 109.044 181.911 108.942 181.897C108.839 181.883 108.741 181.847 108.654 181.792C108.501 181.701 108.366 181.581 108.259 181.438C108.072 181.199 107.92 180.935 107.806 180.653C107.657 180.259 107.484 179.876 107.286 179.504C107.12 179.213 107.006 179.093 107.021 179.077Z" fill="#EB996E"/>
<path d="M105.929 134.888C105.929 134.888 104.104 145.319 104.01 146.229C103.917 147.139 102.378 175.401 102.378 175.401C102.378 175.401 101.655 181.672 102.378 182.941C102.644 183.406 103.02 183.798 103.474 184.084C103.927 184.369 104.443 184.539 104.978 184.579C105.539 184.579 108.503 182.603 108.503 182.603L107.64 175.651L107.146 174.345L108.02 169.738L113.318 146.011L114.488 135.231L105.929 134.888Z" fill="#FFBE9D"/>
<path d="M104.244 173.68C104.841 174.452 105.217 175.371 105.334 176.34C105.45 177.308 105.302 178.29 104.905 179.182L108.264 179.608C108.36 179.606 108.455 179.623 108.544 179.658C108.633 179.692 108.715 179.745 108.784 179.811C108.849 179.919 108.872 180.048 108.849 180.172C108.826 180.297 108.759 180.409 108.659 180.487C108.449 180.635 108.203 180.723 107.947 180.742C107.021 180.898 106.092 181.031 105.16 181.142" fill="#FFBE9D"/>
<path d="M105.149 181.152C105.316 181.085 105.491 181.042 105.669 181.022C106.023 180.955 106.532 180.866 107.156 180.762C107.468 180.71 107.827 180.674 108.196 180.585C108.363 180.552 108.515 180.468 108.633 180.346C108.682 180.288 108.713 180.216 108.722 180.14C108.73 180.064 108.715 179.988 108.68 179.92C108.602 179.805 108.404 179.769 108.16 179.743L107.489 179.66L106.08 179.483L104.853 179.327H104.676L104.749 179.161C105.303 177.909 105.366 176.494 104.926 175.198C104.73 174.684 104.49 174.188 104.208 173.716C104.325 173.81 104.425 173.922 104.504 174.049C104.747 174.386 104.944 174.753 105.092 175.141C105.605 176.476 105.57 177.961 104.993 179.27L104.889 179.083L106.111 179.239L107.52 179.421L108.191 179.509C108.318 179.507 108.443 179.533 108.559 179.584C108.675 179.635 108.778 179.711 108.862 179.805C108.925 179.918 108.95 180.047 108.935 180.175C108.92 180.303 108.866 180.423 108.779 180.518C108.632 180.682 108.434 180.791 108.217 180.83C107.832 180.913 107.494 180.934 107.177 180.981C106.543 181.059 106.028 181.116 105.674 181.152C105.5 181.17 105.324 181.17 105.149 181.152Z" fill="#EB996E"/>
<path d="M108.519 182.603C108.784 182.567 109.035 182.461 109.247 182.296C109.352 182.213 109.421 182.093 109.439 181.96C109.458 181.827 109.424 181.693 109.346 181.584C109.148 181.36 108.337 181.615 108.056 181.698C108.397 181.584 108.722 181.427 109.023 181.23C109.089 181.163 109.133 181.076 109.147 180.983C109.161 180.89 109.145 180.794 109.101 180.71C109.03 180.628 108.937 180.569 108.832 180.54C108.727 180.511 108.616 180.515 108.514 180.549C107.425 180.905 106.293 181.115 105.149 181.173" fill="#FFBE9D"/>
<path d="M105.149 181.153C105.149 181.111 105.633 181.09 106.397 180.939C106.782 180.861 107.234 180.757 107.728 180.622C107.983 180.555 108.248 180.477 108.514 180.393C108.688 180.346 108.874 180.367 109.034 180.451C109.125 180.501 109.199 180.577 109.246 180.67C109.293 180.762 109.312 180.867 109.299 180.971C109.283 181.13 109.207 181.277 109.086 181.381C108.98 181.458 108.867 181.525 108.748 181.579C108.524 181.678 108.311 181.766 108.103 181.844L108.02 181.6C108.407 181.451 108.823 181.393 109.236 181.428C109.293 181.441 109.345 181.466 109.39 181.502C109.435 181.538 109.472 181.584 109.496 181.636C109.535 181.728 109.549 181.828 109.538 181.927C109.519 182.09 109.444 182.241 109.325 182.354C109.16 182.492 108.96 182.581 108.748 182.614C108.607 182.64 108.529 182.64 108.524 182.614C108.519 182.588 108.592 182.572 108.727 182.52C108.907 182.462 109.073 182.364 109.21 182.234C109.295 182.144 109.345 182.025 109.351 181.901C109.351 181.777 109.299 181.636 109.184 181.626C108.812 181.623 108.443 181.693 108.098 181.834C108.065 181.844 108.03 181.84 108 181.825C107.97 181.809 107.947 181.783 107.936 181.751C107.928 181.719 107.931 181.685 107.945 181.655C107.959 181.625 107.984 181.602 108.014 181.589C108.212 181.511 108.425 181.423 108.633 181.324C108.732 181.28 108.826 181.226 108.914 181.163C108.979 181.102 109.021 181.022 109.034 180.934C109.07 180.731 108.794 180.601 108.581 180.659C108.368 180.716 108.061 180.815 107.796 180.872C107.347 180.985 106.892 181.074 106.434 181.137C106.01 181.218 105.575 181.223 105.149 181.153Z" fill="#EB996E"/>
<path d="M116.917 194.033C116.422 194.034 115.928 193.98 115.445 193.872C112.72 193.268 110.313 190.882 109.314 187.803C108.458 184.883 108.567 181.764 109.626 178.911C109.83 178.314 110.075 177.732 110.36 177.169C110.509 175.9 110.962 174.685 111.68 173.628C112.282 172.811 113.044 172.126 113.92 171.615C114.797 171.104 115.769 170.779 116.776 170.659C117.876 170.497 118.997 170.562 120.071 170.851C121.144 171.14 122.147 171.646 123.016 172.338C125.71 174.538 127.093 178.578 126.656 182.926C126.412 185.214 125.642 188.474 123.36 191.012C122.554 191.934 121.565 192.679 120.456 193.199C119.347 193.719 118.141 194.003 116.917 194.033ZM110.417 180.44C109.772 182.72 109.788 185.137 110.464 187.408C111.332 190.086 113.391 192.156 115.71 192.67C118.03 193.185 120.619 192.197 122.429 190.18C124.041 188.391 125.107 185.76 125.419 182.775C125.746 179.696 125.081 175.578 122.236 173.254C121.347 172.538 120.289 172.063 119.163 171.876C120.751 172.32 122.111 173.349 122.97 174.756C123.921 176.566 124.176 178.916 123.734 181.704C123.432 183.586 122.538 186.904 119.886 188.152C117.234 189.4 114.405 187.871 112.814 185.994C111.541 184.385 110.715 182.47 110.417 180.44ZM111.535 177.528C111.266 180.275 112.054 183.022 113.74 185.208C115.045 186.768 117.38 187.98 119.382 187.049C121.519 186.061 122.278 183.16 122.538 181.516C122.938 178.979 122.725 176.894 121.898 175.318C121.014 173.628 118.061 172.364 116.355 172.936C114.166 173.768 112.544 175.651 111.535 177.549V177.528Z" fill="#455A64"/>
<path d="M120.12 172.12C120.12 172.167 119.475 171.985 118.425 171.912C117.064 171.806 115.703 172.124 114.53 172.822C113.403 173.58 112.539 174.671 112.06 175.942C111.88 176.48 111.747 177.034 111.665 177.595C111.629 177.442 111.62 177.284 111.639 177.127C111.664 176.702 111.746 176.283 111.883 175.879C112.323 174.527 113.206 173.362 114.39 172.572C115.606 171.841 117.031 171.533 118.44 171.699C118.862 171.745 119.28 171.825 119.688 171.938C119.841 171.974 119.987 172.036 120.12 172.12Z" fill="#263238"/>
<path d="M110.848 182.276C110.383 181.302 110.145 180.235 110.152 179.156C110.048 177.377 110.516 175.973 110.588 176.01C110.457 177.044 110.402 178.087 110.422 179.13C110.508 180.185 110.65 181.235 110.848 182.276Z" fill="#263238"/>
<path d="M111.628 179.701C111.403 179.695 111.178 179.716 110.958 179.764C110.746 179.842 110.544 179.943 110.354 180.065C110.418 179.961 110.502 179.871 110.601 179.801C110.7 179.73 110.813 179.68 110.932 179.655C111.044 179.612 111.165 179.594 111.285 179.602C111.405 179.61 111.522 179.644 111.628 179.701Z" fill="#263238"/>
<path d="M112.84 184.028C112.651 184.098 112.465 184.177 112.284 184.267C112.123 184.389 111.97 184.521 111.826 184.662C111.905 184.462 112.046 184.292 112.228 184.177C112.411 184.063 112.625 184.011 112.84 184.028Z" fill="#263238"/>
<path d="M115.086 187.891C115.056 187.78 115.051 187.663 115.072 187.549C115.094 187.436 115.142 187.329 115.211 187.236C115.263 187.136 115.336 187.049 115.426 186.981C115.516 186.914 115.621 186.868 115.731 186.846C115.563 186.975 115.412 187.125 115.284 187.293C115.191 187.483 115.125 187.684 115.086 187.891Z" fill="#263238"/>
<path d="M120.442 187.902C120.325 187.904 120.209 187.881 120.101 187.835C119.994 187.789 119.897 187.72 119.819 187.633C119.74 187.547 119.681 187.444 119.645 187.333C119.609 187.221 119.597 187.103 119.61 186.987C119.671 187.194 119.77 187.388 119.902 187.559C120.058 187.707 120.241 187.824 120.442 187.902Z" fill="#263238"/>
<path d="M123.438 183.123C123.347 183.197 123.24 183.248 123.125 183.273C123.011 183.297 122.892 183.295 122.779 183.266C122.666 183.236 122.561 183.181 122.473 183.104C122.385 183.027 122.317 182.93 122.273 182.822C122.42 182.97 122.597 183.086 122.793 183.16C123.008 183.193 123.228 183.18 123.438 183.123Z" fill="#263238"/>
<path d="M123.89 178.188C123.926 178.188 123.765 178.532 123.37 178.594C123.251 178.623 123.125 178.617 123.01 178.575C122.894 178.534 122.793 178.459 122.72 178.36C122.913 178.452 123.125 178.496 123.339 178.49C123.546 178.439 123.736 178.335 123.89 178.188Z" fill="#263238"/>
<path d="M121.919 173.425C121.937 173.549 121.922 173.676 121.874 173.792C121.827 173.908 121.749 174.009 121.649 174.085C121.56 174.173 121.448 174.235 121.326 174.263C121.204 174.292 121.076 174.286 120.957 174.247C121.18 174.216 121.393 174.133 121.576 174.002C121.737 173.842 121.855 173.643 121.919 173.425Z" fill="#263238"/>
<path d="M116.22 172.967C116.22 172.967 116.173 173.04 116.069 172.999C116.014 172.971 115.966 172.931 115.928 172.883C115.891 172.834 115.864 172.778 115.851 172.718C115.819 172.64 115.807 172.556 115.816 172.473C115.824 172.39 115.852 172.309 115.898 172.239C115.909 172.389 115.928 172.539 115.955 172.687C115.976 172.783 116.029 172.869 116.106 172.931C116.163 172.978 116.21 172.952 116.22 172.967Z" fill="#263238"/>
<path d="M112.897 175.64C112.897 175.666 112.715 175.64 112.559 175.5C112.403 175.359 112.372 175.177 112.398 175.172C112.424 175.167 112.497 175.297 112.632 175.422C112.767 175.547 112.908 175.609 112.897 175.64Z" fill="#263238"/>
<path d="M112.284 175.193C112.188 174.972 112.037 174.779 111.847 174.632C111.634 174.518 111.396 174.461 111.155 174.465C111.277 174.418 111.409 174.401 111.539 174.414C111.669 174.428 111.794 174.472 111.904 174.543C112.014 174.614 112.106 174.71 112.172 174.823C112.238 174.936 112.276 175.063 112.284 175.193Z" fill="#263238"/>
<path d="M115.7 172.177C115.646 171.972 115.578 171.77 115.497 171.574C115.39 171.391 115.268 171.217 115.133 171.054C115.237 171.097 115.332 171.161 115.412 171.241C115.491 171.322 115.554 171.417 115.596 171.522C115.715 171.718 115.752 171.954 115.7 172.177Z" fill="#263238"/>
<path d="M120.442 170.95C120.487 171.06 120.504 171.179 120.491 171.297C120.478 171.415 120.437 171.528 120.37 171.626C120.32 171.735 120.243 171.829 120.146 171.9C120.05 171.971 119.937 172.016 119.818 172.032C119.818 172 120.099 171.891 120.276 171.574C120.369 171.378 120.425 171.166 120.442 170.95Z" fill="#263238"/>
<path d="M124.842 174.512C124.873 174.512 124.764 174.798 124.467 174.975C124.384 175.037 124.288 175.08 124.187 175.1C124.085 175.121 123.98 175.119 123.88 175.094C124.058 175.037 124.232 174.966 124.4 174.881C124.556 174.77 124.704 174.646 124.842 174.512Z" fill="#263238"/>
<path d="M126.532 179.4C126.479 179.493 126.404 179.571 126.313 179.627C126.222 179.684 126.118 179.716 126.012 179.722C125.909 179.749 125.802 179.751 125.699 179.728C125.595 179.704 125.499 179.656 125.419 179.587C125.609 179.625 125.803 179.636 125.996 179.618C126.184 179.57 126.364 179.497 126.532 179.4Z" fill="#263238"/>
<path d="M126.391 184.465C126.313 184.556 126.21 184.623 126.095 184.658C125.98 184.693 125.857 184.694 125.741 184.662C125.622 184.645 125.511 184.595 125.419 184.518C125.327 184.441 125.259 184.34 125.221 184.226C125.365 184.376 125.544 184.491 125.741 184.558C125.962 184.585 126.186 184.552 126.391 184.465Z" fill="#263238"/>
<path d="M123.693 190.455C123.584 190.463 123.476 190.45 123.373 190.415C123.27 190.38 123.175 190.325 123.095 190.252C123.033 190.202 122.982 190.14 122.946 190.069C122.911 189.998 122.89 189.921 122.887 189.842C122.887 189.717 122.933 189.649 122.944 189.654C122.954 189.66 122.944 189.727 122.944 189.831C122.974 189.964 123.047 190.082 123.152 190.169C123.417 190.367 123.708 190.419 123.693 190.455Z" fill="#263238"/>
<path d="M119.371 193.741C119.261 193.693 119.164 193.616 119.091 193.52C119.019 193.423 118.972 193.31 118.955 193.19C118.918 193.076 118.91 192.954 118.932 192.836C118.954 192.718 119.005 192.608 119.08 192.514C119.04 192.731 119.04 192.953 119.08 193.169C119.138 193.378 119.237 193.572 119.371 193.741Z" fill="#263238"/>
<path d="M113.818 193.341C113.703 193.137 113.67 192.898 113.724 192.671C113.778 192.443 113.915 192.245 114.109 192.114C113.994 192.296 113.901 192.492 113.833 192.696C113.799 192.91 113.794 193.126 113.818 193.341Z" fill="#263238"/>
<path d="M111.114 189.113C110.924 189.18 110.748 189.281 110.594 189.41C110.465 189.565 110.363 189.741 110.292 189.93C110.287 189.823 110.304 189.717 110.342 189.618C110.381 189.519 110.44 189.429 110.515 189.354C110.591 189.279 110.681 189.22 110.781 189.182C110.88 189.145 110.987 189.128 111.093 189.134L111.114 189.113Z" fill="#263238"/>
<path d="M109.944 185.5C109.769 185.494 109.595 185.508 109.424 185.541C109.253 185.61 109.089 185.695 108.935 185.796C108.977 185.704 109.04 185.623 109.12 185.56C109.199 185.498 109.293 185.456 109.392 185.437C109.483 185.403 109.58 185.392 109.675 185.402C109.771 185.413 109.863 185.447 109.944 185.5Z" fill="#263238"/>
<path d="M127.52 234.078L128.398 249.777L109.517 251.035C109.517 249.226 119.829 244.961 119.829 244.961L118.472 235.461L127.52 234.078Z" fill="#9269AD"/>
<g opacity="0.6">
<path opacity="0.6" d="M124.8 243.745C124.986 243.786 125.15 243.895 125.26 244.051C125.369 244.207 125.417 244.398 125.393 244.587C125.357 244.774 125.251 244.94 125.096 245.05C124.941 245.161 124.749 245.207 124.561 245.18C124.365 245.135 124.192 245.018 124.078 244.853C123.963 244.687 123.915 244.485 123.942 244.285C124 244.095 124.129 243.935 124.303 243.838C124.476 243.741 124.681 243.715 124.873 243.765" fill="white"/>
</g>
<g opacity="0.6">
<path opacity="0.6" d="M128.398 249.777L128.248 248.248L110.198 250.026C110.198 250.026 109.382 250.447 109.517 251.035L128.398 249.777Z" fill="white"/>
</g>
<path d="M119.553 245.154C119.553 245.242 120.026 245.258 120.5 245.523C120.973 245.788 121.238 246.158 121.321 246.116C121.404 246.074 121.233 245.549 120.656 245.237C120.078 244.925 119.527 245.071 119.553 245.154Z" fill="#263238"/>
<path d="M117.135 246.173C117.135 246.267 117.531 246.397 117.869 246.766C118.207 247.135 118.326 247.541 118.42 247.53C118.513 247.52 118.534 247.01 118.103 246.542C117.671 246.074 117.135 246.085 117.135 246.173Z" fill="#263238"/>
<path d="M116.204 248.529C116.288 248.529 116.386 248.071 116.116 247.582C115.846 247.093 115.404 246.922 115.367 247C115.331 247.078 115.617 247.333 115.835 247.738C116.054 248.144 116.111 248.523 116.204 248.529Z" fill="#263238"/>
<path d="M119.532 242.616C119.579 242.694 119.99 242.538 120.515 242.538C121.04 242.538 121.456 242.679 121.498 242.596C121.54 242.512 121.129 242.211 120.51 242.221C119.891 242.232 119.48 242.544 119.532 242.616Z" fill="#263238"/>
<path d="M119.272 241.087C119.205 240.923 119.177 240.745 119.189 240.567C119.19 240.061 119.325 239.565 119.579 239.127C119.755 238.822 119.986 238.552 120.26 238.331C120.343 238.248 120.449 238.19 120.564 238.165C120.679 238.14 120.799 238.149 120.909 238.191C121.019 238.233 121.115 238.305 121.184 238.401C121.254 238.496 121.294 238.609 121.3 238.727C121.302 239.203 121.159 239.668 120.892 240.062C120.625 240.457 120.245 240.761 119.803 240.937C119.365 241.106 118.888 241.147 118.427 241.055C117.967 240.963 117.542 240.742 117.203 240.417C117.041 240.272 116.911 240.095 116.823 239.897C116.774 239.786 116.761 239.662 116.787 239.543C116.805 239.482 116.836 239.426 116.877 239.378C116.918 239.33 116.969 239.29 117.026 239.262C117.219 239.191 117.431 239.191 117.624 239.262C117.781 239.318 117.934 239.386 118.082 239.465C118.527 239.692 118.923 240.005 119.246 240.385C119.376 240.516 119.479 240.672 119.548 240.843C119.109 240.346 118.58 239.937 117.988 239.637C117.723 239.517 117.374 239.345 117.114 239.455C117.086 239.471 117.061 239.493 117.041 239.52C117.021 239.546 117.007 239.576 117 239.609C116.992 239.641 116.991 239.674 116.996 239.706C117.001 239.739 117.013 239.77 117.031 239.798C117.115 239.959 117.228 240.104 117.364 240.224C117.674 240.51 118.059 240.703 118.473 240.782C118.888 240.86 119.316 240.82 119.709 240.666C120.097 240.51 120.431 240.246 120.672 239.905C120.912 239.563 121.05 239.16 121.066 238.742C121.06 238.664 121.033 238.589 120.988 238.524C120.943 238.459 120.883 238.407 120.812 238.373C120.738 238.357 120.662 238.36 120.59 238.379C120.517 238.399 120.451 238.436 120.396 238.487C120.136 238.685 119.914 238.929 119.74 239.205C119.488 239.613 119.335 240.074 119.293 240.552C119.267 240.895 119.298 241.087 119.272 241.087Z" fill="#263238"/>
<path d="M151.788 228.972L155.381 244.301L137.238 249.688C136.833 247.92 145.735 241.519 145.735 241.519L142.059 231.795L151.788 228.972Z" fill="#9269AD"/>
<g opacity="0.6">
<path opacity="0.6" d="M150.566 239.2C150.756 239.2 150.94 239.271 151.081 239.399C151.222 239.527 151.311 239.702 151.33 239.892C151.335 240.082 151.267 240.266 151.141 240.408C151.014 240.55 150.839 240.639 150.649 240.656C150.448 240.654 150.254 240.578 150.106 240.441C149.958 240.305 149.867 240.118 149.848 239.918C149.862 239.718 149.952 239.532 150.101 239.398C150.249 239.264 150.444 239.193 150.644 239.2" fill="white"/>
</g>
<g opacity="0.6">
<path opacity="0.6" d="M155.381 244.301L154.898 242.845L137.686 248.565C137.686 248.565 136.978 249.153 137.238 249.699L155.381 244.301Z" fill="white"/>
</g>
<path d="M145.647 241.597C145.673 241.686 146.13 241.597 146.65 241.753C147.17 241.909 147.508 242.211 147.581 242.148C147.654 242.086 147.368 241.628 146.739 241.441C146.11 241.254 145.6 241.524 145.647 241.597Z" fill="#263238"/>
<path d="M143.603 243.266C143.603 243.36 144.035 243.396 144.451 243.682C144.867 243.968 145.065 244.337 145.153 244.306C145.241 244.275 145.153 243.76 144.633 243.417C144.113 243.074 143.582 243.183 143.603 243.266Z" fill="#263238"/>
<path d="M143.208 245.768C143.296 245.768 143.286 245.284 142.917 244.868C142.548 244.452 142.074 244.379 142.059 244.462C142.043 244.546 142.376 244.733 142.678 245.081C142.979 245.43 143.12 245.788 143.208 245.768Z" fill="#263238"/>
<path d="M144.882 239.32C144.945 239.387 145.314 239.143 145.824 239.028C146.333 238.914 146.77 238.956 146.796 238.867C146.822 238.779 146.349 238.571 145.756 238.716C145.163 238.862 144.82 239.262 144.882 239.32Z" fill="#263238"/>
<path d="M144.56 237.837C144.457 237.681 144.39 237.503 144.362 237.317C144.251 236.825 144.272 236.312 144.425 235.83C144.525 235.492 144.691 235.178 144.914 234.905C144.974 234.801 145.064 234.718 145.172 234.665C145.28 234.613 145.401 234.593 145.52 234.609C145.639 234.625 145.751 234.676 145.841 234.756C145.931 234.835 145.996 234.939 146.026 235.055C146.131 235.519 146.094 236.004 145.921 236.447C145.748 236.89 145.446 237.271 145.054 237.541C144.665 237.81 144.206 237.961 143.733 237.976C143.259 237.991 142.792 237.868 142.386 237.624C142.196 237.519 142.029 237.376 141.898 237.203C141.826 237.103 141.788 236.983 141.788 236.86C141.792 236.797 141.809 236.736 141.838 236.681C141.866 236.625 141.906 236.576 141.955 236.537C142.128 236.427 142.334 236.382 142.537 236.413C142.704 236.435 142.869 236.468 143.031 236.511C143.517 236.635 143.973 236.854 144.373 237.156C144.527 237.255 144.661 237.382 144.768 237.531C144.233 237.151 143.634 236.871 143 236.704C142.714 236.652 142.334 236.558 142.106 236.704C142.082 236.726 142.063 236.753 142.05 236.783C142.037 236.813 142.03 236.845 142.03 236.878C142.03 236.911 142.037 236.943 142.05 236.973C142.063 237.003 142.082 237.03 142.106 237.052C142.223 237.193 142.366 237.311 142.527 237.401C142.892 237.612 143.309 237.716 143.73 237.7C144.152 237.684 144.56 237.55 144.908 237.312C145.253 237.074 145.521 236.742 145.68 236.356C145.84 235.969 145.884 235.545 145.808 235.133C145.786 235.059 145.743 234.992 145.686 234.939C145.628 234.887 145.557 234.852 145.48 234.837C145.405 234.835 145.33 234.853 145.264 234.888C145.197 234.924 145.141 234.976 145.101 235.04C144.891 235.289 144.729 235.574 144.622 235.882C144.464 236.334 144.414 236.817 144.477 237.291C144.524 237.64 144.591 237.827 144.56 237.837Z" fill="#263238"/>
<g opacity="0.3">
<path opacity="0.3" d="M142.293 160.436L111.753 158.517C121.004 161.434 130.619 163.576 140.312 163.888C141.071 163.827 141.826 163.711 142.568 163.54C142.568 163.54 142.23 160.285 142.293 160.436Z" fill="black"/>
</g>
<path d="M112.674 114.951C112.674 114.951 121.924 118.425 122.736 119.319C124.696 121.482 126.714 124.192 126.714 129.693V150.405C126.714 150.825 126.629 151.241 126.465 151.628C126.3 152.015 126.059 152.365 125.756 152.656C125.453 152.948 125.094 153.175 124.701 153.324C124.308 153.473 123.889 153.542 123.469 153.525L112.954 153.109C112.16 154.803 111.75 156.651 111.753 158.522C111.753 158.522 124.561 160.306 130.51 161.309C136.458 162.313 143.51 161.049 143.51 161.049L141.274 118.882L131.321 112.892L129.579 112.705C129.579 112.705 130.718 114.026 129.61 114.785C128.123 115.799 123.022 115.419 123.022 115.419L116.376 113.36L112.674 114.951Z" fill="#263238"/>
<path d="M130.473 115.57C129.55 116.154 128.8 116.975 128.301 117.947C127.803 118.919 127.574 120.007 127.639 121.098C128.107 130.177 129.48 156.619 129.574 156.894C129.667 157.17 135.179 160.862 138.58 161.242C140.717 161.481 145.673 160.826 149.058 160.3C150.023 160.147 150.903 159.658 151.544 158.92C152.185 158.182 152.546 157.242 152.563 156.265L152.646 150.826C152.646 150.826 154.851 149.973 154.939 149.744C155.21 149.068 155.095 143.088 155.007 139.76C154.988 139.093 154.787 138.444 154.425 137.884C154.063 137.324 153.553 136.874 152.953 136.583L151.975 136.11C151.975 136.11 151.975 125.044 151.736 119.163C151.694 118.149 151.344 117.171 150.734 116.36C150.124 115.548 149.282 114.941 148.32 114.618C147.759 114.43 147.169 114.344 146.578 114.364C143.234 114.473 131.596 114.884 130.51 115.544L130.473 115.57Z" fill="#455A64"/>
<path d="M150.119 115.679H149.968H149.536L147.857 115.747L145.21 115.877C144.17 115.939 143 116.007 141.716 116.199C140.312 116.337 138.922 116.582 137.556 116.932C136.806 117.129 136.115 117.501 135.538 118.019C134.99 118.629 134.649 119.397 134.566 120.213C134.251 121.978 134.132 123.773 134.212 125.564C134.274 127.441 134.332 129.381 134.399 131.367C134.628 139.308 134.841 146.494 134.992 151.72C135.054 154.32 135.106 156.4 135.143 157.887C135.143 158.6 135.143 159.161 135.169 159.567V160.004C135.173 160.052 135.173 160.101 135.169 160.149C135.163 160.101 135.163 160.052 135.169 160.004L135.143 159.567C135.143 159.161 135.101 158.605 135.065 157.893C135.008 156.416 134.93 154.315 134.831 151.725C134.659 146.499 134.42 139.318 134.16 131.378C134.098 129.391 134.035 127.452 133.978 125.58C133.9 123.767 134.025 121.951 134.352 120.167C134.433 119.742 134.547 119.325 134.696 118.919C134.777 118.719 134.874 118.526 134.987 118.341C135.11 118.166 135.249 118.002 135.403 117.853C136.009 117.309 136.736 116.919 137.524 116.714C138.908 116.371 140.316 116.135 141.736 116.007C143.031 115.83 144.212 115.773 145.246 115.726C146.281 115.679 147.176 115.653 147.904 115.643H149.578H150.015L150.119 115.679Z" fill="#263238"/>
<path d="M152.058 136.36C152.058 136.432 148.158 136.807 143.333 137.197C138.507 137.587 134.586 137.836 134.581 137.764C134.576 137.691 138.481 137.316 143.312 136.926C148.143 136.536 152.053 136.287 152.058 136.36Z" fill="#263238"/>
<path d="M154.164 138.101C154.057 138.132 153.948 138.151 153.837 138.159L152.88 138.268L149.308 138.642L137.093 139.838L137.212 139.693C137.436 141.341 137.316 143.088 137.405 144.861C137.422 146.347 137.793 147.807 138.486 149.12C138.804 149.724 139.252 150.25 139.798 150.659C140.344 151.068 140.974 151.351 141.643 151.486C142.278 151.6 142.922 151.656 143.567 151.653H145.402C146.588 151.653 147.69 151.616 148.694 151.528C150.28 151.418 151.841 151.067 153.322 150.488C153.582 150.389 153.811 150.28 154.003 150.186C154.196 150.093 154.362 150.009 154.492 149.937C154.62 149.854 154.756 149.785 154.898 149.729C154.418 150.069 153.904 150.356 153.364 150.587C151.882 151.208 150.311 151.589 148.71 151.715C147.701 151.819 146.593 151.866 145.402 151.876H143.562C142.903 151.881 142.245 151.827 141.596 151.715C140.902 151.59 140.247 151.305 139.682 150.883C139.101 150.435 138.617 149.874 138.258 149.235C137.538 147.886 137.153 146.385 137.134 144.856C137.046 143.062 137.171 141.325 136.952 139.713V139.573H137.093L149.313 138.471L152.89 138.174L153.852 138.107C153.956 138.097 154.06 138.095 154.164 138.101Z" fill="#263238"/>
<path d="M136.032 115.19C135.469 115.385 134.931 115.647 134.43 115.97C133.101 116.918 132.094 118.25 131.544 119.787C130.796 121.716 130.686 124.212 130.837 126.937C130.988 129.662 131.134 132.657 131.3 135.834C131.607 142.137 131.882 147.846 132.085 152.006C132.168 154.055 132.241 155.724 132.293 156.905C132.293 157.466 132.324 157.913 132.335 158.241C132.347 158.395 132.347 158.55 132.335 158.704C132.305 158.551 132.288 158.396 132.283 158.241C132.283 157.913 132.231 157.471 132.189 156.91C132.122 155.729 132.023 154.065 131.898 152.011C131.674 147.851 131.378 142.131 131.035 135.845C130.879 132.688 130.728 129.683 130.593 126.947C130.458 124.212 130.593 121.68 131.373 119.719C131.946 118.156 132.997 116.813 134.378 115.882C134.756 115.642 135.161 115.448 135.585 115.305L135.923 115.211C135.958 115.2 135.995 115.193 136.032 115.19Z" fill="#263238"/>
<path d="M155.106 140.161C155.106 140.239 151.122 140.774 146.182 141.362C141.242 141.949 137.233 142.365 137.228 142.293C137.223 142.22 141.211 141.679 146.151 141.091C151.091 140.504 155.1 140.088 155.106 140.161Z" fill="#263238"/>
<path d="M140.478 126.958L147.919 126.136V122.6L145.621 124.961L145.257 123.432L142.979 125.252V123.879L140.478 126.958Z" fill="white"/>
<g opacity="0.3">
<path opacity="0.3" d="M152.979 150.8C149.004 151.703 144.9 151.897 140.858 151.372C139.199 151.122 138.138 149.042 137.654 147.435C137.795 149.198 137.712 152.703 139.095 153.8C140.069 154.611 141.312 155.027 142.579 154.965C145.065 154.919 147.538 154.584 149.947 153.967C150.76 153.813 151.527 153.479 152.194 152.989C152.521 152.738 152.769 152.398 152.908 152.01C153.047 151.622 153.072 151.202 152.979 150.8Z" fill="black"/>
</g>
<path d="M79.1802 135.871C73.1742 139.651 68.827 145.652 65.8786 152.105C62.9302 158.558 61.261 165.516 59.6386 172.416L60.5902 207.225C66.8614 194.184 71.5102 179.083 71.895 164.616L66.9966 164.59C70.2154 163.821 72.7582 161.231 74.2766 158.283C75.795 155.334 76.4086 152.043 77.017 148.782L71.1618 150.155C75.5699 146.6 78.4411 141.485 79.1802 135.871Z" fill="#9269AD" fill-opacity="0.3"/>
<path d="M60.1588 215.436C60.1588 215.436 42.718 197.756 41.3868 179.634L47.7984 179.114C47.7984 179.114 40.456 175.115 40.794 172.51C41.132 169.905 40.5028 160.16 40.5028 160.16L46.4828 161.138C46.4828 161.138 41.9068 159.307 41.0696 155.875C40.2324 152.443 40.716 136.183 40.716 136.183C40.716 136.183 48.4796 143.089 51.3188 150.597C54.158 158.106 60.6788 166.593 60.9284 190.164C61.178 213.736 60.1588 215.436 60.1588 215.436Z" fill="#9269AD" fill-opacity="0.3"/>
<path d="M68.3487 216.554C68.3487 216.554 84.5779 203.679 87.1779 188.75L81.9103 187.777C81.9103 187.777 88.3271 185.068 88.2647 182.879C88.2023 180.69 89.5231 172.682 89.5231 172.682L84.4843 172.999C84.4843 172.999 88.4259 171.86 89.4087 169.083C90.3915 166.307 91.3275 152.781 91.3275 152.781C91.3275 152.781 84.3179 157.872 81.3435 163.857C78.3691 169.843 72.2695 176.337 70.1063 195.869C67.9431 215.4 68.3487 216.554 68.3487 216.554Z" fill="#9269AD"/>
<path d="M46.4307 152.36C46.4307 152.36 46.4307 152.423 46.4983 152.553L46.6855 153.125L47.3771 155.34C47.6735 156.297 48.0323 157.477 48.4171 158.85C48.8019 160.223 49.2751 161.783 49.7431 163.53C50.7155 166.993 51.7815 171.143 52.9099 175.76C54.0383 180.378 55.1615 185.489 56.2483 190.866C57.3351 196.243 58.2399 201.401 59.0043 206.097C59.7687 210.793 60.3667 215.031 60.8087 218.603C61.0479 220.387 61.2247 222.004 61.3911 223.423C61.5575 224.843 61.6875 226.065 61.7811 227.063C61.8747 228.062 61.9475 228.831 61.9995 229.372C61.9995 229.622 62.0359 229.825 62.0463 229.97C62.0521 230.039 62.0521 230.109 62.0463 230.178C62.0286 230.112 62.0165 230.044 62.0099 229.975C62.0099 229.825 61.9631 229.627 61.9319 229.377C61.8695 228.857 61.7811 228.062 61.6615 227.079C61.5419 226.096 61.4119 224.853 61.2299 223.439C61.0479 222.025 60.8607 220.407 60.6111 218.629C60.1431 215.062 59.5087 210.829 58.7495 206.149C57.9903 201.469 57.0439 196.311 55.9727 190.934C54.9015 185.557 53.7471 180.456 52.6551 175.828C51.5631 171.2 50.4971 167.061 49.5351 163.592C49.0775 161.85 48.6303 160.29 48.2455 158.912C47.8607 157.534 47.5279 156.354 47.2419 155.387C46.9559 154.419 46.7531 153.686 46.6023 153.161C46.5347 152.917 46.4827 152.724 46.4411 152.584C46.431 152.51 46.4275 152.435 46.4307 152.36Z" fill="#263238"/>
<path d="M58.9316 227.24C58.9316 227.24 43.0404 211.978 37.7052 202.4L40.9864 200.663C38.5528 201.276 35.9372 200.429 33.8936 198.978C31.85 197.527 30.2536 195.525 28.6936 193.554L33.1136 192.426C28.9091 191.588 25.1866 189.168 22.7136 185.666C28.0748 186.092 33.1136 188.599 37.3464 191.906C40.7888 194.584 43.7736 197.772 46.6596 201.042C48.0733 202.634 49.3305 204.358 50.414 206.19C53.2688 211.016 58.4324 221.192 58.9316 227.24Z" fill="#9269AD"/>
<path d="M85.2799 162.942C85.2709 163.002 85.2534 163.059 85.2278 163.114C85.1811 163.239 85.1187 163.405 85.0459 163.634C84.8691 164.081 84.6247 164.721 84.3075 165.532C83.9903 166.343 83.5951 167.362 83.1531 168.537C82.7111 169.713 82.1599 171.028 81.6399 172.51C80.5375 175.474 79.2791 179.026 77.9427 182.983C76.6063 186.94 75.2282 191.329 73.8606 195.957C72.493 200.585 71.3126 205.026 70.2778 209.077C69.243 213.127 68.3954 216.793 67.7194 219.882C67.3658 221.442 67.085 222.825 66.8198 224.042C66.5546 225.259 66.3414 226.33 66.1698 227.199C65.9982 228.067 65.8526 228.717 65.759 229.19L65.6446 229.71C65.6355 229.769 65.6198 229.826 65.5978 229.882C65.5897 229.823 65.5897 229.764 65.5978 229.705C65.5978 229.57 65.6446 229.398 65.681 229.185C65.7694 228.712 65.889 228.041 66.045 227.183C66.201 226.325 66.3986 225.249 66.6534 224.016C66.9082 222.784 67.1734 221.38 67.5114 219.856C68.1666 216.762 69.009 213.096 70.0178 209.03C71.0266 204.963 72.2278 200.528 73.5798 195.895C74.9319 191.261 76.3514 186.883 77.6878 182.921C79.0242 178.958 80.3139 175.417 81.4371 172.463C81.9883 170.976 82.5187 169.65 82.9971 168.48C83.4755 167.31 83.8551 166.307 84.1983 165.49C84.5415 164.674 84.7911 164.05 84.9783 163.608L85.1863 163.119C85.2134 163.058 85.2447 162.999 85.2799 162.942Z" fill="#263238"/>
<path d="M174.325 223.194C174.808 223.19 175.287 223.282 175.733 223.466C176.18 223.65 176.585 223.922 176.925 224.266C177.602 224.961 178.111 225.802 178.412 226.725C179.041 228.483 178.932 230.63 178.557 232.445C176.555 231.925 175.177 229.934 174.543 228.883C173.539 227.23 172.733 223.631 174.319 223.163" fill="#9269AD"/>
<path d="M181.553 234.411C181.222 233.982 181.01 233.473 180.94 232.936C180.869 232.399 180.943 231.853 181.152 231.353C181.37 230.858 181.683 230.411 182.075 230.039C182.467 229.667 182.93 229.376 183.435 229.185C183.658 229.07 183.902 229.006 184.152 228.997C184.402 228.988 184.651 229.035 184.881 229.133C185.079 229.258 185.24 229.434 185.347 229.642C185.454 229.851 185.503 230.084 185.489 230.318C185.451 230.785 185.293 231.235 185.032 231.623C184.189 232.986 183.128 234.146 181.553 234.411Z" fill="#9269AD"/>
<path d="M182.265 240.407C182.216 240.289 182.176 240.167 182.146 240.043C182.073 239.777 181.979 239.439 181.86 239.034C181.504 237.927 181.328 236.77 181.34 235.607C181.389 234.434 181.748 233.295 182.38 232.305C182.573 232.011 182.8 231.741 183.056 231.499C183.124 231.432 183.197 231.37 183.274 231.312C183.299 231.289 183.327 231.27 183.357 231.255C182.769 231.819 182.3 232.495 181.978 233.244C181.656 233.992 181.486 234.797 181.48 235.612C181.465 236.76 181.62 237.904 181.938 239.008C182.047 239.439 182.13 239.788 182.182 240.048C182.221 240.165 182.248 240.285 182.265 240.407Z" fill="#263238"/>
<path d="M175.177 225.878C175.214 225.923 175.245 225.971 175.271 226.023C175.333 226.127 175.411 226.268 175.505 226.439C175.713 226.803 175.999 227.328 176.347 227.999C177.049 229.31 177.991 231.119 178.989 233.199C179.987 235.279 180.84 237.115 181.443 238.477C181.745 239.153 181.963 239.71 182.145 240.094L182.327 240.536C182.349 240.587 182.366 240.639 182.379 240.692C182.379 240.692 182.348 240.646 182.301 240.547C182.255 240.448 182.182 240.292 182.093 240.115L181.355 238.514C180.731 237.162 179.857 235.3 178.864 233.256C177.871 231.213 176.94 229.382 176.264 228.056L175.458 226.496C175.375 226.325 175.302 226.179 175.245 226.07C175.218 226.008 175.195 225.943 175.177 225.878Z" fill="#263238"/>
<path d="M179.624 236.6C178.955 235.675 178.077 234.921 177.061 234.402C176.045 233.882 174.92 233.61 173.779 233.61C173.196 233.61 172.515 233.771 172.302 234.312C172.089 234.853 172.484 235.435 172.91 235.831C173.819 236.636 174.947 237.154 176.15 237.319C177.353 237.483 178.578 237.288 179.67 236.756" fill="#9269AD"/>
<path d="M174.782 235.103C174.903 235.089 175.025 235.089 175.146 235.103C175.288 235.093 175.431 235.093 175.573 235.103C175.734 235.103 175.926 235.103 176.129 235.16C176.332 235.217 176.566 235.227 176.805 235.29C177.06 235.349 177.312 235.422 177.559 235.508C178.702 235.899 179.731 236.565 180.554 237.448C180.74 237.638 180.914 237.839 181.074 238.051C181.225 238.243 181.345 238.441 181.459 238.618C181.558 238.778 181.648 238.943 181.73 239.112C181.808 239.257 181.86 239.387 181.906 239.497C181.96 239.606 182 239.721 182.026 239.84C182.026 239.84 181.818 239.367 181.376 238.67C181.262 238.498 181.137 238.306 180.986 238.119C180.835 237.931 180.664 237.734 180.466 237.531C180.054 237.108 179.597 236.731 179.104 236.408C178.604 236.09 178.073 235.827 177.518 235.623C177.274 235.534 177.026 235.46 176.774 235.399C176.557 235.34 176.336 235.293 176.114 235.259C175.302 235.118 174.782 235.134 174.782 235.103Z" fill="#263238"/>
<path d="M81.4111 232.981L66.7679 224.635L41.0435 234L20.2643 251.035L93.7663 250.661L81.4111 232.981Z" fill="#F5F5F5"/>
<path d="M20.2643 251.035L46.6231 235.742L81.4111 232.981L66.1803 223.959L41.0435 234L20.2643 251.035Z" fill="#E0E0E0"/>
<path d="M58.1359 250.843L71.2971 241.821L83.3039 240.968L73.2627 243.199L68.0575 250.791L58.1359 250.843Z" fill="#E0E0E0"/>
<path d="M20.28 251.035C20.3074 251.002 20.3389 250.972 20.3736 250.947L20.6544 250.697C20.9196 250.474 21.294 250.177 21.7672 249.756L26 246.23L40.9656 233.891L59.3008 226.444L66.0608 223.704L66.1336 223.678L66.2012 223.714L81.458 232.887C85.15 238.217 88.218 242.642 90.3812 245.752C91.4212 247.312 92.2688 248.513 92.8512 249.356C93.1268 249.761 93.34 250.078 93.4908 250.312C93.6416 250.546 93.704 250.645 93.704 250.645C93.704 250.645 93.6156 250.541 93.4596 250.333L92.7836 249.402L90.2512 245.846L81.2344 233.038L81.276 233.08L66.066 223.964H66.2064L59.4464 226.704L41.08 234.135H41.1164L26.0988 246.366C24.2684 247.842 22.8176 249.012 21.814 249.829C21.294 250.214 20.9404 250.515 20.67 250.734L20.3736 250.962C20.3453 250.99 20.3139 251.015 20.28 251.035Z" fill="#263238"/>
<path d="M83.7199 240.937C83.4064 241.003 83.0882 241.045 82.7683 241.061L80.1683 241.295L71.3283 241.977H71.4063L69.9607 242.97C66.7263 245.185 63.7883 247.182 61.6407 248.607L59.1031 250.286L58.4011 250.728C58.3231 250.787 58.2374 250.834 58.1463 250.869C58.1463 250.869 58.2139 250.796 58.3647 250.676L59.0303 250.187L61.5159 248.425C63.5959 246.948 66.5339 244.925 69.7735 242.705L71.2191 241.711L71.2555 241.685H71.2971L80.1371 241.108L82.7683 240.968C83.0841 240.932 83.4024 240.921 83.7199 240.937Z" fill="#263238"/>
<path d="M201.76 219.659C201.213 216.309 201.561 212.874 202.768 209.702C203.975 206.529 205.999 203.732 208.634 201.594C208.634 201.594 210.137 201.074 209.971 202.753C209.867 203.752 210.792 205.187 211.603 204.594C213.018 203.554 212.643 201.375 213.267 199.748C214.016 197.839 216.086 196.862 217.984 196.108C221.483 194.673 225.035 193.289 228.774 192.707C232.513 192.125 236.475 192.395 239.824 194.142L237.224 199.051C237.146 199.266 237.026 199.464 236.871 199.633C236.716 199.801 236.529 199.938 236.322 200.035C236.114 200.131 235.889 200.186 235.66 200.196C235.431 200.205 235.203 200.17 234.988 200.091L230.495 199.649C229.84 199.587 228.992 199.649 228.789 200.263C228.561 200.965 229.393 201.516 230.084 201.781L234.764 203.596C233.141 205.831 230.936 207.579 228.389 208.65C225.856 209.707 223.234 210.534 220.553 211.12C219.7 211.333 218.79 211.547 217.953 211.255C216.585 210.782 215.675 209.035 214.24 209.212C214.3 210.004 214.518 210.777 214.88 211.484C215.243 212.191 215.743 212.819 216.351 213.33C210.73 215.379 206.783 217.958 201.744 219.664" fill="#455A64"/>
<path d="M196.373 244.27C196.395 244.224 196.411 244.175 196.42 244.124L196.524 243.703C196.617 243.308 196.747 242.762 196.908 242.07L198.271 236.044L199.202 231.884L199.722 229.564C199.81 229.164 199.898 228.758 199.992 228.348C200.086 227.937 200.132 227.516 200.205 227.089C200.803 223.709 201.51 219.944 203.252 216.377C204.994 212.81 207.756 210.096 210.361 207.88C212.711 205.937 215.209 204.181 217.833 202.628C220.064 201.282 221.915 200.273 223.184 199.56L224.64 198.744L225.02 198.526C225.103 198.474 225.15 198.448 225.144 198.442L225.009 198.5L224.619 198.697L223.127 199.467C221.837 200.153 219.97 201.136 217.724 202.467C215.079 203.999 212.56 205.738 210.189 207.667C208.796 208.822 207.491 210.079 206.284 211.427C204.982 212.879 203.877 214.496 202.998 216.237C201.24 219.851 200.538 223.642 199.95 227.027C199.878 227.448 199.81 227.869 199.742 228.285C199.675 228.701 199.566 229.096 199.482 229.497C199.306 230.292 199.139 231.057 198.962 231.816C198.64 233.314 198.338 234.712 198.068 235.976C197.548 238.508 197.096 240.568 196.789 242.013C196.643 242.715 196.534 243.266 196.451 243.662C196.42 243.838 196.394 243.979 196.373 244.088C196.366 244.148 196.366 244.21 196.373 244.27Z" fill="#263238"/>
<path d="M197.803 198.006L197.626 198.167C207.943 192.166 214.401 180.081 213.658 168.168C211.947 168.392 211.016 170.201 210.116 171.673C209.217 173.144 207.454 174.616 205.956 173.753C204.672 173.04 204.672 171.101 205.436 169.853C206.201 168.605 207.485 167.773 208.463 166.67C210.761 164.096 211.224 160.285 210.491 156.91C209.758 153.535 207.99 150.504 206.248 147.524C203.92 148.095 201.735 149.137 199.825 150.584C197.916 152.032 196.323 153.856 195.146 155.943C196.529 157.014 197.969 158.158 198.614 159.786C199.259 161.413 198.718 163.639 197.054 164.211C195.832 164.637 194.454 164.013 193.596 163.041C192.812 162.01 192.243 160.832 191.922 159.578C189.981 165.603 189.182 171.938 189.566 178.256C191.126 176.779 194.272 178.365 194.007 180.508C193.742 182.65 190.325 183.435 189.155 181.62C190.937 187.596 193.875 193.163 197.803 198.006ZM198.172 170.3C198.136 170.588 198.026 170.861 197.852 171.093C197.677 171.325 197.445 171.507 197.179 171.621C196.8 171.784 196.391 171.863 195.978 171.853C195.566 171.842 195.161 171.741 194.792 171.558C194.054 171.181 193.435 170.607 193.003 169.9C192.712 169.485 192.517 169.011 192.431 168.511C192.391 168.263 192.404 168.009 192.469 167.766C192.535 167.523 192.651 167.296 192.811 167.102C192.976 166.91 193.197 166.774 193.444 166.715C193.691 166.656 193.949 166.677 194.184 166.774C195.353 167.16 196.419 167.805 197.304 168.662C197.556 168.858 197.764 169.105 197.914 169.388C198.063 169.67 198.151 169.981 198.172 170.3Z" fill="#455A64"/>
<path d="M194.132 244.213C194.132 244.213 194.132 244.151 194.132 244.026C194.132 243.901 194.132 243.709 194.168 243.506C194.199 242.986 194.246 242.299 194.298 241.395C194.418 239.543 194.589 236.897 194.818 233.626C195.27 227.074 195.952 218.026 196.934 208.042C197.917 198.058 198.988 189.051 199.867 182.562C200.294 179.301 200.678 176.67 200.944 174.855C201.068 173.956 201.167 173.254 201.235 172.775C201.266 172.547 201.287 172.365 201.308 172.229C201.313 172.167 201.313 172.104 201.308 172.042C201.308 172.042 201.308 172.105 201.266 172.224C201.224 172.344 201.214 172.541 201.172 172.744C201.089 173.238 200.975 173.94 200.829 174.824C200.533 176.639 200.117 179.265 199.67 182.52C198.739 189.025 197.626 198.037 196.654 208C195.681 217.963 195.021 227.037 194.62 233.6C194.423 236.881 194.288 239.533 194.204 241.4C194.173 242.305 194.142 243.012 194.126 243.511C194.126 243.745 194.126 243.927 194.126 244.062C194.123 244.112 194.125 244.163 194.132 244.213Z" fill="#263238"/>
<path d="M199.155 241.504L190.351 238.025L175.682 240.692L168.568 250.25L203.387 250.276L199.155 241.504Z" fill="#F5F5F5"/>
<path d="M175.682 240.692C176.108 240.614 199.155 241.504 199.155 241.504L190.351 238.025L175.682 240.692Z" fill="#E0E0E0"/>
<path d="M168.568 250.25C168.6 250.184 168.638 250.121 168.683 250.063L169.047 249.543L170.466 247.577L175.567 240.62L175.599 240.573H175.656L186.576 238.571L190.33 237.895H190.372H190.413L199.207 241.4H199.253V241.446L202.28 247.853L203.101 249.636C203.185 249.829 203.252 249.98 203.304 250.11C203.332 250.162 203.352 250.218 203.367 250.276C203.367 250.276 203.325 250.229 203.273 250.125C203.221 250.021 203.127 249.855 203.029 249.673L202.145 247.915L199.025 241.561L199.092 241.628L190.32 238.16H190.408L186.654 238.841L175.734 240.807L175.817 240.755L170.617 247.645L169.119 249.6L168.719 250.12C168.625 250.198 168.579 250.255 168.568 250.25Z" fill="#263238"/>
<path d="M250.188 250.77C250.188 250.843 196.518 250.905 130.322 250.905C64.1263 250.905 10.4415 250.843 10.4415 250.77C10.4415 250.697 64.1055 250.635 130.322 250.635C196.539 250.635 250.188 250.692 250.188 250.77Z" fill="#263238"/>
</g>
<defs>
<filter id="filter0_d_705_2869" x="-4" y="0" width="268" height="268" filterUnits="userSpaceOnUse" color-interpolation-filters="sRGB">
<feFlood flood-opacity="0" result="BackgroundImageFix"/>
<feColorMatrix in="SourceAlpha" type="matrix" values="0 0 0 0 0 0 0 0 0 0 0 0 0 0 0 0 0 0 127 0" result="hardAlpha"/>
<feOffset dy="4"/>
<feGaussianBlur stdDeviation="2"/>
<feComposite in2="hardAlpha" operator="out"/>
<feColorMatrix type="matrix" values="0 0 0 0 0 0 0 0 0 0 0 0 0 0 0 0 0 0 0.25 0"/>
<feBlend mode="normal" in2="BackgroundImageFix" result="effect1_dropShadow_705_2869"/>
<feBlend mode="normal" in="SourceGraphic" in2="effect1_dropShadow_705_2869" result="shape"/>
</filter>
</defs>
</svg>
