<svg width="180" height="180" viewBox="0 0 180 180" fill="none" xmlns="http://www.w3.org/2000/svg">
<path d="M23.3717 121.391L18.2268 121.496L15.6152 121.543C14.7407 121.543 13.8623 121.543 12.9878 121.563H12.8153V121.391L12.7917 117.002V116.802H12.9878L18.1797 116.826C19.913 116.826 21.6423 116.869 23.3717 116.889H23.4815V116.995C23.4815 117.736 23.4462 118.477 23.4305 119.21L23.3717 121.391ZM23.3717 121.391L23.3168 119.171C23.3168 118.442 23.2736 117.72 23.2658 117.002L23.3717 117.108C21.6423 117.128 19.913 117.171 18.1797 117.171L12.9878 117.199L13.1839 117.002V121.391L13.0074 121.214C13.8623 121.214 14.7172 121.214 15.5759 121.234L18.1562 121.281L23.3717 121.391Z" fill="#EBEBEB"/>
<path d="M17.5799 126.924L12.4351 127.03L9.82341 127.077C8.94893 127.077 8.07054 127.077 7.19607 127.096H7.02353V126.924L7 122.536V122.348H7.19607L12.388 122.371C14.1173 122.371 15.8506 122.414 17.5799 122.434H17.6897V122.54C17.6897 123.281 17.6584 124.022 17.6388 124.755L17.5799 126.924ZM17.5799 126.924L17.525 124.7C17.5054 123.971 17.4819 123.25 17.4741 122.532L17.5799 122.638C15.8506 122.657 14.1173 122.701 12.388 122.701L7.19607 122.74L7.39214 122.548L7.37253 126.936L7.19607 126.759C8.05093 126.759 8.9058 126.759 9.76458 126.759L12.3449 126.806L17.5799 126.924Z" fill="#EBEBEB"/>
<path d="M138.335 86.7453L133.19 86.8551L130.579 86.8982C129.704 86.9178 128.826 86.8982 127.951 86.9217H127.779V86.7453L127.755 82.3494V82.1533H127.951L133.143 82.1768C134.876 82.1768 136.606 82.2239 138.335 82.2435H138.429V82.3494C138.429 83.0945 138.394 83.8356 138.378 84.565L138.335 86.7453ZM138.335 86.7453L138.28 84.5297C138.28 83.7964 138.237 83.0749 138.229 82.3572L138.335 82.4631C136.606 82.4827 134.876 82.5259 133.143 82.5298L127.951 82.5533L128.147 82.3572V86.7453L127.971 86.5688C128.826 86.5688 129.681 86.5688 130.539 86.5923L133.12 86.6355L138.335 86.7453Z" fill="#EBEBEB"/>
<path d="M132.547 92.2782L127.403 92.388L124.791 92.4311C123.916 92.4311 123.038 92.4311 122.164 92.4547H121.991V92.2782L121.96 87.8902V87.6941H122.156L127.348 87.7176C129.081 87.7176 130.81 87.7647 132.54 87.7843H132.649V87.8902C132.649 88.6352 132.618 89.3764 132.598 90.1057L132.547 92.2782ZM132.547 92.2782L132.493 90.0626C132.473 89.3293 132.449 88.6078 132.442 87.8902L132.547 87.996C130.818 87.996 129.089 88.0588 127.356 88.0627L122.164 88.0862L122.36 87.8902L122.352 92.2782L122.175 92.1017C123.03 92.1017 123.885 92.1017 124.744 92.1253L127.324 92.1684L132.547 92.2782Z" fill="#EBEBEB"/>
<path d="M92.6903 57.7699L87.5415 57.8797L84.9298 57.9228C84.0593 57.9228 83.1809 57.9228 82.3064 57.9464H82.13V57.7699L82.1104 53.3819V53.1858H82.3064L87.4984 53.2132C89.2277 53.2132 90.961 53.2564 92.6903 53.276H92.7962V53.3819C92.7962 54.1269 92.7648 54.8681 92.7452 55.6014L92.6903 57.7699ZM92.6903 57.7699L92.6354 55.5543C92.6158 54.8249 92.5883 54.1034 92.5844 53.3819L92.6903 53.4917C90.961 53.5113 89.2277 53.5544 87.4984 53.5544L82.3064 53.5779L82.5025 53.3819L82.479 57.7699L82.3064 57.5974C83.1613 57.5974 84.0162 57.5973 84.871 57.617L87.4513 57.664L92.6903 57.7699Z" fill="#EBEBEB"/>
<path d="M86.8987 63.3033L81.7499 63.4131L79.1383 63.4563C78.2677 63.4759 77.3893 63.4563 76.5148 63.4798H76.3384V63.3033V58.9153V58.7192H76.5384L81.7303 58.7467C83.4596 58.7467 85.189 58.7898 86.9222 58.8094H87.0281V58.9153C87.0281 59.6604 86.9928 60.4015 86.9771 61.1348L86.8987 63.3033ZM86.8987 63.3033L86.8438 61.0878C86.8438 60.3584 86.7967 59.6368 86.7889 58.9153L86.8987 59.0251C85.1654 59.0251 83.4361 59.0878 81.7068 59.0878L76.5148 59.1114L76.7109 58.9153L76.6874 63.3033L76.5148 63.1308C77.3697 63.1308 78.2206 63.1308 79.0794 63.1308L81.6597 63.1779L86.8987 63.3033Z" fill="#EBEBEB"/>
<path d="M35.6614 79.4005L30.5165 79.5103L27.9049 79.5534C27.0304 79.5534 26.152 79.5534 25.2775 79.577H25.1011V79.4005V75.0125V74.8164H25.2971L30.4891 74.8439C32.2223 74.8439 33.9517 74.887 35.681 74.9066H35.7908V75.0125C35.7908 75.7575 35.7555 76.4987 35.7359 77.232L35.6614 79.4005ZM35.6614 79.4005L35.6065 77.1849C35.6065 76.4556 35.5634 75.7301 35.5555 75.0125L35.6614 75.1223C33.9321 75.1419 32.2027 75.1811 30.4695 75.185L25.2775 75.2085L25.4736 75.0125V79.4005L25.2971 79.228C26.152 79.228 27.0069 79.228 27.8657 79.2476L30.4459 79.2907L35.6614 79.4005Z" fill="#EBEBEB"/>
<path d="M98.3289 63.3033L93.1841 63.4131L90.5685 63.4563C89.6979 63.4759 88.8195 63.4563 87.9451 63.4798H87.7725V63.3033L87.7529 58.9153V58.7192H87.949L93.1409 58.7467C94.8703 58.7467 96.6035 58.7898 98.3328 58.8094H98.4309V58.9153C98.4309 59.6604 98.3995 60.4015 98.3799 61.1348L98.3289 63.3033ZM98.3289 63.3033L98.274 61.0878C98.2544 60.3584 98.2309 59.6368 98.223 58.9153L98.3289 59.0251C96.5996 59.0251 94.8663 59.0878 93.137 59.0878L87.9451 59.1114L88.1411 58.9153V63.3033L87.9647 63.1308C88.8195 63.1308 89.6744 63.1308 90.5332 63.1308L93.1095 63.1779L98.3289 63.3033Z" fill="#EBEBEB"/>
<path d="M170.844 126.924L165.695 127.03L163.083 127.077C162.213 127.077 161.334 127.077 160.46 127.096H160.283V126.924L160.264 122.536V122.348H160.46L165.652 122.371C167.381 122.371 169.114 122.414 170.844 122.434H170.949V122.54C170.949 123.281 170.918 124.022 170.899 124.755L170.844 126.924ZM170.844 126.924L170.789 124.704C170.789 123.975 170.742 123.253 170.738 122.536L170.844 122.642C169.114 122.661 167.381 122.705 165.652 122.705L160.46 122.728L160.656 122.536L160.632 126.924L160.46 126.747C161.315 126.747 162.169 126.747 163.024 126.747L165.605 126.794L170.844 126.924Z" fill="#EBEBEB"/>
<path d="M165.052 25.5675L159.903 25.6773L157.292 25.7204C156.421 25.7204 155.543 25.7204 154.668 25.744H154.507V25.5675V21.1795V20.9834H154.707L159.899 21.0069C161.629 21.0069 163.358 21.054 165.091 21.0736H165.197V21.1755C165.197 21.9206 165.162 22.6618 165.146 23.3911L165.052 25.5675ZM165.052 25.5675L164.997 23.3519C164.977 22.6186 164.95 21.8971 164.942 21.1795L165.052 21.2853C163.319 21.2853 161.589 21.3481 159.86 21.352L154.668 21.3755L154.864 21.1795L154.841 25.5675L154.668 25.391C155.523 25.391 156.374 25.391 157.233 25.4146L159.813 25.4577L165.052 25.5675Z" fill="#EBEBEB"/>
<path d="M170.844 31.1007L165.695 31.2105L163.083 31.2536C162.213 31.2536 161.334 31.2536 160.46 31.2772H160.283V31.1007L160.264 26.7127V26.5166H160.46L165.652 26.5401C167.381 26.5401 169.114 26.5872 170.844 26.6068H170.949V26.7127C170.949 27.4577 170.918 28.1989 170.899 28.9283L170.844 31.1007ZM170.844 31.1007L170.789 28.8851C170.789 28.1518 170.742 27.4303 170.738 26.7127L170.844 26.8185C169.114 26.8185 167.381 26.8813 165.652 26.8852L160.46 26.9087L160.656 26.7127L160.632 31.1007L160.46 30.9242C161.315 30.9242 162.169 30.9242 163.024 30.9478L165.605 30.9909L170.844 31.1007Z" fill="#EBEBEB"/>
<path d="M23.3717 25.5675L18.2268 25.6773L15.6152 25.7205C14.7407 25.7205 13.8623 25.7205 12.9878 25.744H12.8153V25.5675L12.7917 21.1756V20.9795H12.9878L18.1797 21.003C19.913 21.003 21.6423 21.0501 23.3717 21.0697H23.4815V21.1756C23.4815 21.9206 23.4462 22.6618 23.4305 23.3912L23.3717 25.5675ZM23.3717 25.5675L23.3168 23.3519C23.3168 22.6186 23.2736 21.8971 23.2658 21.1795L23.3717 21.2854C21.6423 21.2854 19.913 21.3481 18.1797 21.352L12.9878 21.3756L13.1839 21.1795V25.5675L13.0074 25.3911C13.8623 25.3911 14.7172 25.3911 15.5759 25.4146L18.1562 25.4577L23.3717 25.5675Z" fill="#EBEBEB"/>
<path d="M8.81958 133.72H84.8397L86.4201 102.529H7.23926L8.81958 133.72Z" fill="#EBEBEB"/>
<path d="M81.2359 116.807H49.453L48.8569 105.98H81.93L81.2359 116.807ZM49.8177 116.415H80.8751L81.5222 106.352H49.2648L49.8177 116.415Z" fill="#DBDBDB"/>
<path d="M80.6476 129.265H50.6999L50.198 119.493H81.2437L80.6476 129.265ZM51.0646 128.873H80.2869L80.8516 119.853H50.6176L51.0646 128.873Z" fill="#DBDBDB"/>
<path d="M68.4054 112.567H63.0645L62.7468 109.956H68.7622L68.4054 112.567ZM63.4017 112.175H68.0682L68.3074 110.332H63.1625L63.4017 112.175Z" fill="#DBDBDB"/>
<path d="M68.405 125.685H63.064L62.7268 123.073H68.7422L68.405 125.685ZM63.4013 125.293H68.0677L68.3069 123.449H63.1621L63.4013 125.293Z" fill="#DBDBDB"/>
<path d="M43.8533 116.807H12.0899L11.4939 105.98H44.563L43.8533 116.807ZM12.435 116.415H43.4925L44.1395 106.352H11.8821L12.435 116.415Z" fill="#DBDBDB"/>
<path d="M43.2649 129.265H13.3368L12.8506 119.493H43.8963L43.2649 129.265ZM13.6819 128.873H42.9042L43.4688 119.853H13.2349L13.6819 128.873Z" fill="#DBDBDB"/>
<path d="M31.0227 112.567H25.6817L25.3445 109.956H31.3756L31.0227 112.567ZM26.019 112.175H30.6854L30.9246 110.332H25.7837L26.019 112.175Z" fill="#DBDBDB"/>
<path d="M31.0227 125.685H25.6817L25.3445 123.073H31.3756L31.0227 125.685ZM26.019 125.293H30.6854L30.9246 123.449H25.7837L26.019 125.293Z" fill="#DBDBDB"/>
<path d="M15.6388 133.72L15.1604 137.12L14.1996 143.947H12.3213V133.72H15.6388Z" fill="#EBEBEB"/>
<path d="M15.6388 133.72L15.1604 137.12H12.3213V133.72H15.6388Z" fill="#DBDBDB"/>
<path d="M78.02 133.72L78.4984 137.12L79.4592 143.947H81.3336V133.72H78.02Z" fill="#EBEBEB"/>
<path d="M78.02 133.72L78.4984 137.12H81.3336V133.72H78.02Z" fill="#DBDBDB"/>
<path d="M20.8147 0H20.4893V31.0222H20.8147V0Z" fill="#C7C7C7"/>
<path d="M34.1359 44.0177L33.0497 46.4019H8.25467L7.17236 44.0177L17.7288 36.7083H23.5795L34.1359 44.0177Z" fill="#EBEBEB"/>
<path d="M24.309 29.6692L23.5796 36.7081H17.7289L16.9956 29.6692H24.309Z" fill="#DBDBDB"/>
<path d="M34.1359 44.0178L33.0497 46.402H8.25075L7.17236 44.0178H34.1359Z" fill="#DBDBDB"/>
<path d="M49.7625 0H49.437V23.3323H49.7625V0Z" fill="#C7C7C7"/>
<path d="M63.0839 36.3278L61.9976 38.712H37.2027L36.1204 36.3278L46.6768 29.0183H52.5275L63.0839 36.3278Z" fill="#EBEBEB"/>
<path d="M53.2604 21.9792L52.5271 29.0182H46.6764L45.9431 21.9792H53.2604Z" fill="#DBDBDB"/>
<path d="M63.0839 36.3279L61.9976 38.7121H37.1987L36.1204 36.3279H63.0839Z" fill="#DBDBDB"/>
<path d="M7.23877 143.998L27.6849 143.9L48.1311 143.868L89.0195 143.802L129.908 143.864L150.354 143.9L170.8 143.998L150.354 144.092L129.908 144.127L89.0195 144.19L48.1311 144.127L27.6849 144.092L7.23877 143.998Z" fill="#263238"/>
<path d="M84.0784 46.4016C84.0766 48.5797 83.4702 50.7146 82.3266 52.5684C81.1831 54.4222 79.5474 55.9221 77.6016 56.901C75.6559 57.88 73.4766 58.2996 71.3065 58.113C69.1364 57.9264 67.0606 57.141 65.3106 55.8443L59.55 57.3148L61.9617 51.9504C61.1149 50.3734 60.639 48.6241 60.5704 46.8355C60.5018 45.0469 60.8422 43.2662 61.5658 41.629C62.2893 39.9919 63.3769 38.5414 64.7457 37.3881C66.1145 36.2348 67.7285 35.409 69.4646 34.9736C71.2008 34.5383 73.0134 34.5048 74.7645 34.8759C76.5155 35.2469 78.1588 36.0126 79.5692 37.1146C80.9796 38.2167 82.12 39.626 82.9034 41.2354C83.6869 42.8448 84.0927 44.6117 84.0901 46.4016H84.0784Z" fill="white"/>
<path d="M84.0785 46.4018C84.0824 48.5788 83.4853 50.7146 82.3531 52.574C82.0703 53.0376 81.7586 53.4829 81.4198 53.9073C81.0702 54.3231 80.6943 54.716 80.2944 55.0837C79.898 55.4525 79.4775 55.7945 79.0356 56.1072C78.816 56.2719 78.5768 56.4013 78.3493 56.5464L78.0003 56.7621C77.8827 56.8287 77.7611 56.8836 77.6396 56.9425C76.6713 57.4423 75.6378 57.8039 74.5691 58.0169C74.0349 58.1228 73.4936 58.1897 72.9496 58.2169C72.4066 58.2581 71.8613 58.2581 71.3183 58.2169C69.1245 58.0419 67.0226 57.2598 65.248 55.9582L65.3656 55.9817L59.609 57.4797L59.2639 57.5699L59.409 57.2444L61.7932 51.8721V52.0407C60.9318 50.4406 60.4494 48.664 60.3835 46.848C60.3175 45.0319 60.6697 43.225 61.4128 41.5667C62.1579 39.9168 63.265 38.4558 64.6519 37.2924C66.0407 36.1388 67.6763 35.3203 69.4321 34.9003C71.1775 34.4665 72.9994 34.4404 74.7566 34.824C76.5137 35.2075 78.159 35.9904 79.565 37.112C80.9711 38.218 82.108 39.6288 82.8898 41.2379C83.6716 42.8471 84.0781 44.6127 84.0785 46.4018ZM84.0785 46.4018C84.0826 44.6193 83.6774 42.8597 82.8941 41.2586C82.1107 39.6575 80.9702 38.2576 79.5605 37.1668C78.1507 36.0761 76.5093 35.3236 74.7628 34.9673C73.0163 34.6111 71.2113 34.6606 69.487 35.1121C67.7739 35.5496 66.184 36.3747 64.8401 37.5237C63.5099 38.6781 62.4473 40.1086 61.7266 41.7157C61.0199 43.3261 60.6881 45.0758 60.756 46.8331C60.8239 48.5904 61.2899 50.3093 62.1187 51.8603L62.1618 51.9427L62.1265 52.025L59.711 57.3856L59.511 57.1464L65.2793 55.7072H65.346L65.4009 55.7464C67.12 57.0463 69.1682 57.8395 71.3144 58.0365C71.8487 58.0888 72.3863 58.098 72.9221 58.064C74.5406 58.0134 76.1287 57.612 77.5768 56.8876C77.6984 56.8287 77.8239 56.7778 77.9415 56.7111L78.2866 56.5033C78.518 56.3621 78.7572 56.2366 78.9768 56.0798C79.4216 55.7735 79.8436 55.4354 80.2395 55.068C81.0498 54.3509 81.7455 53.5138 82.3021 52.5858C83.4547 50.7284 84.0696 48.5877 84.0785 46.4018Z" fill="#263238"/>
<path d="M67.6144 50.1118L68.865 51.3623L77.5301 42.6972L76.2796 41.4466L67.6144 50.1118Z" fill="#FFC727"/>
<path d="M76.279 51.3641L77.5295 50.1135L68.8644 41.4484L67.6138 42.6989L76.279 51.3641Z" fill="#FFC727"/>
<path d="M88.7882 172.698C132.41 172.698 167.773 166.26 167.773 158.318C167.773 150.377 132.41 143.939 88.7882 143.939C45.1661 143.939 9.80347 150.377 9.80347 158.318C9.80347 166.26 45.1661 172.698 88.7882 172.698Z" fill="#EBEBEB"/>
<path d="M37.2257 83.208C36.2022 90.1332 35.265 97.278 35.3199 104.286C35.3591 109.744 37.2257 114.411 42.7314 116.254C47.8292 117.959 55.2798 118.544 59.9855 115.489C62.1893 114.062 63.1226 111.854 63.2089 109.289C63.3422 105.729 62.307 86.0589 62.0325 79.9258C61.8638 76.1927 61.7109 72.4085 60.8796 68.742C59.1346 61.0404 55.4288 60.7659 54.9308 60.5698C54.5152 60.2443 51.7937 58.7189 47.6331 59.6365C46.5469 59.8753 45.5231 60.3402 44.6286 61.001C43.734 61.6618 42.9887 62.5036 42.4412 63.4717C38.9982 69.2087 38.1865 76.722 37.2257 83.208Z" fill="#263238"/>
<path d="M55.9976 61.7109C60.2563 64.197 60.8759 69.1615 61.5543 73.6045C62.4993 79.8003 63.3424 86.0157 63.8796 92.2664C64.1385 95.2702 64.3306 98.2779 64.4326 101.286C64.5306 104.168 64.8247 107.262 64.3541 110.128C63.6012 114.861 59.0446 116.63 54.7585 116.924C54.7183 116.923 54.6798 116.907 54.6504 116.88C54.6209 116.853 54.6025 116.815 54.5987 116.775C54.5948 116.735 54.6057 116.695 54.6294 116.663C54.6531 116.63 54.6878 116.607 54.7271 116.599C57.178 116.344 59.6916 115.901 61.6445 114.277C64.1502 112.199 64.1541 109.179 64.1541 106.191C64.1541 101.093 63.8679 95.9956 63.3934 90.8978C62.9189 85.8 62.264 80.7414 61.5307 75.6867C60.8288 70.8752 60.5778 64.6009 55.9623 61.7658C55.9192 61.754 55.9545 61.6834 55.9976 61.7109Z" fill="#263238"/>
<path d="M39.9394 68.3696C41.1158 64.809 43.3314 61.4327 47.2607 60.7268C42.1628 61.8522 40.461 67.154 39.3904 71.6165C38.2611 76.3222 37.3068 81.0553 36.5278 85.8159C35.7749 90.3961 35.1161 95.0273 34.7828 99.6623C34.4259 104.666 34.9004 109.427 37.4768 113.811C37.5278 113.901 37.4023 113.995 37.3395 113.905C34.7396 110.313 34.2024 105.639 34.3553 101.321C34.5632 95.639 35.4573 89.9216 36.4141 84.3258C37.3238 79.0162 38.2414 73.5027 39.9394 68.3696Z" fill="#263238"/>
<path d="M46.2763 90.3136C49.9899 93.4939 80.1298 115.928 82.71 114.834C90.294 111.615 96.7369 106.846 92.5802 101.725C87.7373 95.7565 60.9816 87.055 48.3194 84.1374C39.2492 82.0395 42.6098 87.1765 46.2763 90.3136Z" fill="#C95F50"/>
<path d="M57.7504 102.568L59.4719 87.0862C55.7159 85.7226 51.8818 84.5846 47.9901 83.6785C41.3943 82.1335 39.363 84.902 45.351 91.8037C48.9534 95.961 53.1283 99.5853 57.7504 102.568Z" fill="#FFC727"/>
<path d="M58.515 94.576C58.1967 94.8828 57.9398 95.2475 57.7582 95.6505C58.0566 95.5215 58.3331 95.3468 58.5778 95.1329L58.6523 94.4466L58.515 94.576ZM51.1506 89.7998C50.8412 89.4838 50.4755 89.2285 50.0723 89.0469C50.4527 89.8506 51.0998 90.4977 51.9036 90.8782C51.722 90.4749 51.4666 90.1092 51.1506 89.7998Z" fill="white"/>
<path d="M56.9579 86.5646C56.6991 87.6939 56.605 88.8743 56.4403 90.0233C56.2756 91.1722 56.1266 92.2192 56.009 93.3172C55.7541 95.6073 55.5541 97.8896 55.3972 100.188C55.3972 100.227 55.4639 100.235 55.4678 100.188C55.7972 97.9366 56.0965 95.6831 56.3658 93.427C56.4991 92.3055 56.605 91.1761 56.7109 90.0507C56.8168 88.9253 57.0089 87.7292 57.0285 86.5646C57.0285 86.5552 57.0248 86.5462 57.0182 86.5396C57.0116 86.533 57.0026 86.5293 56.9932 86.5293C56.9839 86.5293 56.9749 86.533 56.9683 86.5396C56.9617 86.5462 56.9579 86.5552 56.9579 86.5646Z" fill="#263238"/>
<path opacity="0.1" d="M58.7973 93.1369L57.7503 102.568C53.1281 99.5852 48.9532 95.9609 45.3508 91.8036C41.8216 87.7097 41.0726 85.0706 42.4411 83.9216C45.6606 85.7255 53.5269 90.1606 58.7973 93.1369Z" fill="black"/>
<path d="M19.501 125.63C20.6774 126.249 58.2012 122.018 58.2012 122.018L56.0994 108.885C56.0994 108.885 58.8679 105.25 58.5542 101.246C58.1385 95.8976 50.0879 85.8431 49.4251 85.2196C46.7704 82.7217 44.1744 81.9884 41.4686 82.8668C30.1985 86.6078 19.501 125.63 19.501 125.63Z" fill="#FFC727"/>
<path d="M39.3748 89.2981C39.0564 89.6048 38.7996 89.9695 38.6179 90.3725C39.0225 90.1933 39.3887 89.9376 39.6963 89.6196C40.013 89.3123 40.2685 88.9477 40.4492 88.5452C40.0467 88.7259 39.682 88.9814 39.3748 89.2981ZM23.8931 111.925C23.8343 112.081 23.7794 112.234 23.7245 112.387C23.9871 112.629 24.2879 112.825 24.6146 112.968C24.4391 112.579 24.1946 112.226 23.8931 111.925ZM32.728 106.638C32.2862 106.632 31.847 106.709 31.4339 106.866C31.8476 107.021 32.2863 107.098 32.728 107.093C33.1699 107.1 33.609 107.023 34.0221 106.866C33.6095 106.707 33.17 106.63 32.728 106.638ZM22.0657 119.807C21.9088 120.22 21.8316 120.659 21.8383 121.101C21.8335 121.542 21.9107 121.981 22.0657 122.395C22.2227 121.982 22.2999 121.542 22.2932 121.101C22.3018 120.659 22.2246 120.219 22.0657 119.807ZM34.3319 96.1958C34.173 96.6084 34.0958 97.0479 34.1044 97.4899C34.0977 97.9317 34.1749 98.3708 34.3319 98.7839C34.4869 98.3703 34.5641 97.9316 34.5593 97.4899C34.566 97.048 34.4888 96.6089 34.3319 96.1958ZM49.0724 119.65C48.7544 119.956 48.4987 120.321 48.3195 120.724C48.7229 120.545 49.0877 120.289 49.3939 119.971C49.7089 119.663 49.9642 119.298 50.1468 118.897C49.744 119.077 49.3793 119.333 49.0724 119.65ZM39.3748 89.2981C39.0564 89.6048 38.7996 89.9695 38.6179 90.3725C39.0225 90.1933 39.3887 89.9376 39.6963 89.6196C40.013 89.3123 40.2685 88.9477 40.4492 88.5452C40.0467 88.7259 39.682 88.9814 39.3748 89.2981ZM30.1987 116.109C29.8815 116.417 29.626 116.783 29.4458 117.187C29.8494 117.006 30.2142 116.749 30.5203 116.43C30.837 116.123 31.0925 115.758 31.2732 115.356C30.8711 115.537 30.5067 115.793 30.1987 116.109ZM57.77 104.152C57.8648 104.376 57.9873 104.587 58.1347 104.78C58.1739 104.658 58.2092 104.533 58.2445 104.407C58.0919 104.305 57.9289 104.22 57.7583 104.152H57.77ZM51.1507 89.8C50.8413 89.484 50.4756 89.2287 50.0723 89.0471C50.4528 89.8508 51.0999 90.498 51.9036 90.8784C51.722 90.4752 51.4667 90.1094 51.1507 89.8ZM32.328 124.136C32.0208 123.819 31.6561 123.564 31.2536 123.383C31.4328 123.786 31.6885 124.151 32.0065 124.457C32.1084 124.555 32.2104 124.649 32.3202 124.74L32.7947 124.693C32.6552 124.502 32.5033 124.322 32.3398 124.151L32.328 124.136ZM42.6805 104.392C42.3743 104.074 42.0094 103.818 41.606 103.639C41.7868 104.041 42.0422 104.406 42.359 104.713C42.6682 105.03 43.0339 105.287 43.4373 105.47C43.2562 105.073 43.0036 104.713 42.6923 104.407L42.6805 104.392ZM23.8931 111.925C23.8343 112.081 23.7794 112.234 23.7245 112.387C23.9871 112.629 24.2879 112.825 24.6146 112.968C24.4391 112.579 24.1946 112.226 23.8931 111.925ZM50.5272 108.729C50.0854 108.722 49.6462 108.799 49.2332 108.956C49.6468 109.111 50.0855 109.188 50.5272 109.183C50.9691 109.19 51.4082 109.113 51.8213 108.956C51.4087 108.797 50.9692 108.72 50.5272 108.729ZM32.728 106.638C32.2862 106.632 31.847 106.709 31.4339 106.866C31.8476 107.021 32.2863 107.098 32.728 107.093C33.1699 107.1 33.609 107.023 34.0221 106.866C33.6095 106.707 33.17 106.63 32.728 106.638ZM42.9236 95.0429C42.4819 95.0382 42.0432 95.1153 41.6296 95.2704C42.0427 95.4273 42.4818 95.5045 42.9236 95.4978C43.3656 95.5064 43.8051 95.4292 44.2177 95.2704C43.8009 95.1119 43.3577 95.0347 42.9119 95.0429H42.9236ZM22.0657 119.807C21.9088 120.22 21.8316 120.659 21.8383 121.101C21.8335 121.542 21.9107 121.981 22.0657 122.395C22.2227 121.982 22.2999 121.542 22.2932 121.101C22.3018 120.659 22.2246 120.219 22.0657 119.807ZM34.3319 96.1958C34.173 96.6084 34.0958 97.0479 34.1044 97.4899C34.0977 97.9317 34.1749 98.3708 34.3319 98.7839C34.4869 98.3703 34.5641 97.9316 34.5593 97.4899C34.566 97.048 34.4888 96.6089 34.3319 96.1958ZM39.5355 113.681C39.3767 114.094 39.2995 114.533 39.3081 114.975C39.3014 115.417 39.3786 115.856 39.5355 116.269C39.6906 115.856 39.7677 115.417 39.763 114.975C39.7697 114.534 39.6925 114.094 39.5355 113.681ZM50.9821 98.4271C50.6789 99.2631 50.6789 100.179 50.9821 101.015C51.1372 100.602 51.2143 100.163 51.2095 99.7211C51.2162 99.2793 51.1391 98.8402 50.9821 98.4271Z" fill="white"/>
<path d="M42.3196 84.3098C42.347 84.9843 44.6058 89.7567 47.5743 90.1919C48.5389 90.3331 49.535 85.0941 49.535 85.0941L49.6957 84.7216L51.9662 79.5375L45.5783 73.4946C45.5783 73.4946 42.3157 84.004 42.3196 84.3098Z" fill="#C95F50"/>
<path d="M51.9706 79.514L49.7001 84.7021C48.3433 83.8677 47.1768 82.7576 46.2763 81.4437C45.3759 80.1298 44.7614 78.6414 44.4729 77.0749C45.0337 75.2476 45.5042 73.73 45.567 73.5065C45.5693 73.4961 45.5693 73.4854 45.567 73.4751L46.3865 74.1966L51.9706 79.514Z" fill="#263238"/>
<path d="M61.7463 73.475C60.6522 83.3452 54.6172 83.8079 52.4879 83.5687C50.5586 83.353 44.0059 82.3687 44.0765 72.4398C44.1471 62.5108 49.0763 59.8913 53.5231 60.158C57.97 60.4246 62.8404 63.6049 61.7463 73.475Z" fill="#C95F50"/>
<path d="M43.9709 72.9731C44.6693 72.8362 45.3201 72.5203 45.8597 72.0563C46.3993 71.5923 46.8092 70.9962 47.0492 70.3262C48.924 70.0322 50.6871 69.246 52.1588 68.0479C52.0411 68.2283 51.198 69.538 50.7471 70.1929C57.1546 70.6674 60.28 66.4911 60.28 66.4911C61.7388 68.9929 61.8015 70.3615 61.9191 71.0673C61.9191 71.0673 62.9583 67.3342 61.6917 64.3147C60.1467 60.6168 56.7782 60.3502 56.7782 60.3502C55.3663 59.5851 53.7741 59.2152 52.1694 59.2793C50.5648 59.3435 49.0073 59.8395 47.6609 60.7149C42.5553 63.9853 43.9709 72.9731 43.9709 72.9731Z" fill="#263238"/>
<path d="M55.6642 70.4087C54.54 70.6854 53.3811 70.7938 52.2251 70.7302C52.2251 70.7302 52.2251 70.7302 52.2251 70.7302C54.0678 70.7157 55.8699 70.1874 57.4288 69.2048C58.0907 68.7863 58.6968 68.2856 59.2326 67.7147C59.8427 67.1093 60.3277 66.3897 60.66 65.5971C60.6661 65.5867 60.6756 65.5788 60.687 65.5747C60.6983 65.5707 60.7107 65.5708 60.722 65.575C60.7333 65.5793 60.7427 65.5873 60.7486 65.5978C60.7544 65.6083 60.7564 65.6206 60.7542 65.6324C60.5087 66.4486 60.1298 67.2185 59.6326 67.9107C59.1073 68.5752 58.4655 69.1386 57.7386 69.5734C57.0906 69.9533 56.3923 70.2398 55.6642 70.4243" fill="#263238"/>
<path d="M45.559 73.3732C45.559 73.3732 44.0414 69.9067 42.5082 70.3929C40.9749 70.8792 41.7004 75.6006 43.1983 76.526C43.3827 76.6576 43.5918 76.7506 43.813 76.7994C44.0342 76.8483 44.263 76.8519 44.4856 76.8102C44.7083 76.7684 44.9202 76.6821 45.1087 76.5565C45.2972 76.4308 45.4584 76.2684 45.5825 76.079L45.559 73.3732Z" fill="#C95F50"/>
<path d="M42.7469 71.7615C42.7436 71.7636 42.741 71.7665 42.7391 71.77C42.7373 71.7734 42.7363 71.7772 42.7363 71.7811C42.7363 71.785 42.7373 71.7888 42.7391 71.7922C42.741 71.7956 42.7436 71.7985 42.7469 71.8007C43.7899 72.4869 44.1782 73.6594 44.3782 74.8359C44.1272 74.3496 43.7115 74.0241 43.0684 74.3143C43.037 74.3143 43.0684 74.381 43.088 74.381C43.3001 74.3579 43.5141 74.4009 43.7008 74.504C43.8875 74.6072 44.0378 74.7656 44.1311 74.9574C44.2854 75.2798 44.405 75.6176 44.488 75.9652C44.5193 76.0789 44.7115 76.0593 44.6997 75.9378C44.6978 75.9274 44.6978 75.9168 44.6997 75.9064C44.9938 74.4476 44.2762 72.1968 42.7469 71.7615Z" fill="#263238"/>
<path d="M60.9267 71.4986C60.7624 71.344 60.5896 71.1987 60.4091 71.0633C60.2478 70.8839 60.031 70.7638 59.7934 70.7222C59.7165 70.7226 59.642 70.7486 59.5816 70.7962C59.5212 70.8438 59.4784 70.9102 59.4601 70.9849C59.4473 71.1365 59.4746 71.2888 59.5393 71.4264C59.604 71.5641 59.7038 71.6823 59.8287 71.7692C60.0582 71.9862 60.36 72.1105 60.6757 72.1182C60.7419 72.1071 60.8041 72.0793 60.8564 72.0374C60.9087 71.9954 60.9494 71.9408 60.9746 71.8786C60.9998 71.8165 61.0086 71.7489 61.0002 71.6824C60.9918 71.6158 60.9665 71.5526 60.9267 71.4986Z" fill="#263238"/>
<path d="M53.7818 71.1653C54.0036 71.125 54.2275 71.0962 54.4523 71.0791C54.6849 71.0184 54.9308 71.0335 55.1543 71.1222C55.2164 71.1641 55.2635 71.2247 55.2889 71.2952C55.3143 71.3657 55.3166 71.4425 55.2954 71.5143C55.2247 71.6514 55.1187 71.7672 54.9885 71.8499C54.8583 71.9326 54.7084 71.9792 54.5543 71.9849C54.2436 72.0434 53.9223 71.9847 53.6524 71.8202C53.6033 71.7747 53.5667 71.7174 53.546 71.6538C53.5254 71.5902 53.5213 71.5223 53.5343 71.4567C53.5473 71.391 53.5768 71.3298 53.6201 71.2788C53.6634 71.2278 53.7191 71.1888 53.7818 71.1653Z" fill="#263238"/>
<path d="M53.1464 78.616C53.2679 78.8042 53.3738 79.0513 53.6052 79.1258C53.8483 79.1767 54.0993 79.1767 54.3424 79.1258C54.3471 79.1253 54.3519 79.1263 54.356 79.1286C54.3601 79.1309 54.3635 79.1344 54.3656 79.1387C54.3677 79.1429 54.3685 79.1477 54.3679 79.1524C54.3672 79.1571 54.3652 79.1615 54.362 79.165C54.239 79.2713 54.0894 79.3424 53.9293 79.3707C53.7691 79.399 53.6043 79.3835 53.4523 79.3258C53.3246 79.262 53.219 79.1613 53.1491 79.0369C53.0792 78.9125 53.0482 78.77 53.0601 78.6278C53.0758 78.5885 53.1307 78.5885 53.1464 78.616Z" fill="#263238"/>
<path d="M54.6132 77.718C55.4642 77.4945 56.4955 77.718 57.1465 77.8827C57.221 77.8827 57.3072 77.7416 57.3268 77.671C57.3268 77.6475 57.4445 76.3142 57.4445 76.3142C57.6131 76.424 58.4719 76.9377 58.4876 76.6828C58.6091 74.5574 58.7464 72.1967 58.4209 70.0596C58.4209 70.044 58.4147 70.029 58.4037 70.018C58.3927 70.0069 58.3777 70.0007 58.3621 70.0007C58.3465 70.0007 58.3315 70.0069 58.3205 70.018C58.3095 70.029 58.3033 70.044 58.3033 70.0596C58.1033 72.0948 58.2641 74.1496 58.0994 76.2005C57.7938 76.0125 57.464 75.8674 57.119 75.7691C57.0445 75.7691 57.0641 77.2161 57.0171 77.4318C56.2544 77.1191 55.3994 77.1191 54.6368 77.4318C54.3427 77.5808 54.2054 77.8278 54.6132 77.718Z" fill="#263238"/>
<path d="M56.0407 78.7025C56.4328 78.6516 57.0877 77.4595 56.4563 77.283C55.825 77.1065 54.3309 77.2202 53.7388 77.9535C53.2173 78.5967 55.1231 78.3457 55.4172 78.5143C55.7113 78.6829 55.7662 78.7418 56.0407 78.7025Z" fill="#263238"/>
<path d="M55.421 78.5138C55.4759 78.5451 55.519 78.5726 55.5621 78.5922C55.6092 78.2001 55.2837 77.6354 54.4092 77.4746C54.1487 77.5766 53.9172 77.7409 53.7348 77.953C53.2211 78.5961 55.1229 78.3608 55.421 78.5138Z" fill="#FF9ABB"/>
<path d="M59.8601 75.2083C59.8601 75.2083 59.3307 76.6474 59.8366 76.6553C60.3424 76.6631 59.8601 75.2083 59.8601 75.2083Z" fill="white"/>
<path d="M55.0209 73.0985C55.0209 73.071 54.966 73.122 54.9621 73.1494C54.9032 73.7886 54.7307 74.5141 54.1268 74.6513C54.1072 74.6513 54.1033 74.6905 54.1268 74.6905C54.8444 74.6788 55.0679 73.722 55.0209 73.0985Z" fill="#263238"/>
<path d="M53.786 72.6634C53.7614 72.7821 53.7483 72.9029 53.7468 73.0241C53.6985 73.1063 53.6376 73.1803 53.5664 73.2437C53.5024 73.3112 53.4203 73.3589 53.3299 73.3812C53.2396 73.4034 53.1447 73.3993 53.0567 73.3692C52.688 73.232 52.6292 72.8045 52.6998 72.4163C52.6998 72.3889 52.7233 72.3771 52.739 72.4163C52.8449 72.6555 52.9743 72.9026 53.2018 72.9222C53.4292 72.9418 53.5939 72.7692 53.7704 72.6869L53.786 72.6634Z" fill="#263238"/>
<path d="M54.9503 73.7927C54.9006 73.9626 54.8057 74.1158 54.6758 74.2359C54.6007 74.297 54.5141 74.3423 54.4211 74.3693C54.3282 74.3962 54.2307 74.4042 54.1346 74.3927C54.0362 74.379 53.9425 74.3419 53.8614 74.2846C53.7802 74.2273 53.7139 74.1514 53.668 74.0633C53.5879 73.9093 53.5449 73.7388 53.5425 73.5653C53.5424 73.4616 53.5502 73.358 53.566 73.2555C53.5921 73.0413 53.6673 72.836 53.7856 72.6555C53.7552 72.8091 53.7421 72.9656 53.7464 73.1222C53.7492 73.2615 53.7623 73.4004 53.7856 73.5378C53.8327 73.8202 53.9621 74.0712 54.1777 74.0868C54.3934 74.1025 54.5973 73.9614 54.7228 73.6947C54.8476 73.4228 54.9448 73.139 55.013 72.8477C55.067 73.1632 55.0455 73.4871 54.9503 73.7927Z" fill="#263238"/>
<path d="M58.8956 73.5572C58.8956 73.5337 58.9388 73.5964 58.9348 73.6238C58.8015 74.2513 58.7544 74.9963 59.2878 75.3061C59.2878 75.3061 59.2878 75.3493 59.2878 75.3414C58.5976 75.1179 58.6682 74.1336 58.8956 73.5572Z" fill="#263238"/>
<path d="M60.201 73.5063C60.1896 73.6274 60.1659 73.7469 60.1304 73.8632C60.1536 73.9552 60.1893 74.0435 60.2363 74.1259C60.2784 74.21 60.3435 74.2803 60.424 74.3289C60.5045 74.3775 60.5971 74.4023 60.6911 74.4004C61.0833 74.3769 61.2676 73.9808 61.3107 73.5926C61.3107 73.5612 61.3107 73.5456 61.2833 73.5612C61.1107 73.7573 60.8911 73.9534 60.6872 73.9103C60.4833 73.8671 60.3617 73.6475 60.2166 73.5181L60.201 73.5063Z" fill="#263238"/>
<path d="M58.7545 74.2397C58.7523 74.4172 58.7984 74.5921 58.8878 74.7455C58.94 74.8273 59.0089 74.8972 59.09 74.9506C59.1711 75.004 59.2625 75.0397 59.3584 75.0553C59.4567 75.071 59.5573 75.0631 59.6521 75.0325C59.7468 75.0018 59.8329 74.9492 59.9034 74.8788C60.0239 74.7548 60.1139 74.6045 60.1662 74.4396C60.1975 74.341 60.2211 74.24 60.2368 74.1377C60.2763 73.9262 60.2642 73.7083 60.2015 73.5024C60.1855 73.6559 60.1526 73.8071 60.1034 73.9534C60.0611 74.0884 60.0073 74.2196 59.9426 74.3455C59.8132 74.6004 59.6172 74.7965 59.4054 74.7377C59.1937 74.6789 59.0407 74.4946 59.0133 74.2083C58.9743 73.9119 58.9651 73.6124 58.9858 73.3142C58.8356 73.5997 58.7563 73.9171 58.7545 74.2397Z" fill="#263238"/>
<path d="M22.2579 177.608C22.7011 176.161 46.5706 142.707 48.3039 141.989C48.9548 141.719 50.2214 140.707 56.2447 144.734L68.9539 133.586L76.1693 157.165L44.7079 170.58C44.7079 170.58 29.8302 179.306 27.8655 179.87C25.9009 180.435 21.8148 179.058 22.2579 177.608Z" fill="#C95F50"/>
<path d="M22.2579 177.608C22.7011 176.161 46.5706 142.707 48.3039 141.989C48.9548 141.719 50.2214 140.707 56.2447 144.734L68.9539 133.586L76.1693 157.165L44.7079 170.58C44.7079 170.58 29.8302 179.306 27.8655 179.87C25.9009 180.435 21.8148 179.058 22.2579 177.608Z" fill="#C95F50"/>
<path d="M43.5314 171.263C40.0021 173.325 29.5046 179.396 27.8772 179.862C25.9165 180.419 21.8147 179.055 22.2578 177.608C22.7009 176.161 46.5901 142.707 48.3037 141.99C48.9586 141.719 50.2213 140.707 56.2446 144.735C56.2446 144.735 37.0925 166.608 34.7122 172.224C32.5162 177.412 42.8099 171.671 43.5314 171.263Z" fill="#FFC727"/>
<path d="M118.12 131.469C114.261 142.076 60.6913 166.538 60.6913 166.538L51.6172 138.366L76.2161 127.885L26.5242 122.155L50.6957 110.317C50.6957 110.317 55.7425 112.454 59.4678 111.375C61.1148 110.897 96.223 106.038 103.05 107.736C118.124 111.489 121.661 121.736 118.12 131.469Z" fill="#37474F"/>
<path d="M88.4744 121.453C87.4351 121.882 86.424 122.376 85.4471 122.932C84.4001 123.457 83.3491 123.971 82.31 124.5H82.2786L82.9805 123.932C83.7883 123.296 84.5295 122.591 85.3922 122.03C85.3976 122.026 85.4023 122.022 85.406 122.017C85.4097 122.012 85.4124 122.006 85.4138 122C85.4153 121.993 85.4155 121.987 85.4145 121.981C85.4135 121.975 85.4112 121.969 85.4079 121.963C85.4045 121.958 85.4001 121.953 85.395 121.949C85.3898 121.946 85.384 121.943 85.3778 121.941C85.3716 121.94 85.3652 121.94 85.3589 121.941C85.3526 121.942 85.3466 121.944 85.3412 121.947C84.4667 122.496 83.5335 122.971 82.71 123.602C82.323 123.898 81.9427 124.204 81.5688 124.52C81.3688 124.692 81.1767 124.869 80.9689 125.049C80.8726 125.133 80.781 125.222 80.6944 125.316C80.2199 125.563 79.7454 125.818 79.2787 126.081C78.2396 126.665 77.2514 127.335 76.2083 127.908C76.1534 127.939 76.2083 128.018 76.2632 127.99C77.2867 127.473 78.3572 127.049 79.4003 126.539C80.4434 126.03 81.4747 125.469 82.4982 124.904C83.5217 124.339 84.4863 123.787 85.4824 123.234C86.5326 122.724 87.549 122.148 88.5254 121.508C88.5371 121.496 88.5136 121.438 88.4744 121.453Z" fill="#263238"/>
<path d="M63.6403 159.777C63.4128 158.977 63.1789 158.179 62.9384 157.381C62.4599 155.785 61.9855 154.189 61.4953 152.593C60.5267 149.429 59.5542 146.26 58.5111 143.115C57.9229 141.335 57.3347 139.547 56.672 137.798C56.6689 137.787 56.6637 137.777 56.6568 137.769C56.6499 137.76 56.6414 137.753 56.6318 137.748C56.6221 137.743 56.6115 137.739 56.6006 137.738C56.5897 137.737 56.5786 137.738 56.568 137.741C56.5575 137.744 56.5476 137.749 56.5391 137.756C56.5305 137.763 56.5234 137.771 56.5181 137.781C56.5128 137.791 56.5095 137.801 56.5083 137.812C56.5071 137.823 56.5081 137.834 56.5112 137.845C57.319 141.072 58.3268 144.264 59.3267 147.437C60.3267 150.609 61.3423 153.75 62.3776 156.895C62.6678 157.777 62.958 158.66 63.2599 159.538C63.5619 160.416 63.9187 161.318 64.2207 162.212C64.2207 162.256 64.303 162.236 64.2873 162.193C64.056 161.393 63.8716 160.581 63.6403 159.777Z" fill="#263238"/>
<path d="M118.124 131.472C116.43 136.127 105.152 143.456 93.0272 150.209L53.8798 145.409L51.6094 138.351L76.2083 127.869L26.5203 122.155L50.6957 110.316C50.6957 110.316 55.7425 112.454 59.4678 111.375C61.1148 110.897 96.227 106.038 103.054 107.74C118.124 111.489 121.661 121.736 118.124 131.472Z" fill="#263238"/>
<path d="M170.789 164.581C169.444 165.271 128.79 171.459 127.092 170.718C126.445 170.439 124.838 170.235 123.532 163.102C123.249 161.561 96.1487 147.942 96.1487 147.942L125.951 137.582L150.08 153.373C150.08 153.373 166.702 157.965 168.479 158.981C170.255 159.997 172.153 163.891 170.789 164.581Z" fill="#C95F50"/>
<path d="M170.789 164.581C169.444 165.275 128.794 171.463 127.089 170.718C126.446 170.439 124.834 170.239 123.536 163.106C123.536 163.106 157.26 161.828 162.095 160.091C166.742 158.424 156.468 155.193 155.683 154.946C160.683 156.373 167.397 158.353 168.495 158.981C170.259 159.993 172.153 163.891 170.789 164.581Z" fill="#FFC727"/>
<path d="M134.9 141.515L113.25 161.463L68.5812 131.214C68.5812 131.214 56.7935 146.35 45.8606 148.405C38.4335 149.797 27.7046 149.797 21.6696 141.147C16.5717 133.869 19.5912 125.304 19.5912 125.304L28.1124 121.434C28.1124 121.434 47.9037 98.7957 60.4521 97.4899C79.6082 95.4978 134.9 141.515 134.9 141.515Z" fill="#37474F"/>
<path d="M34.2536 115.042C33.2379 116.03 32.2929 117.065 31.2772 118.073C30.2616 119.081 29.2773 120.014 28.3675 121.069C27.4578 122.124 26.5833 123.269 25.7324 124.402C25.3402 124.951 24.9128 125.5 24.5206 126.061C24.1006 126.608 23.723 127.186 23.3913 127.79C23.3638 127.849 23.4501 127.896 23.4893 127.857C23.9642 127.383 24.4083 126.878 24.8187 126.347C25.2775 125.806 25.7324 125.257 26.1912 124.712C27.0735 123.661 27.9832 122.634 28.8616 121.575C29.74 120.516 30.5243 119.41 31.387 118.356C32.3125 117.226 33.3046 116.152 34.281 115.065C34.3006 115.054 34.2732 115.022 34.2536 115.042Z" fill="#263238"/>
<path d="M127.744 137.123C127.042 137.668 126.367 138.268 125.693 138.849C125.018 139.429 124.363 139.994 123.701 140.574C122.348 141.751 121.014 142.962 119.681 144.166C116.999 146.582 114.352 149.033 111.701 151.48C110.215 152.848 108.756 154.248 107.282 155.628C107.254 155.656 107.282 155.703 107.325 155.679C110.046 153.37 112.748 151.048 115.426 148.688C118.105 146.327 120.818 143.88 123.454 141.417C124.187 140.731 124.912 140.041 125.63 139.339C126.348 138.637 127.112 137.935 127.799 137.186C127.842 137.155 127.783 137.096 127.744 137.123Z" fill="#263238"/>
<path d="M76.1965 100.388C79.6513 99.6308 91.4154 98.5642 93.3644 102.799C95.3133 107.034 90.6194 111.924 82.9139 117.701L76.1965 100.388Z" fill="#C95F50"/>
<path d="M55.7584 110.634C55.8682 112.544 57.7897 113.03 57.7897 113.03C57.3337 113.868 57.1852 114.839 57.3701 115.775C57.7622 117.411 60.5072 117.493 60.5072 117.493C60.2109 118.459 60.2109 119.492 60.5072 120.458C61.0523 121.983 63.8012 122.457 63.8012 122.457C64.0233 123.495 64.6122 124.419 65.4599 125.057C67.8128 126.673 71.7695 124.959 74.3105 123.881C76.8516 122.803 83.0592 117.426 84.3454 116.52L77.679 100.16C77.679 100.16 64.9345 101.682 62.1268 103.356C59.77 104.78 55.6329 108.489 55.7584 110.634Z" fill="#C95F50"/>
<path d="M57.7975 112.72C59.9543 110.618 62.613 109.269 65.1933 107.771C65.2482 107.736 65.2992 107.826 65.2443 107.862C62.6601 109.32 60.4013 111.277 57.8838 112.834C57.8687 112.845 57.8497 112.85 57.831 112.848C57.8122 112.845 57.7952 112.835 57.7838 112.82C57.7724 112.805 57.7674 112.786 57.77 112.767C57.7725 112.749 57.7824 112.732 57.7975 112.72Z" fill="#263238"/>
<path d="M60.4757 117.249C61.0116 116.818 61.6023 116.459 62.2325 116.183C62.8808 115.848 63.5344 115.525 64.1932 115.214C65.5069 114.591 66.8362 113.995 68.1852 113.438C68.244 113.414 68.295 113.501 68.2362 113.528C66.9264 114.155 65.6245 114.799 64.3422 115.489C63.6991 115.826 63.0599 116.175 62.4246 116.524C61.845 116.892 61.227 117.196 60.5816 117.43C60.5581 117.439 60.5321 117.44 60.5083 117.431C60.4845 117.423 60.4643 117.407 60.4516 117.385C60.4388 117.363 60.4342 117.338 60.4387 117.313C60.4431 117.288 60.4562 117.265 60.4757 117.249Z" fill="#263238"/>
<path d="M63.8798 122.43C64.2994 122.014 64.9778 121.795 65.5111 121.555C66.115 121.294 66.7189 121.018 67.3228 120.728C68.5267 120.171 69.7305 119.614 70.9148 119.014C70.9736 118.983 71.0246 119.073 70.9658 119.105C69.7658 119.72 68.5737 120.352 67.3698 120.955C66.7777 121.253 66.1934 121.548 65.5895 121.838C65.0718 122.153 64.5022 122.375 63.9073 122.493C63.872 122.497 63.8602 122.453 63.8798 122.43Z" fill="#263238"/>
<path d="M89.2391 100.195C87.9984 99.8714 86.7278 99.6757 85.4471 99.611C84.1661 99.5385 82.8821 99.5307 81.6003 99.5875C80.314 99.6346 79.0396 99.7718 77.7651 99.9287C77.1299 100.011 76.4946 100.113 75.8633 100.203L73.9692 100.505L70.1968 101.144C68.9381 101.364 67.6754 101.564 66.4205 101.827C65.7931 101.956 65.1657 102.093 64.5422 102.262C63.9104 102.416 63.3014 102.652 62.7305 102.964C61.6472 103.65 60.6098 104.406 59.6248 105.226C60.6554 104.474 61.7277 103.78 62.8364 103.148C63.3979 102.866 63.9937 102.657 64.6089 102.529C65.2284 102.383 65.8559 102.266 66.4833 102.156C68.9969 101.725 71.5262 101.336 74.0516 100.933L75.9417 100.611C76.5691 100.513 77.2005 100.407 77.8318 100.321C79.0906 100.144 80.3611 100.019 81.6277 99.9287C82.8943 99.8385 84.1766 99.7954 85.4471 99.8306C86.7196 99.837 87.9888 99.959 89.2391 100.195Z" fill="#263238"/>
<path d="M35.9278 92.0781C33.5318 106.701 36.7827 121.03 38.6728 123.61C42.4334 128.735 62.9031 127.865 68.2754 128.249C70.4478 128.406 66.9853 108.552 64.6677 108.779C58.9072 109.344 50.7036 109.003 50.4213 109.034C49.837 109.093 44.7627 94.678 43.4608 90.2664C40.5747 80.459 37.0415 85.3019 35.9278 92.0781Z" fill="#C95F50"/>
<path d="M82.5492 107.952C82.8086 108.403 82.9176 108.925 82.8605 109.441C82.8033 109.958 82.5831 110.443 82.2316 110.827C83.019 111.317 83.6322 112.043 83.9845 112.901C84.5295 114.415 82.3924 115.928 82.3924 115.928C83.1396 116.537 83.6862 117.357 83.9609 118.281C84.3335 119.783 82.3924 121.618 82.3924 121.618C82.7631 122.562 82.7826 123.607 82.4473 124.563C81.4434 127.085 77.373 127.826 74.7888 128.32C72.2046 128.814 64.4088 127.81 62.903 127.767L59.5659 111.211C59.5659 111.211 70.5184 105.682 73.6398 105.529C76.2593 105.415 81.514 106.18 82.5492 107.952Z" fill="#C95F50"/>
<path d="M82.0315 110.693C79.2042 110.16 76.369 110.489 73.526 110.662C73.5153 110.665 73.506 110.671 73.4993 110.68C73.4926 110.689 73.489 110.7 73.489 110.711C73.489 110.722 73.4926 110.733 73.4993 110.741C73.506 110.75 73.5153 110.757 73.526 110.76C76.3572 110.556 79.1885 110.92 82.0197 110.83C82.0356 110.828 82.0503 110.821 82.0614 110.809C82.0724 110.797 82.0792 110.782 82.0806 110.766C82.0819 110.75 82.0778 110.734 82.0689 110.721C82.06 110.708 82.0468 110.698 82.0315 110.693Z" fill="#263238"/>
<path d="M82.2939 115.72C81.6395 115.661 80.9803 115.689 80.3332 115.803C79.643 115.877 78.9528 115.967 78.2666 116.065C76.8863 116.261 75.5125 116.494 74.1452 116.763C74.0864 116.763 74.0903 116.869 74.1452 116.861C75.5216 116.665 76.8902 116.493 78.2784 116.355C78.9685 116.285 79.6587 116.222 80.3528 116.163C81.0137 116.153 81.6714 116.069 82.3135 115.912C82.3329 115.903 82.349 115.889 82.3596 115.87C82.3702 115.852 82.3747 115.83 82.3726 115.809C82.3704 115.788 82.3617 115.768 82.3475 115.752C82.3334 115.736 82.3147 115.725 82.2939 115.72Z" fill="#263238"/>
<path d="M82.326 121.641C81.7327 121.597 81.1361 121.652 80.5613 121.806C79.9378 121.912 79.3104 122.01 78.683 122.108C77.4281 122.3 76.1733 122.5 74.9145 122.641C74.8518 122.641 74.8596 122.747 74.9145 122.739C76.1929 122.594 77.4791 122.469 78.7575 122.312C79.3849 122.234 80.0123 122.155 80.6398 122.069C81.2202 122.048 81.7923 121.924 82.3299 121.704C82.3355 121.701 82.3401 121.696 82.3431 121.69C82.3461 121.685 82.3475 121.678 82.3471 121.672C82.3467 121.665 82.3445 121.659 82.3408 121.654C82.3371 121.648 82.3319 121.644 82.326 121.641Z" fill="#263238"/>
<path d="M74.5105 105.532C75.4928 105.533 76.474 105.598 77.4476 105.729C78.4283 105.845 79.3942 106.063 80.3298 106.379C80.8035 106.542 81.2584 106.755 81.6867 107.015C82.1292 107.277 82.5029 107.642 82.7768 108.077C83.0455 108.534 83.161 109.064 83.1062 109.591C83.045 110.133 82.7749 110.63 82.3533 110.975V110.677C82.8187 110.984 83.2396 111.354 83.6042 111.775C84.01 112.201 84.253 112.757 84.2905 113.344C84.2569 113.922 84.0351 114.473 83.6591 114.912C83.3088 115.35 82.892 115.73 82.4239 116.038V115.759C82.8864 116.124 83.291 116.556 83.6238 117.042C83.9911 117.527 84.167 118.13 84.1179 118.736C84.015 119.31 83.8005 119.859 83.4866 120.351C83.1828 120.841 82.7936 121.273 82.3376 121.626C82.7526 121.239 83.1022 120.787 83.3729 120.289C83.6407 119.802 83.8187 119.27 83.8983 118.72C83.9131 118.175 83.7307 117.643 83.3846 117.222C83.0444 116.781 82.6491 116.386 82.2082 116.046L82.0278 115.901L82.22 115.767C82.6486 115.473 83.0307 115.116 83.3532 114.709C83.5277 114.529 83.6646 114.316 83.7561 114.082C83.8477 113.849 83.892 113.6 83.8865 113.349C83.8811 113.099 83.8259 112.852 83.7243 112.623C83.6226 112.393 83.4765 112.187 83.2944 112.015C82.9578 111.617 82.5687 111.268 82.1376 110.975L81.9376 110.838L82.1298 110.681C82.4756 110.397 82.7011 109.992 82.7611 109.548C82.8097 109.093 82.7194 108.633 82.5023 108.23C82.2604 107.828 81.9256 107.489 81.5259 107.242C81.1221 106.98 80.6908 106.763 80.2397 106.595C79.3227 106.266 78.3777 106.02 77.4163 105.862C76.4547 105.697 75.4845 105.587 74.5105 105.532Z" fill="#263238"/>
<path d="M78.8239 105.975C77.8514 105.768 76.8632 105.583 75.8946 105.454C74.9709 105.294 74.0286 105.273 73.0986 105.391C72.178 105.567 71.2761 105.83 70.4047 106.175C69.4635 106.52 68.5263 106.885 67.6048 107.277C66.6579 107.667 65.7405 108.124 64.8598 108.646C64.8245 108.622 60.9619 108.803 59.0757 108.858C57.1896 108.913 55.3073 108.952 53.4211 108.967C52.9074 108.967 51.033 108.967 50.4918 109.014C50.484 109.017 50.4771 109.022 50.4723 109.029C50.4675 109.035 50.4648 109.043 50.4648 109.052C50.4648 109.06 50.4675 109.068 50.4723 109.075C50.4771 109.081 50.484 109.086 50.4918 109.089C51.382 109.258 54.8877 109.391 55.8524 109.403C57.7385 109.422 59.6247 109.383 61.5109 109.297C62.6011 109.25 64.7578 109.116 65.0127 109.069C65.5813 108.905 66.6205 108.23 67.4401 107.893C68.3342 107.536 69.2243 107.16 70.1262 106.807C70.9811 106.45 71.8588 106.152 72.7536 105.913C73.6834 105.704 74.6405 105.646 75.5887 105.74C76.6554 105.83 77.7259 105.952 78.7886 106.093C78.769 106.211 78.867 105.917 78.8239 105.975Z" fill="#263238"/>
<path d="M68.6284 128.253C68.3892 128.206 68.15 128.194 67.9068 128.171C67.6637 128.147 67.3539 128.088 67.0794 128.065C66.5775 128.022 66.0638 128.026 65.5618 128.006C64.5501 127.967 63.5384 127.943 62.5267 127.92C60.468 127.869 53.5859 127.626 52.9977 127.688C52.9883 127.688 52.9794 127.692 52.9727 127.699C52.9661 127.705 52.9624 127.714 52.9624 127.724C52.9624 127.733 52.9661 127.742 52.9727 127.749C52.9794 127.755 52.9883 127.759 52.9977 127.759C53.5114 127.845 58.0053 128.175 59.0366 128.214C61.0758 128.288 63.1188 128.363 65.1619 128.39H66.8481C67.1461 128.39 67.4402 128.355 67.7382 128.335C68.0362 128.316 68.3343 128.335 68.6323 128.284C68.635 128.279 68.636 128.274 68.6353 128.268C68.6346 128.262 68.6322 128.257 68.6284 128.253Z" fill="#263238"/>
<path d="M33.7474 107.74L47.3782 100.203C46.3236 96.3497 45.039 92.5627 43.5313 88.8627C40.9824 82.5885 37.5551 82.5375 35.3748 91.4038C34.0614 96.7448 33.5134 102.245 33.7474 107.74Z" fill="#FFC727"/>
<path d="M34.3867 96.3487C34.2965 96.9409 34.218 97.5252 34.1475 98.0742C34.1772 98.3166 34.2392 98.554 34.3318 98.78C34.4868 98.3664 34.564 97.9276 34.5592 97.486C34.561 97.1002 34.5028 96.7166 34.3867 96.3487ZM42.9118 95.0429C42.4701 95.0382 42.0313 95.1153 41.6177 95.2704C42.0308 95.4273 42.4699 95.5045 42.9118 95.4978C43.3538 95.5065 43.7933 95.4292 44.2058 95.2704C43.7928 95.1134 43.3536 95.0362 42.9118 95.0429ZM33.7043 106.76C33.7043 106.835 33.7043 106.905 33.7043 106.972C33.8101 106.944 33.9136 106.909 34.0141 106.866C33.9133 106.824 33.8098 106.789 33.7043 106.76ZM39.3747 89.2981C39.0563 89.6048 38.7995 89.9695 38.6179 90.3725C39.0224 90.1933 39.3886 89.9376 39.6962 89.6196C40.0129 89.3124 40.2684 88.9477 40.4491 88.5452C40.0466 88.7259 39.682 88.9814 39.3747 89.2981ZM34.3867 96.3566C34.2965 96.9487 34.218 97.533 34.1475 98.082C34.1772 98.3244 34.2392 98.5618 34.3318 98.7879C34.4868 98.3742 34.564 97.9355 34.5592 97.4938C34.5619 97.1054 34.5036 96.7191 34.3867 96.3487V96.3566ZM33.7043 106.768C33.7043 106.842 33.7043 106.913 33.7043 106.98C33.8101 106.952 33.9136 106.917 34.0141 106.874C33.9135 106.829 33.81 106.791 33.7043 106.76V106.768ZM39.3747 89.3059C39.0563 89.6127 38.7995 89.9773 38.6179 90.3804C39.0224 90.2011 39.3886 89.9455 39.6962 89.6275C40.0129 89.3202 40.2684 88.9556 40.4491 88.553C40.0472 88.7314 39.6826 88.9842 39.3747 89.2981V89.3059Z" fill="white"/>
<path d="M46.2764 98.2114C45.202 98.6545 44.1902 99.2623 43.1589 99.78C42.1276 100.298 41.1982 100.796 40.2179 101.349C38.2101 102.467 36.2272 103.627 34.2691 104.827C34.2338 104.846 34.2691 104.909 34.3005 104.89C36.3239 103.844 38.3343 102.782 40.3316 101.705C41.3237 101.164 42.2923 100.6 43.2805 100.031C44.2687 99.4623 45.3471 98.929 46.3078 98.2741C46.3151 98.2694 46.3204 98.2622 46.3227 98.2538C46.3249 98.2454 46.3241 98.2365 46.3202 98.2287C46.3163 98.221 46.3097 98.2149 46.3016 98.2117C46.2935 98.2085 46.2846 98.2084 46.2764 98.2114Z" fill="#263238"/>
<path d="M35.2139 106.932C35.1472 106.932 33.8375 107.634 33.8179 107.65C33.8924 105.524 33.8767 103.489 34.0022 101.376C34.1453 99.2047 34.3992 97.0425 34.7629 94.8975C34.959 93.6766 35.1943 92.4623 35.4688 91.2545C35.4688 91.2271 35.4335 91.2231 35.4256 91.2545C35.1198 92.2819 34.8505 93.3172 34.6178 94.3603C34.661 93.823 34.7315 93.2897 34.8217 92.7564C34.819 92.7476 34.8135 92.7399 34.8061 92.7345C34.7987 92.7291 34.7897 92.7261 34.7806 92.7261C34.7714 92.7261 34.7624 92.7291 34.755 92.7345C34.7476 92.7399 34.7421 92.7476 34.7394 92.7564C34.5445 93.5049 34.4561 94.2772 34.4766 95.0504C33.846 98.0798 33.5137 101.164 33.4845 104.258C33.4424 105.515 33.4949 106.773 33.6414 108.022C33.6414 108.022 35.2099 107.054 35.2413 107.003C35.2727 106.952 35.2413 106.924 35.2139 106.932Z" fill="#263238"/>
<path d="M47.139 98.6153C46.9899 98.0663 46.8213 97.5212 46.6488 96.9801C46.6135 96.8703 46.5743 96.7605 46.539 96.6468C46.4758 95.94 46.375 95.237 46.237 94.541C46.237 94.5174 46.1939 94.5174 46.1978 94.541C46.2319 95.0849 46.2934 95.6267 46.3821 96.1644C46.1076 95.3409 45.8174 94.5174 45.4645 93.7253C45.4627 93.7211 45.4597 93.7175 45.4558 93.715C45.452 93.7125 45.4475 93.7112 45.443 93.7112C45.4384 93.7112 45.4339 93.7125 45.4301 93.715C45.4262 93.7175 45.4232 93.7211 45.4214 93.7253C45.6998 94.8272 46.0527 95.9135 46.3704 97.0036C46.5233 97.533 47.3389 100.117 47.3154 100.141C47.1785 100.22 47.0474 100.309 46.9233 100.407C46.8605 100.482 46.9233 100.466 46.9507 100.451L47.5978 100.196C47.5821 100.192 47.2644 99.082 47.139 98.6153Z" fill="#263238"/>
<path d="M133.814 123.132C133.814 123.132 132.731 123.524 126.681 124.701C122.493 125.516 112.815 130.191 110.662 141.955C109.834 146.472 112.642 149.013 114.336 144.484C115.513 141.288 116.077 138.967 116.76 138.033C116.76 138.033 118.379 143.002 121.269 143.915C123.797 144.702 126.377 145.307 128.99 145.727C129.176 145.267 129.334 144.795 129.461 144.315C130.634 144.569 131.854 144.486 132.981 144.076C134.109 143.666 135.098 142.946 135.833 141.998L133.814 123.132Z" fill="white"/>
<path d="M122.807 126.104C121.434 127.869 118.591 131.657 117.34 135.567C115.952 139.908 114.45 148.649 117.666 149.641C120.019 150.366 120.889 147.08 120.889 147.08C120.889 147.08 121.03 150.825 123.305 151.001C125.375 151.178 125.893 148.594 125.893 148.594C125.893 148.594 126.371 150.848 128.399 150.633C130.838 150.374 129.442 145.688 131.685 143.288C132.187 142.763 122.807 126.104 122.807 126.104Z" fill="white"/>
<path d="M122.171 136.268C121.155 138.139 119.932 142.982 120.826 147.013C120.846 147.103 120.924 147.135 120.924 147.048C120.916 143.42 121.349 139.804 122.214 136.28C122.222 136.257 122.183 136.249 122.171 136.268Z" fill="#263238"/>
<path d="M126.516 137.798C125.803 139.504 124.767 144.551 125.81 148.601C125.834 148.692 125.916 148.719 125.912 148.633C125.717 145.012 125.932 141.382 126.556 137.81C126.557 137.805 126.556 137.799 126.554 137.794C126.551 137.789 126.547 137.786 126.542 137.784C126.537 137.783 126.531 137.783 126.526 137.786C126.521 137.788 126.518 137.793 126.516 137.798Z" fill="#263238"/>
<path d="M135.833 141.982C135.833 141.982 143.48 141.025 150.178 130.783L136.002 119.803C135.631 121.101 134.866 122.251 133.814 123.097L135.833 141.982Z" fill="white"/>
<path d="M43.3743 128.861C42.9038 131.073 36.7589 129.206 35.1394 129.073C33.5199 128.939 33.2258 129.292 33.912 129.916C34.059 130.029 34.2181 130.125 34.3865 130.202C32.0572 129.19 24.583 124.712 24.583 124.712C24.583 124.712 29.7475 124.124 32.4258 124.144C35.1041 124.163 43.8449 126.661 43.3743 128.861Z" fill="white"/>
<path d="M46.3353 138.645C45.8295 140.582 42.6571 140.605 42.4414 140.605C42.6296 140.605 45.3864 140.919 44.7393 142.805C44.0688 144.766 41.2101 145.244 41.2101 145.244C41.2101 145.244 41.9944 145.895 40.9199 147.068C39.3513 148.742 34.4143 148.319 31.9007 147.487C29.3871 146.656 20.7443 141.75 19.4346 140.97L24.6147 124.7C24.6147 124.7 32.0654 129.186 34.4182 130.19H34.4535C36.0452 130.945 37.6823 131.6 39.3553 132.151C42.0375 132.916 46.202 131.712 46.2491 133.782C46.2883 135.637 43.3159 136.19 43.3159 136.19C43.3159 136.19 46.8647 136.649 46.3353 138.645Z" fill="white"/>
<path d="M43.1667 136.151C38.9786 136.637 37.061 136.123 33.32 134.323C33.2455 134.288 33.1789 134.39 33.2494 134.433C36.7552 136.527 39.0649 137.519 43.2019 136.355C43.4019 136.296 43.3666 136.131 43.1667 136.151Z" fill="#263238"/>
<path d="M42.6096 140.531C38.2137 140.656 36.1315 140.115 32.0728 138.519C32.014 138.5 31.9709 138.594 32.0258 138.621C35.8766 140.519 38.2059 141.452 42.5822 140.754C42.7782 140.723 42.8096 140.527 42.6096 140.531Z" fill="#263238"/>
<path d="M41.1431 145.201C36.8806 145.009 34.5709 144.519 30.8298 142.456C30.8122 142.446 30.7914 142.444 30.7719 142.449C30.7523 142.454 30.7355 142.466 30.7248 142.484C30.7142 142.501 30.7106 142.521 30.7149 142.541C30.7191 142.561 30.7308 142.578 30.7475 142.59C34.3552 145.056 37.2335 145.691 41.1235 145.335C41.3902 145.303 41.4137 145.213 41.1431 145.201Z" fill="#263238"/>
<path d="M19.4071 140.958L7.96838 138.515L7.74878 115.681L24.6147 124.704L19.4071 140.958Z" fill="white"/>
<path d="M86.6193 110.654C87.6507 110.936 87.5095 111.477 85.7605 112.222C84.0116 112.967 76.459 114.414 77.1884 117.002C77.9177 119.59 88.5408 117.394 91.3564 115.944C94.1719 114.493 98.2227 111.14 98.2227 111.14C96.0777 111.152 90.8427 110.685 86.6193 110.654Z" fill="white"/>
<path d="M96.6583 95.47C90.4586 95.5837 82.7609 95.5994 77.0121 99.3208C76.3636 99.7186 75.8667 100.322 75.6004 101.034C72.9966 102.658 72.9809 104.375 72.9809 104.375C71.0202 106.63 71.2398 108.391 71.2398 108.391C71.2398 108.391 68.2007 110.328 69.0673 112.359C70.032 114.638 74.1103 111.469 77.4199 111.101C85 110.25 96.0113 111.163 98.2229 111.136L96.6583 95.47Z" fill="white"/>
<path d="M84.7371 104.627C82.5136 104.921 80.3176 105.152 78.1452 105.748C75.7571 106.399 73.5728 107.427 71.318 108.419C71.304 108.426 71.2876 108.427 71.2726 108.423C71.2575 108.418 71.2449 108.407 71.2376 108.393C71.2304 108.379 71.229 108.363 71.2337 108.348C71.2385 108.333 71.2491 108.32 71.2631 108.313C75.0551 105.874 80.2275 104.505 84.7253 104.529C84.8351 104.529 84.8508 104.615 84.7371 104.627Z" fill="#263238"/>
<path d="M84.8899 99.9954C82.7409 100.388 78.9646 101.14 73.0159 104.454C72.9963 104.454 72.9688 104.454 72.9884 104.423C76.4523 101.84 80.5662 100.272 84.8703 99.8935C85.0075 99.8621 85.035 99.9523 84.8899 99.9954Z" fill="#263238"/>
<path d="M84.926 97.478C81.2987 98.3094 79.1145 99.2897 75.6244 101.043C75.6048 101.043 75.5813 101.023 75.6009 101.007C79.3576 98.5995 80.9967 98.1525 84.9142 97.3486C85.0515 97.3212 85.0671 97.4467 84.926 97.478Z" fill="#263238"/>
<path d="M98.2231 111.136L118.759 104.368L101.454 92.0898L96.6584 95.4701L98.2231 111.136Z" fill="white"/>
<path d="M33.7007 82.1729C33.7007 82.1729 38.971 79.522 42.4964 77.9495C44.4571 77.0711 47.9863 75.8712 49.7157 75.8869C52.3195 75.9143 63.1935 77.6829 62.821 80.3298C62.4837 82.7258 53.3351 80.0161 53.3351 80.0161C53.3351 80.0161 62.8092 81.9337 61.872 84.7218C60.9348 87.5099 51.0058 83.1336 51.0058 83.1336C51.0058 83.1336 60.6956 85.3178 59.2721 88.0628C58.1937 90.1372 48.9745 86.6276 48.9745 86.6276C48.9745 86.6276 57.2918 88.5647 56.2762 90.745C55.1546 93.1528 46.4413 90.4509 46.4413 90.4509C42.9317 95.5487 39.3044 96.8154 36.4104 96.9408C35.7359 96.9565 33.7007 82.1729 33.7007 82.1729Z" fill="white"/>
<path d="M50.5464 79.2473C57.6323 80.1257 60.8361 82.7295 60.742 82.6785C58.3891 81.4511 54.4677 80.3767 53.3737 80.0904C52.2796 79.8042 51.6365 79.5728 50.5385 79.3061C50.5071 79.2826 50.5189 79.2473 50.5464 79.2473Z" fill="#263238"/>
<path d="M49.0214 83.0984C51.9027 83.3242 54.7207 84.0625 57.3426 85.2787C57.4406 85.3336 57.3975 85.361 57.2877 85.3297C55.8995 84.9375 50.4135 83.4631 49.0096 83.1337C48.9743 83.1337 48.9821 83.0984 49.0214 83.0984Z" fill="#263238"/>
<path d="M47.4528 86.3255C49.6829 86.5489 51.8519 87.1859 53.8486 88.2039C53.9466 88.2509 53.8761 88.2941 53.7663 88.2588C51.6526 87.5961 49.9978 87.0588 47.441 86.404C47.4018 86.3922 47.4058 86.3177 47.4528 86.3255Z" fill="#263238"/>
<path d="M36.4101 96.9251C33.5945 97.5486 15.6973 96.4977 15.6973 96.4977L18.5913 78.3337L33.7004 82.1728L36.4101 96.9251Z" fill="white"/>
<path d="M154.071 117.364C154.228 113.423 154.174 109.476 153.911 105.541C153.324 97.4224 152.081 89.365 150.193 81.4475C149.162 76.9928 147.891 72.6087 146.566 68.2285C146.527 68.0991 146.315 68.1344 146.35 68.2717C150.448 83.7063 153.801 99.6428 153.581 115.673C153.515 120.163 152.997 124.575 152.569 129.038C152.569 129.155 152.754 129.202 152.781 129.081C153.64 125.261 153.915 121.261 154.071 117.364Z" fill="#FFC727"/>
<path d="M146.362 68.2717C146.362 68.2717 140.155 84.0318 141.543 87.7375C142.931 91.4433 145.801 92.2314 145.801 92.2314C145.801 92.2314 142.002 97.643 144.656 102.741C147.311 107.839 153.209 107.588 153.601 113.356C153.601 113.356 153.93 89.2394 146.362 68.2717Z" fill="#FFC727"/>
<path d="M152.938 103.399C152.948 103.373 152.948 103.344 152.938 103.317C152.123 92.5568 150.103 81.9221 146.915 71.6126C146.915 71.5813 146.856 71.593 146.864 71.6126C148.095 76.2216 149.183 80.8567 150.127 85.5179C149.292 84.727 148.273 84.158 147.162 83.8631C147.142 83.8631 147.131 83.8866 147.162 83.8944C148.311 84.3925 149.409 84.9689 150.221 85.9414C150.404 86.8564 150.58 87.7714 150.75 88.6864C149.362 87.1178 147.436 86.3649 145.511 85.6355C145.484 85.6355 145.472 85.6669 145.511 85.6787C147.519 86.4943 149.515 87.5453 150.876 89.2746C151.349 91.8889 151.764 94.5123 152.123 97.1448C151.12 96.0948 149.834 95.3579 148.421 95.0234C148.378 95.0234 148.35 95.0783 148.397 95.09C149.854 95.5115 151.158 96.3465 152.15 97.4938C152.156 97.5026 152.164 97.5095 152.173 97.5134C152.299 98.4389 152.417 99.3683 152.526 100.294C151.749 99.637 150.873 99.1076 149.93 98.7252C149.903 98.7252 149.891 98.7526 149.93 98.7644C150.891 99.1814 151.771 99.7641 152.53 100.486H152.562C152.668 101.368 152.77 102.25 152.86 103.137C151.46 101.447 149.645 100.151 147.593 99.3761C147.554 99.3761 147.531 99.4232 147.57 99.4388C149.598 100.332 151.379 101.703 152.762 103.435C152.776 103.455 152.796 103.47 152.82 103.477C152.843 103.484 152.868 103.483 152.891 103.474C153.024 104.831 153.146 106.188 153.244 107.548C153.244 107.568 153.275 107.572 153.275 107.548C153.134 106.184 153.036 104.792 152.938 103.399Z" fill="#263238"/>
<path d="M147.939 82.3102C146.814 81.607 145.53 81.2021 144.205 81.1338C144.199 81.1338 144.193 81.1363 144.189 81.1407C144.184 81.1451 144.182 81.1511 144.182 81.1573C144.182 81.1636 144.184 81.1695 144.189 81.174C144.193 81.1784 144.199 81.1808 144.205 81.1808C145.483 81.4184 146.724 81.8246 147.895 82.3886C147.905 82.3887 147.914 82.3862 147.921 82.3816C147.929 82.3769 147.936 82.3703 147.94 82.3622C147.945 82.3542 147.947 82.3451 147.947 82.336C147.946 82.3268 147.944 82.3179 147.939 82.3102Z" fill="#263238"/>
<path d="M148.692 98.9957C147.825 98.4985 146.87 98.1723 145.88 98.0349C145.845 98.0349 145.841 98.082 145.88 98.0859C146.844 98.28 147.775 98.6073 148.649 99.0584C148.696 99.0819 148.727 99.0153 148.692 98.9957Z" fill="#263238"/>
<path d="M170.396 87.9962C167.771 89.809 165.359 91.9139 163.208 94.2704C160.991 96.7668 159.279 99.6701 158.169 102.819C155.81 109.383 154.541 116.288 154.413 123.261C154.334 127.124 154.707 130.983 155.522 134.759C155.532 134.783 155.549 134.803 155.572 134.815C155.595 134.827 155.621 134.831 155.646 134.826C155.671 134.821 155.694 134.807 155.71 134.787C155.726 134.767 155.735 134.741 155.734 134.716C154.723 128.053 154.761 121.273 155.848 114.622C156.914 108.101 158.593 101.011 162.734 95.7096C164.992 92.8274 167.804 90.5569 170.577 88.2119C170.733 88.0903 170.545 87.8903 170.396 87.9962Z" fill="#FFC727"/>
<path d="M155.326 118.571C156.821 116.153 158.578 113.907 160.565 111.874C163.671 108.772 166.29 106.564 166.694 104.509C167.098 102.454 163.581 100.945 163.581 100.945C163.581 100.945 167.894 101.729 169.071 99.9094C170.247 98.0898 170.816 87.6589 170.816 87.6589C170.816 87.6589 162.996 93.243 159.353 101.066C155.71 108.889 155.326 118.571 155.326 118.571Z" fill="#FFC727"/>
<path d="M168.008 97.4586C167.489 97.3827 166.963 97.3643 166.44 97.4037C166.427 97.407 166.416 97.4144 166.408 97.4247C166.4 97.435 166.396 97.4476 166.396 97.4606C166.396 97.4736 166.4 97.4862 166.408 97.4965C166.416 97.5067 166.427 97.5141 166.44 97.5174C166.957 97.5174 167.471 97.4939 167.985 97.5174C168.039 97.5214 168.047 97.4625 168.008 97.4586Z" fill="#263238"/>
<path d="M162.377 107.595C161.553 107.614 160.738 107.778 159.969 108.078C159.95 108.078 159.969 108.117 159.969 108.113C160.754 107.925 161.569 107.846 162.373 107.721C162.39 107.721 162.406 107.715 162.418 107.704C162.43 107.693 162.437 107.677 162.438 107.66C162.438 107.644 162.432 107.627 162.421 107.615C162.41 107.603 162.394 107.596 162.377 107.595Z" fill="#263238"/>
<path d="M160.691 104.094C160.347 104.088 160.004 104.119 159.667 104.184C159.636 104.184 159.636 104.247 159.667 104.247C160.011 104.264 160.355 104.248 160.695 104.199C160.706 104.196 160.716 104.189 160.723 104.179C160.73 104.169 160.734 104.157 160.733 104.145C160.733 104.133 160.728 104.121 160.721 104.112C160.713 104.103 160.703 104.096 160.691 104.094Z" fill="#263238"/>
<path d="M132.406 99.0822C134.95 99.9443 137.388 101.093 139.672 102.506C142.044 104.013 144.1 105.967 145.727 108.258C149.155 113.027 151.778 118.326 153.491 123.944C154.449 127.051 155.04 130.26 155.252 133.504C155.248 133.525 155.236 133.544 155.219 133.558C155.202 133.572 155.181 133.579 155.16 133.579C155.138 133.579 155.117 133.572 155.1 133.558C155.084 133.544 155.072 133.525 155.068 133.504C154.348 127.878 152.751 122.4 150.334 117.27C147.962 112.238 144.966 106.886 140.39 103.545C137.896 101.729 135.096 100.545 132.3 99.29C132.155 99.2391 132.261 99.0312 132.406 99.0822Z" fill="#FFC727"/>
<path d="M151.668 120.344C149.899 118.734 147.958 117.322 145.88 116.136C142.649 114.34 140.021 113.16 139.213 111.591C138.406 110.023 140.907 107.988 140.907 107.988C140.907 107.988 137.61 109.603 136.241 108.415C134.872 107.227 131.998 98.9058 131.998 98.9058C131.998 98.9058 139.617 101.615 144.374 107.105C149.131 112.595 151.668 120.344 151.668 120.344Z" fill="#FFC727"/>
<path d="M145.342 112.697C144.593 112.644 143.841 112.735 143.127 112.968C143.107 112.968 143.127 113.003 143.127 112.999C143.855 112.878 144.589 112.802 145.327 112.772C145.332 112.774 145.338 112.776 145.344 112.776C145.35 112.776 145.356 112.774 145.361 112.772C145.366 112.769 145.371 112.765 145.375 112.76C145.378 112.756 145.381 112.75 145.382 112.744C145.383 112.739 145.383 112.733 145.382 112.727C145.38 112.721 145.377 112.716 145.374 112.711C145.37 112.707 145.365 112.703 145.36 112.701C145.354 112.698 145.348 112.697 145.342 112.697Z" fill="#263238"/>
<path d="M138.696 103.98C138.355 103.952 138.012 103.972 137.677 104.039C137.637 104.039 137.649 104.101 137.677 104.097C138.01 104.062 138.343 104.074 138.676 104.066C138.743 104.062 138.755 103.984 138.696 103.98Z" fill="#263238"/>
<path d="M161.495 143.998H144.295L146.746 126.034L147.374 121.426H158.412L159.04 126.034L161.495 143.998Z" fill="#455A64"/>
<path d="M159.04 126.034H146.746L147.374 121.426H158.412L159.04 126.034Z" fill="#263238"/>
<path d="M159.996 119.83H145.797V123.732H159.996V119.83Z" fill="#455A64"/>
</svg>
