<svg width="500" height="500" viewBox="0 0 500 500" fill="none" xmlns="http://www.w3.org/2000/svg">
<path d="M389.75 121.43C394.673 124.473 400.347 126.086 406.135 126.086C411.923 126.086 417.597 124.473 422.52 121.43C428.286 117.865 432.733 112.517 435.185 106.197C437.637 99.8772 437.961 92.9298 436.109 86.4088C434.256 79.8878 430.327 74.149 424.917 70.0627C419.508 65.9764 412.914 63.7656 406.135 63.7656C399.356 63.7656 392.762 65.9764 387.353 70.0627C381.943 74.149 378.014 79.8878 376.162 86.4088C374.309 92.9298 374.633 99.8772 377.085 106.197C379.537 112.517 383.984 117.865 389.75 121.43V121.43Z" fill="#EBEBEB"/>
<path d="M396.65 91.3601C396.65 93.2371 397.207 95.0719 398.249 96.6325C399.292 98.1931 400.774 99.4095 402.508 100.128C404.242 100.846 406.151 101.034 407.991 100.668C409.832 100.302 411.523 99.3978 412.85 98.0706C414.178 96.7434 415.082 95.0524 415.448 93.2115C415.814 91.3707 415.626 89.4625 414.908 87.7285C414.189 85.9944 412.973 84.5122 411.412 83.4695C409.852 82.4267 408.017 81.8701 406.14 81.8701C404.893 81.8688 403.659 82.1134 402.507 82.5898C401.355 83.0663 400.308 83.7653 399.427 84.6467C398.545 85.5282 397.846 86.5749 397.37 87.7269C396.893 88.8789 396.649 90.1135 396.65 91.3601Z" fill="white"/>
<path d="M389.75 117.52V121.43C394.673 124.473 400.347 126.085 406.135 126.085C411.923 126.085 417.597 124.473 422.52 121.43V117.53C422.574 115.344 422.19 113.169 421.391 111.134C420.592 109.099 419.394 107.244 417.867 105.679C416.34 104.114 414.515 102.871 412.501 102.021C410.486 101.172 408.322 100.735 406.135 100.735C403.949 100.735 401.784 101.172 399.769 102.021C397.755 102.871 395.93 104.114 394.403 105.679C392.876 107.244 391.678 109.099 390.879 111.134C390.08 113.169 389.696 115.344 389.75 117.53V117.52Z" fill="white"/>
<path d="M127.575 122.762C131.584 112.683 126.663 101.263 116.585 97.2539C106.506 93.2451 95.0853 98.1658 91.0765 108.245C87.0677 118.324 91.9884 129.744 102.067 133.753C112.146 137.762 123.567 132.841 127.575 122.762Z" fill="#EBEBEB"/>
<path d="M119.34 117.94C116.34 123.94 109.34 127.48 109.34 127.48C109.34 127.48 102.28 123.93 99.3401 117.94C96.8701 112.94 98.4301 107.56 102.34 106.38C107.93 104.69 109.34 114.43 109.34 114.43C109.34 114.43 110.77 104.69 116.34 106.38C120.25 107.56 121.81 113 119.34 117.94Z" fill="white"/>
<path d="M421.93 293.141C430.478 279.187 426.095 260.945 412.141 252.397C398.187 243.85 379.945 248.232 371.397 262.187C362.85 276.141 367.232 294.383 381.187 302.93C395.141 311.478 413.382 307.095 421.93 293.141Z" fill="#EBEBEB"/>
<path d="M410.07 285.54C403.17 292.89 391.43 294.95 391.43 294.95C391.43 294.95 382.78 286.75 381.1 276.82C379.71 268.53 384.32 261.42 390.46 261.41C399.28 261.41 397.11 276.09 397.11 276.09C397.11 276.09 403.42 262.65 410.77 267.53C415.89 270.93 415.81 279.4 410.07 285.54Z" fill="white"/>
<path fill-rule="evenodd" clip-rule="evenodd" d="M73.36 228.7C72.12 227.93 71.05 226.81 69.36 226.98C68.73 227.04 68.87 226.52 68.86 226.17C68.86 219.97 68.8367 213.776 68.79 207.59C68.79 207.13 68.79 206.76 69.3 206.52C74.03 204.11 76.06 199.41 78.95 195.39C80.4297 193.392 81.4923 191.116 82.0746 188.699C82.657 186.282 82.7473 183.772 82.34 181.32C82.13 179.92 82.78 179.32 84.04 179.01C85.55 178.66 87.04 179.07 87.58 180.11C88.9494 182.636 89.8729 185.38 90.31 188.22C90.59 190.57 89.75 192.86 89.47 195.22C89.26 196.93 88.87 198.61 88.55 200.33C88.97 200.63 89.45 200.48 89.89 200.48L105.6 200.43C107.8 200.43 108.89 201.06 109.2 202.52C109.359 203.403 109.231 204.315 108.835 205.121C108.44 205.927 107.797 206.585 107 207C106.61 207.19 105.9 207 105.86 207.63C105.82 208.26 106.54 208.19 106.86 208.44C108.76 209.73 108.42 212.44 106.23 213.97C105.71 214.35 104.68 214.18 104.66 214.97C104.64 215.76 105.66 215.58 106.04 215.97C107.58 217.48 106.83 220.3 104.54 221.45C104.228 221.547 103.924 221.667 103.63 221.81C103.37 221.98 103.11 222.18 103.63 222.54C105.9 224.15 105.86 226.4 103.63 228.05L102.95 228.55C102.124 229.045 101.159 229.26 100.2 229.16L75.57 229.25C75.1836 229.312 74.7886 229.295 74.4088 229.201C74.029 229.106 73.6722 228.936 73.36 228.7V228.7Z" fill="#EBEBEB"/>
<path fill-rule="evenodd" clip-rule="evenodd" d="M50 217.85C50 213.92 50 209.98 50 206.04C50 205.24 50.07 204.85 51 204.85C55.81 204.9 60.6 204.85 65.4 204.85C66.4 204.85 66.49 205.16 66.49 206C66.49 213.92 66.52 221.843 66.58 229.77C66.58 230.77 66.31 231.06 65.3 231.05C60.64 231.05 55.98 231.05 51.3 231.1C50.14 231.1 49.98 230.72 49.99 229.7C50 225.73 50 221.79 50 217.85Z" fill="#EBEBEB"/>
<path fill-rule="evenodd" clip-rule="evenodd" d="M429 357.21C428.28 356.76 427.65 356.1 426.68 356.21C426.31 356.21 426.39 355.94 426.38 355.74C426.38 352.1 426.38 348.46 426.38 344.82C426.358 344.697 426.375 344.57 426.429 344.457C426.483 344.344 426.571 344.25 426.68 344.19C429.46 342.78 430.68 340.02 432.35 337.66C433.22 336.485 433.846 335.148 434.189 333.728C434.533 332.307 434.588 330.832 434.35 329.39C434.23 328.57 434.61 328.21 435.35 328.04C435.719 327.908 436.121 327.899 436.496 328.015C436.871 328.13 437.199 328.363 437.43 328.68C438.234 330.166 438.775 331.78 439.03 333.45C439.026 334.827 438.861 336.2 438.54 337.54C438.41 338.54 438.18 339.54 438 340.54C438.24 340.71 438.53 340.62 438.79 340.62H448.01C449.31 340.62 449.94 340.98 450.12 341.84C450.223 342.369 450.149 342.918 449.908 343.4C449.668 343.883 449.275 344.273 448.79 344.51C448.56 344.63 448.15 344.51 448.12 344.88C448.09 345.25 448.52 345.21 448.74 345.36C449.85 346.12 449.65 347.69 448.37 348.61C448.06 348.83 447.46 348.73 447.44 349.18C447.42 349.63 448 349.54 448.25 349.79C448.45 350.045 448.588 350.344 448.652 350.661C448.716 350.979 448.705 351.308 448.619 351.621C448.534 351.934 448.376 352.222 448.159 352.463C447.942 352.705 447.672 352.892 447.37 353.01C447.186 353.069 447.006 353.139 446.83 353.22C446.68 353.33 446.53 353.44 446.83 353.65C448.16 354.6 448.14 355.92 446.83 356.89L446.43 357.18C445.948 357.475 445.382 357.602 444.82 357.54C439.993 357.54 435.17 357.556 430.35 357.59C430.111 357.625 429.867 357.61 429.634 357.544C429.402 357.479 429.185 357.365 429 357.21V357.21Z" fill="#EBEBEB"/>
<path fill-rule="evenodd" clip-rule="evenodd" d="M415.22 350.84C415.22 348.53 415.22 346.21 415.22 343.9C415.22 343.43 415.22 343.2 415.84 343.21C418.66 343.21 421.48 343.21 424.3 343.21C424.85 343.21 424.94 343.39 424.94 343.88C424.94 348.546 424.94 353.213 424.94 357.88C424.94 358.48 424.78 358.64 424.19 358.64C421.45 358.64 418.72 358.64 415.98 358.64C415.3 358.64 415.21 358.41 415.21 357.82C415.26 355.47 415.23 353.15 415.22 350.84Z" fill="#EBEBEB"/>
<path d="M96.38 338.74H92.77C92.2303 338.751 91.6941 338.652 91.1935 338.451C90.6929 338.249 90.2383 337.948 89.8571 337.566C89.4759 337.184 89.176 336.728 88.9754 336.227C88.7748 335.726 88.6777 335.19 88.69 334.65C88.6953 333.569 89.1268 332.535 89.8908 331.771C90.6548 331.007 91.6895 330.575 92.77 330.57H97.77L100.12 316.92H95.59C94.5079 316.92 93.4701 316.49 92.705 315.725C91.9398 314.96 91.51 313.922 91.51 312.84C91.51 311.758 91.9398 310.72 92.705 309.955C93.4701 309.19 94.5079 308.76 95.59 308.76H101.59L103.15 299.42C103.303 298.458 103.802 297.584 104.553 296.964C105.304 296.343 106.256 296.018 107.23 296.05C107.825 296.059 108.412 296.196 108.95 296.45C109.489 296.703 109.967 297.069 110.353 297.522C110.739 297.976 111.024 298.506 111.189 299.078C111.354 299.65 111.395 300.251 111.31 300.84L109.91 308.76H122.2L123.77 299.42C123.924 298.443 124.435 297.559 125.203 296.936C125.971 296.314 126.943 295.998 127.93 296.05C128.521 296.063 129.103 296.202 129.636 296.458C130.168 296.714 130.64 297.082 131.019 297.535C131.398 297.989 131.676 298.519 131.833 299.089C131.99 299.659 132.023 300.256 131.93 300.84L130.59 308.76H134.22C135.298 308.768 136.329 309.201 137.089 309.965C137.849 310.729 138.277 311.762 138.28 312.84C138.265 313.914 137.833 314.94 137.075 315.701C136.317 316.462 135.294 316.899 134.22 316.92H129.22L126.87 330.57H131.33C131.868 330.565 132.401 330.666 132.899 330.869C133.397 331.072 133.85 331.373 134.23 331.752C134.611 332.132 134.912 332.584 135.117 333.082C135.321 333.579 135.424 334.112 135.42 334.65C135.415 335.733 134.982 336.77 134.216 337.536C133.45 338.302 132.413 338.735 131.33 338.74H125.45L123.8 348.38C123.647 349.342 123.148 350.216 122.397 350.836C121.646 351.457 120.694 351.781 119.72 351.75C119.123 351.752 118.533 351.625 117.99 351.378C117.446 351.131 116.962 350.77 116.571 350.319C116.18 349.868 115.891 349.338 115.723 348.766C115.556 348.193 115.514 347.59 115.6 347L117.1 338.76H104.77L103.13 348.4C102.952 349.358 102.439 350.221 101.682 350.835C100.925 351.449 99.9742 351.773 99 351.75C98.4052 351.76 97.8155 351.638 97.2739 351.392C96.7323 351.146 96.2525 350.782 95.8693 350.327C95.4861 349.872 95.2092 349.337 95.0588 348.762C94.9085 348.186 94.8884 347.584 95 347L96.38 338.74ZM118.44 330.57L120.8 316.92H108.55L106.19 330.57H118.44Z" fill="#EBEBEB"/>
<path d="M353.8 243.46H350.92C350.492 243.463 350.067 243.38 349.671 243.217C349.275 243.054 348.915 242.814 348.612 242.51C348.31 242.207 348.071 241.847 347.909 241.45C347.747 241.053 347.666 240.628 347.67 240.2C347.675 239.34 348.019 238.516 348.628 237.908C349.236 237.299 350.06 236.955 350.92 236.95H354.92L356.8 226.07H353.16C352.328 226.024 351.545 225.661 350.972 225.055C350.4 224.45 350.081 223.648 350.081 222.815C350.081 221.982 350.4 221.18 350.972 220.574C351.545 219.969 352.328 219.606 353.16 219.56H357.93L359.16 212.12C359.284 211.352 359.683 210.655 360.283 210.16C360.883 209.665 361.643 209.405 362.42 209.43C362.895 209.438 363.362 209.547 363.791 209.749C364.22 209.952 364.601 210.244 364.909 210.605C365.216 210.967 365.443 211.389 365.574 211.845C365.706 212.301 365.738 212.78 365.67 213.25L364.56 219.56H374.37L375.62 212.12C375.747 211.344 376.154 210.641 376.764 210.146C377.374 209.65 378.145 209.395 378.93 209.43C379.401 209.442 379.865 209.553 380.289 209.758C380.714 209.963 381.09 210.256 381.393 210.617C381.696 210.978 381.918 211.4 382.045 211.854C382.172 212.308 382.201 212.784 382.13 213.25L381.06 219.56H384C384.861 219.565 385.685 219.911 386.292 220.522C386.899 221.133 387.24 221.959 387.24 222.82C387.227 223.676 386.882 224.494 386.277 225.1C385.673 225.707 384.856 226.054 384 226.07H380L378.07 237H381.63C382.058 236.996 382.483 237.077 382.88 237.239C383.277 237.401 383.637 237.64 383.941 237.942C384.244 238.245 384.484 238.605 384.647 239.001C384.81 239.397 384.893 239.822 384.89 240.25C384.887 241.114 384.543 241.941 383.932 242.552C383.322 243.163 382.494 243.507 381.63 243.51H376.94L375.63 251.19C375.501 251.955 375.1 252.648 374.501 253.142C373.902 253.636 373.146 253.898 372.37 253.88C371.895 253.878 371.427 253.774 370.996 253.575C370.565 253.375 370.183 253.086 369.874 252.725C369.566 252.364 369.339 251.941 369.208 251.485C369.078 251.028 369.048 250.549 369.12 250.08L370.31 243.51H360.49L359.17 251.19C359.036 251.96 358.628 252.656 358.022 253.15C357.416 253.645 356.652 253.904 355.87 253.88C355.395 253.887 354.924 253.788 354.492 253.59C354.06 253.393 353.678 253.102 353.372 252.738C353.067 252.374 352.846 251.947 352.727 251.487C352.607 251.027 352.591 250.547 352.68 250.08L353.8 243.46ZM371.38 237L373.26 226.12H363.5L361.62 237H371.38Z" fill="#EBEBEB"/>
<path d="M250 466.03C363.478 466.03 455.47 454.179 455.47 439.56C455.47 424.941 363.478 413.09 250 413.09C136.522 413.09 44.53 424.941 44.53 439.56C44.53 454.179 136.522 466.03 250 466.03Z" fill="#EBEBEB"/>
<path d="M103.86 295.1C102.767 299.081 102.047 303.155 101.71 307.27C101.82 307.47 101.79 308.27 101.71 308.02C101.71 308.69 100.71 308.57 100.71 307.91C100.71 307.48 100.71 307.05 100.71 306.63C98.33 303.68 94.88 301.81 92.09 299.24C89.8388 297.229 88.2025 294.622 87.37 291.72C85.05 283.72 87.22 275.29 84.44 267.33C82.04 260.47 77.73 254.5 74.09 248.33C70.24 241.75 67.4 234.84 67.09 227.14C66.86 221.25 67.57 213.39 72.09 208.97C76.85 204.28 82.75 207.8 86.39 211.97C96.96 224.1 101.85 239.42 103.83 255.1C104.92 263.77 106.05 272.5 105.83 281.25C105.634 285.921 104.974 290.56 103.86 295.1V295.1Z" fill="#603A8B"/>
<path d="M101.75 310.45C102.329 302.266 102.232 294.048 101.46 285.88C101.469 285.851 101.469 285.819 101.46 285.79C101.6 279.15 102.12 272.53 101.86 265.88C101.558 258.691 100.601 251.545 99 244.53C99 244.45 98.85 244.47 98.87 244.53C100.164 251.422 100.936 258.402 101.18 265.41C101.32 269.17 101.29 272.923 101.09 276.67C101.03 277.89 100.91 279.12 100.83 280.35C98.0671 261.702 91.3282 243.866 81.07 228.05C80.93 227.84 80.55 228.05 80.68 228.29C88.0106 240.31 93.4381 253.391 96.77 267.07C91.67 257.66 84 249.92 78.3 240.87C78.3 240.82 78.18 240.87 78.21 240.87C83.32 250.95 91.78 258.87 97.21 268.81C98.15 272.863 98.9067 276.943 99.48 281.05C100.245 286.686 100.655 292.363 100.71 298.05C97.61 292.27 94.4 286.73 91.87 280.61C91.8 280.45 91.57 280.61 91.62 280.72C93.78 287.08 96.67 293.93 100.73 299.35C100.73 303.35 100.617 307.373 100.39 311.42C99.76 322.14 97.93 332.73 97.08 343.42C97.0822 343.48 97.1056 343.536 97.1458 343.58C97.186 343.624 97.2405 343.652 97.2995 343.659C97.3584 343.666 97.4181 343.652 97.4677 343.619C97.5172 343.587 97.5535 343.537 97.57 343.48C99.7103 332.578 101.107 321.542 101.75 310.45V310.45Z" fill="#263238"/>
<path d="M90.3599 227.72C90.3599 227.64 90.2099 227.72 90.2399 227.77C92.2399 233.19 93.3099 238.68 94.7199 244.24C94.7353 244.288 94.7676 244.329 94.8109 244.356C94.8541 244.382 94.9054 244.392 94.9554 244.383C95.0053 244.375 95.0504 244.348 95.0825 244.309C95.1146 244.27 95.1314 244.221 95.1299 244.17C94.5499 238.54 92.5399 232.91 90.3599 227.72Z" fill="#263238"/>
<path d="M140.12 250.43C138.811 253.608 137.305 256.7 135.61 259.69C132.08 266.1 128.4 271.97 127.74 279.43C127.44 282.76 127.33 286.11 126.32 289.32C125.39 292.078 124.063 294.685 122.38 297.06C118.55 302.63 113.77 307.43 110.23 313.21C106.543 319.237 103.821 325.803 102.16 332.67C102.07 333.05 101.48 332.95 101.57 332.57C101.57 332.57 101.57 332.52 101.57 332.49C101.57 332.46 101.57 332.49 101.57 332.41C101.01 316.41 102.29 300.29 107.17 284.96C109.322 278.219 111.911 271.625 114.92 265.22C117.54 259.67 120.79 254.32 125.38 250.17C128.38 247.49 134.82 242.41 139.06 245.1C141.07 246.39 140.92 248.43 140.12 250.43Z" fill="#603A8B"/>
<path d="M124 286.7C121.181 291.342 118.075 295.804 114.7 300.06C113.15 302.06 111.58 304.06 110.04 306.11C109.31 307.11 108.49 308.02 107.82 309.05C108.24 307.37 108.65 305.68 109.08 304C111.14 295.92 113.08 287.77 116.2 280C119.354 272.476 123.068 265.199 127.31 258.23C127.42 258.04 127.12 257.91 127.01 258.09C123.63 263.65 120.2 269.2 117.36 275.09C115.788 278.359 114.419 281.722 113.26 285.16C114.562 277.865 116.386 270.673 118.72 263.64C118.72 263.627 118.715 263.614 118.705 263.604C118.696 263.595 118.683 263.59 118.67 263.59C118.657 263.59 118.644 263.595 118.635 263.604C118.625 263.614 118.62 263.627 118.62 263.64C115.589 270.733 113.692 278.258 113 285.94C113 285.94 113 285.94 113 285.94C112.333 288.013 111.69 290.11 111.07 292.23C108.55 301.23 106.34 310.23 104.29 319.3C104.252 313.335 104.768 307.38 105.83 301.51C105.83 301.37 105.66 301.34 105.62 301.51C104.061 307.63 103.54 313.968 104.08 320.26C103.3 323.72 102.543 327.177 101.81 330.63C100.24 338 98.31 345.51 97.39 353C97.3909 353.035 97.4038 353.068 97.4265 353.094C97.4492 353.12 97.4803 353.138 97.5145 353.144C97.5487 353.15 97.5839 353.144 97.6141 353.127C97.6443 353.109 97.6676 353.082 97.68 353.05C98.78 349.05 99.44 344.83 100.34 340.74C101.24 336.65 102.17 332.55 103.12 328.46C104.51 322.51 105.97 316.57 107.45 310.64C108.45 308.47 110.36 306.54 111.79 304.71C113.37 302.71 114.94 300.71 116.47 298.71C119.352 294.949 121.927 290.963 124.17 286.79C124.23 286.67 124.09 286.61 124 286.7Z" fill="#263238"/>
<path d="M124.72 279.86C121.2 284.353 118.151 289.195 115.62 294.31C115.62 294.38 115.69 294.45 115.73 294.38C118.8 289.58 121.81 284.75 124.86 279.95C124.92 279.86 124.78 279.78 124.72 279.86Z" fill="#263238"/>
<path d="M56.62 265.6C58.69 269.17 61.06 273.46 60.17 277.74C59.6 280.46 57.62 282.66 57.26 285.43C56.46 291.54 62.55 295.58 66.95 298.43C77.95 305.63 93 312.06 95 326.78C95.08 327.3 96 327.17 95.91 326.66C95.9146 326.627 95.9146 326.593 95.91 326.56C95.91 326.56 95.97 326.56 95.97 326.47C97.4027 319.041 97.3244 311.399 95.74 304C94.1 296.42 90.79 289.6 86.88 282.94C80.27 271.66 73.27 260.11 63.27 251.47C60.51 249.08 54.84 244.78 52.64 250.18C50.5 255.45 54.08 261.25 56.62 265.6Z" fill="#603A8B"/>
<path d="M66.67 289.51C73.96 297.4 85.54 301.82 91.81 310.65C88.3076 297.208 81.689 284.779 72.49 274.37C72.25 274.09 72.63 273.71 72.89 273.96C79.5956 280.476 84.96 288.242 88.68 296.82C86.9431 290.833 84.6671 285.016 81.88 279.44C81.78 279.23 82.08 279.04 82.2 279.25C85.655 285.338 88.1287 291.932 89.53 298.79C97.79 318.79 98.53 342.25 96.82 363.32C96.82 363.62 96.34 363.63 96.35 363.32C96.82 346.71 96.55 329.81 92.57 313.59C92.49 313.25 92.4 312.92 92.31 312.59C85.49 303.08 73.96 298.67 66.55 289.65C66.48 289.55 66.59 289.42 66.67 289.51Z" fill="#263238"/>
<path d="M65 282.74C68.82 286.25 72.58 289.83 76.41 293.34C76.41 293.34 76.41 293.44 76.36 293.41C72.0264 290.499 68.1218 286.995 64.76 283C64.7256 282.968 64.7051 282.924 64.7033 282.877C64.7014 282.83 64.7182 282.785 64.75 282.75C64.7819 282.716 64.8261 282.695 64.873 282.694C64.9199 282.692 64.9656 282.708 65 282.74V282.74Z" fill="#263238"/>
<path d="M64.38 267.54C67.7616 273.087 71.5874 278.351 75.82 283.28C75.88 283.34 75.82 283.43 75.72 283.37C70.9751 278.857 67.0679 273.538 64.18 267.66C64.172 267.634 64.1728 267.607 64.1824 267.582C64.192 267.557 64.2097 267.535 64.2328 267.521C64.2559 267.508 64.2829 267.502 64.3096 267.505C64.3363 267.509 64.3611 267.521 64.38 267.54V267.54Z" fill="#263238"/>
<path d="M81.59 378.19H115.08L110.57 333.13H86.75L81.59 378.19Z" fill="#455A64"/>
<path d="M85.91 340.46H111.31L110.57 333.13H86.75L85.91 340.46Z" fill="#263238"/>
<path d="M82.65 335.33H114.04V328.14H82.65V335.33Z" fill="#455A64"/>
<path d="M44.45 378.19L95.8399 377.95L147.23 377.86L250 377.69L352.77 377.86L404.16 377.94L455.55 378.19L404.16 378.44L352.77 378.52L250 378.69L147.23 378.52L95.8399 378.43L44.45 378.19Z" fill="#263238"/>
<path d="M337.28 56.1602H162.7C160.359 56.1824 158.044 56.6656 155.89 57.5822C153.735 58.4989 151.782 59.8309 150.142 61.5024C148.502 63.1739 147.207 65.152 146.332 67.3238C145.457 69.4957 145.018 71.8187 145.04 74.1602V433.56C144.997 438.288 146.833 442.84 150.145 446.215C153.456 449.59 157.972 451.513 162.7 451.56H337.28C342.011 451.515 346.53 449.594 349.845 446.219C353.16 442.844 355 438.291 354.96 433.56V74.1502C355 69.4204 353.16 64.8683 349.845 61.4948C346.529 58.1212 342.01 56.2024 337.28 56.1602V56.1602ZM343.92 422.45C343.92 431.91 336.84 439.56 328.1 439.56H171.91C163.15 439.56 156.07 431.91 156.07 422.45V87.7702C156.07 68.5002 163.15 67.5602 171.91 67.5602H203.19C205.01 67.5602 206.5 69.6302 206.5 72.1902V73.3002C206.5 79.3002 209.78 79.3002 213.82 79.3002H286.17C290.24 79.3002 293.49 79.3002 293.49 73.3002V72.1902C293.49 69.6302 294.96 67.5602 296.81 67.5602H328.1C336.84 67.5602 343.92 70.1302 343.92 87.7702V422.45Z" fill="#263238"/>
<path d="M259.86 71.8204H240.13C239.969 71.8217 239.81 71.7911 239.662 71.7302C239.513 71.6694 239.378 71.5796 239.264 71.466C239.151 71.3525 239.061 71.2174 239 71.0688C238.939 70.9202 238.909 70.761 238.91 70.6004V70.6004C238.91 70.2768 239.039 69.9665 239.267 69.7377C239.496 69.5089 239.806 69.3804 240.13 69.3804H259.86C260.184 69.3804 260.494 69.5089 260.723 69.7377C260.951 69.9665 261.08 70.2768 261.08 70.6004C261.081 70.761 261.051 70.9202 260.99 71.0688C260.929 71.2174 260.839 71.3525 260.726 71.466C260.612 71.5796 260.477 71.6694 260.328 71.7302C260.18 71.7911 260.021 71.8217 259.86 71.8204Z" fill="white"/>
<path d="M343.93 87.7701V422.45C343.93 431.91 336.84 439.56 328.1 439.56H171.91C163.15 439.56 156.07 431.91 156.07 422.45V87.7701C156.07 68.5001 163.15 67.5601 171.91 67.5601H203.19C205.01 67.5601 206.5 69.6301 206.5 72.1901V73.3001C206.5 79.3001 209.78 79.3001 213.82 79.3001H286.17C290.24 79.3001 293.5 79.3001 293.5 73.3001V72.1901C293.5 69.6301 294.96 67.5601 296.81 67.5601H328.1C336.84 67.5601 343.93 70.1301 343.93 87.7701Z" fill="white"/>
<path d="M343.92 87.7701V139.35H156.06V87.7701C156.06 68.5001 163.15 67.5601 171.91 67.5601H203.2C205.02 67.5601 206.5 69.6301 206.5 72.1901V73.3001C206.5 79.3001 209.79 79.3001 213.82 79.3001H286.17C290.24 79.3001 293.5 79.3001 293.5 73.3001V72.1901C293.5 69.6301 294.97 67.5601 296.82 67.5601H328.1C336.84 67.5601 343.92 70.1301 343.92 87.7701Z" fill="#603A8B"/>
<path d="M197.8 75.08L197.49 75.38C197.438 75.4415 197.382 75.4984 197.32 75.55C196.548 74.7778 195.502 74.3428 194.41 74.34C193.866 74.3369 193.328 74.4434 192.826 74.653C192.324 74.8626 191.87 75.171 191.49 75.56C191.442 75.4986 191.388 75.4417 191.33 75.39L191.03 75.09C191.15 74.97 191.28 74.86 191.41 74.75C191.681 74.5268 191.976 74.3356 192.29 74.18C192.66 73.9952 193.054 73.8639 193.46 73.79C193.66 73.79 193.85 73.74 194.05 73.71H194.56H194.96C195.329 73.7515 195.692 73.8388 196.04 73.97C196.289 74.0629 196.53 74.1766 196.76 74.31C197.009 74.449 197.244 74.6132 197.46 74.8L197.78 75.08H197.8Z" fill="white"/>
<path d="M192.45 76.5L192 76C192.319 75.6801 192.697 75.4263 193.114 75.2531C193.531 75.0799 193.978 74.9907 194.43 74.9907C194.882 74.9907 195.329 75.0799 195.746 75.2531C196.163 75.4263 196.541 75.6801 196.86 76L196.38 76.48C196.119 76.2166 195.807 76.009 195.463 75.8698C195.119 75.7306 194.751 75.6626 194.38 75.67C193.653 75.6835 192.96 75.9815 192.45 76.5V76.5Z" fill="white"/>
<path d="M195.89 77L195.41 77.47C195.143 77.2078 194.784 77.0606 194.41 77.06C194.224 77.0589 194.039 77.0955 193.867 77.1677C193.695 77.2399 193.54 77.3461 193.41 77.48L192.93 77C193.124 76.8053 193.355 76.6508 193.609 76.5454C193.863 76.44 194.135 76.3857 194.41 76.3857C194.685 76.3857 194.957 76.44 195.211 76.5454C195.465 76.6508 195.696 76.8053 195.89 77V77Z" fill="white"/>
<path d="M194.84 77.89C194.84 78.004 194.795 78.1134 194.714 78.194C194.633 78.2747 194.524 78.32 194.41 78.32C194.296 78.32 194.187 78.2747 194.106 78.194C194.025 78.1134 193.98 78.004 193.98 77.89C193.98 77.7759 194.025 77.6665 194.106 77.5859C194.187 77.5053 194.296 77.46 194.41 77.46C194.524 77.46 194.633 77.5053 194.714 77.5859C194.795 77.6665 194.84 77.7759 194.84 77.89Z" fill="white"/>
<path d="M169.56 77.23C170.245 77.23 170.8 76.6748 170.8 75.99C170.8 75.3052 170.245 74.75 169.56 74.75C168.875 74.75 168.32 75.3052 168.32 75.99C168.32 76.6748 168.875 77.23 169.56 77.23Z" fill="white"/>
<path d="M172.24 76C172.24 75.7523 172.314 75.5102 172.451 75.3045C172.589 75.0987 172.785 74.9385 173.014 74.8442C173.243 74.7499 173.495 74.7257 173.738 74.7748C173.98 74.8238 174.203 74.9439 174.377 75.1197C174.552 75.2955 174.67 75.5191 174.717 75.7623C174.764 76.0054 174.738 76.2571 174.642 76.4853C174.546 76.7135 174.384 76.908 174.177 77.0442C173.97 77.1803 173.728 77.2519 173.48 77.25C173.15 77.2473 172.835 77.1145 172.603 76.8803C172.37 76.6462 172.24 76.3298 172.24 76Z" fill="white"/>
<path d="M177.41 77.23C178.095 77.23 178.65 76.6748 178.65 75.99C178.65 75.3052 178.095 74.75 177.41 74.75C176.725 74.75 176.17 75.3052 176.17 75.99C176.17 76.6748 176.725 77.23 177.41 77.23Z" fill="white"/>
<path d="M180.08 76C180.08 75.7528 180.153 75.5111 180.291 75.3055C180.428 75.1 180.623 74.9398 180.852 74.8452C181.08 74.7505 181.331 74.7258 181.574 74.774C181.816 74.8222 182.039 74.9413 182.214 75.1161C182.389 75.2909 182.508 75.5137 182.556 75.7561C182.604 75.9986 182.579 76.2499 182.485 76.4784C182.39 76.7068 182.23 76.902 182.024 77.0393C181.819 77.1767 181.577 77.25 181.33 77.25C180.998 77.25 180.681 77.1183 180.446 76.8839C180.212 76.6495 180.08 76.3315 180.08 76V76Z" fill="white"/>
<path d="M184 76C184 75.7528 184.073 75.5111 184.211 75.3055C184.348 75.1 184.543 74.9398 184.772 74.8452C185 74.7505 185.251 74.7258 185.494 74.774C185.736 74.8222 185.959 74.9413 186.134 75.1161C186.309 75.2909 186.428 75.5137 186.476 75.7561C186.524 75.9986 186.499 76.2499 186.405 76.4784C186.31 76.7068 186.15 76.902 185.944 77.0393C185.739 77.1767 185.497 77.25 185.25 77.25C184.918 77.25 184.601 77.1183 184.366 76.8839C184.132 76.6495 184 76.3315 184 76V76Z" fill="white"/>
<path d="M329.82 78.7H319.7V74H329.82V78.7ZM320.2 78.2H329.32V74.53H320.2V78.2Z" fill="white"/>
<path d="M327.07 74.8101H320.54V77.9101H327.07V74.8101Z" fill="white"/>
<path d="M330.74 75.1104H329.84V77.6204H330.74V75.1104Z" fill="white"/>
<path d="M275.89 277.81H208.56V287.45H275.89V277.81Z" fill="#603A8B"/>
<path d="M291.19 277.81H281.55V287.45H291.19V277.81Z" fill="#DBDBDB"/>
<path d="M284.43 282.63C284.43 282.749 284.395 282.865 284.329 282.964C284.263 283.062 284.169 283.139 284.06 283.185C283.95 283.23 283.829 283.242 283.713 283.219C283.597 283.196 283.49 283.138 283.406 283.055C283.322 282.971 283.265 282.864 283.242 282.747C283.218 282.631 283.23 282.51 283.276 282.401C283.321 282.291 283.398 282.197 283.497 282.131C283.595 282.065 283.711 282.03 283.83 282.03C283.909 282.03 283.987 282.046 284.06 282.076C284.132 282.106 284.199 282.15 284.254 282.206C284.31 282.262 284.354 282.328 284.384 282.401C284.414 282.473 284.43 282.551 284.43 282.63V282.63Z" fill="#263238"/>
<path d="M287 282.63C287 282.749 286.965 282.865 286.899 282.964C286.833 283.062 286.739 283.139 286.63 283.185C286.52 283.23 286.399 283.242 286.283 283.219C286.167 283.196 286.06 283.138 285.976 283.055C285.892 282.971 285.835 282.864 285.812 282.747C285.788 282.631 285.8 282.51 285.846 282.401C285.891 282.291 285.968 282.197 286.067 282.131C286.165 282.065 286.281 282.03 286.4 282.03C286.479 282.03 286.557 282.046 286.63 282.076C286.702 282.106 286.769 282.15 286.824 282.206C286.88 282.262 286.924 282.328 286.954 282.401C286.984 282.473 287 282.551 287 282.63V282.63Z" fill="#263238"/>
<path d="M289.5 282.63C289.5 282.749 289.465 282.865 289.399 282.964C289.333 283.062 289.239 283.139 289.13 283.185C289.02 283.23 288.899 283.242 288.783 283.219C288.667 283.196 288.56 283.138 288.476 283.055C288.392 282.971 288.335 282.864 288.312 282.747C288.288 282.631 288.3 282.51 288.346 282.401C288.391 282.291 288.468 282.197 288.567 282.131C288.665 282.065 288.781 282.03 288.9 282.03C288.979 282.03 289.057 282.046 289.13 282.076C289.202 282.106 289.269 282.15 289.324 282.206C289.38 282.262 289.424 282.328 289.454 282.401C289.484 282.473 289.5 282.551 289.5 282.63V282.63Z" fill="#263238"/>
<path d="M169.94 105.08L165.55 100.96L169.94 96.8501L170.63 97.5701L167 100.96L170.63 104.36L169.94 105.08Z" fill="white"/>
<path d="M333.33 99.26C333.805 99.26 334.19 98.875 334.19 98.4C334.19 97.9251 333.805 97.54 333.33 97.54C332.855 97.54 332.47 97.9251 332.47 98.4C332.47 98.875 332.855 99.26 333.33 99.26Z" fill="white"/>
<path d="M333.33 102.33C333.805 102.33 334.19 101.945 334.19 101.47C334.19 100.995 333.805 100.61 333.33 100.61C332.855 100.61 332.47 100.995 332.47 101.47C332.47 101.945 332.855 102.33 333.33 102.33Z" fill="white"/>
<path d="M334.2 104.55C334.213 104.672 334.2 104.795 334.163 104.911C334.125 105.027 334.064 105.134 333.982 105.225C333.901 105.316 333.801 105.388 333.689 105.438C333.578 105.488 333.457 105.513 333.335 105.513C333.213 105.513 333.092 105.488 332.981 105.438C332.869 105.388 332.769 105.316 332.688 105.225C332.606 105.134 332.545 105.027 332.507 104.911C332.47 104.795 332.457 104.672 332.47 104.55C332.493 104.337 332.594 104.14 332.754 103.996C332.913 103.853 333.12 103.773 333.335 103.773C333.55 103.773 333.757 103.853 333.916 103.996C334.076 104.14 334.177 104.337 334.2 104.55V104.55Z" fill="white"/>
<path d="M181.42 312C180.342 312.669 179.08 312.979 177.815 312.886C176.55 312.793 175.347 312.301 174.379 311.482C173.411 310.662 172.728 309.556 172.427 308.324C172.126 307.092 172.224 305.796 172.706 304.623C173.188 303.449 174.029 302.459 175.11 301.794C176.19 301.128 177.453 300.823 178.717 300.92C179.982 301.018 181.183 301.513 182.149 302.336C183.114 303.159 183.794 304.267 184.09 305.5C184.385 306.727 184.285 308.015 183.806 309.182C183.327 310.349 182.492 311.335 181.42 312V312Z" fill="#DBDBDB"/>
<path d="M180.1 306.25C180.1 306.61 179.993 306.962 179.793 307.261C179.593 307.561 179.309 307.794 178.977 307.932C178.644 308.069 178.278 308.105 177.925 308.035C177.572 307.965 177.248 307.792 176.993 307.537C176.739 307.283 176.565 306.958 176.495 306.605C176.425 306.252 176.461 305.886 176.599 305.554C176.736 305.221 176.97 304.937 177.269 304.737C177.568 304.537 177.92 304.43 178.28 304.43C178.763 304.43 179.226 304.622 179.567 304.963C179.908 305.305 180.1 305.767 180.1 306.25V306.25Z" fill="white"/>
<path d="M181.42 311.27V312C180.474 312.582 179.386 312.89 178.275 312.89C177.164 312.89 176.076 312.582 175.13 312V311.25C175.175 310.446 175.526 309.691 176.111 309.138C176.696 308.585 177.47 308.277 178.275 308.277C179.08 308.277 179.854 308.585 180.439 309.138C181.024 309.691 181.375 310.446 181.42 311.25V311.27Z" fill="white"/>
<path d="M325 303C325.105 303.003 325.206 303.045 325.28 303.12C325.355 303.194 325.397 303.295 325.4 303.4C325.4 303.506 325.358 303.608 325.283 303.683C325.208 303.758 325.106 303.8 325 303.8C324.948 303.8 324.896 303.79 324.848 303.769C324.8 303.749 324.757 303.72 324.721 303.682C324.684 303.645 324.656 303.601 324.637 303.552C324.618 303.504 324.609 303.452 324.61 303.4C324.61 303.296 324.651 303.195 324.724 303.121C324.796 303.046 324.896 303.003 325 303V303Z" fill="black"/>
<path d="M326.19 303C326.295 303.003 326.396 303.045 326.47 303.12C326.545 303.194 326.587 303.295 326.59 303.4C326.59 303.506 326.548 303.608 326.473 303.683C326.398 303.758 326.296 303.8 326.19 303.8C326.138 303.8 326.086 303.79 326.038 303.769C325.99 303.749 325.947 303.72 325.911 303.682C325.874 303.645 325.846 303.601 325.827 303.552C325.808 303.504 325.799 303.452 325.8 303.4C325.8 303.296 325.841 303.195 325.914 303.121C325.986 303.046 326.086 303.003 326.19 303V303Z" fill="black"/>
<path d="M327.41 303C327.515 303.003 327.616 303.045 327.69 303.12C327.765 303.194 327.807 303.295 327.81 303.4C327.819 303.457 327.816 303.516 327.8 303.571C327.784 303.627 327.757 303.679 327.719 303.723C327.682 303.767 327.635 303.802 327.583 303.826C327.53 303.851 327.473 303.863 327.415 303.863C327.357 303.863 327.3 303.851 327.247 303.826C327.195 303.802 327.148 303.767 327.111 303.723C327.073 303.679 327.046 303.627 327.03 303.571C327.014 303.516 327.011 303.457 327.02 303.4C327.022 303.296 327.064 303.198 327.136 303.123C327.209 303.049 327.307 303.005 327.41 303V303Z" fill="black"/>
<path d="M173.01 319.54L192.43 319.36L208.49 319.25L240.61 319.17L255.91 319.25L271.96 319.36L288.02 319.54L271.96 319.72L255.91 319.82L240.61 319.91L208.49 319.82L192.43 319.72L173.01 319.54Z" fill="#263238"/>
<path d="M173 322.94C182.06 322.79 195 322.72 204.11 322.66L231.3 322.57L258.5 322.66L266.12 322.94L258.5 323.23L231.3 323.31L204.11 323.23C195.05 323.17 182.07 323.1 173 322.94Z" fill="#263238"/>
<path d="M173 326.87C182.88 326.72 197 326.65 206.9 326.59L236.54 326.5L266.17 326.59L274.48 326.87L266.17 327.16L236.54 327.25L206.9 327.16C197 327.1 182.89 327 173 326.87Z" fill="#263238"/>
<path d="M225.27 302.36H189.26V306.25H225.27V302.36Z" fill="#455A64"/>
<path d="M217.99 308.19H189.26V310.54H217.99V308.19Z" fill="#DBDBDB"/>
<path d="M172.29 335L191.7 334.87L211.1 334.83L249.9 334.75L288.7 334.83L308.11 334.87L327.51 335L308.11 335.12L288.7 335.16L249.9 335.25L211.1 335.16L191.7 335.12L172.29 335Z" fill="#DBDBDB"/>
<path d="M181.42 354.25C180.342 354.918 179.081 355.228 177.816 355.135C176.552 355.041 175.349 354.55 174.381 353.73C173.414 352.911 172.73 351.806 172.43 350.574C172.129 349.343 172.226 348.047 172.707 346.874C173.188 345.701 174.029 344.71 175.108 344.045C176.187 343.379 177.449 343.072 178.713 343.168C179.978 343.264 181.179 343.759 182.145 344.58C183.111 345.401 183.792 346.508 184.09 347.74C184.387 348.968 184.289 350.259 183.809 351.428C183.33 352.597 182.494 353.584 181.42 354.25V354.25Z" fill="#DBDBDB"/>
<path d="M180.1 348.48C180.1 348.84 179.993 349.192 179.793 349.491C179.593 349.791 179.309 350.024 178.977 350.162C178.644 350.299 178.278 350.335 177.925 350.265C177.572 350.195 177.248 350.022 176.993 349.767C176.739 349.513 176.565 349.188 176.495 348.835C176.425 348.482 176.461 348.116 176.599 347.784C176.736 347.451 176.97 347.167 177.269 346.967C177.568 346.767 177.92 346.66 178.28 346.66C178.762 346.663 179.223 346.855 179.564 347.196C179.905 347.537 180.097 347.998 180.1 348.48Z" fill="white"/>
<path d="M181.42 353.5V354.25C180.474 354.832 179.386 355.141 178.275 355.141C177.164 355.141 176.076 354.832 175.13 354.25V353.5C175.106 353.072 175.169 352.644 175.316 352.241C175.464 351.839 175.691 351.471 175.986 351.159C176.28 350.848 176.635 350.599 177.029 350.43C177.422 350.26 177.846 350.173 178.275 350.173C178.704 350.173 179.128 350.26 179.521 350.43C179.915 350.599 180.27 350.848 180.564 351.159C180.859 351.471 181.086 351.839 181.234 352.241C181.381 352.644 181.444 353.072 181.42 353.5V353.5Z" fill="white"/>
<path d="M325 345.24C325.106 345.24 325.208 345.282 325.283 345.357C325.358 345.432 325.4 345.534 325.4 345.64C325.4 345.692 325.39 345.744 325.369 345.792C325.349 345.84 325.32 345.883 325.282 345.92C325.245 345.956 325.201 345.984 325.152 346.003C325.104 346.022 325.052 346.032 325 346.03C324.948 346.032 324.897 346.022 324.849 346.003C324.801 345.984 324.758 345.956 324.721 345.919C324.685 345.883 324.656 345.839 324.637 345.791C324.618 345.743 324.609 345.692 324.61 345.64C324.609 345.588 324.618 345.536 324.637 345.488C324.656 345.439 324.684 345.395 324.721 345.358C324.757 345.321 324.8 345.291 324.848 345.271C324.896 345.251 324.948 345.24 325 345.24V345.24Z" fill="black"/>
<path d="M326.19 345.24C326.296 345.24 326.398 345.282 326.473 345.357C326.548 345.432 326.59 345.534 326.59 345.64C326.59 345.692 326.58 345.744 326.559 345.792C326.539 345.84 326.51 345.883 326.472 345.92C326.435 345.956 326.391 345.984 326.342 346.003C326.294 346.022 326.242 346.032 326.19 346.03C326.138 346.032 326.087 346.022 326.039 346.003C325.991 345.984 325.948 345.956 325.911 345.919C325.875 345.883 325.846 345.839 325.827 345.791C325.808 345.743 325.799 345.692 325.8 345.64C325.799 345.588 325.808 345.536 325.827 345.488C325.846 345.439 325.874 345.395 325.911 345.358C325.947 345.321 325.99 345.291 326.038 345.271C326.086 345.251 326.138 345.24 326.19 345.24V345.24Z" fill="black"/>
<path d="M327.41 345.24C327.516 345.24 327.618 345.282 327.693 345.357C327.768 345.432 327.81 345.534 327.81 345.64C327.795 345.734 327.747 345.82 327.675 345.882C327.602 345.943 327.51 345.977 327.415 345.977C327.32 345.977 327.228 345.943 327.155 345.882C327.083 345.82 327.035 345.734 327.02 345.64C327.02 345.536 327.061 345.436 327.134 345.361C327.207 345.286 327.306 345.243 327.41 345.24V345.24Z" fill="black"/>
<path d="M173.01 361.76L192.43 361.58L208.49 361.48L240.61 361.39L255.91 361.48L271.96 361.58L288.02 361.76L271.96 361.95L255.91 362.05L240.61 362.14L208.49 362.05L192.43 361.94L173.01 361.76Z" fill="#263238"/>
<path d="M173 365.17C182.06 365.02 195 364.94 204.11 364.88L231.3 364.8L258.5 364.88L266.12 365.17L258.5 365.46L231.3 365.54L204.11 365.45C195.05 365.39 182.07 365.32 173 365.17Z" fill="#263238"/>
<path d="M225.27 344.59H189.26V348.48H225.27V344.59Z" fill="#455A64"/>
<path d="M217.99 350.42H189.26V352.77H217.99V350.42Z" fill="#DBDBDB"/>
<path d="M172.29 375.22L191.7 375.1L211.1 375.06L249.9 374.97L288.7 375.06L308.11 375.1L327.51 375.22L308.11 375.35L288.7 375.39L249.9 375.47L211.1 375.39L191.7 375.34L172.29 375.22Z" fill="#DBDBDB"/>
<path d="M181.42 395.87C180.342 396.539 179.08 396.849 177.815 396.756C176.55 396.663 175.347 396.171 174.379 395.351C173.411 394.531 172.728 393.426 172.427 392.194C172.126 390.961 172.224 389.666 172.706 388.492C173.188 387.319 174.029 386.328 175.11 385.663C176.19 384.998 177.453 384.692 178.717 384.79C179.982 384.887 181.183 385.383 182.149 386.206C183.114 387.029 183.794 388.137 184.09 389.37C184.385 390.597 184.285 391.885 183.806 393.052C183.327 394.219 182.492 395.205 181.42 395.87V395.87Z" fill="#DBDBDB"/>
<path d="M180.1 390.1C180.1 390.46 179.993 390.812 179.793 391.111C179.593 391.411 179.309 391.644 178.977 391.782C178.644 391.919 178.278 391.956 177.925 391.885C177.572 391.815 177.248 391.642 176.993 391.387C176.739 391.133 176.565 390.808 176.495 390.455C176.425 390.102 176.461 389.736 176.599 389.404C176.736 389.071 176.97 388.787 177.269 388.587C177.568 388.387 177.92 388.28 178.28 388.28C178.763 388.28 179.226 388.472 179.567 388.813C179.908 389.155 180.1 389.618 180.1 390.1V390.1Z" fill="white"/>
<path d="M181.42 395.12V395.87C180.477 396.461 179.387 396.775 178.275 396.775C177.162 396.775 176.073 396.461 175.13 395.87V395.12C175.175 394.317 175.526 393.561 176.111 393.008C176.696 392.455 177.47 392.147 178.275 392.147C179.08 392.147 179.854 392.455 180.439 393.008C181.024 393.561 181.375 394.317 181.42 395.12V395.12Z" fill="white"/>
<path d="M325 386.87C325.057 386.861 325.116 386.864 325.171 386.88C325.227 386.896 325.279 386.923 325.323 386.961C325.367 386.998 325.402 387.045 325.426 387.098C325.451 387.15 325.463 387.207 325.463 387.265C325.463 387.323 325.451 387.38 325.426 387.433C325.402 387.485 325.367 387.532 325.323 387.57C325.279 387.607 325.227 387.635 325.171 387.65C325.116 387.666 325.057 387.669 325 387.66C324.906 387.645 324.821 387.597 324.759 387.525C324.697 387.452 324.663 387.36 324.663 387.265C324.663 387.17 324.697 387.078 324.759 387.006C324.821 386.933 324.906 386.885 325 386.87V386.87Z" fill="black"/>
<path d="M326.19 386.87C326.247 386.861 326.306 386.864 326.361 386.88C326.417 386.896 326.469 386.923 326.513 386.961C326.557 386.998 326.592 387.045 326.616 387.098C326.641 387.15 326.653 387.207 326.653 387.265C326.653 387.323 326.641 387.38 326.616 387.433C326.592 387.485 326.557 387.532 326.513 387.57C326.469 387.607 326.417 387.635 326.361 387.65C326.306 387.666 326.247 387.669 326.19 387.66C326.096 387.645 326.011 387.597 325.949 387.525C325.887 387.452 325.853 387.36 325.853 387.265C325.853 387.17 325.887 387.078 325.949 387.006C326.011 386.933 326.096 386.885 326.19 386.87V386.87Z" fill="black"/>
<path d="M327.41 386.87C327.467 386.861 327.526 386.864 327.581 386.88C327.637 386.896 327.689 386.923 327.733 386.961C327.777 386.998 327.812 387.045 327.836 387.098C327.86 387.15 327.873 387.207 327.873 387.265C327.873 387.323 327.86 387.38 327.836 387.433C327.812 387.485 327.777 387.532 327.733 387.57C327.689 387.607 327.637 387.635 327.581 387.65C327.526 387.666 327.467 387.669 327.41 387.66C327.316 387.645 327.23 387.597 327.169 387.525C327.107 387.452 327.073 387.36 327.073 387.265C327.073 387.17 327.107 387.078 327.169 387.006C327.23 386.933 327.316 386.885 327.41 386.87V386.87Z" fill="black"/>
<path d="M208.36 403.39L221.81 403.21L232.94 403.11L255.18 403.02L265.78 403.1L276.9 403.21L288.02 403.39L276.9 403.57L265.78 403.68L255.18 403.76L232.94 403.68L221.81 403.57L208.36 403.39Z" fill="#263238"/>
<path d="M208.36 406.79C214.64 406.64 223.63 406.57 229.91 406.51L248.74 406.42L267.58 406.51L272.86 406.79L267.58 407.08L248.74 407.17L229.91 407.08C223.63 407 214.64 407 208.36 406.79Z" fill="#263238"/>
<path d="M225.27 386.21H189.26V390.1H225.27V386.21Z" fill="#455A64"/>
<path d="M217.99 392.05H189.26V394.4H217.99V392.05Z" fill="#DBDBDB"/>
<path d="M172.29 426.98H203.48V403.02H172.29V426.98Z" fill="#603A8B"/>
<path opacity="0.2" d="M175.65 408.64C175.535 409.225 175.612 409.832 175.868 410.37C176.124 410.909 176.547 411.351 177.073 411.63C177.6 411.91 178.203 412.013 178.792 411.924C179.382 411.836 179.927 411.559 180.348 411.137C180.769 410.714 181.043 410.167 181.129 409.577C181.215 408.987 181.109 408.385 180.827 407.86C180.545 407.334 180.101 406.914 179.561 406.66C179.022 406.406 178.415 406.333 177.83 406.45C177.291 406.558 176.796 406.824 176.408 407.214C176.02 407.604 175.756 408.1 175.65 408.64V408.64Z" fill="black"/>
<path opacity="0.2" d="M180.94 421.92H203.48L192.21 409.29L180.94 421.92Z" fill="black"/>
<path d="M172.29 421.93H190.9L181.6 413.7L172.29 421.93Z" fill="#603A8B"/>
<path opacity="0.3" d="M172.29 421.93H190.9L181.6 413.7L172.29 421.93Z" fill="black"/>
<path d="M203.49 421.92H172.3V426.98H203.49V421.92Z" fill="#603A8B"/>
<path opacity="0.3" d="M203.49 421.92H172.3V426.98H203.49V421.92Z" fill="black"/>
<path d="M281.91 240.13C272.316 246.055 261.262 249.193 249.985 249.193C238.709 249.193 227.655 246.055 218.06 240.13C206.826 233.184 198.163 222.765 193.386 210.451C188.608 198.138 187.977 184.602 191.587 171.897C195.197 159.192 202.852 148.012 213.391 140.05C223.93 132.089 236.777 127.782 249.985 127.782C263.193 127.782 276.04 132.089 286.579 140.05C297.118 148.012 304.773 159.192 308.383 171.897C311.993 184.602 311.362 198.138 306.584 210.451C301.807 222.765 293.144 233.184 281.91 240.13V240.13Z" fill="#A6A6A6"/>
<path d="M247.53 174.47C270.05 187.72 299.53 196.32 306.85 191.69C314.17 187.06 325.85 149.63 324.93 140.74C324.55 136.9 298.46 134.85 295.86 138.04C293.26 141.23 290.48 163.93 289.07 166.04C288.07 167.56 265.02 163.89 250.6 162.44C241.4 161.5 235.65 167.48 247.53 174.47Z" fill="#AD6359"/>
<path d="M324.64 145.81C325.53 141.97 328.64 122.11 328.2 116.96C327.76 111.81 325.51 97.0798 321.54 96.9598C317.57 96.8398 317.88 101.24 317.88 101.24C317.88 101.24 315.94 95.1698 311.93 95.4598C307.92 95.7498 308.64 102.46 308.64 102.46C308.64 102.46 306.19 96.3798 302.21 96.9398C298.23 97.4998 300.1 104.2 300.1 104.2C300.1 104.2 298.1 98.5298 295.04 100.38C291.33 102.6 296.16 112.64 296.2 118.38C296.2 119.68 294.47 144.71 294.47 144.71L324.64 145.81Z" fill="#AD6359"/>
<path d="M300 103.72C303.54 111.11 303.81 114.95 302.87 122.96C302.87 123.12 303.08 123.18 303.11 123.02C304.75 115.26 305.11 110.39 300.35 103.53C300.07 103.19 299.78 103.36 300 103.72Z" fill="#263238"/>
<path d="M308.35 102C311.35 110 311.68 114.17 311.35 122.63C311.35 122.659 311.362 122.687 311.382 122.707C311.403 122.728 311.431 122.74 311.46 122.74C311.489 122.74 311.517 122.728 311.538 122.707C311.558 122.687 311.57 122.659 311.57 122.63C312.62 114.36 312.87 109.49 308.82 101.89C308.59 101.54 308.21 101.61 308.35 102Z" fill="#263238"/>
<path d="M317.85 101.71C320.2 109.71 320.76 114.22 319.34 122.39C319.331 122.429 319.338 122.471 319.359 122.506C319.381 122.541 319.415 122.565 319.455 122.575C319.495 122.584 319.537 122.577 319.571 122.555C319.606 122.534 319.631 122.499 319.64 122.46C321.89 114.27 321.24 108.58 318.1 101.67C317.89 101.19 317.7 101.21 317.85 101.71Z" fill="#263238"/>
<path d="M293.78 149.89C293.78 149.89 287.71 141.61 285.85 137.38C283.99 133.15 282.85 114.85 286.78 114.38C291.87 113.77 294.61 124.2 295.28 129.49C295.28 129.49 307.05 128.07 310.64 135.14C314.23 142.21 293.78 149.89 293.78 149.89Z" fill="#AD6359"/>
<path d="M288.23 114.67C293.23 117.46 293.71 124.46 294.75 129.54C294.763 129.615 294.794 129.685 294.84 129.746C294.885 129.807 294.945 129.856 295.013 129.889C295.081 129.922 295.157 129.939 295.233 129.937C295.309 129.935 295.383 129.916 295.45 129.88C300.45 129.61 307.51 130.68 310.74 134.88C310.759 134.903 310.785 134.918 310.814 134.922C310.844 134.927 310.873 134.92 310.898 134.904C310.923 134.888 310.941 134.864 310.949 134.835C310.956 134.807 310.953 134.776 310.94 134.75C308.08 129.83 301.2 128.21 295.78 128.85C294.78 123.62 294.04 116.62 288.26 114.67C288.22 114.61 288.2 114.65 288.23 114.67Z" fill="#263238"/>
<path d="M282.4 194.45L288.55 164.45C288.55 164.45 265.13 160.58 250.76 160.81C236.39 161.04 231.64 166.58 249.68 177.36C260.23 183.714 271.157 189.422 282.4 194.45Z" fill="#455A64"/>
<path d="M282.74 164.91C281.527 169.037 280.42 173.197 279.42 177.39C278.93 179.45 278.42 181.51 277.95 183.59C277.48 185.67 277.16 187.91 276.68 190.05C276.68 190.2 276.88 190.27 276.92 190.12C277.45 188.07 278.12 186.05 278.67 184C279.22 181.95 279.67 179.75 280.22 177.63C281.227 173.43 282.13 169.207 282.93 164.96C282.932 164.937 282.925 164.914 282.911 164.895C282.898 164.876 282.878 164.862 282.856 164.856C282.833 164.85 282.809 164.853 282.788 164.862C282.767 164.872 282.75 164.889 282.74 164.91Z" fill="#263238"/>
<path d="M277.18 242.7C273.34 244.644 269.3 246.163 265.13 247.23L264.27 247.45C263.73 247.59 263.17 247.71 262.63 247.83C254.179 249.665 245.432 249.665 236.98 247.83C236.16 247.65 235.34 247.45 234.53 247.23C229.667 245.963 224.984 244.089 220.59 241.65C220.24 241.47 219.9 241.28 219.59 241.07C219.05 240.76 218.51 240.43 217.96 240.07C215.715 238.679 213.564 237.142 211.52 235.47C211.27 235.29 211.03 235.09 210.79 234.88C208.739 233.153 206.805 231.292 205 229.31L204.46 228.72C203.44 227.566 202.463 226.376 201.53 225.15C201.69 224.49 201.86 223.83 202.02 223.15C202.08 222.96 202.12 222.76 202.17 222.57C202.64 220.75 203.17 218.9 203.67 216.99C203.72 216.79 203.79 216.6 203.84 216.39C204.36 214.58 204.91 212.71 205.52 210.84C205.567 210.64 205.627 210.44 205.7 210.24C206.29 208.41 206.91 206.54 207.57 204.66C207.63 204.48 207.71 204.28 207.78 204.08C208.44 202.24 209.12 200.38 209.85 198.51C209.92 198.33 209.99 198.14 210.07 197.95C210.8 196.09 211.58 194.25 212.39 192.39C212.47 192.18 212.56 191.99 212.65 191.79C213.48 189.92 214.35 188.07 215.26 186.22C215.34 186.04 215.43 185.85 215.52 185.68C216.453 183.8 217.43 181.943 218.45 180.11C218.491 180.02 218.537 179.933 218.59 179.85L218.79 179.5C219.85 177.62 220.96 175.76 222.13 173.95C222.25 173.75 222.38 173.55 222.51 173.35C223.74 171.45 225.04 169.59 226.39 167.79C226.485 167.641 226.589 167.497 226.7 167.36L226.83 167.2C228.02 165.62 229.27 164.07 230.56 162.59C230.87 162.234 231.204 161.9 231.56 161.59L231.71 161.47C231.89 161.33 232.06 161.2 232.26 161.07C232.293 161.041 232.33 161.017 232.37 161C238.49 156.92 250.15 158.56 251.64 160.73C251.707 160.815 251.767 160.905 251.82 161L252.02 161.29C253.254 163.182 254.376 165.146 255.38 167.17C256.38 169.07 257.28 171.17 258.2 173.32C259.03 175.27 259.83 177.32 260.62 179.45C260.62 179.56 260.7 179.66 260.73 179.76C260.777 179.856 260.814 179.956 260.84 180.06C261.58 182.06 262.3 184.06 263.01 186.2C263.61 188.03 264.22 189.89 264.79 191.77C264.85 191.98 264.92 192.16 264.98 192.37C265.58 194.3 266.17 196.26 266.73 198.22C266.751 198.321 266.777 198.421 266.81 198.52C267.36 200.38 267.87 202.24 268.38 204.09C268.38 204.26 268.45 204.41 268.5 204.57C269.02 206.48 269.5 208.38 269.99 210.25L270.15 210.85C270.63 212.72 271.09 214.58 271.53 216.4C271.53 216.46 271.53 216.51 271.53 216.56C271.53 216.61 271.6 216.85 271.63 217C272.09 218.9 272.53 220.76 272.95 222.58C273.43 224.7 273.89 226.76 274.31 228.73C274.36 228.94 274.4 229.13 274.44 229.32C274.87 231.32 275.28 233.24 275.65 235.06C275.65 235.2 275.65 235.34 275.73 235.48C276.16 237.61 276.54 239.58 276.87 241.35C276.87 241.45 276.87 241.54 276.92 241.63L277.18 242.7Z" fill="#603A8B"/>
<path opacity="0.1" d="M234.53 247.23C235.34 247.45 236.16 247.65 236.98 247.83H262.63C263.17 247.71 263.73 247.59 264.27 247.45L265.13 247.23H234.53ZM277 241.37C277 241.27 276.95 241.17 276.93 241.07H219.55C219.9 241.28 220.24 241.47 220.55 241.65H277C277 241.56 277 241.47 277 241.37ZM275.78 235.08C275.76 235.024 275.743 234.967 275.73 234.91H210.75C210.99 235.12 211.23 235.32 211.48 235.5H275.81C275.78 235.36 275.75 235.22 275.73 235.08H275.78ZM274.44 228.75H204.44L204.98 229.34H274.54C274.48 229.15 274.44 229 274.39 228.75H274.44ZM200.69 228.75C200.681 228.852 200.661 228.952 200.63 229.05C200.63 228.95 200.63 228.85 200.7 228.75H200.69ZM273 222.6H202.12C202.12 222.79 202.03 222.99 201.98 223.18H273.15L273 222.6ZM271.58 216.6C271.58 216.55 271.58 216.5 271.58 216.44H203.8C203.75 216.65 203.68 216.84 203.63 217.04H271.72C271.68 216.88 271.65 216.74 271.61 216.58L271.58 216.6ZM270 210.27H205.67C205.595 210.466 205.531 210.666 205.48 210.87H270.19L270 210.27ZM268.51 204.59C268.46 204.43 268.43 204.28 268.39 204.11H207.75C207.68 204.31 207.6 204.51 207.53 204.69H268.53C268.529 204.656 268.532 204.622 268.54 204.59H268.51ZM266.74 198.24L266.65 197.95H210.06C209.98 198.14 209.91 198.33 209.83 198.51H266.83C266.805 198.421 266.785 198.331 266.77 198.24H266.74ZM264.8 191.79H212.64C212.55 191.99 212.46 192.18 212.38 192.39H265C265 192.18 264.89 192 264.83 191.79H264.8ZM262.8 185.64H215.53C215.44 185.81 215.35 186 215.27 186.18H263.07C262.983 186.004 262.906 185.824 262.84 185.64H262.8ZM260.73 179.77C260.73 179.67 260.66 179.57 260.62 179.46H218.8L218.61 179.81C218.557 179.893 218.511 179.98 218.47 180.07H260.88C260.854 179.966 260.817 179.866 260.77 179.77H260.73ZM258.2 173.33H222.51C222.39 173.53 222.26 173.73 222.15 173.93H258.47C258.4 173.72 258.31 173.52 258.24 173.33H258.2ZM255.37 167.16H226.85L226.72 167.32C226.609 167.457 226.505 167.601 226.41 167.75H255.69C255.59 167.55 255.5 167.35 255.41 167.16H255.37ZM252.01 161.28L251.81 160.99H232.39C232.35 161.007 232.313 161.031 232.28 161.06C232.08 161.19 231.91 161.32 231.73 161.46L231.58 161.58H252.24C252.169 161.485 252.105 161.385 252.05 161.28H252.01Z" fill="black"/>
<path d="M250.51 176.77C245.79 177.62 238.17 170.07 235.31 164.13C235.12 163.73 235.95 159.59 236.71 154.51C237.17 151.43 237.6 147.98 237.77 144.81L257.4 150.7C256.053 154.603 255.19 158.656 254.83 162.77C254.817 163.207 254.841 163.646 254.9 164.08C254.906 164.149 254.906 164.22 254.9 164.29C255.19 166.79 255.07 175.94 250.51 176.77Z" fill="#AD6359"/>
<path d="M254.93 164.29C254.93 164.43 254.93 164.58 254.93 164.75C243 162.23 239.32 156.19 237.21 150.63C237.45 148.68 237.65 146.7 237.74 144.81L257.37 150.69C256.024 154.596 255.165 158.653 254.81 162.77C254.787 163.207 254.811 163.647 254.88 164.08C254.888 164.151 254.905 164.222 254.93 164.29V164.29Z" fill="#263238"/>
<path d="M233.27 122.1C231.08 129.15 234.72 149.57 239.73 154.1C246.98 160.72 258.9 161.4 264.54 152.68C270.01 144.22 264.79 117.68 259.2 113.54C251 107.45 236.5 111.68 233.27 122.1Z" fill="#AD6359"/>
<path d="M250 135C250 135 249.9 135.09 249.91 135.14C250.19 136.51 250.29 138.14 249.12 138.8C249.12 138.8 249.12 138.89 249.12 138.87C250.67 138.35 250.52 136.2 250 135Z" fill="#263238"/>
<path d="M248.56 133.73C246.31 133.94 246.91 138.41 248.99 138.21C251.07 138.01 250.44 133.55 248.56 133.73Z" fill="#263238"/>
<path d="M258.6 133.68C258.6 133.62 258.72 133.68 258.73 133.78C258.87 135.17 259.26 136.78 260.58 137.04C260.58 137.04 260.58 137.12 260.58 137.11C259 137.1 258.51 135 258.6 133.68Z" fill="#263238"/>
<path d="M259.65 132.07C261.85 131.6 262.65 136.07 260.58 136.47C258.51 136.87 257.8 132.46 259.65 132.07Z" fill="#263238"/>
<path d="M246.52 131.92C247.085 131.67 247.636 131.39 248.17 131.08C248.792 130.864 249.327 130.45 249.69 129.9C249.763 129.705 249.773 129.493 249.719 129.292C249.665 129.091 249.55 128.912 249.39 128.78C249.021 128.575 248.603 128.473 248.18 128.485C247.758 128.498 247.347 128.624 246.99 128.85C246.201 129.194 245.567 129.817 245.21 130.6C245.13 130.784 245.106 130.987 245.143 131.184C245.18 131.381 245.275 131.563 245.416 131.705C245.558 131.848 245.738 131.944 245.935 131.982C246.132 132.021 246.336 131.999 246.52 131.92V131.92Z" fill="#263238"/>
<path d="M261.08 129.58C260.463 129.542 259.849 129.469 259.24 129.36C258.581 129.378 257.935 129.17 257.41 128.77C257.274 128.611 257.192 128.414 257.174 128.206C257.156 127.998 257.203 127.79 257.31 127.61C257.587 127.293 257.943 127.057 258.342 126.925C258.742 126.793 259.169 126.771 259.58 126.86C260.437 126.901 261.249 127.257 261.86 127.86C262.01 128.003 262.112 128.19 262.152 128.393C262.191 128.597 262.167 128.808 262.081 128.997C261.995 129.186 261.853 129.344 261.673 129.448C261.494 129.553 261.287 129.599 261.08 129.58Z" fill="#263238"/>
<path d="M252.36 143.28C252.784 143.78 253.306 144.188 253.895 144.477C254.483 144.766 255.125 144.93 255.78 144.96C256.354 144.995 256.931 144.944 257.49 144.81C257.599 144.794 257.706 144.767 257.81 144.73L258.1 144.64C258.171 144.616 258.233 144.57 258.276 144.509C258.319 144.448 258.342 144.375 258.34 144.3V144.3C258.347 144.253 258.347 144.206 258.34 144.16V144.04C258.22 142.97 257.9 141.37 257.9 141.37C258.32 141.51 260.42 142.14 260.32 141.59C259.43 137.01 258.44 131.93 256.59 127.59C256.579 127.558 256.557 127.532 256.528 127.516C256.498 127.501 256.464 127.497 256.432 127.506C256.4 127.515 256.372 127.536 256.355 127.565C256.338 127.593 256.333 127.627 256.34 127.66C257.02 132.09 258.48 136.37 259.23 140.81C258.482 140.575 257.704 140.447 256.92 140.43C256.77 140.49 257.59 143.53 257.6 144.01C257.606 144.026 257.606 144.044 257.6 144.06C255.84 144.53 254.42 144.17 252.52 143.2C252.35 143.07 252.26 143.18 252.36 143.28Z" fill="#263238"/>
<path d="M256.65 144.41C256.197 145.18 255.553 145.821 254.78 146.27C254.351 146.498 253.861 146.586 253.38 146.52C252.32 146.38 252.18 145.45 252.27 144.62C252.328 144.183 252.432 143.754 252.58 143.34C253.786 144.125 255.214 144.5 256.65 144.41V144.41Z" fill="#263238"/>
<path d="M254.78 146.27C254.351 146.498 253.861 146.586 253.38 146.52C252.32 146.38 252.18 145.45 252.27 144.62C252.813 144.573 253.355 144.711 253.81 145.01C254.266 145.31 254.607 145.753 254.78 146.27V146.27Z" fill="#FF9CBD"/>
<path opacity="0.2" d="M233.31 136.1C234.59 135.34 236.76 130.78 237.72 128.91C238.68 127.04 237.93 118.35 237.63 115.78C235.593 117.451 234.08 119.673 233.27 122.18C232.33 125.11 232.46 130.58 233.31 136.1Z" fill="#263238"/>
<path d="M255.07 120.86C254.444 121.822 253.583 122.608 252.568 123.144C251.553 123.68 250.417 123.947 249.27 123.92C248.102 123.893 246.96 123.568 245.952 122.977C244.944 122.385 244.103 121.547 243.51 120.54C243.51 120.48 243.38 120.54 243.41 120.54C243.941 121.654 244.764 122.603 245.793 123.285C246.822 123.967 248.017 124.355 249.25 124.41C250.471 124.405 251.668 124.078 252.722 123.462C253.776 122.845 254.648 121.961 255.25 120.9C255.26 120.86 255.13 120.77 255.07 120.86Z" fill="#263238"/>
<path d="M246 105.3C242.14 105.89 238.87 108.49 237.8 111.3C237.202 112.908 237.17 114.672 237.71 116.3C237.71 116.37 237.87 116.3 237.85 116.3C237.58 114.84 237.707 113.334 238.219 111.941C238.731 110.547 239.609 109.317 240.76 108.38C242.01 107.293 243.495 106.513 245.099 106.1C246.703 105.686 248.381 105.652 250 106C251.578 106.308 252.995 107.165 254 108.42C254.09 108.55 254.37 108.42 254.29 108.29C252.91 106 249.51 104.77 246 105.3Z" fill="#263238"/>
<path d="M269.56 110.76C268.676 108.936 267.179 107.481 265.33 106.65C262.77 105.49 260.12 106.06 257.49 106.65C257.479 106.655 257.47 106.662 257.464 106.672C257.457 106.682 257.454 106.693 257.454 106.705C257.454 106.717 257.457 106.728 257.464 106.738C257.47 106.748 257.479 106.755 257.49 106.76C259.72 106.25 262.02 105.85 264.24 106.65C266.078 107.295 267.636 108.557 268.65 110.22C269.635 111.937 269.969 113.953 269.588 115.896C269.208 117.839 268.14 119.58 266.58 120.8C265.666 121.48 264.622 121.966 263.512 122.227C262.403 122.489 261.252 122.52 260.13 122.32C260.04 122.32 260 122.43 260.13 122.45C262.155 122.872 264.264 122.541 266.063 121.519C267.861 120.498 269.226 118.855 269.9 116.9C270.546 114.881 270.425 112.695 269.56 110.76V110.76Z" fill="#263238"/>
<path d="M232.6 126.23C232.6 126.23 228.06 119.77 230.6 115.38C232.06 112.9 237.87 112.47 237.87 112.47C239.121 109.983 241.308 108.095 243.95 107.22C248.65 105.51 254.74 107.61 254.74 107.61C254.74 107.61 259 104.41 263.6 106.33C270.02 109 270.42 118.22 264.76 121.91C260.76 124.5 254.56 121.48 254.56 121.48C254.02 121.62 248.78 125.74 243.87 121.23C243.87 121.23 240.78 124.76 237.38 122.98C237.008 123.943 236.351 124.77 235.497 125.351C234.643 125.932 233.633 126.238 232.6 126.23V126.23Z" fill="#263238"/>
<path d="M237.56 138.74C237.56 138.74 232.84 132.22 229.87 133.91C226.9 135.6 230.53 145.11 234.06 146.36C234.502 146.552 234.979 146.653 235.462 146.656C235.945 146.659 236.423 146.564 236.868 146.378C237.313 146.191 237.715 145.915 238.051 145.569C238.386 145.222 238.648 144.81 238.82 144.36L237.56 138.74Z" fill="#AD6359"/>
<path d="M231 136.61C230.987 136.61 230.974 136.615 230.965 136.625C230.955 136.634 230.95 136.647 230.95 136.66C230.95 136.673 230.955 136.686 230.965 136.695C230.974 136.705 230.987 136.71 231 136.71C233.48 137.71 234.82 139.93 235.76 142.28C235.61 142.033 235.408 141.821 235.169 141.66C234.93 141.498 234.658 141.391 234.373 141.344C234.088 141.297 233.796 141.313 233.518 141.39C233.239 141.467 232.981 141.603 232.76 141.79C232.75 141.802 232.744 141.817 232.743 141.833C232.741 141.848 232.744 141.864 232.752 141.878C232.759 141.892 232.771 141.903 232.785 141.911C232.798 141.918 232.814 141.921 232.83 141.92C233.261 141.774 233.726 141.766 234.161 141.897C234.597 142.028 234.981 142.291 235.26 142.65C235.723 143.254 236.121 143.904 236.45 144.59C236.57 144.81 236.96 144.68 236.88 144.43C236.876 144.41 236.876 144.39 236.88 144.37C236.87 141.23 234.36 136.87 231 136.61Z" fill="#263238"/>
<path d="M222.46 166.46C201.09 186.33 173.46 228.87 177.88 237.93C182.8 248.02 212.56 220.15 212.52 218.45C212.52 217.16 223.67 193.7 232.1 174.74C240.53 155.78 227.74 161.55 222.46 166.46Z" fill="#AD6359"/>
<path d="M177.88 237.93C182.2 244.72 194.69 246.52 225.71 253.99C230 254.99 245.46 226.7 240.93 225.36C235.23 223.67 212.73 218.36 211.04 218.17C196.75 216.64 174.94 233.32 177.88 237.93Z" fill="#AD6359"/>
<path d="M230.63 224.24C230.63 224.24 243.22 224.09 249.86 226.07C258.75 228.71 265.34 234.65 267.95 237.3C273.4 242.85 282.75 260.02 278.27 263.57C274.27 266.79 265.56 248.75 265.56 248.75C265.56 248.75 277.42 265.69 271.83 268.66C266.24 271.63 257.37 250.13 257.37 250.13C257.37 250.13 269.18 267.8 262.93 269.96C258.2 271.59 249.07 252.56 249.07 252.56C249.07 252.56 259.12 267.82 254.33 269.7C249.04 271.79 239.51 254.75 239.51 254.75C226.51 257.5 219.24 253.5 214.38 250.04C213.21 249.2 230.63 224.24 230.63 224.24Z" fill="#AD6359"/>
<path d="M261.83 242.64C263.29 244.57 264.83 246.53 266.08 248.64C267.33 250.75 268.58 252.81 269.68 254.98C271.154 257.795 272.308 260.767 273.12 263.84C271.29 258.49 266.79 251.04 265.5 248.97C264.21 246.9 263.03 244.79 261.75 242.73C261.71 242.63 261.79 242.59 261.83 242.64Z" fill="#263238"/>
<path d="M254.29 247.15C256.06 249.71 257.91 252.15 259.56 254.82C261.21 257.49 262.56 260.07 263.99 262.82C264.11 263.03 263.99 263.02 263.83 262.82C262.27 260.15 260.61 257.82 259.01 255.15C257.41 252.48 255.92 249.79 254.23 247.21C254.2 247.15 254.27 247.12 254.29 247.15Z" fill="#263238"/>
<path d="M247.13 249.87C249.933 253.727 252.332 257.862 254.29 262.21C254.39 262.42 254.2 262.39 254.08 262.21C251.78 258 250 254.76 247 250C247 249.9 247.07 249.79 247.13 249.87Z" fill="#263238"/>
<path d="M193.4 222.47C199.007 218.795 205.768 217.308 212.4 218.29C212.48 218.29 212.48 218.44 212.4 218.43C205.53 217.94 196.1 221.14 193.4 222.59C193.38 222.63 193.33 222.52 193.4 222.47Z" fill="#263238"/>
<path d="M191.79 194.37L218.35 209.55C218.35 209.55 229.35 188.5 233.58 174.77C237.81 161.04 234.05 154.77 218.19 168.6C208.875 176.646 200.059 185.252 191.79 194.37V194.37Z" fill="#455A64"/>
<path d="M219.76 203.91C216.213 201.47 212.607 199.136 208.94 196.91C207.13 195.8 205.33 194.66 203.5 193.58C201.67 192.5 199.65 191.48 197.76 190.37C197.63 190.29 197.49 190.48 197.62 190.57C199.4 191.71 201.11 192.98 202.89 194.13C204.67 195.28 206.6 196.44 208.46 197.59C212.14 199.863 215.87 202.04 219.65 204.12C219.76 204.13 219.87 204 219.76 203.91Z" fill="#263238"/>
<path d="M217.23 208.91C217.63 209.09 218.02 209.26 218.41 209.45L218.24 209.5C218.99 207.56 219.84 205.68 220.66 203.78C221.48 201.88 222.4 200.04 223.32 198.19C224.24 196.34 225.17 194.5 226.18 192.69C227.19 190.88 228.18 189.07 229.29 187.31C228.58 189.26 227.77 191.16 226.93 193.05C226.09 194.94 225.22 196.81 224.32 198.68C223.42 200.55 222.48 202.37 221.51 204.2C220.54 206.03 219.51 207.84 218.51 209.61L218.44 209.72L218.34 209.66C217.93 209.42 217.58 209.16 217.23 208.91Z" fill="#263238"/>
<path d="M229.81 191C228.695 192.805 227.162 194.314 225.34 195.4C225.893 194.491 226.566 193.66 227.34 192.93C228.077 192.183 228.907 191.534 229.81 191Z" fill="#263238"/>
<path d="M382.54 233.15C381.14 244.59 371.69 254.41 371.69 254.41C371.69 254.41 358.17 252.67 349.92 244.63C343.04 237.92 342.5 228.25 348.17 224.09C356.3 218.09 364.17 233.16 364.17 233.16C364.17 233.16 361 216.5 371.05 216C378.07 215.73 383.71 223.61 382.54 233.15Z" fill="#603A8B"/>
<path d="M389.08 186.19C383.98 192.97 374.35 195.76 374.35 195.76C374.35 195.76 366.35 189.68 364.06 181.52C362.14 174.72 365.35 168.35 370.49 167.78C377.86 166.98 377.39 179.46 377.39 179.46C377.39 179.46 381.44 167.64 388.04 171.06C392.63 173.44 393.33 180.53 389.08 186.19Z" fill="#603A8B"/>
<path d="M133.87 177C128.93 183.89 119.36 186.9 119.36 186.9C119.36 186.9 111.24 181.01 108.75 172.9C106.67 166.14 109.75 159.7 114.87 159.02C122.22 158.02 122.03 170.54 122.03 170.54C122.03 170.54 125.81 158.63 132.48 161.89C137.13 164.2 138 171.28 133.87 177Z" fill="#603A8B"/>
</svg>
