<svg width="35" height="38" viewBox="0 0 35 38" fill="none" xmlns="http://www.w3.org/2000/svg">
<path d="M9.81893 0.0421524C9.11673 0.0648041 8.48248 0.117657 8.41453 0.147858C8.34657 0.185612 8.23331 0.321522 8.15781 0.457432C7.98415 0.774551 8.0521 1.16718 8.31637 1.41635C8.49758 1.58246 8.58064 1.59756 9.4112 1.62021L10.3097 1.65041V9.72194C10.3097 16.8043 10.2946 17.869 10.1889 18.3824C10.0379 19.1072 9.72077 19.9529 9.36589 20.5494C9.21488 20.7986 7.16114 23.5998 4.79027 26.7786C2.41941 29.9574 0.403414 32.7058 0.305257 32.8945C-0.427144 34.3216 0.207101 36.111 1.687 36.8057L2.11738 37.0096L9.59241 37.0322C14.8476 37.0473 17.1278 37.0247 17.2638 36.9643C17.7394 36.7755 17.83 36.0506 17.4374 35.6807L17.2411 35.4995L9.87178 35.4617C1.67945 35.4164 2.22309 35.4542 1.84557 34.9256C1.63415 34.6236 1.5662 33.9818 1.71721 33.6722C1.77761 33.559 3.72565 30.9087 6.04366 27.7979C8.36167 24.6795 10.4154 21.9009 10.5966 21.614C11.2384 20.6249 11.7368 19.2356 11.8878 17.9822C11.9406 17.5292 11.9708 14.7128 11.9708 9.46522V1.63531H15.2931H18.6153V3.25868V4.88204H17.2562C16.4181 4.88204 15.8367 4.91225 15.7159 4.9651C15.2629 5.17651 15.1798 5.88626 15.5649 6.24869C15.7536 6.42235 15.7989 6.4299 17.1882 6.45255L18.6153 6.4752V8.09857V9.71438H17.2562C16.4181 9.71438 15.8367 9.74459 15.7159 9.79744C15.2629 10.0089 15.1798 10.7186 15.5649 11.081C15.7536 11.2547 15.7989 11.2622 17.1882 11.2849L18.6153 11.3075V13.4066C18.6153 15.4679 18.6153 15.5132 18.789 15.7624C19.1061 16.2305 19.7856 16.238 20.1027 15.7624C20.2311 15.5811 20.2387 15.1659 20.2613 8.60446L20.284 1.65041L21.1749 1.62021C22.0055 1.59756 22.0885 1.58246 22.2698 1.41635C22.6624 1.04637 22.5718 0.344173 22.1036 0.125206C21.8771 0.0195007 12.152 -0.0484543 9.81893 0.0421524Z" fill="#06103B"/>
<path d="M22.5641 18.1635C21.6505 18.4806 20.6614 19.0016 20.4198 19.3111C19.9592 19.885 19.9441 20.6853 20.3971 21.3347C20.6841 21.7575 20.7218 22.0142 20.518 22.1954C20.3141 22.3842 20.1102 22.354 19.7931 22.1048C19.408 21.7953 19.0607 21.6971 18.5322 21.7349C17.913 21.7802 17.543 22.052 17.1655 22.7391C16.8106 23.3884 16.4407 24.3322 16.3501 24.8004C16.1613 25.797 16.8786 26.7031 17.9432 26.8315C18.7889 26.9296 18.736 27.6771 17.8753 27.7828C17.1504 27.8659 16.5766 28.3416 16.3803 29.0136C16.2821 29.3609 16.2821 29.4591 16.3803 29.8894C16.5766 30.7351 17.241 32.1621 17.6336 32.5774C18.2075 33.189 19.1136 33.2419 19.8762 32.6982C20.2914 32.4038 20.5104 32.3736 20.7294 32.5925C20.9332 32.7964 20.9181 33.0909 20.6765 33.3778C20.2008 33.9365 20.1329 34.6765 20.4953 35.2579C20.6916 35.5523 20.82 35.6505 21.424 35.945C22.8813 36.6472 23.591 36.7755 24.2404 36.4433C24.7009 36.2017 25.0785 35.6731 25.1464 35.1748C25.2144 34.6689 25.305 34.4877 25.524 34.4349C25.8486 34.3518 26.06 34.5632 26.1129 35.0012C26.2262 35.9525 26.9435 36.6245 27.8269 36.6094C28.3252 36.6094 29.2539 36.2847 30.1298 35.8166C30.8999 35.4013 31.1642 35.0616 31.2095 34.4122C31.2473 33.8837 31.1491 33.5363 30.8395 33.1513C30.5904 32.8341 30.5602 32.5925 30.7565 32.4189C30.9679 32.2301 31.1869 32.2603 31.6097 32.5472C32.259 33.0003 33.0594 32.9852 33.6408 32.5246C34.0938 32.1621 34.9999 30.1235 34.9999 29.4666C34.9999 29.1117 34.8413 28.6965 34.5997 28.3944C34.3279 28.0698 33.7163 27.7602 33.3237 27.7602C32.8782 27.7602 32.6064 27.2845 32.8857 26.9825C32.9159 26.9447 33.1651 26.8768 33.4369 26.8164C34.1089 26.6729 34.5544 26.3633 34.8036 25.8575C35.0603 25.3516 35.0527 25.0269 34.7734 24.2039C34.1693 22.3993 33.5804 21.7198 32.6215 21.7198C32.176 21.7198 31.6399 21.9236 31.4058 22.1803C31.1416 22.4748 30.6206 22.2785 30.6206 21.8783C30.6206 21.7802 30.7112 21.599 30.8244 21.463C31.1113 21.1233 31.2246 20.7986 31.2246 20.3229C31.2246 19.8246 31.0434 19.4168 30.6885 19.1224C30.1373 18.6618 28.3705 17.9445 27.774 17.9445C27.6079 17.9445 27.3059 18.0275 27.0869 18.1408C26.581 18.39 26.2715 18.8355 26.128 19.5075C26.0676 19.7793 25.9996 20.0284 25.9619 20.0586C25.6599 20.338 25.1842 20.0662 25.1842 19.6207C25.1842 18.9789 24.6103 18.2163 23.9836 18.0275C23.5533 17.8992 23.2437 17.9294 22.5641 18.1635ZM23.5986 19.885C23.5986 20.255 23.8855 20.859 24.2102 21.1837C24.6028 21.5763 25.0558 21.75 25.675 21.7575C26.1204 21.7575 26.2639 21.7198 26.6112 21.531C27.2455 21.1837 27.5852 20.6778 27.7136 19.885C27.7589 19.5905 27.7665 19.5905 28.0383 19.6434C28.3554 19.7038 29.639 20.2776 29.639 20.3607C29.639 20.3909 29.5861 20.4664 29.5106 20.5192C29.2539 20.7382 29.035 21.3573 29.035 21.8708C29.0425 23.0487 29.9033 23.9094 31.0736 23.9094C31.587 23.9094 32.2137 23.6904 32.4251 23.4337C32.478 23.3582 32.5535 23.3054 32.5837 23.3054C32.6668 23.3054 33.2406 24.589 33.301 24.9061C33.3614 25.2157 33.3765 25.2006 32.7272 25.3063C32.0929 25.4044 31.4134 26.084 31.2171 26.8164C31.0509 27.428 31.285 28.2585 31.7607 28.7342C32.0778 29.0513 32.6894 29.3458 33.0443 29.3458C33.1953 29.3458 33.3312 29.3685 33.3614 29.3911C33.4671 29.5044 32.7347 31.2334 32.5762 31.2334C32.5308 31.2334 32.3949 31.1504 32.2666 31.0447C31.9646 30.788 31.285 30.5992 30.8697 30.6596C30.1751 30.7502 29.5106 31.2032 29.2162 31.7771C29.0727 32.0564 28.9896 32.8266 29.0652 33.2268C29.0954 33.3702 29.2313 33.6647 29.3672 33.8686C29.5635 34.1555 29.6012 34.2687 29.5333 34.3216C29.3974 34.4349 28.2723 34.903 28.0005 34.9634C27.7665 35.0163 27.7589 35.0087 27.7136 34.7293C27.5852 33.9441 27.1775 33.3325 26.5886 33.0305C26.1506 32.8115 25.456 32.7662 24.9501 32.9323C24.2328 33.1739 23.5986 34.0045 23.5986 34.7142C23.5986 34.8275 23.5608 34.9483 23.5231 34.9709C23.4249 35.0314 22.7831 34.8275 22.2923 34.5783C21.9526 34.4122 21.9299 34.382 22.0432 34.2612C22.2923 33.9894 22.4886 33.4004 22.4886 32.9323C22.4886 31.7544 21.5826 30.8559 20.4122 30.8559C19.8535 30.8559 19.4911 30.9692 19.0985 31.2712C18.9625 31.3769 18.8342 31.4599 18.8115 31.4599C18.6756 31.4599 17.9055 29.6176 17.9659 29.444C17.9885 29.3911 18.1018 29.3458 18.2226 29.3458C18.9399 29.3458 19.7704 28.7191 20.0121 27.9943C20.1782 27.4884 20.1329 26.7937 19.9139 26.3558C19.6119 25.7668 19.0003 25.3591 18.215 25.2308C17.9357 25.1855 17.9281 25.1779 17.9734 24.9514C18.0414 24.672 18.434 23.7207 18.5926 23.4866L18.6983 23.3205L19.0758 23.5772C19.2797 23.7131 19.5741 23.849 19.7176 23.8792C20.1178 23.9547 20.8879 23.8717 21.1673 23.7282C21.7411 23.4337 22.1942 22.7693 22.2848 22.0746C22.3452 21.6594 22.1564 20.9798 21.8997 20.6778C21.794 20.5494 21.7109 20.4135 21.7109 20.3682C21.7109 20.2248 23.0776 19.6207 23.4325 19.6056C23.5759 19.6056 23.5986 19.6434 23.5986 19.885Z" fill="#06103B"/>
<path d="M26.6933 28.2057C25.8326 28.47 25.0322 29.3458 25.0322 30.0178C25.0322 30.3199 25.3569 30.6898 25.674 30.7502C26.0213 30.8107 26.2932 30.6596 26.5801 30.2519C26.9048 29.7913 27.1388 29.6856 27.6372 29.7762C28.1581 29.8668 28.4753 29.7762 28.664 29.4742C28.8301 29.2099 28.8226 28.7569 28.6414 28.5379C28.4451 28.2963 27.9618 28.1378 27.4106 28.1453C27.1237 28.1453 26.7991 28.1755 26.6933 28.2057Z" fill="#06103B"/>
</svg>
