<svg width="32" height="42" viewBox="0 0 32 42" fill="none" xmlns="http://www.w3.org/2000/svg">
<path d="M31.5646 30.8921C31.5616 30.7494 31.5139 30.6112 31.4283 30.4969C31.3427 30.3826 31.2234 30.2981 31.0873 30.255C28.6807 29.4937 26.8803 28.7679 26.0213 28.4034C25.9368 28.3677 25.8459 28.3492 25.7541 28.3492C25.6623 28.3492 25.5714 28.3677 25.4869 28.4034C24.6275 28.7683 22.8264 29.4941 20.4209 30.255C20.321 30.2864 20.2297 30.3405 20.154 30.413C20.0784 30.4855 20.0206 30.5745 19.985 30.673C19.5692 30.4917 19.1423 30.3371 18.7068 30.2101C19.6122 29.5975 20.3094 28.7237 20.7057 27.7049C21.1019 26.6861 21.1783 25.5708 20.9246 24.5075C20.671 23.4442 20.0995 22.4834 19.2861 21.7532C18.4727 21.0229 17.4561 20.5578 16.3717 20.4199V12.0941C17.3703 12.2568 18.2786 12.769 18.9347 13.5393C19.5907 14.3095 19.9519 15.2878 19.9537 16.2995C19.9537 16.4808 20.0257 16.6547 20.1539 16.7829C20.2821 16.9111 20.456 16.9831 20.6373 16.9831C20.8186 16.9831 20.9925 16.9111 21.1207 16.7829C21.2489 16.6547 21.3209 16.4808 21.3209 16.2995C21.323 15.1792 21.7659 14.1047 22.5539 13.3083C23.3419 12.5119 24.4116 12.0576 25.5318 12.0435C26.6521 12.0295 27.7328 12.4568 28.5405 13.2332C29.3482 14.0096 29.818 15.0726 29.8482 16.1925C29.8534 16.3703 29.9277 16.5391 30.0552 16.6631C30.1827 16.787 30.3536 16.8564 30.5314 16.8566H30.5467C30.7274 16.8526 30.8992 16.7772 31.0245 16.6469C31.1498 16.5166 31.2185 16.342 31.2154 16.1613C31.1447 12.0899 29.4777 8.20915 26.5734 5.35493C23.6692 2.50071 19.7601 0.901367 15.6881 0.901367C11.6161 0.901367 7.70699 2.50071 4.80274 5.35493C1.8985 8.20915 0.231484 12.0899 0.160741 16.1613C0.157703 16.342 0.226341 16.5166 0.351654 16.6469C0.476967 16.7772 0.648763 16.8526 0.829491 16.8566H0.844335C1.0222 16.8564 1.19303 16.787 1.32057 16.6631C1.44812 16.5391 1.52236 16.3703 1.52754 16.1925C1.55471 15.1123 1.99099 14.0826 2.7482 13.3117C3.5054 12.5408 4.52705 12.0862 5.60662 12.0396C6.6862 11.9931 7.74318 12.3582 8.56391 13.0611C9.38464 13.7639 9.9079 14.7522 10.0279 15.8261C10.0279 15.8476 10.0307 15.8691 10.0334 15.8906C10.0492 16.0263 10.0567 16.1629 10.0557 16.2995C10.0557 16.4808 10.1277 16.6547 10.2559 16.7829C10.3841 16.9111 10.558 16.9831 10.7393 16.9831C10.9206 16.9831 11.0944 16.9111 11.2226 16.7829C11.3508 16.6547 11.4229 16.4808 11.4229 16.2995C11.4247 15.2878 11.7858 14.3095 12.4419 13.5393C13.0979 12.769 14.0063 12.2568 15.0049 12.0941V20.4199C13.9207 20.5576 12.9042 21.0224 12.0908 21.7522C11.2774 22.4821 10.7056 23.4424 10.4516 24.5054C10.1976 25.5683 10.2734 26.6834 10.669 27.7022C11.0645 28.721 11.7611 29.5951 12.6658 30.2081C10.4379 30.8638 8.48179 32.2223 7.08924 34.0808C5.69668 35.9393 4.94237 38.1983 4.93887 40.5206C4.93897 40.7019 5.01102 40.8757 5.1392 41.0039C5.26738 41.1321 5.44119 41.2041 5.62246 41.2042H25.7541C25.7979 41.2039 25.8416 41.1995 25.8846 41.1909C25.9023 41.1869 25.9197 41.1819 25.9369 41.1761C25.9576 41.1702 25.9787 41.1663 25.999 41.1589C26.0045 41.1566 26.01 41.1538 26.0154 41.1519L26.0244 41.148C28.6139 40.1452 30.3283 38.062 31.1189 34.9492C31.4458 33.6224 31.5956 32.2582 31.5646 30.8921V30.8921ZM29.0935 11.8788C27.9234 10.9565 26.436 10.5342 24.9558 10.7038C23.4755 10.8735 22.1223 11.6215 21.1912 12.7847C20.9252 9.7054 20.1287 5.10462 17.7779 2.42298C20.3457 2.82085 22.7564 3.91162 24.7503 5.57782C26.7442 7.24403 28.2458 9.42256 29.0935 11.8788ZM5.78965 10.6679C4.51723 10.6627 3.28075 11.0897 2.28262 11.8788C3.13032 9.42256 4.63197 7.24403 6.62589 5.57782C8.6198 3.91162 11.0304 2.82085 13.5982 2.42298C11.2506 5.10149 10.4529 9.69407 10.1857 12.7745C9.6584 12.1155 8.98933 11.5839 8.22825 11.219C7.46718 10.8542 6.63366 10.6655 5.78965 10.6671V10.6679ZM11.599 12.4316C11.9354 9.06985 12.9045 4.21751 15.6881 2.37962C18.4713 4.21868 19.4408 9.07102 19.7771 12.432C19.2516 11.875 18.6178 11.4312 17.9147 11.1279C17.2116 10.8246 16.4539 10.6682 15.6881 10.6682C14.9223 10.6682 14.1646 10.8246 13.4615 11.1279C12.7583 11.4312 12.1245 11.875 11.599 12.432V12.4316ZM11.6709 25.7562C11.6707 24.9616 11.9062 24.1849 12.3475 23.5241C12.7889 22.8634 13.4162 22.3484 14.1502 22.0442C14.8843 21.7401 15.692 21.6604 16.4713 21.8153C17.2506 21.9702 17.9665 22.3528 18.5284 22.9145C19.0903 23.4763 19.473 24.1921 19.628 24.9714C19.7831 25.7507 19.7036 26.5584 19.3996 27.2925C19.0955 28.0266 18.5806 28.6541 17.92 29.0955C17.2594 29.537 16.4826 29.7726 15.6881 29.7726C14.6232 29.7709 13.6023 29.3472 12.8493 28.5942C12.0963 27.8411 11.6725 26.8203 11.6709 25.7554V25.7562ZM15.6881 31.1398C17.1769 31.1408 18.6441 31.496 19.9686 32.1761C20.0211 33.1117 20.1618 34.0403 20.3889 34.9495C20.924 37.055 21.8842 38.689 23.2502 39.8374H6.33027C6.50609 37.4749 7.56797 35.266 9.30324 33.6532C11.0385 32.0403 13.319 31.1426 15.6881 31.1398V31.1398ZM29.7939 34.6136C29.142 37.1781 27.7834 38.9163 25.7541 39.7847C23.7228 38.9163 22.3658 37.1781 21.7143 34.6136C21.4566 33.5634 21.3207 32.4871 21.3092 31.4058C23.3123 30.7554 24.8639 30.1445 25.7541 29.7741C26.6436 30.1441 28.1951 30.755 30.199 31.4058C30.1874 32.4871 30.0515 33.5634 29.7939 34.6136V34.6136Z" fill="#66429C"/>
</svg>
