<svg width="51" height="51" viewBox="0 0 51 51" fill="none" xmlns="http://www.w3.org/2000/svg">
<path d="M45.3365 29.1098C45.2416 28.8749 45.0785 28.6737 44.8682 28.5323C44.658 28.3909 44.4102 28.3157 44.1568 28.3164H43.5068C42.4051 28.3171 41.3218 28.5994 40.36 29.1367L35.6225 31.7855H34.2873C34.1265 30.924 33.6698 30.1458 32.996 29.5854C32.3223 29.0249 31.4738 28.7176 30.5975 28.7164H22.0588C21.9593 28.7164 21.8611 28.7382 21.7709 28.7801C21.6807 28.822 21.6007 28.883 21.5365 28.959L18.9611 32.0113C18.8976 31.9404 18.8198 31.8836 18.7328 31.8447C18.6459 31.8058 18.5517 31.7857 18.4564 31.7855H5.8002C5.6189 31.7855 5.44502 31.8576 5.31682 31.9858C5.18862 32.114 5.1166 32.2878 5.1166 32.4691C5.1166 32.6504 5.18862 32.8243 5.31682 32.9525C5.44502 33.0807 5.6189 33.1527 5.8002 33.1527H13.9486V42.6988H5.7998C5.6185 42.6988 5.44463 42.7709 5.31643 42.899C5.18823 43.0272 5.11621 43.2011 5.11621 43.3824C5.11621 43.5637 5.18823 43.7376 5.31643 43.8658C5.44463 43.994 5.6185 44.066 5.7998 44.066H18.4561C18.5458 44.0661 18.6348 44.0484 18.7177 44.0141C18.8007 43.9797 18.8761 43.9294 18.9395 43.8659C19.003 43.8024 19.0534 43.727 19.0877 43.6441C19.1221 43.5611 19.1397 43.4722 19.1397 43.3824V40.1926L32.7525 39.5676C32.7658 39.5676 32.7795 39.5676 32.7916 39.5648C34.9385 39.3364 36.9467 38.3944 38.4947 36.8895L45.0459 30.5012C45.2278 30.3248 45.3527 30.098 45.4045 29.85C45.4563 29.602 45.4326 29.3442 45.3365 29.1098ZM17.774 42.6988H15.3154V33.1527H17.774V42.6988ZM37.5396 35.9105C36.2172 37.1963 34.503 38.0031 32.6693 38.2027L19.1412 38.8242V33.9195L22.3775 30.0836H30.5975C31.1391 30.0845 31.6643 30.2695 32.0869 30.6082C32.5095 30.9469 32.8044 31.4192 32.9232 31.9477L26.1654 33.6063C25.9893 33.6495 25.8376 33.7609 25.7436 33.9159C25.6496 34.071 25.6211 34.2571 25.6643 34.4332C25.7075 34.6093 25.8189 34.7611 25.9739 34.8551C26.129 34.949 26.3151 34.9776 26.4912 34.9344L33.7467 33.1535H35.799C35.9158 33.1535 36.0307 33.1235 36.1326 33.0664L41.0256 30.332C41.7836 29.9089 42.6372 29.6865 43.5053 29.6859H43.9248L37.5396 35.9105Z" fill="#66429C"/>
<path d="M32.0525 26.1742C32.192 26.2203 32.3427 26.2203 32.4822 26.1742C42.4638 22.8628 41.2041 10.1078 41.1904 9.97924C41.1759 9.84592 41.1225 9.71982 41.0368 9.61662C40.9512 9.51341 40.8371 9.43766 40.7088 9.39877C37.9331 8.5688 35.2083 7.57753 32.5482 6.43002C32.4597 6.39006 32.3637 6.36938 32.2666 6.36938C32.1695 6.36938 32.0734 6.39006 31.9849 6.43002C29.325 7.57788 26.6001 8.56916 23.8244 9.39877C23.6961 9.43767 23.5821 9.51344 23.4965 9.61665C23.4109 9.71986 23.3576 9.84596 23.3431 9.97924C23.3303 10.1078 22.0709 22.8628 32.0525 26.1742ZM24.6728 10.5703C27.2499 9.77871 29.7844 8.85456 32.2662 7.80151C34.749 8.85459 37.2845 9.77874 39.8627 10.5703C39.972 12.7222 39.9849 22.073 32.2677 24.8042C24.551 22.0718 24.5635 12.721 24.6728 10.5703Z" fill="#66429C"/>
<path d="M31.1527 20.4239C31.3831 20.4233 31.6112 20.377 31.8237 20.2877C32.0362 20.1984 32.2288 20.0678 32.3905 19.9036L37.5718 14.6134C37.7311 14.4508 37.8568 14.2585 37.9417 14.0474C38.0266 13.8363 38.0691 13.6105 38.0667 13.3829C38.0644 13.1554 38.0172 12.9305 37.9279 12.7212C37.8387 12.5119 37.709 12.3222 37.5464 12.163C37.2137 11.8485 36.7742 11.6717 36.3163 11.6685C36.0887 11.6701 35.8636 11.7169 35.6542 11.8062C35.4447 11.8955 35.2552 12.0256 35.0964 12.1888L31.1558 16.2122L29.8116 14.8349C29.4905 14.506 29.0518 14.3182 28.5922 14.3127C28.1325 14.3072 27.6895 14.4846 27.3607 14.8058C27.0318 15.1269 26.844 15.5656 26.8385 16.0252C26.833 16.4849 27.0104 16.9279 27.3316 17.2567L29.914 19.9024C30.0758 20.0668 30.2686 20.1976 30.4812 20.2871C30.6938 20.3766 30.922 20.4231 31.1527 20.4239ZM28.3163 15.7845C28.3844 15.7176 28.476 15.6803 28.5714 15.6806H28.5761C28.6241 15.6811 28.6715 15.691 28.7156 15.71C28.7597 15.7289 28.7997 15.7563 28.8331 15.7907L30.6644 17.6685C30.728 17.7336 30.804 17.7854 30.8879 17.8208C30.9718 17.8561 31.062 17.8743 31.153 17.8743C31.244 17.8743 31.334 17.8562 31.4179 17.821C31.5017 17.7858 31.5777 17.7342 31.6413 17.6692L36.0734 13.145C36.1067 13.1097 36.1467 13.0815 36.1911 13.0618C36.2355 13.0422 36.2833 13.0316 36.3319 13.0307C36.3804 13.0298 36.4286 13.0385 36.4737 13.0564C36.5188 13.0744 36.5599 13.1011 36.5945 13.1351C36.6292 13.1691 36.6567 13.2096 36.6755 13.2543C36.6943 13.2991 36.704 13.3471 36.7041 13.3956C36.7041 13.4442 36.6944 13.4922 36.6757 13.537C36.6569 13.5818 36.6295 13.6223 36.5948 13.6563L31.4148 18.9466C31.3444 19.0139 31.2508 19.0514 31.1534 19.0514C31.0561 19.0514 30.9625 19.0139 30.8921 18.9466L28.3097 16.3009C28.2423 16.2314 28.2052 16.1381 28.2064 16.0413C28.2076 15.9445 28.2472 15.8522 28.3163 15.7845Z" fill="#66429C"/>
</svg>
