<svg width="51" height="51" viewBox="0 0 51 51" fill="none" xmlns="http://www.w3.org/2000/svg">
<path d="M36.2569 34.5912C36.969 34.1093 37.5551 33.4635 37.9658 32.7081C38.3765 31.9527 38.5998 31.1098 38.6171 30.2501C38.6343 29.3904 38.445 28.5392 38.065 27.7679C37.6849 26.9966 37.1253 26.3278 36.4331 25.8178C36.612 25.3068 36.6659 24.7604 36.5903 24.2243C36.5147 23.6883 36.3118 23.1781 35.9986 22.7365C35.6854 22.295 35.2709 21.9349 34.7899 21.6864C34.309 21.4379 33.7755 21.3082 33.2341 21.3082C32.6927 21.3082 32.1592 21.4379 31.6782 21.6864C31.1973 21.9349 30.7828 22.295 30.4696 22.7365C30.1563 23.1781 29.9534 23.6883 29.8778 24.2243C29.8022 24.7604 29.8562 25.3068 30.0351 25.8178C29.2313 26.403 28.6078 27.2021 28.2357 28.1241C27.8635 29.0462 27.7576 30.0541 27.93 31.0334C27.3675 30.5542 26.6856 30.2364 25.9569 30.1138V16.4717C26.9556 16.6343 27.864 17.1465 28.5202 17.9167C29.1763 18.687 29.5375 19.6653 29.5394 20.6771C29.5394 20.8584 29.6114 21.0323 29.7396 21.1605C29.8678 21.2887 30.0416 21.3607 30.2229 21.3607C30.4043 21.3607 30.5781 21.2887 30.7063 21.1605C30.8345 21.0323 30.9065 20.8584 30.9065 20.6771C30.9087 19.5568 31.3516 18.4823 32.1396 17.6859C32.9275 16.8895 33.9972 16.4352 35.1175 16.4211C36.2377 16.4071 37.3185 16.8344 38.1262 17.6108C38.9339 18.3871 39.4036 19.4502 39.4339 20.5701C39.4378 20.7514 39.5136 20.9237 39.6446 21.0491C39.7756 21.1745 39.951 21.2428 40.1323 21.2388C40.3136 21.2349 40.4859 21.1591 40.6114 21.0281C40.7368 20.8971 40.805 20.7217 40.8011 20.5404C40.7303 16.469 39.0633 12.5883 36.1591 9.73408C33.2548 6.87986 29.3457 5.28052 25.2737 5.28052C21.2017 5.28052 17.2926 6.87986 14.3884 9.73408C11.4841 12.5883 9.81713 16.469 9.74639 20.5404C9.74335 20.7211 9.812 20.8957 9.93732 21.0259C10.0626 21.1561 10.2344 21.2314 10.4151 21.2353C10.505 21.2392 10.5947 21.2249 10.6789 21.1933C10.7631 21.1617 10.8401 21.1135 10.9053 21.0515C10.9705 20.9895 11.0225 20.9151 11.0583 20.8326C11.0941 20.7501 11.1129 20.6612 11.1136 20.5713C11.1407 19.491 11.5769 18.4613 12.3341 17.6904C13.0912 16.9194 14.1129 16.4647 15.1925 16.4181C16.2721 16.3715 17.3291 16.7365 18.1499 17.4394C18.9706 18.1423 19.4939 19.1306 19.614 20.2045C19.614 20.2263 19.6167 20.2478 19.6194 20.2693C19.6349 20.4039 19.6423 20.5393 19.6417 20.6748V20.6822C19.6378 20.7236 19.6351 20.7646 19.6351 20.8072C19.6352 20.9885 19.7072 21.1623 19.8354 21.2905C19.9636 21.4186 20.1374 21.4907 20.3187 21.4908H20.3304C20.5116 21.4907 20.6855 21.4186 20.8136 21.2905C20.9418 21.1623 21.0139 20.9885 21.014 20.8072C21.014 20.7756 21.014 20.7451 21.0101 20.6783C21.0119 19.6665 21.373 18.6883 22.0291 17.918C22.6852 17.1478 23.5935 16.6356 24.5921 16.4728V30.1138C23.8628 30.2361 23.1804 30.5539 22.6175 31.0334C22.7784 30.0805 22.6798 29.1019 22.332 28.2003C21.9842 27.2987 21.4001 26.5074 20.641 25.9094C19.8818 25.3115 18.9756 24.929 18.0177 24.8021C17.0597 24.6752 16.0852 24.8086 15.1965 25.1883C14.3079 25.5679 13.5379 26.1799 12.9673 26.9599C12.3968 27.7399 12.0468 28.6591 11.9542 29.621C11.8615 30.5829 12.0295 31.552 12.4406 32.4265C12.8517 33.3011 13.4907 34.0488 14.2905 34.5912C12.0627 35.2469 10.1066 36.6053 8.7141 38.4639C7.32161 40.3224 6.56738 42.5814 6.56396 44.9037C6.56396 45.085 6.63599 45.2589 6.76418 45.3871C6.89238 45.5153 7.06626 45.5873 7.24756 45.5873H43.2999C43.4812 45.5873 43.6551 45.5153 43.7833 45.3871C43.9115 45.2589 43.9835 45.085 43.9835 44.9037C43.9801 42.5814 43.2258 40.3224 41.8334 38.4639C40.4409 36.6053 38.4848 35.2469 36.2569 34.5912ZM31.2112 24.7185C31.2084 24.4336 31.2658 24.1514 31.3797 23.8902C31.4936 23.629 31.6614 23.3949 31.8721 23.2031C32.0828 23.0113 32.3316 22.8662 32.6023 22.7773C32.873 22.6884 33.1594 22.6577 33.4428 22.6872C33.7261 22.7167 34.0001 22.8057 34.2466 22.9485C34.4932 23.0912 34.7068 23.2844 34.8735 23.5155C35.0402 23.7466 35.1562 24.0103 35.2138 24.2893C35.2715 24.5683 35.2695 24.8563 35.2081 25.1345C33.9403 24.6278 32.5263 24.6278 31.2585 25.1345C31.2285 24.9979 31.2126 24.8585 31.2112 24.7185ZM33.2331 26.1217C34.0277 26.1211 34.8045 26.3562 35.4655 26.7973C36.1264 27.2383 36.6417 27.8655 36.9461 28.5994C37.2505 29.3333 37.3305 30.1411 37.1758 30.9204C37.0211 31.6998 36.6388 32.4158 36.0771 32.9778C35.5155 33.5398 34.7997 33.9227 34.0205 34.0779C33.2412 34.2331 32.4334 34.1537 31.6993 33.8497C30.9652 33.5458 30.3377 33.031 29.8962 32.3703C29.4547 31.7097 29.219 30.933 29.219 30.1385C29.2203 29.0739 29.6436 28.0532 30.3962 27.3002C31.1488 26.5472 32.1693 26.1234 33.2339 26.1217H33.2331ZM30.2089 34.5892C29.9034 34.6787 29.6038 34.7845 29.3077 34.9017C29.354 34.6561 29.3778 34.4068 29.3788 34.1568C29.3788 34.0611 29.371 33.967 29.3644 33.8728C29.6208 34.1397 29.9038 34.3798 30.2089 34.5892ZM38.6792 16.2564C37.5091 15.3338 36.0217 14.9113 34.5414 15.081C33.061 15.2507 31.7078 15.9988 30.7769 17.1623C30.5108 14.083 29.7144 9.48221 27.3636 6.80057C29.9314 7.1984 32.3421 8.28915 34.336 9.95536C36.3299 11.6216 37.8315 13.8001 38.6792 16.2564ZM15.3753 15.0443C14.1029 15.039 12.8663 15.4659 11.8683 16.2553C12.7161 13.7992 14.2178 11.6209 16.2117 9.95487C18.2056 8.28887 20.6162 7.1983 23.1839 6.80057C20.8362 9.47869 20.0394 14.0717 19.7714 17.1498C19.2439 16.4911 18.5747 15.9598 17.8137 15.5953C17.0526 15.2307 16.2192 15.0424 15.3753 15.0443ZM21.1847 16.8084C21.521 13.4474 22.4901 8.5951 25.2737 6.75603C28.0569 8.5951 29.0265 13.447 29.3628 16.808C28.8373 16.251 28.2035 15.8072 27.5004 15.5038C26.7972 15.2005 26.0395 15.044 25.2737 15.044C24.5079 15.044 23.7502 15.2005 23.0471 15.5038C22.3439 15.8072 21.7102 16.251 21.1847 16.808V16.8084ZM25.2737 31.4193C25.8152 31.4193 26.3446 31.5799 26.7948 31.8807C27.2451 32.1816 27.596 32.6092 27.8032 33.1095C28.0104 33.6097 28.0647 34.1602 27.959 34.6913C27.8534 35.2224 27.5926 35.7103 27.2097 36.0932C26.8268 36.4761 26.339 36.7368 25.8079 36.8425C25.2768 36.9481 24.7263 36.8939 24.226 36.6867C23.7257 36.4795 23.2981 36.1285 22.9973 35.6783C22.6964 35.2281 22.5358 34.6987 22.5358 34.1572C22.5367 33.4313 22.8254 32.7354 23.3387 32.2221C23.8519 31.7089 24.5479 31.4201 25.2737 31.4193ZM21.2397 34.9017C20.9437 34.7845 20.644 34.6783 20.339 34.5892C20.6439 34.3798 20.9267 34.1399 21.1831 33.8732C21.1765 33.9674 21.1687 34.0615 21.1687 34.1572C21.1696 34.407 21.1934 34.6562 21.2397 34.9017ZM13.2964 30.1385C13.2963 29.3439 13.5318 28.5672 13.9732 27.9065C14.4146 27.2458 15.042 26.7309 15.776 26.4268C16.51 26.1227 17.3178 26.0431 18.0971 26.198C18.8763 26.353 19.5922 26.7355 20.154 27.2973C20.7159 27.8591 21.0985 28.5749 21.2535 29.3542C21.4086 30.1335 21.329 30.9412 21.025 31.6753C20.721 32.4093 20.2061 33.0368 19.5454 33.4782C18.8848 33.9196 18.1081 34.1552 17.3136 34.1552C16.2486 34.1541 15.2275 33.7306 14.4744 32.9775C13.7213 32.2245 13.2976 31.2035 13.2964 30.1385ZM17.3136 35.5224C19.0611 35.5213 20.774 36.0098 22.2581 36.9326C22.3887 37.0763 22.5293 37.2106 22.6788 37.3345C21.2123 37.8392 19.9235 38.7582 18.9685 39.9803C18.0136 41.2023 17.4334 42.6751 17.2983 44.2201H7.95576C8.13158 41.8576 9.19346 39.6487 10.9287 38.0358C12.664 36.423 14.9445 35.5253 17.3136 35.5224ZM18.6655 44.2217C18.8344 42.5866 19.6035 41.0722 20.824 39.9712C22.0446 38.8702 23.63 38.2608 25.2737 38.2608C26.9175 38.2608 28.5029 38.8702 29.7234 39.9712C30.944 41.0722 31.7131 42.5866 31.8819 44.2217H18.6655ZM33.2491 44.2217C33.1143 42.6763 32.5343 41.2033 31.5793 39.9809C30.6243 38.7585 29.3354 37.8393 27.8687 37.3345C28.0182 37.2106 28.1587 37.0763 28.2894 36.9326C29.6608 36.0814 31.2288 35.5985 32.8415 35.5306C34.4543 35.4627 36.0572 35.8122 37.4954 36.5451C38.9336 37.2781 40.1583 38.3697 41.0511 39.7145C41.9438 41.0593 42.4745 42.6117 42.5917 44.2217H33.2491Z" fill="#66429C"/>
</svg>
