<svg width="300" height="300" viewBox="0 0 300 300" fill="none" xmlns="http://www.w3.org/2000/svg">
<path d="M150 286.758C228.068 286.758 291.354 250.219 291.354 205.146C291.354 160.073 228.068 123.534 150 123.534C71.9323 123.534 8.646 160.073 8.646 205.146C8.646 250.219 71.9323 286.758 150 286.758Z" fill="#F0F0F0"/>
<path d="M120.75 266.988C147.67 266.988 169.494 254.389 169.494 238.848C169.494 223.307 147.67 210.708 120.75 210.708C93.8293 210.708 72.0059 223.307 72.0059 238.848C72.0059 254.389 93.8293 266.988 120.75 266.988Z" fill="#E0E0E0"/>
<path d="M259.368 203.64L253.65 200.34C253.65 200.34 252.252 188.1 253.182 178.62C254.49 165.3 263.094 149.268 273.354 153.036C283.614 156.804 268.65 170.364 265.32 181.662C261.99 192.96 259.368 203.64 259.368 203.64Z" fill="#9269AD"/>
<path opacity="0.15" d="M259.368 203.64L253.65 200.34C253.65 200.34 252.252 188.1 253.182 178.62C254.49 165.3 263.094 149.268 273.354 153.036C283.614 156.804 268.65 170.364 265.32 181.662C261.99 192.96 259.368 203.64 259.368 203.64Z" fill="black"/>
<path d="M256.362 202.254C256.453 202.249 256.539 202.209 256.601 202.141C256.663 202.074 256.695 201.985 256.692 201.894C255.69 172.296 270.426 157.404 270.57 157.26C270.635 157.195 270.672 157.106 270.672 157.014C270.672 156.922 270.635 156.833 270.57 156.768C270.538 156.736 270.5 156.71 270.459 156.693C270.417 156.675 270.372 156.667 270.327 156.667C270.282 156.667 270.237 156.675 270.196 156.693C270.154 156.71 270.116 156.736 270.084 156.768C269.928 156.912 254.982 172.02 255.996 201.918C255.998 201.964 256.008 202.01 256.028 202.052C256.047 202.094 256.075 202.131 256.109 202.163C256.143 202.194 256.183 202.218 256.226 202.234C256.27 202.249 256.316 202.256 256.362 202.254Z" fill="white"/>
<path d="M262.962 205.698L258.894 203.352C258.894 203.352 258.198 194.952 262.32 184.752C265.92 175.872 274.8 168.498 279.276 170.046C283.752 171.594 283.638 174.768 281.454 178.098C279.27 181.428 266.004 189.354 262.962 205.698Z" fill="#9269AD"/>
<path d="M260.814 204.81C260.906 204.808 260.994 204.771 261.058 204.706C261.123 204.641 261.161 204.554 261.162 204.462C261.078 185.742 278.652 173.094 278.832 172.968C278.87 172.942 278.902 172.909 278.926 172.871C278.95 172.833 278.967 172.79 278.974 172.745C278.981 172.7 278.979 172.654 278.968 172.61C278.957 172.566 278.938 172.524 278.91 172.488C278.857 172.414 278.777 172.364 278.687 172.348C278.598 172.332 278.505 172.352 278.43 172.404C278.25 172.53 260.388 185.394 260.466 204.462C260.466 204.554 260.503 204.643 260.568 204.708C260.633 204.773 260.722 204.81 260.814 204.81Z" fill="white"/>
<path d="M47.7963 196.29L53.0763 192.726C53.0763 192.726 55.3983 178.926 53.2383 166.752C50.2023 149.676 38.4003 144 34.2003 145.8C30.0003 147.6 29.1003 152.682 36.9423 162.426C41.5923 168.156 47.6343 180.39 47.7963 196.29Z" fill="#9269AD"/>
<g opacity="0.15">
<path opacity="0.15" d="M47.7963 196.29L53.0763 192.726C53.0763 192.726 55.3983 178.926 53.2383 166.752C50.2023 149.676 38.4003 144 34.2003 145.8C30.0003 147.6 29.1003 152.682 36.9423 162.426C41.5923 168.156 47.6343 180.39 47.7963 196.29Z" fill="black"/>
</g>
<path d="M49.6081 189.45H49.5541C49.5002 189.446 49.4476 189.432 49.3998 189.407C49.3519 189.381 49.3099 189.346 49.2765 189.304C49.2431 189.261 49.219 189.212 49.2058 189.16C49.1927 189.108 49.1908 189.053 49.2001 189C51.1081 172.926 44.3221 155.478 36.9361 148.536C36.8651 148.464 36.8252 148.367 36.8252 148.266C36.8252 148.165 36.8651 148.068 36.9361 147.996C36.9713 147.96 37.0133 147.931 37.0597 147.912C37.1061 147.892 37.1559 147.882 37.2061 147.882C37.2564 147.882 37.3062 147.892 37.3526 147.912C37.3989 147.931 37.4409 147.96 37.4761 147.996C45.0001 155.064 51.9121 172.8 49.9801 189.108C49.9688 189.2 49.9252 189.285 49.857 189.347C49.7889 189.41 49.7007 189.446 49.6081 189.45Z" fill="white"/>
<path d="M33.9722 205.614C33.1322 206.118 30.6842 204.3 30.0062 203.862C28.8442 203.103 27.8977 202.057 27.2582 200.826C26.5407 199.429 26.2745 197.844 26.4962 196.29C26.6191 195.478 26.7975 194.677 27.0302 193.89C27.2402 193.104 27.4502 192.318 27.6302 191.526C27.8963 190.755 27.9985 189.938 27.9302 189.126C27.6962 187.524 26.2502 186.426 24.9302 185.484C23.4782 184.434 21.9302 183.048 21.9302 181.116C22.0042 179.598 22.5852 178.149 23.5802 177C24.4802 175.8 25.5602 174.756 26.3702 173.502C27.0036 172.633 27.3268 171.576 27.2882 170.502C27.1839 169.839 26.9472 169.205 26.5922 168.636C25.8842 167.388 24.9662 166.236 24.4682 164.91C23.9702 163.584 24.0062 161.88 25.0682 160.89C25.9142 160.08 27.2042 159.948 28.3742 160.002C29.4767 160.112 30.5417 160.462 31.4942 161.028C34.5962 162.678 36.4202 166.278 39.7022 167.532C40.9682 168.012 42.3482 168.096 43.6622 168.42C44.9762 168.744 46.3322 169.386 46.9622 170.58C48.2042 172.95 46.0382 175.938 46.9262 178.452C47.7182 180.684 49.9262 181.5 51.1742 183.498C51.6807 184.385 51.8909 185.411 51.7742 186.426C51.7038 188.139 51.3194 189.825 50.6402 191.4C49.859 193.033 48.9773 194.616 48.0002 196.14C48.0002 196.14 34.0982 205.536 33.9722 205.614Z" fill="#9269AD"/>
<path d="M42.0842 200.64C42.0338 200.639 41.984 200.629 41.9377 200.609C41.8914 200.588 41.8496 200.56 41.8145 200.523C41.7794 200.487 41.7517 200.444 41.7332 200.397C41.7146 200.351 41.7055 200.3 41.7062 200.25C42.0422 185.058 34.5662 168.45 29.2742 163.65C29.199 163.582 29.1537 163.487 29.1481 163.386C29.1424 163.285 29.177 163.186 29.2442 163.11C29.2794 163.074 29.3214 163.046 29.3678 163.026C29.4142 163.007 29.464 162.997 29.5142 162.997C29.5645 162.997 29.6143 163.007 29.6607 163.026C29.707 163.046 29.749 163.074 29.7842 163.11C35.1842 167.97 42.8102 184.866 42.4682 200.268C42.4675 200.318 42.4569 200.367 42.4372 200.412C42.4175 200.458 42.389 200.499 42.3533 200.534C42.3176 200.568 42.2755 200.595 42.2294 200.614C42.1832 200.632 42.1339 200.641 42.0842 200.64Z" fill="white"/>
<path d="M39.2822 182.13C39.2467 182.139 39.2096 182.139 39.1742 182.13C34.2662 180.714 28.1822 180.57 28.1222 180.564C28.072 180.563 28.0225 180.553 27.9766 180.532C27.9306 180.512 27.8891 180.483 27.8545 180.447C27.8199 180.411 27.7928 180.368 27.7749 180.321C27.757 180.274 27.7486 180.224 27.7502 180.174C27.7493 180.123 27.7588 180.073 27.7783 180.026C27.7979 179.98 27.8269 179.937 27.8635 179.902C27.9002 179.867 27.9437 179.84 27.9913 179.823C28.0389 179.806 28.0896 179.799 28.1402 179.802C28.2002 179.802 34.3802 179.952 39.3842 181.392C39.4809 181.421 39.5622 181.487 39.6105 181.576C39.6588 181.665 39.6702 181.769 39.6422 181.866C39.6188 181.943 39.5711 182.01 39.5062 182.058C39.4413 182.106 39.3627 182.131 39.2822 182.13Z" fill="white"/>
<path d="M180.696 185.844L178.422 184.53C178.043 184.284 177.727 183.952 177.501 183.561C177.275 183.17 177.144 182.731 177.12 182.28V87.7681C177.144 87.3178 177.275 86.8796 177.5 86.4888C177.725 86.098 178.039 85.7655 178.416 85.5181L241.626 49.0261C242.028 48.8221 242.473 48.7158 242.925 48.7158C243.376 48.7158 243.821 48.8221 244.224 49.0261L246.498 50.3401C246.876 50.5861 247.192 50.9182 247.418 51.3091C247.644 51.7001 247.775 52.1391 247.8 52.5901V147.102C247.775 147.552 247.645 147.991 247.42 148.381C247.194 148.772 246.881 149.105 246.504 149.352L183.294 185.85C182.891 186.055 182.446 186.161 181.994 186.16C181.542 186.159 181.097 186.05 180.696 185.844Z" fill="#455A64"/>
<path d="M247.8 52.3801C247.71 51.7081 247.164 51.4621 246.51 51.8401L183.294 88.3381C182.912 88.578 182.596 88.9102 182.376 89.3041L177.498 86.4901C177.716 86.0932 178.032 85.7586 178.416 85.5181L241.626 49.0261C242.029 48.8221 242.474 48.7158 242.925 48.7158C243.376 48.7158 243.821 48.8221 244.224 49.0261L246.498 50.3401C246.849 50.5662 247.147 50.8656 247.372 51.2177C247.597 51.5698 247.743 51.9664 247.8 52.3801Z" fill="#455A64"/>
<path d="M183.072 185.952C182.688 186.108 182.275 186.179 181.861 186.162C181.447 186.144 181.041 186.038 180.672 185.85L178.392 184.53C178.015 184.283 177.701 183.95 177.476 183.56C177.251 183.169 177.12 182.731 177.096 182.28V87.7682C177.111 87.317 177.241 86.8772 177.474 86.4902L182.352 89.3042C182.115 89.6917 181.982 90.1342 181.968 90.5882V185.1C181.992 185.844 182.46 186.186 183.072 185.952Z" fill="#263238"/>
<path d="M181.992 90.6003V185.1C181.992 185.928 182.592 186.264 183.294 185.85L246.504 149.352C246.881 149.105 247.195 148.772 247.42 148.382C247.645 147.991 247.775 147.553 247.8 147.102V52.5903C247.8 51.7623 247.2 51.4263 246.504 51.8403L183.294 88.3383C182.913 88.5855 182.597 88.9194 182.37 89.3126C182.144 89.7059 182.014 90.1472 181.992 90.6003Z" fill="#37474F"/>
<path d="M167.232 126.6C166.416 126.114 162.63 123.96 162.432 123.846C162.278 123.754 162.146 123.628 162.047 123.479C161.947 123.329 161.883 123.159 161.858 122.981C161.833 122.803 161.849 122.622 161.904 122.45C161.958 122.279 162.051 122.123 162.174 121.992L177.12 105.96L181.992 108.756L167.052 124.8C166.934 124.925 166.845 125.074 166.79 125.236C166.735 125.398 166.715 125.57 166.732 125.741C166.75 125.911 166.803 126.076 166.889 126.225C166.975 126.373 167.092 126.501 167.232 126.6Z" fill="#455A64"/>
<path d="M181.992 108.774L167.052 124.8C166.886 124.977 166.778 125.2 166.741 125.44C166.705 125.68 166.742 125.926 166.848 126.144C166.954 126.362 167.123 126.544 167.335 126.664C167.546 126.783 167.788 126.837 168.03 126.816L181.992 125.664V108.774Z" fill="#37474F"/>
<path d="M214.896 79.9199C222.264 75.6659 228.234 79.1159 228.234 87.6239C228.234 96.1319 222.264 106.47 214.896 110.724C207.528 114.978 201.558 111.528 201.558 103.026C201.558 94.5239 207.528 84.1739 214.896 79.9199Z" fill="#9269AD"/>
<path d="M214.8 86.6161C217.2 85.2361 219.126 86.3521 219.126 89.1121C219.044 90.6124 218.61 92.0723 217.858 93.3733C217.106 94.6743 216.059 95.7798 214.8 96.6001C212.4 97.9801 210.468 96.864 210.468 94.1041C210.55 92.6032 210.985 91.143 211.738 89.8419C212.491 88.5408 213.54 87.4356 214.8 86.6161Z" fill="white"/>
<path d="M223.332 101.328C223.332 96.7983 220.146 94.9563 216.222 97.2243L213.768 98.6403C209.844 100.908 206.658 106.44 206.658 110.958V112.2C207.399 112.437 208.172 112.557 208.95 112.554C211.055 112.483 213.104 111.862 214.896 110.754C218.306 108.653 221.192 105.801 223.332 102.414V101.328Z" fill="white"/>
<path d="M206.448 152.838L223.344 143.082C224.064 142.668 224.646 143.004 224.646 143.832V149.274C224.622 149.725 224.491 150.164 224.265 150.555C224.038 150.946 223.723 151.278 223.344 151.524L206.448 161.28C205.728 161.694 205.146 161.358 205.146 160.53V155.088C205.17 154.637 205.301 154.198 205.527 153.807C205.754 153.416 206.069 153.084 206.448 152.838Z" fill="#9269AD"/>
<path d="M198.174 140.682L231.6 121.374C232.458 120.876 233.16 121.278 233.16 122.274V124.296C233.131 124.837 232.974 125.364 232.703 125.833C232.432 126.302 232.054 126.701 231.6 126.996L198.156 146.304C197.298 146.802 196.602 146.4 196.602 145.404V143.4C196.629 142.855 196.786 142.324 197.06 141.851C197.333 141.379 197.715 140.978 198.174 140.682Z" fill="#FAFAFA"/>
<path d="M202.086 126.708C202.542 126.444 202.896 126.402 203.148 126.588C203.4 126.774 203.526 127.188 203.526 127.824C203.539 128.405 203.409 128.98 203.148 129.498C202.912 129.967 202.543 130.356 202.086 130.614L201.186 131.136V133.074C201.184 133.141 201.168 133.207 201.138 133.266C201.117 133.321 201.079 133.367 201.03 133.398L200.574 133.662C200.558 133.674 200.539 133.68 200.52 133.68C200.5 133.68 200.482 133.674 200.466 133.662C200.434 133.622 200.419 133.57 200.424 133.518V127.908C200.423 127.842 200.438 127.776 200.466 127.716C200.489 127.663 200.526 127.617 200.574 127.584L202.086 126.708ZM201.186 130.05L202.056 129.546C202.266 129.428 202.444 129.259 202.572 129.054C202.708 128.813 202.775 128.539 202.764 128.262C202.764 127.938 202.698 127.752 202.572 127.698C202.483 127.677 202.39 127.676 202.301 127.695C202.211 127.715 202.128 127.755 202.056 127.812L201.186 128.316V130.05Z" fill="#FAFAFA"/>
<path d="M206.04 124.422C206.1 124.386 206.148 124.386 206.178 124.422C206.216 124.476 206.243 124.537 206.256 124.602L207.642 129.294C207.642 129.294 207.642 129.33 207.642 129.348C207.641 129.415 207.625 129.481 207.594 129.54C207.573 129.594 207.535 129.641 207.486 129.672L207.078 129.906C207.006 129.948 206.952 129.954 206.922 129.906C206.893 129.876 206.872 129.839 206.862 129.798L206.616 128.976L204.816 130.008L204.576 131.112C204.559 131.172 204.537 131.23 204.51 131.286C204.48 131.359 204.425 131.419 204.354 131.454L203.946 131.688C203.931 131.701 203.912 131.708 203.892 131.708C203.872 131.708 203.853 131.701 203.838 131.688C203.807 131.649 203.791 131.6 203.796 131.55C203.793 131.528 203.793 131.506 203.796 131.484L205.176 125.196C205.193 125.104 205.219 125.013 205.254 124.926C205.283 124.863 205.332 124.811 205.392 124.776L206.04 124.422ZM206.352 128.058L205.752 125.94L205.152 128.772L206.352 128.058Z" fill="#FAFAFA"/>
<path d="M209.742 122.196C209.943 122.069 210.171 121.993 210.408 121.974C210.575 121.959 210.743 121.997 210.888 122.082C211.02 122.167 211.122 122.291 211.182 122.436C211.248 122.584 211.284 122.742 211.29 122.904C211.294 122.971 211.28 123.037 211.248 123.096C211.227 123.15 211.189 123.196 211.14 123.228L210.744 123.456C210.678 123.492 210.63 123.498 210.6 123.456C210.563 123.431 210.532 123.399 210.51 123.36C210.486 123.306 210.451 123.257 210.408 123.217C210.365 123.177 210.314 123.146 210.258 123.126C210.075 123.1 209.89 123.147 209.742 123.258C209.645 123.321 209.553 123.391 209.466 123.468C209.377 123.55 209.298 123.643 209.232 123.744C209.168 123.842 209.116 123.946 209.076 124.056C209.041 124.16 209.022 124.27 209.022 124.38C209.015 124.481 209.034 124.582 209.076 124.674C209.095 124.706 209.121 124.733 209.152 124.753C209.183 124.773 209.219 124.785 209.256 124.788C209.367 124.807 209.481 124.807 209.592 124.788L210.114 124.674C210.309 124.616 210.511 124.592 210.714 124.602C210.859 124.602 211 124.648 211.116 124.734C211.226 124.826 211.305 124.95 211.344 125.088C211.403 125.282 211.429 125.485 211.422 125.688C211.422 125.956 211.383 126.223 211.308 126.48C211.235 126.745 211.128 126.999 210.99 127.236C210.845 127.479 210.672 127.705 210.474 127.908C210.272 128.117 210.042 128.297 209.79 128.442C209.605 128.554 209.402 128.634 209.19 128.676C209.017 128.709 208.839 128.695 208.674 128.634C208.524 128.564 208.4 128.449 208.32 128.304C208.222 128.119 208.169 127.913 208.164 127.704C208.163 127.636 208.178 127.568 208.206 127.506C208.233 127.455 208.272 127.411 208.32 127.38L208.716 127.152C208.776 127.116 208.824 127.104 208.86 127.122C208.896 127.14 208.92 127.17 208.944 127.224C208.969 127.286 209.001 127.344 209.04 127.398C209.077 127.45 209.13 127.49 209.19 127.512C209.269 127.53 209.351 127.53 209.43 127.512C209.557 127.482 209.679 127.431 209.79 127.362C209.906 127.296 210.017 127.219 210.12 127.134C210.322 126.974 210.482 126.769 210.588 126.534C210.636 126.414 210.661 126.285 210.66 126.156C210.666 126.109 210.662 126.061 210.648 126.016C210.635 125.971 210.612 125.928 210.582 125.892C210.55 125.863 210.511 125.842 210.47 125.83C210.429 125.817 210.385 125.814 210.342 125.82C210.206 125.826 210.071 125.848 209.94 125.886C209.784 125.922 209.604 125.964 209.394 126C209.233 126.04 209.067 126.052 208.902 126.036C208.772 126.028 208.649 125.975 208.554 125.886C208.45 125.784 208.377 125.655 208.344 125.514C208.296 125.305 208.274 125.092 208.278 124.878C208.278 124.614 208.316 124.351 208.392 124.098C208.464 123.838 208.569 123.588 208.704 123.354C208.834 123.122 208.991 122.906 209.172 122.712C209.337 122.514 209.529 122.34 209.742 122.196Z" fill="#FAFAFA"/>
<path d="M213.684 119.928C213.883 119.798 214.112 119.719 214.35 119.7C214.517 119.686 214.685 119.724 214.83 119.808C214.958 119.896 215.058 120.019 215.118 120.162C215.184 120.31 215.22 120.469 215.226 120.63C215.233 120.697 215.218 120.764 215.184 120.822C215.163 120.877 215.125 120.923 215.076 120.954L214.68 121.182C214.62 121.218 214.572 121.23 214.536 121.182C214.498 121.158 214.468 121.122 214.452 121.08C214.397 120.975 214.305 120.894 214.194 120.852C214.105 120.839 214.013 120.844 213.926 120.867C213.838 120.889 213.756 120.929 213.684 120.984C213.584 121.045 213.489 121.116 213.402 121.194C213.315 121.276 213.238 121.369 213.174 121.47C213.108 121.567 213.055 121.672 213.018 121.782C212.981 121.886 212.96 121.996 212.958 122.106C212.951 122.207 212.97 122.308 213.012 122.4C213.031 122.432 213.057 122.46 213.088 122.48C213.119 122.499 213.155 122.511 213.192 122.514C213.303 122.534 213.417 122.534 213.528 122.514L214.05 122.4C214.245 122.346 214.448 122.322 214.65 122.328C214.795 122.327 214.936 122.373 215.052 122.46C215.162 122.554 215.243 122.677 215.286 122.814C215.339 123.01 215.363 123.212 215.358 123.414C215.358 123.682 215.319 123.949 215.244 124.206C215.171 124.471 215.064 124.725 214.926 124.962C214.782 125.208 214.608 125.435 214.41 125.64C214.207 125.844 213.98 126.022 213.732 126.168C213.547 126.28 213.344 126.359 213.132 126.402C212.961 126.435 212.785 126.42 212.622 126.36C212.469 126.293 212.343 126.177 212.262 126.03C212.163 125.846 212.112 125.639 212.112 125.43C212.105 125.363 212.12 125.296 212.154 125.238C212.175 125.184 212.213 125.138 212.262 125.106L212.658 124.878C212.718 124.842 212.772 124.83 212.802 124.848C212.823 124.858 212.841 124.872 212.856 124.889C212.87 124.907 212.881 124.928 212.886 124.95C212.913 125.011 212.945 125.069 212.982 125.124C213.022 125.177 213.076 125.217 213.138 125.238C213.217 125.256 213.299 125.256 213.378 125.238C213.505 125.208 213.627 125.157 213.738 125.088C213.852 125.02 213.96 124.944 214.062 124.86C214.167 124.778 214.26 124.681 214.338 124.572C214.416 124.469 214.48 124.356 214.53 124.236C214.578 124.116 214.603 123.988 214.602 123.858C214.608 123.811 214.604 123.764 214.59 123.718C214.577 123.673 214.554 123.631 214.524 123.594C214.492 123.566 214.453 123.544 214.412 123.532C214.371 123.52 214.327 123.516 214.284 123.522C214.15 123.53 214.017 123.553 213.888 123.588C213.732 123.624 213.546 123.666 213.342 123.702C213.179 123.742 213.011 123.755 212.844 123.738C212.714 123.731 212.59 123.678 212.496 123.588C212.394 123.486 212.323 123.357 212.292 123.216C212.239 123.011 212.215 122.799 212.22 122.586C212.222 122.32 212.261 122.056 212.334 121.8C212.408 121.541 212.513 121.291 212.646 121.056C212.776 120.823 212.935 120.607 213.12 120.414C213.282 120.224 213.472 120.06 213.684 119.928Z" fill="#FAFAFA"/>
<path d="M218.058 120.678L217.572 123.552C217.558 123.639 217.533 123.723 217.5 123.804C217.477 123.869 217.432 123.924 217.374 123.96L216.918 124.224C216.858 124.26 216.816 124.26 216.786 124.224C216.746 124.175 216.723 124.114 216.72 124.05L216 118.98C216 118.98 216 118.932 216 118.914C216.002 118.848 216.018 118.782 216.048 118.722C216.071 118.669 216.108 118.623 216.156 118.59L216.57 118.35C216.605 118.336 216.643 118.336 216.678 118.35C216.714 118.35 216.738 118.398 216.75 118.494L217.224 121.908L217.638 119.346C217.649 119.282 217.667 119.22 217.692 119.16C217.716 119.084 217.767 119.02 217.836 118.98L218.298 118.71C218.364 118.674 218.412 118.68 218.442 118.71C218.468 118.748 218.486 118.791 218.496 118.836L218.916 120.918L219.39 116.958C219.396 116.88 219.418 116.805 219.456 116.736C219.484 116.691 219.521 116.653 219.564 116.622L219.978 116.382C219.994 116.371 220.013 116.364 220.032 116.364C220.051 116.364 220.07 116.371 220.086 116.382C220.103 116.402 220.116 116.425 220.124 116.449C220.133 116.474 220.136 116.5 220.134 116.526C220.136 116.55 220.136 116.574 220.134 116.598L219.414 122.496C219.402 122.583 219.38 122.667 219.348 122.748C219.321 122.812 219.275 122.867 219.216 122.904L218.754 123.168C218.7 123.198 218.658 123.198 218.628 123.168C218.598 123.113 218.573 123.055 218.556 122.994L218.058 120.678Z" fill="#FAFAFA"/>
<path d="M220.866 118.134C220.879 117.802 220.919 117.471 220.986 117.144C221.055 116.826 221.159 116.516 221.298 116.22C221.43 115.933 221.6 115.665 221.802 115.422C222.007 115.182 222.253 114.979 222.528 114.822C222.739 114.679 222.987 114.598 223.242 114.588C223.433 114.59 223.615 114.666 223.752 114.798C223.897 114.962 224.002 115.157 224.058 115.368C224.135 115.644 224.178 115.928 224.184 116.214C224.184 116.322 224.184 116.442 224.184 116.574C224.184 116.706 224.184 116.844 224.184 116.988C224.184 117.132 224.184 117.27 224.184 117.402C224.184 117.534 224.184 117.66 224.184 117.774C224.171 118.105 224.131 118.434 224.064 118.758C223.995 119.076 223.892 119.386 223.758 119.682C223.622 119.968 223.45 120.236 223.248 120.48C223.043 120.719 222.8 120.922 222.528 121.08C222.312 121.223 222.061 121.304 221.802 121.314C221.709 121.316 221.616 121.299 221.529 121.264C221.442 121.229 221.364 121.177 221.298 121.11C221.141 120.942 221.034 120.735 220.986 120.51C220.915 120.234 220.874 119.95 220.866 119.664C220.866 119.556 220.866 119.436 220.866 119.304C220.866 119.172 220.866 119.034 220.866 118.89C220.866 118.746 220.866 118.614 220.866 118.476C220.866 118.338 220.86 118.242 220.866 118.134ZM223.422 116.7C223.435 116.554 223.419 116.406 223.373 116.265C223.328 116.125 223.255 115.996 223.158 115.884C223.002 115.746 222.786 115.752 222.528 115.884C222.248 116.049 222.026 116.296 221.892 116.592C221.722 116.942 221.632 117.325 221.628 117.714C221.628 117.936 221.628 118.182 221.628 118.452C221.628 118.722 221.628 118.962 221.628 119.178C221.615 119.325 221.631 119.473 221.676 119.613C221.722 119.754 221.795 119.883 221.892 119.994C222.048 120.126 222.264 120.114 222.528 119.964C222.803 119.799 223.023 119.554 223.158 119.262C223.328 118.915 223.418 118.533 223.422 118.146C223.422 117.918 223.422 117.672 223.422 117.402C223.422 117.132 223.428 116.916 223.422 116.7Z" fill="#FAFAFA"/>
<path d="M226.8 112.428C227.274 112.158 227.628 112.116 227.874 112.314C228.02 112.475 228.128 112.666 228.191 112.873C228.255 113.081 228.271 113.3 228.24 113.514C228.245 113.922 228.182 114.327 228.054 114.714C227.932 115.075 227.743 115.409 227.496 115.698L228.276 117.396C228.278 117.424 228.278 117.452 228.276 117.48C228.276 117.534 228.264 117.588 228.24 117.636C228.223 117.68 228.194 117.717 228.156 117.744L227.676 118.02C227.598 118.062 227.544 118.068 227.508 118.02C227.476 117.989 227.45 117.952 227.43 117.912L226.692 116.31L225.942 116.742V118.77C225.942 118.837 225.928 118.902 225.9 118.962C225.875 119.014 225.838 119.06 225.792 119.094L225.336 119.358C225.321 119.371 225.302 119.378 225.282 119.378C225.262 119.378 225.243 119.371 225.228 119.358C225.211 119.34 225.197 119.318 225.189 119.294C225.181 119.271 225.178 119.245 225.18 119.22V113.61C225.182 113.544 225.198 113.478 225.228 113.418C225.249 113.364 225.287 113.318 225.336 113.286L226.8 112.428ZM225.954 115.656L226.8 115.2C227.007 115.085 227.183 114.923 227.316 114.726C227.455 114.495 227.522 114.228 227.508 113.958C227.508 113.634 227.442 113.454 227.316 113.418C227.133 113.393 226.948 113.441 226.8 113.55L225.984 114.018L225.954 115.656Z" fill="#FAFAFA"/>
<path d="M230.82 110.118C231.038 109.976 231.287 109.89 231.546 109.866C231.734 109.859 231.917 109.926 232.056 110.052C232.215 110.219 232.325 110.427 232.374 110.652C232.455 110.95 232.499 111.256 232.506 111.564C232.506 111.984 232.506 112.416 232.506 112.854C232.494 113.211 232.449 113.567 232.374 113.916C232.305 114.241 232.201 114.557 232.062 114.858C231.928 115.135 231.758 115.393 231.558 115.626C231.357 115.865 231.118 116.068 230.85 116.226L229.428 117C229.413 117.013 229.394 117.02 229.374 117.02C229.354 117.02 229.335 117.013 229.32 117C229.302 116.982 229.289 116.96 229.281 116.936C229.272 116.913 229.269 116.887 229.272 116.862V111.252C229.274 111.185 229.29 111.12 229.32 111.06C229.341 111.006 229.379 110.96 229.428 110.928L230.82 110.118ZM231.744 111.984C231.741 111.822 231.717 111.66 231.672 111.504C231.644 111.386 231.584 111.278 231.498 111.192C231.46 111.155 231.415 111.125 231.366 111.105C231.316 111.086 231.263 111.077 231.21 111.078C231.06 111.088 230.915 111.138 230.79 111.222L230.034 111.654V115.566L230.82 115.116C230.972 115.028 231.108 114.914 231.222 114.78C231.334 114.649 231.428 114.503 231.504 114.348C231.579 114.183 231.635 114.01 231.672 113.832C231.714 113.647 231.738 113.458 231.744 113.268C231.762 112.83 231.762 112.404 231.744 111.984Z" fill="#FAFAFA"/>
<path d="M148.428 23.0342C149.464 23.2646 150.461 23.6403 151.392 24.1502C152.283 24.6291 153.081 25.263 153.75 26.0222C154.39 26.7524 154.864 27.6119 155.142 28.5422C155.425 29.5379 155.446 30.59 155.202 31.5962C155.041 32.3939 154.725 33.1522 154.272 33.8282C153.858 34.4062 153.365 34.9232 152.808 35.3642C152.26 35.7893 151.676 36.1648 151.062 36.4862L149.334 37.4042C148.813 37.6757 148.319 37.995 147.858 38.3582C147.44 38.6783 147.121 39.1084 146.934 39.6002C146.842 39.8248 146.691 40.02 146.496 40.1642C146.404 40.2359 146.296 40.2856 146.182 40.3095C146.067 40.3334 145.949 40.3309 145.836 40.3022L143.292 39.7382C143.169 39.7125 143.053 39.6626 142.95 39.5916C142.847 39.5205 142.759 39.4296 142.692 39.3242C142.62 39.2262 142.572 39.1127 142.552 38.9928C142.533 38.8729 142.541 38.7501 142.578 38.6342C142.783 37.8463 143.144 37.1077 143.64 36.4622C144.092 35.8912 144.617 35.381 145.2 34.9442C145.768 34.5283 146.37 34.161 147 33.8462C147.6 33.5402 148.2 33.2462 148.722 32.9522C149.207 32.6912 149.664 32.3794 150.084 32.0222C150.452 31.7138 150.708 31.2916 150.81 30.8222C150.905 30.4145 150.901 29.9898 150.796 29.5844C150.692 29.179 150.49 28.8049 150.21 28.4942C149.508 27.7282 148.57 27.2191 147.546 27.0482C145.65 26.6282 144.05 27.2662 142.746 28.9622C142.62 29.1473 142.461 29.3079 142.278 29.4362C142.071 29.5388 141.832 29.5561 141.612 29.4842L138.906 28.8842C138.713 28.8469 138.542 28.7347 138.432 28.5722C138.373 28.4853 138.333 28.3868 138.316 28.2833C138.298 28.1797 138.303 28.0736 138.33 27.9722C138.56 27.1384 138.988 26.3727 139.578 25.7402C140.243 25.0066 141.033 24.3972 141.912 23.9402C142.872 23.4376 143.908 23.0932 144.978 22.9202C146.124 22.7337 147.296 22.7724 148.428 23.0342ZM145.554 42.3422C145.792 42.3981 145.999 42.5448 146.13 42.7512C146.261 42.9575 146.306 43.2069 146.256 43.4462L145.608 46.3862C145.586 46.5093 145.538 46.6263 145.468 46.7297C145.398 46.8331 145.306 46.9205 145.2 46.9862C145.099 47.0554 144.986 47.1029 144.866 47.1257C144.746 47.1484 144.623 47.1458 144.504 47.1182L141.6 46.4522C141.476 46.4314 141.359 46.3841 141.255 46.3137C141.152 46.2433 141.065 46.1514 141 46.0442C140.933 45.9428 140.887 45.8288 140.865 45.7092C140.843 45.5895 140.846 45.4667 140.874 45.3482L141.528 42.4082C141.584 42.1698 141.73 41.9626 141.936 41.8305C142.142 41.6983 142.392 41.6516 142.632 41.7002L145.554 42.3422Z" fill="#9269AD"/>
<path d="M151.632 51.18C152.355 51.0641 153.09 51.0499 153.816 51.138C154.51 51.2205 155.184 51.4235 155.808 51.738C156.402 52.0463 156.926 52.4755 157.344 52.998C157.72 53.5094 157.985 54.0939 158.122 54.714C158.258 55.3341 158.263 55.9759 158.136 56.598C158.022 57.0763 157.838 57.5352 157.59 57.96C157.351 58.3732 157.074 58.7629 156.762 59.124C156.456 59.484 156.162 59.826 155.892 60.156C155.628 60.4634 155.393 60.7949 155.19 61.146C155 61.4537 154.904 61.8104 154.914 62.172C154.909 62.341 154.861 62.506 154.776 62.652C154.733 62.7193 154.675 62.7765 154.608 62.82C154.541 62.8634 154.465 62.8921 154.386 62.904L152.586 63.192C152.502 63.2072 152.416 63.2055 152.332 63.187C152.249 63.1685 152.17 63.1334 152.1 63.084C152.029 63.0394 151.97 62.9786 151.927 62.9067C151.884 62.8347 151.859 62.7535 151.854 62.67C151.779 62.1116 151.819 61.5438 151.974 61.002C152.115 60.5223 152.317 60.0626 152.574 59.634C152.826 59.2226 153.116 58.835 153.438 58.476C153.756 58.116 154.038 57.78 154.314 57.456C154.56 57.1666 154.774 56.8507 154.95 56.514C155.106 56.2242 155.163 55.8912 155.112 55.566C155.067 55.2797 154.953 55.0086 154.781 54.7757C154.609 54.5427 154.383 54.3548 154.122 54.228C153.477 53.9164 152.747 53.8277 152.046 53.976C151.412 54.0688 150.821 54.3556 150.356 54.7971C149.891 55.2386 149.574 55.8131 149.448 56.442C149.413 56.5932 149.352 56.7373 149.268 56.868C149.161 56.9819 149.016 57.0524 148.86 57.066L146.964 57.372C146.831 57.3975 146.693 57.3695 146.58 57.294C146.522 57.2543 146.474 57.2027 146.437 57.1427C146.401 57.0827 146.378 57.0156 146.37 56.946C146.314 56.3506 146.406 55.7505 146.64 55.2C146.877 54.5593 147.227 53.9661 147.672 53.448C148.16 52.8807 148.735 52.3946 149.376 52.008C150.067 51.5887 150.834 51.3075 151.632 51.18ZM154.728 64.29C154.811 64.2769 154.895 64.2802 154.976 64.2998C155.058 64.3193 155.134 64.3547 155.202 64.404C155.273 64.4505 155.333 64.5114 155.378 64.5827C155.424 64.6541 155.454 64.7343 155.466 64.818L155.802 66.876C155.828 67.0429 155.787 67.2134 155.688 67.3504C155.59 67.4874 155.441 67.58 155.274 67.608L153.264 67.938C153.097 67.9638 152.927 67.9228 152.79 67.824C152.72 67.7769 152.662 67.7157 152.617 67.6444C152.573 67.5731 152.544 67.4932 152.532 67.41L152.196 65.352C152.181 65.2694 152.183 65.1845 152.203 65.1029C152.222 65.0212 152.259 64.9446 152.31 64.878C152.357 64.8084 152.418 64.7494 152.49 64.705C152.561 64.6606 152.641 64.6316 152.724 64.62L154.728 64.29Z" fill="#9269AD"/>
<g opacity="0.2">
<path opacity="0.2" d="M151.632 51.18C152.355 51.0641 153.09 51.0499 153.816 51.138C154.51 51.2205 155.184 51.4235 155.808 51.738C156.402 52.0463 156.926 52.4755 157.344 52.998C157.72 53.5094 157.985 54.0939 158.122 54.714C158.258 55.3341 158.263 55.9759 158.136 56.598C158.022 57.0763 157.838 57.5352 157.59 57.96C157.351 58.3732 157.074 58.7629 156.762 59.124C156.456 59.484 156.162 59.826 155.892 60.156C155.628 60.4634 155.393 60.7949 155.19 61.146C155 61.4537 154.904 61.8104 154.914 62.172C154.909 62.341 154.861 62.506 154.776 62.652C154.733 62.7193 154.675 62.7765 154.608 62.82C154.541 62.8634 154.465 62.8921 154.386 62.904L152.586 63.192C152.502 63.2072 152.416 63.2055 152.332 63.187C152.249 63.1685 152.17 63.1334 152.1 63.084C152.029 63.0394 151.97 62.9786 151.927 62.9067C151.884 62.8347 151.859 62.7535 151.854 62.67C151.779 62.1116 151.819 61.5438 151.974 61.002C152.115 60.5223 152.317 60.0626 152.574 59.634C152.826 59.2226 153.116 58.835 153.438 58.476C153.756 58.116 154.038 57.78 154.314 57.456C154.56 57.1666 154.774 56.8507 154.95 56.514C155.106 56.2242 155.163 55.8912 155.112 55.566C155.067 55.2797 154.953 55.0086 154.781 54.7757C154.609 54.5427 154.383 54.3548 154.122 54.228C153.477 53.9164 152.747 53.8277 152.046 53.976C151.412 54.0688 150.821 54.3556 150.356 54.7971C149.891 55.2386 149.574 55.8131 149.448 56.442C149.413 56.5932 149.352 56.7373 149.268 56.868C149.161 56.9819 149.016 57.0524 148.86 57.066L146.964 57.372C146.831 57.3975 146.693 57.3695 146.58 57.294C146.522 57.2543 146.474 57.2027 146.437 57.1427C146.401 57.0827 146.378 57.0156 146.37 56.946C146.314 56.3506 146.406 55.7505 146.64 55.2C146.877 54.5593 147.227 53.9661 147.672 53.448C148.16 52.8807 148.735 52.3946 149.376 52.008C150.067 51.5887 150.834 51.3075 151.632 51.18ZM154.728 64.29C154.811 64.2769 154.895 64.2802 154.976 64.2998C155.058 64.3193 155.134 64.3547 155.202 64.404C155.273 64.4505 155.333 64.5114 155.378 64.5827C155.424 64.6541 155.454 64.7343 155.466 64.818L155.802 66.876C155.828 67.0429 155.787 67.2134 155.688 67.3504C155.59 67.4874 155.441 67.58 155.274 67.608L153.264 67.938C153.097 67.9638 152.927 67.9228 152.79 67.824C152.72 67.7769 152.662 67.7157 152.617 67.6444C152.573 67.5731 152.544 67.4932 152.532 67.41L152.196 65.352C152.181 65.2694 152.183 65.1845 152.203 65.1029C152.222 65.0212 152.259 64.9446 152.31 64.878C152.357 64.8084 152.418 64.7494 152.49 64.705C152.561 64.6606 152.641 64.6316 152.724 64.62L154.728 64.29Z" fill="black"/>
</g>
<path d="M168.6 54.4142C168.682 54.4711 168.751 54.544 168.804 54.6286C168.856 54.7132 168.891 54.8077 168.906 54.9062C168.925 55.0038 168.924 55.1043 168.902 55.2014C168.88 55.2985 168.839 55.39 168.78 55.4702L167.352 57.4802C167.295 57.562 167.222 57.6313 167.138 57.684C167.053 57.7366 166.959 57.7714 166.86 57.7862C166.762 57.8053 166.662 57.804 166.565 57.7823C166.468 57.7606 166.376 57.719 166.296 57.6602L164.328 56.2622C164.246 56.2061 164.177 56.1332 164.125 56.0484C164.074 55.9636 164.04 55.8688 164.028 55.7702C164.009 55.6726 164.01 55.5721 164.032 55.475C164.054 55.3779 164.095 55.2864 164.154 55.2062L165.6 53.1962C165.717 53.0333 165.893 52.923 166.091 52.8893C166.289 52.8556 166.492 52.9012 166.656 53.0162L168.6 54.4142ZM176.904 40.8002C177.622 41.3031 178.261 41.9097 178.8 42.6002C179.326 43.2425 179.733 43.9741 180 44.7602C180.249 45.5135 180.333 46.3116 180.246 47.1002C180.144 47.9412 179.826 48.7413 179.322 49.4222C178.948 49.9727 178.466 50.4421 177.906 50.8022C177.413 51.1112 176.877 51.3457 176.316 51.4982C175.769 51.6411 175.211 51.7375 174.648 51.7862L173.052 51.9302C172.573 51.9685 172.099 52.0508 171.636 52.1762C171.209 52.2733 170.817 52.4896 170.508 52.8002C170.368 52.9421 170.192 53.0419 169.998 53.0882C169.906 53.1146 169.809 53.1186 169.715 53.0998C169.621 53.081 169.533 53.04 169.458 52.9802L167.718 51.7442C167.552 51.6254 167.438 51.447 167.4 51.2462C167.378 51.1489 167.378 51.0477 167.402 50.9507C167.426 50.8538 167.473 50.7638 167.538 50.6882C167.945 50.1608 168.452 49.7201 169.032 49.3922C169.554 49.1073 170.111 48.8915 170.688 48.7502C171.245 48.615 171.814 48.5286 172.386 48.4922C172.95 48.4562 173.478 48.4142 173.97 48.3662C174.42 48.3264 174.865 48.2379 175.296 48.1022C175.673 47.9766 175.998 47.7298 176.22 47.4002C176.421 47.1219 176.551 46.7993 176.6 46.4598C176.649 46.1203 176.616 45.7739 176.502 45.4502C176.218 44.6505 175.676 43.9685 174.96 43.5122C173.664 42.5882 172.25 42.5582 170.718 43.4222C170.564 43.5203 170.393 43.5895 170.214 43.6262C170.121 43.6327 170.027 43.6207 169.939 43.5908C169.85 43.5609 169.768 43.5138 169.698 43.4522L167.85 42.1382C167.783 42.0938 167.726 42.0364 167.681 41.9694C167.637 41.9024 167.607 41.8272 167.592 41.7482C167.578 41.6666 167.58 41.5828 167.6 41.5023C167.62 41.4217 167.656 41.3461 167.706 41.2802C168.142 40.7215 168.709 40.2786 169.356 39.9902C170.091 39.657 170.879 39.454 171.684 39.3902C172.57 39.3162 173.461 39.3871 174.324 39.6002C175.255 39.8246 176.132 40.2326 176.904 40.8002Z" fill="#9269AD"/>
<g opacity="0.6">
<path opacity="0.6" d="M168.6 54.4142C168.682 54.4711 168.751 54.544 168.804 54.6286C168.856 54.7132 168.891 54.8077 168.906 54.9062C168.925 55.0038 168.924 55.1043 168.902 55.2014C168.88 55.2985 168.839 55.39 168.78 55.4702L167.352 57.4802C167.295 57.562 167.222 57.6313 167.138 57.684C167.053 57.7366 166.959 57.7714 166.86 57.7862C166.762 57.8053 166.662 57.804 166.565 57.7823C166.468 57.7606 166.376 57.719 166.296 57.6602L164.328 56.2622C164.246 56.2061 164.177 56.1332 164.125 56.0484C164.074 55.9636 164.04 55.8688 164.028 55.7702C164.009 55.6726 164.01 55.5721 164.032 55.475C164.054 55.3779 164.095 55.2864 164.154 55.2062L165.6 53.1962C165.717 53.0333 165.893 52.923 166.091 52.8893C166.289 52.8556 166.492 52.9012 166.656 53.0162L168.6 54.4142ZM176.904 40.8002C177.622 41.3031 178.261 41.9097 178.8 42.6002C179.326 43.2425 179.733 43.9741 180 44.7602C180.249 45.5135 180.333 46.3116 180.246 47.1002C180.144 47.9412 179.826 48.7413 179.322 49.4222C178.948 49.9727 178.466 50.4421 177.906 50.8022C177.413 51.1112 176.877 51.3457 176.316 51.4982C175.769 51.6411 175.211 51.7375 174.648 51.7862L173.052 51.9302C172.573 51.9685 172.099 52.0508 171.636 52.1762C171.209 52.2733 170.817 52.4896 170.508 52.8002C170.368 52.9421 170.192 53.0419 169.998 53.0882C169.906 53.1146 169.809 53.1186 169.715 53.0998C169.621 53.081 169.533 53.04 169.458 52.9802L167.718 51.7442C167.552 51.6254 167.438 51.447 167.4 51.2462C167.378 51.1489 167.378 51.0477 167.402 50.9507C167.426 50.8538 167.473 50.7638 167.538 50.6882C167.945 50.1608 168.452 49.7201 169.032 49.3922C169.554 49.1073 170.111 48.8915 170.688 48.7502C171.245 48.615 171.814 48.5286 172.386 48.4922C172.95 48.4562 173.478 48.4142 173.97 48.3662C174.42 48.3264 174.865 48.2379 175.296 48.1022C175.673 47.9766 175.998 47.7298 176.22 47.4002C176.421 47.1219 176.551 46.7993 176.6 46.4598C176.649 46.1203 176.616 45.7739 176.502 45.4502C176.218 44.6505 175.676 43.9685 174.96 43.5122C173.664 42.5882 172.25 42.5582 170.718 43.4222C170.564 43.5203 170.393 43.5895 170.214 43.6262C170.121 43.6327 170.027 43.6207 169.939 43.5908C169.85 43.5609 169.768 43.5138 169.698 43.4522L167.85 42.1382C167.783 42.0938 167.726 42.0364 167.681 41.9694C167.637 41.9024 167.607 41.8272 167.592 41.7482C167.578 41.6666 167.58 41.5828 167.6 41.5023C167.62 41.4217 167.656 41.3461 167.706 41.2802C168.142 40.7215 168.709 40.2786 169.356 39.9902C170.091 39.657 170.879 39.454 171.684 39.3902C172.57 39.3162 173.461 39.3871 174.324 39.6002C175.255 39.8246 176.132 40.2326 176.904 40.8002Z" fill="white"/>
</g>
<path d="M123.918 107.526H102.6V55.8779C102.6 51.392 104.382 47.0899 107.554 43.9179C110.726 40.7459 115.028 38.9639 119.514 38.9639H121.482C125.967 38.9639 130.27 40.7459 133.442 43.9179C136.614 47.0899 138.396 51.392 138.396 55.8779V93.0779C138.388 96.9125 136.859 100.587 134.145 103.296C131.43 106.005 127.752 107.526 123.918 107.526Z" fill="#263238"/>
<path d="M100.524 231.864C100.147 234.004 99.9462 236.171 99.9239 238.344C99.8459 242.28 99.1259 243.678 99.0299 246.906C98.9159 250.596 99.5579 251.976 101.052 254.052C102.546 256.128 106.452 258.006 108.144 254.502C109.836 250.998 109.59 248.7 109.056 245.082C108.51 241.338 108.456 239.268 108.12 236.418C107.844 233.904 107.52 231.99 107.52 231.99L100.524 231.864Z" fill="#263238"/>
<path d="M111.696 205.722L98.7358 205.488C98.9278 214.14 100.302 223.746 100.536 231.888C100.584 233.418 100.5 243.762 101.076 246.888C101.946 251.616 107.55 250.974 107.85 248.148C108.15 245.322 107.49 233.244 107.508 231.996C107.454 226.788 109.908 217.998 111.174 208.65C111.228 208.2 111.636 206.172 111.696 205.722Z" fill="#FFA8A7"/>
<path d="M128.346 225.132C128.346 225.132 127.836 224.856 127.746 225.402C127.62 226.05 127.428 227.388 127.146 228.456C126.774 229.938 126.462 232.38 126.684 233.592C126.906 234.804 129.726 236.352 131.556 236.916C133.811 237.612 135.868 238.836 137.556 240.486C139.356 242.19 143.274 243.798 145.956 243.78C149.106 243.78 151.302 242.73 152.34 241.044C153.378 239.358 151.392 239.154 147.792 236.844L145.002 235.044C139.296 231.318 137.202 229.326 135.6 225.6L128.346 225.132Z" fill="#263238"/>
<path d="M135.648 222.822C135.552 220.146 137.4 197.4 137.4 197.4L125.094 203.01C127.728 218.742 128.292 222.456 128.334 225.03C128.28 225.246 128.258 225.468 128.268 225.69C128.268 228.744 131.73 230.394 134.418 232.434C136.703 234.224 139.138 235.814 141.696 237.186C143.652 238.164 147.624 238.254 148.116 237C144.84 234.498 140.076 230.754 137.472 227.898C136.2 226.554 135.744 225.504 135.648 222.822Z" fill="#FFA8A7"/>
<path d="M104.046 121.296C99.3178 131.67 99.3178 139.698 100.104 152.94C100.8 165.09 101.958 175.8 101.958 175.8C101.778 177.954 98.7838 182.16 98.3938 191.688C98.0338 200.592 98.9938 211.914 98.9938 211.914C98.9938 211.914 105.72 215.64 110.694 211.878C110.694 211.878 115.494 188.964 116.898 177.816C118.098 168.09 120.258 155.664 120.258 155.664L124.8 177.75C123.819 180.884 123.109 184.095 122.676 187.35C122.04 193.908 125.712 206.784 125.712 206.784C125.712 206.784 132.66 208.854 136.902 205.092C136.902 205.092 138.486 184.158 139.08 176.262C139.872 165.684 138.204 137.052 136.902 121.89L104.046 121.296Z" fill="#455A64"/>
<path d="M120.27 155.646L122.136 139.002C122.136 139.002 130.5 137.886 134.292 134.322C133.206 136.02 131.76 137.458 130.057 138.534C128.353 139.611 126.433 140.299 124.434 140.55L121.734 156.036L124.8 177.75L120.27 155.646Z" fill="#263238"/>
<path d="M154.14 117.204C154.485 114.167 154.637 111.111 154.596 108.054C154.41 105.414 153.936 104.982 150.246 100.308C145.266 93.99 141.012 88.308 136.512 82.662C133.296 78.63 129.912 78.012 126.624 78.192C124.32 78.318 128.82 89.4 131.082 95.958L144 109.866C144.4 110.415 144.584 111.092 144.516 111.768L143.736 123.6L147.606 128.784C147.606 128.784 153.468 123.732 154.14 117.204Z" fill="#FFA8A7"/>
<path d="M114.168 78.5519C111.666 78.7259 107.118 79.1519 107.118 79.1519C104.496 80.6159 103.83 81.8219 103.344 85.3019C103.134 86.7899 104.346 90.7439 105.384 96.3659L107.352 106.788L107.136 111.96C106.116 115.116 103.806 119.034 101.766 124.812C111.786 130.404 120.186 130.614 127.806 129.612C133.614 128.862 136.692 127.458 137.718 126.066C137.502 120.36 137.118 116.832 136.998 110.868C136.956 108.366 137.106 105.834 137.208 102.954C141.102 99.7499 141.15 94.4219 139.008 90.9539C134.07 82.9559 129.264 77.9219 126.084 78.1799L114.168 78.5519Z" fill="#9269AD"/>
<path opacity="0.6" d="M114.168 78.5519C111.666 78.7259 107.118 79.1519 107.118 79.1519C104.496 80.6159 103.83 81.8219 103.344 85.3019C103.134 86.7899 104.346 90.7439 105.384 96.3659L107.352 106.788L107.136 111.96C106.116 115.116 103.806 119.034 101.766 124.812C111.786 130.404 120.186 130.614 127.806 129.612C133.614 128.862 136.692 127.458 137.718 126.066C137.502 120.36 137.118 116.832 136.998 110.868C136.956 108.366 137.106 105.834 137.208 102.954C141.102 99.7499 141.15 94.4219 139.008 90.9539C134.07 82.9559 129.264 77.9219 126.084 78.1799L114.168 78.5519Z" fill="white"/>
<path opacity="0.1" d="M129.45 103.032C129.45 103.032 124.878 106.584 119.652 104.73C118.185 104.268 116.861 103.434 115.81 102.311C114.759 101.187 114.016 99.811 113.652 98.3159C113.652 98.3159 113.1 104.286 119.682 106.32C126.06 108.282 129.45 103.032 129.45 103.032Z" fill="black"/>
<path d="M135.654 62.1659C135.456 70.8299 132.654 72.9659 131.238 73.5659C129.822 74.1659 127.11 73.8059 124.47 73.3679V78.5999C124.47 78.5999 127.518 81.7919 127.29 84.1739C127.062 86.5559 122.49 86.8259 119.082 84.4919C117.201 83.2002 115.5 81.6648 114.024 79.9259C113.74 79.5904 113.585 79.1651 113.586 78.7259V66.4859C113.586 66.4859 112.14 68.0159 109.584 66.2639C109.032 65.9119 108.56 65.449 108.197 64.9047C107.834 64.3604 107.588 63.7465 107.475 63.102C107.363 62.4576 107.385 61.7967 107.541 61.1614C107.698 60.5261 107.985 59.9303 108.384 59.4119C109.5 58.0979 112.332 58.0079 113.688 60.0119C114.456 61.5059 114.558 63.0119 115.416 62.4119C117.696 60.7679 116.472 57.0119 119.226 55.2119C120.129 54.7402 121.068 54.339 122.034 54.0119C126.948 52.3139 131.208 50.8859 132.234 47.5259C134.166 48.6299 135.894 51.9479 135.654 62.1659Z" fill="#FFA8A7"/>
<path d="M125.964 69.906C126.593 69.906 127.104 69.3956 127.104 68.766C127.104 68.1364 126.593 67.626 125.964 67.626C125.334 67.626 124.824 68.1364 124.824 68.766C124.824 69.3956 125.334 69.906 125.964 69.906Z" fill="#B16668"/>
<path d="M125.208 60.8519C125.207 61.0866 125.138 61.3161 125.009 61.5119C124.879 61.7077 124.695 61.8613 124.48 61.9537C124.264 62.046 124.026 62.073 123.795 62.0313C123.564 61.9897 123.35 61.8812 123.18 61.7194C123.01 61.5575 122.891 61.3493 122.838 61.1206C122.786 60.8919 122.801 60.6528 122.883 60.4327C122.964 60.2127 123.109 60.0214 123.298 59.8826C123.487 59.7439 123.713 59.6636 123.948 59.6519C124.11 59.6438 124.273 59.6688 124.425 59.7254C124.578 59.7821 124.717 59.8692 124.835 59.9814C124.953 60.0937 125.047 60.2287 125.111 60.3784C125.175 60.528 125.208 60.6891 125.208 60.8519Z" fill="#263238"/>
<path d="M134.298 60.972C134.31 61.1188 134.293 61.2665 134.247 61.4067C134.202 61.5468 134.129 61.6765 134.033 61.7882C133.937 61.8999 133.82 61.9913 133.688 62.0572C133.556 62.1231 133.413 62.1621 133.266 62.1719C133.117 62.1856 132.968 62.1676 132.827 62.1191C132.686 62.0706 132.557 61.9927 132.449 61.8905C132.341 61.7884 132.255 61.6644 132.198 61.5267C132.142 61.389 132.115 61.2408 132.12 61.0919C132.104 60.9441 132.119 60.7946 132.163 60.6527C132.208 60.5107 132.281 60.3793 132.378 60.2666C132.474 60.1538 132.593 60.062 132.727 59.9968C132.861 59.9316 133.006 59.8944 133.155 59.8874C133.303 59.8805 133.452 59.9039 133.591 59.9563C133.73 60.0088 133.857 60.089 133.964 60.1923C134.071 60.2955 134.156 60.4195 134.213 60.5567C134.271 60.6938 134.299 60.8413 134.298 60.9899V60.972Z" fill="#263238"/>
<path d="M123.666 63.9358C122.631 63.9358 121.638 63.5251 120.906 62.7939C120.174 62.0627 119.761 61.0707 119.76 60.0358C119.76 57.3838 122.496 57.3838 123.666 57.3838C124.836 57.3838 127.566 57.3838 127.566 60.0358C127.564 61.0696 127.153 62.0607 126.422 62.7918C125.691 63.5228 124.7 63.9342 123.666 63.9358ZM123.666 57.9958C121.266 57.9958 120.378 58.5958 120.378 60.0358C120.378 60.911 120.725 61.7504 121.344 62.3692C121.963 62.9881 122.803 63.3358 123.678 63.3358C124.553 63.3358 125.392 62.9881 126.011 62.3692C126.63 61.7504 126.978 60.911 126.978 60.0358C126.954 58.5658 126.03 57.9958 123.666 57.9958Z" fill="#455A64"/>
<path d="M133.572 63.9358C132.537 63.9358 131.545 63.5251 130.812 62.7939C130.08 62.0627 129.668 61.0707 129.666 60.0358C129.666 57.3838 132.402 57.3838 133.572 57.3838C134.742 57.3838 137.472 57.3838 137.472 60.0358C137.47 61.0696 137.059 62.0607 136.328 62.7918C135.597 63.5228 134.606 63.9342 133.572 63.9358ZM133.572 57.9958C131.208 57.9958 130.284 58.5958 130.284 60.0358C130.284 60.911 130.632 61.7504 131.251 62.3692C131.869 62.9881 132.709 63.3358 133.584 63.3358C134.459 63.3358 135.299 62.9881 135.917 62.3692C136.536 61.7504 136.884 60.911 136.884 60.0358C136.86 58.5658 135.936 57.9958 133.572 57.9958Z" fill="#455A64"/>
<path d="M128.172 58.7759L128.364 66.0659L132.198 64.8779L128.172 58.7759Z" fill="#F28F8F"/>
<path d="M124.464 73.3859C121.68 73.0199 115.95 71.3759 115.056 69.1079C115.415 70.2541 116.117 71.2631 117.066 71.9999C118.776 73.4699 124.464 75.1199 124.464 75.1199V73.3859Z" fill="#F28F8F"/>
<path d="M124.602 55.2357L122.058 56.7897C121.858 56.4405 121.799 56.0274 121.895 55.6363C121.991 55.2453 122.234 54.9062 122.574 54.6897C122.742 54.5879 122.929 54.5211 123.123 54.4935C123.317 54.4658 123.515 54.4779 123.705 54.5289C123.894 54.58 124.072 54.6689 124.226 54.7904C124.38 54.9119 124.508 55.0634 124.602 55.2357Z" fill="#263238"/>
<path d="M134.952 56.9639L132.12 55.9739C132.174 55.7862 132.267 55.6117 132.392 55.4611C132.517 55.3105 132.671 55.1871 132.845 55.0983C133.019 55.0095 133.21 54.9573 133.405 54.9448C133.6 54.9324 133.796 54.9599 133.98 55.0259C134.359 55.1624 134.672 55.4397 134.853 55.8005C135.034 56.1613 135.069 56.5778 134.952 56.9639Z" fill="#263238"/>
<path d="M127.26 60.3479C127.219 60.3479 127.179 60.3398 127.141 60.324C127.104 60.3083 127.07 60.2852 127.041 60.2561C127.013 60.2271 126.99 60.1926 126.975 60.1548C126.96 60.117 126.953 60.0765 126.954 60.0359C126.954 59.5379 127.938 59.2139 128.826 59.2139C129.714 59.2139 130.284 59.5379 130.284 60.0359C130.265 60.1011 130.226 60.1584 130.172 60.1992C130.117 60.2401 130.051 60.2622 129.984 60.2622C129.916 60.2622 129.85 60.2401 129.796 60.1992C129.742 60.1584 129.702 60.1011 129.684 60.0359C129.684 59.9759 129.378 59.8259 128.844 59.8259C128.414 59.8167 127.986 59.89 127.584 60.0419C127.584 60.0836 127.575 60.1249 127.559 60.1633C127.542 60.2016 127.518 60.2362 127.488 60.2649C127.457 60.2935 127.422 60.3157 127.382 60.3299C127.343 60.3442 127.301 60.3503 127.26 60.3479Z" fill="#455A64"/>
<path d="M120.078 60.084H120.042L113.184 59.484C112.864 59.1663 112.482 58.9173 112.062 58.752L120.114 59.496C120.195 59.5065 120.268 59.5481 120.319 59.612C120.369 59.6759 120.393 59.757 120.384 59.838C120.37 59.9083 120.332 59.9715 120.276 60.0165C120.22 60.0615 120.15 60.0853 120.078 60.084Z" fill="#455A64"/>
<path d="M91.9198 67.2358C94.1638 64.2358 95.6938 61.9738 97.7398 59.4358C98.9038 57.9778 99.6478 56.9338 100.74 55.4398C101.508 54.4078 101.94 53.5378 102.816 53.2198C103.762 52.832 104.615 52.247 105.318 51.5038C105.75 51.026 106.15 50.5209 106.518 49.9918C107.804 48.2608 109.331 46.7232 111.054 45.4258C112.854 44.0698 114.864 43.0258 116.718 41.7358C117.822 40.9618 119.004 39.6778 117.66 38.4778C117.248 38.1306 116.754 37.8933 116.226 37.7878C112.956 37.0798 110.112 38.2018 106.914 39.0178C105.525 39.3645 104.166 39.824 102.852 40.3918C102.205 40.6475 101.599 40.9951 101.052 41.4238C100.287 42.1953 99.6595 43.0923 99.1978 44.0758C97.7998 46.5718 94.7998 48.8038 92.6998 50.7778C90.2458 53.0878 88.0498 55.2058 85.2478 57.7498C82.7278 60.0478 80.2618 62.1598 77.9518 64.6678C76.0378 66.7378 76.7518 68.3578 77.0038 68.9218C78.5638 72.1258 80.3098 73.2778 82.4038 75.2638C86.0038 78.7018 98.4538 88.5958 102.576 91.8658C103.461 92.5614 104.157 93.4695 104.598 94.5058L105.39 96.3358C110.094 97.1998 113.232 90.1378 109.338 81.6358C108.693 80.261 107.708 79.0735 106.476 78.1858C101.556 74.6038 91.9198 67.2358 91.9198 67.2358Z" fill="#FFA8A7"/>
<path d="M91.9199 67.2358C90.4226 69.0777 88.4274 70.4502 86.1719 71.1898C86.1719 71.1898 89.1719 71.9578 93.2819 68.2678L91.9199 67.2358Z" fill="#F28F8F"/>
<path d="M152.916 110.946L152.148 110.286C152.033 110.21 151.902 110.162 151.765 110.147C151.629 110.131 151.49 110.148 151.362 110.196L143.028 112.464C142.608 112.604 142.223 112.833 141.9 113.135C141.577 113.437 141.323 113.806 141.156 114.216L135.156 131.514C135.083 131.655 135.055 131.814 135.074 131.971C135.093 132.128 135.159 132.276 135.264 132.396L136.056 133.08C136.171 133.159 136.304 133.209 136.443 133.226C136.582 133.243 136.723 133.225 136.854 133.176L145.2 130.908C145.619 130.768 146.004 130.539 146.327 130.236C146.65 129.934 146.904 129.565 147.072 129.156C148.272 125.754 151.872 115.26 153.072 111.858C153.216 111.432 153.144 111.108 152.916 110.946Z" fill="#455A64"/>
<path d="M135.942 132.18L141.942 114.882C142.109 114.473 142.363 114.104 142.686 113.803C143.009 113.501 143.394 113.274 143.814 113.136L152.142 110.868C152.916 110.658 153.342 111.102 153.066 111.858C151.866 115.26 148.266 125.754 147.066 129.156C146.899 129.566 146.645 129.934 146.321 130.237C145.998 130.539 145.614 130.768 145.194 130.908L136.866 133.2C136.098 133.38 135.684 132.936 135.942 132.18Z" fill="#9269AD"/>
<path d="M142.908 113.616C142.474 113.944 142.138 114.384 141.936 114.888L135.936 132.18C135.867 132.317 135.838 132.471 135.853 132.624C135.868 132.777 135.926 132.922 136.02 133.044L135.276 132.408C135.169 132.29 135.101 132.142 135.081 131.985C135.06 131.827 135.089 131.667 135.162 131.526L141.162 114.228C141.351 113.758 141.659 113.344 142.056 113.028L142.908 113.616Z" fill="#37474F"/>
<path d="M150.63 118.83C150.03 120.588 147.948 121.764 144.504 122.58C141.06 123.396 139.158 127.05 139.704 128.16C140.25 129.27 145.818 130.308 148.044 129.99C150.27 129.672 152.502 126.456 153.18 125.46C153.858 124.464 154.638 117.516 153.924 116.562C153.21 115.608 151.704 115.758 151.704 115.758L150.63 118.83Z" fill="#F28F8F"/>
</svg>
