<svg width="213" height="235" viewBox="0 0 213 235" fill="none" xmlns="http://www.w3.org/2000/svg">
<path d="M85.3537 27.0798C84.6137 26.2159 84.1295 25.1626 83.9556 24.0385C83.7816 22.9143 83.9248 21.7639 84.3691 20.7168C84.8133 19.6696 85.5409 18.7672 86.4701 18.111C87.3994 17.4549 88.4933 17.0711 89.6287 17.0028C89.2774 15.9444 89.2016 14.814 89.4084 13.7182C89.6152 12.6224 90.0978 11.5974 90.8108 10.74C91.5237 9.88252 92.4434 9.22089 93.4831 8.81756C94.5227 8.41423 95.648 8.28249 96.7527 8.43479C96.8261 7.31664 97.1665 6.23237 97.7452 5.27281C98.3239 4.31326 99.1241 3.50638 100.079 2.91976C101.034 2.33315 102.115 1.98389 103.233 1.90125C104.35 1.81861 105.471 2.00499 106.502 2.44479C107.166 1.64431 108.005 1.00779 108.955 0.584717C109.905 0.161648 110.94 -0.0365491 111.979 0.00553962C113.018 0.0476283 114.033 0.328869 114.946 0.827386C115.858 1.3259 116.644 2.02825 117.241 2.87979C118.403 3.06895 119.51 3.51065 120.484 4.17379C121.557 3.98614 122.662 4.15066 123.634 4.64279C124.829 5.30196 125.922 6.13241 126.877 7.10779C128.499 8.62679 130.205 10.2478 130.777 12.3948C131.424 14.7848 130.571 17.5228 131.777 19.6878C132.365 20.4632 132.886 21.2879 133.333 22.1528C133.942 23.8968 132.761 25.7708 132.902 27.6178C133.043 29.4648 134.664 31.2648 134.467 33.2418C134.328 33.9374 134.048 34.5969 133.643 35.1792C133.238 35.7615 132.718 36.2539 132.114 36.6258C130.905 37.3646 129.777 38.2287 128.749 39.2038C127.999 40.0568 127.521 41.0788 126.78 41.9688C125.694 43.1581 124.197 43.8898 122.592 44.0151C120.986 44.1405 119.394 43.6502 118.137 42.6438C117.277 43.2963 116.274 43.7338 115.21 43.9197C114.147 44.1057 113.055 44.0347 112.025 43.7128C109.969 43.0557 108.034 42.0678 106.297 40.7878C105.908 41.3128 105.395 41.7325 104.803 42.0086C104.211 42.2847 103.559 42.4085 102.907 42.3687C102.255 42.329 101.623 42.127 101.069 41.781C100.515 41.4351 100.057 40.9561 99.7347 40.3878C99.4387 41.0751 98.9227 41.6445 98.2678 42.0066C97.6128 42.3686 96.8561 42.5027 96.1167 42.3878C94.6414 42.1293 93.244 41.5395 92.0297 40.6628C89.6487 39.1908 86.9767 37.2628 86.9207 34.4568C86.9207 32.7418 87.8577 30.9698 87.2117 29.3858C86.7188 28.5233 86.0916 27.7449 85.3537 27.0798V27.0798Z" fill="#263238"/>
<path d="M106.194 38.5378C106.241 38.5378 106.025 38.0038 105.866 37.0288C105.661 35.6506 105.77 34.2441 106.185 32.9138C106.774 30.9389 108.038 29.2337 109.756 28.0958C110.81 27.4766 111.906 26.9306 113.036 26.4618C114.294 25.9464 115.431 25.1735 116.373 24.1928C117.176 23.1109 117.828 21.9251 118.313 20.6678C119.002 19.1888 120.088 17.93 121.45 17.0314C122.812 16.1328 124.397 15.6296 126.028 15.5778C127.419 15.5476 128.8 15.8295 130.068 16.4028C131.005 16.8148 131.409 17.1528 131.427 17.1148C131.34 17.0135 131.239 16.9252 131.127 16.8528C130.817 16.6181 130.488 16.411 130.143 16.2338C128.55 15.4067 126.744 15.0805 124.963 15.298C123.181 15.5156 121.507 16.2667 120.16 17.4528C119.201 18.2874 118.425 19.312 117.883 20.4618C117.407 21.6752 116.777 22.822 116.008 23.8738C115.106 24.8011 114.025 25.5348 112.83 26.0298C111.685 26.5128 110.576 27.0766 109.512 27.7168C108.026 28.7328 106.87 30.1625 106.189 31.8288C105.507 33.495 105.33 35.3246 105.678 37.0908C105.759 37.4716 105.871 37.8449 106.015 38.2068C106.059 38.3247 106.119 38.4361 106.194 38.5378V38.5378Z" fill="#455A64"/>
<path d="M107.139 27.4298C107.36 27.0933 107.614 26.7794 107.898 26.4928C108.711 25.7781 109.64 25.2076 110.645 24.8058C111.264 24.5148 111.967 24.2058 112.679 23.7838C113.469 23.355 114.154 22.7563 114.685 22.0308C115.801 20.4748 116.157 18.3748 117.638 16.9308C119.034 15.5668 120.838 14.6975 122.775 14.4558C124.347 14.2747 125.94 14.4052 127.462 14.8398C128.876 15.2899 130.26 15.8318 131.605 16.4618C131.296 16.2025 130.956 15.9822 130.593 15.8058C129.629 15.2669 128.611 14.8311 127.556 14.5058C125.979 14.0063 124.316 13.8405 122.672 14.0188C120.624 14.2418 118.711 15.1503 117.244 16.5968C115.644 18.1808 115.294 20.3468 114.272 21.7708C113.231 22.971 111.92 23.9061 110.447 24.4988C109.421 24.9356 108.494 25.5731 107.719 26.3738C107.513 26.5956 107.339 26.845 107.203 27.1148C107.167 27.3168 107.12 27.4198 107.139 27.4298Z" fill="#455A64"/>
<path d="M136.125 82.3838C136.125 82.7738 129.855 77.5638 129.855 77.5638V69.4138C129.855 69.4538 139.395 67.7638 141.285 55.2938C142.225 49.0938 141.845 38.9438 141.285 30.6438C140.765 23.1738 135.755 14.0338 128.285 14.8738C128.285 14.8738 114.092 13.1368 110.623 21.7348C107.154 30.3328 102.842 35.9638 102.93 38.2518L103.575 75.5148L98.1647 78.2048L104.755 90.8748L122.035 93.8748L136.795 95.0648L135.935 87.2548L136.125 82.3448V82.3838Z" fill="#BE8671"/>
<path d="M104.899 23.3048C106.849 17.3338 115.599 9.11279 121.857 9.59079L131.812 15.6748C131.476 17.374 130.69 18.9517 129.535 20.243C128.381 21.5343 126.901 22.4916 125.25 23.0148C123.478 23.5488 121.341 23.6808 120.282 25.1898C119.223 26.6988 119.804 29.0048 118.791 30.6078C117.385 32.8198 113.598 32.6888 112.539 35.0788C112.08 36.1288 112.305 37.3848 111.826 38.4258C111.189 39.8038 107.654 41.5478 106.202 41.0698C104.75 40.5918 104.758 38.1268 104.327 36.8238C103.736 35.3574 103.673 33.7315 104.149 32.2238C104.759 29.2948 103.971 26.1638 104.899 23.3048Z" fill="#263238"/>
<path d="M137.545 38.3138C137.55 38.7297 137.394 39.1315 137.108 39.4339C136.822 39.7364 136.43 39.9157 136.015 39.9338C135.611 39.9664 135.21 39.8373 134.901 39.5748C134.592 39.3123 134.4 38.9379 134.367 38.5338V38.5058C134.358 38.0891 134.514 37.6857 134.8 37.3827C135.086 37.0797 135.48 36.9012 135.897 36.8858C136.294 36.849 136.69 36.9713 136.998 37.2258C137.306 37.4803 137.5 37.8463 137.539 38.2438C137.539 38.2678 137.539 38.2908 137.545 38.3138Z" fill="#263238"/>
<path d="M139.105 35.9338C138.905 36.1438 137.685 35.2538 135.965 35.2638C134.245 35.2738 132.965 36.1538 132.805 35.9438C132.645 35.7338 132.915 35.4738 133.465 35.0738C134.202 34.5449 135.088 34.2646 135.995 34.2738C136.887 34.2628 137.759 34.536 138.485 35.0538C139.015 35.4638 139.195 35.8338 139.105 35.9338Z" fill="#263238"/>
<path d="M122.115 39.2138C121.915 39.4238 120.695 38.5338 118.985 38.5538C117.275 38.5738 115.985 39.4338 115.825 39.2238C115.665 39.0138 115.925 38.7538 116.475 38.3538C117.215 37.8323 118.099 37.5529 119.005 37.5538C119.898 37.5457 120.77 37.8224 121.495 38.3438C122.025 38.7438 122.215 39.1138 122.115 39.2138Z" fill="#263238"/>
<path d="M128.539 49.0738C129.439 48.7807 130.373 48.6026 131.319 48.5438C131.759 48.5438 132.179 48.4138 132.249 48.1138C132.28 47.6603 132.176 47.2077 131.949 46.8138L130.679 43.4738C128.839 38.7338 127.509 34.8238 127.679 34.7538C127.849 34.6838 129.519 38.4738 131.349 43.2138C131.789 44.3838 132.219 45.5038 132.619 46.5738C132.899 47.101 132.984 47.7101 132.859 48.2938C132.795 48.4492 132.697 48.5882 132.573 48.7008C132.448 48.8133 132.3 48.8963 132.139 48.9438C131.897 49.007 131.649 49.0406 131.399 49.0438C130.451 49.1777 129.489 49.1878 128.539 49.0738V49.0738Z" fill="#263238"/>
<path d="M129.855 69.3838C123.991 69.5148 118.207 68.0158 113.145 65.0538C113.145 65.0538 117.395 73.7038 129.855 72.4538V69.3838Z" fill="#A24C2C"/>
<path d="M128.739 52.9438C128.339 52.3659 127.805 51.8925 127.184 51.5636C126.563 51.2347 125.872 51.0599 125.169 51.0538C124.686 51.0459 124.21 51.1711 123.794 51.4157C123.377 51.6602 123.036 52.0147 122.808 52.4403C122.58 52.8658 122.473 53.346 122.5 53.8282C122.526 54.3104 122.685 54.7759 122.959 55.1738C123.28 55.6056 123.723 55.9314 124.231 56.1096C124.739 56.2878 125.288 56.3101 125.809 56.1738C126.779 55.8507 127.657 55.2984 128.369 54.5638C128.596 54.3871 128.78 54.1615 128.909 53.9038C128.975 53.7598 129.002 53.601 128.988 53.4432C128.974 53.2854 128.919 53.134 128.829 53.0038" fill="#A24C2C"/>
<path d="M123.485 50.2938C123.755 50.2938 123.775 52.1438 125.385 53.4538C126.995 54.7638 128.975 54.5538 128.985 54.8138C128.985 54.9238 128.545 55.1738 127.705 55.2038C126.618 55.2318 125.557 54.8779 124.705 54.2038C123.889 53.5409 123.362 52.5873 123.235 51.5438C123.145 50.7438 123.355 50.2838 123.485 50.2938Z" fill="#263238"/>
<path d="M122.955 34.3838C122.795 34.8538 121.075 34.6438 119.055 34.9038C117.035 35.1638 115.415 35.7138 115.145 35.3038C115.025 35.1038 115.305 34.6638 115.965 34.2038C116.835 33.6457 117.826 33.3029 118.855 33.2038C119.887 33.0751 120.936 33.1916 121.915 33.5438C122.675 33.7838 123.025 34.1538 122.955 34.3838Z" fill="#263238"/>
<path d="M138.439 30.9538C138.139 31.3538 136.949 30.9538 135.529 30.9538C134.109 30.9538 132.899 31.2338 132.619 30.8238C132.499 30.6338 132.689 30.2338 133.209 29.8238C133.908 29.3658 134.733 29.1385 135.569 29.1738C136.405 29.1807 137.219 29.4461 137.899 29.9338C138.395 30.3838 138.565 30.7638 138.439 30.9538Z" fill="#263238"/>
<path d="M104.545 40.5338C104.375 40.4538 97.6047 38.3038 97.6747 45.2538C97.7447 52.2038 104.675 50.7138 104.675 50.5138C104.675 50.3138 104.545 40.5338 104.545 40.5338Z" fill="#BE8671"/>
<path d="M102.565 47.9038C102.459 47.9709 102.349 48.031 102.235 48.0838C101.947 48.2028 101.623 48.2028 101.335 48.0838C100.885 47.8031 100.517 47.4081 100.269 46.9391C100.022 46.4701 99.9028 45.9437 99.9247 45.4138C99.896 44.8169 100.006 44.2214 100.245 43.6738C100.31 43.457 100.425 43.2588 100.581 43.0954C100.738 42.932 100.931 42.808 101.145 42.7338C101.284 42.6941 101.434 42.7055 101.566 42.766C101.698 42.8265 101.804 42.9321 101.865 43.0638C101.965 43.2538 101.915 43.3938 101.955 43.4038C101.995 43.4138 102.105 43.2838 102.045 43.0038C102.005 42.8293 101.906 42.6739 101.765 42.5638C101.572 42.4218 101.332 42.3608 101.095 42.3938C100.811 42.4536 100.547 42.5852 100.328 42.776C100.109 42.9668 99.9427 43.2105 99.8447 43.4838C99.5545 44.0882 99.4139 44.7536 99.4347 45.4238C99.4086 46.045 99.5652 46.6604 99.8851 47.1936C100.205 47.7268 100.674 48.1545 101.235 48.4238C101.421 48.4742 101.616 48.4834 101.806 48.4506C101.996 48.4178 102.176 48.3437 102.335 48.2338C102.555 48.0638 102.585 47.9138 102.565 47.9038Z" fill="#A24C2C"/>
<path d="M101.009 18.8438L101.778 22.1438C101.744 19.7898 102.339 17.4695 103.503 15.4228C106.003 11.6728 111.508 9.09477 115.849 7.84877C120.19 6.60277 125.523 7.36177 129.723 9.03977C133.503 10.4633 136.753 13.0154 139.033 16.3498C142.22 20.6618 142.961 27.1578 140.992 28.3108C139.436 23.8398 136.971 18.7108 133.061 16.0308C131.124 14.654 128.909 13.7181 126.572 13.289C124.235 12.8598 121.832 12.9478 119.533 13.5468C114.471 15.0368 110.618 19.3208 108.378 24.0928C107.286 26.5374 106.435 29.0828 105.838 31.6928C105.11 34.7578 102.732 38.5118 103.504 41.5668V49.0328L103.004 53.0328C96.8447 50.7548 96.1037 44.3608 95.0847 37.8738C94.0657 31.3868 97.2127 24.7968 101.009 18.8438Z" fill="#FFC100"/>
<path d="M127.285 38.3838C127.22 37.7111 127.113 37.0432 126.965 36.3838C126.491 34.6038 125.435 33.0338 123.965 31.9238C122.88 31.1101 121.61 30.5797 120.269 30.3806C118.928 30.1816 117.559 30.3201 116.285 30.7838C115.55 31.0457 114.859 31.4165 114.235 31.8838C113.581 32.3638 113.007 32.9443 112.535 33.6038C111.506 34.9849 110.95 36.6614 110.95 38.3838C110.95 40.1062 111.506 41.7826 112.535 43.1638C113.007 43.8232 113.581 44.4038 114.235 44.8838C114.857 45.3572 115.548 45.7317 116.285 45.9938C117.352 46.379 118.488 46.5377 119.62 46.4599C120.752 46.382 121.856 46.0693 122.861 45.5415C123.865 45.0138 124.749 44.2827 125.456 43.3947C126.162 42.5067 126.676 41.4813 126.965 40.3838C127.114 39.7246 127.221 39.0566 127.285 38.3838C127.298 38.5602 127.298 38.7374 127.285 38.9138C127.29 39.1283 127.273 39.3427 127.235 39.5538C127.208 39.844 127.158 40.1316 127.085 40.4138C126.645 42.2497 125.585 43.8778 124.085 45.0238C123.055 45.8205 121.853 46.365 120.575 46.6138C119.103 46.8877 117.585 46.7669 116.175 46.2638C115.413 45.99 114.695 45.6059 114.045 45.1238C113.363 44.629 112.766 44.028 112.275 43.3438C111.564 42.3837 111.068 41.2822 110.819 40.1138C110.571 38.9453 110.576 37.7372 110.835 36.571C111.093 35.4048 111.599 34.3076 112.318 33.3537C113.037 32.3998 113.952 31.6113 115.002 31.0415C116.052 30.4717 117.212 30.1339 118.404 30.0509C119.595 29.9679 120.791 30.1417 121.91 30.5604C123.029 30.9792 124.044 31.6332 124.889 32.4782C125.733 33.3233 126.386 34.3397 126.804 35.4588C126.911 35.7534 127.002 36.0539 127.075 36.3588C127.148 36.6443 127.198 36.9353 127.225 37.2288C127.263 37.4365 127.28 37.6476 127.275 37.8588C127.291 38.0333 127.294 38.2088 127.285 38.3838Z" fill="#455A64"/>
<path d="M146.905 38.3838C146.84 37.7111 146.733 37.0432 146.585 36.3838C146.109 34.6048 145.053 33.0353 143.585 31.9238C142.035 30.7476 140.113 30.1688 138.171 30.2932C136.229 30.4176 134.397 31.2369 133.009 32.6013C131.622 33.9656 130.772 35.7839 130.615 37.7234C130.458 39.6629 131.005 41.5941 132.155 43.1638C132.631 43.8233 133.208 44.4038 133.865 44.8838C134.487 45.3573 135.178 45.7317 135.915 45.9938C137.275 46.4858 138.741 46.6099 140.165 46.3538C141.407 46.1238 142.578 45.6067 143.585 44.8438C145.057 43.7359 146.113 42.165 146.585 40.3838C146.734 39.7246 146.841 39.0566 146.905 38.3838C146.918 38.5602 146.918 38.7374 146.905 38.9138C146.905 39.1281 146.888 39.3421 146.855 39.5538C146.828 39.844 146.778 40.1316 146.705 40.4138C146.328 41.9609 145.516 43.3674 144.363 44.4664C143.211 45.5654 141.768 46.3107 140.205 46.6138C138.733 46.8877 137.215 46.7669 135.805 46.2638C135.041 45.9941 134.323 45.6097 133.675 45.1238C132.988 44.632 132.387 44.0306 131.895 43.3438C131.149 42.3532 130.634 41.209 130.386 39.9943C130.139 38.7796 130.165 37.525 130.463 36.3216C130.761 35.1183 131.324 33.9966 132.11 33.0379C132.896 32.0792 133.885 31.3078 135.007 30.7796C136.129 30.2515 137.354 29.9799 138.593 29.9847C139.833 29.9894 141.056 30.2704 142.174 30.8071C143.291 31.3439 144.275 32.1229 145.053 33.0875C145.832 34.0522 146.386 35.1782 146.675 36.3838C146.748 36.6694 146.798 36.9603 146.825 37.2538C146.858 37.4622 146.875 37.6728 146.875 37.8838C146.897 38.0495 146.907 38.2166 146.905 38.3838V38.3838Z" fill="#455A64"/>
<path d="M101.918 47.8848C101.835 47.6329 101.725 47.3908 101.59 47.1628C101.365 46.6848 101.037 45.9908 100.699 45.0628C99.753 42.4298 99.2893 39.6481 99.3297 36.8508C99.3681 34.922 99.5688 32.9999 99.9297 31.1048C100.294 28.9263 100.858 26.7862 101.617 24.7118C102.468 22.4256 103.663 20.2824 105.16 18.3558C106.779 16.3021 108.731 14.534 110.935 13.1248C115.226 10.3827 120.351 9.24903 125.399 9.9248C127.585 10.2087 129.712 10.8417 131.699 11.7998C133.426 12.6418 135.023 13.728 136.442 15.0248C138.502 16.9129 140.163 19.1953 141.326 21.7368C141.72 22.6738 141.982 23.3678 142.141 23.8648C142.212 24.12 142.3 24.3705 142.403 24.6148C142.372 24.3506 142.315 24.09 142.234 23.8368C142.033 23.0969 141.785 22.3704 141.493 21.6618C139.605 17.2177 136.195 13.5918 131.875 11.4348C129.855 10.4374 127.686 9.77575 125.454 9.4758C120.299 8.7506 115.055 9.89461 110.671 12.7008C106.293 15.4924 102.963 19.656 101.203 24.5408C100.44 26.6453 99.8779 28.8173 99.5247 31.0278C99.1796 32.9463 98.9976 34.8906 98.9807 36.8398C98.9636 39.6713 99.4852 42.4802 100.518 45.1168C100.792 45.8239 101.105 46.5156 101.455 47.1888C101.591 47.4324 101.746 47.6651 101.918 47.8848V47.8848Z" fill="#263238"/>
<path d="M130.775 36.4738C130.775 36.5538 129.945 36.2338 128.915 36.2038C127.885 36.1738 127.065 36.4338 127.035 36.3438C127.591 35.973 128.261 35.8134 128.925 35.8938C129.591 35.858 130.248 36.0639 130.775 36.4738V36.4738Z" fill="#455A64"/>
<path d="M110.745 39.2238C109.628 39.6688 108.458 39.9646 107.265 40.1038C106.085 40.3527 104.878 40.4468 103.675 40.3838C103.675 40.2838 105.255 40.1337 107.195 39.8137C109.135 39.4937 110.675 39.1338 110.745 39.2238Z" fill="#455A64"/>
<path d="M126.415 37.1138C126.478 37.6312 126.451 38.1556 126.335 38.6638C126.107 39.9075 125.642 41.0958 124.965 42.1638C124.307 43.2508 123.412 44.1741 122.345 44.8638C122.129 45.0234 121.882 45.1353 121.62 45.1922C121.358 45.2491 121.087 45.2496 120.825 45.1938C121.322 45.1178 121.798 44.9408 122.225 44.6738C123.216 43.9515 124.056 43.0408 124.695 41.9938C125.351 40.9565 125.831 39.8178 126.115 38.6238C126.325 37.6938 126.365 37.1038 126.415 37.1138Z" fill="white"/>
<path d="M144.355 42.3838C144.549 41.936 144.773 41.5017 145.025 41.0838C145.267 40.626 145.449 40.1385 145.565 39.6338C145.686 39.0163 145.686 38.3812 145.565 37.7638C145.429 36.607 145.09 35.4833 144.565 34.4438C144.145 33.6638 143.715 33.2938 143.765 33.2438C143.885 33.3046 143.993 33.3858 144.085 33.4838C144.341 33.7399 144.565 34.0252 144.755 34.3338C145.352 35.3727 145.73 36.5231 145.865 37.7138C145.977 38.3778 145.957 39.0577 145.805 39.7138C145.658 40.2366 145.443 40.7377 145.165 41.2038C144.952 41.6333 144.679 42.0306 144.355 42.3838V42.3838Z" fill="white"/>
<path d="M34.8047 68.7538C34.8047 68.7538 66.4847 68.2638 76.0847 73.4438C76.0847 73.4438 80.0047 71.2938 82.1447 72.1838C84.2847 73.0738 84.0447 73.4438 84.0447 73.4438C84.0447 73.4438 82.0447 69.3638 86.1847 70.8338C90.3247 72.3038 90.4847 73.4438 90.4847 73.4438L103.485 73.1438L103.645 75.9238C101.245 78.5738 94.5547 85.9238 94.5547 85.9238L88.9947 105.924L68.8747 187.994L59.6047 229.724C53.9002 220.82 50.2044 210.781 48.7747 200.304C46.2347 182.514 59.0847 105.884 59.0847 105.884C59.0847 105.884 9.4247 85.3238 7.2647 76.8838C5.6747 70.8338 34.8047 68.7538 34.8047 68.7538Z" fill="#FFC727"/>
<path d="M129.855 77.5538C129.855 77.5538 138.915 79.2638 141.855 81.4338C144.795 83.6038 151.675 90.3838 151.675 90.3838C151.675 90.3838 156.545 90.0038 156.305 94.9238C156.305 94.9238 172.365 102.404 173.405 105.024C174.445 107.644 201.095 150.024 200.815 152.344C200.535 154.664 195.095 171.974 187.735 169.704C180.375 167.434 161.245 146.704 161.245 146.704C161.245 146.704 169.555 228.094 158.725 234.764L144.855 217.494L142.315 157.494L129.855 77.5538Z" fill="#FFC727"/>
<path d="M129.855 77.5538C132.095 88.0338 123.535 92.3038 114.255 90.2738C104.975 88.2438 103.555 74.9438 103.555 74.9438L92.6747 78.7538L82.8847 100.954L68.8847 187.954L144.185 206.684L139.675 83.2838L129.855 77.5538Z" fill="#F5F5F5"/>
<path d="M50.8747 71.1338C50.8747 71.1338 35.6347 62.8338 31.0647 62.2238C23.2947 61.2238 7.66472 59.8538 4.46472 67.7238C1.26472 75.5938 16.1847 87.4338 35.9347 88.0138C39.0388 88.0189 42.0921 88.8028 44.8147 90.2938L50.8747 71.1338Z" fill="#FFC727"/>
<path d="M81.2647 86.1238C80.7977 83.8759 80.1728 81.6638 79.3947 79.5038C78.4481 77.4083 77.3588 75.3802 76.1347 73.4338C76.6669 73.8688 77.1231 74.3892 77.4847 74.9738C78.4506 76.317 79.2529 77.7706 79.8747 79.3038C80.4991 80.8354 80.9356 82.4371 81.1747 84.0738C81.322 84.7469 81.3524 85.4403 81.2647 86.1238V86.1238Z" fill="#263238"/>
<path d="M83.1147 85.9138C83.7375 83.7461 84.1428 81.5218 84.3247 79.2738C84.3266 77.0165 84.0988 74.7649 83.6447 72.5538C83.9907 73.1361 84.2279 73.7766 84.3447 74.4438C85.1407 77.6275 85.0088 80.9726 83.9647 84.0838C83.7865 84.7373 83.4991 85.356 83.1147 85.9138V85.9138Z" fill="#263238"/>
<path d="M84.4948 95.5338C84.5627 95.188 84.6735 94.8521 84.8247 94.5338C85.0647 93.9338 85.4247 93.0738 85.8847 92.0138C86.8047 89.8938 88.1047 87.0138 89.5747 83.7738C91.0447 80.5338 92.2947 77.6038 93.7847 75.7738C94.3479 75.0341 95.0227 74.3863 95.7847 73.8538C96.0514 73.6459 96.3527 73.4868 96.6747 73.3838C95.697 74.136 94.8257 75.0174 94.0847 76.0038C92.7147 77.8338 91.5447 80.8138 90.0847 84.0038C88.6247 87.1938 87.2647 90.0938 86.2647 92.1738C85.7547 93.1738 85.3447 94.0538 85.0447 94.6238C84.9067 94.9523 84.7215 95.2589 84.4948 95.5338V95.5338Z" fill="#263238"/>
<path d="M31.9447 62.4338C32.0933 62.4672 32.2376 62.5175 32.3747 62.5838L33.5847 63.0938C34.6447 63.5538 36.1747 64.2438 38.0847 65.1938C43.3195 67.7857 48.3653 70.743 53.1847 74.0438L53.3547 74.1638L53.2647 74.3438L45.0547 90.3838L44.9347 90.6138L44.7047 90.5038L44.1447 90.2438C42.7847 89.6438 41.5147 88.9338 40.1447 88.4438C38.8624 87.9041 37.4737 87.6646 36.0847 87.7438C33.3983 87.9388 30.7012 87.9388 28.0147 87.7438C25.5811 87.4027 23.2056 86.7298 20.9547 85.7438C18.9748 84.9735 17.0531 84.0612 15.2047 83.0138C12.5121 81.5149 10.0472 79.6393 7.8847 77.4438C7.30311 76.8456 6.75244 76.2181 6.23474 75.5638C6.04892 75.3389 5.87852 75.1017 5.72473 74.8538C5.9405 75.0487 6.13796 75.2629 6.3147 75.4938C6.6847 75.9238 7.25473 76.5438 8.03473 77.3038C10.2312 79.4228 12.7034 81.2358 15.3847 82.6938C17.2296 83.7116 19.1444 84.5972 21.1147 85.3438C23.3362 86.2825 25.6738 86.9182 28.0647 87.2338C30.7298 87.394 33.4028 87.3706 36.0647 87.1638C39.0647 86.9038 41.7147 88.5138 44.3447 89.7038L44.8947 89.9638L44.5547 90.0838L52.8147 74.0838L52.8947 74.3838C48.0949 71.0621 43.0843 68.0558 37.8947 65.3838C36.0047 64.3838 34.4947 63.6738 33.4647 63.1738L32.2847 62.5938C32.1669 62.5506 32.0531 62.4971 31.9447 62.4338V62.4338Z" fill="#263238"/>
<path d="M140.275 99.7838C140.087 98.7414 140.003 97.6828 140.025 96.6238C139.965 94.6238 140.025 91.9538 139.895 88.9838C139.835 87.4938 139.735 86.0838 139.575 84.8138C139.493 83.6899 139.223 82.5877 138.775 81.5538C138.45 80.8781 137.962 80.2938 137.355 79.8538C136.915 79.5438 136.625 79.4538 136.635 79.4138C136.931 79.4182 137.219 79.5085 137.465 79.6738C138.156 80.082 138.72 80.674 139.095 81.3838C139.631 82.4332 139.97 83.5721 140.095 84.7438C140.275 86.0338 140.395 87.4638 140.455 88.9638C140.555 91.9638 140.455 94.6638 140.455 96.6238C140.461 97.6799 140.401 98.7353 140.275 99.7838V99.7838Z" fill="#263238"/>
<path d="M156.675 95.3838C152.005 93.2427 147.488 90.7836 143.155 88.0238C147.822 90.1706 152.339 92.6295 156.675 95.3838V95.3838Z" fill="#263238"/>
<path d="M46.9387 70.7138C46.0408 71.0957 45.166 71.5298 44.3187 72.0138C42.3647 73.3016 40.8177 75.1191 39.8587 77.2538C38.9271 79.4094 38.4244 81.7259 38.3787 84.0738C38.3187 85.8838 38.4387 87.0038 38.3787 87.0138C38.2765 86.7659 38.219 86.5018 38.2087 86.2338C37.765 83.1175 38.1835 79.9391 39.4187 77.0438C40.4128 74.8167 42.0675 72.949 44.1587 71.6938C44.7884 71.3305 45.46 71.0451 46.1587 70.8438C46.4082 70.7518 46.6728 70.7077 46.9387 70.7138V70.7138Z" fill="#263238"/>
<path d="M43.2747 83.7038C42.357 83.8038 41.4295 83.648 40.5947 83.2538C39.7032 83.015 38.8918 82.542 38.2448 81.8838C39.1189 82.0797 39.9677 82.3749 40.7747 82.7638C41.6377 82.9919 42.4753 83.3068 43.2747 83.7038V83.7038Z" fill="#263238"/>
<path d="M43.9547 80.3838C43.0342 80.3078 42.1407 80.035 41.3347 79.5838C40.4598 79.2819 39.6589 78.7979 38.9847 78.1638C40.7454 78.671 42.4278 79.418 43.9847 80.3838H43.9547Z" fill="#263238"/>
<path d="M45.5147 77.3238C44.677 77.1463 43.8821 76.8065 43.1747 76.3238C42.3871 75.9824 41.6763 75.4858 41.0847 74.8638C41.9252 75.0327 42.7218 75.3731 43.4247 75.8638C44.6747 76.5438 45.5847 77.1938 45.5147 77.3238Z" fill="#263238"/>
<path d="M48.2387 75.1938C48.1187 75.2838 47.3687 74.3138 46.1887 73.4338C45.0087 72.5538 43.8787 72.0938 43.9187 71.9538C44.8532 72.0868 45.7391 72.4535 46.4942 73.0198C47.2493 73.5862 47.8494 74.3339 48.2387 75.1938V75.1938Z" fill="#263238"/>
<path d="M131.985 79.6638C132.035 79.6638 131.835 80.3138 131.615 81.4938C131.395 82.6738 131.215 84.4038 130.695 86.4938C130.411 87.6622 129.913 88.7676 129.225 89.7538C128.4 90.8736 127.306 91.7677 126.045 92.3538C123.19 93.7048 120.009 94.2147 116.875 93.8238C113.736 93.4642 110.762 92.2269 108.295 90.2538C106.31 88.6299 104.717 86.5789 103.635 84.2538C102.901 82.6967 102.422 81.0324 102.215 79.3238C102.153 78.8631 102.123 78.3987 102.125 77.9338C102.103 77.7746 102.103 77.613 102.125 77.4538C102.125 77.4538 102.195 78.1138 102.395 79.3038C102.679 80.9666 103.201 82.5798 103.945 84.0938C105.047 86.3388 106.627 88.3151 108.575 89.8838C110.994 91.7549 113.878 92.93 116.916 93.2825C119.955 93.6349 123.031 93.1513 125.815 91.8838C126.994 91.3287 128.023 90.4988 128.815 89.4638C129.485 88.5239 129.98 87.4702 130.275 86.3538C130.835 84.2938 131.055 82.5438 131.355 81.3538C131.46 80.9003 131.59 80.453 131.745 80.0138C131.809 79.8871 131.89 79.7694 131.985 79.6638V79.6638Z" fill="#263238"/>
<path d="M21.1937 90.1768L195.885 104.294C199.32 104.571 202.505 106.202 204.739 108.828C206.973 111.453 208.072 114.858 207.796 118.294L199.725 218.169C199.587 219.87 199.116 221.528 198.338 223.048C197.56 224.567 196.49 225.919 195.189 227.025C193.889 228.131 192.383 228.97 190.758 229.494C189.133 230.018 187.421 230.217 185.72 230.08L11.0287 215.967C7.85813 215.709 4.91948 214.203 2.85869 211.78C0.7979 209.357 -0.216433 206.215 0.0386808 203.044L8.27171 101.166C8.52818 97.9937 10.0342 95.0534 12.4584 92.9917C14.8827 90.9299 18.0266 89.9156 21.1987 90.1718L21.1937 90.1768Z" fill="#FFC100"/>
<g opacity="0.2">
<path opacity="0.2" d="M3.21472 163.974L208.005 115.954L206.745 131.494L1.5047 185.184L3.21472 163.974Z" fill="black"/>
</g>
<g opacity="0.2">
<path opacity="0.2" d="M118.155 98.0338L135.845 148.074L153.115 227.494L171.625 228.994L141.855 136.224L134.745 99.3738L118.155 98.0338Z" fill="black"/>
</g>
<path d="M30.2147 196.684L32.6247 196.884L32.2547 201.504C30.8284 202.346 29.1744 202.72 27.5247 202.574C26.721 202.553 25.9299 202.369 25.1999 202.032C24.4699 201.695 23.8164 201.213 23.2791 200.614C22.7418 200.016 22.3322 199.315 22.0752 198.553C21.8183 197.791 21.7194 196.985 21.7847 196.184C22.0447 192.794 24.8947 190.504 28.5247 190.794C29.419 190.826 30.2955 191.053 31.0921 191.461C31.8887 191.869 32.586 192.447 33.1347 193.154L31.3147 194.574C30.9797 194.13 30.5522 193.764 30.0618 193.501C29.5714 193.239 29.0299 193.086 28.4747 193.054C27.9949 192.993 27.5077 193.027 27.0414 193.156C26.575 193.284 26.1388 193.504 25.7578 193.802C25.3768 194.1 25.0587 194.471 24.8219 194.892C24.585 195.314 24.4341 195.779 24.3779 196.259C24.3216 196.739 24.3612 197.226 24.4942 197.691C24.6273 198.156 24.8512 198.59 25.153 198.968C25.4548 199.346 25.8286 199.661 26.2527 199.893C26.6767 200.126 27.1427 200.272 27.6237 200.324C27.6997 200.333 27.7777 200.34 27.8547 200.344C28.5672 200.416 29.2864 200.306 29.9447 200.024L30.2147 196.684Z" fill="white"/>
<path d="M35.5147 191.564L38.1447 191.774L37.2247 203.164L34.5947 202.954L35.5147 191.564Z" fill="white"/>
<path d="M43.3147 194.324L43.0747 197.324L48.3447 197.744L48.1747 199.864L42.9047 199.434L42.5647 203.584L39.9347 203.374L40.8547 191.984L49.4547 192.674L49.2847 194.794L43.3147 194.324Z" fill="white"/>
<path d="M53.5147 195.174L49.8747 194.884L50.0447 192.734L59.9747 193.534L59.8047 195.684L56.1547 195.394L55.4047 204.634L52.7747 204.384L53.5147 195.174Z" fill="white"/>
<path d="M143.195 217.754C143.195 217.894 115.755 215.874 81.9447 213.234C48.1347 210.594 20.6747 208.384 20.6747 208.204C20.6747 208.024 48.1147 210.084 81.9447 212.714C115.775 215.344 143.215 217.614 143.195 217.754Z" fill="white"/>
<path d="M131.015 135.604C127.505 136.434 123.815 135.784 120.385 134.684C116.955 133.584 113.675 132.054 110.215 131.054C101.678 128.634 92.5392 129.564 84.6648 133.654C84.4482 133.719 84.2484 133.831 84.0796 133.981C83.9107 134.132 83.7768 134.317 83.6872 134.525C83.5977 134.733 83.5546 134.957 83.5611 135.183C83.5676 135.41 83.6234 135.632 83.7248 135.834L92.2448 166.744C92.4343 167.833 92.9586 168.836 93.7448 169.614C94.9848 170.614 96.7448 170.254 98.3048 169.854C103.257 168.696 108.073 167.02 112.675 164.854C117.29 162.654 121.258 159.299 124.195 155.114C125.505 153.114 126.505 150.954 127.875 149.014C129.155 146.986 131.127 145.491 133.425 144.804L131.015 135.604Z" fill="#FFC100"/>
<path d="M193.185 145.924C190.945 132.784 188.695 119.574 184.345 106.984C175.615 106.804 167.345 111.054 160.415 116.364C153.485 121.674 147.415 128.084 140.415 133.294L140.515 142.724C143.106 141.846 145.912 141.828 148.515 142.674C151.084 143.507 153.577 144.561 155.965 145.824C161.485 148.651 167.402 150.623 173.515 151.674C179.635 152.564 186.115 151.944 191.575 149.034C192.295 148.753 192.879 148.205 193.205 147.504C193.328 146.983 193.321 146.441 193.185 145.924Z" fill="#FFC100"/>
<g opacity="0.3">
<path opacity="0.3" d="M131.015 135.604C127.505 136.434 123.815 135.784 120.385 134.684C116.955 133.584 113.675 132.054 110.215 131.054C101.678 128.634 92.5392 129.564 84.6648 133.654C84.4482 133.719 84.2484 133.831 84.0796 133.981C83.9107 134.132 83.7768 134.317 83.6872 134.525C83.5977 134.733 83.5546 134.957 83.5611 135.183C83.5676 135.41 83.6234 135.632 83.7248 135.834L92.2448 166.744C92.4343 167.833 92.9586 168.836 93.7448 169.614C94.9848 170.614 96.7448 170.254 98.3048 169.854C103.257 168.696 108.073 167.02 112.675 164.854C117.29 162.654 121.258 159.299 124.195 155.114C125.505 153.114 126.505 150.954 127.875 149.014C129.155 146.986 131.127 145.491 133.425 144.804L131.015 135.604Z" fill="black"/>
</g>
<path d="M131.015 135.604L131.195 136.174C131.315 136.594 131.475 137.174 131.695 137.914L133.595 144.734V144.854H133.475C131.862 145.303 130.414 146.21 129.305 147.464C127.994 148.99 126.873 150.669 125.965 152.464C124.884 154.541 123.54 156.471 121.965 158.204C120.195 160.128 118.177 161.81 115.965 163.204C111.365 166.204 105.715 168.134 99.6947 169.744C98.2047 170.104 96.6947 170.744 94.9347 170.434C94.5039 170.353 94.0948 170.183 93.7333 169.935C93.3718 169.687 93.0657 169.366 92.8347 168.994C92.4278 168.26 92.1281 167.472 91.9447 166.654C91.0747 163.504 90.1847 160.274 89.2747 157.004C87.9447 152.184 86.6547 147.474 85.3947 142.924C84.7747 140.654 84.1548 138.414 83.5548 136.234C83.3197 135.656 83.2708 135.02 83.4147 134.414C83.7337 133.884 84.2295 133.484 84.8147 133.284C85.7855 132.769 86.7875 132.314 87.8147 131.924C91.6711 130.418 95.7653 129.612 99.9047 129.544C103.549 129.45 107.185 129.939 110.675 130.994C113.825 131.994 116.535 133.174 118.985 133.994C121.057 134.786 123.21 135.349 125.405 135.674C126.793 135.874 128.2 135.904 129.595 135.764C130.545 135.654 131.075 135.534 131.055 135.554C130.935 135.601 130.811 135.638 130.685 135.664C130.332 135.749 129.975 135.816 129.615 135.864C128.211 136.049 126.789 136.049 125.385 135.864C123.164 135.573 120.984 135.033 118.885 134.254C116.415 133.414 113.695 132.254 110.565 131.254C103.177 129.094 95.2813 129.446 88.1148 132.254C87.1148 132.654 86.1148 133.094 85.1148 133.594C84.6148 133.844 84.1147 134.084 83.9447 134.484C83.8448 134.985 83.9007 135.505 84.1047 135.974C84.7107 138.161 85.3307 140.394 85.9647 142.674C87.2147 147.214 88.5147 151.924 89.8547 156.744C90.7547 160.024 91.6414 163.24 92.5147 166.394C92.6789 167.168 92.9587 167.913 93.3447 168.604C93.5371 168.917 93.7931 169.187 94.0963 169.396C94.3994 169.604 94.743 169.746 95.1047 169.814C96.5947 170.084 98.1047 169.514 99.6347 169.144C105.635 167.554 111.245 165.604 115.795 162.704C117.977 161.348 119.973 159.714 121.735 157.844C123.296 156.136 124.639 154.242 125.735 152.204C126.663 150.402 127.812 148.722 129.155 147.204C130.312 145.916 131.821 144.995 133.495 144.554L133.395 144.714C132.645 141.784 132.055 139.504 131.655 137.934L131.205 136.154C131.119 135.979 131.056 135.794 131.015 135.604V135.604Z" fill="#263238"/>
<g opacity="0.3">
<path opacity="0.3" d="M193.185 145.924C190.945 132.784 188.695 119.574 184.345 106.984C175.615 106.804 167.345 111.054 160.415 116.364C153.485 121.674 147.415 128.084 140.415 133.294L140.515 142.724C143.106 141.846 145.912 141.828 148.515 142.674C151.084 143.507 153.577 144.561 155.965 145.824C161.485 148.651 167.402 150.623 173.515 151.674C179.635 152.564 186.115 151.944 191.575 149.034C192.295 148.753 192.879 148.205 193.205 147.504C193.328 146.983 193.321 146.441 193.185 145.924Z" fill="black"/>
</g>
<path d="M193.185 145.924C193.293 146.277 193.344 146.645 193.335 147.014C193.319 147.481 193.126 147.924 192.795 148.254C192.345 148.676 191.823 149.015 191.255 149.254C187.685 151.065 183.756 152.056 179.755 152.154C174.645 152.404 168.475 151.244 162.025 148.694C160.411 148.027 158.774 147.324 157.115 146.584C155.445 145.824 153.775 144.964 152.035 144.194C150.277 143.378 148.422 142.794 146.515 142.454C144.544 142.089 142.512 142.251 140.625 142.924L140.285 143.054V142.694C140.285 139.694 140.215 136.514 140.175 133.264V133.134L140.285 133.054C143.585 130.594 146.825 127.744 150.095 124.804C155.455 119.974 160.735 115.244 166.535 111.914C172.335 108.584 178.535 106.584 184.345 106.724H184.505L184.555 106.864C187.55 116.064 189.847 125.478 191.425 135.024C192.035 138.474 192.475 141.184 192.775 143.024C192.915 143.934 193.025 144.634 193.095 145.144C193.106 145.326 193.132 145.506 193.175 145.684C193.183 145.747 193.183 145.811 193.175 145.874C193.169 145.811 193.152 145.75 193.125 145.694L193.015 145.154C192.921 144.654 192.791 143.954 192.625 143.054C192.285 141.174 191.785 138.484 191.155 135.054C189.498 125.544 187.159 116.167 184.155 106.994L184.355 107.144C178.635 107.024 172.495 108.974 166.805 112.314C161.115 115.654 155.805 120.314 150.465 125.164C147.185 128.104 143.935 130.964 140.605 133.434L140.715 133.224C140.715 136.474 140.775 139.654 140.805 142.654L140.465 142.424C142.435 141.732 144.551 141.567 146.605 141.944C148.555 142.293 150.451 142.895 152.245 143.734C154.005 144.514 155.665 145.384 157.325 146.144C158.985 146.904 160.595 147.624 162.205 148.264C167.751 150.644 173.73 151.849 179.765 151.804C183.731 151.737 187.635 150.805 191.205 149.074C191.766 148.831 192.28 148.493 192.725 148.074C193.041 147.77 193.233 147.361 193.265 146.924C193.254 146.588 193.227 146.255 193.185 145.924Z" fill="#263238"/>
<path d="M134.815 146.694C134.815 146.694 132.425 147.084 130.515 153.784C128.605 160.484 124.745 191.574 124.745 191.574L154.475 199.524L141.675 147.634L134.815 146.694Z" fill="#FFC100"/>
<path d="M143.765 146.604L161.255 180.224L176.675 160.444C176.675 160.444 157.115 143.234 144.675 143.544L143.765 146.604Z" fill="#FFC100"/>
<g opacity="0.3">
<path opacity="0.3" d="M134.815 146.694C134.815 146.694 132.425 147.084 130.515 153.784C128.605 160.484 124.745 191.574 124.745 191.574L154.475 199.524L141.675 147.634L134.815 146.694Z" fill="black"/>
</g>
<g opacity="0.3">
<path opacity="0.3" d="M143.765 146.604L161.255 180.224L176.675 160.444C176.675 160.444 157.115 143.234 144.675 143.544L143.765 146.604Z" fill="black"/>
</g>
<path d="M134.815 146.694C134.961 146.681 135.108 146.681 135.255 146.694L136.565 146.844L141.705 147.494H141.785V147.574C144.175 156.954 149.005 176.344 154.705 199.424L154.805 199.844L154.385 199.734L146.095 197.514L124.675 191.804H124.465V191.594C126.205 178.064 127.835 166.474 129.365 158.324C129.793 155.101 130.789 151.98 132.305 149.104C132.731 148.338 133.298 147.66 133.975 147.104C134.156 146.969 134.355 146.858 134.565 146.774C134.705 146.724 134.785 146.714 134.785 146.724L134.575 146.814C134.381 146.912 134.2 147.033 134.035 147.174C133.389 147.74 132.851 148.417 132.445 149.174C131.004 152.064 130.067 155.178 129.675 158.384C128.235 166.534 126.675 178.124 124.965 191.654L124.785 191.384L146.225 197.104L154.515 199.324L154.205 199.634C148.525 176.554 143.805 157.134 141.565 147.714L141.655 147.794L136.545 147.044L135.235 146.834L134.815 146.694Z" fill="#263238"/>
<path d="M143.765 146.604V146.414L143.915 145.824L144.575 143.524V143.464H144.675C147.675 143.294 152.675 144.534 158.255 147.464C164.909 151.03 171.147 155.323 176.855 160.264L177.035 160.424L176.885 160.614L169.815 169.674L161.455 180.384L161.205 180.694L161.025 180.344L148.565 156.174L144.995 149.174L144.055 147.294C143.935 147.085 143.838 146.863 143.765 146.634C143.765 146.634 143.905 146.854 144.145 147.284L145.145 149.144C146.025 150.814 147.285 153.144 148.855 156.144C152.005 162.144 156.385 170.494 161.455 180.144H161.035L169.425 169.384L176.505 160.334V160.674C170.833 155.749 164.651 151.445 158.065 147.834C152.495 144.884 147.635 143.584 144.675 143.674L144.755 143.614L144.015 145.864C143.935 146.094 143.875 146.294 143.815 146.444C143.802 146.498 143.785 146.552 143.765 146.604Z" fill="#263238"/>
<path d="M131.445 142.604C131.445 142.674 130.095 142.944 127.915 143.454C125.735 143.964 122.745 144.744 119.505 145.814C116.74 146.732 114.026 147.796 111.375 149.004C110.297 149.551 109.193 150.041 108.065 150.474C108.308 150.257 108.581 150.075 108.875 149.934C109.415 149.604 110.215 149.174 111.215 148.664C113.845 147.365 116.561 146.249 119.345 145.324C122.121 144.39 124.958 143.645 127.835 143.094C128.945 142.884 129.835 142.734 130.465 142.664C130.786 142.591 131.117 142.571 131.445 142.604V142.604Z" fill="#263238"/>
<path d="M130.375 139.384C129.254 139.482 128.129 139.519 127.005 139.494C124.302 139.549 121.604 139.76 118.925 140.124C115.795 140.564 112.985 141.174 110.925 141.634C109.84 141.925 108.737 142.149 107.625 142.304C107.888 142.155 108.171 142.044 108.465 141.974C109.025 141.784 109.835 141.544 110.835 141.274C113.464 140.552 116.136 139.997 118.835 139.614C121.534 139.237 124.259 139.073 126.985 139.124C127.985 139.124 128.875 139.194 129.455 139.244C129.767 139.244 130.077 139.291 130.375 139.384V139.384Z" fill="#263238"/>
<path d="M172.225 128.284C172.225 128.374 170.635 128.364 168.065 128.584C164.731 128.861 161.434 129.478 158.225 130.424C155.023 131.396 151.935 132.71 149.015 134.344C146.785 135.614 145.485 136.544 145.425 136.464C145.689 136.195 145.981 135.953 146.295 135.744C147.107 135.124 147.955 134.553 148.835 134.034C151.727 132.276 154.832 130.895 158.075 129.924C161.329 128.96 164.685 128.386 168.075 128.214C169.094 128.147 170.116 128.147 171.135 128.214C171.5 128.197 171.865 128.221 172.225 128.284V128.284Z" fill="#263238"/>
<path d="M170.675 137.264C170.383 137.413 170.074 137.524 169.755 137.594C169.165 137.784 168.295 138.014 167.205 138.264C164.368 138.916 161.487 139.354 158.585 139.574C155.682 139.796 152.767 139.796 149.865 139.574C148.755 139.474 147.865 139.374 147.235 139.274C146.911 139.251 146.592 139.187 146.285 139.084C147.486 139.063 148.688 139.103 149.885 139.204C152.772 139.32 155.663 139.27 158.545 139.054C161.423 138.824 164.287 138.44 167.125 137.904C168.296 137.629 169.481 137.416 170.675 137.264V137.264Z" fill="#263238"/>
<path d="M146.675 140.384C146.303 138.582 145.648 136.851 144.735 135.254C143.985 133.844 143.735 132.444 141.735 131.694C140.84 131.442 139.9 131.401 138.987 131.575C138.074 131.748 137.214 132.131 136.475 132.694C135.175 131.484 133.015 132.174 131.615 133.264C130.933 133.844 130.397 134.576 130.049 135.401C129.702 136.226 129.553 137.121 129.615 138.014C129.769 139.79 130.345 141.505 131.295 143.014C132.523 145.323 134.418 147.209 136.735 148.424C137.787 148.927 138.949 149.156 140.114 149.089C141.278 149.023 142.407 148.663 143.395 148.044C144.66 147.256 145.652 146.099 146.239 144.729C146.825 143.36 146.978 141.843 146.675 140.384Z" fill="#FFC100"/>
<g opacity="0.3">
<path opacity="0.3" d="M146.675 140.384C146.303 138.582 145.648 136.851 144.735 135.254C143.985 133.844 143.735 132.444 141.735 131.694C140.84 131.442 139.9 131.401 138.987 131.575C138.074 131.748 137.214 132.131 136.475 132.694C135.175 131.484 133.015 132.174 131.615 133.264C130.933 133.844 130.397 134.576 130.049 135.401C129.702 136.226 129.553 137.121 129.615 138.014C129.769 139.79 130.345 141.505 131.295 143.014C132.523 145.323 134.418 147.209 136.735 148.424C137.787 148.927 138.949 149.156 140.114 149.089C141.278 149.023 142.407 148.663 143.395 148.044C144.66 147.256 145.652 146.099 146.239 144.729C146.825 143.36 146.978 141.843 146.675 140.384Z" fill="black"/>
</g>
<path d="M146.675 140.384C146.747 140.563 146.794 140.752 146.815 140.944C146.892 141.48 146.915 142.023 146.885 142.564C146.778 144.293 146.055 145.927 144.845 147.168C143.636 148.408 142.021 149.173 140.295 149.324C138.668 149.442 137.048 149.02 135.685 148.124C134.192 147.16 132.912 145.901 131.925 144.424C130.803 142.884 129.998 141.137 129.555 139.284C129.294 138.228 129.307 137.122 129.592 136.073C129.877 135.023 130.425 134.063 131.185 133.284C131.947 132.606 132.864 132.126 133.855 131.884C134.335 131.744 134.843 131.726 135.332 131.833C135.821 131.939 136.276 132.167 136.655 132.494H136.325C137.242 131.731 138.383 131.288 139.575 131.234C140.64 131.087 141.723 131.31 142.645 131.864C143.428 132.397 144.029 133.158 144.365 134.044C144.695 134.814 145.065 135.474 145.365 136.124C145.844 137.105 146.219 138.134 146.485 139.194C146.56 139.473 146.617 139.757 146.655 140.044V140.334C146.655 140.334 146.545 139.944 146.325 139.234C146.002 138.2 145.59 137.197 145.095 136.234C144.785 135.624 144.385 134.934 144.035 134.174C143.717 133.357 143.155 132.659 142.425 132.174C141.568 131.683 140.571 131.496 139.595 131.644C138.496 131.7 137.445 132.107 136.595 132.804L136.435 132.964L136.275 132.814C135.95 132.545 135.564 132.36 135.15 132.276C134.737 132.192 134.309 132.212 133.905 132.334C133.002 132.56 132.168 133.003 131.475 133.624C130.788 134.342 130.293 135.221 130.036 136.18C129.779 137.14 129.769 138.149 130.005 139.114C130.433 140.897 131.208 142.579 132.285 144.064C133.229 145.486 134.45 146.703 135.875 147.644C137.149 148.502 138.671 148.916 140.205 148.824C141.539 148.728 142.815 148.241 143.875 147.424C144.649 146.834 145.293 146.091 145.766 145.241C146.239 144.391 146.531 143.452 146.625 142.484C146.687 141.786 146.704 141.084 146.675 140.384Z" fill="#263238"/>
<path d="M135.185 147.514C135.115 147.454 135.685 146.764 136.355 145.514C137.235 143.899 137.778 142.123 137.95 140.292C138.122 138.461 137.919 136.614 137.355 134.864C136.925 133.514 136.485 132.744 136.565 132.694C137.078 133.294 137.466 133.991 137.705 134.744C138.39 136.523 138.657 138.435 138.485 140.334C138.313 142.235 137.7 144.071 136.695 145.694C136.316 146.394 135.803 147.012 135.185 147.514V147.514Z" fill="#263238"/>
<path d="M145.425 136.464C145.492 137.189 145.431 137.92 145.245 138.624C144.913 140.343 144.291 141.993 143.405 143.504C142.524 145.03 141.376 146.385 140.015 147.504C139.481 147.997 138.86 148.387 138.185 148.654C140.053 147.128 141.663 145.311 142.955 143.274C144.995 139.784 145.245 136.384 145.425 136.464Z" fill="#263238"/>
<path d="M122.175 137.384C121.694 137.32 121.219 137.216 120.755 137.074L116.915 136.074C112.716 134.898 108.438 134.026 104.115 133.464C99.7883 132.909 95.4014 133.037 91.1147 133.844C89.8224 134.1 88.5467 134.434 87.2947 134.844C86.8381 135.018 86.3703 135.161 85.8947 135.274C86.3128 135.017 86.7591 134.809 87.2247 134.654C88.4628 134.164 89.7365 133.77 91.0347 133.474C95.3424 132.551 99.7757 132.368 104.145 132.934C108.494 133.498 112.789 134.425 116.985 135.704C118.595 136.174 119.885 136.584 120.775 136.874C121.256 137.002 121.724 137.173 122.175 137.384V137.384Z" fill="white"/>
<path d="M117.155 142.034C115.864 142.355 114.55 142.572 113.225 142.684C111.925 142.969 110.604 143.146 109.275 143.214C111.777 142.225 114.472 141.821 117.155 142.034V142.034Z" fill="white"/>
<path d="M115.225 148.474C115.285 148.604 114.625 149.024 113.755 149.414C112.885 149.804 112.135 150.004 112.075 149.874C112.015 149.744 112.675 149.324 113.545 148.934C114.057 148.641 114.635 148.483 115.225 148.474Z" fill="white"/>
<path d="M132.125 141.074C131.812 140.758 131.582 140.37 131.455 139.944C131.082 138.937 130.941 137.86 131.043 136.791C131.145 135.723 131.488 134.691 132.045 133.774C132.264 133.379 132.568 133.037 132.935 132.774C132.235 134.03 131.768 135.402 131.555 136.824C131.499 138.263 131.692 139.7 132.125 141.074V141.074Z" fill="white"/>
<path d="M139.055 142.534C139.025 141.772 139.062 141.009 139.165 140.254C139.093 139.495 139.093 138.732 139.165 137.974C139.503 138.691 139.666 139.479 139.64 140.272C139.614 141.065 139.4 141.84 139.015 142.534H139.055Z" fill="white"/>
<path d="M160.055 119.594C157.792 121.662 155.419 123.604 152.945 125.414C150.573 127.349 148.096 129.152 145.525 130.814C147.784 128.743 150.158 126.799 152.635 124.994C155.007 123.058 157.484 121.255 160.055 119.594V119.594Z" fill="white"/>
<path d="M154.775 133.024C153.415 134.07 151.857 134.829 150.195 135.254C150.825 134.664 151.566 134.205 152.375 133.904C153.106 133.449 153.923 133.149 154.775 133.024V133.024Z" fill="white"/>
<path d="M131.865 159.854C131.593 157.929 131.695 155.97 132.165 154.084C132.471 152.161 133.15 150.316 134.165 148.654C134.305 148.714 133.325 151.094 132.705 154.184C132.085 157.274 132.015 159.854 131.865 159.854Z" fill="white"/>
<path d="M152.675 157.924C151.08 155.337 149.788 152.576 148.825 149.694C149.696 150.94 150.421 152.282 150.985 153.694C151.705 155.036 152.272 156.455 152.675 157.924V157.924Z" fill="white"/>
<path d="M56.1847 104.304C56.1847 104.454 50.0247 103.854 42.4747 102.984C34.9247 102.114 28.8047 101.284 28.8147 101.144C28.8247 101.004 34.9747 101.594 42.5347 102.464C50.0947 103.334 56.2047 104.164 56.1847 104.304Z" fill="white"/>
<path d="M211.405 145.914V142.474C211.281 141.358 210.721 140.336 209.845 139.633C208.97 138.93 207.851 138.603 206.735 138.724L199.955 139.394L196.105 141.804C196.044 142.331 196.194 142.86 196.524 143.276C196.853 143.692 197.334 143.96 197.861 144.021C197.942 144.03 198.023 144.034 198.105 144.034L192.945 145.984C192.836 146.288 192.807 146.615 192.859 146.933C192.911 147.252 193.044 147.552 193.243 147.806C193.443 148.06 193.704 148.259 194.002 148.384C194.299 148.51 194.624 148.558 194.945 148.524L192.805 149.674C192.733 150.084 192.76 150.505 192.885 150.902C193.011 151.299 193.23 151.66 193.524 151.954C193.818 152.249 194.179 152.468 194.576 152.593C194.973 152.718 195.395 152.746 195.805 152.674C195.805 152.674 194.245 154.224 197.805 155.044C199.326 155.46 200.883 155.734 202.455 155.864L204.545 158.654L204.345 161.164C204.345 161.164 207.715 161.554 208.345 160.224C208.784 158.936 209.003 157.584 208.995 156.224C209.684 156.143 210.316 155.8 210.76 155.266C211.203 154.731 211.423 154.046 211.375 153.354C212.039 152.705 212.468 151.853 212.595 150.934C212.721 150.014 212.538 149.078 212.075 148.274C211.802 147.502 211.578 146.714 211.405 145.914Z" fill="#BE8671"/>
<path d="M208.595 155.574C208.515 155.574 208.145 154.864 207.365 153.804C206.921 153.186 206.368 152.655 205.735 152.234C204.979 151.722 204.088 151.443 203.175 151.434C202.175 151.434 201.175 151.644 200.335 151.714C199.564 151.788 198.798 151.915 198.045 152.094C197.354 152.304 196.649 152.464 195.935 152.574C196.554 152.192 197.228 151.908 197.935 151.734C198.696 151.502 199.475 151.335 200.265 151.234C201.145 151.144 202.085 150.944 203.155 150.914C204.17 150.926 205.157 151.247 205.985 151.834C206.65 152.307 207.217 152.905 207.655 153.594C208.092 154.188 208.411 154.86 208.595 155.574V155.574Z" fill="#A24C2C"/>
<path d="M210.795 151.714C210.146 151.038 209.563 150.301 209.055 149.514C208.508 148.685 207.882 147.911 207.185 147.204C206.771 146.84 206.26 146.604 205.715 146.524C205.102 146.47 204.484 146.514 203.885 146.654C201.345 147.284 199.025 147.874 197.345 148.254C196.446 148.51 195.525 148.684 194.595 148.774C195.451 148.396 196.342 148.101 197.255 147.894C198.915 147.424 201.255 146.774 203.785 146.144C204.44 145.989 205.116 145.949 205.785 146.024C206.427 146.118 207.027 146.404 207.505 146.844C208.219 147.589 208.84 148.419 209.355 149.314C209.901 150.072 210.383 150.875 210.795 151.714V151.714Z" fill="#A24C2C"/>
<path d="M210.505 145.274C209.841 144.989 209.258 144.546 208.805 143.984C208.308 143.436 207.727 142.97 207.085 142.604C206.258 142.268 205.343 142.219 204.485 142.464C202.189 143.173 199.851 143.737 197.485 144.154C198.118 143.82 198.79 143.565 199.485 143.394C200.735 143.004 202.485 142.394 204.405 141.944C205.373 141.69 206.398 141.771 207.315 142.174C208 142.578 208.604 143.107 209.095 143.734C209.905 144.744 210.539 145.214 210.505 145.274Z" fill="#A24C2C"/>
<path d="M43.3647 84.2338L47.9647 85.8738C47.9647 85.8738 51.0347 96.1138 52.6747 96.3138C54.3147 96.5138 56.3647 98.5738 58.0047 96.7238C58.0047 96.7238 60.3547 98.5738 61.6847 96.5238C61.6847 96.5238 66.6047 97.4438 67.1147 96.0138L67.6247 94.5738C67.6247 94.5738 75.6247 104.574 77.2547 104.574C78.8847 104.574 79.2547 103.644 78.6847 102.424C78.1147 101.204 70.1847 88.2938 68.3447 86.1438C66.5047 83.9938 58.2047 73.8938 50.6747 73.8938C50.6747 73.8938 45.2447 76.3538 43.9147 80.1438C42.5847 83.9338 43.3647 84.2338 43.3647 84.2338Z" fill="#BE8671"/>
<path d="M52.0247 73.5838C51.0462 73.9255 50.088 74.3228 49.1547 74.7738C46.9447 75.9406 45.1979 77.8251 44.2019 80.1171C43.2058 82.4091 43.0199 84.972 43.6748 87.3838C43.98 88.3732 44.3406 89.3448 44.7547 90.2938C44.5592 90.0875 44.3881 89.8593 44.2448 89.6138C43.8563 88.942 43.5475 88.2272 43.3247 87.4838C42.5525 84.9937 42.7038 82.3086 43.7507 79.9209C44.7976 77.5333 46.67 75.6029 49.0247 74.4838C49.7211 74.14 50.4564 73.8815 51.2147 73.7138C51.4761 73.6277 51.7495 73.5838 52.0247 73.5838V73.5838Z" fill="#263238"/>
<path d="M65.9447 91.6638C66.3498 92.0328 66.709 92.4491 67.0147 92.9038C67.6347 93.6938 68.4848 94.8038 69.4048 96.0238L71.7448 99.1838C72.1001 99.5986 72.4086 100.051 72.6648 100.534C72.5248 100.664 70.8248 98.8038 68.9848 96.3438C67.1448 93.8838 65.7947 91.7638 65.9447 91.6638Z" fill="#A24C2C"/>
<path d="M60.6748 95.1438C60.7948 95.0538 61.1347 95.3038 61.4347 95.7038C61.7347 96.1038 61.8947 96.5038 61.7847 96.5838C61.6747 96.6638 61.3247 96.4238 61.0247 96.0238C60.7247 95.6238 60.5648 95.2238 60.6748 95.1438Z" fill="#A24C2C"/>
<path d="M56.9547 95.9838C57.0536 96.0013 57.1474 96.0409 57.2288 96.0998C57.3102 96.1587 57.3772 96.2353 57.4247 96.3238C57.5747 96.5438 57.6747 96.7738 57.5847 96.8838C57.4947 96.9938 57.1948 96.8838 56.9948 96.6138C56.7948 96.3438 56.8247 96.0238 56.9547 95.9838Z" fill="#A24C2C"/>
<path d="M68.5947 88.2938C68.6547 88.2938 68.7647 88.4438 68.7647 88.7538C68.7553 88.9592 68.7034 89.1603 68.6122 89.3445C68.5209 89.5287 68.3924 89.6919 68.2347 89.8238C68.0783 89.9554 67.896 90.0527 67.6996 90.1095C67.5033 90.1663 67.2972 90.1814 67.0947 90.1538C66.7847 90.1038 66.6347 89.9638 66.6647 89.9038C67.1134 89.8571 67.5415 89.6913 67.9047 89.4238C68.4447 88.9438 68.4547 88.3038 68.5947 88.2938Z" fill="#A24C2C"/>
<path d="M63.5387 92.1938C63.6087 92.1938 63.6187 92.4138 63.4887 92.6938C63.3003 93.0473 63.0065 93.3335 62.6482 93.5127C62.2898 93.6919 61.8846 93.7552 61.4887 93.6938C61.1887 93.6238 61.0387 93.4938 61.0587 93.4238C61.5301 93.369 61.9913 93.2478 62.4287 93.0638C63.0947 92.7038 63.3947 92.1538 63.5387 92.1938Z" fill="#A24C2C"/>
</svg>
