<svg width="220" height="220" viewBox="0 0 220 220" fill="none" xmlns="http://www.w3.org/2000/svg">
<path d="M110.211 214.196C163.925 214.196 207.469 188.542 207.469 156.895C207.469 125.249 163.925 99.594 110.211 99.594C56.4973 99.594 12.9536 125.249 12.9536 156.895C12.9536 188.542 56.4973 214.196 110.211 214.196Z" fill="#F5F5F5"/>
<path d="M43.3488 164.05C49.7302 164.05 54.9032 161.002 54.9032 157.243C54.9032 153.483 49.7302 150.436 43.3488 150.436C36.9675 150.436 31.7944 153.483 31.7944 157.243C31.7944 161.002 36.9675 164.05 43.3488 164.05Z" fill="#E0E0E0"/>
<path d="M76.2431 186.674C87.0739 186.674 95.8539 181.501 95.8539 175.12C95.8539 168.739 87.0739 163.566 76.2431 163.566C65.4124 163.566 56.6323 168.739 56.6323 175.12C56.6323 181.501 65.4124 186.674 76.2431 186.674Z" fill="#E0E0E0"/>
<path d="M131.221 153.714C142.052 153.714 150.832 148.541 150.832 142.16C150.832 135.778 142.052 130.605 131.221 130.605C120.39 130.605 111.61 135.778 111.61 142.16C111.61 148.541 120.39 153.714 131.221 153.714Z" fill="#E0E0E0"/>
<path d="M152.103 163.051C161.192 163.051 168.559 158.709 168.559 153.353C168.559 147.997 161.192 143.656 152.103 143.656C143.015 143.656 135.647 147.997 135.647 153.353C135.647 158.709 143.015 163.051 152.103 163.051Z" fill="#E0E0E0"/>
<path d="M172.977 178.658C183.808 178.658 192.588 173.485 192.588 167.103C192.588 160.722 183.808 155.549 172.977 155.549C162.146 155.549 153.366 160.722 153.366 167.103C153.366 173.485 162.146 178.658 172.977 178.658Z" fill="#E0E0E0"/>
<path d="M98.5556 131.314C107.644 131.314 115.012 126.972 115.012 121.616C115.012 116.26 107.644 111.918 98.5556 111.918C89.4672 111.918 82.0996 116.26 82.0996 121.616C82.0996 126.972 89.4672 131.314 98.5556 131.314Z" fill="#E0E0E0"/>
<path d="M106.594 125.616C102.155 128.181 94.9563 128.181 90.5167 125.616C86.0771 123.05 86.0771 118.897 90.5167 116.332C94.9563 113.766 102.155 113.771 106.594 116.332C111.034 118.892 111.034 123.055 106.594 125.616Z" fill="#9269AD"/>
<path opacity="0.4" d="M106.594 125.616C102.155 128.181 94.9563 128.181 90.5167 125.616C86.0771 123.05 86.0771 118.897 90.5167 116.332C94.9563 113.766 102.155 113.771 106.594 116.332C111.034 118.892 111.034 123.055 106.594 125.616Z" fill="black"/>
<path d="M106.594 125.616C102.155 128.181 94.9564 128.181 90.5168 125.616C88.3168 124.335 87.1904 122.654 87.1904 120.974V122.351C87.23 124.001 88.3388 125.642 90.5124 126.896C94.952 129.461 102.15 129.461 106.59 126.896C108.865 125.576 109.969 123.856 109.916 122.14V121.092C109.868 122.734 108.764 124.366 106.594 125.616Z" fill="#9269AD"/>
<path opacity="0.6" d="M106.594 125.616C102.155 128.181 94.9564 128.181 90.5168 125.616C88.3168 124.335 87.1904 122.654 87.1904 120.974V122.351C87.23 124.001 88.3388 125.642 90.5124 126.896C94.952 129.461 102.15 129.461 106.59 126.896C108.865 125.576 109.969 123.856 109.916 122.14V121.092C109.868 122.734 108.764 124.366 106.594 125.616Z" fill="black"/>
<path d="M97.0244 78.2628V120.12C97.0244 122.091 100.104 122.091 100.104 120.12V78.2628C100.104 76.2916 97.0244 76.2872 97.0244 78.2628Z" fill="#9269AD"/>
<path d="M94.9917 71.8388V81.1492C94.9917 81.6772 95.3393 82.2008 96.0345 82.6056C96.8164 83.0025 97.681 83.2094 98.5579 83.2094C99.4348 83.2094 100.299 83.0025 101.081 82.6056C101.777 82.2008 102.124 81.6772 102.124 81.1492V71.8388H94.9917Z" fill="#9269AD"/>
<path opacity="0.7" d="M94.9917 71.8388V81.1492C94.9917 81.6772 95.3393 82.2008 96.0345 82.6056C96.8164 83.0025 97.681 83.2094 98.5579 83.2094C99.4348 83.2094 100.299 83.0025 101.081 82.6056C101.777 82.2008 102.124 81.6772 102.124 81.1492V71.8388H94.9917Z" fill="black"/>
<path d="M98.5557 72.1732C110.086 72.1732 119.434 66.7756 119.434 60.1172C119.434 53.4589 110.086 48.0612 98.5557 48.0612C87.0251 48.0612 77.6777 53.4589 77.6777 60.1172C77.6777 66.7756 87.0251 72.1732 98.5557 72.1732Z" fill="#9269AD"/>
<path opacity="0.4" d="M98.5557 72.1732C110.086 72.1732 119.434 66.7756 119.434 60.1172C119.434 53.4589 110.086 48.0612 98.5557 48.0612C87.0251 48.0612 77.6777 53.4589 77.6777 60.1172C77.6777 66.7756 87.0251 72.1732 98.5557 72.1732Z" fill="black"/>
<path d="M113.322 68.64C105.169 73.348 91.9469 73.348 83.7937 68.64C79.7149 66.286 77.6777 63.2016 77.6777 60.1128V62.6472C77.7525 65.67 79.7853 68.684 83.7849 71.0072C91.9381 75.7152 105.16 75.7152 113.313 71.0072C117.485 68.6004 119.517 65.4236 119.421 62.2688V60.3504C119.337 63.36 117.304 66.3432 113.322 68.64Z" fill="#9269AD"/>
<path opacity="0.6" d="M113.322 68.64C105.169 73.348 91.9469 73.348 83.7937 68.64C79.7149 66.286 77.6777 63.2016 77.6777 60.1128V62.6472C77.7525 65.67 79.7853 68.684 83.7849 71.0072C91.9381 75.7152 105.16 75.7152 113.313 71.0072C117.485 68.6004 119.517 65.4236 119.421 62.2688V60.3504C119.337 63.36 117.304 66.3432 113.322 68.64Z" fill="black"/>
<path d="M43.8989 142.428C43.8989 142.428 37.4925 136.176 41.1357 125.708C43.1817 119.834 49.9357 115.522 53.8077 115.117C52.5298 116.634 51.5115 118.351 50.7937 120.199L45.9537 123.424L50.4197 122.03L49.4517 125.84C49.4517 125.84 45.2981 128.352 44.6821 128.898L49.1613 127.728C49.1613 127.728 48.8401 138.543 43.8989 142.428Z" fill="#9269AD"/>
<path opacity="0.4" d="M43.8989 142.428C43.8989 142.428 37.4925 136.176 41.1357 125.708C43.1817 119.834 49.9357 115.522 53.8077 115.117C52.5298 116.634 51.5115 118.351 50.7937 120.199L45.9537 123.424L50.4197 122.03L49.4517 125.84C49.4517 125.84 45.2981 128.352 44.6821 128.898L49.1613 127.728C49.1613 127.728 48.8401 138.543 43.8989 142.428Z" fill="black"/>
<path d="M43.8989 142.428C43.8989 142.428 40.5813 129.338 45.4873 121.704C45.4873 121.704 39.7365 128.44 43.8989 142.428Z" fill="white"/>
<path d="M51.2293 144.201L43.3929 144.104H43.3093L35.4729 144.201C35.4729 144.201 35.3849 153.859 38.3593 157.788C39.1821 158.831 41.1049 159.548 43.3489 159.548C45.5929 159.548 47.5289 158.809 48.3473 157.762C51.3173 153.85 51.2293 144.201 51.2293 144.201Z" fill="#37474F"/>
<path d="M43.3491 148.43C47.6989 148.43 51.2251 146.536 51.2251 144.201C51.2251 141.866 47.6989 139.973 43.3491 139.973C38.9993 139.973 35.4731 141.866 35.4731 144.201C35.4731 146.536 38.9993 148.43 43.3491 148.43Z" fill="#455A64"/>
<path d="M43.3489 143.079C46.0593 143.079 48.3561 143.959 49.1657 145.152C49.3642 144.874 49.4731 144.542 49.4781 144.201C49.4781 142.534 46.7369 141.178 43.3489 141.178C39.9609 141.178 37.2241 142.534 37.2241 144.201C37.2291 144.542 37.3381 144.874 37.5365 145.152C38.3461 143.95 40.6385 143.079 43.3489 143.079Z" fill="#263238"/>
<path d="M43.349 143.079C40.6386 143.079 38.3462 143.959 37.5366 145.152C38.3462 146.357 40.6166 147.228 43.349 147.228C46.0814 147.228 48.3562 146.348 49.1658 145.152C48.3562 143.95 46.0594 143.079 43.349 143.079Z" fill="#E0E0E0"/>
<path d="M43.4458 145.675C43.4458 145.675 40.4098 145.556 37.805 141.526C36.7314 139.863 36.2166 138.987 36.2166 138.987L40.445 138.675L35.7062 137.491L33.4666 134.064L37.4266 133.773C37.4266 133.773 34.4918 132.744 32.4018 132.73C32.4018 132.73 28.7718 126.32 27.707 125.404C30.448 125.577 33.1269 126.296 35.5858 127.519C38.0447 128.743 40.2339 130.446 42.0246 132.528C47.991 139.586 44.3346 145.856 43.4458 145.675Z" fill="#9269AD"/>
<path d="M43.4458 145.675C43.4458 145.675 45.3466 134.235 33.229 127.358C33.229 127.358 45.8042 133.399 43.4458 145.675Z" fill="white"/>
<path d="M43.4458 145.675C43.4458 145.675 46.1958 145.856 48.9282 142.463C50.0546 141.064 50.6002 140.325 50.6002 140.325L46.8162 139.643L51.2162 139.018L53.557 136.14L50.037 135.502C50.037 135.502 52.7782 134.856 54.6658 135.062C54.6658 135.062 58.5422 129.62 59.5894 128.902C57.0968 128.797 54.6083 129.192 52.2708 130.064C49.9334 130.936 47.7944 132.267 45.9802 133.98C39.9214 139.753 42.6318 145.754 43.4458 145.675Z" fill="#9269AD"/>
<path opacity="0.2" d="M43.4458 145.675C43.4458 145.675 46.1958 145.856 48.9282 142.463C50.0546 141.064 50.6002 140.325 50.6002 140.325L46.8162 139.643L51.2162 139.018L53.557 136.14L50.037 135.502C50.037 135.502 52.7782 134.856 54.6658 135.062C54.6658 135.062 58.5422 129.62 59.5894 128.902C57.0968 128.797 54.6083 129.192 52.2708 130.064C49.9334 130.936 47.7944 132.267 45.9802 133.98C39.9214 139.753 42.6318 145.754 43.4458 145.675Z" fill="black"/>
<path d="M43.4456 145.675C43.4456 145.675 42.812 135.177 54.3928 130.112C54.3928 130.112 42.4776 134.38 43.4456 145.675Z" fill="white"/>
<path d="M133.254 134.64C133.254 134.64 132.471 135.08 132.326 136.748C132.18 138.415 130.68 141.539 134.262 141.68C137.843 141.821 137.342 141.992 138.811 142.582C140.281 143.172 143.431 144.492 145.948 142.714C148.465 140.936 145.561 139.99 144.514 139.634C143.466 139.278 140.778 138.248 139.234 137.064C137.689 135.881 137.474 135.502 137.474 135.502L133.254 134.64Z" fill="#263238"/>
<path d="M121.699 138.807C121.699 138.807 121.083 138.983 121.053 140.215C121.022 141.447 120.054 143.295 121.374 144.421C122.694 145.548 122.892 145.389 123.693 147.092C124.493 148.795 126.333 151.105 130.174 150.256C134.015 149.406 131.595 147.101 131.265 146.762C130.935 146.423 127.195 142.71 126.781 141.482C126.56 140.806 126.28 140.151 125.945 139.524L121.699 138.807Z" fill="#263238"/>
<path d="M121.678 137.28V139.542C121.678 139.542 121.951 140.611 124.058 140.611C125.185 140.611 125.924 139.938 125.946 139.542V137.056L121.678 137.28Z" fill="#FFA8A7"/>
<path d="M133.214 133.223V135.489C133.214 135.489 133.487 136.554 135.59 136.554C136.721 136.554 137.46 135.881 137.478 135.485V132.999L133.214 133.223Z" fill="#FFA8A7"/>
<path d="M139.647 80.3176L141.271 106.511C141.347 107.746 141.3 108.986 141.13 110.211L137.79 134.446C137.79 134.446 135.106 135.639 132.84 133.756L131.52 114.396C131.412 112.755 131.64 111.11 132.189 109.56L132.704 108.095L128.018 82.1348L139.647 80.3176Z" fill="#455A64"/>
<path d="M136.435 87.1729C136.435 87.1729 135.643 90.2529 131.683 92.1845L130.887 98.0233L129.171 88.5193L136.435 87.1729Z" fill="#37474F"/>
<path d="M137.72 81.3736C137.72 81.3736 138.279 86.3368 134.447 89.5444C133.386 90.4853 132.088 91.117 130.693 91.3704L129.431 109.78L126.351 138.543C126.351 138.543 124.494 140.096 121.071 138.543L119.447 116.983C119.265 114.566 119.703 112.143 120.719 109.943L120.793 109.789C119.93 100.22 119.621 90.6088 119.869 81.004L137.72 81.3736Z" fill="#455A64"/>
<path d="M142.965 62.326L144.355 65.0849C144.355 65.0849 150.586 67.2849 154.264 67.2145L155.861 71.0865C152.908 71.306 149.944 71.3383 146.986 71.1833C142.652 70.9061 142.01 70.7961 140.73 69.1505C139.449 67.5049 137.544 64.4821 137.544 64.4821L142.965 62.326Z" fill="#FFA8A7"/>
<path d="M154.264 67.2144C154.601 66.9844 154.915 66.7221 155.201 66.4312C155.589 66.0176 155.817 65.5952 157.432 65.1992C158.475 64.9396 158.673 64.1213 159.236 64.3941C159.799 64.6669 158.827 66.5148 157.709 66.8228C158.514 66.9112 159.328 66.8024 160.081 66.506C161.027 66.0264 162.514 65.3708 163.113 65.5776C163.711 65.7844 163.799 69.0976 161.63 70.3428C159.461 71.588 154.981 71.0028 154.981 71.0028L154.264 67.2144Z" fill="#FFA8A7"/>
<path d="M133.267 49.9136C134.243 49.7187 135.257 49.8432 136.157 50.2688C137.057 50.6943 137.796 51.3982 138.265 52.2764L143.545 62.128C143.545 62.128 142.12 65.12 137.544 65.2828L133.267 49.9136Z" fill="#9269AD"/>
<path opacity="0.2" d="M133.267 49.9136C134.243 49.7187 135.257 49.8432 136.157 50.2688C137.057 50.6943 137.796 51.3982 138.265 52.2764L143.545 62.128C143.545 62.128 142.12 65.12 137.544 65.2828L133.267 49.9136Z" fill="white"/>
<path d="M120.076 67.2012L118.501 71.2492L116.851 84.942L112.891 86.196C112.891 86.196 112.556 77.9592 112.724 72.424C112.768 70.9425 113.044 69.4772 113.542 68.0812L114.651 64.9616L120.076 67.2012Z" fill="#FFA8A7"/>
<path d="M125.84 51.3172L120.842 52.7472L119.874 66.7084V80.9952C119.874 80.9952 122.98 83.688 130.359 83.688C133.748 83.6182 137.02 82.4336 139.669 80.3176V62.326C139.669 60.7156 140.312 51.4932 133.289 49.9136L132.088 50.1512L125.84 51.3172Z" fill="#9269AD"/>
<path opacity="0.5" d="M125.84 51.3172L120.842 52.7472L119.874 66.7084V80.9952C119.874 80.9952 122.98 83.688 130.359 83.688C133.748 83.6182 137.02 82.4336 139.669 80.3176V62.326C139.669 60.7156 140.312 51.4932 133.289 49.9136L132.088 50.1512L125.84 51.3172Z" fill="white"/>
<path d="M123.64 51.92C123.64 51.92 125.308 53.57 124.107 58.2032C123.124 61.7109 121.94 65.159 120.56 68.53C119.309 68.7665 118.018 68.6593 116.823 68.22C115.628 67.7807 114.575 67.0256 113.775 66.0352L117.326 56.2056C117.634 55.3623 118.137 54.6038 118.794 53.992C119.45 53.3802 120.243 52.9326 121.106 52.6856L123.64 51.92Z" fill="#9269AD"/>
<path opacity="0.2" d="M123.64 51.92C123.64 51.92 125.308 53.57 124.107 58.2032C123.124 61.7109 121.94 65.159 120.56 68.53C119.309 68.7665 118.018 68.6593 116.823 68.22C115.628 67.7807 114.575 67.0256 113.775 66.0352L117.326 56.2056C117.634 55.3623 118.137 54.6038 118.794 53.992C119.45 53.3802 120.243 52.9326 121.106 52.6856L123.64 51.92Z" fill="white"/>
<path d="M116.851 84.942C117.058 85.292 117.3 85.6207 117.572 85.9232C117.959 86.3412 118.364 86.592 118.659 88.2332C118.848 89.2892 119.653 89.5532 119.345 90.0856C119.037 90.618 117.255 89.54 117.018 88.4004C116.88 89.2001 116.937 90.0213 117.185 90.794C117.603 91.7664 118.157 93.2932 117.915 93.874C117.673 94.4548 114.36 94.314 113.256 92.0832C112.151 89.8524 113.027 85.4084 113.027 85.4084L116.851 84.942Z" fill="#FFA8A7"/>
<path d="M137.812 33.7524C137.812 33.7524 138.983 34.9492 138.983 38.082C138.983 41.2148 136.4 43.9428 136.4 43.9428V33.902L137.812 33.7524Z" fill="#263238"/>
<path d="M137.812 34.5708C138.32 34.2809 138.749 33.8719 139.064 33.379C139.378 32.8861 139.568 32.3242 139.616 31.7416C139.783 29.7396 138.609 30.4568 138.199 30.6328C137.79 30.8088 136.585 31.2488 136.585 31.2488C136.585 31.2488 137.702 30.0872 137.025 29.3128C136.532 28.7364 134.165 30.5448 131.164 30.8968C128.163 31.2488 125.294 31.2224 124.454 33.902C124.454 33.902 121.559 34.4872 122.254 39.5604C122.949 44.6336 124.894 47.5596 125.809 47.5156L137.812 34.5708Z" fill="#263238"/>
<path d="M125.84 51.3172L128.453 52.9716C129.032 53.3386 129.7 53.54 130.385 53.554C131.07 53.5679 131.746 53.3939 132.339 53.0508C132.57 52.9168 132.763 52.7262 132.9 52.4968C133.038 52.2675 133.114 52.007 133.123 51.7398C133.132 51.4727 133.073 51.2077 132.951 50.9698C132.829 50.732 132.649 50.529 132.427 50.38L132.088 50.1512V42.9352H125.84V51.3172Z" fill="#FFA8A7"/>
<path d="M132.066 50.16C130.714 49.9702 129.448 49.383 128.429 48.4727C127.411 47.5624 126.686 46.3702 126.346 45.0472V42.9352H132.066V50.16Z" fill="#F28F8F"/>
<path d="M133.522 32.6964C133.522 32.6964 139.467 32.9208 138.393 42.4908C137.891 46.992 137.513 49.4824 133.667 49.4824C129.822 49.4824 124.133 46.5784 124.52 38.852C124.907 31.1256 133.522 32.6964 133.522 32.6964Z" fill="#FFA8A7"/>
<path d="M134.121 40.5856V43.9428L136.087 43.34L134.121 40.5856Z" fill="#F28F8F"/>
<path d="M131.248 41.1665C131.248 41.3022 131.288 41.4349 131.363 41.5478C131.439 41.6607 131.546 41.7487 131.671 41.8006C131.797 41.8526 131.935 41.8662 132.068 41.8397C132.201 41.8132 132.323 41.7478 132.419 41.6518C132.515 41.5558 132.581 41.4335 132.607 41.3004C132.634 41.1672 132.62 41.0292 132.568 40.9038C132.516 40.7784 132.428 40.6712 132.315 40.5957C132.202 40.5203 132.07 40.4801 131.934 40.4801C131.844 40.4795 131.754 40.4968 131.671 40.5311C131.587 40.5654 131.511 40.6159 131.447 40.6798C131.383 40.7436 131.333 40.8196 131.299 40.9031C131.264 40.9866 131.247 41.0762 131.248 41.1665Z" fill="#263238"/>
<path d="M135.749 40.6868C135.748 40.8228 135.787 40.9559 135.862 41.0694C135.937 41.1828 136.044 41.2715 136.169 41.3241C136.295 41.3767 136.433 41.3909 136.566 41.365C136.7 41.339 136.822 41.274 136.919 41.1781C137.015 41.0823 137.081 40.96 137.108 40.8268C137.135 40.6935 137.121 40.5553 137.07 40.4296C137.018 40.3039 136.93 40.1964 136.817 40.1208C136.704 40.0452 136.571 40.0048 136.435 40.0048C136.254 40.0048 136.08 40.0765 135.951 40.2043C135.823 40.3321 135.75 40.5055 135.749 40.6868Z" fill="#263238"/>
<path d="M137.28 39.2656L135.96 38.4692C135.96 38.4692 136.475 37.9368 136.985 38.258C137.13 38.377 137.235 38.5367 137.288 38.7164C137.34 38.8961 137.338 39.0875 137.28 39.2656Z" fill="#263238"/>
<path d="M131.56 39.0324L130.354 40.0136C130.354 40.0136 130.029 39.3492 130.504 38.9796C130.665 38.8811 130.852 38.8335 131.04 38.8429C131.229 38.8523 131.41 38.9184 131.56 39.0324Z" fill="#263238"/>
<path d="M133.808 45.54C133.808 45.54 131.371 44.9108 131.965 45.0472C131.965 45.0472 131.842 46.0196 132.656 46.2044C132.895 46.2436 133.14 46.1988 133.35 46.0777C133.561 45.9567 133.722 45.7667 133.808 45.54Z" fill="#F28F8F"/>
<path d="M137.812 34.5708C137.812 34.5708 135.916 36.3308 131.054 35.9832C126.192 35.6356 126.61 36.96 127.16 39.2436C127.525 40.81 127.556 44.9636 126.346 42.9352H123.939V38.126C123.939 36.4923 124.588 34.9254 125.743 33.7702C126.898 32.615 128.465 31.966 130.099 31.966H135.075L137.812 34.5708Z" fill="#263238"/>
<path d="M126.385 42.68C126.385 42.68 126.143 40.3788 124.546 40.3348C122.786 40.2864 122.553 41.976 122.575 42.5744C122.641 44.154 123.917 45.8612 126.297 45.9272L126.385 42.68Z" fill="#FFA8A7"/>
<path d="M124.467 33.902C124.467 33.902 123.235 32.2696 124.027 31.592C124.819 30.9144 125.18 33.7216 125.18 33.7216L124.467 33.902Z" fill="#263238"/>
<path d="M124.568 34.4432C124.568 34.4432 122.522 34.4168 122.474 33.3784C122.425 32.34 124.863 33.7656 124.863 33.7656L124.568 34.4432Z" fill="#263238"/>
<path d="M152.103 156.895C158.383 156.895 163.473 153.956 163.473 150.33C163.473 146.705 158.383 143.766 152.103 143.766C145.824 143.766 140.734 146.705 140.734 150.33C140.734 153.956 145.824 156.895 152.103 156.895Z" fill="#9269AD"/>
<path opacity="0.4" d="M152.103 156.895C158.383 156.895 163.473 153.956 163.473 150.33C163.473 146.705 158.383 143.766 152.103 143.766C145.824 143.766 140.734 146.705 140.734 150.33C140.734 153.956 145.824 156.895 152.103 156.895Z" fill="black"/>
<path d="M160.16 154.972C155.72 157.538 148.522 157.538 144.082 154.972C141.86 153.692 140.751 152.011 140.751 150.33V151.708C140.791 153.358 141.9 154.994 144.078 156.253C148.517 158.818 155.716 158.818 160.155 156.253C162.426 154.933 163.53 153.212 163.477 151.496V150.449C163.416 152.09 162.307 153.723 160.16 154.972Z" fill="#9269AD"/>
<path opacity="0.6" d="M160.16 154.972C155.72 157.538 148.522 157.538 144.082 154.972C141.86 153.692 140.751 152.011 140.751 150.33V151.708C140.791 153.358 141.9 154.994 144.078 156.253C148.517 158.818 155.716 158.818 160.155 156.253C162.426 154.933 163.53 153.212 163.477 151.496V150.449C163.416 152.09 162.307 153.723 160.16 154.972Z" fill="black"/>
<path d="M150.572 107.62V149.494C150.572 151.461 153.652 151.466 153.652 149.494V107.62C153.652 105.648 150.572 105.644 150.572 107.62Z" fill="#9269AD"/>
<path d="M148.535 101.2V110.51C148.535 111.038 148.883 111.562 149.582 111.967C150.364 112.362 151.228 112.567 152.104 112.567C152.979 112.567 153.843 112.362 154.625 111.967C155.32 111.562 155.668 111.038 155.668 110.51V101.2H148.535Z" fill="#9269AD"/>
<path opacity="0.7" d="M148.535 101.2V110.51C148.535 111.038 148.883 111.562 149.582 111.967C150.364 112.362 151.228 112.567 152.104 112.567C152.979 112.567 153.843 112.362 154.625 111.967C155.32 111.562 155.668 111.038 155.668 110.51V101.2H148.535Z" fill="black"/>
<path d="M152.104 101.53C163.634 101.53 172.982 96.1323 172.982 89.474C172.982 82.8156 163.634 77.418 152.104 77.418C140.573 77.418 131.226 82.8156 131.226 89.474C131.226 96.1323 140.573 101.53 152.104 101.53Z" fill="#9269AD"/>
<path opacity="0.4" d="M152.104 101.53C163.634 101.53 172.982 96.1323 172.982 89.474C172.982 82.8156 163.634 77.418 152.104 77.418C140.573 77.418 131.226 82.8156 131.226 89.474C131.226 96.1323 140.573 101.53 152.104 101.53Z" fill="black"/>
<path d="M166.866 98.0012C158.712 102.709 145.49 102.709 137.337 98.0012C133.263 95.6472 131.221 92.5584 131.221 89.474V92.0084C131.296 95.0312 133.329 98.0452 137.328 100.368C145.482 105.076 158.704 105.076 166.857 100.368C171.032 97.9616 173.061 94.7848 172.964 91.63V89.7116C172.88 92.7036 170.848 95.7 166.866 98.0012Z" fill="#9269AD"/>
<path opacity="0.6" d="M166.866 98.0012C158.712 102.709 145.49 102.709 137.337 98.0012C133.263 95.6472 131.221 92.5584 131.221 89.474V92.0084C131.296 95.0312 133.329 98.0452 137.328 100.368C145.482 105.076 158.704 105.076 166.857 100.368C171.032 97.9616 173.061 94.7848 172.964 91.63V89.7116C172.88 92.7036 170.848 95.7 166.866 98.0012Z" fill="black"/>
<path d="M146.793 76.56H137.408L138.253 86.4908C138.308 86.8056 138.438 87.1024 138.633 87.356C138.827 87.6096 139.08 87.8124 139.37 87.9472C140.215 88.3745 141.149 88.5971 142.096 88.5971C143.043 88.5971 143.977 88.3745 144.822 87.9472C145.111 87.8117 145.365 87.6088 145.56 87.3554C145.755 87.102 145.887 86.8055 145.944 86.4908L146.793 76.56Z" fill="#9269AD"/>
<path d="M147.4 76.0364V75.24H147.215C146.91 74.6559 146.434 74.1785 145.851 73.8716C143.783 72.6792 140.435 72.6792 138.371 73.8716C137.788 74.1785 137.312 74.6559 137.007 75.24H136.822V76.032C136.822 76.8152 137.341 77.5984 138.371 78.1924C140.439 79.3848 143.787 79.3848 145.851 78.1924C146.876 77.6028 147.4 76.8196 147.4 76.0364Z" fill="#E0E0E0"/>
<path d="M142.102 78.3508C145.023 78.3508 147.391 76.9836 147.391 75.2972C147.391 73.6107 145.023 72.2436 142.102 72.2436C139.181 72.2436 136.813 73.6107 136.813 75.2972C136.813 76.9836 139.181 78.3508 142.102 78.3508Z" fill="#EBEBEB"/>
<path d="M146.34 74.9672V74.36H146.19C145.949 73.8905 145.567 73.5077 145.099 73.2644C144.169 72.7935 143.142 72.5482 142.1 72.5482C141.058 72.5482 140.031 72.7935 139.102 73.2644C138.633 73.5077 138.252 73.8905 138.01 74.36H137.861V74.9936C137.861 75.6228 138.274 76.2476 139.102 76.7272C140.031 77.198 141.058 77.4434 142.1 77.4434C143.142 77.4434 144.169 77.198 145.099 76.7272C145.93 76.2256 146.344 75.5964 146.34 74.9672Z" fill="#E0E0E0"/>
<path d="M145.099 76.12C144.169 76.5909 143.142 76.8362 142.1 76.8362C141.058 76.8362 140.031 76.5909 139.102 76.12C137.447 75.1608 137.447 73.612 139.102 72.6572C140.031 72.1863 141.058 71.941 142.1 71.941C143.142 71.941 144.169 72.1863 145.099 72.6572C146.753 73.5988 146.753 75.1476 145.099 76.12Z" fill="#F5F5F5"/>
<path d="M144.408 75.6008C143.693 75.9631 142.902 76.1518 142.1 76.1518C141.299 76.1518 140.508 75.9631 139.793 75.6008C138.561 74.888 138.517 73.7528 139.665 73.0136L139.793 72.9344C140.071 72.7788 140.366 72.6562 140.673 72.5692C141.916 72.2234 143.243 72.3536 144.395 72.9344C145.684 73.6692 145.684 74.866 144.408 75.6008Z" fill="#F0F0F0"/>
<path d="M139.792 73.3128C140.508 72.9506 141.298 72.7618 142.1 72.7618C142.902 72.7618 143.693 72.9506 144.408 73.3128C144.639 73.4236 144.842 73.5833 145.005 73.7809C145.168 73.9785 145.285 74.2092 145.349 74.4568C145.442 73.9156 145.129 73.3524 144.408 72.9344C143.693 72.5722 142.902 72.3834 142.1 72.3834C141.298 72.3834 140.508 72.5722 139.792 72.9344C139.071 73.3744 138.758 73.9156 138.855 74.4568C138.917 74.2088 139.034 73.9777 139.196 73.7799C139.358 73.5821 139.561 73.4226 139.792 73.3128Z" fill="#E0E0E0"/>
<path d="M141.539 73.4404L140.589 74.0432L139.665 73.3788V73.0136L139.792 72.9344C140.07 72.7788 140.366 72.6562 140.672 72.5692V72.8464L141.539 73.4404Z" fill="#E0E0E0"/>
<path d="M166.549 82.0732H157.168L158.008 92.004C158.064 92.3181 158.195 92.6142 158.389 92.867C158.584 93.1199 158.836 93.3219 159.126 93.456C159.971 93.8853 160.906 94.1091 161.854 94.1091C162.802 94.1091 163.737 93.8853 164.582 93.456C164.871 93.3219 165.124 93.1199 165.319 92.867C165.513 92.6142 165.644 92.3181 165.7 92.004L166.549 82.0732Z" fill="#9269AD"/>
<path d="M167.147 81.5276V80.74H166.962C166.658 80.1563 166.182 79.6802 165.598 79.376C163.535 78.1836 160.182 78.1836 158.118 79.376C157.533 79.6788 157.057 80.1553 156.754 80.74H156.565V81.5364C156.565 82.3152 157.084 83.0984 158.118 83.6968C160.182 84.8892 163.535 84.8892 165.598 83.6968C166.637 83.0984 167.151 82.3108 167.147 81.5276Z" fill="#E0E0E0"/>
<path d="M161.858 83.842C164.779 83.842 167.147 82.4749 167.147 80.7884C167.147 79.1019 164.779 77.7348 161.858 77.7348C158.937 77.7348 156.569 79.1019 156.569 80.7884C156.569 82.4749 158.937 83.842 161.858 83.842Z" fill="#EBEBEB"/>
<path d="M166.095 80.4628V79.8292H165.95C165.704 79.3615 165.322 78.9795 164.855 78.7336C163.926 78.2628 162.899 78.0175 161.858 78.0175C160.817 78.0175 159.791 78.2628 158.862 78.7336C158.394 78.9795 158.012 79.3615 157.766 79.8292H157.617V80.4672C157.617 81.092 158.035 81.7168 158.862 82.1964C159.791 82.6672 160.817 82.9126 161.858 82.9126C162.899 82.9126 163.926 82.6672 164.855 82.1964C165.686 81.7168 166.1 81.0876 166.095 80.4628Z" fill="#E0E0E0"/>
<path d="M164.855 81.598C163.926 82.0688 162.899 82.3142 161.858 82.3142C160.817 82.3142 159.79 82.0688 158.862 81.598C157.203 80.6432 157.203 79.0944 158.862 78.1352C159.79 77.6644 160.817 77.419 161.858 77.419C162.899 77.419 163.926 77.6644 164.855 78.1352C166.509 79.0944 166.509 80.6432 164.855 81.598Z" fill="#F5F5F5"/>
<path d="M164.164 81.092C163.449 81.4563 162.658 81.6462 161.856 81.6462C161.054 81.6462 160.263 81.4563 159.548 81.092C158.316 80.3836 158.272 79.244 159.421 78.5092C159.461 78.4797 159.504 78.4532 159.548 78.43C159.825 78.2722 160.121 78.1496 160.428 78.0648C161.671 77.7142 163 77.8446 164.151 78.43C165.44 79.1648 165.44 80.3572 164.164 81.092Z" fill="#F0F0F0"/>
<path d="M159.548 78.8084C160.264 78.4461 161.054 78.2574 161.856 78.2574C162.658 78.2574 163.448 78.4461 164.164 78.8084C164.394 78.9191 164.598 79.0789 164.761 79.2765C164.923 79.474 165.041 79.7047 165.105 79.9524C165.198 79.4068 164.885 78.848 164.164 78.43C163.448 78.0677 162.658 77.879 161.856 77.879C161.054 77.879 160.264 78.0677 159.548 78.43C158.831 78.848 158.519 79.4068 158.611 79.9524C158.675 79.7051 158.792 79.4747 158.954 79.2772C159.115 79.0796 159.318 78.9196 159.548 78.8084Z" fill="#E0E0E0"/>
<path d="M161.295 78.936L160.345 79.5388L159.421 78.8744V78.5092C159.461 78.4797 159.504 78.4532 159.548 78.43C159.826 78.2722 160.121 78.1496 160.428 78.0648V78.32L161.295 78.936Z" fill="#E0E0E0"/>
<path d="M191.238 86.3808L194.15 94.6C194.442 95.424 194.529 96.3063 194.405 97.1714C194.281 98.0365 193.949 98.8587 193.438 99.5676L189.016 105.706L185.856 101.099L188.76 96.5404L186.178 90.9832V88.8228L191.238 86.3808Z" fill="#945959"/>
<path d="M184.36 76.56C184.36 76.56 186.56 76.34 187.704 78.1C188.848 79.86 191.224 86.3632 191.224 86.3632C189.804 88.0448 187.812 89.1418 185.632 89.4432L184.36 76.56Z" fill="#9269AD"/>
<path opacity="0.3" d="M184.36 76.56C184.36 76.56 186.56 76.34 187.704 78.1C188.848 79.86 191.224 86.3632 191.224 86.3632C189.804 88.0448 187.812 89.1418 185.632 89.4432L184.36 76.56Z" fill="white"/>
<path d="M188.065 165.994C187.889 166.327 187.626 166.606 187.305 166.801C186.983 166.996 186.615 167.101 186.239 167.103C185.552 167.076 184.89 166.841 184.34 166.429C183.79 166.018 183.378 165.449 183.159 164.798C182.692 163.631 181.946 162.598 180.985 161.788C180.523 161.295 178.75 159.698 178.565 158.004C178.558 158.114 178.558 158.224 178.565 158.334C178.565 160.134 180.514 161.889 181.003 162.408C181.966 163.224 182.711 164.265 183.172 165.44C183.392 166.09 183.805 166.658 184.355 167.069C184.904 167.48 185.566 167.714 186.252 167.741C186.628 167.74 186.996 167.636 187.318 167.441C187.639 167.247 187.902 166.969 188.078 166.637C188.211 166.346 188.246 166.021 188.179 165.708C188.151 165.807 188.113 165.903 188.065 165.994Z" fill="#263238"/>
<path d="M187.744 161.445L187.836 161.546C187.954 161.675 188.043 161.826 188.1 161.992C188.156 162.157 188.177 162.332 188.162 162.505C188.127 162.888 188.092 163.438 188.092 164.032C188.092 165.141 188.342 165.387 188.065 165.994C187.889 166.327 187.627 166.606 187.305 166.801C186.984 166.996 186.615 167.101 186.239 167.103C185.553 167.076 184.891 166.841 184.341 166.429C183.791 166.018 183.379 165.449 183.159 164.798C182.692 163.631 181.946 162.598 180.986 161.788C180.497 161.269 178.548 159.513 178.548 157.718C178.538 157.401 178.593 157.085 178.708 156.789C178.824 156.493 178.997 156.224 179.219 155.997C179.441 155.77 179.706 155.59 179.999 155.467C180.292 155.345 180.607 155.283 180.924 155.285C181.804 155.285 183.001 155.804 183.92 157.137C184.84 158.47 187.744 161.445 187.744 161.445Z" fill="#9269AD"/>
<g opacity="0.3">
<path opacity="0.3" d="M187.744 161.445L187.836 161.546C187.954 161.675 188.043 161.826 188.1 161.992C188.156 162.157 188.177 162.332 188.162 162.505C188.127 162.888 188.092 163.438 188.092 164.032C188.092 165.141 188.342 165.387 188.065 165.994C187.889 166.327 187.627 166.606 187.305 166.801C186.984 166.996 186.615 167.101 186.239 167.103C185.553 167.076 184.891 166.841 184.341 166.429C183.791 166.018 183.379 165.449 183.159 164.798C182.692 163.631 181.946 162.598 180.986 161.788C180.497 161.269 178.548 159.513 178.548 157.718C178.538 157.401 178.593 157.085 178.708 156.789C178.824 156.493 178.997 156.224 179.219 155.997C179.441 155.77 179.706 155.59 179.999 155.467C180.292 155.345 180.607 155.283 180.924 155.285C181.804 155.285 183.001 155.804 183.92 157.137C184.84 158.47 187.744 161.445 187.744 161.445Z" fill="black"/>
</g>
<path d="M181.694 159.447C181.653 159.448 181.613 159.436 181.58 159.412C181.531 159.381 181.497 159.333 181.483 159.277C181.47 159.221 181.479 159.162 181.509 159.113C181.558 159.042 182.627 157.388 184.448 157.573C184.507 157.579 184.56 157.607 184.597 157.653C184.635 157.698 184.652 157.756 184.646 157.815C184.64 157.873 184.612 157.927 184.566 157.964C184.521 158.001 184.463 158.019 184.404 158.013C182.842 157.85 181.888 159.333 181.879 159.333C181.86 159.366 181.833 159.394 181.801 159.414C181.769 159.434 181.732 159.445 181.694 159.447Z" fill="#EBEBEB"/>
<path d="M182.768 160.508C182.727 160.509 182.687 160.498 182.652 160.477C182.617 160.456 182.589 160.425 182.571 160.388C182.553 160.351 182.547 160.31 182.552 160.27C182.557 160.229 182.574 160.191 182.6 160.16C182.644 160.09 183.709 158.431 185.54 158.616C185.596 158.622 185.648 158.651 185.684 158.695C185.721 158.74 185.738 158.796 185.733 158.853C185.73 158.882 185.722 158.909 185.709 158.934C185.695 158.959 185.677 158.982 185.655 159C185.633 159.018 185.607 159.031 185.58 159.039C185.553 159.047 185.524 159.05 185.496 159.047C183.934 158.888 182.974 160.367 182.966 160.389C182.948 160.426 182.919 160.457 182.884 160.478C182.849 160.499 182.808 160.509 182.768 160.508Z" fill="#EBEBEB"/>
<path d="M183.709 156.847C183.392 156.397 182.979 156.024 182.499 155.753C182.02 155.483 181.486 155.323 180.937 155.285C180.62 155.283 180.305 155.345 180.012 155.467C179.719 155.59 179.454 155.77 179.232 155.997C179.011 156.224 178.837 156.493 178.722 156.789C178.606 157.085 178.552 157.401 178.561 157.718C178.638 158.669 179.018 159.571 179.644 160.292C179.669 159.642 179.879 159.013 180.248 158.478C180.617 157.943 181.131 157.524 181.729 157.269C182.36 157.017 183.03 156.874 183.709 156.847Z" fill="#FAFAFA"/>
<path d="M189.852 137.368L189.236 135.436L190.344 119.2L180.4 122.518L180.81 136.712C180.831 137.463 180.894 138.212 180.999 138.956L183.04 153.384C183.397 153.736 184.4 154.515 186.31 154.515C186.814 154.522 187.315 154.422 187.778 154.221C188.241 154.021 188.657 153.725 188.998 153.353L190.384 144.505C190.763 142.117 190.581 139.673 189.852 137.368Z" fill="#945959"/>
<path d="M186.327 154.515C184.417 154.515 183.414 153.736 183.058 153.384L184.285 162.07C186.679 163.706 187.647 162.07 187.647 162.07L189.015 153.353C188.674 153.725 188.258 154.021 187.795 154.221C187.332 154.422 186.831 154.522 186.327 154.515Z" fill="#9269AD"/>
<path opacity="0.5" d="M186.327 154.515C184.417 154.515 183.414 153.736 183.058 153.384L184.285 162.07C186.679 163.706 187.647 162.07 187.647 162.07L189.015 153.353C188.674 153.725 188.258 154.021 187.795 154.221C187.332 154.422 186.831 154.522 186.327 154.515Z" fill="white"/>
<path d="M171.666 165.959L169.867 167.279C169.867 167.279 165.299 167.636 164.01 167.719C162.721 167.803 161.102 168.388 160.75 169.783C160.442 170.997 161.111 172.256 164.301 172.66C167.491 173.065 168.591 172.322 170.901 172.713C173.101 173.087 176.181 174.095 177.694 171.534C177.775 171.4 177.827 171.251 177.848 171.096C177.869 170.941 177.859 170.783 177.817 170.632C177.646 169.976 177.333 168.771 177.259 168.344C177.157 167.75 177.069 165.766 176.506 165.766C175.943 165.766 171.666 165.959 171.666 165.959Z" fill="#9269AD"/>
<path opacity="0.3" d="M171.666 165.959L169.867 167.279C169.867 167.279 165.299 167.636 164.01 167.719C162.721 167.803 161.102 168.388 160.75 169.783C160.442 170.997 161.111 172.256 164.301 172.66C167.491 173.065 168.591 172.322 170.901 172.713C173.101 173.087 176.181 174.095 177.694 171.534C177.775 171.4 177.827 171.251 177.848 171.096C177.869 170.941 177.859 170.783 177.817 170.632C177.646 169.976 177.333 168.771 177.259 168.344C177.157 167.75 177.069 165.766 176.506 165.766C175.943 165.766 171.666 165.959 171.666 165.959Z" fill="black"/>
<path d="M177.831 171.16C177.81 171.292 177.764 171.419 177.694 171.534C176.176 174.095 173.088 173.087 170.896 172.713C168.591 172.322 167.491 173.065 164.296 172.66C161.758 172.335 160.82 171.477 160.693 170.526C160.552 171.653 161.34 172.757 164.296 173.136C167.486 173.54 168.586 172.797 170.896 173.188C173.096 173.558 176.326 174.72 177.844 172.159C177.956 171.834 177.951 171.481 177.831 171.16Z" fill="#37474F"/>
<path d="M170.72 157.731L171.653 165.959C171.653 165.959 171.838 167.719 174.157 167.719C176.475 167.719 176.493 165.744 176.493 165.744L177.091 157.718L170.72 157.731Z" fill="#9269AD"/>
<path opacity="0.5" d="M170.72 157.731L171.653 165.959C171.653 165.959 171.838 167.719 174.157 167.719C176.475 167.719 176.493 165.744 176.493 165.744L177.091 157.718L170.72 157.731Z" fill="white"/>
<path d="M168.283 125.4V132.955C168.283 134.194 168.349 135.432 168.481 136.664L170.72 157.731C170.72 157.731 174.302 160.442 177.092 157.731L178.2 145.02C178.452 142.157 178.107 139.273 177.188 136.55L179.388 125.382L168.283 125.4Z" fill="#945959"/>
<path d="M165.541 167.605C164.903 167.653 164.345 167.693 164.01 167.71C162.725 167.79 161.102 168.379 160.75 169.774C160.442 170.988 161.111 172.247 164.301 172.652C163.72 168.885 165.541 167.609 165.541 167.605Z" fill="#FAFAFA"/>
<path d="M166.232 169.84C166.204 169.841 166.175 169.835 166.148 169.825C166.122 169.814 166.097 169.799 166.077 169.778C166.056 169.758 166.04 169.734 166.029 169.708C166.018 169.681 166.012 169.653 166.012 169.624C166.034 169.182 166.144 168.75 166.338 168.352C166.532 167.954 166.804 167.599 167.139 167.31C167.161 167.292 167.186 167.279 167.213 167.27C167.24 167.262 167.269 167.26 167.297 167.262C167.325 167.265 167.352 167.274 167.377 167.287C167.402 167.301 167.424 167.319 167.442 167.341C167.479 167.386 167.496 167.443 167.49 167.501C167.484 167.559 167.456 167.612 167.411 167.649C167.128 167.898 166.898 168.201 166.732 168.54C166.567 168.879 166.47 169.248 166.448 169.624C166.448 169.682 166.425 169.736 166.385 169.777C166.344 169.817 166.289 169.84 166.232 169.84Z" fill="#EBEBEB"/>
<path d="M168.12 169.739C168.063 169.739 168.008 169.716 167.967 169.676C167.927 169.635 167.904 169.58 167.904 169.523C167.925 169.082 168.035 168.65 168.228 168.253C168.421 167.856 168.693 167.502 169.026 167.213C169.048 167.194 169.073 167.18 169.1 167.171C169.127 167.163 169.155 167.159 169.184 167.162C169.212 167.164 169.24 167.172 169.265 167.186C169.29 167.199 169.312 167.217 169.33 167.24C169.349 167.261 169.363 167.287 169.372 167.314C169.381 167.342 169.384 167.37 169.382 167.399C169.379 167.428 169.371 167.456 169.358 167.481C169.344 167.507 169.326 167.529 169.304 167.548C169.02 167.797 168.789 168.1 168.623 168.439C168.456 168.778 168.359 169.146 168.335 169.523C168.335 169.58 168.313 169.635 168.272 169.676C168.232 169.716 168.177 169.739 168.12 169.739Z" fill="#EBEBEB"/>
<path d="M170.69 99.1936C170.69 99.1936 168.283 104.518 168.283 109.52V125.334C170.173 126.743 172.327 127.759 174.617 128.322C176.907 128.885 179.286 128.983 181.615 128.612C189.469 127.318 190.969 124.718 190.969 124.718V113.278C190.969 108.582 189.753 103.967 187.44 99.88L186.389 98.0188L170.69 99.1936Z" fill="#455A64"/>
<path d="M170.689 96.36V99.198C170.689 99.198 172.819 101.094 178.46 101.094C184.101 101.094 186.38 98.0144 186.38 98.0144L185.24 96.1664L170.689 96.36Z" fill="#9269AD"/>
<path opacity="0.3" d="M170.689 96.36V99.198C170.689 99.198 172.819 101.094 178.46 101.094C184.101 101.094 186.38 98.0144 186.38 98.0144L185.24 96.1664L170.689 96.36Z" fill="black"/>
<path d="M174.522 78.6016L172.48 79.3188L168.96 86.9176V92.5496L170.663 96.3556C172.906 97.9588 175.601 98.8077 178.358 98.78C183.115 98.78 185.2 96.1664 185.2 96.1664C185.2 96.1664 186.494 90.4068 187.4 86.724C188.307 83.0412 186.736 77.924 184.32 76.5776L181.13 77.1012L174.522 78.6016Z" fill="#9269AD"/>
<path d="M171.622 90.8116C171.622 90.8116 166.813 98.428 166.065 99.7304C165.317 101.033 163.174 102.15 158.611 97.5304C154.049 92.9104 152.68 91.3704 152.68 91.3704C152.68 91.3704 146.687 89.276 145.288 87.5864C143.889 85.8968 143.335 83.4328 144.487 83.8244C145.64 84.216 151.906 86.4644 152.614 84.5548C152.341 83.9823 152.191 83.3587 152.174 82.7244C152.174 81.774 152.588 80.9952 153.12 80.9952C153.653 80.9952 153.499 81.95 153.873 82.7244C154.247 83.4988 156.574 86.6844 156.178 88.1716L162.8 93.522L166.069 87.164L171.622 90.8116Z" fill="#945959"/>
<path d="M179.622 78.6764C177.316 79.4112 174.522 78.6016 174.522 78.6016V70.8048H181.179V77.1012C181.072 77.4729 180.873 77.8117 180.601 78.0869C180.329 78.362 179.992 78.5647 179.622 78.6764Z" fill="#945959"/>
<path d="M169.73 65.9956V69.52L167.671 68.8864L169.73 65.9956Z" fill="#703838"/>
<path d="M180.598 56.8304C179.225 56.4696 174.438 55.5104 170.157 59.0612C169.211 59.8488 168.128 61.9476 167.781 64.57C168.321 64.9648 168.913 65.2831 169.541 65.516L180.598 56.8304Z" fill="#263238"/>
<path d="M177.593 58.278C175.494 58.0448 170.909 58.718 169.792 64.1564C168.674 69.5948 168.701 73.898 171.49 74.6196C174.28 75.3412 181.078 74.008 182.737 67.0032C184.395 59.9984 179.639 58.52 177.593 58.278Z" fill="#945959"/>
<path d="M171.794 59.598C171.794 59.598 171.068 62.4448 172.181 64.6756C172.473 65.2429 172.645 65.8643 172.686 66.501C172.727 67.1378 172.636 67.7761 172.419 68.376C172.2 68.984 171.875 69.5485 171.459 70.0436C171.459 70.0436 173.756 69.7268 173.756 67.8436C174.164 68.9034 174.476 69.9975 174.689 71.1128C174.878 72.4328 175.679 73.568 178.165 74.2588C179.375 74.5932 180.919 74.4392 181.716 73.942C181.716 73.942 184.153 72.2832 185.13 70.928C186.107 69.5728 188.21 64.768 186.01 60.9884C183.81 57.2088 178.266 54.0716 171.794 59.598Z" fill="#263238"/>
<path d="M173.756 67.848C173.756 67.848 174.034 65.538 175.64 65.516C177.4 65.4896 177.62 67.1924 177.589 67.7952C177.505 69.3792 176.542 70.928 173.756 70.0436V67.848Z" fill="#945959"/>
<path d="M184.923 72.8464C184.923 73.2084 184.816 73.5623 184.615 73.8633C184.414 74.1643 184.128 74.3989 183.794 74.5375C183.459 74.676 183.091 74.7122 182.736 74.6416C182.381 74.571 182.055 74.3967 181.799 74.1407C181.543 73.8847 181.368 73.5585 181.298 73.2035C181.227 72.8484 181.263 72.4804 181.402 72.1459C181.541 71.8115 181.775 71.5256 182.076 71.3245C182.377 71.1233 182.731 71.016 183.093 71.016C183.579 71.016 184.044 71.2088 184.387 71.5521C184.731 71.8954 184.923 72.3609 184.923 72.8464Z" fill="#9269AD"/>
<path d="M183.251 74.36C182.886 74.074 182.626 73.6747 182.512 73.2248C182.439 72.9751 182.431 72.7107 182.49 72.4572C182.548 72.2036 182.671 71.9694 182.847 71.7772C182.994 71.6325 183.169 71.519 183.361 71.4434C183.553 71.3678 183.758 71.3317 183.964 71.3372C184.651 71.334 185.334 71.4379 185.988 71.6452C187.92 72.314 189.425 75.1388 187.409 79.5652C186.811 80.8852 186.644 82.83 187.783 83.5252C187.814 83.5412 187.837 83.5671 187.851 83.5985C187.864 83.63 187.867 83.6651 187.858 83.698C187.848 83.731 187.828 83.7597 187.8 83.7795C187.772 83.7993 187.738 83.809 187.704 83.8068C186.019 83.8068 182.363 83.336 183.427 79.4728C184.36 76.054 183.806 74.8 183.251 74.36Z" fill="#263238"/>
<path d="M171.794 59.598C171.794 59.598 169.941 60.9796 170.254 65.7316C170.848 66.026 171.511 66.1551 172.172 66.1056C172.172 66.1056 171.983 63.5316 173.004 61.5428L171.794 59.598Z" fill="#263238"/>
<path d="M172.48 79.3188C170.913 79.9735 169.578 81.0831 168.648 82.5044C167.601 84.128 166.056 87.164 166.056 87.164C166.693 88.1116 167.512 88.9224 168.467 89.5488C169.421 90.1752 170.491 90.6045 171.613 90.8116C171.613 90.8116 173.211 88.1012 173.668 87.4324C174.126 86.7636 176.137 81.774 173.162 79.0724L172.48 79.3188Z" fill="#9269AD"/>
<path opacity="0.3" d="M172.48 79.3188C170.913 79.9735 169.578 81.0831 168.648 82.5044C167.601 84.128 166.056 87.164 166.056 87.164C166.693 88.1116 167.512 88.9224 168.467 89.5488C169.421 90.1752 170.491 90.6045 171.613 90.8116C171.613 90.8116 173.211 88.1012 173.668 87.4324C174.126 86.7636 176.137 81.774 173.162 79.0724L172.48 79.3188Z" fill="white"/>
<path d="M74.9587 165.796V165.88C74.9466 166.724 74.7718 167.558 74.4439 168.335C74.199 168.951 74.0779 169.609 74.0875 170.271V172.986C74.0875 173.103 74.0412 173.215 73.9586 173.297C73.8761 173.38 73.7642 173.426 73.6475 173.426C73.5308 173.426 73.4189 173.38 73.3364 173.297C73.2539 173.215 73.2075 173.103 73.2075 172.986V168.802L74.9587 165.796Z" fill="#263238"/>
<path d="M73.5683 163.024C73.5683 163.024 72.1119 164.098 72.1119 166.936C72.1119 169.774 70.0043 172.264 68.9351 172.907C67.8659 173.549 65.4943 172.027 65.4943 172.027C65.4943 172.027 62.9731 174.165 62.9731 175.133C62.9731 176.101 64.2051 176.893 67.0563 176.488C69.9075 176.084 72.2747 175.683 72.7191 172.599C73.2383 168.991 73.2559 168.529 74.3427 167.341C75.4295 166.153 75.0159 163.68 73.5683 163.024Z" fill="#263238"/>
<path d="M74.0128 155.615L73.5464 162.523C73.5464 162.523 73.168 173.241 68.0244 173.241H65.3492C65.2304 173.241 65.3492 171.512 65.3492 171.512C65.3492 171.512 68.3016 167.213 68.5216 162.945L68.2576 155.615H74.0128Z" fill="#945959"/>
<path d="M73.5461 162.523C73.5461 162.523 72.3713 163.372 72.0677 166.43C71.7333 169.849 69.9293 171.763 68.8425 172.401C67.7557 173.039 65.3489 171.521 65.3489 171.521C65.3489 171.521 62.7881 173.664 62.7881 174.627C62.7881 175.591 64.0421 176.387 66.9329 175.987C69.8237 175.586 71.7245 175.076 72.2569 172.027C72.7893 168.978 72.8025 168.234 73.9069 167.046C75.0113 165.858 75.7285 164.723 73.5461 162.523Z" fill="#37474F"/>
<path d="M70.5321 102.52L67.8921 126.377C67.4202 130.613 67.2864 134.88 67.4917 139.137L68.2749 155.619C68.2749 155.619 71.3549 157.788 74.0301 155.619L76.1641 143.541C76.5322 141.453 76.3811 139.305 75.7241 137.289L80.5949 122.184L78.2453 103.004L70.5321 102.52Z" fill="#455A64"/>
<path d="M71.9092 109.78C71.9092 109.78 73.2292 113.595 76.9692 114.822L78.5796 128.366L80.5728 122.179L79.0548 109.78H71.9092Z" fill="#37474F"/>
<path d="M90.2356 172.418V172.48C90.2256 173.324 90.0507 174.158 89.7208 174.935C89.4758 175.551 89.3547 176.209 89.3644 176.871V179.586C89.3644 179.703 89.318 179.815 89.2355 179.897C89.153 179.98 89.0411 180.026 88.9244 180.026C88.8077 180.026 88.6958 179.98 88.6132 179.897C88.5307 179.815 88.4844 179.703 88.4844 179.586V175.402L90.2356 172.418Z" fill="#263238"/>
<path d="M88.8452 169.646C88.8452 169.646 87.3932 170.72 87.3932 173.558C87.3932 176.396 85.2812 178.886 84.212 179.529C83.1428 180.171 80.7756 178.649 80.7756 178.649C80.7756 178.649 78.25 180.787 78.25 181.755C78.25 182.723 79.4864 183.515 82.3332 183.11C85.18 182.706 87.5604 182.296 88.0004 179.212C88.5196 175.604 88.5372 175.142 89.624 173.954C90.7108 172.766 90.2928 170.306 88.8452 169.646Z" fill="#263238"/>
<path d="M89.2936 162.237L88.8228 169.145C88.8228 169.145 88.4444 179.863 83.3008 179.863H80.6256C80.5068 179.863 80.6256 178.134 80.6256 178.134C80.6256 178.134 83.5824 173.835 83.798 169.567L83.534 162.237H89.2936Z" fill="#945959"/>
<path d="M88.8229 169.145C88.8229 169.145 87.6481 169.994 87.3489 173.052C87.0145 176.471 85.2061 178.385 84.1193 179.023C83.0325 179.661 80.6257 178.143 80.6257 178.143C80.6257 178.143 78.0649 180.286 78.0649 181.249C78.0649 182.213 79.3189 183.009 82.2141 182.609C85.1093 182.208 87.0013 181.698 87.5337 178.649C88.0661 175.6 88.0837 174.856 89.1837 173.668C90.2837 172.48 91.0097 171.345 88.8229 169.145Z" fill="#37474F"/>
<path d="M85.9848 102.388C85.9848 102.388 91.8456 108.852 91.8456 116.191C91.8456 123.53 90.2 139.229 90.2 139.229L90.6664 140.391C91.4084 142.24 91.6615 144.25 91.4012 146.225L89.2848 162.263C89.2848 162.263 86.8868 164.463 83.5252 162.263L81.7652 140.646L77.5192 113.194C75.3676 112.61 73.4266 111.426 71.9224 109.78V102.23L85.9848 102.388Z" fill="#455A64"/>
<path d="M70.4443 99.6556L70.5323 102.511C70.5323 102.511 72.3407 104.1 77.8715 104.1C83.4023 104.1 85.9851 102.52 85.9851 102.52V99.44L70.4443 99.6556Z" fill="#37474F"/>
<path d="M74.0524 80.74C72.8644 80.8764 69.4896 80.3968 67.536 85.2984C65.5824 90.2 63.84 95.1104 63.84 95.1104L60.254 91.3924C60.254 91.3924 56.0564 85.096 55.062 85.8C54.0676 86.504 54.424 87.6304 54.7056 88.44C54.9872 89.2496 56.0256 91.7752 56.382 92.466C56.7384 93.1568 61.024 103.026 64.8828 103.026C67.4656 103.026 70.2992 94.3184 70.2992 94.3184L74.0524 80.74Z" fill="#945959"/>
<path d="M87.45 89.782C87.4192 89.9844 87.3928 90.1868 87.362 90.3892C86.482 96.6944 85.9848 99.418 85.9848 99.418C83.1173 100.567 80.0585 101.165 76.9692 101.178C71.9092 101.178 70.444 99.66 70.444 99.66L69.96 94.4768C69.96 94.4768 67.958 92.9632 67.958 89.4432C67.958 85.9232 74.0652 80.8104 74.0652 80.8104L75.8956 80.7224L82.1876 80.9468L86.5128 81.3296L87.12 81.4C87.12 81.4 88.3916 83.0412 87.45 89.782Z" fill="#9269AD"/>
<path d="M84.3042 62.48C84.5387 62.2078 84.7132 61.8892 84.8163 61.545C84.9194 61.2008 84.9488 60.8387 84.9026 60.4824C84.8014 59.1624 86.0642 60.1172 86.1654 60.8828C86.2666 61.6484 85.4878 62.788 84.7618 63.0388L84.3042 62.48Z" fill="#263238"/>
<path d="M84.7663 62.7264C85.1245 62.7434 85.4822 62.6844 85.8159 62.5532C86.1495 62.422 86.4517 62.2216 86.7023 61.9652C87.6923 61.0632 87.7099 62.6516 87.1687 63.2104C86.6275 63.7692 85.2547 63.8484 84.6079 63.4304L84.7663 62.7264Z" fill="#263238"/>
<path d="M89.1355 74.8C88.7765 74.4616 88.4921 74.052 88.3004 73.5974C88.1088 73.1429 88.014 72.6533 88.0223 72.16C88.0927 69.9952 87.8111 66.77 85.9983 64.0596C82.9579 59.5056 79.0595 59.8004 75.8783 60.0996C72.6971 60.3988 69.1067 59.0832 68.1167 60.7948C66.3567 63.8748 68.6755 64.7548 68.6755 64.7548C67.1355 68.3188 70.8095 69.1944 70.8095 69.1944L72.6707 74.2104C72.3257 74.0799 71.9558 74.0288 71.5883 74.0608C70.9474 74.1317 70.3577 74.4442 69.9391 74.9347C69.5206 75.4252 69.3047 76.0568 69.3355 76.7008C69.3557 77.0901 69.4679 77.469 69.663 77.8064C69.8581 78.1439 70.1305 78.4302 70.4577 78.642C70.785 78.8537 71.1578 78.9848 71.5456 79.0244C71.9333 79.0641 72.325 79.0111 72.6883 78.87C72.8918 79.2806 73.2051 79.6267 73.5935 79.8698C73.9819 80.113 74.4301 80.2436 74.8883 80.2472C75.303 80.2474 75.7112 80.1446 76.0763 79.948C76.9421 79.4436 77.9214 79.1666 78.9231 79.1428H79.9659C80.9655 79.1674 81.9429 79.4427 82.8083 79.9436C83.1093 80.108 83.4412 80.2081 83.7828 80.2375C84.1245 80.267 84.4686 80.2252 84.7933 80.1148C85.118 80.0043 85.4162 79.8277 85.6691 79.596C85.922 79.3643 86.124 79.0826 86.2623 78.7688C86.5463 78.9161 86.857 79.0049 87.176 79.0298C87.4949 79.0547 87.8157 79.0154 88.1191 78.914C88.5244 78.7851 88.8897 78.5539 89.1798 78.2428C89.4699 77.9317 89.675 77.5512 89.7753 77.1379C89.8757 76.7245 89.8679 76.2923 89.7527 75.8829C89.6376 75.4734 89.419 75.1005 89.1179 74.8H89.1355Z" fill="#263238"/>
<path d="M75.8827 77.2112V80.7312C75.8827 80.7312 71.8567 85.5976 75.7815 85.9496C79.7063 86.3016 82.1747 80.96 82.1747 80.96V73.6164L75.8827 77.2112Z" fill="#945959"/>
<path d="M82.3768 71.4428V71.6804C80.9072 77.4796 77.0968 78.7424 75.856 79.0372L75.8076 70.0612L82.1876 70.0304L82.3768 71.4428Z" fill="#703838"/>
<path d="M77 61.0984C74.9144 61.2656 70.5716 62.7924 70.51 68.2968C70.4484 73.8012 71.2844 77.9768 74.1356 78.166C76.9868 78.3552 83.3756 75.768 83.6572 68.6268C83.9388 61.4856 79.0372 60.9312 77 61.0984Z" fill="#945959"/>
<path d="M74.8573 70.5056L74.9057 73.7352L73.0049 73.1852L74.8573 70.5056Z" fill="#703838"/>
<path d="M77.1983 70.4C77.2009 70.5309 77.1645 70.6596 77.0938 70.7697C77.0231 70.8799 76.9212 70.9665 76.8011 71.0186C76.681 71.0707 76.5482 71.086 76.4194 71.0624C76.2907 71.0388 76.1718 70.9774 76.078 70.8861C75.9842 70.7948 75.9197 70.6776 75.8927 70.5496C75.8656 70.4215 75.8773 70.2882 75.9261 70.1668C75.975 70.0454 76.0589 69.9412 76.1671 69.8675C76.2753 69.7939 76.403 69.7541 76.5339 69.7532C76.7074 69.752 76.8744 69.8192 76.9988 69.9403C77.1231 70.0613 77.1948 70.2265 77.1983 70.4Z" fill="#263238"/>
<path d="M72.8644 70.0216C72.8661 70.1522 72.8291 70.2803 72.758 70.3897C72.6869 70.4992 72.585 70.5852 72.4651 70.6367C72.3452 70.6883 72.2126 70.7031 72.0843 70.6794C71.9559 70.6556 71.8375 70.5943 71.744 70.5032C71.6505 70.4122 71.5861 70.2954 71.5589 70.1678C71.5317 70.0401 71.543 69.9072 71.5913 69.786C71.6397 69.6647 71.7229 69.5605 71.8304 69.4866C71.938 69.4126 72.0651 69.3722 72.1956 69.3704C72.2824 69.3687 72.3687 69.3842 72.4495 69.4161C72.5303 69.448 72.6039 69.4956 72.6661 69.5562C72.7284 69.6168 72.7779 69.6891 72.812 69.769C72.846 69.8489 72.8638 69.9348 72.8644 70.0216Z" fill="#263238"/>
<path d="M71.3857 68.6708L72.6617 67.8876C72.6617 67.8876 72.1601 67.3816 71.6717 67.6984C71.5296 67.8112 71.4258 67.9652 71.3746 68.1393C71.3234 68.3134 71.3273 68.499 71.3857 68.6708Z" fill="#9269AD"/>
<path d="M75.5176 74.7604C76.0704 74.4975 76.6081 74.2037 77.128 73.8804C77.128 73.8804 77.4668 74.7604 76.7496 75.1212C76.534 75.212 76.2938 75.2257 76.0694 75.1599C75.845 75.0942 75.6501 74.9531 75.5176 74.7604Z" fill="#703838"/>
<path d="M71.8608 63.3864C71.8608 63.3864 73.2644 70.8664 83.534 70.2548C83.534 70.2548 86.0156 62.5108 79.6972 60.5748C73.3788 58.6388 71.8608 63.3864 71.8608 63.3864Z" fill="#263238"/>
<path d="M71.3857 68.6708L72.6617 67.8876C72.6617 67.8876 72.1601 67.3816 71.6717 67.6984C71.5296 67.8112 71.4258 67.9652 71.3746 68.1393C71.3234 68.3134 71.3273 68.499 71.3857 68.6708Z" fill="#263238"/>
<path d="M81.9765 70.95C81.9765 70.95 82.4825 68.7808 84.0137 68.9304C85.6945 69.0932 85.7165 70.7344 85.6241 71.3064C85.3777 72.8068 83.9521 74.2808 81.6641 74.0608L81.9765 70.95Z" fill="#945959"/>
<path d="M80.6169 70.0392C80.6169 70.0392 80.3661 72.1204 81.8621 72.1204L82.2273 70.2548L80.6169 70.0392Z" fill="#263238"/>
<path d="M63.8398 95.1104C64.5429 95.8125 65.1362 96.6164 65.5998 97.4952C65.5998 97.4952 65.5998 96.1004 64.1302 94.292L63.8398 95.1104Z" fill="#703838"/>
<path d="M58.4806 92.2108L53.6406 83.0368C53.5983 82.9655 53.5771 82.8837 53.5793 82.8008C53.5815 82.718 53.607 82.6374 53.653 82.5684C53.699 82.4995 53.7635 82.4449 53.8392 82.411C53.9148 82.3771 53.9985 82.3652 54.0806 82.3768L59.5762 82.8872C59.7091 82.8997 59.8364 82.9469 59.9453 83.0242C60.0542 83.1014 60.1408 83.2059 60.1966 83.3272L64.9574 92.9588C64.9967 93.0388 65.0132 93.128 65.005 93.2167C64.9968 93.3054 64.9643 93.3901 64.9111 93.4616C64.8579 93.533 64.786 93.5883 64.7033 93.6215C64.6206 93.6547 64.5304 93.6644 64.4426 93.6496L59.211 92.7696C59.0546 92.7385 58.9075 92.6719 58.7808 92.5751C58.6542 92.4782 58.5515 92.3536 58.4806 92.2108Z" fill="#263238"/>
<path d="M64.975 92.9456L60.2142 83.314C60.1585 83.1927 60.0718 83.0882 59.9629 83.011C59.854 82.9337 59.7268 82.8865 59.5938 82.874L54.1202 82.3768C54.0585 82.37 53.9961 82.3763 53.937 82.3953C53.8779 82.4144 53.8235 82.4457 53.7773 82.4872C53.7312 82.5288 53.6944 82.5797 53.6693 82.6365C53.6442 82.6933 53.6315 82.7547 53.6318 82.8168C53.6912 82.7964 53.7542 82.7889 53.8166 82.7948L59.3122 83.3008C59.4448 83.3146 59.5715 83.3623 59.6802 83.4394C59.7889 83.5165 59.8758 83.6203 59.9326 83.7408L64.6802 93.368C64.7159 93.4434 64.7311 93.5269 64.7242 93.61C64.786 93.5849 64.8419 93.5473 64.8885 93.4995C64.935 93.4518 64.9712 93.395 64.9947 93.3326C65.0183 93.2702 65.0287 93.2036 65.0253 93.137C65.0219 93.0704 65.0048 93.0053 64.975 92.9456Z" fill="#37474F"/>
<path d="M55.6118 86.7548L58.089 91.4628C58.089 91.4628 63.457 91.9028 63.2898 89.474C63.1226 87.0452 62.049 87.0936 62.049 87.0936C62.049 87.0936 58.4542 87.9252 55.6118 86.7548Z" fill="#945959"/>
<path d="M98.4634 99.3564C98.4634 101.231 94.9214 112.31 94.9214 112.31L91.5686 110.409C92.0419 108.549 92.2973 106.639 92.3298 104.72C92.339 102.941 92.5546 101.169 92.9722 99.44C92.9722 99.44 91.0758 95.92 87.3622 90.3892V90.3628C83.8422 85.1444 86.2138 81.7212 86.513 81.3296L87.1202 81.4C91.0406 81.8796 92.4266 85.9628 93.839 88.44C95.2514 90.9172 98.481 97.4864 98.4634 99.3564Z" fill="#945959"/>
<path d="M91.5684 110.409C91.2437 110.652 90.8959 110.863 90.53 111.038C90.0108 111.276 89.54 111.355 88.638 112.754C88.0572 113.656 87.2168 113.582 87.318 114.202C87.4192 114.822 89.4564 114.501 90.112 113.542C89.9349 114.332 89.5679 115.068 89.0428 115.685C88.2816 116.424 87.186 117.621 87.186 118.254C87.186 118.888 90.2924 120.036 92.1756 118.386C94.0588 116.736 94.9432 112.31 94.9432 112.31L91.5684 110.409Z" fill="#945959"/>
<path d="M162.673 22.8228L144.593 12.386C143.11 11.5324 141.909 12.4388 141.909 14.4188V24.948C141.909 26.9236 143.11 29.2248 144.593 30.0828L146.261 31.042L143.44 37.026L150.705 33.6028L162.682 40.5196C164.164 41.3996 165.37 40.4668 165.37 38.4868V27.962C165.361 25.982 164.156 23.6808 162.673 22.8228Z" fill="#E0E0E0"/>
<path d="M161.617 27.9136C161.579 27.9143 161.542 27.9035 161.511 27.8828L145.539 18.6648C145.489 18.6346 145.452 18.5859 145.437 18.5291C145.423 18.4724 145.431 18.4121 145.46 18.3612C145.474 18.336 145.493 18.3139 145.516 18.2963C145.539 18.2786 145.565 18.2657 145.593 18.2583C145.62 18.2509 145.65 18.2492 145.678 18.2533C145.707 18.2573 145.734 18.2671 145.759 18.282L161.731 27.522C161.773 27.5467 161.805 27.5844 161.823 27.6293C161.841 27.6742 161.844 27.7238 161.831 27.7704C161.817 27.817 161.789 27.858 161.751 27.8871C161.712 27.9162 161.665 27.9317 161.617 27.9312V27.9136Z" fill="#9269AD"/>
<path d="M161.616 31.2796C161.58 31.2798 161.543 31.2707 161.511 31.2532L145.539 22.0132C145.514 21.9991 145.492 21.98 145.474 21.9572C145.456 21.9344 145.443 21.9082 145.436 21.8803C145.429 21.8524 145.427 21.8233 145.431 21.7948C145.435 21.7662 145.445 21.7387 145.46 21.714C145.488 21.6633 145.536 21.626 145.592 21.6104C145.648 21.5947 145.708 21.6019 145.759 21.6304L161.731 30.8704C161.772 30.8951 161.805 30.9328 161.823 30.9777C161.841 31.0226 161.843 31.0722 161.83 31.1188C161.817 31.1654 161.789 31.2064 161.751 31.2355C161.712 31.2646 161.665 31.2801 161.616 31.2796Z" fill="#9269AD"/>
<path d="M154.264 30.404C154.225 30.4043 154.187 30.3936 154.154 30.3732L145.539 25.3968C145.511 25.3841 145.486 25.3657 145.465 25.3427C145.445 25.3197 145.43 25.2927 145.42 25.2634C145.411 25.2341 145.408 25.2031 145.411 25.1725C145.414 25.1419 145.424 25.1124 145.439 25.0857C145.455 25.0591 145.476 25.0361 145.501 25.018C145.526 25 145.554 24.9874 145.584 24.981C145.614 24.9747 145.646 24.9747 145.676 24.9812C145.706 24.9876 145.734 25.0003 145.759 25.0184L154.374 29.9904C154.424 30.0207 154.461 30.069 154.477 30.1255C154.492 30.182 154.485 30.2423 154.458 30.294C154.438 30.3273 154.409 30.3549 154.375 30.3741C154.341 30.3934 154.303 30.4037 154.264 30.404Z" fill="#9269AD"/>
<path d="M181.448 40.3744L174.24 36.2208C173.36 35.706 172.621 36.2516 172.621 37.4484V43.7976C172.621 44.99 173.347 46.3804 174.24 46.8776L175.903 47.8368L177.267 53.7064L178.376 49.28L181.456 51.04C182.336 51.5548 183.076 51.0048 183.076 49.8124V43.472C183.067 42.2796 182.341 40.8892 181.448 40.3744Z" fill="#E0E0E0"/>
<path d="M180.246 45.1176C180.246 46.8424 179.032 47.542 177.54 46.6796C176.751 46.1661 176.095 45.4737 175.624 44.6587C175.153 43.8437 174.881 42.9291 174.83 41.9892C174.83 40.2644 176.044 39.5648 177.54 40.4272C178.328 40.9415 178.983 41.6342 179.453 42.4491C179.924 43.264 180.195 44.1782 180.246 45.1176Z" fill="#9269AD"/>
<g opacity="0.2">
<path opacity="0.2" d="M180.246 45.1176C180.246 46.8424 179.032 47.542 177.54 46.6796C176.751 46.1661 176.095 45.4737 175.624 44.6587C175.153 43.8437 174.881 42.9291 174.83 41.9892C174.83 40.2644 176.044 39.5648 177.54 40.4272C178.328 40.9415 178.983 41.6342 179.453 42.4491C179.924 43.264 180.195 44.1782 180.246 45.1176Z" fill="white"/>
</g>
<path d="M175.767 42.108C175.711 42.0738 175.669 42.0208 175.648 41.9584C175.618 41.866 175.648 41.7868 175.71 41.7868H176.401L175.71 40.986C175.679 40.9558 175.657 40.9176 175.646 40.8758C175.635 40.8339 175.636 40.7899 175.648 40.7484C175.684 40.6912 175.763 40.7088 175.824 40.7836L176.753 41.8572C176.797 41.9055 176.824 41.9677 176.828 42.0332C176.828 42.0904 176.797 42.1256 176.753 42.1256H175.824C175.804 42.1259 175.784 42.1198 175.767 42.108Z" fill="white"/>
<path d="M179.155 44.066C179.125 44.0513 179.099 44.0285 179.08 44L178.152 42.9264C178.109 42.8773 178.085 42.8153 178.082 42.7504C178.082 42.6932 178.108 42.6536 178.152 42.6536H179.08C179.146 42.6536 179.226 42.7328 179.256 42.8252C179.287 42.9176 179.256 42.9968 179.199 42.9968H178.504L179.199 43.7976C179.231 43.8275 179.253 43.8658 179.263 43.908C179.273 43.9501 179.271 43.9943 179.256 44.0352C179.252 44.0924 179.204 44.0968 179.155 44.066Z" fill="white"/>
<path d="M177.54 45.3508C176.668 44.7943 176.004 43.9652 175.653 42.9924C175.641 42.9682 175.636 42.942 175.636 42.9154C175.636 42.8888 175.641 42.8625 175.653 42.8384C175.675 42.8076 175.719 42.8032 175.767 42.8384L179.287 44.8844C179.341 44.9163 179.381 44.9662 179.401 45.0252C179.412 45.0493 179.418 45.0756 179.418 45.1022C179.418 45.1288 179.412 45.155 179.401 45.1792C179.036 45.76 178.328 45.8084 177.54 45.3508ZM176 43.274C176.324 43.9999 176.857 44.6127 177.531 45.034C178.147 45.3904 178.702 45.3816 179.058 45.034L176 43.274Z" fill="white"/>
<path d="M51.2514 86.3192L44.3214 83.9784C43.7321 80.2854 41.7726 76.9502 38.8338 74.6375C35.8949 72.3249 32.1924 71.2047 28.4644 71.5003C24.7364 71.7959 21.2567 73.4855 18.719 76.2324C16.1813 78.9793 14.772 82.5817 14.772 86.3214C14.772 90.0611 16.1813 93.6634 18.719 96.4103C21.2567 99.1572 24.7364 100.847 28.4644 101.142C32.1924 101.438 35.8949 100.318 38.8338 98.0052C41.7726 95.6926 43.7321 92.3573 44.3214 88.6644L51.2514 86.3192Z" fill="#9269AD"/>
<path opacity="0.6" d="M51.2514 86.3192L44.3214 83.9784C43.7321 80.2854 41.7726 76.9502 38.8338 74.6375C35.8949 72.3249 32.1924 71.2047 28.4644 71.5003C24.7364 71.7959 21.2567 73.4855 18.719 76.2324C16.1813 78.9793 14.772 82.5817 14.772 86.3214C14.772 90.0611 16.1813 93.6634 18.719 96.4103C21.2567 99.1572 24.7364 100.847 28.4644 101.142C32.1924 101.438 35.8949 100.318 38.8338 98.0052C41.7726 95.6926 43.7321 92.3573 44.3214 88.6644L51.2514 86.3192Z" fill="white"/>
<path d="M41.5273 95.2336C40.3042 96.8585 38.7595 98.2141 36.9895 99.2159C35.2195 100.218 33.2622 100.844 31.2395 101.056C29.2167 101.269 27.172 101.062 25.2327 100.449C23.2933 99.8365 21.501 98.8309 19.9673 97.4952L25.1989 95.59L32.2741 94.1336L34.5401 93.4868C35.756 93.1441 37.0403 93.125 38.2659 93.4313C39.4915 93.7377 40.6157 94.359 41.5273 95.2336Z" fill="#455A64"/>
<path d="M39.4154 79.7192C39.4154 79.7192 40.5682 73.92 35.2002 71.5704C29.8322 69.2208 21.481 70.1008 19.6462 77.44C17.8114 84.7792 22.5326 89.3948 25.1902 90.3848L39.4154 79.7192Z" fill="#263238"/>
<path d="M25.1904 95.5944L25.9868 96.8528C26.5864 97.7993 27.4346 98.563 28.4386 99.0604C29.4427 99.5577 30.5641 99.7697 31.6804 99.6732C32.0435 99.6382 32.3925 99.5146 32.6966 99.3132C33.0007 99.1117 33.2507 98.8386 33.4245 98.5179C33.5984 98.1972 33.6907 97.8387 33.6935 97.4739C33.6963 97.1092 33.6094 96.7493 33.4404 96.426L32.248 94.1336V85.0168H25.1904V95.5944Z" fill="#FFA8A7"/>
<path d="M32.2654 93.5836C30.8199 93.0458 29.4986 92.2203 28.3815 91.1569C27.2645 90.0935 26.3749 88.8145 25.7666 87.3972V85.0168H32.2654V93.5836Z" fill="#F28F8F"/>
<path d="M33.9154 73.4184C33.9154 73.4184 40.6474 73.6736 39.433 84.5152C38.861 89.6148 38.443 92.4352 34.0782 92.4352C29.7134 92.4352 23.2762 89.144 23.6942 80.3924C24.1122 71.6408 33.9154 73.4184 33.9154 73.4184Z" fill="#FFA8A7"/>
<path d="M34.7427 82.9576V86.7636L36.9735 86.0772L34.7427 82.9576Z" fill="#F28F8F"/>
<path d="M32.2656 84.392C32.6933 84.392 33.04 84.0453 33.04 83.6176C33.04 83.1899 32.6933 82.8432 32.2656 82.8432C31.8379 82.8432 31.4912 83.1899 31.4912 83.6176C31.4912 84.0453 31.8379 84.392 32.2656 84.392Z" fill="#263238"/>
<path d="M36.5859 83.0764C36.5851 83.2306 36.63 83.3816 36.7151 83.5103C36.8001 83.6389 36.9214 83.7394 37.0637 83.7991C37.2059 83.8587 37.3626 83.8747 37.514 83.8452C37.6653 83.8156 37.8045 83.7418 37.9139 83.6331C38.0232 83.5243 38.0978 83.3856 38.1282 83.2344C38.1587 83.0832 38.1435 82.9264 38.0847 82.7838C38.0259 82.6412 37.926 82.5194 37.7979 82.4336C37.6697 82.3478 37.519 82.302 37.3647 82.302C37.2627 82.3014 37.1615 82.321 37.067 82.3597C36.9726 82.3984 36.8867 82.4553 36.8143 82.5273C36.7419 82.5992 36.6845 82.6848 36.6453 82.779C36.6061 82.8733 36.5859 82.9743 36.5859 83.0764Z" fill="#263238"/>
<path d="M38.3066 81.4616L36.793 80.5816C36.793 80.5816 37.3738 79.9744 37.9546 80.3396C38.1179 80.4707 38.2385 80.6473 38.3012 80.8471C38.3639 81.0469 38.3657 81.2608 38.3066 81.4616Z" fill="#263238"/>
<path d="M31.8605 81.202L30.4921 82.3152C30.4921 82.3152 30.1269 81.5584 30.6681 81.1404C30.8498 81.0292 31.061 80.9755 31.2738 80.9865C31.4866 80.9975 31.6911 81.0726 31.8605 81.202Z" fill="#263238"/>
<path d="M35.7896 88.3036C35.0514 88.3572 34.3166 88.1603 33.704 87.7448C33.704 87.7448 33.5632 88.8448 34.4828 89.0648C35.4024 89.2848 35.7896 88.3036 35.7896 88.3036Z" fill="#F28F8F"/>
<path d="M37.365 74.954C37.365 74.954 36.6302 77.5544 31.117 77.154C25.6038 76.7536 26.0878 78.2672 26.6862 80.8412C27.0998 82.6012 27.1262 87.34 25.7666 85.0256H23.0386V79.5696C23.038 78.6545 23.2177 77.7483 23.5675 76.9028C23.9173 76.0572 24.4302 75.2888 25.0771 74.6416C25.7239 73.9943 26.4919 73.4809 27.3373 73.1306C28.1826 72.7803 29.0887 72.6 30.0038 72.6H32.7274C33.6305 72.6006 34.5208 72.8136 35.3264 73.2218C36.132 73.6299 36.8303 74.2218 37.365 74.9496V74.954Z" fill="#263238"/>
<path d="M25.8327 84.7396C25.8327 84.7396 25.5555 82.1304 23.7471 82.0996C21.7583 82.0424 21.4899 83.9564 21.5163 84.6384C21.5867 86.4292 23.0343 88.3608 25.7315 88.4356L25.8327 84.7396Z" fill="#FFA8A7"/>
<path d="M63.0302 49.4032C62.5426 46.9857 61.4619 44.7273 59.8851 42.831C58.3083 40.9347 56.285 39.4601 53.997 38.5396C53.5654 38.3688 53.1248 38.2219 52.677 38.0996C50.3795 37.4199 47.9509 37.3111 45.6018 37.7828C44.9958 37.9029 44.3977 38.0601 43.811 38.2536C43.371 38.3988 42.9618 38.5572 42.5614 38.7332C42.447 38.7816 42.337 38.83 42.2314 38.8828C40.2125 39.8248 38.432 41.2099 37.0222 42.9351C35.6125 44.6602 34.6099 46.681 34.089 48.8471C33.5681 51.0132 33.5423 53.2689 34.0135 55.4464C34.4847 57.6238 35.4408 59.6671 36.8106 61.424C37.0878 61.776 37.3694 62.1104 37.6906 62.436C38.7564 63.5703 39.9931 64.5308 41.3558 65.2828C41.5978 65.4148 41.8442 65.5424 42.095 65.6612C42.7915 65.9988 43.5139 66.2798 44.2554 66.5016C45.8239 66.9714 47.4594 67.178 49.0954 67.1132L54.2082 78.1836L53.6934 66.198C54.2671 65.9868 54.827 65.7399 55.3698 65.4588C56.4978 64.8778 57.5439 64.1499 58.4806 63.294C58.9668 62.8577 59.4212 62.3872 59.8402 61.886C61.2789 60.1806 62.3132 58.1719 62.8656 56.0101C63.418 53.8484 63.4743 51.5898 63.0302 49.4032Z" fill="#9269AD"/>
<path opacity="0.6" d="M63.0302 49.4032C62.5426 46.9857 61.4619 44.7273 59.8851 42.831C58.3083 40.9347 56.285 39.4601 53.997 38.5396C53.5654 38.3688 53.1248 38.2219 52.677 38.0996C50.3795 37.4199 47.9509 37.3111 45.6018 37.7828C44.9958 37.9029 44.3977 38.0601 43.811 38.2536C43.371 38.3988 42.9618 38.5572 42.5614 38.7332C42.447 38.7816 42.337 38.83 42.2314 38.8828C40.2125 39.8248 38.432 41.2099 37.0222 42.9351C35.6125 44.6602 34.6099 46.681 34.089 48.8471C33.5681 51.0132 33.5423 53.2689 34.0135 55.4464C34.4847 57.6238 35.4408 59.6671 36.8106 61.424C37.0878 61.776 37.3694 62.1104 37.6906 62.436C38.7564 63.5703 39.9931 64.5308 41.3558 65.2828C41.5978 65.4148 41.8442 65.5424 42.095 65.6612C42.7915 65.9988 43.5139 66.2798 44.2554 66.5016C45.8239 66.9714 47.4594 67.178 49.0954 67.1132L54.2082 78.1836L53.6934 66.198C54.2671 65.9868 54.827 65.7399 55.3698 65.4588C56.4978 64.8778 57.5439 64.1499 58.4806 63.294C58.9668 62.8577 59.4212 62.3872 59.8402 61.886C61.2789 60.1806 62.3132 58.1719 62.8656 56.0101C63.418 53.8484 63.4743 51.5898 63.0302 49.4032Z" fill="white"/>
<path d="M56.8304 61.776C56.8304 62.656 56.2232 63.646 55.1892 64.57C53.9822 65.6038 52.5846 66.3915 51.0752 66.8888C48.7952 67.2976 46.4509 67.1619 44.2332 66.4928C43.4917 66.271 42.7693 65.99 42.0728 65.6524C41.822 65.5336 41.5756 65.406 41.3336 65.274C39.9709 64.522 38.7342 63.5615 37.6684 62.4272C37.3648 62.1016 37.0832 61.7672 36.7884 61.4152C36.4672 58.4364 38.5484 55.4576 38.9884 54.252C39.5736 52.5316 39.9256 46.266 39.996 44.9152C39.996 44.9152 39.996 44.8712 39.996 44.8492C39.996 44.726 39.996 44.66 39.996 44.66C41.3972 44.3711 42.8208 44.2047 44.2508 44.1628C44.3828 44.1628 44.5192 44.1628 44.6644 44.1628C47.3044 44.1276 50.4812 44.5632 52.3248 46.4992C52.9066 47.1024 53.3364 47.8354 53.5788 48.6376C53.7527 49.2002 53.8532 49.7829 53.878 50.3712C53.9044 50.8112 53.9308 51.2512 53.966 51.656C53.966 51.9156 54.01 52.1664 54.0408 52.4084C54.0408 52.4832 54.0408 52.558 54.0408 52.624C54.1517 53.6842 54.3429 54.7344 54.6128 55.7656C54.7226 56.1811 54.8533 56.5909 55.0044 56.9932C55.506 58.3132 56.0516 59.0524 56.4036 59.8708C56.6849 60.4665 56.8307 61.1172 56.8304 61.776Z" fill="#263238"/>
<path d="M59.8007 61.8772C59.3817 62.3784 58.9273 62.8489 58.4411 63.2852C57.5043 64.141 56.4583 64.869 55.3303 65.45L55.1895 64.57L53.9883 56.9228C54.3429 56.9085 54.6981 56.9291 55.0487 56.9844C56.4919 57.1868 58.9647 57.992 59.6335 61.1204L59.8007 61.8772Z" fill="#945959"/>
<path d="M58.4411 63.2852C57.5043 64.141 56.4583 64.869 55.3303 65.45C54.0922 66.097 52.7674 66.5624 51.3967 66.8316C51.2908 66.8566 51.1835 66.8757 51.0755 66.8888C48.7954 67.2975 46.4511 67.1618 44.2335 66.4928C43.492 66.2709 42.7695 65.9899 42.0731 65.6524C41.8223 65.5336 41.5759 65.406 41.3339 65.274C41.1799 60.1612 42.0951 57.9128 42.0951 57.9128L42.5879 57.7808C42.6185 57.7767 42.6496 57.7767 42.6803 57.7808C43.9343 57.4772 45.7603 57.1648 45.7603 57.1648L51.5947 57.0372L54.0059 56.9448C54.8894 57.8694 55.711 58.8513 56.4655 59.884C57.253 60.9377 57.9159 62.079 58.4411 63.2852Z" fill="#37474F"/>
<path d="M43.9212 38.0864C43.9212 38.0864 43.6176 35.7632 43.2084 35.75C42.7992 35.7368 42.6012 37.7124 42.6012 37.7124C42.6012 37.7124 40.7488 37.3076 40.8764 37.8708C41.004 38.434 43.1204 39.2612 43.1204 39.2612L43.9212 38.0864Z" fill="#263238"/>
<path d="M39.9919 45.5488C40.0403 52.0124 45.7603 53.1916 45.7603 53.1916L57.2619 49.2008C57.9781 48.6129 58.4781 47.8032 58.6831 46.8996C58.873 46.2134 58.9648 45.5039 58.9559 44.792C58.9559 42.0728 57.3103 38.94 53.0687 37.5012C52.1385 37.1875 51.1787 36.9693 50.2043 36.85C49.7372 36.7883 49.2672 36.7516 48.7963 36.74C45.3555 36.6388 42.7947 37.9148 41.3471 40.2248C41.0229 40.7466 40.7615 41.3048 40.5683 41.888C40.173 43.0675 39.9782 44.3049 39.9919 45.5488Z" fill="#263238"/>
<path d="M45.7603 57.1428L46.0243 57.5828C47.2937 59.7806 49.1635 61.571 51.4143 62.744L52.1447 63.1224C52.255 63.1765 52.3772 63.2018 52.4999 63.1961C52.6226 63.1904 52.7419 63.1538 52.8467 63.0898C52.9516 63.0257 53.0386 62.9363 53.0997 62.8297C53.1608 62.7231 53.194 62.6028 53.1963 62.48C53.189 60.7152 52.7202 58.9829 51.8367 57.4552L51.5771 57.0152V48.6552H45.7603V57.1428Z" fill="#945959"/>
<path d="M45.7603 49.9048V50.116C46.7285 53.09 48.8228 55.5665 51.5947 57.0152V48.6552H45.9055L45.7603 49.9048Z" fill="#703838"/>
<path d="M51.48 38.9268C53.5436 39.1908 57.7852 40.9068 57.6004 46.3716C57.4156 51.8364 56.386 55.968 53.5436 56.012C50.7012 56.056 44.4928 53.2092 44.5236 46.1032C44.5544 38.9972 49.478 38.6672 51.48 38.9268Z" fill="#945959"/>
<path d="M53.6099 48.5936L53.2007 51.7792L55.1367 51.4448L53.6099 48.5936Z" fill="#703838"/>
<path d="M50.8684 48.1756C50.8632 48.2623 50.8751 48.3491 50.9035 48.4312C50.9318 48.5133 50.9761 48.5889 51.0337 48.6539C51.0913 48.7189 51.1611 48.7718 51.2392 48.8098C51.3173 48.8478 51.4021 48.87 51.4888 48.8752C51.5754 48.8804 51.6623 48.8685 51.7444 48.8401C51.8264 48.8118 51.9021 48.7675 51.9671 48.7099C52.032 48.6523 52.085 48.5824 52.123 48.5044C52.161 48.4263 52.1832 48.3415 52.1884 48.2548C52.1989 48.0798 52.1394 47.9077 52.0231 47.7765C51.9067 47.6453 51.743 47.5657 51.568 47.5552C51.3929 47.5447 51.2209 47.6042 51.0897 47.7205C50.9585 47.8369 50.8789 48.0006 50.8684 48.1756Z" fill="#263238"/>
<path d="M55.1938 47.96C55.1853 48.0896 55.2155 48.2189 55.2806 48.3314C55.3457 48.4438 55.4427 48.5344 55.5594 48.5916C55.676 48.6488 55.8071 48.6701 55.9358 48.6526C56.0646 48.6352 56.1853 48.5799 56.2826 48.4938C56.3799 48.4077 56.4494 48.2946 56.4822 48.1689C56.5151 48.0432 56.5099 47.9105 56.4673 47.7878C56.4246 47.665 56.3465 47.5577 56.2427 47.4795C56.139 47.4013 56.0143 47.3556 55.8846 47.3484C55.7121 47.3387 55.5428 47.3976 55.4134 47.5121C55.284 47.6266 55.2051 47.7876 55.1938 47.96Z" fill="#263238"/>
<path d="M56.7252 46.706L55.4932 45.87C55.4932 45.87 56.0124 45.3904 56.4832 45.7248C56.6194 45.8437 56.7157 46.0017 56.759 46.1772C56.8023 46.3528 56.7905 46.5374 56.7252 46.706Z" fill="#263238"/>
<path d="M53.7064 53.0508C53.0836 53.0953 52.4639 52.9295 51.9464 52.58C51.9464 52.58 51.8276 53.5084 52.6064 53.6844C52.8346 53.721 53.0685 53.678 53.2688 53.5626C53.469 53.4473 53.6236 53.2666 53.7064 53.0508Z" fill="#703838"/>
<path d="M56.4917 41.4348C56.4917 41.4348 54.7581 48.796 44.5853 47.7268C44.5853 47.7268 42.4733 39.9212 48.8357 38.2888C55.1981 36.6564 56.4917 41.4348 56.4917 41.4348Z" fill="#263238"/>
<path d="M46.1035 48.488C46.1035 48.488 45.6943 46.288 44.1675 46.3892C42.4911 46.4772 42.4075 48.1052 42.4603 48.6772C42.6407 50.1776 43.9871 51.7088 46.2619 51.59L46.1035 48.488Z" fill="#945959"/>
<path d="M44.2245 66.2508V66.4928C43.483 66.271 42.7605 65.9899 42.0641 65.6524C41.8133 65.5336 41.5669 65.406 41.3249 65.274C39.9622 64.522 38.7255 63.5614 37.6597 62.4272C38.1745 59.2724 40.6165 58.1064 42.5789 57.7808C42.6095 57.7768 42.6406 57.7768 42.6713 57.7808C42.6713 57.7808 45.0209 59.1932 44.2245 66.2508Z" fill="#945959"/>
</svg>
