<svg width="219" height="227" viewBox="0 0 219 227" fill="none" xmlns="http://www.w3.org/2000/svg">
<path d="M109.5 227C169.975 227 219 198.622 219 163.615C219 128.608 169.975 100.23 109.5 100.23C49.0248 100.23 0 128.608 0 163.615C0 198.622 49.0248 227 109.5 227Z" fill="#F5F5F5"/>
<path d="M179.196 196.709C193.793 196.709 205.627 189.86 205.627 181.411C205.627 172.961 193.793 166.112 179.196 166.112C164.598 166.112 152.765 172.961 152.765 181.411C152.765 189.86 164.598 196.709 179.196 196.709Z" fill="#E0E0E0"/>
<path d="M153.48 172.891L90.0753 209.576C88.2899 210.608 85.1742 210.478 83.1137 209.285L15.9384 170.339C13.8779 169.146 13.6579 167.331 15.4383 166.328L78.8427 129.603C80.6281 128.57 83.7439 128.701 85.8043 129.894L152.98 168.84C155.04 170.028 155.26 171.833 153.48 172.891Z" fill="#E0E0E0"/>
<path d="M172.804 24.8458L176.135 26.7412V25.5629C176.135 25.4776 176.135 25.3924 176.135 25.3122C176.135 25.2319 176.135 25.1517 176.135 25.0715V25.0414C176.255 23.4719 177.435 22.8702 178.88 23.7076C179.532 24.1129 180.089 24.6532 180.516 25.2921C180.841 23.1661 182.571 22.3989 184.667 23.6073C186.992 24.9562 188.873 28.2254 188.873 30.9181V33.4252C188.871 33.6274 188.922 33.8264 189.021 34.0024C189.121 34.1784 189.264 34.3252 189.438 34.4281L191.398 35.5813C191.823 35.8308 192.176 36.1875 192.42 36.6159C192.665 37.0443 192.794 37.5295 192.794 38.0233C192.793 38.2278 192.739 38.4287 192.637 38.6056C192.534 38.7825 192.387 38.9292 192.21 39.0309C192.033 39.1326 191.833 39.1857 191.629 39.1849C191.425 39.184 191.224 39.1293 191.048 39.0261L172.854 28.4812C172.371 28.2016 171.97 27.7996 171.691 27.3156C171.412 26.8316 171.264 26.2825 171.264 25.7233C171.267 25.5442 171.317 25.369 171.408 25.2151C171.5 25.0611 171.629 24.9336 171.785 24.8451C171.94 24.7566 172.116 24.7101 172.295 24.7102C172.473 24.7104 172.649 24.7571 172.804 24.8458Z" fill="#E6E6E6"/>
<path d="M159.951 8.01804L162.262 9.33178V8.51446C162.262 8.45428 162.262 8.39913 162.262 8.33896C162.262 8.27879 162.262 8.22864 162.262 8.17349C162.347 7.09041 163.167 6.66921 164.167 7.25087C164.621 7.53164 165.01 7.90597 165.308 8.34898C165.533 6.8748 166.733 6.34329 168.183 7.18067C169.033 7.73647 169.74 8.48502 170.247 9.36572C170.755 10.2464 171.048 11.2345 171.104 12.2501V14.005C171.103 14.1444 171.139 14.2814 171.209 14.402C171.278 14.5227 171.378 14.6228 171.499 14.692L172.854 15.4943C173.149 15.6674 173.394 15.9149 173.564 16.2122C173.735 16.5095 173.824 16.8463 173.825 17.1891C173.824 17.331 173.787 17.4703 173.716 17.5931C173.645 17.7159 173.543 17.8177 173.42 17.8884C173.298 17.9591 173.159 17.9961 173.017 17.9957C172.876 17.9953 172.737 17.9575 172.614 17.8861L160.011 10.5553C159.677 10.36 159.4 10.0805 159.207 9.74448C159.014 9.40844 158.912 9.0276 158.911 8.63981C158.913 8.51799 158.945 8.39858 159.006 8.29301C159.067 8.18745 159.153 8.09925 159.258 8.03687C159.362 7.97448 159.481 7.93999 159.602 7.9367C159.724 7.9334 159.844 7.96141 159.951 8.01804Z" fill="#E6E6E6"/>
<path d="M16.8841 155.341L9.38241 159.759C9.38241 159.759 5.95163 159.258 6.21169 156.013C6.47175 152.769 7.86207 152.002 6.13167 150.593C4.40127 149.184 3.94617 149.089 4.03119 147.68C4.11621 146.271 5.03142 145.674 5.48652 145.128C5.94163 144.581 7.1569 143.418 6.29171 141.733C5.42651 140.048 4.25624 138.428 5.99664 137.656C7.03188 137.2 8.77727 137.772 9.93254 139.005C11.0878 140.239 12.043 141.121 13.1333 141.402C14.2235 141.683 16.514 141.713 16.439 143.603C16.364 145.494 15.8689 146.15 16.329 146.988C17.1992 148.557 20.88 149.41 16.8841 155.341Z" fill="#9269AD"/>
<path opacity="0.2" d="M16.8841 155.341L9.38241 159.759C9.38241 159.759 5.95163 159.258 6.21169 156.013C6.47175 152.769 7.86207 152.002 6.13167 150.593C4.40127 149.184 3.94617 149.089 4.03119 147.68C4.11621 146.271 5.03142 145.674 5.48652 145.128C5.94163 144.581 7.1569 143.418 6.29171 141.733C5.42651 140.048 4.25624 138.428 5.99664 137.656C7.03188 137.2 8.77727 137.772 9.93254 139.005C11.0878 140.239 12.043 141.121 13.1333 141.402C14.2235 141.683 16.514 141.713 16.439 143.603C16.364 145.494 15.8689 146.15 16.329 146.988C17.1992 148.557 20.88 149.41 16.8841 155.341Z" fill="black"/>
<path d="M13.8338 157.307C13.8103 157.306 13.7874 157.3 13.7663 157.289C13.7452 157.279 13.7263 157.265 13.7109 157.247C13.6956 157.229 13.6839 157.208 13.6766 157.186C13.6694 157.164 13.6667 157.14 13.6687 157.117C13.6687 157.006 14.4739 145.985 6.85218 138.759C6.81835 138.727 6.79882 138.682 6.79789 138.635C6.79695 138.588 6.81468 138.543 6.84718 138.509C6.87967 138.475 6.92427 138.455 6.97117 138.454C7.01806 138.453 7.06341 138.471 7.09723 138.504C14.849 145.845 14.0338 157.031 14.0238 157.147C14.0188 157.193 13.9962 157.235 13.9608 157.265C13.9254 157.295 13.8799 157.31 13.8338 157.307Z" fill="white"/>
<path d="M12.4777 147.71C12.4541 147.709 12.4307 147.704 12.4093 147.694C12.3878 147.684 12.3687 147.669 12.3532 147.651C12.3376 147.633 12.326 147.612 12.319 147.59C12.3121 147.567 12.3099 147.543 12.3127 147.519C12.3687 146.602 12.6141 145.706 13.0334 144.889C13.4526 144.071 14.0366 143.35 14.7483 142.771C14.7866 142.752 14.8304 142.748 14.8717 142.758C14.9129 142.769 14.9491 142.794 14.9737 142.829C14.9983 142.864 15.0098 142.907 15.0061 142.949C15.0023 142.992 14.9836 143.032 14.9533 143.062C14.2907 143.616 13.7466 144.299 13.3539 145.069C12.9611 145.839 12.7277 146.681 12.6678 147.544C12.664 147.591 12.6419 147.635 12.6064 147.666C12.5709 147.697 12.5247 147.713 12.4777 147.71Z" fill="white"/>
<path d="M13.0437 149.62C13.0182 149.62 12.993 149.615 12.9697 149.605C12.9464 149.594 12.9256 149.579 12.9086 149.56C12.9086 149.56 10.9982 147.504 6.69723 148.096C6.67421 148.099 6.65072 148.098 6.62813 148.093C6.60554 148.087 6.58431 148.077 6.56568 148.063C6.54705 148.049 6.5314 148.031 6.51964 148.011C6.50787 147.991 6.50024 147.969 6.49718 147.946C6.48999 147.898 6.50174 147.85 6.52986 147.812C6.55798 147.773 6.60018 147.747 6.64722 147.74C11.1482 147.123 13.0937 149.244 13.1487 149.319C13.1653 149.336 13.1785 149.355 13.1876 149.377C13.1966 149.398 13.2012 149.421 13.2012 149.445C13.2012 149.468 13.1966 149.491 13.1876 149.513C13.1785 149.534 13.1653 149.554 13.1487 149.57C13.1207 149.599 13.0835 149.616 13.0437 149.62Z" fill="white"/>
<path d="M20.3999 153.261L15.8638 155.903C15.8638 155.903 18.1544 148.582 16.8641 141.216C16.5593 139.481 15.9334 137.817 15.0186 136.312C14.6636 135.57 11.9279 130.972 14.3335 128.856C16.739 126.74 22.3903 130.952 22.1353 142.294C22.0201 146.009 21.437 149.693 20.3999 153.261Z" fill="#9269AD"/>
<path opacity="0.5" d="M20.3999 153.261L15.8638 155.903C15.8638 155.903 18.1544 148.582 16.8641 141.216C16.5593 139.481 15.9334 137.817 15.0186 136.312C14.6636 135.57 11.9279 130.972 14.3335 128.856C16.739 126.74 22.3903 130.952 22.1353 142.294C22.0201 146.009 21.437 149.693 20.3999 153.261Z" fill="black"/>
<path d="M18.2899 154.67H18.2298C18.1856 154.653 18.1498 154.619 18.1301 154.576C18.1105 154.533 18.1086 154.484 18.1248 154.439C18.1248 154.394 19.8302 149.68 19.7402 142.099C19.6502 134.517 15.7393 130.566 15.6893 130.516C15.6726 130.5 15.6594 130.48 15.6504 130.459C15.6414 130.437 15.6367 130.414 15.6367 130.391C15.6367 130.367 15.6414 130.344 15.6504 130.323C15.6594 130.301 15.6726 130.282 15.6893 130.265C15.706 130.248 15.7259 130.235 15.7477 130.226C15.7696 130.217 15.7931 130.212 15.8168 130.212C15.8405 130.212 15.8639 130.217 15.8858 130.226C15.9077 130.235 15.9276 130.248 15.9443 130.265C15.9843 130.305 20.0152 134.402 20.1053 142.094C20.1953 149.786 18.4799 154.504 18.4799 154.554C18.4656 154.592 18.4392 154.624 18.4047 154.645C18.3703 154.666 18.3298 154.674 18.2899 154.67Z" fill="white"/>
<path d="M98.8184 4.75377C98.6612 4.06847 98.3675 3.42208 97.955 2.85339C97.5425 2.2847 97.0196 1.80544 96.4178 1.44437L96.2128 1.32403C94.7604 0.457502 93.1017 0.000158592 91.4117 0.000271437C90.8725 -0.00703786 90.3417 0.133398 89.8763 0.406425L31.573 34.1623C29.7279 35.2289 28.3126 36.9086 27.5721 38.9108C27.5721 38.9459 27.5471 38.976 27.5371 39.0061C27.428 39.3064 27.3362 39.6128 27.262 39.9237C27.262 39.9688 27.262 40.0139 27.227 40.054C27.157 40.3649 27.102 40.6808 27.062 40.9967V41.117C27.0244 41.45 27.0044 41.7848 27.002 42.1199V168.539V169.592C27.0004 170.097 27.1295 170.593 27.3767 171.032C27.624 171.472 27.9808 171.839 28.4123 172.099L30.7378 173.483C31.5438 173.965 32.4649 174.22 33.4034 174.22H34.5487C35.0893 174.226 35.6215 174.086 36.089 173.814L94.3723 140.048C95.7668 139.241 96.9248 138.081 97.7299 136.683C98.5349 135.285 98.9586 133.7 98.9584 132.085V5.91708V5.65634C98.9551 5.35031 98.9079 5.04635 98.8184 4.75377ZM98.1732 3.64563L98.1332 3.6005L98.1732 3.64563ZM97.9432 3.41998L97.8731 3.35981L97.9432 3.41998ZM97.6831 3.20938L97.5881 3.14921L97.6831 3.20938ZM97.393 3.02887L97.283 2.97372L97.393 3.02887ZM97.083 2.87844L96.9479 2.83332L97.083 2.87844ZM96.6229 2.73805L96.4228 2.69793L96.6229 2.73805ZM96.2678 2.67788C96.2028 2.67788 96.1327 2.67788 96.0627 2.67788C96.1327 2.66283 96.2028 2.67286 96.2678 2.67788ZM95.9077 2.67788C95.8361 2.67289 95.7642 2.67289 95.6926 2.67788C95.7639 2.66787 95.8357 2.66284 95.9077 2.66283V2.67788ZM94.8124 2.90352C94.6898 2.95287 94.5711 3.01154 94.4574 3.07902C94.5712 3.01326 94.6899 2.95626 94.8124 2.90853V2.90352ZM95.5426 2.70295L95.3176 2.74306L95.5426 2.70295ZM95.1775 2.77816L94.9325 2.85839L95.1775 2.77816ZM34.0136 174.145L33.9035 174.12L34.0136 174.145ZM32.9633 173.729L32.8683 173.664L32.9633 173.729ZM31.623 171.753L31.653 171.883L31.623 171.753ZM32.0681 172.846L32.1381 172.951L32.0681 172.846Z" fill="#37474F"/>
<path d="M31.5675 44.7725C31.5666 43.159 31.9901 41.5737 32.7952 40.1766C33.6004 38.7795 34.7588 37.62 36.1535 36.8149L94.4568 3.06409C94.8454 2.83902 95.2794 2.7042 95.7269 2.66958C96.1744 2.63496 96.6238 2.7014 97.0423 2.86402C97.4607 3.02664 97.8375 3.2813 98.1448 3.60923C98.452 3.93717 98.6821 4.33003 98.8178 4.7589C98.6607 4.0736 98.367 3.42721 97.9545 2.85852C97.542 2.28983 97.0191 1.81056 96.4173 1.4495L96.2122 1.32916C94.7599 0.46263 93.1012 0.00528554 91.4111 0.00539839C90.872 -0.00191091 90.3411 0.138526 89.8758 0.411553L31.5725 34.1624C30.1775 34.9676 29.0187 36.127 28.2127 37.524C27.4067 38.921 26.9821 40.5062 26.9814 42.12V168.539C26.9811 169.067 27.1195 169.586 27.3827 170.044C27.646 170.502 28.0247 170.882 28.481 171.146C28.9372 171.41 29.4548 171.549 29.9817 171.55C30.5085 171.55 31.0262 171.411 31.4825 171.146L31.5575 171.101L31.5675 44.7725Z" fill="#37484F"/>
<path d="M94.3716 140.048L36.0733 173.799C35.617 174.063 35.0994 174.202 34.5725 174.202C34.0456 174.202 33.528 174.063 33.0718 173.798C32.6156 173.534 32.2368 173.154 31.9736 172.696C31.7103 172.239 31.5719 171.72 31.5723 171.191V44.7724C31.5714 43.1589 31.9949 41.5736 32.8 40.1765C33.6052 38.7794 34.7636 37.6198 36.1583 36.8148L94.4566 3.06396C94.9129 2.79982 95.4305 2.6608 95.9574 2.66089C96.4843 2.66097 97.0019 2.80016 97.4581 3.06444C97.9143 3.32872 98.2931 3.70879 98.5564 4.16641C98.8196 4.62404 98.958 5.14309 98.9576 5.67136V132.085C98.9579 133.7 98.5342 135.285 97.7291 136.683C96.9241 138.081 95.7661 139.241 94.3716 140.048Z" fill="#455A64"/>
<path d="M31.5675 171.191V44.7725C31.5709 43.3949 31.8837 42.0359 32.4827 40.7962L27.9817 38.0082C27.3323 39.2852 26.9898 40.6966 26.9815 42.1299V169.592C26.9799 170.097 27.109 170.593 27.3562 171.032C27.6035 171.472 27.9603 171.839 28.3918 172.099L30.7173 173.483C31.5233 173.965 32.4444 174.22 33.3829 174.22H34.5282C33.7358 174.21 32.9798 173.885 32.4251 173.318C31.8705 172.75 31.5622 171.986 31.5675 171.191Z" fill="#253239"/>
<path d="M92.3666 15.2135V121.47C92.3645 122.893 91.9896 124.291 91.2796 125.523C90.5695 126.755 89.5492 127.778 88.3206 128.49L36.8339 158.3C36.447 158.528 36.0074 158.651 35.5586 158.656C35.7079 158.999 35.9278 159.308 36.204 159.56C36.4803 159.813 36.8065 160.004 37.1615 160.121C37.5165 160.239 37.8923 160.28 38.2641 160.241C38.636 160.203 38.9956 160.087 39.3195 159.899L90.8312 130.095C92.0608 129.384 93.082 128.36 93.7922 127.128C94.5024 125.896 94.8766 124.498 94.8771 123.075V17.866C94.8768 17.1857 94.6163 16.5314 94.1492 16.038C93.6822 15.5445 93.0441 15.2494 92.3666 15.2135Z" fill="#37484F"/>
<path d="M35.5588 158.656C36.0076 158.651 36.4472 158.528 36.8341 158.3L88.3459 128.5C89.5744 127.788 90.5948 126.765 91.3048 125.533C92.0149 124.301 92.3897 122.903 92.3918 121.48V15.2135C91.8719 15.2173 91.3594 15.3372 90.8914 15.5645L39.3897 45.3641C38.1611 46.0764 37.1408 47.0998 36.4307 48.3318C35.7207 49.5638 35.3458 50.9612 35.3438 52.384V157.598C35.3427 157.967 35.4176 158.332 35.5638 158.671L35.5588 158.656Z" fill="#9269AD"/>
<g opacity="0.5">
<path opacity="0.5" d="M35.5588 158.656C36.0076 158.651 36.4472 158.528 36.8341 158.3L88.3459 128.5C89.5744 127.788 90.5948 126.765 91.3048 125.533C92.0149 124.301 92.3897 122.903 92.3918 121.48V15.2135C91.8719 15.2173 91.3594 15.3372 90.8914 15.5645L39.3897 45.3641C38.1611 46.0764 37.1408 47.0998 36.4307 48.3318C35.7207 49.5638 35.3458 50.9612 35.3438 52.384V157.598C35.3427 157.967 35.4176 158.332 35.5638 158.671L35.5588 158.656Z" fill="white"/>
</g>
<path d="M57.1035 29.7949C57.0861 30.1172 56.9933 30.4308 56.8326 30.7104C56.6718 30.9901 56.4477 31.2278 56.1783 31.4045C55.6781 31.7003 55.248 31.4596 55.248 30.868C55.2656 30.5451 55.359 30.2311 55.5207 29.9513C55.6823 29.6716 55.9077 29.4342 56.1783 29.2584C56.6884 28.9826 57.1035 29.1982 57.1035 29.7949Z" fill="#253239"/>
<path d="M60.5537 27.7992C60.5357 28.122 60.4422 28.4359 60.2805 28.7156C60.1189 28.9952 59.8938 29.2327 59.6235 29.4088C59.1233 29.7046 58.6982 29.464 58.6982 28.8723C58.7156 28.5493 58.8084 28.235 58.9691 27.9546C59.1298 27.6741 59.3539 27.4354 59.6235 27.2577C60.1386 26.9769 60.5537 27.2025 60.5537 27.7992Z" fill="#253239"/>
<path d="M74.4922 20.8094L63.2797 27.3279C62.8346 27.5836 62.4795 27.3279 62.4795 26.7212C62.4826 26.4195 62.5566 26.1229 62.6957 25.8554C62.8347 25.5879 63.0348 25.3571 63.2797 25.1818L74.4922 18.6633C74.9373 18.4075 75.2974 18.6633 75.2974 19.275C75.2926 19.5761 75.2172 19.8719 75.0773 20.1385C74.9375 20.405 74.737 20.6348 74.4922 20.8094Z" fill="#253239"/>
<path d="M72.5768 144.034C73.2469 144.034 73.677 144.746 73.677 145.85C73.677 147.579 72.5968 149.67 71.3215 150.413L65.9553 153.516C65.715 153.669 65.4391 153.755 65.1551 153.767C64.4849 153.767 64.0548 153.055 64.0548 151.952C64.0548 150.217 65.1351 148.131 66.4154 147.389L71.7766 144.31C72.0172 144.159 72.2929 144.072 72.5768 144.059V144.034ZM72.5768 143.603C72.2122 143.615 71.857 143.722 71.5465 143.914L66.1853 147.018C64.755 147.845 63.5947 150.067 63.5947 151.977C63.5947 153.401 64.2399 154.248 65.1551 154.248C65.5197 154.237 65.8748 154.13 66.1853 153.938L71.5465 150.829C72.9769 150.001 74.1371 147.78 74.1371 145.87C74.1371 144.446 73.497 143.598 72.5768 143.598V143.603Z" fill="#253239"/>
<path d="M107.03 18.568L104.32 16.9484C103.878 16.6518 103.363 16.4865 102.832 16.4714C102.301 16.4563 101.776 16.5921 101.319 16.8631L81.8946 28.2906V29.2032C81.8946 32.0212 79.614 35.6214 76.8034 37.226L70.677 40.771C68.5815 41.9845 66.7861 41.7739 66.0059 40.395L68.0064 39.2216L65.6008 37.8477L45.7913 49.4858C44.6054 50.1817 43.6221 51.177 42.9394 52.3727C42.2567 53.5683 41.8985 54.9224 41.9004 56.3001V177.404C41.8975 177.9 42.025 178.389 42.2699 178.82C42.5148 179.251 42.8686 179.61 43.2958 179.861L43.3508 179.891L45.9914 181.395V179.911L46.1764 179.816C60.6297 171.086 89.8214 153.617 101.044 146.903C102.43 146.075 103.577 144.9 104.373 143.493C105.169 142.087 105.587 140.497 105.585 138.88V20.0121L107.03 18.568Z" fill="#EBEBEB"/>
<path d="M45.881 181.591L43.1704 180.037C42.7088 179.762 42.3273 179.37 42.064 178.901C41.8007 178.432 41.6649 177.902 41.6701 177.364V56.3252C41.6725 54.9077 42.0427 53.5152 42.7441 52.2845C43.4456 51.0538 44.4542 50.0271 45.671 49.3053L65.4805 37.6672H65.7306L68.1411 39.0411V39.4724L66.3557 40.5153C66.6255 40.8874 67.0164 41.1534 67.461 41.2675C68.3111 41.4931 69.4114 41.2675 70.5517 40.5956L76.6831 37.0505C79.4187 35.466 81.6442 31.951 81.6442 29.2182V28.2906L81.7692 28.075L101.194 16.6576C101.691 16.3647 102.261 16.2183 102.838 16.2352C103.414 16.252 103.975 16.4314 104.454 16.7528L107.16 18.3524L107.21 18.7435L105.845 20.1124V138.905C105.842 140.563 105.411 142.192 104.594 143.634C103.777 145.076 102.602 146.281 101.184 147.133C94.7622 150.974 61.9297 170.615 46.3161 180.042L46.2511 180.082V181.37L45.881 181.591ZM43.4155 179.625L45.751 180.944V179.941L45.891 179.716L45.951 179.686L46.0561 179.63C61.6746 170.199 94.5021 150.548 100.929 146.717C102.273 145.91 103.386 144.767 104.16 143.401C104.934 142.035 105.342 140.491 105.345 138.92V20.0071L105.42 19.8316L106.625 18.6181L104.189 17.179C103.787 16.9052 103.316 16.7513 102.83 16.7353C102.344 16.7194 101.863 16.8419 101.444 17.0888L82.1443 28.436V29.2032C82.1443 32.0964 79.8038 35.8019 76.9331 37.4717L70.8017 41.0168C69.5414 41.7488 68.3011 42.0196 67.3309 41.7388C67.0067 41.6538 66.7029 41.5044 66.4374 41.2994C66.1719 41.0944 65.9503 40.838 65.7856 40.5454L65.8756 40.2044L67.496 39.2568L65.5905 38.1687L45.906 49.7315C44.7599 50.4078 43.8097 51.3722 43.1492 52.5295C42.4887 53.6868 42.1409 54.9969 42.1402 56.3302V177.404C42.1369 177.857 42.2531 178.302 42.4771 178.695C42.7011 179.087 43.0249 179.414 43.4155 179.64V179.625Z" fill="#EBEBEB"/>
<path d="M108 20.7041V140.299C108.003 141.916 107.587 143.505 106.791 144.912C105.996 146.319 104.85 147.494 103.464 148.322C92.2418 155.036 63.0502 172.505 48.5969 181.235C48.1659 181.494 47.6741 181.634 47.1716 181.64C46.6692 181.646 46.174 181.519 45.7368 181.27C45.2995 181.022 44.9358 180.662 44.6827 180.227C44.4295 179.792 44.2961 179.297 44.2959 178.793V57.6991C44.2954 56.3217 44.6543 54.9682 45.3368 53.7728C46.0194 52.5774 47.0019 51.5818 48.1868 50.8848L67.9913 39.2467V40.0139C67.9913 42.8319 70.2718 43.7997 73.0825 42.17L79.2089 38.625C82.0195 37.0003 84.295 33.3951 84.295 30.6022V29.6645L103.719 18.2471C104.151 17.9925 104.642 17.8568 105.143 17.8539C105.644 17.8509 106.136 17.9807 106.571 18.2301C107.006 18.4796 107.367 18.8398 107.618 19.2742C107.869 19.7087 108.001 20.202 108 20.7041Z" fill="#FAFAFA"/>
<path d="M107.75 20.704V135.465C107.75 137.471 107.96 139.662 107.645 141.673C107.19 144.601 105.389 146.847 102.899 148.337L98.5328 150.949L86.8052 157.969C77.7331 163.404 68.6643 168.843 59.5989 174.285L53.6426 177.87C51.8772 178.933 50.1418 180.172 48.2864 181.09C47.8868 181.279 47.446 181.364 47.0049 181.337C46.5638 181.31 46.1367 181.171 45.7634 180.934C45.3901 180.697 45.0827 180.368 44.8697 179.98C44.6568 179.592 44.5453 179.156 44.5455 178.713C44.5455 178.522 44.5455 178.327 44.5455 178.131V57.9749C44.515 56.5832 44.8536 55.2084 45.5267 53.9909C46.1998 52.7734 47.1832 51.7569 48.3764 51.0452C53.3775 48.0367 58.4187 45.1435 63.4398 42.1951L68.1209 39.4423L67.7458 39.2267C67.7458 40.1743 67.7458 41.1521 68.2459 41.9845C68.5158 42.3921 68.8909 42.7188 69.3312 42.9298C69.7715 43.1409 70.2606 43.2283 70.7465 43.1829C72.3919 43.0876 73.9072 41.9544 75.2975 41.1772C76.6878 40.4 77.9881 39.6428 79.2984 38.8506C81.7976 37.3424 83.6048 34.9092 84.3296 32.0763C84.4431 31.5828 84.5035 31.0785 84.5096 30.5721C84.5346 30.3572 84.5346 30.1401 84.5096 29.9252C84.4546 29.6695 84.5997 29.7347 84.4046 29.8952C84.6097 29.7533 84.8253 29.6276 85.0498 29.5191L88.5956 27.4332L99.063 21.2807L103.179 18.8638C103.389 18.7385 103.599 18.6081 103.814 18.4928C104.208 18.2692 104.653 18.1522 105.106 18.1534C105.559 18.1545 106.004 18.2737 106.397 18.4993C106.79 18.7249 107.117 19.0491 107.348 19.44C107.578 19.8309 107.703 20.2752 107.71 20.7291C107.71 21.05 108.21 21.05 108.21 20.7291C108.199 20.188 108.049 19.6589 107.774 19.1934C107.498 18.7278 107.108 18.3417 106.639 18.0726C106.171 17.8035 105.641 17.6605 105.101 17.6577C104.561 17.6549 104.03 17.7923 103.559 18.0565C102.909 18.4125 102.279 18.8137 101.639 19.1897L91.8013 24.9712L86.9952 27.7842C86.115 28.2856 85.1498 28.787 84.3246 29.3536C84.0445 29.5542 84.0395 29.6645 84.0395 30.0456C84.059 31.4176 83.7449 32.7738 83.1243 33.9968C82.0291 36.0699 80.3441 37.7698 78.2832 38.8807C76.5728 39.8835 74.8624 40.8864 73.152 41.8491C72.1068 42.4458 70.7365 43.0626 69.5412 42.516C68.2559 41.9293 68.2459 40.4652 68.2459 39.2517C68.2456 39.2078 68.2339 39.1648 68.2119 39.1269C68.1898 39.089 68.1582 39.0576 68.1202 39.0357C68.0823 39.0139 68.0392 39.0025 67.9955 39.0025C67.9517 39.0026 67.9087 39.0142 67.8708 39.0361L53.3675 47.5603C51.6021 48.5983 49.8217 49.6112 48.0713 50.6692C46.83 51.4273 45.8079 52.4975 45.1061 53.7737C44.4043 55.0499 44.0473 56.4877 44.0704 57.9448C44.0704 60.3517 44.0704 62.7535 44.0704 65.1603V178.357C44.0704 178.492 44.0704 178.628 44.0704 178.758C44.0757 179.198 44.1734 179.633 44.3571 180.033C44.5407 180.432 44.8063 180.789 45.1364 181.08C45.4666 181.37 45.854 181.587 46.2735 181.718C46.6929 181.848 47.1351 181.889 47.5712 181.837C48.5714 181.706 49.4816 180.989 50.3368 180.473L52.9624 178.888L58.9638 175.268C63.4948 172.547 68.0275 169.826 72.5619 167.105C81.1439 161.937 89.7392 156.784 98.3478 151.646C101.849 149.54 106.09 147.76 107.635 143.658C108.1 142.293 108.309 140.853 108.25 139.411V20.704C108.25 20.6376 108.224 20.5738 108.177 20.5268C108.13 20.4797 108.066 20.4533 108 20.4533C107.934 20.4533 107.87 20.4797 107.823 20.5268C107.776 20.5738 107.75 20.6376 107.75 20.704Z" fill="#EBEBEB"/>
<path d="M58.3125 62.9454C59.6825 60.5554 59.6769 57.9748 58.3 57.1814C56.923 56.388 54.6962 57.6823 53.3263 60.0723C51.9563 62.4623 51.9619 65.043 53.3388 65.8364C54.7157 66.6298 56.9425 65.3355 58.3125 62.9454Z" fill="#9269AD"/>
<path d="M62.3698 56.8417C62.2591 56.8425 62.1512 56.8064 62.0632 56.7391C61.9751 56.6718 61.9118 56.5771 61.8832 56.4698C61.8546 56.3626 61.8623 56.2488 61.9051 56.1464C61.9479 56.044 62.0234 55.9588 62.1198 55.904L78.2685 46.5575C78.3839 46.491 78.5209 46.4732 78.6494 46.508C78.7779 46.5428 78.8873 46.6273 78.9536 46.743C79.0199 46.8587 79.0377 46.9961 79.003 47.1249C78.9683 47.2537 78.884 47.3635 78.7686 47.43L62.6199 56.7765C62.5437 56.8198 62.4574 56.8423 62.3698 56.8417Z" fill="#9269AD"/>
<path d="M62.3698 59.9054C62.2591 59.9062 62.1512 59.8701 62.0632 59.8028C61.9751 59.7355 61.9118 59.6408 61.8832 59.5335C61.8546 59.4262 61.8623 59.3125 61.9051 59.2101C61.9479 59.1077 62.0234 59.0225 62.1198 58.9677L72.022 53.2365C72.0791 53.2033 72.1422 53.1818 72.2076 53.1732C72.273 53.1646 72.3394 53.169 72.4031 53.1863C72.4668 53.2035 72.5265 53.2332 72.5786 53.2737C72.6308 53.3141 72.6745 53.3645 72.7072 53.422C72.7724 53.5371 72.7895 53.6734 72.7549 53.8012C72.7202 53.929 72.6365 54.0378 72.5221 54.1039L62.6199 59.8402C62.5437 59.8835 62.4574 59.906 62.3698 59.9054Z" fill="#9269AD"/>
<path d="M100.804 83.3169L53.6681 110.599C52.7529 111.131 52.0127 110.569 52.0127 109.346V74.5119C52.0221 73.8899 52.1768 73.2789 52.4643 72.7277C52.7518 72.1765 53.164 71.7005 53.6681 71.3379L100.804 44.0504C101.719 43.5489 102.464 44.0855 102.464 45.3089V80.1278C102.457 80.7527 102.302 81.3671 102.014 81.9211C101.725 82.4751 101.311 82.9533 100.804 83.3169Z" fill="#E0E0E0"/>
<path d="M56.8637 75.3793C56.7765 75.3788 56.6909 75.3554 56.6154 75.3114C56.5399 75.2674 56.4773 75.2044 56.4336 75.1286C56.368 75.0141 56.3501 74.8782 56.3838 74.7505C56.4176 74.6229 56.5001 74.5137 56.6137 74.4467L97.358 50.8798C97.4734 50.8133 97.6104 50.7954 97.7389 50.8302C97.8674 50.865 97.9768 50.9496 98.0432 51.0653C98.1095 51.181 98.1272 51.3184 98.0925 51.4472C98.0578 51.576 97.9735 51.6857 97.8581 51.7522L57.1138 75.3192C57.0371 75.3607 56.9509 75.3815 56.8637 75.3793Z" fill="white"/>
<path d="M56.864 80.1278C56.7532 80.1286 56.6454 80.0925 56.5573 80.0252C56.4692 79.9579 56.4059 79.8632 56.3773 79.7559C56.3487 79.6487 56.3564 79.5349 56.3992 79.4325C56.4421 79.3302 56.5176 79.2449 56.6139 79.1902L97.3582 55.6232C97.4725 55.5633 97.6055 55.5499 97.7294 55.586C97.8533 55.622 97.9585 55.7046 98.023 55.8166C98.0876 55.9286 98.1065 56.0612 98.0758 56.1868C98.0451 56.3124 97.9672 56.4213 97.8583 56.4907L57.114 80.0576C57.0383 80.1027 56.952 80.1269 56.864 80.1278Z" fill="white"/>
<path d="M56.864 84.8763C56.7532 84.8771 56.6454 84.841 56.5573 84.7737C56.4692 84.7064 56.4059 84.6117 56.3773 84.5044C56.3487 84.3972 56.3564 84.2834 56.3992 84.181C56.4421 84.0786 56.5176 83.9934 56.6139 83.9386L97.3582 60.3717C97.4725 60.3059 97.608 60.288 97.7353 60.3218C97.8627 60.3556 97.9716 60.4384 98.0384 60.5522C98.0716 60.6092 98.0934 60.6721 98.1023 60.7375C98.1113 60.8029 98.1073 60.8694 98.0906 60.9332C98.0739 60.997 98.0447 61.0569 98.0049 61.1094C97.965 61.1619 97.9152 61.206 97.8583 61.2392L57.114 84.8061C57.0383 84.8512 56.952 84.8754 56.864 84.8763Z" fill="white"/>
<path d="M56.864 89.6198C56.7532 89.6206 56.6454 89.5845 56.5573 89.5172C56.4692 89.4499 56.4059 89.3552 56.3773 89.2479C56.3487 89.1406 56.3564 89.0269 56.3992 88.9245C56.4421 88.8221 56.5176 88.7369 56.6139 88.6821L97.3582 65.1152C97.473 65.0498 97.609 65.0326 97.7364 65.0674C97.8638 65.1021 97.9724 65.186 98.0384 65.3007C98.104 65.4152 98.1219 65.5511 98.0882 65.6788C98.0545 65.8065 97.9719 65.9157 97.8583 65.9827L57.114 89.5496C57.0383 89.5947 56.952 89.6189 56.864 89.6198Z" fill="white"/>
<path d="M56.864 94.3683C56.7532 94.3691 56.6454 94.333 56.5573 94.2657C56.4692 94.1984 56.4059 94.1036 56.3773 93.9964C56.3487 93.8891 56.3564 93.7754 56.3992 93.673C56.4421 93.5706 56.5176 93.4854 56.6139 93.4306L97.3582 69.8637C97.4725 69.7979 97.608 69.78 97.7353 69.8138C97.8627 69.8476 97.9716 69.9304 98.0384 70.0442C98.0716 70.1011 98.0934 70.1641 98.1023 70.2295C98.1113 70.2948 98.1073 70.3613 98.0906 70.4252C98.0739 70.489 98.0447 70.5489 98.0049 70.6014C97.965 70.6539 97.9152 70.698 97.8583 70.7312L57.114 94.2981C57.0383 94.3431 56.952 94.3674 56.864 94.3683Z" fill="white"/>
<path d="M56.8632 99.1118C56.754 99.1106 56.6482 99.0738 56.562 99.0067C56.4757 98.9397 56.4136 98.8462 56.3853 98.7405C56.357 98.6349 56.3639 98.5228 56.405 98.4214C56.4462 98.32 56.5192 98.2349 56.6131 98.1791L97.3574 74.6122C97.4723 74.5468 97.6082 74.5296 97.7356 74.5644C97.8631 74.5991 97.9716 74.683 98.0376 74.7977C98.1032 74.9122 98.1211 75.0481 98.0874 75.1758C98.0537 75.3035 97.9711 75.4126 97.8575 75.4796L57.1132 99.0466C57.037 99.0899 56.9508 99.1124 56.8632 99.1118Z" fill="white"/>
<path d="M56.864 103.86C56.7532 103.861 56.6454 103.825 56.5573 103.758C56.4692 103.69 56.4059 103.596 56.3773 103.488C56.3487 103.381 56.3564 103.267 56.3992 103.165C56.4421 103.063 56.5176 102.977 56.6139 102.923L97.3582 79.3556C97.4725 79.2898 97.608 79.2719 97.7353 79.3057C97.8627 79.3395 97.9716 79.4223 98.0384 79.5362C98.0716 79.5931 98.0934 79.656 98.1023 79.7214C98.1113 79.7868 98.1073 79.8533 98.0906 79.9171C98.0739 79.9809 98.0447 80.0408 98.0049 80.0933C97.965 80.1458 97.9152 80.1899 97.8583 80.2231L57.114 103.79C57.0383 103.835 56.952 103.859 56.864 103.86Z" fill="white"/>
<path d="M59.0241 117.233C58.9584 118.453 58.6072 119.64 57.999 120.698C57.3909 121.757 56.5427 122.657 55.5233 123.326C53.5828 124.444 52.0225 123.536 52.0225 121.295C52.0866 120.075 52.4371 118.887 53.0454 117.828C53.6537 116.77 54.5027 115.87 55.5233 115.202C57.4537 114.064 59.0241 114.972 59.0241 117.233Z" fill="#9269AD"/>
<path opacity="0.6" d="M58.3125 62.9454C59.6825 60.5554 59.6769 57.9748 58.3 57.1814C56.923 56.388 54.6962 57.6823 53.3263 60.0723C51.9563 62.4623 51.9619 65.043 53.3388 65.8364C54.7157 66.6298 56.9425 65.3355 58.3125 62.9454Z" fill="white"/>
<path opacity="0.6" d="M59.0241 117.233C58.9584 118.453 58.6072 119.64 57.999 120.698C57.3909 121.757 56.5427 122.657 55.5233 123.326C53.5828 124.444 52.0225 123.536 52.0225 121.295C52.0866 120.075 52.4371 118.887 53.0454 117.828C53.6537 116.77 54.5027 115.87 55.5233 115.202C57.4537 114.064 59.0241 114.972 59.0241 117.233Z" fill="white"/>
<path d="M62.3698 114.29C62.2591 114.291 62.1512 114.255 62.0632 114.187C61.9751 114.12 61.9118 114.025 61.8832 113.918C61.8546 113.811 61.8623 113.697 61.9051 113.595C61.9479 113.492 62.0234 113.407 62.1198 113.352L78.2685 104.006C78.3828 103.946 78.5157 103.932 78.6396 103.968C78.7635 104.004 78.8687 104.087 78.9333 104.199C78.9978 104.311 79.0167 104.444 78.986 104.569C78.9553 104.695 78.8774 104.804 78.7686 104.873L62.6199 114.225C62.5437 114.268 62.4574 114.29 62.3698 114.29Z" fill="#9269AD"/>
<path d="M62.3698 117.354C62.2591 117.354 62.1512 117.318 62.0632 117.251C61.9751 117.184 61.9118 117.089 61.8832 116.982C61.8546 116.874 61.8623 116.761 61.9051 116.658C61.9479 116.556 62.0234 116.471 62.1198 116.416L72.022 110.685C72.0791 110.651 72.1422 110.63 72.2076 110.621C72.273 110.613 72.3394 110.617 72.4031 110.634C72.4668 110.652 72.5265 110.681 72.5786 110.722C72.6308 110.762 72.6745 110.813 72.7072 110.87C72.7724 110.985 72.7895 111.122 72.7549 111.249C72.7202 111.377 72.6365 111.486 72.5221 111.552L62.6199 117.288C62.5437 117.332 62.4574 117.354 62.3698 117.354Z" fill="#9269AD"/>
<path d="M100.804 140.765L53.6681 168.053C52.7529 168.554 52.0127 168.017 52.0127 166.794V131.96C52.0221 131.338 52.1768 130.727 52.4643 130.176C52.7518 129.625 53.164 129.149 53.6681 128.786L100.804 101.499C101.719 100.972 102.464 101.534 102.464 102.757V137.591C102.454 138.213 102.299 138.825 102.01 139.376C101.722 139.927 101.309 140.403 100.804 140.765Z" fill="#E0E0E0"/>
<path d="M56.8637 132.827C56.7765 132.827 56.6909 132.804 56.6154 132.76C56.5399 132.716 56.4773 132.653 56.4336 132.577C56.368 132.462 56.3501 132.326 56.3838 132.199C56.4176 132.071 56.5001 131.962 56.6137 131.895L97.358 108.328C97.4734 108.261 97.6104 108.244 97.7389 108.278C97.8674 108.313 97.9768 108.398 98.0432 108.513C98.1095 108.629 98.1272 108.766 98.0925 108.895C98.0578 109.024 97.9735 109.134 97.8581 109.2L57.1138 132.767C57.0371 132.809 56.9509 132.83 56.8637 132.827Z" fill="white"/>
<path d="M56.864 137.576C56.7532 137.577 56.6454 137.541 56.5573 137.473C56.4692 137.406 56.4059 137.311 56.3773 137.204C56.3487 137.097 56.3564 136.983 56.3992 136.881C56.4421 136.778 56.5176 136.693 56.6139 136.638L97.3582 113.071C97.4725 113.011 97.6055 112.998 97.7294 113.034C97.8533 113.07 97.9585 113.153 98.023 113.265C98.0876 113.377 98.1065 113.509 98.0758 113.635C98.0451 113.761 97.9672 113.869 97.8583 113.939L57.114 137.506C57.0383 137.551 56.952 137.575 56.864 137.576Z" fill="white"/>
<path d="M56.864 142.304C56.7532 142.305 56.6454 142.269 56.5573 142.202C56.4692 142.135 56.4059 142.04 56.3773 141.933C56.3487 141.825 56.3564 141.712 56.3992 141.609C56.4421 141.507 56.5176 141.422 56.6139 141.367L97.3582 117.8C97.4725 117.734 97.608 117.716 97.7353 117.75C97.8627 117.784 97.9716 117.866 98.0384 117.98C98.0716 118.037 98.0934 118.1 98.1023 118.166C98.1113 118.231 98.1073 118.297 98.0906 118.361C98.0739 118.425 98.0447 118.485 98.0049 118.537C97.965 118.59 97.9152 118.634 97.8583 118.667L57.114 142.234C57.0383 142.279 56.952 142.304 56.864 142.304Z" fill="white"/>
<path d="M56.864 147.068C56.7532 147.069 56.6454 147.033 56.5573 146.965C56.4692 146.898 56.4059 146.803 56.3773 146.696C56.3487 146.589 56.3564 146.475 56.3992 146.373C56.4421 146.27 56.5176 146.185 56.6139 146.13L97.3582 122.563C97.473 122.498 97.609 122.481 97.7364 122.516C97.8638 122.55 97.9724 122.634 98.0384 122.749C98.104 122.863 98.1219 122.999 98.0882 123.127C98.0545 123.255 97.9719 123.364 97.8583 123.431L57.114 146.998C57.0383 147.043 56.952 147.067 56.864 147.068Z" fill="white"/>
<path d="M56.864 151.831C56.7532 151.832 56.6454 151.796 56.5573 151.729C56.4692 151.662 56.4059 151.567 56.3773 151.46C56.3487 151.352 56.3564 151.239 56.3992 151.136C56.4421 151.034 56.5176 150.949 56.6139 150.894L97.3582 127.327C97.4725 127.261 97.608 127.243 97.7353 127.277C97.8627 127.311 97.9716 127.394 98.0384 127.507C98.0716 127.564 98.0934 127.627 98.1023 127.693C98.1113 127.758 98.1073 127.825 98.0906 127.888C98.0739 127.952 98.0447 128.012 98.0049 128.065C97.965 128.117 97.9152 128.161 97.8583 128.194L57.114 151.761C57.0383 151.806 56.952 151.831 56.864 151.831Z" fill="white"/>
<path d="M56.8632 156.56C56.754 156.559 56.6482 156.522 56.562 156.455C56.4757 156.388 56.4136 156.294 56.3853 156.189C56.357 156.083 56.3639 155.971 56.405 155.87C56.4462 155.768 56.5192 155.683 56.6131 155.627L97.3574 132.06C97.4723 131.995 97.6082 131.978 97.7356 132.013C97.8631 132.047 97.9716 132.131 98.0376 132.246C98.1032 132.36 98.1211 132.496 98.0874 132.624C98.0537 132.752 97.9711 132.861 97.8575 132.928L57.1132 156.495C57.037 156.538 56.9508 156.561 56.8632 156.56Z" fill="white"/>
<path d="M56.864 161.308C56.7532 161.309 56.6454 161.273 56.5573 161.206C56.4692 161.138 56.4059 161.044 56.3773 160.936C56.3487 160.829 56.3564 160.715 56.3992 160.613C56.4421 160.511 56.5176 160.425 56.6139 160.371L97.3582 136.804C97.4725 136.738 97.608 136.72 97.7353 136.754C97.8627 136.788 97.9716 136.87 98.0384 136.984C98.0716 137.041 98.0934 137.104 98.1023 137.17C98.1113 137.235 98.1073 137.301 98.0906 137.365C98.0739 137.429 98.0447 137.489 98.0049 137.541C97.965 137.594 97.9152 137.638 97.8583 137.671L57.114 161.238C57.0383 161.283 56.952 161.307 56.864 161.308Z" fill="white"/>
<path d="M126.85 29.8901L124.349 28.4561C124.202 28.3504 124.044 28.2597 123.879 28.1853C123.467 27.993 123.014 27.9044 122.56 27.9271C122.106 27.9498 121.664 28.0832 121.273 28.3157L101.849 39.7331V40.6457C101.849 43.4637 99.5683 47.0639 96.7576 48.6685L90.6312 52.2135C88.5358 53.427 86.7403 53.2164 85.9602 51.8325L87.9606 50.6641L85.5551 49.2902L65.7406 60.9534C64.5553 61.6488 63.5725 62.6434 62.8898 63.838C62.2072 65.0327 61.8486 66.3859 61.8497 67.7627V188.827C61.8466 189.322 61.974 189.81 62.219 190.24C62.464 190.671 62.8179 191.029 63.245 191.279L63.3 191.309L65.9406 192.813V191.364C66.0047 191.337 66.0666 191.305 66.1256 191.268C80.5989 182.544 109.791 165.069 121.003 158.35C122.389 157.522 123.536 156.347 124.332 154.941C125.128 153.534 125.546 151.944 125.544 150.327V31.1888L126.85 29.8901Z" fill="#EBEBEB"/>
<path d="M65.8409 193.033L63.1353 191.529V191.494C62.6734 191.221 62.2916 190.83 62.0282 190.362C61.7648 189.894 61.6291 189.364 61.6349 188.827V67.7627C61.6369 66.3451 62.0069 64.9524 62.7083 63.7216C63.4098 62.4908 64.4187 61.4642 65.6359 60.7428L85.4454 49.1047H85.6954L88.106 50.4786V50.9148L86.3406 51.9528C86.611 52.3233 87.0019 52.5876 87.4458 52.6999C88.296 52.9306 89.3963 52.6999 90.5365 52.028L96.6629 48.488C99.4036 46.8984 101.629 43.3885 101.629 40.6557V39.7431L101.754 39.5275L121.154 28.1C121.583 27.8481 122.067 27.7055 122.564 27.6845C123.061 27.6635 123.555 27.7649 124.004 27.9797C124.18 28.0612 124.348 28.1603 124.504 28.2755L126.98 29.6946L127.035 30.0907L125.81 31.3192V150.327C125.806 151.985 125.374 153.614 124.558 155.056C123.741 156.497 122.567 157.703 121.149 158.556C117.238 160.892 82.4897 181.676 66.281 191.464L66.216 191.499V192.793L65.8409 193.033ZM63.3753 191.068L65.7109 192.387V191.384L65.8459 191.163L65.9159 191.128L66.0159 191.078C82.2296 181.29 116.978 160.491 120.888 158.164C122.238 157.353 123.354 156.204 124.128 154.83C124.902 153.456 125.307 151.905 125.304 150.327V31.1888L125.379 31.0133L126.445 29.9453L124.229 28.6717C124.089 28.5689 123.938 28.4815 123.779 28.4109C123.403 28.2355 122.99 28.1548 122.576 28.1758C122.162 28.1968 121.76 28.3188 121.404 28.5313L102.104 39.8735V40.6457C102.104 43.5389 99.7636 47.2444 96.888 48.9091L90.7616 52.4542C89.5013 53.1863 88.261 53.4571 87.2908 53.1763C86.9666 53.0913 86.6627 52.9419 86.3973 52.7369C86.1318 52.5319 85.9101 52.2755 85.7454 51.9829L85.8355 51.6419L87.4558 50.6942L85.5504 49.6061L65.8659 61.169C64.7205 61.8448 63.7707 62.8085 63.1103 63.9648C62.4499 65.1212 62.1017 66.4302 62.1001 67.7627V188.827C62.0973 189.279 62.2137 189.724 62.4377 190.117C62.6616 190.509 62.9851 190.836 63.3753 191.063V191.068Z" fill="#EBEBEB"/>
<path d="M127.959 32.1465V151.721C127.962 153.338 127.546 154.928 126.75 156.334C125.955 157.741 124.809 158.916 123.423 159.744C112.201 166.443 82.9942 183.923 68.5559 192.642C68.1252 192.903 67.633 193.044 67.13 193.051C66.6269 193.058 66.131 192.931 65.6932 192.682C65.2555 192.434 64.8915 192.073 64.6387 191.637C64.386 191.201 64.2535 190.705 64.2549 190.2V69.1366C64.2548 67.76 64.6138 66.4072 65.2964 65.2127C65.9789 64.0182 66.9612 63.0235 68.1458 62.3273L87.9553 50.6892V51.4564C87.9553 54.2744 90.2358 55.2421 93.0465 53.6125L99.1729 50.0674C101.984 48.4378 104.259 44.8376 104.259 42.0196V41.107L123.683 29.6896C124.115 29.4362 124.606 29.3016 125.106 29.2993C125.606 29.297 126.097 29.427 126.531 29.6763C126.965 29.9256 127.326 30.2853 127.576 30.719C127.827 31.1528 127.959 31.6452 127.959 32.1465Z" fill="#FAFAFA"/>
<path d="M127.71 32.1466V146.907C127.71 148.913 127.92 151.104 127.605 153.11C127.15 156.043 125.35 158.29 122.859 159.779L118.503 162.391L106.775 169.411C97.7032 174.84 88.6345 180.279 79.5691 185.728L73.6127 189.308C71.8473 190.371 70.1119 191.614 68.2565 192.532C67.857 192.722 67.4161 192.807 66.975 192.779C66.5339 192.752 66.1068 192.613 65.7335 192.376C65.3602 192.139 65.0528 191.811 64.8399 191.423C64.6269 191.034 64.5154 190.598 64.5156 190.155C64.5156 189.965 64.5156 189.769 64.5156 189.574V69.4124C64.4896 68.0249 64.8304 66.6553 65.5032 65.4426C66.1761 64.2299 67.157 63.2173 68.3465 62.5078C73.3477 59.4992 78.3888 56.606 83.41 53.6577L88.091 50.9048L87.716 50.6892C87.716 51.6369 87.716 52.6097 88.2161 53.447C88.486 53.8547 88.861 54.1814 89.3013 54.3924C89.7416 54.6034 90.2307 54.6909 90.7166 54.6455C92.362 54.5502 93.8774 53.4119 95.2627 52.6097C96.648 51.8074 97.9583 51.0753 99.2636 50.2881C101.774 48.7892 103.594 46.3589 104.33 43.5239C104.443 43.0303 104.504 42.526 104.51 42.0196C104.535 41.8047 104.535 41.5876 104.51 41.3728C104.455 41.112 104.6 41.1822 104.405 41.3427C104.61 41.2008 104.826 41.0751 105.05 40.9666L108.596 38.8807L119.063 32.7282L123.179 30.3113C123.389 30.186 123.594 30.0506 123.809 29.9353C124.204 29.7134 124.65 29.5979 125.103 29.6001C125.556 29.6023 126 29.7222 126.393 29.9479C126.786 30.1736 127.114 30.4976 127.345 30.8882C127.575 31.2788 127.701 31.7227 127.71 32.1766C127.71 32.4976 128.21 32.4976 128.21 32.1766C128.201 31.635 128.051 31.105 127.776 30.6386C127.502 30.1722 127.111 29.7854 126.642 29.516C126.173 29.2466 125.642 29.1039 125.102 29.1018C124.562 29.0997 124.03 29.2383 123.559 29.504C122.909 29.8601 122.279 30.2562 121.639 30.6323L111.761 36.4387L106.965 39.2567C106.085 39.7582 105.12 40.2345 104.295 40.8262C104.015 41.0268 104.01 41.1371 104.01 41.5182C104.025 42.8894 103.708 44.2437 103.084 45.4644C101.989 47.5375 100.304 49.2374 98.2434 50.3483L93.1122 53.3117C92.0669 53.9134 90.6966 54.5301 89.5014 53.9836C88.2161 53.3969 88.2061 51.9328 88.2061 50.7193C88.2058 50.6754 88.194 50.6324 88.172 50.5945C88.1499 50.5566 88.1184 50.5251 88.0804 50.5033C88.0424 50.4815 87.9994 50.47 87.9556 50.4701C87.9119 50.4702 87.8689 50.4817 87.831 50.5037L73.3277 59.0279C71.5623 60.0658 69.7819 61.0837 68.0315 62.1417C66.7888 62.8984 65.7655 63.9683 65.0636 65.2448C64.3616 66.5213 64.0054 67.9599 64.0305 69.4174C64.0305 71.8192 64.0305 74.2261 64.0305 76.6329V189.799C64.0305 189.935 64.0305 190.065 64.0305 190.2C64.0359 190.641 64.1335 191.075 64.3172 191.475C64.5009 191.875 64.7664 192.232 65.0966 192.522C65.4267 192.812 65.8141 193.03 66.2336 193.16C66.6531 193.291 67.0952 193.331 67.5313 193.279C68.5316 193.149 69.4418 192.432 70.297 191.91L72.9226 190.331C74.923 189.124 76.9235 187.917 78.9239 186.711C83.455 183.986 87.9877 181.265 92.522 178.547C101.117 173.389 109.721 168.235 118.333 163.083C121.834 160.982 126.075 159.202 127.62 155.101C128.085 153.735 128.294 152.295 128.235 150.854V32.1466C128.235 32.0767 128.208 32.0098 128.158 31.9604C128.109 31.911 128.042 31.8833 127.973 31.8833C127.903 31.8833 127.836 31.911 127.787 31.9604C127.738 32.0098 127.71 32.0767 127.71 32.1466Z" fill="#EBEBEB"/>
<path d="M91.4415 169.612L73.2774 180.142C71.9571 180.909 70.8818 180.092 70.8818 178.327C70.8818 176.557 71.9571 174.506 73.2774 173.739L91.4415 163.209C92.7668 162.442 93.8371 163.254 93.8371 165.024C93.8371 166.789 92.7668 168.845 91.4415 169.612Z" fill="#9269AD"/>
<path d="M118.938 152.874L100.773 163.404C99.4532 164.172 98.3779 163.359 98.3779 161.589C98.3779 159.824 99.4532 157.768 100.773 157.001L118.938 146.471C120.263 145.704 121.333 146.521 121.333 148.286C121.333 150.056 120.263 152.112 118.938 152.874Z" fill="#9269AD"/>
<path opacity="0.6" d="M91.4415 169.612L73.2774 180.142C71.9571 180.909 70.8818 180.092 70.8818 178.327C70.8818 176.557 71.9571 174.506 73.2774 173.739L91.4415 163.209C92.7668 162.442 93.8371 163.254 93.8371 165.024C93.8371 166.789 92.7668 168.845 91.4415 169.612Z" fill="white"/>
<path opacity="0.6" d="M118.938 152.874L100.773 163.404C99.4532 164.172 98.3779 163.359 98.3779 161.589C98.3779 159.824 99.4532 157.768 100.773 157.001L118.938 146.471C120.263 145.704 121.333 146.521 121.333 148.286C121.333 150.056 120.263 152.112 118.938 152.874Z" fill="white"/>
<path d="M119.678 89.1785L72.5372 116.466C71.622 116.998 70.8818 116.436 70.8818 115.212V75.1437C70.8905 74.5216 71.0448 73.9102 71.3324 73.3589C71.6199 72.8076 72.0326 72.3317 72.5372 71.9696L119.678 44.6821C120.593 44.1506 121.333 44.7122 121.333 45.9357V86.0095C121.324 86.6307 121.169 87.2411 120.882 87.7915C120.594 88.3419 120.182 88.8169 119.678 89.1785Z" fill="#9269AD"/>
<path opacity="0.6" d="M119.678 89.1785L72.5372 116.466C71.622 116.998 70.8818 116.436 70.8818 115.212V75.1437C70.8905 74.5216 71.0448 73.9102 71.3324 73.3589C71.6199 72.8076 72.0326 72.3317 72.5372 71.9696L119.678 44.6821C120.593 44.1506 121.333 44.7122 121.333 45.9357V86.0095C121.324 86.6307 121.169 87.2411 120.882 87.7915C120.594 88.3419 120.182 88.8169 119.678 89.1785Z" fill="white"/>
<path d="M119.678 140.91L72.5372 168.198C71.622 168.724 70.8818 168.163 70.8818 166.939V126.871C70.8913 126.249 71.046 125.638 71.3334 125.086C71.6209 124.535 72.0332 124.059 72.5372 123.697L119.678 96.4091C120.593 95.8826 121.333 96.4442 121.333 97.6626V137.736C121.324 138.358 121.169 138.969 120.882 139.521C120.594 140.072 120.182 140.548 119.678 140.91Z" fill="#9269AD"/>
<path opacity="0.6" d="M119.678 140.91L72.5372 168.198C71.622 168.724 70.8818 168.163 70.8818 166.939V126.871C70.8913 126.249 71.046 125.638 71.3334 125.086C71.6209 124.535 72.0332 124.059 72.5372 123.697L119.678 96.4091C120.593 95.8826 121.333 96.4442 121.333 97.6626V137.736C121.324 138.358 121.169 138.969 120.882 139.521C120.594 140.072 120.182 140.548 119.678 140.91Z" fill="white"/>
<path d="M146.824 41.5182L144.078 39.8986C143.641 39.6161 143.133 39.4617 142.613 39.4529C142.092 39.444 141.58 39.581 141.133 39.8484L121.708 51.2608V52.1734C121.708 54.9914 119.428 58.5967 116.622 60.2213L110.501 63.7714C108.405 64.9848 106.61 64.7742 105.83 63.3953L107.83 62.222L105.425 60.8481L85.595 72.4861C84.4091 73.182 83.4258 74.1773 82.7431 75.373C82.0604 76.5686 81.7022 77.9228 81.7041 79.3005V200.364C81.7016 200.86 81.8292 201.347 82.0742 201.778C82.3191 202.208 82.6727 202.566 83.0995 202.816L83.1545 202.846L85.7951 204.351V202.902L85.9801 202.806C100.433 194.076 129.625 176.607 140.848 169.893C142.233 169.065 143.381 167.89 144.177 166.484C144.973 165.077 145.391 163.487 145.389 161.87V42.9422L146.824 41.5182Z" fill="#EBEBEB"/>
<path d="M85.6952 204.566L82.9946 203.062V203.032C82.5331 202.758 82.1515 202.368 81.8882 201.9C81.6248 201.431 81.489 200.902 81.4943 200.364V79.3005C81.4968 77.883 81.8669 76.4905 82.5683 75.2597C83.2698 74.029 84.2784 73.0023 85.4952 72.2805L105.305 60.6425H105.555L107.965 62.0164V62.4476L106.195 63.4855C106.465 63.8576 106.856 64.1236 107.3 64.2377C108.15 64.4683 109.251 64.2377 110.391 63.5658L116.502 60.0107C119.238 58.4262 121.463 54.9112 121.463 52.1784V51.2658L121.588 51.0502L141.008 39.6328C141.496 39.3457 142.053 39.1995 142.619 39.2101C143.185 39.2207 143.737 39.3878 144.214 39.693L146.949 41.3076L146.999 41.7037L145.659 43.0475V161.86C145.66 163.521 145.233 165.153 144.418 166.599C143.602 168.044 142.428 169.253 141.008 170.108C134.616 173.934 101.919 193.49 86.1403 203.022L86.0753 203.057V204.351L85.6952 204.566ZM83.2297 202.601L85.5652 203.919V202.917L85.7053 202.691L85.7703 202.661L85.8753 202.606C101.654 193.079 134.346 173.523 140.743 169.692C142.092 168.882 143.209 167.734 143.983 166.361C144.757 164.988 145.162 163.437 145.159 161.86V42.9422L145.234 42.7667L146.419 41.5783L143.954 40.1192C143.554 39.8586 143.089 39.7158 142.613 39.7069C142.136 39.6981 141.667 39.8235 141.258 40.069L121.959 51.4112V52.1784C121.959 55.0716 119.618 58.7772 116.747 60.4469L110.616 63.987C109.361 64.719 108.115 64.9898 107.145 64.709C106.822 64.624 106.52 64.4751 106.255 64.271C105.991 64.0669 105.769 63.8118 105.605 63.5206L105.695 63.1797L107.31 62.227L105.405 61.1389L85.7203 72.7017C84.5751 73.3791 83.6257 74.3438 82.9654 75.5009C82.3051 76.6579 81.9566 77.9674 81.9544 79.3005V200.364C81.9526 200.816 82.0695 201.261 82.2934 201.654C82.5172 202.046 82.8401 202.373 83.2297 202.601Z" fill="#EBEBEB"/>
<path d="M147.819 43.6793V163.254C147.821 164.871 147.403 166.461 146.607 167.868C145.811 169.274 144.664 170.449 143.278 171.277C132.055 177.981 102.864 195.455 88.4104 204.18C87.9794 204.439 87.4875 204.579 86.9851 204.585C86.4826 204.591 85.9875 204.464 85.5503 204.216C85.113 203.967 84.7493 203.607 84.4961 203.172C84.243 202.737 84.1096 202.242 84.1094 201.738V80.6744C84.1084 79.2975 84.4665 77.9442 85.1481 76.7489C85.8298 75.5535 86.8113 74.5577 87.9953 73.86L107.805 62.222V62.9891C107.805 65.8071 110.085 66.7749 112.896 65.1453L119.022 61.6002C121.833 59.9756 124.113 56.3703 124.113 53.5523V52.6397L143.538 41.2273C143.969 40.973 144.46 40.8373 144.96 40.8341C145.461 40.8309 145.953 40.9603 146.387 41.2092C146.822 41.458 147.183 41.8175 147.434 42.2512C147.686 42.685 147.818 43.1776 147.819 43.6793Z" fill="#FAFAFA"/>
<path d="M147.569 43.6793V158.44C147.569 160.446 147.774 162.642 147.464 164.648C147.004 167.576 145.204 169.823 142.713 171.312L138.347 173.924L126.62 180.944C117.541 186.38 108.472 191.818 99.4134 197.261L93.4571 200.846C91.6917 201.909 89.9563 203.152 88.1009 204.065C87.7017 204.254 87.2613 204.339 86.8206 204.312C86.3799 204.285 85.9532 204.147 85.58 203.91C85.2068 203.674 84.8993 203.346 84.686 202.959C84.4727 202.571 84.3606 202.136 84.36 201.693C84.36 201.498 84.36 201.302 84.36 201.111V80.9502C84.3331 79.5619 84.6734 78.1912 85.3463 76.9775C86.0192 75.7638 87.0007 74.7505 88.1909 74.0405C93.192 71.032 98.2332 68.1438 103.254 65.1904L107.94 62.4376L107.56 62.222C107.56 63.1697 107.56 64.1474 108.06 64.9798C108.33 65.3874 108.705 65.7141 109.146 65.9252C109.586 66.1362 110.075 66.2236 110.561 66.1782C112.206 66.0829 113.722 64.9497 115.112 64.1474C116.502 63.3452 117.803 62.6131 119.113 61.8208C121.625 60.3229 123.447 57.8925 124.184 55.0566C124.297 54.5629 124.359 54.0588 124.369 53.5524C124.389 53.3372 124.389 53.1207 124.369 52.9055C124.309 52.6498 124.454 52.715 124.259 52.8754C124.465 52.7346 124.68 52.609 124.904 52.4994L128.45 50.4134L138.917 44.261L143.033 41.8441C143.243 41.7187 143.453 41.5884 143.669 41.473C144.063 41.2498 144.509 41.1331 144.961 41.1343C145.414 41.1356 145.859 41.2548 146.253 41.4802C146.646 41.7057 146.974 42.0296 147.205 42.4204C147.436 42.8111 147.561 43.2553 147.569 43.7094C147.569 44.0303 148.07 44.0303 148.07 43.7094C148.058 43.168 147.908 42.6387 147.632 42.1732C147.356 41.7076 146.964 41.3217 146.495 41.0531C146.026 40.7844 145.496 40.6421 144.956 40.6402C144.416 40.6382 143.884 40.7766 143.413 41.0418C142.763 41.3928 142.133 41.794 141.493 42.17L131.616 47.9715L126.82 50.7945C125.939 51.2959 124.974 51.7673 124.149 52.364C123.869 52.5595 123.869 52.6698 123.869 53.0509C123.883 54.4225 123.564 55.7769 122.939 56.9971C121.844 59.0702 120.159 60.7702 118.098 61.881C116.387 62.8839 114.677 63.8867 112.967 64.8494C111.921 65.4511 110.551 66.0629 109.356 65.5163C108.07 64.9297 108.06 63.4655 108.06 62.2521C108.06 62.2082 108.048 62.1651 108.026 62.1272C108.004 62.0893 107.973 62.0579 107.935 62.0361C107.897 62.0142 107.854 62.0028 107.81 62.0029C107.766 62.0029 107.723 62.0145 107.685 62.0364L93.182 70.5607C91.4166 71.5986 89.6362 72.6115 87.8858 73.6745C86.6442 74.4311 85.6217 75.5003 84.9198 76.7757C84.218 78.0512 83.8612 79.4886 83.8849 80.9452C83.8849 83.352 83.8849 85.7588 83.8849 88.1606V201.337C83.8849 201.467 83.8849 201.603 83.8849 201.733C83.8902 202.174 83.9879 202.608 84.1716 203.008C84.3552 203.408 84.6208 203.764 84.9509 204.055C85.2811 204.345 85.6685 204.563 86.088 204.693C86.5074 204.824 86.9496 204.864 87.3857 204.812C88.3859 204.682 89.2961 203.965 90.1513 203.448L92.7769 201.869L98.7783 198.243C103.309 195.519 107.842 192.798 112.376 190.08C120.978 184.925 129.582 179.773 138.187 174.621C141.688 172.515 145.929 170.735 147.479 166.634C147.942 165.269 148.151 163.831 148.095 162.391V43.6793C148.095 43.6095 148.067 43.5425 148.018 43.4932C147.968 43.4438 147.902 43.4161 147.832 43.4161C147.762 43.4161 147.696 43.4438 147.646 43.4932C147.597 43.5425 147.569 43.6095 147.569 43.6793Z" fill="#EBEBEB"/>
<path d="M139.532 66.2183L92.3917 93.5058C91.4815 94.0373 90.7363 93.4707 90.7363 92.2523V87.3233C90.7481 86.7018 90.9038 86.0916 91.1911 85.5407C91.4783 84.9899 91.8894 84.5136 92.3917 84.1493L139.532 56.8618C140.448 56.3603 141.188 56.8969 141.188 58.1203V63.0443C141.178 63.6662 141.024 64.2773 140.736 64.8285C140.449 65.3797 140.037 65.8557 139.532 66.2183Z" fill="#9269AD"/>
<path opacity="0.6" d="M139.532 66.2183L92.3917 93.5058C91.4815 94.0373 90.7363 93.4707 90.7363 92.2523V87.3233C90.7481 86.7018 90.9038 86.0916 91.1911 85.5407C91.4783 84.9899 91.8894 84.5136 92.3917 84.1493L139.532 56.8618C140.448 56.3603 141.188 56.8969 141.188 58.1203V63.0443C141.178 63.6662 141.024 64.2773 140.736 64.8285C140.449 65.3797 140.037 65.8557 139.532 66.2183Z" fill="white"/>
<path d="M135.747 61.3645C135.854 61.2685 135.988 61.2087 136.13 61.1937C136.273 61.1787 136.417 61.2092 136.541 61.2809C136.665 61.3527 136.764 61.4619 136.822 61.5931C136.881 61.7243 136.897 61.8707 136.867 62.0114C136.855 62.4041 136.743 62.7872 136.542 63.1245C136.351 63.466 136.078 63.754 135.747 63.9619C135.633 64.0445 135.5 64.0954 135.36 64.1095C135.22 64.1235 135.08 64.1003 134.952 64.0421C134.517 63.7864 134.517 62.9641 134.952 62.2019C135.143 61.8604 135.416 61.5725 135.747 61.3645ZM135.747 60.6876C135.241 61.0017 134.826 61.4423 134.542 61.9662C133.872 63.1245 133.872 64.3731 134.542 64.7592C134.735 64.8491 134.949 64.8854 135.161 64.8642C135.373 64.843 135.575 64.7652 135.747 64.6388C136.253 64.3248 136.668 63.8841 136.952 63.3602C137.622 62.2019 137.622 60.9534 136.952 60.5673C136.759 60.4773 136.545 60.4411 136.333 60.4622C136.121 60.4834 135.919 60.5612 135.747 60.6876Z" fill="white"/>
<path d="M138.177 65.5865C138.099 65.5852 138.024 65.5548 137.967 65.5013L136.342 63.8717C136.295 63.8149 136.272 63.743 136.276 63.6698C136.28 63.5967 136.31 63.5276 136.362 63.4758C136.413 63.424 136.482 63.3933 136.555 63.3895C136.628 63.3858 136.7 63.4093 136.757 63.4555L138.382 65.0851C138.437 65.1405 138.467 65.2153 138.467 65.2932C138.467 65.3711 138.437 65.4459 138.382 65.5013C138.326 65.5541 138.253 65.5845 138.177 65.5865Z" fill="white"/>
<path d="M96.7263 101.803C98.0962 99.424 98.0957 96.8522 96.7251 96.0588C95.3545 95.2654 93.1328 96.5508 91.7628 98.9299C90.3928 101.309 90.3933 103.881 91.764 104.674C93.1346 105.468 95.3563 104.182 96.7263 101.803Z" fill="#9269AD"/>
<path d="M101.099 95.4163C101.011 95.4166 100.924 95.3936 100.848 95.3496C100.771 95.3056 100.708 95.2421 100.664 95.1656C100.599 95.0504 100.582 94.9141 100.616 94.7863C100.651 94.6586 100.734 94.5498 100.849 94.4836L117.003 85.1421C117.06 85.1058 117.123 85.0814 117.19 85.0705C117.256 85.0595 117.324 85.0621 117.39 85.0782C117.455 85.0943 117.517 85.1235 117.571 85.1641C117.625 85.2047 117.67 85.2558 117.704 85.3143C117.738 85.3729 117.759 85.4376 117.767 85.5048C117.775 85.5719 117.77 85.64 117.751 85.7049C117.732 85.7699 117.701 85.8304 117.658 85.8827C117.615 85.9351 117.562 85.9782 117.503 86.0095L101.349 95.3511C101.273 95.3944 101.187 95.4169 101.099 95.4163Z" fill="#9269AD"/>
<path d="M101.099 98.4799C101.011 98.4803 100.924 98.4573 100.848 98.4133C100.771 98.3692 100.708 98.3057 100.664 98.2292C100.599 98.1141 100.582 97.9778 100.616 97.85C100.651 97.7223 100.734 97.6134 100.849 97.5473L110.751 91.811C110.808 91.7781 110.871 91.7567 110.937 91.7483C111.002 91.7398 111.068 91.7443 111.132 91.7615C111.196 91.7787 111.255 91.8083 111.307 91.8487C111.36 91.889 111.403 91.9392 111.436 91.9965C111.469 92.0538 111.49 92.117 111.499 92.1825C111.507 92.2481 111.503 92.3146 111.486 92.3784C111.468 92.4422 111.439 92.502 111.399 92.5543C111.358 92.6067 111.308 92.6505 111.251 92.6835L101.349 98.4148C101.273 98.4581 101.187 98.4805 101.099 98.4799Z" fill="#9269AD"/>
<path d="M111.296 125.336L93.1319 135.866C91.8116 136.633 90.7363 135.821 90.7363 134.051V113.864C90.7363 112.094 91.8116 110.043 93.1319 109.276L111.296 98.7457C112.621 97.9785 113.692 98.7908 113.692 100.561V120.743C113.692 122.518 112.621 124.569 111.296 125.336Z" fill="#9269AD"/>
<path opacity="0.3" d="M111.296 125.336L93.1319 135.866C91.8116 136.633 90.7363 135.821 90.7363 134.051V113.864C90.7363 112.094 91.8116 110.043 93.1319 109.276L111.296 98.7457C112.621 97.9785 113.692 98.7908 113.692 100.561V120.743C113.692 122.518 112.621 124.569 111.296 125.336Z" fill="white"/>
<path d="M112.152 119.304L92.4121 130.732L98.2434 115.518L102.859 119.765L106.41 114.43L112.152 119.304Z" fill="#9269AD"/>
<path d="M104.777 111.586C105.479 110.365 105.479 109.046 104.776 108.638C104.073 108.231 102.933 108.891 102.23 110.112C101.527 111.332 101.527 112.652 102.23 113.059C102.934 113.466 104.074 112.807 104.777 111.586Z" fill="#9269AD"/>
<path d="M138.797 109.521L120.628 120.051C119.308 120.818 118.232 120.006 118.232 118.236V98.0487C118.232 96.2837 119.308 94.2279 120.628 93.4607L138.797 82.9308C140.117 82.1687 141.188 82.981 141.188 84.746V104.918C141.188 106.703 140.117 108.759 138.797 109.521Z" fill="#9269AD"/>
<path opacity="0.3" d="M138.797 109.521L120.628 120.051C119.308 120.818 118.232 120.006 118.232 118.236V98.0487C118.232 96.2837 119.308 94.2279 120.628 93.4607L138.797 82.9308C140.117 82.1687 141.188 82.981 141.188 84.746V104.918C141.188 106.703 140.117 108.759 138.797 109.521Z" fill="white"/>
<path d="M139.582 103.028L119.843 114.455L125.674 99.2421L130.29 103.489L133.841 98.154L139.582 103.028Z" fill="#9269AD"/>
<path d="M132.736 93.5359C132.7 94.1623 132.519 94.7716 132.207 95.315C131.894 95.8584 131.458 96.3207 130.935 96.6648C129.935 97.2364 129.135 96.7701 129.135 95.6218C129.17 94.9955 129.351 94.3861 129.664 93.8427C129.977 93.2993 130.412 92.837 130.935 92.4929C131.93 91.9163 132.736 92.3826 132.736 93.5359Z" fill="#9269AD"/>
<path d="M111.296 181.416L93.1319 191.945C91.8116 192.713 90.7363 191.9 90.7363 190.13C90.7363 188.36 91.8116 186.309 93.1319 185.542L111.296 175.012C112.621 174.245 113.692 175.057 113.692 176.827C113.692 178.603 112.621 180.658 111.296 181.416Z" fill="#9269AD"/>
<path d="M138.797 165.275L120.628 175.805C119.308 176.572 118.232 175.759 118.232 173.989C118.232 172.219 119.308 170.169 120.628 169.401L138.797 158.871C140.117 158.104 141.188 158.917 141.188 160.687C141.188 162.457 140.117 164.507 138.797 165.275Z" fill="#9269AD"/>
<path d="M139.532 153.246L92.3917 180.533C91.4815 181.06 90.7363 180.498 90.7363 179.274V144.44C90.7462 143.819 90.901 143.209 91.1885 142.659C91.476 142.108 91.8881 141.633 92.3917 141.271L139.532 113.984C140.448 113.452 141.188 114.014 141.188 115.238V150.071C141.178 150.693 141.024 151.304 140.736 151.856C140.449 152.407 140.037 152.883 139.532 153.246Z" fill="#E0E0E0"/>
<path d="M95.5925 145.313C95.4817 145.314 95.3739 145.278 95.2858 145.21C95.1977 145.143 95.1344 145.048 95.1058 144.941C95.0772 144.834 95.0849 144.72 95.1278 144.618C95.1706 144.515 95.2461 144.43 95.3424 144.375L136.087 120.808C136.201 120.743 136.336 120.725 136.464 120.758C136.591 120.792 136.7 120.875 136.767 120.989C136.8 121.046 136.822 121.109 136.831 121.174C136.84 121.239 136.836 121.306 136.819 121.37C136.802 121.434 136.773 121.493 136.733 121.546C136.694 121.599 136.644 121.643 136.587 121.676L95.8425 145.243C95.7668 145.288 95.6805 145.312 95.5925 145.313Z" fill="white"/>
<path d="M95.5927 150.056C95.4835 150.055 95.3777 150.018 95.2915 149.951C95.2052 149.884 95.1431 149.791 95.1148 149.685C95.0865 149.58 95.0934 149.467 95.1345 149.366C95.1757 149.265 95.2487 149.18 95.3426 149.124L136.087 125.557C136.201 125.497 136.334 125.484 136.458 125.52C136.582 125.556 136.687 125.638 136.752 125.75C136.816 125.862 136.835 125.995 136.804 126.12C136.774 126.246 136.696 126.355 136.587 126.424L95.8427 149.991C95.7665 150.035 95.6803 150.057 95.5927 150.056Z" fill="white"/>
<path d="M95.5925 154.805C95.4817 154.806 95.3739 154.77 95.2858 154.702C95.1977 154.635 95.1344 154.54 95.1058 154.433C95.0772 154.326 95.0849 154.212 95.1278 154.11C95.1706 154.007 95.2461 153.922 95.3424 153.867L136.087 130.3C136.201 130.235 136.336 130.217 136.464 130.25C136.591 130.284 136.7 130.367 136.767 130.481C136.8 130.538 136.822 130.601 136.831 130.666C136.84 130.731 136.836 130.798 136.819 130.862C136.802 130.926 136.773 130.985 136.733 131.038C136.694 131.091 136.644 131.135 136.587 131.168L95.8425 154.735C95.7668 154.78 95.6805 154.804 95.5925 154.805Z" fill="white"/>
<path d="M95.5927 159.548C95.4835 159.547 95.3777 159.51 95.2915 159.443C95.2052 159.376 95.1431 159.283 95.1148 159.177C95.0865 159.071 95.0934 158.959 95.1345 158.858C95.1757 158.757 95.2487 158.672 95.3426 158.616L136.087 135.049C136.144 135.016 136.207 134.995 136.272 134.986C136.338 134.978 136.404 134.982 136.468 134.999C136.531 135.017 136.591 135.046 136.643 135.086C136.695 135.127 136.739 135.177 136.772 135.234C136.805 135.292 136.826 135.355 136.835 135.42C136.843 135.486 136.839 135.552 136.821 135.616C136.804 135.68 136.775 135.74 136.734 135.792C136.694 135.844 136.644 135.888 136.587 135.921L95.8427 159.488C95.766 159.53 95.6798 159.551 95.5927 159.548Z" fill="white"/>
<path d="M95.5925 164.297C95.4817 164.298 95.3739 164.262 95.2858 164.194C95.1977 164.127 95.1344 164.032 95.1058 163.925C95.0772 163.818 95.0849 163.704 95.1278 163.602C95.1706 163.499 95.2461 163.414 95.3424 163.359L136.087 139.792C136.201 139.732 136.334 139.719 136.458 139.755C136.582 139.791 136.687 139.874 136.752 139.986C136.816 140.098 136.835 140.23 136.804 140.356C136.774 140.481 136.696 140.59 136.587 140.66L95.8425 164.227C95.7675 164.273 95.6808 164.298 95.5925 164.297Z" fill="white"/>
<path d="M95.5923 169.04C95.505 169.04 95.4194 169.016 95.3439 168.972C95.2685 168.928 95.2058 168.865 95.1622 168.79C95.0965 168.675 95.0786 168.539 95.1124 168.412C95.1461 168.284 95.2287 168.175 95.3422 168.108L136.087 144.541C136.144 144.508 136.207 144.487 136.272 144.478C136.337 144.47 136.404 144.474 136.467 144.491C136.531 144.508 136.591 144.538 136.643 144.578C136.695 144.619 136.739 144.669 136.772 144.726C136.805 144.784 136.826 144.847 136.834 144.912C136.843 144.978 136.838 145.044 136.821 145.108C136.804 145.172 136.774 145.232 136.734 145.284C136.694 145.336 136.644 145.38 136.587 145.413L95.8423 168.98C95.7656 169.022 95.6794 169.043 95.5923 169.04Z" fill="white"/>
<path d="M95.5925 173.789C95.4817 173.79 95.3739 173.754 95.2858 173.686C95.1977 173.619 95.1344 173.524 95.1058 173.417C95.0772 173.31 95.0849 173.196 95.1278 173.094C95.1706 172.991 95.2461 172.906 95.3424 172.851L136.087 149.284C136.201 149.224 136.334 149.211 136.458 149.247C136.582 149.283 136.687 149.366 136.752 149.478C136.816 149.59 136.835 149.722 136.804 149.848C136.774 149.973 136.696 150.082 136.587 150.152L95.8425 173.719C95.7668 173.764 95.6805 173.788 95.5925 173.789Z" fill="white"/>
<path d="M163.587 109.401L160.901 112.62L167.193 122.789L164.937 125.426L156.085 114.947C155.575 114.344 155.28 113.587 155.247 112.797C155.215 112.006 155.446 111.228 155.905 110.584L159.376 105.716L163.587 109.401Z" fill="#945959"/>
<path d="M171.194 97.6777L168.723 97.4521C167.769 97.3637 166.807 97.5181 165.928 97.9012C165.048 98.2842 164.279 98.8834 163.692 99.6433L158.256 106.663C158.256 106.663 158.971 109.331 163.427 110.77L169.854 101.689L171.194 97.6777Z" fill="#9269AD"/>
<path opacity="0.3" d="M171.194 97.6777L168.723 97.4521C167.769 97.3637 166.807 97.5181 165.928 97.9012C165.048 98.2842 164.279 98.8834 163.692 99.6433L158.256 106.663C158.256 106.663 158.971 109.331 163.427 110.77L169.854 101.689L171.194 97.6777Z" fill="black"/>
<path d="M169.769 174.842C170.182 175.963 170.339 177.162 170.229 178.352C170.189 178.888 168.423 179.355 167.923 179.465C166.92 179.899 165.968 180.442 165.083 181.085C163.62 182.217 161.829 182.838 159.981 182.855C157.331 182.855 156.105 181.927 156.105 181.004C156.105 180.082 157.831 179.044 159.136 178.853C159.976 178.728 164.202 176.236 164.967 174.31L169.769 174.842Z" fill="#263238"/>
<path d="M169.769 174.185C170.182 175.306 170.34 176.505 170.229 177.695C170.189 178.237 168.423 178.698 167.923 178.813C166.921 179.247 165.969 179.789 165.083 180.428C163.621 181.562 161.829 182.184 159.981 182.198C157.331 182.198 156.105 181.275 156.105 180.353C156.105 179.43 157.831 178.392 159.136 178.196C159.976 178.071 164.202 175.579 164.967 173.659L169.769 174.185Z" fill="#455A64"/>
<path d="M162.127 180.573C162.167 181.075 162.127 181.837 162.127 181.892C161.427 182.088 160.703 182.188 159.976 182.188C157.326 182.188 156.101 181.265 156.101 180.342C156.101 179.42 157.826 178.382 159.131 178.186C159.136 178.186 161.932 178.031 162.127 180.573Z" fill="#FAFAFA"/>
<path d="M163.547 178.191C163.594 178.192 163.641 178.18 163.682 178.156C163.713 178.139 163.741 178.116 163.763 178.088C163.786 178.06 163.802 178.027 163.812 177.993C163.822 177.958 163.824 177.922 163.82 177.887C163.816 177.851 163.805 177.816 163.787 177.785C163.187 176.707 161.786 176.577 161.731 176.572C161.66 176.568 161.589 176.591 161.534 176.638C161.479 176.685 161.444 176.751 161.436 176.822C161.431 176.895 161.454 176.967 161.501 177.022C161.548 177.077 161.614 177.112 161.686 177.118C162.008 177.148 162.32 177.247 162.6 177.408C162.88 177.569 163.123 177.788 163.312 178.051C163.335 178.094 163.368 178.129 163.41 178.154C163.451 178.179 163.499 178.192 163.547 178.191Z" fill="#FAFAFA"/>
<path d="M164.812 177.309C164.859 177.307 164.905 177.295 164.947 177.274C165.01 177.237 165.056 177.177 165.075 177.107C165.095 177.037 165.087 176.962 165.052 176.898C164.82 176.557 164.515 176.271 164.159 176.062C163.804 175.854 163.407 175.726 162.997 175.689C162.961 175.686 162.925 175.69 162.892 175.701C162.858 175.712 162.826 175.73 162.799 175.753C162.772 175.776 162.75 175.804 162.733 175.836C162.717 175.867 162.707 175.902 162.704 175.938C162.701 175.973 162.705 176.009 162.716 176.043C162.727 176.077 162.744 176.108 162.767 176.136C162.79 176.163 162.818 176.185 162.85 176.202C162.882 176.218 162.916 176.228 162.952 176.231C162.952 176.231 164.117 176.346 164.572 177.168C164.596 177.211 164.631 177.247 164.673 177.271C164.715 177.296 164.763 177.309 164.812 177.309Z" fill="#FAFAFA"/>
<path d="M165.963 176.236C166.01 176.234 166.056 176.222 166.098 176.201C166.129 176.183 166.157 176.159 166.18 176.131C166.202 176.102 166.218 176.069 166.228 176.035C166.238 176 166.241 175.963 166.236 175.927C166.232 175.891 166.221 175.856 166.203 175.825C165.603 174.752 164.202 174.621 164.147 174.616C164.112 174.613 164.076 174.616 164.042 174.627C164.008 174.637 163.976 174.655 163.949 174.677C163.921 174.7 163.899 174.728 163.882 174.76C163.866 174.792 163.856 174.826 163.852 174.862C163.847 174.934 163.87 175.006 163.917 175.061C163.964 175.117 164.03 175.151 164.102 175.158C164.424 175.189 164.736 175.289 165.016 175.451C165.296 175.613 165.539 175.832 165.728 176.095C165.751 176.138 165.784 176.174 165.826 176.198C165.867 176.223 165.915 176.236 165.963 176.236Z" fill="#FAFAFA"/>
<path d="M174.314 122.839L171.933 149.826C171.933 149.826 172.259 153.06 171.593 160.601C170.928 168.143 170.163 174.606 170.163 174.606C170.163 174.606 166.527 175.995 164.382 173.994C164.382 173.994 163.772 155.582 163.767 149.425C163.767 142.836 164.382 123.085 164.382 123.085L174.314 122.839Z" fill="#37474F"/>
<path d="M172.644 141.803L171.464 132.567C171.464 132.567 167.503 132.025 166.813 130.06C165.953 127.633 166.428 124.519 166.428 124.519L174.195 124.228L172.644 141.803Z" fill="#263238"/>
<path d="M183.211 178.186C183.211 178.186 184.036 182.875 184.036 184.489C184.036 186.104 183.036 188.19 180.346 188.19C177.655 188.19 177.75 185.041 177.91 183.742C178.07 182.443 178.735 178.186 178.735 178.186H183.211Z" fill="#263238"/>
<path d="M183.161 177.685C183.161 177.685 183.966 182.268 183.966 183.842C183.966 185.417 183.006 187.463 180.361 187.463C177.715 187.463 177.825 184.384 177.98 183.11C178.135 181.837 178.785 177.685 178.785 177.685H183.161Z" fill="#455A64"/>
<path d="M180.675 183.306H181.051C181.556 183.305 182.053 183.431 182.496 183.674C182.939 183.917 183.314 184.268 183.586 184.695L183.791 185.016C183.586 185.756 183.133 186.404 182.509 186.849C181.884 187.295 181.125 187.511 180.36 187.463C178.69 187.463 178.12 186.234 177.965 185.011C178.21 184.499 178.595 184.068 179.075 183.766C179.554 183.464 180.109 183.305 180.675 183.306Z" fill="#FAFAFA"/>
<path d="M182.241 122.378L183.466 148.953C184.473 154.226 184.826 159.604 184.516 164.964C183.901 173.072 183.801 178.613 183.801 178.613C183.801 178.613 180.27 180.458 178.475 178.302L174.844 148.186L172.343 131.719C172.343 131.719 167.482 131.459 166.507 128.896C165.886 127.108 165.508 125.245 165.382 123.356L182.241 122.378Z" fill="#37474F"/>
<path d="M182.016 181.987C182.074 181.985 182.13 181.964 182.175 181.927C182.22 181.891 182.252 181.841 182.267 181.785C182.281 181.729 182.277 181.669 182.256 181.615C182.234 181.562 182.196 181.516 182.146 181.486C182.086 181.451 180.671 180.698 179.436 181.486C179.376 181.526 179.334 181.587 179.32 181.657C179.305 181.728 179.318 181.801 179.356 181.862C179.375 181.892 179.4 181.918 179.429 181.938C179.459 181.959 179.492 181.973 179.527 181.98C179.561 181.988 179.597 181.988 179.632 181.982C179.668 181.975 179.701 181.962 179.731 181.942C180.696 181.32 181.871 181.942 181.886 181.942C181.925 181.967 181.97 181.983 182.016 181.987Z" fill="#FAFAFA"/>
<path d="M182.016 180.804C182.074 180.801 182.13 180.78 182.175 180.744C182.22 180.708 182.252 180.658 182.267 180.601C182.281 180.545 182.277 180.486 182.256 180.432C182.234 180.378 182.196 180.333 182.146 180.302C182.086 180.267 180.671 179.515 179.436 180.302C179.376 180.342 179.334 180.404 179.32 180.474C179.305 180.544 179.318 180.618 179.356 180.678C179.375 180.709 179.4 180.734 179.429 180.755C179.459 180.775 179.492 180.789 179.527 180.797C179.561 180.804 179.597 180.805 179.632 180.798C179.668 180.792 179.701 180.778 179.731 180.759C180.696 180.137 181.871 180.759 181.886 180.759C181.924 180.786 181.969 180.802 182.016 180.804Z" fill="#FAFAFA"/>
<path d="M182.016 179.62C182.074 179.618 182.13 179.597 182.175 179.561C182.22 179.524 182.252 179.474 182.267 179.418C182.281 179.362 182.277 179.302 182.256 179.249C182.234 179.195 182.196 179.149 182.146 179.119C182.086 179.084 180.671 178.332 179.436 179.119C179.376 179.159 179.334 179.221 179.32 179.291C179.305 179.361 179.318 179.434 179.356 179.495C179.375 179.525 179.4 179.551 179.429 179.571C179.459 179.592 179.492 179.606 179.527 179.614C179.561 179.621 179.597 179.621 179.632 179.615C179.668 179.608 179.701 179.595 179.731 179.575C180.696 178.954 181.871 179.575 181.886 179.575C181.924 179.603 181.969 179.618 182.016 179.62Z" fill="#FAFAFA"/>
<path d="M164.682 103.359L163.972 124.845C163.972 124.845 171.218 130.12 182.766 126.118V102C182.77 101.128 182.451 100.285 181.869 99.6359C181.288 98.987 180.486 98.5785 179.62 98.49L171.193 97.6777C170.388 97.5955 169.575 97.6798 168.804 97.9251C168.033 98.1705 167.321 98.5718 166.71 99.1042C166.1 99.6367 165.605 100.289 165.256 101.021C164.907 101.753 164.712 102.548 164.682 103.359Z" fill="#9269AD"/>
<path opacity="0.1" d="M164.682 103.359L163.972 124.845C163.972 124.845 171.218 130.12 182.766 126.118V102C182.77 101.128 182.451 100.285 181.869 99.6359C181.288 98.987 180.486 98.5785 179.62 98.49L171.193 97.6777C170.388 97.5955 169.575 97.6798 168.804 97.9251C168.033 98.1705 167.321 98.5718 166.71 99.1042C166.1 99.6367 165.605 100.289 165.256 101.021C164.907 101.753 164.712 102.548 164.682 103.359Z" fill="black"/>
<path d="M188.457 108.503L190.608 114.521L204.776 117.444V121.29L188.517 120.312C187.92 120.278 187.344 120.08 186.852 119.74C186.359 119.399 185.97 118.929 185.727 118.381L182.786 111.813L188.457 108.503Z" fill="#945959"/>
<path d="M179.641 98.5101V101.338C179.64 103.613 180.08 105.865 180.936 107.972L183.386 113.989C183.386 113.989 188.853 112.816 189.818 110.148L186.317 101.945C185.903 100.976 185.223 100.144 184.356 99.5456C183.49 98.9476 182.472 98.6077 181.421 98.5652L179.641 98.5101Z" fill="#9269AD"/>
<path opacity="0.3" d="M179.641 98.5101V101.338C179.64 103.613 180.08 105.865 180.936 107.972L183.386 113.989C183.386 113.989 188.853 112.816 189.818 110.148L186.317 101.945C185.903 100.976 185.223 100.144 184.356 99.5456C183.49 98.9476 182.472 98.6077 181.421 98.5652L179.641 98.5101Z" fill="black"/>
<path d="M166.412 81.9982C166.412 81.9982 163.292 84.741 166.002 90.8634L169.178 82.5899L166.412 81.9982Z" fill="#263238"/>
<path d="M176.705 98.2142L171.438 102.16V89.6048H176.705V98.2142Z" fill="#945959"/>
<path d="M171.438 96.8052C173.379 96.0531 175.844 94.7995 175.844 93.6162L176.485 89.6048H171.438V96.8052Z" fill="#703838"/>
<path d="M172.514 80.3033C170.598 80.3033 166.512 81.3714 166.057 86.3956C165.602 91.4199 166.322 95.687 168.628 95.687C173.154 95.687 177.5 95.1104 177.535 87.6642C177.585 81.1307 174.394 80.3033 172.514 80.3033Z" fill="#945959"/>
<path d="M176.705 92.0818L175.964 89.8104C175.909 89.8572 175.841 89.8871 175.77 89.8968C175.698 89.9064 175.625 89.8953 175.559 89.8647C175.494 89.8342 175.438 89.7855 175.399 89.7243C175.36 89.6632 175.339 89.5921 175.339 89.5195V85.473C175.339 85.473 173.459 84.9415 173.659 83.352C173.659 83.352 172.694 84.2145 169.003 84.2145C165.312 84.2145 164.412 81.0806 164.782 79.3306C164.782 79.3306 165.467 80.0426 167.417 80.0426C169.368 80.0426 177.5 77.5806 177.71 82.5046C177.71 82.5046 178.395 81.5018 179.505 82.5046L178.08 83.352C178.08 83.352 179.765 83.3019 179.505 85.7889C179.295 87.7445 178.48 91.4651 178.145 92.9543C178.049 93.364 177.803 93.7223 177.455 93.9571L176.705 94.4586V92.0818Z" fill="#263238"/>
<path d="M169.648 87.8999V90.8633L167.923 90.3318L169.648 87.8999Z" fill="#703838"/>
<path d="M172.724 88.4114C172.725 88.5316 172.69 88.6494 172.624 88.7498C172.558 88.8502 172.464 88.9288 172.354 88.9755C172.243 89.0222 172.122 89.0349 172.004 89.0121C171.886 88.9892 171.778 88.9318 171.693 88.8472C171.608 88.7625 171.549 88.6544 171.526 88.5366C171.502 88.4188 171.514 88.2965 171.559 88.1854C171.605 88.0742 171.682 87.9792 171.782 87.9123C171.882 87.8454 171.999 87.8097 172.119 87.8097C172.278 87.8097 172.432 87.8729 172.545 87.9856C172.658 88.0983 172.723 88.2513 172.724 88.4114Z" fill="#263238"/>
<path d="M168.218 87.9902C168.218 88.1092 168.183 88.2255 168.117 88.3245C168.051 88.4234 167.957 88.5006 167.847 88.5461C167.738 88.5916 167.617 88.6036 167.501 88.5804C167.384 88.5571 167.277 88.4998 167.193 88.4157C167.109 88.3315 167.052 88.2243 167.029 88.1076C167.006 87.9909 167.018 87.8699 167.063 87.7599C167.109 87.65 167.186 87.556 167.284 87.4899C167.383 87.4238 167.499 87.3885 167.618 87.3885C167.776 87.3898 167.928 87.4536 168.041 87.5662C168.153 87.6787 168.217 87.831 168.218 87.9902Z" fill="#263238"/>
<path d="M166.882 86.7366L168.062 86.0346C168.062 86.0346 167.607 85.5633 167.157 85.8491C167.027 85.952 166.932 86.0918 166.883 86.2502C166.834 86.4086 166.833 86.5782 166.882 86.7366Z" fill="#263238"/>
<path d="M173.344 87.1729L172.169 86.4709C172.169 86.4709 172.619 85.9996 173.069 86.2854C173.199 86.3882 173.295 86.528 173.344 86.6864C173.393 86.8448 173.393 87.0144 173.344 87.1729Z" fill="#263238"/>
<path d="M168.838 92.0618C169.412 92.1041 169.983 91.9503 170.458 91.6255C170.458 91.6255 170.568 92.483 169.853 92.6284C169.645 92.6635 169.431 92.6265 169.246 92.5235C169.062 92.4206 168.918 92.2577 168.838 92.0618Z" fill="#703838"/>
<path d="M176.26 88.968C175.575 90.1513 175.76 91.5904 176.705 92.0818C177.315 92.3977 179.121 91.7158 179.801 90.5324C180.481 89.349 180.101 88.3312 179.171 87.7946C178.241 87.2581 176.94 87.7796 176.26 88.968Z" fill="#945959"/>
<path d="M175.915 89.8455L177.996 87.584L176.5 86.6815L175.915 89.8455Z" fill="#253239"/>
<path d="M197.729 159.639H190.683V161.529C190.684 162.983 190.881 164.43 191.268 165.831L196.929 186.39C196.976 186.567 197.08 186.724 197.225 186.837C197.37 186.949 197.548 187.01 197.732 187.01C197.915 187.01 198.093 186.949 198.238 186.837C198.384 186.724 198.488 186.567 198.534 186.39L204.196 165.831C204.581 164.428 204.776 162.979 204.776 161.524V159.639H197.729Z" fill="#FFA8A7"/>
<path d="M199.58 181.481C199.007 181.772 198.374 181.924 197.732 181.924C197.09 181.924 196.457 181.772 195.884 181.481C195.743 181.399 195.614 181.3 195.499 181.185L196.929 186.38C196.976 186.557 197.08 186.714 197.225 186.827C197.371 186.939 197.549 187 197.732 187C197.915 187 198.093 186.939 198.239 186.827C198.384 186.714 198.488 186.557 198.535 186.38L199.965 181.185C199.849 181.299 199.72 181.398 199.58 181.481Z" fill="#37474F"/>
<path d="M190.683 66.3086V162.05C190.683 163.093 191.373 164.136 192.748 164.934C195.499 166.523 199.96 166.523 202.71 164.934C204.086 164.136 204.776 163.093 204.776 162.05V66.3086H190.683Z" fill="#9269AD"/>
<path d="M202.711 82.284C205.466 83.8735 205.466 86.4558 202.711 88.0504C199.955 89.6449 195.499 89.6449 192.749 88.0504C189.998 86.4558 189.998 83.8735 192.749 82.284C195.499 80.6945 199.96 80.6895 202.711 82.284Z" fill="#E6E6E6"/>
<path d="M204.771 69.4876H190.683V85.1672H204.771V69.4876Z" fill="#E6E6E6"/>
<path d="M202.71 82.4093C199.96 84.0039 195.499 84.0039 192.748 82.4093C191.373 81.6121 190.683 80.5691 190.683 79.5262V81.4767C190.683 82.5197 191.373 83.5626 192.748 84.3599C195.499 85.9544 199.96 85.9544 202.71 84.3599C204.086 83.5626 204.776 82.5197 204.776 81.4767V79.5262C204.776 80.5691 204.086 81.6321 202.71 82.4093Z" fill="#9269AD"/>
<path d="M202.71 76.4524C199.96 78.0419 195.499 78.0419 192.748 76.4524C191.373 75.6552 190.683 74.6122 190.683 73.5642V75.5148C190.683 76.5577 191.373 77.6007 192.748 78.398C195.499 79.9925 199.96 79.9925 202.71 78.398C204.086 77.6007 204.776 76.5577 204.776 75.5148V73.5642C204.776 74.6122 204.086 75.6552 202.71 76.4524Z" fill="#9269AD"/>
<path d="M202.711 66.5894C205.466 68.1839 205.466 70.7663 202.711 72.3558C199.955 73.9453 195.499 73.9503 192.749 72.3558C189.998 70.7612 189.998 68.1839 192.749 66.5894C195.499 64.9949 199.96 65.0099 202.711 66.5894Z" fill="#F28F8F"/>
<path d="M204.771 57.4986H190.683V69.4876H204.771V57.4986Z" fill="#F28F8F"/>
<path d="M202.711 54.6154C205.466 56.2099 205.466 58.7923 202.711 60.3818C199.955 61.9713 195.499 61.9763 192.749 60.3818C189.998 58.7872 189.998 56.2049 192.749 54.6104C195.499 53.0159 199.96 53.0509 202.711 54.6154Z" fill="#FFA8A7"/>
<path d="M204.781 115.343C204.387 115.565 203.943 115.682 203.491 115.682C203.039 115.682 202.595 115.565 202.201 115.343C200.025 114.315 201.141 121.465 204.781 120.492C208.422 119.52 207.282 114.009 204.781 114.009V115.343Z" fill="#945959"/>
</svg>
