<svg width="42" height="52" viewBox="0 0 42 52" fill="none" xmlns="http://www.w3.org/2000/svg">
<path d="M20.8203 52C20.6656 52 20.5109 51.9764 20.3616 51.9293C14.4143 50.0512 9.32212 46.3996 5.6353 41.3693C1.94868 36.3388 0 30.3833 0 24.1466V8.63281C0 7.79147 0.682094 7.10938 1.52344 7.10938C5.92363 7.10938 9.92418 4.69666 11.9728 0.812703C12.2364 0.312914 12.7551 0 13.3202 0H28.3203C28.8854 0 29.4042 0.312813 29.6678 0.812703C31.7164 4.69666 35.717 7.10938 40.1081 7.10938C40.9494 7.10938 41.6406 7.79147 41.6406 8.63281V24.1466C41.6406 30.3833 39.6919 36.3388 36.0053 41.3691C32.3185 46.3995 27.2264 50.0511 21.2791 51.9292C21.1298 51.9764 20.975 52 20.8203 52Z" fill="#D7E6F0"/>
<path d="M40.108 7.10938C35.717 7.10938 31.7164 4.69666 29.6678 0.812703C29.4043 0.312813 28.8855 0 28.3204 0H20.8203V52C20.975 52 21.1298 51.9764 21.2791 51.9293C27.2264 50.0512 32.3185 46.3996 36.0053 41.3693C39.6919 36.3388 41.6406 30.3833 41.6406 24.1466V8.63281C41.6406 7.79147 40.9494 7.10938 40.108 7.10938Z" fill="#603A8B"/>
<path d="M20.8203 45.5185C20.6209 45.5185 20.4216 45.4794 20.234 45.4012C11.644 41.8193 6.09375 33.4764 6.09375 24.1467V13.7541C6.09375 13.0961 6.51625 12.5124 7.14137 12.3068C10.3749 11.2438 13.2227 9.28881 15.3769 6.65316C15.6662 6.29911 16.0992 6.09375 16.5564 6.09375H25.0841C25.5413 6.09375 25.9745 6.29911 26.2638 6.65316C28.4178 9.28921 31.2656 11.2445 34.4993 12.3079C35.1244 12.5134 35.5468 13.0971 35.5468 13.7551V24.1467C35.5468 33.4764 29.9965 41.8193 21.4065 45.4011C21.219 45.4793 21.0197 45.5185 20.8203 45.5185Z" fill="#F5F5FF"/>
<path d="M34.4994 12.3079C31.2657 11.2445 28.4179 9.28921 26.2639 6.65316C25.9745 6.29911 25.5413 6.09375 25.0841 6.09375H20.8203V45.5185C21.0197 45.5185 21.219 45.4794 21.4066 45.4012C29.9966 41.8193 35.5469 33.4764 35.5469 24.1467V13.7551C35.5469 13.0971 35.1245 12.5134 34.4994 12.3079Z" fill="#E2E7FA"/>
<path d="M22.8516 32.1953H18.7891C17.9477 32.1953 17.2656 31.5132 17.2656 30.6719V26.6094H13.2031C12.3618 26.6094 11.6797 25.9273 11.6797 25.0859V21.0234C11.6797 20.1821 12.3618 19.5 13.2031 19.5H17.2656V15.4375C17.2656 14.5962 17.9477 13.9141 18.7891 13.9141H22.8516C23.6929 13.9141 24.375 14.5962 24.375 15.4375V19.5H28.4375C29.2788 19.5 29.9609 20.1821 29.9609 21.0234V25.0859C29.9609 25.9273 29.2788 26.6094 28.4375 26.6094H24.375V30.6719C24.375 31.5132 23.6929 32.1953 22.8516 32.1953ZM24.375 26.6094V30.6719C24.375 31.5132 23.6929 32.1953 22.8516 32.1953H18.7891C17.9477 32.1953 17.2656 31.5132 17.2656 30.6719V26.6094H24.375ZM24.375 19.5H28.4375C29.2788 19.5 29.9609 20.1821 29.9609 21.0234V25.0859C29.9609 25.9273 29.2788 26.6094 28.4375 26.6094H24.375V19.5ZM17.2656 19.5V15.4375C17.2656 14.5962 17.9477 13.9141 18.7891 13.9141H22.8516C23.6929 13.9141 24.375 14.5962 24.375 15.4375V19.5H17.2656ZM17.2656 26.6094H13.2031C12.3618 26.6094 11.6797 25.9273 11.6797 25.0859V21.0234C11.6797 20.1821 12.3618 19.5 13.2031 19.5H17.2656" fill="#EF5CA2"/>
<path d="M28.4375 19.5H24.375V15.4375C24.375 14.5962 23.6929 13.9141 22.8516 13.9141H20.8203V32.1953H22.8516C23.6929 32.1953 24.375 31.5132 24.375 30.6719V26.6094H28.4375C29.2788 26.6094 29.9609 25.9273 29.9609 25.0859V21.0234C29.9609 20.1821 29.2788 19.5 28.4375 19.5Z" fill="#603A8B"/>
</svg>
