<svg height="280.461" viewBox="0 0 380.61 280.461" width="380.61" xmlns="http://www.w3.org/2000/svg"><path d="m389.027 118.61a29.637 29.637 0 1 0 -9.624-9.624 29.635 29.635 0 0 0 9.624 9.624z" fill="#ebebeb" transform="translate(-65.879 -63.761)"/><path d="m396.65 90.9a9.026 9.026 0 1 0 9.026-9.026 9.016 9.016 0 0 0 -9.026 9.007z" fill="#fff" transform="translate(-66.939 -64.647)"/><path d="m389.75 116.7v3.719a29.635 29.635 0 0 0 31.168 0v-3.709a15.589 15.589 0 1 0 -31.168-.77q-.01.385 0 .77z" fill="#fff" transform="translate(-66.601 -65.569)"/><circle cx="18.68" cy="18.68" fill="#ebebeb" r="18.68" transform="matrix(.44496344 -.89554873 .89554873 .44496344 31.395 57.629)"/><path d="m118.3 117.365c-2.853 5.707-9.511 9.074-9.511 9.074s-6.715-3.376-9.511-9.074c-2.349-4.756-.866-9.872 2.853-10.995 5.317-1.607 6.658 7.656 6.658 7.656s1.36-9.264 6.658-7.656c3.723 1.123 5.206 6.297 2.853 10.995z" fill="#fff" transform="translate(-52.344 -65.835)"/><circle cx="329.724" cy="203.444" fill="#ebebeb" r="28.181"/><path d="m408.641 284.36c-6.563 6.991-17.729 8.95-17.729 8.95s-8.227-7.8-9.825-17.244c-1.322-7.885 3.063-14.647 8.9-14.657 8.389 0 6.325 13.962 6.325 13.962s6-12.783 12.992-8.141c4.873 3.235 4.796 11.29-.663 17.13z" fill="#fff" transform="translate(-66.166 -73.425)"/><g fill="#ebebeb"><path d="m73.137 226.265c-1.179-.732-2.2-1.8-3.8-1.636-.6.057-.466-.437-.476-.77q0-8.845-.067-17.672c0-.437 0-.789.485-1.018 4.5-2.292 6.429-6.762 9.178-10.586a17.634 17.634 0 0 0 3.22-13.383c-.2-1.332.418-1.9 1.617-2.2 1.436-.333 2.853.057 3.367 1.046a23.78 23.78 0 0 1 2.6 7.713c.266 2.235-.533 4.413-.8 6.658-.2 1.626-.571 3.224-.875 4.86.4.285.856.143 1.274.143l14.942-.048c2.092 0 3.129.6 3.424 1.988a4 4 0 0 1 -2.092 4.261c-.371.181-1.046 0-1.084.6s.647.533.951.77c1.807 1.227 1.484 3.8-.6 5.26-.495.361-1.474.2-1.493.951s.951.58 1.313.951c1.465 1.436.751 4.118-1.427 5.212a6.273 6.273 0 0 0 -.866.342c-.247.162-.495.352 0 .694 2.159 1.531 2.121 3.671 0 5.241l-.647.476a4.228 4.228 0 0 1 -2.616.58l-23.426.086a2.757 2.757 0 0 1 -2.102-.519z" fill-rule="evenodd" transform="translate(-50.909 -69.39)"/><path d="m50 217.214v-11.232c0-.761.067-1.132.951-1.132 4.575.048 9.131 0 13.7 0 .951 0 1.037.295 1.037 1.094q0 11.3.086 22.608c0 .951-.257 1.227-1.217 1.217-4.432 0-8.864 0-13.316.048-1.1 0-1.255-.361-1.246-1.332.005-3.776.005-7.523.005-11.271z" fill-rule="evenodd" transform="translate(-49.99 -70.66)"/><path d="m428.871 355.779c-.685-.428-1.284-1.056-2.207-.951-.352 0-.276-.257-.285-.447v-10.387a.571.571 0 0 1 .285-.6c2.644-1.341 3.8-3.966 5.393-6.211a10.378 10.378 0 0 0 1.9-7.866c-.114-.78.247-1.122.951-1.284a1.731 1.731 0 0 1 1.978.609 13.962 13.962 0 0 1 1.522 4.537 16.906 16.906 0 0 1 -.466 3.89c-.124.951-.342 1.9-.514 2.853.228.162.5.076.751.076h8.769c1.236 0 1.836.342 2.007 1.16a2.331 2.331 0 0 1 -1.265 2.539c-.219.114-.609 0-.637.352s.38.314.59.457c1.056.723.865 2.216-.352 3.091-.295.209-.865.114-.885.542s.533.342.77.58a1.979 1.979 0 0 1 -.837 3.063 4.74 4.74 0 0 0 -.514.2c-.143.1-.285.209 0 .409a1.731 1.731 0 0 1 0 3.082l-.38.276a2.418 2.418 0 0 1 -1.531.342q-6.887 0-13.763.048a1.626 1.626 0 0 1 -1.28-.36z" fill-rule="evenodd" transform="translate(-68.392 -76.677)"/><path d="m415.22 350.467v-6.6c0-.447 0-.666.59-.656h8.046c.523 0 .609.171.609.637v13.315c0 .571-.152.723-.713.723h-7.809c-.647 0-.732-.219-.732-.78.047-2.235.018-4.442.009-6.639z" fill-rule="evenodd" transform="translate(-67.846 -77.424)"/><path d="m96 336.652h-3.43a3.8 3.8 0 0 1 -3.881-3.726c0-.054 0-.109 0-.164a3.9 3.9 0 0 1 3.881-3.88h4.756l2.235-12.982h-4.308a3.881 3.881 0 0 1 0-7.761h5.707l1.484-8.883a3.8 3.8 0 0 1 3.881-3.205 3.985 3.985 0 0 1 3.921 4.048 3.944 3.944 0 0 1 -.041.508l-1.332 7.533h11.689l1.493-8.883a3.805 3.805 0 0 1 3.957-3.205 3.939 3.939 0 0 1 3.853 4.021 3.876 3.876 0 0 1 -.049.535l-1.274 7.533h3.453a3.89 3.89 0 0 1 3.861 3.881 3.938 3.938 0 0 1 -3.861 3.881h-4.756l-2.239 12.979h4.242a3.852 3.852 0 0 1 3.89 3.814v.067a3.91 3.91 0 0 1 -3.89 3.89h-5.593l-1.569 9.169a3.8 3.8 0 0 1 -3.881 3.205 3.947 3.947 0 0 1 -3.96-3.934 3.992 3.992 0 0 1 .042-.584l1.427-7.837h-11.724l-1.56 9.169a3.9 3.9 0 0 1 -3.928 3.186 3.806 3.806 0 0 1 -3.8-4.518zm20.981-7.771 2.249-12.981h-11.651l-2.245 12.983z" transform="translate(-51.882 -75.118)"/><path d="m353.5 241.8h-2.739a3.072 3.072 0 0 1 -3.091-3.053v-.047a3.111 3.111 0 0 1 3.091-3.091h3.8l1.788-10.348h-3.462a3.1 3.1 0 0 1 0-6.192h4.537l1.17-7.076a3.043 3.043 0 0 1 3.1-2.558 3.179 3.179 0 0 1 3.091 3.633l-1.056 6h9.33l1.189-7.076a3.053 3.053 0 0 1 3.148-2.558 3.158 3.158 0 0 1 3.079 3.235 3.122 3.122 0 0 1 -.035.4l-1.018 6h2.8a3.1 3.1 0 0 1 3.082 3.1 3.139 3.139 0 0 1 -3.082 3.091h-3.8l-1.836 10.4h3.386a3.072 3.072 0 0 1 3.1 3.044v.048a3.11 3.11 0 0 1 -3.1 3.1h-4.461l-1.246 7.3a3.072 3.072 0 0 1 -3.1 2.558 3.138 3.138 0 0 1 -3.127-3.15 3.043 3.043 0 0 1 .036-.464l1.132-6.249h-9.34l-1.255 7.3a3.091 3.091 0 0 1 -3.139 2.558 3.043 3.043 0 0 1 -3.087-3 2.969 2.969 0 0 1 .053-.615zm16.72-6.144 1.788-10.348h-9.283l-1.788 10.348z" transform="translate(-64.544 -70.883)"/></g><path d="m380.67 232.311c-1.332 10.881-10.32 20.221-10.32 20.221s-12.859-1.655-20.706-9.3c-6.544-6.382-7.057-15.579-1.664-19.536 7.732-5.707 15.218 8.627 15.218 8.627s-3.015-15.845 6.544-16.321c6.677-.259 12.041 7.236 10.928 16.309z" fill="#ffc727" transform="translate(-64.38 -71.204)"/><path d="m387.829 185.288c-4.851 6.449-14.01 9.1-14.01 9.1s-7.609-5.783-9.787-13.544c-1.826-6.468 1.227-12.526 6.116-13.068 7.01-.761 6.563 11.109 6.563 11.109s3.852-11.242 10.129-7.989c4.366 2.265 5.031 9.004.989 14.392z" fill="#ffc727" transform="translate(-65.318 -68.845)"/><path d="m132.61 176.118c-4.7 6.553-13.8 9.416-13.8 9.416s-7.723-5.6-10.091-13.316c-1.978-6.429.951-12.555 5.821-13.2 6.991-.951 6.81 10.957 6.81 10.957s3.6-11.328 9.939-8.227c4.421 2.196 5.249 8.93 1.321 14.37z" fill="#ffc727" transform="translate(-52.831 -68.416)"/></svg>