<svg width="212" height="212" viewBox="0 0 212 212" fill="none" xmlns="http://www.w3.org/2000/svg">
<g clip-path="url(#clip0)">
<path d="M135.844 6.41016L112.633 132.416L129.213 135.731C164.306 110.033 179.366 6.41016 135.844 6.41016Z" fill="#1B1B1B"/>
<path d="M135.845 6.41183C130.041 2.88844 99.4148 -6.05962 76.1576 6.41183C47.5577 21.7481 22.5498 76.5989 62.8939 132.417C62.9514 132.496 92.7374 129.102 92.7374 129.102L135.845 6.41183Z" fill="#1B1B1B"/>
<path d="M129.392 116.952H129.211V109.207H82.7883V116.944C82.7883 124.524 82.7566 132.763 76.1562 137.747V212.001H106C106 212.001 121.627 212.001 135.843 212.001V137.631C129.412 132.635 129.392 124.467 129.392 116.952Z" fill="#7B4B00"/>
<path d="M105.997 178.842C98.8668 178.842 92.1385 177.896 86.1016 176.254V212.001H132.524V174.066C125.002 177.068 115.868 178.842 105.997 178.842Z" fill="#545465"/>
<path d="M132.528 152.312C133.738 152.642 134.828 152.818 135.844 152.903V137.629C129.413 132.632 129.392 124.464 129.392 116.949L129.388 116.757V109.012L92.7369 109.204L82.7891 112.52C89.4211 119.981 109.731 146.094 132.528 152.312Z" fill="#773E00"/>
<path d="M152.424 66.0966C152.424 92.6511 126.015 125.784 106.001 125.784C85.9874 125.784 59.5781 92.6511 59.5781 66.0966C59.5781 39.5422 80.3627 29.6211 106.001 29.6211C131.639 29.6211 152.424 39.5422 152.424 66.0966Z" fill="#7B4B00"/>
<path d="M112.632 13.043C110.769 13.043 104.72 15.1362 99.7757 16.9705L99.368 16.3587C99.368 16.3587 98.6857 16.8949 97.5045 17.8241C94.7547 18.8683 92.7365 19.6745 92.7365 19.6745L93.512 20.9676C80.9262 30.8837 52.211 53.5675 49.6289 56.1501C46.3131 59.4658 69.5245 144.065 69.5245 95.9414C69.5245 55.7358 91.8617 47.7735 112.632 42.8865C122.027 40.6758 124.79 35.1493 125.895 29.6229C127.001 24.0964 115.948 13.043 112.632 13.043Z" fill="#1B1B1B"/>
<path d="M122.577 32.9374C128.656 54.7671 140.815 64.6459 152.213 67.5474C158.459 69.1373 155.737 49.5173 155.737 49.5173C155.737 49.5173 146.894 26.8581 145.789 26.3058C144.684 25.753 135.841 6.41016 135.841 6.41016L115.945 22.99L122.577 32.9374Z" fill="#1B1B1B"/>
<path d="M79.7972 133.773C76.6915 138.819 70.3598 142.366 57.3658 142.366H56.2607C36.1161 142.366 19.7852 158.697 19.7852 178.842L20.5 189C26 196 52.0058 212.001 57.5 212.001H97.7759L79.7972 133.773Z" fill="#E4EBF0"/>
<path d="M132.201 133.773C135.307 138.819 141.639 142.366 154.633 142.366H155.738C175.882 142.366 192.213 158.697 192.213 178.842V186C192.213 191.494 159.494 212.5 154 212.5L114.223 212.001L132.201 133.773Z" fill="#E4EBF0"/>
<path d="M56.2603 205.368C61.7544 205.368 66.2082 200.915 66.2082 195.42C66.2082 189.926 61.7544 185.473 56.2603 185.473C50.7663 185.473 46.3125 189.926 46.3125 195.42C46.3125 200.915 50.7663 205.368 56.2603 205.368Z" fill="#D0D7DC"/>
<path d="M160.197 203.775L156.098 200.958C159.741 195.657 161.831 187.711 161.831 179.155C161.831 164.326 155.377 151.798 147.738 151.798C140.099 151.798 133.646 164.326 133.646 179.155C133.646 187.711 135.735 195.657 139.378 200.958L135.279 203.775C131.081 197.666 128.672 188.692 128.672 179.155C128.672 161.025 137.046 146.824 147.739 146.824C158.43 146.824 166.805 161.026 166.805 179.155C166.804 188.692 164.396 197.666 160.197 203.775Z" fill="#D0D7DC"/>
<path d="M137.792 205.682C139.624 205.682 141.108 204.198 141.108 202.367C141.108 200.535 139.624 199.051 137.792 199.051C135.961 199.051 134.477 200.535 134.477 202.367C134.477 204.198 135.961 205.682 137.792 205.682Z" fill="#545465"/>
<path d="M157.687 205.682C159.518 205.682 161.003 204.198 161.003 202.367C161.003 200.535 159.518 199.051 157.687 199.051C155.856 199.051 154.371 200.535 154.371 202.367C154.371 204.198 155.856 205.682 157.687 205.682Z" fill="#545465"/>
<path d="M56.2603 191.276C54.8866 191.276 53.7734 190.163 53.7734 188.79C53.7734 145.819 74.0833 134.041 74.948 133.561C76.1509 132.891 77.6631 133.326 78.3293 134.527C78.995 135.723 78.5672 137.231 77.3759 137.902C77.132 138.043 58.7471 149.075 58.7471 188.79C58.7471 190.163 57.6339 191.276 56.2603 191.276Z" fill="#D0D7DC"/>
<path d="M56.2581 200.673C59.1578 200.673 61.5084 198.322 61.5084 195.422C61.5084 192.523 59.1578 190.172 56.2581 190.172C53.3585 190.172 51.0078 192.523 51.0078 195.422C51.0078 198.322 53.3585 200.673 56.2581 200.673Z" fill="#B2B9BF"/>
<path d="M147.74 151.801C146.715 151.801 145.756 151.162 145.395 150.14C143.234 144.018 139.717 141.427 139.682 141.403C138.557 140.615 138.283 139.064 139.071 137.939C139.858 136.815 141.407 136.541 142.535 137.328C142.731 137.465 147.365 140.776 150.085 148.486C150.543 149.781 149.863 151.201 148.568 151.659C148.294 151.754 148.014 151.801 147.74 151.801Z" fill="#D0D7DC"/>
<path d="M147.485 66.4007C152.911 65.157 156.465 67.8142 156.465 73.0328C156.465 79.941 149.169 96.866 141.499 86.2964C133.828 75.7267 147.485 66.4007 147.485 66.4007Z" fill="#7B4B00"/>
</g>
<defs>
<clipPath id="clip0">
<rect width="212" height="212" fill="white"/>
</clipPath>
</defs>
</svg>
