<svg width="35" height="35" viewBox="0 0 35 35" fill="none" xmlns="http://www.w3.org/2000/svg">
<path d="M16.0299 9.56347C15.9547 9.59764 15.8316 9.69335 15.7496 9.78222C15.6676 9.87108 14.8404 11.6211 13.9107 13.6719C12.981 15.7226 12.1949 17.4248 12.1676 17.459C12.1334 17.4932 11.8463 17.001 11.5318 16.3652C11.2105 15.7295 10.8687 15.1348 10.7662 15.0391L10.5816 14.8682H5.52986H0.478107L0.273029 15.0732C0.0132636 15.3398 -0.0550958 15.6885 0.0952948 16.0098C0.327717 16.4951 0.0816231 16.4746 5.18123 16.4746H9.76131L10.6637 18.2519C11.6412 20.1865 11.6822 20.2344 12.2291 20.2344C12.441 20.2344 12.5572 20.1865 12.7076 20.043C12.8443 19.9131 13.357 18.874 14.4371 16.4951C15.2711 14.6426 15.9752 13.125 15.9957 13.125C16.0162 13.125 16.5289 15.8047 17.1373 19.0859C18.2447 25.04 18.2447 25.04 18.4566 25.2519C18.8463 25.6416 19.5572 25.4912 19.7554 24.9785C19.7896 24.8965 20.2818 22.7773 20.8492 20.2617C21.4234 17.7461 21.8951 15.6748 21.9088 15.668C21.9224 15.6543 22.3053 16.2764 22.7633 17.042C23.4469 18.1973 23.6314 18.4639 23.8228 18.5527C24.356 18.8125 24.5474 18.6826 25.5523 17.4316L26.3931 16.3721L30.4058 16.3379C34.7672 16.3037 34.6168 16.3174 34.8629 15.9072C35.0269 15.6474 35.0338 15.374 34.897 15.1074C34.6715 14.6767 34.9176 14.6973 30.1392 14.6973C27.7398 14.6973 25.7369 14.7178 25.6754 14.7383C25.6138 14.7588 25.2857 15.1279 24.9439 15.5586C24.6021 15.9892 24.3013 16.3379 24.2808 16.3379C24.2535 16.331 23.775 15.5449 23.2076 14.581C22.1412 12.749 21.9976 12.5781 21.567 12.5781C21.3346 12.5781 20.9586 12.7832 20.8629 12.9678C20.8287 13.0361 20.4185 14.7656 19.9537 16.8027C19.4273 19.1338 19.0924 20.4736 19.0582 20.3916C19.0308 20.3232 18.5933 17.9922 18.0806 15.2168C17.5679 12.4414 17.1236 10.1035 17.0894 10.0215C16.9459 9.65233 16.3853 9.40624 16.0299 9.56347Z" fill="#06103B"/>
</svg>
