<svg width="336" height="512" viewBox="0 0 336 512" fill="none" xmlns="http://www.w3.org/2000/svg">
<path d="M65.6888 435.482C56.7118 457.053 51.8328 480.108 51.3016 503.467C51.3016 508.18 55.1221 512 59.8349 512H315.835C318.344 511.999 320.725 510.895 322.346 508.98C323.967 507.065 324.663 504.533 324.249 502.059C323.549 497.792 306.585 397.611 272.272 328.994C264.425 311.603 260.437 292.718 260.582 273.639C278.635 277.236 296.864 279.885 315.195 281.575L315.835 281.6C319.749 281.6 323.161 278.937 324.112 275.14C337.859 220.177 335.368 144.077 333.721 93.7217C333.286 80.3244 332.867 68.702 332.867 59.9297C332.844 43.1066 326.284 26.951 314.572 14.8737C305.985 5.55553 293.945 0.177298 281.275 0.00010588H180.727C171.752 -0.0257337 163.428 4.67951 158.822 12.382C147.495 31.7767 132.108 48.4917 113.714 61.3804C109.195 64.3673 104.379 66.8808 99.3443 68.8812C79.0439 76.7977 66.1234 96.8565 67.3101 118.613C67.8885 134.742 74.9273 149.96 86.8429 160.845C85.0586 161.481 83.3146 162.225 81.6205 163.072C71.152 168.124 63.5275 177.636 60.876 188.954C21.3198 215.017 -1.73039 259.865 0.101582 307.2C0.101582 378.027 34.2776 415.753 65.6888 435.482V435.482ZM173.414 21.214C174.954 18.6433 177.73 17.0691 180.727 17.0668H221.397C219.622 33.5958 212.01 68.2668 179.302 68.2668C165.39 68.26 151.511 66.9429 137.847 64.3329C151.769 51.7976 163.755 37.2665 173.414 21.214V21.214ZM84.3682 118.033C83.3956 103.48 92.0122 89.9901 105.625 84.7532C110.473 82.7738 115.151 80.3992 119.611 77.6534C139.113 82.7526 159.187 85.3336 179.344 85.3334C221.934 85.3334 236.236 44.5697 238.651 17.0668H253.934C240.298 73.3442 237.535 131.708 245.793 189.022C232.586 186.474 219.22 184.829 205.789 184.098C194.899 183.776 184.076 182.279 173.507 179.635C166.339 177.246 159.001 174.234 151.969 171.324C140.877 166.323 129.345 162.364 117.52 159.497C98.8273 154.056 85.5624 137.465 84.3682 118.033V118.033ZM89.2493 178.304C96.6116 174.906 104.899 174.068 112.793 175.923C113.492 176.156 114.217 176.302 114.952 176.359C125.39 179.078 135.581 182.671 145.416 187.102C152.754 190.123 160.341 193.255 168.072 195.832C179.964 198.978 192.179 200.75 204.475 201.114C228.786 202.931 256.358 204.988 276.582 220.16C279.021 221.989 282.25 222.378 285.054 221.181C287.857 219.983 289.809 217.381 290.174 214.354C290.538 211.327 289.261 208.336 286.822 206.507C279.837 201.386 272.152 197.297 264.003 194.364C254.158 135.39 256.681 75.0138 271.41 17.0668H281.275C289.344 17.3232 296.966 20.8355 302.403 26.8033C310.877 35.691 315.675 47.4548 315.835 59.7334C315.835 68.847 316.219 80.6657 316.688 94.2764C318.233 141.483 320.528 211.738 309.256 263.825C283.408 260.932 193.475 248.32 116.07 206.362C105.578 197.103 92.7161 190.948 78.924 188.587C81.1027 184.1 84.7443 180.488 89.2493 178.347V178.304ZM68.2403 204.8H68.3682C81.9179 205.17 94.8979 210.331 105.002 219.367C105.58 219.941 106.234 220.432 106.947 220.826C149.923 243.417 195.805 259.979 243.302 270.046C242.748 292.981 247.417 315.741 256.955 336.606C284.031 390.673 300.381 467.755 305.595 494.933H68.8034C70.1164 477.352 74.1465 460.08 80.7501 443.733C107.187 456.027 136.024 462.294 165.179 462.08C173.076 462.081 180.968 461.642 188.816 460.766C191.847 460.428 194.466 458.498 195.688 455.705C196.911 452.911 196.549 449.678 194.741 447.222C192.933 444.767 189.952 443.463 186.922 443.802C150.469 448.302 113.508 441.641 80.9208 424.696C51.8221 408.482 17.1682 374.963 17.1682 307.2C17.1682 262.767 34.4824 228.429 68.2403 204.8V204.8Z" fill="black"/>
<path d="M90.06 377.481C94.9069 381.525 100.061 385.835 105.48 390.477C108.673 393.208 113.38 393.208 116.573 390.477C121.992 385.835 127.146 381.525 131.993 377.481C160.528 353.707 179.302 338.005 179.302 313.668C179.7 303.163 175.854 292.939 168.63 285.302C161.406 277.664 151.413 273.254 140.902 273.067C129.602 273.051 118.797 277.698 111.035 285.909C103.273 277.698 92.4677 273.051 81.1682 273.067C70.6571 273.254 60.6635 277.664 53.4397 285.302C46.216 292.939 42.3699 303.163 42.7682 313.668C42.7682 338.005 61.5416 353.707 90.06 377.481ZM81.1682 290.133C90.4976 290.459 98.9606 295.69 103.423 303.889C104.875 306.731 107.792 308.526 110.984 308.54H111.035C114.235 308.527 117.163 306.734 118.63 303.889C123.094 295.684 131.566 290.451 140.902 290.133C146.893 290.307 152.555 292.916 156.581 297.357C160.607 301.798 162.649 307.688 162.235 313.668C162.235 330.018 146.747 342.955 121.079 364.382C117.862 367.07 114.508 369.86 111.035 372.796C107.562 369.86 104.208 367.07 100.991 364.382C75.3229 342.955 59.8349 330.018 59.8349 313.668C59.4213 307.688 61.463 301.798 65.4887 297.357C69.5145 292.916 75.1765 290.307 81.1682 290.133Z" fill="black"/>
</svg>
