<svg width="210" height="166" viewBox="0 0 210 166" fill="none" xmlns="http://www.w3.org/2000/svg">
<path d="M93.1144 95.92C78.6671 85.1719 66.5826 71.0667 66.5826 56.7391C66.5826 40.6371 77.6724 27.5822 91.3479 27.5822C102.287 27.5822 111.157 38.0275 111.157 50.9077C111.157 38.0275 120.028 27.5822 130.966 27.5822C138.962 27.5822 146.066 32.0374 150.593 38.9589C153.823 43.8832 155.732 50.0487 155.732 56.7398C155.732 76.8674 131.873 96.5489 111.157 107.138C105.183 104.09 98.9537 100.28 93.1144 95.92Z" fill="#FF6969"/>
<path d="M144.887 104.842L155.415 82.9818C157.562 78.5198 162.79 76.49 167.374 78.3118C167.397 78.3209 167.42 78.33 167.443 78.3391C172.278 80.3007 174.592 85.8217 172.608 90.6479L170.448 95.898" fill="#E0B394"/>
<path d="M3.1975 75.1256L33.609 54.8662C42.8728 48.6926 54.5106 46.9087 65.0302 50.5231C65.4565 50.669 65.8854 50.8217 66.3033 50.9877L123.502 72.9287C126.1 73.9195 128.021 75.8872 129.034 78.2375C130.079 80.6587 130.165 83.4846 129.02 86.0987C126.964 90.8116 121.634 93.1604 116.768 91.4917L80.479 79.0825C78.2298 78.3122 75.8999 78.4724 73.8917 79.3382C71.4064 80.4102 69.4119 82.562 68.6605 85.403C67.4363 90.0272 69.9799 94.809 74.4968 96.3913L116.085 110.925C119.785 112.218 123.812 112.213 127.504 110.925L175.185 94.241C181.033 92.1923 187.455 95.022 189.9 100.691C189.913 100.72 189.925 100.748 189.937 100.777C192.48 106.792 189.642 113.725 183.615 116.24L121.244 142.257C114.974 144.876 107.969 145.143 101.52 143.017L36.7008 121.659C33.3725 120.561 29.746 120.73 26.5295 122.143L23.9574 123.269" fill="#CA9F79"/>
<path d="M69.2039 43.1701C70.7191 44.0389 72.6511 43.5164 73.5196 42.0015C77.5682 34.9459 84.2203 30.7339 91.3131 30.7339C100.492 30.7339 107.961 39.7796 107.961 50.8979C107.961 52.6439 109.376 54.0595 111.122 54.0595C112.869 54.0595 114.284 52.6439 114.284 50.8979C114.284 39.7792 121.752 30.7339 130.932 30.7339C134.939 30.7339 138.851 32.0681 142.246 34.5916C143.647 35.6332 145.628 35.3418 146.669 33.9403C147.711 32.5391 147.419 30.5589 146.018 29.5173C141.524 26.1768 136.307 24.4108 130.931 24.4108C122.502 24.4108 115.118 29.673 111.122 37.4986C107.126 29.673 99.7426 24.4108 91.3127 24.4108C81.9272 24.4108 73.2256 29.8102 68.0353 38.8543C67.1665 40.3692 67.6897 42.3008 69.2039 43.1701Z" fill="black"/>
<path d="M147.622 127.803L119.988 139.33C114.424 141.654 108.205 141.894 102.472 140.004L37.6561 118.647C33.5752 117.301 29.1591 117.51 25.226 119.237L22.654 120.362C21.0542 121.063 20.326 122.927 21.0262 124.526C21.7264 126.126 23.5906 126.855 25.19 126.154L27.7647 125.028C30.2681 123.928 33.0777 123.794 35.6759 124.652L100.494 146.009C103.693 147.064 107.013 147.589 110.329 147.589C114.45 147.589 118.563 146.778 122.424 145.165L150.057 133.638C151.668 132.966 152.43 131.115 151.757 129.504C151.085 127.892 149.234 127.131 147.622 127.803Z" fill="black"/>
<path d="M192.813 99.5359C192.809 99.5287 192.794 99.4923 192.791 99.4851L192.767 99.4294C189.922 92.8315 182.754 89.2671 175.886 90.7494C176.756 87.9337 176.615 84.9321 175.46 82.1816C174.155 79.0749 171.718 76.6666 168.596 75.4006C168.589 75.3976 168.513 75.3677 168.506 75.3647C162.397 72.937 155.38 75.6769 152.531 81.6007L142.572 102.281L126.428 107.93C123.414 108.982 120.099 108.982 117.093 107.93L116.631 107.769C136.961 96.4406 158.859 77.166 158.859 56.7292C158.859 49.605 156.902 42.8567 153.201 37.2148C152.244 35.7548 150.283 35.3479 148.824 36.3054C147.363 37.2633 146.956 39.2226 147.914 40.6829C150.938 45.2919 152.535 50.8406 152.535 56.7292C152.535 74.0699 131.969 92.5594 111.121 103.566C105.529 100.616 99.9741 97.1128 94.9657 93.3737C90.6928 90.1947 86.8264 86.8448 83.497 83.4573L115.707 94.4718C122.083 96.6577 129.187 93.5306 131.881 87.3563C133.321 84.0685 133.329 80.2848 131.902 76.9754C130.497 73.7164 127.901 71.2266 124.599 69.9667L67.4355 48.0398C67.024 47.8765 66.5742 47.7116 66.0222 47.5229C54.8069 43.6698 42.0207 45.428 31.8209 52.2252L1.40905 72.485C-0.0440552 73.4527 -0.437361 75.4158 0.530747 76.8689C1.49885 78.322 3.46159 78.7153 4.9147 77.7468L35.3265 57.4874C43.897 51.7758 54.6042 50.2871 63.9719 53.5044C64.4285 53.6609 64.7877 53.7916 65.1359 53.9295L122.34 75.872C124.038 76.5203 125.372 77.8014 126.096 79.4784C126.842 81.2093 126.84 83.1057 126.087 84.8233C124.699 88.005 121.039 89.6153 117.755 88.4892L81.4668 76.0804C78.5674 75.0877 75.4202 75.2104 72.6042 76.4245C69.105 77.9336 66.5405 80.9073 65.569 84.5835C63.9348 90.7574 67.3817 97.2503 73.4181 99.365L115.006 113.898C119.356 115.419 124.152 115.419 128.513 113.898L176.194 97.2139C180.449 95.7237 185.177 97.7963 186.974 101.962L186.989 101.997C187.888 104.123 187.903 106.472 187.03 108.61C186.155 110.75 184.497 112.421 182.362 113.311L156.901 123.932C155.29 124.604 154.528 126.455 155.201 128.066C155.707 129.28 156.882 130.012 158.12 130.012C158.525 130.012 158.937 129.933 159.336 129.767L184.797 119.147C188.496 117.603 191.368 114.711 192.884 111.001C194.396 107.295 194.372 103.223 192.813 99.5359ZM71.6812 86.2018C72.0726 84.721 73.0024 83.4808 74.277 82.6787C78.7224 88.1005 84.3992 93.3942 91.1877 98.4443C91.5632 98.7246 91.9489 98.9997 92.3301 99.2775L75.5058 93.3983C72.5655 92.3681 70.8851 89.2073 71.6812 86.2018ZM158.228 84.3432C159.645 81.3968 163.134 80.0332 166.17 81.2404C166.174 81.2415 166.214 81.2582 166.218 81.2593C167.77 81.8887 168.981 83.0856 169.63 84.6301C170.28 86.1768 170.286 87.8837 169.648 89.4357L168.028 93.3737L151.011 99.3279L158.228 84.3432Z" fill="black"/>
<circle cx="166" cy="148" r="4.5" stroke="#FF6969"/>
<circle cx="166" cy="39" r="4.5" stroke="#FF6969"/>
<circle cx="54" cy="31" r="4.5" stroke="#FF6969"/>
<circle cx="182" cy="58" r="2" fill="#FF6969"/>
<circle cx="51.9999" cy="152" r="2" fill="#FF6969"/>
<circle cx="90.9999" cy="14" r="2" fill="#FF6969"/>
<path d="M119.184 151.59C119.755 149.831 122.245 149.831 122.816 151.59V151.59C123.072 152.377 123.805 152.91 124.633 152.91V152.91C126.483 152.91 127.252 155.277 125.755 156.365V156.365C125.086 156.851 124.806 157.713 125.061 158.5V158.5C125.633 160.26 123.619 161.723 122.122 160.635V160.635C121.453 160.149 120.547 160.149 119.877 160.635V160.635C118.381 161.723 116.367 160.26 116.938 158.5V158.5C117.194 157.713 116.914 156.851 116.245 156.365V156.365C114.748 155.277 115.517 152.91 117.367 152.91V152.91C118.195 152.91 118.928 152.377 119.184 151.59V151.59Z" fill="#FF6969"/>
<path d="M128.184 5.59017C128.755 3.83062 131.245 3.83062 131.816 5.59017V5.59017C132.072 6.37706 132.805 6.90983 133.633 6.90983V6.90983C135.483 6.90983 136.252 9.27729 134.755 10.3647V10.3647C134.086 10.8511 133.806 11.7131 134.061 12.5V12.5C134.633 14.2595 132.619 15.7227 131.122 14.6353V14.6353C130.453 14.1489 129.547 14.1489 128.877 14.6353V14.6353C127.381 15.7227 125.367 14.2595 125.938 12.5V12.5C126.194 11.7131 125.914 10.8511 125.245 10.3647V10.3647C123.748 9.27729 124.517 6.90983 126.367 6.90983V6.90983C127.195 6.90983 127.928 6.37706 128.184 5.59017V5.59017Z" fill="#FF6969"/>
<path d="M193.184 16.5902C193.755 14.8306 196.245 14.8306 196.816 16.5902V16.5902C197.072 17.3771 197.805 17.9098 198.633 17.9098V17.9098C200.483 17.9098 201.252 20.2773 199.755 21.3647V21.3647C199.086 21.8511 198.806 22.7131 199.061 23.5V23.5C199.633 25.2595 197.619 26.7227 196.123 25.6353V25.6353C195.453 25.1489 194.547 25.1489 193.877 25.6353V25.6353C192.381 26.7227 190.367 25.2595 190.939 23.5V23.5C191.194 22.7131 190.914 21.8511 190.245 21.3647V21.3647C188.748 20.2773 189.517 17.9098 191.367 17.9098V17.9098C192.195 17.9098 192.928 17.3771 193.184 16.5902V16.5902Z" fill="#FF6969"/>
<path d="M198.184 91.5902C198.755 89.8306 201.245 89.8306 201.816 91.5902V91.5902C202.072 92.3771 202.805 92.9098 203.633 92.9098V92.9098C205.483 92.9098 206.252 95.2773 204.755 96.3647V96.3647C204.086 96.8511 203.806 97.7131 204.061 98.5V98.5C204.633 100.26 202.619 101.723 201.122 100.635V100.635C200.453 100.149 199.547 100.149 198.877 100.635V100.635C197.381 101.723 195.367 100.26 195.938 98.5V98.5C196.194 97.7131 195.914 96.8511 195.245 96.3647V96.3647C193.748 95.2773 194.517 92.9098 196.367 92.9098V92.9098C197.195 92.9098 197.928 92.3771 198.184 91.5902V91.5902Z" fill="#FF6969"/>
</svg>
