<svg width="317" height="309" viewBox="0 0 317 309" fill="none" xmlns="http://www.w3.org/2000/svg">
<path d="M98.603 291.674C145.687 314.775 222.034 314.775 269.117 291.674C316.201 268.573 316.201 231.128 269.117 208.026C222.034 184.925 145.687 184.933 98.603 208.026C51.5194 231.119 51.5194 268.54 98.603 291.674Z" fill="#F5F5F5"/>
<path d="M130.185 197.732C129.966 197.453 130.089 178.747 123.335 173.185C116.581 167.623 110.624 172.035 114.534 178.698C117.159 183.093 124.411 190.873 124.42 198.324L130.185 197.732Z" fill="#9269AD"/>
<path opacity="0.6" d="M130.185 197.732C129.966 197.453 130.089 178.747 123.335 173.185C116.581 167.623 110.624 172.035 114.534 178.698C117.159 183.093 124.411 190.873 124.42 198.324L130.185 197.732Z" fill="white"/>
<path d="M127.813 198.168C127.724 198.168 127.637 198.137 127.571 198.081C127.505 198.025 127.463 197.947 127.454 197.864C125.425 179.93 117.779 173.506 117.7 173.44C117.628 173.381 117.584 173.298 117.577 173.208C117.571 173.119 117.602 173.031 117.665 172.963C117.727 172.896 117.816 172.854 117.911 172.848C118.006 172.842 118.1 172.872 118.172 172.93C118.496 173.193 126.116 179.56 128.172 197.79C128.181 197.88 128.153 197.97 128.092 198.041C128.032 198.112 127.944 198.157 127.848 198.168H127.813Z" fill="white"/>
<path d="M128.881 217.531C126.405 206.975 122.871 200.846 108.882 194.085C95.9956 187.849 84.9115 181.261 97.7978 178.87C108.497 176.882 129.091 192.836 129.826 206.802L128.881 217.531Z" fill="#9269AD"/>
<path d="M127.507 204.263C127.434 204.265 127.362 204.245 127.301 204.207C127.24 204.169 127.193 204.114 127.166 204.05C122.94 193.469 109.442 183.232 97.7452 181.696C97.6506 181.682 97.5657 181.634 97.5085 181.562C97.4513 181.489 97.4264 181.399 97.439 181.31C97.4454 181.266 97.4612 181.223 97.4854 181.184C97.5097 181.146 97.5419 181.112 97.5802 181.085C97.6185 181.058 97.6621 181.039 97.7085 181.028C97.7548 181.017 97.803 181.016 97.8502 181.023C109.8 182.592 123.535 193.025 127.848 203.812C127.879 203.897 127.874 203.99 127.833 204.071C127.792 204.152 127.719 204.216 127.63 204.247L127.507 204.263Z" fill="white"/>
<path d="M231.857 233.543C231.49 234.003 231.429 235.063 231.053 236.5C230.672 237.558 230.585 238.688 230.799 239.786C231.678 241.165 233.072 242.187 234.709 242.653C236.722 243.245 239.197 242.752 241.594 241.405C243.991 240.057 245.802 238.423 249.223 237.511C252.644 236.599 254.341 235.868 255.959 234.635C257.858 233.206 260.386 229.263 256.764 228.351C253.142 227.439 245.26 230.659 238.095 230.955L231.857 233.543Z" fill="#263238"/>
<path d="M231.857 229.336V234.38C232.074 234.949 232.456 235.449 232.96 235.823C233.464 236.198 234.07 236.432 234.709 236.5C235.298 236.589 235.902 236.529 236.459 236.327C237.329 236.014 238.083 235.469 238.629 234.76C239.176 234.052 239.492 233.209 239.538 232.335L239.748 229.336H231.857Z" fill="#FFA8A7"/>
<path d="M242.111 198.184C242.155 204.452 240.239 231.546 240.239 231.546C240.239 231.546 237.509 234.791 231.578 231.546L229.557 201.306L242.111 198.184Z" fill="#9269AD"/>
<path opacity="0.5" d="M242.111 198.184C242.155 204.452 240.239 231.546 240.239 231.546C240.239 231.546 237.509 234.791 231.578 231.546L229.557 201.306L242.111 198.184Z" fill="black"/>
<path d="M224.789 255.05C225.541 249.817 231.324 239.975 241.253 235.818C251.183 231.661 263.194 232.836 265.478 234.644C267.761 236.451 268.356 240.23 263.579 241.446C258.803 242.662 255.05 244.732 258.007 247.073C260.964 249.415 261.882 252.643 257.044 253.522C252.206 254.401 246.494 251.164 245.146 254.056C243.799 256.948 246.642 259.166 241.253 260.209C235.864 261.253 229.242 257.342 225.506 263.109L224.789 255.05Z" fill="#9269AD"/>
<path d="M225.113 259.01C225.066 259.018 225.019 259.018 224.973 259.01C224.929 258.993 224.889 258.968 224.856 258.936C224.822 258.905 224.796 258.867 224.778 258.826C224.76 258.785 224.751 258.741 224.751 258.696C224.752 258.651 224.761 258.607 224.78 258.566C232.146 242.136 253.44 234.742 260.867 235.186C260.963 235.192 261.052 235.234 261.116 235.301C261.18 235.369 261.213 235.457 261.208 235.547C261.206 235.592 261.194 235.636 261.174 235.677C261.153 235.718 261.124 235.754 261.088 235.784C261.052 235.814 261.01 235.837 260.965 235.851C260.919 235.865 260.871 235.871 260.823 235.868C254.927 235.531 233.117 241.766 225.445 258.829C225.414 258.886 225.366 258.933 225.307 258.965C225.248 258.997 225.181 259.013 225.113 259.01Z" fill="white"/>
<path d="M254.271 248.954C254.221 248.962 254.171 248.962 254.122 248.954C254.026 248.905 244.026 244.748 234.788 246.695C234.742 246.706 234.694 246.708 234.647 246.701C234.6 246.694 234.556 246.678 234.515 246.654C234.475 246.63 234.441 246.599 234.414 246.562C234.387 246.526 234.369 246.484 234.359 246.441C234.349 246.397 234.348 246.353 234.356 246.309C234.364 246.266 234.381 246.224 234.406 246.187C234.457 246.111 234.538 246.058 234.631 246.038C244.105 244.042 254.323 248.289 254.419 248.33C254.498 248.36 254.563 248.414 254.602 248.485C254.642 248.555 254.654 248.636 254.636 248.713C254.618 248.791 254.572 248.86 254.505 248.909C254.438 248.957 254.355 248.982 254.271 248.979V248.954Z" fill="white"/>
<path d="M172.123 172.873L140.831 189.838L215.157 230.133L238.628 217.408L246.449 213.169L172.123 172.873Z" fill="#9269AD"/>
<path d="M246.45 213.169V217.416L222.978 230.142L222.969 225.894L246.45 213.169Z" fill="#9269AD"/>
<path opacity="0.2" d="M246.45 213.169V217.416L222.978 230.142L222.969 225.894L246.45 213.169Z" fill="black"/>
<path d="M175.474 194.085C175.474 194.085 202.882 186.313 207.642 185.089C212.401 183.865 221.551 181.803 224.22 182.928C226.888 184.054 228.244 185.352 228.489 188.975C228.541 189.657 228.489 192.967 228.489 192.967C228.489 192.967 215.244 196.812 204.396 196.812C193.548 196.812 175.474 194.085 175.474 194.085Z" fill="#9269AD"/>
<path opacity="0.6" d="M175.474 194.085C175.474 194.085 202.882 186.313 207.642 185.089C212.401 183.865 221.551 181.803 224.22 182.928C226.888 184.054 228.244 185.352 228.489 188.975C228.541 189.657 228.489 192.967 228.489 192.967C228.489 192.967 215.244 196.812 204.396 196.812C193.548 196.812 175.474 194.085 175.474 194.085Z" fill="black"/>
<path d="M198.903 150.347L197.083 159.573L187.005 160.665L188.457 147.932L198.903 150.347Z" fill="#FFA8A7"/>
<path d="M208.298 142.978C208.298 142.978 209.619 146.781 209.217 147.02C208.493 147.164 207.749 147.203 207.012 147.135L208.298 142.978Z" fill="#F28F8F"/>
<path d="M205.673 130.778C207.423 132.495 209.059 135.362 208.297 142.633C207.501 150.601 204.964 152.729 203.923 153.189C202.322 153.887 196.925 152.672 195.122 151.448C192.918 149.92 188.754 146.108 187.669 141.417C186.392 135.896 188.027 129.62 192.323 128.346C198.412 126.547 204.238 129.324 205.673 130.778Z" fill="#FFA8A7"/>
<path d="M209.671 134.697C208.639 136.521 206.697 141.064 201.176 142.345C201.176 142.345 200.87 139.256 198.141 139.223C195.411 139.191 194.484 142.353 195.84 144.555C197.196 146.757 198.902 146.256 198.902 146.256C198.902 146.256 198.622 150.602 195.289 152.154C195.289 152.154 191.273 153.871 187.616 151.678C185.972 150.692 184.065 146.412 183.085 142.978C181.003 135.716 181.379 130.154 186.295 129.012C187.328 125.964 188.999 124.986 192.087 124.797C198.753 124.378 203.057 129.012 208.595 129.012C211.482 129.012 210.843 132.618 209.671 134.697Z" fill="#263238"/>
<path d="M186.427 129.538L183.085 128.19C183.179 127.985 183.315 127.799 183.485 127.642C183.655 127.486 183.857 127.363 184.078 127.28C184.299 127.197 184.535 127.155 184.773 127.158C185.011 127.16 185.246 127.207 185.465 127.295C185.684 127.383 185.882 127.51 186.049 127.67C186.215 127.83 186.346 128.019 186.435 128.227C186.523 128.434 186.567 128.656 186.565 128.88C186.562 129.103 186.512 129.324 186.419 129.529L186.427 129.538Z" fill="#263238"/>
<path d="M175.544 190.988C175.544 195.917 175.046 201.076 177.242 204.699C179.438 208.322 189.384 215.781 200.582 214.007C207.896 212.849 231.543 204.387 231.543 204.387C231.543 204.387 242.041 200.764 242.111 198.184C242.181 194.373 241.901 189.016 232.724 189.246C224.36 189.452 199.541 193.272 199.541 193.272L175.544 190.988Z" fill="#9269AD"/>
<path opacity="0.5" d="M175.544 190.988C175.544 195.917 175.046 201.076 177.242 204.699C179.438 208.322 189.384 215.781 200.582 214.007C207.896 212.849 231.543 204.387 231.543 204.387C231.543 204.387 242.041 200.764 242.111 198.184C242.181 194.373 241.901 189.016 232.724 189.246C224.36 189.452 199.541 193.272 199.541 193.272L175.544 190.988Z" fill="black"/>
<path d="M177.495 159.03C178.37 156.451 181.87 153.641 185.369 154.249C191.781 155.366 198.798 157.321 200.652 157.831C200.652 157.831 199.777 171.107 207.065 175.083L208.018 191.982C208.018 191.982 206.225 195.342 203.461 197.001C200.46 198.784 196.296 201.47 188.763 200.879C186.157 200.686 183.624 199.977 181.331 198.799C179.038 197.621 177.036 196 175.457 194.044C175.457 194.044 175.545 178.073 175.833 170.926C176.096 164.896 176.874 160.805 177.495 159.03Z" fill="#9269AD"/>
<path opacity="0.2" d="M177.495 159.03C178.37 156.451 181.87 153.641 185.369 154.249C191.781 155.366 198.798 157.321 200.652 157.831C200.652 157.831 199.777 171.107 207.065 175.083L208.018 191.982C208.018 191.982 206.225 195.342 203.461 197.001C200.46 198.784 196.296 201.47 188.763 200.879C186.157 200.686 183.624 199.977 181.331 198.799C179.038 197.621 177.036 196 175.457 194.044C175.457 194.044 175.545 178.073 175.833 170.926C176.096 164.896 176.874 160.805 177.495 159.03Z" fill="black"/>
<path d="M207.266 178.394C207.266 178.394 203.478 174.705 202.148 170.425C202.148 170.425 202.148 176.685 207.345 180.07L207.266 178.394Z" fill="#9269AD"/>
<path opacity="0.4" d="M207.266 178.394C207.266 178.394 203.478 174.705 202.148 170.425C202.148 170.425 202.148 176.685 207.345 180.07L207.266 178.394Z" fill="black"/>
<path d="M232.172 166.268L236.24 160.78C236.24 160.78 237.211 159.458 237.569 158.907C237.928 158.357 238.173 156.517 236.975 156.048C234.805 155.227 230.291 153.198 228.97 153.189C228.427 153.189 226.162 156.755 222.277 161.561C219.95 164.436 216.74 168.429 216.74 168.782C216.74 169.135 215.909 169.497 219.285 171.115C221.706 172.231 224.212 173.176 226.783 173.941L232.172 166.268Z" fill="#9269AD"/>
<path opacity="0.6" d="M232.172 166.268L236.24 160.78C236.24 160.78 237.211 159.458 237.569 158.907C237.928 158.357 238.173 156.517 236.975 156.048C234.805 155.227 230.291 153.198 228.97 153.189C228.427 153.189 226.162 156.755 222.277 161.561C219.95 164.436 216.74 168.429 216.74 168.782C216.74 169.135 215.909 169.497 219.285 171.115C221.706 172.231 224.212 173.176 226.783 173.941L232.172 166.268Z" fill="black"/>
<path d="M234.761 160.312C232.268 163.68 226.949 172.01 226.791 172.24C226.634 172.471 218.918 169.34 216.845 168.494C216.793 168.584 216.758 168.681 216.74 168.782C216.74 169.127 215.909 169.497 219.285 171.115C221.706 172.231 224.212 173.176 226.783 173.941L232.172 166.268L236.24 160.78C236.24 160.78 237.211 159.458 237.569 158.907C237.928 158.357 238.173 156.516 236.975 156.048C237.211 156.163 237.246 156.944 234.761 160.312Z" fill="#263238"/>
<path d="M228.182 154.939L235.881 157.872L227.29 170.203L219.618 167.114L228.182 154.939Z" fill="#9269AD"/>
<path opacity="0.8" d="M228.182 154.939L235.881 157.872L227.29 170.203L219.618 167.114L228.182 154.939Z" fill="white"/>
<path d="M200.67 157.831C204.624 158.948 207.039 159.154 211.413 165.471C215.787 171.789 225.367 184.317 226.285 185.829C227.606 187.924 228.175 190.413 227.037 192.343C225.97 194.134 222.873 193.354 218.534 189.772C214.335 186.313 206.024 176.537 206.024 176.537C203.286 170.577 201.483 164.277 200.67 157.831Z" fill="#FFA8A7"/>
<path d="M226.101 193.272C228.105 192.729 231.123 185.738 233.432 177.81C235.742 169.883 236.932 168.116 236.932 165.619C236.932 163.122 236.809 159.934 236.809 159.934L232.855 165.282C232.696 164.234 232.359 163.216 231.858 162.267C231.35 161.29 230.397 160.526 229.618 161.109C229.198 161.421 230.3 162.752 230.064 165.767C229.994 166.968 230.074 168.173 230.3 169.357L222.934 186.1L226.101 193.272Z" fill="#FFA8A7"/>
<path d="M200.67 157.831C202.633 158.222 204.549 158.794 206.392 159.54C208.17 160.197 209.682 161.364 210.713 162.875C213.775 167.648 218.15 174.442 218.15 174.442C218.15 174.442 218.902 180.357 211.247 182.428L207.17 178.32C205.505 176.647 204.137 174.733 203.12 172.651C201.396 169.07 199.428 163.417 200.67 157.831Z" fill="#9269AD"/>
<path opacity="0.2" d="M200.67 157.831C202.633 158.222 204.549 158.794 206.392 159.54C208.17 160.197 209.682 161.364 210.713 162.875C213.775 167.648 218.15 174.442 218.15 174.442C218.15 174.442 218.902 180.357 211.247 182.428L207.17 178.32C205.505 176.647 204.137 174.733 203.12 172.651C201.396 169.07 199.428 163.417 200.67 157.831Z" fill="black"/>
<path d="M210.984 79.4163L129.353 35.1607C127.297 34.0434 125.591 34.7335 125.25 36.6805C125.44 35.4577 125.904 34.2867 126.612 33.2445C127.319 32.2023 128.253 31.3126 129.353 30.6341L132.747 28.7856C134.039 28.1701 135.467 27.8492 136.916 27.8492C138.365 27.8492 139.793 28.1701 141.085 28.7856L222.724 73.0412C223.953 73.7683 224.967 74.7741 225.672 75.9658L213.932 82.3327C213.233 81.1387 212.217 80.1343 210.984 79.4163Z" fill="#37474F"/>
<path d="M226.888 261.672C226.81 263.03 226.392 264.352 225.666 265.53C224.941 266.708 223.93 267.708 222.715 268.449L219.32 270.314C218.144 270.868 216.856 271.183 215.542 271.236C214.227 271.29 212.915 271.082 211.692 270.626C213.66 271.325 215.191 270.281 215.191 268.047V86.1939C215.139 84.8326 214.717 83.5064 213.966 82.3409L225.707 75.9741C226.454 77.1435 226.873 78.4722 226.923 79.8353L226.888 261.672Z" fill="#263238"/>
<path d="M210.984 79.4163L129.353 35.1607C127.052 33.912 125.189 34.9225 125.189 37.4199V219.256C125.268 220.614 125.686 221.935 126.409 223.112C127.133 224.29 128.141 225.291 129.353 226.034L210.984 270.314C213.294 271.555 215.148 270.544 215.148 268.047V86.1939C215.072 84.8361 214.654 83.5145 213.931 82.3367C213.207 81.1589 212.197 80.1583 210.984 79.4163ZM211.238 242.267C211.238 243.771 210.127 244.379 208.736 243.623L131.602 201.799C130.865 201.351 130.253 200.745 129.816 200.031C129.38 199.316 129.131 198.514 129.091 197.691V63.1829C129.091 61.6796 130.211 61.0716 131.602 61.8274L134.672 63.4705L208.736 103.635C209.471 104.083 210.082 104.689 210.517 105.404C210.952 106.118 211.199 106.92 211.238 107.743V242.267Z" fill="#455A64"/>
<path d="M170.164 64.1852C170.592 64.4447 170.949 64.796 171.204 65.2102C171.46 65.6244 171.607 66.0896 171.634 66.5677C171.634 67.4467 170.977 67.8082 170.164 67.3892C169.738 67.1278 169.384 66.7759 169.13 66.3619C168.876 65.948 168.73 65.4837 168.703 65.0067C168.703 64.1113 169.359 63.7416 170.164 64.1852Z" fill="#263238"/>
<path d="M170.164 229.172C171.845 230.208 173.242 231.601 174.244 233.238C175.245 234.875 175.823 236.71 175.929 238.595C175.929 242.062 173.305 243.475 170.138 241.733C168.453 240.701 167.051 239.311 166.045 237.676C165.039 236.04 164.457 234.205 164.347 232.319C164.373 228.844 166.971 227.439 170.164 229.172Z" fill="#263238"/>
<path d="M184.021 78.1839C184.875 78.7058 185.586 79.4091 186.096 80.2369C186.607 81.0646 186.903 81.9936 186.96 82.9488C186.96 84.7068 185.639 85.4133 184.021 84.5425C183.168 84.0189 182.458 83.3139 181.949 82.4847C181.44 81.6554 181.145 80.7253 181.09 79.7695C181.09 78.0114 182.403 77.3049 184.021 78.1839Z" fill="#263238"/>
<path d="M176.848 77.5843C176.848 78.759 175.921 79.2273 174.766 78.5783L155.467 68.1121C154.866 67.7592 154.363 67.2772 154 66.7058C153.636 66.1345 153.422 65.4901 153.376 64.826C153.376 63.6512 154.312 63.1829 155.467 63.8319L174.766 74.2982C175.366 74.651 175.868 75.1331 176.23 75.7046C176.593 76.2761 176.804 76.9205 176.848 77.5843Z" fill="#263238"/>
<path d="M140.83 66.8307L131.592 61.8276C130.21 61.0718 129.09 61.6797 129.09 63.1831V197.733C129.131 198.554 129.379 199.355 129.814 200.07C130.249 200.784 130.858 201.391 131.592 201.84L140.83 206.852V66.8307Z" fill="#263238"/>
<g opacity="0.15">
<path opacity="0.15" d="M211.237 107.718V228.014L134.672 186.519V63.4869L208.735 103.651C209.465 104.095 210.072 104.695 210.507 105.402C210.942 106.109 211.192 106.903 211.237 107.718Z" fill="white"/>
</g>
<path d="M135.153 64.2755L208.499 104.046C209.151 104.453 209.694 104.996 210.086 105.633C210.477 106.27 210.707 106.984 210.756 107.718V227.233L135.153 186.247V64.2755ZM134.672 63.454V186.519L211.237 228.022V107.718C211.199 106.896 210.952 106.094 210.517 105.379C210.081 104.665 209.471 104.058 208.735 103.61L134.672 63.4458V63.454Z" fill="white"/>
<path d="M211.246 242.267V232.261L140.831 194.085L129.825 200.041C130.239 200.758 130.841 201.363 131.575 201.799L208.727 243.623C210.118 244.379 211.246 243.771 211.246 242.267Z" fill="#37474F"/>
<path d="M211.246 236.5L187.774 249.225V244.986L211.246 232.261V236.5Z" fill="#9269AD"/>
<path opacity="0.2" d="M211.246 236.5L187.774 249.225V244.986L211.246 232.261V236.5Z" fill="black"/>
<path d="M113.448 204.691L187.774 244.986V249.225L113.448 208.93V204.691Z" fill="#9269AD"/>
<path opacity="0.2" d="M113.448 204.691L187.774 244.986V249.225L113.448 208.93V204.691Z" fill="black"/>
<path d="M140.83 189.838L113.448 204.691L187.774 244.987L211.246 232.261V228.014L140.83 189.838Z" fill="#9269AD"/>
<path d="M140.83 189.838L113.448 204.691L187.774 244.987L211.246 232.261V228.014L140.83 189.838Z" fill="#9269AD"/>
<path d="M141.513 156.287C139.186 156.287 137.41 156.418 133.115 162.267C129.476 167.196 117.569 182.658 116.86 183.389C116.152 184.12 122.232 186.724 122.232 186.724L138.311 171.551L141.513 156.287Z" fill="#FFA8A7"/>
<path d="M119.275 182.14C119.275 182.14 120.553 181.499 123.781 181.524C125.784 181.524 127.035 181.655 127.28 181.047C127.604 180.135 128.391 178.459 128.802 178.468V182.929L119.275 182.14Z" fill="#F28F8F"/>
<path d="M113.623 249.012C108.243 255.683 104.044 257.227 102.574 258.673C101.104 260.119 101.953 262.97 105.549 263.602C109.144 264.235 113.037 263.462 115.355 261.285C117.674 259.108 119.275 256.274 121.637 254.713C123.999 253.152 125.215 252.709 125.574 250.836C125.932 248.963 124.13 243.393 124.13 243.393L113.623 249.012Z" fill="#263238"/>
<path d="M116.204 238.841C116.703 241.265 117.263 243.384 115.504 246.301C114.934 247.238 114.306 248.143 113.624 249.012C110.483 252.98 107.928 256.077 107.5 256.619C107.071 257.161 109.713 258.887 112.749 257.704C115.784 256.521 118.4 252.298 120.377 249.751C121.252 248.618 122.127 247.591 122.809 246.794C123.734 245.734 124.213 244.392 124.157 243.023L123.99 239.154L116.204 238.841Z" fill="#FFA8A7"/>
<path d="M126.72 258.492C121.339 265.171 117.14 266.708 115.67 268.162C114.201 269.616 115.058 272.45 118.645 273.091C122.232 273.732 126.133 272.943 128.452 270.774C130.77 268.605 132.371 265.755 134.742 264.202C137.113 262.649 138.32 262.189 138.67 260.316C139.02 258.443 137.235 252.873 137.235 252.873L126.72 258.492Z" fill="#263238"/>
<path d="M129.301 248.322C129.808 250.745 130.359 252.865 128.601 255.781C128.034 256.721 127.406 257.626 126.72 258.492C123.579 262.46 121.025 265.557 120.596 266.1C120.167 266.642 122.809 268.375 125.845 267.192C128.881 266.009 131.497 261.787 133.474 259.24C134.349 258.106 135.223 257.071 135.906 256.282C136.829 255.219 137.308 253.875 137.253 252.503L137.096 248.634L129.301 248.322Z" fill="#FFA8A7"/>
<path d="M164.381 188.983C168.502 196.936 166.874 204.814 155.738 209.973C149.518 212.857 137.48 217.95 137.48 217.95C137.48 217.95 139.23 222.469 139.291 230.084C139.352 236.788 137.454 251.37 137.454 251.37C137.454 251.37 132.799 253.399 129.466 251.37C129.466 251.37 127.988 242.333 126.842 233.223C125.451 221.779 124.279 215.05 124.9 212.586C125.451 210.409 130.297 207.221 133.998 204.781L121.085 210.483C121.085 210.483 123.859 214.081 124.515 220.563C125.311 228.4 124.305 241.873 124.305 241.873C123.07 242.44 121.724 242.76 120.35 242.814C118.977 242.868 117.607 242.654 116.326 242.185C116.326 242.185 107.237 208.955 108.602 204.346C110.561 197.733 137.384 187.661 138.748 185.065L164.381 188.983Z" fill="#9269AD"/>
<path opacity="0.2" d="M164.381 188.983C168.502 196.936 166.874 204.814 155.738 209.973C149.518 212.857 137.48 217.95 137.48 217.95C137.48 217.95 139.23 222.469 139.291 230.084C139.352 236.788 137.454 251.37 137.454 251.37C137.454 251.37 132.799 253.399 129.466 251.37C129.466 251.37 127.988 242.333 126.842 233.223C125.451 221.779 124.279 215.05 124.9 212.586C125.451 210.409 130.297 207.221 133.998 204.781L121.085 210.483C121.085 210.483 123.859 214.081 124.515 220.563C125.311 228.4 124.305 241.873 124.305 241.873C123.07 242.44 121.724 242.76 120.35 242.814C118.977 242.868 117.607 242.654 116.326 242.185C116.326 242.185 107.237 208.955 108.602 204.346C110.561 197.733 137.384 187.661 138.748 185.065L164.381 188.983Z" fill="black"/>
<path d="M155.231 156.303C163.629 157.042 164.968 155.777 167.478 162.169L159.78 180.595L164.381 188.983C163.297 190.503 150.472 196.977 139.204 189.254C137.226 182.495 135.649 175.639 134.48 168.716C133.605 162.892 139.099 156.467 141.819 156.213C142.801 156.103 143.788 156.051 144.776 156.056L155.231 156.303Z" fill="#9269AD"/>
<path opacity="0.6" d="M155.231 156.303C163.629 157.042 164.968 155.777 167.478 162.169L159.78 180.595L164.381 188.983C163.297 190.503 150.472 196.977 139.204 189.254C137.226 182.495 135.649 175.639 134.48 168.716C133.605 162.892 139.099 156.467 141.819 156.213C142.801 156.103 143.788 156.051 144.776 156.056L155.231 156.303Z" fill="white"/>
<path d="M125.95 182.123C127.7 182.173 127.63 181.121 128.067 180.094C128.583 178.887 129.056 177.81 129.056 177.81L130.21 181.721L131.794 188.967C131.794 188.967 127.148 188.909 123.737 188.967C120.325 189.024 116.449 187.956 116.055 185.681C115.811 184.268 116.93 182.288 120.43 181.976C122.271 181.892 124.117 181.942 125.95 182.123Z" fill="#FFA8A7"/>
<path d="M129.239 172.873C127.489 173.448 127.944 176.2 128.679 179.281C129.414 182.361 130.63 187.537 131.006 188.901C131.382 190.265 131.881 191.111 134.05 191.111C136.22 191.111 139.754 191.333 141.285 191.111C142.816 190.889 143.035 189.616 142.72 186.716C142.351 183.405 141.802 180.115 141.075 176.857C140.463 174.105 140.087 172.643 138.267 172.643C136.15 172.618 131.076 172.273 129.239 172.873Z" fill="#263238"/>
<path d="M129.126 181.195C129.301 181.918 130.875 182.518 132.31 182.575C134.387 182.652 136.466 182.519 138.513 182.181C139.974 181.811 140.901 184.177 139.493 186.338C138.084 188.498 134.9 189.156 131.015 188.958C129.849 187.88 129.077 186.482 128.811 184.966C128.694 183.701 128.8 182.427 129.126 181.195Z" fill="#FFA8A7"/>
<path d="M159.814 180.595C159.814 180.595 158.939 181.959 156.218 181.959C158.624 180.423 160.715 177.383 162.675 173.744L159.814 180.595Z" fill="#9269AD"/>
<path opacity="0.1" d="M159.814 180.595C159.814 180.595 158.939 181.959 156.218 181.959C158.624 180.423 160.715 177.383 162.675 173.744L159.814 180.595Z" fill="white"/>
<path d="M163.619 157.133C168.256 157.954 170.189 162.062 170.329 170.113C170.469 178.164 169.367 204.847 169.271 206.03C169.172 206.937 169.331 207.852 169.732 208.682C170.133 209.512 170.762 210.227 171.554 210.754C174.861 212.972 178.85 214.754 180.801 215.995C183.373 217.638 180.801 220.316 177.643 220.497C174.686 220.669 169.953 218.262 168.746 217.318C169.344 218.063 169.808 218.896 170.119 219.782C170.636 221.672 170.119 222.781 169.192 222.386C168.667 222.165 168.029 221.417 166.218 219.339C163.077 215.716 162.403 214.089 162.368 209.587C162.368 206.539 162.097 190.823 161.835 184.843C161.669 181.179 161.704 173.218 161.774 168.272C161.844 163.327 162.648 157.831 163.619 157.133Z" fill="#FFA8A7"/>
<path d="M134.881 141.335C134.881 141.335 131.933 136.915 134.006 132.668C136.08 128.42 144.557 122.875 154.224 126.818C163.409 130.573 162.596 140.497 162.631 144.99C162.692 149.246 134.881 141.335 134.881 141.335Z" fill="#263238"/>
<path d="M137.576 132.405C138.914 129.94 147.418 126.005 155.501 129.858C163.585 133.711 162.649 144.087 162.649 151.217V164.362C162.649 166.235 157.968 168.815 153.472 167.319L153.795 148.12C153.795 148.12 155.055 136.397 151.171 133.588C147.287 130.778 137.576 132.405 137.576 132.405Z" fill="#263238"/>
<path d="M153.796 142.715C154.321 143.011 155.073 142.058 155.72 141.417C156.368 140.776 158.494 139.913 159.543 142C160.593 144.087 158.179 146.97 156.744 147.907C156.343 148.235 155.841 148.434 155.311 148.477C154.781 148.52 154.251 148.404 153.796 148.145L153.656 156.245C153.656 156.245 151.53 160.632 146.438 161.281C141.347 161.93 142.388 157.995 144.059 156.048V153.082C142.786 153.338 141.477 153.399 140.183 153.263C139.518 153.099 137.926 151.3 136.903 149.287C135.757 147.02 133.841 143.002 135.547 136.208C137.375 128.913 145.721 128.691 150.707 131.632C155.694 134.574 153.796 142.715 153.796 142.715Z" fill="#FFA8A7"/>
<path d="M144.068 153.082C144.068 153.082 148.792 152.187 150.437 151.366C151.409 150.893 152.206 150.154 152.72 149.246C152.469 150.141 152.028 150.979 151.425 151.711C150.218 153.156 144.068 154.224 144.068 154.224V153.082Z" fill="#F28F8F"/>
<path d="M144.12 142.526C144.127 142.702 144.189 142.872 144.298 143.015C144.408 143.158 144.559 143.268 144.735 143.33C144.91 143.393 145.101 143.405 145.284 143.366C145.466 143.328 145.633 143.239 145.763 143.112C145.892 142.985 145.979 142.824 146.012 142.651C146.045 142.478 146.023 142.299 145.948 142.138C145.874 141.976 145.75 141.839 145.593 141.743C145.436 141.647 145.253 141.596 145.065 141.598C144.938 141.6 144.812 141.626 144.696 141.673C144.58 141.721 144.474 141.791 144.387 141.877C144.299 141.963 144.23 142.065 144.184 142.176C144.138 142.288 144.117 142.407 144.12 142.526Z" fill="#263238"/>
<path d="M145.125 139.166L147.146 140.217C147.289 139.957 147.32 139.654 147.232 139.373C147.144 139.091 146.944 138.853 146.674 138.706C146.541 138.638 146.394 138.596 146.243 138.583C146.092 138.569 145.94 138.584 145.796 138.627C145.651 138.67 145.517 138.74 145.402 138.832C145.287 138.925 145.193 139.038 145.125 139.166Z" fill="#263238"/>
<path d="M155.476 125.109L156.027 128.248C156.481 128.173 156.885 127.934 157.152 127.582C157.419 127.23 157.527 126.793 157.453 126.366C157.415 126.16 157.332 125.964 157.211 125.788C157.09 125.613 156.933 125.462 156.748 125.345C156.564 125.228 156.356 125.146 156.138 125.106C155.919 125.065 155.694 125.067 155.476 125.109Z" fill="#263238"/>
<path d="M159.517 126.662L156.42 127.927C156.611 128.317 156.956 128.621 157.383 128.775C157.81 128.928 158.284 128.919 158.703 128.749C158.905 128.665 159.087 128.544 159.238 128.392C159.389 128.241 159.506 128.062 159.581 127.868C159.657 127.673 159.691 127.466 159.68 127.259C159.668 127.052 159.613 126.849 159.517 126.662Z" fill="#263238"/>
<path d="M144.768 148.014L142.607 148.778C142.653 148.915 142.729 149.041 142.828 149.15C142.928 149.259 143.051 149.347 143.188 149.41C143.326 149.473 143.475 149.51 143.628 149.517C143.781 149.524 143.934 149.501 144.077 149.451C144.367 149.341 144.601 149.13 144.729 148.862C144.858 148.595 144.872 148.291 144.768 148.014Z" fill="#F28F8F"/>
<path d="M135.686 139.913L137.532 138.574C137.445 138.458 137.333 138.359 137.204 138.284C137.074 138.208 136.93 138.159 136.78 138.137C136.629 138.116 136.476 138.123 136.329 138.159C136.181 138.194 136.043 138.257 135.923 138.344C135.677 138.528 135.515 138.793 135.471 139.085C135.427 139.377 135.504 139.673 135.686 139.913Z" fill="#263238"/>
<path d="M136.255 142.271C136.264 142.445 136.326 142.612 136.435 142.752C136.544 142.893 136.694 143 136.868 143.061C137.041 143.122 137.229 143.134 137.41 143.095C137.59 143.056 137.754 142.969 137.882 142.843C138.01 142.718 138.095 142.56 138.128 142.389C138.162 142.218 138.14 142.042 138.068 141.882C137.995 141.722 137.874 141.586 137.72 141.49C137.566 141.394 137.385 141.343 137.2 141.343C136.944 141.349 136.701 141.451 136.524 141.624C136.347 141.798 136.25 142.031 136.255 142.271Z" fill="#263238"/>
<path d="M140.192 141.869L140.962 147.168L137.848 146.757L140.192 141.869Z" fill="#F28F8F"/>
<path d="M137.533 131.616C137.533 131.616 141.811 140.218 154.557 139.01C154.557 139.01 156.027 133.013 150.996 130.696C145.966 128.379 139.947 128.248 137.533 131.616Z" fill="#263238"/>
<path d="M150.699 137.933C152.195 138.114 152.633 140.258 152.265 142.041C151.898 143.824 153.7 143.972 155.108 142.041C156.014 140.562 156.528 138.899 156.604 137.194L150.699 137.933Z" fill="#263238"/>
<path d="M134.033 204.806C134.033 204.806 141.802 199.877 144.068 198.899C144.068 198.899 139.694 198.078 137.577 195.383C137.932 196.659 138.557 197.854 139.414 198.899L121.121 210.507L134.033 204.806Z" fill="#9269AD"/>
<path opacity="0.4" d="M134.033 204.806C134.033 204.806 141.802 199.877 144.068 198.899C144.068 198.899 139.694 198.078 137.577 195.383C137.932 196.659 138.557 197.854 139.414 198.899L121.121 210.507L134.033 204.806Z" fill="black"/>
<path d="M314.363 131.222L260.683 102.123C259.301 101.376 258.181 101.976 258.181 103.479V174.401C258.222 175.223 258.471 176.024 258.906 176.738C259.341 177.452 259.95 178.059 260.683 178.509L314.363 207.607C315.745 208.355 316.865 207.747 316.865 206.252V135.288C316.818 134.474 316.566 133.681 316.132 132.974C315.697 132.268 315.091 131.667 314.363 131.222Z" fill="#E0E0E0"/>
<path d="M245.041 161.503L262.092 170.753V158.028L245.409 159.835C243.825 160.008 243.659 160.756 245.041 161.503Z" fill="#E0E0E0"/>
<path d="M268.093 116.738L306.953 137.81C307.554 138.163 308.056 138.645 308.418 139.217C308.78 139.788 308.992 140.433 309.035 141.096C309.035 142.263 308.108 142.74 306.953 142.082L268.093 121.018C267.494 120.665 266.992 120.182 266.63 119.611C266.269 119.04 266.056 118.396 266.011 117.732C266.037 116.558 266.912 116.114 268.093 116.738Z" fill="#F0F0F0"/>
<path d="M268.076 129.455L306.936 150.528C307.537 150.88 308.04 151.362 308.403 151.934C308.767 152.505 308.981 153.149 309.027 153.814C309.027 154.98 308.091 155.457 306.936 154.799L268.076 133.736C267.478 133.38 266.978 132.898 266.616 132.327C266.254 131.756 266.041 131.112 265.994 130.449C266.037 129.275 266.912 128.831 268.076 129.455Z" fill="#F0F0F0"/>
<path d="M268.093 142.156L306.953 163.228C307.548 163.577 308.046 164.053 308.408 164.617C308.77 165.181 308.985 165.817 309.035 166.473C309.035 167.648 308.108 168.116 306.953 167.467L268.093 146.428C267.499 146.079 267 145.604 266.638 145.04C266.276 144.476 266.062 143.84 266.011 143.183C266.037 142.008 266.912 141.565 268.093 142.156Z" fill="#F0F0F0"/>
<path d="M268.093 154.915L306.953 175.979C307.553 176.332 308.054 176.815 308.416 177.386C308.778 177.957 308.99 178.601 309.035 179.265C309.035 180.439 308.108 180.908 306.953 180.259L268.093 159.187C267.493 158.834 266.991 158.352 266.629 157.78C266.267 157.209 266.055 156.564 266.011 155.9C266.037 154.734 266.912 154.29 268.093 154.915Z" fill="#F0F0F0"/>
<path d="M268.093 167.623L306.953 188.696C307.554 189.048 308.056 189.531 308.418 190.102C308.78 190.674 308.992 191.318 309.035 191.982C309.035 193.148 308.108 193.625 306.953 192.968L268.093 171.904C267.494 171.55 266.992 171.067 266.63 170.496C266.269 169.925 266.056 169.281 266.011 168.617C266.037 167.459 266.912 167.016 268.093 167.623Z" fill="#F0F0F0"/>
<path d="M262.092 46.2103V78.9563C262.135 79.7776 262.385 80.5776 262.819 81.2914C263.254 82.0051 263.862 82.6124 264.594 83.0639L306.534 105.796C307.916 106.551 309.036 105.943 309.036 104.44V71.6612C308.994 70.8394 308.746 70.0387 308.311 69.3246C307.876 68.6105 307.267 68.0036 306.534 67.5535L264.594 44.8219C263.221 44.1072 262.092 44.7069 262.092 46.2103Z" fill="#F0F0F0"/>
<path d="M249.74 60.8254L266.038 62.5916V75.3171L249.031 62.4684C248.845 62.3536 248.707 62.1818 248.641 61.9822C248.574 61.7826 248.584 61.5676 248.667 61.3738C248.751 61.18 248.903 61.0194 249.099 60.9194C249.295 60.8194 249.521 60.7861 249.74 60.8254Z" fill="#F0F0F0"/>
<path d="M309.036 62.5834C310.746 63.6288 312.168 65.0381 313.188 66.6968C314.208 68.3555 314.797 70.2169 314.907 72.1295C314.907 75.6456 312.282 77.0587 309.036 75.3088C307.327 74.2616 305.905 72.8508 304.885 71.1907C303.865 69.5307 303.276 67.6682 303.166 65.7545C303.166 62.2548 305.8 60.8253 309.036 62.5834Z" fill="#9269AD"/>
<path opacity="0.7" d="M309.036 62.5834C310.746 63.6288 312.168 65.0381 313.188 66.6968C314.208 68.3555 314.797 70.2169 314.907 72.1295C314.907 75.6456 312.282 77.0587 309.036 75.3088C307.327 74.2616 305.905 72.8508 304.885 71.1907C303.865 69.5307 303.276 67.6682 303.166 65.7545C303.166 62.2548 305.8 60.8253 309.036 62.5834Z" fill="white"/>
<path d="M272.003 55.5428L299.123 70.2481C299.722 70.6024 300.223 71.0849 300.585 71.6561C300.947 72.2273 301.16 72.871 301.206 73.5342C301.206 74.7008 300.269 75.1773 299.123 74.5201L272.003 59.8147C271.405 59.4604 270.904 58.9779 270.542 58.4067C270.18 57.8355 269.967 57.1919 269.921 56.5286C269.921 55.3621 270.857 54.9185 272.003 55.5428Z" fill="#E6E6E6"/>
<path d="M272.003 65.8365L299.123 80.5418C299.722 80.8961 300.223 81.3786 300.585 81.9498C300.947 82.521 301.16 83.1647 301.206 83.8279C301.206 84.9945 300.269 85.471 299.123 84.8138L272.003 70.1084C271.405 69.7541 270.904 69.2716 270.542 68.7004C270.18 68.1292 269.967 67.4856 269.921 66.8223C269.921 65.6558 270.857 65.2122 272.003 65.8365Z" fill="#E6E6E6"/>
<path d="M272.003 76.1303L299.123 90.8356C299.722 91.1899 300.223 91.6725 300.585 92.2437C300.947 92.8149 301.16 93.4585 301.206 94.1217C301.206 95.2883 300.269 95.7648 299.123 95.1076L272.003 80.4023C271.405 80.048 270.904 79.5654 270.542 78.9942C270.18 78.423 269.967 77.7794 269.921 77.1162C269.921 75.9496 270.857 75.506 272.003 76.1303Z" fill="#E6E6E6"/>
<path d="M95.2955 88.757L41.6243 59.6586C40.2421 58.911 39.1223 59.5189 39.1223 61.0141V131.969C39.163 132.791 39.411 133.592 39.846 134.306C40.281 135.02 40.8906 135.627 41.6243 136.077L95.2955 165.159C96.6777 165.906 97.7975 165.299 97.7975 163.803V92.8646C97.7569 92.0428 97.5088 91.2418 97.0738 90.5276C96.6388 89.8134 96.0293 89.2066 95.2955 88.757Z" fill="#E0E0E0"/>
<path d="M49.0255 74.3148L87.8857 95.3787C88.4866 95.7316 88.9896 96.2136 89.3532 96.7849C89.7167 97.3563 89.9304 98.0006 89.9765 98.6648C89.9765 99.8396 89.0404 100.308 87.8857 99.6589L49.0255 78.5867C48.4266 78.2324 47.9257 77.7499 47.5638 77.1787C47.2019 76.6075 46.9892 75.9639 46.9434 75.3006C46.9434 74.1341 47.8794 73.6904 49.0255 74.3148Z" fill="#F0F0F0"/>
<path d="M49.0167 87.0317L87.8769 108.096C88.4757 108.45 88.9766 108.932 89.3386 109.504C89.7005 110.075 89.9131 110.718 89.959 111.382C89.959 112.557 89.0229 113.025 87.8769 112.368L49.0167 91.3036C48.4164 90.9509 47.9143 90.4687 47.5522 89.8972C47.1901 89.3257 46.9784 88.6813 46.9346 88.0175C46.9346 86.851 47.8619 86.4073 49.0167 87.0317Z" fill="#F0F0F0"/>
<path d="M49.0255 99.7573L87.8857 120.797C88.4866 121.149 88.9896 121.631 89.3532 122.203C89.7167 122.774 89.9304 123.418 89.9765 124.083C89.9765 125.249 89.0404 125.726 87.8857 125.068L49.0255 104.005C48.4276 103.649 47.9274 103.167 47.5656 102.596C47.2038 102.025 46.9906 101.381 46.9434 100.718C46.9434 99.5765 47.8794 99.1329 49.0255 99.7573Z" fill="#F0F0F0"/>
<path d="M49.0255 112.483L87.8857 133.555C88.4814 133.903 88.9812 134.378 89.3445 134.942C89.7078 135.506 89.9243 136.142 89.9765 136.8C89.9765 137.974 89.0404 138.443 87.8857 137.794L49.0255 116.689C48.4323 116.338 47.935 115.862 47.5733 115.299C47.2117 114.735 46.9959 114.1 46.9434 113.444C46.9434 112.302 47.8794 111.858 49.0255 112.483Z" fill="#F0F0F0"/>
<path d="M49.0255 125.217L87.8857 146.264C88.4866 146.617 88.9896 147.099 89.3532 147.67C89.7167 148.242 89.9304 148.886 89.9765 149.55C89.9765 150.717 89.0404 151.193 87.8857 150.536L49.0255 129.472C48.4266 129.118 47.9257 128.635 47.5638 128.064C47.2019 127.493 46.9892 126.849 46.9434 126.186C46.9434 125.036 47.8794 124.592 49.0255 125.217Z" fill="#F0F0F0"/>
<path d="M93.8872 155.9L109.153 164.173C109.344 164.273 109.566 164.309 109.782 164.273C109.998 164.238 110.194 164.134 110.337 163.979C110.481 163.824 110.563 163.627 110.571 163.421C110.578 163.216 110.51 163.014 110.378 162.851L93.8872 143.175V155.9Z" fill="#E0E0E0"/>
<path d="M0 154.38V187.126C0.0413461 187.948 0.289691 188.749 0.72464 189.463C1.15959 190.177 1.76873 190.784 2.50203 191.234L44.4416 213.966C45.8239 214.713 46.9437 214.114 46.9437 212.61V179.831C46.9023 179.01 46.654 178.209 46.219 177.495C45.7841 176.781 45.1749 176.174 44.4416 175.724L2.50203 153.025C1.11979 152.269 0 152.877 0 154.38Z" fill="#F0F0F0"/>
<path d="M59.8123 204.091L43.033 187.718V200.485L58.78 205.619C58.994 205.714 59.2375 205.732 59.4647 205.67C59.692 205.608 59.8873 205.47 60.014 205.283C60.1408 205.095 60.1902 204.871 60.1531 204.651C60.1159 204.432 59.9948 204.233 59.8123 204.091Z" fill="#F0F0F0"/>
<path d="M46.9436 170.754C48.6528 171.799 50.0751 173.208 51.0951 174.867C52.1151 176.526 52.7039 178.387 52.8138 180.3C52.8138 183.808 50.1893 185.229 46.9436 183.479C45.2355 182.433 43.8139 181.023 42.794 179.365C41.7741 177.706 41.1847 175.845 41.0735 173.933C41.0735 170.417 43.7067 168.996 46.9436 170.754Z" fill="#9269AD"/>
<path opacity="0.7" d="M46.9436 170.754C48.6528 171.799 50.0751 173.208 51.0951 174.867C52.1151 176.526 52.7039 178.387 52.8138 180.3C52.8138 183.808 50.1893 185.229 46.9436 183.479C45.2355 182.433 43.8139 181.023 42.794 179.365C41.7741 177.706 41.1847 175.845 41.0735 173.933C41.0735 170.417 43.7067 168.996 46.9436 170.754Z" fill="white"/>
<path d="M9.91191 163.713L37.0318 178.419C37.6307 178.773 38.1316 179.255 38.4935 179.827C38.8554 180.398 39.068 181.041 39.1139 181.705C39.1139 182.871 38.1778 183.348 37.0231 182.691L9.90316 167.985C9.30285 167.632 8.8008 167.15 8.43869 166.579C8.07657 166.007 7.86483 165.363 7.82104 164.699C7.82979 163.516 8.75712 163.089 9.91191 163.713Z" fill="#E6E6E6"/>
<path d="M9.91191 174.007L37.0318 188.712C37.6307 189.066 38.1316 189.549 38.4935 190.12C38.8554 190.691 39.068 191.335 39.1139 191.998C39.1139 193.165 38.1778 193.641 37.0231 192.984L9.90316 178.279C9.30285 177.926 8.8008 177.444 8.43869 176.872C8.07657 176.301 7.86483 175.656 7.82104 174.992C7.82979 173.826 8.75712 173.374 9.91191 174.007Z" fill="#E6E6E6"/>
<path d="M9.91191 184.301L37.0318 199.006C37.6307 199.36 38.1316 199.843 38.4935 200.414C38.8554 200.985 39.068 201.629 39.1139 202.292C39.1139 203.458 38.1778 203.935 37.0231 203.278L9.90316 188.572C9.30285 188.22 8.8008 187.737 8.43869 187.166C8.07657 186.594 7.86483 185.95 7.82104 185.286C7.82979 184.12 8.75712 183.676 9.91191 184.301Z" fill="#E6E6E6"/>
<path d="M31.2927 1.67534V34.4214C31.3334 35.2432 31.5814 36.0442 32.0164 36.7584C32.4514 37.4726 33.061 38.0794 33.7948 38.529L75.7344 61.2688C77.1166 62.0164 78.2364 61.4085 78.2364 59.9051V27.1426C78.1958 26.3208 77.9477 25.5198 77.5127 24.8056C77.0777 24.0914 76.4682 23.4846 75.7344 23.035L33.7948 0.319826C32.4563 -0.427763 31.2927 0.180167 31.2927 1.67534Z" fill="#F0F0F0"/>
<path d="M91.0701 51.3943L74.2908 35.0131V47.7385L90.0378 52.873C90.2434 52.9483 90.4702 52.9549 90.6803 52.8918C90.8905 52.8287 91.0711 52.6997 91.1921 52.5265C91.313 52.3532 91.3669 52.1462 91.3447 51.9401C91.3225 51.734 91.2256 51.5413 91.0701 51.3943Z" fill="#F0F0F0"/>
<path d="M78.2364 18.0483C79.9391 19.0973 81.3546 20.5082 82.3684 22.1667C83.3822 23.8252 83.9656 25.6847 84.0716 27.5944C84.0716 31.1105 81.4471 32.5235 78.2014 30.7737C76.4933 29.7273 75.0717 28.3178 74.0518 26.6592C73.032 25.0007 72.4425 23.1399 72.3313 21.2276C72.3663 17.7196 74.9995 16.2902 78.2364 18.0483Z" fill="#9269AD"/>
<path opacity="0.7" d="M78.2364 18.0483C79.9391 19.0973 81.3546 20.5082 82.3684 22.1667C83.3822 23.8252 83.9656 25.6847 84.0716 27.5944C84.0716 31.1105 81.4471 32.5235 78.2014 30.7737C76.4933 29.7273 75.0717 28.3178 74.0518 26.6592C73.032 25.0007 72.4425 23.1399 72.3313 21.2276C72.3663 17.7196 74.9995 16.2902 78.2364 18.0483Z" fill="white"/>
<path d="M41.2044 11.0078L68.3243 25.7131C68.9232 26.0674 69.4241 26.5499 69.786 27.1211C70.1479 27.6923 70.3605 28.3359 70.4064 28.9992C70.4064 30.1658 69.4704 30.6422 68.3243 29.985L41.2044 15.2797C40.6041 14.9269 40.1021 14.4448 39.7399 13.8732C39.3778 13.3017 39.1661 12.6574 39.1223 11.9936C39.1223 10.827 40.0496 10.3834 41.2044 11.0078Z" fill="#E6E6E6"/>
<path d="M41.2044 21.3017L68.3243 36.007C68.9232 36.3613 69.4241 36.8439 69.786 37.4151C70.1479 37.9863 70.3605 38.6299 70.4064 39.2931C70.4064 40.4597 69.4704 40.9362 68.3243 40.279L41.2044 25.5737C40.6041 25.2209 40.1021 24.7387 39.7399 24.1672C39.3778 23.5957 39.1661 22.9513 39.1223 22.2876C39.1223 21.121 40.0496 20.6774 41.2044 21.3017Z" fill="#E6E6E6"/>
<path d="M41.2044 31.5953L68.3243 46.3006C68.9232 46.6549 69.4241 47.1374 69.786 47.7086C70.1479 48.2798 70.3605 48.9235 70.4064 49.5867C70.4064 50.7533 69.4704 51.2298 68.3243 50.5725L41.2044 35.8672C40.6041 35.5144 40.1021 35.0323 39.7399 34.4608C39.3778 33.8893 39.1661 33.2449 39.1223 32.5811C39.1223 31.4146 40.0496 30.9709 41.2044 31.5953Z" fill="#E6E6E6"/>
</svg>
