<svg width="326" height="326" viewBox="0 0 326 326" fill="none" xmlns="http://www.w3.org/2000/svg">
<path d="M72.8805 268.213C124.512 296.823 208.229 296.823 259.868 268.213C311.506 239.604 311.499 193.233 259.868 164.604C208.236 135.975 124.512 135.994 72.874 164.604C21.2356 193.214 21.2421 239.604 72.8805 268.213Z" fill="#F5F5F5"/>
<path d="M54.2724 207.532L58.8364 204.924C58.8364 204.924 61.0336 192.79 59.3906 182.358C57.076 167.694 47.0874 162.635 43.4622 164.102C39.8371 165.569 38.983 169.905 45.5356 178.374C49.4215 183.355 54.3963 193.924 54.2724 207.532Z" fill="#9269AD"/>
<g opacity="0.1">
<path opacity="0.1" d="M54.2724 207.532L58.8364 204.924C58.8364 204.924 61.0336 192.79 59.3906 182.358C57.076 167.694 47.0874 162.635 43.4622 164.102C39.8371 165.569 38.983 169.905 45.5356 178.374C49.4215 183.355 54.3963 193.924 54.2724 207.532Z" fill="black"/>
</g>
<path d="M55.9351 201.709H55.8894C55.8465 201.704 55.805 201.69 55.7675 201.668C55.7301 201.646 55.6973 201.617 55.6712 201.582C55.6451 201.548 55.6262 201.508 55.6155 201.466C55.6048 201.424 55.6026 201.38 55.6091 201.338C57.5064 187.606 51.984 172.565 45.7834 166.508C45.7529 166.477 45.7286 166.441 45.7121 166.402C45.6955 166.362 45.687 166.319 45.687 166.276C45.687 166.233 45.6955 166.191 45.7121 166.151C45.7286 166.111 45.7529 166.075 45.7834 166.045C45.8138 166.014 45.8498 165.99 45.8895 165.973C45.9293 165.957 45.9719 165.948 46.0149 165.948C46.0579 165.948 46.1005 165.957 46.1403 165.973C46.18 165.99 46.2161 166.014 46.2464 166.045C52.5642 172.213 58.191 187.502 56.2676 201.435C56.2537 201.513 56.2126 201.583 56.1517 201.633C56.0908 201.684 56.014 201.71 55.9351 201.709Z" fill="white"/>
<path d="M41.5323 214.893C40.8085 215.31 39.3155 214.397 38.7417 214.012C37.7593 213.346 36.9664 212.436 36.4401 211.372C35.8439 210.16 35.641 208.792 35.8599 207.46C35.9787 206.761 36.1443 206.07 36.3554 205.393C36.5445 204.741 36.7401 204.05 36.9291 203.378C37.1671 202.73 37.2692 202.04 37.2291 201.351C37.053 199.975 35.8273 199.01 34.7189 198.182C33.4931 197.263 32.2152 196.05 32.2217 194.394C32.3111 193.108 32.8248 191.888 33.6822 190.925C34.4711 189.921 35.41 189.041 36.1272 187.978C36.6907 187.242 36.9853 186.336 36.9617 185.409C36.8868 184.84 36.696 184.292 36.401 183.799C35.7284 182.774 35.1397 181.697 34.6406 180.578C34.2364 179.417 34.2951 177.97 35.2013 177.148C35.6056 176.847 36.0656 176.629 36.5547 176.507C37.0438 176.385 37.5523 176.362 38.0506 176.438C38.9893 176.556 39.8918 176.874 40.6977 177.37C43.3057 178.831 44.8249 181.934 47.6154 183.069C48.7222 183.417 49.8503 183.694 50.9928 183.897C51.5657 184.004 52.1096 184.231 52.5892 184.562C53.0688 184.894 53.4735 185.322 53.7768 185.82C54.8005 187.867 52.9031 190.384 53.6203 192.562C54.2723 194.479 56.124 195.215 57.1737 196.95C57.5988 197.713 57.7701 198.592 57.6628 199.46C57.5722 200.93 57.2119 202.371 56.6 203.711C55.9224 205.044 55.1443 206.323 54.2723 207.538C54.2267 207.577 41.6431 214.827 41.5323 214.893Z" fill="#9269AD"/>
<path d="M48.9846 210.922C48.9412 210.921 48.8984 210.912 48.8588 210.894C48.8191 210.876 48.7834 210.851 48.7536 210.82C48.7238 210.788 48.7007 210.751 48.6855 210.71C48.6703 210.67 48.6634 210.626 48.6651 210.583C49.2063 197.589 43.084 183.238 38.6308 179.072C38.5996 179.042 38.5745 179.007 38.5569 178.968C38.5393 178.928 38.5297 178.886 38.5285 178.843C38.5272 178.8 38.5345 178.757 38.5498 178.717C38.5652 178.677 38.5883 178.64 38.6178 178.609C38.6473 178.578 38.6827 178.552 38.722 178.535C38.7613 178.517 38.8036 178.508 38.8466 178.506C38.8895 178.505 38.9324 178.513 38.9725 178.528C39.0127 178.543 39.0495 178.566 39.0807 178.596C43.6447 182.847 49.8648 197.432 49.3171 210.609C49.3137 210.694 49.277 210.775 49.2148 210.833C49.1526 210.892 49.07 210.924 48.9846 210.922Z" fill="white"/>
<path d="M47.035 195.6C47.0049 195.606 46.9739 195.606 46.9438 195.6C43.8637 194.751 40.7001 194.242 37.5093 194.081C37.4234 194.076 37.3428 194.038 37.2845 193.974C37.2261 193.911 37.1945 193.828 37.1964 193.742C37.1962 193.698 37.2051 193.655 37.2224 193.616C37.2398 193.576 37.2652 193.54 37.297 193.511C37.3289 193.481 37.3666 193.459 37.4076 193.445C37.4486 193.431 37.4922 193.425 37.5354 193.429C40.7805 193.582 43.999 194.091 47.1328 194.948C47.2193 194.961 47.2971 195.008 47.349 195.078C47.401 195.148 47.4229 195.236 47.4099 195.323C47.397 195.409 47.3502 195.487 47.2799 195.539C47.2096 195.591 47.1215 195.613 47.035 195.6Z" fill="white"/>
<path d="M268.944 189.582L264.764 187.196C264.764 187.196 262.763 176.151 264.262 166.651C266.368 153.305 275.457 148.702 278.763 150.025C282.069 151.349 282.838 155.306 276.872 163.02C273.358 167.564 268.833 177.194 268.944 189.582Z" fill="#9269AD"/>
<g opacity="0.1">
<path opacity="0.1" d="M268.944 189.582L264.764 187.196C264.764 187.196 262.763 176.151 264.262 166.651C266.368 153.305 275.457 148.702 278.763 150.025C282.069 151.349 282.838 155.306 276.872 163.02C273.358 167.564 268.833 177.194 268.944 189.582Z" fill="black"/>
</g>
<path d="M267.431 184.281H267.471C267.509 184.276 267.547 184.264 267.58 184.245C267.614 184.225 267.644 184.199 267.667 184.168C267.691 184.137 267.708 184.102 267.718 184.064C267.728 184.027 267.73 183.987 267.725 183.949C266.017 171.476 271.024 157.784 276.67 152.229C276.698 152.202 276.72 152.17 276.736 152.134C276.751 152.099 276.759 152.06 276.76 152.022C276.761 151.983 276.754 151.944 276.739 151.908C276.725 151.872 276.704 151.839 276.677 151.812C276.65 151.784 276.618 151.762 276.582 151.746C276.547 151.731 276.508 151.723 276.47 151.722C276.431 151.721 276.392 151.728 276.356 151.743C276.32 151.757 276.287 151.778 276.26 151.805C270.509 157.425 265.384 171.365 267.132 184.02C267.141 184.093 267.177 184.16 267.232 184.208C267.287 184.256 267.358 184.282 267.431 184.281Z" fill="white"/>
<path d="M280.543 196.252C281.195 196.637 282.564 195.802 283.086 195.457C283.978 194.847 284.698 194.018 285.179 193.051C285.716 191.951 285.901 190.712 285.707 189.504C285.599 188.866 285.449 188.237 285.257 187.62L284.729 185.82C284.515 185.23 284.424 184.602 284.461 183.975C284.618 182.717 285.733 181.843 286.743 181.086C287.858 180.252 289.025 179.131 289.019 177.637C288.944 176.471 288.485 175.361 287.715 174.482C286.991 173.569 286.137 172.76 285.485 171.802C284.972 171.129 284.705 170.301 284.729 169.455C284.797 168.938 284.97 168.442 285.237 167.994C285.851 167.062 286.388 166.081 286.841 165.06C287.206 164.004 287.154 162.694 286.333 161.937C285.963 161.66 285.542 161.46 285.094 161.348C284.647 161.236 284.181 161.215 283.725 161.285C282.868 161.391 282.045 161.682 281.312 162.139C278.919 163.443 277.557 166.299 275.014 167.323C274.007 167.638 272.981 167.89 271.943 168.079C271.422 168.175 270.928 168.378 270.491 168.677C270.054 168.976 269.685 169.363 269.407 169.813C268.474 171.672 270.202 173.967 269.55 175.942C268.97 177.696 267.268 178.361 266.29 179.939C265.9 180.634 265.745 181.437 265.847 182.227C265.927 183.565 266.255 184.876 266.812 186.094C267.429 187.308 268.138 188.474 268.931 189.582C268.983 189.621 280.439 196.252 280.543 196.252Z" fill="#9269AD"/>
<path d="M273.755 192.666C273.795 192.665 273.835 192.656 273.871 192.64C273.908 192.624 273.941 192.6 273.968 192.571C273.995 192.542 274.017 192.508 274.03 192.47C274.044 192.433 274.051 192.393 274.049 192.353C273.553 180.526 279.128 167.466 283.177 163.665C283.207 163.638 283.231 163.606 283.248 163.57C283.265 163.534 283.275 163.494 283.277 163.454C283.279 163.414 283.272 163.374 283.258 163.337C283.244 163.299 283.223 163.265 283.196 163.236C283.168 163.206 283.135 163.183 283.099 163.167C283.062 163.151 283.022 163.142 282.982 163.141C282.942 163.141 282.903 163.148 282.865 163.163C282.828 163.178 282.794 163.2 282.766 163.228C278.632 167.101 272.947 180.376 273.442 192.373C273.446 192.453 273.48 192.528 273.539 192.583C273.597 192.638 273.675 192.668 273.755 192.666Z" fill="white"/>
<path d="M275.529 178.687C275.56 178.693 275.591 178.693 275.621 178.687C278.422 177.915 281.299 177.451 284.201 177.305C284.279 177.301 284.353 177.267 284.407 177.21C284.461 177.153 284.49 177.077 284.488 176.998C284.488 176.958 284.48 176.919 284.464 176.882C284.448 176.846 284.424 176.813 284.395 176.786C284.365 176.759 284.331 176.738 284.293 176.725C284.255 176.713 284.215 176.708 284.175 176.712C281.222 176.86 278.294 177.332 275.445 178.12C275.369 178.142 275.305 178.194 275.267 178.264C275.229 178.334 275.22 178.415 275.243 178.491C275.263 178.55 275.302 178.601 275.354 178.636C275.406 178.671 275.467 178.689 275.529 178.687Z" fill="white"/>
<path d="M206.599 107.815L251.098 133.51C252.332 134.313 253.359 135.395 254.096 136.67C254.832 137.945 255.257 139.375 255.336 140.845V176.933C255.256 178.402 254.832 179.832 254.096 181.106C253.361 182.38 252.336 183.464 251.105 184.268L246.332 187.026C245.019 187.693 243.567 188.04 242.094 188.04C240.621 188.04 239.169 187.693 237.856 187.026L193.351 161.331C192.119 160.527 191.093 159.444 190.358 158.169C189.623 156.895 189.199 155.465 189.119 153.996V117.908C189.199 116.439 189.623 115.009 190.358 113.734C191.093 112.46 192.119 111.377 193.351 110.573L198.123 107.815C199.437 107.148 200.888 106.801 202.361 106.801C203.834 106.801 205.286 107.148 206.599 107.815Z" fill="#9269AD"/>
<path opacity="0.03" d="M251.098 138.4L246.332 141.151C245.099 141.955 244.072 143.038 243.336 144.312C242.599 145.587 242.174 147.017 242.094 148.486V184.581C242.094 187.28 243.991 188.376 246.332 187.026L251.104 184.268C252.336 183.464 253.361 182.38 254.096 181.106C254.831 179.832 255.256 178.402 255.336 176.933V140.832C255.336 138.139 253.439 137.044 251.098 138.4Z" fill="black"/>
<path opacity="0.2" d="M245.66 187.359C244.407 187.858 243.062 188.087 241.713 188.031C240.365 187.975 239.044 187.635 237.836 187.033L193.337 161.324C192.103 160.522 191.076 159.439 190.34 158.164C189.603 156.89 189.178 155.459 189.099 153.989V117.901C189.148 116.427 189.574 114.99 190.338 113.728L243.313 144.307C242.553 145.571 242.126 147.006 242.074 148.48V184.588C242.094 187.013 243.639 188.141 245.66 187.359Z" fill="black"/>
<path opacity="0.1" d="M255.329 140.832C255.329 138.139 253.439 137.031 251.105 138.387L246.332 141.138C245.082 141.923 244.05 143.011 243.333 144.301L190.384 113.728C191.1 112.437 192.132 111.349 193.383 110.566L198.156 107.815C199.468 107.146 200.921 106.797 202.394 106.797C203.867 106.797 205.319 107.146 206.632 107.815L251.131 133.504C252.355 134.311 253.373 135.395 254.102 136.668C254.831 137.941 255.252 139.367 255.329 140.832Z" fill="white"/>
<path d="M198.951 127.44L236.826 149.308C238.059 150.111 239.085 151.194 239.822 152.469C240.558 153.743 240.984 155.173 241.064 156.643V185.09C240.984 186.559 240.558 187.99 239.822 189.264C239.085 190.538 238.059 191.621 236.826 192.425L192.34 218.12C191.027 218.787 189.575 219.134 188.102 219.134C186.629 219.134 185.177 218.787 183.864 218.12L145.983 196.252C144.749 195.449 143.722 194.367 142.985 193.092C142.249 191.817 141.824 190.387 141.745 188.917V160.464C141.825 158.994 142.251 157.564 142.987 156.29C143.724 155.016 144.75 153.933 145.983 153.129L190.482 127.44C191.794 126.774 193.245 126.427 194.716 126.427C196.188 126.427 197.639 126.774 198.951 127.44Z" fill="#9269AD"/>
<path opacity="0.2" d="M236.826 154.198L192.262 179.9C190.948 180.566 189.496 180.914 188.024 180.914C186.551 180.914 185.099 180.566 183.786 179.9L145.904 158.032C143.57 156.682 143.57 154.491 145.904 153.142L190.475 127.44C191.788 126.773 193.24 126.426 194.713 126.426C196.186 126.426 197.638 126.773 198.951 127.44L236.826 149.308C239.167 150.658 239.167 152.848 236.826 154.198Z" fill="white"/>
<path opacity="0.2" d="M188.089 180.91V219.137C186.615 219.167 185.159 218.812 183.864 218.107L145.983 196.252C144.748 195.45 143.721 194.367 142.985 193.092C142.248 191.818 141.823 190.387 141.745 188.917V160.47C141.88 157.996 142.98 155.674 144.809 154.002C143.655 155.306 144.027 156.936 145.917 158.025L183.786 179.9C185.108 180.606 186.591 180.954 188.089 180.91Z" fill="black"/>
<path d="M139.358 103.433L183.864 77.7445C185.177 77.0778 186.629 76.7304 188.102 76.7304C189.575 76.7304 191.027 77.0778 192.34 77.7445L197.112 80.5024C198.346 81.3051 199.373 82.3878 200.11 83.6624C200.846 84.937 201.271 86.3675 201.35 87.8374V123.926C201.271 125.396 200.846 126.826 200.11 128.101C199.373 129.375 198.346 130.458 197.112 131.261L152.613 156.956C151.3 157.623 149.848 157.97 148.375 157.97C146.903 157.97 145.451 157.623 144.137 156.956L139.365 154.198C138.133 153.393 137.108 152.31 136.373 151.036C135.638 149.761 135.213 148.332 135.133 146.863V110.768C135.212 109.3 135.635 107.87 136.37 106.596C137.104 105.322 138.127 104.238 139.358 103.433Z" fill="#9269AD"/>
<path opacity="0.2" d="M200.105 83.6712L147.13 114.263C146.422 112.963 145.389 111.869 144.131 111.088L139.352 108.33C137.024 106.98 135.133 108.069 135.133 110.775C135.212 109.307 135.635 107.879 136.368 106.604C137.101 105.33 138.123 104.246 139.352 103.44L183.864 77.751C185.177 77.0854 186.629 76.7385 188.102 76.7385C189.574 76.7385 191.026 77.0854 192.34 77.751L197.119 80.509C198.371 81.2868 199.4 82.3764 200.105 83.6712Z" fill="white"/>
<path opacity="0.2" d="M139.358 108.323L144.131 111.081C145.364 111.885 146.391 112.968 147.127 114.242C147.863 115.516 148.289 116.947 148.369 118.416V154.524C148.369 157.223 146.472 158.319 144.131 156.969L139.358 154.211C138.127 153.407 137.102 152.323 136.367 151.049C135.632 149.775 135.207 148.345 135.127 146.876V110.768C135.127 108.069 137.018 106.974 139.358 108.323Z" fill="black"/>
<path d="M144.424 158.938L182.299 180.813C183.533 181.615 184.56 182.698 185.297 183.973C186.033 185.247 186.458 186.678 186.537 188.148V216.594C186.457 218.064 186.031 219.494 185.295 220.769C184.559 222.043 183.532 223.126 182.299 223.929L137.8 249.618C136.487 250.285 135.035 250.632 133.562 250.632C132.089 250.632 130.637 250.285 129.324 249.618L91.4494 227.75C90.2162 226.947 89.1898 225.864 88.4534 224.589C87.7171 223.315 87.2916 221.885 87.2114 220.415V191.968C87.2916 190.499 87.7171 189.069 88.4534 187.794C89.1898 186.52 90.2162 185.437 91.4494 184.633L135.948 158.938C137.262 158.271 138.714 157.924 140.186 157.924C141.659 157.924 143.111 158.271 144.424 158.938Z" fill="#9269AD"/>
<path opacity="0.2" d="M182.299 185.703L137.735 211.405C136.422 212.071 134.97 212.419 133.497 212.419C132.024 212.419 130.572 212.071 129.259 211.405L91.3776 189.53C89.0434 188.18 89.0434 185.996 91.3776 184.64L135.948 158.938C137.262 158.271 138.714 157.924 140.186 157.924C141.659 157.924 143.111 158.271 144.424 158.938L182.299 180.813C184.64 182.162 184.64 184.347 182.299 185.703Z" fill="white"/>
<path opacity="0.2" d="M133.562 212.415V250.635C132.089 250.667 130.632 250.314 129.337 249.612L91.4558 227.75C90.2207 226.949 89.1929 225.866 88.4563 224.591C87.7197 223.317 87.2953 221.885 87.2178 220.415V191.975C87.3519 189.499 88.4522 187.174 90.2822 185.501C89.1281 186.805 89.4998 188.435 91.3906 189.53L129.259 211.404C130.582 212.107 132.064 212.456 133.562 212.415Z" fill="black"/>
<path d="M84.8317 134.964L129.331 109.269C130.644 108.602 132.096 108.255 133.569 108.255C135.042 108.255 136.493 108.602 137.807 109.269L142.579 112.027C143.813 112.83 144.839 113.913 145.575 115.187C146.312 116.462 146.737 117.892 146.817 119.362V155.456C146.737 156.926 146.312 158.356 145.575 159.631C144.839 160.905 143.813 161.988 142.579 162.791L98.0739 188.428C96.7606 189.095 95.3086 189.442 93.8359 189.442C92.3631 189.442 90.9111 189.095 89.5979 188.428L84.8252 185.677C83.5943 184.871 82.5699 183.788 81.8349 182.514C81.0999 181.239 80.6747 179.81 80.5938 178.342V142.273C80.6774 140.808 81.1046 139.383 81.8408 138.113C82.577 136.843 83.6016 135.765 84.8317 134.964Z" fill="#9269AD"/>
<path opacity="0.2" d="M84.8316 139.828L89.6042 142.579C90.8371 143.383 91.8633 144.466 92.5996 145.741C93.3359 147.015 93.7616 148.445 93.8422 149.914V186.009C93.8422 188.708 91.9449 189.804 89.6042 188.454L84.8316 185.703C83.6006 184.897 82.5763 183.814 81.8412 182.54C81.1062 181.266 80.681 179.836 80.6001 178.368V142.273C80.6001 139.574 82.4909 138.478 84.8316 139.828Z" fill="black"/>
<path opacity="0.2" d="M145.565 115.163L92.5836 145.742C91.864 144.453 90.8328 143.366 89.5844 142.579L84.8117 139.821C82.4776 138.472 80.5737 139.58 80.5737 142.266C80.6574 140.798 81.0845 139.369 81.8205 138.095C82.5565 136.821 83.581 135.738 84.8117 134.931L129.311 109.243C130.624 108.577 132.076 108.23 133.549 108.23C135.021 108.23 136.473 108.577 137.787 109.243L142.559 112.001C143.812 112.784 144.846 113.872 145.565 115.163Z" fill="white"/>
<path d="M83.8468 178.648L128.346 204.343C129.578 205.147 130.604 206.23 131.339 207.505C132.074 208.779 132.498 210.209 132.577 211.678V247.76C132.499 249.229 132.076 250.66 131.34 251.934C130.605 253.209 129.579 254.292 128.346 255.095L123.573 257.853C122.26 258.52 120.808 258.867 119.335 258.867C117.862 258.867 116.41 258.52 115.097 257.853L70.6047 232.112C69.3718 231.308 68.3457 230.225 67.6094 228.951C66.8731 227.676 66.4473 226.247 66.3667 224.777V188.708C66.4468 187.239 66.8723 185.809 67.6087 184.534C68.345 183.26 69.3715 182.177 70.6047 181.373L75.3773 178.615C76.6923 177.955 78.1444 177.614 79.616 177.619C81.0875 177.625 82.537 177.977 83.8468 178.648Z" fill="#9269AD"/>
<path opacity="0.03" d="M128.346 209.201L123.573 211.952C122.34 212.756 121.314 213.839 120.577 215.113C119.841 216.387 119.416 217.818 119.335 219.287V255.382C119.335 258.081 121.233 259.177 123.573 257.827L128.346 255.069C129.576 254.269 130.6 253.19 131.335 251.92C132.07 250.65 132.496 249.225 132.578 247.76V211.646C132.578 208.946 130.687 207.851 128.346 209.201Z" fill="black"/>
<path opacity="0.2" d="M122.908 258.192C121.655 258.694 120.31 258.924 118.961 258.868C117.613 258.811 116.291 258.47 115.084 257.866L70.5984 232.112C69.3651 231.309 68.3387 230.226 67.6023 228.951C66.866 227.677 66.4405 226.247 66.3604 224.777V188.708C66.4104 187.235 66.8368 185.798 67.5992 184.536L120.574 215.114C119.817 216.379 119.391 217.814 119.335 219.287V255.388C119.316 257.82 120.887 258.942 122.908 258.192Z" fill="black"/>
<path opacity="0.1" d="M132.571 211.639C132.571 208.953 130.68 207.845 128.352 209.194L123.573 211.952C122.323 212.737 121.292 213.825 120.574 215.114L67.5991 184.516C68.3189 183.228 69.35 182.141 70.5983 181.354L75.3775 178.596C76.691 177.93 78.1429 177.583 79.6155 177.583C81.0881 177.583 82.5399 177.93 83.8535 178.596L128.352 204.285C129.582 205.095 130.605 206.182 131.338 207.459C132.071 208.737 132.493 210.169 132.571 211.639Z" fill="white"/>
<path d="M130.876 130.4C135.955 130.23 138.7 132.154 139.561 136.033C140.421 139.913 137.722 155.593 137.722 155.593C145.683 160.47 151.114 163.672 154.883 165.412C157.849 166.775 166.619 174.038 166.716 175.805C166.814 177.572 163.287 174.573 161.09 173.113C158.892 171.652 156.258 171.809 151.883 170.635C147.508 169.461 131.945 165.491 129.768 163.411C127.59 161.331 130.876 130.4 130.876 130.4Z" fill="#FFA8A7"/>
<path d="M162.752 223.33C162.159 223.982 161.487 224.673 161.559 225.449C161.777 227.107 162.515 228.654 163.665 229.869C165.301 231.636 166.371 235.007 166.677 237.295C166.984 239.584 167.186 245.419 170.087 247.727C172.989 250.035 180.024 251.176 180.024 246.919C180.024 242.661 171.626 226.303 171.626 226.303L162.752 223.33Z" fill="#263238"/>
<path d="M166.651 226.068C167.827 229.034 168.775 232.086 169.487 235.196C170.204 238.612 171.215 241.012 172.956 241.938C174.697 242.863 177.298 242.687 176.32 240.366C175.342 238.045 171.626 226.277 171.626 226.277L166.651 226.068Z" fill="#F28F8F"/>
<path d="M144.157 167.942C144.157 167.942 157.992 174.273 164.721 177.885C171.45 181.497 177.846 185.057 179.182 187.946C180.591 191.023 180.232 198.378 179.495 205.4C178.759 212.422 177.213 225.116 177.213 225.116L157.516 195.6L137.722 182.527L144.157 167.942Z" fill="#455A64"/>
<path d="M143.531 181.412L144.183 179.945C144.183 179.945 155.619 186.55 159.59 189.008C163.561 191.466 167.799 194.479 169.748 198.997C171.698 203.515 177.722 221.419 177.722 221.419L163.835 196.545L143.531 181.412Z" fill="#37474F"/>
<path d="M178.896 247.225C178.328 247.597 178.407 249.012 178.459 250.042C178.511 251.072 177.807 252.428 179.274 254.019C180.741 255.61 183.297 255.753 185.344 257.931C187.391 260.109 190.56 264.125 196.154 264.412C201.748 264.699 205.641 262.247 206.397 260.461C207.153 258.674 205.999 257.292 202.205 255.858C198.175 254.332 197.028 253.902 197.028 253.902L178.896 247.225Z" fill="#263238"/>
<path d="M182.971 235.105C182.971 235.105 186.759 241.957 188.891 245.041C191.023 248.125 194.041 250.909 197.315 253.393C198.025 253.941 199.59 254.899 200.17 255.349C200.303 255.432 200.417 255.543 200.502 255.674C200.587 255.805 200.642 255.954 200.663 256.109C200.685 256.264 200.671 256.422 200.624 256.571C200.577 256.72 200.498 256.858 200.392 256.973C199.453 258.335 194.524 259.633 191.31 258.12C188.095 256.608 184.529 253.198 182.521 251.861C181.51 251.209 180.565 250.557 179.867 250.068C179.539 249.846 179.274 249.542 179.098 249.187C178.922 248.831 178.841 248.436 178.863 248.04C178.863 247.812 178.863 247.545 178.896 247.232C178.948 245.543 175.459 239.408 175.459 239.408L182.971 235.105Z" fill="#FFA8A7"/>
<path d="M113.545 175.753C113.604 181.38 113.884 184.516 116.805 189.647C119.726 194.778 126.951 198.025 135.446 200.881C142.475 203.241 152.815 206.612 154.863 207.056C156.91 207.499 157.34 208.594 157.81 212.226C158.279 215.858 160.731 221.458 166.221 227.965C170.204 232.8 173.926 237.845 177.37 243.079C177.37 243.079 183.107 243.079 185.305 239.258C185.305 239.258 169.337 201.592 166.781 197.243C164.225 192.894 143.505 181.412 143.505 181.412C143.505 181.412 143.857 173.621 144.157 167.942L113.545 175.753Z" fill="#455A64"/>
<path d="M146.465 175.825C145.623 177.756 144.643 179.623 143.531 181.412L144.835 182.123C145.812 180.161 146.368 178.015 146.465 175.825Z" fill="#37474F"/>
<path d="M117.034 132.643L112.052 135.147C112.052 135.147 115.488 138.602 114.543 147.091C113.891 153.103 112.535 153.611 109.483 155.313C113.545 164.545 113.598 178.133 113.598 178.133C113.598 178.133 120.77 181.986 133.81 178.276C145.278 175.016 144.137 167.942 144.137 167.942L139.208 164.141L138.113 155.176C138.113 155.176 142.025 151.264 140.316 144.327C138.608 137.389 130.876 130.4 130.876 130.4H127.85L117.034 132.643Z" fill="#FAFAFA"/>
<path d="M142.305 173.367C136.483 175.544 127.635 175.89 124.049 173.367C120.463 170.844 117.484 163.887 118.064 159.381C118.644 154.876 117.497 147.176 115.73 142.612L114.576 142.286C114.721 143.883 114.701 145.491 114.517 147.085C113.865 153.096 112.509 153.605 109.458 155.306C113.272 164.311 113.572 178.126 113.572 178.126C113.572 178.126 120.744 181.98 133.784 178.27C137.487 177.22 140.48 175.59 142.26 173.36L142.305 173.367Z" fill="#F0F0F0"/>
<path d="M126.142 125.49L120.541 125.64C116.798 125.742 113.167 124.353 110.448 121.778C107.728 119.203 106.143 115.653 106.041 111.909C105.929 107.426 107.597 103.081 110.682 99.8257C113.766 96.5703 118.015 94.6696 122.497 94.54C126.982 94.426 131.328 96.0939 134.585 99.1784C137.842 102.263 139.744 106.513 139.873 110.996C139.973 114.739 138.583 118.368 136.008 121.086C133.433 123.804 129.885 125.388 126.142 125.49Z" fill="#263238"/>
<path d="M118.012 90.628C120.509 94.1292 118.012 96.6199 114.497 99.104C110.983 101.588 107.827 103.159 105.33 99.6582C102.833 96.157 104.072 92.1602 107.573 89.663C111.074 87.1659 115.528 87.1528 118.012 90.628Z" fill="#263238"/>
<path d="M109.569 101.855L106.048 104.587C105.857 104.366 105.714 104.107 105.626 103.829C105.539 103.55 105.508 103.256 105.538 102.965C105.567 102.674 105.655 102.393 105.796 102.137C105.938 101.881 106.13 101.657 106.361 101.477C106.841 101.115 107.443 100.951 108.041 101.022C108.638 101.092 109.186 101.391 109.569 101.855Z" fill="#263238"/>
<path d="M133.132 101.823C134.944 102.833 137.279 107.267 137.318 116.695C137.318 124.682 134.814 126.729 133.53 127.329C132.245 127.929 129.728 127.655 127.283 127.329L127.323 130.641C127.323 130.641 131.717 135.446 131.567 137.65C131.417 139.854 125.947 140.995 122.732 138.954C119.518 136.913 116.747 132.832 116.747 132.832L116.512 121.748C116.512 121.748 115.117 123.176 112.6 121.096C110.547 119.394 109.79 116.454 111.296 114.817C111.692 114.429 112.174 114.141 112.703 113.976C113.232 113.811 113.792 113.773 114.338 113.867C114.885 113.96 115.401 114.182 115.844 114.514C116.288 114.846 116.647 115.278 116.891 115.776C116.891 115.776 120.803 115.815 125.875 112.829C127.866 111.695 129.56 110.107 130.821 108.195C132.082 106.282 132.874 104.099 133.132 101.823Z" fill="#FFA8A7"/>
<path d="M128.346 114.928C128.353 115.125 128.302 115.319 128.2 115.487C128.097 115.655 127.948 115.789 127.769 115.873C127.591 115.956 127.393 115.986 127.198 115.958C127.003 115.929 126.821 115.844 126.674 115.714C126.527 115.583 126.422 115.411 126.372 115.221C126.321 115.031 126.328 114.83 126.391 114.644C126.454 114.457 126.57 114.293 126.725 114.172C126.88 114.051 127.067 113.979 127.264 113.963C127.398 113.955 127.533 113.974 127.66 114.018C127.787 114.062 127.904 114.131 128.005 114.221C128.106 114.311 128.187 114.419 128.246 114.54C128.304 114.662 128.338 114.794 128.346 114.928Z" fill="#263238"/>
<path d="M128.796 121.689L131.15 122.374C131.112 122.531 131.043 122.679 130.946 122.808C130.85 122.938 130.728 123.047 130.589 123.129C130.45 123.21 130.295 123.263 130.135 123.283C129.975 123.304 129.812 123.292 129.656 123.248C129.342 123.145 129.079 122.927 128.919 122.638C128.759 122.349 128.715 122.01 128.796 121.689Z" fill="#F28F8F"/>
<path d="M136.496 111.622L134.423 110.266C134.505 110.127 134.614 110.006 134.745 109.911C134.875 109.815 135.023 109.747 135.18 109.71C135.337 109.674 135.501 109.67 135.659 109.698C135.818 109.726 135.97 109.786 136.105 109.875C136.381 110.061 136.575 110.346 136.648 110.671C136.721 110.996 136.666 111.336 136.496 111.622Z" fill="#263238"/>
<path d="M136.092 113.989C136.1 114.188 136.05 114.384 135.947 114.554C135.845 114.724 135.694 114.86 135.515 114.945C135.335 115.03 135.135 115.061 134.938 115.032C134.742 115.004 134.558 114.919 134.409 114.786C134.261 114.654 134.155 114.481 134.105 114.289C134.054 114.097 134.061 113.895 134.125 113.707C134.189 113.518 134.307 113.354 134.464 113.232C134.622 113.111 134.811 113.038 135.009 113.024C135.28 113.01 135.546 113.103 135.749 113.284C135.952 113.465 136.075 113.718 136.092 113.989Z" fill="#263238"/>
<path d="M131.541 113.044L131.665 119.583L134.814 118.514L131.541 113.044Z" fill="#F28F8F"/>
<path d="M127.283 127.316C124.675 127.049 119.381 125.673 118.501 123.613C118.859 124.659 119.531 125.569 120.424 126.221C122.041 127.525 127.323 128.907 127.323 128.907L127.283 127.316Z" fill="#F28F8F"/>
<path d="M125.06 188.428V189.119C125.06 189.463 125.15 189.8 125.322 190.098C125.493 190.395 125.741 190.643 126.038 190.814L144.698 201.553C144.996 201.724 145.333 201.815 145.676 201.815C146.02 201.815 146.357 201.724 146.654 201.553L180.884 181.791C181.182 181.619 181.429 181.372 181.601 181.074C181.772 180.777 181.863 180.439 181.862 180.095V179.619L145.676 200.483L125.06 188.428Z" fill="#EBEBEB"/>
<path d="M181.869 179.613L161.572 167.877C161.394 167.775 161.193 167.721 160.988 167.721C160.783 167.721 160.582 167.775 160.405 167.877L125.197 188.213C125.157 188.236 125.125 188.269 125.102 188.308C125.08 188.348 125.068 188.392 125.068 188.438C125.068 188.483 125.08 188.528 125.102 188.567C125.125 188.607 125.157 188.64 125.197 188.663L145.689 200.497L181.869 179.613Z" fill="#FAFAFA"/>
<path d="M151.916 170.654C153.585 171.306 153.52 171.789 154.883 172.558C157.406 173.993 159.042 173.712 159.042 173.712C159.793 174.417 160.59 175.071 161.429 175.668C163.209 176.894 165.002 177.833 167.199 177.142C169.605 176.379 167.91 173.999 167.199 172.826C166.488 171.652 162.635 168.216 161.852 167.512C161.07 166.808 157.804 166.325 154.915 165.425L151.916 170.654Z" fill="#FFA8A7"/>
<path d="M145.493 198.782L134.546 192.47L166.56 173.986L177.565 180.265L145.493 198.782Z" fill="#E0E0E0"/>
<path d="M140.115 181.217L140.317 181.334L145.683 184.431L155.222 178.922L155.424 178.811L149.856 175.597L140.115 181.217Z" fill="#E0E0E0"/>
<path d="M140.317 181.334L145.683 184.431L155.222 178.922L149.856 175.825L140.317 181.334Z" fill="#E6E6E6"/>
<path d="M145.683 200.503V201.807C146.026 201.807 146.363 201.717 146.661 201.546L180.891 181.784C181.188 181.612 181.435 181.365 181.607 181.068C181.779 180.77 181.869 180.432 181.869 180.089V179.613L145.683 200.503Z" fill="#EBEBEB"/>
<g style="mix-blend-mode:multiply" opacity="0.5">
<g style="mix-blend-mode:multiply" opacity="0.5">
<path d="M145.683 200.503V201.807C146.026 201.807 146.363 201.717 146.661 201.546L180.891 181.784C181.188 181.612 181.435 181.365 181.607 181.068C181.779 180.77 181.869 180.432 181.869 180.089V179.613L145.683 200.503Z" fill="#E0E0E0"/>
</g>
</g>
<path d="M146.23 200.816C146.555 200.941 146.903 200.992 147.249 200.965C147.595 200.938 147.931 200.833 148.232 200.66L182.312 180.982C182.608 180.811 182.863 180.577 183.058 180.296C183.253 180.016 183.383 179.696 183.44 179.359L187.176 157.112C187.186 156.984 187.186 156.856 187.176 156.728C187.176 156.109 186.929 155.516 186.491 155.078L151.075 175.531C150.857 175.658 150.669 175.831 150.524 176.039C150.38 176.246 150.283 176.482 150.24 176.731L146.23 200.816Z" fill="#EBEBEB"/>
<path d="M145.683 200.51L145.917 200.64C146.018 200.699 146.123 200.751 146.23 200.796L150.266 176.692C150.309 176.443 150.406 176.207 150.55 176C150.695 175.792 150.882 175.619 151.101 175.492L186.517 155.039C186.375 154.902 186.218 154.781 186.048 154.68L150.553 175.192C150.335 175.32 150.147 175.493 150.003 175.7C149.859 175.907 149.762 176.143 149.718 176.392L145.683 200.51Z" fill="#FAFAFA"/>
<path d="M165.432 180.252C165.68 178.765 167.218 176.783 168.861 175.831C170.505 174.879 171.646 175.316 171.398 176.809C171.15 178.302 169.605 180.278 167.962 181.23C166.319 182.182 165.178 181.745 165.432 180.252Z" fill="#9269AD"/>
<path d="M128.053 184.901C123.704 183.636 108.134 179.28 103.407 177.729C100.147 176.659 98.341 175.91 98.2497 173.06C98.1715 170.413 102.09 148.728 103.518 143.388C104.763 138.7 107.541 137.096 112.053 135.127C115.169 137.592 116.056 150.156 112.333 153.455C110.944 158.958 108.421 168.516 108.421 168.516C108.421 168.516 117.275 173.119 123.599 176.164C126.755 177.683 131.032 179.861 133.549 180.135C135.544 180.35 139.084 180.487 139.847 181.184C141.687 183.056 143.401 185.046 144.979 187.144C145.689 188.311 147.391 190.697 144.979 191.46C142.781 192.151 140.995 191.212 139.208 189.986C138.37 189.388 137.573 188.734 136.822 188.03C135.039 188.226 133.238 187.869 131.665 187.007C130.328 186.244 128.053 184.901 128.053 184.901Z" fill="#FFA8A7"/>
<path d="M116.18 69.2685L113.813 64.8219L115.717 59.332V55.9612L109.888 59.332V62.6963L112.391 67.0387C112.433 67.1035 112.491 67.1555 112.561 67.1886L116.18 69.2685Z" fill="#E0E0E0"/>
<path d="M113.545 64.8088L116.056 69.112C116.092 69.1699 116.143 69.2166 116.204 69.2467C116.266 69.2768 116.334 69.2891 116.402 69.2824C116.47 69.2756 116.534 69.2499 116.588 69.2083C116.642 69.1666 116.684 69.1107 116.708 69.0468L119.316 61.4249L113.545 64.8088Z" fill="#F0F0F0"/>
<path d="M125.986 38.6244C125.952 38.0184 125.777 37.4287 125.473 36.9031C125.17 36.3776 124.747 35.9308 124.238 35.5991L122.817 34.7776C122.274 34.5067 121.676 34.3657 121.07 34.3657C120.463 34.3657 119.865 34.5067 119.322 34.7776L86.3767 53.816C85.8678 54.1469 85.4442 54.5935 85.1405 55.1192C84.8369 55.645 84.6617 56.235 84.6294 56.8413V73.878C84.6617 74.4843 84.8369 75.0743 85.1405 75.6001C85.4442 76.1258 85.8678 76.5724 86.3767 76.9033L87.7981 77.7248C88.3391 78.0013 88.938 78.1454 89.5455 78.1454C90.153 78.1454 90.7518 78.0013 91.2928 77.7248L98.3084 73.6759L104.124 70.3116L124.238 58.6799C124.746 58.3478 125.169 57.901 125.473 57.3755C125.776 56.85 125.952 56.2605 125.986 55.6546V38.6244Z" fill="#F0F0F0"/>
<path d="M84.6294 73.8782C84.6617 74.4844 84.8369 75.0745 85.1405 75.6002C85.4442 76.1259 85.8678 76.5725 86.3767 76.9034L87.7981 77.725C88.2905 77.9726 88.8296 78.1133 89.3802 78.1381C89.9307 78.1628 90.4803 78.0709 90.9929 77.8684C90.1714 78.1748 89.5455 77.7119 89.5455 76.7144V59.6776C89.5672 59.0701 89.7421 58.478 90.054 57.9563L85.138 55.1201C84.8253 55.6415 84.6503 56.2338 84.6294 56.8414V73.8782Z" fill="#E0E0E0"/>
<path d="M125.927 38.129C125.725 37.3857 125.047 37.151 124.238 37.6139L91.2797 56.6523C90.7611 56.9706 90.336 57.4205 90.0474 57.9563L85.1313 55.1201C85.4238 54.5872 85.8481 54.1382 86.3636 53.8161L119.316 34.7777C119.859 34.5057 120.459 34.3641 121.066 34.3641C121.674 34.3641 122.273 34.5057 122.817 34.7777L124.238 35.6057C124.677 35.8889 125.053 36.2588 125.344 36.6927C125.634 37.1267 125.833 37.6154 125.927 38.129Z" fill="#FAFAFA"/>
<path d="M93.927 59.2668L121.617 43.2798C122.198 42.9407 122.674 43.0972 122.674 43.6253C122.63 43.9499 122.512 44.26 122.329 44.5314C122.146 44.8029 121.902 45.0283 121.617 45.1901L93.927 61.1772C93.3402 61.5162 92.8643 61.3597 92.8643 60.8316C92.9081 60.5063 93.0269 60.1956 93.2113 59.924C93.3958 59.6525 93.6408 59.4275 93.927 59.2668Z" fill="white"/>
<path d="M93.927 64.7175L121.617 48.7305C122.198 48.3915 122.674 48.5479 122.674 49.0761C122.629 49.4003 122.511 49.71 122.328 49.9813C122.144 50.2526 121.902 50.4783 121.617 50.6409L93.927 66.6279C93.3402 66.9669 92.8643 66.8105 92.8643 66.2823C92.9071 65.9567 93.0255 65.6456 93.2101 65.3739C93.3946 65.1022 93.6401 64.8774 93.927 64.7175Z" fill="white"/>
<path d="M93.927 70.1683L121.617 54.1812C122.198 53.8422 122.674 53.9921 122.674 54.5203C122.627 54.8422 122.508 55.1493 122.325 55.4182C122.142 55.6871 121.9 55.9107 121.617 56.072L93.927 72.059C93.3402 72.3981 92.8643 72.2416 92.8643 71.7135C92.91 71.3913 93.0297 71.0841 93.2141 70.816C93.3985 70.5479 93.6425 70.3262 93.927 70.1683Z" fill="white"/>
<path d="M143.994 83.8342L141.627 79.381L143.531 73.8846V70.5203L137.709 73.8846V77.249L140.213 81.5913C140.253 81.6574 140.312 81.7097 140.382 81.7412L143.994 83.8342Z" fill="#9269AD"/>
<path opacity="0.2" d="M143.994 83.8342L141.627 79.381L143.531 73.8846V70.5203L137.709 73.8846V77.249L140.213 81.5913C140.253 81.6574 140.312 81.7097 140.382 81.7412L143.994 83.8342Z" fill="black"/>
<path d="M169.044 44.3361C169.012 43.7298 168.836 43.1398 168.533 42.614C168.229 42.0883 167.805 41.6418 167.296 41.3108L165.875 40.4893C165.334 40.2129 164.735 40.0687 164.128 40.0687C163.52 40.0687 162.921 40.2129 162.38 40.4893L129.435 59.5081C128.928 59.8431 128.507 60.2915 128.203 60.8178C127.9 61.344 127.723 61.9336 127.688 62.5399V79.5767C127.72 80.183 127.895 80.773 128.199 81.2987C128.502 81.8245 128.926 82.271 129.435 82.602L130.856 83.4561C131.399 83.727 131.997 83.868 132.604 83.868C133.21 83.868 133.808 83.727 134.351 83.4561L141.366 79.4006L143.864 83.7299C143.901 83.786 143.952 83.8309 144.013 83.8601C144.073 83.8892 144.14 83.9014 144.207 83.8954C144.274 83.8894 144.338 83.8654 144.392 83.8259C144.447 83.7864 144.489 83.733 144.516 83.6712L147.156 76.0428L167.27 64.4177C167.779 64.0867 168.203 63.6402 168.507 63.1145C168.81 62.5887 168.985 61.9987 169.018 61.3924L169.044 44.3361Z" fill="#9269AD"/>
<path opacity="0.2" d="M127.688 79.5766C127.72 80.1829 127.895 80.7729 128.199 81.2987C128.502 81.8244 128.926 82.271 129.435 82.6019L130.856 83.456C131.349 83.7036 131.888 83.8444 132.438 83.8691C132.989 83.8938 133.538 83.802 134.051 83.5995C133.23 83.9059 132.604 83.443 132.604 82.4454V65.3761C132.624 64.7685 132.799 64.1762 133.112 63.6548L128.196 60.8121C127.883 61.3358 127.708 61.9302 127.688 62.5399V79.5766Z" fill="black"/>
<path opacity="0.2" d="M168.985 43.8275C168.783 43.0842 168.105 42.8495 167.297 43.3124L134.351 62.3508C133.832 62.6691 133.407 63.119 133.119 63.6548L128.203 60.8186C128.495 60.2857 128.919 59.8367 129.435 59.5146L162.348 40.4762C162.891 40.2042 163.491 40.0626 164.098 40.0626C164.706 40.0626 165.306 40.2042 165.849 40.4762L167.27 41.2977C167.714 41.5796 168.095 41.9495 168.39 42.3847C168.685 42.8198 168.888 43.3109 168.985 43.8275Z" fill="white"/>
<path d="M142.227 65.6499C141.549 66.0924 140.985 66.6884 140.581 67.3896C140.176 68.0908 139.943 68.8775 139.899 69.6858C139.899 71.1723 140.943 71.7787 142.227 71.0354C142.907 70.5926 143.472 69.9958 143.878 69.2934C144.283 68.591 144.517 67.8029 144.561 66.993C144.561 65.5065 143.518 64.9066 142.227 65.6499Z" fill="white"/>
<path d="M150.82 60.6751C150.142 61.119 149.578 61.7163 149.174 62.4185C148.77 63.1208 148.536 63.9084 148.493 64.7175C148.493 66.2041 149.536 66.8039 150.82 66.0607C151.5 65.6193 152.065 65.0237 152.471 64.3223C152.876 63.621 153.111 62.8338 153.154 62.0248C153.154 60.5382 152.111 59.9319 150.82 60.6751Z" fill="white"/>
<path d="M159.42 55.7069C158.741 56.1483 158.175 56.7439 157.77 57.4453C157.364 58.1466 157.13 58.9338 157.086 59.7428C157.086 61.2294 158.129 61.8292 159.42 61.0859C160.098 60.6434 160.662 60.0474 161.066 59.3462C161.471 58.645 161.704 57.8583 161.748 57.05C161.748 55.5635 160.705 54.9636 159.42 55.7069Z" fill="white"/>
</svg>
