<svg width="200" height="200" viewBox="0 0 200 200" fill="none" xmlns="http://www.w3.org/2000/svg">
<path d="M31.0642 94.476C-7.00778 116.456 -7.00378 152.076 31.0642 174.076C69.1322 196.076 130.86 196.056 168.932 174.076C207.004 152.096 207 116.476 168.932 94.476C130.864 72.476 69.1362 72.496 31.0642 94.476Z" fill="#FAFAFA"/>
<path d="M191.56 126.856L185.312 119.76L119.448 81.672C117.808 80.552 115.352 82.824 114.396 85.116C114.247 85.458 114.134 85.8146 114.06 86.18C113.876 87.132 114.036 87.992 114.744 88.476L181.144 126.876L190.256 128.676L192.736 129.168C192.81 129.184 192.887 129.177 192.956 129.147C193.026 129.116 193.083 129.064 193.121 128.999C193.159 128.933 193.175 128.857 193.167 128.782C193.159 128.707 193.127 128.636 193.076 128.58L191.56 126.856Z" fill="#E0E0E0"/>
<path d="M80.716 77.972L7.87595 126.832C6.79195 127.56 6.79595 128.66 7.87595 129.292L106.356 186.092C106.974 186.399 107.659 186.544 108.349 186.513C109.038 186.483 109.708 186.277 110.296 185.916L183.136 137.056C184.22 136.328 184.216 135.224 183.136 134.592L84.656 77.796C84.0381 77.4892 83.3524 77.3444 82.6632 77.3752C81.9741 77.4059 81.304 77.6113 80.716 77.972Z" fill="#E0E0E0"/>
<path d="M122.359 89.44L123.211 89.928L124.235 90.52L182.319 124.12C181.999 123.404 182.247 121.976 182.979 120.608C183.827 119.008 185.127 117.748 186.067 117.7L128.259 84.26L126.295 83.132C127.527 83.932 123.599 90.224 122.359 89.44Z" fill="#455A64"/>
<path d="M128.172 84.204L126.268 83.116C125.728 82.784 124.704 83.756 123.804 85.04C122.604 86.744 121.636 89 122.352 89.44L123.756 90.24L124.26 90.516C123.544 90.076 124.512 87.816 125.712 86.116C126.572 84.888 127.56 83.94 128.112 84.168C128.135 84.174 128.156 84.1865 128.172 84.204Z" fill="#EBEBEB"/>
<path d="M127.696 83.936C126.44 83.16 122.528 89.484 123.78 90.26L125.68 91.352C124.428 90.576 128.34 84.252 129.596 85.028L127.696 83.936Z" fill="#9269AD"/>
<path d="M131.404 86.072L129.528 84.992C128.304 84.22 124.464 90.288 125.504 91.252C125.524 91.2724 125.547 91.2899 125.572 91.304L127.468 92.376C126.24 91.6 130.16 85.284 131.404 86.072Z" fill="#EBEBEB"/>
<path d="M126.296 83.12H126.268C125.732 82.776 124.708 83.756 123.808 85.044C122.608 86.716 121.656 88.928 122.324 89.42L114.4 84.864C113.764 84.428 113.6 83.664 113.784 82.796C114.224 80.484 116.928 77.552 118.64 78.72L126.296 83.12Z" fill="#F28F8F"/>
<path d="M191.132 124.4C190.476 125.288 190.54 125.724 190.54 125.724L182.32 124.104C181.52 122.86 182.04 120.836 183.168 119.396L183.528 119.6L191.132 124.4Z" fill="#F28F8F"/>
<path d="M192.776 126.168L190.54 125.732C190.54 125.732 190.44 125.296 191.132 124.408L193.084 125.64C193.139 125.703 193.167 125.785 193.162 125.869C193.158 125.952 193.121 126.031 193.06 126.088C193.024 126.124 192.978 126.151 192.929 126.165C192.879 126.179 192.826 126.18 192.776 126.168Z" fill="#37474F"/>
<path d="M186.064 117.692L191.704 124.092C191.481 124.131 191.277 124.244 191.124 124.412L183.524 119.612L183.164 119.408C183.936 118.42 184.984 117.704 186.064 117.692Z" fill="#FFA8A7"/>
<path d="M191.132 124.4C191.199 124.307 191.286 124.23 191.386 124.175C191.486 124.12 191.598 124.087 191.712 124.08L193.084 125.632L191.132 124.4Z" fill="#455A64"/>
<path opacity="0.2" d="M183.168 119.404L114.58 80.868C114.201 81.458 113.93 82.1109 113.78 82.796C113.612 83.656 113.76 84.424 114.4 84.864L122.36 89.44L123.212 89.928L124.236 90.52L182.32 124.12C181.316 122.568 182.4 120.28 183.168 119.404Z" fill="black"/>
<path d="M82.5961 80.436L13.5321 122.964L12.1201 125.448V127.4C12.126 127.885 12.2619 128.359 12.5138 128.774C12.7657 129.188 13.1243 129.528 13.5521 129.756L105.052 182.66C105.78 183.057 106.605 183.24 107.432 183.188C108.275 183.16 109.095 182.904 109.804 182.448L177.308 137.144V135.196L82.5961 80.436Z" fill="#263238"/>
<path d="M107.42 181.24C106.594 181.291 105.77 181.107 105.044 180.708L13.5521 127.804C13.124 127.576 12.7652 127.237 12.5133 126.822C12.2613 126.408 12.1255 125.933 12.1201 125.448C12.1293 124.949 12.2633 124.46 12.51 124.026C12.7566 123.592 13.108 123.227 13.5321 122.964L79.5321 78.668L177.3 135.2L109.792 180.496C109.083 180.953 108.263 181.21 107.42 181.24Z" fill="#9269AD"/>
<path d="M79.5166 72.948L14.2566 116.74L13.6006 117.784L13.6326 125.384C13.6472 125.593 13.7176 125.795 13.8364 125.968C13.9553 126.141 14.1183 126.279 14.3086 126.368L105.789 179.268C106.298 179.521 106.863 179.641 107.431 179.616C107.999 179.59 108.552 179.421 109.037 179.124L174.301 135.332L174.265 127.732L79.5166 72.948Z" fill="#EBEBEB"/>
<path d="M174.268 127.736L173.468 128.284L162.848 135.408L160.872 136.74L109.024 171.54C108.539 171.837 107.987 172.006 107.419 172.031C106.851 172.056 106.286 171.937 105.776 171.684L14.2603 118.768C13.3683 118.248 13.3643 117.336 14.2603 116.736L15.1283 116.156L79.5284 72.956L173.456 127.264L173.652 127.384L174.268 127.736Z" fill="#F0F0F0"/>
<path d="M107.38 172.024L107.412 179.624C106.856 179.657 106.302 179.536 105.812 179.272L14.2959 126.364C14.1059 126.275 13.9432 126.137 13.825 125.964C13.7067 125.791 13.6373 125.589 13.6239 125.38L13.5879 117.78C13.6045 117.988 13.6753 118.189 13.7931 118.361C13.911 118.534 14.0719 118.673 14.2599 118.764L105.76 171.672C106.256 171.939 106.818 172.061 107.38 172.024Z" fill="#E0E0E0"/>
<path d="M174.264 126.724L162.516 134.604L160.672 135.84L109.004 170.512C108.519 170.809 107.967 170.979 107.399 171.005C106.831 171.031 106.266 170.912 105.756 170.66L23.8199 123.284C23.0839 122.884 22.4 122.484 21.76 122.084C18.4239 120.044 16.4119 118.176 15.1199 116.148L14.9639 115.892C14.8605 115.736 14.7897 115.56 14.7559 115.376C14.6936 114.985 14.774 114.584 14.9825 114.247C15.1911 113.91 15.5138 113.659 15.8919 113.54C18.0495 112.757 20.1118 111.733 22.0399 110.488L22.1199 110.436L79.508 71.924L174.264 126.724Z" fill="white"/>
<path d="M79.524 72.4L173.524 126.744L162.324 134.268L160.484 135.504L108.8 170.18C108.327 170.469 107.782 170.617 107.228 170.608C106.791 170.619 106.358 170.517 105.972 170.312L23.9999 122.932C23.3319 122.564 22.6599 122.176 21.9559 121.752C18.8159 119.828 16.7559 117.984 15.4479 115.944L15.3759 115.828L15.2879 115.688C15.2099 115.567 15.1581 115.43 15.1359 115.288C15.0935 114.991 15.1589 114.688 15.3203 114.435C15.4817 114.182 15.7285 113.995 16.0159 113.908C18.201 113.116 20.289 112.079 22.2399 110.816L22.288 110.788H22.3119L79.512 72.416L79.524 72.4ZM79.512 71.944L22.1199 110.444L22.0399 110.496C20.1118 111.741 18.0495 112.765 15.8919 113.548C15.5138 113.667 15.1911 113.918 14.9825 114.255C14.774 114.592 14.6936 114.993 14.7559 115.384C14.7897 115.568 14.8605 115.744 14.9639 115.9L15.1199 116.156C16.4119 118.184 18.4239 120.052 21.76 122.092C22.4 122.492 23.0839 122.892 23.8199 123.292L105.756 170.66C106.203 170.9 106.705 171.02 107.212 171.008C107.845 171.018 108.467 170.846 109.004 170.512L160.672 135.84L162.516 134.604L174.264 126.724L79.508 71.924L79.512 71.944Z" fill="#E0E0E0"/>
<path opacity="0.1" d="M162.064 126.376C161.232 126.94 161.236 127.792 162.064 128.28C162.54 128.517 163.068 128.629 163.6 128.606C164.131 128.582 164.647 128.423 165.1 128.144C165.936 127.58 165.936 126.728 165.1 126.24C164.624 126.002 164.096 125.889 163.564 125.913C163.033 125.937 162.516 126.096 162.064 126.376Z" fill="black"/>
<path d="M171.788 119.784C170.628 119.116 169.18 119.292 167.704 120.276C165.424 121.816 163.456 125.104 162.608 128.492C162.971 128.601 163.352 128.633 163.728 128.588C164.528 125.568 166.252 122.672 168.272 121.308C168.819 120.912 169.461 120.671 170.132 120.608C170.515 120.585 170.896 120.674 171.228 120.864C172.208 121.432 172.776 122.892 172.784 124.864C172.788 125.19 172.772 125.516 172.736 125.84L173.804 126.46C173.876 125.914 173.912 125.363 173.912 124.812C173.9 122.4 173.128 120.56 171.788 119.784Z" fill="#263238"/>
<path d="M173.704 127.096C173.693 127.193 173.676 127.289 173.652 127.384L173.456 127.264L173.704 127.096Z" fill="#263238"/>
<path opacity="0.1" d="M152.896 121.072C152.064 121.636 152.068 122.488 152.896 122.976C153.372 123.213 153.9 123.325 154.432 123.301C154.963 123.278 155.479 123.119 155.932 122.84C156.768 122.276 156.768 121.424 155.932 120.936C155.456 120.698 154.928 120.586 154.396 120.61C153.865 120.634 153.349 120.793 152.896 121.072Z" fill="black"/>
<path d="M162.62 114.484C161.46 113.812 160.012 113.988 158.54 114.972C156.256 116.512 154.288 119.8 153.44 123.192C153.804 123.297 154.184 123.329 154.56 123.288C155.36 120.264 157.088 117.368 159.104 116.004C159.651 115.608 160.293 115.367 160.964 115.304C161.347 115.282 161.728 115.373 162.06 115.564C163.04 116.128 163.608 117.588 163.616 119.564C163.62 119.89 163.604 120.216 163.568 120.54L164.636 121.16C164.712 120.614 164.748 120.063 164.744 119.512C164.732 117.092 163.96 115.26 162.62 114.484Z" fill="#263238"/>
<path opacity="0.1" d="M143.725 115.772C142.897 116.332 142.897 117.184 143.725 117.676C144.201 117.911 144.729 118.022 145.26 117.999C145.791 117.975 146.307 117.817 146.761 117.54C147.601 116.976 147.597 116.124 146.761 115.636C146.285 115.398 145.756 115.286 145.225 115.31C144.694 115.334 144.177 115.493 143.725 115.772Z" fill="black"/>
<path d="M153.449 109.2C152.293 108.528 150.845 108.708 149.369 109.688C147.085 111.228 145.121 114.516 144.269 117.908C144.632 118.013 145.013 118.045 145.389 118.004C146.189 114.98 147.917 112.084 149.937 110.72C150.481 110.324 151.122 110.082 151.793 110.02C152.176 110.001 152.558 110.091 152.893 110.28C153.869 110.844 154.441 112.304 154.449 114.28C154.451 114.607 154.434 114.935 154.397 115.26L155.469 115.876C155.54 115.331 155.575 114.782 155.573 114.232C155.561 111.788 154.801 109.956 153.449 109.2Z" fill="#263238"/>
<path opacity="0.1" d="M134.556 110.468C133.724 111.032 133.728 111.884 134.556 112.372C135.032 112.609 135.56 112.721 136.091 112.698C136.622 112.675 137.139 112.518 137.592 112.24C138.428 111.672 138.428 110.82 137.592 110.332C137.116 110.095 136.588 109.984 136.057 110.008C135.525 110.031 135.009 110.19 134.556 110.468Z" fill="black"/>
<path d="M144.281 103.88C143.121 103.208 141.673 103.388 140.201 104.372C137.917 105.908 135.949 109.196 135.101 112.588C135.464 112.693 135.845 112.725 136.221 112.684C137.001 109.66 138.745 106.764 140.769 105.4C141.313 105.004 141.954 104.762 142.625 104.7C143.008 104.681 143.39 104.771 143.725 104.96C144.701 105.524 145.269 106.984 145.277 108.96C145.28 109.287 145.264 109.615 145.229 109.94L146.301 110.556C146.37 110.011 146.405 109.462 146.405 108.912C146.401 106.488 145.621 104.656 144.281 103.88Z" fill="#263238"/>
<path opacity="0.1" d="M125.388 105.168C124.556 105.732 124.56 106.584 125.388 107.072C125.863 107.309 126.391 107.421 126.922 107.398C127.452 107.374 127.968 107.215 128.42 106.936C129.26 106.372 129.256 105.52 128.42 105.032C127.945 104.794 127.417 104.682 126.886 104.706C126.356 104.73 125.84 104.889 125.388 105.168Z" fill="black"/>
<path d="M135.112 98.576C133.952 97.904 132.504 98.084 131.032 99.068C128.748 100.608 126.78 103.892 125.932 107.284C126.294 107.393 126.676 107.425 127.052 107.38C127.832 104.36 129.576 101.464 131.596 100.1C132.142 99.7044 132.784 99.4614 133.456 99.396C133.838 99.3772 134.218 99.4674 134.552 99.656C135.532 100.224 136.1 101.684 136.108 103.656C136.112 103.982 136.096 104.308 136.06 104.632L137.128 105.248C137.2 104.703 137.234 104.154 137.232 103.604C137.224 101.2 136.448 99.352 135.112 98.576Z" fill="#263238"/>
<path opacity="0.1" d="M116.216 99.864C115.384 100.428 115.388 101.28 116.216 101.768C116.691 102.005 117.219 102.117 117.75 102.094C118.28 102.07 118.796 101.911 119.248 101.632C120.088 101.068 120.084 100.216 119.248 99.728C118.773 99.4911 118.245 99.3792 117.715 99.403C117.184 99.4268 116.668 99.5855 116.216 99.864Z" fill="black"/>
<path d="M125.94 93.272C124.78 92.604 123.332 92.784 121.86 93.764C119.576 95.304 117.6 98.592 116.76 102C117.123 102.105 117.504 102.137 117.88 102.096C118.66 99.072 120.404 96.176 122.424 94.812C122.97 94.4164 123.612 94.1747 124.284 94.112C124.666 94.0919 125.047 94.1821 125.38 94.372C126.36 94.936 126.928 96.396 126.936 98.372C126.94 98.698 126.924 99.024 126.888 99.348L127.956 99.968C128.027 99.4229 128.063 98.8738 128.064 98.324C128.052 95.884 127.28 94.048 125.94 93.272Z" fill="#263238"/>
<path opacity="0.1" d="M107.048 94.564C106.216 95.128 106.22 95.98 107.048 96.468C107.523 96.7053 108.051 96.8173 108.582 96.7935C109.113 96.7697 109.628 96.6108 110.08 96.332C110.92 95.768 110.916 94.916 110.08 94.428C109.605 94.1903 109.077 94.0781 108.547 94.1019C108.016 94.1257 107.5 94.2848 107.048 94.564Z" fill="black"/>
<path d="M116.773 87.972C115.613 87.304 114.165 87.48 112.689 88.464C110.401 90 108.441 93.292 107.601 96.68C107.963 96.7889 108.345 96.8215 108.721 96.776C109.521 93.756 111.245 90.86 113.265 89.492C113.812 89.0991 114.454 88.8589 115.125 88.796C115.507 88.7747 115.887 88.8635 116.221 89.052C117.201 89.62 117.769 91.08 117.777 93.052C117.778 93.378 117.762 93.7038 117.729 94.028L118.797 94.644C118.868 94.0989 118.904 93.5498 118.905 93C118.885 90.584 118.113 88.748 116.773 87.972Z" fill="#263238"/>
<path opacity="0.1" d="M97.8764 89.26C97.0444 89.824 97.0484 90.676 97.8764 91.164C98.3523 91.4012 98.8808 91.5133 99.412 91.4895C99.9433 91.4657 100.46 91.3068 100.912 91.028C101.748 90.468 101.748 89.612 100.912 89.124C100.436 88.8875 99.9079 88.7759 99.3768 88.7997C98.8458 88.8234 98.3294 88.9818 97.8764 89.26Z" fill="black"/>
<path d="M107.6 82.672C106.44 82 104.996 82.18 103.52 83.16C101.236 84.7 99.2679 87.988 98.4199 91.38C98.7834 91.4849 99.1639 91.5175 99.5399 91.476C100.34 88.452 102.064 85.556 104.088 84.192C104.632 83.7959 105.274 83.554 105.944 83.492C106.327 83.4719 106.707 83.5621 107.04 83.752C108.02 84.316 108.588 85.776 108.596 87.752C108.6 88.078 108.584 88.404 108.548 88.728L109.62 89.348C109.69 88.8028 109.725 88.2537 109.724 87.704C109.712 85.28 108.94 83.448 107.6 82.672Z" fill="#263238"/>
<path opacity="0.1" d="M88.7084 83.96C87.8764 84.52 87.8804 85.372 88.7084 85.864C89.1845 86.1005 89.7129 86.2121 90.244 86.1883C90.7751 86.1646 91.2914 86.0062 91.7444 85.728C92.5804 85.164 92.5804 84.312 91.7444 83.824C91.2687 83.5864 90.7401 83.4741 90.2088 83.4979C89.6775 83.5217 89.1611 83.6808 88.7084 83.96Z" fill="black"/>
<path d="M98.432 77.368C97.272 76.696 95.824 76.876 94.352 77.86C92.068 79.4 90.1 82.684 89.252 86.076C89.6151 86.1827 89.996 86.2154 90.3719 86.172C91.1519 83.148 92.8959 80.252 94.9159 78.888C95.463 78.494 96.1049 78.2524 96.776 78.188C97.1587 78.1679 97.5391 78.2581 97.872 78.448C98.852 79.012 99.42 80.472 99.428 82.448C99.4319 82.7753 99.4159 83.1026 99.38 83.428L100.448 84.044C100.521 83.4991 100.557 82.9498 100.556 82.4C100.544 79.976 99.772 78.144 98.432 77.368Z" fill="#263238"/>
<path opacity="0.1" d="M79.5366 78.656C78.7046 79.22 78.7086 80.072 79.5366 80.56C80.0125 80.7972 80.541 80.9093 81.0722 80.8855C81.6034 80.8617 82.1198 80.7028 82.5726 80.424C83.4126 79.86 83.4086 79.008 82.5726 78.52C82.0965 78.2835 81.5681 78.1719 81.037 78.1956C80.5059 78.2194 79.9896 78.3778 79.5366 78.656Z" fill="black"/>
<path d="M89.2601 72.068C88.1041 71.396 86.6561 71.576 85.1801 72.556C82.8961 74.096 80.9321 77.384 80.0801 80.776C80.4436 80.8808 80.8241 80.9134 81.2001 80.872C82.0001 77.848 83.7281 74.952 85.7481 73.588C86.2925 73.1919 86.9337 72.95 87.6041 72.888C87.9881 72.8671 88.37 72.9574 88.7041 73.148C89.6801 73.712 90.2521 75.172 90.2601 77.148C90.2622 77.474 90.2461 77.7998 90.2121 78.124L91.2801 78.744C91.3519 78.199 91.3867 77.6497 91.3841 77.1C91.3721 74.676 90.6001 72.844 89.2601 72.068Z" fill="#263238"/>
<path d="M98.1882 160.8C98.0054 160.807 97.8244 160.762 97.6659 160.671C97.5074 160.58 97.3779 160.446 97.2922 160.284C97.1562 160.026 97.1185 159.728 97.1862 159.445C97.2539 159.161 97.4224 158.912 97.6602 158.744L147.868 125.052C147.981 124.974 148.109 124.921 148.243 124.896C148.378 124.871 148.517 124.875 148.65 124.907C148.783 124.94 148.907 125 149.015 125.084C149.123 125.169 149.212 125.275 149.276 125.396C149.412 125.654 149.45 125.952 149.382 126.235C149.315 126.519 149.146 126.768 148.908 126.936L98.7042 160.64C98.5498 160.739 98.3715 160.794 98.1882 160.8Z" fill="#EBEBEB"/>
<path d="M92.0758 157.28C91.893 157.287 91.712 157.242 91.5535 157.151C91.395 157.06 91.2655 156.926 91.1798 156.764C91.0441 156.506 91.0071 156.207 91.0755 155.924C91.144 155.64 91.3133 155.392 91.5518 155.224L141.756 121.528C141.869 121.45 141.997 121.398 142.132 121.373C142.267 121.348 142.405 121.352 142.539 121.385C142.672 121.417 142.797 121.477 142.905 121.561C143.014 121.645 143.103 121.751 143.168 121.872C143.303 122.13 143.341 122.429 143.272 122.712C143.204 122.996 143.034 123.244 142.796 123.412L92.5918 157.108C92.4389 157.212 92.2604 157.271 92.0758 157.28Z" fill="#EBEBEB"/>
<path d="M85.9606 153.744C85.778 153.75 85.5973 153.705 85.4395 153.613C85.2816 153.521 85.153 153.386 85.0686 153.224C84.9325 152.966 84.8948 152.668 84.9626 152.385C85.0303 152.101 85.1987 151.852 85.4366 151.684L135.645 118C135.758 117.923 135.885 117.871 136.02 117.847C136.154 117.822 136.292 117.827 136.425 117.859C136.558 117.891 136.682 117.951 136.79 118.035C136.898 118.118 136.988 118.224 137.053 118.344C137.189 118.602 137.226 118.9 137.159 119.183C137.091 119.467 136.922 119.716 136.685 119.884L86.4766 153.568C86.3239 153.673 86.1454 153.734 85.9606 153.744Z" fill="#EBEBEB"/>
<path d="M79.8484 150.212C79.6653 150.218 79.4841 150.173 79.3257 150.081C79.1672 149.989 79.0379 149.854 78.9524 149.692C78.8163 149.434 78.7786 149.136 78.8463 148.853C78.9141 148.569 79.0825 148.32 79.3204 148.152L129.528 114.46C129.641 114.381 129.769 114.327 129.903 114.302C130.038 114.277 130.177 114.281 130.31 114.313C130.444 114.346 130.568 114.406 130.676 114.491C130.784 114.576 130.873 114.682 130.936 114.804C131.072 115.062 131.11 115.36 131.042 115.643C130.975 115.927 130.806 116.176 130.568 116.344L80.3604 150.036C80.2092 150.141 80.032 150.202 79.8484 150.212Z" fill="#EBEBEB"/>
<path d="M73.7321 146.672C73.5493 146.679 73.3683 146.634 73.2098 146.543C73.0513 146.452 72.9217 146.318 72.8361 146.156C72.7004 145.898 72.6633 145.599 72.7318 145.316C72.8003 145.032 72.9696 144.784 73.2081 144.616L123.416 110.924C123.529 110.846 123.657 110.794 123.792 110.769C123.927 110.744 124.066 110.748 124.199 110.781C124.332 110.813 124.457 110.873 124.565 110.957C124.674 111.041 124.763 111.147 124.828 111.268C124.964 111.526 125.001 111.825 124.932 112.108C124.864 112.392 124.695 112.64 124.456 112.808L74.2481 146.5C74.0952 146.604 73.9166 146.663 73.7321 146.672Z" fill="#EBEBEB"/>
<path d="M67.6198 143.14C67.4365 143.147 67.255 143.102 67.0963 143.01C66.9377 142.918 66.8085 142.783 66.7237 142.62C66.5881 142.362 66.551 142.063 66.6195 141.78C66.6879 141.496 66.8572 141.248 67.0958 141.08L117.3 107.388C117.413 107.31 117.541 107.256 117.676 107.231C117.811 107.206 117.95 107.21 118.083 107.243C118.216 107.275 118.341 107.336 118.45 107.42C118.558 107.504 118.647 107.611 118.712 107.732C118.848 107.99 118.885 108.288 118.818 108.571C118.75 108.855 118.582 109.104 118.344 109.272L68.1357 142.964C67.984 143.07 67.805 143.132 67.6198 143.14Z" fill="#EBEBEB"/>
<path d="M61.5085 139.6C61.3254 139.606 61.1443 139.561 60.9858 139.469C60.8274 139.377 60.698 139.242 60.6125 139.08C60.4765 138.822 60.4388 138.524 60.5065 138.241C60.5742 137.957 60.7427 137.708 60.9805 137.54L111.201 103.852C111.313 103.774 111.441 103.721 111.576 103.696C111.71 103.671 111.849 103.675 111.982 103.707C112.115 103.74 112.24 103.8 112.348 103.884C112.456 103.969 112.545 104.075 112.609 104.196C112.745 104.454 112.782 104.752 112.715 105.035C112.647 105.319 112.478 105.568 112.241 105.736L62.0205 139.428C61.8687 139.531 61.6917 139.59 61.5085 139.6Z" fill="#EBEBEB"/>
<path d="M55.3922 136.068C55.2094 136.075 55.0284 136.03 54.8699 135.939C54.7114 135.848 54.5819 135.714 54.4962 135.552C54.3606 135.294 54.3235 134.995 54.3919 134.712C54.4604 134.428 54.6297 134.18 54.8682 134.012L105.076 100.32C105.189 100.241 105.316 100.187 105.451 100.162C105.586 100.137 105.725 100.14 105.858 100.173C105.991 100.206 106.116 100.266 106.224 100.351C106.332 100.436 106.421 100.542 106.484 100.664C106.62 100.922 106.658 101.22 106.59 101.503C106.523 101.787 106.354 102.036 106.116 102.204L55.9082 135.896C55.755 135.999 55.5766 136.059 55.3922 136.068Z" fill="#EBEBEB"/>
<path d="M49.2805 132.532C49.0988 132.534 48.9199 132.486 48.7644 132.392C48.6088 132.298 48.4828 132.162 48.4005 132C48.2648 131.742 48.2278 131.443 48.2962 131.16C48.3647 130.876 48.534 130.628 48.7725 130.46L98.9605 96.8C99.0732 96.7212 99.2014 96.6674 99.3365 96.642C99.4717 96.6166 99.6107 96.6203 99.7443 96.6529C99.8779 96.6854 100.003 96.7461 100.111 96.8307C100.22 96.9154 100.309 97.0222 100.373 97.144C100.508 97.4021 100.545 97.7007 100.477 97.9841C100.408 98.2675 100.239 98.5163 100.001 98.684L49.7965 132.36C49.6436 132.464 49.4651 132.523 49.2805 132.532Z" fill="#EBEBEB"/>
<path d="M43.1637 129C42.9811 129.006 42.8004 128.961 42.6426 128.869C42.4847 128.777 42.3562 128.642 42.2717 128.48C42.1357 128.222 42.098 127.924 42.1657 127.641C42.2334 127.357 42.4019 127.108 42.6397 126.94L92.8477 93.248C92.9603 93.17 93.0882 93.1167 93.2229 93.0917C93.3576 93.0667 93.4961 93.0706 93.6292 93.1031C93.7622 93.1356 93.8869 93.196 93.9949 93.2803C94.1029 93.3646 94.1918 93.4708 94.2557 93.592C94.3918 93.8497 94.4295 94.148 94.3617 94.4313C94.294 94.7147 94.1255 94.9638 93.8877 95.132L43.6797 128.824C43.527 128.929 43.3486 128.99 43.1637 129Z" fill="#EBEBEB"/>
<path d="M37.0525 125.468C36.8694 125.474 36.6882 125.429 36.5298 125.337C36.3713 125.245 36.242 125.11 36.1565 124.948C36.0204 124.69 35.9827 124.392 36.0504 124.109C36.1182 123.825 36.2866 123.576 36.5245 123.408L86.7365 89.712C86.849 89.6339 86.9769 89.5806 87.1116 89.5557C87.2463 89.5307 87.3848 89.5346 87.5179 89.5671C87.651 89.5996 87.7757 89.66 87.8837 89.7443C87.9917 89.8286 88.0806 89.9348 88.1445 90.056C88.2805 90.3136 88.3182 90.612 88.2505 90.8953C88.1828 91.1787 88.0143 91.4278 87.7765 91.596L37.5645 125.292C37.4131 125.396 37.236 125.457 37.0525 125.468Z" fill="#EBEBEB"/>
<path d="M30.9362 121.928C30.7534 121.935 30.5724 121.89 30.4139 121.799C30.2554 121.708 30.1258 121.574 30.0402 121.412C29.9045 121.154 29.8674 120.855 29.9359 120.572C30.0044 120.288 30.1736 120.04 30.4122 119.872L80.6202 86.18C80.7331 86.1018 80.8612 86.0485 80.9962 86.0235C81.1312 85.9985 81.27 86.0023 81.4034 86.0348C81.5368 86.0673 81.6618 86.1277 81.7702 86.212C81.8786 86.2963 81.9679 86.4027 82.0322 86.524C82.1678 86.782 82.2049 87.0807 82.1364 87.3641C82.068 87.6475 81.8987 87.8963 81.6602 88.064L31.4522 121.756C31.2993 121.86 31.1207 121.919 30.9362 121.928Z" fill="#EBEBEB"/>
<path d="M24.8239 118.4C24.6412 118.407 24.4603 118.362 24.3019 118.27C24.1435 118.179 24.0139 118.045 23.9279 117.884C23.7922 117.626 23.7551 117.327 23.8236 117.044C23.892 116.76 24.0613 116.512 24.2999 116.344L74.5039 82.648C74.617 82.5705 74.7451 82.5177 74.88 82.493C75.0149 82.4683 75.1534 82.4723 75.2867 82.5048C75.4199 82.5372 75.5448 82.5974 75.6532 82.6813C75.7616 82.7653 75.8511 82.8711 75.9159 82.992C76.0515 83.2501 76.0886 83.5487 76.0201 83.8321C75.9517 84.1155 75.7824 84.3643 75.5439 84.532L25.3399 118.224C25.1874 118.329 25.0088 118.39 24.8239 118.4Z" fill="#EBEBEB"/>
<path d="M104.4 164.348C104.217 164.354 104.036 164.309 103.877 164.217C103.719 164.125 103.59 163.99 103.504 163.828C103.368 163.57 103.33 163.272 103.398 162.989C103.466 162.705 103.634 162.456 103.872 162.288L156.976 126.588C157.089 126.51 157.217 126.457 157.352 126.431C157.487 126.406 157.626 126.41 157.759 126.443C157.893 126.475 158.018 126.536 158.126 126.62C158.235 126.704 158.324 126.811 158.388 126.932C158.525 127.19 158.563 127.49 158.494 127.774C158.426 128.059 158.256 128.308 158.016 128.476L104.912 164.172C104.76 164.276 104.583 164.336 104.4 164.348Z" fill="#9269AD"/>
<path d="M109.676 142.9C109.6 142.68 109.488 142.456 109.328 142.5C109.28 142.524 109.24 142.561 109.212 142.607C109.184 142.653 109.17 142.706 109.172 142.76C109.173 142.831 109.186 142.902 109.212 142.968C109.26 143.128 109.36 143.212 109.412 143.368C110.004 145.324 108.064 145.944 107.04 146.016C104.136 146.232 101.284 144.924 98.6157 143.5C94.7877 141.46 90.9757 139.216 86.9677 137.9C83.5997 136.8 78.3997 135.708 76.4637 140.8C76.4277 140.904 76.5477 141.092 76.5997 140.976C78.6997 136.256 83.5037 137.232 86.8157 138.328C90.8637 139.668 94.7077 141.948 98.5797 144.004C101.168 145.376 103.888 146.572 106.696 146.5C107.98 146.472 110.568 145.728 109.768 143.176C109.744 143.12 109.712 143.012 109.676 142.9Z" fill="#263238"/>
<path d="M125.6 82.868C123.792 79.604 121.66 76.008 119.416 70.74C117.172 65.472 115.264 65.428 110.216 63.62C106.028 62.124 94.6164 57.32 90.0604 55.38C84.1964 52.88 82.5764 52.58 77.5804 46.924C72.1444 40.752 53.8924 20.492 53.8924 20.492L30.6924 63.432C38.4404 67.888 44.9244 71.6 49.6404 74.612C53.7604 77.236 56.2844 79.508 58.5884 87.616C60.1564 93.12 60.3404 95.508 64.6484 100.416C67.9884 104.232 68.9644 105.312 72.8324 109.548L88.0004 103.2C87.5198 102.432 87.2215 101.565 87.1284 100.664C87.0004 97.412 91.5884 97.92 93.6884 98.14C98.6044 98.66 114.392 105.644 114.392 105.644L123.72 98.272C125.232 96.672 126.712 94.724 125.164 90.272C126.204 89.092 127.408 86.136 125.6 82.868Z" fill="#FFA8A7"/>
<path d="M114.064 70.492C113.649 69.9752 113.15 69.5317 112.588 69.18C112.284 68.972 111.984 68.78 111.68 68.568C111.331 68.3178 110.965 68.092 110.584 67.892C110.512 67.86 110.524 67.98 110.552 68.012C111.572 69.036 112.952 69.612 113.78 70.84C114.111 71.3579 114.399 71.9024 114.64 72.468C114.968 73.176 115.304 73.872 115.66 74.568C115.688 74.62 115.724 74.568 115.716 74.524C115.344 73.128 114.932 71.676 114.064 70.492Z" fill="#F28F8F"/>
<path d="M125.2 90.304C125.464 89.9855 125.688 89.6363 125.868 89.264C124.8 87.028 122.268 83.036 120.24 78.064C121.644 82.024 122.844 84 125.2 90.304Z" fill="#F28F8F"/>
<path d="M117.444 70.376C117.4 70.0611 117.319 69.7523 117.204 69.456C117.007 68.9168 116.711 68.419 116.332 67.988C115.878 67.5376 115.347 67.173 114.764 66.912C114.145 66.5755 113.485 66.3213 112.8 66.156C112.8 66.156 112.8 66.18 112.8 66.188C113.376 66.516 113.972 66.812 114.548 67.14C115.098 67.4104 115.594 67.7791 116.012 68.228C116.724 69.072 116.988 70.188 117.46 71.164C117.488 71.22 117.548 71.208 117.548 71.164C117.536 70.8988 117.501 70.6351 117.444 70.376Z" fill="#F28F8F"/>
<path d="M124.92 96.832C124.744 94.5 123.528 92.996 122.26 90.096C120.66 86.456 117.132 79.504 115.944 75.428C116.344 79.088 118.788 91.748 120.568 100.788L123.736 98.284C124.177 97.8394 124.573 97.3531 124.92 96.832Z" fill="#F28F8F"/>
<path d="M87.684 102.724C87.5045 102.254 87.285 101.8 87.028 101.368C86.8 100.928 86.6 100.472 86.404 100.016C86.0359 99.1656 85.7245 98.2917 85.472 97.4C85.2186 96.4933 85.0697 95.5606 85.028 94.62C85.0093 94.1612 85.0187 93.7017 85.056 93.244C85.076 93.004 85.108 92.764 85.144 92.524C85.172 92.344 85.224 92.144 85.236 91.964C85.248 91.784 85.236 91.688 85.26 91.564C85.26 91.484 85.116 91.292 85.056 91.42C84.9486 91.6267 84.859 91.8422 84.788 92.064C84.7323 92.2656 84.6869 92.4699 84.652 92.676C84.5828 93.0794 84.5414 93.487 84.528 93.896C84.5065 94.6609 84.5614 95.4261 84.692 96.18C84.9574 97.6738 85.4554 99.1166 86.168 100.456C86.372 100.856 86.592 101.22 86.812 101.6C87.0312 102.03 87.2997 102.432 87.612 102.8C87.672 102.832 87.696 102.76 87.684 102.724Z" fill="#F28F8F"/>
<path d="M116.597 99.82L107.041 81.756C107.041 81.756 97.2766 84.556 92.6406 87.12C88.0046 89.684 85.8406 98.56 87.6206 102.788L87.8086 102.828C87.429 102.169 87.1995 101.434 87.1366 100.676C87.0086 97.424 91.5966 97.932 93.6966 98.152C98.6126 98.672 114.401 105.656 114.401 105.656L116.721 103.82L116.597 99.82Z" fill="#F28F8F"/>
<path d="M54.0836 46.5593C59.4342 33.9846 58.0041 21.3366 50.8894 18.3093C43.7747 15.282 33.6696 23.0216 28.319 35.5963C22.9684 48.1711 24.3985 60.819 31.5132 63.8463C38.6278 66.8737 48.733 59.134 54.0836 46.5593Z" fill="#FFA8A7"/>
<path d="M109.092 67.28C114.632 69.724 115.284 72.768 116.264 76.708C117.244 80.648 120.992 89.04 122.46 92.832C123.928 96.624 124.252 97.596 122.784 102.732C121.316 107.868 117.156 117.932 117.156 117.932C117.156 117.932 104.688 78.46 103.876 74.4C103.064 70.34 103.548 65.82 109.092 67.28Z" fill="#FFA8A7"/>
<path d="M121.549 100.092C121.543 100.102 121.539 100.114 121.539 100.126C121.539 100.138 121.543 100.15 121.549 100.16C121.725 100.216 121.993 100.096 122.169 100.064C122.345 100.032 122.617 99.976 122.841 99.944C123.065 99.912 123.281 99.892 123.513 99.88C123.541 99.732 123.565 99.588 123.589 99.452C123.023 99.5182 122.466 99.6525 121.933 99.852C121.782 99.8872 121.646 99.9717 121.549 100.092ZM121.525 97.412C122.077 97.2036 122.649 97.0521 123.233 96.96C123.385 96.9399 123.539 96.9279 123.693 96.924C123.693 96.772 123.657 96.62 123.629 96.472C123.461 96.472 123.297 96.496 123.129 96.52C122.497 96.5914 121.887 96.7915 121.337 97.108C121.157 97.2 121.357 97.468 121.525 97.412ZM123.381 98C123.027 98.0153 122.674 98.0527 122.325 98.112C121.605 98.2156 120.91 98.4516 120.277 98.808C120.125 98.9 120.329 99.104 120.461 99.06C121.057 98.8315 121.669 98.6483 122.293 98.512C122.593 98.455 122.896 98.4176 123.201 98.4C123.357 98.4 123.529 98.4 123.697 98.4C123.697 98.26 123.717 98.128 123.721 98C123.601 98 123.493 98 123.381 98Z" fill="#F28F8F"/>
<path d="M117.925 91.936C115.662 87.5082 113.691 82.9371 112.025 78.252L107.041 76.708L105.389 79.884C108.905 91.8 117.157 117.928 117.157 117.928C117.157 117.928 117.773 116.436 118.617 114.328C118.617 114.328 119.729 105.096 120.217 100.964C120.705 96.832 119.529 94.948 117.925 91.936Z" fill="#F28F8F"/>
<path d="M99.9598 114.6C99.6518 114.392 99.3438 114.2 99.0398 113.964C94.9158 110.932 90.5238 107.808 87.9998 103.2L72.7998 109.552C75.3906 112.403 78.1502 115.096 81.0638 117.616C83.5238 119.848 91.0038 122.912 95.8638 125.356C100.724 127.8 102.764 129.012 103.988 128.324C105.42 127.556 107.176 119.504 99.9598 114.6Z" fill="#FFA8A7"/>
<path d="M82.4326 118.628C82.4846 118.452 82.5366 118.28 82.6006 118.108C82.7341 117.75 82.8877 117.4 83.0606 117.06C83.267 116.735 83.4412 116.391 83.5806 116.032C83.6006 115.944 83.4806 115.796 83.3926 115.864C83.0775 116.155 82.8221 116.504 82.6406 116.892C82.4256 117.285 82.2424 117.694 82.0926 118.116C82.0646 118.192 82.0446 118.272 82.0166 118.348L82.4326 118.628Z" fill="#F28F8F"/>
<path d="M84.0202 119.432C84.1811 118.833 84.3981 118.25 84.6682 117.692C84.9014 117.22 85.1872 116.776 85.5202 116.368C85.7521 116.078 86.0105 115.81 86.2922 115.568C86.5242 115.38 86.7682 115.212 86.9802 115.004C87.0362 114.948 86.9562 114.8 86.8762 114.82C86.2859 115.006 85.7556 115.345 85.3402 115.804C84.8919 116.251 84.5106 116.76 84.2082 117.316C83.8816 117.922 83.6265 118.563 83.4482 119.228L83.9882 119.54C84.0002 119.52 84.0002 119.476 84.0202 119.432Z" fill="#F28F8F"/>
<path d="M85.684 119.3C85.8498 118.841 86.049 118.394 86.28 117.964C86.3793 117.779 86.4888 117.6 86.608 117.428C86.7486 117.27 86.8585 117.087 86.932 116.888C86.932 116.8 86.828 116.66 86.736 116.708C86.3337 117.003 86.0074 117.39 85.784 117.836C85.5323 118.253 85.3156 118.691 85.136 119.144C85.024 119.432 84.924 119.724 84.832 120.02L85.352 120.296C85.456 119.96 85.56 119.628 85.684 119.3Z" fill="#F28F8F"/>
<path d="M93.8398 124.36C94.0553 122.835 94.7933 121.433 95.9278 120.392C95.9278 120.392 99.4118 121.852 100.9 123.192C102.388 124.532 103.536 127.488 102.608 128.436C100.476 128.444 97.5998 126.344 93.8398 124.36Z" fill="#FFC4C3"/>
<path opacity="0.3" d="M93.8398 124.36C94.2798 124.592 94.7038 124.824 95.1198 125.056C95.5749 123.54 95.8436 121.973 95.9198 120.392C94.7883 121.434 94.0532 122.837 93.8398 124.36Z" fill="white"/>
<path d="M100.248 90.148C102.688 94.148 106.44 101.348 106.484 102.276C106.732 107.528 106.432 113.016 106.432 118.696C106.432 124.376 106.384 128.524 108.876 132.296C111.132 135.696 115.276 136.632 115.864 132.916C116.376 129.736 116.696 123.264 117.156 117.94C117.616 112.616 118.836 104.904 119.156 100.596C119.476 96.288 116.644 92.06 114.736 86.488C113.08 81.644 111.676 75.524 109.08 72.928C106.484 70.332 96.6601 65.468 93.0801 63.58L100.248 90.148Z" fill="#FFA8A7"/>
<path d="M118.872 100.928C118.565 100.95 118.256 100.95 117.948 100.928C117.308 100.863 116.674 100.748 116.052 100.584C115.892 100.552 115.932 100.78 116.028 100.832C116.657 101.119 117.337 101.276 118.028 101.292C118.372 101.318 118.717 101.318 119.06 101.292H119.092C119.092 101.16 119.112 101.036 119.12 100.912L118.872 100.928Z" fill="#F28F8F"/>
<path d="M115.2 97.068C115.092 97.12 115.228 97.308 115.324 97.284C116.067 97.0859 116.843 97.0423 117.604 97.156C117.941 97.2159 118.271 97.3111 118.588 97.44L118.88 97.58C118.844 97.408 118.804 97.236 118.764 97.064C118.423 96.926 118.067 96.8267 117.704 96.768C116.858 96.611 115.985 96.7156 115.2 97.068Z" fill="#F28F8F"/>
<path d="M116.668 98.46C116.061 98.4365 115.454 98.4876 114.86 98.612C114.36 98.724 113.628 98.848 113.3 99.284C113.3 99.284 113.3 99.352 113.32 99.352C113.599 99.3438 113.875 99.2953 114.14 99.208C114.428 99.136 114.716 99.072 115.008 99.028C116.088 98.855 117.192 98.9205 118.244 99.22C118.553 99.3104 118.855 99.4227 119.148 99.556C119.148 99.352 119.148 99.156 119.112 98.94C118.892 98.86 118.668 98.788 118.452 98.728C117.87 98.5674 117.271 98.4775 116.668 98.46Z" fill="#F28F8F"/>
<path d="M116.844 120.968C116.636 120.9 116.42 120.84 116.208 120.78C115.768 120.664 115.328 120.56 114.88 120.476C114.857 120.47 114.833 120.469 114.809 120.473C114.786 120.477 114.763 120.486 114.743 120.499C114.723 120.512 114.706 120.53 114.693 120.55C114.68 120.57 114.672 120.592 114.668 120.616C114.668 120.728 114.772 120.804 114.868 120.82C115.268 120.9 115.668 120.988 116.088 121.096L116.676 121.268L116.888 121.336L116.912 120.988L116.844 120.968Z" fill="#F28F8F"/>
<path d="M115.513 119.512C115.965 119.647 116.409 119.81 116.841 120L116.985 120.064L117.021 119.592L116.973 119.568C116.512 119.383 116.041 119.228 115.561 119.104C115.085 118.981 114.603 118.887 114.117 118.824C113.603 118.725 113.077 118.715 112.561 118.796C112.465 118.796 112.509 118.968 112.589 118.984C113.097 119.084 113.617 119.112 114.125 119.2C114.593 119.278 115.056 119.382 115.513 119.512Z" fill="#F28F8F"/>
<path d="M114.764 118.252C115.396 118.393 116.02 118.57 116.632 118.78C116.78 118.832 116.924 118.892 117.068 118.952C117.068 118.82 117.092 118.692 117.1 118.552L116.796 118.436C116.127 118.22 115.441 118.064 114.744 117.972C114.564 117.96 114.632 118.224 114.764 118.252Z" fill="#F28F8F"/>
<path d="M116.596 125.34C114.253 123.08 111.797 123.884 111.797 123.884C111.505 125.796 111.397 127.731 111.473 129.664C111.641 132.368 113.425 133.692 114.789 133.924C116.153 134.156 116.332 131.488 116.596 125.34Z" fill="#FFC4C3"/>
<path opacity="0.3" d="M116.552 126.336C116.552 126.016 116.58 125.684 116.596 125.34C114.252 123.08 111.796 123.884 111.796 123.884C112.264 124.716 114.856 126.176 116.552 126.336Z" fill="white"/>
<path d="M110.4 73.644C109.316 72.164 107.692 71.292 106.092 70.476C105.188 70.0383 104.311 69.5454 103.468 69C103.42 68.964 103.408 69.068 103.436 69.096C104.704 70.216 106.236 70.996 107.62 71.932C109.137 72.8829 110.313 74.2923 110.976 75.956C111.4 76.92 111.752 77.912 112.136 78.892C112.164 78.968 112.224 78.92 112.216 78.856C112 77.04 111.488 75.136 110.4 73.644Z" fill="#F28F8F"/>
<path d="M82.9599 26.52C83.0302 26.6271 83.0866 26.7427 83.1279 26.864L82.9119 26.092C82.8996 26.0459 82.8849 26.0005 82.8679 25.956V25.928C82.8534 25.881 82.8347 25.8355 82.8119 25.792L82.7799 25.728C82.7799 25.692 82.7439 25.66 82.7199 25.624L82.6079 25.464C82.5639 25.412 82.5199 25.36 82.4719 25.312C82.0857 24.951 81.611 24.6985 81.0959 24.58C79.0439 24.04 76.1679 24.82 74.6719 26.324C74.4716 26.5184 74.2968 26.7375 74.1519 26.976C74.1228 27.0163 74.0973 27.0591 74.0759 27.104C74.0572 27.1261 74.0436 27.1521 74.0359 27.18C74.0071 27.2296 73.983 27.2819 73.9639 27.336C73.885 27.5085 73.8324 27.6919 73.8079 27.88C73.7738 28.1001 73.7861 28.3249 73.8439 28.54L74.0879 29.424C74.0469 29.2769 74.0281 29.1246 74.0319 28.972C74.4259 29.5207 75.0135 29.8995 75.6759 30.032C77.7279 30.576 80.6079 29.796 82.1039 28.292C82.6059 27.833 82.9124 27.1986 82.9599 26.52Z" fill="#9269AD"/>
<path d="M111.108 130.244L102.024 132.724L101.784 131.836L74.0643 29.436C74.0233 29.2889 74.0045 29.1366 74.0083 28.984C74.0644 28.2974 74.3823 27.6587 74.8963 27.2C76.3923 25.696 79.2683 24.92 81.3203 25.464C81.8354 25.5782 82.3105 25.8282 82.6963 26.188C82.7968 26.2882 82.8853 26.3996 82.9603 26.52C83.0306 26.6271 83.087 26.7427 83.1283 26.864C83.1283 26.864 83.1283 26.908 83.1483 26.924V26.948L111.108 130.244Z" fill="#F0F0F0"/>
<path d="M109.272 128.752C111.324 129.292 111.776 130.956 110.276 132.46C108.776 133.964 105.904 134.744 103.852 134.2C101.8 133.656 101.352 131.996 102.848 130.492C104.344 128.988 107.22 128.208 109.272 128.752Z" fill="#9269AD"/>
<path d="M110.86 137.304C110.86 137.264 110.86 137.22 110.86 137.18L111.14 130.872V130.8C111.142 130.761 111.142 130.723 111.14 130.684V130.62C111.12 129.78 110.472 129.064 109.256 128.744C107.204 128.2 104.328 128.98 102.832 130.484C101.964 131.356 101.756 132.284 102.128 133.012L102.16 133.056C102.198 133.129 102.242 133.198 102.292 133.264L102.32 133.308L105.736 138.604C105.959 138.911 106.291 139.123 106.664 139.196C107.31 139.332 107.98 139.312 108.618 139.14C109.257 138.968 109.845 138.647 110.336 138.204C110.607 137.972 110.792 137.655 110.86 137.304Z" fill="#E0E0E0"/>
<path d="M91.3435 68.836C91.3453 68.8322 91.3462 68.8281 91.3462 68.824C91.3462 68.8198 91.3453 68.8157 91.3435 68.812L91.3115 68.688C91.2501 68.5668 91.1614 68.4615 91.0524 68.3803C90.9435 68.2991 90.8172 68.2442 90.6835 68.22C90.2799 68.1374 89.8626 68.1508 89.4651 68.2592C89.0677 68.3676 88.7013 68.5679 88.3955 68.844C88.2947 68.929 88.2145 69.0358 88.1612 69.1564C88.1078 69.277 88.0826 69.4082 88.0875 69.54L88.1315 69.7L105.732 134.684L109.448 135.668L91.3435 68.836Z" fill="#455A64"/>
<path d="M104.296 129.46L105.712 134.692L109.428 135.676L107.508 128.588C106.388 128.649 105.293 128.946 104.296 129.46Z" fill="#37474F"/>
<path d="M110.48 140.056L110.732 134.336C110.738 134.285 110.738 134.234 110.732 134.184C110.732 133.576 110.268 133.064 109.396 132.832C108.596 132.666 107.768 132.691 106.979 132.905C106.19 133.119 105.463 133.516 104.856 134.064C104.244 134.68 104.092 135.328 104.352 135.844V135.876L104.44 136.012L107.6 140.868C107.727 141.041 107.914 141.159 108.124 141.2C108.488 141.277 108.866 141.266 109.225 141.169C109.585 141.071 109.916 140.89 110.192 140.64C110.278 140.568 110.349 140.479 110.398 140.379C110.448 140.278 110.476 140.168 110.48 140.056Z" fill="#9269AD"/>
<path opacity="0.1" d="M110.48 140.056L110.732 134.336C110.738 134.285 110.738 134.234 110.732 134.184C110.732 133.576 110.268 133.064 109.396 132.832C108.596 132.666 107.768 132.691 106.979 132.905C106.19 133.119 105.463 133.516 104.856 134.064C104.244 134.68 104.092 135.328 104.352 135.844V135.876L104.44 136.012L107.6 140.868C107.727 141.041 107.914 141.159 108.124 141.2C108.488 141.277 108.866 141.266 109.225 141.169C109.585 141.071 109.916 140.89 110.192 140.64C110.278 140.568 110.349 140.479 110.398 140.379C110.448 140.278 110.476 140.168 110.48 140.056Z" fill="black"/>
<path d="M110.204 140.644C109.926 140.893 109.594 141.073 109.234 141.17C108.874 141.266 108.496 141.277 108.132 141.2C107.922 141.159 107.736 141.041 107.612 140.868L106.012 138.412C105.76 138.012 105.852 137.52 106.328 137.036C106.77 136.638 107.3 136.349 107.875 136.193C108.449 136.038 109.053 136.019 109.636 136.14C110.26 136.304 110.596 136.672 110.604 137.108V137.224L110.48 140.056C110.475 140.168 110.449 140.277 110.401 140.378C110.354 140.479 110.287 140.569 110.204 140.644Z" fill="#9269AD"/>
<path opacity="0.1" d="M109.88 139.448C110.54 139.624 110.68 140.156 110.204 140.648C109.928 140.898 109.597 141.079 109.237 141.177C108.878 141.274 108.5 141.285 108.136 141.208C107.476 141.036 107.336 140.5 107.812 140.008C108.088 139.758 108.419 139.578 108.779 139.48C109.138 139.383 109.515 139.372 109.88 139.448Z" fill="black"/>
<path d="M82.828 37.36C82.7792 37.2208 82.6928 37.0978 82.5784 37.0046C82.4641 36.9114 82.3262 36.8517 82.18 36.832C81.7789 36.7477 81.3636 36.7596 80.968 36.8666C80.5724 36.9737 80.2078 37.1729 79.904 37.448C79.7871 37.5421 79.6981 37.6663 79.6466 37.8073C79.5952 37.9483 79.5832 38.1007 79.612 38.248L88.084 69.552C88.0791 69.4202 88.1043 69.289 88.1576 69.1684C88.211 69.0478 88.2912 68.9409 88.392 68.856C88.6978 68.5799 89.0642 68.3796 89.4616 68.2712C89.8591 68.1628 90.2764 68.1494 90.68 68.232C90.8137 68.2562 90.94 68.311 91.0489 68.3922C91.1579 68.4734 91.2466 68.5788 91.308 68.7L82.828 37.36Z" fill="#FAFAFA"/>
<path d="M82.5356 38.144C82.2312 38.4182 81.8666 38.6169 81.4711 38.7239C81.0757 38.8309 80.6606 38.8433 80.2595 38.76C80.1152 38.7393 79.9794 38.6795 79.8666 38.5871C79.7538 38.4948 79.6684 38.3734 79.6195 38.236C79.5871 38.0894 79.5965 37.9367 79.6467 37.7952C79.6969 37.6537 79.7859 37.5293 79.9035 37.436C80.2074 37.1609 80.572 36.9617 80.9676 36.8547C81.3632 36.7476 81.7785 36.7357 82.1796 36.82C82.3257 36.8397 82.4636 36.8995 82.578 36.9926C82.6924 37.0858 82.7787 37.2088 82.8276 37.348C82.8551 37.4947 82.8426 37.6461 82.7912 37.7862C82.7398 37.9263 82.6514 38.0499 82.5356 38.144Z" fill="#F5F5F5"/>
<path d="M84.2199 32.712V32.672C84.2217 32.652 84.2217 32.6319 84.2199 32.612L82.7359 27.144C82.7263 27.1007 82.7143 27.058 82.6999 27.016V26.984C82.5079 26.424 81.9599 25.964 81.0999 25.732C80.0811 25.5204 79.0266 25.5521 78.0223 25.8245C77.018 26.097 76.0922 26.6025 75.3199 27.3C74.6399 27.98 74.4079 28.696 74.5759 29.3L76.0799 34.84C76.0782 34.8492 76.0782 34.8587 76.0799 34.868V34.9C76.2599 35.484 76.8119 35.96 77.7119 36.2C78.7308 36.411 79.7851 36.3789 80.7893 36.1065C81.7934 35.8341 82.7193 35.3289 83.4919 34.632C84.1079 34 84.3479 33.304 84.2199 32.712Z" fill="#9269AD"/>
<path opacity="0.05" d="M84.2199 32.712V32.672C84.2217 32.652 84.2217 32.6319 84.2199 32.612L82.7359 27.144C82.7263 27.1007 82.7143 27.058 82.6999 27.016V26.984C82.5079 26.424 81.9599 25.964 81.0999 25.732C80.0811 25.5204 79.0266 25.5521 78.0223 25.8245C77.018 26.097 76.0922 26.6025 75.3199 27.3C74.6399 27.98 74.4079 28.696 74.5759 29.3L76.0799 34.84C76.0782 34.8492 76.0782 34.8587 76.0799 34.868V34.9C76.2599 35.484 76.8119 35.96 77.7119 36.2C78.7308 36.411 79.7851 36.3789 80.7893 36.1065C81.7934 35.8341 82.7193 35.3289 83.4919 34.632C84.1079 34 84.3479 33.304 84.2199 32.712Z" fill="black"/>
<path opacity="0.1" d="M82.5559 31.296C84.4039 31.784 84.8078 33.296 83.4598 34.636C82.6873 35.333 81.7614 35.8381 80.7572 36.1105C79.753 36.383 78.6987 36.415 77.6799 36.204C75.8319 35.712 75.4279 34.204 76.7759 32.864C77.5481 32.1665 78.474 31.661 79.4783 31.3886C80.4826 31.1161 81.537 31.0844 82.5559 31.296Z" fill="black"/>
<path d="M110.34 142.432L109.76 140.136C109.739 140.068 109.7 140.008 109.646 139.962C109.592 139.916 109.526 139.886 109.456 139.876C109.269 139.838 109.076 139.844 108.892 139.894C108.708 139.944 108.538 140.037 108.396 140.164C108.345 140.208 108.305 140.265 108.281 140.328C108.257 140.392 108.25 140.461 108.26 140.528L108.832 142.824C108.87 142.95 108.939 143.064 109.032 143.156C109.152 143.275 109.307 143.353 109.474 143.376C109.642 143.4 109.812 143.369 109.96 143.287C110.108 143.205 110.226 143.078 110.295 142.924C110.364 142.769 110.382 142.597 110.344 142.432H110.34Z" fill="#455A64"/>
<path d="M110.356 142.58C110.362 142.535 110.362 142.489 110.356 142.444C110.324 142.391 110.281 142.345 110.23 142.309C110.179 142.274 110.121 142.25 110.06 142.24C109.873 142.2 109.679 142.205 109.495 142.256C109.31 142.306 109.141 142.399 109 142.528C108.947 142.57 108.908 142.625 108.884 142.688C108.861 142.75 108.855 142.818 108.868 142.884C108.865 142.899 108.865 142.913 108.868 142.928C108.867 142.941 108.867 142.955 108.868 142.968C108.902 143.047 108.953 143.118 109.016 143.176C109.165 143.318 109.362 143.397 109.568 143.397C109.773 143.397 109.971 143.318 110.12 143.176C110.201 143.1 110.264 143.008 110.305 142.905C110.346 142.801 110.363 142.691 110.356 142.58Z" fill="#263238"/>
<path d="M109.092 67.28C114.632 69.724 115.284 72.768 116.264 76.708C117.244 80.648 120.992 89.04 122.46 92.832C123.928 96.624 124.252 97.596 122.784 102.732C121.316 107.868 117.156 117.932 117.156 117.932C117.156 117.932 104.688 78.46 103.876 74.4C103.064 70.34 103.548 65.82 109.092 67.28Z" fill="#FFA8A7"/>
<path d="M121.548 100.092C121.542 100.102 121.539 100.114 121.539 100.126C121.539 100.138 121.542 100.15 121.548 100.16C121.724 100.216 121.992 100.096 122.168 100.064C122.344 100.032 122.616 99.976 122.84 99.944C123.064 99.912 123.28 99.892 123.512 99.88C123.54 99.732 123.564 99.588 123.588 99.452C123.022 99.5182 122.465 99.6525 121.932 99.852C121.781 99.8872 121.645 99.9717 121.548 100.092ZM121.524 97.412C122.076 97.2036 122.648 97.0521 123.232 96.96C123.384 96.9399 123.538 96.9279 123.692 96.924C123.692 96.772 123.656 96.62 123.628 96.472C123.46 96.472 123.296 96.496 123.128 96.52C122.496 96.5914 121.886 96.7915 121.336 97.108C121.156 97.2 121.356 97.468 121.524 97.412ZM123.38 98C123.026 98.0153 122.673 98.0527 122.324 98.112C121.604 98.2156 120.909 98.4516 120.276 98.808C120.124 98.9 120.328 99.104 120.46 99.06C121.056 98.8315 121.668 98.6483 122.292 98.512C122.592 98.455 122.895 98.4176 123.2 98.4C123.356 98.4 123.528 98.4 123.696 98.4C123.696 98.26 123.716 98.128 123.72 98C123.6 98 123.492 98 123.38 98Z" fill="#F28F8F"/>
<path d="M117.924 91.936C115.661 87.5082 113.69 82.9371 112.024 78.252L107.04 76.708L105.388 79.884C108.904 91.8 117.156 117.928 117.156 117.928C117.156 117.928 117.772 116.436 118.616 114.328C118.616 114.328 119.728 105.096 120.216 100.964C120.704 96.832 119.528 94.948 117.924 91.936Z" fill="#F28F8F"/>
<path d="M99.9598 114.6C99.6518 114.392 99.3438 114.2 99.0398 113.964C94.9158 110.932 90.5238 107.808 87.9998 103.2L72.7998 109.552C75.3906 112.403 78.1502 115.096 81.0638 117.616C83.5238 119.848 91.0038 122.912 95.8638 125.356C100.724 127.8 102.764 129.012 103.988 128.324C105.42 127.556 107.176 119.504 99.9598 114.6Z" fill="#FFA8A7"/>
<path d="M82.4316 118.628C82.4836 118.452 82.5356 118.28 82.5996 118.108C82.7331 117.75 82.8867 117.4 83.0596 117.06C83.2661 116.735 83.4402 116.391 83.5796 116.032C83.5996 115.944 83.4796 115.796 83.3916 115.864C83.0765 116.155 82.8211 116.504 82.6396 116.892C82.4246 117.285 82.2414 117.694 82.0916 118.116C82.0636 118.192 82.0436 118.272 82.0156 118.348L82.4316 118.628Z" fill="#F28F8F"/>
<path d="M84.0202 119.432C84.1811 118.833 84.3981 118.25 84.6682 117.692C84.9014 117.22 85.1872 116.776 85.5202 116.368C85.7521 116.078 86.0105 115.81 86.2922 115.568C86.5242 115.38 86.7682 115.212 86.9802 115.004C87.0362 114.948 86.9562 114.8 86.8762 114.82C86.2859 115.006 85.7556 115.345 85.3402 115.804C84.8919 116.251 84.5106 116.76 84.2082 117.316C83.8816 117.922 83.6265 118.563 83.4482 119.228L83.9882 119.54C84.0002 119.52 84.0002 119.476 84.0202 119.432Z" fill="#F28F8F"/>
<path d="M85.684 119.3C85.8498 118.841 86.049 118.394 86.28 117.964C86.3793 117.779 86.4888 117.6 86.608 117.428C86.7486 117.27 86.8585 117.087 86.932 116.888C86.932 116.8 86.828 116.66 86.736 116.708C86.3337 117.003 86.0074 117.39 85.784 117.836C85.5323 118.253 85.3156 118.691 85.136 119.144C85.024 119.432 84.924 119.724 84.832 120.02L85.352 120.296C85.456 119.96 85.56 119.628 85.684 119.3Z" fill="#F28F8F"/>
<path d="M93.8398 124.36C94.0553 122.835 94.7933 121.433 95.9278 120.392C95.9278 120.392 99.4118 121.852 100.9 123.192C102.388 124.532 103.536 127.488 102.608 128.436C100.476 128.444 97.5998 126.344 93.8398 124.36Z" fill="#FFC4C3"/>
<path opacity="0.3" d="M93.8398 124.36C94.2798 124.592 94.7038 124.824 95.1198 125.056C95.5749 123.54 95.8436 121.973 95.9198 120.392C94.7883 121.434 94.0532 122.837 93.8398 124.36Z" fill="white"/>
<path d="M100.248 90.148C102.688 94.148 106.44 101.348 106.484 102.276C106.732 107.528 106.432 113.016 106.432 118.696C106.432 124.376 106.384 128.524 108.876 132.296C111.132 135.696 115.276 136.632 115.864 132.916C116.376 129.736 116.696 123.264 117.156 117.94C117.616 112.616 118.836 104.904 119.156 100.596C119.476 96.288 116.644 92.06 114.736 86.488C113.08 81.644 111.676 75.524 109.08 72.928C106.484 70.332 96.6601 65.468 93.0801 63.58L100.248 90.148Z" fill="#FFA8A7"/>
<path d="M118.871 100.928C118.564 100.95 118.255 100.95 117.947 100.928C117.307 100.863 116.673 100.748 116.051 100.584C115.891 100.552 115.931 100.78 116.027 100.832C116.656 101.119 117.336 101.276 118.027 101.292C118.371 101.318 118.716 101.318 119.059 101.292H119.091C119.091 101.16 119.111 101.036 119.119 100.912L118.871 100.928Z" fill="#F28F8F"/>
<path d="M115.2 97.068C115.092 97.12 115.228 97.308 115.324 97.284C116.067 97.0859 116.843 97.0423 117.604 97.156C117.941 97.2159 118.271 97.3111 118.588 97.44L118.88 97.58C118.844 97.408 118.804 97.236 118.764 97.064C118.423 96.926 118.067 96.8267 117.704 96.768C116.858 96.611 115.985 96.7156 115.2 97.068Z" fill="#F28F8F"/>
<path d="M116.668 98.46C116.061 98.4365 115.454 98.4876 114.86 98.612C114.36 98.724 113.628 98.848 113.3 99.284C113.3 99.284 113.3 99.352 113.32 99.352C113.599 99.3438 113.875 99.2953 114.14 99.208C114.428 99.136 114.716 99.072 115.008 99.028C116.088 98.855 117.192 98.9205 118.244 99.22C118.553 99.3104 118.855 99.4227 119.148 99.556C119.148 99.352 119.148 99.156 119.112 98.94C118.892 98.86 118.668 98.788 118.452 98.728C117.87 98.5674 117.271 98.4775 116.668 98.46Z" fill="#F28F8F"/>
<path d="M116.844 120.968C116.636 120.9 116.42 120.84 116.208 120.78C115.768 120.664 115.328 120.56 114.88 120.476C114.857 120.47 114.833 120.469 114.809 120.473C114.786 120.477 114.763 120.486 114.743 120.499C114.723 120.512 114.706 120.53 114.693 120.55C114.68 120.57 114.672 120.592 114.668 120.616C114.668 120.728 114.772 120.804 114.868 120.82C115.268 120.9 115.668 120.988 116.088 121.096L116.676 121.268L116.888 121.336L116.912 120.988L116.844 120.968Z" fill="#F28F8F"/>
<path d="M115.512 119.512C115.964 119.647 116.408 119.81 116.84 120L116.984 120.064L117.02 119.592L116.972 119.568C116.511 119.383 116.04 119.228 115.56 119.104C115.085 118.981 114.602 118.887 114.116 118.824C113.602 118.725 113.076 118.715 112.56 118.796C112.464 118.796 112.508 118.968 112.588 118.984C113.096 119.084 113.616 119.112 114.124 119.2C114.592 119.278 115.055 119.382 115.512 119.512Z" fill="#F28F8F"/>
<path d="M114.764 118.252C115.396 118.393 116.02 118.57 116.632 118.78C116.78 118.832 116.924 118.892 117.068 118.952C117.068 118.82 117.092 118.692 117.1 118.552L116.796 118.436C116.127 118.22 115.441 118.064 114.744 117.972C114.564 117.96 114.632 118.224 114.764 118.252Z" fill="#F28F8F"/>
<path d="M116.596 125.34C114.252 123.08 111.796 123.884 111.796 123.884C111.504 125.796 111.396 127.731 111.472 129.664C111.64 132.368 113.424 133.692 114.788 133.924C116.152 134.156 116.332 131.488 116.596 125.34Z" fill="#FFC4C3"/>
<path opacity="0.3" d="M116.552 126.336C116.552 126.016 116.58 125.684 116.596 125.34C114.252 123.08 111.796 123.884 111.796 123.884C112.264 124.716 114.856 126.176 116.552 126.336Z" fill="white"/>
<path d="M110.4 73.644C109.316 72.164 107.692 71.292 106.092 70.476C105.188 70.0383 104.311 69.5454 103.468 69C103.42 68.964 103.408 69.068 103.436 69.096C104.704 70.216 106.236 70.996 107.62 71.932C109.137 72.8829 110.313 74.2923 110.976 75.956C111.4 76.92 111.752 77.912 112.136 78.892C112.164 78.968 112.224 78.92 112.216 78.856C112 77.04 111.488 75.136 110.4 73.644Z" fill="#F28F8F"/>
<path d="M118.399 42C118.399 29.104 132.991 18.652 150.991 18.652C168.991 18.652 183.599 29.1 183.599 42C183.599 54.9 169.003 65.352 151.003 65.352C149.918 65.352 148.851 65.3134 147.803 65.236C144.243 71.928 138.203 73.076 133.483 72.544C135.155 71.7611 136.538 70.4742 137.44 68.8642C138.342 67.2542 138.717 65.402 138.511 63.568C126.695 60.052 118.399 51.72 118.399 42Z" fill="white"/>
<path d="M133.424 72.876C133.35 72.868 133.281 72.8358 133.227 72.7844C133.174 72.733 133.139 72.6654 133.128 72.592C133.116 72.5182 133.128 72.4426 133.164 72.3768C133.199 72.311 133.255 72.2587 133.324 72.228C134.893 71.4902 136.198 70.2898 137.065 68.7882C137.931 67.2866 138.318 65.5556 138.172 63.828C125.948 60.112 118.06 51.564 118.06 42C118.06 28.94 132.836 18.312 150.992 18.312C169.148 18.312 183.928 28.936 183.928 42C183.928 55.064 169.152 65.692 150.992 65.692C150.008 65.692 148.992 65.656 147.98 65.592C144.616 71.728 139.276 72.996 135.444 72.996C134.769 72.9939 134.094 72.9539 133.424 72.876ZM147.824 64.876C148.896 64.952 149.968 64.992 151.024 64.992C168.808 64.992 183.276 54.668 183.276 41.98C183.276 29.292 168.808 18.972 151.024 18.972C133.24 18.972 118.74 29.308 118.74 42C118.74 51.312 126.532 59.652 138.592 63.244C138.656 63.2635 138.713 63.3016 138.756 63.3536C138.799 63.4056 138.825 63.4691 138.832 63.536C139.011 65.241 138.715 66.9625 137.975 68.509C137.235 70.0556 136.08 71.3665 134.64 72.296C138.368 72.468 144.056 71.524 147.484 65.096C147.513 65.0416 147.556 64.9962 147.609 64.9645C147.661 64.9328 147.722 64.916 147.784 64.916L147.824 64.876Z" fill="#E0E0E0"/>
<path d="M158.799 57.6L160.079 57.772L159.987 58.52H155.707L155.803 57.772L157.051 57.584L156.363 54.944H152.695L151.771 57.584L153.179 57.772L153.083 58.52H149.399L149.491 57.772L150.663 57.584L154.263 47.668L155.983 47.48L158.799 57.6ZM156.115 54L154.799 48.92H154.751L152.999 54H156.115Z" fill="#E0E0E0"/>
<path d="M136.252 48.8L136.44 43.416L135.688 43.244L135.735 42.844H136.995L137.128 42.936L137.028 45.612L136.811 47.512H136.876L137.176 46.396C137.468 45.296 137.836 44.82 138.564 44.82C139.4 44.82 139.764 45.472 139.764 46.54C139.764 48.224 138.944 49.144 137.804 49.144C137.267 49.1464 136.737 49.0289 136.252 48.8ZM137.256 47.556L136.988 48.484C137.237 48.605 137.51 48.6692 137.788 48.672C138.54 48.672 139.028 47.82 139.028 46.624C139.028 46.172 139.028 45.424 138.452 45.424C137.82 45.428 137.66 46.188 137.256 47.572V47.556Z" fill="#E0E0E0"/>
<path d="M130.699 35.476C130.704 35.5465 130.695 35.6173 130.671 35.6838C130.647 35.7503 130.609 35.811 130.56 35.8619C130.511 35.9128 130.451 35.9529 130.386 35.9794C130.32 36.006 130.25 36.0184 130.179 36.016C130.067 36.0149 129.957 35.9805 129.864 35.9172C129.77 35.8538 129.698 35.7644 129.655 35.66L129.823 35.46C130.139 35.104 129.823 34.9 129.423 34.9C128.679 34.9 128.251 35.58 128.251 36.808C128.251 37.576 128.543 38.192 129.199 38.192C129.415 38.1692 129.624 38.1028 129.813 37.9969C130.002 37.891 130.167 37.7478 130.299 37.576L130.595 37.884C130.423 38.1415 130.193 38.3555 129.924 38.5089C129.654 38.6623 129.353 38.751 129.043 38.768C127.995 38.768 127.443 37.968 127.443 36.836C127.443 35.444 128.203 34.436 129.443 34.436C130.155 34.424 130.699 34.8 130.699 35.476Z" fill="#E0E0E0"/>
<path d="M155.488 31.92C155.86 32.72 155.268 33.332 154.712 33.772L154 34.348C154.272 34.82 154.8 35.276 155.432 34.996C155.786 34.7978 156.049 34.4691 156.164 34.08L156.54 34.236C156.478 34.5183 156.353 34.7829 156.174 35.01C155.995 35.2372 155.767 35.4211 155.508 35.548C154.56 35.984 153.708 35.472 153.244 34.464C152.664 33.2 152.948 31.964 154.004 31.48C154.728 31.14 155.228 31.356 155.488 31.92ZM154.132 31.92C153.524 32.204 153.404 32.952 153.796 33.92L154.448 33.388C154.904 33.02 155.064 32.712 154.848 32.236C154.712 31.956 154.468 31.756 154.132 31.912V31.92Z" fill="#E0E0E0"/>
<path d="M151.816 39.908L151.336 41.068L153.068 41.676L152.744 42.432L151.064 41.844L149.464 45.868C148.876 47.332 147.924 48.772 146.94 49.38C146.755 49.5175 146.54 49.6098 146.313 49.6494C146.086 49.689 145.853 49.6748 145.632 49.608C145.12 49.428 144.88 49.056 144.992 48.656C145.111 48.3377 145.332 48.0677 145.62 47.888L146.088 48.312C146.464 48.656 146.868 48.644 147.172 48.032C147.368 47.632 147.516 47.256 147.724 46.744L149.816 41.404L148.736 41.004L149.068 40.348L150.12 40.604L150.4 40C151.06 38.4 152.352 37.496 153.98 38.072C154.78 38.352 155.668 39.08 155.296 40.136C155.267 40.2417 155.215 40.3399 155.145 40.4238C155.074 40.5076 154.986 40.5751 154.887 40.6215C154.787 40.6679 154.679 40.6922 154.57 40.6926C154.46 40.6931 154.352 40.6696 154.252 40.624C154.115 40.5784 153.991 40.5026 153.888 40.4022C153.784 40.3018 153.705 40.1793 153.656 40.044L153.908 39.732C154.308 39.236 154.24 38.876 153.68 38.68C152.832 38.4 152.196 38.996 151.816 39.908Z" fill="#E0E0E0"/>
<path d="M165.599 41.072L164.963 41.904C163.967 43.192 163.235 43.728 162.163 43.28C161.003 42.796 160.963 41.536 161.503 40.244C162.343 38.216 163.903 37.244 165.447 37.876C165.922 38.0733 166.356 38.3567 166.727 38.712L167.255 38.612L167.535 38.856L165.419 43.46C164.643 45.148 163.327 46.544 161.179 45.656C160.419 45.34 159.639 44.712 159.979 43.92C160.01 43.8171 160.061 43.7217 160.13 43.6397C160.199 43.5577 160.285 43.4909 160.381 43.4436C160.477 43.3962 160.582 43.3693 160.689 43.3646C160.796 43.3598 160.903 43.3773 161.003 43.416C161.12 43.4642 161.226 43.537 161.312 43.6295C161.398 43.722 161.463 43.832 161.503 43.952L161.275 44.228C160.903 44.628 160.987 44.948 161.583 45.196C162.711 45.664 163.743 44.832 164.607 43.196L165.695 41.132L165.599 41.072ZM165.403 40.472L166.307 39.308C166.004 38.9984 165.644 38.75 165.247 38.576C164.231 38.152 163.135 39.044 162.491 40.576C162.299 41.032 161.795 42.248 162.631 42.576C163.467 42.904 164.163 42.048 165.391 40.472H165.403Z" fill="#E0E0E0"/>
<path d="M128.72 47.412C128.434 47.5501 128.173 47.7354 127.948 47.96L127.44 47.292C127.864 46.7641 128.414 46.3515 129.04 46.092C129.912 45.76 130.58 46.092 130.932 47.292L132.36 52C132.484 52.4 132.616 52.628 132.944 52.504C133.236 52.3504 133.474 52.1119 133.628 51.82L134.232 52.336C133.899 53.0062 133.339 53.5364 132.652 53.832C131.604 54.232 131.084 53.756 130.812 52.86L129.328 47.86C129.22 47.476 129.06 47.284 128.72 47.412ZM128.024 42.52C128.231 42.4461 128.454 42.4348 128.667 42.4874C128.88 42.54 129.073 42.6541 129.222 42.8157C129.37 42.9772 129.468 43.1789 129.502 43.3956C129.536 43.6123 129.506 43.8343 129.415 44.0339C129.324 44.2335 129.176 44.4019 128.99 44.5179C128.804 44.634 128.588 44.6926 128.368 44.6864C128.149 44.6802 127.937 44.6095 127.757 44.4832C127.578 44.3568 127.44 44.1804 127.36 43.976C127.301 43.8375 127.272 43.6882 127.274 43.5377C127.275 43.3872 127.309 43.2387 127.371 43.1017C127.434 42.9647 127.524 42.8423 127.636 42.7421C127.749 42.642 127.881 42.5663 128.024 42.52Z" fill="#E0E0E0"/>
<path d="M150.184 29.636C149.564 29.636 149.384 29.272 149.428 28.776L149.688 25.816C149.748 25.08 149.624 24.852 149.288 24.852C148.888 24.852 148.716 25.144 148.392 26.052L147.192 29.476H146.34L146.504 25.156C146.504 24.868 146.444 24.756 146.224 24.756C146.011 24.7832 145.804 24.8454 145.612 24.94L145.436 24.424C145.806 24.2243 146.215 24.1069 146.636 24.08C147.228 24.08 147.436 24.444 147.36 25.14L147.1 27.912H147.176L147.932 25.66C148.304 24.556 148.732 24.06 149.532 24.06C150.456 24.06 150.704 24.652 150.6 25.856L150.372 28.532C150.34 28.844 150.372 28.98 150.612 28.98C150.826 28.9589 151.028 28.8723 151.192 28.732L151.432 29.104C151.084 29.4115 150.646 29.5981 150.184 29.636Z" fill="#E0E0E0"/>
<path d="M171.72 32.044C173.132 32.044 173.944 33.092 173.944 34.688C173.944 36.284 173.228 37.768 171.408 37.768C169.996 37.768 169.208 36.72 169.208 35.104C169.208 33.488 169.892 32.044 171.72 32.044ZM172.94 34.676C172.94 33.508 172.608 32.676 171.636 32.676C170.488 32.676 170.224 33.876 170.224 35.16C170.224 36.36 170.624 37.16 171.472 37.16C172.62 37.136 172.94 35.968 172.94 34.676Z" fill="#E0E0E0"/>
<path d="M136.727 25.784C139.415 24.812 142.059 25.916 143.275 29.276C144.607 32.952 143.299 35.436 140.595 36.756L140.639 36.884C141.542 36.6923 142.48 36.7462 143.355 37.04C144.735 37.44 145.235 37.44 145.191 36.812L145.143 36.232C146.119 35.876 146.743 36.196 146.967 36.82C147.251 37.62 146.771 38.284 146.039 38.548C145.239 38.84 144.291 38.676 143.119 38.284C141.583 37.74 141.019 37.528 140.091 37.884C139.419 38.124 139.015 38.508 138.331 39.172L137.599 38.42C137.974 38.0174 138.399 37.6639 138.863 37.368L138.827 37.272C136.279 37.524 134.427 35.916 133.599 33.628C132.019 29.264 134.075 26.748 136.727 25.784ZM139.999 36.064C141.887 35.38 142.711 33.264 141.599 30.168C140.587 27.368 138.839 26.192 136.871 26.904C135.067 27.56 133.987 29.304 135.251 32.812C136.267 35.6 137.923 36.82 139.999 36.064Z" fill="#E0E0E0"/>
<path d="M164.324 51.424C164.158 51.4456 163.998 51.4943 163.848 51.568L163.712 51.168C163.999 51.0155 164.315 50.9255 164.64 50.904C165.1 50.904 165.256 51.184 165.208 51.728L165.092 52.876H165.144L165.58 51.848C165.844 51.216 166.048 50.896 166.524 50.896C166.602 50.8864 166.681 50.8934 166.756 50.9165C166.831 50.9396 166.9 50.9783 166.959 51.0301C167.018 51.0818 167.065 51.1455 167.098 51.2168C167.13 51.2882 167.147 51.3656 167.148 51.444C167.147 51.5641 167.111 51.6812 167.043 51.7804C166.976 51.8795 166.88 51.956 166.768 52L166.58 51.784C166.492 51.672 166.428 51.604 166.308 51.604C166.188 51.604 166.064 51.736 165.804 52.308C165.208 53.652 165.092 53.908 165.052 54.444L164.98 55.108H164.4L164.56 51.744C164.552 51.52 164.496 51.424 164.324 51.424Z" fill="#E0E0E0"/>
<path d="M158.135 26.224C159.027 26.016 159.435 26.46 159.539 27.236L160.131 31.436C160.271 32.372 160.419 32.692 160.887 32.584C161.355 32.476 161.503 31.98 161.635 30.64L162.123 25.512L163.539 25.184L164.715 31.312C164.791 31.712 164.919 31.864 165.227 31.792C165.508 31.6878 165.77 31.5392 166.003 31.352L166.435 32.02C165.975 32.4375 165.429 32.7488 164.835 32.932C163.971 33.132 163.531 32.696 163.395 31.696L162.851 27.696H162.731L162.491 31.104C162.367 32.704 161.971 33.58 160.803 33.852C159.519 34.148 158.971 33.368 158.735 31.76L158.171 27.876C158.123 27.476 158.011 27.252 157.691 27.324C157.413 27.4194 157.17 27.5948 156.991 27.828L156.531 27.304C156.946 26.7914 157.504 26.4151 158.135 26.224Z" fill="#E0E0E0"/>
<path d="M143.668 54.128C143.543 54.8273 143.369 55.517 143.148 56.192C142.94 56.872 142.852 57.32 143.444 57.42C144.448 57.588 145.32 55.888 145.536 54.8C145.628 54.324 145.536 54.192 145.288 54.044L144.932 53.848C144.956 53.276 145.276 52.932 145.776 53.016C146.42 53.124 146.608 53.628 146.488 54.344C146.216 55.944 144.988 58.54 143.112 58.224C142.82 58.1889 142.554 58.0404 142.371 57.8107C142.187 57.581 142.102 57.2884 142.132 56.996C141.935 57.2917 141.653 57.5212 141.323 57.6546C140.994 57.788 140.631 57.8191 140.284 57.744C139.732 57.652 138.884 57.32 139.208 55.852L139.808 53.096C139.876 52.772 139.7 52.696 139.408 52.724L139.04 52.78L138.96 52.208C139.386 52.0733 139.836 52.0311 140.28 52.084C140.403 52.0919 140.523 52.1282 140.63 52.1901C140.737 52.252 140.828 52.3379 140.897 52.441C140.965 52.5441 141.008 52.6616 141.023 52.7842C141.038 52.9069 141.025 53.0314 140.984 53.148L140.4 55.796C140.244 56.484 140.24 56.872 140.732 56.956C141.752 57.128 142.268 55.756 142.54 54.132C142.617 53.6753 142.668 53.2146 142.692 52.752L143.792 52.812C143.793 53.2537 143.752 53.6944 143.668 54.128Z" fill="#E0E0E0"/>
<path d="M172.556 46.556L175.4 43.38L174.42 42.936L174.616 42.388L177.504 43.032L177.284 43.624H176.28L172.68 47.492L172.052 49.852L173.144 50.252L172.94 50.82L169.624 50.084L169.824 49.512L170.844 49.576L171.504 47.232L170.108 42.208L169.248 41.808L169.468 41.228L172.668 41.936L172.464 42.52L171.436 42.456L172.512 46.528L172.556 46.556Z" fill="#E0E0E0"/>
</svg>
