<svg width="300" height="300" viewBox="0 0 300 300" fill="none" xmlns="http://www.w3.org/2000/svg">
<path d="M150 286.032C224.028 286.032 284.04 253.396 284.04 213.138C284.04 172.88 224.028 140.244 150 140.244C75.9717 140.244 15.96 172.88 15.96 213.138C15.96 253.396 75.9717 286.032 150 286.032Z" fill="#F5F5F5"/>
<path d="M150 209.322C161.154 209.322 170.196 204.1 170.196 197.658C170.196 191.216 161.154 185.994 150 185.994C138.846 185.994 129.804 191.216 129.804 197.658C129.804 204.1 138.846 209.322 150 209.322Z" fill="#E0E0E0"/>
<path d="M225.318 240.492C242.95 240.492 257.244 232.24 257.244 222.06C257.244 211.88 242.95 203.628 225.318 203.628C207.686 203.628 193.392 211.88 193.392 222.06C193.392 232.24 207.686 240.492 225.318 240.492Z" fill="#E0E0E0"/>
<path d="M68.6521 242.484C86.2843 242.484 100.578 234.232 100.578 224.052C100.578 213.872 86.2843 205.62 68.6521 205.62C51.0198 205.62 36.7261 213.872 36.7261 224.052C36.7261 234.232 51.0198 242.484 68.6521 242.484Z" fill="#E0E0E0"/>
<path d="M273 208.962L266.97 206.496C266.212 201.284 265.776 196.03 265.662 190.764C265.662 180.912 271.8 168.864 279.588 170.88C287.376 172.896 277.392 183.918 275.772 192.432C274.152 200.946 273 208.962 273 208.962Z" fill="#9269AD"/>
<path opacity="0.3" d="M273 208.962L266.97 206.496C266.212 201.284 265.776 196.03 265.662 190.764C265.662 180.912 271.8 168.864 279.588 170.88C287.376 172.896 277.392 183.918 275.772 192.432C274.152 200.946 273 208.962 273 208.962Z" fill="black"/>
<path d="M270.078 208.2C270.144 208.191 270.204 208.156 270.244 208.103C270.285 208.05 270.303 207.984 270.294 207.918C267.42 186.318 277.134 174.318 277.23 174.216C277.273 174.164 277.294 174.097 277.287 174.03C277.281 173.964 277.249 173.902 277.197 173.859C277.145 173.816 277.079 173.795 277.012 173.801C276.945 173.808 276.883 173.84 276.84 173.892C276.744 174.012 266.886 186.156 269.79 207.984C269.794 208.017 269.805 208.049 269.822 208.078C269.839 208.107 269.862 208.132 269.889 208.152C269.915 208.172 269.946 208.187 269.979 208.195C270.011 208.203 270.045 208.205 270.078 208.2Z" fill="white"/>
<path d="M276.096 210.402L272.946 208.974C272.003 204.121 272.146 199.119 273.366 194.328C275.388 186.564 282.12 181.776 285.51 182.568C289.656 183.534 290.058 187.368 288.846 190.038C287.4 193.2 277.428 201.762 276.096 210.402Z" fill="#9269AD"/>
<path opacity="0.1" d="M276.096 210.402L272.946 208.974C272.003 204.121 272.146 199.119 273.366 194.328C275.388 186.564 282.12 181.776 285.51 182.568C289.656 183.534 290.058 187.368 288.846 190.038C287.4 193.2 277.428 201.762 276.096 210.402Z" fill="black"/>
<path d="M274.458 209.904C274.526 209.896 274.587 209.862 274.63 209.81C274.673 209.757 274.693 209.689 274.686 209.622C273.27 195.918 285.228 185.382 285.354 185.28C285.4 185.231 285.425 185.167 285.425 185.1C285.425 185.033 285.4 184.969 285.354 184.92C285.331 184.896 285.303 184.877 285.272 184.864C285.241 184.851 285.208 184.844 285.174 184.844C285.141 184.844 285.108 184.851 285.077 184.864C285.046 184.877 285.018 184.896 284.994 184.92C284.868 185.028 272.718 195.72 274.152 209.7C274.167 209.767 274.207 209.826 274.264 209.864C274.321 209.902 274.391 209.916 274.458 209.904Z" fill="white"/>
<path d="M33.6002 203.442L37.7402 201.078C37.7402 201.078 39.7202 190.152 38.2382 180.756C36.1502 167.556 27.1562 162.99 23.8922 164.304C20.6282 165.618 19.8602 169.53 25.7582 177.162C29.2382 181.662 33.7142 191.184 33.6002 203.442Z" fill="#9269AD"/>
<g opacity="0.15">
<path opacity="0.15" d="M33.6002 203.442L37.7402 201.078C37.7402 201.078 39.7202 190.152 38.2382 180.756C36.1502 167.556 27.1562 162.99 23.8922 164.304C20.6282 165.618 19.8602 169.53 25.7582 177.162C29.2382 181.662 33.7142 191.184 33.6002 203.442Z" fill="black"/>
</g>
<path d="M35.1003 198.198H35.0583C35.0203 198.193 34.9837 198.18 34.9507 198.161C34.9176 198.141 34.8888 198.116 34.8659 198.085C34.843 198.054 34.8264 198.019 34.8172 197.982C34.808 197.945 34.8063 197.906 34.8123 197.868C36.5163 185.502 31.5483 171.954 25.9563 166.494C25.9216 166.469 25.8927 166.436 25.8716 166.399C25.8505 166.361 25.8377 166.32 25.8341 166.277C25.8304 166.234 25.836 166.191 25.8505 166.151C25.865 166.11 25.8879 166.073 25.9179 166.043C25.9478 166.012 25.984 165.988 26.0241 165.972C26.0641 165.957 26.107 165.95 26.1499 165.952C26.1928 165.955 26.2347 165.966 26.2727 165.986C26.3107 166.006 26.344 166.034 26.3703 166.068C32.0583 171.6 37.1283 185.4 35.4003 197.94C35.3901 198.012 35.354 198.078 35.2988 198.126C35.2436 198.173 35.1731 198.199 35.1003 198.198Z" fill="white"/>
<path d="M22.1281 210.072C21.4741 210.444 20.1301 209.628 19.6141 209.28C18.729 208.67 18.0144 207.844 17.5381 206.88C17.0062 205.792 16.8258 204.565 17.0221 203.37C17.126 202.738 17.2744 202.115 17.4661 201.504L17.9881 199.704C18.1938 199.127 18.2835 198.516 18.2521 197.904C18.0961 196.662 16.9921 195.798 15.9961 195.048C14.8861 194.22 13.7401 193.128 13.7461 191.634C13.8235 190.477 14.2861 189.378 15.0601 188.514C15.7681 187.608 16.6141 186.81 17.2621 185.856C17.77 185.187 18.0308 184.362 18.0001 183.522C17.9314 183.011 17.7599 182.519 17.4961 182.076C16.8891 181.153 16.3593 180.182 15.9121 179.172C15.5461 178.128 15.6001 176.832 16.4161 176.082C16.7792 175.811 17.1929 175.615 17.6329 175.505C18.0729 175.396 18.5302 175.376 18.9781 175.446C19.8301 175.547 20.6495 175.833 21.3781 176.286C23.7481 177.6 25.0981 180.408 27.6121 181.422C28.6075 181.732 29.6215 181.979 30.6481 182.16C31.1634 182.256 31.6529 182.458 32.0849 182.755C32.5169 183.052 32.8819 183.436 33.1561 183.882C34.0801 185.724 32.3701 187.992 33.0181 189.948C33.6181 191.676 35.2741 192.348 36.2161 193.902C36.6023 194.589 36.7579 195.382 36.6601 196.164C36.5764 197.487 36.2531 198.784 35.7061 199.992C35.0906 201.193 34.3867 202.346 33.6001 203.442C33.5641 203.484 22.2301 210 22.1281 210.072Z" fill="#9269AD"/>
<path d="M28.8423 206.496C28.8029 206.494 28.7642 206.485 28.7284 206.469C28.6926 206.452 28.6604 206.429 28.6336 206.4C28.6069 206.371 28.5861 206.337 28.5725 206.3C28.5589 206.263 28.5527 206.223 28.5543 206.184C29.0403 194.484 23.5263 181.584 19.5183 177.804C19.4637 177.749 19.4331 177.674 19.4331 177.597C19.4331 177.519 19.4637 177.445 19.5183 177.39C19.5744 177.335 19.6498 177.304 19.7283 177.304C19.8069 177.304 19.8823 177.335 19.9383 177.39C24.0003 181.2 29.6343 194.34 29.1363 206.214C29.1332 206.29 29.1009 206.362 29.0461 206.414C28.9913 206.467 28.9183 206.496 28.8423 206.496Z" fill="white"/>
<path d="M27.09 192.666H27C24.2277 191.903 21.3812 191.443 18.51 191.292C18.4304 191.292 18.3541 191.26 18.2978 191.204C18.2416 191.148 18.21 191.071 18.21 190.992C18.21 190.912 18.2416 190.836 18.2978 190.78C18.3541 190.724 18.4304 190.692 18.51 190.692C21.4321 190.844 24.3291 191.312 27.15 192.09C27.187 192.101 27.2215 192.119 27.2515 192.143C27.2815 192.168 27.3065 192.198 27.3249 192.232C27.3432 192.266 27.3548 192.303 27.3587 192.342C27.3627 192.38 27.359 192.419 27.348 192.456C27.3305 192.512 27.2966 192.563 27.2507 192.6C27.2048 192.637 27.1489 192.66 27.09 192.666Z" fill="white"/>
<path d="M241.098 218.256L235.506 217.614L234.06 206.346L240.894 208.374L241.098 218.256Z" fill="#B16668"/>
<path d="M228.846 227.448C228.765 227.67 228.732 227.907 228.748 228.142C228.765 228.378 228.831 228.608 228.942 228.816C229.542 229.512 231.09 230.328 233.202 230.478C235.224 230.622 237.024 230.352 238.206 229.602C238.72 229.336 239.16 228.947 239.486 228.47C239.813 227.992 240.016 227.441 240.078 226.866C240.192 225.72 240.078 224.61 240.612 223.728C241.146 222.846 241.92 221.988 242.094 221.544C242.301 220.778 242.301 219.97 242.094 219.204L228.846 227.448Z" fill="#263238"/>
<path d="M234.372 217.416C234.354 217.851 234.275 218.281 234.138 218.694C233.829 219.583 233.414 220.431 232.902 221.22C232.651 221.64 232.37 222.041 232.062 222.42C231.462 223.146 230.694 223.746 230.046 224.442C229.359 225.098 228.918 225.971 228.798 226.914C228.714 228.498 231.234 229.038 232.56 229.272C233.99 229.522 235.458 229.448 236.856 229.056C237.59 228.865 238.253 228.466 238.766 227.907C239.279 227.349 239.62 226.654 239.748 225.906C239.826 225.462 239.796 225.012 239.85 224.574C240.025 223.563 240.447 222.61 241.08 221.802C241.447 221.336 241.763 220.831 242.022 220.296C242.436 219.318 242.106 218.214 241.842 217.242C241.614 216.396 241.338 215.442 241.038 215.508C241.038 215.946 241.038 216.006 240.744 216.3C240.45 216.594 240.336 217.242 239.916 217.572C240.05 217.206 240.148 216.829 240.21 216.444C240.236 216.29 240.204 216.132 240.12 216C239.981 215.876 239.814 215.785 239.634 215.736C239.01 215.527 238.367 215.381 237.714 215.298C236.823 215.196 235.923 215.196 235.032 215.298C234.846 215.331 234.678 215.429 234.558 215.574C234.45 215.734 234.392 215.922 234.39 216.114C234.36 216.342 234.384 216.996 234.372 217.416Z" fill="#455A64"/>
<path d="M232.686 221.556C233.286 221.112 235.404 221.106 236.124 221.184C236.858 221.247 237.564 221.495 238.176 221.904C238.265 221.968 238.375 221.998 238.485 221.99C238.594 221.981 238.697 221.934 238.776 221.856C238.821 221.811 238.856 221.757 238.879 221.697C238.901 221.637 238.911 221.573 238.906 221.509C238.902 221.445 238.883 221.383 238.853 221.327C238.822 221.271 238.779 221.222 238.728 221.184C238.055 220.688 237.257 220.391 236.424 220.326C235.384 220.25 234.339 220.311 233.316 220.506C233.316 220.506 232.512 221.028 232.686 221.556Z" fill="#F5F5F5"/>
<path d="M231.33 223.2C232.074 222.762 234.33 222.822 235.056 222.9C235.776 222.974 236.463 223.237 237.048 223.662C237.138 223.725 237.247 223.754 237.357 223.745C237.466 223.737 237.569 223.69 237.648 223.614C237.694 223.569 237.729 223.515 237.751 223.455C237.774 223.395 237.783 223.331 237.778 223.267C237.774 223.203 237.756 223.141 237.725 223.085C237.694 223.029 237.651 222.98 237.6 222.942C236.616 222.432 235.542 222.118 234.438 222.018C232.638 221.892 232.2 222.252 232.2 222.252C231.994 222.335 231.808 222.463 231.658 222.628C231.507 222.792 231.395 222.987 231.33 223.2Z" fill="#F5F5F5"/>
<path d="M237.132 218.628C236.117 218.512 235.089 218.575 234.096 218.814C233.784 218.988 233.574 219.486 233.778 219.612C234.685 219.368 235.625 219.274 236.562 219.336C237.227 219.403 237.876 219.581 238.482 219.864C238.638 219.936 238.818 220.026 238.974 220.116C239.024 220.148 239.081 220.169 239.14 220.177C239.198 220.185 239.258 220.181 239.315 220.163C239.372 220.146 239.425 220.117 239.469 220.078C239.514 220.039 239.55 219.99 239.574 219.936C239.617 219.848 239.625 219.747 239.597 219.652C239.57 219.558 239.508 219.478 239.424 219.426C238.726 219 237.944 218.728 237.132 218.628Z" fill="#F5F5F5"/>
<path d="M220.248 213.132L214.932 211.65V200.904L221.526 201.192L220.248 213.132Z" fill="#B16668"/>
<path d="M203.7 218.886C203.55 219.349 203.578 219.852 203.778 220.296C203.976 220.704 206.13 221.922 209.034 221.724C211.185 221.57 213.256 220.845 215.034 219.624C216.138 218.892 217.29 218.754 218.73 218.676C220.17 218.598 222.054 217.872 222.372 217.2C222.534 216.598 222.517 215.963 222.324 215.37L203.7 218.886Z" fill="#263238"/>
<path d="M215.4 209.826L215.172 209.778C215.046 209.748 214.914 209.748 214.788 209.778C214.648 209.824 214.524 209.907 214.428 210.018C214.145 210.383 213.897 210.775 213.69 211.188C213.09 212.178 211.8 212.988 210.408 213.75C209.46 214.26 208.53 214.656 207.552 215.094C206.574 215.532 205.224 215.82 204.444 216.348C203.304 217.116 203.154 219.042 204.444 219.804C205.56 220.464 208.512 221.178 211.602 220.302C213.282 219.822 215.154 218.028 217.362 217.854C218.766 217.74 221.424 217.35 222.33 216.282C222.666 215.808 222.216 214.308 221.85 213.012C221.448 211.596 221.07 209.412 220.602 209.514C220.606 209.615 220.586 209.716 220.543 209.808C220.5 209.9 220.436 209.98 220.356 210.042C220.182 210.222 219.948 210.336 219.756 210.498C219.428 210.82 219.164 211.201 218.976 211.62C218.9 211.807 218.759 211.96 218.58 212.052C218.34 212.136 218.166 211.992 217.98 211.896C217.716 211.775 217.418 211.754 217.14 211.836C217.169 211.555 217.219 211.276 217.29 211.002C217.317 210.916 217.317 210.824 217.29 210.738C217.256 210.651 217.192 210.579 217.11 210.534C216.596 210.181 216.013 209.94 215.4 209.826Z" fill="#455A64"/>
<path d="M211.74 212.964C211.84 212.77 211.988 212.605 212.169 212.483C212.351 212.361 212.56 212.287 212.778 212.268C213.414 212.148 214.542 212.622 215.244 213.198C215.311 213.252 215.363 213.321 215.397 213.4C215.431 213.478 215.445 213.564 215.438 213.649C215.431 213.735 215.403 213.817 215.357 213.889C215.31 213.961 215.247 214.021 215.172 214.062C215.077 214.116 214.969 214.138 214.861 214.126C214.753 214.114 214.652 214.069 214.572 213.996C213.797 213.298 212.782 212.928 211.74 212.964Z" fill="#F5F5F5"/>
<path d="M209.754 214.074C209.893 213.877 210.077 213.717 210.291 213.606C210.506 213.496 210.743 213.438 210.984 213.438C211.97 213.481 212.918 213.836 213.69 214.452C213.753 214.505 213.803 214.572 213.834 214.648C213.866 214.723 213.879 214.806 213.872 214.888C213.865 214.97 213.838 215.049 213.794 215.118C213.749 215.187 213.689 215.245 213.618 215.286C213.524 215.342 213.415 215.366 213.307 215.354C213.198 215.342 213.097 215.295 213.018 215.22C212.593 214.798 212.08 214.476 211.515 214.278C210.951 214.08 210.349 214.01 209.754 214.074Z" fill="#F5F5F5"/>
<path d="M207.6 215.07C207.758 214.889 207.954 214.744 208.174 214.646C208.393 214.547 208.632 214.498 208.872 214.5C209.822 214.559 210.729 214.916 211.464 215.52C211.527 215.573 211.577 215.641 211.608 215.717C211.64 215.794 211.653 215.876 211.646 215.959C211.639 216.041 211.612 216.12 211.568 216.19C211.524 216.26 211.463 216.318 211.392 216.36C211.299 216.416 211.189 216.44 211.081 216.428C210.973 216.416 210.871 216.369 210.792 216.294C210.391 215.857 209.894 215.519 209.34 215.307C208.786 215.094 208.191 215.013 207.6 215.07Z" fill="#F5F5F5"/>
<path d="M239.874 143.022C240.24 154.104 240.264 178.104 240.264 178.104C240.378 179.484 240.498 181.932 240.6 186.9C240.75 194.1 241.098 211.878 241.098 211.878C241.098 211.878 237.66 213.492 234.498 212.178C234.498 212.178 230.106 187.182 229.206 180.054C228.42 173.832 226.914 159.24 226.914 159.24L224.838 177.762C224.838 177.762 224.838 182.562 224.556 186.798C224.322 190.098 221.118 207.096 221.118 207.096C219.025 207.652 216.815 207.579 214.764 206.886C214.764 206.886 214.476 180.792 214.416 177.762C214.35 174.318 215.238 137.082 215.238 137.082L239.874 143.022Z" fill="#455A64"/>
<path d="M226.926 159.24L226.134 152.958C223.577 152.304 221.158 151.195 218.994 149.682C218.994 149.682 220.518 151.722 224.994 153.882L226.002 159.582L224.862 177.762L226.926 159.24Z" fill="#37474F"/>
<path d="M214.956 111.924C213.336 114.048 205.002 125.484 205.002 125.484L197.304 119.52C195.504 118.11 194.97 116.262 193.842 114.984C192.714 113.706 191.478 113.4 190.212 112.332C188.946 111.264 188.46 110.454 188.028 111.366C187.596 112.278 188.994 113.868 189.228 114.252C189.462 114.636 190.908 115.554 189 115.452C187.092 115.35 183.42 113.172 182.532 112.77C181.644 112.368 181.62 113.466 182.04 114.186C182.46 114.906 182.25 116.91 182.742 118.2C183.234 119.49 184.098 120.282 185.856 121.152C187.494 121.968 191.478 122.478 192.774 123.294C195.618 126.21 200.982 131.652 202.338 132.66C204.204 134.046 206.01 135.324 208.866 132.576C211.722 129.828 219.996 119.046 219.996 119.046L221.706 108.792C218.898 108.69 216.912 109.362 214.956 111.924Z" fill="#B16668"/>
<path d="M205.002 125.484C206.058 126.264 207.156 128.016 207.258 128.802C207.246 128.057 207.079 127.323 206.77 126.646C206.46 125.969 206.013 125.363 205.458 124.866L205.002 125.484Z" fill="#9A4A4D"/>
<path d="M222.366 108.54C222.366 108.54 218.406 108.492 216.666 109.71C214.926 110.928 213.636 112.71 210.81 116.82C208.332 120.42 207.132 122.148 207.132 122.148C208.754 124.548 211.116 126.351 213.858 127.284L221.25 118.128L222.366 108.54Z" fill="#37474F"/>
<path d="M230.028 108.348C232.272 108.564 235.428 108.588 237.648 108.816C239.19 109.452 242.166 112.044 241.944 113.892C241.116 120.798 239.442 132.12 239.442 132.12L239.994 144.12C236.904 147.204 222.444 148.41 214.992 143.478C214.992 143.478 215.232 121.926 215.748 118.278C216.666 111.744 217.47 109.32 220.842 108.744C224.214 108.168 230.028 108.348 230.028 108.348Z" fill="#9269AD"/>
<path d="M242.736 112.098C244.356 114.222 252.696 125.658 252.696 125.658L260.4 119.694C262.2 118.278 262.734 116.43 263.862 115.158C264.99 113.886 266.226 113.574 267.492 112.506C268.758 111.438 269.244 110.628 269.676 111.534C270.108 112.44 268.71 114.042 268.476 114.426C268.242 114.81 266.796 115.728 268.704 115.626C270.612 115.524 274.278 113.34 275.172 112.938C276.066 112.536 276.078 113.634 275.664 114.354C275.25 115.074 275.448 117.084 274.962 118.374C274.476 119.664 273.606 120.45 271.848 121.326C270.21 122.142 266.226 122.652 264.93 123.468C262.086 126.378 256.722 131.826 255.366 132.828C253.5 134.214 251.694 135.492 248.838 132.75C245.982 130.008 239.454 121.47 239.454 121.47L235.998 108.966C238.8 108.864 240.786 109.536 242.736 112.098Z" fill="#B16668"/>
<path d="M252.696 125.658C251.64 126.438 250.542 128.19 250.44 128.976C250.451 128.23 250.617 127.495 250.927 126.817C251.237 126.138 251.684 125.531 252.24 125.034L252.696 125.658Z" fill="#9A4A4D"/>
<path d="M235.602 108.666C235.602 108.666 239.16 108.444 241.032 109.866C242.718 111.162 244.032 112.866 246.888 116.976C249.366 120.576 250.566 122.304 250.566 122.304C248.94 124.703 246.577 126.506 243.834 127.44L238.8 121.236C236.178 117.912 233.58 112.854 235.602 108.666Z" fill="#37474F"/>
<path d="M230.586 92.1C230.598 93.4764 230.201 94.8255 229.446 95.9766C228.691 97.1277 227.612 98.029 226.345 98.5667C225.078 99.1044 223.679 99.2543 222.327 98.9974C220.975 98.7405 219.729 98.0883 218.747 97.1234C217.765 96.1585 217.092 94.9241 216.812 93.5764C216.532 92.2287 216.657 90.8281 217.173 89.5519C217.689 88.2756 218.571 87.181 219.709 86.4063C220.847 85.6317 222.189 85.2119 223.566 85.2C224.48 85.1921 225.386 85.3643 226.234 85.7067C227.081 86.0492 227.853 86.5553 228.505 87.196C229.157 87.8367 229.676 88.5996 230.033 89.441C230.39 90.2824 230.578 91.186 230.586 92.1Z" fill="#263238"/>
<path d="M235.704 97.0083C235.704 97.0083 234.618 102.318 234.174 103.188C233.878 103.729 233.386 104.135 232.8 104.322L232.842 100.59L235.704 97.0083Z" fill="#263238"/>
<path d="M234.222 89.4303C234.616 89.3798 235.015 89.4201 235.391 89.548C235.766 89.6759 236.107 89.8881 236.388 90.1683C237.324 91.1103 236.832 94.0863 235.704 97.0083L233.58 97.2723L234.222 89.4303Z" fill="#263238"/>
<path d="M232.944 97.2781C233.37 97.5301 233.97 96.6781 234.492 96.1501C235.014 95.6221 236.718 94.8301 237.594 96.6241C238.47 98.4181 236.874 100.896 235.53 101.328C233.208 102.084 232.842 100.59 232.842 100.59L232.746 109.242C229.89 112.98 221.856 112.734 225.168 108.834V106.278C224.134 106.452 223.084 106.514 222.036 106.464C220.32 106.218 219.234 104.874 218.694 103.026C217.836 100.062 217.494 97.6621 218.154 91.8001C218.874 85.3801 226.332 85.2481 230.382 87.7501C234.432 90.2521 232.944 97.2781 232.944 97.2781Z" fill="#B16668"/>
<path d="M232.95 97.9921C233.16 97.9921 233.964 96.6361 234.492 96.1501C235.218 95.4721 234.222 89.4301 234.222 89.4301C234.471 88.8939 234.553 88.2951 234.457 87.7118C234.36 87.1284 234.09 86.5877 233.682 86.1601C232.668 85.0621 231.252 83.7241 226.692 84.3001C223.434 84.7141 219.9 85.7641 217.026 84.3841C216.77 85.3197 216.799 86.3104 217.109 87.2295C217.419 88.1486 217.996 88.9545 218.766 89.5441C218.766 89.5441 219.81 90.2041 222.54 90.5101C225.057 90.6757 227.584 90.6054 230.088 90.3001C230.88 90.1861 231.054 90.9481 231.498 93.0421C231.888 94.8721 232.23 97.9861 232.95 97.9921Z" fill="#263238"/>
<path d="M234.222 89.898L236.784 88.494C236.701 88.3206 236.583 88.166 236.438 88.0396C236.293 87.9132 236.124 87.8176 235.941 87.7586C235.758 87.6997 235.565 87.6786 235.374 87.6967C235.182 87.7148 234.997 87.7718 234.828 87.864C234.485 88.0599 234.23 88.3807 234.117 88.7595C234.004 89.1384 234.042 89.5461 234.222 89.898Z" fill="#263238"/>
<path d="M225.15 106.278C225.15 106.278 228.966 105.474 230.292 104.754C231.074 104.339 231.711 103.697 232.122 102.912C231.928 103.694 231.579 104.428 231.096 105.072C230.13 106.332 225.162 107.292 225.162 107.292L225.15 106.278Z" fill="#9A4A4D"/>
<path d="M224.844 96.6659C224.842 96.768 224.861 96.8695 224.899 96.9644C224.937 97.0593 224.993 97.1458 225.064 97.2188C225.136 97.2919 225.221 97.3501 225.315 97.3901C225.409 97.4301 225.51 97.4511 225.612 97.4519C225.771 97.4579 225.929 97.4159 226.064 97.3314C226.2 97.2469 226.307 97.1237 226.371 96.9778C226.436 96.8319 226.455 96.67 226.427 96.5129C226.399 96.3559 226.324 96.2109 226.213 96.0967C226.101 95.9826 225.958 95.9045 225.801 95.8726C225.645 95.8406 225.483 95.8563 225.335 95.9176C225.188 95.9789 225.062 96.0829 224.975 96.2163C224.887 96.3497 224.842 96.5063 224.844 96.6659Z" fill="#263238"/>
<path d="M227.118 94.0323L225.414 93.2583C225.315 93.4914 225.309 93.7536 225.399 93.9905C225.488 94.2274 225.666 94.4208 225.894 94.5303C226.007 94.5803 226.128 94.607 226.252 94.6089C226.375 94.6108 226.497 94.5878 226.612 94.5413C226.726 94.4948 226.83 94.4258 226.917 94.3383C227.004 94.2509 227.072 94.1468 227.118 94.0323Z" fill="#263238"/>
<path d="M219.828 93.0903L218.346 94.2543C218.416 94.3553 218.506 94.4407 218.61 94.5053C218.715 94.5698 218.832 94.6122 218.953 94.6296C219.075 94.6471 219.199 94.6393 219.317 94.6067C219.436 94.5741 219.546 94.5175 219.642 94.4403C219.838 94.2811 219.967 94.0529 220.002 93.8021C220.036 93.5514 219.974 93.2969 219.828 93.0903Z" fill="#263238"/>
<path d="M218.934 96.4799C218.941 96.6232 218.99 96.7613 219.075 96.8769C219.16 96.9926 219.277 97.0808 219.411 97.1305C219.546 97.1802 219.692 97.1893 219.832 97.1567C219.971 97.124 220.098 97.051 220.197 96.9468C220.296 96.8425 220.361 96.7116 220.386 96.5703C220.411 96.429 220.394 96.2835 220.336 96.152C220.279 96.0204 220.185 95.9086 220.064 95.8303C219.944 95.7521 219.803 95.7109 219.66 95.7119C219.562 95.7143 219.465 95.736 219.375 95.776C219.285 95.8159 219.204 95.8732 219.137 95.9446C219.069 96.016 219.017 96.1001 218.982 96.192C218.947 96.2839 218.931 96.3817 218.934 96.4799Z" fill="#263238"/>
<path d="M222.906 95.8623L222.474 100.452L220.104 99.5403L222.906 95.8623Z" fill="#9A4A4D"/>
<path d="M224.208 102.174C224.207 102.32 224.249 102.463 224.329 102.586C224.41 102.708 224.525 102.803 224.659 102.86C224.794 102.917 224.943 102.932 225.086 102.904C225.23 102.877 225.362 102.807 225.466 102.704C225.57 102.601 225.64 102.469 225.669 102.326C225.698 102.183 225.684 102.034 225.628 101.899C225.573 101.764 225.478 101.648 225.357 101.567C225.235 101.485 225.092 101.442 224.946 101.442C224.751 101.442 224.565 101.519 224.426 101.656C224.288 101.793 224.21 101.979 224.208 102.174Z" fill="#9A4A4D"/>
<path d="M242.94 53.292C244.084 53.5468 245.187 53.9608 246.216 54.522C247.2 55.0517 248.082 55.7527 248.82 56.592C249.53 57.4051 250.054 58.3634 250.356 59.4C250.671 60.4988 250.696 61.6607 250.428 62.772C250.25 63.6541 249.899 64.4922 249.396 65.238C248.943 65.8796 248.4 66.4516 247.782 66.936C247.177 67.4052 246.533 67.8208 245.856 68.178L243.948 69.186C243.372 69.4865 242.826 69.8401 242.316 70.242C241.855 70.5916 241.502 71.0635 241.296 71.604C241.192 71.845 241.024 72.0526 240.81 72.204C240.707 72.2826 240.588 72.3369 240.461 72.3628C240.334 72.3888 240.203 72.3858 240.078 72.354L237.27 71.754C237.135 71.7256 237.007 71.6706 236.894 71.5923C236.781 71.514 236.684 71.414 236.61 71.298C236.531 71.1894 236.479 71.0637 236.459 70.9313C236.438 70.7989 236.448 70.6635 236.49 70.536C236.723 69.6631 237.132 68.8467 237.69 68.136C238.192 67.5087 238.773 66.9482 239.418 66.468C240.04 66.0124 240.701 65.6109 241.392 65.268C242.076 64.926 242.712 64.596 243.3 64.272C243.837 63.9879 244.342 63.6459 244.806 63.252C245.21 62.9118 245.49 62.4478 245.604 61.932C245.707 61.4815 245.7 61.0126 245.583 60.5654C245.466 60.1181 245.243 59.7059 244.932 59.364C244.156 58.5161 243.119 57.9522 241.986 57.762C239.89 57.294 238.118 58 236.67 59.88C236.531 60.0858 236.353 60.263 236.148 60.402C236.036 60.4587 235.915 60.4927 235.79 60.5019C235.665 60.5112 235.54 60.4956 235.422 60.456L232.422 59.79C232.316 59.7696 232.215 59.7283 232.126 59.6686C232.036 59.6088 231.959 59.5318 231.9 59.442C231.834 59.3501 231.79 59.2448 231.771 59.1338C231.751 59.0228 231.756 58.9088 231.786 58.8C232.038 57.8778 232.512 57.0313 233.166 56.334C233.9 55.5236 234.771 54.8493 235.74 54.342C236.801 53.7847 237.946 53.4037 239.13 53.214C240.393 52.9918 241.687 53.0183 242.94 53.292ZM239.772 74.616C239.903 74.6441 240.028 74.6991 240.137 74.7776C240.247 74.8561 240.339 74.9563 240.408 75.072C240.481 75.184 240.532 75.3098 240.556 75.4418C240.579 75.5738 240.576 75.7093 240.546 75.84L239.826 79.092C239.765 79.3516 239.606 79.5775 239.382 79.722C239.158 79.8665 238.887 79.9181 238.626 79.866L235.446 79.164C235.315 79.1359 235.191 79.0815 235.082 79.0042C234.972 78.9268 234.88 78.8281 234.81 78.714C234.735 78.6024 234.684 78.4766 234.66 78.3444C234.636 78.2123 234.64 78.0766 234.672 77.946L235.392 74.688C235.452 74.4284 235.611 74.2024 235.835 74.058C236.059 73.9135 236.33 73.8619 236.592 73.914L239.772 74.616Z" fill="#9269AD"/>
<path d="M252.372 83.8858C253.165 83.755 253.974 83.7388 254.772 83.8378C255.539 83.9249 256.285 84.1484 256.974 84.4978C257.632 84.8344 258.209 85.3092 258.666 85.8898C259.15 86.5121 259.463 87.2507 259.572 88.0318C259.696 88.6395 259.696 89.2661 259.572 89.8738C259.447 90.4025 259.245 90.91 258.972 91.3798C258.705 91.8327 258.399 92.2622 258.06 92.6638L257.094 93.8038C256.803 94.1448 256.542 94.5101 256.314 94.8958C256.111 95.2386 256.007 95.6313 256.014 96.0298C256.013 96.217 255.959 96.4001 255.858 96.5578C255.812 96.6332 255.75 96.6976 255.676 96.7464C255.603 96.7951 255.519 96.827 255.432 96.8398L253.47 97.1638C253.28 97.1936 253.087 97.1484 252.93 97.0378C252.853 96.9875 252.789 96.9203 252.742 96.8412C252.695 96.7621 252.667 96.6734 252.66 96.5818C252.578 95.9668 252.625 95.3415 252.798 94.7458C252.953 94.2112 253.182 93.7004 253.476 93.2278C253.757 92.7753 254.076 92.3477 254.43 91.9498C254.784 91.5538 255.102 91.1818 255.402 90.8218C255.672 90.5019 255.908 90.1539 256.104 89.7838C256.276 89.4625 256.337 89.0934 256.278 88.7338C256.229 88.4177 256.104 88.1182 255.914 87.8611C255.724 87.604 255.474 87.3969 255.186 87.2578C254.475 86.9104 253.667 86.8132 252.894 86.9818C252.194 87.0849 251.544 87.4012 251.03 87.8876C250.517 88.374 250.166 89.0068 250.026 89.6998C249.988 89.869 249.919 90.0297 249.822 90.1738C249.706 90.3014 249.544 90.3788 249.372 90.3898L247.284 90.7318C247.136 90.7562 246.984 90.7241 246.858 90.6418C246.792 90.5993 246.737 90.5428 246.695 90.4765C246.654 90.4101 246.627 90.3355 246.618 90.2578C246.545 89.6024 246.634 88.9392 246.876 88.3258C247.136 87.6165 247.523 86.96 248.016 86.3878C248.554 85.7597 249.19 85.2228 249.9 84.7978C250.657 84.3362 251.496 84.0264 252.372 83.8858ZM255.798 98.3998C255.89 98.3843 255.984 98.3875 256.075 98.4092C256.165 98.4308 256.251 98.4705 256.326 98.5258C256.401 98.5791 256.465 98.647 256.513 98.7253C256.561 98.8036 256.594 98.8908 256.608 98.9818L256.98 101.25C256.995 101.342 256.992 101.436 256.97 101.527C256.949 101.617 256.909 101.703 256.854 101.778C256.801 101.854 256.734 101.918 256.655 101.966C256.577 102.015 256.489 102.047 256.398 102.06L254.178 102.426C254.087 102.441 253.994 102.437 253.904 102.416C253.814 102.394 253.73 102.355 253.656 102.3C253.579 102.248 253.514 102.18 253.464 102.102C253.415 102.023 253.382 101.936 253.368 101.844L252.996 99.5698C252.968 99.3829 253.016 99.1926 253.129 99.0408C253.241 98.889 253.409 98.7879 253.596 98.7598L255.798 98.3998Z" fill="#9269AD"/>
<g opacity="0.2">
<path opacity="0.2" d="M252.372 83.8858C253.165 83.755 253.974 83.7388 254.772 83.8378C255.539 83.9249 256.285 84.1484 256.974 84.4978C257.632 84.8344 258.209 85.3092 258.666 85.8898C259.15 86.5121 259.463 87.2507 259.572 88.0318C259.696 88.6395 259.696 89.2661 259.572 89.8738C259.447 90.4025 259.245 90.91 258.972 91.3798C258.705 91.8327 258.399 92.2622 258.06 92.6638L257.094 93.8038C256.803 94.1448 256.542 94.5101 256.314 94.8958C256.111 95.2386 256.007 95.6313 256.014 96.0298C256.013 96.217 255.959 96.4001 255.858 96.5578C255.812 96.6332 255.75 96.6976 255.676 96.7464C255.603 96.7951 255.519 96.827 255.432 96.8398L253.47 97.1638C253.28 97.1936 253.087 97.1484 252.93 97.0378C252.853 96.9875 252.789 96.9203 252.742 96.8412C252.695 96.7621 252.667 96.6734 252.66 96.5818C252.578 95.9668 252.625 95.3415 252.798 94.7458C252.953 94.2112 253.182 93.7004 253.476 93.2278C253.757 92.7753 254.076 92.3477 254.43 91.9498C254.784 91.5538 255.102 91.1818 255.402 90.8218C255.672 90.5019 255.908 90.1539 256.104 89.7838C256.276 89.4625 256.337 89.0934 256.278 88.7338C256.229 88.4177 256.104 88.1182 255.914 87.8611C255.724 87.604 255.474 87.3969 255.186 87.2578C254.475 86.9104 253.667 86.8132 252.894 86.9818C252.194 87.0849 251.544 87.4012 251.03 87.8876C250.517 88.374 250.166 89.0068 250.026 89.6998C249.988 89.869 249.919 90.0297 249.822 90.1738C249.706 90.3014 249.544 90.3788 249.372 90.3898L247.284 90.7318C247.136 90.7562 246.984 90.7241 246.858 90.6418C246.792 90.5993 246.737 90.5428 246.695 90.4765C246.654 90.4101 246.627 90.3355 246.618 90.2578C246.545 89.6024 246.634 88.9392 246.876 88.3258C247.136 87.6165 247.523 86.96 248.016 86.3878C248.554 85.7597 249.19 85.2228 249.9 84.7978C250.657 84.3362 251.496 84.0264 252.372 83.8858ZM255.798 98.3998C255.89 98.3843 255.984 98.3875 256.075 98.4092C256.165 98.4308 256.251 98.4705 256.326 98.5258C256.401 98.5791 256.465 98.647 256.513 98.7253C256.561 98.8036 256.594 98.8908 256.608 98.9818L256.98 101.25C256.995 101.342 256.992 101.436 256.97 101.527C256.949 101.617 256.909 101.703 256.854 101.778C256.801 101.854 256.734 101.918 256.655 101.966C256.577 102.015 256.489 102.047 256.398 102.06L254.178 102.426C254.087 102.441 253.994 102.437 253.904 102.416C253.814 102.394 253.73 102.355 253.656 102.3C253.579 102.248 253.514 102.18 253.464 102.102C253.415 102.023 253.382 101.936 253.368 101.844L252.996 99.5698C252.968 99.3829 253.016 99.1926 253.129 99.0408C253.241 98.889 253.409 98.7879 253.596 98.7598L255.798 98.3998Z" fill="black"/>
</g>
<path d="M272.831 90.3239C273.01 90.4539 273.13 90.6483 273.167 90.8657C273.204 91.0831 273.155 91.3064 273.029 91.4879L271.445 93.7079C271.316 93.8861 271.121 94.0066 270.904 94.0436C270.686 94.0806 270.463 94.0312 270.281 93.9059L268.109 92.3639C268.02 92.3012 267.944 92.2211 267.886 92.1283C267.829 92.0355 267.79 91.9319 267.773 91.8239C267.742 91.6137 267.791 91.3993 267.911 91.2239L269.495 88.9979C269.624 88.819 269.818 88.6982 270.035 88.6619C270.247 88.6302 270.462 88.6818 270.635 88.8059L272.831 90.3239ZM281.999 75.2699C282.783 75.8225 283.482 76.4853 284.075 77.2379C284.649 77.9541 285.09 78.7668 285.377 79.6379C285.653 80.4704 285.745 81.3525 285.647 82.2239C285.535 83.1518 285.183 84.0346 284.627 84.7859C284.213 85.3934 283.683 85.9134 283.067 86.3159C282.52 86.6556 281.926 86.9124 281.303 87.0779C280.7 87.239 280.084 87.3474 279.461 87.4019L277.697 87.5519C277.171 87.6003 276.649 87.6926 276.137 87.8279C275.68 87.9488 275.265 88.1939 274.937 88.5359C274.78 88.689 274.586 88.7986 274.373 88.8539C274.27 88.8784 274.163 88.8798 274.059 88.858C273.956 88.8362 273.858 88.7918 273.773 88.7279L271.853 87.3659C271.67 87.234 271.545 87.0361 271.505 86.8139C271.483 86.7091 271.484 86.6004 271.51 86.4964C271.536 86.3923 271.586 86.2956 271.655 86.2139C272.102 85.6284 272.663 85.1404 273.305 84.7799C273.883 84.4632 274.501 84.225 275.141 84.0719C275.756 83.9233 276.382 83.827 277.013 83.7839C277.613 83.7479 278.213 83.6999 278.765 83.6459C279.261 83.6032 279.75 83.5046 280.223 83.3519C280.636 83.2263 280.995 82.9666 281.243 82.6139C281.467 82.3084 281.612 81.953 281.666 81.5786C281.72 81.2043 281.682 80.8223 281.555 80.4659C281.243 79.5817 280.643 78.8276 279.851 78.3239C278.423 77.3039 276.863 77.2699 275.171 78.2219C275.001 78.3309 274.812 78.4082 274.613 78.4499C274.51 78.4572 274.407 78.444 274.309 78.4111C274.211 78.3781 274.121 78.3261 274.043 78.2579L272.003 76.8059C271.855 76.7049 271.752 76.5499 271.715 76.3739C271.698 76.2839 271.7 76.1912 271.722 76.1021C271.744 76.0131 271.785 75.9298 271.841 75.8579C272.317 75.2442 272.934 74.756 273.641 74.4359C274.453 74.0605 275.324 73.831 276.215 73.7579C277.191 73.6783 278.174 73.7553 279.125 73.9859C280.159 74.2192 281.136 74.6556 281.999 75.2699Z" fill="#9269AD"/>
<g opacity="0.6">
<path opacity="0.6" d="M272.831 90.3239C273.01 90.4539 273.13 90.6483 273.167 90.8657C273.204 91.0831 273.155 91.3064 273.029 91.4879L271.445 93.7079C271.316 93.8861 271.121 94.0066 270.904 94.0436C270.686 94.0806 270.463 94.0312 270.281 93.9059L268.109 92.3639C268.02 92.3012 267.944 92.2211 267.886 92.1283C267.829 92.0355 267.79 91.9319 267.773 91.8239C267.742 91.6137 267.791 91.3993 267.911 91.2239L269.495 88.9979C269.624 88.819 269.818 88.6982 270.035 88.6619C270.247 88.6302 270.462 88.6818 270.635 88.8059L272.831 90.3239ZM281.999 75.2699C282.783 75.8225 283.482 76.4853 284.075 77.2379C284.649 77.9541 285.09 78.7668 285.377 79.6379C285.653 80.4704 285.745 81.3525 285.647 82.2239C285.535 83.1518 285.183 84.0346 284.627 84.7859C284.213 85.3934 283.683 85.9134 283.067 86.3159C282.52 86.6556 281.926 86.9124 281.303 87.0779C280.7 87.239 280.084 87.3474 279.461 87.4019L277.697 87.5519C277.171 87.6003 276.649 87.6926 276.137 87.8279C275.68 87.9488 275.265 88.1939 274.937 88.5359C274.78 88.689 274.586 88.7986 274.373 88.8539C274.27 88.8784 274.163 88.8798 274.059 88.858C273.956 88.8362 273.858 88.7918 273.773 88.7279L271.853 87.3659C271.67 87.234 271.545 87.0361 271.505 86.8139C271.483 86.7091 271.484 86.6004 271.51 86.4964C271.536 86.3923 271.586 86.2956 271.655 86.2139C272.102 85.6284 272.663 85.1404 273.305 84.7799C273.883 84.4632 274.501 84.225 275.141 84.0719C275.756 83.9233 276.382 83.827 277.013 83.7839C277.613 83.7479 278.213 83.6999 278.765 83.6459C279.261 83.6032 279.75 83.5046 280.223 83.3519C280.636 83.2263 280.995 82.9666 281.243 82.6139C281.467 82.3084 281.612 81.953 281.666 81.5786C281.72 81.2043 281.682 80.8223 281.555 80.4659C281.243 79.5817 280.643 78.8276 279.851 78.3239C278.423 77.3039 276.863 77.2699 275.171 78.2219C275.001 78.3309 274.812 78.4082 274.613 78.4499C274.51 78.4572 274.407 78.444 274.309 78.4111C274.211 78.3781 274.121 78.3261 274.043 78.2579L272.003 76.8059C271.855 76.7049 271.752 76.5499 271.715 76.3739C271.698 76.2839 271.7 76.1912 271.722 76.1021C271.744 76.0131 271.785 75.9298 271.841 75.8579C272.317 75.2442 272.934 74.756 273.641 74.4359C274.453 74.0605 275.324 73.831 276.215 73.7579C277.191 73.6783 278.174 73.7553 279.125 73.9859C280.159 74.2192 281.136 74.6556 281.999 75.2699Z" fill="white"/>
</g>
<path d="M79.4878 209.112C79.4278 207.312 80.7238 189.72 80.7238 189.72L72.1558 195.936C73.9138 206.424 74.2918 208.902 74.3218 210.618C74.2855 210.761 74.2694 210.909 74.2738 211.056C74.2738 213.096 76.5838 214.194 78.3778 215.556C79.9026 216.749 81.5265 217.808 83.2318 218.724C84.5338 219.378 87.1858 219.438 87.5098 218.598C85.3258 216.93 82.1518 214.434 80.4118 212.532C79.5838 211.62 79.5538 210.9 79.4878 209.112Z" fill="#FFA8A7"/>
<path d="M91.2359 220.8C91.333 221.08 91.3502 221.382 91.2856 221.671C91.221 221.961 91.077 222.226 90.8699 222.438C89.2963 223.573 87.3378 224.039 85.4219 223.734C82.6979 223.38 81.2219 222.606 80.1359 221.694C79.0499 220.782 77.5199 219.498 76.2839 219.228C75.3013 219.041 74.3666 218.657 73.5359 218.1C73.1699 217.746 73.2179 216.174 73.2179 216.174L91.2359 220.8Z" fill="#263238"/>
<path d="M74.3038 210.12C74.2029 210.123 74.1062 210.161 74.0306 210.228C73.955 210.295 73.9051 210.386 73.8898 210.486C73.8058 210.918 73.7158 212.178 73.5358 212.886C73.2573 214.138 73.1683 215.424 73.2718 216.702C73.4218 217.512 75.2818 218.07 76.4758 218.502C77.8799 219.113 79.1828 219.935 80.3398 220.938C82.0094 222.187 84.0023 222.93 86.0818 223.08C88.1818 223.08 90.5458 222.384 91.0918 221.412C91.7578 220.212 91.2358 219.51 88.1218 218.064C87.5218 217.794 85.4638 216.564 84.7558 216.12C82.8478 214.92 80.9578 213.246 80.0758 211.122C80.0047 210.862 79.8483 210.634 79.6318 210.474C79.4428 210.393 79.2332 210.372 79.0318 210.414C78.5117 210.49 78.006 210.644 77.5318 210.87C77.1178 211.068 76.5238 211.302 76.5298 211.836C76.5425 212.021 76.583 212.203 76.6498 212.376C76.6858 212.49 76.7158 212.634 76.6498 212.7C76.5838 212.766 76.4398 212.7 76.3558 212.616C76.0504 212.304 75.7715 211.967 75.5218 211.608C75.3742 211.425 75.2073 211.258 75.0238 211.11C74.8402 211.006 74.6638 210.89 74.4958 210.762C74.2678 210.6 74.3158 210.372 74.3038 210.12Z" fill="#455A64"/>
<path d="M80.3401 220.968C79.7941 220.524 79.2181 220.086 78.6421 219.702C78.6421 219.702 82.3021 221.928 83.7781 220.902C84.052 220.728 84.2524 220.46 84.3409 220.148C84.4295 219.836 84.4 219.502 84.2581 219.21C84.2581 218.958 86.5861 217.872 87.5101 217.764C87.7681 217.908 87.9841 218.022 88.1101 218.082C91.2241 219.528 91.7461 220.224 91.0801 221.43C90.5341 222.402 88.8241 223.164 86.1121 223.164C84.3481 223.2 81.6001 222 80.3401 220.968Z" fill="#37474F"/>
<path d="M83.9998 218.484C85.9378 219.258 85.1098 219.618 84.5698 219.684C84.0298 219.75 80.7718 217.884 78.7798 216.288C76.7878 214.692 75.4018 212.85 74.6338 212.25C74.3458 212.028 74.0338 211.752 73.7578 211.494C73.8118 211.068 73.8538 210.678 73.8898 210.474C73.9052 210.374 73.955 210.283 74.0306 210.216C74.1063 210.149 74.2029 210.111 74.3038 210.108C74.3038 210.36 74.2678 210.594 74.4598 210.78C74.6278 210.908 74.8042 211.024 74.9878 211.128C75.1713 211.275 75.3383 211.442 75.4858 211.626C75.7355 211.984 76.0145 212.322 76.3198 212.634C78.4789 215.061 81.0867 217.047 83.9998 218.484Z" fill="#263238"/>
<path d="M84.4319 219.414C84.3875 219.413 84.3451 219.396 84.3119 219.366C84.2924 219.351 84.2761 219.332 84.264 219.31C84.2519 219.289 84.2442 219.265 84.2414 219.24C84.2386 219.216 84.2408 219.191 84.2477 219.167C84.2547 219.143 84.2663 219.121 84.2819 219.102C84.7382 218.628 85.2909 218.258 85.9026 218.016C86.5143 217.773 87.1708 217.665 87.8279 217.698C87.8794 217.704 87.9265 217.73 87.959 217.771C87.9916 217.811 88.007 217.863 88.0019 217.914C87.9959 217.964 87.9705 218.01 87.9312 218.041C87.8919 218.073 87.8419 218.087 87.7919 218.082C87.1986 218.058 86.6068 218.157 86.0541 218.374C85.5014 218.591 85 218.921 84.5819 219.342C84.5636 219.364 84.5407 219.382 84.5148 219.395C84.4889 219.407 84.4606 219.414 84.4319 219.414Z" fill="#F5F5F5"/>
<path d="M82.7461 218.4C82.7003 218.402 82.6554 218.387 82.62 218.358C82.5859 218.321 82.5669 218.273 82.5669 218.223C82.5669 218.173 82.5859 218.125 82.62 218.088C83.0774 217.616 83.6304 217.247 84.2419 217.006C84.8535 216.765 85.5095 216.657 86.166 216.69C86.217 216.695 86.2636 216.721 86.2957 216.761C86.3277 216.801 86.3426 216.852 86.3371 216.903C86.3315 216.954 86.3059 217 86.266 217.033C86.226 217.065 86.175 217.079 86.124 217.074C85.5306 217.048 84.9384 217.147 84.3854 217.364C83.8325 217.581 83.3313 217.911 82.9141 218.334C82.8936 218.358 82.8676 218.376 82.8383 218.388C82.809 218.399 82.7773 218.404 82.7461 218.4Z" fill="#F5F5F5"/>
<path d="M81.0539 217.386C81.0102 217.387 80.9677 217.372 80.9339 217.344C80.8983 217.308 80.8784 217.26 80.8784 217.209C80.8784 217.159 80.8983 217.11 80.9339 217.074C81.3915 216.602 81.9445 216.233 82.556 215.992C83.1675 215.751 83.8234 215.643 84.4799 215.676C84.5052 215.678 84.5297 215.686 84.5522 215.697C84.5746 215.709 84.5945 215.725 84.6107 215.745C84.6268 215.764 84.639 215.787 84.6464 215.811C84.6538 215.835 84.6564 215.861 84.6539 215.886C84.6516 215.911 84.6444 215.936 84.6326 215.958C84.6208 215.981 84.6047 216.001 84.5852 216.017C84.5656 216.033 84.5431 216.045 84.5189 216.053C84.4946 216.06 84.4691 216.063 84.4439 216.06C83.8505 216.034 83.2582 216.133 82.7053 216.35C82.1524 216.567 81.6511 216.897 81.2339 217.32C81.2116 217.345 81.1835 217.364 81.1521 217.376C81.1207 217.387 81.087 217.391 81.0539 217.386Z" fill="#F5F5F5"/>
<path d="M79.4881 216.264C79.4444 216.264 79.4019 216.25 79.3681 216.222C79.3498 216.205 79.3352 216.184 79.3252 216.16C79.3152 216.137 79.3101 216.112 79.3101 216.087C79.3101 216.062 79.3152 216.037 79.3252 216.013C79.3352 215.99 79.3498 215.969 79.3681 215.952C79.825 215.479 80.3779 215.11 80.9896 214.869C81.6012 214.627 82.2575 214.52 82.9141 214.554C82.964 214.56 83.0096 214.585 83.041 214.625C83.0724 214.664 83.0872 214.714 83.0821 214.764C83.0761 214.814 83.0507 214.859 83.0114 214.891C82.9722 214.922 82.9221 214.937 82.8721 214.932C82.279 214.908 81.6875 215.008 81.1349 215.225C80.5824 215.442 80.0809 215.771 79.6621 216.192C79.6417 216.218 79.615 216.238 79.5845 216.251C79.5541 216.263 79.5209 216.268 79.4881 216.264Z" fill="#F5F5F5"/>
<path d="M77.9582 215.142C77.9149 215.14 77.8732 215.125 77.8382 215.1C77.8026 215.064 77.7827 215.016 77.7827 214.965C77.7827 214.914 77.8026 214.866 77.8382 214.83C78.333 214.315 78.9388 213.92 79.6094 213.674C80.2801 213.429 80.9979 213.34 81.7082 213.414C81.7336 213.415 81.7584 213.422 81.781 213.434C81.8036 213.445 81.8234 213.461 81.8393 213.481C81.8552 213.501 81.8667 213.524 81.873 213.549C81.8794 213.573 81.8805 213.599 81.8762 213.624C81.8702 213.674 81.8448 213.719 81.8055 213.751C81.7663 213.782 81.7162 213.797 81.6662 213.792C81.0206 213.728 80.3688 213.809 79.7585 214.029C79.1482 214.25 78.5946 214.603 78.1382 215.064C78.1172 215.091 78.0896 215.112 78.0582 215.126C78.0267 215.14 77.9923 215.145 77.9582 215.142Z" fill="#F5F5F5"/>
<path d="M63.3481 197.73L54.7021 197.574C54.8281 203.346 55.7461 209.748 55.9021 215.16C55.9021 216.18 55.9021 223.08 56.2621 225.18C56.8621 228.33 60.5821 227.904 60.7801 226.02C60.9781 224.136 60.5401 216.078 60.5521 215.22C60.5161 211.752 62.1421 205.89 63.0001 199.656C63.0361 199.374 63.3061 198.03 63.3481 197.73Z" fill="#FFA8A7"/>
<path d="M62.1841 227.328C62.3447 228.772 62.1383 230.233 61.5841 231.576C61.3097 232.11 60.867 232.538 60.3245 232.794C59.7821 233.05 59.1703 233.119 58.5841 232.992C57.3061 232.806 55.6201 232.122 55.1041 230.592C54.6155 229.183 54.4434 227.683 54.6001 226.2L62.1841 227.328Z" fill="#263238"/>
<path d="M55.8779 214.5C55.3679 214.59 55.4639 217.08 55.4159 219.582C55.3619 222.27 54.6839 223.446 54.6179 225.648C54.5399 228.168 54.7859 229.248 55.8179 230.676C56.8499 232.104 60.0719 233.256 61.3739 230.952C62.4359 229.074 62.2919 227.124 61.9259 224.652C61.5599 222.18 61.2719 220.308 61.1759 218.352C61.0799 216.396 61.0379 214.662 60.5759 214.5C60.5759 214.776 60.5759 215.13 60.5759 215.4C60.5759 215.67 60.6179 216.6 60.3299 216.66C60.2855 216.428 60.2594 216.194 60.2519 215.958C60.2652 215.74 60.1943 215.525 60.0539 215.358C59.8803 215.23 59.6695 215.163 59.4539 215.166C58.9399 215.108 58.423 215.08 57.9059 215.082C57.6479 215.082 57.3839 215.082 57.1319 215.124C56.9102 215.141 56.693 215.196 56.4899 215.286C56.43 215.312 56.3762 215.349 56.3318 215.397C56.2873 215.444 56.2533 215.501 56.2319 215.562C56.2138 215.657 56.2138 215.755 56.2319 215.85C56.2529 216.021 56.2529 216.195 56.2319 216.366C56.2319 216.444 56.1779 216.54 56.0999 216.528C56.0219 216.516 56.0099 216.444 56.0039 216.384C55.9679 216.084 56.0039 215.862 55.9679 215.514C55.9679 215.352 55.9679 215.13 55.9679 214.968C55.9679 214.806 55.8839 214.662 55.8779 214.5Z" fill="#455A64"/>
<path d="M54.66 224.928C54.66 225.294 54.582 227.7 55.26 228.06C55.938 228.42 56.202 226.548 56.202 226.548C56.202 226.548 57.792 225.882 60.288 226.686C60.204 227.082 60.696 228.318 61.326 227.982C61.956 227.646 61.926 224.904 61.926 224.868C62.268 227.268 62.376 229.128 61.326 230.952C60.024 233.256 56.79 232.092 55.77 230.676C54.75 229.26 54.504 228.168 54.57 225.648C54.6 225.396 54.642 225.162 54.66 224.928Z" fill="#37474F"/>
<path d="M56.3998 226.686C56.4778 227.586 55.5658 227.376 55.3978 226.086C55.2298 224.796 55.6258 221.742 55.3978 219.558C55.4458 217.056 55.3498 214.566 55.8598 214.476C55.8569 214.506 55.8569 214.536 55.8598 214.566L55.9198 215.832C55.908 216.012 55.908 216.192 55.9198 216.372C56.0878 218.208 56.1898 221.772 56.1958 223.464C56.2064 224.541 56.2745 225.616 56.3998 226.686Z" fill="#263238"/>
<path d="M60 226.686C60.1175 225.624 60.1756 224.556 60.174 223.488C60.174 221.808 60.282 218.286 60.45 216.438C60.515 216.096 60.5412 215.748 60.528 215.4C60.528 215.148 60.528 214.8 60.528 214.56C60.528 214.56 60.528 214.524 60.528 214.5C60.864 214.626 60.984 215.616 61.056 216.864C61.056 217.59 61.056 218.49 60.99 219.582C60.762 221.766 61.158 224.862 60.99 226.128C60.822 227.394 59.94 227.586 60 226.686Z" fill="#263238"/>
<path d="M60.3542 226.752H60.2882C58.9917 226.304 57.5826 226.304 56.2862 226.752C56.2625 226.761 56.2374 226.765 56.2121 226.765C56.1867 226.764 56.1618 226.758 56.1387 226.748C56.1156 226.738 56.0947 226.723 56.0773 226.705C56.0599 226.686 56.0462 226.665 56.0372 226.641C56.0281 226.617 56.0238 226.592 56.0245 226.567C56.0252 226.542 56.0308 226.517 56.0411 226.493C56.0514 226.47 56.0662 226.449 56.0846 226.432C56.1029 226.415 56.1246 226.401 56.1482 226.392C57.5314 225.898 59.043 225.898 60.4262 226.392C60.4498 226.401 60.4714 226.414 60.4897 226.431C60.508 226.448 60.5226 226.469 60.5327 226.492C60.5428 226.515 60.5481 226.54 60.5484 226.565C60.5486 226.59 60.5438 226.615 60.5342 226.638C60.5195 226.673 60.4943 226.703 60.4621 226.723C60.4299 226.744 60.3923 226.754 60.3542 226.752Z" fill="#F5F5F5"/>
<path d="M60.6 224.76C60.5784 224.765 60.5557 224.765 60.534 224.76C59.0764 224.307 57.5157 224.307 56.058 224.76C56.034 224.769 56.0086 224.772 55.9831 224.771C55.9577 224.769 55.9328 224.763 55.9099 224.752C55.887 224.74 55.8666 224.725 55.8498 224.706C55.833 224.687 55.8201 224.664 55.812 224.64C55.8036 224.616 55.8001 224.591 55.8016 224.566C55.8031 224.541 55.8097 224.517 55.8209 224.494C55.8321 224.472 55.8477 224.452 55.8668 224.436C55.8859 224.42 55.9081 224.407 55.932 224.4C57.4719 223.91 59.1261 223.91 60.666 224.4C60.7082 224.416 60.7435 224.446 60.7659 224.485C60.7882 224.524 60.7961 224.569 60.7883 224.614C60.7804 224.658 60.7573 224.698 60.7229 224.727C60.6885 224.756 60.645 224.772 60.6 224.772V224.76Z" fill="#F5F5F5"/>
<path d="M55.9798 222.876C55.9431 222.875 55.9074 222.864 55.8766 222.844C55.8459 222.824 55.8214 222.795 55.8058 222.762C55.7855 222.716 55.7842 222.664 55.8021 222.616C55.8201 222.569 55.8559 222.531 55.9018 222.51C57.4175 221.914 59.1007 221.903 60.6238 222.48C60.6474 222.489 60.669 222.502 60.6873 222.519C60.7056 222.536 60.7202 222.557 60.7303 222.58C60.7404 222.603 60.7457 222.628 60.746 222.653C60.7463 222.678 60.7414 222.703 60.7318 222.726C60.7131 222.773 60.6768 222.81 60.6308 222.83C60.5849 222.85 60.5328 222.852 60.4858 222.834C60.4858 222.834 58.1338 221.91 56.0638 222.834C56.0393 222.854 56.0106 222.869 55.9798 222.876Z" fill="#F5F5F5"/>
<path d="M55.9379 221.112C55.9017 221.112 55.8661 221.102 55.8353 221.083C55.8045 221.064 55.7798 221.037 55.7639 221.004C55.7432 220.959 55.741 220.907 55.7578 220.86C55.7746 220.813 55.8091 220.774 55.8539 220.752C56.6061 220.409 57.4216 220.227 58.2482 220.218C59.0748 220.209 59.8942 220.372 60.6539 220.698C60.6766 220.708 60.6971 220.723 60.714 220.742C60.7309 220.76 60.744 220.782 60.7524 220.805C60.7608 220.829 60.7644 220.854 60.7629 220.878C60.7614 220.903 60.755 220.928 60.7439 220.95C60.7336 220.973 60.7188 220.993 60.7005 221.01C60.6821 221.027 60.6605 221.04 60.637 221.049C60.6135 221.057 60.5885 221.061 60.5636 221.059C60.5387 221.058 60.5143 221.051 60.4919 221.04C59.7791 220.745 59.0138 220.598 58.2424 220.607C57.4709 220.616 56.7094 220.782 56.0039 221.094C55.983 221.104 55.9607 221.11 55.9379 221.112Z" fill="#F5F5F5"/>
<path d="M55.8961 219.138C55.8521 219.139 55.8093 219.124 55.7747 219.097C55.7401 219.07 55.7159 219.032 55.706 218.989C55.6962 218.946 55.7014 218.901 55.7207 218.862C55.74 218.822 55.7722 218.79 55.8121 218.772C58.0981 217.644 60.5641 218.724 60.6661 218.772C60.6899 218.781 60.7116 218.795 60.7297 218.813C60.7477 218.831 60.7618 218.852 60.7708 218.876C60.7799 218.9 60.7838 218.926 60.7823 218.951C60.7808 218.977 60.7739 219.001 60.7621 219.024C60.7411 219.07 60.7029 219.106 60.6557 219.124C60.6086 219.142 60.5562 219.14 60.5101 219.12C60.5101 219.12 58.1101 218.07 55.9861 219.12C55.9583 219.134 55.9271 219.14 55.8961 219.138Z" fill="#F5F5F5"/>
<path d="M57.5458 141.6C54.4978 150.042 55.0318 155.34 55.5538 164.19C56.0338 172.302 56.7958 179.448 56.7958 179.448C56.6758 180.888 54.6718 183.696 54.3958 190.056C54.3074 194.534 54.5078 199.014 54.9958 203.466C54.9958 203.466 58.9858 204.924 62.3578 203.466C62.3578 203.466 65.8078 188.232 66.7498 180.786C67.5658 174.288 68.9938 165.984 68.9938 165.984L71.9938 180.756C71.4074 182.741 71.1064 184.8 71.0998 186.87C71.0998 190.344 72.7138 200.004 72.7138 200.004C72.7138 200.004 77.1838 201.45 80.0158 198.936C80.0158 198.936 81.1378 185.034 81.5338 179.736C82.0618 172.668 81.2938 153.294 79.5958 143.376L57.5458 141.6Z" fill="#455A64"/>
<path d="M69.0298 165.96L70.2778 154.848C70.2778 154.848 75.8638 154.104 78.3958 151.722C77.6694 152.858 76.7013 153.82 75.5604 154.539C74.4195 155.257 73.1341 155.715 71.7958 155.88L69.9958 166.224L72.0358 180.732L69.0298 165.96Z" fill="#37474F"/>
<path d="M82.8419 133.362C80.1239 130.566 75.2158 124.242 75.2158 124.242L72.4438 114.642C73.0634 114.674 73.6843 114.674 74.3038 114.642C77.3038 114.84 78.1858 115.098 80.0518 117.138C81.5338 118.764 87.1859 126.48 89.1479 129.078L94.3619 122.436C95.6159 120.546 95.4119 118.428 96.0599 116.886C96.7079 115.344 97.7579 114.666 98.5979 113.286C99.4379 111.906 99.6359 110.982 100.326 111.696C101.016 112.41 100.218 114.33 100.116 114.768C100.014 115.206 98.9579 116.508 100.716 115.83C102.474 115.152 105.186 111.942 105.882 111.288C106.578 110.634 106.95 111.648 106.794 112.452C106.638 113.256 107.394 115.068 107.118 116.394C106.946 117.728 106.283 118.95 105.258 119.82C103.992 121.092 100.896 122.658 99.6839 124.332C98.4719 126.006 95.8859 131.208 94.2839 134.34C92.2739 138.324 90.5639 139.638 88.2839 138.294C86.0039 136.95 83.8439 134.4 82.8419 133.362Z" fill="#FFA8A7"/>
<path d="M73.326 114.54C74.8602 114.387 76.4089 114.592 77.85 115.14C79.476 115.872 80.58 117.444 82.17 119.574C83.76 121.704 86.598 125.43 86.598 125.43C86.598 125.43 85.83 128.664 80.766 131.568L72.498 123.054L73.326 114.54Z" fill="#37474F"/>
<path d="M89.1478 129.072C88.1588 130.005 87.4961 131.231 87.2578 132.57C87.2578 132.57 86.6578 130.644 88.7038 128.478L89.1478 129.072Z" fill="#F28F8F"/>
<path d="M79.3138 131.586C83.0038 128.55 81.7858 124.596 80.4418 121.932C77.7478 116.61 74.9458 114.516 73.7758 114.534L66.4378 114.606C62.9338 115.086 60.2218 114.846 59.3758 115.044C57.2158 115.554 57.1678 117.33 57.0838 119.628C56.9938 122.148 55.7038 121.722 56.3578 125.886C57.1292 127.434 57.8064 129.027 58.3858 130.656C58.7818 132.096 59.8978 134.388 59.3038 136.716C59.0758 137.616 58.4638 138.516 57.5458 140.982C56.505 143.754 55.7314 146.619 55.2358 149.538C55.2358 149.538 57.3778 149.04 59.8138 146.448C59.8138 146.448 63.1438 150.906 71.1538 150.456C79.4638 149.988 80.1958 145.656 80.1958 145.656L78.9238 137.856C79.1158 134.706 79.1998 133.566 79.3138 131.586Z" fill="#9269AD"/>
<path opacity="0.1" d="M74.5202 130.8C74.5202 130.8 71.5202 133.2 67.9982 132.048C67.0171 131.754 66.1276 131.214 65.4145 130.478C64.7014 129.743 64.1883 128.838 63.9242 127.848C63.9242 127.848 63.6242 131.838 68.0522 133.122C69.2367 133.481 70.5054 133.45 71.6704 133.031C72.8354 132.613 73.8347 131.831 74.5202 130.8Z" fill="black"/>
<path d="M53.5138 111.108C52.4278 110.316 46.5778 118.146 49.3138 120.108C52.0498 122.07 54.9658 116.508 54.3778 113.88C53.7898 111.252 53.5138 111.108 53.5138 111.108Z" fill="#37474F"/>
<path d="M48.204 107.22C49.668 105.192 50.664 103.662 52.002 101.922C52.758 100.932 53.244 100.23 53.97 99.2161C54.474 98.5201 54.768 97.9321 55.332 97.7101C55.9616 97.433 56.5243 97.0237 56.982 96.5101C57.2622 96.1855 57.5207 95.8427 57.756 95.4841C58.6017 94.313 59.6121 93.2703 60.756 92.3881C61.956 91.4581 63.27 90.7381 64.494 89.8501C65.22 89.3221 66 88.4521 65.094 87.6661C64.8124 87.4388 64.4781 87.2861 64.122 87.2221C61.938 86.7841 60.048 87.5701 57.924 88.1521C57.0004 88.4039 56.0977 88.7269 55.224 89.1181C54.7902 89.2942 54.3856 89.5349 54.024 89.8321C53.5215 90.3571 53.1153 90.9664 52.824 91.6321C51.894 93.3421 49.932 94.8661 48.558 96.2041C46.944 97.7761 45.504 99.2041 43.662 100.95C42.006 102.51 40.38 103.95 38.862 105.654C37.608 107.058 38.094 108.138 38.262 108.504C39.342 110.628 40.518 111.378 41.934 112.704C42.402 113.136 42.876 113.562 43.35 113.988C45.186 115.644 47.022 117.192 48.93 118.788C50.97 120.468 51.81 121.284 53.628 122.916C54.7752 123.97 55.7313 125.214 56.454 126.594C59.604 127.116 62.7 122.298 60 116.664C59.5559 115.753 58.8842 114.972 58.05 114.396C54.726 112.026 48.204 107.22 48.204 107.22Z" fill="#FFA8A7"/>
<path d="M48.2039 107.22C47.2212 108.468 45.9009 109.407 44.3999 109.926C44.3999 109.926 46.4099 110.406 49.1099 107.892L48.2039 107.22Z" fill="#F28F8F"/>
<path d="M59.6279 114.996C58.8899 114.486 57.0959 113.4 53.5139 111.108C53.5139 111.108 54.0659 112.266 53.1959 115.176C52.3259 118.086 50.4899 119.928 49.3379 120.138C49.3379 120.138 51.3419 121.722 53.1899 123.51C55.0379 125.298 56.5559 126.564 57.6239 128.64C57.6239 128.64 60.2639 127.962 60.8639 123.486C61.2839 120.348 61.0319 116.664 59.6279 114.996Z" fill="#455A64"/>
<path d="M79.6678 100.584C80.1953 99.4695 80.4276 98.238 80.3425 97.0078C80.2574 95.7775 79.8577 94.5897 79.1818 93.5582C76.9078 90.3242 73.0738 88.7582 68.8378 88.8062H67.5238C61.8058 88.9022 56.6098 93.8102 56.5078 99.3362C56.5078 103.224 56.5078 106.818 58.6498 109.47C60.6238 111.936 63.7018 112.746 66.2998 113.142C71.2678 113.898 76.8478 113.322 79.1038 109.938C79.1038 109.938 76.1038 110.538 76.4818 107.43C76.5358 106.938 76.0678 106.398 75.2458 105.84C75.8216 104.843 76.4992 103.908 77.2678 103.05C78.1138 102.204 79.0918 101.73 79.6678 100.584Z" fill="#263238"/>
<path d="M78.186 103.422C78.156 109.212 76.302 110.67 75.372 111.102C74.442 111.534 72.618 111.306 70.848 111.048L70.908 114.522C70.908 114.522 72.978 116.616 72.858 118.212C72.738 119.808 69.69 120.012 67.38 118.518C66.1076 117.675 64.9533 116.666 63.948 115.518C63.7562 115.296 63.648 115.014 63.642 114.72L63.498 106.554C63.498 106.554 62.55 107.592 60.822 106.452C60.4487 106.224 60.127 105.921 59.8771 105.561C59.6273 105.202 59.4549 104.795 59.3708 104.366C59.2868 103.936 59.2929 103.494 59.3888 103.067C59.4847 102.64 59.6684 102.238 59.928 101.886C60.1722 101.649 60.4654 101.468 60.787 101.356C61.1086 101.244 61.4508 101.205 61.7895 101.239C62.1282 101.274 62.4551 101.383 62.7472 101.558C63.0393 101.733 63.2895 101.97 63.48 102.252C64.008 103.236 63.96 103.932 64.68 103.818C65.4 103.704 65.43 102.924 65.478 102.366C65.526 101.808 65.478 101.628 65.55 100.896C67.26 100.53 69.03 98.148 69.228 96.408C70.3865 96.9778 71.6632 97.2656 72.954 97.2481C74.868 97.1161 75.858 96.7321 76.8 95.3521C77.0245 95.6678 77.2042 96.0131 77.334 96.3781C77.6006 97.1169 77.8014 97.8779 77.934 98.6521C78.1478 100.233 78.232 101.828 78.186 103.422Z" fill="#FFA8A7"/>
<path d="M70.8477 111.048C68.9817 110.832 65.1357 109.8 64.5117 108.3C64.7639 109.062 65.2435 109.728 65.8857 110.208C67.0497 111.168 70.8657 112.206 70.8657 112.206L70.8477 111.048Z" fill="#F28F8F"/>
<path d="M72.7259 107.928C72.7295 108.079 72.6881 108.228 72.6071 108.355C72.5261 108.482 72.4091 108.583 72.2709 108.644C72.1327 108.704 71.9796 108.723 71.831 108.696C71.6824 108.67 71.5449 108.6 71.4361 108.495C71.3273 108.391 71.252 108.256 71.2197 108.109C71.1875 107.961 71.1998 107.808 71.255 107.667C71.3103 107.527 71.4061 107.406 71.5301 107.32C71.6542 107.234 71.801 107.187 71.9519 107.184C72.153 107.181 72.3472 107.257 72.4922 107.397C72.6372 107.536 72.7212 107.727 72.7259 107.928Z" fill="#B16668"/>
<path d="M71.7482 102.228C71.758 102.335 71.7468 102.442 71.715 102.544C71.6832 102.646 71.6315 102.741 71.5629 102.823C71.4942 102.905 71.4101 102.973 71.3152 103.022C71.2204 103.071 71.1167 103.101 71.0102 103.11C70.8461 103.128 70.6805 103.096 70.5347 103.019C70.3889 102.941 70.2694 102.822 70.1918 102.677C70.1141 102.531 70.0816 102.366 70.0986 102.202C70.1157 102.038 70.1813 101.882 70.2872 101.756C70.3931 101.629 70.5344 101.537 70.693 101.491C70.8515 101.446 71.0201 101.448 71.1771 101.499C71.3341 101.55 71.4724 101.647 71.5741 101.776C71.6759 101.906 71.7365 102.064 71.7482 102.228Z" fill="#263238"/>
<path d="M77.1599 101.886C77.1748 102.081 77.112 102.275 76.985 102.424C76.8581 102.574 76.6772 102.667 76.4819 102.684C76.3834 102.696 76.2836 102.687 76.189 102.657C76.0945 102.627 76.0076 102.577 75.9341 102.51C75.8606 102.444 75.8024 102.362 75.7634 102.271C75.7243 102.18 75.7054 102.081 75.7079 101.982C75.698 101.885 75.7076 101.787 75.7362 101.693C75.7648 101.6 75.8118 101.513 75.8745 101.438C75.9371 101.363 76.014 101.302 76.1008 101.257C76.1876 101.212 76.2825 101.185 76.3799 101.178C76.5768 101.17 76.7691 101.239 76.9151 101.372C77.0611 101.504 77.149 101.689 77.1599 101.886Z" fill="#263238"/>
<path d="M73.4219 101.136L73.9979 105.972L76.4759 104.94L73.4219 101.136Z" fill="#F28F8F"/>
<path d="M68.856 100.14L70.296 98.772C70.4753 98.9714 70.5709 99.2323 70.5631 99.5004C70.5553 99.7685 70.4446 100.023 70.254 100.212C70.159 100.302 70.0466 100.372 69.9238 100.417C69.801 100.463 69.6703 100.483 69.5395 100.476C69.4088 100.469 69.2808 100.436 69.1632 100.378C69.0457 100.32 68.9412 100.239 68.856 100.14Z" fill="#263238"/>
<path d="M76.0619 98.3281L77.6579 99.5281C77.5844 99.6365 77.4896 99.7287 77.3792 99.799C77.2687 99.8693 77.1451 99.9163 77.0159 99.9371C76.8866 99.9579 76.7545 99.9521 76.6276 99.9199C76.5007 99.8877 76.3817 99.83 76.2779 99.7501C76.0689 99.5842 75.9305 99.3454 75.8904 99.0816C75.8503 98.8178 75.9116 98.5486 76.0619 98.3281Z" fill="#263238"/>
<path d="M53.058 54.378C54.2085 54.1586 55.3846 54.1061 56.55 54.222C57.6638 54.3197 58.751 54.6164 59.76 55.098C60.7281 55.5601 61.584 56.2276 62.268 57.054C62.9893 57.9385 63.4689 58.9948 63.66 60.12C63.8399 61.0029 63.8399 61.9131 63.66 62.796C63.4987 63.5645 63.2237 64.3046 62.844 64.992C62.4755 65.6609 62.0478 66.2954 61.566 66.888C61.086 67.488 60.63 68.04 60.204 68.574C59.7966 69.0766 59.4351 69.6147 59.124 70.182C58.838 70.6856 58.6988 71.2593 58.722 71.838C58.7255 72.1071 58.6572 72.3722 58.524 72.606C58.4612 72.7165 58.3749 72.812 58.2713 72.8856C58.1676 72.9592 58.0491 73.0091 57.924 73.032L55.098 73.566C54.9638 73.5927 54.8255 73.5921 54.6915 73.5643C54.5575 73.5365 54.4305 73.4819 54.318 73.404C54.201 73.337 54.102 73.2423 54.0299 73.1284C53.9577 73.0144 53.9145 72.8845 53.904 72.75C53.7663 71.8623 53.8112 70.9558 54.036 70.086C54.2493 69.311 54.5619 68.5669 54.966 67.872C55.3567 67.2102 55.8044 66.5839 56.304 66C56.802 65.4 57.252 64.86 57.666 64.332C58.0466 63.8578 58.3764 63.345 58.65 62.802C58.8853 62.3308 58.9591 61.7953 58.86 61.278C58.7803 60.8221 58.5906 60.3925 58.3072 60.0265C58.0239 59.6606 57.6555 59.3693 57.234 59.178C56.1886 58.7029 55.0144 58.591 53.898 58.86C51.794 59.26 50.444 60.608 49.848 62.904C49.7956 63.146 49.7022 63.3773 49.572 63.588C49.4056 63.7803 49.1712 63.9007 48.918 63.924L45.918 64.494C45.7108 64.5309 45.4973 64.4903 45.318 64.38C45.2238 64.3178 45.1436 64.2365 45.0827 64.1414C45.0217 64.0464 44.9813 63.9396 44.964 63.828C44.8344 62.8815 44.9374 61.9177 45.264 61.02C45.6037 59.9831 46.1237 59.0142 46.8 58.158C47.5584 57.2205 48.4618 56.4102 49.476 55.758C50.5691 55.0698 51.7857 54.6011 53.058 54.378ZM58.536 75.228C58.8028 75.1819 59.0771 75.2412 59.301 75.3934C59.5249 75.5457 59.6808 75.7789 59.736 76.044L60.336 79.32C60.3634 79.4513 60.3631 79.5869 60.3352 79.7181C60.3073 79.8492 60.2524 79.9732 60.174 80.082C60.1003 80.1936 60.005 80.2893 59.8937 80.3635C59.7824 80.4377 59.6574 80.4889 59.526 80.514L56.328 81.114C56.1958 81.1415 56.0592 81.1413 55.927 81.1134C55.7949 81.0855 55.6699 81.0306 55.56 80.952C55.4484 80.8783 55.3527 80.783 55.2785 80.6717C55.2043 80.5604 55.1531 80.4354 55.128 80.304L54.528 77.028C54.5029 76.8962 54.5049 76.7607 54.5338 76.6297C54.5627 76.4988 54.6179 76.375 54.696 76.266C54.7679 76.1527 54.8626 76.0557 54.9742 75.9813C55.0859 75.9069 55.2118 75.8567 55.344 75.834L58.536 75.228Z" fill="#9269AD"/>
<path d="M83.5498 67.896C84.2573 68.2883 84.9041 68.7815 85.4698 69.36C86.0196 69.902 86.465 70.5407 86.7838 71.244C87.0895 71.9166 87.2471 72.6471 87.2458 73.386C87.245 74.1735 87.0382 74.9471 86.6458 75.63C86.3518 76.1772 85.9545 76.6621 85.4758 77.058C85.047 77.3909 84.572 77.6597 84.0658 77.856C83.5738 78.0482 83.0658 78.1968 82.5478 78.3L81.0838 78.588C80.6446 78.6724 80.2146 78.799 79.7998 78.966C79.4264 79.1045 79.0999 79.3458 78.8578 79.662C78.7398 79.8072 78.5841 79.9173 78.4078 79.98C78.3249 80.011 78.2362 80.0233 78.1481 80.0161C78.0599 80.0088 77.9744 79.9821 77.8978 79.938L76.1638 78.966C75.9952 78.8737 75.87 78.7183 75.8158 78.534C75.7863 78.4464 75.7774 78.3531 75.7899 78.2615C75.8024 78.1699 75.8359 78.0825 75.8878 78.006C76.2073 77.4755 76.632 77.0161 77.1358 76.656C77.5924 76.337 78.0885 76.0789 78.6118 75.888C79.1136 75.7094 79.6293 75.573 80.1538 75.48C80.6758 75.39 81.1618 75.3 81.6178 75.204C82.0293 75.118 82.4313 74.9913 82.8178 74.826C83.1514 74.6788 83.429 74.4286 83.6098 74.112C83.7674 73.8335 83.8551 73.5211 83.8656 73.2013C83.876 72.8816 83.8088 72.5641 83.6698 72.276C83.3271 71.5614 82.7545 70.9825 82.0438 70.632C81.4315 70.2782 80.7251 70.1217 80.0208 70.184C79.3164 70.2463 78.6484 70.5242 78.1078 70.98C77.974 71.0887 77.8215 71.172 77.6578 71.226C77.486 71.2545 77.3098 71.2158 77.1658 71.118L75.3178 70.086C75.187 70.0124 75.0885 69.8925 75.0418 69.75C75.0184 69.6754 75.0111 69.5967 75.0205 69.5192C75.0298 69.4416 75.0554 69.3669 75.0958 69.3C75.446 68.7422 75.9256 68.2771 76.4938 67.944C77.1406 67.5536 77.8516 67.2814 78.5938 67.14C79.4061 66.9807 80.239 66.9544 81.0598 67.062C81.9357 67.1773 82.7811 67.4604 83.5498 67.896ZM77.2258 81.366C77.3072 81.4111 77.3789 81.472 77.4366 81.5452C77.4943 81.6183 77.5368 81.7022 77.5618 81.792C77.5883 81.8804 77.5967 81.9733 77.5864 82.0651C77.5761 82.1569 77.5473 82.2456 77.5018 82.326L76.3798 84.336C76.2887 84.4995 76.1366 84.6204 75.9567 84.6721C75.7768 84.7238 75.5838 84.7022 75.4198 84.612L73.4578 83.514C73.3752 83.4711 73.3029 83.4108 73.2459 83.3373C73.1889 83.2637 73.1486 83.1786 73.1278 83.088C73.0992 83.0001 73.0893 82.9072 73.0986 82.8153C73.1079 82.7233 73.1362 82.6343 73.1818 82.554L74.3038 80.544C74.3493 80.4634 74.4104 80.3927 74.4835 80.3361C74.5567 80.2794 74.6404 80.2379 74.7298 80.214C74.818 80.186 74.9112 80.1768 75.0032 80.1872C75.0952 80.1975 75.1839 80.2271 75.2638 80.274L77.2258 81.366Z" fill="#9269AD"/>
<g opacity="0.2">
<path opacity="0.2" d="M83.5498 67.896C84.2573 68.2883 84.9041 68.7815 85.4698 69.36C86.0196 69.902 86.465 70.5407 86.7838 71.244C87.0895 71.9166 87.2471 72.6471 87.2458 73.386C87.245 74.1735 87.0382 74.9471 86.6458 75.63C86.3518 76.1772 85.9545 76.6621 85.4758 77.058C85.047 77.3909 84.572 77.6597 84.0658 77.856C83.5738 78.0482 83.0658 78.1968 82.5478 78.3L81.0838 78.588C80.6446 78.6724 80.2146 78.799 79.7998 78.966C79.4264 79.1045 79.0999 79.3458 78.8578 79.662C78.7398 79.8072 78.5841 79.9173 78.4078 79.98C78.3249 80.011 78.2362 80.0233 78.1481 80.0161C78.0599 80.0088 77.9744 79.9821 77.8978 79.938L76.1638 78.966C75.9952 78.8737 75.87 78.7183 75.8158 78.534C75.7863 78.4464 75.7774 78.3531 75.7899 78.2615C75.8024 78.1699 75.8359 78.0825 75.8878 78.006C76.2073 77.4755 76.632 77.0161 77.1358 76.656C77.5924 76.337 78.0885 76.0789 78.6118 75.888C79.1136 75.7094 79.6293 75.573 80.1538 75.48C80.6758 75.39 81.1618 75.3 81.6178 75.204C82.0293 75.118 82.4313 74.9913 82.8178 74.826C83.1514 74.6788 83.429 74.4286 83.6098 74.112C83.7674 73.8335 83.8551 73.5211 83.8656 73.2013C83.876 72.8816 83.8088 72.5641 83.6698 72.276C83.3271 71.5614 82.7545 70.9825 82.0438 70.632C81.4315 70.2782 80.7251 70.1217 80.0208 70.184C79.3164 70.2463 78.6484 70.5242 78.1078 70.98C77.974 71.0887 77.8215 71.172 77.6578 71.226C77.486 71.2545 77.3098 71.2158 77.1658 71.118L75.3178 70.086C75.187 70.0124 75.0885 69.8925 75.0418 69.75C75.0184 69.6754 75.0111 69.5967 75.0205 69.5192C75.0298 69.4416 75.0554 69.3669 75.0958 69.3C75.446 68.7422 75.9256 68.2771 76.4938 67.944C77.1406 67.5536 77.8516 67.2814 78.5938 67.14C79.4061 66.9807 80.239 66.9544 81.0598 67.062C81.9357 67.1773 82.7811 67.4604 83.5498 67.896ZM77.2258 81.366C77.3072 81.4111 77.3789 81.472 77.4366 81.5452C77.4943 81.6183 77.5368 81.7022 77.5618 81.792C77.5883 81.8804 77.5967 81.9733 77.5864 82.0651C77.5761 82.1569 77.5473 82.2456 77.5018 82.326L76.3798 84.336C76.2887 84.4995 76.1366 84.6204 75.9567 84.6721C75.7768 84.7238 75.5838 84.7022 75.4198 84.612L73.4578 83.514C73.3752 83.4711 73.3029 83.4108 73.2459 83.3373C73.1889 83.2637 73.1486 83.1786 73.1278 83.088C73.0992 83.0001 73.0893 82.9072 73.0986 82.8153C73.1079 82.7233 73.1362 82.6343 73.1818 82.554L74.3038 80.544C74.3493 80.4634 74.4104 80.3927 74.4835 80.3361C74.5567 80.2794 74.6404 80.2379 74.7298 80.214C74.818 80.186 74.9112 80.1768 75.0032 80.1872C75.0952 80.1975 75.1839 80.2271 75.2638 80.274L77.2258 81.366Z" fill="black"/>
</g>
<path d="M41.286 89.9282C41.3659 89.8526 41.4602 89.7941 41.5633 89.7559C41.6664 89.7178 41.7762 89.7008 41.886 89.7062C41.9986 89.7077 42.1097 89.7319 42.2128 89.7772C42.3159 89.8226 42.4088 89.8882 42.486 89.9702L44.334 91.9742C44.41 92.0559 44.4691 92.1519 44.5079 92.2566C44.5466 92.3613 44.5643 92.4726 44.5598 92.5842C44.5554 92.6957 44.5289 92.8053 44.4819 92.9065C44.4349 93.0078 44.3683 93.0987 44.286 93.1742L42.33 94.9742C42.2482 95.0502 42.1522 95.1093 42.0476 95.1481C41.9429 95.1868 41.8315 95.2045 41.72 95.2C41.6084 95.1956 41.4989 95.1691 41.3976 95.1221C41.2963 95.0751 41.2054 95.0085 41.13 94.9262L39.282 92.9222C39.2052 92.8408 39.1454 92.7449 39.1062 92.6402C39.067 92.5354 39.0491 92.4238 39.0536 92.3121C39.058 92.2003 39.0848 92.0905 39.1323 91.9892C39.1797 91.8879 39.2469 91.7971 39.33 91.7222L41.286 89.9282ZM28.446 77.8382C29.1476 77.1825 29.9397 76.6309 30.798 76.2002C31.613 75.7882 32.4947 75.5241 33.402 75.4202C34.2729 75.324 35.1544 75.414 35.988 75.6842C36.8736 75.9864 37.6655 76.5137 38.286 77.2142C38.8052 77.7417 39.2132 78.3681 39.486 79.0562C39.706 79.6598 39.8354 80.2926 39.87 80.9342C39.9042 81.5587 39.8841 82.1851 39.81 82.8062C39.732 83.4062 39.66 84.0062 39.594 84.5642C39.5289 85.0895 39.5108 85.6196 39.54 86.1482C39.5599 86.6232 39.7138 87.0829 39.984 87.4742C40.1003 87.6535 40.1666 87.8606 40.176 88.0742C40.1812 88.1793 40.1623 88.2843 40.1207 88.381C40.0791 88.4777 40.0159 88.5636 39.936 88.6322L38.208 90.2342C38.0441 90.3827 37.8291 90.4623 37.608 90.4562C37.4983 90.4602 37.3892 90.4378 37.29 90.3908C37.1908 90.3438 37.1043 90.2736 37.038 90.1862C36.5579 89.628 36.1947 88.9792 35.97 88.2782C35.7821 87.6485 35.6772 86.997 35.658 86.3402C35.6392 85.7062 35.6754 85.0719 35.766 84.4442C35.856 83.8442 35.928 83.2442 35.988 82.7042C36.0417 82.2076 36.0417 81.7067 35.988 81.2102C35.9488 80.7824 35.7696 80.3796 35.478 80.0642C35.2243 79.783 34.906 79.5679 34.5506 79.4372C34.1952 79.3066 33.8133 79.2643 33.438 79.3142C32.5122 79.4339 31.6517 79.8557 30.99 80.5142C29.702 81.7142 29.348 83.2362 29.928 85.0802C29.9991 85.2722 30.0357 85.4754 30.036 85.6802C30.0211 85.7812 29.9864 85.8782 29.9339 85.9657C29.8814 86.0533 29.8121 86.1295 29.73 86.1902L27.888 87.8942C27.7592 88.0185 27.5869 88.0874 27.408 88.0862C27.3163 88.0846 27.2261 88.0635 27.1433 88.0242C27.0605 87.9848 26.9871 87.9282 26.928 87.8582C26.4179 87.268 26.0614 86.5611 25.89 85.8002C25.6864 84.9294 25.6396 84.0293 25.752 83.1422C25.8752 82.1697 26.1548 81.2234 26.58 80.3402C27.0328 79.3924 27.6667 78.5425 28.446 77.8382Z" fill="#9269AD"/>
<g opacity="0.6">
<path opacity="0.6" d="M41.286 89.9282C41.3659 89.8526 41.4602 89.7941 41.5633 89.7559C41.6664 89.7178 41.7762 89.7008 41.886 89.7062C41.9986 89.7077 42.1097 89.7319 42.2128 89.7772C42.3159 89.8226 42.4088 89.8882 42.486 89.9702L44.334 91.9742C44.41 92.0559 44.4691 92.1519 44.5079 92.2566C44.5466 92.3613 44.5643 92.4726 44.5598 92.5842C44.5554 92.6957 44.5289 92.8053 44.4819 92.9065C44.4349 93.0078 44.3683 93.0987 44.286 93.1742L42.33 94.9742C42.2482 95.0502 42.1522 95.1093 42.0476 95.1481C41.9429 95.1868 41.8315 95.2045 41.72 95.2C41.6084 95.1956 41.4989 95.1691 41.3976 95.1221C41.2963 95.0751 41.2054 95.0085 41.13 94.9262L39.282 92.9222C39.2052 92.8408 39.1454 92.7449 39.1062 92.6402C39.067 92.5354 39.0491 92.4238 39.0536 92.3121C39.058 92.2003 39.0848 92.0905 39.1323 91.9892C39.1797 91.8879 39.2469 91.7971 39.33 91.7222L41.286 89.9282ZM28.446 77.8382C29.1476 77.1825 29.9397 76.6309 30.798 76.2002C31.613 75.7882 32.4947 75.5241 33.402 75.4202C34.2729 75.324 35.1544 75.414 35.988 75.6842C36.8736 75.9864 37.6655 76.5137 38.286 77.2142C38.8052 77.7417 39.2132 78.3681 39.486 79.0562C39.706 79.6598 39.8354 80.2926 39.87 80.9342C39.9042 81.5587 39.8841 82.1851 39.81 82.8062C39.732 83.4062 39.66 84.0062 39.594 84.5642C39.5289 85.0895 39.5108 85.6196 39.54 86.1482C39.5599 86.6232 39.7138 87.0829 39.984 87.4742C40.1003 87.6535 40.1666 87.8606 40.176 88.0742C40.1812 88.1793 40.1623 88.2843 40.1207 88.381C40.0791 88.4777 40.0159 88.5636 39.936 88.6322L38.208 90.2342C38.0441 90.3827 37.8291 90.4623 37.608 90.4562C37.4983 90.4602 37.3892 90.4378 37.29 90.3908C37.1908 90.3438 37.1043 90.2736 37.038 90.1862C36.5579 89.628 36.1947 88.9792 35.97 88.2782C35.7821 87.6485 35.6772 86.997 35.658 86.3402C35.6392 85.7062 35.6754 85.0719 35.766 84.4442C35.856 83.8442 35.928 83.2442 35.988 82.7042C36.0417 82.2076 36.0417 81.7067 35.988 81.2102C35.9488 80.7824 35.7696 80.3796 35.478 80.0642C35.2243 79.783 34.906 79.5679 34.5506 79.4372C34.1952 79.3066 33.8133 79.2643 33.438 79.3142C32.5122 79.4339 31.6517 79.8557 30.99 80.5142C29.702 81.7142 29.348 83.2362 29.928 85.0802C29.9991 85.2722 30.0357 85.4754 30.036 85.6802C30.0211 85.7812 29.9864 85.8782 29.9339 85.9657C29.8814 86.0533 29.8121 86.1295 29.73 86.1902L27.888 87.8942C27.7592 88.0185 27.5869 88.0874 27.408 88.0862C27.3163 88.0846 27.2261 88.0635 27.1433 88.0242C27.0605 87.9848 26.9871 87.9282 26.928 87.8582C26.4179 87.268 26.0614 86.5611 25.89 85.8002C25.6864 84.9294 25.6396 84.0293 25.752 83.1422C25.8752 82.1697 26.1548 81.2234 26.58 80.3402C27.0328 79.3924 27.6667 78.5425 28.446 77.8382Z" fill="white"/>
</g>
<path d="M163.464 131.79C161.754 130.812 154.554 126.648 152.106 125.232C151.62 124.956 151.314 124.776 151.29 124.758C150.073 124.079 148.651 123.866 147.288 124.158C146.118 124.395 144.998 124.831 143.976 125.448C143.808 125.544 143.64 125.658 143.478 125.766C140.712 127.512 138.336 130.26 136.356 134.04C134.34 137.722 133.258 141.842 133.206 146.04C133.206 150.016 134.266 152.806 136.386 154.41C136.601 154.57 136.825 154.716 137.058 154.848C139.044 155.976 149.004 161.748 149.226 161.874H149.28C149.035 161.739 148.8 161.587 148.578 161.418C146.454 159.818 145.394 157.03 145.398 153.054C145.45 148.856 146.532 144.736 148.548 141.054C150.64 137.054 153.178 134.188 156.162 132.456C159.002 130.816 161.454 130.602 163.518 131.814L163.464 131.79Z" fill="#9269AD"/>
<path opacity="0.4" d="M163.518 131.826C161.454 130.626 159.002 130.838 156.162 132.462C153.39 134.062 151 136.662 148.992 140.262L136.8 133.2C138.684 129.834 140.91 127.356 143.472 125.742C143.634 125.64 143.802 125.52 143.97 125.424C144.991 124.807 146.112 124.372 147.282 124.14C148.644 123.845 150.068 124.058 151.284 124.74L152.1 125.214C154.548 126.624 161.748 130.788 163.458 131.766L163.518 131.826Z" fill="black"/>
<path opacity="0.3" d="M149.28 161.856H149.226C149.004 161.73 139.026 155.958 137.058 154.83C136.825 154.698 136.601 154.552 136.386 154.392C134.266 152.792 133.206 150.004 133.206 146.028C133.257 141.83 134.339 137.709 136.356 134.028C136.5 133.746 136.65 133.47 136.806 133.206L148.992 140.244C148.842 140.508 148.692 140.784 148.548 141.06C146.532 144.742 145.45 148.863 145.398 153.06C145.398 157.036 146.458 159.824 148.578 161.424C148.801 161.585 149.036 161.73 149.28 161.856Z" fill="black"/>
<path d="M158.148 28.8297C164.064 25.4097 169.1 23.9557 173.256 24.4677C174.947 24.6697 176.58 25.2127 178.056 26.0637C178.015 26.0419 177.975 26.0178 177.936 25.9917C176.508 25.1877 167.904 20.2257 165.936 19.0677C164.435 18.1903 162.767 17.6345 161.04 17.4357C156.88 16.9277 151.842 18.3797 145.926 21.7917C136.726 27.0997 129.326 34.8997 123.726 45.1917C118.126 55.4837 115.356 65.9897 115.416 76.7097L127.602 83.7477C127.518 73.0197 130.288 62.5117 135.912 52.2237C141.536 41.9357 148.948 34.1377 158.148 28.8297Z" fill="#9269AD"/>
<path opacity="0.2" d="M177.96 25.9978C176.506 25.1879 174.908 24.6683 173.256 24.4678C169.104 23.9558 164.068 25.4098 158.148 28.8298C148.948 34.1338 141.548 41.9338 135.948 52.2298C135.714 52.6558 135.486 53.0878 135.264 53.5138L123.048 46.4638C123.27 46.0378 123.498 45.6058 123.732 45.1798C129.356 34.8958 136.756 27.0958 145.932 21.7798C151.856 18.3638 156.894 16.9118 161.046 17.4238C162.774 17.6247 164.441 18.1825 165.942 19.0618C167.928 20.2318 176.532 25.1998 177.96 25.9978Z" fill="black"/>
<path opacity="0.3" d="M135.234 53.5019C130.07 63.3779 127.528 73.4559 127.608 83.7359L115.422 76.6979C115.346 66.4139 117.888 56.3359 123.048 46.4639L135.234 53.5019Z" fill="black"/>
<path d="M166.428 48.7737C164.216 47.5977 161.262 48.0577 157.566 50.1537C157.441 52.3527 156.988 54.5206 156.222 56.5857C155.298 59.0737 152.61 64.2057 148.158 71.9817C143.546 80.0217 140.21 87.6997 138.15 95.0157C136.107 102.239 135.069 109.709 135.066 117.216L135.126 120.954L143.442 125.754L147.318 127.992L147.252 124.248V124.2C147.265 116.717 148.303 109.272 150.336 102.072C152.396 94.7557 155.734 87.0797 160.35 79.0437C164.798 71.2677 167.484 66.1337 168.408 63.6417C169.331 61.178 169.802 58.5684 169.8 55.9377C169.8 52.3577 168.676 49.9697 166.428 48.7737Z" fill="#9269AD"/>
<path opacity="0.3" d="M167.214 66.3361C165.838 69.2001 163.55 73.428 160.35 79.02C155.73 87.06 152.392 94.738 150.336 102.054C148.301 109.26 147.263 116.712 147.252 124.2V124.296L147.318 128.04L143.442 125.808L135.126 121.008L135.066 117.264C135.069 109.758 136.107 102.287 138.15 95.0641C140.21 87.7481 143.546 80.0701 148.158 72.0301C151.358 66.4301 153.65 62.2041 155.034 59.3521L167.214 66.3361Z" fill="black"/>
<path opacity="0.4" d="M169.8 55.9377C169.801 58.56 169.332 61.1612 168.414 63.6177C168.156 64.3197 167.754 65.2257 167.214 66.3357L155.034 59.3037C155.566 58.1917 155.966 57.2857 156.234 56.5857C157 54.5206 157.453 52.3527 157.578 50.1537C161.274 48.0577 164.228 47.5977 166.44 48.7737C168.652 49.9497 169.772 52.3377 169.8 55.9377Z" fill="black"/>
<path d="M144.102 74.2076L127.608 83.7356C127.524 73.0076 130.294 62.4996 135.918 52.2116C141.542 41.9236 148.942 34.1236 158.118 28.8116C164.034 25.3916 169.07 23.9376 173.226 24.4496C177.382 24.9616 180.708 27.2396 183.204 31.2836C185.704 35.3276 186.954 40.3716 186.954 46.4156C186.929 49.9246 186.527 53.4207 185.754 56.8436C184.819 60.9381 183.557 64.951 181.98 68.8436C180.972 71.3876 178.558 76.0836 174.738 82.9316C171.086 89.4596 168.798 93.9016 167.874 96.2576C166.848 99.0543 166.087 101.941 165.6 104.88C164.873 109.272 164.472 113.712 164.4 118.164L147.342 128.016L147.276 124.272C147.279 116.765 148.317 109.295 150.36 102.072C152.42 94.7556 155.758 87.0796 160.374 79.0436C164.822 71.2676 167.508 66.1336 168.432 63.6416C169.346 61.1765 169.81 58.5669 169.8 55.9376C169.8 52.3376 168.678 49.9496 166.434 48.7736C164.19 47.5976 161.178 48.0896 157.398 50.2496C153.534 52.4816 150.364 55.8296 147.888 60.2936C145.466 64.5355 144.164 69.3236 144.102 74.2076Z" fill="#9269AD"/>
<path d="M156.132 132.498C159.192 130.726 161.804 130.616 163.968 132.168C166.132 133.72 167.214 136.482 167.214 140.454C167.148 144.674 166.046 148.814 164.004 152.508C161.868 156.568 159.286 159.472 156.258 161.22C153.23 162.968 150.658 163.04 148.542 161.436C146.422 159.836 145.362 157.046 145.362 153.066C145.414 148.869 146.496 144.748 148.512 141.066C150.612 137.074 153.152 134.218 156.132 132.498Z" fill="#9269AD"/>
</svg>
