<svg width="512" height="512" viewBox="0 0 512 512" fill="none" xmlns="http://www.w3.org/2000/svg">
<path d="M373.333 234.667C296.875 234.667 234.667 296.875 234.667 373.333C234.667 449.792 296.875 512 373.333 512C449.792 512 512 449.792 512 373.333C512 296.875 449.792 234.667 373.333 234.667ZM266.667 373.333C266.667 314.517 314.517 266.667 373.333 266.667C396.971 266.667 418.624 274.645 436.331 287.723L287.701 436.331C274.645 418.624 266.667 396.971 266.667 373.333ZM373.333 480C349.696 480 328.043 472.021 310.336 458.944L458.965 310.336C472.021 328.043 480 349.696 480 373.333C480 432.149 432.149 480 373.333 480Z" fill="#8740CD"/>
<path d="M326.827 198.187L250.069 121.429L265.749 105.749C274.091 97.408 274.091 83.9253 265.749 75.584C257.408 67.2427 243.925 67.2427 235.584 75.584L219.904 91.264L133.333 4.69332C127.36 -1.28002 116.693 -1.28002 110.72 4.69332C48.4267 66.9867 48.4267 168.32 110.72 230.613C140.8 260.693 180.053 276.267 219.733 277.12C243.84 238.72 281.813 209.92 326.827 198.187Z" fill="#8740CD"/>
<path d="M341.333 112C341.333 50.24 291.093 0 229.333 0C220.501 0 213.333 7.168 213.333 16C213.333 24.832 220.501 32 229.333 32C273.429 32 309.333 67.904 309.333 112C309.333 120.832 316.501 128 325.333 128C334.165 128 341.333 120.832 341.333 112Z" fill="#8740CD"/>
<path d="M80.64 260.693C67.84 247.893 57.3867 233.813 48.64 218.88L1.92003 356.907C-1.70663 368 3.43302e-05 379.947 7.04003 389.547C14.08 399.36 25.8134 405.333 38.1867 405.333H194.987C193.067 394.88 192 384.213 192 373.333C192 354.133 194.987 335.787 200.533 318.507C155.093 313.6 113.28 293.333 80.64 260.693V260.693Z" fill="#8740CD"/>
</svg>
