<svg width="354" height="354" viewBox="0 0 354 354" fill="none" xmlns="http://www.w3.org/2000/svg">
<path d="M177 328.264C263.986 328.264 334.502 287.551 334.502 237.329C334.502 187.106 263.986 146.393 177 146.393C90.0144 146.393 19.4985 187.106 19.4985 237.329C19.4985 287.551 90.0144 328.264 177 328.264Z" fill="#F5F5F5"/>
<path d="M205.277 312.724L282.549 268.12C284.241 267.143 284.241 265.557 282.549 264.58L136.255 180.108C135.304 179.626 134.254 179.375 133.189 179.375C132.124 179.375 131.073 179.626 130.123 180.108L52.8521 224.712C51.16 225.689 51.16 227.275 52.8521 228.252L199.146 312.724C200.096 313.206 201.146 313.457 202.212 313.457C203.277 313.457 204.327 313.206 205.277 312.724Z" fill="#E0E0E0"/>
<path d="M67.6282 226.404L73.6887 222.907C73.6887 222.907 75.1684 209.936 74.1843 199.89C72.7683 185.779 63.6775 168.794 52.8027 172.78C41.9278 176.766 57.7587 191.146 61.2987 203.118C64.8387 215.09 67.6282 226.404 67.6282 226.404Z" fill="#9269AD"/>
<path opacity="0.15" d="M67.6282 226.404L73.6887 222.907C73.6887 222.907 75.1684 209.936 74.1843 199.89C72.7683 185.779 63.6775 168.794 52.8027 172.78C41.9278 176.766 57.7587 191.146 61.2987 203.118C64.8387 215.09 67.6282 226.404 67.6282 226.404Z" fill="black"/>
<path d="M70.7999 224.932C70.7035 224.928 70.6124 224.886 70.5462 224.816C70.48 224.746 70.444 224.653 70.4459 224.556C71.5079 193.192 55.9319 177.411 55.7407 177.255C55.7063 177.221 55.6789 177.181 55.6602 177.137C55.6415 177.092 55.6318 177.045 55.6318 176.996C55.6318 176.948 55.6415 176.901 55.6602 176.856C55.6789 176.812 55.7063 176.772 55.7407 176.738C55.8096 176.67 55.9024 176.632 55.9992 176.632C56.0959 176.632 56.1887 176.67 56.2576 176.738C56.4133 176.901 72.2584 192.902 71.1822 224.585C71.1767 224.681 71.1336 224.771 71.062 224.836C70.9905 224.901 70.8964 224.935 70.7999 224.932Z" fill="white"/>
<path d="M64.4278 228.911L68.6758 226.418C68.6758 226.418 69.3838 217.519 65.0509 206.708C61.2489 197.291 51.8254 189.482 47.0818 191.132C42.3382 192.781 42.4798 196.116 44.795 199.656C47.1101 203.196 61.171 211.586 64.4278 228.911Z" fill="#9269AD"/>
<path d="M66.672 227.976C66.5744 227.976 66.4807 227.937 66.4117 227.868C66.3426 227.799 66.3039 227.705 66.3039 227.608C66.3888 207.784 47.7684 194.374 47.5773 194.24C47.499 194.183 47.4462 194.098 47.4303 194.002C47.4144 193.907 47.4367 193.809 47.4923 193.73C47.5198 193.69 47.5549 193.657 47.5956 193.631C47.6363 193.605 47.6818 193.588 47.7293 193.58C47.7768 193.572 47.8254 193.574 47.8722 193.585C47.9191 193.596 47.9632 193.617 48.0021 193.645C48.1932 193.78 67.1181 207.401 67.0402 227.629C67.0331 227.722 66.9914 227.81 66.9233 227.874C66.8552 227.938 66.7656 227.974 66.672 227.976Z" fill="white"/>
<path d="M274.513 38.7346L280.616 42.2746C280.58 42.0071 280.561 41.7375 280.559 41.4675V39.6479C280.559 36.5044 282.768 35.23 285.515 36.8159C286.687 37.5379 287.689 38.5039 288.454 39.6479C288.9 35.6973 291.994 34.2247 295.767 36.3982C299.838 38.7488 303.145 44.4694 303.145 49.1422V51.7831C303.171 52.8396 302.956 53.8883 302.515 54.8487L307.584 57.7727C308.379 58.2909 309.041 58.9891 309.515 59.8108C309.99 60.6325 310.265 61.5546 310.317 62.5022C310.317 64.2509 309.092 64.9519 307.584 64.081L274.513 45.0429C273.718 44.5248 273.056 43.8265 272.581 43.0048C272.107 42.1831 271.832 41.2611 271.78 40.3135C271.78 38.5647 273.005 37.8567 274.513 38.7346Z" fill="#EBEBEB"/>
<path d="M249.216 54.4381L253.684 57.0152C253.673 56.8195 253.673 56.6233 253.684 56.4276V55.1319C253.684 52.8239 255.298 51.8893 257.294 53.0079C258.142 53.5403 258.866 54.2476 259.418 55.0824C259.744 52.1796 262.017 51.1034 264.778 52.6964C266.351 53.7222 267.661 55.104 268.601 56.7302C269.54 58.3563 270.084 60.1809 270.187 62.0562V63.9961C270.205 64.7693 270.047 65.5365 269.727 66.2404L273.437 68.3644C274.021 68.7436 274.508 69.2554 274.858 69.8582C275.207 70.4611 275.409 71.1379 275.448 71.8337C275.448 73.1151 274.548 73.632 273.437 72.9877L249.216 59.0684C248.632 58.6874 248.147 58.174 247.798 57.57C247.45 56.966 247.25 56.2883 247.213 55.5921C247.184 54.3177 248.076 53.808 249.216 54.4381Z" fill="#EBEBEB"/>
<path d="M277.862 252.947C278.966 253.797 278.846 255.008 277.515 255.779L204.612 297.884C203.79 298.3 202.882 298.516 201.961 298.516C201.04 298.516 200.131 298.3 199.309 297.884L59.8899 217.406C58.5376 216.627 58.4314 215.402 59.5783 214.574C58.8925 215.091 58.3276 215.752 57.9229 216.51C57.5182 217.268 57.2834 218.105 57.2349 218.963V222.468C57.2854 223.389 57.5521 224.286 58.0133 225.086C58.4745 225.885 59.1174 226.565 59.8899 227.07L199.26 307.52C200.082 307.939 200.992 308.157 201.915 308.157C202.838 308.157 203.747 307.939 204.57 307.52L277.494 265.422C278.266 264.919 278.91 264.241 279.371 263.442C279.832 262.644 280.099 261.748 280.149 260.827V257.287C280.099 256.443 279.869 255.619 279.474 254.87C279.08 254.122 278.53 253.466 277.862 252.947Z" fill="#455A64"/>
<path d="M277.536 252.714L138.124 172.235C137.302 171.82 136.394 171.603 135.472 171.603C134.551 171.603 133.643 171.82 132.821 172.235L59.897 214.347C58.4315 215.19 58.4315 216.563 59.897 217.406L199.274 297.884C200.096 298.3 201.004 298.516 201.925 298.516C202.847 298.516 203.755 298.3 204.577 297.884L277.501 255.772C278.952 254.93 278.952 253.556 277.536 252.714ZM258.626 246.207C259.879 246.915 259.879 248.104 258.626 248.827L192.314 287.122C191.608 287.478 190.829 287.664 190.038 287.664C189.247 287.664 188.468 287.478 187.762 287.122L79.2113 224.436C77.9581 223.728 77.9581 222.532 79.2113 221.809L145.53 183.521C146.783 182.813 148.093 182.374 149.346 183.096L258.626 246.207Z" fill="#37474F"/>
<path d="M59.5783 214.524C58.8925 215.042 58.3276 215.702 57.9229 216.46C57.5182 217.219 57.2834 218.056 57.2349 218.914V222.418C57.286 223.34 57.5529 224.236 58.0141 225.035C58.4752 225.835 59.1178 226.515 59.8899 227.02L199.26 307.52C200.079 307.952 200.995 308.171 201.922 308.157V298.514C200.998 298.531 200.084 298.315 199.267 297.884L59.8899 217.405C58.5376 216.648 58.4314 215.402 59.5783 214.524Z" fill="#263238"/>
<path d="M103.368 197.426C104.352 196.859 104.352 195.939 103.368 195.373C102.819 195.096 102.213 194.951 101.598 194.951C100.983 194.951 100.377 195.096 99.8279 195.373C98.8438 195.939 98.8438 196.859 99.8279 197.426C100.377 197.703 100.983 197.847 101.598 197.847C102.213 197.847 102.819 197.703 103.368 197.426Z" fill="black"/>
<path d="M238.342 274.435C240.657 273.104 240.657 270.938 238.342 269.607C237.045 268.944 235.61 268.599 234.154 268.599C232.698 268.599 231.262 268.944 229.966 269.607C227.651 270.938 227.651 273.104 229.966 274.435C231.262 275.098 232.698 275.443 234.154 275.443C235.61 275.443 237.045 275.098 238.342 274.435V274.435Z" stroke="#E6E6E6" stroke-miterlimit="10"/>
<path d="M101.591 204.237L115.326 196.314C116.14 195.84 116.183 195.097 115.418 194.65C114.972 194.438 114.483 194.332 113.989 194.341C113.496 194.349 113.01 194.472 112.572 194.7L98.8369 202.623C98.0227 203.097 97.9802 203.84 98.7449 204.286C99.1908 204.499 99.6799 204.605 100.174 204.596C100.668 204.588 101.153 204.465 101.591 204.237Z" fill="black"/>
<path d="M149.346 183.124C148.093 182.416 146.783 182.82 145.53 183.549L79.2114 221.838C77.9582 222.546 77.9582 223.735 79.2114 224.464L187.734 287.115C188.44 287.471 189.219 287.657 190.01 287.657C190.8 287.657 191.58 287.471 192.286 287.115L258.597 248.82C259.858 248.112 259.858 246.922 258.597 246.2L149.346 183.124Z" fill="#9269AD"/>
<path opacity="0.85" d="M149.346 183.124C148.093 182.416 146.783 182.82 145.53 183.549L79.2114 221.838C77.9582 222.546 77.9582 223.735 79.2114 224.464L187.734 287.115C188.44 287.471 189.219 287.657 190.01 287.657C190.8 287.657 191.58 287.471 192.286 287.115L258.597 248.82C259.858 248.112 259.858 246.922 258.597 246.2L149.346 183.124Z" fill="white"/>
<path d="M86.8505 225.279L86.1425 224.868C86.11 224.856 86.082 224.834 86.0622 224.806C86.0423 224.777 86.0317 224.743 86.0317 224.709C86.0317 224.674 86.0423 224.64 86.0622 224.612C86.082 224.583 86.11 224.561 86.1425 224.549L86.2204 224.507C86.3054 224.462 86.4002 224.438 86.4965 224.438C86.5928 224.438 86.6876 224.462 86.7726 224.507L87.4807 224.91C87.6293 225.003 87.6293 225.144 87.4807 225.229L87.4028 225.279C87.3168 225.321 87.2223 225.342 87.1267 225.342C87.031 225.342 86.9365 225.321 86.8505 225.279Z" fill="#455A64"/>
<path d="M88.1108 224.549L86.8859 223.841C86.7372 223.756 86.7372 223.615 86.8859 223.523L86.9638 223.48C87.0498 223.438 87.1442 223.417 87.2399 223.417C87.3356 223.417 87.43 223.438 87.516 223.48L88.7409 224.188C88.8896 224.273 88.8896 224.415 88.7409 224.507L88.663 224.549C88.577 224.591 88.4826 224.613 88.3869 224.613C88.2912 224.613 88.1968 224.591 88.1108 224.549Z" fill="#455A64"/>
<path d="M89.371 223.82L87.6364 222.822C87.4806 222.73 87.4806 222.588 87.6364 222.503L87.7142 222.454C87.8002 222.412 87.8947 222.39 87.9904 222.39C88.086 222.39 88.1805 222.412 88.2665 222.454L90.0011 223.459C90.0336 223.471 90.0616 223.493 90.0814 223.521C90.1012 223.55 90.1119 223.584 90.1119 223.618C90.1119 223.653 90.1012 223.687 90.0814 223.715C90.0616 223.744 90.0336 223.766 90.0011 223.778L89.9232 223.82C89.8382 223.865 89.7434 223.889 89.6471 223.889C89.5508 223.889 89.456 223.865 89.371 223.82Z" fill="#455A64"/>
<path d="M90.6244 223.098L87.6295 221.363C87.4738 221.278 87.4738 221.137 87.6295 221.045L87.7074 221.002C87.7929 220.959 87.8875 220.936 87.9835 220.936C88.0795 220.936 88.1741 220.959 88.2596 221.002L91.2474 222.73C91.4032 222.822 91.4032 222.963 91.2474 223.048L91.1766 223.098C91.0906 223.14 90.9962 223.162 90.9005 223.162C90.8048 223.162 90.7104 223.14 90.6244 223.098Z" fill="#455A64"/>
<path d="M94.242 221.243C94.1943 221.248 94.1463 221.236 94.1075 221.207L93.6685 220.953L92.2525 221.767C92.2221 221.787 92.1864 221.798 92.1498 221.798C92.1133 221.798 92.0775 221.787 92.0472 221.767L91.8843 221.675L91.8135 221.625V221.554L91.7427 219.777C91.7381 219.752 91.7381 219.725 91.7427 219.699C91.7661 219.672 91.7951 219.651 91.8277 219.636L92.0189 219.522C92.0689 219.493 92.1242 219.474 92.1817 219.466C92.2341 219.467 92.2854 219.481 92.3304 219.508L93.8667 220.393L94.1783 220.216C94.2248 220.185 94.2783 220.166 94.334 220.16C94.3844 220.16 94.4337 220.174 94.4756 220.202L94.5818 220.266C94.6314 220.266 94.6526 220.315 94.6455 220.344C94.6384 220.372 94.6455 220.393 94.5535 220.429L94.242 220.613L94.6809 220.868C94.7305 220.868 94.7517 220.917 94.7447 220.946C94.7376 220.974 94.7092 221.002 94.6455 221.038L94.4048 221.172C94.359 221.212 94.3022 221.236 94.242 221.243ZM93.3853 220.684L92.2879 220.053L92.3587 221.278L93.3853 220.684Z" fill="#455A64"/>
<path d="M95.6507 220.124C95.1551 220.148 94.6632 220.028 94.2347 219.777C93.7958 219.523 93.5975 219.246 93.6329 218.949C93.6683 218.652 93.9444 218.361 94.4471 218.071C94.6455 217.954 94.854 217.854 95.0702 217.774C95.2602 217.7 95.457 217.646 95.6578 217.611C95.6874 217.599 95.7202 217.599 95.7499 217.611C95.7528 217.623 95.7528 217.635 95.7499 217.646L95.8136 217.83C95.8205 217.838 95.8244 217.848 95.8244 217.859C95.8244 217.869 95.8205 217.879 95.8136 217.887H95.7357C95.4307 217.947 95.1385 218.06 94.8719 218.22C94.5321 218.411 94.348 218.616 94.3197 218.822C94.2914 219.027 94.4471 219.232 94.787 219.423C95.0976 219.613 95.4566 219.709 95.8206 219.7C96.1808 219.686 96.5317 219.581 96.8402 219.395C96.9506 219.331 97.057 219.26 97.1588 219.183C97.2395 219.125 97.3111 219.056 97.3712 218.977L96.6632 218.567L96.0755 218.907C96.0254 218.936 95.9701 218.955 95.9127 218.963C95.8626 218.961 95.8138 218.947 95.7711 218.921L95.672 218.864C95.6248 218.836 95.6035 218.807 95.6082 218.779C95.6082 218.779 95.6436 218.73 95.7003 218.694L96.6419 218.149C96.6977 218.115 96.7609 218.096 96.826 218.092C96.8839 218.093 96.9404 218.11 96.9889 218.142L98.0084 218.73C98.0371 218.741 98.0617 218.761 98.0792 218.786C98.0792 218.786 98.0792 218.822 98.0792 218.85C97.8567 219.183 97.5485 219.449 97.1871 219.622C96.7242 219.913 96.1964 220.086 95.6507 220.124Z" fill="#455A64"/>
<path d="M115.248 206.368L116.912 207.331C116.983 207.366 117.06 207.384 117.139 207.384C117.217 207.384 117.295 207.366 117.365 207.331L119.043 206.368C119.164 206.29 119.164 206.177 119.043 206.106L117.372 205.143C117.303 205.105 117.225 205.084 117.146 205.084C117.067 205.084 116.989 205.105 116.919 205.143L115.248 206.106C115.121 206.177 115.121 206.29 115.248 206.368Z" fill="#455A64"/>
<path d="M116.402 205.058C116.182 204.951 115.939 204.898 115.694 204.902C115.449 204.896 115.206 204.949 114.986 205.058C114.661 205.249 114.661 205.54 114.986 205.724L115.56 206.056L115.978 205.971L115.404 205.646C115.353 205.626 115.309 205.592 115.279 205.547C115.248 205.502 115.231 205.449 115.231 205.394C115.231 205.34 115.248 205.287 115.279 205.242C115.309 205.197 115.353 205.163 115.404 205.143C115.496 205.094 115.598 205.067 115.702 205.065C115.804 205.062 115.905 205.089 115.992 205.143L116.565 205.476L116.99 205.391L116.402 205.058Z" fill="#455A64"/>
<path d="M146.783 187.493C146.502 187.483 146.224 187.547 145.976 187.677L141.728 190.119C141.36 190.325 141.36 190.657 141.728 190.87L143.271 191.755C143.52 191.885 143.798 191.948 144.078 191.939C144.209 191.938 144.339 191.926 144.468 191.903C144.613 191.88 144.752 191.83 144.878 191.755L149.126 189.319C149.487 189.107 149.487 188.774 149.126 188.569L147.583 187.677C147.337 187.547 147.061 187.483 146.783 187.493ZM144.093 191.741C143.971 191.739 143.852 191.707 143.746 191.649L142.209 190.757C142.15 190.735 142.099 190.697 142.063 190.645C142.027 190.594 142.007 190.533 142.007 190.47C142.007 190.407 142.027 190.346 142.063 190.294C142.099 190.243 142.15 190.204 142.209 190.183L146.457 187.748C146.525 187.706 146.599 187.677 146.677 187.663H146.804C146.924 187.666 147.041 187.7 147.144 187.762L148.68 188.647C148.74 188.668 148.791 188.707 148.827 188.758C148.863 188.809 148.883 188.871 148.883 188.933C148.883 188.996 148.863 189.057 148.827 189.109C148.791 189.16 148.74 189.199 148.68 189.22L144.432 191.663C144.329 191.724 144.212 191.758 144.093 191.762V191.741Z" fill="#455A64"/>
<path d="M144.213 191.465L144.156 191.429L142.74 190.629C142.697 190.613 142.659 190.584 142.633 190.546C142.606 190.508 142.592 190.463 142.592 190.417C142.592 190.37 142.606 190.325 142.633 190.287C142.659 190.249 142.697 190.22 142.74 190.204L146.549 188.01C146.573 187.993 146.599 187.981 146.627 187.974L146.684 188.01L148.1 188.81C148.141 188.827 148.176 188.856 148.2 188.893C148.225 188.93 148.238 188.974 148.238 189.018C148.238 189.063 148.225 189.107 148.2 189.144C148.176 189.181 148.141 189.21 148.1 189.227L144.291 191.429L144.213 191.465Z" fill="#455A64"/>
<path d="M147.802 187.563C147.948 187.529 148.1 187.525 148.248 187.553C148.395 187.582 148.535 187.64 148.659 187.726L148.942 187.896C149.26 188.073 149.395 188.3 149.246 188.399L148.97 188.569L147.554 187.726L147.802 187.563Z" fill="#455A64"/>
<path d="M123.61 229.165C124.651 229.122 125.668 228.841 126.583 228.344C128.311 227.346 128.757 225.987 126.017 224.28C125.925 224.795 125.715 225.282 125.402 225.702C125.09 226.123 124.685 226.465 124.219 226.702C121.868 228.061 119.192 228.408 117.032 227.169C114.873 225.93 115.616 224.089 117.981 222.73C119.503 221.862 121.226 221.408 122.977 221.414C124.729 221.421 126.449 221.886 127.964 222.765C131.964 225.073 131.065 227.516 128.233 229.137C126.751 229.967 125.1 230.451 123.404 230.553L123.61 229.165ZM124.608 223.544C122.534 222.645 120.771 222.772 119.433 223.544C118.307 224.188 118.08 225.13 119.326 225.845C119.95 226.182 120.655 226.343 121.364 226.309C122.072 226.276 122.759 226.049 123.348 225.654C123.745 225.469 124.077 225.169 124.302 224.793C124.527 224.416 124.633 223.981 124.608 223.544Z" fill="#455A64"/>
<path d="M129.564 219.091C129.987 218.835 130.464 218.683 130.956 218.648C131.449 218.614 131.943 218.698 132.396 218.892C133.104 219.317 132.97 220.025 132.064 220.542C131.635 220.804 131.149 220.96 130.648 220.995C130.146 221.031 129.644 220.946 129.182 220.747C128.453 220.33 128.637 219.615 129.564 219.091ZM135.094 222.284C135.516 222.028 135.994 221.878 136.487 221.844C136.979 221.811 137.473 221.896 137.926 222.093C138.634 222.51 138.499 223.218 137.593 223.742C137.164 224.003 136.678 224.157 136.177 224.193C135.676 224.229 135.174 224.145 134.712 223.948C133.989 223.53 134.166 222.808 135.073 222.312L135.094 222.284Z" fill="#455A64"/>
<path d="M136.028 218.425C132.552 216.414 132.552 214.326 135.398 212.676C138.244 211.027 141.883 211.041 145.353 213.044C148.822 215.048 148.893 217.2 146.061 218.85C143.229 220.5 139.512 220.436 136.028 218.425ZM142.974 214.411C140.064 212.733 138.195 212.747 136.857 213.519C135.519 214.29 135.49 215.374 138.4 217.059C141.31 218.744 143.307 218.772 144.623 218.015C145.94 217.257 145.891 216.096 142.974 214.411Z" fill="#455A64"/>
<path d="M147.102 212.032C143.618 210.021 143.618 207.932 146.464 206.29C149.31 204.647 152.957 204.654 156.419 206.651C159.881 208.648 160.001 210.814 157.127 212.457C154.252 214.099 150.578 214.043 147.102 212.032ZM154.047 208.025C151.13 206.339 149.261 206.354 147.923 207.125C146.585 207.897 146.556 208.98 149.473 210.665C152.39 212.35 154.38 212.372 155.69 211.614C156.999 210.857 156.957 209.702 154.047 208.025Z" fill="#455A64"/>
<path d="M129.253 244.706L184.958 212.549C185.617 212.216 186.344 212.042 187.082 212.042C187.82 212.042 188.547 212.216 189.206 212.549L203.444 220.769C204.619 221.477 204.619 222.546 203.444 223.225L147.76 255.383C147.101 255.716 146.374 255.889 145.636 255.889C144.898 255.889 144.17 255.716 143.512 255.383L129.253 247.163C128.077 246.483 128.077 245.386 129.253 244.706Z" fill="#9269AD"/>
<path d="M135.228 245.797L145.197 251.545C145.48 251.692 145.795 251.768 146.114 251.768C146.433 251.768 146.747 251.692 147.031 251.545L161.722 243.049C162.231 242.752 162.231 242.278 161.722 241.987L151.753 236.231C151.468 236.088 151.154 236.014 150.836 236.014C150.518 236.014 150.204 236.088 149.919 236.231L135.228 244.727C135.114 244.763 135.014 244.834 134.943 244.93C134.872 245.026 134.833 245.142 134.833 245.262C134.833 245.382 134.872 245.498 134.943 245.594C135.014 245.69 135.114 245.761 135.228 245.797Z" fill="#FAFAFA"/>
<path d="M150.266 243.028L162.083 242.561L150.309 242.384L150.783 236.033L148.85 243.871L134.839 245.258L146.28 244.72L145.997 251.765L146.875 244.692L150.153 244.536L150.266 243.028Z" fill="#9269AD"/>
<path d="M156.468 233.229L170.862 224.953C171.221 224.771 171.617 224.677 172.019 224.677C172.422 224.677 172.818 224.771 173.177 224.953C173.807 225.314 173.786 225.909 173.128 226.291L158.734 234.567C158.375 234.749 157.978 234.844 157.576 234.844C157.174 234.844 156.778 234.749 156.419 234.567C155.796 234.206 155.824 233.64 156.468 233.229Z" fill="#FAFAFA"/>
<path d="M160.907 235.764L190.077 218.907C190.436 218.725 190.832 218.63 191.234 218.63C191.637 218.63 192.033 218.725 192.392 218.907C193.022 219.268 193.001 219.87 192.342 220.245L163.173 237.102C162.813 237.283 162.415 237.378 162.012 237.378C161.609 237.378 161.211 237.283 160.851 237.102C160.228 236.762 160.249 236.168 160.907 235.764Z" fill="#FAFAFA"/>
<path d="M165.332 238.341L194.509 221.484C194.868 221.302 195.265 221.207 195.667 221.207C196.069 221.207 196.465 221.302 196.824 221.484C197.447 221.845 197.426 222.446 196.775 222.822L167.598 239.679C167.239 239.861 166.843 239.955 166.44 239.955C166.038 239.955 165.642 239.861 165.283 239.679C164.653 239.304 164.681 238.723 165.332 238.341Z" fill="#FAFAFA"/>
<path d="M122.874 128.53L217.307 74.0144L221.087 76.195C221.603 76.5342 222.031 76.9895 222.339 77.5244C222.646 78.0593 222.824 78.6588 222.857 79.2748V148.935C222.824 149.551 222.647 150.151 222.339 150.686C222.032 151.221 221.603 151.676 221.087 152.015L130.201 204.478C129.651 204.751 129.046 204.894 128.431 204.894C127.817 204.894 127.211 204.751 126.661 204.478L124.665 203.324C124.149 202.984 123.719 202.529 123.411 201.994C123.102 201.46 122.923 200.86 122.888 200.244L122.874 128.53Z" fill="#9269AD"/>
<path opacity="0.05" d="M122.874 128.53L217.307 74.0144L221.087 76.195C221.603 76.5342 222.031 76.9895 222.339 77.5244C222.646 78.0593 222.824 78.6588 222.857 79.2748V148.935C222.824 149.551 222.647 150.151 222.339 150.686C222.032 151.221 221.603 151.676 221.087 152.015L130.201 204.478C129.651 204.751 129.046 204.894 128.431 204.894C127.817 204.894 127.211 204.751 126.661 204.478L124.665 203.324C124.149 202.984 123.719 202.529 123.411 201.994C123.102 201.46 122.923 200.86 122.888 200.244L122.874 128.53Z" fill="black"/>
<path d="M216.783 67.8829L217.172 67.6705L215.707 66.8209C215.579 66.7494 215.447 66.6879 215.31 66.6369L173.75 51.2379C173.181 51.0467 172.565 51.0418 171.992 51.2238C171.419 51.4058 170.919 51.7653 170.564 52.2503L124.07 120.14C123.348 121.311 122.936 122.646 122.874 124.02V128.53L124.29 129.366L217.285 74.0071V69.4972C217.272 68.9227 217.098 68.3634 216.783 67.8829Z" fill="#9269AD"/>
<path opacity="0.1" d="M172.483 52.5832C172.298 52.7281 172.136 52.9 172.002 53.093L125.507 120.983C125.125 121.584 124.834 122.237 124.644 122.923L123.228 122.088C123.332 121.738 123.458 121.396 123.603 121.061C123.666 120.919 123.73 120.785 123.801 120.65V120.587C123.875 120.445 123.957 120.307 124.049 120.176L170.557 52.2576C170.627 52.157 170.706 52.0623 170.791 51.9744L171.039 51.7478L172.483 52.5832Z" fill="black"/>
<path opacity="0.35" d="M217.151 67.6707C217.025 67.5943 216.892 67.5303 216.754 67.4796L175.187 52.0735C174.731 51.9215 174.242 51.8885 173.769 51.9777C173.296 52.0669 172.853 52.2753 172.483 52.5832L171.067 51.7478C171.44 51.4428 171.884 51.2363 172.358 51.1473C172.831 51.0582 173.32 51.0894 173.779 51.238L215.338 66.637C215.474 66.6878 215.604 66.7518 215.728 66.8282L217.151 67.6707Z" fill="white"/>
<path d="M123.822 120.551C123.898 120.41 123.98 120.273 124.07 120.141C123.98 120.273 123.898 120.41 123.822 120.551Z" fill="#9269AD"/>
<path d="M170.798 51.9744C170.874 51.8916 170.956 51.8158 171.046 51.7478C170.955 51.814 170.872 51.8899 170.798 51.9744Z" fill="#9269AD"/>
<path d="M123.192 122.087C123.297 121.736 123.422 121.391 123.567 121.054C123.422 121.391 123.297 121.736 123.192 122.087Z" fill="#9269AD"/>
<path d="M123.588 121.026C123.652 120.884 123.723 120.75 123.787 120.622C123.723 120.75 123.652 120.884 123.588 121.026Z" fill="#9269AD"/>
<path opacity="0.2" d="M123.787 120.622C123.787 120.622 123.787 120.572 123.787 120.551C123.787 120.53 123.801 120.601 123.787 120.622Z" fill="black"/>
<path opacity="0.2" d="M170.564 52.2505C170.632 52.1505 170.711 52.058 170.798 51.9744C170.709 52.056 170.63 52.1488 170.564 52.2505Z" fill="black"/>
<path d="M172.001 53.1L125.514 120.997C124.786 122.163 124.372 123.497 124.311 124.87V129.38L218.744 74.8639V70.3327C218.708 69.7223 218.504 69.1338 218.152 68.6335C217.801 68.1332 217.316 67.7409 216.754 67.5007L175.194 52.1017C174.625 51.913 174.01 51.9078 173.437 52.0869C172.864 52.266 172.362 52.6204 172.001 53.1Z" fill="#9269AD"/>
<path d="M134.591 194.99L131.56 193.242C131.31 193.051 131.114 192.799 130.99 192.51C130.866 192.221 130.819 191.905 130.852 191.592V97.1731C130.892 96.2146 131.185 95.2838 131.702 94.4756L134.782 96.2456C134.261 97.057 133.967 97.9935 133.932 98.9572V193.341C133.895 193.649 133.935 193.962 134.05 194.25C134.165 194.538 134.351 194.793 134.591 194.99Z" fill="#E0E0E0"/>
<path d="M136.481 94.4471L212.336 50.6644C213.752 49.8289 214.935 50.5016 214.935 52.1654V146.556C214.887 147.459 214.627 148.338 214.176 149.122C213.724 149.906 213.094 150.572 212.336 151.066L136.481 194.842C135.065 195.67 133.883 194.997 133.883 193.333V98.9571C133.932 98.0542 134.192 97.1755 134.644 96.3921C135.095 95.6086 135.725 94.9423 136.481 94.4471Z" fill="#F0F0F0"/>
<path d="M211.097 48.7033L214.071 50.4308C213.783 50.3235 213.473 50.2899 213.169 50.3332C212.864 50.3765 212.576 50.4952 212.329 50.6786L136.481 94.4543C135.754 94.8929 135.149 95.5093 134.725 96.2455L131.646 94.4755C132.073 93.7404 132.673 93.1206 133.394 92.6701L209.249 48.852C209.513 48.658 209.825 48.5402 210.151 48.5115C210.476 48.4828 210.804 48.5443 211.097 48.6891V48.7033Z" fill="#FAFAFA"/>
<path d="M142.4 99.3891L205.476 62.9696C206.325 62.4811 207.012 62.828 207.012 63.7484C206.974 64.2629 206.815 64.7612 206.548 65.2028C206.281 65.6444 205.914 66.0169 205.476 66.2901L142.4 102.71C141.551 103.198 140.864 102.851 140.864 101.938C140.901 101.422 141.06 100.922 141.327 100.48C141.594 100.037 141.962 99.663 142.4 99.3891Z" fill="#E0E0E0"/>
<path d="M142.4 106.009L205.476 69.5892C206.325 69.1007 207.012 69.4476 207.012 70.368C206.974 70.8826 206.815 71.3808 206.548 71.8224C206.281 72.264 205.914 72.6365 205.476 72.9097L142.4 109.329C141.551 109.818 140.864 109.471 140.864 108.558C140.901 108.042 141.06 107.542 141.327 107.099C141.594 106.656 141.962 106.283 142.4 106.009Z" fill="#E0E0E0"/>
<path d="M142.4 112.629L205.476 76.209C206.325 75.7205 207.012 76.0674 207.012 76.9808C206.975 77.4965 206.816 77.9962 206.549 78.4391C206.282 78.882 205.914 79.2556 205.476 79.5296L142.4 115.949C141.551 116.438 140.864 116.091 140.864 115.177C140.901 114.662 141.06 114.162 141.327 113.719C141.594 113.276 141.962 112.902 142.4 112.629Z" fill="#E0E0E0"/>
<path d="M142.4 119.248L205.476 82.836C206.325 82.3475 207.012 82.6944 207.012 83.6077C206.975 84.1235 206.816 84.6232 206.549 85.0661C206.282 85.509 205.914 85.8826 205.476 86.1565L142.4 122.576C141.551 123.065 140.864 122.718 140.864 121.797C140.901 121.281 141.06 120.782 141.327 120.339C141.594 119.896 141.962 119.522 142.4 119.248Z" fill="#E0E0E0"/>
<path d="M142.4 125.868L205.476 89.4488C206.325 88.9603 207.012 89.3072 207.012 90.2205C206.975 90.7363 206.816 91.236 206.549 91.6789C206.282 92.1218 205.914 92.4954 205.476 92.7693L142.4 129.189C141.551 129.677 140.864 129.33 140.864 128.41C140.902 127.895 141.061 127.397 141.328 126.956C141.595 126.514 141.962 126.142 142.4 125.868Z" fill="#E0E0E0"/>
<path d="M142.4 132.488L205.476 96.0684C206.325 95.5799 207.012 95.9268 207.012 96.8401C206.975 97.3559 206.816 97.8556 206.549 98.2985C206.282 98.7414 205.914 99.115 205.476 99.3889L142.4 135.808C141.551 136.297 140.864 135.95 140.864 135.03C140.902 134.515 141.061 134.017 141.328 133.575C141.595 133.134 141.962 132.761 142.4 132.488Z" fill="#E0E0E0"/>
<path d="M142.4 139.108L205.476 102.66C206.325 102.171 207.012 102.518 207.012 103.432C206.975 103.947 206.816 104.447 206.549 104.89C206.282 105.333 205.914 105.707 205.476 105.98L142.4 142.4C141.551 142.889 140.864 142.542 140.864 141.621C140.907 141.112 141.068 140.619 141.334 140.183C141.601 139.746 141.966 139.378 142.4 139.108Z" fill="#E0E0E0"/>
<path d="M142.4 145.728L205.476 109.308C206.325 108.813 207.012 109.167 207.012 110.08C206.975 110.596 206.816 111.095 206.549 111.538C206.282 111.981 205.914 112.355 205.476 112.629L142.4 149.048C141.551 149.537 140.864 149.19 140.864 148.269C140.902 147.755 141.061 147.257 141.328 146.815C141.595 146.373 141.962 146.001 142.4 145.728Z" fill="#E0E0E0"/>
<path d="M220.464 149.855C220.436 149.906 220.403 149.953 220.365 149.997L181.015 132.545C179.521 131.884 177.838 131.785 176.277 132.266C174.716 132.747 173.381 133.777 172.519 135.164L130.449 202.665L128.892 203.564C128.718 203.685 128.517 203.761 128.307 203.784C128.097 203.808 127.884 203.778 127.688 203.699L170.954 134.272C171.818 132.887 173.153 131.859 174.713 131.377C176.273 130.894 177.954 130.99 179.45 131.645L220.464 149.855Z" fill="#9269AD"/>
<path opacity="0.4" d="M168.632 141.303L168.731 141.218L130.435 202.672L128.877 203.571C128.703 203.691 128.502 203.765 128.292 203.789C128.083 203.812 127.87 203.784 127.674 203.706L167.088 140.396L168.632 141.303Z" fill="white"/>
<path opacity="0.4" d="M220.464 149.862C220.436 149.913 220.403 149.96 220.365 150.004L181.007 132.545C179.513 131.884 177.831 131.785 176.269 132.266C174.708 132.748 173.374 133.777 172.511 135.164L170.954 134.258C171.821 132.876 173.157 131.853 174.717 131.375C176.277 130.896 177.957 130.995 179.45 131.653L220.464 149.862Z" fill="white"/>
<path d="M222.829 78.8217C222.744 78.312 222.475 78.1704 222.121 78.4111C221.946 78.5417 221.793 78.6994 221.668 78.8784L221.469 79.1545L182.664 133.217L176.865 141.296C176.492 141.766 175.998 142.127 175.435 142.337C174.872 142.548 174.263 142.602 173.672 142.492L168.667 141.303L130.435 132.212C130.178 132.16 129.913 132.16 129.656 132.212C129.556 132.232 129.459 132.263 129.366 132.304L130.421 131.695L167.237 140.453L172.256 141.6C172.847 141.711 173.457 141.658 174.02 141.447C174.583 141.237 175.077 140.876 175.449 140.404L181.248 132.332L220.273 77.9934C220.392 77.8318 220.541 77.6948 220.712 77.5898L217.356 75.657L218.772 74.8428L221.108 76.188C221.556 76.49 221.939 76.8787 222.235 77.331C222.53 77.7833 222.732 78.2902 222.829 78.8217Z" fill="#9269AD"/>
<path opacity="0.4" d="M182.664 133.217L176.866 141.296C176.492 141.766 175.998 142.126 175.435 142.337C174.873 142.548 174.263 142.602 173.673 142.492L168.667 141.303L168.766 141.218L169.007 140.835L172.285 141.614C172.876 141.725 173.486 141.672 174.048 141.462C174.611 141.251 175.106 140.89 175.478 140.418L181.22 132.431L182.664 133.217Z" fill="white"/>
<path opacity="0.1" d="M221.08 76.188L218.744 74.8428L217.328 75.657L220.705 77.604C220.534 77.7095 220.385 77.8465 220.266 78.0075L181.248 132.347L181.191 132.424L182.607 133.21L221.462 79.1545L221.661 78.8784C221.786 78.6994 221.939 78.5417 222.114 78.4111C222.461 78.1704 222.73 78.312 222.822 78.8217C222.723 78.2885 222.517 77.7805 222.218 77.3281C221.919 76.8757 221.532 76.488 221.08 76.188Z" fill="black"/>
<path d="M131.2 133.345L122.874 128.53V200.244C122.909 200.86 123.088 201.46 123.397 201.994C123.705 202.529 124.135 202.984 124.651 203.323L126.647 204.477C127.197 204.751 127.803 204.894 128.417 204.894C129.031 204.894 129.637 204.751 130.187 204.477L131.185 203.897L131.2 133.345Z" fill="#9269AD"/>
<path opacity="0.15" d="M131.2 133.345L122.874 128.53V200.244C122.909 200.86 123.088 201.46 123.397 201.994C123.705 202.529 124.135 202.984 124.651 203.323L126.647 204.477C127.197 204.751 127.803 204.894 128.417 204.894C129.031 204.894 129.637 204.751 130.187 204.477L131.185 203.897L131.2 133.345Z" fill="black"/>
<path d="M221.469 79.1543V148.057C221.451 148.695 221.26 149.317 220.917 149.855C220.657 150.312 220.302 150.708 219.876 151.016L219.813 151.059L219.692 151.137L128.813 203.599C128.704 203.667 128.588 203.721 128.467 203.762C128.459 203.656 128.459 203.55 128.467 203.444V133.812C128.451 133.562 128.496 133.313 128.598 133.085C128.7 132.856 128.856 132.656 129.052 132.502C129.249 132.347 129.48 132.243 129.725 132.197C129.971 132.151 130.224 132.166 130.463 132.24L168.695 141.331L173.701 142.52C174.291 142.63 174.901 142.576 175.463 142.365C176.026 142.155 176.52 141.794 176.894 141.324L182.664 133.217L221.469 79.1543Z" fill="#455A64"/>
<path d="M222.864 79.296V148.956C222.842 149.594 222.651 150.214 222.312 150.754C222.048 151.211 221.694 151.608 221.271 151.923L221.2 151.958C221.164 151.986 221.127 152.012 221.087 152.036L130.208 204.47C130.035 204.594 129.833 204.672 129.621 204.696C129.409 204.721 129.195 204.692 128.998 204.612C128.847 204.524 128.72 204.401 128.627 204.253C128.535 204.105 128.48 203.937 128.467 203.762C128.459 203.656 128.459 203.55 128.467 203.444V133.812C128.451 133.563 128.496 133.313 128.598 133.085C128.7 132.857 128.856 132.657 129.052 132.502C129.249 132.347 129.48 132.243 129.725 132.197C129.971 132.152 130.224 132.166 130.463 132.24L168.695 141.331L173.701 142.52C174.291 142.63 174.901 142.576 175.463 142.366C176.026 142.155 176.52 141.795 176.894 141.324L182.664 133.217L221.498 79.1545L221.696 78.8783C222.312 77.965 222.864 78.1349 222.864 79.296Z" fill="#9269AD"/>
<path d="M221.087 152.008L221.201 151.93L221.271 151.894C221.694 151.58 222.048 151.182 222.312 150.726C222.643 150.195 222.83 149.588 222.857 148.963L182.664 133.217L209.568 158.656L221.087 152.008Z" fill="#9269AD"/>
<path opacity="0.2" d="M221.087 152.008L221.201 151.93L221.271 151.894C221.694 151.58 222.048 151.182 222.312 150.726C222.643 150.195 222.83 149.588 222.857 148.963L182.664 133.217L209.568 158.656L221.087 152.008Z" fill="black"/>
<path d="M128.431 203.451C128.405 203.678 128.443 203.907 128.541 204.114C128.638 204.32 128.792 204.495 128.984 204.619C129.181 204.699 129.395 204.728 129.607 204.703C129.819 204.679 130.021 204.601 130.194 204.478L161.481 186.416L168.624 141.31L128.431 202.29V203.451Z" fill="#9269AD"/>
<path opacity="0.15" d="M172.49 135.157L128.976 204.612C128.784 204.488 128.631 204.313 128.534 204.107C128.436 203.9 128.398 203.671 128.424 203.444V202.29L166.819 140.892L167.116 140.418L170.932 134.301L172.49 135.157Z" fill="black"/>
<path d="M222.312 150.726C222.048 151.182 221.694 151.58 221.271 151.894L221.2 151.93L130.208 204.47C130.035 204.594 129.833 204.672 129.621 204.696C129.409 204.721 129.195 204.692 128.998 204.612L172.511 135.136C173.384 133.742 174.73 132.71 176.302 132.227C177.874 131.745 179.567 131.845 181.071 132.509L222.312 150.726Z" fill="#9269AD"/>
<path d="M222.312 150.733C222.052 151.19 221.697 151.586 221.271 151.894L221.208 151.937L130.201 204.477C130.027 204.599 129.824 204.674 129.613 204.698C129.402 204.721 129.188 204.692 128.991 204.612L130.201 202.686L219.629 151.045L219.7 151.002C220.076 150.726 220.396 150.38 220.641 149.983L222.312 150.733Z" fill="#9269AD"/>
<path opacity="0.15" d="M123.192 122.087L124.608 122.923C124.407 123.551 124.295 124.204 124.275 124.863V129.366L122.859 128.53V124.02C122.88 123.364 122.992 122.713 123.192 122.087Z" fill="black"/>
<path d="M131.745 131.985L130.414 131.667L129.359 132.276L127.9 131.433L124.311 129.366L125.705 128.537L131.745 131.985Z" fill="#9269AD"/>
<path opacity="0.1" d="M131.745 131.985L125.712 128.544L124.296 129.373L127.886 131.44L129.344 132.283C129.429 132.241 129.52 132.212 129.613 132.198C129.87 132.145 130.135 132.145 130.392 132.198L133.33 132.906L166.819 140.892L167.116 140.418L131.745 131.985Z" fill="black"/>
<path d="M239.658 134.761L232.939 130.867L232.883 130.831C229.952 129.175 225.923 129.415 221.47 132C212.507 137.175 205.235 149.763 205.235 160.114C205.235 165.283 207.055 168.915 209.979 170.614L216.103 174.154L217.519 171.754C219.156 171.391 220.727 170.78 222.178 169.941C231.141 164.766 238.412 152.178 238.412 141.827C238.411 140.428 238.24 139.035 237.902 137.678L239.658 134.761Z" fill="#F28F8F"/>
<path opacity="0.15" d="M205.83 154.67C205.434 156.46 205.227 158.287 205.214 160.121C205.214 165.29 207.033 168.922 209.957 170.621L216.082 174.161L217.498 171.761C219.134 171.398 220.705 170.787 222.156 169.948C223.743 169.02 225.226 167.926 226.581 166.684L205.83 154.67Z" fill="black"/>
<path d="M227.841 135.688C218.878 140.864 211.607 153.452 211.607 163.803C211.607 174.154 218.878 178.352 227.841 173.177C236.805 168.002 244.076 155.413 244.076 145.062C244.076 134.711 236.812 130.513 227.841 135.688Z" fill="#FFA8A7"/>
<path d="M234.256 150.096V146.117C234.256 141.579 231.495 139.49 228.096 141.458C224.691 143.427 221.93 148.694 221.93 153.233V156.773C221.855 159.229 221.14 161.623 219.855 163.718C219.539 164.273 219.366 164.899 219.353 165.538C219.353 166.677 220.061 167.208 220.903 166.713L235.297 158.401C235.769 158.062 236.155 157.617 236.424 157.102C236.693 156.587 236.838 156.016 236.847 155.434C236.869 155.212 236.84 154.988 236.761 154.78C236.683 154.571 236.557 154.383 236.394 154.231C235.091 153.679 234.256 152.22 234.256 150.096Z" fill="white"/>
<path d="M231.049 162.132C231.049 164.313 229.725 166.84 228.097 167.796C226.468 168.752 225.137 167.739 225.137 165.566L231.049 162.132Z" fill="white"/>
</svg>
