<svg width="256" height="137" viewBox="0 0 256 137" fill="none" xmlns="http://www.w3.org/2000/svg">
<path d="M241.823 135.924C241.823 135.924 278.057 54.9243 200.109 39.9243C151.443 30.5343 152.745 -2.07569 83.9151 0.10431C13.4352 2.38431 41.1955 65.3243 32.0761 79.7143C22.9566 94.1043 -0.54017 99.8943 7.96566 135.964L241.823 135.924Z" fill="#EBF3FA"/>
<path d="M0.317385 136.225H255.683C255.767 136.225 255.848 136.193 255.907 136.137C255.967 136.081 256 136.005 256 135.925C256 135.845 255.967 135.769 255.907 135.713C255.848 135.657 255.767 135.625 255.683 135.625H0.317385C0.23321 135.625 0.152479 135.657 0.0929587 135.713C0.0334381 135.769 0 135.845 0 135.925C0 136.005 0.0334381 136.081 0.0929587 136.137C0.152479 136.193 0.23321 136.225 0.317385 136.225Z" fill="#2E3552"/>
<path d="M205.113 21.275C205.028 15.915 195.655 15.325 195.655 15.325C195.655 15.325 187.191 22.635 185.393 22.425C183.594 22.215 191.317 14.8349 191.317 14.8349C187.974 13.7049 178.178 15.565 178.178 15.565C178.178 15.565 175.967 25.9349 174.263 25.3049C172.56 24.6749 176.707 16.215 176.707 16.215C173.142 16.355 169.058 19.275 169.058 19.275C163.589 24.275 170.698 30.675 170.698 30.675C169.909 33.3248 168.458 35.7564 166.466 37.765C165.873 38.3098 165.335 38.9057 164.858 39.545L165.758 39.765C165.891 39.5548 166.036 39.3512 166.191 39.155V39.155L166.593 38.665C167.006 38.225 167.302 37.885 167.493 37.665C168.752 36.255 170.508 34.455 171.418 34.205C171.368 34.0661 171.34 33.9213 171.333 33.775C171.333 33.915 171.386 34.055 171.418 34.205C172.126 37.715 179.712 40.095 184.25 40.305C188.789 40.515 187.213 38.9049 185.393 36.4749C183.573 34.0449 178.58 33.375 177.342 32.295C176.104 31.215 178.4 30.995 181.225 31.895C184.049 32.795 184.737 35.895 189.265 37.395C193.793 38.895 199.559 31.525 199.559 31.525C196.099 31.695 190.799 28.645 190.863 27.525C190.926 26.405 199.4 28.5749 200.818 28.5849C202.235 28.5949 205.219 26.645 205.134 21.285" fill="#DFEBFD"/>
<path d="M213.217 73.715C217.629 66.715 205.907 58.835 205.907 58.835C205.907 58.835 188.737 61.995 186.547 60.345C184.357 58.695 200.67 54.925 200.67 54.925C197.274 50.925 182.918 45.925 182.918 45.925C182.918 45.925 171.281 57.785 169.599 55.665C167.916 53.545 180.464 45.665 180.464 45.665C175.692 43.155 167.916 43.875 167.916 43.875C156.544 46.305 160.426 59.975 160.426 59.975C157.141 62.8224 153.178 64.8804 148.874 65.975C147.644 66.2389 146.444 66.6105 145.287 67.085L146.282 68.085C146.641 67.915 146.99 67.755 147.339 67.625L148.281 67.295C149.201 67.035 149.857 66.815 150.312 66.645C153.137 65.765 156.946 64.745 158.342 65.105C158.402 64.8821 158.491 64.6671 158.607 64.465C158.522 64.675 158.437 64.885 158.342 65.105C156.3 70.205 164.192 79.045 169.979 82.725C175.766 86.405 175.026 83.135 174.698 78.605C174.37 74.075 168.435 69.425 167.726 67.085C167.017 64.745 170.202 66.185 173.121 69.485C176.041 72.785 174.359 77.305 178.972 82.715C183.584 88.125 197.327 82.825 197.327 82.825C192.683 80.445 188.356 72.465 189.361 71.085C190.366 69.705 199.602 78.895 201.442 79.965C203.283 81.035 208.848 80.755 213.228 73.705" fill="#CDE0FB"/>
<path d="M54.6323 47.4951C57.2454 42.4151 66.4601 45.8151 66.4601 45.8151C66.4601 45.8151 71.0621 56.3551 72.9029 56.9151C74.7437 57.4751 70.787 47.1851 70.787 47.1851C74.511 47.5051 82.9745 53.4251 82.9745 53.4251C82.9745 53.4251 80.171 64.2551 82.107 64.4251C84.043 64.5951 84.0748 54.7151 84.0748 54.7151C87.4073 56.3551 89.9252 60.8551 89.9252 60.8551C92.771 67.9651 82.9745 71.0551 82.9745 71.0551C82.4789 73.9208 82.7221 76.8572 83.6833 79.6151V79.6151C83.9944 80.386 84.2281 81.1829 84.3816 81.9951L83.4083 81.8151C83.4083 81.5551 83.3448 81.3051 83.2919 81.0651C83.2919 80.9151 83.1967 80.6951 83.1332 80.4351C82.9534 79.8351 82.837 79.4351 82.7735 79.0851C82.2339 77.2151 81.4087 74.7451 80.6576 74.0851C80.7724 73.9727 80.8687 73.8446 80.9433 73.7051L80.6576 74.0851C78.3301 77.1351 69.9513 76.2051 65.5291 74.4851C61.1069 72.7651 63.3603 71.8951 66.2485 70.3451C69.1367 68.7951 74.2148 70.2651 75.8969 69.7651C77.579 69.2651 75.5055 68.0751 72.3951 67.7651C69.2848 67.4551 67.1054 70.0551 62.112 69.6051C57.1185 69.1551 55.0767 59.6651 55.0767 59.6651C58.2505 61.2851 64.7885 60.6051 65.254 59.5351C65.7195 58.4651 56.6001 56.9351 55.2565 56.3451C53.9129 55.7551 51.9663 52.6351 54.59 47.5551" fill="#CDE0FB"/>
<g opacity="0.5">
<g opacity="0.5">
<path opacity="0.5" d="M206.097 135.415H190.852C189.865 135.412 188.92 135.04 188.222 134.381C187.524 133.721 187.131 132.827 187.128 131.895V97.0747C187.128 96.1429 187.519 95.249 188.215 94.5892C188.911 93.9294 189.855 93.5573 190.841 93.5547H206.086C207.073 93.5573 208.019 93.929 208.716 94.5886C209.414 95.2481 209.807 96.1419 209.81 97.0747V131.895C209.807 132.827 209.414 133.721 208.716 134.381C208.019 135.04 207.073 135.412 206.086 135.415" fill="#C0D8FB"/>
</g>
</g>
<path d="M208.213 125.535L207.948 123.705L207.684 121.875C207.618 121.425 207.366 121.017 206.984 120.742C206.601 120.467 206.119 120.345 205.642 120.405C205.586 120.395 205.528 120.395 205.473 120.405C205.649 120.161 205.758 119.879 205.79 119.585C205.949 120.004 206.274 120.347 206.697 120.543C207.12 120.738 207.606 120.771 208.053 120.633C208.501 120.495 208.874 120.198 209.093 119.804C209.312 119.411 209.361 118.952 209.228 118.525L208.773 116.735L208.318 114.935C208.278 114.703 208.187 114.481 208.051 114.283C207.916 114.085 207.739 113.916 207.531 113.785C207.324 113.655 207.09 113.566 206.844 113.524C206.599 113.483 206.347 113.489 206.105 113.543C205.862 113.598 205.634 113.698 205.434 113.84C205.234 113.981 205.067 114.159 204.944 114.364C204.82 114.568 204.742 114.795 204.715 115.029C204.687 115.263 204.711 115.5 204.785 115.725L205.473 118.445C205.368 118.3 205.24 118.172 205.092 118.065C204.787 117.846 204.417 117.723 204.034 117.715C204.215 117.496 204.338 117.239 204.394 116.965C204.451 116.624 204.396 116.275 204.235 115.965C204.339 115.641 204.34 115.295 204.238 114.97C204.137 114.645 203.937 114.355 203.664 114.135L200.638 111.795C200.279 111.534 199.831 111.409 199.38 111.443C198.929 111.478 198.508 111.67 198.198 111.982C197.889 112.294 197.714 112.704 197.707 113.132C197.701 113.56 197.863 113.974 198.162 114.295C198.001 114.295 197.841 114.316 197.686 114.355L195.792 114.845L193.909 115.335C193.596 115.417 193.312 115.575 193.085 115.795C192.858 116.015 192.697 116.287 192.619 116.585L192.428 116.135L191.667 114.425C191.469 114.021 191.112 113.705 190.673 113.544C190.234 113.384 189.746 113.39 189.311 113.562C188.877 113.734 188.53 114.059 188.344 114.468C188.158 114.877 188.147 115.339 188.313 115.755L189.075 117.455L189.551 118.555C189.228 118.675 188.949 118.881 188.746 119.147C188.544 119.413 188.426 119.728 188.408 120.055L188.313 121.905L188.207 123.755C188.188 124.21 188.355 124.654 188.673 124.995C188.999 125.33 189.45 125.531 189.931 125.555C190.139 125.568 190.347 125.544 190.545 125.485C190.355 125.844 190.303 126.254 190.397 126.645C190.05 126.831 189.781 127.124 189.635 127.475L188.884 129.185L188.133 130.895C188.041 131.103 187.994 131.325 187.994 131.55C187.994 131.775 188.041 131.998 188.133 132.205C188.221 132.414 188.353 132.604 188.52 132.763C188.687 132.923 188.887 133.05 189.106 133.135C189.451 133.269 189.83 133.299 190.193 133.222C190.557 133.145 190.886 132.965 191.138 132.705C191.255 132.982 191.453 133.221 191.709 133.395C191.897 133.533 192.112 133.634 192.342 133.692C192.571 133.751 192.811 133.767 193.046 133.738C193.282 133.709 193.51 133.636 193.716 133.525C193.922 133.413 194.103 133.263 194.248 133.085L195.443 131.615L196.628 130.145C196.786 129.95 196.897 129.725 196.956 129.485C197.382 129.529 197.81 129.426 198.162 129.195L198.48 128.995L198.046 129.525L196.861 130.995C196.694 131.172 196.567 131.379 196.488 131.604C196.41 131.828 196.381 132.066 196.404 132.302C196.428 132.538 196.502 132.766 196.623 132.974C196.744 133.181 196.909 133.363 197.108 133.507C197.306 133.651 197.534 133.755 197.777 133.812C198.02 133.869 198.273 133.878 198.52 133.839C198.767 133.799 199.003 133.712 199.213 133.582C199.422 133.452 199.601 133.283 199.739 133.085L200.934 131.615L202.119 130.145C202.122 130.125 202.122 130.105 202.119 130.085C202.212 130.233 202.33 130.364 202.468 130.475L202.045 130.995C201.77 131.358 201.656 131.808 201.725 132.25C201.795 132.691 202.044 133.09 202.419 133.361C202.794 133.633 203.266 133.756 203.735 133.704C204.204 133.653 204.634 133.431 204.933 133.085L207.313 130.145C207.603 129.782 207.728 129.326 207.663 128.875C207.634 128.652 207.558 128.436 207.44 128.24C207.322 128.044 207.164 127.873 206.975 127.735C206.841 127.642 206.695 127.564 206.541 127.505H206.605C206.842 127.475 207.07 127.4 207.276 127.286C207.483 127.172 207.663 127.02 207.808 126.84C207.952 126.66 208.058 126.454 208.118 126.236C208.178 126.017 208.193 125.789 208.16 125.565L208.213 125.535ZM191.836 123.895V123.265C191.955 123.453 192.109 123.619 192.291 123.755L192.513 123.885L191.688 124.435C191.754 124.261 191.793 124.08 191.804 123.895H191.836ZM204.055 122.335L204.425 124.795C204.277 124.502 204.041 124.255 203.748 124.085C203.39 123.87 202.962 123.785 202.542 123.845C202.732 123.733 202.9 123.591 203.039 123.425L204.097 122.165C204.092 122.218 204.092 122.272 204.097 122.325L204.055 122.335ZM199.961 115.665L200.416 116.025L199.95 116.335C199.993 116.114 199.993 115.887 199.95 115.665H199.961ZM200.342 121.115C200.298 120.852 200.189 120.601 200.024 120.385C200.162 120.336 200.293 120.272 200.416 120.195L201.844 119.255L200.342 121.115ZM201.537 124.325C201.346 124.178 201.127 124.068 200.891 124.001C200.655 123.934 200.407 123.912 200.162 123.935V123.475C200.247 123.577 200.347 123.668 200.458 123.745C200.65 123.884 200.87 123.986 201.104 124.045C201.339 124.103 201.583 124.117 201.823 124.085C201.703 124.151 201.593 124.232 201.495 124.325H201.537ZM197.834 117.825C197.63 118.11 197.521 118.446 197.521 118.79C197.521 119.134 197.63 119.47 197.834 119.755V119.755C197.706 119.805 197.582 119.865 197.464 119.935C197.547 119.693 197.572 119.437 197.538 119.185C197.507 118.961 197.43 118.745 197.31 118.549C197.19 118.353 197.03 118.182 196.84 118.045V118.045L197.834 117.825ZM196.025 121.955L196.723 121.085C196.718 121.142 196.718 121.199 196.723 121.255L196.586 122.845C196.33 122.622 196.01 122.475 195.666 122.425L196.025 121.955ZM192.746 129.215L192.947 128.745C193.09 128.412 193.119 128.045 193.031 127.695L193.158 127.625L196.385 125.525H196.438C196.482 125.691 196.553 125.85 196.649 125.995L196.068 126.365C195.701 126.602 195.441 126.958 195.338 127.365C195.029 127.335 194.717 127.38 194.432 127.495C194.147 127.611 193.898 127.793 193.708 128.025L192.746 129.215ZM201.294 127.095L201.389 127.495C201.23 127.429 201.063 127.382 200.892 127.355L201.294 127.095ZM205.123 127.495L204.986 126.945V126.835C205.179 127.068 205.435 127.248 205.727 127.355C205.527 127.377 205.331 127.424 205.145 127.495H205.123ZM194.142 118.655L193.158 119.865L191.963 121.335L192.026 120.175V120.085L192.195 120.025C192.548 119.884 192.844 119.642 193.043 119.334C193.242 119.025 193.334 118.666 193.306 118.305C193.553 118.484 193.845 118.597 194.153 118.635" fill="#AFCDFB"/>
<g opacity="0.5">
<g opacity="0.5">
<path opacity="0.5" d="M196.132 135.405H190.842C189.855 135.402 188.91 135.031 188.212 134.371C187.514 133.711 187.121 132.818 187.118 131.885V97.0649C187.118 96.1331 187.509 95.2393 188.205 94.5794C188.901 93.9196 189.846 93.5476 190.832 93.5449H195.508C195.915 94.2065 196.127 94.9594 196.121 95.7249V135.055C196.121 135.175 196.121 135.295 196.121 135.405" fill="#AFCDFB"/>
</g>
</g>
<path d="M209.588 95.1852H187.372C187.178 95.1852 186.992 95.1125 186.855 94.9831C186.719 94.8537 186.642 94.6782 186.642 94.4952V91.2152C186.644 91.034 186.723 90.861 186.859 90.7338C186.996 90.6065 187.18 90.5352 187.372 90.5352H209.588C209.683 90.5339 209.777 90.5505 209.865 90.5842C209.953 90.6179 210.033 90.668 210.1 90.7314C210.167 90.7948 210.22 90.8703 210.256 90.9534C210.291 91.0365 210.309 91.1256 210.308 91.2152V94.4952C210.309 94.5849 210.291 94.6739 210.256 94.757C210.22 94.8401 210.167 94.9156 210.1 94.9791C210.033 95.0425 209.953 95.0925 209.865 95.1262C209.777 95.1599 209.683 95.1766 209.588 95.1752" fill="#F99746"/>
<path d="M195.423 95.1852H187.393C187.199 95.1852 187.014 95.1124 186.877 94.983C186.74 94.8536 186.663 94.6781 186.663 94.4951V91.2151C186.666 91.0339 186.744 90.8609 186.881 90.7337C187.017 90.6065 187.201 90.5351 187.393 90.5352H195.423C195.615 90.5378 195.798 90.6116 195.932 90.7408C196.067 90.8699 196.142 91.0439 196.142 91.2251V94.5052C196.142 94.6855 196.066 94.8585 195.931 94.986C195.797 95.1135 195.614 95.1852 195.423 95.1852Z" fill="#EF7E29"/>
<path d="M178.791 1.94336H73.6318V135.493H178.791V1.94336Z" fill="#ABDDDA"/>
<path d="M173.777 6.27344H79.8008V129.503H173.777V6.27344Z" fill="white"/>
<path d="M107.624 1.94336V6.46336C107.624 7.65961 108.125 8.80732 109.016 9.65601C109.908 10.5047 111.119 10.9854 112.385 10.9934H138.093C138.722 10.9934 139.344 10.8761 139.925 10.6483C140.506 10.4206 141.034 10.0867 141.478 9.66595C141.922 9.24517 142.274 8.74571 142.514 8.19617C142.753 7.64662 142.876 7.05778 142.875 6.46336V1.94336H107.624Z" fill="#F99746"/>
<path d="M99.8379 23.7246H98.5049V29.5646H99.8379V23.7246Z" fill="#ABDDDA"/>
<path d="M107.254 29.5646H105.921L103.329 25.7146V29.5646H101.985V23.7246H103.329L105.931 27.5746V23.7246H107.254V29.5646Z" fill="#ABDDDA"/>
<path d="M112.691 28.0249C112.708 27.9356 112.708 27.8442 112.691 27.7549C112.651 27.6632 112.585 27.5836 112.501 27.5249C112.38 27.4399 112.248 27.3694 112.109 27.3149L111.475 27.1049C111.189 27.0264 110.91 26.9295 110.639 26.8149C110.39 26.7229 110.158 26.5947 109.951 26.4349C109.758 26.3011 109.596 26.1309 109.475 25.9349C109.362 25.7314 109.304 25.5047 109.306 25.2749C109.304 25.0407 109.366 24.8099 109.486 24.6049C109.604 24.3957 109.775 24.2172 109.983 24.0849C110.212 23.9356 110.466 23.8241 110.734 23.7549C111.047 23.6725 111.372 23.6321 111.697 23.6349C112.027 23.6319 112.356 23.6792 112.67 23.7749C112.946 23.8533 113.204 23.9787 113.432 24.1449C113.63 24.302 113.792 24.496 113.908 24.7149C114.023 24.9426 114.081 25.1925 114.077 25.4449H112.702C112.704 25.3288 112.683 25.2133 112.638 25.1049C112.597 25.0003 112.527 24.9074 112.437 24.8349C112.341 24.75 112.225 24.6882 112.099 24.6549C111.948 24.612 111.791 24.5917 111.633 24.5949C111.482 24.5772 111.329 24.5772 111.178 24.5949C111.065 24.6285 110.958 24.6792 110.861 24.7449C110.781 24.8024 110.712 24.8736 110.66 24.9549C110.619 25.0397 110.597 25.1317 110.597 25.2249C110.603 25.3249 110.636 25.4216 110.694 25.5057C110.751 25.5899 110.831 25.6585 110.924 25.7049C111.228 25.8658 111.551 25.9901 111.887 26.0749C112.207 26.1552 112.519 26.2623 112.818 26.3949C113.059 26.502 113.283 26.6399 113.485 26.8049C113.656 26.952 113.796 27.1285 113.897 27.3249C113.993 27.5258 114.04 27.7445 114.035 27.9649C114.041 28.2048 113.983 28.4423 113.866 28.6549C113.755 28.86 113.591 29.0354 113.389 29.1649C113.164 29.3093 112.913 29.4143 112.649 29.4749C112.123 29.5974 111.576 29.6178 111.041 29.5349C110.835 29.5063 110.632 29.4559 110.438 29.3849C110.248 29.3186 110.067 29.2313 109.898 29.1249C109.734 29.0205 109.584 28.8961 109.454 28.7549C109.332 28.6069 109.235 28.4415 109.168 28.2649C109.099 28.0751 109.063 27.8758 109.062 27.6749H110.406C110.403 27.8297 110.435 27.9833 110.501 28.1249C110.559 28.2402 110.646 28.3399 110.755 28.4149C110.874 28.4993 111.011 28.5573 111.157 28.5849C111.333 28.6058 111.511 28.6058 111.686 28.5849C111.833 28.607 111.983 28.607 112.131 28.5849C112.245 28.5589 112.353 28.5112 112.448 28.4449C112.533 28.395 112.599 28.3217 112.638 28.2349C112.654 28.1489 112.654 28.0609 112.638 27.9749" fill="#ABDDDA"/>
<path d="M120.754 23.7148V27.5748C120.759 27.8811 120.694 28.1848 120.563 28.4648C120.443 28.715 120.266 28.937 120.045 29.1149C119.814 29.2934 119.548 29.426 119.262 29.5049C118.939 29.5962 118.604 29.64 118.267 29.6348C117.931 29.6394 117.596 29.5956 117.273 29.5049C116.987 29.426 116.721 29.2934 116.49 29.1149C116.269 28.937 116.092 28.715 115.972 28.4648C115.844 28.184 115.783 27.8803 115.792 27.5748V23.7148H117.125V27.5748C117.106 27.7261 117.123 27.8796 117.177 28.0234C117.23 28.1673 117.317 28.2977 117.432 28.4048C117.662 28.5952 117.962 28.6922 118.267 28.6749C118.576 28.6927 118.88 28.5958 119.114 28.4048C119.222 28.2941 119.305 28.1629 119.356 28.0198C119.407 27.8768 119.425 27.7251 119.41 27.5748V23.7148H120.754Z" fill="#ABDDDA"/>
<path d="M125.153 27.4251H124.096V29.5551H122.752V23.7151H125.164C125.503 23.7111 125.842 23.7515 126.169 23.8351C126.44 23.8973 126.695 24.0094 126.92 24.1651C127.121 24.3162 127.283 24.5075 127.396 24.7251C127.508 24.9644 127.562 25.2238 127.555 25.4851C127.561 25.6783 127.532 25.871 127.47 26.0551C127.42 26.2178 127.345 26.3728 127.248 26.5151C127.144 26.6455 127.019 26.7601 126.878 26.8551C126.732 26.961 126.572 27.0484 126.402 27.1151L127.798 29.5051H126.37L125.153 27.4251ZM124.096 26.4251H125.153C125.311 26.4277 125.468 26.4074 125.619 26.3651C125.741 26.3297 125.854 26.2681 125.947 26.1851C126.031 26.1079 126.1 26.0163 126.148 25.9151C126.192 25.7998 126.214 25.6778 126.211 25.5551C126.218 25.4353 126.198 25.3154 126.153 25.2033C126.107 25.0913 126.037 24.9897 125.947 24.9051C125.723 24.7363 125.439 24.6541 125.153 24.6751H124.096V26.4251Z" fill="#ABDDDA"/>
<path d="M133.141 28.3548H130.803L130.348 29.5548H128.931L131.343 23.7148H132.581L135.003 29.5548H133.543L133.141 28.3548ZM131.163 27.3548H132.782L131.967 25.1749L131.163 27.3548Z" fill="#ABDDDA"/>
<path d="M141.785 29.5646H140.452L137.85 25.7146V29.5646H136.517V23.7246H137.85L140.452 27.5746V23.7246H141.785V29.5646Z" fill="#ABDDDA"/>
<path d="M148.947 27.6152C148.928 27.8993 148.853 28.1775 148.725 28.4352C148.603 28.6787 148.43 28.8964 148.217 29.0752C147.977 29.2567 147.705 29.3956 147.413 29.4852C147.071 29.5887 146.714 29.6394 146.355 29.6352C145.971 29.6426 145.59 29.578 145.233 29.4452C144.913 29.321 144.627 29.1295 144.398 28.8852C144.154 28.6288 143.974 28.3249 143.869 27.9952C143.736 27.6215 143.672 27.2293 143.678 26.8352V26.4452C143.672 26.0511 143.736 25.6589 143.869 25.2852C143.981 24.9565 144.165 24.6534 144.408 24.3952C144.644 24.1527 144.933 23.9616 145.254 23.8352C145.611 23.7 145.992 23.632 146.376 23.6352C146.736 23.6293 147.094 23.6834 147.434 23.7952C147.725 23.8835 147.992 24.0302 148.217 24.2252C148.436 24.4029 148.609 24.6251 148.725 24.8752C148.851 25.1339 148.93 25.4113 148.957 25.6952H147.624C147.611 25.539 147.579 25.3847 147.529 25.2352C147.481 25.1091 147.401 24.9958 147.296 24.9052C147.191 24.8102 147.064 24.7384 146.926 24.6952C146.744 24.6441 146.555 24.6204 146.365 24.6252C146.164 24.6061 145.96 24.6366 145.775 24.7137C145.59 24.7908 145.429 24.9119 145.307 25.0652C145.06 25.486 144.947 25.965 144.979 26.4452V26.7952C144.974 27.0603 144.999 27.3252 145.053 27.5852C145.093 27.7872 145.172 27.9805 145.286 28.1552C145.386 28.3065 145.529 28.4279 145.699 28.5052C145.889 28.5819 146.095 28.6194 146.302 28.6152C146.484 28.6186 146.665 28.5984 146.841 28.5552C146.985 28.5155 147.119 28.4474 147.233 28.3552C147.336 28.2674 147.416 28.1578 147.466 28.0352C147.524 27.8875 147.56 27.7326 147.571 27.5752L148.947 27.6152Z" fill="#ABDDDA"/>
<path d="M154.629 27.0246H152.068V28.5946H155.073V29.5646H150.735V23.7246H155.062V24.6946H152.068V26.0846H154.629V27.0246Z" fill="#ABDDDA"/>
<path d="M130.454 123.895C129.143 124.342 127.753 124.549 126.36 124.505C124.625 124.365 123.641 123.505 123.599 122.075C123.585 121.512 123.709 120.955 123.96 120.445C124.211 119.935 124.584 119.487 125.048 119.135C125.042 119.058 125.042 118.981 125.048 118.905C124.974 118.105 125.164 117.575 125.577 117.325C126.265 116.925 127.27 117.475 127.312 117.495L127.09 117.865C126.868 117.735 126.191 117.465 125.82 117.685C125.45 117.905 125.461 118.395 125.482 118.825C126.425 118.219 127.475 117.775 128.582 117.515C129.538 117.276 130.515 117.119 131.501 117.045C131.501 116.945 131.501 116.855 131.501 116.775C131.501 116.585 131.597 116.355 131.808 116.305C131.88 116.297 131.953 116.31 132.018 116.342C132.082 116.374 132.134 116.424 132.168 116.485C132.261 116.64 132.309 116.816 132.306 116.995C132.623 116.995 132.93 116.995 133.194 116.995C133.137 116.501 133.159 116.002 133.258 115.515C133.374 115.025 133.564 114.775 133.818 114.755C133.894 114.749 133.97 114.767 134.034 114.805C134.099 114.842 134.149 114.898 134.178 114.965C134.212 115.695 134.028 116.419 133.649 117.055V117.055C134.019 117.115 134.263 117.215 134.347 117.355C134.385 117.42 134.396 117.495 134.379 117.567C134.361 117.639 134.316 117.702 134.252 117.745C134.177 117.834 134.073 117.897 133.955 117.922C133.838 117.948 133.715 117.934 133.607 117.885C133.502 117.821 133.418 117.731 133.363 117.625C133.146 118.084 132.846 118.504 132.475 118.865C132.407 118.926 132.32 118.965 132.227 118.977C132.135 118.99 132.04 118.975 131.956 118.935C131.913 118.911 131.873 118.881 131.84 118.845C131.749 119.077 131.635 119.302 131.501 119.515C131.036 120.295 130.507 120.695 129.978 120.665C129.762 120.656 129.558 120.57 129.407 120.425C129.123 120.996 128.768 121.533 128.349 122.025C128.204 122.222 127.998 122.371 127.759 122.452C127.52 122.533 127.26 122.541 127.016 122.475C126.138 122.215 125.355 121.025 125.059 119.625C124.707 119.934 124.43 120.311 124.248 120.73C124.065 121.15 123.981 121.602 124.001 122.055C124.001 123.275 124.815 123.955 126.349 124.055C130.2 124.355 136.929 120.965 137.479 118.475C137.066 120.475 133.85 122.815 130.401 123.865L130.454 123.895ZM125.471 119.275C125.704 120.765 126.529 121.855 127.153 122.045C127.312 122.09 127.483 122.084 127.638 122.028C127.793 121.972 127.924 121.869 128.01 121.735C128.45 121.206 128.806 120.62 129.068 119.995C128.987 119.817 128.924 119.633 128.878 119.445C128.761 118.91 128.761 118.359 128.878 117.825C128.15 117.988 127.441 118.22 126.762 118.515C126.294 118.724 125.851 118.979 125.439 119.275H125.471ZM129.555 119.975C129.594 120.043 129.65 120.102 129.718 120.146C129.786 120.189 129.865 120.216 129.946 120.225C130.285 120.225 130.697 119.895 131.068 119.285C131.253 118.966 131.405 118.631 131.523 118.285C131.447 118.003 131.405 117.715 131.396 117.425C130.898 117.425 130.338 117.535 129.809 117.625C130.037 118.407 129.947 119.242 129.555 119.965V119.975ZM131.988 118.295C132.062 118.495 132.126 118.535 132.126 118.535C132.459 118.202 132.727 117.816 132.919 117.395H132.21C132.164 117.704 132.09 118.008 131.988 118.305V118.295ZM129.364 117.765C129.22 118.283 129.22 118.827 129.364 119.345C129.583 118.838 129.583 118.271 129.364 117.765V117.765ZM133.702 115.325C133.657 115.469 133.622 115.616 133.596 115.765C133.645 115.621 133.68 115.474 133.702 115.325" fill="#F99746"/>
<path d="M108.026 61.3337H91.0352V45.2637H108.026V61.3337ZM91.8286 60.5737H107.232V46.0237H91.8286V60.5737Z" fill="#ABDDDA"/>
<path d="M99.9543 58.1042C99.7769 58.1042 99.6016 58.0675 99.4408 57.9967C99.28 57.9258 99.1375 57.8226 99.0233 57.6942L93.7336 51.6942C93.6174 51.5815 93.5272 51.4472 93.4687 51.2998C93.4101 51.1525 93.3844 50.9953 93.3933 50.8381C93.4022 50.6809 93.4454 50.5272 93.5203 50.3865C93.5951 50.2459 93.6999 50.1215 93.8282 50.0211C93.9564 49.9206 94.1052 49.8464 94.2653 49.803C94.4254 49.7596 94.5933 49.7481 94.7583 49.769C94.9233 49.79 95.082 49.8431 95.2243 49.9248C95.3666 50.0066 95.4894 50.1154 95.585 50.2442L99.7427 55.0043L107.265 43.0642C107.427 42.8057 107.692 42.6188 108.001 42.5447C108.309 42.4706 108.636 42.5154 108.91 42.6692C109.183 42.8231 109.381 43.0733 109.459 43.3649C109.538 43.6566 109.49 43.9657 109.328 44.2242L100.928 57.5442C100.832 57.7007 100.697 57.8326 100.534 57.9284C100.372 58.0243 100.187 58.0812 99.9966 58.0942H99.9014" fill="#F99746"/>
<path d="M108.026 86.4548H91.0352V70.3848H108.026V86.4548ZM91.8286 85.6948H107.232V71.1448H91.8286V85.6948Z" fill="#ABDDDA"/>
<path d="M99.9543 83.0847C99.7769 83.0847 99.6016 83.048 99.4408 82.9771C99.28 82.9063 99.1375 82.8031 99.0233 82.6747L93.7336 76.6747C93.6174 76.5619 93.5272 76.4277 93.4687 76.2803C93.4101 76.133 93.3844 75.9757 93.3933 75.8185C93.4022 75.6614 93.4454 75.5076 93.5203 75.367C93.5951 75.2264 93.6999 75.102 93.8282 75.0015C93.9564 74.9011 94.1052 74.8268 94.2653 74.7835C94.4254 74.7401 94.5933 74.7285 94.7583 74.7495C94.9233 74.7705 95.082 74.8235 95.2243 74.9053C95.3666 74.9871 95.4894 75.0958 95.585 75.2247L99.7427 79.9847L107.265 68.0447C107.427 67.7861 107.692 67.5992 108.001 67.5252C108.309 67.4511 108.636 67.4959 108.91 67.6497C109.183 67.8035 109.381 68.0538 109.459 68.3454C109.538 68.637 109.49 68.9461 109.328 69.2047L100.928 82.5347C100.828 82.6884 100.692 82.8181 100.531 82.9136C100.369 83.0091 100.186 83.0676 99.9966 83.0847H99.9014" fill="#F99746"/>
<path d="M108.026 111.054H91.0352V94.9844H108.026V111.054ZM91.8286 110.294H107.232V95.7944H91.8286V110.294Z" fill="#ABDDDA"/>
<path d="M99.9543 107.444C99.7769 107.444 99.6016 107.407 99.4408 107.336C99.28 107.266 99.1375 107.162 99.0233 107.034L93.7336 101.034C93.6174 100.921 93.5272 100.787 93.4687 100.64C93.4101 100.492 93.3844 100.335 93.3933 100.178C93.4022 100.021 93.4454 99.867 93.5203 99.7264C93.5951 99.5858 93.6999 99.4613 93.8282 99.3609C93.9564 99.2605 94.1052 99.1862 94.2653 99.1428C94.4254 99.0995 94.5933 99.0879 94.7583 99.1089C94.9233 99.1298 95.082 99.1829 95.2243 99.2647C95.3666 99.3465 95.4894 99.4552 95.585 99.5841L99.7427 104.344L107.265 92.4041C107.345 92.276 107.452 92.1643 107.578 92.0751C107.704 91.986 107.848 91.9212 108.001 91.8845C108.153 91.8479 108.312 91.84 108.468 91.8613C108.624 91.8827 108.774 91.9329 108.91 92.0091C109.045 92.0852 109.163 92.1859 109.258 92.3052C109.352 92.4246 109.421 92.5604 109.459 92.7048C109.498 92.8492 109.507 92.9994 109.484 93.1468C109.461 93.2943 109.408 93.436 109.328 93.5641L100.928 106.884C100.83 107.039 100.695 107.17 100.533 107.266C100.371 107.362 100.187 107.419 99.9966 107.434H99.9014" fill="#F99746"/>
<g opacity="0.5">
<g opacity="0.5">
<path opacity="0.5" d="M141.647 49.0137H119.483V50.5837H141.647V49.0137Z" fill="#ABDDDA"/>
<path opacity="0.5" d="M160.479 49.0137H155.443V50.5837H160.479V49.0137Z" fill="#ABDDDA"/>
<path opacity="0.5" d="M141.647 56.0137H119.483V57.5837H141.647V56.0137Z" fill="#ABDDDA"/>
<path opacity="0.5" d="M160.478 56.0137H152.967V57.5837H160.478V56.0137Z" fill="#ABDDDA"/>
<path opacity="0.5" d="M160.479 52.5137H154.301V54.0837H160.479V52.5137Z" fill="#ABDDDA"/>
<path opacity="0.5" d="M142.028 52.5137H135.85V54.0837H142.028V52.5137Z" fill="#ABDDDA"/>
<path opacity="0.5" d="M133.205 52.5137H119.483V54.0837H133.205V52.5137Z" fill="#ABDDDA"/>
</g>
</g>
<g opacity="0.5">
<g opacity="0.5">
<path opacity="0.5" d="M140.801 73.1445H119.483V74.7145H140.801V73.1445Z" fill="#ABDDDA"/>
<path opacity="0.5" d="M141.647 80.1445H119.483V81.7145H141.647V80.1445Z" fill="#ABDDDA"/>
<path opacity="0.5" d="M140.515 76.6445H134.781V78.2145H140.515V76.6445Z" fill="#ABDDDA"/>
<path opacity="0.5" d="M133.205 76.6445H119.483V78.2145H133.205V76.6445Z" fill="#ABDDDA"/>
</g>
</g>
<g opacity="0.5">
<g opacity="0.5">
<path opacity="0.5" d="M141.647 97.9551H119.483V99.5251H141.647V97.9551Z" fill="#ABDDDA"/>
<path opacity="0.5" d="M141.647 104.955H119.483V106.525H141.647V104.955Z" fill="#ABDDDA"/>
<path opacity="0.5" d="M144.419 101.455H134.781V103.025H144.419V101.455Z" fill="#ABDDDA"/>
<path opacity="0.5" d="M133.205 101.455H119.483V103.025H133.205V101.455Z" fill="#ABDDDA"/>
</g>
</g>
<path d="M102.652 119.645H91.0254V120.755H102.652V119.645Z" fill="#ABDDDA"/>
<path d="M116.976 119.645H105.35V120.755H116.976V119.645Z" fill="#ABDDDA"/>
<path d="M107.148 122.115H91.0254V123.225H107.148V122.115Z" fill="#ABDDDA"/>
<path d="M167.906 83.6039C168.277 84.6033 168.543 85.635 168.7 86.6839C168.516 87.7237 168.178 88.7337 167.695 89.6839C167.314 90.1839 167.123 87.6339 166.816 87.2539C166.51 86.8739 166.753 88.2538 166.531 88.3338C166.309 88.4138 165.864 87.3339 165.674 86.9539C165.483 86.5739 166.15 85.1139 166.15 84.1139C166.15 83.1139 167.906 83.5639 167.906 83.5639" fill="#FFB27D"/>
<path d="M147.636 63.6641C147.579 63.0124 147.713 62.3587 148.024 61.7744C148.334 61.1902 148.809 60.6981 149.396 60.352C149.983 60.006 150.659 59.8194 151.351 59.8127C152.042 59.806 152.723 59.9795 153.317 60.3141L153.476 60.4041C157.39 62.7841 165.822 73.8841 166.404 74.9941C166.985 76.1041 168.689 84.9941 168.689 84.9941C168.689 84.9941 166.573 85.7241 165.589 84.9941C165.589 84.9941 162.151 76.6041 161.643 76.1841C161.135 75.7641 147.89 68.7541 147.794 66.1241C147.794 65.4241 147.71 64.5941 147.636 63.7341" fill="#233862"/>
<path d="M130.212 59.0075L113.597 64.4766L114.748 67.6024L131.363 62.1334L130.212 59.0075Z" fill="#F99746"/>
<path d="M110.301 67.3241L114.744 67.6141L113.591 64.4941L110.301 67.3241Z" fill="#F9DDBF"/>
<path d="M132.486 59.4245L132.846 60.4245C132.899 60.5683 132.922 60.7207 132.913 60.8729C132.905 61.0251 132.864 61.1742 132.795 61.3117C132.725 61.4491 132.627 61.5723 132.507 61.674C132.387 61.7757 132.247 61.854 132.094 61.9045L131.322 62.1545L130.169 59.0345L131.015 58.7645C131.158 58.7171 131.31 58.6968 131.461 58.7048C131.613 58.7128 131.761 58.749 131.898 58.8112C132.034 58.8735 132.156 58.9605 132.257 59.0675C132.358 59.1745 132.436 59.2992 132.486 59.4345" fill="#F9DDBF"/>
<path d="M171.238 128.624C171.238 128.624 172.814 129.984 172.507 130.944C172.2 131.904 170.772 132.554 170.582 133.734C170.391 134.914 169.63 135.564 168.931 135.564H165.63C165.63 135.564 165.123 134.734 166.35 134.474C167.577 134.214 168.053 132.844 167.969 131.554C167.939 130.553 167.978 129.551 168.085 128.554L170.698 127.984L171.238 128.624Z" fill="#233862"/>
<path d="M151.909 132.134C151.909 132.134 152.184 135.234 151.497 135.554H142.642C142.642 135.554 142.642 134.554 144.059 134.374C145.477 134.194 147.984 133.374 148.407 131.614C148.831 129.854 151.909 132.154 151.909 132.154" fill="#233862"/>
<path d="M144.43 88.4336C144.43 88.4336 144.895 93.8536 145.488 100.374C146.228 109.234 147.127 120.104 147.223 122.164C147.371 125.744 147.984 131.474 147.984 131.474C148.598 131.924 149.316 132.23 150.08 132.365C150.843 132.501 151.63 132.463 152.375 132.254C154.037 126.76 155.157 121.133 155.718 115.444V115.014C156.416 106.214 157.485 87.6836 157.485 87.6836L144.43 88.4336Z" fill="#F99746"/>
<path d="M144.43 88.4336C144.43 88.4336 144.895 93.8536 145.488 100.374L155.718 115.444V115.014C156.416 106.214 157.485 87.6836 157.485 87.6836L144.43 88.4336Z" fill="#EF7E29"/>
<path d="M146.566 89.0744C146.566 89.0744 154.977 108.714 160.51 117.944C166.043 127.174 167.778 129.794 167.778 129.794C167.778 129.794 170.952 128.614 171.238 127.794C171.238 127.794 169.122 109.974 165.419 105.634C163.303 103.184 160.859 95.8145 160.743 93.2345C160.626 90.6545 159.992 85.5645 159.992 85.5645L146.566 89.0744Z" fill="#F99746"/>
<path d="M153.824 59.6145C153.824 59.6145 148.185 62.3145 144.874 61.4145C145.486 60.7188 146.228 60.1358 147.064 59.6945C146.937 59.0745 146.842 58.5345 146.778 58.0745C146.689 57.528 146.633 56.9771 146.609 56.4245L148.725 54.7445L150.777 53.1445C150.715 54.3691 150.954 55.5907 151.475 56.7133C151.996 57.8359 152.786 58.829 153.782 59.6145" fill="#FFB27D"/>
<path d="M159.421 87.0841C157.286 88.3864 154.937 89.346 152.47 89.9241C149.487 90.5841 145.837 90.3941 144.61 90.5641C144.484 90.5821 144.355 90.5534 144.25 90.4841C144.155 90.4341 143.615 87.0041 143.076 82.6741C143.076 82.4941 143.076 82.3241 143.012 82.1441V82.0841C142.801 80.3941 142.61 78.6141 142.452 76.8341C142.325 75.4441 142.219 74.0741 142.145 72.8341C142.05 71.2241 142.007 69.7441 142.05 68.5241C142.05 67.9641 142.103 67.4641 142.155 67.0341C142.459 64.9178 143.433 62.9379 144.948 61.3541L145.953 60.2741C147.169 60.3717 148.384 60.0793 149.402 59.4441C150.619 58.6841 151.931 57.8741 152.185 58.0041C154.047 59.0041 155.57 61.4741 156.649 64.7841C157.311 66.855 157.782 68.9763 158.056 71.1241C158.162 71.8341 158.236 72.5641 158.3 73.2841C158.3 73.4141 158.3 73.5541 158.3 73.6841C158.437 75.6841 158.68 77.5241 158.945 79.1841C159.305 81.4141 159.707 83.2841 160.003 84.6041C160.151 85.2741 160.257 85.7941 160.331 86.1641C160.405 86.5341 159.696 86.9541 159.389 87.1641" fill="#2B478B"/>
<path d="M150.894 54.7948C149.991 56.3193 148.526 57.4762 146.779 58.0448C146.689 57.4983 146.633 56.9474 146.609 56.3949L148.725 54.7148L150.894 54.7948Z" fill="#ED985F"/>
<path d="M145.604 56.3651C145.604 56.3651 151.053 57.1051 151.497 53.9451C151.941 50.7851 152.936 48.7351 149.476 48.1351C146.017 47.5351 145.171 48.6551 144.747 49.6751C144.324 50.6951 144.197 56.0951 145.604 56.3651Z" fill="#FFB27D"/>
<path d="M153.337 47.685C153.337 47.625 153.496 47.585 153.75 47.565C153.605 47.4871 153.441 47.4457 153.274 47.445C153.255 47.2085 153.163 46.9826 153.008 46.7958C152.854 46.6089 152.644 46.4694 152.406 46.395C152.507 46.4491 152.593 46.524 152.659 46.614C152.725 46.704 152.769 46.8069 152.787 46.915C152.068 46.245 150.555 45.775 146.439 46.165C140.959 46.675 142.842 49.965 143.562 50.345C144.281 50.725 146.048 49.605 147.37 49.685C148.693 49.765 148.989 51.555 149.486 51.795C149.983 52.035 149.751 51.605 150.354 51.335C150.957 51.065 151.031 52.015 150.872 52.635C150.713 53.255 151.56 54.055 151.56 54.055L152.385 53.185C153.21 52.305 153.93 48.655 153.528 47.885C153.528 47.825 153.453 47.755 153.422 47.685" fill="#2C3A64"/>
<path d="M151.614 68.7944C151.614 68.7944 147.011 72.1044 142.092 72.7944C141.997 71.1844 141.955 69.7044 141.997 68.4844L151.614 68.7944Z" fill="#233862"/>
<path d="M123.387 64.494C123.313 64.424 122.329 61.494 120.764 61.674C119.706 61.814 117.971 62.394 118.436 63.674C118.616 64.184 121.832 65.974 121.832 65.974L123.387 64.494Z" fill="#FFB27D"/>
<path d="M152.174 62.3748C152.77 62.7076 153.257 63.1891 153.582 63.7664C153.907 64.3438 154.058 64.9947 154.018 65.6476C153.977 66.3006 153.747 66.9304 153.353 67.468C152.959 68.0055 152.415 68.43 151.783 68.6948L151.613 68.7548C147.297 70.3948 132.835 70.4748 131.512 70.2748C130.19 70.0748 121.6 66.2748 121.6 66.2748C121.6 66.2748 122.192 64.2748 123.419 63.8948C123.419 63.8948 132.644 66.1048 133.3 65.9648C133.956 65.8248 147.657 59.6748 149.995 61.1148C150.608 61.4948 151.37 61.9348 152.111 62.3748" fill="#2B478B"/>
<path d="M222.125 132.735C222.119 133.496 221.796 134.224 221.226 134.762C220.655 135.299 219.883 135.602 219.078 135.605H204.722C203.915 135.605 203.142 135.303 202.571 134.765C202 134.227 201.678 133.497 201.675 132.735C201.678 132.362 201.759 131.993 201.913 131.65C202.068 131.307 202.292 130.996 202.574 130.735C203.134 130.2 203.894 129.895 204.69 129.885H219.046C219.853 129.887 220.627 130.192 221.198 130.731C221.768 131.271 222.09 132.002 222.093 132.765" fill="#EF7E29"/>
<path d="M214.709 132.734C214.709 133.495 214.389 134.225 213.819 134.763C213.25 135.301 212.478 135.604 211.672 135.604H204.722C204.124 135.598 203.541 135.425 203.046 135.108C202.551 134.79 202.167 134.342 201.941 133.818C201.715 133.295 201.658 132.72 201.776 132.166C201.894 131.612 202.183 131.103 202.606 130.704C203.169 130.173 203.927 129.869 204.722 129.854H211.672C212.478 129.859 213.248 130.164 213.817 130.703C214.386 131.243 214.706 131.972 214.709 132.734Z" fill="#F99746"/>
<g opacity="0.5">
<g opacity="0.5">
<path opacity="0.5" d="M219.236 131.405H205.673C205.604 131.415 205.534 131.41 205.466 131.392C205.399 131.374 205.337 131.342 205.284 131.299C205.231 131.255 205.189 131.202 205.159 131.142C205.13 131.082 205.115 131.016 205.115 130.95C205.115 130.884 205.13 130.819 205.159 130.759C205.189 130.699 205.231 130.645 205.284 130.602C205.337 130.559 205.399 130.527 205.466 130.508C205.534 130.49 205.604 130.486 205.673 130.495H219.236C219.352 130.511 219.457 130.566 219.533 130.65C219.609 130.733 219.651 130.84 219.651 130.95C219.651 131.061 219.609 131.167 219.533 131.251C219.457 131.334 219.352 131.389 219.236 131.405" fill="#FFE2CC"/>
</g>
</g>
</svg>
