<svg width="496" height="198" viewBox="0 0 496 198" fill="none" xmlns="http://www.w3.org/2000/svg">
<path d="M8.26668 82.5H26.288C34.1496 35.7555 74.648 0 123.405 0C171.533 0 211.825 33.9818 221.158 79.0268C229.185 72.3113 238.345 68.7473 248 68.7473C257.647 68.7473 266.798 72.3112 274.825 79.0185C284.051 33.9735 323.847 0 371.405 0C423.617 0 466.529 40.0207 470.778 90.75H487.733C492.305 90.75 496 94.446 496 99C496 103.554 492.305 107.25 487.733 107.25H470.778C466.529 157.979 423.617 198 371.405 198C317.944 198 274.387 155.042 272.941 101.714C265.889 91.113 257.11 85.2473 248 85.2473C238.89 85.2473 230.111 91.1213 223.059 101.714C221.588 155.042 177.502 198 123.405 198C69.035 198 24.8 153.59 24.8 99H8.26668C3.69522 99 1.52588e-05 95.304 1.52588e-05 90.75C1.52588e-05 86.196 3.69522 82.5 8.26668 82.5ZM371.405 181.5C417.31 181.5 454.667 144.49 454.667 99C454.667 53.5095 417.31 16.5 371.405 16.5C325.376 16.5 289.333 52.7423 289.333 99C289.333 145.258 325.376 181.5 371.405 181.5ZM123.405 181.5C169.31 181.5 206.667 144.49 206.667 99C206.667 53.5095 169.31 16.5 123.405 16.5C77.376 16.5 41.3333 52.7423 41.3333 99C41.3333 145.258 77.376 181.5 123.405 181.5Z" fill="black"/>
</svg>
