<svg width="300" height="300" viewBox="0 0 300 300" fill="none" xmlns="http://www.w3.org/2000/svg">
<path d="M54.8761 263.4C108.132 290.628 194.472 290.634 247.728 263.4C300.984 236.166 300.984 192 247.728 164.796C194.472 137.592 108.132 137.568 54.8761 164.796C1.62008 192.024 1.62008 236.19 54.8761 263.4Z" fill="#F5F5F5"/>
<path d="M89.1182 233.322L60.3662 216.834L98.2502 195.528L89.2922 233.622" fill="#E0E0E0"/>
<path d="M248.79 223.23C264.524 223.23 277.278 216.296 277.278 207.744C277.278 199.191 264.524 192.258 248.79 192.258C233.057 192.258 220.302 199.191 220.302 207.744C220.302 216.296 233.057 223.23 248.79 223.23Z" fill="#E0E0E0"/>
<path d="M142.572 218.55L168.174 233.334C169.129 233.816 170.183 234.068 171.252 234.068C172.322 234.068 173.376 233.816 174.33 233.334L225.93 203.55C227.628 202.566 227.628 200.976 225.93 199.998L200.328 185.214C199.374 184.731 198.32 184.48 197.25 184.48C196.181 184.48 195.127 184.731 194.172 185.214L142.572 214.998C140.868 216 140.868 217.572 142.572 218.55Z" fill="#E0E0E0"/>
<path d="M47.1119 207.246C46.7339 202.584 44.5979 194.922 39.1739 187.626C33.3719 179.826 26.2919 174.942 21.0359 177.222C16.1399 179.352 17.9939 186.108 26.4359 192.78C32.3459 197.454 38.4779 203.544 41.7779 210.894L47.1239 220.248L47.1119 207.246Z" fill="#9269AD"/>
<g opacity="0.1">
<path opacity="0.1" d="M47.1119 207.246C46.7339 202.584 44.5979 194.922 39.1739 187.626C33.3719 179.826 26.2919 174.942 21.0359 177.222C16.1399 179.352 17.9939 186.108 26.4359 192.78C32.3459 197.454 38.4779 203.544 41.7779 210.894L47.1239 220.248L47.1119 207.246Z" fill="black"/>
</g>
<path d="M46.6377 210.804C46.5691 210.804 46.5022 210.783 46.4462 210.743C46.3903 210.703 46.3482 210.647 46.3257 210.582C41.6277 197.652 31.8477 184.566 23.5737 180.144C23.5343 180.124 23.4994 180.095 23.4708 180.061C23.4422 180.027 23.4207 179.988 23.4073 179.946C23.3939 179.903 23.389 179.859 23.3929 179.815C23.3967 179.77 23.4093 179.727 23.4297 179.688C23.4502 179.649 23.4783 179.614 23.5123 179.585C23.5463 179.557 23.5856 179.535 23.6279 179.522C23.6703 179.508 23.7148 179.503 23.7591 179.507C23.8033 179.511 23.8463 179.524 23.8857 179.544C32.2857 184.038 42.2037 197.274 46.9497 210.348C46.9787 210.43 46.9742 210.52 46.9371 210.599C46.9 210.677 46.8334 210.738 46.7517 210.768C46.7168 210.788 46.6779 210.8 46.6377 210.804V210.804Z" fill="white"/>
<path d="M46.6379 223.2C43.9237 225.334 40.6956 226.716 37.2779 227.208C31.3799 228.132 28.7999 225.312 28.7999 225.312C28.7999 225.312 31.1219 219.78 34.4759 218.226C30.8512 219.038 27.3901 220.458 24.2399 222.426C24.2399 222.426 20.6399 222.48 19.2059 216.984C19.2059 216.984 21.3359 213.678 28.4939 211.89C28.4939 211.89 24.1439 210.792 17.8679 212.394C17.3939 212.58 15.3899 205.476 14.7839 202.194C14.1779 198.912 15.4919 198.948 18.0479 198.264C20.6039 197.58 29.3039 197.154 30.9059 198.564C32.5079 199.974 33.3059 204.774 33.3059 204.774C33.3059 204.774 34.8359 202.056 34.4699 199.626C36.2533 199.117 38.1494 199.163 39.9059 199.758C42.7799 200.754 42.5939 202.158 42.5939 204.246C42.6063 206.35 42.3174 208.445 41.7359 210.468C41.7359 210.468 43.7219 208.752 43.7879 202.428C43.7879 202.428 47.6699 205.746 49.2299 208.602C50.7899 211.458 50.3999 218.928 46.6379 223.2Z" fill="#9269AD"/>
<path d="M46.6381 223.518C46.5756 223.519 46.5142 223.502 46.4611 223.469C46.408 223.436 46.3653 223.388 46.3381 223.332C41.5801 213.444 23.8861 201.96 17.5381 200.724C17.4517 200.707 17.3757 200.656 17.3263 200.583C17.2769 200.51 17.2582 200.421 17.2741 200.334C17.2827 200.292 17.2996 200.251 17.3238 200.215C17.3481 200.179 17.3793 200.148 17.4155 200.124C17.4517 200.1 17.4923 200.084 17.535 200.075C17.5777 200.067 17.6215 200.067 17.6641 200.076C24.1201 201.33 42.1021 213 46.9381 223.044C46.9754 223.124 46.98 223.215 46.9508 223.298C46.9216 223.381 46.861 223.449 46.7821 223.488C46.7372 223.509 46.6878 223.52 46.6381 223.518V223.518Z" fill="white"/>
<path d="M45.4141 118.32V226.032L145.932 167.994V70.7817L77.2681 110.394L74.6881 101.382L45.4141 118.32Z" fill="#37474F"/>
<path d="M45.4141 226.032L50.5681 131.448L151.086 73.4155L145.932 167.994L45.4141 226.032Z" fill="#F0F0F0"/>
<path d="M45.4141 226.032L54.5161 134.082L155.034 76.0498L145.932 167.994L45.4141 226.032Z" fill="#455A64"/>
<path d="M88.9261 233.742C88.6441 233.742 88.6021 233.418 88.6021 233.226V94.842C88.6234 94.482 88.7283 94.1319 88.9085 93.8195C89.0887 93.507 89.3391 93.2408 89.64 93.042L186.756 37.014C186.866 36.9429 186.992 36.9015 187.122 36.894C187.398 36.894 187.44 37.218 187.44 37.41V175.8C187.419 176.16 187.314 176.51 187.134 176.823C186.953 177.135 186.703 177.401 186.402 177.6L89.2921 233.622C89.1819 233.692 89.0561 233.733 88.9261 233.742V233.742Z" fill="#FAFAFA"/>
<path d="M187.074 37.2539C187.083 37.3055 187.083 37.3583 187.074 37.4099V175.8C187.049 176.097 186.959 176.385 186.81 176.644C186.66 176.902 186.455 177.124 186.21 177.294L89.1181 233.322C89.0717 233.35 89.021 233.37 88.9681 233.382C88.9633 233.33 88.9633 233.278 88.9681 233.226V94.8419C88.991 94.5447 89.0799 94.2564 89.2284 93.998C89.3768 93.7395 89.581 93.5174 89.8261 93.3479L186.93 37.3139C186.975 37.2873 187.024 37.2671 187.074 37.2539V37.2539ZM187.122 36.5459C186.931 36.5506 186.744 36.6065 186.582 36.7079L89.4661 92.7419C89.1153 92.9731 88.8238 93.2837 88.6153 93.6486C88.4068 94.0134 88.2872 94.4222 88.2661 94.8419V233.226C88.2661 233.772 88.5361 234.09 88.9381 234.09C89.1289 234.082 89.3147 234.027 89.4781 233.928L186.6 177.894C186.95 177.661 187.24 177.35 187.448 176.986C187.657 176.621 187.777 176.213 187.8 175.794V37.4099C187.8 36.8579 187.524 36.5459 187.128 36.5459H187.122Z" fill="#E6E6E6"/>
<path d="M96.7861 98.3698L125.226 81.9478V114.786L96.7861 131.208V98.3698Z" fill="#9269AD"/>
<path d="M120.96 90.1558V100.008L120.066 100.506V97.5058C120.066 95.8378 118.71 95.2738 117.036 96.2398L105 103.2C103.326 104.166 101.964 106.302 101.964 107.964V110.964L101.076 111.498V101.652L120.96 90.1558Z" fill="#FAFAFA"/>
<path d="M115.476 115.266C114.012 116.112 112.83 115.224 112.83 113.292V97.4878L109.2 99.4798V115.404C109.2 117.336 108 119.604 106.554 120.426L103.914 121.95V123L118.134 114.786V113.742L115.476 115.266Z" fill="#FAFAFA"/>
<path d="M130.914 80.31C130.914 81.216 131.73 81.51 132.714 80.91L177.426 55.11C177.913 54.8296 178.329 54.4406 178.641 53.9734C178.953 53.5061 179.153 52.9732 179.226 52.416C179.226 51.51 178.41 51.246 177.426 51.816L132.714 77.616C132.226 77.8953 131.81 78.2839 131.497 78.7514C131.185 79.2188 130.985 79.7523 130.914 80.31V80.31Z" fill="#E0E0E0"/>
<path d="M130.914 90.1558C130.914 91.0678 131.73 91.3558 132.714 90.7558L177.426 64.9558C177.913 64.6754 178.329 64.2864 178.641 63.8192C178.953 63.3519 179.153 62.819 179.226 62.2618C179.226 61.3558 178.41 61.0618 177.426 61.6618L132.714 87.4618C132.226 87.7411 131.81 88.1297 131.497 88.5972C131.185 89.0646 130.985 89.5981 130.914 90.1558V90.1558Z" fill="#E0E0E0"/>
<path d="M130.914 100.008C130.914 100.92 131.73 101.208 132.714 100.608L177.426 74.8078C177.913 74.5274 178.329 74.1385 178.641 73.6712C178.953 73.204 179.153 72.671 179.226 72.1138C179.226 71.2078 178.41 70.9138 177.426 71.5138L132.714 97.3138C132.226 97.5931 131.81 97.9818 131.497 98.4492C131.185 98.9167 130.985 99.4502 130.914 100.008V100.008Z" fill="#E0E0E0"/>
<path d="M130.914 109.86C130.914 110.766 131.73 111.06 132.714 110.46L177.426 84.6598C177.913 84.3794 178.329 83.9904 178.641 83.5232C178.953 83.0559 179.153 82.523 179.226 81.9658C179.226 81.0598 178.41 80.7958 177.426 81.3658L132.714 107.166C132.226 107.445 131.81 107.834 131.497 108.301C131.185 108.769 130.985 109.302 130.914 109.86V109.86Z" fill="#E0E0E0"/>
<path d="M96.7861 139.422C96.7861 140.328 97.6021 140.592 98.5861 140.022L177.426 94.5421C177.913 94.2617 178.329 93.8727 178.641 93.4055C178.953 92.9383 179.153 92.4053 179.226 91.8481C179.226 90.9421 178.41 90.6781 177.426 91.2481L98.5861 136.734C98.0999 137.014 97.6846 137.402 97.3725 137.868C97.0603 138.334 96.8597 138.866 96.7861 139.422V139.422Z" fill="#E0E0E0"/>
<path d="M96.7861 149.274C96.7861 150.18 97.6021 150.474 98.5861 149.874L177.444 104.4C177.931 104.12 178.347 103.731 178.659 103.263C178.971 102.796 179.171 102.263 179.244 101.706C179.244 100.8 178.428 100.536 177.444 101.106L98.6041 146.58C98.1138 146.858 97.6945 147.246 97.3791 147.714C97.0637 148.181 96.8608 148.715 96.7861 149.274Z" fill="#E0E0E0"/>
<path d="M96.7861 159.126C96.7861 160.032 97.6021 160.326 98.5861 159.726L177.426 114.246C177.913 113.965 178.329 113.576 178.641 113.109C178.953 112.642 179.153 112.109 179.226 111.552C179.226 110.646 178.41 110.352 177.426 110.952L98.5861 156.438C98.0999 156.718 97.6846 157.106 97.3725 157.572C97.0603 158.038 96.8597 158.57 96.7861 159.126V159.126Z" fill="#E0E0E0"/>
<path d="M96.7861 168.972C96.7861 169.878 97.6021 170.172 98.5861 169.572L177.426 124.086C177.913 123.807 178.329 123.42 178.642 122.953C178.954 122.487 179.154 121.955 179.226 121.398C179.226 120.486 178.41 120.198 177.426 120.798L98.5861 166.284C98.099 166.563 97.683 166.95 97.3707 167.417C97.0584 167.883 96.8584 168.415 96.7861 168.972V168.972Z" fill="#E0E0E0"/>
<path d="M96.7861 178.8C96.7861 179.706 97.6021 179.97 98.5861 179.4L177.426 133.914C177.913 133.633 178.329 133.244 178.641 132.777C178.953 132.31 179.153 131.777 179.226 131.22C179.226 130.314 178.41 130.05 177.426 130.62L98.5861 176.1C98.0984 176.381 97.6822 176.771 97.37 177.239C97.0577 177.707 96.8579 178.241 96.7861 178.8Z" fill="#E0E0E0"/>
<path d="M96.7861 188.676C96.7861 189.582 97.6021 189.876 98.5861 189.276L177.426 143.796C177.913 143.516 178.329 143.127 178.641 142.66C178.953 142.192 179.153 141.659 179.226 141.102C179.226 140.196 178.41 139.902 177.426 140.502L98.6041 186C98.116 186.277 97.6981 186.662 97.3828 187.126C97.0676 187.59 96.8634 188.12 96.7861 188.676V188.676Z" fill="#E0E0E0"/>
<path d="M96.7861 198.522C96.7861 199.428 97.6021 199.722 98.5861 199.122L177.426 153.636C177.913 153.357 178.329 152.969 178.642 152.503C178.954 152.037 179.154 151.504 179.226 150.948C179.226 150.036 178.41 149.748 177.426 150.348L98.5861 195.834C98.099 196.113 97.683 196.5 97.3707 196.967C97.0584 197.433 96.8584 197.965 96.7861 198.522V198.522Z" fill="#E0E0E0"/>
<path d="M96.7861 208.374C96.7861 209.28 97.6021 209.544 98.5861 208.974L177.426 163.488C177.913 163.208 178.329 162.819 178.641 162.351C178.953 161.884 179.153 161.351 179.226 160.794C179.226 159.888 178.41 159.594 177.426 160.194L98.5861 205.674C98.0984 205.955 97.6822 206.345 97.37 206.813C97.0577 207.282 96.8579 207.816 96.7861 208.374V208.374Z" fill="#E0E0E0"/>
<path d="M96.7861 218.226C96.7861 219.132 97.6021 219.426 98.5861 218.826L177.426 173.346C177.913 173.065 178.329 172.676 178.641 172.209C178.953 171.742 179.153 171.209 179.226 170.652C179.226 169.746 178.41 169.482 177.426 170.052L98.5861 215.538C98.0999 215.818 97.6846 216.206 97.3725 216.672C97.0603 217.138 96.8597 217.67 96.7861 218.226V218.226Z" fill="#E0E0E0"/>
<path d="M218.202 147.276C218.225 143.781 219.222 140.36 221.082 137.4V131.826C221.107 131.542 221.063 131.256 220.953 130.993C220.843 130.73 220.672 130.497 220.452 130.314V130.314C220.397 130.277 220.339 130.244 220.278 130.218L202.2 119.76C201.927 119.641 201.627 119.595 201.33 119.627C201.034 119.658 200.75 119.766 200.508 119.94L186.258 128.166C185.571 128.641 185.001 129.265 184.593 129.993C184.184 130.721 183.947 131.533 183.9 132.366C183.738 136.446 182.406 144 175.2 148.158C167.994 152.316 166.644 146.226 166.494 142.338C166.434 140.79 165.48 140.166 164.142 140.94L149.886 149.166C149.185 149.629 148.602 150.251 148.185 150.98C147.768 151.71 147.529 152.527 147.486 153.366V158.94C147.486 158.94 150.366 159.744 150.366 165.492C150.366 171.24 145.914 181.662 145.914 196.128C145.914 203.37 148.212 209.418 153.036 212.196L171.15 222.648C175.95 225.48 183.306 225.048 193.428 219.18C213.576 207.546 222.732 187.254 222.732 172.794C222.732 158.334 218.202 153 218.202 147.276Z" fill="#9269AD"/>
<path d="M200.448 119.922L186.198 128.148C185.51 128.622 184.94 129.246 184.531 129.975C184.123 130.703 183.886 131.515 183.84 132.348C183.69 136.11 182.55 142.818 176.73 147.096L165.768 140.766L165.708 140.736C165.445 140.619 165.156 140.574 164.87 140.607C164.584 140.64 164.312 140.749 164.082 140.922L149.826 149.148C149.627 149.264 149.441 149.398 149.268 149.55C148.804 149.948 148.412 150.423 148.11 150.954C147.676 151.682 147.433 152.508 147.402 153.354V158.928L148.188 159.384C149.052 160.08 150.282 161.724 150.282 165.474C150.282 171.222 145.83 181.674 145.83 196.11C145.83 203.352 148.128 209.412 152.952 212.19L171 222.6C166.266 219.786 164.016 213.786 164.016 206.61C164.016 192.144 168.462 181.716 168.462 175.968C168.462 170.22 165.582 169.422 165.582 169.422V163.848C165.628 163.01 165.869 162.194 166.285 161.464C166.702 160.735 167.283 160.114 167.982 159.648L182.238 151.422C182.461 151.257 182.721 151.15 182.996 151.112C183.271 151.074 183.551 151.107 183.81 151.206H183.87C184.113 151.387 184.307 151.627 184.433 151.903C184.559 152.179 184.613 152.482 184.59 152.784C184.734 156.678 186.042 162.798 193.296 158.61C200.55 154.422 201.834 146.898 202.002 142.818C202.047 141.985 202.282 141.173 202.69 140.445C203.097 139.717 203.667 139.092 204.354 138.618L218.604 130.392C218.837 130.226 219.107 130.12 219.391 130.084C219.674 130.047 219.963 130.081 220.23 130.182L202.2 119.76C201.92 119.628 201.61 119.573 201.302 119.602C200.994 119.63 200.699 119.741 200.448 119.922V119.922Z" fill="#9269AD"/>
<path opacity="0.1" d="M148.2 159.378L165.6 169.416V163.842C165.627 162.994 165.873 162.167 166.314 161.442V161.442L148.11 150.96C147.676 151.687 147.432 152.513 147.402 153.36V158.934L148.2 159.378Z" fill="black"/>
<path opacity="0.4" d="M176.73 147.096L165.768 140.766L165.708 140.736C165.445 140.619 165.156 140.574 164.87 140.607C164.584 140.64 164.312 140.749 164.082 140.922L149.826 149.148C149.628 149.264 149.441 149.399 149.268 149.55C148.804 149.948 148.413 150.423 148.11 150.954L166.32 161.466C166.728 160.731 167.316 160.111 168.03 159.666L182.286 151.44C182.509 151.275 182.77 151.168 183.045 151.13C183.319 151.092 183.599 151.125 183.858 151.224L176.73 147.096Z" fill="white"/>
<path opacity="0.4" d="M220.278 130.2L202.2 119.76C201.923 119.633 201.618 119.58 201.314 119.609C201.011 119.637 200.72 119.745 200.472 119.922L186.222 128.148C185.52 128.591 184.948 129.212 184.566 129.948L202.77 140.454C203.152 139.718 203.724 139.097 204.426 138.654L218.676 130.428C218.905 130.263 219.17 130.156 219.449 130.117C219.728 130.077 220.012 130.106 220.278 130.2V130.2Z" fill="white"/>
<path opacity="0.1" d="M202.746 140.46C202.337 141.199 202.098 142.018 202.044 142.86C201.882 146.94 200.544 154.494 193.344 158.652C186.144 162.81 184.782 156.72 184.638 152.826C184.661 152.524 184.606 152.221 184.481 151.945C184.355 151.669 184.161 151.429 183.918 151.248H183.858L176.73 147.132C182.55 142.854 183.69 136.146 183.84 132.384C183.892 131.542 184.132 130.722 184.542 129.984L202.746 140.46Z" fill="black"/>
<path opacity="0.2" d="M171 222.6L152.928 212.178C148.128 209.4 145.806 203.34 145.806 196.098C145.806 181.638 150.258 171.21 150.258 165.462C150.258 161.742 149.058 160.098 148.188 159.384L165.588 169.422C165.588 169.422 168.468 170.226 168.468 175.968C168.468 181.71 164.022 192.168 164.022 206.61C164.04 213.792 166.29 219.792 171 222.6Z" fill="black"/>
<path d="M197.478 197.844L189.678 202.344L190.878 188.238C189.942 187.746 189.348 186.534 189.348 184.794C189.348 181.686 191.238 178.08 193.548 176.73C195.858 175.38 197.748 176.814 197.748 179.922C197.7 181.763 197.175 183.559 196.224 185.136L197.478 197.844Z" fill="#455A64"/>
<path d="M197.478 197.844L190.416 193.764L189.678 202.344L197.478 197.844Z" fill="#37474F"/>
<path d="M193.578 176.73C192.054 177.612 190.722 179.46 189.978 181.53L196.266 185.16C197.217 183.583 197.742 181.787 197.79 179.946C197.796 176.814 195.906 175.386 193.578 176.73Z" fill="#37474F"/>
<path d="M202.392 94.7222C198.534 92.4962 193.692 92.7482 189.09 95.4002L172.092 105.216C164.724 109.47 159.168 119.094 159.168 127.596V150.546C159.168 151.494 159.804 152.448 161.058 153.174C162.468 153.89 164.027 154.263 165.609 154.263C167.19 154.263 168.75 153.89 170.16 153.174C171.414 152.448 172.05 151.494 172.05 150.546V127.596C172.05 123.684 175.14 118.332 178.53 116.376L195.528 106.56H195.57V129.552C195.57 130.506 196.206 131.454 197.46 132.18C198.87 132.896 200.429 133.269 202.011 133.269C203.592 133.269 205.152 132.896 206.562 132.18C207.816 131.454 208.452 130.506 208.452 129.552V106.584C208.452 101.268 206.244 96.9482 202.392 94.7222Z" fill="#37474F"/>
<path d="M195.6 106.584V129.528C195.6 130.482 196.236 131.43 197.49 132.156C198.086 132.49 198.724 132.744 199.386 132.912V104.352L195.6 106.536V106.584Z" fill="#263238"/>
<path d="M272.532 130.638C271.536 130.35 270.732 129.786 269.298 129.498C268.3 129.374 267.347 129.009 266.52 128.436C265.44 127.71 263.322 124.59 261.648 121.482C259.898 117.947 258.761 114.141 258.288 110.226C257.898 105.504 256.806 99.1856 256.524 96.4256C256.068 92.0696 254.772 89.8256 249.738 90.1316C249.738 90.1316 251.088 91.6676 250.698 95.6036C250.308 99.5396 251.442 106.404 252.294 111.732C252.708 114.312 254.058 117.852 256.584 122.58C258.342 125.88 259.938 128.664 262.392 131.484C263.058 132.252 263.364 132.99 264.468 134.61C264.882 135.306 265.4 135.935 266.004 136.476C266.784 137.108 267.651 137.623 268.578 138.006C269.751 138.496 271.034 138.66 272.292 138.48C272.976 138.391 273.629 138.144 274.2 137.76C274.777 137.357 275.19 136.761 275.364 136.08C275.4 135.944 275.4 135.801 275.364 135.666C275.292 135.42 275.046 135.276 274.824 135.15C273.5 134.541 272.208 133.864 270.954 133.122C269.97 132.444 269.37 131.832 269.598 131.772C269.826 131.712 270.384 132.15 271.398 132.282C272.412 132.414 273.432 131.94 273.456 131.382C273.48 130.824 273.528 130.926 272.532 130.638Z" fill="#9A4A4D"/>
<path d="M249.396 89.862C251.196 89.742 255.072 89.262 256.236 92.916C257.4 96.57 258.744 110.226 259.104 111.96C259.7 114.587 260.502 117.163 261.504 119.664C262.56 122.256 265.626 127.542 265.626 127.542L261.804 130.8C261.804 130.8 256.452 124.59 253.704 117.996C250.956 111.402 250.104 102.888 249.966 97.818C249.928 95.1573 249.737 92.501 249.396 89.862V89.862Z" fill="#9269AD"/>
<path opacity="0.1" d="M249.396 89.862C251.196 89.742 255.072 89.262 256.236 92.916C257.4 96.57 258.744 110.226 259.104 111.96C259.7 114.587 260.502 117.163 261.504 119.664C262.56 122.256 265.626 127.542 265.626 127.542L261.804 130.8C261.804 130.8 256.452 124.59 253.704 117.996C250.956 111.402 250.104 102.888 249.966 97.818C249.928 95.1573 249.737 92.501 249.396 89.862V89.862Z" fill="black"/>
<path d="M252.81 201.09L258.15 201.276L258.42 191.586L253.074 191.4L252.81 201.09Z" fill="#9A4A4D"/>
<path d="M232.812 207.738H238.158V198.582H232.812V207.738Z" fill="#9A4A4D"/>
<path d="M238.158 205.104V204.336C238.668 204.558 239.856 209.094 241.98 211.032C243.666 212.568 245.964 214.344 246.552 216.06C247.14 217.776 243.348 218.832 241.752 218.55C239.922 218.226 236.748 216.936 235.95 215.742C235.152 214.548 234.78 212.784 234.15 211.908C233.52 211.032 232.014 210.054 231.66 209.04C231.468 208.482 231.696 207.24 231.966 206.232C232.236 205.224 232.488 204.246 232.806 204.336V204.936C233.568 205.535 234.513 205.855 235.482 205.842C236.262 205.854 238.164 205.698 238.158 205.104Z" fill="#263238"/>
<path d="M258.21 199.626C258.486 199.626 258.714 200.028 259.326 200.688C260.239 201.614 261.302 202.379 262.47 202.95C264.474 203.958 268.368 205.5 270.126 206.292C271.23 206.784 271.176 208.092 270.042 208.872C268.908 209.652 266.154 210.174 262.842 209.436C261.042 209.034 258.708 207.378 257.226 207.468C255.744 207.558 252.978 207.534 251.886 206.778C250.794 206.022 251.226 204.42 251.538 203.034C251.874 201.528 252.354 199.218 252.858 199.32V199.794C253.5 200.772 256.776 201.168 258.186 200.448L258.21 199.626Z" fill="#263238"/>
<path d="M235.092 122.742C230.892 131.346 235.038 163.794 235.038 163.794C234.888 165.198 233.208 167.94 232.464 174.138C231.588 181.458 232.344 200.274 232.344 200.274C232.344 200.274 235.836 201.822 238.68 200.538C238.68 200.538 243.702 172.614 244.794 165.342C245.742 158.994 247.608 145.026 247.608 145.026L251.52 165.462C250.83 167.498 250.316 169.59 249.984 171.714C249.468 175.992 252.54 195.96 252.54 195.96C254.44 196.757 256.551 196.898 258.54 196.362C258.54 196.362 260.34 169.86 260.868 164.7C261.72 156.036 259.206 128.934 258.318 123.264L235.092 122.742Z" fill="#263238"/>
<path d="M240.684 90.0538C239.334 90.2098 236.214 90.7558 236.214 90.7558C234.144 91.5118 234.366 92.7838 233.814 94.7698C233.106 97.2298 233.568 101.622 234.414 104.04L238.422 115.626C236.922 119.226 235.482 120.294 234.762 123.048C241.308 127.902 255.378 127.614 258.402 123.522C258.528 122.652 257.376 112.686 256.896 108.252C258.936 104.55 259.716 101.898 258.648 99.0598C256.818 94.2058 251.802 89.6698 249.42 89.8618L240.684 90.0538Z" fill="#9269AD"/>
<path d="M244.752 85.8838H242.778C240.017 85.8838 237.369 84.787 235.417 82.8347C233.465 80.8825 232.368 78.2347 232.368 75.4738C232.368 72.6985 233.471 70.037 235.433 68.0746C237.395 66.1122 240.057 65.0098 242.832 65.0098H244.698C247.473 65.0098 250.135 66.1122 252.097 68.0746C254.06 70.037 255.162 72.6985 255.162 75.4738C255.162 78.2347 254.065 80.8825 252.113 82.8347C250.161 84.787 247.513 85.8838 244.752 85.8838V85.8838Z" fill="#263238"/>
<path d="M227.034 90.6717C227.877 90.6725 228.712 90.5072 229.491 90.1852C230.269 89.8632 230.977 89.3909 231.573 88.7952C232.17 88.1995 232.643 87.4922 232.965 86.7136C233.288 85.9351 233.454 85.1005 233.454 84.2577V70.5117C231.751 70.5117 230.119 71.1881 228.915 72.3921C227.711 73.5961 227.034 75.229 227.034 76.9317V90.6717Z" fill="#263238"/>
<path d="M251.754 68.8076C253.008 69.5516 254.562 72.7136 254.406 79.3376C254.28 84.9476 252.456 86.3336 251.544 86.7356C250.632 87.1376 248.868 86.8916 247.152 86.6036V89.9996L246.81 93.9536L240.102 90.8876V82.7216C240.102 82.7216 238.944 84.2636 237.054 83.0096C235.164 81.7556 235.092 78.6416 236.19 77.5256C237.288 76.4096 239.664 76.7636 240.102 78.3056C240.102 78.3056 240.87 76.6916 244.794 75.3476C248.928 73.9316 250.302 71.4476 251.754 68.8076Z" fill="#B16668"/>
<path d="M247.512 77.9278C247.513 78.0665 247.473 78.2025 247.398 78.3188C247.322 78.4351 247.214 78.5266 247.087 78.582C246.96 78.6374 246.819 78.6542 246.682 78.6304C246.546 78.6065 246.419 78.5431 246.318 78.4479C246.217 78.3527 246.147 78.2299 246.115 78.0949C246.083 77.9599 246.092 77.8185 246.14 77.6883C246.188 77.5581 246.273 77.4449 246.385 77.3627C246.496 77.2805 246.63 77.2329 246.768 77.2258C246.96 77.221 247.145 77.292 247.285 77.4235C247.424 77.555 247.506 77.7363 247.512 77.9278V77.9278Z" fill="#263238"/>
<path d="M248.328 82.686L249.966 83.208C249.939 83.3188 249.889 83.4228 249.82 83.5137C249.751 83.6045 249.664 83.6803 249.564 83.7365C249.465 83.7926 249.355 83.8279 249.242 83.8402C249.128 83.8525 249.013 83.8416 248.904 83.808C248.68 83.7338 248.495 83.5746 248.387 83.3648C248.279 83.155 248.258 82.9112 248.328 82.686Z" fill="#9A4A4D"/>
<path d="M253.296 75.756L251.868 74.766C251.928 74.668 252.008 74.5835 252.102 74.5177C252.196 74.452 252.303 74.4064 252.416 74.3839C252.528 74.3613 252.645 74.3623 252.757 74.3868C252.869 74.4112 252.975 74.4586 253.068 74.526C253.258 74.6614 253.388 74.8654 253.431 75.0949C253.473 75.3244 253.425 75.5614 253.296 75.756V75.756Z" fill="#263238"/>
<path d="M252.972 77.3999C252.985 77.4966 252.977 77.5949 252.95 77.6885C252.922 77.7822 252.876 77.8691 252.813 77.944C252.751 78.0188 252.673 78.08 252.586 78.1235C252.499 78.1671 252.404 78.1921 252.306 78.1971C252.209 78.2021 252.111 78.1869 252.02 78.1524C251.929 78.118 251.846 78.0651 251.776 77.997C251.706 77.9289 251.651 77.8471 251.614 77.7567C251.577 77.6663 251.56 77.5694 251.562 77.4718C251.555 77.3776 251.566 77.2827 251.596 77.1929C251.626 77.1031 251.673 77.0201 251.735 76.9486C251.797 76.8771 251.872 76.8187 251.957 76.7767C252.042 76.7347 252.134 76.7099 252.228 76.7039C252.419 76.699 252.604 76.7692 252.743 76.8994C252.882 77.0297 252.964 77.2094 252.972 77.3999V77.3999Z" fill="#263238"/>
<path d="M249.522 77.0098L249.636 81.2578L251.868 80.5678L249.522 77.0098Z" fill="#9A4A4D"/>
<path d="M247.152 86.604C245.352 86.37 241.638 85.302 241.056 83.832C241.288 84.5765 241.742 85.232 242.358 85.71C243.468 86.658 247.158 87.732 247.158 87.732L247.152 86.604Z" fill="#9A4A4D"/>
<path d="M247.608 145.026L249.648 135.12C249.648 135.12 253.908 134.406 256.17 132.792C254.886 134.349 253.222 135.549 251.34 136.278L249 145.626L249.6 155.346L247.608 145.026Z" fill="black"/>
<path d="M239.964 71.832C239.964 71.832 248.028 77.322 253.632 74.58C259.236 71.838 251.976 67.98 251.976 67.98L239.964 71.832Z" fill="#37474F"/>
<path d="M251.916 60.3238C247.116 58.9798 241.914 58.1158 235.866 60.3238C229.818 62.5318 228.498 66.2638 228.498 66.2638C228.498 66.2638 234.654 68.6998 239.664 67.8778C244.674 67.0558 251.916 60.3238 251.916 60.3238Z" fill="#9269AD"/>
<path opacity="0.4" d="M251.916 60.3238C247.116 58.9798 241.914 58.1158 235.866 60.3238C229.818 62.5318 228.498 66.2638 228.498 66.2638C228.498 66.2638 234.654 68.6998 239.664 67.8778C244.674 67.0558 251.916 60.3238 251.916 60.3238Z" fill="white"/>
<path d="M231.864 68.5257C231.864 68.5257 228.786 67.0617 228.498 66.2517C230.893 66.5243 233.316 66.3679 235.656 65.7897C239.658 64.8237 243.822 60.9357 248.328 60.2517C252.834 59.5677 254.754 61.8657 254.754 61.8657C254.754 61.8657 253.758 65.0697 252.198 67.0137C252.198 67.0137 250.806 70.0557 245.502 70.7577C240.198 71.4597 231.864 68.5257 231.864 68.5257Z" fill="#9269AD"/>
<path d="M231.864 68.526L232.116 69.402C232.212 69.6984 232.368 69.9719 232.575 70.2053C232.781 70.4386 233.034 70.6268 233.316 70.758C237.23 72.3163 241.505 72.7324 245.646 71.958C249.372 71.268 251.046 70.314 251.724 69.594C251.967 69.3809 252.149 69.1084 252.255 68.8034C252.36 68.4983 252.384 68.1711 252.324 67.854L252.198 67.002C252.198 67.002 251.046 68.61 244.956 69.804C238.866 70.998 231.864 68.526 231.864 68.526Z" fill="#455A64"/>
<path d="M248.796 62.0459C248.748 62.9879 247.758 64.7159 246.444 63.8999V66.2999C246.444 67.7699 247.308 68.2799 248.706 67.9859C249.402 67.8543 250.029 67.481 250.475 66.932C250.922 66.383 251.161 65.6937 251.148 64.9859C251.148 64.5359 251.148 62.9459 251.148 62.9459C250.116 64.3379 248.778 62.3999 248.796 62.0459Z" fill="#FAFAFA"/>
<path d="M240.102 79.7578V76.5718H241.344V78.5158C241.344 78.8452 241.213 79.1611 240.98 79.394C240.747 79.6269 240.431 79.7578 240.102 79.7578V79.7578Z" fill="#263238"/>
<path d="M246.81 93.9298L240.102 89.0398V87.8398C240.102 87.8398 238.692 88.0798 238.35 90.7678C239.4 93.0867 241.195 94.9877 243.45 96.1678L244.836 93.7138L246.81 93.9298Z" fill="#9269AD"/>
<path opacity="0.1" d="M246.81 93.9298L240.102 89.0398V87.8398C240.102 87.8398 238.692 88.0798 238.35 90.7678C239.4 93.0867 241.195 94.9877 243.45 96.1678L244.836 93.7138L246.81 93.9298Z" fill="black"/>
<path d="M247.152 88.1157C248.024 88.2563 248.808 88.7268 249.342 89.4297C250.002 90.5157 249.852 94.6557 249.852 94.6557L248.094 92.6517L246.81 93.9297C246.954 92.5497 247.152 89.9757 247.152 89.9757V88.1157Z" fill="#9269AD"/>
<path opacity="0.1" d="M247.152 88.1157C248.024 88.2563 248.808 88.7268 249.342 89.4297C250.002 90.5157 249.852 94.6557 249.852 94.6557L248.094 92.6517L246.81 93.9297C246.954 92.5497 247.152 89.9757 247.152 89.9757V88.1157Z" fill="black"/>
<path d="M241.632 137.28C240.798 136.68 240.252 135.852 239.004 135.078C238.11 134.614 237.344 133.939 236.772 133.11C236.016 132.048 235.122 128.388 234.642 124.89C234.072 120.762 234.702 115.158 234.996 112.842C235.647 108.394 236.548 103.987 237.696 99.6418C237.744 99.4438 236.664 93.4078 235.476 92.4418C235.476 92.4418 234.114 92.2498 232.368 95.8018C230.622 99.3538 229.764 107.202 229.284 112.476C228.888 116.378 228.961 120.314 229.5 124.2C229.992 127.908 230.514 131.07 231.828 134.574C232.182 135.528 232.212 136.326 232.68 138.228C232.828 139.024 233.09 139.794 233.46 140.514C233.972 141.377 234.605 142.163 235.338 142.848C236.267 143.717 237.414 144.32 238.656 144.594C239.335 144.756 240.042 144.756 240.72 144.594C241.404 144.407 241.999 143.984 242.4 143.4C242.486 143.286 242.54 143.151 242.556 143.01C242.54 142.754 242.423 142.515 242.232 142.344C241.207 141.31 240.236 140.225 239.322 139.092C238.632 138.108 238.284 137.322 238.524 137.352C238.764 137.382 239.124 137.982 240.048 138.468C240.972 138.954 242.076 138.858 242.298 138.342C242.52 137.826 242.466 137.892 241.632 137.28Z" fill="#9A4A4D"/>
<path d="M236.118 90.7676C236.118 90.7676 239.118 96.8216 237.78 102.168C236.55 107.052 235.854 113.304 235.59 115.056C235.221 117.723 235.06 120.415 235.11 123.108C235.194 125.904 236.22 131.928 236.22 131.928L231.522 133.668C231.522 133.668 228.678 125.976 228.408 118.836C228.138 111.696 228.828 103.236 229.986 98.2796C230.496 96.1436 231.096 91.6256 236.118 90.7676Z" fill="#9269AD"/>
<path opacity="0.1" d="M236.118 90.7676C236.118 90.7676 239.118 96.8216 237.78 102.168C236.55 107.052 235.854 113.304 235.59 115.056C235.221 117.723 235.06 120.415 235.11 123.108C235.194 125.904 236.22 131.928 236.22 131.928L231.522 133.668C231.522 133.668 228.678 125.976 228.408 118.836C228.138 111.696 228.828 103.236 229.986 98.2796C230.496 96.1436 231.096 91.6256 236.118 90.7676Z" fill="black"/>
<path d="M240.948 101.07C240.948 101.07 245.424 100.884 247.266 100.17V99.2759C245.4 99.9899 240.948 100.2 240.948 100.2V101.07Z" fill="#37474F"/>
<path d="M231.168 97.7996C231.168 97.7996 232.578 97.3076 234.522 98.3996L234.57 98.2016C234.592 98.099 234.579 97.9921 234.533 97.8976C234.487 97.8032 234.412 97.7265 234.318 97.6796C233.482 97.2401 232.531 97.0664 231.594 97.1816C231.505 97.1971 231.424 97.2384 231.358 97.3003C231.293 97.3623 231.248 97.442 231.228 97.5296L231.168 97.7996Z" fill="#37474F"/>
<path d="M233.657 100.539C233.89 99.4914 233.442 98.4999 232.656 98.3248C231.87 98.1497 231.044 98.8573 230.81 99.9052C230.577 100.953 231.025 101.945 231.811 102.12C232.597 102.295 233.423 101.587 233.657 100.539Z" fill="#37474F"/>
</svg>
