<svg enable-background="new 0 0 309 314" viewBox="0 0 309 314" xmlns="http://www.w3.org/2000/svg"><path d="m215.1 154.3c4.9 5.9 10.3 22 10.1 26.4s-27.2 14.4-31.1 12c-3.8-2.4-18.9-23.6-19-31.5s34.9-13 40-6.9z" fill="#ad6359"/><path d="m174.4 143.4c-2.5-2.6-10.5-10.3-14.1-6.8-2.2 2.2 3.1 8.1 5.4 10.5 4.7 4.8 8.3 13.4 10 17.6s9.6-4.1 9.6-4.1-4.4-10.5-10.9-17.2z" fill="#ad6359"/><path d="m181 169.3s2.8 7.4 7.3 7.3c4.5-.2 3.4-6.6 3.3-7 .1.4 2.9 7.2 7.4 6.5 4.5-.6 2.6-6.9 2.5-7.3.2.3 3.7 4.6 7 3.3 5.7-2.2-2.9-13.3-2-18.2 0 0 8.4.5 8.7.4 0 0-8-10.7-14.6-11.5-1-.1-2 .1-2.8.6s-1.5 1.3-1.8 2.2c0 0-2.2-3.7-5.8-3.4-1.8.2-3.1 3.3-3.1 3.3-.5-.8-1.3-1.5-2.2-1.9s-1.9-.6-2.9-.5c-2.5.4-3.8 3.6-3.9 4.8-1.1 9.4 2.9 21.4 2.9 21.4z" fill="#ad6359"/><path d="m178.4 147.1h-.1c-1.4 7.6-.4 15.4 2.8 22.5.1.2.5.1.4-.1-2.1-7.3-3.2-14.8-3.1-22.4z" fill="#263238"/><path d="m187 145.4c0-.1-.1-.1-.2 0-1.4 8.4.2 17 4.6 24.3.2.3.6.3.4 0-2.7-5-4.9-17.2-4.8-24.3z" fill="#263238"/><path d="m202 169.1c-4.2-7.2-5.7-15-6-23.2 0-.1-.2-.1-.2 0-.9 4.1-.1 9.3.8 13.3.8 3.7 2.6 7.2 5.2 10 0 .2.2.1.2-.1z" fill="#263238"/><path d="m181 169.3c.7 1.4 1.5 2.7 2.4 3.9.8 1.2 2 2.2 3.3 2.9.6.2 1.3.2 2 0 .6-.2 1.2-.6 1.7-1.1.4-.6.7-1.2.8-1.9s.1-1.4 0-2l-.6-3.3 1.7 2.9c.7 1.3 1.7 2.5 2.8 3.5.5.5 1.1.9 1.7 1.1s1.3.4 2 .3c.6 0 1.2-.3 1.7-.7s.8-1 .9-1.7c.2-1.4 0-2.9-.5-4.2l-1.4-3.7 2.5 3.1c.7.9 1.5 1.6 2.4 2.3.8.6 1.8 1 2.8 1.1.5 0 .9-.1 1.3-.3s.8-.6 1-1c.4-1 .4-2 .2-3.1-.4-2.3-1.1-4.5-1.8-6.6-.4-1.1-.7-2.2-1-3.3-.4-1.1-.5-2.3-.4-3.5 0 1.2.3 2.3.7 3.4s.8 2.2 1.3 3.2c.9 2.2 1.7 4.4 2.2 6.7.3 1.2.3 2.5-.2 3.7-.3.6-.8 1.2-1.4 1.5-.6.4-1.3.5-2 .5-1.3-.1-2.5-.5-3.6-1.3-1-.7-1.9-1.6-2.7-2.5l1.1-.7c.7 1.6.9 3.3.7 5-.1.9-.6 1.8-1.3 2.4s-1.6 1-2.5 1c-.9.1-1.8-.1-2.6-.4s-1.6-.8-2.2-1.4c-1.2-1.1-2.3-2.4-3.1-3.9l1.1-.4c.1.8.1 1.7-.1 2.5s-.6 1.6-1.2 2.2-1.3 1.1-2.1 1.3c-.8.3-1.7.2-2.5-.2-1.4-.8-2.6-1.9-3.3-3.3-.6-1.2-1.3-2.6-1.8-4z" fill="#263238"/><path d="m191 189.5s-29.2-14.9-17.7-23.4c3.4-2.5 20.3-8.9 21.7-5.5 1.7 4.4-4.8 8.3-9.4 10.2 0 0 10.6 3.7 10.3 11.8-.1 1.5-.6 2.9-1.4 4.2-1 1.2-2.2 2.1-3.5 2.7z" fill="#ad6359"/><path d="m172.3 166.8c1.2-1.2 2.6-2.1 4.1-2.9s3-1.5 4.6-2.1c3.1-1.2 6.3-2.2 9.6-2.8.9-.2 1.8-.2 2.7-.2.5 0 1.1.2 1.5.5.2.1.5.3.6.5.2.2.3.5.4.7.4.9.4 2 0 2.9-.3.9-.8 1.7-1.4 2.3-1.2 1.3-2.5 2.4-4.1 3.2-1.5.8-3 1.6-4.6 2.2v-1.1c1.2.5 2.3 1 3.4 1.7s2.1 1.4 3.1 2.3c.9.9 1.7 1.9 2.3 3.1.6 1.1 1 2.3 1.2 3.6-.3-1.2-.8-2.3-1.5-3.3s-1.5-1.9-2.5-2.7c-.9-.8-2-1.5-3.1-2-1.1-.6-2.2-1.1-3.3-1.4l-1.4-.4 1.4-.6c1.5-.6 2.9-1.4 4.3-2.2s2.6-1.8 3.7-3c.5-.5.9-1.1 1.1-1.8s.2-1.4.1-2.1c-.3-1.1-2.2-1-3.7-.8s-3.2.6-4.8 1-3.2.8-4.8 1.3c-3.1 1-6.1 2.3-8.9 4.1z" fill="#263238"/><path d="m157.4 210.6c25.8 31.8 63.3 52.4 72.5 45.7s-21.9-41.8-22.5-42.4c-1.8-1.7-15.6-8.9-40.7-19.5-24.5-10.2-20.8 2-9.3 16.2z" fill="#ad6359"/><path d="m195.9 206.9-19.4 25.5s-16.3-16.8-24.9-27.9-7.8-19.8 11.5-12.6c11.2 4.2 22.2 9.2 32.8 15z" fill="#ffc727"/><path d="m174.6 226.6c2.4-3.5 4.8-6.9 7.4-10.3 1.3-1.7 2.5-3.3 3.8-5s2.8-3.3 4.1-5c.1-.1.3 0 .2.1-1.2 1.7-2.3 3.4-3.5 5.1s-2.6 3.4-3.9 5.1c-2.6 3.4-5.2 6.7-7.9 9.9-.1.3-.4.2-.2.1z" fill="#263238"/><path d="m185.7 220.2-9.3 12.2s-16.3-16.8-24.9-27.9l-.8-1.1-.4-.5-.5-.8c-.5-.7-.9-1.3-1.2-2-.1-.2-.3-.5-.4-.7-.6-1.2-1.2-2.4-1.5-3.7-.1-.4-.2-.8-.3-1.2v-.6c8.5 6 28.3 18.9 39.3 26.3z" fill="#263238"/><path d="m186.5 304.4s-88.5 1.5-89 1c-1.4-1.5 16.5-92.6 35-111.4 6.5-6.6 20-3.9 22.2-2.8 5.2 2.5 10.1 7.9 14.1 18 8.2 19.9 18.8 93.7 17.7 95.2z" fill="#ffc727"/><path d="m159.2 194.1h-26.8l.1-.2c.6-.6 1.3-1.2 2.1-1.7h22.2c.8.6 1.6 1.2 2.4 1.9zm2.9 3h-32.3c-.4.6-.8 1.2-1.3 1.8h34.9c-.4-.6-.9-1.2-1.3-1.8zm3.3 4.9h-38.7c-.3.6-.7 1.2-1 1.8h40.7c-.2-.6-.6-1.2-1-1.8zm2.5 4.9h-43.7l-.9 1.8h45.4c-.2-.6-.5-1.2-.8-1.8zm2 4.9h-47.9l-.8 1.8h49.3c-.2-.5-.4-1.2-.6-1.8zm1.5 4.9h-51.4c-.2.6-.5 1.2-.7 1.8h52.7zm1.3 4.9h-54.6c-.2.6-.4 1.2-.7 1.8h55.8c-.2-.6-.3-1.2-.5-1.8zm1.2 4.8h-57.6c-.2.6-.4 1.2-.6 1.8h58.6zm1.1 4.9h-60.2c-.2.6-.4 1.2-.6 1.8h61.3c-.2-.6-.3-1.2-.5-1.8zm1.1 4.9h-62.8c-.2.6-.4 1.2-.6 1.8h63.8c-.2-.6-.3-1.2-.4-1.8zm.9 4.9h-65.3c-.2.6-.4 1.2-.5 1.8h66.3zm1 4.9h-67.7c-.2.6-.4 1.2-.5 1.8h68.6c-.1-.6-.3-1.2-.4-1.8zm.9 4.8h-69.9c-.2.6-.3 1.2-.5 1.8h70.8c-.1-.5-.3-1.1-.4-1.8zm.9 4.9h-72.1c-.2.6-.3 1.2-.5 1.8h72.9c-.1-.6-.2-1.2-.3-1.8zm.8 4.9h-74.2c-.1.6-.3 1.2-.4 1.8h75c-.1-.6-.2-1.2-.4-1.8zm.8 4.9h-76.2c-.1.6-.3 1.2-.4 1.8h77c-.1-.6-.2-1.2-.4-1.8zm.8 4.9h-78.2c-.1.6-.3 1.2-.4 1.8h79c-.1-.6-.2-1.2-.4-1.8zm.8 4.8h-80.1c-.1.6-.3 1.2-.4 1.8h80.8c-.1-.5-.2-1.1-.3-1.8zm.7 4.9h-81.9c-.1.6-.3 1.2-.4 1.8h82.6zm.7 4.9h-83.6c-.1.6-.2 1.2-.4 1.8h84.3c-.1-.6-.1-1.2-.3-1.8zm.7 4.9h-85.3c-.1.6-.3 1.2-.4 1.8h85.9c0-.6-.1-1.2-.2-1.8zm.6 4.9h-86.8c-.1.6-.2 1.3-.3 1.8h87.4c-.1-.6-.2-1.2-.3-1.8zm.6 4.9h-88.3c-.1.7-.2 1.3-.3 1.8h88.7c0-.6 0-1.2-.1-1.8zm-88.9 4.8c-.1.3-.1.5 0 .8.4.4 55.3-.4 78.7-.8z" fill="#030402" opacity=".1"/><path d="m137.5 205c-6 8.2-36.5 42-37.7 45.1-1.1 3.1 5.9 10.1 5.8 11.4-.5 5.3-11.9 40.5-16.5 36.9-6-4.7-31.5-38.4-27.9-53s63.2-49.7 72.6-52.7c9.6-3.1 9.6 4.2 3.7 12.3z" fill="#ad6359"/><path d="m113.5 235.8-17.4-24.4s19.4-12.8 32.4-18.2 19.4-2.4 7.5 14.4c-6.8 9.8-14.4 19.2-22.5 28.2z" fill="#ffc727"/><path d="m101.3 209.8c2.8 3.2 5.4 6.5 8 9.8 1.3 1.6 2.6 3.3 3.8 4.9s2.5 3.5 3.8 5.2c.1.1-.1.3-.2.2-1.3-1.5-2.7-3.1-4-4.7-1.3-1.7-2.7-3.4-4-5-2.6-3.3-5.1-6.7-7.6-10.2 0-.2.1-.3.2-.2z" fill="#263238"/><path d="m113.5 235.9c2.7-3.5 5.8-6.7 8.7-10s5.7-6.8 8.5-10.3c0 0 .2 0 .1.1-1.3 1.8-2.5 3.7-3.8 5.4-.7.9-1.3 1.7-2 2.6l1-.8c1-.8 2.1-1.5 3.3-2.2 0 0 .1 0 0 .1-1 .9-2 1.7-3.1 2.5-.8.6-1.5 1.1-2.3 1.7l-1.2 1.5c-2.7 3.4-5.6 6.6-8.9 9.6-.3-.1-.3-.1-.3-.2z" fill="#263238"/><path d="m104.2 311.7c4.1-2.8-1.5-6-1.5-6s9.2 2.7 12.2-1.8c3.1-4.5-3.9-8-4.4-8.3.5.2 9 2.4 11.7-2.4s-4.8-7.5-5.3-7.6c.5 0 7.1-.3 8.3-4.4 2-7.1-17-7.9-21.1-12.2 0 0 1.8-9.4 2-9.6-1.2 2.1-3.1 3.7-5.4 4.6-4.1 1.2-7.8 1.8-9.5 3.8-.8.9-1.3 2-1.4 3.1-.1 1.2.2 2.3.8 3.3 0 0-5.2-.6-7.4 3.1-1.1 1.9.9 5.4.9 5.4-1.2-.1-2.4.2-3.4.7s-1.9 1.4-2.5 2.4c-1.4 2.8.9 5.9.9 5.9s-4.2 1.5-4.7 4.8c-1.1 6.6 21 21.1 29.8 15.2z" fill="#ad6359"/><path d="m79.4 292.3s-.2 0-.1.1c6.3 6.8 14.6 11.6 23.7 13.6.3 0 .5-.4.2-.5-8.6-3.3-16.6-7.7-23.8-13.2z" fill="#263238"/><path d="m84 282.7c-.1 0-.1 0-.1 0v.1s0 0 0 .1c7.1 7.5 16.6 12.1 26.8 13.2.4 0 .7-.3.3-.4-6.9-1.1-20.2-7.7-27-13z" fill="#263238"/><path d="m117.7 285.4c-10-1.1-18.6-5.4-26.8-10.9-.1 0-.2.1-.1.2 3.3 3.8 8.9 6.9 13.5 8.9 4.2 1.9 8.8 2.7 13.4 2.3h.1s.1-.1.1-.1v-.1c-.1-.2-.2-.3-.2-.3z" fill="#263238"/><path d="m78.8 291.7c-.8-.8-1.4-1.9-1.7-3s-.2-2.3.2-3.5c.5-1.1 1.3-1.9 2.4-2.4 1.3-.4 2.6-.6 3.9-.4-.7-1-1.1-2.3-1.1-3.5 0-1.3.3-2.5 1-3.5.8-.9 1.9-1.5 3.1-1.6 1.4-.1 2.7-.1 4.1.2-.6-.7-1-1.4-1.2-2.3-.2-.8-.2-1.7 0-2.5.3-.9.7-1.8 1.4-2.4.6-.7 1.4-1.2 2.3-1.6 2.1-.8 4.2-1.3 6.4-1.5 1.1-.2 2.2-.5 3.3-.9 1.1-.5 2.1-1.4 2.7-2.4.1-.2.1 0 0 .2-.4.7-1 1.4-1.6 1.9-.7.6-1.4 1.1-2.2 1.5-2 .8-4 1.3-6.1 1.8-1.8.5-3.4 1.6-4.6 3.1-.5.8-.8 1.7-.9 2.7 0 .9.2 1.9.7 2.7 0 0 0 .2-.1.2-1.2 0-2.4.1-3.6.4-1 .2-1.9.8-2.5 1.5-.6 1-1 2.1-1 3.2-.1 1.1.2 2.3.7 3.3-1.3.1-2.6.4-3.8 1-.8.5-1.4 1.2-1.8 2-.5.9-.6 2-.5 3s.5 2 1.1 2.9v.1s-1.3.5-1.4.5c.1-.4.5-.6.8-.7z" fill="#263238"/><path d="m154.7 204.7c-4.9 1.8-14.4-4.8-18.5-10.6-.3-.4-.6-17.6-.9-21-.1-.7 22 2.6 22 2.6-.7 4.4-.9 8.9-.5 13.3 0 .5 2.6 13.9-2.1 15.7z" fill="#ad6359"/><path d="m157.2 175.7s-.2 1.4-.4 3.5c-6.1 7.5-15.9 8.3-20.9 8.1-.2-5.3-.4-12.2-.6-14.3-.1-.6 21.9 2.7 21.9 2.7z" fill="#263238"/><path d="m135.3 136.4s-7 2.7-8.5 9.8c-1.4 7 0 14.5.6 14.9s7.9-24.7 7.9-24.7z" fill="#263238"/><path d="m163.7 145.5c1.8 7.8-3.7 29.4-9.4 34-8.3 6.6-21.2 6.4-26.6-3.4-5.2-9.5 2.4-37.7 8.8-41.7 9.3-6 24.5-.4 27.2 11.1z" fill="#ad6359"/><g fill="#263238"><path d="m141.9 157.7s.1.1.1.2c-.3 1.5-.4 3.3.9 4v.1c-1.7-.6-1.5-3-1-4.3z"/><path d="m143.5 156.3c2.5.2 1.8 5.1-.5 4.9s-1.5-5.1.5-4.9z"/><path d="m133.4 156.2c-.1.1-.1.1-.1.1-.1 1.5-.6 3.2-2 3.6v.1c1.7-.1 2.2-2.4 2.1-3.8z"/><path d="m132.2 154.4c-2.4-.5-3.2 4.4-1 4.8 2.3.5 3.1-4.4 1-4.8z"/><path d="m141.6 170.3c-.4.3-.8.8-1.4.8-.6-.1-1.1-.2-1.6-.5.2.3.5.6.8.8s.7.3 1.1.2c.3 0 .6-.2.9-.4.2-.2.4-.5.5-.8-.1-.1-.2-.2-.3-.1z"/><path d="m134.5 163.3s-.6 2.2-.8 3.3c2.1.3 4.1.9 6 1.8.4.2.5-.2 0-.6-1.4-1.2-3.2-1.9-5-2 0-.3 1.1-3.4.9-3.4-.8 0-1.7 0-2.5.2 1.2-4.6 3.1-9.1 4.3-13.8 0-.2-.2-.3-.3-.1-2.2 4.7-3.9 9.5-5.2 14.6-.2.6 2.2.2 2.6 0z"/><path d="m145.4 154.7c-.5-.4-1-.8-1.5-1.2-.6-.4-1.1-.9-1.4-1.5 0-.2 0-.5.1-.7s.3-.4.5-.5c.4-.1.9-.2 1.3-.1s.8.3 1.2.6c.8.5 1.3 1.3 1.5 2.2v.4c0 .1-.1.3-.2.4s-.2.2-.3.3-.3.1-.4.2c-.1 0-.3 0-.4 0s-.3-.1-.4-.1z"/><path d="m131.2 149c.7-.1 1.3-.3 1.9-.5.7-.1 1.4-.4 1.9-.8.1-.2.2-.4.2-.6s-.1-.4-.2-.6c-.3-.3-.7-.5-1.2-.6-.4-.1-.9-.1-1.3.1-.9.2-1.7.6-2.3 1.4-.1.1-.1.3-.2.4v.4c0 .1.1.3.2.4l.3.3c.2.1.4.1.7.1z"/><path d="m160.1 164c-4.5-.4-2-20.3-2-20.3-2.8.9-5.7 1.5-8.6 1.5-3-.1-5.9-.5-8.8-1.3-.6-.2 7.5-2.5 7.5-2.5s-20 1.7-20.6-2c-.2-1.3 3.5-13.1 20-12.4 12.2.6 17.9 13.3 17.9 13.3s5.9 6.6 4.9 9.6c-1.7 5.3-5.5 14.6-10.3 14.1z"/></g><path d="m157.4 164.1s5.6-6.7 8.7-4.6-1.5 12-5.5 13.1c-.5.2-1 .2-1.5.2s-1-.2-1.5-.4-.9-.5-1.2-.9-.6-.8-.8-1.3v-.1z" fill="#ad6359"/><path d="m164.7 162.4c-1.3.5-2.4 1.3-3.4 2.2-1 1-1.7 2.1-2.2 3.4.3-.5.8-.8 1.4-.9s1.1 0 1.6.4c.1.1.2.1.2.2s0 0-.1 0c-.5-.2-1-.2-1.4-.1-.5.1-.9.4-1.2.7-.5.6-1 1.3-1.4 2-.2.2-.6 0-.4-.2.3-3.5 3.3-7.9 7-8v.3z" fill="#263238"/><path d="m231.9 255.2c12.4-9.6.5-58.3-6.7-76.2-2.1-5.3-35.8 4.6-34.3 10.5 9.1 33.5 27.4 76.2 41 65.7z" fill="#ad6359"/><path d="m196.5 207.9 3.7 9.2c1.3 3.1 2.5 6.1 3.9 9.2s2.7 6 4.1 9 3 5.9 4.5 8.8c-1.9-2.7-3.7-5.5-5.3-8.4-1.5-2.9-3.1-5.9-4.4-8.9s-2.6-6.1-3.7-9.3-1.9-6.4-2.8-9.6z" fill="#263238"/><path d="m255.9 113.1c-29.6 0-59.2.1-88.8.1-14 0-28.1 0-42.1 0-1.7-.1-3.5-.1-5.2.1-6 .8-3.9 1.1-5.8 4.7-1.7 3.1-2.3 6.4-5 9-.1.1-.3.2-.4.2-.2 0-.3 0-.5-.1-5.3-3.8-2.9-12-10-13.8-3.3-.8-8.7-.1-12-.1h-18.5c-17.3 0-35.8 1.7-53.1-.6-13.8-1.8-13.9-11.5-14-23.1 0-9.8-3.2-81.6 6.6-87.8 3.5-2.2 7.4-1.6 11.5-1.6 12.4-.1 24.8-.1 37.2-.1 24.9 0 49.8.1 74.7.1 51.3.1 102.5.7 153.8.3 6.8-.1 12.9-.7 18.1 4.8 6.7 7 6.7 73.3 6.5 82.3-.1 7.3-.1 16-6.5 20.9-7.3 5.6-18.5 5-27.2 5.1-.3 0-.5-.1-.7-.3s-.3-.5-.3-.7c0-.3.1-.5.3-.7s.5-.3.7-.3c11.6 0 27.5.7 30.8-13.3 3.2-13.8 2.2-94.2-15.7-95.5-23.2-1.7-47.2 0-70.5 0-53.5-.5-107.1-.8-160.6-.9-12.7 0-25.3 0-38-.1-2.4 0-4.8-.1-7.1 0-9.7.4-12 9.3-12 17.7 0 5.1.1 65.1.1 70.2 0 2.5-.1 5.1 0 7.6.5 10.1 5.9 13.3 14.7 14.1 18.7 1.8 38.1.4 56.9.4h18.3c2.3 0 6.7-.6 8.5.2 4.6 2 4.8 16.2 10.2 9.8 1.8-2.1 1.1-7.6 3.2-9.3 1.8-1.5 5.5-.7 7.7-.7 14.6.1 29.1 0 43.7 0h90.3c.2 0 .3.1.5.2.1.1.2.3.2.5s-.1.3-.2.5c.1.1-.1.2-.3.2z" fill="#283cb1"/><path d="m28.8 31.4h1.1v4.3c-.5.5-1.1.8-1.9 1.1-.7.2-1.5.4-2.3.4-1.1 0-2.1-.2-3-.7s-1.6-1.2-2.1-2c-.5-.9-.8-1.9-.8-2.9s.3-2 .8-2.9 1.2-1.6 2.1-2c.9-.5 1.9-.7 3-.7.9 0 1.6.1 2.4.4.7.3 1.3.7 1.8 1.2l-.7.8c-.9-.9-2-1.3-3.4-1.3-.9 0-1.7.2-2.5.6-.7.4-1.3.9-1.7 1.7-.4.7-.6 1.5-.6 2.4s.2 1.7.6 2.4 1 1.3 1.7 1.7 1.5.6 2.4.6c1.2 0 2.1-.3 2.9-.9v-4.2zm5.3-1.2c.3-.6.7-1 1.2-1.3s1.2-.4 2-.4v1.1h-.3c-.9 0-1.6.3-2.1.8s-.8 1.3-.8 2.3v4.3h-1.1v-8.4h1.1zm12.5 2.9h-7c.1.9.4 1.6 1 2.1s1.4.8 2.3.8c.5 0 1-.1 1.4-.3s.8-.5 1.1-.8l.6.7c-.4.4-.8.8-1.4 1s-1.2.4-1.8.4c-.9 0-1.6-.2-2.3-.5-.7-.4-1.2-.9-1.6-1.5-.4-.7-.6-1.4-.6-2.2s.2-1.6.5-2.2c.4-.7.9-1.2 1.5-1.5.6-.4 1.3-.5 2.1-.5s1.5.2 2.1.5c.6.4 1.1.9 1.5 1.5s.5 1.4.5 2.2zm-4.1-3.6c-.8 0-1.5.3-2 .8s-.9 1.2-.9 2h6c-.1-.8-.4-1.5-.9-2-.7-.5-1.4-.8-2.2-.8zm9.1-1c1.1 0 1.9.3 2.5.8s.9 1.4.9 2.4v5.3h-1.1v-1.3c-.3.4-.6.8-1.1 1s-1.1.4-1.8.4c-.9 0-1.7-.2-2.2-.7-.6-.4-.8-1-.8-1.8 0-.7.3-1.3.8-1.7s1.3-.7 2.5-.7h2.7v-.5c0-.7-.2-1.3-.6-1.6-.4-.4-1-.6-1.8-.6-.5 0-1 .1-1.5.3s-.9.4-1.3.7l-.5-.8c.4-.4.9-.6 1.5-.8.5-.3 1.1-.4 1.8-.4zm-.4 7.7c.6 0 1.2-.1 1.6-.4.5-.3.8-.7 1-1.3v-1.4h-2.6c-1.4 0-2.2.5-2.2 1.5 0 .5.2.9.6 1.2.4.2.9.4 1.6.4zm11.3.3c-.2.2-.5.3-.8.4s-.6.1-1 .1c-.8 0-1.4-.2-1.8-.6s-.6-1-.6-1.8v-5.1h-1.5v-1h1.5v-1.8h1.1v1.8h2.6v1h-2.6v5c0 .5.1.9.4 1.2s.6.4 1.1.4c.2 0 .5 0 .7-.1s.4-.2.6-.3zm9.8.6c-.8 0-1.6-.2-2.2-.5-.7-.4-1.2-.9-1.5-1.5-.4-.7-.6-1.4-.6-2.2s.2-1.6.6-2.2c.4-.7.9-1.2 1.5-1.5.7-.4 1.4-.5 2.2-.5.7 0 1.4.1 1.9.4.6.3 1 .7 1.4 1.2l-.8.6c-.3-.4-.6-.7-1.1-.9-.4-.2-.9-.3-1.4-.3-.6 0-1.2.1-1.6.4-.5.3-.9.7-1.1 1.2-.3.5-.4 1.1-.4 1.7 0 .7.1 1.2.4 1.7s.7.9 1.1 1.2c.5.3 1 .4 1.6.4.5 0 1-.1 1.4-.3s.8-.5 1.1-.9l.8.6c-.3.5-.8 1-1.4 1.2-.6 0-1.2.2-1.9.2zm9.6-8.6c1.1 0 1.9.3 2.5.9s.9 1.5.9 2.7v4.9h-1.1v-4.8c0-.9-.2-1.5-.7-2s-1.1-.7-1.9-.7c-.9 0-1.6.3-2.2.8-.5.5-.8 1.3-.8 2.2v4.5h-1.1v-11.9h1.1v4.9c.3-.5.7-.9 1.3-1.1.7-.2 1.3-.4 2-.4zm10.1 8.6c-.8 0-1.5-.2-2.2-.5-.7-.4-1.2-.9-1.5-1.5-.4-.7-.6-1.4-.6-2.2s.2-1.6.6-2.2c.4-.7.9-1.2 1.5-1.5.6-.4 1.4-.5 2.2-.5s1.5.2 2.2.5c.6.4 1.2.9 1.5 1.5.4.7.6 1.4.6 2.2s-.3 1.4-.6 2.1c-.4.7-.9 1.2-1.5 1.5-.7.4-1.4.6-2.2.6zm0-1c.6 0 1.1-.1 1.6-.4s.9-.7 1.1-1.2c.3-.5.4-1.1.4-1.7s-.1-1.2-.4-1.7-.6-.9-1.1-1.2-1-.4-1.6-.4-1.1.1-1.6.4-.8.7-1.1 1.2-.4 1.1-.4 1.7.1 1.2.4 1.7.7.9 1.1 1.2c.4.2 1 .4 1.6.4zm6.6-7.5h1.1v8.4h-1.1zm.5-1.9c-.2 0-.4-.1-.6-.2s-.2-.4-.2-.6.1-.4.2-.6.4-.2.6-.2.4.1.6.2.2.3.2.5-.1.4-.2.6c-.1.3-.3.3-.6.3zm7.2 10.4c-.8 0-1.6-.2-2.2-.5-.7-.4-1.2-.9-1.5-1.5-.4-.7-.6-1.4-.6-2.2s.2-1.6.6-2.2c.4-.7.9-1.2 1.5-1.5.7-.4 1.4-.5 2.2-.5.7 0 1.4.1 1.9.4.6.3 1 .7 1.4 1.2l-.8.6c-.3-.4-.6-.7-1.1-.9-.4-.2-.9-.3-1.4-.3-.6 0-1.2.1-1.6.4-.5.3-.9.7-1.1 1.2-.3.5-.4 1.1-.4 1.7 0 .7.1 1.2.4 1.7s.7.9 1.1 1.2c.5.3 1 .4 1.6.4.5 0 1-.1 1.4-.3s.8-.5 1.1-.9l.8.6c-.3.5-.8 1-1.4 1.2-.5 0-1.1.2-1.9.2zm12.8-4h-7c.1.9.4 1.6 1 2.1s1.4.8 2.3.8c.5 0 1-.1 1.4-.3s.8-.5 1.1-.8l.6.7c-.4.4-.8.8-1.4 1s-1.2.4-1.8.4c-.9 0-1.6-.2-2.3-.5-.7-.4-1.2-.9-1.6-1.5-.4-.7-.6-1.4-.6-2.2s.2-1.6.5-2.2c.4-.7.9-1.2 1.5-1.5.6-.4 1.3-.5 2.1-.5s1.5.2 2.1.5c.6.4 1.1.9 1.5 1.5s.5 1.4.5 2.2zm-4.1-3.6c-.8 0-1.5.3-2 .8s-.9 1.2-.9 2h6c-.1-.8-.4-1.5-.9-2-.7-.5-1.4-.8-2.2-.8zm6.2-3.7h1.3l-.2 7.8h-.9zm.7 11.3c-.2 0-.4-.1-.6-.2-.2-.2-.2-.4-.2-.6s.1-.4.2-.6c.2-.2.4-.2.6-.2s.4.1.6.2.2.3.2.6c0 .2-.1.4-.2.6-.2.1-.4.2-.6.2zm8.7-11.5h1.2v11.2h-1.2zm21.1 2.8-3.2 8.4h-1.1l-2.7-6.9-2.7 6.9h-1l-3.2-8.4h1.1l2.6 7.2 2.7-7.2h1l2.7 7.2 2.7-7.2zm1.7 0h1.1v8.4h-1.1zm.6-1.9c-.2 0-.4-.1-.6-.2-.2-.2-.2-.4-.2-.6s.1-.4.2-.6c.2-.2.4-.2.6-.2s.4.1.6.2.2.3.2.5-.1.4-.2.6-.4.3-.6.3zm3.7-1.6h1.1v11.9h-1.1zm4.3 0h1.1v11.9h-1.1zm12.8 3.4c1.1 0 1.9.3 2.5.9s.9 1.5.9 2.7v4.9h-1.1v-4.8c0-.9-.2-1.5-.7-2-.4-.5-1.1-.7-1.9-.7-.9 0-1.6.3-2.2.8-.5.5-.8 1.3-.8 2.2v4.4h-1.1v-8.4h1.1v1.6c.3-.5.7-.9 1.3-1.2.6-.2 1.2-.4 2-.4zm13.9 4.6h-7c.1.9.4 1.6 1 2.1s1.4.8 2.3.8c.5 0 1-.1 1.4-.3s.8-.5 1.1-.8l.6.7c-.4.4-.8.8-1.4 1s-1.2.4-1.8.4c-.9 0-1.6-.2-2.3-.5-.7-.4-1.2-.9-1.6-1.5-.4-.7-.6-1.4-.6-2.2s.2-1.6.5-2.2c.4-.7.9-1.2 1.5-1.5.6-.4 1.3-.5 2.1-.5s1.5.2 2.1.5c.6.4 1.1.9 1.5 1.5s.5 1.4.5 2.2zm-4.1-3.6c-.8 0-1.5.3-2 .8s-.9 1.2-.9 2h6c-.1-.8-.4-1.5-.9-2-.7-.6-1.4-.8-2.2-.8zm13.7 3.6h-7c.1.9.4 1.6 1 2.1s1.4.8 2.3.8c.5 0 1-.1 1.4-.3s.8-.5 1.1-.8l.6.7c-.4.4-.8.8-1.4 1s-1.2.4-1.8.4c-.9 0-1.6-.2-2.3-.5-.7-.4-1.2-.9-1.6-1.5-.4-.7-.6-1.4-.6-2.2s.2-1.6.5-2.2c.4-.7.9-1.2 1.5-1.5.6-.4 1.3-.5 2.1-.5s1.5.2 2.1.5c.6.4 1.1.9 1.5 1.5s.5 1.4.5 2.2zm-4-3.6c-.8 0-1.5.3-2 .8s-.9 1.2-.9 2h6c-.1-.8-.4-1.5-.9-2-.7-.6-1.4-.8-2.2-.8zm14-4.4v11.9h-1.1v-1.7c-.3.6-.8 1-1.4 1.3s-1.2.4-1.9.4c-.8 0-1.5-.2-2.1-.5-.6-.4-1.1-.9-1.5-1.5-.4-.7-.5-1.4-.5-2.2s.2-1.6.5-2.2c.4-.7.9-1.2 1.5-1.5.6-.4 1.4-.5 2.1-.5s1.3.1 1.8.4c.6.3 1 .7 1.4 1.2v-5.1zm-4.2 11c.6 0 1.1-.1 1.6-.4s.9-.7 1.1-1.2c.3-.5.4-1.1.4-1.7s-.1-1.2-.4-1.7-.6-.9-1.1-1.2-1-.4-1.6-.4-1.1.1-1.6.4-.8.7-1.1 1.2-.4 1.1-.4 1.7.1 1.2.4 1.7.7.9 1.1 1.2c.4.2 1 .4 1.6.4zm13.8 1c-.7 0-1.3-.1-2-.3-.6-.2-1.1-.5-1.5-.8l.5-.9c.4.3.8.5 1.3.7s1.1.3 1.7.3c.8 0 1.3-.1 1.7-.4.4-.2.6-.6.6-1 0-.3-.1-.5-.3-.7s-.5-.3-.8-.4-.7-.2-1.2-.3c-.7-.1-1.2-.3-1.6-.4s-.8-.4-1.1-.7-.4-.8-.4-1.3c0-.7.3-1.3.9-1.7s1.4-.7 2.4-.7c.5 0 1.1.1 1.6.2s1 .3 1.3.6l-.5.9c-.7-.5-1.5-.7-2.5-.7-.7 0-1.3.1-1.6.4-.4.3-.5.6-.5 1 0 .3.1.6.3.8s.5.3.8.4.7.2 1.3.3c.7.1 1.2.3 1.6.4s.8.3 1 .7c.3.3.4.7.4 1.3 0 .7-.3 1.3-.9 1.8-.5.3-1.4.5-2.5.5zm9 0c-.8 0-1.5-.2-2.2-.5-.7-.4-1.2-.9-1.5-1.5s-.6-1.4-.6-2.2.2-1.6.6-2.2.9-1.2 1.5-1.5c.7-.4 1.4-.5 2.2-.5s1.5.2 2.2.5c.7.4 1.2.9 1.5 1.5.4.7.6 1.4.6 2.2s-.2 1.6-.6 2.2c-.4.7-.9 1.2-1.5 1.5s-1.3.5-2.2.5zm0-1c.6 0 1.1-.1 1.6-.4s.9-.7 1.1-1.2c.3-.5.4-1.1.4-1.7s-.1-1.2-.4-1.7-.6-.9-1.1-1.2-1-.4-1.6-.4-1.1.1-1.6.4-.8.7-1.1 1.2-.4 1.1-.4 1.7.1 1.2.4 1.7.7.9 1.1 1.2c.5.2 1 .4 1.6.4zm17.1-7.6c1.1 0 1.9.3 2.5.9s.9 1.5.9 2.7v4.9h-1.1v-4.8c0-.9-.2-1.5-.6-2s-1-.7-1.8-.7c-.9 0-1.6.3-2.1.8s-.8 1.3-.8 2.2v4.4h-1.1v-4.7c0-.9-.2-1.5-.6-2s-1-.7-1.8-.7c-.9 0-1.6.3-2.1.8s-.8 1.3-.8 2.2v4.4h-1.1v-8.4h1.1v1.5c.3-.5.7-.9 1.2-1.2s1.1-.4 1.8-.4 1.3.1 1.8.4.9.7 1.2 1.3c.3-.6.8-1 1.3-1.3.7-.1 1.4-.3 2.1-.3zm13.9 4.6h-7c.1.9.4 1.6 1 2.1s1.4.8 2.3.8c.5 0 1-.1 1.4-.3s.8-.5 1.1-.8l.6.7c-.4.4-.8.8-1.4 1s-1.2.4-1.8.4c-.9 0-1.6-.2-2.3-.5-.7-.4-1.2-.9-1.6-1.5-.4-.7-.6-1.4-.6-2.2s.2-1.6.5-2.2c.4-.7.9-1.2 1.5-1.5.6-.4 1.3-.5 2.1-.5s1.5.2 2.1.5c.6.4 1.1.9 1.5 1.5s.5 1.4.5 2.2zm-4.1-3.6c-.8 0-1.5.3-2 .8s-.9 1.2-.9 2h6c-.1-.8-.4-1.5-.9-2-.7-.6-1.4-.8-2.2-.8zm-231.8 15.8h1.1v11.9h-1.1zm4.3 3.5h1.1v8.4h-1.1zm.5-1.9c-.2 0-.4-.1-.6-.2-.2-.2-.2-.4-.2-.6s.1-.4.2-.6c.2-.2.4-.2.6-.2s.4.1.6.2.2.3.2.5-.1.4-.2.6c-.1.3-.3.3-.6.3zm8.2 9.8c-.2.2-.5.3-.8.4s-.6.1-1 .1c-.8 0-1.4-.2-1.8-.6s-.6-1-.6-1.8v-5.1h-1.5v-1h1.5v-1.8h1.1v1.8h2.6v1h-2.6v5c0 .5.1.9.4 1.2s.6.4 1.1.4c.2 0 .5 0 .7-.1s.4-.2.6-.3zm6.3 0c-.2.2-.5.3-.8.4s-.6.1-1 .1c-.8 0-1.4-.2-1.8-.6s-.6-1-.6-1.8v-5.1h-1.5v-1h1.4v-1.8h1.1v1.8h2.6v1h-2.6v5c0 .5.1.9.4 1.2s.6.4 1.1.4c.2 0 .5 0 .7-.1s.4-.2.6-.3zm2-11.4h1.1v11.9h-1.1zm11.7 8h-7c.1.9.4 1.6 1 2.1s1.4.8 2.3.8c.5 0 1-.1 1.4-.3s.8-.5 1.1-.8l.6.7c-.4.4-.8.8-1.4 1s-1.2.4-1.8.4c-.9 0-1.6-.2-2.3-.5-.7-.4-1.2-.9-1.6-1.5s-.6-1.4-.6-2.2.2-1.6.5-2.2c.4-.7.9-1.2 1.5-1.5.6-.4 1.3-.5 2.1-.5s1.5.2 2.1.5c.6.4 1.1.9 1.5 1.5s.5 1.4.5 2.2zm-4.1-3.6c-.8 0-1.5.3-2 .8s-.9 1.2-.9 2h6c-.1-.8-.4-1.5-.9-2-.7-.5-1.4-.8-2.2-.8zm10.6-.9h1.1v8.4h-1.1zm.6-1.9c-.2 0-.4-.1-.6-.2s-.2-.4-.2-.6.1-.4.2-.6.4-.2.6-.2.4.1.6.2.2.3.2.5-.1.4-.2.6c-.2.3-.4.3-.6.3zm8 1.8c1.1 0 1.9.3 2.5.9s.9 1.5.9 2.7v4.9h-1.1v-4.8c0-.9-.2-1.5-.7-2-.4-.5-1.1-.7-1.9-.7-.9 0-1.6.3-2.2.8-.5.5-.8 1.3-.8 2.2v4.5h-1.1v-8.4h1.1v1.6c.3-.5.7-.9 1.3-1.2s1.2-.5 2-.5zm9.3-2.5c-.5 0-.9.1-1.1.4s-.4.7-.4 1.2v1h2.6v1h-2.6v7.4h-1.1v-7.5h-1.5v-1h1.5v-1c0-.8.2-1.4.7-1.8.4-.4 1.1-.7 1.9-.7.3 0 .6 0 .9.1s.5.2.8.4l-.4.8c-.4-.2-.8-.3-1.3-.3zm5.9 11.1c-.8 0-1.5-.2-2.2-.5-.7-.4-1.2-.9-1.5-1.5s-.6-1.5-.6-2.3.2-1.6.6-2.2.9-1.2 1.5-1.5c.7-.4 1.4-.5 2.2-.5s1.5.2 2.2.5c.7.4 1.2.9 1.5 1.5.4.7.6 1.4.6 2.2s-.2 1.5-.6 2.2-.9 1.2-1.5 1.5c-.6.4-1.4.6-2.2.6zm0-1c.6 0 1.1-.1 1.6-.4s.9-.7 1.1-1.2c.3-.5.4-1.1.4-1.7s-.1-1.2-.4-1.7-.6-.9-1.1-1.2-1-.4-1.6-.4-1.1.1-1.6.4-.8.7-1.1 1.2-.4 1.1-.4 1.7.1 1.2.4 1.7.7.9 1.1 1.2c.5.2 1 .4 1.6.4zm7.7-5.9c.3-.6.7-1 1.2-1.3s1.2-.4 2-.4v1.1h-.3c-.9 0-1.6.3-2.1.8-.5.6-.8 1.3-.8 2.3v4.3h-1.1v-8.4h1.1zm15.7-1.7c1.1 0 1.9.3 2.5.9s.9 1.5.9 2.7v4.9h-1.1v-4.8c0-.9-.2-1.5-.6-2s-1-.7-1.8-.7c-.9 0-1.6.3-2.1.8s-.8 1.3-.8 2.2v4.5h-1.1v-4.8c0-.9-.2-1.5-.6-2s-1-.7-1.8-.7c-.9 0-1.6.3-2.1.8s-.8 1.3-.8 2.2v4.5h-1.1v-8.4h1.1v1.5c.3-.5.7-.9 1.2-1.2s1.1-.4 1.8-.4 1.3.1 1.8.4.9.7 1.2 1.3c.3-.6.8-1 1.3-1.3.7-.2 1.4-.4 2.1-.4zm9.4 0c1.1 0 1.9.3 2.5.8s.9 1.4.9 2.4v5.3h-1.1v-1.3c-.3.4-.6.8-1.1 1s-1.1.4-1.8.4c-.9 0-1.7-.2-2.2-.7-.6-.4-.8-1-.8-1.8 0-.7.3-1.3.8-1.7s1.3-.7 2.5-.7h2.7v-.5c0-.7-.2-1.3-.6-1.6-.4-.4-1-.6-1.8-.6-.5 0-1 .1-1.5.3s-.9.4-1.3.7l-.5-.8c.4-.4.9-.6 1.5-.8.5-.3 1.2-.4 1.8-.4zm-.4 7.7c.6 0 1.2-.1 1.6-.4.5-.3.8-.7 1-1.3v-1.4h-2.6c-1.4 0-2.2.5-2.2 1.5 0 .5.2.9.6 1.2.4.2 1 .4 1.6.4zm11.3.3c-.2.2-.5.3-.8.4s-.6.1-1 .1c-.8 0-1.4-.2-1.8-.6s-.6-1-.6-1.8v-5.1h-1.5v-1h1.5v-1.8h1.1v1.8h2.6v1h-2.6v5c0 .5.1.9.4 1.2s.6.4 1.1.4c.2 0 .5 0 .7-.1s.4-.2.6-.3zm2.1-7.9h1.1v8.4h-1.1zm.6-1.9c-.2 0-.4-.1-.6-.2s-.2-.4-.2-.6.1-.4.2-.6.4-.2.6-.2.4.1.6.2.2.3.2.5-.1.4-.2.6-.4.3-.6.3zm7.2 10.4c-.8 0-1.5-.2-2.2-.5-.7-.4-1.2-.9-1.5-1.5-.4-.7-.6-1.4-.6-2.2s.2-1.6.6-2.2c.4-.7.9-1.2 1.5-1.5.7-.4 1.4-.5 2.2-.5s1.5.2 2.2.5c.7.4 1.2.9 1.5 1.5.4.7.6 1.4.6 2.2s-.2 1.6-.6 2.2c-.4.7-.9 1.2-1.5 1.5-.7.3-1.4.5-2.2.5zm0-1c.6 0 1.1-.1 1.6-.4s.9-.7 1.1-1.2c.3-.5.4-1.1.4-1.7s-.1-1.2-.4-1.7-.6-.9-1.1-1.2-1-.4-1.6-.4-1.1.1-1.6.4-.8.7-1.1 1.2-.4 1.1-.4 1.7.1 1.2.4 1.7.7.9 1.1 1.2c.4.2 1 .4 1.6.4zm10.8-7.6c1.1 0 1.9.3 2.5.9s.9 1.5.9 2.7v4.9h-1.1v-4.8c0-.9-.2-1.5-.7-2-.4-.5-1.1-.7-1.9-.7-.9 0-1.6.3-2.2.8-.5.5-.8 1.3-.8 2.2v4.5h-1.1v-8.4h1.1v1.6c.3-.5.7-.9 1.3-1.2.7-.3 1.3-.5 2-.5zm13.4 8c-.2.2-.5.3-.8.4s-.6.1-1 .1c-.8 0-1.4-.2-1.8-.6s-.6-1-.6-1.8v-5.1h-1.5v-1h1.5v-1.8h1.1v1.8h2.6v1h-2.6v5c0 .5.1.9.4 1.2s.6.4 1.1.4c.2 0 .5 0 .7-.1s.4-.2.6-.3zm5.2.6c-.8 0-1.5-.2-2.2-.5-.7-.4-1.2-.9-1.5-1.5-.4-.7-.6-1.4-.6-2.2s.2-1.6.6-2.2c.4-.7.9-1.2 1.5-1.5.7-.4 1.4-.5 2.2-.5s1.5.2 2.2.5c.7.4 1.2.9 1.5 1.5.4.7.6 1.4.6 2.2s-.2 1.6-.6 2.2c-.4.7-.9 1.2-1.5 1.5-.7.3-1.4.5-2.2.5zm0-1c.6 0 1.1-.1 1.6-.4s.9-.7 1.1-1.2c.3-.5.4-1.1.4-1.7s-.1-1.2-.4-1.7-.6-.9-1.1-1.2-1-.4-1.6-.4-1.1.1-1.6.4-.8.7-1.1 1.2-.4 1.1-.4 1.7.1 1.2.4 1.7.7.9 1.1 1.2c.5.2 1 .4 1.6.4zm18.6-7.5v7.4c0 1.4-.4 2.5-1.1 3.2s-1.7 1-3.2 1c-.8 0-1.5-.1-2.2-.4-.7-.2-1.3-.5-1.7-.9l.6-.9c.4.4.9.6 1.5.8s1.2.3 1.8.3c1.1 0 1.9-.3 2.4-.8s.8-1.3.8-2.3v-1c-.4.5-.8.9-1.4 1.2s-1.2.4-1.9.4c-.8 0-1.5-.2-2.2-.5-.6-.4-1.1-.8-1.5-1.5-.4-.6-.5-1.3-.5-2.1s.2-1.5.5-2.1c.4-.6.9-1.1 1.5-1.4s1.4-.5 2.2-.5c.7 0 1.4.1 1.9.4.6.3 1 .7 1.4 1.2v-1.6h1.1zm-4.3 7.1c.6 0 1.2-.1 1.6-.4.5-.3.9-.6 1.1-1.1.3-.5.4-1 .4-1.6s-.1-1.1-.4-1.6-.6-.8-1.1-1.1-1-.4-1.6-.4-1.2.1-1.6.4c-.5.3-.9.6-1.1 1.1-.3.5-.4 1-.4 1.6s.1 1.1.4 1.6.7.8 1.1 1.1c.4.2.9.4 1.6.4zm14.8-2.6h-7c.1.9.4 1.6 1 2.1s1.4.8 2.3.8c.5 0 1-.1 1.4-.3s.8-.5 1.1-.8l.6.7c-.4.4-.8.8-1.4 1s-1.2.4-1.8.4c-.9 0-1.6-.2-2.3-.5-.7-.4-1.2-.9-1.6-1.5-.4-.7-.6-1.4-.6-2.2s.2-1.6.5-2.2c.4-.7.9-1.2 1.5-1.5.6-.4 1.3-.5 2.1-.5s1.5.2 2.1.5c.6.4 1.1.9 1.5 1.5s.5 1.4.5 2.2zm-4.1-3.6c-.8 0-1.5.3-2 .8s-.9 1.2-.9 2h6c-.1-.8-.4-1.5-.9-2-.7-.5-1.4-.8-2.2-.8zm10.8 7c-.2.2-.5.3-.8.4s-.6.1-1 .1c-.8 0-1.4-.2-1.8-.6s-.6-1-.6-1.8v-5.1h-1.5v-1h1.5v-1.8h1.1v1.8h2.6v1h-2.6v5c0 .5.1.9.4 1.2s.6.4 1.1.4c.2 0 .5 0 .7-.1s.4-.2.6-.3zm10.7 0c-.2.2-.5.3-.8.4s-.6.1-1 .1c-.8 0-1.4-.2-1.8-.6s-.6-1-.6-1.8v-5.1h-1.5v-1h1.5v-1.8h1.1v1.8h2.6v1h-2.6v5c0 .5.1.9.4 1.2s.6.4 1.1.4c.2 0 .5 0 .7-.1s.4-.2.6-.3zm6.4-8c1.1 0 1.9.3 2.5.9s.9 1.5.9 2.7v4.9h-1.1v-4.8c0-.9-.2-1.5-.7-2-.4-.5-1.1-.7-1.9-.7-.9 0-1.6.3-2.2.8-.5.5-.8 1.3-.8 2.2v4.5h-1.1v-11.9h1.1v4.9c.3-.5.7-.9 1.3-1.1s1.3-.4 2-.4zm13.9 4.6h-7c.1.9.4 1.6 1 2.1s1.4.8 2.3.8c.5 0 1-.1 1.4-.3s.8-.5 1.1-.8l.6.7c-.4.4-.8.8-1.4 1s-1.2.4-1.8.4c-.9 0-1.6-.2-2.3-.5-.7-.4-1.2-.9-1.6-1.5-.4-.7-.6-1.4-.6-2.2s.2-1.6.5-2.2c.4-.7.9-1.2 1.5-1.5.6-.4 1.3-.5 2.1-.5s1.5.2 2.1.5c.6.4 1.1.9 1.5 1.5s.5 1.4.5 2.2zm-4.1-3.6c-.8 0-1.5.3-2 .8s-.9 1.2-.9 2h6c-.1-.8-.4-1.5-.9-2-.7-.5-1.4-.8-2.2-.8zm-206.1 19c.8 0 1.5.2 2.1.5.6.4 1.1.9 1.5 1.5.4.7.5 1.4.5 2.2s-.2 1.6-.5 2.2c-.4.7-.9 1.2-1.5 1.5-.6.4-1.3.5-2.1.5-.7 0-1.3-.1-1.9-.4-.5-.3-1-.7-1.3-1.2v4.7h-1.1v-11.4h1.1v1.7c.3-.6.8-1 1.3-1.3.6-.3 1.2-.5 1.9-.5zm-.1 7.6c.6 0 1.1-.1 1.6-.4s.9-.7 1.1-1.2c.3-.5.4-1.1.4-1.7s-.1-1.2-.4-1.7-.6-.9-1.1-1.2-1-.4-1.6-.4-1.1.1-1.6.4-.8.7-1.1 1.2-.4 1.1-.4 1.7.1 1.2.4 1.7.7.9 1.1 1.2c.5.2 1 .4 1.6.4zm9.5-7.6c1.1 0 1.9.3 2.5.8s.9 1.4.9 2.4v5.3h-1.1v-1.3c-.3.4-.6.8-1.1 1s-1.1.4-1.8.4c-.9 0-1.7-.2-2.2-.7-.6-.4-.8-1-.8-1.8 0-.7.3-1.3.8-1.7s1.3-.7 2.5-.7h2.7v-.5c0-.7-.2-1.3-.6-1.6-.4-.4-1-.6-1.8-.6-.5 0-1 .1-1.5.3s-.9.4-1.3.7l-.5-.8c.4-.4.9-.6 1.5-.8.5-.3 1.2-.4 1.8-.4zm-.4 7.7c.6 0 1.2-.1 1.6-.4.5-.3.8-.7 1-1.3v-1.4h-2.5c-1.4 0-2.2.5-2.2 1.5 0 .5.2.9.6 1.2.3.2.9.4 1.5.4zm11.3-7.7c.8 0 1.5.2 2.1.5.6.4 1.1.9 1.5 1.5.4.7.5 1.4.5 2.2s-.2 1.6-.5 2.2c-.4.7-.9 1.2-1.5 1.5-.6.4-1.3.5-2.1.5-.7 0-1.3-.1-1.9-.4-.5-.3-1-.7-1.3-1.2v4.7h-1.1v-11.4h1.1v1.7c.3-.6.8-1 1.3-1.3s1.1-.5 1.9-.5zm-.1 7.6c.6 0 1.1-.1 1.6-.4s.9-.7 1.1-1.2c.3-.5.4-1.1.4-1.7s-.1-1.2-.4-1.7-.6-.9-1.1-1.2-1-.4-1.6-.4-1.1.1-1.6.4-.8.7-1.1 1.2-.4 1.1-.4 1.7.1 1.2.4 1.7.7.9 1.1 1.2c.4.2 1 .4 1.6.4zm13.9-3h-7c.1.9.4 1.6 1 2.1s1.4.8 2.3.8c.5 0 1-.1 1.4-.3s.8-.5 1.1-.8l.6.7c-.4.4-.8.8-1.4 1s-1.2.4-1.8.4c-.9 0-1.6-.2-2.3-.5-.7-.4-1.2-.9-1.6-1.5-.4-.7-.6-1.4-.6-2.2s.2-1.6.5-2.2c.4-.7.9-1.2 1.5-1.5.6-.4 1.3-.5 2.1-.5s1.5.2 2.1.5c.6.4 1.1.9 1.5 1.5s.5 1.4.5 2.2zm-4.1-3.6c-.8 0-1.5.3-2 .8s-.9 1.2-.9 2h6c-.1-.8-.4-1.5-.9-2-.7-.5-1.4-.8-2.2-.8zm7.5.7c.3-.6.7-1 1.2-1.3s1.2-.4 2-.4v1.1h-.3c-.9 0-1.6.3-2.1.8s-.8 1.3-.8 2.3v4.3h-1.1v-8.4h1.1zm17.9-1.6-3.2 8.4h-1.1l-2.7-6.9-2.5 6.9h-1.1l-3.2-8.4h1.1l2.6 7.2 2.7-7.2h1l2.7 7.2 2.7-7.2zm4.9 8.5c-.8 0-1.5-.2-2.2-.5-.7-.4-1.2-.9-1.5-1.5-.4-.7-.6-1.4-.6-2.2s.2-1.6.6-2.2c.4-.7.9-1.2 1.5-1.5.7-.4 1.4-.5 2.2-.5s1.5.2 2.2.5c.7.4 1.2.9 1.5 1.5.4.7.6 1.4.6 2.2s-.2 1.4-.5 2.1c-.4.7-.9 1.2-1.5 1.5-.7.4-1.4.6-2.3.6zm0-1c.6 0 1.1-.1 1.6-.4s.9-.7 1.1-1.2c.3-.5.4-1.1.4-1.7s-.1-1.2-.4-1.7-.6-.9-1.1-1.2-1-.4-1.6-.4-1.1.1-1.6.4-.8.7-1.1 1.2-.4 1.1-.4 1.7.1 1.2.4 1.7.6.9 1.1 1.2c.5.2 1 .4 1.6.4zm7.7-5.9c.3-.6.7-1 1.2-1.3s1.2-.4 2-.4v1.1h-.3c-.9 0-1.6.3-2.1.8-.5.6-.7 1.3-.7 2.3v4.3h-1.1v-8.4h1.1v1.6zm8.4 2.6-2 1.8v2.4h-1.1v-11.9h1.1v8l5-4.6h1.4l-3.6 3.4 3.9 5h-1.4zm18.3-7.7v11.9h-1.1v-1.7c-.3.6-.8 1-1.4 1.3s-1.2.4-1.9.4c-.8 0-1.5-.2-2.1-.5-.6-.4-1.1-.9-1.5-1.5-.4-.7-.5-1.4-.5-2.2s.2-1.6.5-2.2c.4-.7.9-1.2 1.5-1.5.6-.4 1.4-.5 2.1-.5s1.3.1 1.8.4c.6.3 1 .7 1.4 1.2v-5.1zm-4.2 11c.6 0 1.1-.1 1.6-.4s.9-.7 1.1-1.2c.3-.5.4-1.1.4-1.7s-.1-1.2-.4-1.7-.6-.9-1.1-1.2-1-.4-1.6-.4-1.1.1-1.6.4-.8.7-1.1 1.2-.4 1.1-.4 1.7.1 1.2.4 1.7.6.9 1.1 1.2c.4.2 1 .4 1.6.4zm10.8 1c-.8 0-1.5-.2-2.2-.5-.7-.4-1.2-.9-1.5-1.5-.4-.7-.6-1.4-.6-2.2s.2-1.6.6-2.2c.4-.7.9-1.2 1.5-1.5.6-.4 1.4-.5 2.2-.5s1.5.2 2.2.5c.6.4 1.2.9 1.5 1.5.4.7.6 1.4.6 2.2s-.2 1.6-.6 2.2c-.4.7-.9 1.2-1.5 1.5s-1.4.5-2.2.5zm0-1c.6 0 1.1-.1 1.6-.4s.9-.7 1.1-1.2c.3-.5.4-1.1.4-1.7s-.1-1.2-.4-1.7-.6-.9-1.1-1.2-1-.4-1.6-.4-1.1.1-1.6.4-.8.7-1.1 1.2-.4 1.1-.4 1.7.1 1.2.4 1.7.7.9 1.1 1.2c.5.2 1 .4 1.6.4zm10.9-7.6c1.1 0 1.9.3 2.5.9s.9 1.5.9 2.7v4.9h-1.1v-4.8c0-.9-.2-1.5-.7-2-.4-.5-1.1-.7-1.9-.7-.9 0-1.6.3-2.2.8-.5.5-.8 1.3-.8 2.2v4.5h-1.1v-8.4h1.1v1.6c.3-.5.7-.9 1.3-1.2s1.3-.5 2-.5zm13.9 4.6h-7c.1.9.4 1.6 1 2.1s1.4.8 2.3.8c.5 0 1-.1 1.4-.3s.8-.5 1.1-.8l.6.7c-.4.4-.8.8-1.4 1s-1.2.4-1.8.4c-.9 0-1.6-.2-2.3-.5-.7-.4-1.2-.9-1.6-1.5-.4-.7-.6-1.4-.6-2.2s.2-1.6.5-2.2c.4-.7.9-1.2 1.5-1.5.6-.4 1.3-.5 2.1-.5s1.5.2 2.1.5c.6.4 1.1.9 1.5 1.5s.5 1.4.5 2.2zm-4.1-3.6c-.8 0-1.5.3-2 .8s-.9 1.2-.9 2h6c-.1-.8-.4-1.5-.9-2-.7-.5-1.4-.8-2.2-.8zm6.5 7.6c-.2 0-.4-.1-.6-.3s-.2-.4-.2-.6.1-.4.2-.6c.2-.2.4-.3.6-.3s.4.1.6.3.3.4.3.6-.1.5-.3.6c-.1.2-.3.3-.6.3z" fill="#66429c"/></svg>