<svg width="353" height="352" viewBox="0 0 353 352" fill="none" xmlns="http://www.w3.org/2000/svg">
<g opacity="0.38">
<path opacity="0.38" d="M153.52 155.019H11.0391V161.062H153.52V155.019Z" fill="#EBEBEB"/>
<path opacity="0.38" d="M145.525 161.069H139.274V181.05H145.525V161.069Z" fill="#EBEBEB"/>
<path opacity="0.38" d="M145.525 161.069H139.274V167.245H145.525V161.069Z" fill="#DBDBDB"/>
<path opacity="0.38" d="M25.2678 161.069H19.0171V181.05H25.2678V161.069Z" fill="#EBEBEB"/>
<path opacity="0.38" d="M25.2678 161.069H19.0171V167.245H25.2678V161.069Z" fill="#DBDBDB"/>
<path opacity="0.38" d="M126.919 116.529H116.889V155.027H126.919V116.529Z" fill="#C7C7C7"/>
<path opacity="0.38" d="M126.919 114.471H116.889V118.704H126.919V114.471Z" fill="#DBDBDB"/>
<path opacity="0.38" d="M126.919 124.117H116.889V125.688H126.919V124.117Z" fill="#DBDBDB"/>
<path opacity="0.38" d="M126.918 145.744H115.64V149.976H126.918V145.744Z" fill="#DBDBDB"/>
<path opacity="0.38" d="M116.889 110.115H109.877V155.027H116.889V110.115Z" fill="#DBDBDB"/>
<path opacity="0.38" d="M115.521 114.339H111.313V131.608H115.521V114.339Z" fill="#EBEBEB"/>
<path opacity="0.38" d="M93.0643 118.648L60.0264 150.221L64.9556 155.042L97.9935 123.468L93.0643 118.648Z" fill="#C7C7C7"/>
<path opacity="0.38" d="M81.4477 131.62L68.7441 143.762L71.7019 146.654L84.4054 134.513L81.4477 131.62Z" fill="#DBDBDB"/>
<path opacity="0.38" d="M109.885 120.919H97.9829V155.027H109.885V120.919Z" fill="#A6A6A6"/>
<path opacity="0.38" d="M109.885 148.24H97.9829V151.423H109.885V148.24Z" fill="#C7C7C7"/>
<path opacity="0.38" d="M109.885 144.917H97.9829V146.148H109.885V144.917Z" fill="#C7C7C7"/>
<path opacity="0.38" d="M135.144 122.978H126.927V155.035H135.144V122.978Z" fill="#A6A6A6"/>
<path opacity="0.38" d="M135.144 148.645H126.927V151.629H135.144V148.645Z" fill="#C7C7C7"/>
<path opacity="0.38" d="M135.144 129.583H126.927V132.567H135.144V129.583Z" fill="#C7C7C7"/>
<path opacity="0.38" d="M135.135 134.617H126.918V135.774H135.135V134.617Z" fill="#C7C7C7"/>
<path opacity="0.38" d="M39.8468 113.959C46.8583 120.573 48.0385 130.872 46.5591 139.867C46.5591 140.066 46.1918 140.015 46.1918 139.817C46.1918 137.775 46.26 135.742 46.2519 133.725C46.2353 133.627 46.1974 133.535 46.1406 133.451C44.2512 132.248 42.6882 130.624 41.583 128.715C40.4153 126.491 39.9501 123.978 39.0608 121.648C38.971 121.424 39.2234 121.491 39.377 121.606C43.6525 124.646 45.0035 127.922 46.2178 132.294C46.1897 130.006 45.9408 127.727 45.4741 125.483C44.6602 121.255 42.6473 117.328 39.6599 114.141C39.6439 114.116 39.6372 114.086 39.6408 114.057C39.6444 114.027 39.6582 114 39.6798 113.979C39.7015 113.958 39.7299 113.945 39.7603 113.941C39.7908 113.938 39.8215 113.944 39.8476 113.96L39.8468 113.959Z" fill="#A6A6A6"/>
<path opacity="0.38" d="M38.5292 114.74C37.3148 114.74 36.5621 116.641 35.6217 117.22C35.435 117.366 35.1959 117.435 34.9569 117.411C34.7179 117.386 34.4985 117.272 34.3471 117.091C34.3256 117.066 34.3058 117.04 34.2879 117.013C33.3555 115.756 34.6382 114.211 35.8355 113.342C35.0427 113.772 34.2058 114.121 33.3384 114.384C33.2325 114.42 33.1202 114.436 33.008 114.43C32.8958 114.424 32.786 114.397 32.6847 114.35C32.5835 114.303 32.4928 114.237 32.4178 114.156C32.3429 114.075 32.2852 113.981 32.248 113.878C32.2309 113.83 32.2179 113.781 32.2094 113.731C31.7989 112.02 34.022 111.251 35.5526 111.251C34.8088 110.756 32.6881 109.408 33.8459 108.771C35.0037 108.135 37.4801 110.037 38.284 110.673C39.4813 111.607 40.9006 113.012 40.9607 114.476C41.0003 116.141 39.4526 115.091 38.5292 114.74Z" fill="#DBDBDB"/>
<path opacity="0.38" d="M38.8722 115.025C37.3326 114.339 34.3659 115.323 34.118 114.753C33.6051 113.604 35.9736 112.818 37.2563 112.662C36.076 112.356 33.8359 111.835 33.8871 110.769C33.9769 109.43 37.3497 110.578 39.0599 111.844C41.2058 113.439 41.1977 114.985 40.8384 115.291C40.3507 115.711 39.1282 115.133 38.8722 115.025Z" fill="#EBEBEB"/>
<path opacity="0.38" d="M55.82 113.306C48.5516 119.68 46.9699 129.897 48.1241 138.933C48.1241 139.139 48.4834 139.098 48.4915 138.933C48.5687 136.891 48.5813 134.857 48.6711 132.84L48.7906 132.567C50.726 131.441 52.3512 129.878 53.5278 128.012C54.7934 125.83 55.3494 123.334 56.332 121.044C56.4218 120.821 56.1784 120.879 56.0159 120.985C51.6289 123.87 50.1415 127.095 48.7474 131.418C48.864 129.134 49.2018 126.863 49.7562 124.64C50.7406 120.441 52.9135 116.588 56.032 113.514C56.0604 113.486 56.0763 113.449 56.0763 113.41C56.0763 113.372 56.0604 113.334 56.032 113.307C56.0037 113.28 55.9652 113.264 55.9251 113.264C55.885 113.264 55.8466 113.28 55.8182 113.307L55.82 113.306Z" fill="#A6A6A6"/>
<path opacity="0.38" d="M57.1026 114.124C58.308 114.211 58.9888 116.099 59.9068 116.679C59.9961 116.755 60.1 116.813 60.2127 116.85C60.3253 116.888 60.4445 116.903 60.5633 116.896C60.6821 116.888 60.7982 116.858 60.905 116.808C61.0119 116.757 61.1073 116.686 61.1858 116.6C61.2084 116.575 61.2295 116.549 61.2487 116.522C62.2323 115.299 61.0089 113.704 59.8466 112.795C60.6201 113.276 61.4423 113.681 62.3005 114.002C62.405 114.041 62.5165 114.061 62.6289 114.06C62.7412 114.058 62.8521 114.035 62.9552 113.992C63.0583 113.948 63.1516 113.886 63.2298 113.808C63.308 113.73 63.3695 113.638 63.4108 113.537C63.4305 113.489 63.4455 113.44 63.4557 113.39C63.9263 111.687 61.749 110.844 60.2149 110.753C60.9676 110.281 63.1395 109.008 62.0446 108.273C60.9496 107.537 58.3852 109.422 57.5301 110.042C56.2987 110.935 54.8283 112.282 54.7169 113.737C54.5795 115.439 56.1612 114.446 57.1026 114.124Z" fill="#DBDBDB"/>
<path opacity="0.38" d="M56.7434 114.38C58.3171 113.76 61.2345 114.843 61.5039 114.293C62.0599 113.169 59.7255 112.296 58.4599 112.094C59.6482 111.834 61.8803 111.416 61.8803 110.317C61.8803 108.978 58.4599 110.003 56.6706 111.21C54.4646 112.722 54.4134 114.26 54.7556 114.582C55.238 115.034 56.4865 114.504 56.7434 114.38Z" fill="#EBEBEB"/>
<path opacity="0.38" d="M48.3799 130.141C47.893 133.549 47.1384 136.917 46.1227 140.214C46.1173 140.248 46.1049 140.279 46.0864 140.307C46.0679 140.336 46.0437 140.361 46.0151 140.38C45.9865 140.399 45.9542 140.413 45.9202 140.419C45.8861 140.426 45.8509 140.426 45.8168 140.419C45.7826 140.413 45.7503 140.4 45.7216 140.381C45.693 140.361 45.6686 140.337 45.65 140.308C45.6315 140.28 45.6191 140.248 45.6135 140.214C45.608 140.181 45.6095 140.148 45.6179 140.114C46.0966 137.007 46.9652 133.957 47.4395 130.857C47.9647 127.712 48.1538 124.524 48.0035 121.342C47.6954 116.109 46.2251 110.538 42.6933 106.462C42.616 106.363 42.7831 106.223 42.8559 106.314C49.9356 114.291 48.8416 124.07 48.8416 124.946C49.8422 121.639 50.877 117.862 54.6647 114.497C54.8273 114.349 54.9558 114.423 54.9342 114.671C54.2587 120.789 52.4973 123.988 48.82 127.262C48.6691 128.218 48.5425 129.186 48.3799 130.141Z" fill="#A6A6A6"/>
<path opacity="0.38" d="M42.6251 107.37C41.3514 106.824 39.5981 108.387 38.3496 108.494C38.0806 108.556 37.797 108.513 37.5612 108.373C37.3254 108.233 37.1567 108.009 37.0921 107.748C37.0858 107.722 37.0804 107.695 37.0759 107.668C36.7597 105.915 38.8975 104.923 40.5907 104.609C39.5218 104.543 38.4699 104.825 37.4181 104.551C37.1525 104.521 36.9101 104.39 36.744 104.188C36.578 103.985 36.5019 103.727 36.5325 103.47C36.5391 103.419 36.5493 103.369 36.5631 103.32C37.0337 101.344 39.7355 101.67 41.3425 102.336C40.8296 101.509 39.3331 99.0292 40.8466 98.8885C42.3601 98.7478 43.959 101.963 44.4638 103.022C45.2165 104.576 45.9683 106.717 45.2587 108.263C44.4638 110.031 43.4039 108.188 42.6251 107.37Z" fill="#DBDBDB"/>
<path opacity="0.38" d="M42.8396 107.832C41.5911 106.386 38.0081 105.956 38.0422 105.245C38.1105 103.807 40.9749 104.137 42.386 104.6C41.3261 103.707 39.2423 102.12 39.8809 100.995C40.6677 99.6473 43.5636 102.483 44.6863 104.633C46.0884 107.336 45.2675 108.923 44.7375 109.072C44.0109 109.271 43.0444 108.081 42.8396 107.832Z" fill="#EBEBEB"/>
<path opacity="0.38" d="M53.0397 131.98L56.161 155.027H37.1699C37.5633 152.986 41.0951 131.955 41.0951 131.955L53.0397 131.98Z" fill="#DBDBDB"/>
<path opacity="0.38" d="M279.515 137.881C280.032 135.761 280.973 133.758 282.285 131.987C283.816 130.158 285.945 128.887 288.322 128.382C289.177 128.134 290.178 127.87 291.383 127.555C292.624 127.264 293.836 126.872 295.008 126.382C296.201 125.889 297.302 125.211 298.266 124.373C299.243 123.52 299.927 122.399 300.224 121.16C300.478 120.268 300.509 119.33 300.314 118.424C300.134 117.61 299.785 116.839 299.288 116.159C298.774 115.473 298.123 114.894 297.373 114.456C296.606 113.997 295.769 113.657 294.893 113.448C293.888 113.198 292.84 113.151 291.815 113.308C290.883 113.442 289.974 113.698 289.113 114.068C288.274 114.432 287.482 114.89 286.754 115.432C286.082 115.926 285.439 116.456 284.83 117.02L279.614 111.233C280.584 109.965 281.768 108.864 283.117 107.976C284.431 107.113 285.872 106.447 287.392 106C288.941 105.552 290.547 105.316 292.164 105.298C293.833 105.275 295.498 105.466 297.115 105.868C298.957 106.318 300.722 107.022 302.357 107.959C303.99 108.89 305.414 110.127 306.547 111.597C307.714 113.132 308.519 114.896 308.906 116.764C309.341 118.96 309.242 121.224 308.615 123.378C308.29 124.724 307.76 126.016 307.042 127.213C306.404 128.243 305.602 129.169 304.665 129.957C303.737 130.728 302.71 131.381 301.611 131.901C300.42 132.456 299.189 132.928 297.928 133.313C296.808 133.645 295.705 133.942 294.605 134.223C293.541 134.488 292.505 134.849 291.51 135.298C290.558 135.716 289.689 136.292 288.944 137.001C288.179 137.78 287.647 138.747 287.405 139.796L279.515 137.881ZM275.403 154.274L277.925 144.586L285.988 146.545L283.466 156.234L275.403 154.274Z" fill="#EBEBEB"/>
<path opacity="0.38" d="M25.1052 317.554C25.4722 319.12 25.5186 320.741 25.2417 322.324C24.8335 324.008 23.8593 325.514 22.4716 326.606C21.9928 327.028 21.4027 327.524 20.7012 328.082C19.9753 328.661 19.3029 329.301 18.6919 329.993C18.0622 330.689 17.5565 331.481 17.1954 332.337C16.8332 333.208 16.7555 334.167 16.9727 335.083C17.1058 335.755 17.3985 336.388 17.8278 336.933C18.2205 337.416 18.7091 337.818 19.2649 338.115C19.8362 338.404 20.4611 338.581 21.1036 338.636C21.7663 338.704 22.4358 338.669 23.0878 338.537C23.8304 338.398 24.5368 338.117 25.1654 337.711C25.7407 337.333 26.2588 336.88 26.7049 336.363C27.1392 335.856 27.5122 335.301 27.8169 334.713C28.1007 334.179 28.3491 333.628 28.5606 333.063L33.9499 335.246C33.7254 336.391 33.3033 337.492 32.7014 338.503C32.1166 339.49 31.3784 340.385 30.5125 341.156C29.6375 341.942 28.6497 342.602 27.5798 343.116C26.4805 343.65 25.3133 344.041 24.1082 344.281C22.7374 344.562 21.3318 344.65 19.9351 344.541C18.5416 344.434 17.184 344.061 15.9415 343.441C14.6528 342.786 13.5266 341.867 12.6406 340.75C11.6231 339.429 10.9354 337.899 10.6313 336.278C10.3936 335.284 10.3128 334.261 10.3915 333.244C10.4675 332.361 10.6898 331.496 11.0498 330.681C11.4036 329.879 11.8667 329.125 12.4268 328.441C13.0276 327.694 13.6851 326.993 14.3939 326.341C15.0227 325.78 15.6595 325.233 16.3008 324.692C16.9194 324.192 17.4906 323.639 18.0075 323.041C18.4691 322.463 18.822 321.811 19.0503 321.116C19.3015 320.358 19.3326 319.55 19.1401 318.777L25.1052 317.554ZM22.3521 305.397L23.9168 312.614L17.9311 313.83L16.3664 306.623L22.3521 305.397Z" fill="#EBEBEB"/>
<path opacity="0.38" d="M294.385 243.793C295.392 245.07 296.132 246.524 296.565 248.075C296.909 249.778 296.66 251.542 295.855 253.092C295.607 253.671 295.282 254.357 294.889 255.15C294.474 255.967 294.136 256.82 293.88 257.696C293.607 258.584 293.488 259.508 293.53 260.433C293.579 261.37 293.919 262.271 294.504 263.02C294.913 263.578 295.452 264.034 296.078 264.351C296.647 264.638 297.271 264.807 297.912 264.848C298.552 264.89 299.194 264.802 299.797 264.591C300.425 264.381 301.015 264.08 301.55 263.698C302.166 263.276 302.685 262.735 303.077 262.111C303.451 261.536 303.739 260.913 303.932 260.259C304.104 259.624 304.205 258.974 304.231 258.317C304.267 257.72 304.267 257.121 304.231 256.523L310.062 256.342C310.355 257.471 310.446 258.638 310.332 259.797C310.221 260.935 309.932 262.049 309.477 263.104C309.013 264.168 308.397 265.165 307.647 266.064C306.879 266.998 305.988 267.832 304.996 268.543C303.867 269.349 302.623 269.993 301.303 270.453C299.989 270.914 298.594 271.12 297.198 271.057C295.747 270.976 294.331 270.593 293.046 269.936C291.553 269.14 290.268 268.023 289.293 266.671C288.65 265.863 288.137 264.966 287.771 264.01C287.459 263.176 287.289 262.3 287.266 261.414C287.242 260.54 287.336 259.668 287.548 258.818C287.781 257.901 288.081 257.002 288.447 256.127C288.78 255.357 289.114 254.605 289.472 253.869C289.829 253.161 290.116 252.421 290.327 251.661C290.52 250.947 290.584 250.206 290.515 249.471C290.414 248.682 290.092 247.936 289.583 247.313L294.385 243.793ZM286.689 233.872L291.212 239.8L286.278 243.322L281.755 237.393L286.689 233.872Z" fill="#EBEBEB"/>
<path opacity="0.38" d="M322.465 228.88C322.436 227.112 322.767 225.357 323.44 223.713C324.275 221.988 325.684 220.581 327.441 219.719C328.049 219.363 328.801 218.967 329.687 218.512C330.589 218.048 331.447 217.508 332.252 216.9C333.096 216.291 333.825 215.548 334.408 214.701C334.994 213.838 335.292 212.822 335.263 211.791C335.278 211.078 335.128 210.372 334.823 209.721C334.518 209.072 334.067 208.497 333.502 208.038C332.961 207.597 332.332 207.269 331.655 207.07C330.958 206.858 330.231 206.749 329.499 206.748C328.669 206.739 327.845 206.886 327.074 207.183C326.367 207.469 325.703 207.845 325.098 208.299C324.511 208.747 323.98 209.26 323.516 209.828C323.09 210.342 322.696 210.881 322.336 211.439L317.052 207.918C317.559 206.736 318.267 205.643 319.146 204.686C320.011 203.757 321.014 202.958 322.122 202.314C323.251 201.663 324.469 201.168 325.739 200.843C327.045 200.51 328.39 200.343 329.741 200.347C331.284 200.347 332.82 200.564 334.298 200.991C335.772 201.41 337.144 202.11 338.334 203.05C339.563 204.034 340.557 205.264 341.25 206.654C342.059 208.298 342.465 210.099 342.438 211.92C342.456 213.038 342.304 214.151 341.989 215.227C341.695 216.157 341.254 217.038 340.681 217.838C340.113 218.623 339.44 219.332 338.68 219.946C337.854 220.612 336.98 221.219 336.063 221.764C335.26 222.236 334.447 222.69 333.638 223.12C332.854 223.535 332.11 224.018 331.416 224.562C330.765 225.071 330.212 225.686 329.783 226.38C329.338 227.134 329.117 227.993 329.142 228.861L322.465 228.88ZM322.585 242.553V234.453H329.321V242.553H322.585Z" fill="#EBEBEB"/>
<path opacity="0.38" d="M111.672 275.841C111.266 274.118 111.214 272.336 111.519 270.592C111.967 268.738 113.044 267.082 114.58 265.889C115.102 265.417 115.743 264.881 116.521 264.238C117.313 263.596 118.05 262.895 118.727 262.139C119.413 261.368 119.964 260.494 120.36 259.552C120.758 258.593 120.841 257.54 120.6 256.534C120.454 255.794 120.132 255.098 119.659 254.5C119.22 253.988 118.679 253.565 118.068 253.26C117.443 252.937 116.756 252.74 116.05 252.682C115.324 252.616 114.592 252.656 113.878 252.797C113.062 252.957 112.287 253.268 111.595 253.715C110.96 254.135 110.386 254.636 109.888 255.203C109.414 255.761 109.007 256.368 108.674 257.014C108.351 257.603 108.065 258.21 107.819 258.832L101.996 256.418C102.239 255.16 102.699 253.951 103.356 252.839C103.997 251.753 104.808 250.77 105.758 249.922C106.718 249.055 107.8 248.326 108.973 247.755C111.573 246.497 114.481 245.953 117.379 246.184C118.908 246.299 120.399 246.707 121.765 247.383C123.183 248.099 124.42 249.107 125.391 250.336C127.172 252.737 128.053 255.652 127.888 258.603C127.802 259.57 127.559 260.519 127.169 261.413C126.783 262.3 126.277 263.134 125.665 263.893C124.998 264.708 124.276 265.479 123.502 266.199C122.809 266.82 122.117 267.423 121.415 268.001C120.739 268.565 120.115 269.184 119.551 269.852C119.026 270.484 118.616 271.196 118.337 271.96C118.069 272.795 118.038 273.682 118.247 274.532L111.672 275.841ZM114.726 289.192L113.019 281.272L119.612 279.917L121.319 287.844L114.726 289.192Z" fill="#EBEBEB"/>
<path opacity="0.38" d="M317.292 339.965L328.716 339.734L334.342 339.647C336.215 339.605 338.071 339.647 339.935 339.598L339.558 339.969L339.507 330.72L339.935 331.132L328.587 331.084C324.815 331.084 321.042 330.985 317.27 330.943L317.51 330.72C317.51 332.232 317.432 333.753 317.39 335.299L317.292 339.965ZM317.292 339.965L317.173 335.385C317.173 333.847 317.083 332.285 317.062 330.714V330.492H317.292C321.072 330.45 324.843 330.36 328.61 330.351L339.927 330.301H340.355V340.337H339.971C338.064 340.337 336.149 340.337 334.25 340.287L328.555 340.2L317.292 339.965Z" fill="#EBEBEB"/>
<path opacity="0.38" d="M329.921 351.629L341.345 351.397L346.971 351.31C348.844 351.269 350.7 351.31 352.564 351.26L352.187 351.633L352.144 342.382L352.563 342.796L341.245 342.746C337.473 342.746 333.7 342.647 329.928 342.606L330.167 342.382C330.167 343.896 330.09 345.417 330.056 346.963L329.921 351.629ZM329.921 351.629L329.802 347.05C329.802 345.511 329.712 343.949 329.69 342.378V342.155H329.921C333.701 342.113 337.472 342.023 341.239 342.015L352.556 341.965H352.992V342.378L352.941 351.628V352H352.522C350.615 352 348.708 352 346.801 351.95L341.107 351.863L329.921 351.629Z" fill="#EBEBEB"/>
<path opacity="0.38" d="M304.645 351.629L316.069 351.397L321.695 351.31C323.559 351.269 325.424 351.31 327.288 351.26L326.911 351.633L326.877 342.382L327.305 342.796L315.987 342.746C312.215 342.746 308.437 342.647 304.67 342.606L304.9 342.382C304.9 343.896 304.832 345.417 304.789 346.963L304.645 351.629ZM304.645 351.629L304.526 347.05C304.483 345.511 304.436 343.949 304.415 342.378V342.155H304.645C308.418 342.113 312.196 342.023 315.963 342.015L327.281 341.965H327.708V342.378L327.725 351.628V352H327.349C325.442 352 323.527 352 321.628 351.95L315.933 351.863L304.645 351.629Z" fill="#EBEBEB"/>
<path opacity="0.38" d="M12.8346 351.629L24.25 351.397L29.8764 351.31C31.7492 351.269 33.613 351.31 35.4768 351.26L35.0924 351.633L35.0493 342.382L35.4768 342.796L24.1808 342.746C20.4011 342.746 16.6304 342.647 12.8633 342.606L13.0942 342.382C13.0942 343.896 13.0169 345.417 12.9828 346.963L12.8346 351.629ZM12.8346 351.629L12.7061 347.05C12.7061 345.511 12.6163 343.949 12.5947 342.378V342.155H12.8346C16.6071 342.113 20.3796 342.023 24.1521 342.015L35.4696 341.965H35.8972V342.378L35.846 351.628V352H35.4696C33.5627 352 31.6477 352 29.7408 351.95L24.0461 351.863L12.8346 351.629Z" fill="#EBEBEB"/>
<path opacity="0.38" d="M12.8346 94.3505L24.25 94.1186L29.8764 94.0197H35.4768L35.0924 94.3913L35.0493 85.1415L35.4768 85.5461L24.1808 85.4472C20.4011 85.4472 16.6304 85.3603 12.8633 85.3152L13.0942 85.092C13.0942 86.6046 13.0169 88.1261 12.9828 89.6631L12.8346 94.3505ZM12.8346 94.3505L12.7061 89.7707C12.7061 88.225 12.6163 86.6629 12.5947 85.0999V84.8766H12.8346C16.6071 84.8766 20.3796 84.7446 24.1521 84.7446L35.4696 84.6952H35.8972V85.1172L35.846 94.367V94.7308H35.4696C33.5627 94.7308 31.6477 94.7308 29.7408 94.6891L24.0461 94.5407L12.8346 94.3505Z" fill="#EBEBEB"/>
<path opacity="0.38" d="M0.239823 106.014L11.6553 105.782L17.2817 105.683H22.8821L22.4977 106.055V96.8052L22.9253 97.2099L11.5269 97.1231C7.74717 97.1231 3.97641 97.024 0.239823 97.024L0.470682 96.8009C0.470682 98.3136 0.393442 99.8349 0.359309 101.372L0.239823 106.014ZM0.239823 106.014L0.1114 101.434C0.1114 99.8887 0.0215573 98.3266 0 96.7636V96.5404H0.239823C4.01234 96.5404 7.78489 96.4084 11.5574 96.4084L22.8749 96.3589H23.3025V96.7809L23.2513 106.031V106.395H17.1434L11.4487 106.296L0.239823 106.014Z" fill="#EBEBEB"/>
<path opacity="0.38" d="M329.921 94.3584L341.345 94.1265L346.971 94.0397C348.844 94.0397 350.7 94.0397 352.564 93.9902L352.187 94.3618L352.144 85.1121L352.563 85.5253L341.245 85.4507C337.473 85.4507 333.7 85.3639 329.928 85.3187L330.167 85.0956C330.167 86.6082 330.09 88.1297 330.056 89.6666L329.921 94.3584ZM329.921 94.3584L329.802 89.7786C329.802 88.233 329.712 86.6786 329.69 85.1077V84.8845H329.921C333.701 84.8429 337.472 84.7603 341.239 84.7526L352.526 84.6943H352.961V85.1077L352.918 94.3576V94.7292H346.804L341.109 94.6424L329.921 94.3584Z" fill="#EBEBEB"/>
<path opacity="0.38" d="M207.347 214.264L195.931 214.496L190.305 214.582C188.432 214.625 186.568 214.582 184.705 214.632L185.089 214.261L185.132 223.511L184.705 223.097L196.022 223.155C199.802 223.155 203.572 223.242 207.34 223.287L207.109 223.511C207.109 221.998 207.186 220.476 207.22 218.94L207.347 214.264ZM207.347 214.264L207.475 218.844C207.475 220.389 207.565 221.943 207.587 223.514V223.738H207.347C203.574 223.738 199.802 223.863 196.029 223.87L184.712 223.92H184.284V223.498L184.335 214.248V213.876H184.712C186.619 213.876 188.534 213.876 190.441 213.918L196.135 214.004L207.347 214.264Z" fill="#EBEBEB"/>
<path opacity="0.38" d="M194.718 202.6L183.302 202.832L177.676 202.919C175.803 202.919 173.939 202.919 172.075 202.969L172.46 202.597L172.503 211.847L172.075 211.435L183.393 211.493C187.165 211.493 190.943 211.58 194.71 211.625L194.48 211.847C194.48 210.335 194.548 208.814 194.591 207.276L194.718 202.6ZM194.718 202.6L194.837 207.18C194.88 208.726 194.94 210.28 194.948 211.851V212.075H194.709C190.936 212.116 187.158 212.198 183.391 212.207L172.074 212.255H171.646V211.843L171.697 202.593V202.221H172.116C174.023 202.221 175.938 202.221 177.845 202.263L183.539 202.349L194.718 202.6Z" fill="#EBEBEB"/>
</g>
<path d="M267.622 84.1177C241.042 84.1419 214.462 84.1692 187.882 84.1993C175.277 84.2132 162.671 84.1732 150.067 84.2392C148.503 84.1713 146.935 84.196 145.374 84.3129C140.006 85.0129 141.907 85.2551 140.164 88.3944C138.658 91.1036 138.143 93.9518 135.705 96.2017C135.598 96.3033 135.459 96.3682 135.311 96.3869C135.162 96.4056 135.011 96.3768 134.881 96.3051C130.15 93.0382 132.281 85.916 125.911 84.3573C122.969 83.6365 118.11 84.2835 115.154 84.2852L98.5076 84.2991C82.9298 84.3095 66.3154 85.7397 50.7771 83.772C38.3422 82.1976 38.3117 73.7858 38.2398 63.6859C38.1797 55.1586 35.3053 9.69109 44.1681 4.33155C47.3235 2.42116 50.8364 2.9092 54.4562 2.89879C65.5942 2.86492 76.7375 2.88487 87.8781 2.89268C110.244 2.91121 132.609 2.9532 154.975 3.01862C201.023 3.13845 247.087 3.59087 293.134 3.2496C299.284 3.20357 304.699 2.65734 309.359 7.37777C315.348 13.445 315.382 54.1522 315.216 61.9717C315.083 68.3489 315.113 75.8387 309.362 80.0918C302.805 84.9425 292.723 84.4536 284.962 84.4797C284.712 84.4693 284.476 84.366 284.303 84.1914C284.13 84.0168 284.033 83.7845 284.033 83.5427C284.033 83.3009 284.13 83.0686 284.303 82.894C284.476 82.7194 284.712 82.6162 284.962 82.6057C295.369 82.5832 309.67 83.2466 312.648 71.014C315.557 59.0705 314.607 6.10129 298.565 4.9594C277.718 3.47276 256.148 4.98545 235.23 4.92553C187.116 4.78573 139.002 4.53652 90.8862 4.4384C79.5088 4.41408 68.1289 4.3993 56.7467 4.39409C54.617 4.39409 52.4784 4.34199 50.3505 4.40973C41.6701 4.68152 39.6617 12.3865 39.6617 19.6678C39.6617 24.0912 39.7138 59.2651 39.7399 63.6867C39.7542 65.8916 39.6716 68.1155 39.7794 70.3211C40.2087 79.0664 45.0708 81.852 53.0191 82.5754C69.8419 84.108 87.2646 82.9288 104.12 82.9349C109.605 82.9349 115.091 82.8992 120.577 82.941C122.601 82.9566 126.562 82.3904 128.238 83.099C132.359 84.8357 132.564 97.1952 137.44 91.6524C139.05 89.8228 138.404 85.0198 140.323 83.5514C141.972 82.2906 145.263 82.9436 147.225 82.9566C160.31 83.0704 173.401 82.9566 186.487 82.961C213.533 82.961 240.578 82.9642 267.622 82.9705C267.781 82.9705 267.932 83.0312 268.044 83.1393C268.156 83.2476 268.219 83.3942 268.219 83.5471C268.219 83.7 268.156 83.8467 268.044 83.9548C267.932 84.063 267.781 84.1236 267.622 84.1236V84.1177Z" fill="#283CB1"/>
<path d="M294.547 0.969414C230.205 1.41835 165.704 2.05483 101.371 1.00498C101.311 1.00498 101.254 0.982141 101.212 0.941428C101.17 0.900717 101.146 0.845462 101.146 0.787887C101.146 0.73031 101.17 0.675109 101.212 0.634396C101.254 0.593684 101.311 0.570796 101.371 0.570796C165.704 -0.479055 230.205 0.155731 294.547 0.606412C294.597 0.606412 294.644 0.625434 294.679 0.659307C294.715 0.69318 294.734 0.739135 294.734 0.787039C294.734 0.834941 294.715 0.880896 294.679 0.914769C294.644 0.948642 294.597 0.967664 294.547 0.967664V0.969414Z" fill="#283CB1"/>
<path d="M97.4252 0.647123C91.4462 1.18629 85.4302 1.22293 79.4446 0.756569C79.3951 0.756569 79.3476 0.737547 79.3125 0.703674C79.2775 0.669802 79.2578 0.623845 79.2578 0.575943C79.2578 0.52804 79.2775 0.482084 79.3125 0.448211C79.3476 0.414338 79.3951 0.395317 79.4446 0.395317C85.4302 -0.0709223 91.4462 -0.0343341 97.4252 0.50471C97.4449 0.50471 97.4637 0.512263 97.4776 0.525698C97.4915 0.539134 97.4993 0.557366 97.4993 0.576367C97.4993 0.595367 97.4915 0.613601 97.4776 0.627035C97.4637 0.64047 97.4449 0.648024 97.4252 0.648024V0.647123Z" fill="#283CB1"/>
<path d="M156.29 270.562C142.158 279.732 125.308 283.133 108.944 280.118C92.5789 277.104 77.8397 267.884 67.5277 254.211C57.2156 240.539 52.0495 223.366 53.0111 205.957C53.9728 188.548 60.9953 172.117 72.7438 159.787C84.4923 147.456 100.148 140.086 116.735 139.076C133.322 138.067 149.684 143.489 162.712 154.312C175.739 165.135 184.524 180.604 187.396 197.779C190.268 214.954 187.028 232.639 178.29 247.472C172.761 256.853 165.229 264.759 156.29 270.562Z" fill="#A6A6A6"/>
<path d="M117.916 193.651C143.051 209.171 175.954 219.245 184.124 213.822C192.293 208.399 205.33 164.554 204.303 154.139C203.879 149.641 174.759 147.239 171.858 150.975C168.956 154.712 165.853 181.303 164.279 183.774C163.163 185.556 137.436 181.256 121.342 179.558C111.073 178.455 104.656 185.459 117.916 193.651Z" fill="#AD6359"/>
<path d="M203.979 160.075C204.973 155.576 208.444 132.312 207.953 126.279C207.462 120.247 204.95 102.992 200.519 102.851C196.089 102.71 196.434 107.865 196.434 107.865C196.434 107.865 194.269 100.755 189.794 101.095C185.318 101.434 186.122 109.295 186.122 109.295C186.122 109.295 183.387 102.17 178.945 102.828C174.502 103.486 176.589 111.333 176.589 111.333C176.589 111.333 174.357 104.691 170.942 106.858C166.801 109.458 172.191 121.219 172.236 127.944C172.236 129.466 170.305 158.787 170.305 158.787L203.979 160.075Z" fill="#AD6359"/>
<path d="M176.479 110.77C180.43 119.427 180.731 123.924 179.682 133.307C179.682 133.495 179.916 133.565 179.949 133.377C181.779 124.287 182.181 118.583 176.868 110.547C176.557 110.149 176.233 110.349 176.479 110.77Z" fill="#263238"/>
<path d="M185.798 108.755C189.146 118.126 189.515 123.011 189.146 132.921C189.145 132.939 189.147 132.957 189.153 132.973C189.159 132.99 189.167 133.005 189.179 133.018C189.19 133.031 189.204 133.042 189.22 133.049C189.235 133.056 189.252 133.06 189.269 133.06C189.286 133.06 189.303 133.056 189.318 133.049C189.334 133.042 189.348 133.031 189.359 133.018C189.371 133.005 189.38 132.99 189.385 132.973C189.391 132.957 189.393 132.939 189.392 132.921C190.564 123.236 190.843 117.529 186.322 108.626C186.066 108.216 185.642 108.298 185.798 108.755Z" fill="#263238"/>
<path d="M196.401 108.416C199.023 117.788 199.649 123.07 198.064 132.642C198.056 132.687 198.064 132.734 198.089 132.773C198.113 132.812 198.15 132.839 198.193 132.85C198.237 132.861 198.282 132.853 198.32 132.83C198.358 132.806 198.386 132.768 198.398 132.724C200.909 123.129 200.184 116.464 196.68 108.37C196.446 107.806 196.234 107.83 196.401 108.416Z" fill="#263238"/>
<path d="M169.536 164.855C169.536 164.855 162.762 155.155 160.686 150.201C158.609 145.245 157.337 123.812 161.723 123.259C167.407 122.544 170.463 134.762 171.21 140.958C171.21 140.958 184.347 139.295 188.354 147.576C192.36 155.858 169.536 164.855 169.536 164.855Z" fill="#AD6359"/>
<path d="M163.342 123.598C168.922 126.866 169.458 135.065 170.619 141.016C170.631 141.088 170.656 141.158 170.694 141.22C170.732 141.283 170.781 141.337 170.838 141.38C170.896 141.422 170.961 141.452 171.03 141.468C171.099 141.484 171.17 141.485 171.239 141.472C171.295 141.462 171.349 141.443 171.4 141.414C176.98 141.098 184.86 142.351 188.465 147.271C188.485 147.298 188.515 147.317 188.548 147.323C188.581 147.328 188.615 147.321 188.643 147.302C188.671 147.283 188.691 147.253 188.699 147.22C188.708 147.186 188.704 147.15 188.688 147.119C185.496 141.356 177.817 139.458 171.77 140.207C170.654 134.082 169.831 125.881 163.377 123.597C163.33 123.528 163.308 123.574 163.342 123.598Z" fill="#263238"/>
<path d="M156.835 217.053L163.699 181.91C163.699 181.91 137.56 177.377 121.521 177.645C105.482 177.914 100.181 184.405 120.317 197.033C132.092 204.477 144.287 211.163 156.835 217.053Z" fill="#FFC727"/>
<path d="M157.215 182.449C155.861 187.283 154.626 192.155 153.509 197.068C152.962 199.481 152.393 201.894 151.868 204.33C151.343 206.766 150.986 209.39 150.451 211.897C150.451 212.073 150.674 212.155 150.718 211.979C151.31 209.578 152.056 207.212 152.671 204.811C153.287 202.409 153.788 199.832 154.401 197.349C155.525 192.429 156.533 187.482 157.426 182.508C157.428 182.475 157.418 182.446 157.399 182.422C157.379 182.398 157.352 182.384 157.322 182.381C157.3 182.38 157.278 182.386 157.259 182.398C157.24 182.41 157.224 182.428 157.215 182.449Z" fill="#263238"/>
<path d="M151.011 273.572C146.725 275.849 142.216 277.63 137.562 278.879L136.602 279.136C136 279.3 135.374 279.441 134.772 279.581C125.339 281.731 115.576 281.731 106.144 279.581C105.228 279.371 104.313 279.136 103.409 278.879C97.9817 277.396 92.7542 275.2 87.8506 272.344C87.4661 272.14 87.0934 271.914 86.7346 271.665C86.1327 271.302 85.5309 270.914 84.915 270.493C82.4093 268.864 80.0082 267.064 77.7272 265.104C77.4483 264.893 77.1802 264.659 76.9127 264.413C74.6238 262.389 72.465 260.209 70.4504 257.885L69.8486 257.195C68.71 255.844 67.62 254.45 66.5786 253.012C66.7572 252.24 66.9471 251.469 67.1256 250.67C67.1925 250.447 67.2373 250.213 67.2928 249.99C67.8171 247.858 68.4088 245.692 68.9645 243.454C69.02 243.219 69.0983 242.997 69.1544 242.752C69.7349 240.632 70.3487 238.441 71.0268 236.251C71.0804 236.013 71.1474 235.779 71.2274 235.549C71.8861 233.406 72.5782 231.214 73.3144 229.013C73.3813 228.803 73.4709 228.568 73.5485 228.333C74.284 226.178 75.0444 224 75.8588 221.807C75.9371 221.596 76.0153 221.373 76.1042 221.15C76.9187 218.974 77.7894 216.816 78.6934 214.637C78.7831 214.392 78.8834 214.169 78.9837 213.936C79.9098 211.745 80.8808 209.578 81.8965 207.408C81.9861 207.198 82.0864 206.975 82.1867 206.777C83.2281 204.574 84.3181 202.399 85.4567 200.25C85.5019 200.144 85.5542 200.043 85.6132 199.946L85.8365 199.536C87.0194 197.333 88.2585 195.155 89.5645 193.034C89.6982 192.8 89.8434 192.566 89.9885 192.333C91.3613 190.108 92.8124 187.928 94.319 185.82C94.4251 185.645 94.5405 185.477 94.6647 185.315L94.8098 185.129C96.1378 183.278 97.5334 181.462 98.9731 179.727C99.319 179.311 99.6919 178.92 100.089 178.556L100.256 178.416C100.457 178.252 100.647 178.099 100.87 177.947C100.907 177.914 100.948 177.885 100.993 177.865C107.824 173.086 120.838 175.006 122.501 177.549C122.575 177.649 122.642 177.754 122.701 177.865L122.925 178.205C124.302 180.422 125.554 182.722 126.675 185.093C127.791 187.318 128.795 189.778 129.822 192.297C130.748 194.581 131.642 196.982 132.523 199.477C132.547 199.605 132.589 199.727 132.646 199.841C132.699 199.953 132.74 200.071 132.769 200.192C133.595 202.535 134.399 204.877 135.191 207.384C135.86 209.527 136.542 211.707 137.178 213.911C137.245 214.157 137.323 214.368 137.39 214.613C138.059 216.874 138.718 219.17 139.343 221.465C139.366 221.584 139.396 221.701 139.433 221.816C140.047 223.992 140.616 226.173 141.185 228.344C141.202 228.536 141.247 228.725 141.319 228.905C141.899 231.142 142.435 233.368 142.982 235.558L143.16 236.26C143.695 238.451 144.209 240.629 144.698 242.761V242.948C144.698 243.006 144.776 243.288 144.81 243.463C145.323 245.689 145.814 247.868 146.281 250C146.816 252.483 147.33 254.897 147.799 257.204C147.854 257.451 147.899 257.674 147.944 257.896C148.424 260.239 148.88 262.488 149.295 264.62C149.281 264.789 149.312 264.959 149.384 265.111C149.864 267.606 150.288 269.914 150.655 271.989C150.645 272.102 150.664 272.215 150.71 272.317L151.011 273.572Z" fill="#FFC727"/>
<path opacity="0.1" d="M103.406 278.879C104.31 279.136 105.226 279.37 106.14 279.581H134.769C135.371 279.441 135.997 279.3 136.599 279.136L137.559 278.878L103.406 278.879ZM150.808 272.014C150.792 271.895 150.766 271.778 150.729 271.663H86.6867C87.0772 271.91 87.457 272.132 87.8027 272.342H150.809L150.808 272.014ZM149.446 264.645C149.424 264.581 149.405 264.514 149.39 264.446H76.8648C77.1323 264.691 77.3998 264.925 77.6793 265.137H149.48C149.446 264.973 149.413 264.809 149.39 264.646L149.446 264.645ZM147.95 257.23H69.8221L70.4239 257.922H148.06C147.991 257.695 147.935 257.464 147.893 257.23H147.95ZM65.6333 257.23C65.6233 257.349 65.6009 257.467 65.5665 257.581C65.5551 257.459 65.5826 257.335 65.6447 257.23H65.6333ZM146.34 250.026H67.2329C67.2073 250.258 67.1547 250.486 67.0764 250.705H146.511L146.34 250.026ZM144.755 242.998V242.81H69.1079C69.0524 243.056 68.9742 243.279 68.918 243.512H144.915C144.87 243.325 144.837 243.161 144.792 242.973L144.755 242.998ZM142.992 235.582H71.1949C71.1109 235.812 71.0401 236.046 70.9829 236.285H143.207L142.992 235.582ZM141.329 228.93C141.273 228.742 141.239 228.566 141.195 228.367H73.5166C73.4384 228.602 73.3495 228.837 73.2712 229.048H141.354C141.353 229.007 141.357 228.968 141.366 228.93H141.329ZM139.353 221.49L139.253 221.15H76.0951C76.0062 221.373 75.928 221.595 75.8384 221.807H139.457C139.429 221.702 139.407 221.596 139.39 221.49H139.353ZM137.191 213.938H78.9739C78.8736 214.172 78.7733 214.394 78.6837 214.639H137.414C137.381 214.397 137.318 214.161 137.224 213.938H137.191ZM134.961 206.733H82.2004C82.1001 206.931 81.9998 207.154 81.9102 207.364H135.26C135.163 207.158 135.077 206.948 135.004 206.733H134.961ZM132.65 199.854C132.628 199.727 132.586 199.605 132.527 199.492H85.8521L85.6402 199.901C85.5812 199.998 85.529 200.1 85.4837 200.206H132.818C132.789 200.085 132.748 199.967 132.695 199.854H132.65ZM129.826 192.31H89.9907C89.857 192.544 89.7119 192.779 89.5895 193.012H130.126C130.048 192.767 129.948 192.532 129.869 192.31H129.826ZM126.669 185.085H94.8388L94.6937 185.271C94.5695 185.433 94.4541 185.601 94.348 185.775H127.023C126.912 185.541 126.811 185.307 126.711 185.085H126.669ZM122.919 178.197L122.696 177.857H101.018C100.973 177.877 100.931 177.904 100.895 177.939C100.671 178.091 100.481 178.243 100.281 178.407L100.113 178.548H123.172C123.093 178.437 123.022 178.319 122.96 178.197H122.919Z" fill="black"/>
<path d="M121.243 196.342C115.975 197.337 107.468 188.493 104.278 181.533C104.066 181.064 104.992 176.215 105.841 170.264C106.355 166.656 106.834 162.614 107.024 158.901L128.933 165.801C127.43 170.373 126.466 175.122 126.064 179.94C126.05 180.453 126.076 180.967 126.143 181.474C126.149 181.556 126.149 181.638 126.143 181.72C126.466 184.653 126.332 195.37 121.243 196.342Z" fill="#AD6359"/>
<path d="M126.174 181.723V182.262C112.859 179.31 108.752 172.234 106.397 165.721C106.664 163.437 106.888 161.117 106.989 158.904L128.898 165.791C127.396 170.367 126.436 175.119 126.041 179.941C126.015 180.455 126.042 180.97 126.119 181.477C126.128 181.561 126.147 181.643 126.174 181.723Z" fill="#263238"/>
<path d="M102 132.3C99.5561 140.559 103.618 164.48 109.21 169.786C117.301 177.54 130.608 178.337 136.901 168.122C143.006 158.213 137.18 127.124 130.941 122.274C121.79 115.14 105.608 120.094 102 132.3Z" fill="#AD6359"/>
<path d="M120.673 147.413C120.673 147.413 120.561 147.518 120.572 147.577C120.885 149.182 120.996 151.091 119.69 151.864V151.947C121.42 151.337 121.253 148.816 120.673 147.413Z" fill="#263238"/>
<path d="M119.066 145.925C116.555 146.171 117.224 151.407 119.546 151.173C121.868 150.94 121.164 145.713 119.066 145.925Z" fill="#263238"/>
<path d="M130.272 145.869C130.272 145.799 130.405 145.869 130.417 145.986C130.573 147.614 131.009 149.5 132.482 149.804V149.886C130.718 149.869 130.171 147.413 130.272 145.869Z" fill="#263238"/>
<path d="M131.444 143.979C133.899 143.429 134.792 148.664 132.481 149.134C130.171 149.602 129.379 144.437 131.444 143.979Z" fill="#263238"/>
<path d="M116.788 143.804C117.419 143.512 118.033 143.184 118.63 142.822C119.325 142.569 119.921 142.083 120.326 141.439C120.407 141.211 120.419 140.962 120.359 140.727C120.299 140.493 120.171 140.282 119.992 140.128C119.58 139.887 119.113 139.768 118.642 139.783C118.17 139.797 117.711 139.944 117.313 140.21C116.433 140.613 115.725 141.343 115.326 142.26C115.237 142.475 115.212 142.713 115.253 142.943C115.295 143.174 115.401 143.386 115.558 143.552C115.716 143.719 115.918 143.832 116.137 143.877C116.356 143.921 116.583 143.896 116.789 143.803L116.788 143.804Z" fill="#263238"/>
<path d="M133.042 141.063C132.353 141.018 131.667 140.933 130.988 140.805C130.252 140.827 129.531 140.583 128.946 140.114C128.794 139.928 128.702 139.697 128.682 139.453C128.662 139.209 128.715 138.966 128.834 138.755C129.143 138.384 129.541 138.107 129.986 137.953C130.432 137.798 130.909 137.772 131.368 137.876C132.324 137.925 133.229 138.343 133.911 139.048C134.079 139.215 134.192 139.434 134.237 139.672C134.281 139.911 134.253 140.158 134.158 140.38C134.062 140.601 133.904 140.785 133.704 140.908C133.504 141.03 133.272 141.085 133.042 141.063Z" fill="#263238"/>
<path d="M122.403 162.392C122.827 162.709 123.262 163.188 123.821 163.154C124.397 163.067 124.949 162.851 125.439 162.522L122.403 162.392ZM125.517 162.592C125.34 162.947 125.073 163.243 124.746 163.45C124.42 163.655 124.045 163.765 123.664 163.764C123.339 163.724 123.032 163.584 122.784 163.36C122.535 163.137 122.356 162.841 122.269 162.51C122.258 162.491 122.255 162.469 122.258 162.447C122.262 162.426 122.272 162.406 122.289 162.391C122.305 162.377 122.325 162.37 122.346 162.37C122.367 162.37 122.387 162.378 122.403 162.392L125.517 162.592Z" fill="#263238"/>
<path d="M123.306 157.111C123.779 157.697 124.362 158.174 125.019 158.512C125.676 158.851 126.392 159.042 127.123 159.077C127.764 159.117 128.408 159.059 129.032 158.901C129.154 158.882 129.273 158.851 129.389 158.807L129.713 158.701C129.792 158.674 129.861 158.62 129.909 158.549C129.957 158.478 129.982 158.392 129.98 158.304C129.988 158.249 129.988 158.195 129.98 158.14V158C129.846 156.746 129.489 154.872 129.489 154.872C129.957 155.036 132.302 155.773 132.19 155.129C131.196 149.764 130.092 143.814 128.027 138.73C128.015 138.693 127.99 138.663 127.957 138.645C127.924 138.628 127.886 138.623 127.851 138.634C127.815 138.644 127.785 138.668 127.766 138.701C127.747 138.735 127.74 138.774 127.748 138.812C128.507 144.002 130.137 149.015 130.974 154.217C130.139 153.943 129.271 153.793 128.397 153.773C128.229 153.843 129.144 157.404 129.156 157.966C129.162 157.985 129.162 158.005 129.156 158.024C127.191 158.575 125.606 158.154 123.486 157.017C123.295 156.865 123.195 156.995 123.306 157.111Z" fill="#263238"/>
<path d="M128.097 158.435C127.591 159.336 126.872 160.086 126.01 160.611C125.531 160.878 124.985 160.981 124.447 160.904C123.264 160.74 123.11 159.65 123.208 158.678C123.273 158.167 123.389 157.664 123.554 157.179C124.9 158.1 126.493 158.54 128.097 158.435Z" fill="#263238"/>
<path d="M126.008 160.614C125.529 160.881 124.983 160.983 124.445 160.906C123.262 160.742 123.108 159.653 123.206 158.681C123.812 158.626 124.418 158.788 124.926 159.139C125.434 159.489 125.815 160.008 126.008 160.614Z" fill="#FF9CBD"/>
<path opacity="0.2" d="M102.045 148.704C103.474 147.813 105.896 142.471 106.968 140.282C108.039 138.092 107.202 127.911 106.867 124.901C104.594 126.859 102.905 129.462 102.001 132.398C100.951 135.827 101.096 142.235 102.045 148.704Z" fill="#263238"/>
<path d="M126.332 130.848C125.634 131.976 124.672 132.897 123.539 133.525C122.406 134.152 121.139 134.465 119.858 134.433C118.554 134.402 117.279 134.021 116.154 133.328C115.029 132.636 114.091 131.652 113.429 130.474C113.429 130.404 113.284 130.474 113.318 130.474C113.91 131.778 114.829 132.89 115.977 133.688C117.126 134.487 118.459 134.943 119.835 135.006C121.198 135.001 122.535 134.618 123.711 133.896C124.887 133.174 125.86 132.139 126.532 130.895C126.544 130.848 126.399 130.744 126.332 130.848Z" fill="#263238"/>
<path d="M116.206 112.622C111.897 113.313 108.248 116.358 107.053 119.65C106.386 121.533 106.35 123.6 106.953 125.507C106.953 125.59 107.131 125.507 107.109 125.507C106.807 123.798 106.949 122.033 107.521 120.401C108.092 118.768 109.072 117.328 110.357 116.23C111.752 114.957 113.41 114.042 115.2 113.559C116.99 113.075 118.863 113.035 120.67 113.442C122.431 113.803 124.013 114.807 125.134 116.277C125.234 116.429 125.547 116.277 125.458 116.124C123.92 113.441 120.125 112.003 116.206 112.622Z" fill="#263238"/>
<path d="M142.504 119.017C141.517 116.88 139.846 115.176 137.783 114.203C134.925 112.844 131.965 113.511 129.032 114.203C129.024 114.206 129.017 114.211 129.011 114.218C129.004 114.225 129 114.233 128.996 114.241C128.993 114.25 128.992 114.259 128.992 114.268C128.992 114.278 128.994 114.287 128.997 114.295C129.004 114.311 129.017 114.325 129.032 114.332C131.521 113.734 134.088 113.266 136.566 114.203C138.617 114.958 140.356 116.436 141.488 118.385C142.588 120.396 142.96 122.757 142.535 125.034C142.111 127.31 140.919 129.35 139.178 130.778C138.157 131.575 136.992 132.144 135.754 132.451C134.515 132.757 133.231 132.794 131.978 132.559C131.878 132.559 131.833 132.688 131.978 132.712C134.238 133.205 136.593 132.819 138.6 131.621C140.608 130.425 142.13 128.501 142.883 126.21C143.604 123.845 143.469 121.283 142.504 119.017Z" fill="#263238"/>
<path d="M101.252 137.138C101.252 137.138 96.1849 129.571 99.0202 124.428C100.65 121.524 107.134 121.02 107.134 121.02C108.53 118.107 110.971 115.895 113.92 114.869C119.166 112.866 125.963 115.326 125.963 115.326C125.963 115.326 130.717 111.578 135.851 113.827C143.017 116.955 143.463 127.755 137.146 132.074C132.682 135.109 125.761 131.571 125.761 131.571C125.16 131.735 119.311 136.561 113.83 131.278C113.83 131.278 110.381 135.414 106.586 133.328C106.172 134.457 105.439 135.427 104.486 136.107C103.533 136.788 102.405 137.147 101.252 137.138Z" fill="#263238"/>
<path d="M106.789 151.793C106.789 151.793 101.52 144.155 98.2031 146.138C94.8864 148.119 98.9387 159.257 102.88 160.721C103.36 160.941 103.876 161.058 104.399 161.068C104.922 161.077 105.442 160.979 105.929 160.778C106.416 160.577 106.86 160.277 107.237 159.895C107.613 159.515 107.915 159.059 108.123 158.555C108.148 158.497 108.171 158.439 108.19 158.378L106.789 151.793Z" fill="#AD6359"/>
<path d="M99.4655 149.299C99.4507 149.299 99.4365 149.305 99.426 149.315C99.4156 149.326 99.4097 149.341 99.4097 149.357C99.4097 149.372 99.4156 149.388 99.426 149.398C99.4365 149.409 99.4507 149.415 99.4655 149.415C102.233 150.586 103.729 153.187 104.778 155.943C104.626 155.68 104.426 155.45 104.19 155.268C103.953 155.086 103.685 154.956 103.4 154.882C103.115 154.809 102.819 154.795 102.53 154.843C102.24 154.889 101.962 154.995 101.711 155.155C101.612 155.217 101.518 155.289 101.429 155.366C101.418 155.38 101.411 155.398 101.409 155.416C101.408 155.435 101.411 155.453 101.42 155.469C101.428 155.486 101.441 155.499 101.457 155.507C101.472 155.517 101.49 155.52 101.508 155.518C101.988 155.347 102.508 155.337 102.994 155.491C103.48 155.644 103.908 155.952 104.22 156.373C104.736 157.079 105.181 157.842 105.548 158.646C105.682 158.902 106.117 158.75 106.028 158.458C106.024 158.435 106.024 158.411 106.028 158.388C106.017 154.711 103.216 149.603 99.4655 149.299Z" fill="#263238"/>
<path d="M89.9327 184.268C66.0815 207.543 35.2431 257.375 40.176 267.987C45.6674 279.807 78.8831 247.16 78.8383 245.169C78.8383 243.658 91.2828 216.176 100.692 193.967C110.101 171.756 95.8279 178.512 89.9327 184.268Z" fill="#AD6359"/>
<path d="M40.1788 267.986C45.0001 275.939 58.9405 278.048 93.5631 286.799C98.351 287.97 115.606 254.831 110.548 253.261C104.186 251.281 79.0737 245.062 77.1873 244.839C61.2401 243.046 36.8975 262.585 40.1788 267.986Z" fill="#AD6359"/>
<path d="M99.0532 251.949C99.0532 251.949 113.105 251.773 120.518 254.092C130.441 257.184 137.796 264.143 140.709 267.247C146.794 273.748 157.226 293.862 152.228 298.019C147.763 301.791 138.042 280.659 138.042 280.659C138.042 280.659 151.282 300.503 145.04 303.983C138.797 307.463 128.901 282.277 128.901 282.277C128.901 282.277 142.082 302.976 135.106 305.506C129.827 307.416 119.636 285.125 119.636 285.125C119.636 285.125 130.853 302.999 125.507 305.202C119.603 307.65 108.966 287.69 108.966 287.69C94.4552 290.911 86.3426 286.226 80.9181 282.172C79.6108 281.185 99.0532 251.949 99.0532 251.949Z" fill="#AD6359"/>
<path d="M133.876 273.502C135.582 275.75 137.166 278.096 138.62 280.53C140.015 283.003 141.411 285.415 142.638 287.958C144.284 291.256 145.572 294.736 146.478 298.336C144.436 292.069 139.413 283.343 137.974 280.918C136.534 278.492 135.217 276.021 133.788 273.608C133.742 273.491 133.832 273.444 133.876 273.502Z" fill="#263238"/>
<path d="M125.46 278.785C127.436 281.785 129.501 284.642 131.345 287.769C133.189 290.896 134.693 293.919 136.289 297.141C136.423 297.387 136.289 297.375 136.111 297.141C134.372 294.013 132.517 291.284 130.731 288.157C128.945 285.031 127.282 281.879 125.396 278.856C125.36 278.785 125.437 278.751 125.46 278.785Z" fill="#263238"/>
<path d="M117.469 281.971C120.598 286.49 123.276 291.335 125.461 296.429C125.572 296.676 125.36 296.64 125.227 296.429C122.66 291.497 120.673 287.702 117.325 282.126C117.324 282.007 117.402 281.877 117.469 281.971Z" fill="#263238"/>
<path d="M57.5002 249.875C63.7583 245.57 71.3049 243.827 78.7066 244.978C78.7963 244.978 78.7963 245.153 78.7066 245.142C71.0387 244.568 60.514 248.316 57.5002 250.015C57.4781 250.062 57.4219 249.933 57.5002 249.875Z" fill="#263238"/>
<path d="M55.7031 216.956L85.3473 234.738C85.3473 234.738 97.6246 210.08 102.346 193.996C107.067 177.913 102.87 170.568 85.1687 186.767C74.7724 196.193 64.9323 206.275 55.7031 216.956Z" fill="#FFC727"/>
<path d="M86.9215 228.133C82.9628 225.276 78.9372 222.542 74.8448 219.934C72.8246 218.633 70.8159 217.298 68.773 216.033C66.7301 214.767 64.4759 213.573 62.3662 212.272C62.221 212.178 62.0646 212.401 62.2097 212.506C64.1964 213.84 66.1049 215.329 68.0942 216.677C70.0836 218.024 72.2348 219.383 74.3132 220.73C78.4203 223.393 82.5834 225.943 86.8025 228.379C86.9215 228.391 87.0445 228.239 86.9215 228.133Z" fill="#263238"/>
<path d="M84.0967 233.991C84.5434 234.202 84.9787 234.401 85.414 234.622L85.2241 234.681C86.0613 232.408 87.0102 230.206 87.925 227.981C88.8398 225.755 89.8642 223.6 90.894 221.432C91.9238 219.265 92.959 217.109 94.0864 214.99C95.2138 212.87 96.3185 210.75 97.5576 208.688C96.7652 210.972 95.8611 213.197 94.9236 215.411C93.9861 217.625 93.0151 219.816 92.0107 222.009C91.0064 224.202 89.9572 226.331 88.8745 228.474C87.7919 230.617 86.6424 232.738 85.5264 234.812L85.4481 234.941L85.3365 234.871C84.8791 234.589 84.4872 234.285 84.0967 233.991Z" fill="#263238"/>
<path d="M98.1376 213.012C96.8935 215.126 95.1821 216.893 93.1484 218.166C93.7661 217.101 94.5168 216.127 95.3806 215.272C96.203 214.397 97.1296 213.637 98.1376 213.012Z" fill="#263238"/>
<path d="M44.6887 237.104C43.9577 239.899 43.4764 242.758 43.251 245.646C43.3246 245.787 43.3045 246.348 43.251 246.172C43.251 246.643 42.5823 246.558 42.5823 246.096V245.197C40.9908 243.126 38.6838 241.814 36.8181 240.011C35.3127 238.599 34.2185 236.769 33.6619 234.733C32.1105 229.118 33.5616 223.202 31.7026 217.615C30.0977 212.801 27.2156 208.61 24.7815 204.28C22.207 199.663 20.3079 194.813 20.1006 189.408C19.9468 185.275 20.4216 179.758 23.4441 176.657C26.6271 173.365 30.5725 175.835 33.0065 178.762C40.0747 187.275 43.3446 198.028 44.6687 209.032C45.3975 215.116 46.1532 221.244 46.0061 227.385C45.875 230.663 45.4337 233.919 44.6887 237.104Z" fill="#FFC727"/>
<path d="M43.2776 247.878C43.6648 242.135 43.5999 236.367 43.0837 230.634C43.0897 230.614 43.0897 230.591 43.0837 230.571C43.1773 225.911 43.525 221.264 43.3512 216.598C43.1493 211.552 42.5092 206.536 41.4387 201.613C41.4387 201.557 41.3384 201.572 41.3518 201.613C42.217 206.451 42.7333 211.349 42.8965 216.268C42.9901 218.906 42.97 221.54 42.8363 224.171C42.7961 225.027 42.7159 225.889 42.6624 226.753C40.8148 213.666 36.3085 201.148 29.4489 190.047C29.3553 189.9 29.1012 190.047 29.1881 190.216C34.0902 198.652 37.7195 207.833 39.9475 217.433C36.5371 210.828 31.4082 205.396 27.5966 199.045C27.5966 199.01 27.5164 199.045 27.5364 199.045C30.9535 206.119 36.6107 211.677 40.2417 218.654C40.8703 221.499 41.3763 224.362 41.7597 227.245C42.271 231.199 42.5457 235.184 42.5822 239.175C40.5092 235.119 38.3627 231.231 36.6709 226.936C36.6241 226.823 36.4703 226.936 36.5037 227.013C37.9481 231.476 39.8806 236.284 42.5955 240.088C42.5955 242.895 42.5198 245.719 42.3682 248.559C41.9469 256.083 40.7232 263.515 40.1548 271.018C40.1563 271.059 40.1719 271.099 40.1988 271.129C40.2257 271.16 40.2621 271.179 40.3015 271.184C40.341 271.19 40.3808 271.179 40.414 271.157C40.4472 271.134 40.4714 271.1 40.4824 271.059C41.9136 263.408 42.8475 255.663 43.2776 247.878Z" fill="#263238"/>
<path d="M35.6605 189.816C35.6605 189.759 35.5602 189.816 35.5803 189.851C36.9177 193.655 37.6332 197.508 38.5761 201.41C38.5863 201.444 38.6079 201.473 38.6369 201.491C38.6658 201.51 38.7001 201.517 38.7335 201.511C38.7669 201.505 38.7971 201.486 38.8185 201.459C38.84 201.431 38.8512 201.397 38.8502 201.361C38.4624 197.409 37.1183 193.459 35.6605 189.816Z" fill="#263238"/>
<path d="M68.9353 205.754C68.0601 207.985 67.0528 210.155 65.9195 212.253C63.559 216.752 61.0981 220.872 60.6568 226.107C60.4562 228.445 60.3826 230.796 59.7072 233.048C59.0854 234.984 58.1978 236.814 57.0726 238.48C54.5114 242.389 51.3151 245.758 48.9479 249.815C46.4829 254.046 44.6622 258.653 43.5515 263.472C43.4913 263.739 43.0967 263.669 43.1569 263.402V263.29C42.7824 252.061 43.6384 240.747 46.9016 229.988C48.3408 225.258 50.0719 220.63 52.0841 216.134C53.8361 212.24 56.0093 208.484 59.0787 205.572C61.0848 203.691 65.3912 200.126 68.2265 202.014C69.5706 202.919 69.4703 204.351 68.9353 205.754Z" fill="#FFC727"/>
<path d="M58.1564 231.21C56.2712 234.468 54.1942 237.6 51.9375 240.587C50.901 241.99 49.8512 243.393 48.8214 244.832C48.3332 245.534 47.7849 246.172 47.3368 246.895C47.6177 245.717 47.8919 244.53 48.1794 243.352C49.5569 237.68 50.8542 231.96 52.9405 226.508C55.0497 221.227 57.5331 216.12 60.3698 211.229C60.4434 211.096 60.2427 211.005 60.1692 211.131C57.909 215.032 55.6153 218.928 53.7162 223.062C52.6651 225.357 51.7495 227.716 50.9746 230.129C51.845 225.01 53.0651 219.961 54.6257 215.026C54.6257 215.022 54.6248 215.017 54.6231 215.012C54.6214 215.009 54.619 215.004 54.6159 215.001C54.6128 214.998 54.6091 214.995 54.605 214.993C54.601 214.992 54.5966 214.991 54.5922 214.991C54.5878 214.991 54.5835 214.992 54.5794 214.993C54.5754 214.995 54.5717 214.998 54.5686 215.001C54.5655 215.004 54.563 215.009 54.5613 215.012C54.5597 215.017 54.5588 215.022 54.5588 215.026C52.5318 220.003 51.2636 225.285 50.8007 230.676C50.3549 232.132 49.9247 233.603 49.5101 235.092C47.825 241.407 46.3472 247.724 44.9763 254.09C44.9511 249.903 45.2958 245.724 46.0061 241.604C46.0061 241.506 45.8925 241.485 45.8657 241.604C44.8231 245.899 44.475 250.348 44.8359 254.763C44.3143 257.191 43.8083 259.617 43.318 262.041C42.2681 267.214 40.9775 272.484 40.3623 277.741C40.3629 277.766 40.3715 277.789 40.3867 277.807C40.4018 277.826 40.4227 277.838 40.4455 277.842C40.4684 277.846 40.492 277.842 40.5121 277.83C40.5323 277.818 40.5479 277.799 40.5562 277.776C41.2918 274.969 41.7331 272.007 42.335 269.137C42.9368 266.266 43.5587 263.388 44.194 260.519C45.1234 256.342 46.0997 252.173 47.0894 248.012C47.7581 246.489 49.0353 245.134 49.9916 243.85C51.0481 242.447 52.098 241.042 53.1211 239.639C55.0482 237 56.7701 234.202 58.2701 231.273C58.3102 231.189 58.2166 231.147 58.1564 231.21Z" fill="#263238"/>
<path d="M58.6374 226.409C56.2838 229.563 54.2448 232.96 52.5522 236.55C52.5522 236.599 52.5991 236.649 52.6258 236.6C54.6787 233.231 56.6915 229.841 58.731 226.472C58.7712 226.409 58.6775 226.353 58.6374 226.409Z" fill="#263238"/>
<path d="M13.0989 216.401C14.4831 218.906 16.068 221.917 15.4728 224.921C15.0917 226.83 13.7676 228.374 13.5269 230.318C12.9919 234.606 17.0643 237.442 20.0066 239.442C27.3623 244.495 37.4262 249.008 38.7636 259.339C38.8171 259.704 39.4323 259.612 39.3721 259.254C39.3755 259.231 39.3755 259.208 39.3721 259.184C39.3721 259.184 39.4123 259.184 39.4123 259.121C40.3702 253.906 40.3179 248.543 39.2585 243.351C38.1618 238.031 35.9484 233.244 33.3338 228.571C28.9137 220.654 24.2328 212.548 17.5458 206.484C15.7002 204.807 11.9087 201.789 10.4375 205.579C9.00651 209.277 11.4004 213.348 13.0989 216.401Z" fill="#FFC727"/>
<path d="M19.8193 233.181C24.6941 238.719 32.4376 241.821 36.6304 248.019C34.2884 238.584 29.8625 229.861 23.7111 222.556C23.5506 222.36 23.8047 222.093 23.9786 222.268C28.4627 226.842 32.0498 232.292 34.5374 238.313C33.3758 234.11 31.8539 230.027 29.9902 226.114C29.9233 225.966 30.1239 225.833 30.2042 225.981C32.5145 230.253 34.1687 234.882 35.1058 239.694C40.6292 253.732 41.1241 270.196 39.9806 284.983C39.9806 285.194 39.6596 285.201 39.6663 284.983C39.9806 273.326 39.8 261.465 37.1386 250.082C37.0851 249.843 37.0249 249.611 36.9647 249.38C32.4042 242.705 24.6941 239.61 19.739 233.28C19.6922 233.21 19.7658 233.118 19.8193 233.181Z" fill="#263238"/>
<path d="M18.7028 228.431C21.2572 230.893 23.7715 233.406 26.3327 235.87C26.3327 235.87 26.3327 235.94 26.2992 235.919C23.4011 233.876 20.7901 231.417 18.5423 228.613C18.5203 228.59 18.5076 228.559 18.5069 228.527C18.5061 228.495 18.5174 228.464 18.5382 228.44C18.5591 228.416 18.5879 228.402 18.6187 228.4C18.6494 228.399 18.6796 228.409 18.7028 228.431Z" fill="#263238"/>
<path d="M18.2882 217.762C20.5495 221.656 23.1079 225.351 25.9381 228.81C25.9782 228.852 25.9381 228.915 25.8712 228.873C22.6982 225.705 20.0855 221.972 18.1545 217.847C18.1482 217.825 18.1502 217.803 18.1601 217.783C18.17 217.764 18.187 217.748 18.2073 217.742C18.2213 217.737 18.2363 217.736 18.2506 217.74C18.2649 217.743 18.2779 217.752 18.2882 217.762Z" fill="#263238"/>
<path d="M29.7969 295.42H52.1916L49.1758 263.796H33.2474L29.7969 295.42Z" fill="#455A64"/>
<path d="M32.6851 268.94H49.67L49.1752 263.796H33.2468L32.6851 268.94Z" fill="#263238"/>
<path d="M60.918 41H59.8813V37.3853H55.939V41H54.9077V33.1797H55.939V36.542H59.8813V33.1797H60.918V41ZM65.0054 41.1074C64.2176 41.1074 63.5767 40.8496 63.0825 40.334C62.5884 39.8148 62.3413 39.1219 62.3413 38.2554V38.0728C62.3413 37.4963 62.4505 36.9824 62.6689 36.5312C62.891 36.0765 63.1989 35.722 63.5928 35.4678C63.9902 35.21 64.4199 35.0811 64.8818 35.0811C65.6374 35.0811 66.2246 35.3299 66.6436 35.8276C67.0625 36.3254 67.272 37.0379 67.272 37.9653V38.3789H63.335C63.3493 38.9518 63.5158 39.4155 63.8345 39.77C64.1567 40.1209 64.5649 40.2964 65.0591 40.2964C65.41 40.2964 65.7072 40.2248 65.9507 40.0815C66.1942 39.9383 66.4072 39.7485 66.5898 39.5122L67.1968 39.9849C66.7098 40.7332 65.9793 41.1074 65.0054 41.1074ZM64.8818 35.8975C64.4808 35.8975 64.1442 36.0443 63.8721 36.3379C63.5999 36.6279 63.4316 37.0361 63.3672 37.5625H66.2783V37.4873C66.2497 36.9824 66.1136 36.5921 65.8701 36.3164C65.6266 36.0371 65.2972 35.8975 64.8818 35.8975ZM69.5063 41H68.5127V32.75H69.5063V41ZM72.1812 41H71.1875V32.75H72.1812V41ZM73.5132 38.0405C73.5132 37.4712 73.6242 36.9591 73.8462 36.5044C74.0718 36.0496 74.3833 35.6987 74.7808 35.4517C75.1818 35.2046 75.6383 35.0811 76.1504 35.0811C76.9417 35.0811 77.5809 35.355 78.0679 35.9028C78.5584 36.4507 78.8037 37.1794 78.8037 38.0889V38.1587C78.8037 38.7244 78.6945 39.2329 78.4761 39.6841C78.2612 40.1317 77.9515 40.4808 77.5469 40.7314C77.1458 40.9821 76.6839 41.1074 76.1611 41.1074C75.3734 41.1074 74.7342 40.8335 74.2437 40.2856C73.7567 39.7378 73.5132 39.0127 73.5132 38.1104V38.0405ZM74.5122 38.1587C74.5122 38.8032 74.6608 39.3206 74.958 39.7109C75.2588 40.1012 75.6598 40.2964 76.1611 40.2964C76.666 40.2964 77.0671 40.0994 77.3643 39.7056C77.6615 39.3081 77.8101 38.7531 77.8101 38.0405C77.8101 37.4032 77.6579 36.8875 77.3535 36.4937C77.0527 36.0962 76.6517 35.8975 76.1504 35.8975C75.6598 35.8975 75.2642 36.0926 74.9634 36.4829C74.6626 36.8732 74.5122 37.4318 74.5122 38.1587ZM81.1616 38.7925H80.2646L80.1948 33.1797H81.2368L81.1616 38.7925ZM80.1572 40.5005C80.1572 40.3394 80.2056 40.2051 80.3022 40.0977C80.4025 39.9867 80.5493 39.9312 80.7427 39.9312C80.936 39.9312 81.0828 39.9867 81.1831 40.0977C81.2834 40.2051 81.3335 40.3394 81.3335 40.5005C81.3335 40.6616 81.2834 40.7959 81.1831 40.9033C81.0828 41.0072 80.936 41.0591 80.7427 41.0591C80.5493 41.0591 80.4025 41.0072 80.3022 40.9033C80.2056 40.7959 80.1572 40.6616 80.1572 40.5005ZM90.9585 34.0283H88.4448V41H87.4189V34.0283H84.9106V33.1797H90.9585V34.0283ZM92.9565 35.8921C93.397 35.3514 93.9699 35.0811 94.6753 35.0811C95.9035 35.0811 96.5229 35.7739 96.5337 37.1597V41H95.54V37.1543C95.5365 36.7354 95.4398 36.4256 95.25 36.2251C95.0638 36.0246 94.772 35.9243 94.3745 35.9243C94.0522 35.9243 93.7694 36.0103 93.5259 36.1821C93.2824 36.354 93.0926 36.5796 92.9565 36.8589V41H91.9629V32.75H92.9565V35.8921ZM101.609 41C101.552 40.8854 101.506 40.6813 101.47 40.3877C101.008 40.8675 100.456 41.1074 99.8154 41.1074C99.2425 41.1074 98.7716 40.9463 98.4028 40.624C98.0376 40.2982 97.855 39.8864 97.855 39.3887C97.855 38.7835 98.0841 38.3145 98.5425 37.9814C99.0044 37.6449 99.6525 37.4766 100.487 37.4766H101.454V37.02C101.454 36.6727 101.35 36.397 101.142 36.1929C100.934 35.9852 100.628 35.8813 100.224 35.8813C99.8691 35.8813 99.5719 35.9709 99.332 36.1499C99.0921 36.3289 98.9722 36.5456 98.9722 36.7998H97.9731C97.9731 36.5098 98.0752 36.2305 98.2793 35.9619C98.487 35.6898 98.7663 35.4749 99.1172 35.3174C99.4717 35.1598 99.8602 35.0811 100.283 35.0811C100.952 35.0811 101.477 35.2493 101.856 35.5859C102.236 35.9189 102.433 36.3791 102.447 36.9663V39.6411C102.447 40.1746 102.515 40.599 102.651 40.9141V41H101.609ZM99.9604 40.2427C100.272 40.2427 100.567 40.1621 100.847 40.001C101.126 39.8398 101.328 39.6304 101.454 39.3726V38.1802H100.675C99.4574 38.1802 98.8486 38.5365 98.8486 39.249C98.8486 39.5605 98.9525 39.804 99.1602 39.9795C99.3678 40.1549 99.6346 40.2427 99.9604 40.2427ZM104.945 35.1885L104.977 35.9189C105.421 35.3604 106.001 35.0811 106.717 35.0811C107.945 35.0811 108.565 35.7739 108.576 37.1597V41H107.582V37.1543C107.578 36.7354 107.482 36.4256 107.292 36.2251C107.106 36.0246 106.814 35.9243 106.417 35.9243C106.094 35.9243 105.811 36.0103 105.568 36.1821C105.324 36.354 105.135 36.5796 104.999 36.8589V41H104.005V35.1885H104.945ZM111.696 38.3091L111.073 38.959V41H110.08V32.75H111.073V37.7397L111.605 37.1006L113.415 35.1885H114.624L112.362 37.6162L114.887 41H113.721L111.696 38.3091ZM120.279 39.5444L121.633 35.1885H122.696L120.36 41.897C119.998 42.8638 119.424 43.3472 118.636 43.3472L118.448 43.3311L118.077 43.2612V42.4556L118.346 42.4771C118.682 42.4771 118.944 42.409 119.13 42.2729C119.32 42.1369 119.475 41.888 119.597 41.5264L119.817 40.9355L117.744 35.1885H118.829L120.279 39.5444ZM123.239 38.0405C123.239 37.4712 123.35 36.9591 123.572 36.5044C123.797 36.0496 124.109 35.6987 124.506 35.4517C124.907 35.2046 125.364 35.0811 125.876 35.0811C126.667 35.0811 127.306 35.355 127.793 35.9028C128.284 36.4507 128.529 37.1794 128.529 38.0889V38.1587C128.529 38.7244 128.42 39.2329 128.202 39.6841C127.987 40.1317 127.677 40.4808 127.272 40.7314C126.871 40.9821 126.41 41.1074 125.887 41.1074C125.099 41.1074 124.46 40.8335 123.969 40.2856C123.482 39.7378 123.239 39.0127 123.239 38.1104V38.0405ZM124.238 38.1587C124.238 38.8032 124.386 39.3206 124.684 39.7109C124.984 40.1012 125.385 40.2964 125.887 40.2964C126.392 40.2964 126.793 40.0994 127.09 39.7056C127.387 39.3081 127.536 38.7531 127.536 38.0405C127.536 37.4032 127.383 36.8875 127.079 36.4937C126.778 36.0962 126.377 35.8975 125.876 35.8975C125.385 35.8975 124.99 36.0926 124.689 36.4829C124.388 36.8732 124.238 37.4318 124.238 38.1587ZM133.363 40.4253C132.977 40.88 132.409 41.1074 131.661 41.1074C131.041 41.1074 130.569 40.9284 130.243 40.5703C129.92 40.2087 129.757 39.6751 129.754 38.9697V35.1885H130.748V38.9429C130.748 39.8237 131.106 40.2642 131.822 40.2642C132.581 40.2642 133.086 39.9813 133.336 39.4155V35.1885H134.33V41H133.385L133.363 40.4253ZM139.062 41V35.9565H138.144V35.1885H139.062V34.5923C139.062 33.9692 139.229 33.4876 139.562 33.1475C139.895 32.8073 140.365 32.6372 140.974 32.6372C141.203 32.6372 141.431 32.6676 141.656 32.7285L141.603 33.5342C141.434 33.502 141.255 33.4858 141.065 33.4858C140.743 33.4858 140.494 33.5807 140.319 33.7705C140.143 33.9567 140.056 34.2253 140.056 34.5762V35.1885H141.296V35.9565H140.056V41H139.062ZM142.134 38.0405C142.134 37.4712 142.245 36.9591 142.467 36.5044C142.693 36.0496 143.004 35.6987 143.402 35.4517C143.803 35.2046 144.259 35.0811 144.771 35.0811C145.563 35.0811 146.202 35.355 146.689 35.9028C147.18 36.4507 147.425 37.1794 147.425 38.0889V38.1587C147.425 38.7244 147.316 39.2329 147.097 39.6841C146.882 40.1317 146.573 40.4808 146.168 40.7314C145.767 40.9821 145.305 41.1074 144.782 41.1074C143.994 41.1074 143.355 40.8335 142.865 40.2856C142.378 39.7378 142.134 39.0127 142.134 38.1104V38.0405ZM143.133 38.1587C143.133 38.8032 143.282 39.3206 143.579 39.7109C143.88 40.1012 144.281 40.2964 144.782 40.2964C145.287 40.2964 145.688 40.0994 145.985 39.7056C146.283 39.3081 146.431 38.7531 146.431 38.0405C146.431 37.4032 146.279 36.8875 145.975 36.4937C145.674 36.0962 145.273 35.8975 144.771 35.8975C144.281 35.8975 143.885 36.0926 143.584 36.4829C143.284 36.8732 143.133 37.4318 143.133 38.1587ZM151.48 36.0801C151.33 36.055 151.167 36.0425 150.991 36.0425C150.34 36.0425 149.897 36.32 149.665 36.875V41H148.671V35.1885H149.638L149.654 35.8599C149.98 35.3407 150.442 35.0811 151.04 35.0811C151.233 35.0811 151.38 35.1061 151.48 35.1562V36.0801ZM154.891 38.0459C154.891 37.14 155.1 36.4202 155.519 35.8867C155.938 35.3496 156.493 35.0811 157.184 35.0811C157.893 35.0811 158.446 35.3317 158.844 35.833L158.892 35.1885H159.8V40.8604C159.8 41.6123 159.576 42.2049 159.128 42.6382C158.684 43.0715 158.086 43.2881 157.334 43.2881C156.916 43.2881 156.506 43.1986 156.104 43.0195C155.703 42.8405 155.397 42.5952 155.186 42.2837L155.702 41.6875C156.128 42.2139 156.649 42.4771 157.265 42.4771C157.748 42.4771 158.124 42.341 158.393 42.0688C158.665 41.7967 158.801 41.4136 158.801 40.9194V40.4199C158.403 40.8783 157.861 41.1074 157.173 41.1074C156.493 41.1074 155.942 40.8335 155.519 40.2856C155.1 39.7378 154.891 38.9912 154.891 38.0459ZM155.89 38.1587C155.89 38.814 156.024 39.3296 156.292 39.7056C156.561 40.078 156.937 40.2642 157.42 40.2642C158.047 40.2642 158.507 39.9795 158.801 39.4102V36.7568C158.496 36.2018 158.04 35.9243 157.431 35.9243C156.948 35.9243 156.57 36.1123 156.298 36.4883C156.026 36.8643 155.89 37.4211 155.89 38.1587ZM163.715 41.1074C162.928 41.1074 162.287 40.8496 161.792 40.334C161.298 39.8148 161.051 39.1219 161.051 38.2554V38.0728C161.051 37.4963 161.16 36.9824 161.379 36.5312C161.601 36.0765 161.909 35.722 162.303 35.4678C162.7 35.21 163.13 35.0811 163.592 35.0811C164.347 35.0811 164.935 35.3299 165.354 35.8276C165.772 36.3254 165.982 37.0379 165.982 37.9653V38.3789H162.045C162.059 38.9518 162.226 39.4155 162.544 39.77C162.867 40.1209 163.275 40.2964 163.769 40.2964C164.12 40.2964 164.417 40.2248 164.661 40.0815C164.904 39.9383 165.117 39.7485 165.3 39.5122L165.907 39.9849C165.42 40.7332 164.689 41.1074 163.715 41.1074ZM163.592 35.8975C163.191 35.8975 162.854 36.0443 162.582 36.3379C162.31 36.6279 162.142 37.0361 162.077 37.5625H164.988V37.4873C164.96 36.9824 164.824 36.5921 164.58 36.3164C164.337 36.0371 164.007 35.8975 163.592 35.8975ZM168.485 33.7812V35.1885H169.57V35.9565H168.485V39.5605C168.485 39.7933 168.533 39.9688 168.63 40.0869C168.727 40.2015 168.891 40.2588 169.124 40.2588C169.239 40.2588 169.396 40.2373 169.597 40.1943V41C169.335 41.0716 169.081 41.1074 168.834 41.1074C168.39 41.1074 168.055 40.9731 167.83 40.7046C167.604 40.436 167.491 40.0547 167.491 39.5605V35.9565H166.433V35.1885H167.491V33.7812H168.485ZM172.083 33.7812V35.1885H173.168V35.9565H172.083V39.5605C172.083 39.7933 172.132 39.9688 172.229 40.0869C172.325 40.2015 172.49 40.2588 172.723 40.2588C172.837 40.2588 172.995 40.2373 173.195 40.1943V41C172.934 41.0716 172.68 41.1074 172.433 41.1074C171.989 41.1074 171.654 40.9731 171.428 40.7046C171.203 40.436 171.09 40.0547 171.09 39.5605V35.9565H170.032V35.1885H171.09V33.7812H172.083ZM175.414 41H174.42V35.1885H175.414V41ZM174.339 33.647C174.339 33.4858 174.388 33.3498 174.484 33.2388C174.585 33.1278 174.731 33.0723 174.925 33.0723C175.118 33.0723 175.265 33.1278 175.365 33.2388C175.465 33.3498 175.516 33.4858 175.516 33.647C175.516 33.8081 175.465 33.9424 175.365 34.0498C175.265 34.1572 175.118 34.2109 174.925 34.2109C174.731 34.2109 174.585 34.1572 174.484 34.0498C174.388 33.9424 174.339 33.8081 174.339 33.647ZM177.949 35.1885L177.981 35.9189C178.425 35.3604 179.005 35.0811 179.721 35.0811C180.949 35.0811 181.569 35.7739 181.58 37.1597V41H180.586V37.1543C180.582 36.7354 180.486 36.4256 180.296 36.2251C180.11 36.0246 179.818 35.9243 179.42 35.9243C179.098 35.9243 178.815 36.0103 178.572 36.1821C178.328 36.354 178.139 36.5796 178.002 36.8589V41H177.009V35.1885H177.949ZM182.842 38.0459C182.842 37.14 183.051 36.4202 183.47 35.8867C183.889 35.3496 184.444 35.0811 185.135 35.0811C185.844 35.0811 186.397 35.3317 186.795 35.833L186.843 35.1885H187.751V40.8604C187.751 41.6123 187.527 42.2049 187.08 42.6382C186.636 43.0715 186.038 43.2881 185.286 43.2881C184.867 43.2881 184.457 43.1986 184.056 43.0195C183.655 42.8405 183.348 42.5952 183.137 42.2837L183.653 41.6875C184.079 42.2139 184.6 42.4771 185.216 42.4771C185.699 42.4771 186.075 42.341 186.344 42.0688C186.616 41.7967 186.752 41.4136 186.752 40.9194V40.4199C186.354 40.8783 185.812 41.1074 185.125 41.1074C184.444 41.1074 183.893 40.8335 183.47 40.2856C183.051 39.7378 182.842 38.9912 182.842 38.0459ZM183.841 38.1587C183.841 38.814 183.975 39.3296 184.244 39.7056C184.512 40.078 184.888 40.2642 185.372 40.2642C185.998 40.2642 186.458 39.9795 186.752 39.4102V36.7568C186.448 36.2018 185.991 35.9243 185.382 35.9243C184.899 35.9243 184.521 36.1123 184.249 36.4883C183.977 36.8643 183.841 37.4211 183.841 38.1587ZM193.332 33.7812V35.1885H194.417V35.9565H193.332V39.5605C193.332 39.7933 193.38 39.9688 193.477 40.0869C193.573 40.2015 193.738 40.2588 193.971 40.2588C194.085 40.2588 194.243 40.2373 194.443 40.1943V41C194.182 41.0716 193.928 41.1074 193.681 41.1074C193.237 41.1074 192.902 40.9731 192.676 40.7046C192.451 40.436 192.338 40.0547 192.338 39.5605V35.9565H191.28V35.1885H192.338V33.7812H193.332ZM196.576 35.8921C197.016 35.3514 197.589 35.0811 198.294 35.0811C199.523 35.0811 200.142 35.7739 200.153 37.1597V41H199.159V37.1543C199.156 36.7354 199.059 36.4256 198.869 36.2251C198.683 36.0246 198.391 35.9243 197.994 35.9243C197.671 35.9243 197.389 36.0103 197.145 36.1821C196.902 36.354 196.712 36.5796 196.576 36.8589V41H195.582V32.75H196.576V35.8921ZM202.72 41H201.727V35.1885H202.72V41ZM201.646 33.647C201.646 33.4858 201.694 33.3498 201.791 33.2388C201.891 33.1278 202.038 33.0723 202.231 33.0723C202.425 33.0723 202.572 33.1278 202.672 33.2388C202.772 33.3498 202.822 33.4858 202.822 33.647C202.822 33.8081 202.772 33.9424 202.672 34.0498C202.572 34.1572 202.425 34.2109 202.231 34.2109C202.038 34.2109 201.891 34.1572 201.791 34.0498C201.694 33.9424 201.646 33.8081 201.646 33.647ZM207.699 39.4585C207.699 39.1899 207.597 38.9823 207.393 38.8354C207.193 38.6851 206.84 38.5562 206.335 38.4487C205.834 38.3413 205.434 38.2124 205.137 38.062C204.844 37.9116 204.625 37.7326 204.482 37.5249C204.342 37.3172 204.272 37.0701 204.272 36.7837C204.272 36.3075 204.473 35.9046 204.874 35.5752C205.279 35.2458 205.794 35.0811 206.421 35.0811C207.08 35.0811 207.613 35.2511 208.021 35.5913C208.433 35.9315 208.639 36.3665 208.639 36.8965H207.64C207.64 36.6243 207.524 36.3898 207.291 36.1929C207.062 35.9959 206.772 35.8975 206.421 35.8975C206.059 35.8975 205.776 35.9762 205.572 36.1338C205.368 36.2913 205.266 36.4972 205.266 36.7515C205.266 36.9914 205.361 37.1722 205.551 37.2939C205.741 37.4157 206.083 37.5321 206.577 37.6431C207.074 37.7541 207.477 37.8866 207.785 38.0405C208.093 38.1945 208.32 38.3807 208.467 38.5991C208.618 38.814 208.693 39.0771 208.693 39.3887C208.693 39.9079 208.485 40.325 208.07 40.6401C207.654 40.9517 207.116 41.1074 206.453 41.1074C205.988 41.1074 205.576 41.0251 205.218 40.8604C204.86 40.6956 204.579 40.4665 204.375 40.1729C204.174 39.8757 204.074 39.5552 204.074 39.2114H205.067C205.085 39.5444 205.218 39.8094 205.465 40.0063C205.715 40.1997 206.045 40.2964 206.453 40.2964C206.829 40.2964 207.13 40.2212 207.355 40.0708C207.585 39.9168 207.699 39.7127 207.699 39.4585ZM213.205 41V35.9565H212.286V35.1885H213.205V34.5923C213.205 33.9692 213.371 33.4876 213.704 33.1475C214.037 32.8073 214.508 32.6372 215.117 32.6372C215.346 32.6372 215.573 32.6676 215.799 32.7285L215.745 33.5342C215.577 33.502 215.398 33.4858 215.208 33.4858C214.886 33.4858 214.637 33.5807 214.461 33.7705C214.286 33.9567 214.198 34.2253 214.198 34.5762V35.1885H215.439V35.9565H214.198V41H213.205ZM220.128 41C220.071 40.8854 220.024 40.6813 219.988 40.3877C219.526 40.8675 218.975 41.1074 218.334 41.1074C217.761 41.1074 217.29 40.9463 216.921 40.624C216.556 40.2982 216.374 39.8864 216.374 39.3887C216.374 38.7835 216.603 38.3145 217.061 37.9814C217.523 37.6449 218.171 37.4766 219.005 37.4766H219.972V37.02C219.972 36.6727 219.868 36.397 219.661 36.1929C219.453 35.9852 219.147 35.8813 218.742 35.8813C218.388 35.8813 218.09 35.9709 217.851 36.1499C217.611 36.3289 217.491 36.5456 217.491 36.7998H216.492C216.492 36.5098 216.594 36.2305 216.798 35.9619C217.006 35.6898 217.285 35.4749 217.636 35.3174C217.99 35.1598 218.379 35.0811 218.801 35.0811C219.471 35.0811 219.995 35.2493 220.375 35.5859C220.755 35.9189 220.951 36.3791 220.966 36.9663V39.6411C220.966 40.1746 221.034 40.599 221.17 40.9141V41H220.128ZM218.479 40.2427C218.791 40.2427 219.086 40.1621 219.365 40.001C219.645 39.8398 219.847 39.6304 219.972 39.3726V38.1802H219.193C217.976 38.1802 217.367 38.5365 217.367 39.249C217.367 39.5605 217.471 39.804 217.679 39.9795C217.886 40.1549 218.153 40.2427 218.479 40.2427ZM225.333 36.0801C225.182 36.055 225.019 36.0425 224.844 36.0425C224.192 36.0425 223.75 36.32 223.517 36.875V41H222.523V35.1885H223.49L223.506 35.8599C223.832 35.3407 224.294 35.0811 224.892 35.0811C225.085 35.0811 225.232 35.1061 225.333 35.1562V36.0801ZM225.606 40.479C225.606 40.3071 225.657 40.1639 225.757 40.0493C225.861 39.9347 226.015 39.8774 226.219 39.8774C226.423 39.8774 226.577 39.9347 226.681 40.0493C226.788 40.1639 226.842 40.3071 226.842 40.479C226.842 40.6437 226.788 40.7816 226.681 40.8926C226.577 41.0036 226.423 41.0591 226.219 41.0591C226.015 41.0591 225.861 41.0036 225.757 40.8926C225.657 40.7816 225.606 40.6437 225.606 40.479ZM234.646 33.1797H235.683V38.7173C235.683 39.4657 235.457 40.0511 235.006 40.4736C234.558 40.8962 233.96 41.1074 233.212 41.1074C232.435 41.1074 231.83 40.9087 231.396 40.5112C230.963 40.1138 230.747 39.557 230.747 38.8408H231.778C231.778 39.2884 231.9 39.6375 232.143 39.8882C232.39 40.1388 232.746 40.2642 233.212 40.2642C233.638 40.2642 233.982 40.1299 234.243 39.8613C234.508 39.5928 234.642 39.2168 234.646 38.7334V33.1797ZM240.871 40.4253C240.484 40.88 239.917 41.1074 239.168 41.1074C238.549 41.1074 238.076 40.9284 237.75 40.5703C237.428 40.2087 237.265 39.6751 237.262 38.9697V35.1885H238.255V38.9429C238.255 39.8237 238.613 40.2642 239.33 40.2642C240.089 40.2642 240.594 39.9813 240.844 39.4155V35.1885H241.838V41H240.893L240.871 40.4253ZM246.736 39.4585C246.736 39.1899 246.634 38.9823 246.43 38.8354C246.23 38.6851 245.877 38.5562 245.372 38.4487C244.871 38.3413 244.472 38.2124 244.174 38.062C243.881 37.9116 243.662 37.7326 243.519 37.5249C243.379 37.3172 243.31 37.0701 243.31 36.7837C243.31 36.3075 243.51 35.9046 243.911 35.5752C244.316 35.2458 244.831 35.0811 245.458 35.0811C246.117 35.0811 246.65 35.2511 247.059 35.5913C247.47 35.9315 247.676 36.3665 247.676 36.8965H246.677C246.677 36.6243 246.561 36.3898 246.328 36.1929C246.099 35.9959 245.809 35.8975 245.458 35.8975C245.096 35.8975 244.813 35.9762 244.609 36.1338C244.405 36.2913 244.303 36.4972 244.303 36.7515C244.303 36.9914 244.398 37.1722 244.588 37.2939C244.778 37.4157 245.12 37.5321 245.614 37.6431C246.111 37.7541 246.514 37.8866 246.822 38.0405C247.13 38.1945 247.358 38.3807 247.504 38.5991C247.655 38.814 247.73 39.0771 247.73 39.3887C247.73 39.9079 247.522 40.325 247.107 40.6401C246.692 40.9517 246.153 41.1074 245.49 41.1074C245.025 41.1074 244.613 41.0251 244.255 40.8604C243.897 40.6956 243.616 40.4665 243.412 40.1729C243.211 39.8757 243.111 39.5552 243.111 39.2114H244.104C244.122 39.5444 244.255 39.8094 244.502 40.0063C244.753 40.1997 245.082 40.2964 245.49 40.2964C245.866 40.2964 246.167 40.2212 246.393 40.0708C246.622 39.9168 246.736 39.7127 246.736 39.4585ZM250.373 33.7812V35.1885H251.458V35.9565H250.373V39.5605C250.373 39.7933 250.421 39.9688 250.518 40.0869C250.614 40.2015 250.779 40.2588 251.012 40.2588C251.126 40.2588 251.284 40.2373 251.484 40.1943V41C251.223 41.0716 250.969 41.1074 250.722 41.1074C250.278 41.1074 249.943 40.9731 249.717 40.7046C249.492 40.436 249.379 40.0547 249.379 39.5605V35.9565H248.321V35.1885H249.379V33.7812H250.373ZM258.939 41C258.882 40.8854 258.836 40.6813 258.8 40.3877C258.338 40.8675 257.786 41.1074 257.146 41.1074C256.573 41.1074 256.102 40.9463 255.733 40.624C255.368 40.2982 255.185 39.8864 255.185 39.3887C255.185 38.7835 255.414 38.3145 255.873 37.9814C256.334 37.6449 256.983 37.4766 257.817 37.4766H258.784V37.02C258.784 36.6727 258.68 36.397 258.472 36.1929C258.264 35.9852 257.958 35.8813 257.554 35.8813C257.199 35.8813 256.902 35.9709 256.662 36.1499C256.422 36.3289 256.302 36.5456 256.302 36.7998H255.303C255.303 36.5098 255.405 36.2305 255.609 35.9619C255.817 35.6898 256.096 35.4749 256.447 35.3174C256.802 35.1598 257.19 35.0811 257.613 35.0811C258.282 35.0811 258.807 35.2493 259.187 35.5859C259.566 35.9189 259.763 36.3791 259.777 36.9663V39.6411C259.777 40.1746 259.845 40.599 259.981 40.9141V41H258.939ZM257.291 40.2427C257.602 40.2427 257.897 40.1621 258.177 40.001C258.456 39.8398 258.658 39.6304 258.784 39.3726V38.1802H258.005C256.787 38.1802 256.179 38.5365 256.179 39.249C256.179 39.5605 256.283 39.804 256.49 39.9795C256.698 40.1549 256.965 40.2427 257.291 40.2427ZM265.143 41H264.149V32.75H265.143V41ZM267.818 41H266.824V35.1885H267.818V41ZM266.744 33.647C266.744 33.4858 266.792 33.3498 266.889 33.2388C266.989 33.1278 267.136 33.0723 267.329 33.0723C267.522 33.0723 267.669 33.1278 267.77 33.2388C267.87 33.3498 267.92 33.4858 267.92 33.647C267.92 33.8081 267.87 33.9424 267.77 34.0498C267.669 34.1572 267.522 34.2109 267.329 34.2109C267.136 34.2109 266.989 34.1572 266.889 34.0498C266.792 33.9424 266.744 33.8081 266.744 33.647ZM270.761 33.7812V35.1885H271.846V35.9565H270.761V39.5605C270.761 39.7933 270.81 39.9688 270.906 40.0869C271.003 40.2015 271.168 40.2588 271.4 40.2588C271.515 40.2588 271.673 40.2373 271.873 40.1943V41C271.612 41.0716 271.357 41.1074 271.11 41.1074C270.666 41.1074 270.332 40.9731 270.106 40.7046C269.88 40.436 269.768 40.0547 269.768 39.5605V35.9565H268.709V35.1885H269.768V33.7812H270.761ZM274.36 33.7812V35.1885H275.445V35.9565H274.36V39.5605C274.36 39.7933 274.408 39.9688 274.505 40.0869C274.602 40.2015 274.766 40.2588 274.999 40.2588C275.114 40.2588 275.271 40.2373 275.472 40.1943V41C275.21 41.0716 274.956 41.1074 274.709 41.1074C274.265 41.1074 273.93 40.9731 273.705 40.7046C273.479 40.436 273.366 40.0547 273.366 39.5605V35.9565H272.308V35.1885H273.366V33.7812H274.36ZM277.69 41H276.696V32.75H277.69V41ZM281.697 41.1074C280.909 41.1074 280.268 40.8496 279.774 40.334C279.28 39.8148 279.033 39.1219 279.033 38.2554V38.0728C279.033 37.4963 279.142 36.9824 279.36 36.5312C279.582 36.0765 279.89 35.722 280.284 35.4678C280.682 35.21 281.111 35.0811 281.573 35.0811C282.329 35.0811 282.916 35.3299 283.335 35.8276C283.754 36.3254 283.963 37.0379 283.963 37.9653V38.3789H280.026C280.041 38.9518 280.207 39.4155 280.526 39.77C280.848 40.1209 281.256 40.2964 281.75 40.2964C282.101 40.2964 282.399 40.2248 282.642 40.0815C282.886 39.9383 283.099 39.7485 283.281 39.5122L283.888 39.9849C283.401 40.7332 282.671 41.1074 281.697 41.1074ZM281.573 35.8975C281.172 35.8975 280.836 36.0443 280.563 36.3379C280.291 36.6279 280.123 37.0361 280.059 37.5625H282.97V37.4873C282.941 36.9824 282.805 36.5921 282.562 36.3164C282.318 36.0371 281.989 35.8975 281.573 35.8975ZM292.767 38.1587C292.767 39.0467 292.562 39.7611 292.154 40.3018C291.746 40.8389 291.198 41.1074 290.511 41.1074C289.777 41.1074 289.209 40.8478 288.808 40.3286L288.76 41H287.847V32.75H288.84V35.8276C289.241 35.3299 289.795 35.0811 290.5 35.0811C291.205 35.0811 291.759 35.3478 292.16 35.8813C292.564 36.4149 292.767 37.1453 292.767 38.0728V38.1587ZM291.773 38.0459C291.773 37.3691 291.642 36.8464 291.381 36.4775C291.119 36.1087 290.743 35.9243 290.253 35.9243C289.598 35.9243 289.127 36.2287 288.84 36.8374V39.3511C289.145 39.9598 289.619 40.2642 290.264 40.2642C290.74 40.2642 291.111 40.0798 291.375 39.7109C291.64 39.3421 291.773 38.7871 291.773 38.0459ZM295.103 41H294.109V35.1885H295.103V41ZM294.029 33.647C294.029 33.4858 294.077 33.3498 294.174 33.2388C294.274 33.1278 294.421 33.0723 294.614 33.0723C294.808 33.0723 294.954 33.1278 295.055 33.2388C295.155 33.3498 295.205 33.4858 295.205 33.647C295.205 33.8081 295.155 33.9424 295.055 34.0498C294.954 34.1572 294.808 34.2109 294.614 34.2109C294.421 34.2109 294.274 34.1572 294.174 34.0498C294.077 33.9424 294.029 33.8081 294.029 33.647ZM298.046 33.7812V35.1885H299.131V35.9565H298.046V39.5605C298.046 39.7933 298.095 39.9688 298.191 40.0869C298.288 40.2015 298.453 40.2588 298.686 40.2588C298.8 40.2588 298.958 40.2373 299.158 40.1943V41C298.897 41.0716 298.643 41.1074 298.396 41.1074C297.951 41.1074 297.617 40.9731 297.391 40.7046C297.166 40.436 297.053 40.0547 297.053 39.5605V35.9565H295.995V35.1885H297.053V33.7812H298.046ZM54.4888 51.0405C54.4888 50.4712 54.5998 49.9591 54.8218 49.5044C55.0474 49.0496 55.3589 48.6987 55.7563 48.4517C56.1574 48.2046 56.6139 48.0811 57.126 48.0811C57.9173 48.0811 58.5565 48.355 59.0435 48.9028C59.534 49.4507 59.7793 50.1794 59.7793 51.0889V51.1587C59.7793 51.7244 59.6701 52.2329 59.4517 52.6841C59.2368 53.1317 58.9271 53.4808 58.5225 53.7314C58.1214 53.9821 57.6595 54.1074 57.1367 54.1074C56.349 54.1074 55.7098 53.8335 55.2192 53.2856C54.7323 52.7378 54.4888 52.0127 54.4888 51.1104V51.0405ZM55.4878 51.1587C55.4878 51.8032 55.6364 52.3206 55.9336 52.7109C56.2344 53.1012 56.6354 53.2964 57.1367 53.2964C57.6416 53.2964 58.0426 53.0994 58.3398 52.7056C58.637 52.3081 58.7856 51.7531 58.7856 51.0405C58.7856 50.4032 58.6335 49.8875 58.3291 49.4937C58.0283 49.0962 57.6273 48.8975 57.126 48.8975C56.6354 48.8975 56.2397 49.0926 55.939 49.4829C55.6382 49.8732 55.4878 50.4318 55.4878 51.1587ZM61.5142 54V48.9565H60.5957V48.1885H61.5142V47.5923C61.5142 46.9692 61.6807 46.4876 62.0137 46.1475C62.3467 45.8073 62.8175 45.6372 63.4263 45.6372C63.6554 45.6372 63.8828 45.6676 64.1084 45.7285L64.0547 46.5342C63.8864 46.502 63.7074 46.4858 63.5176 46.4858C63.1953 46.4858 62.9465 46.5807 62.771 46.7705C62.5955 46.9567 62.5078 47.2253 62.5078 47.5762V48.1885H63.7485V48.9565H62.5078V54H61.5142ZM68.6577 54H67.6641V48.1885H68.6577V54ZM67.5835 46.647C67.5835 46.4858 67.6318 46.3498 67.7285 46.2388C67.8288 46.1278 67.9756 46.0723 68.1689 46.0723C68.3623 46.0723 68.5091 46.1278 68.6094 46.2388C68.7096 46.3498 68.7598 46.4858 68.7598 46.647C68.7598 46.8081 68.7096 46.9424 68.6094 47.0498C68.5091 47.1572 68.3623 47.2109 68.1689 47.2109C67.9756 47.2109 67.8288 47.1572 67.7285 47.0498C67.6318 46.9424 67.5835 46.8081 67.5835 46.647ZM71.1929 48.1885L71.2251 48.9189C71.6691 48.3604 72.2492 48.0811 72.9653 48.0811C74.1935 48.0811 74.813 48.7739 74.8237 50.1597V54H73.8301V50.1543C73.8265 49.7354 73.7298 49.4256 73.54 49.2251C73.3538 49.0246 73.062 48.9243 72.6646 48.9243C72.3423 48.9243 72.0594 49.0103 71.8159 49.1821C71.5724 49.354 71.3826 49.5796 71.2466 49.8589V54H70.2529V48.1885H71.1929ZM76.811 54V48.9565H75.8926V48.1885H76.811V47.5923C76.811 46.9692 76.9775 46.4876 77.3105 46.1475C77.6436 45.8073 78.1144 45.6372 78.7231 45.6372C78.9523 45.6372 79.1797 45.6676 79.4053 45.7285L79.3516 46.5342C79.1833 46.502 79.0042 46.4858 78.8145 46.4858C78.4922 46.4858 78.2433 46.5807 78.0679 46.7705C77.8924 46.9567 77.8047 47.2253 77.8047 47.5762V48.1885H79.0454V48.9565H77.8047V54H76.811ZM79.8833 51.0405C79.8833 50.4712 79.9943 49.9591 80.2163 49.5044C80.4419 49.0496 80.7534 48.6987 81.1509 48.4517C81.5519 48.2046 82.0085 48.0811 82.5205 48.0811C83.3118 48.0811 83.951 48.355 84.438 48.9028C84.9285 49.4507 85.1738 50.1794 85.1738 51.0889V51.1587C85.1738 51.7244 85.0646 52.2329 84.8462 52.6841C84.6313 53.1317 84.3216 53.4808 83.917 53.7314C83.516 53.9821 83.054 54.1074 82.5312 54.1074C81.7435 54.1074 81.1043 53.8335 80.6138 53.2856C80.1268 52.7378 79.8833 52.0127 79.8833 51.1104V51.0405ZM80.8823 51.1587C80.8823 51.8032 81.0309 52.3206 81.3281 52.7109C81.6289 53.1012 82.0299 53.2964 82.5312 53.2964C83.0361 53.2964 83.4372 53.0994 83.7344 52.7056C84.0316 52.3081 84.1802 51.7531 84.1802 51.0405C84.1802 50.4032 84.028 49.8875 83.7236 49.4937C83.4229 49.0962 83.0218 48.8975 82.5205 48.8975C82.0299 48.8975 81.6343 49.0926 81.3335 49.4829C81.0327 49.8732 80.8823 50.4318 80.8823 51.1587ZM89.229 49.0801C89.0786 49.055 88.9157 49.0425 88.7402 49.0425C88.0885 49.0425 87.6463 49.32 87.4136 49.875V54H86.4199V48.1885H87.3867L87.4028 48.8599C87.7287 48.3407 88.1906 48.0811 88.7886 48.0811C88.9819 48.0811 89.1287 48.1061 89.229 48.1562V49.0801ZM91.082 48.1885L91.1089 48.833C91.535 48.3317 92.1097 48.0811 92.833 48.0811C93.6458 48.0811 94.1991 48.3926 94.4927 49.0156C94.686 48.7363 94.9367 48.5107 95.2446 48.3389C95.5562 48.167 95.9232 48.0811 96.3457 48.0811C97.6204 48.0811 98.2686 48.756 98.29 50.106V54H97.2964V50.165C97.2964 49.7497 97.2015 49.4399 97.0117 49.2358C96.8219 49.0282 96.5033 48.9243 96.0557 48.9243C95.6868 48.9243 95.3807 49.0353 95.1372 49.2573C94.8937 49.4757 94.7523 49.7712 94.7129 50.1436V54H93.7139V50.1919C93.7139 49.3468 93.3003 48.9243 92.4731 48.9243C91.8215 48.9243 91.3757 49.2018 91.1357 49.7568V54H90.1421V48.1885H91.082ZM103.382 54C103.325 53.8854 103.278 53.6813 103.242 53.3877C102.78 53.8675 102.229 54.1074 101.588 54.1074C101.015 54.1074 100.544 53.9463 100.175 53.624C99.8101 53.2982 99.6274 52.8864 99.6274 52.3887C99.6274 51.7835 99.8566 51.3145 100.315 50.9814C100.777 50.6449 101.425 50.4766 102.259 50.4766H103.226V50.02C103.226 49.6727 103.122 49.397 102.915 49.1929C102.707 48.9852 102.401 48.8813 101.996 48.8813C101.642 48.8813 101.344 48.9709 101.104 49.1499C100.865 49.3289 100.745 49.5456 100.745 49.7998H99.7456C99.7456 49.5098 99.8477 49.2305 100.052 48.9619C100.259 48.6898 100.539 48.4749 100.89 48.3174C101.244 48.1598 101.633 48.0811 102.055 48.0811C102.725 48.0811 103.249 48.2493 103.629 48.5859C104.008 48.9189 104.205 49.3791 104.22 49.9663V52.6411C104.22 53.1746 104.288 53.599 104.424 53.9141V54H103.382ZM101.733 53.2427C102.044 53.2427 102.34 53.1621 102.619 53.001C102.898 52.8398 103.101 52.6304 103.226 52.3726V51.1802H102.447C101.23 51.1802 100.621 51.5365 100.621 52.249C100.621 52.5605 100.725 52.804 100.933 52.9795C101.14 53.1549 101.407 53.2427 101.733 53.2427ZM107.125 46.7812V48.1885H108.21V48.9565H107.125V52.5605C107.125 52.7933 107.174 52.9688 107.271 53.0869C107.367 53.2015 107.532 53.2588 107.765 53.2588C107.879 53.2588 108.037 53.2373 108.237 53.1943V54C107.976 54.0716 107.722 54.1074 107.475 54.1074C107.031 54.1074 106.696 53.9731 106.47 53.7046C106.245 53.436 106.132 53.0547 106.132 52.5605V48.9565H105.074V48.1885H106.132V46.7812H107.125ZM110.456 54H109.462V48.1885H110.456V54ZM109.381 46.647C109.381 46.4858 109.43 46.3498 109.526 46.2388C109.627 46.1278 109.773 46.0723 109.967 46.0723C110.16 46.0723 110.307 46.1278 110.407 46.2388C110.507 46.3498 110.558 46.4858 110.558 46.647C110.558 46.8081 110.507 46.9424 110.407 47.0498C110.307 47.1572 110.16 47.2109 109.967 47.2109C109.773 47.2109 109.627 47.1572 109.526 47.0498C109.43 46.9424 109.381 46.8081 109.381 46.647ZM111.788 51.0405C111.788 50.4712 111.899 49.9591 112.121 49.5044C112.346 49.0496 112.658 48.6987 113.055 48.4517C113.456 48.2046 113.913 48.0811 114.425 48.0811C115.216 48.0811 115.855 48.355 116.342 48.9028C116.833 49.4507 117.078 50.1794 117.078 51.0889V51.1587C117.078 51.7244 116.969 52.2329 116.75 52.6841C116.536 53.1317 116.226 53.4808 115.821 53.7314C115.42 53.9821 114.958 54.1074 114.436 54.1074C113.648 54.1074 113.009 53.8335 112.518 53.2856C112.031 52.7378 111.788 52.0127 111.788 51.1104V51.0405ZM112.787 51.1587C112.787 51.8032 112.935 52.3206 113.232 52.7109C113.533 53.1012 113.934 53.2964 114.436 53.2964C114.94 53.2964 115.341 53.0994 115.639 52.7056C115.936 52.3081 116.084 51.7531 116.084 51.0405C116.084 50.4032 115.932 49.8875 115.628 49.4937C115.327 49.0962 114.926 48.8975 114.425 48.8975C113.934 48.8975 113.539 49.0926 113.238 49.4829C112.937 49.8732 112.787 50.4318 112.787 51.1587ZM119.264 48.1885L119.296 48.9189C119.74 48.3604 120.32 48.0811 121.037 48.0811C122.265 48.0811 122.884 48.7739 122.895 50.1597V54H121.901V50.1543C121.898 49.7354 121.801 49.4256 121.611 49.2251C121.425 49.0246 121.133 48.9243 120.736 48.9243C120.414 48.9243 120.131 49.0103 119.887 49.1821C119.644 49.354 119.454 49.5796 119.318 49.8589V54H118.324V48.1885H119.264ZM130.71 54C130.653 53.8854 130.606 53.6813 130.57 53.3877C130.108 53.8675 129.557 54.1074 128.916 54.1074C128.343 54.1074 127.872 53.9463 127.503 53.624C127.138 53.2982 126.956 52.8864 126.956 52.3887C126.956 51.7835 127.185 51.3145 127.643 50.9814C128.105 50.6449 128.753 50.4766 129.587 50.4766H130.554V50.02C130.554 49.6727 130.45 49.397 130.243 49.1929C130.035 48.9852 129.729 48.8813 129.324 48.8813C128.97 48.8813 128.673 48.9709 128.433 49.1499C128.193 49.3289 128.073 49.5456 128.073 49.7998H127.074C127.074 49.5098 127.176 49.2305 127.38 48.9619C127.588 48.6898 127.867 48.4749 128.218 48.3174C128.572 48.1598 128.961 48.0811 129.383 48.0811C130.053 48.0811 130.577 48.2493 130.957 48.5859C131.337 48.9189 131.534 49.3791 131.548 49.9663V52.6411C131.548 53.1746 131.616 53.599 131.752 53.9141V54H130.71ZM129.061 53.2427C129.373 53.2427 129.668 53.1621 129.947 53.001C130.227 52.8398 130.429 52.6304 130.554 52.3726V51.1802H129.775C128.558 51.1802 127.949 51.5365 127.949 52.249C127.949 52.5605 128.053 52.804 128.261 52.9795C128.468 53.1549 128.735 53.2427 129.061 53.2427ZM138.025 51.1587C138.025 52.0467 137.821 52.7611 137.413 53.3018C137.005 53.8389 136.457 54.1074 135.77 54.1074C135.035 54.1074 134.468 53.8478 134.067 53.3286L134.019 54H133.105V45.75H134.099V48.8276C134.5 48.3299 135.053 48.0811 135.759 48.0811C136.464 48.0811 137.017 48.3478 137.418 48.8813C137.823 49.4149 138.025 50.1453 138.025 51.0728V51.1587ZM137.032 51.0459C137.032 50.3691 136.901 49.8464 136.64 49.4775C136.378 49.1087 136.002 48.9243 135.512 48.9243C134.856 48.9243 134.386 49.2287 134.099 49.8374V52.3511C134.403 52.9598 134.878 53.2642 135.522 53.2642C135.999 53.2642 136.369 53.0798 136.634 52.7109C136.899 52.3421 137.032 51.7871 137.032 51.0459ZM139.019 51.0405C139.019 50.4712 139.13 49.9591 139.352 49.5044C139.578 49.0496 139.889 48.6987 140.287 48.4517C140.688 48.2046 141.144 48.0811 141.656 48.0811C142.448 48.0811 143.087 48.355 143.574 48.9028C144.064 49.4507 144.31 50.1794 144.31 51.0889V51.1587C144.31 51.7244 144.2 52.2329 143.982 52.6841C143.767 53.1317 143.457 53.4808 143.053 53.7314C142.652 53.9821 142.19 54.1074 141.667 54.1074C140.879 54.1074 140.24 53.8335 139.75 53.2856C139.263 52.7378 139.019 52.0127 139.019 51.1104V51.0405ZM140.018 51.1587C140.018 51.8032 140.167 52.3206 140.464 52.7109C140.765 53.1012 141.166 53.2964 141.667 53.2964C142.172 53.2964 142.573 53.0994 142.87 52.7056C143.167 52.3081 143.316 51.7531 143.316 51.0405C143.316 50.4032 143.164 49.8875 142.859 49.4937C142.559 49.0962 142.158 48.8975 141.656 48.8975C141.166 48.8975 140.77 49.0926 140.469 49.4829C140.168 49.8732 140.018 50.4318 140.018 51.1587ZM149.144 53.4253C148.757 53.88 148.189 54.1074 147.441 54.1074C146.821 54.1074 146.349 53.9284 146.023 53.5703C145.701 53.2087 145.538 52.6751 145.534 51.9697V48.1885H146.528V51.9429C146.528 52.8237 146.886 53.2642 147.602 53.2642C148.361 53.2642 148.866 52.9813 149.117 52.4155V48.1885H150.11V54H149.165L149.144 53.4253ZM152.973 46.7812V48.1885H154.058V48.9565H152.973V52.5605C152.973 52.7933 153.021 52.9688 153.118 53.0869C153.215 53.2015 153.38 53.2588 153.612 53.2588C153.727 53.2588 153.884 53.2373 154.085 53.1943V54C153.824 54.0716 153.569 54.1074 153.322 54.1074C152.878 54.1074 152.543 53.9731 152.318 53.7046C152.092 53.436 151.979 53.0547 151.979 52.5605V48.9565H150.921V48.1885H151.979V46.7812H152.973ZM159.854 52.5444L161.207 48.1885H162.271L159.934 54.897C159.572 55.8638 158.998 56.3472 158.21 56.3472L158.022 56.3311L157.651 56.2612V55.4556L157.92 55.4771C158.257 55.4771 158.518 55.409 158.704 55.2729C158.894 55.1369 159.05 54.888 159.171 54.5264L159.392 53.9355L157.318 48.1885H158.403L159.854 52.5444ZM162.813 51.0405C162.813 50.4712 162.924 49.9591 163.146 49.5044C163.372 49.0496 163.683 48.6987 164.081 48.4517C164.482 48.2046 164.938 48.0811 165.45 48.0811C166.242 48.0811 166.881 48.355 167.368 48.9028C167.858 49.4507 168.104 50.1794 168.104 51.0889V51.1587C168.104 51.7244 167.994 52.2329 167.776 52.6841C167.561 53.1317 167.251 53.4808 166.847 53.7314C166.446 53.9821 165.984 54.1074 165.461 54.1074C164.673 54.1074 164.034 53.8335 163.543 53.2856C163.056 52.7378 162.813 52.0127 162.813 51.1104V51.0405ZM163.812 51.1587C163.812 51.8032 163.961 52.3206 164.258 52.7109C164.559 53.1012 164.96 53.2964 165.461 53.2964C165.966 53.2964 166.367 53.0994 166.664 52.7056C166.961 52.3081 167.11 51.7531 167.11 51.0405C167.11 50.4032 166.958 49.8875 166.653 49.4937C166.353 49.0962 165.951 48.8975 165.45 48.8975C164.96 48.8975 164.564 49.0926 164.263 49.4829C163.962 49.8732 163.812 50.4318 163.812 51.1587ZM172.938 53.4253C172.551 53.88 171.983 54.1074 171.235 54.1074C170.615 54.1074 170.143 53.9284 169.817 53.5703C169.495 53.2087 169.332 52.6751 169.328 51.9697V48.1885H170.322V51.9429C170.322 52.8237 170.68 53.2642 171.396 53.2642C172.155 53.2642 172.66 52.9813 172.911 52.4155V48.1885H173.904V54H172.959L172.938 53.4253ZM178.228 49.0801C178.078 49.055 177.915 49.0425 177.739 49.0425C177.088 49.0425 176.645 49.32 176.413 49.875V54H175.419V48.1885H176.386L176.402 48.8599C176.728 48.3407 177.19 48.0811 177.788 48.0811C177.981 48.0811 178.128 48.1061 178.228 48.1562V49.0801ZM205.581 54H204.587V48.1885H205.581V54ZM204.506 46.647C204.506 46.4858 204.555 46.3498 204.651 46.2388C204.752 46.1278 204.898 46.0723 205.092 46.0723C205.285 46.0723 205.432 46.1278 205.532 46.2388C205.632 46.3498 205.683 46.4858 205.683 46.647C205.683 46.8081 205.632 46.9424 205.532 47.0498C205.432 47.1572 205.285 47.2109 205.092 47.2109C204.898 47.2109 204.752 47.1572 204.651 47.0498C204.555 46.9424 204.506 46.8081 204.506 46.647ZM210.56 52.4585C210.56 52.1899 210.458 51.9823 210.253 51.8354C210.053 51.6851 209.7 51.5562 209.195 51.4487C208.694 51.3413 208.295 51.2124 207.998 51.062C207.704 50.9116 207.486 50.7326 207.342 50.5249C207.203 50.3172 207.133 50.0701 207.133 49.7837C207.133 49.3075 207.333 48.9046 207.734 48.5752C208.139 48.2458 208.655 48.0811 209.281 48.0811C209.94 48.0811 210.474 48.2511 210.882 48.5913C211.294 48.9315 211.5 49.3665 211.5 49.8965H210.5C210.5 49.6243 210.384 49.3898 210.151 49.1929C209.922 48.9959 209.632 48.8975 209.281 48.8975C208.92 48.8975 208.637 48.9762 208.433 49.1338C208.229 49.2913 208.126 49.4972 208.126 49.7515C208.126 49.9914 208.221 50.1722 208.411 50.2939C208.601 50.4157 208.943 50.5321 209.437 50.6431C209.935 50.7541 210.338 50.8866 210.646 51.0405C210.953 51.1945 211.181 51.3807 211.328 51.5991C211.478 51.814 211.553 52.0771 211.553 52.3887C211.553 52.9079 211.346 53.325 210.93 53.6401C210.515 53.9517 209.976 54.1074 209.313 54.1074C208.848 54.1074 208.436 54.0251 208.078 53.8604C207.72 53.6956 207.439 53.4665 207.235 53.1729C207.034 52.8757 206.934 52.5552 206.934 52.2114H207.928C207.946 52.5444 208.078 52.8094 208.325 53.0063C208.576 53.1997 208.905 53.2964 209.313 53.2964C209.689 53.2964 209.99 53.2212 210.216 53.0708C210.445 52.9168 210.56 52.7127 210.56 52.4585ZM216.516 48.1885L216.548 48.9189C216.992 48.3604 217.572 48.0811 218.289 48.0811C219.517 48.0811 220.136 48.7739 220.147 50.1597V54H219.153V50.1543C219.15 49.7354 219.053 49.4256 218.863 49.2251C218.677 49.0246 218.385 48.9243 217.988 48.9243C217.666 48.9243 217.383 49.0103 217.139 49.1821C216.896 49.354 216.706 49.5796 216.57 49.8589V54H215.576V48.1885H216.516ZM224.057 54.1074C223.269 54.1074 222.628 53.8496 222.134 53.334C221.64 52.8148 221.393 52.1219 221.393 51.2554V51.0728C221.393 50.4963 221.502 49.9824 221.721 49.5312C221.943 49.0765 222.251 48.722 222.645 48.4678C223.042 48.21 223.472 48.0811 223.934 48.0811C224.689 48.0811 225.276 48.3299 225.695 48.8276C226.114 49.3254 226.324 50.0379 226.324 50.9653V51.3789H222.387C222.401 51.9518 222.568 52.4155 222.886 52.77C223.208 53.1209 223.617 53.2964 224.111 53.2964C224.462 53.2964 224.759 53.2248 225.002 53.0815C225.246 52.9383 225.459 52.7485 225.642 52.5122L226.249 52.9849C225.762 53.7332 225.031 54.1074 224.057 54.1074ZM223.934 48.8975C223.533 48.8975 223.196 49.0443 222.924 49.3379C222.652 49.6279 222.483 50.0361 222.419 50.5625H225.33V50.4873C225.301 49.9824 225.165 49.5921 224.922 49.3164C224.678 49.0371 224.349 48.8975 223.934 48.8975ZM229.89 54.1074C229.102 54.1074 228.461 53.8496 227.967 53.334C227.473 52.8148 227.226 52.1219 227.226 51.2554V51.0728C227.226 50.4963 227.335 49.9824 227.554 49.5312C227.776 49.0765 228.084 48.722 228.478 48.4678C228.875 48.21 229.305 48.0811 229.767 48.0811C230.522 48.0811 231.109 48.3299 231.528 48.8276C231.947 49.3254 232.157 50.0379 232.157 50.9653V51.3789H228.22C228.234 51.9518 228.401 52.4155 228.719 52.77C229.042 53.1209 229.45 53.2964 229.944 53.2964C230.295 53.2964 230.592 53.2248 230.835 53.0815C231.079 52.9383 231.292 52.7485 231.475 52.5122L232.082 52.9849C231.595 53.7332 230.864 54.1074 229.89 54.1074ZM229.767 48.8975C229.366 48.8975 229.029 49.0443 228.757 49.3379C228.485 49.6279 228.316 50.0361 228.252 50.5625H231.163V50.4873C231.134 49.9824 230.998 49.5921 230.755 49.3164C230.511 49.0371 230.182 48.8975 229.767 48.8975ZM233.07 51.0459C233.07 50.1543 233.281 49.4382 233.704 48.8975C234.126 48.3532 234.679 48.0811 235.363 48.0811C236.044 48.0811 236.583 48.3138 236.98 48.7793V45.75H237.974V54H237.061L237.012 53.377C236.615 53.8639 236.062 54.1074 235.353 54.1074C234.679 54.1074 234.13 53.8317 233.704 53.2803C233.281 52.7288 233.07 52.0091 233.07 51.1211V51.0459ZM234.063 51.1587C234.063 51.8175 234.2 52.3332 234.472 52.7056C234.744 53.078 235.12 53.2642 235.6 53.2642C236.23 53.2642 236.69 52.9813 236.98 52.4155V49.7461C236.683 49.1982 236.226 48.9243 235.61 48.9243C235.123 48.9243 234.744 49.1123 234.472 49.4883C234.2 49.8643 234.063 50.4211 234.063 51.1587ZM241.932 54.1074C241.144 54.1074 240.503 53.8496 240.009 53.334C239.515 52.8148 239.268 52.1219 239.268 51.2554V51.0728C239.268 50.4963 239.377 49.9824 239.596 49.5312C239.818 49.0765 240.126 48.722 240.52 48.4678C240.917 48.21 241.347 48.0811 241.809 48.0811C242.564 48.0811 243.151 48.3299 243.57 48.8276C243.989 49.3254 244.199 50.0379 244.199 50.9653V51.3789H240.262C240.276 51.9518 240.443 52.4155 240.761 52.77C241.083 53.1209 241.492 53.2964 241.986 53.2964C242.337 53.2964 242.634 53.2248 242.877 53.0815C243.121 52.9383 243.334 52.7485 243.517 52.5122L244.124 52.9849C243.637 53.7332 242.906 54.1074 241.932 54.1074ZM241.809 48.8975C241.408 48.8975 241.071 49.0443 240.799 49.3379C240.527 49.6279 240.358 50.0361 240.294 50.5625H243.205V50.4873C243.176 49.9824 243.04 49.5921 242.797 49.3164C242.553 49.0371 242.224 48.8975 241.809 48.8975ZM245.112 51.0459C245.112 50.1543 245.323 49.4382 245.746 48.8975C246.168 48.3532 246.721 48.0811 247.405 48.0811C248.086 48.0811 248.625 48.3138 249.022 48.7793V45.75H250.016V54H249.103L249.054 53.377C248.657 53.8639 248.104 54.1074 247.395 54.1074C246.721 54.1074 246.172 53.8317 245.746 53.2803C245.323 52.7288 245.112 52.0091 245.112 51.1211V51.0459ZM246.105 51.1587C246.105 51.8175 246.242 52.3332 246.514 52.7056C246.786 53.078 247.162 53.2642 247.642 53.2642C248.272 53.2642 248.732 52.9813 249.022 52.4155V49.7461C248.725 49.1982 248.268 48.9243 247.652 48.9243C247.165 48.9243 246.786 49.1123 246.514 49.4883C246.242 49.8643 246.105 50.4211 246.105 51.1587ZM251.584 53.479C251.584 53.3071 251.634 53.1639 251.734 53.0493C251.838 52.9347 251.992 52.8774 252.196 52.8774C252.4 52.8774 252.554 52.9347 252.658 53.0493C252.766 53.1639 252.819 53.3071 252.819 53.479C252.819 53.6437 252.766 53.7816 252.658 53.8926C252.554 54.0036 252.4 54.0591 252.196 54.0591C251.992 54.0591 251.838 54.0036 251.734 53.8926C251.634 53.7816 251.584 53.6437 251.584 53.479Z" fill="#603A8B"/>
<path d="M51.4959 260.294H30.5054V265.339H51.4959V260.294Z" fill="#455A64"/>
<path d="M183.512 52.3184C183.512 52.0254 183.4 51.7988 183.178 51.6387C182.959 51.4746 182.574 51.334 182.023 51.2168C181.477 51.0996 181.041 50.959 180.717 50.7949C180.396 50.6309 180.158 50.4355 180.002 50.209C179.85 49.9824 179.773 49.7129 179.773 49.4004C179.773 48.8809 179.992 48.4414 180.43 48.082C180.871 47.7227 181.434 47.543 182.117 47.543C182.836 47.543 183.418 47.7285 183.863 48.0996C184.312 48.4707 184.537 48.9453 184.537 49.5234H183.447C183.447 49.2266 183.32 48.9707 183.066 48.7559C182.816 48.541 182.5 48.4336 182.117 48.4336C181.723 48.4336 181.414 48.5195 181.191 48.6914C180.969 48.8633 180.857 49.0879 180.857 49.3652C180.857 49.627 180.961 49.8242 181.168 49.957C181.375 50.0898 181.748 50.2168 182.287 50.3379C182.83 50.459 183.27 50.6035 183.605 50.7715C183.941 50.9395 184.189 51.1426 184.35 51.3809C184.514 51.6152 184.596 51.9023 184.596 52.2422C184.596 52.8086 184.369 53.2637 183.916 53.6074C183.463 53.9473 182.875 54.1172 182.152 54.1172C181.645 54.1172 181.195 54.0273 180.805 53.8477C180.414 53.668 180.107 53.418 179.885 53.0977C179.666 52.7734 179.557 52.4238 179.557 52.0488H180.641C180.66 52.4121 180.805 52.7012 181.074 52.916C181.348 53.127 181.707 53.2324 182.152 53.2324C182.562 53.2324 182.891 53.1504 183.137 52.9863C183.387 52.8184 183.512 52.5957 183.512 52.3184ZM188.639 54.1172C187.779 54.1172 187.08 53.8359 186.541 53.2734C186.002 52.707 185.732 51.9512 185.732 51.0059V50.8066C185.732 50.1777 185.852 49.6172 186.09 49.125C186.332 48.6289 186.668 48.2422 187.098 47.9648C187.531 47.6836 188 47.543 188.504 47.543C189.328 47.543 189.969 47.8145 190.426 48.3574C190.883 48.9004 191.111 49.6777 191.111 50.6895V51.1406H186.816C186.832 51.7656 187.014 52.2715 187.361 52.6582C187.713 53.041 188.158 53.2324 188.697 53.2324C189.08 53.2324 189.404 53.1543 189.67 52.998C189.936 52.8418 190.168 52.6348 190.367 52.377L191.029 52.8926C190.498 53.709 189.701 54.1172 188.639 54.1172ZM188.504 48.4336C188.066 48.4336 187.699 48.5938 187.402 48.9141C187.105 49.2305 186.922 49.6758 186.852 50.25H190.027V50.168C189.996 49.6172 189.848 49.1914 189.582 48.8906C189.316 48.5859 188.957 48.4336 188.504 48.4336ZM193.549 54H192.465V45H193.549V54ZM195.822 54V48.498H194.82V47.6602H195.822V47.0098C195.822 46.3301 196.004 45.8047 196.367 45.4336C196.73 45.0625 197.244 44.877 197.908 44.877C198.158 44.877 198.406 44.9102 198.652 44.9766L198.594 45.8555C198.41 45.8203 198.215 45.8027 198.008 45.8027C197.656 45.8027 197.385 45.9062 197.193 46.1133C197.002 46.3164 196.906 46.6094 196.906 46.9922V47.6602H198.26V48.498H196.906V54H195.822Z" fill="#603A8B"/>
</svg>
