<svg width="150" height="150" viewBox="0 0 150 150" fill="none" xmlns="http://www.w3.org/2000/svg">
<path d="M74.5922 134.376C113.59 134.376 145.203 117.088 145.203 95.7616C145.203 74.4354 113.59 57.1472 74.5922 57.1472C35.5947 57.1472 3.98096 74.4354 3.98096 95.7616C3.98096 117.088 35.5947 134.376 74.5922 134.376Z" fill="#F5F5F5"/>
<path d="M27.7569 114.798C36.0226 114.798 42.7233 110.93 42.7233 106.158C42.7233 101.387 36.0226 97.5184 27.7569 97.5184C19.4912 97.5184 12.7905 101.387 12.7905 106.158C12.7905 110.93 19.4912 114.798 27.7569 114.798Z" fill="#E0E0E0"/>
<path d="M9.40186 31.832C10.6819 31.1568 12.4195 31.288 14.3331 32.3952C15.2488 32.9361 16.0882 33.5969 16.8291 34.36C19.5331 37.0864 21.4531 41.2048 21.4531 44.7312C21.4531 49.2784 24.6531 54.8016 28.5795 57.0768L35.7059 61.1888L66.0771 43.6592L58.9603 39.544C55.0275 37.2752 51.8339 31.7456 51.8339 27.2016C51.8339 22.6576 48.6339 17.1344 44.7075 14.8624C42.7875 13.7456 41.0147 13.6272 39.7315 14.3312L39.5587 14.4272L29.5395 20.216L27.9395 21.128L9.40186 31.832Z" fill="#E6E6E6"/>
<path d="M99.4304 56.28C99.3953 56.2568 99.3541 56.2444 99.312 56.2444C99.2699 56.2444 99.2287 56.2568 99.1936 56.28L98.32 56.7888C98.2265 56.852 98.1489 56.9361 98.0934 57.0344C98.0379 57.1327 98.0059 57.2425 98 57.3552V67.6176L134.8 88.4976L136.25 77.5248L99.4304 56.28Z" fill="#263238"/>
<path d="M136.234 77.512C136.197 77.4991 136.158 77.4952 136.119 77.5008C136.081 77.5064 136.044 77.5212 136.013 77.544L135.12 78.04C135.023 78.0974 134.943 78.1804 134.89 78.28L98.0801 57.0288C98.1362 56.9312 98.2153 56.8489 98.3105 56.7888L99.1905 56.2832C99.2256 56.26 99.2668 56.2476 99.3089 56.2476C99.351 56.2476 99.3922 56.26 99.4273 56.2832L136.234 77.512Z" fill="#455A64"/>
<path d="M136.013 77.5408L135.12 78.04C135.026 78.1029 134.949 78.1869 134.893 78.2852C134.837 78.3836 134.806 78.4936 134.8 78.6064V88.488L136.336 89.3648V77.72C136.339 77.5216 136.192 77.4384 136.013 77.5408Z" fill="#37474F"/>
<path d="M134.804 88.4976V89.1728L132.503 90.1968L95.6836 68.936L97.9844 67.6176L134.804 88.4976Z" fill="black"/>
<path d="M133.271 91.528L136.013 89.928C136.107 89.8653 136.185 89.7814 136.241 89.683C136.297 89.5846 136.328 89.4745 136.333 89.3616L134.797 88.4848C134.793 88.5978 134.761 88.7079 134.705 88.8064C134.65 88.9048 134.572 88.9887 134.477 89.0512L133.597 89.56C133.418 89.6624 133.277 89.5792 133.277 89.3712L133.271 91.528Z" fill="#37474F"/>
<path d="M141.741 90.4599C141.912 90.3429 142.053 90.1876 142.153 90.0065C142.253 89.8254 142.309 89.6234 142.317 89.4167V56.2103C142.306 55.9968 142.244 55.789 142.138 55.6039C142.031 55.4187 141.882 55.2614 141.703 55.1447L99.1044 30.5495C98.9265 30.4376 98.7215 30.3763 98.5113 30.3723C98.3012 30.3682 98.094 30.4216 97.912 30.5266C97.7299 30.6316 97.58 30.7843 97.4783 30.9682C97.3766 31.1521 97.327 31.3603 97.3348 31.5703V64.7767C97.3466 64.9904 97.4087 65.1983 97.516 65.3834C97.6234 65.5686 97.7729 65.7258 97.9524 65.8423L140.56 90.4375C140.742 90.5323 140.943 90.5837 141.148 90.5876C141.353 90.5914 141.556 90.5477 141.741 90.4599Z" fill="#407BFF"/>
<path d="M141.165 56.8752V90.0816C141.165 90.472 140.89 90.632 140.551 90.4368L97.9526 65.8416C97.773 65.7251 97.6235 65.5678 97.5162 65.3827C97.4089 65.1975 97.3468 64.9897 97.335 64.776V31.5696C97.335 31.1792 97.6134 31.0192 97.9526 31.2144L140.561 55.8096C140.738 55.9273 140.885 56.0851 140.99 56.2702C141.095 56.4553 141.155 56.6626 141.165 56.8752Z" fill="#407BFF"/>
<path opacity="0.2" d="M142.317 56.2096V89.416C142.309 89.6227 142.253 89.8247 142.153 90.0058C142.053 90.1869 141.912 90.3422 141.741 90.4592C141.577 90.5388 141.398 90.583 141.215 90.5891C141.033 90.5952 140.851 90.5629 140.682 90.4944C140.957 90.584 141.165 90.424 141.165 90.0816V56.872C141.157 56.6586 141.095 56.4507 140.986 56.2672L142.135 55.6016C142.247 55.7852 142.31 55.9946 142.317 56.2096Z" fill="black"/>
<path d="M137.703 65.5312V70.7696C137.703 71.1632 137.428 71.32 137.089 71.1248L130.244 67.16C130.065 67.0436 129.916 66.8868 129.81 66.7022C129.703 66.5176 129.641 66.3105 129.629 66.0976V60.8688C129.629 60.4784 129.905 60.3184 130.244 60.5136L137.089 64.4656C137.268 64.5822 137.417 64.7396 137.523 64.9248C137.63 65.1099 137.692 65.3177 137.703 65.5312Z" fill="#455A64"/>
<path d="M128.545 61.3655L128.406 61.6066L138.785 67.6038L138.924 67.3627L128.545 61.3655Z" fill="white"/>
<path d="M135.536 65.4864H135.258V68.1552H135.536V65.4864Z" fill="white"/>
<path d="M132.077 63.4992H131.799V66.1647H132.077V63.4992Z" fill="white"/>
<path d="M128.545 64.0415L128.405 64.2825L138.784 70.2797L138.924 70.0387L128.545 64.0415Z" fill="white"/>
<path d="M137.703 75.5216V76.76C137.703 77.1536 137.428 77.3104 137.089 77.1152L130.244 73.1632C130.065 73.0468 129.916 72.89 129.81 72.7054C129.703 72.5208 129.641 72.3137 129.629 72.1008V70.856C129.629 70.4624 129.905 70.3056 130.244 70.5008L137.089 74.4528C137.268 74.5698 137.417 74.7276 137.524 74.9134C137.631 75.0991 137.692 75.3076 137.703 75.5216Z" fill="#FAFAFA"/>
<path d="M128.08 69.9696V71.2144C128.08 71.6048 127.805 71.7648 127.466 71.5696L120.621 67.6176C120.442 67.5009 120.293 67.3436 120.186 67.1584C120.08 66.9732 120.018 66.7654 120.007 66.552V65.3104C120.007 64.9168 120.282 64.7568 120.621 64.9552L127.466 68.9072C127.645 69.0235 127.793 69.1804 127.9 69.3649C128.007 69.5495 128.069 69.7567 128.08 69.9696Z" fill="#FAFAFA"/>
<path d="M118.48 64.4208V65.6656C118.48 66.056 118.205 66.216 117.866 66.0208L111.021 62.0688C110.842 61.9521 110.693 61.7948 110.586 61.6096C110.479 61.4244 110.418 61.2166 110.407 61.0032V59.7584C110.407 59.368 110.682 59.208 111.021 59.4032L117.866 63.3552C118.045 63.4722 118.193 63.6296 118.3 63.8147C118.407 63.9998 118.469 64.2074 118.48 64.4208Z" fill="#FAFAFA"/>
<path d="M108.88 58.872V60.12C108.88 60.5136 108.605 60.6736 108.266 60.4752L101.421 56.5264C101.242 56.4092 101.094 56.2517 100.987 56.0666C100.88 55.8816 100.819 55.6741 100.807 55.4608V54.216C100.807 53.8256 101.082 53.6656 101.421 53.8608L108.266 57.8128C108.444 57.9288 108.593 58.0851 108.699 58.2691C108.806 58.4531 108.868 58.6596 108.88 58.872Z" fill="#FAFAFA"/>
<path opacity="0.15" d="M104.624 60.3728L106.196 61.2784C106.303 61.349 106.392 61.4436 106.455 61.5548C106.519 61.6659 106.556 61.7904 106.564 61.9184V62.3984C106.564 62.632 106.397 62.7184 106.196 62.6096L104.624 61.72C104.517 61.6495 104.428 61.5549 104.364 61.4438C104.3 61.3326 104.263 61.208 104.256 61.08V60.6C104.256 60.3504 104.423 60.2544 104.624 60.3728Z" fill="black"/>
<path opacity="0.15" d="M101.165 58.376L102.733 59.2816C102.841 59.3515 102.931 59.4459 102.996 59.5571C103.06 59.6683 103.097 59.7932 103.105 59.9216V60.4016C103.105 60.6384 102.938 60.7216 102.733 60.616L101.165 59.7104C101.058 59.6403 100.968 59.5458 100.905 59.4346C100.841 59.3233 100.804 59.1985 100.797 59.0704V58.5904C100.797 58.3536 100.961 58.2576 101.165 58.376Z" fill="black"/>
<path opacity="0.15" d="M120.973 73.1408L101.453 61.864C101.114 61.6688 100.839 61.8256 100.839 62.2192V62.7952C100.85 63.0087 100.912 63.2164 101.018 63.4016C101.125 63.5868 101.274 63.7441 101.453 63.8608L120.973 75.1376C121.312 75.3328 121.588 75.176 121.588 74.7824V74.2C121.575 73.9876 121.513 73.7811 121.407 73.5971C121.3 73.4132 121.152 73.2568 120.973 73.1408Z" fill="black"/>
<path d="M101.332 40.616C101.055 40.085 100.916 39.493 100.928 38.8944C100.928 38.2544 101.06 37.8256 101.322 37.6336C101.584 37.4416 101.962 37.4928 102.455 37.7744C102.655 37.8899 102.843 38.0261 103.015 38.1808C103.176 38.3223 103.319 38.4836 103.44 38.6608C103.466 38.694 103.48 38.7342 103.482 38.776C103.483 38.8048 103.474 38.8332 103.456 38.856L103.309 39.1152C103.29 39.144 103.271 39.1536 103.252 39.1408C103.222 39.1216 103.197 39.0965 103.178 39.0672C103.006 38.8346 102.788 38.6396 102.538 38.4944C102.247 38.328 102.02 38.3088 101.86 38.44C101.7 38.5712 101.62 38.856 101.62 39.2976C101.609 39.693 101.695 40.085 101.869 40.44C102.023 40.7445 102.262 40.998 102.557 41.1696C102.753 41.3056 102.989 41.37 103.226 41.352C103.25 41.3448 103.276 41.3448 103.3 41.352C103.319 41.352 103.338 41.384 103.357 41.448L103.524 41.9216C103.532 41.9464 103.538 41.9722 103.54 41.9984C103.54 42.0208 103.524 42.04 103.488 42.0528C103.268 42.136 102.928 42.0528 102.468 41.7808C101.988 41.5064 101.594 41.1028 101.332 40.616Z" fill="white"/>
<path d="M103.927 42.4848C103.894 42.4205 103.878 42.3488 103.882 42.2768V38.9296C103.882 38.8496 103.882 38.7952 103.927 38.7696C103.971 38.744 104.003 38.7536 104.071 38.792L105.143 39.4096C105.479 39.5901 105.758 39.8616 105.948 40.1932C106.137 40.5249 106.23 40.9031 106.215 41.2848C106.227 41.4939 106.184 41.7026 106.09 41.8896C106.052 41.9552 105.996 42.0092 105.93 42.0459C105.863 42.0825 105.788 42.1004 105.712 42.0976L106.157 43.6528C106.161 43.6814 106.161 43.7105 106.157 43.7392C106.157 43.8064 106.128 43.8224 106.067 43.7872L105.597 43.5184C105.564 43.4999 105.535 43.4761 105.511 43.448C105.484 43.4132 105.467 43.3726 105.459 43.3296L105.082 41.88L104.579 41.5888V42.696C104.587 42.7517 104.572 42.808 104.538 42.8528C104.509 42.8784 104.458 42.8528 104.387 42.8272L104.067 42.6448C104.005 42.6076 103.955 42.5516 103.927 42.4848ZM105.04 41.1696C105.2 41.2624 105.322 41.2848 105.402 41.2432C105.482 41.2016 105.523 41.0768 105.523 40.8816C105.529 40.7115 105.49 40.5428 105.411 40.392C105.336 40.2577 105.226 40.1469 105.091 40.072L104.589 39.7808V40.9072L105.04 41.1696Z" fill="white"/>
<path d="M106.608 44.0336C106.576 43.9693 106.56 43.8976 106.563 43.8256V40.4784C106.563 40.3952 106.563 40.344 106.608 40.3184C106.653 40.2928 106.685 40.3024 106.752 40.3408L108.509 41.3552C108.568 41.3851 108.617 41.4319 108.65 41.4896C108.678 41.554 108.691 41.6241 108.688 41.6944V41.9024C108.696 41.9606 108.682 42.0196 108.65 42.0688C108.624 42.0912 108.576 42.0688 108.509 42.0432L107.261 41.3232V42.2L108.131 42.7056C108.191 42.7338 108.24 42.7796 108.272 42.8368C108.301 42.9023 108.314 42.9734 108.311 43.0448V43.24C108.318 43.2982 108.304 43.3573 108.272 43.4064C108.247 43.4288 108.202 43.4064 108.131 43.3808L107.261 42.8784V43.8L108.506 44.52C108.564 44.5496 108.612 44.5965 108.643 44.6544C108.671 44.72 108.685 44.7911 108.682 44.8624V45.0672C108.682 45.1536 108.682 45.208 108.643 45.2272C108.605 45.2464 108.573 45.2272 108.506 45.2016L106.752 44.1904C106.689 44.1546 106.639 44.0997 106.608 44.0336Z" fill="white"/>
<path d="M109.037 45.4352C109.004 45.3709 108.989 45.2992 108.992 45.2272V41.88C108.992 41.8 108.992 41.7456 109.037 41.72C109.082 41.6944 109.114 41.704 109.181 41.7424L110.071 42.2576C110.532 42.5147 110.913 42.8946 111.171 43.3552C111.436 43.8712 111.565 44.446 111.546 45.0256C111.546 45.6656 111.421 46.0912 111.165 46.2576C110.909 46.424 110.547 46.3664 110.071 46.0912L109.181 45.5792C109.12 45.5467 109.069 45.4966 109.037 45.4352ZM110.103 45.4352C110.355 45.5792 110.541 45.5952 110.666 45.48C110.791 45.3648 110.851 45.0832 110.851 44.632C110.868 44.2695 110.805 43.9078 110.666 43.5728C110.545 43.3189 110.348 43.1088 110.103 42.9712L109.69 42.7312V45.1952L110.103 45.4352Z" fill="white"/>
<path d="M111.939 47.112C111.907 47.0466 111.891 46.9739 111.894 46.9008V43.5568C111.894 43.4736 111.894 43.4224 111.939 43.3968C111.984 43.3712 112.016 43.3808 112.083 43.4192L112.403 43.6016C112.466 43.6348 112.518 43.6847 112.554 43.7456C112.583 43.8133 112.597 43.8864 112.595 43.96V47.32C112.602 47.3767 112.587 47.4339 112.554 47.48C112.525 47.5024 112.474 47.496 112.403 47.4544L112.083 47.272C112.02 47.2344 111.97 47.1786 111.939 47.112Z" fill="white"/>
<path d="M113.77 48.168C113.738 48.1033 113.723 48.0319 113.725 47.96V45.0544L113.04 44.6544C112.982 44.6247 112.934 44.5778 112.903 44.52C112.874 44.4556 112.861 44.3855 112.864 44.3152V44.12C112.857 44.0617 112.87 44.0027 112.903 43.9536C112.928 43.9312 112.973 43.9536 113.04 43.9792L115.13 45.1856C115.189 45.2176 115.239 45.2651 115.274 45.3232C115.302 45.3899 115.315 45.462 115.312 45.5344V45.72C115.312 45.8032 115.312 45.8544 115.274 45.8768C115.235 45.8992 115.197 45.8768 115.13 45.8512L114.435 45.4512V48.3568C114.435 48.44 114.435 48.4912 114.394 48.5136C114.352 48.536 114.314 48.5136 114.243 48.4848L113.923 48.3056C113.86 48.2751 113.807 48.2274 113.77 48.168Z" fill="white"/>
<path d="M117.408 49.896C117.132 49.366 116.993 48.7751 117.005 48.1776C117.005 47.5376 117.136 47.1056 117.399 46.9168C117.661 46.728 118.039 46.7728 118.531 47.0576C118.732 47.172 118.919 47.3071 119.091 47.4608C119.251 47.6039 119.394 47.765 119.517 47.9408C119.542 47.9742 119.556 48.0143 119.559 48.056C119.561 48.0849 119.551 48.1135 119.533 48.136L119.386 48.3952C119.367 48.4272 119.347 48.4368 119.325 48.424C119.298 48.4021 119.274 48.3762 119.255 48.3472C119.082 48.1158 118.864 47.922 118.615 47.7776C118.327 47.608 118.099 47.592 117.939 47.7232C117.779 47.8544 117.696 48.1392 117.696 48.5776C117.687 48.9743 117.773 49.3674 117.949 49.7232C118.105 50.0265 118.343 50.2795 118.637 50.4528C118.834 50.5862 119.069 50.6504 119.306 50.6352C119.328 50.6263 119.354 50.6263 119.376 50.6352C119.405 50.6608 119.426 50.6941 119.437 50.7312L119.6 51.2048C119.611 51.229 119.618 51.2551 119.619 51.2816C119.619 51.304 119.6 51.3232 119.568 51.3392C119.347 51.4224 119.008 51.3392 118.547 51.064C118.065 50.79 117.67 50.3851 117.408 49.896Z" fill="white"/>
<path d="M119.76 51.5952C119.758 51.5686 119.758 51.5418 119.76 51.5152L120.858 48.6672C120.877 48.6128 120.9 48.5808 120.922 48.5712C120.94 48.5672 120.959 48.5672 120.977 48.571C120.995 48.5749 121.013 48.5826 121.028 48.5936L121.348 48.7728C121.39 48.7953 121.425 48.8284 121.45 48.8688C121.478 48.9224 121.5 48.9794 121.514 49.0384L122.608 53.1504C122.613 53.1833 122.613 53.2166 122.608 53.2496C122.608 53.3136 122.583 53.3296 122.532 53.3008L122.02 53.0032C121.986 52.9846 121.957 52.9596 121.933 52.9296C121.91 52.8922 121.894 52.8511 121.885 52.808L121.69 52.0304L120.663 51.4352L120.471 51.992C120.471 52.0304 120.442 52.0496 120.423 52.056C120.408 52.0582 120.392 52.0573 120.377 52.0535C120.363 52.0496 120.349 52.0429 120.336 52.0336L119.824 51.736C119.802 51.7208 119.784 51.6995 119.772 51.6747C119.761 51.6498 119.757 51.6223 119.76 51.5952ZM121.543 51.2752L121.2 49.88L120.845 50.8944L121.543 51.2752Z" fill="white"/>
<path d="M123.028 53.512C122.995 53.4478 122.979 53.376 122.983 53.304V49.96C122.983 49.8768 122.983 49.8224 123.028 49.8C123.073 49.7776 123.105 49.7808 123.172 49.8224L124.244 50.44C124.581 50.6186 124.862 50.8892 125.052 51.2205C125.242 51.5518 125.335 51.9303 125.319 52.312C125.331 52.5214 125.287 52.7301 125.191 52.9168C125.153 52.9824 125.097 53.0364 125.031 53.073C124.964 53.1097 124.889 53.1276 124.813 53.1248L125.258 54.68C125.262 54.7086 125.262 54.7377 125.258 54.7664C125.258 54.8336 125.229 54.8496 125.169 54.8176L124.698 54.5456C124.665 54.528 124.636 54.5041 124.612 54.4752C124.587 54.4406 124.57 54.4014 124.561 54.36L124.17 52.8944L123.668 52.6032V53.72C123.674 53.7766 123.66 53.8338 123.626 53.88C123.597 53.9024 123.546 53.88 123.476 53.8512L123.156 53.6688C123.098 53.6305 123.054 53.5758 123.028 53.512ZM124.141 52.1968C124.301 52.2896 124.423 52.3152 124.503 52.2704C124.583 52.2256 124.625 52.1072 124.625 51.912C124.63 51.7408 124.592 51.571 124.513 51.4192C124.438 51.2849 124.327 51.1741 124.193 51.0992L123.69 50.808V51.9376L124.141 52.1968Z" fill="white"/>
<path d="M125.709 55.0608C125.678 54.9961 125.662 54.9247 125.664 54.8528V51.5088C125.661 51.48 125.663 51.4507 125.67 51.4227C125.678 51.3947 125.691 51.3685 125.709 51.3456C125.738 51.3232 125.786 51.3296 125.853 51.368L126.743 51.8832C127.204 52.1403 127.585 52.5202 127.844 52.9808C128.108 53.4969 128.237 54.0717 128.218 54.6512C128.218 55.3072 128.093 55.7168 127.837 55.8832C127.581 56.0496 127.22 55.992 126.743 55.7168L125.853 55.2048C125.792 55.1723 125.742 55.1222 125.709 55.0608ZM126.778 55.0608C127.028 55.2048 127.216 55.2208 127.338 55.1056C127.46 54.9904 127.527 54.7088 127.527 54.2576C127.543 53.8949 127.479 53.5331 127.338 53.1984C127.218 52.9448 127.022 52.7346 126.778 52.5968L126.362 52.3568V54.8208L126.778 55.0608Z" fill="white"/>
<path opacity="0.5" d="M142.134 55.6016L140.986 56.28C140.881 56.0935 140.731 55.9362 140.55 55.8224L97.9488 31.2144C97.6288 31.0384 97.3856 31.1536 97.3408 31.4704C97.3493 31.2689 97.4107 31.0733 97.5188 30.9031C97.6268 30.7329 97.7778 30.5941 97.9564 30.5007C98.1351 30.4073 98.3352 30.3626 98.5367 30.371C98.7381 30.3795 98.9338 30.4408 99.104 30.5488L141.702 55.144C141.884 55.2561 142.033 55.4139 142.134 55.6016Z" fill="#FAFAFA"/>
<path d="M133.175 79.2976L129.533 81.2784C129.472 81.4166 129.439 81.5657 129.437 81.7168V93.3616C129.435 93.3964 129.44 93.4314 129.451 93.4643C129.463 93.4973 129.481 93.5277 129.504 93.5536L92.7042 72.3152C92.6709 72.2924 92.6445 72.261 92.6276 72.2244C92.6107 72.1878 92.604 72.1473 92.6082 72.1072V60.4592C92.614 60.3464 92.646 60.2366 92.7015 60.1383C92.7571 60.0401 92.8346 59.956 92.9282 59.8928L96.1122 58.0496C96.1455 58.0235 96.1859 58.008 96.2281 58.0052C96.2703 58.0023 96.3124 58.0122 96.349 58.0336L133.175 79.2976Z" fill="#263238"/>
<path opacity="0.5" d="M133.178 79.2944L99.5237 59.8576L97.9877 58.9712L96.3653 58.0336C96.3288 58.0122 96.2866 58.0023 96.2444 58.0052C96.2022 58.008 96.1618 58.0235 96.1285 58.0496L92.9445 59.8928C92.8486 59.9524 92.7702 60.0363 92.7173 60.136L129.536 81.2752L133.178 79.2944Z" fill="#37474F"/>
<path d="M129.533 81.2784C129.471 81.4188 129.437 81.5699 129.434 81.7232V93.368C129.434 93.576 129.581 93.6592 129.754 93.5568L133.274 91.528V79.5088C133.278 79.4682 133.272 79.4271 133.255 79.3898C133.238 79.3526 133.211 79.3207 133.178 79.2976L129.533 81.2784Z" fill="#37474F"/>
<path d="M129.795 93.5248L129.92 93.464L130.461 93.144C130.984 92.4937 131.27 91.6843 131.271 90.8496V81.0096C131.268 80.7939 131.241 80.5792 131.191 80.3696L130.899 80.5296C130.932 80.6854 130.949 80.844 130.951 81.0032V90.8496C130.892 91.8493 130.483 92.7964 129.795 93.5248Z" fill="#263238"/>
<path d="M88.5091 46.8336C87.2675 45.8288 85.0083 44.5264 83.6195 43.7264C81.2835 42.3728 72.5507 37.3264 68.8995 35.2176C68.3928 34.9604 67.8325 34.8263 67.2643 34.8263C66.696 34.8263 66.1358 34.9604 65.6291 35.2176L35.8691 52.408C35.3937 52.7189 34.9981 53.1372 34.7141 53.6291C34.43 54.1211 34.2655 54.6728 34.2339 55.24V73.24C34.2658 73.8075 34.4304 74.3596 34.7144 74.852C34.9983 75.3444 35.3938 75.7633 35.8691 76.0752L96.3011 111C96.8082 111.256 97.3683 111.389 97.9363 111.389C98.5043 111.389 99.0643 111.256 99.5715 111L129.331 93.816C129.807 93.5022 130.203 93.0809 130.485 92.5862C130.768 92.0914 130.931 91.5371 130.96 90.968V80.824C130.963 80.3288 130.85 79.8399 130.631 79.3956C130.412 78.9514 130.093 78.564 129.699 78.264C122.871 73.0768 90.4931 48.4368 88.5091 46.8336Z" fill="#455A64"/>
<path d="M130.96 90.968V81.1216C130.96 80.9232 130.936 80.7256 130.89 80.5328L97.8528 99.576C97.9022 99.7804 97.929 99.9897 97.9328 100.2V110.04C97.9328 111 97.3248 111.419 96.5376 111.099H96.56C96.6336 111.131 96.7072 111.16 96.784 111.186L96.9312 111.23C97.0112 111.253 97.0912 111.272 97.1744 111.288C97.2576 111.304 97.2832 111.307 97.3376 111.317L97.584 111.349H97.7696H98.0032H98.2112L98.4224 111.333C98.4992 111.333 98.576 111.307 98.6528 111.291L98.832 111.259C98.9152 111.237 98.9984 111.208 99.0784 111.182C99.1584 111.157 99.1744 111.157 99.2192 111.138C99.3238 111.097 99.4253 111.049 99.5232 110.994C99.539 110.988 99.5541 110.981 99.568 110.971L129.328 93.7872L129.757 93.544C130.463 92.8639 130.892 91.946 130.96 90.968Z" fill="#37474F"/>
<path d="M55.4786 65.9088C61.0594 70.4144 90.205 92.4688 96.6626 97.352C97.06 97.6501 97.3826 98.0366 97.6047 98.4809C97.8269 98.9253 97.9426 99.4152 97.9426 99.912V110.04C97.9426 111.08 97.2066 111.506 96.3074 111L35.853 76.088C35.3777 75.7762 34.9822 75.3572 34.6982 74.8649C34.4143 74.3725 34.2497 73.8203 34.2178 73.2528V55.24C34.2178 54.2 34.9538 53.7744 35.853 54.296L50.573 62.7952C51.9714 63.5984 54.2306 64.9008 55.4786 65.9088Z" fill="#263238"/>
<path d="M55.2993 60.0752C56.6881 60.8752 58.9473 62.1776 60.1985 63.1888C61.4064 64.1842 62.552 65.2529 63.6289 66.3888C63.864 66.6177 64.1655 66.7663 64.4903 66.8135C64.815 66.8606 65.1464 66.8038 65.4369 66.6512L87.0305 54.1712C87.1579 54.1088 87.2681 54.0163 87.3515 53.9017C87.435 53.787 87.4892 53.6537 87.5093 53.5133C87.5295 53.373 87.5151 53.2298 87.4673 53.0963C87.4196 52.9627 87.3399 52.8429 87.2353 52.7472C86.1548 51.6115 85.006 50.5429 83.7953 49.5472C82.5505 48.5424 80.2913 47.2432 78.9025 46.44C76.2593 44.9104 73.2929 43.1984 70.6209 41.6592C70.3086 41.5022 69.964 41.4204 69.6145 41.4204C69.265 41.4204 68.9203 41.5022 68.6081 41.6592L47.0241 54.1328C46.4705 54.4528 46.4705 54.9744 47.0241 55.2944L55.2993 60.0752Z" fill="#E0E0E0"/>
<path d="M68.608 42.6896C68.9202 42.5325 69.2649 42.4508 69.6144 42.4508C69.9639 42.4508 70.3086 42.5325 70.6208 42.6896C73.2928 44.2288 76.2592 45.9408 78.9024 47.4704C80.2912 48.2736 82.5504 49.576 83.7952 50.5808C85.006 51.5763 86.1548 52.645 87.2352 53.7808C87.274 53.8215 87.3093 53.8653 87.3408 53.912C87.2539 54.0236 87.145 54.1162 87.0208 54.184L65.4272 66.664C65.1367 66.8166 64.8054 66.8734 64.4806 66.8262C64.1559 66.7791 63.8543 66.6305 63.6192 66.4016C62.5423 65.2657 61.3967 64.197 60.1888 63.2016C58.9376 62.1904 56.6688 60.888 55.2896 60.088L47.024 55.2944C46.9856 55.272 46.9568 55.2464 46.9248 55.224C46.956 55.198 46.9892 55.1744 47.024 55.1536L68.608 42.6896Z" fill="white"/>
<path d="M68.9637 59.144L62.5029 59.0448V56.4656L67.1301 57.304L67.0693 47.0544L71.0917 46.9904L68.9637 59.144Z" fill="#407BFF"/>
<path d="M87.6737 59.4224L87.8881 58.5328L88.7841 58.4592L91.7121 56.7696C93.1009 55.9696 94.9409 56.1296 95.8369 57.1248C96.0268 57.3321 96.166 57.5808 96.2433 57.8512L96.4961 57.8288L96.2689 58.7728C96.1685 59.1074 96.002 59.4185 95.7795 59.6878C95.5569 59.9571 95.2826 60.1791 94.9729 60.3408L91.4081 62.3952C91.1184 62.5501 90.7868 62.6086 90.4616 62.562C90.1364 62.5153 89.8346 62.3661 89.6001 62.136C89.0369 61.5344 88.4737 60.9104 87.9105 60.2768C87.8034 60.1651 87.7257 60.0286 87.6843 59.8794C87.643 59.7303 87.6394 59.5732 87.6737 59.4224Z" fill="#407BFF"/>
<path opacity="0.1" d="M87.6737 59.4224L87.8881 58.5328L88.7841 58.4592L91.7121 56.7696C93.1009 55.9696 94.9409 56.1296 95.8369 57.1248C96.0268 57.3321 96.166 57.5808 96.2433 57.8512L96.4961 57.8288L96.2689 58.7728C96.1685 59.1074 96.002 59.4185 95.7795 59.6878C95.5569 59.9571 95.2826 60.1791 94.9729 60.3408L91.4081 62.3952C91.1184 62.5501 90.7868 62.6086 90.4616 62.562C90.1364 62.5153 89.8346 62.3661 89.6001 62.136C89.0369 61.5344 88.4737 60.9104 87.9105 60.2768C87.8034 60.1651 87.7257 60.0286 87.6843 59.8794C87.643 59.7303 87.6394 59.5732 87.6737 59.4224Z" fill="black"/>
<path d="M91.6004 61.5088L95.1652 59.4512C96.5572 58.648 96.9284 57.2112 96.0324 56.232C95.1364 55.2528 93.2964 55.0768 91.9076 55.8768L88.3428 57.9344C88.2147 57.999 88.1037 58.093 88.0188 58.2086C87.9338 58.3243 87.8774 58.4583 87.854 58.5999C87.8306 58.7414 87.841 58.8865 87.8842 59.0233C87.9274 59.1601 88.0023 59.2848 88.1028 59.3872C88.666 60.0272 89.2302 60.6469 89.7956 61.2464C90.0292 61.4768 90.3303 61.6265 90.6549 61.6737C90.9796 61.7209 91.3108 61.6631 91.6004 61.5088Z" fill="#407BFF"/>
<path d="M69.4432 70.5136L69.6608 69.6112L69.9136 69.5888C70.1556 69.2984 70.4484 69.0545 70.7776 68.8688L74.3424 66.8112C74.6296 66.6579 74.9592 66.6031 75.2806 66.6552C75.6019 66.7072 75.8974 66.8632 76.1216 67.0992C76.6752 67.7232 77.2288 68.3376 77.7824 68.9328L78.2848 68.8912L78.0576 69.8288C77.9858 70.0637 77.825 70.2612 77.6096 70.3792L74.0448 72.4368C72.6528 73.24 70.7744 73.112 69.8848 72.1168C69.6843 71.907 69.539 71.6507 69.4619 71.3709C69.3848 71.091 69.3784 70.7965 69.4432 70.5136Z" fill="#407BFF"/>
<path opacity="0.1" d="M69.4432 70.5136L69.6608 69.6112L69.9136 69.5888C70.1556 69.2984 70.4484 69.0545 70.7776 68.8688L74.3424 66.8112C74.6296 66.6579 74.9592 66.6031 75.2806 66.6552C75.6019 66.7072 75.8974 66.8632 76.1216 67.0992C76.6752 67.7232 77.2288 68.3376 77.7824 68.9328L78.2848 68.8912L78.0576 69.8288C77.9858 70.0637 77.825 70.2612 77.6096 70.3792L74.0448 72.4368C72.6528 73.24 70.7744 73.112 69.8848 72.1168C69.6843 71.907 69.539 71.6507 69.4619 71.3709C69.3848 71.091 69.3784 70.7965 69.4432 70.5136Z" fill="black"/>
<path d="M74.2465 71.5408L77.8113 69.4832C77.9381 69.4203 78.0477 69.3275 78.1307 69.2128C78.2137 69.0982 78.2676 68.9651 78.2877 68.825C78.3079 68.6849 78.2937 68.542 78.2463 68.4086C78.199 68.2752 78.12 68.1553 78.0161 68.0592C77.4529 67.4544 76.8929 66.8336 76.3297 66.2C76.1058 65.9634 75.8106 65.8069 75.4892 65.7543C75.1678 65.7017 74.838 65.7559 74.5505 65.9088L70.9857 67.9664C69.5969 68.7696 69.1777 70.2352 70.0769 71.224C70.9761 72.2128 72.8577 72.3408 74.2465 71.5408Z" fill="#407BFF"/>
<path d="M78.3653 64.8816L78.5765 64.0016L79.2613 63.9568L83.5269 61.4928C83.8862 61.3018 84.2982 61.2338 84.6998 61.2991C85.1014 61.3644 85.4706 61.5594 85.7509 61.8544C86.1776 62.3408 86.6096 62.8176 87.0469 63.2848C87.0891 63.3319 87.1276 63.3822 87.1621 63.4352L87.5877 63.4096L87.3669 64.328C87.328 64.483 87.2572 64.6281 87.1592 64.7543C87.0611 64.8804 86.9379 64.9848 86.7973 65.0608L82.2245 67.6976C81.8636 67.8921 81.4499 67.966 81.0439 67.9084C80.638 67.8508 80.2611 67.6648 79.9685 67.3776C79.5365 66.9104 79.1013 66.4336 78.6693 65.9472C78.5346 65.8085 78.4364 65.6385 78.3833 65.4526C78.3303 65.2667 78.3241 65.0705 78.3653 64.8816Z" fill="#407BFF"/>
<path opacity="0.1" d="M78.3653 64.8816L78.5765 64.0016L79.2613 63.9568L83.5269 61.4928C83.8862 61.3018 84.2982 61.2338 84.6998 61.2991C85.1014 61.3644 85.4706 61.5594 85.7509 61.8544C86.1776 62.3408 86.6096 62.8176 87.0469 63.2848C87.0891 63.3319 87.1276 63.3822 87.1621 63.4352L87.5877 63.4096L87.3669 64.328C87.328 64.483 87.2572 64.6281 87.1592 64.7543C87.0611 64.8804 86.9379 64.9848 86.7973 65.0608L82.2245 67.6976C81.8636 67.8921 81.4499 67.966 81.0439 67.9084C80.638 67.8508 80.2611 67.6648 79.9685 67.3776C79.5365 66.9104 79.1013 66.4336 78.6693 65.9472C78.5346 65.8085 78.4364 65.6385 78.3833 65.4526C78.3303 65.2667 78.3241 65.0705 78.3653 64.8816Z" fill="black"/>
<path d="M78.8708 65.0544C79.3028 65.5408 79.738 66.0144 80.17 66.4848C80.4625 66.772 80.8394 66.958 81.2454 67.0156C81.6513 67.0732 82.065 66.9993 82.426 66.8048L86.9988 64.168C87.1569 64.0892 87.2936 63.9733 87.3972 63.8302C87.5008 63.6871 87.5683 63.521 87.5937 63.3462C87.6192 63.1713 87.602 62.9929 87.5435 62.8262C87.485 62.6595 87.387 62.5094 87.258 62.3888C86.826 61.9216 86.394 61.4288 85.962 60.9552C85.6816 60.6603 85.3122 60.4655 84.9104 60.4008C84.5087 60.336 84.0968 60.4049 83.738 60.5968L79.1684 63.2336C79.0075 63.3143 78.868 63.432 78.7614 63.5771C78.6547 63.7221 78.584 63.8904 78.555 64.068C78.5259 64.2457 78.5394 64.4277 78.5943 64.5992C78.6492 64.7706 78.7439 64.9266 78.8708 65.0544Z" fill="#407BFF"/>
<g opacity="0.75">
<path opacity="0.75" d="M91.5999 61.5088L95.1647 59.4512C96.5567 58.648 96.9279 57.2112 96.0319 56.232C95.1359 55.2528 93.2959 55.0768 91.9071 55.8768L88.3423 57.9344C88.2142 57.999 88.1032 58.093 88.0183 58.2086C87.9333 58.3243 87.8769 58.4583 87.8535 58.5999C87.8301 58.7414 87.8405 58.8865 87.8837 59.0233C87.9269 59.1601 88.0018 59.2848 88.1023 59.3872C88.6655 60.0272 89.2297 60.6469 89.7951 61.2464C90.0287 61.4768 90.3298 61.6265 90.6544 61.6737C90.9791 61.7209 91.3104 61.6631 91.5999 61.5088Z" fill="white"/>
<path opacity="0.75" d="M74.2465 71.5408L77.8113 69.4832C77.9381 69.4203 78.0477 69.3275 78.1307 69.2128C78.2137 69.0982 78.2676 68.9651 78.2877 68.825C78.3079 68.6849 78.2937 68.542 78.2463 68.4086C78.199 68.2752 78.12 68.1553 78.0161 68.0592C77.4529 67.4544 76.8929 66.8336 76.3297 66.2C76.1058 65.9634 75.8106 65.8068 75.4892 65.7542C75.1678 65.7016 74.838 65.7559 74.5505 65.9088L70.9857 67.9664C69.5969 68.7696 69.1777 70.2352 70.0769 71.224C70.9761 72.2128 72.8577 72.3408 74.2465 71.5408Z" fill="white"/>
<path opacity="0.75" d="M78.8703 65.0544C79.3023 65.5408 79.7375 66.0144 80.1695 66.4848C80.4621 66.772 80.8389 66.958 81.2449 67.0156C81.6508 67.0732 82.0645 66.9993 82.4255 66.8048L86.9983 64.168C87.1564 64.0892 87.2931 63.9733 87.3967 63.8302C87.5003 63.6871 87.5678 63.521 87.5932 63.3462C87.6187 63.1713 87.6015 62.9929 87.543 62.8262C87.4845 62.6595 87.3866 62.5094 87.2575 62.3888C86.8255 61.9216 86.3935 61.4288 85.9615 60.9552C85.6811 60.6603 85.3117 60.4655 84.9099 60.4008C84.5082 60.336 84.0963 60.4049 83.7375 60.5968L79.1679 63.2336C79.007 63.3143 78.8675 63.432 78.7609 63.5771C78.6542 63.7221 78.5835 63.8904 78.5545 64.068C78.5254 64.2457 78.5389 64.4277 78.5938 64.5992C78.6487 64.7706 78.7434 64.9266 78.8703 65.0544Z" fill="white"/>
</g>
<path d="M85.8048 74.9296L84.864 74.952L82.2304 72.9424C81.998 72.7819 81.7264 72.6877 81.4446 72.6696C81.1628 72.6516 80.8814 72.7105 80.6304 72.84L76.6048 75.16L75.3408 75.192V76.2224C75.3465 76.3257 75.376 76.4262 75.4271 76.5162C75.4781 76.6061 75.5494 76.683 75.6352 76.7408L78.912 79.2432C79.1447 79.403 79.4162 79.4968 79.6979 79.5149C79.9796 79.5329 80.2609 79.4744 80.512 79.3456L85.4368 76.504C85.541 76.4546 85.6299 76.3779 85.6941 76.2822C85.7583 76.1864 85.7955 76.0751 85.8016 75.96L85.8048 74.9296Z" fill="#407BFF"/>
<path opacity="0.1" d="M85.8048 74.9296L84.864 74.952L82.2304 72.9424C81.998 72.7819 81.7264 72.6877 81.4446 72.6696C81.1628 72.6516 80.8814 72.7105 80.6304 72.84L76.6048 75.16L75.3408 75.192V76.2224C75.3465 76.3257 75.376 76.4262 75.4271 76.5162C75.4781 76.6061 75.5494 76.683 75.6352 76.7408L78.912 79.2432C79.1447 79.403 79.4162 79.4968 79.6979 79.5149C79.9796 79.5329 80.2609 79.4744 80.512 79.3456L85.4368 76.504C85.541 76.4546 85.6299 76.3779 85.6941 76.2822C85.7583 76.1864 85.7955 76.0751 85.8016 75.96L85.8048 74.9296Z" fill="black"/>
<path d="M75.7056 74.648L80.6336 71.8096C80.8845 71.6801 81.166 71.6212 81.4478 71.6392C81.7296 71.6573 82.0012 71.7516 82.2336 71.912L85.52 74.4144C85.6166 74.4689 85.6958 74.5497 85.7485 74.6473C85.8012 74.7449 85.8253 74.8554 85.818 74.9661C85.8106 75.0768 85.7721 75.1832 85.707 75.273C85.6418 75.3627 85.5526 75.4323 85.4496 75.4736L80.5248 78.3152C80.2737 78.444 79.9924 78.5025 79.7107 78.4845C79.429 78.4664 79.1575 78.3726 78.9248 78.2128L75.648 75.7104C75.5521 75.6556 75.4734 75.5752 75.4206 75.4783C75.3678 75.3814 75.343 75.2716 75.349 75.1614C75.355 75.0512 75.3915 74.9448 75.4545 74.8541C75.5174 74.7635 75.6044 74.6921 75.7056 74.648Z" fill="#407BFF"/>
<path opacity="0.75" d="M75.7056 74.648L80.6336 71.8096C80.8845 71.6801 81.166 71.6212 81.4478 71.6392C81.7296 71.6573 82.0012 71.7516 82.2336 71.912L85.52 74.4144C85.6166 74.4689 85.6958 74.5497 85.7485 74.6473C85.8012 74.7449 85.8253 74.8554 85.818 74.9661C85.8106 75.0768 85.7721 75.1832 85.707 75.273C85.6418 75.3627 85.5526 75.4323 85.4496 75.4736L80.5248 78.3152C80.2737 78.444 79.9924 78.5025 79.7107 78.4845C79.429 78.4664 79.1575 78.3726 78.9248 78.2128L75.648 75.7104C75.5521 75.6556 75.4734 75.5752 75.4206 75.4783C75.3678 75.3814 75.343 75.2716 75.349 75.1614C75.355 75.0512 75.3915 74.9448 75.4545 74.8541C75.5174 74.7635 75.6044 74.6921 75.7056 74.648Z" fill="white"/>
<path d="M105.04 89.5952L104.1 89.6208L101.466 87.608C101.233 87.4482 100.962 87.3543 100.68 87.3363C100.398 87.3183 100.117 87.3768 99.866 87.5056L95.8372 89.8288L94.5732 89.8576V90.888C94.5781 90.9915 94.6073 91.0923 94.6585 91.1824C94.7096 91.2724 94.7813 91.3492 94.8676 91.4064L98.1444 93.9088C98.3768 94.0692 98.6484 94.1635 98.9303 94.1815C99.2121 94.1996 99.4935 94.1407 99.7444 94.0112L104.656 91.16C104.76 91.1099 104.849 91.0326 104.913 90.9362C104.976 90.8399 105.013 90.7281 105.018 90.6128L105.04 89.5952Z" fill="#407BFF"/>
<path opacity="0.1" d="M105.04 89.5952L104.1 89.6208L101.466 87.608C101.233 87.4482 100.962 87.3543 100.68 87.3363C100.398 87.3183 100.117 87.3768 99.866 87.5056L95.8372 89.8288L94.5732 89.8576V90.888C94.5781 90.9915 94.6073 91.0923 94.6585 91.1824C94.7096 91.2724 94.7813 91.3492 94.8676 91.4064L98.1444 93.9088C98.3768 94.0692 98.6484 94.1635 98.9303 94.1815C99.2121 94.1996 99.4935 94.1407 99.7444 94.0112L104.656 91.16C104.76 91.1099 104.849 91.0326 104.913 90.9362C104.976 90.8399 105.013 90.7281 105.018 90.6128L105.04 89.5952Z" fill="black"/>
<path d="M94.9251 89.3136L99.8531 86.4752C100.104 86.3463 100.386 86.2879 100.667 86.3059C100.949 86.3239 101.22 86.4178 101.453 86.5776L104.72 89.08C104.817 89.135 104.896 89.2161 104.948 89.3139C105.001 89.4118 105.025 89.5224 105.017 89.6332C105.01 89.744 104.972 89.8505 104.907 89.9405C104.842 90.0306 104.753 90.1005 104.65 90.1424L99.7219 92.9808C99.471 93.1103 99.1896 93.1692 98.9078 93.1511C98.626 93.1331 98.3543 93.0388 98.1219 92.8784L94.8451 90.376C94.7501 90.3193 94.6727 90.2373 94.6217 90.1391C94.5707 90.0409 94.5481 89.9304 94.5564 89.82C94.5647 89.7097 94.6036 89.6038 94.6687 89.5143C94.7339 89.4249 94.8227 89.3554 94.9251 89.3136Z" fill="#407BFF"/>
<path opacity="0.75" d="M94.9251 89.3136L99.8531 86.4752C100.104 86.3463 100.386 86.2879 100.667 86.3059C100.949 86.3239 101.22 86.4178 101.453 86.5776L104.72 89.08C104.817 89.135 104.896 89.2161 104.948 89.3139C105.001 89.4118 105.025 89.5224 105.017 89.6332C105.01 89.744 104.972 89.8505 104.907 89.9405C104.842 90.0306 104.753 90.1005 104.65 90.1424L99.7219 92.9808C99.471 93.1103 99.1896 93.1692 98.9078 93.1511C98.626 93.1331 98.3543 93.0388 98.1219 92.8784L94.8451 90.376C94.7501 90.3193 94.6727 90.2373 94.6217 90.1391C94.5707 90.0409 94.5481 89.9304 94.5564 89.82C94.5647 89.7097 94.6036 89.6038 94.6687 89.5143C94.7339 89.4249 94.8227 89.3554 94.9251 89.3136Z" fill="white"/>
<path d="M92.2112 79.8192L91.2704 79.8416L88.6368 77.832C88.4045 77.6717 88.1331 77.5773 87.8514 77.5587C87.5697 77.5401 87.2882 77.598 87.0368 77.7264L83.008 80.0496L81.728 80.0816V81.112C81.7341 81.2152 81.7639 81.3156 81.8149 81.4055C81.866 81.4953 81.937 81.5723 82.0224 81.6304L85.3216 84.12C85.554 84.2803 85.8254 84.3747 86.1071 84.3933C86.3888 84.4119 86.6702 84.354 86.9216 84.2256L91.8464 81.384C91.9506 81.3346 92.0395 81.258 92.1037 81.1622C92.1679 81.0665 92.2051 80.9551 92.2112 80.84V79.8192Z" fill="#407BFF"/>
<path opacity="0.1" d="M92.2112 79.8192L91.2704 79.8416L88.6368 77.832C88.4045 77.6717 88.1331 77.5773 87.8514 77.5587C87.5697 77.5401 87.2882 77.598 87.0368 77.7264L83.008 80.0496L81.728 80.0816V81.112C81.7341 81.2152 81.7639 81.3156 81.8149 81.4055C81.866 81.4953 81.937 81.5723 82.0224 81.6304L85.3216 84.12C85.554 84.2803 85.8254 84.3747 86.1071 84.3933C86.3888 84.4119 86.6702 84.354 86.9216 84.2256L91.8464 81.384C91.9506 81.3346 92.0395 81.258 92.1037 81.1622C92.1679 81.0665 92.2051 80.9551 92.2112 80.84V79.8192Z" fill="black"/>
<path d="M82.1125 79.5376L87.0404 76.696C87.2919 76.5676 87.5733 76.5097 87.855 76.5283C88.1367 76.5469 88.4081 76.6413 88.6404 76.8016L91.9204 79.3008C92.0169 79.3559 92.0959 79.4369 92.1484 79.5347C92.2009 79.6326 92.2249 79.7432 92.2176 79.854C92.2102 79.9648 92.1719 80.0713 92.1069 80.1613C92.0419 80.2514 91.9529 80.3213 91.85 80.3632L86.9252 83.2048C86.6738 83.3331 86.3924 83.3911 86.1107 83.3725C85.829 83.3539 85.5576 83.2595 85.3253 83.0992L82.0453 80.6C81.9498 80.5444 81.8716 80.4633 81.8196 80.3658C81.7676 80.2683 81.7437 80.1583 81.7507 80.048C81.7577 79.9378 81.7952 79.8316 81.8591 79.7414C81.923 79.6513 82.0107 79.5807 82.1125 79.5376Z" fill="#407BFF"/>
<path opacity="0.75" d="M82.1125 79.5376L87.0404 76.696C87.2919 76.5676 87.5733 76.5097 87.855 76.5283C88.1367 76.5469 88.4081 76.6413 88.6404 76.8016L91.9204 79.3008C92.0169 79.3559 92.0959 79.4369 92.1484 79.5347C92.2009 79.6326 92.2249 79.7432 92.2176 79.854C92.2102 79.9648 92.1719 80.0713 92.1069 80.1613C92.0419 80.2514 91.9529 80.3213 91.85 80.3632L86.9252 83.2048C86.6738 83.3331 86.3924 83.3911 86.1107 83.3725C85.829 83.3539 85.5576 83.2595 85.3253 83.0992L82.0453 80.6C81.9498 80.5444 81.8716 80.4633 81.8196 80.3658C81.7676 80.2683 81.7437 80.1583 81.7507 80.048C81.7577 79.9378 81.7952 79.8316 81.8591 79.7414C81.923 79.6513 82.0107 79.5807 82.1125 79.5376Z" fill="white"/>
<path d="M98.6176 84.7056L97.6768 84.7312L95.0432 82.7184C94.8105 82.5586 94.539 82.4648 94.2573 82.4467C93.9756 82.4287 93.6943 82.4872 93.4432 82.616L89.4144 84.9392L88.1504 84.9712V86.0016C88.1558 86.1045 88.1852 86.2047 88.2363 86.2942C88.2875 86.3837 88.3589 86.4599 88.4448 86.5168L91.7216 89.0192C91.954 89.1796 92.2256 89.2739 92.5074 89.2919C92.7892 89.31 93.0706 89.2511 93.3216 89.1216L98.2464 86.2832C98.3504 86.2331 98.439 86.1558 98.5026 86.0595C98.5663 85.9631 98.6027 85.8514 98.608 85.736L98.6176 84.7056Z" fill="#407BFF"/>
<path opacity="0.1" d="M98.6176 84.7056L97.6768 84.7312L95.0432 82.7184C94.8105 82.5586 94.539 82.4648 94.2573 82.4467C93.9756 82.4287 93.6943 82.4872 93.4432 82.616L89.4144 84.9392L88.1504 84.9712V86.0016C88.1558 86.1045 88.1852 86.2047 88.2363 86.2942C88.2875 86.3837 88.3589 86.4599 88.4448 86.5168L91.7216 89.0192C91.954 89.1796 92.2256 89.2739 92.5074 89.2919C92.7892 89.31 93.0706 89.2511 93.3216 89.1216L98.2464 86.2832C98.3504 86.2331 98.439 86.1558 98.5026 86.0595C98.5663 85.9631 98.6027 85.8514 98.608 85.736L98.6176 84.7056Z" fill="black"/>
<path d="M88.5186 84.44L93.4466 81.5984C93.6977 81.4696 93.979 81.4111 94.2607 81.4291C94.5424 81.4471 94.8139 81.541 95.0466 81.7008L98.3202 84.1904C98.4166 84.2454 98.4956 84.3265 98.5481 84.4243C98.6007 84.5222 98.6247 84.6328 98.6173 84.7436C98.61 84.8544 98.5716 84.9609 98.5066 85.0509C98.4416 85.141 98.3526 85.2109 98.2498 85.2528L93.325 88.0912C93.0741 88.2207 92.7926 88.2795 92.5108 88.2615C92.229 88.2435 91.9574 88.1492 91.725 87.9888L88.4482 85.4864C88.3561 85.4299 88.2812 85.3493 88.2316 85.2534C88.182 85.1574 88.1596 85.0497 88.1669 84.9419C88.1741 84.8341 88.2107 84.7303 88.2727 84.6419C88.3347 84.5534 88.4198 84.4836 88.5186 84.44Z" fill="#407BFF"/>
<path opacity="0.75" d="M88.5186 84.44L93.4466 81.5984C93.6977 81.4696 93.979 81.4111 94.2607 81.4291C94.5424 81.4471 94.8139 81.541 95.0466 81.7008L98.3202 84.1904C98.4166 84.2454 98.4956 84.3265 98.5481 84.4243C98.6007 84.5222 98.6247 84.6328 98.6173 84.7436C98.61 84.8544 98.5716 84.9609 98.5066 85.0509C98.4416 85.141 98.3526 85.2109 98.2498 85.2528L93.325 88.0912C93.0741 88.2207 92.7926 88.2795 92.5108 88.2615C92.229 88.2435 91.9574 88.1492 91.725 87.9888L88.4482 85.4864C88.3561 85.4299 88.2812 85.3493 88.2316 85.2534C88.182 85.1574 88.1596 85.0497 88.1669 84.9419C88.1741 84.8341 88.2107 84.7303 88.2727 84.6419C88.3347 84.5534 88.4198 84.4836 88.5186 84.44Z" fill="white"/>
<path d="M95.693 69.2304L94.7522 69.256L92.1186 67.2432C91.8859 67.0834 91.6144 66.9896 91.3327 66.9715C91.051 66.9535 90.7697 67.012 90.5186 67.1408L86.4802 69.464L85.2002 69.496V70.5264C85.2063 70.6292 85.2361 70.7291 85.2871 70.8185C85.3382 70.9078 85.4092 70.9842 85.4946 71.0416L88.8034 73.56C89.0358 73.7205 89.3074 73.8147 89.5892 73.8328C89.871 73.8508 90.1524 73.7919 90.4034 73.6624L95.3314 70.824C95.4354 70.7739 95.524 70.6966 95.5876 70.6003C95.6513 70.5039 95.6877 70.3922 95.693 70.2768V69.2304Z" fill="#407BFF"/>
<path opacity="0.1" d="M95.693 69.2304L94.7522 69.256L92.1186 67.2432C91.8859 67.0834 91.6144 66.9896 91.3327 66.9715C91.051 66.9535 90.7697 67.012 90.5186 67.1408L86.4802 69.464L85.2002 69.496V70.5264C85.2063 70.6292 85.2361 70.7291 85.2871 70.8185C85.3382 70.9078 85.4092 70.9842 85.4946 71.0416L88.8034 73.56C89.0358 73.7205 89.3074 73.8147 89.5892 73.8328C89.871 73.8508 90.1524 73.7919 90.4034 73.6624L95.3314 70.824C95.4354 70.7739 95.524 70.6966 95.5876 70.6003C95.6513 70.5039 95.6877 70.3922 95.693 70.2768V69.2304Z" fill="black"/>
<path d="M85.594 68.952L90.522 66.1104C90.7731 65.9816 91.0544 65.9231 91.3361 65.9411C91.6178 65.9591 91.8893 66.053 92.122 66.2128L95.3988 68.7152C95.4943 68.7708 95.5724 68.8519 95.6245 68.9493C95.6765 69.0468 95.7003 69.1569 95.6934 69.2671C95.6864 69.3774 95.6489 69.4836 95.585 69.5737C95.5211 69.6639 95.4333 69.7345 95.3316 69.7776L90.4036 72.616C90.1527 72.7455 89.8712 72.8044 89.5894 72.7863C89.3076 72.7683 89.036 72.674 88.8036 72.5136L85.5204 70.0112C85.425 69.9556 85.347 69.8743 85.2953 69.7767C85.2437 69.6791 85.2203 69.5689 85.228 69.4587C85.2356 69.3485 85.274 69.2427 85.3387 69.1531C85.4033 69.0636 85.4918 68.9939 85.594 68.952Z" fill="#407BFF"/>
<path opacity="0.75" d="M85.594 68.952L90.522 66.1104C90.7731 65.9816 91.0544 65.9231 91.3361 65.9411C91.6178 65.9591 91.8893 66.053 92.122 66.2128L95.3988 68.7152C95.4943 68.7708 95.5724 68.8519 95.6245 68.9493C95.6765 69.0468 95.7003 69.1569 95.6934 69.2671C95.6864 69.3774 95.6489 69.4836 95.585 69.5737C95.5211 69.6639 95.4333 69.7345 95.3316 69.7776L90.4036 72.616C90.1527 72.7455 89.8712 72.8044 89.5894 72.7863C89.3076 72.7683 89.036 72.674 88.8036 72.5136L85.5204 70.0112C85.425 69.9556 85.347 69.8743 85.2953 69.7767C85.2437 69.6791 85.2203 69.5689 85.228 69.4587C85.2356 69.3485 85.274 69.2427 85.3387 69.1531C85.4033 69.0636 85.4918 68.9939 85.594 68.952Z" fill="white"/>
<path d="M114.912 83.8992L113.971 83.9216L111.338 81.9088C111.105 81.7496 110.833 81.6561 110.552 81.6381C110.27 81.6201 109.989 81.6782 109.738 81.8064L105.712 84.12L104.432 84.152V85.1824C104.438 85.2857 104.467 85.3862 104.518 85.4762C104.569 85.5661 104.641 85.643 104.727 85.7008L108.003 88.2C108.236 88.3603 108.507 88.4547 108.789 88.4733C109.07 88.4919 109.352 88.4339 109.603 88.3056L114.528 85.464C114.632 85.4139 114.721 85.3365 114.784 85.2402C114.848 85.1439 114.884 85.0321 114.89 84.9168L114.912 83.8992Z" fill="#407BFF"/>
<path opacity="0.1" d="M114.912 83.8992L113.971 83.9216L111.338 81.9088C111.105 81.7496 110.833 81.6561 110.552 81.6381C110.27 81.6201 109.989 81.6782 109.738 81.8064L105.712 84.12L104.432 84.152V85.1824C104.438 85.2857 104.467 85.3862 104.518 85.4762C104.569 85.5661 104.641 85.643 104.727 85.7008L108.003 88.2C108.236 88.3603 108.507 88.4547 108.789 88.4733C109.07 88.4919 109.352 88.4339 109.603 88.3056L114.528 85.464C114.632 85.4139 114.721 85.3365 114.784 85.2402C114.848 85.1439 114.884 85.0321 114.89 84.9168L114.912 83.8992Z" fill="black"/>
<path d="M104.813 83.6176L109.741 80.776C109.993 80.6476 110.274 80.5897 110.556 80.6083C110.837 80.6269 111.109 80.7213 111.341 80.8816L114.618 83.3808C114.714 83.4358 114.793 83.5169 114.846 83.6147C114.898 83.7126 114.922 83.8232 114.915 83.934C114.908 84.0448 114.869 84.1513 114.804 84.2413C114.739 84.3314 114.65 84.4013 114.548 84.4432L109.623 87.2848C109.371 87.4131 109.09 87.4711 108.808 87.4525C108.527 87.4339 108.255 87.3395 108.023 87.1792L104.746 84.68C104.65 84.6244 104.572 84.5433 104.52 84.4458C104.468 84.3483 104.444 84.2383 104.451 84.128C104.458 84.0178 104.496 83.9116 104.56 83.8214C104.624 83.7313 104.711 83.6607 104.813 83.6176Z" fill="#407BFF"/>
<path opacity="0.75" d="M104.813 83.6176L109.741 80.776C109.993 80.6476 110.274 80.5897 110.556 80.6083C110.837 80.6269 111.109 80.7213 111.341 80.8816L114.618 83.3808C114.714 83.4358 114.793 83.5169 114.846 83.6147C114.898 83.7126 114.922 83.8232 114.915 83.934C114.908 84.0448 114.869 84.1513 114.804 84.2413C114.739 84.3314 114.65 84.4013 114.548 84.4432L109.623 87.2848C109.371 87.4131 109.09 87.4711 108.808 87.4525C108.527 87.4339 108.255 87.3395 108.023 87.1792L104.746 84.68C104.65 84.6244 104.572 84.5433 104.52 84.4458C104.468 84.3483 104.444 84.2383 104.451 84.128C104.458 84.0178 104.496 83.9116 104.56 83.8214C104.624 83.7313 104.711 83.6607 104.813 83.6176Z" fill="white"/>
<path d="M102.1 74.12L101.159 74.1456L98.5251 72.1328C98.2927 71.9724 98.0211 71.8781 97.7393 71.8601C97.4575 71.842 97.1761 71.9009 96.9251 72.0304L92.8963 74.3504L91.6323 74.3824V75.4128C91.638 75.5161 91.6675 75.6167 91.7186 75.7066C91.7696 75.7966 91.8409 75.8734 91.9267 75.9312L95.2035 78.4336C95.4362 78.5934 95.7077 78.6873 95.9894 78.7053C96.2711 78.7233 96.5524 78.6648 96.8035 78.536L101.732 75.6976C101.835 75.6487 101.923 75.5731 101.987 75.4785C102.051 75.384 102.089 75.274 102.096 75.16L102.1 74.12Z" fill="#407BFF"/>
<path opacity="0.1" d="M102.1 74.12L101.159 74.1456L98.5251 72.1328C98.2927 71.9724 98.0211 71.8781 97.7393 71.8601C97.4575 71.842 97.1761 71.9009 96.9251 72.0304L92.8963 74.3504L91.6323 74.3824V75.4128C91.638 75.5161 91.6675 75.6167 91.7186 75.7066C91.7696 75.7966 91.8409 75.8734 91.9267 75.9312L95.2035 78.4336C95.4362 78.5934 95.7077 78.6873 95.9894 78.7053C96.2711 78.7233 96.5524 78.6648 96.8035 78.536L101.732 75.6976C101.835 75.6487 101.923 75.5731 101.987 75.4785C102.051 75.384 102.089 75.274 102.096 75.16L102.1 74.12Z" fill="black"/>
<path d="M92.0003 73.8384L96.9283 71C97.1795 70.8712 97.4608 70.8127 97.7424 70.8307C98.0241 70.8487 98.2957 70.9426 98.5283 71.1024L101.805 73.6048C101.901 73.6604 101.979 73.7414 102.031 73.8389C102.083 73.9364 102.107 74.0465 102.1 74.1567C102.093 74.267 102.055 74.3732 101.991 74.4633C101.927 74.5535 101.84 74.624 101.738 74.6672L96.8099 77.5056C96.5588 77.6344 96.2775 77.6929 95.9958 77.6749C95.7142 77.6568 95.4426 77.563 95.2099 77.4032L91.9203 74.9008C91.8253 74.8441 91.7479 74.7621 91.6969 74.6639C91.6459 74.5656 91.6233 74.4552 91.6316 74.3448C91.6399 74.2345 91.6788 74.1286 91.7439 74.0391C91.8091 73.9497 91.8979 73.8802 92.0003 73.8384Z" fill="#407BFF"/>
<path opacity="0.75" d="M92.0003 73.8384L96.9283 71C97.1795 70.8712 97.4608 70.8127 97.7424 70.8307C98.0241 70.8487 98.2957 70.9426 98.5283 71.1024L101.805 73.6048C101.901 73.6604 101.979 73.7414 102.031 73.8389C102.083 73.9364 102.107 74.0465 102.1 74.1567C102.093 74.267 102.055 74.3732 101.991 74.4633C101.927 74.5535 101.84 74.624 101.738 74.6672L96.8099 77.5056C96.5588 77.6344 96.2775 77.6929 95.9958 77.6749C95.7142 77.6568 95.4426 77.563 95.2099 77.4032L91.9203 74.9008C91.8253 74.8441 91.7479 74.7621 91.6969 74.6639C91.6459 74.5656 91.6233 74.4552 91.6316 74.3448C91.6399 74.2345 91.6788 74.1286 91.7439 74.0391C91.8091 73.9497 91.8979 73.8802 92.0003 73.8384Z" fill="white"/>
<path d="M108.506 79L107.565 79.0224L104.931 77.0128C104.699 76.8524 104.427 76.7581 104.146 76.74C103.864 76.722 103.582 76.7809 103.331 76.9104L99.3026 79.2304L98.0386 79.2624V80.2928C98.0442 80.3961 98.0737 80.4967 98.1248 80.5866C98.1759 80.6766 98.2472 80.7534 98.333 80.8112L101.61 83.3136C101.843 83.4727 102.114 83.5662 102.396 83.5842C102.677 83.6023 102.958 83.5441 103.21 83.416L108.138 80.6C108.242 80.5506 108.331 80.4739 108.395 80.3782C108.459 80.2824 108.496 80.1711 108.503 80.056L108.506 79Z" fill="#407BFF"/>
<path opacity="0.1" d="M108.506 79L107.565 79.0224L104.931 77.0128C104.699 76.8524 104.427 76.7581 104.146 76.74C103.864 76.722 103.582 76.7809 103.331 76.9104L99.3026 79.2304L98.0386 79.2624V80.2928C98.0442 80.3961 98.0737 80.4967 98.1248 80.5866C98.1759 80.6766 98.2472 80.7534 98.333 80.8112L101.61 83.3136C101.843 83.4727 102.114 83.5662 102.396 83.5842C102.677 83.6023 102.958 83.5441 103.21 83.416L108.138 80.6C108.242 80.5506 108.331 80.4739 108.395 80.3782C108.459 80.2824 108.496 80.1711 108.503 80.056L108.506 79Z" fill="black"/>
<path d="M98.4064 78.7279L103.334 75.8895C103.585 75.76 103.867 75.7012 104.149 75.7192C104.43 75.7372 104.702 75.8315 104.934 75.9919L108.211 78.4943C108.308 78.5489 108.387 78.6296 108.44 78.7272C108.492 78.8249 108.517 78.9354 108.509 79.0461C108.502 79.1568 108.463 79.2631 108.398 79.3529C108.333 79.4427 108.244 79.5123 108.141 79.5535L103.216 82.3951C102.965 82.524 102.684 82.5825 102.402 82.5644C102.12 82.5464 101.849 82.4525 101.616 82.2927L98.3392 79.7903C98.2437 79.7347 98.1656 79.6537 98.1136 79.5562C98.0615 79.4587 98.0377 79.3487 98.0446 79.2384C98.0516 79.1281 98.0892 79.0219 98.1531 78.9318C98.2169 78.8416 98.3047 78.7711 98.4064 78.7279Z" fill="#407BFF"/>
<path opacity="0.75" d="M98.4064 78.7279L103.334 75.8895C103.585 75.76 103.867 75.7012 104.149 75.7192C104.43 75.7372 104.702 75.8315 104.934 75.9919L108.211 78.4943C108.308 78.5489 108.387 78.6296 108.44 78.7272C108.492 78.8249 108.517 78.9354 108.509 79.0461C108.502 79.1568 108.463 79.2631 108.398 79.3529C108.333 79.4427 108.244 79.5123 108.141 79.5535L103.216 82.3951C102.965 82.524 102.684 82.5825 102.402 82.5644C102.12 82.5464 101.849 82.4525 101.616 82.2927L98.3392 79.7903C98.2437 79.7347 98.1656 79.6537 98.1136 79.5562C98.0615 79.4587 98.0377 79.3487 98.0446 79.2384C98.0516 79.1281 98.0892 79.0219 98.1531 78.9318C98.2169 78.8416 98.3047 78.7711 98.4064 78.7279Z" fill="white"/>
<path d="M105.578 63.5312L104.637 63.5536L102.003 61.544C101.771 61.3836 101.499 61.2893 101.217 61.2713C100.936 61.2532 100.654 61.3121 100.403 61.4416L96.3744 63.7616L95.1104 63.7936V64.824C95.116 64.9273 95.1455 65.0279 95.1966 65.1178C95.2477 65.2078 95.3189 65.2846 95.4048 65.3424L98.6816 67.8448C98.9142 68.0046 99.1858 68.0984 99.4674 68.1165C99.7491 68.1345 100.03 68.076 100.282 67.9472L105.206 65.1056C105.311 65.0562 105.399 64.9795 105.464 64.8838C105.528 64.788 105.565 64.6767 105.571 64.5616L105.578 63.5312Z" fill="#407BFF"/>
<path opacity="0.1" d="M105.578 63.5312L104.637 63.5536L102.003 61.544C101.771 61.3836 101.499 61.2893 101.217 61.2713C100.936 61.2532 100.654 61.3121 100.403 61.4416L96.3744 63.7616L95.1104 63.7936V64.824C95.116 64.9273 95.1455 65.0279 95.1966 65.1178C95.2477 65.2078 95.3189 65.2846 95.4048 65.3424L98.6816 67.8448C98.9142 68.0046 99.1858 68.0984 99.4674 68.1165C99.7491 68.1345 100.03 68.076 100.282 67.9472L105.206 65.1056C105.311 65.0562 105.399 64.9795 105.464 64.8838C105.528 64.788 105.565 64.6767 105.571 64.5616L105.578 63.5312Z" fill="black"/>
<path d="M95.4787 63.2496L100.407 60.4112C100.658 60.2817 100.939 60.2228 101.221 60.2408C101.503 60.2589 101.774 60.3531 102.007 60.5136L105.283 63.016C105.38 63.0705 105.459 63.1513 105.512 63.2489C105.565 63.3465 105.589 63.457 105.581 63.5677C105.574 63.6784 105.536 63.7848 105.47 63.8746C105.405 63.9643 105.316 64.0339 105.213 64.0752L100.288 66.9168C100.037 67.0456 99.7558 67.1041 99.4742 67.0861C99.1925 67.068 98.9209 66.9741 98.6883 66.8144L95.4115 64.312C95.316 64.2564 95.2378 64.1753 95.1858 64.0778C95.1338 63.9803 95.1099 63.8703 95.1169 63.76C95.1239 63.6497 95.1614 63.5436 95.2253 63.4534C95.2892 63.3633 95.3769 63.2927 95.4787 63.2496Z" fill="#407BFF"/>
<path opacity="0.75" d="M95.4787 63.2496L100.407 60.4112C100.658 60.2817 100.939 60.2228 101.221 60.2408C101.503 60.2589 101.774 60.3531 102.007 60.5136L105.283 63.016C105.38 63.0705 105.459 63.1513 105.512 63.2489C105.565 63.3465 105.589 63.457 105.581 63.5677C105.574 63.6784 105.536 63.7848 105.47 63.8746C105.405 63.9643 105.316 64.0339 105.213 64.0752L100.288 66.9168C100.037 67.0456 99.7558 67.1041 99.4742 67.0861C99.1925 67.068 98.9209 66.9741 98.6883 66.8144L95.4115 64.312C95.316 64.2564 95.2378 64.1753 95.1858 64.0778C95.1338 63.9803 95.1099 63.8703 95.1169 63.76C95.1239 63.6497 95.1614 63.5436 95.2253 63.4534C95.2892 63.3633 95.3769 63.2927 95.4787 63.2496Z" fill="white"/>
<path d="M124.797 78.1968L123.856 78.2224L121.223 76.2096C120.99 76.0492 120.719 75.9549 120.437 75.9369C120.155 75.9188 119.874 75.9777 119.623 76.1072L115.6 78.4272L114.336 78.4592V79.4896C114.341 79.5931 114.371 79.6939 114.422 79.784C114.473 79.8741 114.544 79.9508 114.631 80.008L117.908 82.52C118.14 82.6804 118.412 82.7747 118.693 82.7928C118.975 82.8108 119.257 82.7519 119.508 82.6224L124.436 79.784C124.54 79.7339 124.628 79.6566 124.692 79.5603C124.756 79.4639 124.792 79.3522 124.797 79.2368V78.1968Z" fill="#407BFF"/>
<path opacity="0.1" d="M124.797 78.1968L123.856 78.2224L121.223 76.2096C120.99 76.0492 120.719 75.9549 120.437 75.9369C120.155 75.9188 119.874 75.9777 119.623 76.1072L115.6 78.4272L114.336 78.4592V79.4896C114.341 79.5931 114.371 79.6939 114.422 79.784C114.473 79.8741 114.544 79.9508 114.631 80.008L117.908 82.52C118.14 82.6804 118.412 82.7747 118.693 82.7928C118.975 82.8108 119.257 82.7519 119.508 82.6224L124.436 79.784C124.54 79.7339 124.628 79.6566 124.692 79.5603C124.756 79.4639 124.792 79.3522 124.797 79.2368V78.1968Z" fill="black"/>
<path d="M114.698 77.9152L119.626 75.0768C119.877 74.9479 120.158 74.8895 120.44 74.9075C120.722 74.9255 120.993 75.0194 121.226 75.1792L124.503 77.6816C124.599 77.7366 124.678 77.8177 124.731 77.9155C124.783 78.0134 124.807 78.124 124.8 78.2348C124.792 78.3456 124.754 78.4521 124.689 78.5421C124.624 78.6322 124.535 78.7021 124.432 78.744L119.504 81.5824C119.253 81.7119 118.972 81.7707 118.69 81.7527C118.408 81.7347 118.137 81.6404 117.904 81.48L114.64 78.9776C114.544 78.9228 114.466 78.8424 114.413 78.7455C114.36 78.6485 114.335 78.5388 114.341 78.4286C114.347 78.3184 114.384 78.212 114.447 78.1213C114.51 78.0306 114.597 77.9593 114.698 77.9152Z" fill="#407BFF"/>
<path opacity="0.75" d="M114.698 77.9152L119.626 75.0768C119.877 74.9479 120.158 74.8895 120.44 74.9075C120.722 74.9255 120.993 75.0194 121.226 75.1792L124.503 77.6816C124.599 77.7366 124.678 77.8177 124.731 77.9155C124.783 78.0134 124.807 78.124 124.8 78.2348C124.792 78.3456 124.754 78.4521 124.689 78.5421C124.624 78.6322 124.535 78.7021 124.432 78.744L119.504 81.5824C119.253 81.7119 118.972 81.7707 118.69 81.7527C118.408 81.7347 118.137 81.6404 117.904 81.48L114.64 78.9776C114.544 78.9228 114.466 78.8424 114.413 78.7455C114.36 78.6485 114.335 78.5388 114.341 78.4286C114.347 78.3184 114.384 78.212 114.447 78.1213C114.51 78.0306 114.597 77.9593 114.698 77.9152Z" fill="white"/>
<path d="M118.391 73.3072L117.45 73.3328L114.816 71.32C114.584 71.1602 114.312 71.0664 114.031 71.0483C113.749 71.0303 113.468 71.0888 113.216 71.2176L109.2 73.5408L107.92 73.5728V74.6032C107.926 74.7061 107.955 74.8063 108.006 74.8958C108.057 74.9853 108.129 75.0615 108.215 75.1184L111.492 77.6208C111.724 77.7819 111.995 77.8766 112.277 77.8946C112.559 77.9127 112.841 77.8534 113.092 77.7232L118.02 74.8848C118.124 74.8347 118.212 74.7574 118.276 74.6611C118.339 74.5647 118.376 74.453 118.381 74.3376L118.391 73.3072Z" fill="#407BFF"/>
<path opacity="0.1" d="M118.391 73.3072L117.45 73.3328L114.816 71.32C114.584 71.1602 114.312 71.0664 114.031 71.0483C113.749 71.0303 113.468 71.0888 113.216 71.2176L109.2 73.5408L107.92 73.5728V74.6032C107.926 74.7061 107.955 74.8063 108.006 74.8958C108.057 74.9853 108.129 75.0615 108.215 75.1184L111.492 77.6208C111.724 77.7819 111.995 77.8766 112.277 77.8946C112.559 77.9127 112.841 77.8534 113.092 77.7232L118.02 74.8848C118.124 74.8347 118.212 74.7574 118.276 74.6611C118.339 74.5647 118.376 74.453 118.381 74.3376L118.391 73.3072Z" fill="black"/>
<path d="M108.292 73.0288L113.22 70.1872C113.471 70.0584 113.752 69.9999 114.034 70.0179C114.315 70.0359 114.587 70.1298 114.82 70.2896L118.096 72.792C118.193 72.8471 118.272 72.9281 118.324 73.026C118.377 73.1238 118.401 73.2344 118.394 73.3452C118.386 73.456 118.348 73.5625 118.283 73.6526C118.218 73.7426 118.129 73.8125 118.026 73.8544L113.098 76.6928C112.847 76.823 112.566 76.8823 112.284 76.8642C112.002 76.8462 111.73 76.7515 111.498 76.5904L108.24 74.088C108.144 74.0343 108.065 73.9547 108.011 73.8584C107.958 73.762 107.932 73.6526 107.938 73.5425C107.943 73.4324 107.979 73.326 108.041 73.2353C108.104 73.1445 108.191 73.073 108.292 73.0288Z" fill="#407BFF"/>
<path opacity="0.75" d="M108.292 73.0288L113.22 70.1872C113.471 70.0584 113.752 69.9999 114.034 70.0179C114.315 70.0359 114.587 70.1298 114.82 70.2896L118.096 72.792C118.193 72.8471 118.272 72.9281 118.324 73.026C118.377 73.1238 118.401 73.2344 118.394 73.3452C118.386 73.456 118.348 73.5625 118.283 73.6526C118.218 73.7426 118.129 73.8125 118.026 73.8544L113.098 76.6928C112.847 76.823 112.566 76.8823 112.284 76.8642C112.002 76.8462 111.73 76.7515 111.498 76.5904L108.24 74.088C108.144 74.0343 108.065 73.9547 108.011 73.8584C107.958 73.762 107.932 73.6526 107.938 73.5425C107.943 73.4324 107.979 73.326 108.041 73.2353C108.104 73.1445 108.191 73.073 108.292 73.0288Z" fill="white"/>
<path d="M111.984 68.4208L111.043 68.4432L108.41 66.4336C108.177 66.2733 107.906 66.1789 107.624 66.1603C107.343 66.1417 107.061 66.1996 106.81 66.328L102.8 68.6512L101.536 68.6832V69.72C101.542 69.8233 101.571 69.924 101.622 70.014C101.673 70.104 101.745 70.1808 101.831 70.2384L105.107 72.7376C105.34 72.8979 105.611 72.9923 105.893 73.0109C106.174 73.0295 106.456 72.9715 106.707 72.8432L111.632 70.0016C111.736 69.9518 111.824 69.8749 111.888 69.7792C111.951 69.6835 111.988 69.5724 111.994 69.4576L111.984 68.4208Z" fill="#407BFF"/>
<path opacity="0.1" d="M111.984 68.4208L111.043 68.4432L108.41 66.4336C108.177 66.2733 107.906 66.1789 107.624 66.1603C107.343 66.1417 107.061 66.1996 106.81 66.328L102.8 68.6512L101.536 68.6832V69.72C101.542 69.8233 101.571 69.924 101.622 70.014C101.673 70.104 101.745 70.1808 101.831 70.2384L105.107 72.7376C105.34 72.8979 105.611 72.9923 105.893 73.0109C106.174 73.0295 106.456 72.9715 106.707 72.8432L111.632 70.0016C111.736 69.9518 111.824 69.8749 111.888 69.7792C111.951 69.6835 111.988 69.5724 111.994 69.4576L111.984 68.4208Z" fill="black"/>
<path d="M101.885 68.1392L106.813 65.2976C107.064 65.1692 107.346 65.1113 107.627 65.1299C107.909 65.1485 108.181 65.2429 108.413 65.4032L111.69 67.9024C111.786 67.9574 111.865 68.0385 111.918 68.1363C111.97 68.2342 111.994 68.3448 111.987 68.4556C111.98 68.5664 111.941 68.6729 111.876 68.7629C111.811 68.853 111.722 68.9229 111.619 68.9648L106.695 71.8064C106.443 71.9347 106.162 71.9927 105.88 71.9741C105.598 71.9555 105.327 71.8611 105.095 71.7008L101.818 69.2016C101.722 69.146 101.644 69.0649 101.592 68.9674C101.54 68.8699 101.516 68.7599 101.523 68.6496C101.53 68.5393 101.568 68.4332 101.632 68.343C101.695 68.2529 101.783 68.1823 101.885 68.1392Z" fill="#407BFF"/>
<path opacity="0.75" d="M101.885 68.1392L106.813 65.2976C107.064 65.1692 107.346 65.1113 107.627 65.1299C107.909 65.1485 108.181 65.2429 108.413 65.4032L111.69 67.9024C111.786 67.9574 111.865 68.0385 111.918 68.1363C111.97 68.2342 111.994 68.3448 111.987 68.4556C111.98 68.5664 111.941 68.6729 111.876 68.7629C111.811 68.853 111.722 68.9229 111.619 68.9648L106.695 71.8064C106.443 71.9347 106.162 71.9927 105.88 71.9741C105.598 71.9555 105.327 71.8611 105.095 71.7008L101.818 69.2016C101.722 69.146 101.644 69.0649 101.592 68.9674C101.54 68.8699 101.516 68.7599 101.523 68.6496C101.53 68.5393 101.568 68.4332 101.632 68.343C101.695 68.2529 101.783 68.1823 101.885 68.1392Z" fill="white"/>
<path d="M32.6109 38.1808V34.632C32.6076 33.7524 32.2558 32.91 31.6326 32.2893C31.0095 31.6685 30.1657 31.32 29.2861 31.32V34.8688C29.2895 35.7484 29.6413 36.5908 30.2645 37.2115C30.8876 37.8323 31.7314 38.1808 32.6109 38.1808Z" fill="#263238"/>
<path d="M43.427 67.3136L32.7998 61.9152L33.7598 79.7712L44.387 85.1696L43.427 67.3136Z" fill="#407BFF"/>
<path opacity="0.5" d="M43.427 67.3136L32.7998 61.9152L33.7598 79.7712L44.387 85.1696L43.427 67.3136Z" fill="white"/>
<path d="M44.3872 85.1695L49.3824 81.9183L45.4272 66.0144L43.4272 67.3136L44.3872 85.1695Z" fill="#407BFF"/>
<path d="M49.3824 81.9184L45.9904 81.6624L44.3872 85.1696L49.3824 81.9184Z" fill="#407BFF"/>
<path opacity="0.3" d="M49.3824 81.9184L45.9904 81.6624L44.3872 85.1696L49.3824 81.9184Z" fill="black"/>
<path d="M45.99 81.6624L43.3628 66.1232L43.4268 67.3136L44.3868 85.1696L45.99 81.6624Z" fill="#407BFF"/>
<path opacity="0.1" d="M45.99 81.6624L43.3628 66.1232L43.4268 67.3136L44.3868 85.1696L45.99 81.6624Z" fill="black"/>
<path d="M32.7998 61.9152L34.8606 61.8064L34.7966 60.616L45.427 66.0144L43.363 66.1232L43.427 67.3136L32.7998 61.9152Z" fill="#407BFF"/>
<path d="M40.0575 66.6928C40.0575 66.8432 39.9615 66.9136 39.8239 66.8432C39.7517 66.8012 39.6904 66.7428 39.6448 66.6728C39.5992 66.6028 39.5707 66.523 39.5615 66.44C39.5615 66.2864 39.6575 66.2192 39.7951 66.2864C39.8674 66.3291 39.9287 66.3881 39.9743 66.4586C40.0198 66.5292 40.0483 66.6093 40.0575 66.6928Z" fill="#455A64"/>
<path d="M36.8798 65.1056C36.8798 65.2592 36.7838 65.3296 36.6462 65.2592C36.5745 65.2166 36.5135 65.1581 36.468 65.0882C36.4225 65.0183 36.3937 64.9388 36.3838 64.856C36.3838 64.7024 36.4798 64.6352 36.6174 64.7024C36.6898 64.7442 36.7513 64.8025 36.7968 64.8726C36.8424 64.9426 36.8709 65.0225 36.8798 65.1056Z" fill="#455A64"/>
<path d="M41.9999 65.4288C41.9999 65.5824 41.9039 65.6496 41.7663 65.5792C41.6938 65.5376 41.6321 65.4793 41.5865 65.4092C41.5409 65.3391 41.5126 65.2592 41.5039 65.176C41.5039 65.0224 41.5999 64.9552 41.7375 65.0256C41.8101 65.0672 41.8717 65.1255 41.9173 65.1956C41.9629 65.2657 41.9912 65.3456 41.9999 65.4288Z" fill="#455A64"/>
<path d="M38.8412 63.8256C38.8412 63.9792 38.7452 64.0464 38.6076 63.9792C38.5348 63.9371 38.4731 63.8782 38.4275 63.8076C38.3818 63.7369 38.3537 63.6565 38.3452 63.5728C38.3452 63.4192 38.4412 63.352 38.5788 63.4224C38.651 63.4644 38.7124 63.5228 38.758 63.5928C38.8035 63.6628 38.832 63.7425 38.8412 63.8256Z" fill="#455A64"/>
<path d="M45.4268 66.0144L43.3628 66.1232L45.99 81.6624L49.382 81.9184L45.4268 66.0144Z" fill="#407BFF"/>
<path opacity="0.2" d="M45.4268 66.0144L43.3628 66.1232L45.99 81.6624L49.382 81.9184L45.4268 66.0144Z" fill="black"/>
<path d="M34.7969 60.616L34.8609 61.8064L34.9249 62.9968L35.4657 63.2688L34.7969 60.616Z" fill="#407BFF"/>
<path opacity="0.2" d="M34.7969 60.616L34.8609 61.8064L34.9249 62.9968L35.4657 63.2688L34.7969 60.616Z" fill="black"/>
<path d="M30.019 34.232C31.4526 34.1552 34.355 34.2768 35.4174 38.392C36.3134 41.848 38.7358 49.4128 39.3662 52.7728C39.8462 55.3328 40.5054 57.1248 40.6014 58.9104C40.4222 59.8288 39.6894 60.8304 37.6734 61.1504C35.7534 60.6416 36.0894 60.3248 35.955 58.6224C35.8206 56.92 36.6974 56.4336 36.419 54.4144C35.8366 50.1744 32.0414 41.3392 32.0414 41.3392L30.019 34.232Z" fill="#B55B52"/>
<path d="M41.7502 65.4544C41.716 65.4539 41.6829 65.4419 41.6563 65.4205C41.6296 65.399 41.6108 65.3693 41.603 65.336C41.603 65.3136 41.1294 63.2368 40.6014 61.6624C40.1854 60.424 39.2702 60.1456 38.467 59.8992C38.2878 59.8448 38.1182 59.7936 37.9646 59.736C37.9275 59.7204 37.8978 59.691 37.8817 59.6541C37.8656 59.6171 37.8644 59.5754 37.8782 59.5376C37.8853 59.5187 37.8961 59.5013 37.9099 59.4865C37.9237 59.4718 37.9404 59.4599 37.9588 59.4516C37.9772 59.4433 37.9971 59.4387 38.0173 59.438C38.0376 59.4374 38.0577 59.4408 38.0766 59.448C38.2238 59.5056 38.3966 59.5536 38.5566 59.608C39.3886 59.8608 40.4254 60.1776 40.8926 61.5664C41.4238 63.1664 41.8974 65.2464 41.9006 65.2688C41.9053 65.2883 41.9061 65.3086 41.9028 65.3285C41.8995 65.3483 41.8923 65.3673 41.8816 65.3843C41.8708 65.4013 41.8568 65.416 41.8403 65.4275C41.8237 65.439 41.8051 65.447 41.7854 65.4512L41.7502 65.4544Z" fill="#263238"/>
<path d="M39.2603 57.1248C38.9448 57.7195 38.7092 58.3532 38.5595 59.0096C38.5083 59.3648 37.9195 59.0864 37.8011 58.6256C37.7066 57.8903 37.6659 57.1492 37.6795 56.408C37.6795 56.408 37.4043 57.8256 37.5547 58.5008C37.7051 59.176 37.8747 59.3104 38.3675 59.4608C38.8603 59.6112 38.7835 59.176 38.8987 58.6128C39.0139 58.0496 39.2603 57.1248 39.2603 57.1248Z" fill="#9A4A4D"/>
<path d="M39.6286 66.4848L39.4078 62.36C39.363 61.4512 39.3086 60.4176 37.7758 59.6304C37.2382 59.3552 36.8414 59.2752 36.6526 59.4096C36.4638 59.544 36.5118 59.8768 36.5118 59.88L36.7838 64.9424C36.7785 64.9789 36.7602 65.0123 36.7323 65.0364C36.7044 65.0606 36.6687 65.0739 36.6318 65.0739C36.5949 65.0739 36.5592 65.0606 36.5313 65.0364C36.5034 65.0123 36.4851 64.9789 36.4798 64.9424L36.2078 59.896C36.187 59.759 36.2003 59.6189 36.2467 59.4883C36.293 59.3576 36.3709 59.2405 36.4734 59.1472C36.771 58.9328 37.2446 58.9968 37.9166 59.3424C39.6062 60.2128 39.667 61.384 39.7118 62.328L39.9358 66.4464C39.9375 66.4875 39.9231 66.5276 39.8956 66.5581C39.868 66.5886 39.8296 66.6071 39.7886 66.6096C39.7513 66.6118 39.7145 66.6003 39.6851 66.5774C39.6556 66.5544 39.6355 66.5215 39.6286 66.4848Z" fill="#263238"/>
<path d="M38.592 63.8064C38.5578 63.8059 38.5247 63.7939 38.498 63.7725C38.4713 63.751 38.4526 63.7213 38.4448 63.688L37.7632 60.6032C37.7589 60.5834 37.7587 60.563 37.7623 60.5432C37.766 60.5233 37.7735 60.5044 37.7845 60.4874C37.7955 60.4705 37.8098 60.4559 37.8264 60.4444C37.8431 60.433 37.8618 60.425 37.8816 60.4208C37.9214 60.4131 37.9626 60.4211 37.9966 60.4432C38.0306 60.4653 38.0548 60.4997 38.064 60.5392L38.7424 63.6208C38.7471 63.6403 38.7478 63.6606 38.7446 63.6805C38.7413 63.7003 38.7341 63.7193 38.7233 63.7363C38.7126 63.7533 38.6985 63.768 38.682 63.7795C38.6655 63.791 38.6469 63.799 38.6272 63.8032L38.592 63.8064Z" fill="#263238"/>
<path d="M37.5582 59.528C36.979 59.176 35.8526 58.6608 35.5902 58.9744C35.3278 59.288 34.9918 60.5744 36.2974 61.0288C37.1674 61.2711 38.0957 61.1915 38.9118 60.8048L37.5582 59.528Z" fill="#9A4A4D"/>
<path d="M27.9198 32.12H26.6686C24.9712 32.12 23.3433 31.4457 22.1431 30.2455C20.9428 29.0452 20.2686 27.4174 20.2686 25.72C20.2686 23.908 20.9884 22.1703 22.2696 20.889C23.5509 19.6078 25.2886 18.888 27.1006 18.888H27.5006C29.3092 18.8914 31.0427 19.6118 32.321 20.8913C33.5993 22.1708 34.3181 23.9049 34.3198 25.7136C34.3206 26.5546 34.1557 27.3875 33.8344 28.1647C33.5132 28.9419 33.0419 29.6482 32.4475 30.2432C31.8531 30.8382 31.1473 31.3102 30.3704 31.6322C29.5935 31.9542 28.7608 32.12 27.9198 32.12Z" fill="#263238"/>
<path d="M21.1548 20.6864C21.394 20.7343 21.6043 20.8751 21.7399 21.0778C21.8755 21.2805 21.9251 21.5287 21.878 21.768L20.0732 21.4C20.1233 21.1627 20.265 20.9546 20.4675 20.821C20.6699 20.6874 20.9169 20.6391 21.1548 20.6864Z" fill="#263238"/>
<path d="M22.3327 20.296C22.3702 20.4107 22.3847 20.5317 22.3753 20.652C22.366 20.7723 22.3331 20.8896 22.2784 20.9972C22.2237 21.1048 22.1484 21.2005 22.0567 21.279C21.9649 21.3574 21.8587 21.417 21.7439 21.4544L21.1743 19.704C21.2892 19.6666 21.4104 19.6522 21.5309 19.6618C21.6514 19.6713 21.7688 19.7045 21.8764 19.7595C21.984 19.8145 22.0797 19.8902 22.158 19.9823C22.2363 20.0743 22.2957 20.1809 22.3327 20.296Z" fill="#263238"/>
<path d="M31.3597 104.6C30.9405 104.28 30.4669 103.979 30.0989 103.64C29.2829 102.894 29.0333 101.006 28.9725 100.37C28.9101 99.8276 28.9047 99.2807 28.9565 98.7376C29.1197 97.4576 30.0605 94.6448 30.0605 94.6448C30.0605 94.6448 27.0301 92.6512 26.9853 92.6768C26.9405 92.7024 26.4381 96.3408 25.9421 96.936C25.3405 97.464 24.8253 97.6112 24.4861 98.3088C24.1885 99.1696 24.3101 99.6336 24.7677 100.53C25.106 101.306 25.3571 102.117 25.5165 102.949C25.7757 103.998 25.6669 105.717 28.2749 106.242C29.6573 106.52 30.6141 106.334 31.2733 106.04C32.0157 105.71 32.0093 105.09 31.3597 104.6Z" fill="#B16668"/>
<path d="M24.4861 98.312C24.1885 99.1728 24.3101 99.6368 24.7677 100.533C25.106 101.309 25.3571 102.12 25.5165 102.952C25.7757 104.002 25.6669 105.72 28.2749 106.245C29.6573 106.523 30.6141 106.338 31.2733 106.043C32.0157 105.723 32.0093 105.083 31.3597 104.6C31.0397 104.35 30.6685 104.11 30.3517 103.854C30.6973 104.475 29.0365 104.622 28.0797 104.05C27.1229 103.477 25.9293 99.4416 25.8109 98.5392C25.7392 98.0027 25.7839 97.4569 25.9421 96.9392C25.9773 96.8912 26.0221 96.8208 26.0221 96.8208C26.0221 96.8208 25.9197 96.7792 25.8109 96.8624C25.2582 97.231 24.8035 97.7285 24.4861 98.312Z" fill="#263238"/>
<path d="M34.5568 52.1776C35.024 57.2976 36.4384 74.8592 36.0576 78.168C35.888 79.6688 29.5264 96.3728 29.5264 96.3728C29.5264 96.3728 27.9744 96.8496 26.512 95.192C27.2672 88.0112 27.9904 80.3184 29.5584 77.9344C29.2608 75.464 26.1792 63.1568 26.1792 63.1568L34.5568 52.1776Z" fill="#37474F"/>
<path d="M23.0782 102.091V101.64C23.2574 102.168 24.0862 104.453 25.3406 105.595C26.3358 106.507 27.6958 107.557 28.0414 108.571C28.387 109.586 26.1502 109.979 25.219 109.813C24.1342 109.624 22.7358 109.01 21.9742 108.072C21.4366 107.413 21.0942 106.632 20.7134 106.114C20.3326 105.595 19.4334 105.019 19.2414 104.421C19.1262 104.101 19.2638 103.368 19.4206 102.76C19.5774 102.152 19.7406 101.586 19.9198 101.64V101.982C20.147 102.238 20.7838 102.491 21.4974 102.517C21.9614 102.536 23.0846 102.443 23.0782 102.091Z" fill="#263238"/>
<path d="M26.2431 106.395C25.9231 106.12 25.6223 105.851 25.3407 105.592C24.4639 104.795 23.7951 103.438 23.4207 102.514C23.2063 101.985 23.0976 101.42 23.1007 100.85V99.048H19.9199V101.979V102.056C20.0703 102.712 21.5199 104.459 22.3455 105.598C22.8991 106.363 23.9455 107.333 25.2031 107.502C26.4063 107.672 27.0143 107.298 26.2431 106.395Z" fill="#B16668"/>
<path d="M20.5596 52.9616C18.1084 58.3152 20.6492 77.1696 20.6492 77.1696C20.5756 78.04 19.5804 79.7488 19.2124 83.5696C18.774 88.0848 19.8972 99.4288 19.8972 99.4288C20.3797 99.7096 20.9237 99.8678 21.4816 99.8896C22.0395 99.9114 22.5942 99.796 23.0972 99.5536C23.0972 99.5536 26.1116 82.472 26.678 77.9824C27.1708 74.0624 28.5276 62.0048 28.5276 62.0048L34.5756 52.1744L20.5596 52.9616Z" fill="#37474F"/>
<path d="M25.7728 34.296L22.48 34.4528C22.0288 34.5936 20.816 35.7328 20.3392 37.4768C19.9977 38.9125 20.0743 40.416 20.56 41.8096L22.7488 48.1424C22.7488 48.1424 21.7248 50.6224 20.5344 52.9616C26.0288 56.0304 32.8896 54.4176 34.544 52.1776C34.6112 51.704 34.5184 49.5632 34.6496 47.1312C34.7936 44.5328 35.1488 41.6016 34.7424 39.9984C33.984 37.0192 32.5632 34.2224 29.7376 34.2224L25.7728 34.296Z" fill="#407BFF"/>
<path d="M32.0028 21.72C32.7452 22.1584 33.6636 24.0272 33.574 27.944C33.4972 31.2624 32.4188 32.0816 31.8812 32.3184C31.3436 32.5552 30.2972 32.4112 29.286 32.2416V34.2352C29.286 34.2352 30.6844 35.8608 30.598 36.7728C30.5116 37.6848 28.5756 37.9024 27.2668 37.0096C26.4171 36.4029 25.6879 35.6433 25.1164 34.7696V30.36C24.8192 30.466 24.5011 30.5004 24.1881 30.4603C23.875 30.4203 23.5758 30.307 23.3148 30.1296C22.1884 29.4 22.1596 27.5408 22.7996 26.8816C23.4396 26.2224 24.8508 26.4304 25.1132 27.3424C25.1132 27.3424 26.7292 27.4 28.8796 26.2192C29.7175 25.7679 30.437 25.1252 30.9797 24.3434C31.5224 23.5616 31.8729 22.6628 32.0028 21.72Z" fill="#B55B52"/>
<path d="M30.0093 27.16C30.0104 27.2423 29.9873 27.3232 29.9428 27.3925C29.8983 27.4617 29.8344 27.5164 29.7591 27.5496C29.6837 27.5828 29.6002 27.593 29.5191 27.5791C29.4379 27.5651 29.3627 27.5276 29.3027 27.4711C29.2428 27.4147 29.2008 27.3418 29.182 27.2617C29.1632 27.1815 29.1684 27.0976 29.197 27.0203C29.2256 26.9431 29.2763 26.876 29.3428 26.8275C29.4093 26.7789 29.4886 26.751 29.5709 26.7472C29.6268 26.7455 29.6824 26.7548 29.7347 26.7746C29.787 26.7944 29.8349 26.8244 29.8756 26.8627C29.9163 26.9011 29.9491 26.947 29.972 26.9981C29.9949 27.0491 30.0076 27.1041 30.0093 27.16Z" fill="#263238"/>
<path d="M29.9774 29.9312L30.9374 30.2512C30.9203 30.3173 30.8897 30.3793 30.8477 30.4331C30.8057 30.487 30.753 30.5317 30.693 30.5644C30.633 30.5971 30.5669 30.6171 30.4989 30.6232C30.4308 30.6293 30.3623 30.6214 30.2974 30.6C30.1679 30.5515 30.0622 30.4548 30.0025 30.3301C29.9429 30.2054 29.9338 30.0624 29.9774 29.9312Z" fill="#9A4A4D"/>
<path d="M33.2891 25.8352L32.4443 25.24C32.4797 25.1831 32.5262 25.134 32.5811 25.0957C32.636 25.0574 32.6982 25.0307 32.7638 25.0173C32.8294 25.0038 32.897 25.0038 32.9626 25.0174C33.0281 25.0309 33.0903 25.0576 33.1451 25.096C33.2605 25.1763 33.3401 25.2984 33.3669 25.4364C33.3938 25.5744 33.3659 25.7174 33.2891 25.8352Z" fill="#263238"/>
<path d="M33.1679 27.0896C33.1691 27.1719 33.146 27.2528 33.1015 27.322C33.057 27.3913 32.9931 27.446 32.9177 27.4792C32.8424 27.5124 32.7589 27.5226 32.6778 27.5087C32.5966 27.4947 32.5214 27.4572 32.4614 27.4007C32.4015 27.3443 32.3595 27.2714 32.3407 27.1912C32.3219 27.1111 32.3271 27.0271 32.3557 26.9499C32.3843 26.8727 32.435 26.8056 32.5015 26.757C32.568 26.7085 32.6473 26.6805 32.7295 26.6768C32.8422 26.6742 32.9514 26.716 33.0334 26.7933C33.1154 26.8705 33.1638 26.977 33.1679 27.0896Z" fill="#263238"/>
<path d="M31.1265 26.5744L31.1937 29.0896L32.5153 28.68L31.1265 26.5744Z" fill="#9A4A4D"/>
<path d="M29.2861 32.248C28.2173 32.1104 26.0221 31.4768 25.6797 30.6096C25.8168 31.0491 26.0861 31.4357 26.4509 31.7168C27.0909 32.28 29.2861 32.9136 29.2861 32.9136V32.248Z" fill="#9A4A4D"/>
<path d="M28.6205 73.3232L27.6797 69.2976L28.5085 62.008C28.5085 62.008 31.1165 61.0256 32.4989 59.0064C31.8831 60.478 30.8552 61.7404 29.5389 62.6416L28.1181 69.2784L28.6205 73.3232Z" fill="#263238"/>
<path d="M26.1118 65.4864L14.6718 58.8816L12.3838 78.1456L23.8238 84.7504L26.1118 65.4864Z" fill="#407BFF"/>
<path opacity="0.5" d="M26.1118 65.4864L14.6718 58.8816L12.3838 78.1456L23.8238 84.7504L26.1118 65.4864Z" fill="white"/>
<path d="M29.5421 81.4479L26.1117 80.7855L23.8237 84.7503L29.5421 81.4479Z" fill="#407BFF"/>
<path opacity="0.3" d="M29.5421 81.4479L26.1117 80.7855L23.8237 84.7503L29.5421 81.4479Z" fill="black"/>
<path d="M26.1117 80.7856L27.2541 63.5056L26.1117 65.4864L23.8237 84.7504L26.1117 80.7856Z" fill="#407BFF"/>
<path opacity="0.1" d="M26.1117 80.7856L27.2541 63.5056L26.1117 65.4864L23.8237 84.7504L26.1117 80.7856Z" fill="black"/>
<path d="M14.6719 58.8816L18.1023 58.2224V56.9008L29.5423 63.5056H27.2543L26.1119 65.4864L14.6719 58.8816Z" fill="#407BFF"/>
<path d="M21.9104 65.2976C21.9104 65.4672 21.7888 65.5344 21.6416 65.4512C21.5642 65.3999 21.4999 65.3312 21.4537 65.2507C21.4076 65.1701 21.381 65.0799 21.376 64.9872C21.376 64.8176 21.4944 64.7472 21.6416 64.8336C21.7197 64.8843 21.7848 64.9528 21.8315 65.0334C21.8782 65.114 21.9053 65.2045 21.9104 65.2976Z" fill="#455A64"/>
<path d="M18.5564 63.1664C18.5564 63.3392 18.438 63.4064 18.2876 63.3232C18.2102 63.2719 18.1459 63.2032 18.0997 63.1227C18.0536 63.0421 18.027 62.9519 18.022 62.8592C18.022 62.6896 18.1404 62.6192 18.2876 62.7056C18.366 62.7552 18.4314 62.823 18.4782 62.9032C18.525 62.9834 18.5518 63.0737 18.5564 63.1664Z" fill="#455A64"/>
<path d="M25.4621 63C25.4621 63.1696 25.3437 63.24 25.1965 63.1536C25.1186 63.1034 25.0537 63.0355 25.007 62.9554C24.9602 62.8753 24.9331 62.7853 24.9277 62.6928C24.9277 62.52 25.0493 62.4528 25.1965 62.536C25.2739 62.5873 25.3382 62.6559 25.3844 62.7365C25.4305 62.8171 25.4571 62.9073 25.4621 63Z" fill="#455A64"/>
<path d="M22.07 61.1056C22.07 61.2752 21.9484 61.3456 21.8012 61.2592C21.7237 61.2088 21.6593 61.1408 21.6131 61.0607C21.5669 60.9806 21.5404 60.8907 21.5356 60.7984C21.5356 60.6288 21.654 60.5584 21.8012 60.6448C21.8792 60.695 21.9441 60.7629 21.9908 60.843C22.0375 60.9231 22.0647 61.013 22.07 61.1056Z" fill="#455A64"/>
<path d="M29.5422 63.5056H27.2542L26.1118 80.7856L29.5422 81.448V63.5056Z" fill="#407BFF"/>
<path d="M18.1023 58.2224V60.8624L14.6719 58.8816L18.1023 58.2224Z" fill="#407BFF"/>
<path opacity="0.2" d="M29.5422 63.5056H27.2542L26.1118 80.7856L29.5422 81.448V63.5056Z" fill="black"/>
<path opacity="0.2" d="M18.1023 58.2224V60.8624L14.6719 58.8816L18.1023 58.2224Z" fill="black"/>
<path d="M18.2877 63.1152C18.2677 63.1197 18.2469 63.1197 18.2269 63.1152C18.1883 63.0976 18.1578 63.0659 18.1418 63.0267C18.1257 62.9874 18.1253 62.9435 18.1405 62.904L21.0525 56.0144C21.0694 55.9752 21.101 55.9443 21.1405 55.9281C21.1799 55.912 21.2242 55.9119 21.2637 55.928C21.3023 55.9455 21.3327 55.9772 21.3488 56.0164C21.3648 56.0557 21.3653 56.0996 21.3501 56.1392L18.4381 63.0288C18.4234 63.0556 18.4016 63.0779 18.375 63.0931C18.3485 63.1083 18.3183 63.116 18.2877 63.1152Z" fill="#263238"/>
<path d="M21.8011 61.08C21.7587 61.08 21.718 61.0631 21.688 61.0331C21.658 61.0031 21.6411 60.9624 21.6411 60.92V56.152C21.6411 56.1095 21.658 56.0688 21.688 56.0388C21.718 56.0088 21.7587 55.992 21.8011 55.992C21.8435 55.992 21.8842 56.0088 21.9143 56.0388C21.9443 56.0688 21.9611 56.1095 21.9611 56.152V60.9232C21.9603 60.965 21.943 61.0049 21.9131 61.0342C21.8832 61.0636 21.843 61.08 21.8011 61.08Z" fill="#263238"/>
<path d="M16.3998 48.7536L20.8382 42.5424C21.5451 41.8275 22.0773 40.9591 22.3934 40.0048C23.1678 37.5504 23.2894 36.1104 22.4766 34.4528C20.6718 34.4528 19.6158 34.6352 17.5646 38.1072C15.891 40.9392 13.4046 45.768 12.7966 46.8112C12.0382 48.0912 11.8174 48.4464 12.4766 49.7136C13.1358 50.9808 15.619 54.2352 17.7086 56.6832C19.7982 59.1312 21.0206 59.9568 22.5822 60.3184C24.1438 60.68 24.8414 60.376 25.7214 59.5664C26.6014 58.7568 25.9806 58.0368 25.1614 57.848C24.3843 57.6801 23.6433 57.3756 22.9726 56.9488C22.4766 56.5904 22.3326 56.3088 22.7838 56.2896C23.379 56.264 23.9358 56.1456 24.0894 55.7296C24.2814 55.208 23.7886 55.3488 23.107 55.1376C22.2264 54.8701 21.3201 54.6963 20.403 54.6192C19.2798 54.68 16.3998 48.7536 16.3998 48.7536Z" fill="#B55B52"/>
<path d="M24.6779 31.272H25.1163V35.432C25.1163 36.2374 24.7964 37.0098 24.2269 37.5793C23.6573 38.1488 22.8849 38.4688 22.0795 38.4688H21.6411V34.3088C21.6411 33.5034 21.9611 32.7309 22.5306 32.1614C23.1001 31.5919 23.8725 31.272 24.6779 31.272Z" fill="#263238"/>
<path d="M25.0395 62.8016V59.1888C25.0395 58.6608 24.8827 57.8192 24.4507 57.6624C24.4304 57.6557 24.4116 57.645 24.3955 57.6309C24.3794 57.6168 24.3663 57.5996 24.3569 57.5804C24.3476 57.5612 24.3422 57.5402 24.341 57.5189C24.3399 57.4975 24.3431 57.4761 24.3504 57.456C24.3576 57.4359 24.3689 57.4174 24.3834 57.4017C24.3979 57.386 24.4155 57.3734 24.435 57.3646C24.4545 57.3558 24.4755 57.351 24.4969 57.3505C24.5183 57.35 24.5396 57.3537 24.5595 57.3616C25.3371 57.6464 25.3595 59.032 25.3595 59.1888V62.8016C25.3595 62.844 25.3426 62.8847 25.3126 62.9147C25.2826 62.9447 25.2419 62.9616 25.1995 62.9616C25.157 62.9616 25.1163 62.9447 25.0863 62.9147C25.0563 62.8847 25.0395 62.844 25.0395 62.8016Z" fill="#263238"/>
<path d="M21.6831 65.2816C21.663 65.2846 21.6425 65.2846 21.6223 65.2816C21.6027 65.2735 21.5848 65.2616 21.5698 65.2466C21.5548 65.2316 21.5429 65.2137 21.5349 65.1941C21.5268 65.1744 21.5228 65.1534 21.523 65.1321C21.5231 65.1109 21.5276 65.0899 21.5359 65.0704C21.5359 65.0512 22.3199 63.208 23.2447 60.5648C24.1439 58.0048 23.8271 57.4928 23.6479 57.3968C23.6294 57.3867 23.613 57.3731 23.5998 57.3567C23.5865 57.3403 23.5767 57.3215 23.5707 57.3013C23.5648 57.2811 23.5629 57.2599 23.5651 57.2389C23.5674 57.218 23.5738 57.1977 23.5839 57.1792C23.6048 57.1424 23.6392 57.1151 23.6798 57.1032C23.7204 57.0913 23.764 57.0956 23.8015 57.1152C24.3679 57.4352 24.2879 58.552 23.5487 60.6704C22.6207 63.32 21.8399 65.1664 21.8399 65.1856C21.8272 65.216 21.8052 65.2417 21.7771 65.259C21.7489 65.2762 21.716 65.2841 21.6831 65.2816Z" fill="#263238"/>
<path d="M11.6001 100.05C11.4931 100.861 11.3234 101.661 11.0929 102.441C10.9233 103.237 10.6923 104.016 10.4023 104.77C10.5143 103.961 10.6888 103.164 10.9239 102.387C11.0902 101.59 11.3163 100.808 11.6001 100.05Z" fill="#E0E0E0"/>
<path d="M23.6743 93.3558C23.6019 94.1433 23.4659 94.9224 23.2679 95.6844C23.1334 96.4567 22.9373 97.215 22.6816 97.9509C22.7535 97.1636 22.8883 96.3845 23.0845 95.6223C23.2223 94.8504 23.4196 94.0923 23.6743 93.3558Z" fill="#E0E0E0"/>
<path d="M29.548 105.802C29.401 106.547 29.1916 107.275 28.9222 107.979C28.7111 108.706 28.4428 109.413 28.1201 110.09C28.2671 109.346 28.4766 108.617 28.746 107.913C28.9579 107.186 29.2262 106.48 29.548 105.802Z" fill="#E0E0E0"/>
<path d="M41.0719 125.455C41.0935 125.505 37.3529 127.601 32.7166 130.135C28.0804 132.67 24.3002 134.688 24.275 134.641C24.2499 134.595 27.9941 132.495 32.6303 129.957C37.2665 127.419 41.0467 125.405 41.0719 125.455Z" fill="#E0E0E0"/>
<path d="M16.797 76.3069C16.8186 76.3574 13.0779 78.4531 8.44172 80.9912C3.8055 83.5293 0.0253032 85.5435 0.000125875 85.4931C-0.0250515 85.4426 3.72997 83.3275 8.3554 80.7894C12.9808 78.2513 16.7718 76.2371 16.797 76.3069Z" fill="#E0E0E0"/>
<path d="M8.98854 83.4278C8.96721 83.4328 8.94512 83.4328 8.92379 83.4278C8.92379 83.4278 8.90221 83.4278 8.89502 83.4278L9.06047 83.3353C9.06047 83.3661 9.06047 83.4124 9.00292 83.4394C8.94538 83.4664 8.90941 83.4587 8.89502 83.4394L9.06047 83.3468C9.06165 83.3558 9.06165 83.3649 9.06047 83.3738C9.0425 83.3996 9.01729 83.4185 8.98854 83.4278Z" fill="#E0E0E0"/>
<path d="M4.80888 128.385C4.70458 128.385 4.62545 126.662 4.63624 124.543C4.64703 122.424 4.73695 120.701 4.84125 120.701C4.94556 120.701 5.02469 122.42 5.0139 124.543C5.00311 126.666 4.92038 128.385 4.80888 128.385Z" fill="#E0E0E0"/>
<path d="M6.71562 128.393C6.61132 128.393 6.53219 126.674 6.54298 124.551C6.55377 122.428 6.64369 120.709 6.748 120.709C6.8523 120.709 6.93143 122.432 6.92064 124.555C6.90985 126.678 6.81993 128.393 6.71562 128.393Z" fill="#E0E0E0"/>
<path d="M16.2107 128.44C16.1064 128.44 16.0273 126.72 16.0381 124.597C16.0489 122.475 16.1388 120.755 16.2431 120.755C16.3474 120.755 16.4265 122.478 16.4158 124.601C16.405 126.724 16.3186 128.443 16.2107 128.44Z" fill="#E0E0E0"/>
<path d="M18.117 128.451C18.0127 128.451 17.9336 126.728 17.9443 124.609C17.9551 122.49 18.0451 120.767 18.1494 120.767C18.2537 120.767 18.3328 122.486 18.322 124.609C18.3112 126.732 18.2141 128.451 18.117 128.451Z" fill="#E0E0E0"/>
<path d="M17.6645 149.823C17.6645 149.936 14.913 150.014 11.5141 149.998C8.11511 149.982 5.36719 149.874 5.36719 149.761C5.36719 149.649 8.11871 149.571 11.5177 149.587C14.9166 149.602 17.6681 149.711 17.6645 149.823Z" fill="#E0E0E0"/>
<path d="M114.255 59.32C114.299 59.2795 114.346 59.2431 114.396 59.2114L114.816 58.9125C115.049 58.7596 115.272 58.5911 115.485 58.408C115.788 58.175 116.078 57.925 116.356 57.659L116.852 57.1855C117.018 57.0109 117.19 56.8207 117.367 56.6267C117.556 56.4259 117.736 56.2148 117.906 55.9941C118.082 55.7651 118.284 55.54 118.453 55.2761C119.284 54.132 119.973 52.8756 120.503 51.5388C121.153 49.9216 121.558 48.2026 121.704 46.447C121.787 45.4723 121.787 44.4916 121.704 43.5169C121.591 42.4836 121.426 41.4576 121.212 40.4432C120.801 38.363 120.258 36.1354 120.424 33.7719C120.589 31.4084 121.46 29.1147 122.618 26.9686C123.776 24.8224 125.136 22.8548 126.83 21.3568C127.653 20.6155 128.577 20.0159 129.57 19.5793C130.527 19.1847 131.527 18.9239 132.545 18.8031C134.422 18.6116 136.31 18.5792 138.192 18.7061C139.819 18.7976 141.451 18.7223 143.065 18.481C144.399 18.2788 145.68 17.782 146.828 17.0218C147.701 16.4471 148.454 15.6833 149.04 14.7786C149.411 14.2117 149.686 13.5784 149.853 12.908C149.964 12.45 149.986 12.1978 150 12.2016C149.984 12.4439 149.948 12.6842 149.892 12.9196C149.74 13.6016 149.473 14.2475 149.104 14.8252C148.527 15.7458 147.777 16.5257 146.903 17.1149C145.746 17.8955 144.452 18.4083 143.101 18.6207C141.475 18.8737 139.829 18.9556 138.188 18.8652C136.315 18.7507 134.437 18.7896 132.57 18.9816C131.568 19.1071 130.584 19.3679 129.642 19.7578C128.669 20.1888 127.762 20.7792 126.956 21.5081C125.294 22.979 123.952 24.9466 122.79 27.0617C121.629 29.1768 120.783 31.4588 120.632 33.7719C120.481 36.0849 120.992 38.297 121.406 40.3889C121.619 41.4136 121.781 42.45 121.891 43.4936C121.978 44.481 121.978 45.4751 121.891 46.4625C121.727 48.2374 121.3 49.9724 120.625 51.6009C120.081 52.9443 119.377 54.2058 118.532 55.3537C118.356 55.6176 118.172 55.8388 117.974 56.0678C117.777 56.2968 117.615 56.5102 117.428 56.7004L116.903 57.2554L116.395 57.725C116.113 57.9879 115.818 58.2341 115.511 58.4624C115.293 58.6416 115.065 58.8049 114.827 58.9514L114.396 59.2308C114.352 59.2652 114.305 59.2951 114.255 59.32Z" fill="#E0E0E0"/>
<path d="M104.479 48.8221C104.479 48.8221 104.501 48.76 104.551 48.6475C104.602 48.5349 104.685 48.3564 104.782 48.143C104.879 47.9295 105.037 47.6656 105.206 47.3668C105.375 47.0679 105.594 46.7109 105.868 46.3461C106.511 45.44 107.252 44.6204 108.076 43.905C109.165 42.9506 110.386 42.1871 111.695 41.6424C112.458 41.3316 113.245 41.0939 114.047 40.9322C114.918 40.7746 115.8 40.6877 116.683 40.6722C118.507 40.614 120.456 40.777 122.492 40.645C123.533 40.5816 124.564 40.3942 125.567 40.0862C126.61 39.7538 127.611 39.286 128.549 38.6929C130.524 37.4361 132.208 35.7108 133.473 33.6477C134.729 31.5735 135.585 29.248 135.991 26.8095C136.377 24.5418 136.435 22.2233 136.163 19.9364C135.908 17.7514 135.415 15.7139 135.131 13.7657C134.81 11.9616 134.786 10.1106 135.059 8.29743C135.328 6.80835 135.863 5.39002 136.635 4.12155C137.213 3.16453 137.915 2.30194 138.721 1.56014C139.233 1.09968 139.782 0.688053 140.361 0.329879L140.825 0.0776189L140.987 0L140.836 0.0970233L140.382 0.368689C139.814 0.739133 139.275 1.15971 138.771 1.62611C137.982 2.37224 137.294 3.23451 136.728 4.18753C135.976 5.44809 135.455 6.85242 135.192 8.3246C134.934 10.1204 134.966 11.951 135.289 13.7346C135.577 15.6751 136.077 17.7048 136.343 19.9092C136.621 22.2175 136.565 24.5584 136.178 26.8483C135.773 29.3144 134.911 31.6668 133.642 33.7641C132.361 35.8574 130.653 37.607 128.65 38.8792C127.697 39.4792 126.68 39.9523 125.621 40.288C124.606 40.6005 123.561 40.7893 122.506 40.8507C120.449 40.9788 118.503 40.808 116.687 40.8507C115.812 40.864 114.939 40.947 114.076 41.0991C113.282 41.2537 112.502 41.4835 111.745 41.786C109.456 42.7307 107.447 44.325 105.929 46.4004C105.656 46.7575 105.451 47.1106 105.256 47.4017C105.062 47.6928 104.929 47.9645 104.818 48.1779C104.706 48.3913 104.631 48.566 104.569 48.6669C104.508 48.7678 104.479 48.8221 104.479 48.8221Z" fill="#E0E0E0"/>
<path d="M136.516 3.98961C136.709 4.08729 136.894 4.20286 137.07 4.33501C137.429 4.56787 137.911 4.92103 138.508 5.37122C141.656 7.72926 144.569 10.4318 147.202 13.4358C147.702 14.0141 148.101 14.4875 148.367 14.8252C148.514 14.9962 148.648 15.1806 148.766 15.3763C148.606 15.2258 148.457 15.0623 148.32 14.8873C148.007 14.5457 147.601 14.1111 147.108 13.5445C146.079 12.419 144.623 10.9016 142.929 9.32977C141.235 7.75799 139.63 6.42683 138.443 5.49929L137.034 4.40487C136.851 4.28177 136.678 4.14289 136.516 3.98961Z" fill="#E0E0E0"/>
<path d="M135.094 8.13445C135.24 8.25213 135.377 8.38188 135.504 8.52254L136.583 9.64025C137.493 10.5833 138.767 11.864 140.223 13.2223C141.68 14.5807 143.039 15.7488 144.039 16.5832L145.219 17.569C145.371 17.6839 145.514 17.8138 145.644 17.9571C145.479 17.8701 145.322 17.7662 145.176 17.6466C144.881 17.4332 144.457 17.1149 143.953 16.7152C142.932 15.9118 141.55 14.7747 140.09 13.397C138.63 12.0193 137.367 10.7308 136.493 9.76056C136.051 9.27156 135.698 8.87182 135.461 8.59628C135.323 8.45764 135.2 8.30272 135.094 8.13445Z" fill="#E0E0E0"/>
<path d="M135.57 13.2223C135.898 13.4364 136.207 13.6819 136.494 13.9558C137.048 14.4293 137.8 15.1201 138.613 15.8963C139.426 16.6725 140.141 17.3905 140.648 17.9221C140.939 18.1936 141.204 18.4951 141.44 18.8225C141.125 18.5897 140.828 18.3302 140.551 18.0463L138.48 16.0748L136.404 14.1033C136.102 13.8374 135.823 13.5425 135.57 13.2223Z" fill="#E0E0E0"/>
<path d="M131.998 19.3309C132.25 19.4883 132.485 19.6744 132.699 19.8859L134.336 21.2947L135.99 22.684C136.233 22.8587 136.457 23.0632 136.656 23.2933C136.389 23.1646 136.138 23.0017 135.908 22.8082C135.462 22.4861 134.857 22.032 134.214 21.4693C133.57 20.9066 133.002 20.3982 132.606 20.0062C132.378 19.8099 132.173 19.583 131.998 19.3309Z" fill="#E0E0E0"/>
<path d="M127.757 21.1976C127.779 21.1744 128.203 21.6207 128.908 22.3115C129.613 23.0023 130.606 23.9143 131.775 24.8651C132.944 25.816 134.03 26.6038 134.836 27.1549C135.282 27.4312 135.716 27.7317 136.134 28.0553C136.001 28.0097 135.873 27.9486 135.753 27.8729C135.516 27.7448 135.174 27.543 134.76 27.2868C133.684 26.6048 132.646 25.8544 131.653 25.0398C130.66 24.2249 129.715 23.3448 128.822 22.4046C128.48 22.0437 128.211 21.741 128.034 21.5275C127.928 21.432 127.835 21.3209 127.757 21.1976Z" fill="#E0E0E0"/>
<path d="M125.067 24.6555C125.1 24.6051 127.197 26.2778 129.743 28.389C132.29 30.5002 134.333 32.2467 134.297 32.2932C134.261 32.3398 132.171 30.671 129.621 28.5598C127.071 26.4485 125.035 24.6905 125.067 24.6555Z" fill="#E0E0E0"/>
<path d="M121.812 27.7953C121.957 27.8851 122.094 27.9918 122.218 28.1135L123.297 29.0333C124.203 29.8095 125.455 30.8806 126.872 32.0255C128.289 33.1704 129.584 34.1716 130.53 34.8896L131.652 35.7473C131.795 35.8432 131.927 35.955 132.048 36.0811C131.894 36.0091 131.747 35.9207 131.609 35.8172C131.329 35.6348 130.933 35.3631 130.451 35.0177C129.483 34.3308 128.163 33.345 126.75 32.2001C125.336 31.0553 124.088 29.9647 123.207 29.1536C122.765 28.7655 122.412 28.4162 122.171 28.1795C122.039 28.0659 121.918 27.9371 121.812 27.7953Z" fill="#E0E0E0"/>
<path d="M120.826 32.3437C120.859 32.2932 122.625 33.7136 124.801 35.5105C126.977 37.3074 128.685 38.8054 128.649 38.852C128.613 38.8986 126.851 37.482 124.675 35.6852C122.499 33.8883 120.79 32.3903 120.826 32.3437Z" fill="#E0E0E0"/>
<path d="M119.906 37.0745C120.711 37.5303 121.484 38.0492 122.219 38.6269C122.992 39.1415 123.728 39.7161 124.424 40.3461C123.616 39.8927 122.842 39.3737 122.107 38.7938C121.334 38.2825 120.598 37.7077 119.906 37.0745Z" fill="#E0E0E0"/>
<path d="M115.349 41.5997C115.712 41.7788 116.059 41.9918 116.388 42.2362C117.014 42.6592 117.866 43.2647 118.78 43.971C119.694 44.6773 120.503 45.3565 121.071 45.8571C121.394 46.1124 121.692 46.401 121.963 46.7187C121.62 46.5002 121.293 46.2537 120.985 45.9813C120.391 45.5078 119.575 44.8558 118.661 44.1495C117.748 43.4432 116.917 42.8184 116.313 42.3643C115.972 42.1389 115.65 41.8832 115.349 41.5997Z" fill="#E0E0E0"/>
<path d="M111.386 41.6812C111.535 41.7659 111.675 41.8688 111.803 41.9878C112.066 42.1974 112.436 42.5117 112.882 42.9037C113.788 43.6799 115.018 44.8054 116.331 46.0938C117.644 47.3823 118.788 48.6009 119.597 49.5013C120.004 49.9515 120.316 50.3241 120.543 50.5841C120.663 50.7117 120.77 50.8521 120.863 51.0032C120.726 50.8978 120.599 50.7768 120.486 50.6423L119.496 49.6138C118.662 48.7406 117.504 47.5453 116.195 46.2568C114.885 44.9684 113.677 43.8351 112.792 43.0201L111.749 42.0538C111.617 41.9432 111.495 41.8184 111.386 41.6812Z" fill="#E0E0E0"/>
<path d="M108.057 44.8714C108.218 44.9699 108.369 45.0842 108.51 45.2129C108.791 45.4457 109.194 45.7834 109.686 46.2103C110.676 47.0641 112.024 48.2633 113.488 49.6216C114.952 50.98 116.258 52.2335 117.189 53.1572C117.657 53.619 118.027 53.9993 118.268 54.2632C118.409 54.3926 118.536 54.5369 118.65 54.694C118.495 54.5849 118.349 54.4615 118.214 54.3253L117.081 53.2736C116.096 52.3538 114.787 51.1352 113.344 49.7807L109.582 46.3267L108.46 45.2595C108.315 45.1437 108.18 45.0138 108.057 44.8714Z" fill="#E0E0E0"/>
</svg>
