<svg width="252" height="252" viewBox="0 0 252 252" fill="none" xmlns="http://www.w3.org/2000/svg">
<path d="M44.5788 222.874C90.0396 249.707 163.755 249.707 209.221 222.874C254.686 196.041 254.686 152.536 209.221 125.708C163.755 98.8799 90.0396 98.8748 44.5738 125.708C-0.892049 152.541 -0.887012 196.056 44.5788 222.874Z" fill="#F5F5F5"/>
<path d="M197.135 217.249C209.435 217.249 219.406 211.493 219.406 204.392C219.406 197.291 209.435 191.535 197.135 191.535C184.834 191.535 174.863 197.291 174.863 204.392C174.863 211.493 184.834 217.249 197.135 217.249Z" fill="#E0E0E0"/>
<path d="M183.164 38.8786L187.029 41.1113C187.008 40.9441 186.996 40.7759 186.994 40.6073V39.4784C186.994 37.4624 188.395 36.6761 190.119 37.6741C190.861 38.1301 191.497 38.7403 191.984 39.4633C192.266 36.9433 194.232 36.026 196.62 37.4019C199.201 38.9139 201.293 42.5175 201.293 45.5012V47.1744C201.31 47.8426 201.175 48.506 200.899 49.1148L204.105 50.9696C204.612 51.3005 205.034 51.7472 205.336 52.2729C205.637 52.7986 205.809 53.3883 205.839 53.9936C205.839 55.0973 205.062 55.5459 204.105 55.0016L183.164 42.9056C182.656 42.5746 182.234 42.1279 181.933 41.6022C181.631 41.0765 181.459 40.4868 181.43 39.8816C181.44 38.7728 182.206 38.3041 183.164 38.8786Z" fill="#EBEBEB"/>
<path d="M166.622 50.1378L169.541 51.8212C169.525 51.6941 169.516 51.5662 169.515 51.4381V50.5914C169.515 49.0794 170.574 48.4797 171.874 49.2306C172.435 49.5736 172.915 50.0345 173.28 50.5813C173.492 48.6913 174.974 47.9857 176.778 49.024C177.805 49.694 178.66 50.5967 179.273 51.6589C179.886 52.7211 180.24 53.9129 180.306 55.1375V56.4025C180.32 56.906 180.218 57.4059 180.009 57.8641L182.428 59.2652C182.809 59.5128 183.126 59.8467 183.354 60.2399C183.582 60.6331 183.713 61.0745 183.738 61.5282C183.738 62.3648 183.154 62.7025 182.428 62.2842L166.622 53.1568C166.243 52.9102 165.926 52.5779 165.699 52.1866C165.471 51.7952 165.339 51.3558 165.312 50.9039C165.312 50.0572 165.902 49.7195 166.622 50.1378Z" fill="#EBEBEB"/>
<path d="M37.2355 145.464C36.9482 145.621 31.6915 147.117 29.7259 144.537C27.7603 141.956 31.0111 137.94 29.1816 136.473C27.3521 135.006 22.2214 136.473 20.9866 133.363C19.7518 130.254 23.4108 128.903 21.3545 125.763C20.0592 123.787 16.8739 122.678 16.5917 120.849C16.128 117.795 21.1882 116.389 25.5226 119.276C29.857 122.164 32.4727 120.839 33.8486 120.642C35.2246 120.446 38.183 120.879 38.0873 125.682C37.9915 130.485 37.2355 145.464 37.2355 145.464Z" fill="#9269AD"/>
<path d="M37.5832 138.6C37.5149 138.601 37.4486 138.577 37.3967 138.532C37.3448 138.488 37.3108 138.426 37.301 138.358C35.789 129.205 25.1496 121.751 19.6156 120.154C19.5421 120.133 19.4798 120.084 19.4425 120.017C19.4052 119.951 19.3958 119.872 19.4166 119.798C19.4373 119.725 19.4864 119.662 19.553 119.625C19.6196 119.588 19.6984 119.578 19.7719 119.599C25.4318 121.237 36.3182 128.873 37.8655 138.247C37.8771 138.322 37.8588 138.398 37.8144 138.46C37.7701 138.521 37.7033 138.562 37.6286 138.575L37.5832 138.6Z" fill="white"/>
<path d="M25.0336 130.939C24.9702 130.941 24.9079 130.922 24.8568 130.884C24.8057 130.847 24.7687 130.793 24.7518 130.732C24.7349 130.671 24.7391 130.606 24.7637 130.547C24.7883 130.489 24.8319 130.44 24.8875 130.41C25.0588 130.304 29.1513 127.89 33.1884 129.029C33.2615 129.051 33.3233 129.101 33.3609 129.167C33.3984 129.234 33.4088 129.312 33.39 129.387C33.3689 129.459 33.32 129.521 33.2539 129.557C33.1879 129.594 33.11 129.603 33.0372 129.583C29.232 128.52 25.2 130.878 25.2 130.904C25.1491 130.931 25.0913 130.944 25.0336 130.939V130.939Z" fill="white"/>
<path d="M39.2767 148.982C39.3306 149.715 39.5562 150.425 39.9353 151.055C40.3144 151.684 40.8364 152.216 41.4591 152.606L102.609 187.886C103.286 188.229 104.033 188.408 104.792 188.408C105.55 188.408 106.298 188.229 106.974 187.886L190.638 139.578C191.297 139.23 191.849 138.708 192.234 138.07C192.619 137.431 192.823 136.7 192.823 135.954C192.823 135.208 192.619 134.477 192.234 133.838C191.849 133.2 191.297 132.678 190.638 132.33L129.493 97.0503C128.816 96.7071 128.069 96.5283 127.31 96.5283C126.552 96.5283 125.804 96.7071 125.128 97.0503L41.4641 145.359C40.8405 145.748 40.3176 146.28 39.9375 146.909C39.5575 147.539 39.3311 148.249 39.2767 148.982V148.982Z" fill="#37474F"/>
<path d="M104.792 183.708V188.43C104.033 188.451 103.282 188.278 102.609 187.926L41.4591 152.646C40.8197 152.31 40.2812 151.809 39.8982 151.196C39.5153 150.584 39.3016 149.88 39.2791 149.158C39.2565 148.436 39.4259 147.72 39.7699 147.085C40.1139 146.449 40.6202 145.916 41.2373 145.54C40.2595 146.241 40.3351 147.269 41.4591 147.919L102.609 183.199C103.282 183.552 104.033 183.727 104.792 183.708V183.708Z" fill="#263238"/>
<path d="M37.2304 145.434C36.622 145.023 36.1195 144.473 35.7639 143.83C35.4083 143.187 35.2097 142.469 35.1842 141.735V68.7609C35.2256 68.0037 35.4447 67.2669 35.8239 66.6102C36.203 65.9535 36.7315 65.3953 37.3665 64.9809L121.031 16.6775C121.68 16.3337 122.401 16.1472 123.135 16.1332C123.87 16.1192 124.597 16.278 125.259 16.5969C125.868 17.0098 126.371 17.5604 126.727 18.204C127.084 18.8476 127.284 19.5661 127.31 20.3013V93.2704C127.27 94.0278 127.051 94.7649 126.672 95.4217C126.293 96.0785 125.764 96.6366 125.128 97.0504L41.464 145.359C40.8142 145.704 40.092 145.891 39.3563 145.904C38.6206 145.917 37.8922 145.756 37.2304 145.434Z" fill="#455A64"/>
<path d="M41.202 145.49C40.5763 145.772 39.8963 145.913 39.21 145.904C38.5238 145.894 37.848 145.734 37.2304 145.434C36.6229 145.022 36.121 144.472 35.7655 143.829C35.41 143.186 35.2109 142.469 35.1842 141.735V68.7608C35.209 68.0019 35.4294 67.2623 35.8243 66.6138L39.9168 68.9725C39.5248 69.6223 39.3046 70.3612 39.2767 71.1195V144.099C39.2767 145.389 40.1184 145.969 41.202 145.49Z" fill="#263238"/>
<path d="M39.2767 71.1248V144.099C39.2767 145.49 40.2545 146.054 41.4591 145.359L125.123 97.0506C125.759 96.6367 126.288 96.0787 126.667 95.4218C127.046 94.765 127.265 94.0279 127.305 93.2706V20.3014C127.305 18.9104 126.328 18.3459 125.123 19.0414L41.4591 67.3448C40.8243 67.7595 40.296 68.3178 39.9169 68.9744C39.5378 69.6311 39.3185 70.3677 39.2767 71.1248V71.1248Z" fill="#37474F"/>
<path d="M41.4591 147.879L102.609 183.159C103.286 183.502 104.033 183.681 104.792 183.681C105.55 183.681 106.298 183.502 106.974 183.159L190.638 134.85C191.843 134.155 191.843 133.026 190.638 132.33L129.493 97.0503C128.816 96.7071 128.069 96.5283 127.31 96.5283C126.552 96.5283 125.804 96.7071 125.128 97.0503L41.4641 145.359C40.2545 146.054 40.2545 147.168 41.4591 147.879Z" fill="#455A64"/>
<path d="M42.6333 71.3967L123.273 24.8372C123.999 24.4189 124.584 24.7565 124.584 25.5932V88.7595C124.559 89.2141 124.428 89.6565 124.2 90.0506C123.973 90.4448 123.655 90.7795 123.273 91.0275L42.6333 137.592C41.9075 138.01 41.3229 137.673 41.3229 136.836V73.6647C41.3471 73.2101 41.4784 72.7677 41.7062 72.3736C41.9339 71.9795 42.2516 71.6447 42.6333 71.3967V71.3967Z" fill="white"/>
<path opacity="0.6" d="M42.6333 71.3967L123.273 24.8372C123.999 24.4189 124.584 24.7565 124.584 25.5932V88.7595C124.559 89.2141 124.428 89.6565 124.2 90.0506C123.973 90.4448 123.655 90.7795 123.273 91.0275L42.6333 137.592C41.9075 138.01 41.3229 137.673 41.3229 136.836V73.6647C41.3471 73.2101 41.4784 72.7677 41.7062 72.3736C41.9339 71.9795 42.2516 71.6447 42.6333 71.3967V71.3967Z" fill="#9269AD"/>
<path d="M82.7921 67.4001C84.9391 66.1602 86.683 67.1683 86.683 69.6479C86.6091 70.9971 86.2183 72.3098 85.5423 73.4797C84.8663 74.6496 83.9241 75.6437 82.7921 76.3814C80.6451 77.6212 78.9062 76.6182 78.9062 74.1386C78.9788 72.789 79.3684 71.4756 80.0436 70.3048C80.7187 69.134 81.6604 68.1389 82.7921 67.4001Z" fill="#F0F0F0"/>
<path d="M90.4579 80.6652C90.4579 76.5929 87.5952 74.7835 84.0672 76.8197L81.8647 78.12C78.3367 80.136 75.474 85.1105 75.474 89.208V90.3067L90.4579 81.6581V80.6652Z" fill="#F0F0F0"/>
<path d="M98.0329 82.6561C97.8918 82.3285 97.5289 82.2479 97.1207 82.4797L70.953 97.5997C70.672 97.7847 70.4382 98.0327 70.2702 98.3242C70.1022 98.6156 70.0046 98.9422 69.9854 99.2781V102.352C69.9854 102.856 70.2978 103.134 70.7212 103.018L70.7918 102.993C70.8469 102.97 70.9007 102.945 70.953 102.917L97.1207 87.7969C97.4028 87.6132 97.6375 87.3654 97.8057 87.0737C97.9738 86.7821 98.0707 86.4548 98.0884 86.1186V83.0593C98.0931 82.9228 98.0744 82.7864 98.0329 82.6561Z" fill="#F0F0F0"/>
<path d="M73.3168 97.9829C73.8208 97.6855 74.2391 97.9275 74.2391 98.5121C74.2229 98.8317 74.1307 99.1429 73.9703 99.4198C73.8099 99.6968 73.5859 99.9316 73.3168 100.105C72.8128 100.397 72.3995 100.16 72.3995 99.5705C72.416 99.2522 72.5078 98.9424 72.6672 98.6664C72.8267 98.3904 73.0493 98.1562 73.3168 97.9829V97.9829Z" fill="#9269AD"/>
<path d="M76.361 96.2237C76.865 95.9314 77.2783 96.1683 77.2783 96.758C77.2618 97.0763 77.1701 97.3861 77.0106 97.6621C76.8512 97.9381 76.6286 98.1723 76.361 98.3456C75.857 98.643 75.4387 98.401 75.4387 97.8416C75.451 97.5176 75.5413 97.2014 75.7019 96.9198C75.8624 96.6381 76.0886 96.3994 76.361 96.2237V96.2237Z" fill="#9269AD"/>
<path d="M79.4001 94.47C79.9041 94.1776 80.3174 94.4145 80.3174 94.9991C80.3017 95.3183 80.2103 95.6292 80.0508 95.9061C79.8913 96.183 79.6683 96.418 79.4001 96.5918C78.8961 96.8841 78.4778 96.6472 78.4778 96.0626C78.4941 95.743 78.5862 95.4318 78.7466 95.1549C78.907 94.8779 79.131 94.6432 79.4001 94.47Z" fill="#9269AD"/>
<path d="M82.4393 92.736C82.9433 92.4386 83.3616 92.6805 83.3616 93.24C83.3453 93.5596 83.2531 93.8707 83.0928 94.1477C82.9324 94.4246 82.7084 94.6594 82.4393 94.8326C81.9353 95.1249 81.522 94.8881 81.522 94.3286C81.5377 94.0095 81.6291 93.6986 81.7886 93.4217C81.948 93.1448 82.1711 92.9097 82.4393 92.736V92.736Z" fill="#9269AD"/>
<path d="M85.4783 90.9571C85.9823 90.6648 86.4006 90.9017 86.4006 91.4914C86.3823 91.8105 86.2894 92.1209 86.1292 92.3975C85.969 92.6742 85.746 92.9093 85.4783 93.084C84.9743 93.3763 84.561 93.1394 84.561 92.5498C84.5788 92.2311 84.671 91.921 84.8303 91.6444C84.9896 91.3678 85.2115 91.1324 85.4783 90.9571Z" fill="#9269AD"/>
<path d="M88.5225 89.2084C89.0265 88.9161 89.4398 89.1529 89.4398 89.7124C89.4241 90.0315 89.3327 90.3424 89.1732 90.6193C89.0137 90.8962 88.7907 91.1312 88.5225 91.305C88.0185 91.5973 87.6002 91.3604 87.6002 90.801C87.6165 90.4814 87.7087 90.1702 87.869 89.8933C88.0294 89.6164 88.2534 89.3816 88.5225 89.2084V89.2084Z" fill="#9269AD"/>
<path d="M91.5617 87.4494C92.0657 87.1571 92.479 87.394 92.479 87.9786C92.4632 88.2978 92.3719 88.6087 92.2124 88.8856C92.0529 89.1625 91.8299 89.3975 91.5617 89.5713C91.0577 89.8636 90.6444 89.6267 90.6444 89.0421C90.6601 88.7229 90.7515 88.4121 90.911 88.1352C91.0705 87.8582 91.2935 87.6232 91.5617 87.4494V87.4494Z" fill="#9269AD"/>
<path d="M94.6007 85.6803C95.1047 85.388 95.5231 85.6248 95.5231 86.2145C95.5048 86.5337 95.4118 86.8441 95.2516 87.1207C95.0914 87.3973 94.8685 87.6325 94.6007 87.8072C94.0967 88.0995 93.6835 87.8626 93.6835 87.2729C93.702 86.9544 93.7945 86.6446 93.9538 86.3681C94.113 86.0916 94.3345 85.8561 94.6007 85.6803V85.6803Z" fill="#9269AD"/>
<path d="M48.5553 145.989L126.217 101.133C126.555 100.961 126.929 100.872 127.308 100.872C127.687 100.872 128.061 100.961 128.399 101.133L132.37 103.426C132.502 103.471 132.616 103.555 132.697 103.668C132.778 103.781 132.822 103.917 132.822 104.056C132.822 104.195 132.778 104.33 132.697 104.443C132.616 104.556 132.502 104.641 132.37 104.686L54.699 149.537C54.3608 149.708 53.987 149.798 53.6079 149.798C53.2287 149.798 52.8549 149.708 52.5167 149.537L48.5553 147.249C48.4236 147.204 48.3093 147.119 48.2283 147.006C48.1473 146.893 48.1038 146.758 48.1038 146.619C48.1038 146.48 48.1473 146.344 48.2283 146.231C48.3093 146.118 48.4236 146.033 48.5553 145.989V145.989Z" fill="#37474F"/>
<path d="M58.7916 151.901L136.453 107.045C136.791 106.873 137.165 106.784 137.544 106.784C137.923 106.784 138.297 106.873 138.635 107.045L163.069 121.157C163.201 121.202 163.315 121.286 163.396 121.399C163.477 121.512 163.521 121.648 163.521 121.787C163.521 121.926 163.477 122.061 163.396 122.174C163.315 122.287 163.201 122.372 163.069 122.417L85.4986 167.202C85.1591 167.373 84.7846 167.461 84.4049 167.461C84.0251 167.461 83.6506 167.373 83.3112 167.202L58.7966 153.151C58.666 153.107 58.5524 153.023 58.4717 152.911C58.391 152.8 58.3474 152.665 58.3468 152.528C58.3463 152.39 58.3888 152.255 58.4686 152.143C58.5484 152.03 58.6613 151.946 58.7916 151.901V151.901Z" fill="#263238"/>
<path d="M128.409 127.235L130.843 125.829C130.944 125.768 130.939 125.668 130.843 125.607L128.016 123.984C127.956 123.953 127.889 123.937 127.822 123.937C127.754 123.937 127.688 123.953 127.628 123.984L125.194 125.39C125.093 125.446 125.098 125.547 125.194 125.612L128.006 127.235C128.068 127.269 128.137 127.286 128.208 127.286C128.278 127.286 128.347 127.269 128.409 127.235V127.235ZM123.611 121.656L121.182 123.057C121.076 123.117 121.081 123.218 121.182 123.284L123.994 124.907C124.054 124.936 124.121 124.952 124.188 124.952C124.255 124.952 124.322 124.936 124.382 124.907L126.816 123.5C126.917 123.44 126.912 123.339 126.816 123.279L123.984 121.666C123.927 121.636 123.863 121.619 123.799 121.618C123.734 121.616 123.67 121.629 123.611 121.656V121.656ZM115.754 126.192L111.641 128.566C111.535 128.626 111.545 128.727 111.641 128.792L114.448 130.415C114.509 130.445 114.575 130.461 114.642 130.461C114.71 130.461 114.776 130.445 114.836 130.415L118.954 128.042C119.055 127.981 119.05 127.88 118.954 127.82L116.142 126.192C116.081 126.162 116.015 126.147 115.948 126.147C115.88 126.147 115.814 126.162 115.754 126.192ZM120.058 123.707L117.623 125.113C117.523 125.169 117.528 125.27 117.623 125.335L120.456 126.958C120.516 126.988 120.583 127.003 120.65 127.003C120.717 127.003 120.784 126.988 120.844 126.958L123.273 125.552C123.379 125.491 123.374 125.39 123.273 125.33L120.456 123.717C120.396 123.683 120.328 123.664 120.258 123.662C120.189 123.661 120.12 123.676 120.058 123.707V123.707ZM110.517 129.216L108.088 130.617C107.982 130.677 107.987 130.778 108.088 130.844L110.9 132.467C110.96 132.498 111.027 132.514 111.094 132.514C111.162 132.514 111.228 132.498 111.288 132.467L113.723 131.066C113.823 131.005 113.818 130.904 113.723 130.839L110.91 129.216C110.849 129.185 110.782 129.169 110.714 129.169C110.645 129.169 110.578 129.185 110.517 129.216V129.216ZM106.964 131.267L104.535 132.668C104.429 132.729 104.434 132.83 104.535 132.895L107.352 134.518C107.412 134.548 107.479 134.563 107.546 134.563C107.613 134.563 107.68 134.548 107.74 134.518L110.174 133.112C110.275 133.051 110.27 132.951 110.174 132.89L107.352 131.277C107.293 131.245 107.227 131.227 107.159 131.225C107.092 131.223 107.025 131.238 106.964 131.267V131.267ZM118.022 137.87L120.456 136.463C120.557 136.403 120.552 136.302 120.456 136.242L117.644 134.619C117.584 134.588 117.517 134.572 117.45 134.572C117.382 134.572 117.316 134.588 117.256 134.619L114.826 136.025C114.72 136.08 114.731 136.181 114.826 136.247L117.634 137.87C117.694 137.9 117.76 137.917 117.828 137.917C117.895 137.917 117.962 137.9 118.022 137.87V137.87ZM114.494 139.921L116.928 138.515C117.029 138.454 117.024 138.358 116.928 138.293L114.116 136.67C114.056 136.639 113.989 136.623 113.922 136.623C113.854 136.623 113.788 136.639 113.728 136.67L111.298 138.076C111.192 138.137 111.197 138.232 111.298 138.298L114.111 139.921C114.167 139.947 114.228 139.96 114.29 139.96C114.351 139.96 114.412 139.947 114.468 139.921H114.494ZM110.94 141.972L113.375 140.566C113.476 140.51 113.471 140.41 113.375 140.344L110.562 138.721C110.502 138.69 110.436 138.674 110.368 138.674C110.301 138.674 110.234 138.69 110.174 138.721L107.705 140.112C107.599 140.173 107.604 140.274 107.705 140.334L110.517 141.957C110.577 141.992 110.645 142.012 110.714 142.014C110.784 142.017 110.853 142.002 110.915 141.972H110.94ZM107.412 144.023L109.847 142.617C109.948 142.562 109.943 142.461 109.847 142.395L107.034 140.773C106.974 140.743 106.908 140.727 106.84 140.727C106.773 140.727 106.707 140.743 106.646 140.773L104.212 142.179C104.111 142.239 104.116 142.34 104.212 142.4L107.024 144.023C107.076 144.045 107.132 144.056 107.188 144.056C107.244 144.056 107.3 144.045 107.352 144.023H107.412ZM124.906 129.286L127.336 127.88C127.441 127.82 127.436 127.724 127.336 127.658L124.488 126.036C124.428 126.005 124.361 125.989 124.294 125.989C124.226 125.989 124.16 126.005 124.1 126.036L121.666 127.442C121.565 127.502 121.57 127.598 121.666 127.664L124.488 129.276C124.545 129.306 124.607 129.322 124.671 129.323C124.734 129.325 124.798 129.313 124.856 129.286H124.906ZM121.63 135.838L127.008 132.683C127.109 132.623 127.104 132.522 127.008 132.462L120.159 128.52C120.099 128.489 120.032 128.473 119.965 128.473C119.897 128.473 119.831 128.489 119.771 128.52L116.968 130.138C116.862 130.199 116.867 130.299 116.968 130.365L120.587 132.452C120.698 132.517 120.703 132.618 120.587 132.673L118.344 133.969C118.238 134.029 118.248 134.13 118.344 134.195L121.157 135.818C121.221 135.854 121.294 135.873 121.368 135.873C121.442 135.873 121.515 135.854 121.58 135.818L121.63 135.838ZM103.486 133.318L101.052 134.725C100.951 134.78 100.956 134.881 101.052 134.946L103.824 136.584C103.884 136.614 103.951 136.63 104.018 136.63C104.085 136.63 104.152 136.614 104.212 136.584L106.641 135.178C106.747 135.118 106.742 135.017 106.641 134.956L103.824 133.328C103.762 133.292 103.691 133.271 103.619 133.27C103.546 133.268 103.475 133.285 103.411 133.318H103.486ZM99.9331 135.37L97.4988 136.776C97.398 136.836 97.403 136.932 97.4988 136.998L100.311 138.62C100.371 138.651 100.438 138.668 100.505 138.668C100.573 138.668 100.639 138.651 100.699 138.62L103.128 137.214C103.234 137.154 103.229 137.053 103.128 136.993L100.316 135.37C100.248 135.326 100.168 135.302 100.087 135.302C100.005 135.302 99.9259 135.326 99.8575 135.37H99.9331ZM82.1721 158.377C82.2321 158.408 82.2987 158.424 82.3662 158.424C82.4337 158.424 82.5002 158.408 82.5602 158.377L84.9945 156.971C85.0953 156.911 85.0903 156.81 84.9945 156.749L82.1822 155.126C82.1222 155.096 82.0557 155.079 81.9882 155.079C81.9207 155.079 81.8541 155.096 81.7941 155.126L79.3648 156.533C79.259 156.588 79.264 156.689 79.3648 156.754L82.1721 158.377ZM71.5024 151.785L68.9925 153.216C68.8917 153.272 68.8968 153.373 68.9925 153.438L71.8048 155.061C71.8652 155.091 71.9316 155.106 71.9989 155.106C72.0662 155.106 72.1326 155.091 72.1929 155.061L74.6222 153.655C74.728 153.594 74.723 153.494 74.6222 153.433L71.8099 151.81C71.7525 151.776 71.6879 151.756 71.6214 151.752C71.5548 151.747 71.4882 151.759 71.4268 151.785H71.5024ZM77.2228 156.598C77.2828 156.629 77.3494 156.645 77.4169 156.645C77.4844 156.645 77.5509 156.629 77.6109 156.598L80.0402 155.192C80.146 155.132 80.136 155.031 80.0402 154.97L77.2279 153.347C77.1679 153.316 77.1014 153.3 77.0338 153.3C76.9663 153.3 76.8998 153.316 76.8398 153.347L74.4105 154.754C74.3097 154.814 74.3148 154.91 74.4105 154.975L77.2228 156.598ZM88.4469 159.622L90.8812 158.216C90.982 158.156 90.977 158.055 90.8812 157.994L88.0689 156.371C88.0089 156.34 87.9424 156.324 87.8749 156.324C87.8074 156.324 87.7408 156.34 87.6808 156.371L85.176 157.752C85.0701 157.808 85.0752 157.909 85.176 157.974L87.9883 159.597C88.0456 159.631 88.11 159.651 88.1763 159.656C88.2427 159.662 88.3094 159.652 88.3713 159.627L88.4469 159.622ZM84.5056 161.638C84.5656 161.669 84.6322 161.685 84.6997 161.685C84.7672 161.685 84.8337 161.669 84.8937 161.638L87.328 160.232C87.4288 160.172 87.4238 160.071 87.328 160.01L84.5157 158.387C84.4557 158.356 84.3892 158.34 84.3217 158.34C84.2542 158.34 84.1876 158.356 84.1276 158.387L81.6933 159.794C81.5925 159.849 81.5976 159.95 81.6933 160.015L84.5056 161.638ZM75.0556 149.703L72.6213 151.105C72.5205 151.165 72.5256 151.266 72.6213 151.331L75.4336 152.954C75.494 152.984 75.5604 153 75.6277 153C75.695 153 75.7614 152.984 75.8217 152.954L78.251 151.548C78.3568 151.488 78.3518 151.387 78.251 151.326L75.4387 149.698C75.3665 149.661 75.2853 149.645 75.2044 149.651C75.1234 149.657 75.0457 149.686 74.98 149.734L75.0556 149.703ZM92.736 139.472L90.3016 140.878C90.2008 140.939 90.2059 141.04 90.3016 141.1L93.114 142.723C93.174 142.754 93.2405 142.77 93.308 142.77C93.3755 142.77 93.442 142.754 93.502 142.723L95.9313 141.317C96.0372 141.261 96.0271 141.161 95.9313 141.095L93.119 139.472C93.0595 139.443 92.994 139.427 92.9275 139.427C92.861 139.427 92.7954 139.443 92.736 139.472V139.472ZM78.5332 147.672L76.104 149.084C75.9981 149.144 76.0032 149.245 76.104 149.31L78.9163 150.933C78.9763 150.964 79.0428 150.98 79.1103 150.98C79.1778 150.98 79.2444 150.964 79.3044 150.933L81.7387 149.532C81.8395 149.472 81.8344 149.371 81.7387 149.305L78.9213 147.672C78.861 147.643 78.7946 147.627 78.7273 147.627C78.66 147.627 78.5936 147.643 78.5332 147.672V147.672ZM96.3043 137.411L93.87 138.817C93.7692 138.878 93.7742 138.978 93.87 139.039L96.6823 140.662C96.7423 140.693 96.8088 140.709 96.8763 140.709C96.9438 140.709 97.0104 140.693 97.0704 140.662L99.4996 139.256C99.6055 139.195 99.5954 139.099 99.4996 139.034L96.6873 137.411C96.6272 137.382 96.5612 137.368 96.4946 137.37C96.428 137.372 96.3628 137.389 96.3043 137.421V137.411ZM89.208 141.524L86.7787 142.93C86.6728 142.99 86.6829 143.091 86.7787 143.151L89.591 144.774C89.651 144.805 89.7175 144.821 89.785 144.821C89.8526 144.821 89.9191 144.805 89.9791 144.774L92.4084 143.373C92.5092 143.313 92.5041 143.212 92.4084 143.146L89.596 141.524C89.5357 141.494 89.4693 141.478 89.402 141.478C89.3347 141.478 89.2683 141.494 89.208 141.524V141.524ZM85.6548 143.58L83.2255 144.981C83.1196 145.041 83.1297 145.142 83.2255 145.203L86.0328 146.831C86.0931 146.86 86.1595 146.876 86.2268 146.876C86.2941 146.876 86.3605 146.86 86.4208 146.831L88.8552 145.43C88.956 145.369 88.9509 145.268 88.8552 145.203L86.0428 143.58C85.9809 143.546 85.9117 143.529 85.8412 143.529C85.7708 143.529 85.7016 143.546 85.6396 143.58H85.6548ZM82.1268 145.631L79.6975 147.032C79.5916 147.093 79.5967 147.194 79.6975 147.259L82.5098 148.882C82.5702 148.912 82.6365 148.927 82.7038 148.927C82.7711 148.927 82.8375 148.912 82.8979 148.882L85.3322 147.481C85.433 147.42 85.428 147.32 85.3322 147.254L82.4745 145.656C82.4142 145.627 82.3478 145.611 82.2805 145.611C82.2132 145.611 82.1468 145.627 82.0864 145.656L82.1268 145.631ZM100.271 148.126L102.7 146.725C102.806 146.664 102.796 146.564 102.7 146.498L99.8877 144.875C99.8277 144.844 99.7612 144.828 99.6937 144.828C99.6262 144.828 99.5596 144.844 99.4996 144.875L97.0653 146.276C96.9645 146.337 96.9696 146.438 97.0653 146.503L99.8776 148.126C99.9367 148.154 100.001 148.169 100.067 148.169C100.132 148.169 100.197 148.154 100.256 148.126H100.271ZM131.484 117.12L129.024 118.526C128.923 118.581 128.928 118.682 129.024 118.748L131.836 120.371C131.897 120.4 131.963 120.416 132.03 120.416C132.098 120.416 132.164 120.4 132.224 120.371L134.654 118.964C134.76 118.904 134.754 118.803 134.654 118.743L131.841 117.12C131.783 117.091 131.72 117.077 131.655 117.077C131.59 117.077 131.526 117.091 131.468 117.12H131.484ZM127.179 119.605L124.75 121.006C124.644 121.066 124.649 121.167 124.75 121.232L127.562 122.855C127.622 122.886 127.689 122.902 127.756 122.902C127.824 122.902 127.89 122.886 127.95 122.855L130.385 121.454C130.486 121.394 130.481 121.293 130.385 121.227L127.572 119.605C127.51 119.571 127.439 119.554 127.368 119.554C127.297 119.554 127.227 119.571 127.164 119.605H127.179ZM135.037 115.069L132.602 116.47C132.502 116.53 132.507 116.631 132.602 116.696L135.415 118.319C135.475 118.349 135.541 118.365 135.609 118.365C135.676 118.365 135.742 118.349 135.803 118.319L138.232 116.913C138.338 116.853 138.333 116.752 138.232 116.691L135.42 115.064C135.358 115.033 135.289 115.017 135.22 115.018C135.151 115.019 135.083 115.036 135.022 115.069H135.037ZM116.626 134.064L119.06 132.658C119.161 132.598 119.156 132.497 119.06 132.436L116.248 130.808C116.187 130.779 116.121 130.763 116.054 130.763C115.986 130.763 115.92 130.779 115.859 130.808L113.4 132.179C113.299 132.24 113.304 132.341 113.4 132.406L116.212 134.029C116.273 134.069 116.342 134.092 116.414 134.099C116.487 134.105 116.559 134.093 116.626 134.064V134.064ZM138.963 113.048C138.903 113.018 138.836 113.002 138.769 113.002C138.702 113.002 138.635 113.018 138.575 113.048L136.146 114.408C136.04 114.469 136.045 114.57 136.146 114.635L138.958 116.258C139.018 116.289 139.084 116.305 139.152 116.305C139.219 116.305 139.286 116.289 139.346 116.258L141.78 114.857C141.881 114.796 141.876 114.696 141.78 114.63L138.963 113.048ZM103.824 146.075L106.253 144.674C106.359 144.613 106.354 144.512 106.253 144.447L103.441 142.824C103.381 142.794 103.314 142.779 103.247 142.779C103.18 142.779 103.113 142.794 103.053 142.824L100.619 144.23C100.518 144.291 100.523 144.391 100.619 144.452L103.431 146.08C103.492 146.11 103.56 146.125 103.628 146.124C103.696 146.123 103.763 146.106 103.824 146.075V146.075ZM147.405 120.915L149.834 119.509C149.94 119.448 149.935 119.348 149.834 119.287L147.022 117.664C146.962 117.633 146.895 117.617 146.828 117.617C146.76 117.617 146.694 117.633 146.634 117.664L144.199 119.07C144.099 119.126 144.104 119.227 144.199 119.292L147.012 120.915C147.07 120.944 147.135 120.96 147.201 120.96C147.266 120.96 147.331 120.944 147.39 120.915H147.405ZM139.845 120.648L142.274 119.242C142.38 119.181 142.375 119.08 142.274 119.02L139.462 117.397C139.402 117.366 139.335 117.35 139.268 117.35C139.2 117.35 139.134 117.366 139.074 117.397L136.584 118.793C136.483 118.849 136.488 118.949 136.584 119.015L139.396 120.638C139.46 120.676 139.532 120.698 139.607 120.7C139.681 120.701 139.754 120.683 139.82 120.648H139.845ZM143.005 115.341C142.945 115.311 142.878 115.295 142.811 115.295C142.744 115.295 142.677 115.311 142.617 115.341L140.183 116.742C140.082 116.802 140.087 116.903 140.183 116.969L142.995 118.592C143.055 118.621 143.122 118.637 143.189 118.637C143.256 118.637 143.323 118.621 143.383 118.592L145.817 117.185C145.918 117.125 145.913 117.024 145.817 116.964L143.005 115.341ZM143.751 114.912L150.58 118.854C150.64 118.883 150.707 118.899 150.774 118.899C150.841 118.899 150.908 118.883 150.968 118.854L153.402 117.447C153.503 117.387 153.498 117.286 153.402 117.226L146.573 113.279C146.513 113.25 146.447 113.234 146.379 113.234C146.312 113.234 146.246 113.25 146.185 113.279L143.756 114.68C143.61 114.746 143.64 114.847 143.726 114.912H143.751ZM135.51 119.448L133.056 120.844C132.955 120.905 132.96 121.001 133.056 121.066L135.868 122.689C135.928 122.72 135.995 122.736 136.062 122.736C136.13 122.736 136.196 122.72 136.256 122.689L138.686 121.283C138.792 121.222 138.786 121.127 138.686 121.061L135.873 119.448C135.813 119.417 135.747 119.401 135.679 119.401C135.612 119.401 135.545 119.417 135.485 119.448H135.51ZM108.763 134.891L106.329 136.297C106.228 136.358 106.233 136.453 106.329 136.519L109.141 138.142C109.201 138.173 109.268 138.189 109.335 138.189C109.403 138.189 109.469 138.173 109.529 138.142L111.959 136.736C112.064 136.675 112.054 136.579 111.959 136.514L109.151 134.891C109.089 134.854 109.018 134.834 108.946 134.832C108.874 134.83 108.802 134.847 108.738 134.881L108.763 134.891ZM143.448 122.976C143.508 123.007 143.575 123.023 143.643 123.023C143.71 123.023 143.777 123.007 143.837 122.976L146.266 121.57C146.372 121.51 146.367 121.414 146.266 121.348L143.454 119.726C143.394 119.695 143.327 119.678 143.259 119.678C143.192 119.678 143.125 119.695 143.065 119.726L140.616 121.112C140.515 121.172 140.52 121.268 140.616 121.333L143.448 122.976ZM112.291 132.83L109.872 134.236C109.771 134.291 109.776 134.392 109.872 134.457L112.684 136.08C112.744 136.111 112.811 136.127 112.878 136.127C112.946 136.127 113.012 136.111 113.072 136.08L115.502 134.674C115.607 134.614 115.602 134.513 115.502 134.452L112.689 132.83C112.628 132.797 112.56 132.78 112.49 132.78C112.421 132.78 112.352 132.797 112.291 132.83ZM85.6497 156.326C85.7101 156.356 85.7765 156.371 85.8438 156.371C85.9111 156.371 85.9775 156.356 86.0378 156.326L88.4721 154.92C88.5729 154.859 88.5679 154.759 88.4721 154.698L85.6598 153.075C85.5998 153.044 85.5333 153.028 85.4658 153.028C85.3983 153.028 85.3317 153.044 85.2717 153.075L82.8424 154.481C82.7366 154.537 82.7416 154.638 82.8424 154.703L85.6497 156.326ZM80.3073 151.286L77.873 152.712C77.7722 152.768 77.7772 152.869 77.873 152.934L80.6853 154.557C80.7457 154.587 80.8121 154.602 80.8794 154.602C80.9467 154.602 81.0131 154.587 81.0734 154.557L83.5027 153.151C83.6085 153.09 83.5984 152.99 83.5027 152.929L80.6954 151.306C80.6362 151.274 80.5701 151.256 80.5026 151.254C80.4351 151.252 80.3681 151.267 80.3073 151.296V151.286ZM89.591 154.275L92.0253 152.869C92.1261 152.808 92.1211 152.707 92.0253 152.647L89.208 151.029C89.1476 150.999 89.0812 150.984 89.0139 150.984C88.9466 150.984 88.8802 150.999 88.8199 151.029L86.3906 152.43C86.2848 152.491 86.2948 152.591 86.3906 152.657L89.208 154.275C89.2669 154.305 89.332 154.322 89.3983 154.324C89.4647 154.326 89.5306 154.312 89.591 154.285V154.275ZM93.1493 152.218L95.5785 150.817C95.6793 150.757 95.6743 150.656 95.5785 150.59L92.736 148.978C92.6756 148.948 92.6092 148.932 92.5419 148.932C92.4746 148.932 92.4082 148.948 92.3479 148.978L89.9186 150.379C89.8128 150.439 89.8228 150.54 89.9186 150.606L92.7309 152.228C92.7964 152.262 92.8694 152.277 92.9428 152.274C93.0161 152.27 93.0873 152.248 93.1493 152.208V152.218ZM96.7024 150.167L99.1317 148.766C99.2376 148.706 99.2275 148.605 99.1317 148.539L96.3194 146.916C96.2599 146.887 96.1944 146.871 96.1279 146.871C96.0614 146.871 95.9958 146.887 95.9364 146.916L93.502 148.317C93.4012 148.378 93.4063 148.479 93.502 148.544L96.3144 150.192C96.3747 150.222 96.4411 150.238 96.5084 150.238C96.5757 150.238 96.6421 150.222 96.7024 150.192V150.167ZM83.8605 149.235L81.4262 150.636C81.3254 150.696 81.3304 150.797 81.4262 150.863L84.2385 152.486C84.2989 152.515 84.3653 152.531 84.4326 152.531C84.4999 152.531 84.5663 152.515 84.6266 152.486L87.0559 151.079C87.1617 151.019 87.1567 150.918 87.0559 150.858L84.2436 149.23C84.1827 149.203 84.1167 149.191 84.0503 149.193C83.9839 149.196 83.9191 149.213 83.8605 149.245V149.235ZM87.4137 147.183L84.9794 148.585C84.8786 148.645 84.8836 148.746 84.9794 148.811L87.7917 150.434C87.8517 150.465 87.9183 150.481 87.9858 150.481C88.0533 150.481 88.1198 150.465 88.1798 150.434L90.6091 149.033C90.7149 148.973 90.7099 148.872 90.6091 148.806L87.7968 147.183C87.7363 147.156 87.6704 147.143 87.6041 147.144C87.5377 147.146 87.4726 147.163 87.4137 147.194V147.183ZM101.627 138.973L99.1973 140.379C99.0914 140.44 99.1015 140.541 99.1973 140.601L102.01 142.224C102.069 142.255 102.134 142.271 102.201 142.271C102.268 142.271 102.334 142.255 102.393 142.224L104.827 140.818C104.928 140.762 104.923 140.662 104.827 140.596L102.015 138.973C101.953 138.945 101.887 138.931 101.819 138.933C101.752 138.935 101.686 138.952 101.627 138.983V138.973ZM98.0985 141.025L95.6693 142.431C95.5634 142.491 95.5735 142.592 95.6693 142.652L98.4765 144.28C98.5369 144.31 98.6033 144.326 98.6706 144.326C98.7379 144.326 98.8043 144.31 98.8646 144.28L101.299 142.879C101.4 142.819 101.395 142.718 101.299 142.652L98.4866 141.03C98.4226 140.996 98.3514 140.98 98.2793 140.98C98.2073 140.981 98.1365 141 98.0733 141.035L98.0985 141.025ZM105.21 136.922L102.776 138.328C102.675 138.389 102.68 138.489 102.776 138.55L105.588 140.173C105.648 140.204 105.714 140.22 105.782 140.22C105.85 140.22 105.916 140.204 105.976 140.173L108.405 138.767C108.511 138.711 108.501 138.61 108.405 138.545L105.593 136.922C105.53 136.888 105.459 136.871 105.388 136.873C105.316 136.875 105.246 136.895 105.185 136.932L105.21 136.922ZM90.9669 145.152L88.5376 146.553C88.4318 146.614 88.4368 146.715 88.5376 146.78L91.35 148.403C91.4103 148.433 91.4767 148.448 91.544 148.448C91.6113 148.448 91.6777 148.433 91.738 148.403L94.1724 147.002C94.2732 146.942 94.2681 146.841 94.1724 146.775L91.355 145.152C91.2947 145.123 91.2283 145.107 91.161 145.107C91.0937 145.107 91.0273 145.123 90.9669 145.152V145.152ZM94.4949 143.101L92.0656 144.502C91.9598 144.563 91.9648 144.663 92.0656 144.729L94.878 146.352C94.9383 146.382 95.0047 146.397 95.072 146.397C95.1393 146.397 95.2057 146.382 95.266 146.352L97.7004 144.951C97.8012 144.89 97.7961 144.789 97.7004 144.724L94.888 143.101C94.8314 143.072 94.7689 143.056 94.7052 143.054C94.6415 143.052 94.5783 143.065 94.5201 143.091L94.4949 143.101ZM91.8993 157.586L94.3336 156.18C94.4344 156.119 94.4294 156.019 94.3336 155.958L91.5213 154.33C91.461 154.3 91.3946 154.285 91.3273 154.285C91.26 154.285 91.1936 154.3 91.1332 154.33L88.704 155.736C88.5981 155.797 88.6032 155.898 88.704 155.963L91.5112 157.586C91.5757 157.618 91.6471 157.634 91.7191 157.633C91.7912 157.631 91.8618 157.611 91.9245 157.576L91.8993 157.586ZM71.064 155.469L68.2567 153.846C68.1967 153.815 68.1301 153.799 68.0626 153.799C67.9951 153.799 67.9286 153.815 67.8686 153.846L65.4393 155.232C65.3385 155.288 65.3436 155.389 65.4393 155.454L68.2516 157.077C68.3116 157.108 68.3782 157.124 68.4457 157.124C68.5132 157.124 68.5797 157.108 68.6397 157.077L71.069 155.671C71.19 155.63 71.1799 155.53 71.064 155.469ZM76.3912 157.032L73.584 155.409C73.524 155.378 73.4574 155.362 73.3899 155.362C73.3224 155.362 73.2559 155.378 73.1959 155.409L69.4562 157.571C69.3554 157.631 69.3604 157.727 69.4562 157.793L72.2685 159.416C72.3285 159.446 72.395 159.463 72.4626 159.463C72.5301 159.463 72.5966 159.446 72.6566 159.416L76.3963 157.253C76.5122 157.193 76.5072 157.097 76.3963 157.032H76.3912ZM66.7548 152.329L63.9475 150.696C63.8871 150.667 63.8207 150.651 63.7534 150.651C63.6861 150.651 63.6197 150.667 63.5594 150.696L60.5656 152.425C60.4598 152.486 60.4699 152.586 60.5656 152.652L63.3729 154.275C63.4333 154.305 63.4997 154.32 63.567 154.32C63.6343 154.32 63.7007 154.305 63.761 154.275L66.7548 152.546C66.8757 152.496 66.8707 152.395 66.7598 152.329H66.7548ZM69.048 151.004C69.108 151.035 69.1745 151.051 69.242 151.051C69.3095 151.051 69.376 151.035 69.436 151.004L71.8653 149.598C71.9712 149.537 71.9611 149.441 71.8653 149.376L69.048 147.763C68.988 147.732 68.9214 147.716 68.8539 147.716C68.7864 147.716 68.7199 147.732 68.6599 147.763L66.2256 149.184C66.1248 149.245 66.1298 149.341 66.2256 149.406L69.048 151.004ZM81.3456 158.811L78.5332 157.188C78.4732 157.157 78.4067 157.141 78.3392 157.141C78.2717 157.141 78.2052 157.157 78.1452 157.188L73.468 159.889C73.3672 159.95 73.3723 160.051 73.468 160.111L76.2804 161.734C76.3404 161.765 76.4069 161.781 76.4744 161.781C76.5419 161.781 76.6084 161.765 76.6684 161.734L81.3405 159.032C81.4665 158.972 81.4615 158.876 81.3506 158.811H81.3456ZM83.6791 162.102L80.8668 160.479C80.8068 160.448 80.7402 160.432 80.6727 160.432C80.6052 160.432 80.5387 160.448 80.4787 160.479L77.4849 162.208C77.3841 162.268 77.3892 162.369 77.4849 162.429L80.2972 164.057C80.3576 164.087 80.424 164.103 80.4913 164.103C80.5586 164.103 80.625 164.087 80.6853 164.057L83.674 162.329C83.8 162.288 83.795 162.167 83.664 162.102H83.6791ZM95.4676 135.748C95.5276 135.779 95.5942 135.795 95.6617 135.795C95.7292 135.795 95.7957 135.779 95.8557 135.748L98.29 134.342C98.3908 134.286 98.3858 134.185 98.29 134.12L95.4777 132.497C95.4177 132.466 95.3512 132.45 95.2837 132.45C95.2162 132.45 95.1496 132.466 95.0896 132.497L92.6604 133.903C92.5545 133.964 92.5646 134.064 92.6604 134.125L95.4676 135.748ZM88.3612 139.855C88.4216 139.885 88.488 139.901 88.5553 139.901C88.6226 139.901 88.689 139.885 88.7493 139.855L91.1836 138.454C91.2844 138.394 91.2794 138.293 91.1836 138.227L88.3713 136.604C88.311 136.575 88.2446 136.559 88.1773 136.559C88.11 136.559 88.0436 136.575 87.9832 136.604L85.554 138.011C85.4481 138.071 85.4532 138.172 85.554 138.232L88.3612 139.855ZM72.6012 148.952C72.6612 148.983 72.7277 149 72.7952 149C72.8627 149 72.9292 148.983 72.9892 148.952L75.4185 147.546C75.5244 147.486 75.5193 147.385 75.4185 147.325L72.6062 145.702C72.5462 145.671 72.4797 145.655 72.4122 145.655C72.3447 145.655 72.2781 145.671 72.2181 145.702L69.7838 147.108C69.683 147.163 69.688 147.264 69.7838 147.33L72.6012 148.952ZM91.9144 137.799C91.9744 137.83 92.041 137.846 92.1085 137.846C92.176 137.846 92.2425 137.83 92.3025 137.799L94.7368 136.393C94.8376 136.337 94.8326 136.237 94.7368 136.171L91.9144 134.568C91.8541 134.539 91.7877 134.523 91.7204 134.523C91.6531 134.523 91.5867 134.539 91.5264 134.568L89.0971 135.974C88.9912 136.035 88.9963 136.136 89.0971 136.196L91.9144 137.799ZM84.808 141.907C84.8684 141.936 84.9348 141.952 85.0021 141.952C85.0694 141.952 85.1358 141.936 85.1961 141.907L87.6304 140.505C87.7312 140.445 87.7262 140.344 87.6304 140.279L84.8181 138.656C84.7581 138.625 84.6916 138.609 84.6241 138.609C84.5566 138.609 84.49 138.625 84.43 138.656L81.9957 140.057C81.8949 140.117 81.9 140.218 81.9957 140.284L84.808 141.907ZM85.6296 162.364C85.5696 162.333 85.503 162.317 85.4355 162.317C85.368 162.317 85.3015 162.333 85.2415 162.364L81.5018 164.521C81.401 164.582 81.406 164.682 81.5018 164.748L84.3141 166.371C84.3745 166.401 84.4409 166.416 84.5082 166.416C84.5755 166.416 84.6419 166.401 84.7022 166.371L88.4419 164.214C88.5427 164.153 88.5376 164.052 88.4419 163.987L85.6296 162.364ZM79.7126 144.85C79.7726 144.881 79.8391 144.897 79.9066 144.897C79.9742 144.897 80.0407 144.881 80.1007 144.85L82.535 143.449C82.6358 143.388 82.6308 143.288 82.535 143.222L79.7076 141.624C79.6472 141.595 79.5808 141.579 79.5135 141.579C79.4462 141.579 79.3798 141.595 79.3195 141.624L76.8902 143.025C76.7844 143.086 76.7894 143.187 76.8902 143.252L79.7126 144.85ZM76.1846 146.901C76.245 146.931 76.3113 146.946 76.3786 146.946C76.4459 146.946 76.5123 146.931 76.5727 146.901L79.002 145.495C79.1078 145.435 79.1028 145.334 79.002 145.273L76.1544 143.64C76.0944 143.609 76.0278 143.593 75.9603 143.593C75.8928 143.593 75.8263 143.609 75.7663 143.64L73.332 145.041C73.2312 145.102 73.2362 145.203 73.332 145.268L76.1846 146.901ZM151.502 124.352C151.442 124.322 151.376 124.307 151.308 124.307C151.241 124.307 151.175 124.322 151.114 124.352L145.127 127.81C145.026 127.87 145.031 127.971 145.127 128.036L147.939 129.659C147.999 129.689 148.066 129.705 148.133 129.705C148.2 129.705 148.267 129.689 148.327 129.659L154.31 126.202C154.416 126.146 154.41 126.046 154.31 125.98L151.502 124.352ZM143.645 128.888C143.585 128.857 143.518 128.841 143.451 128.841C143.383 128.841 143.317 128.857 143.257 128.888L140.828 130.294C140.722 130.355 140.727 130.456 140.828 130.516L143.64 132.139C143.7 132.17 143.767 132.186 143.834 132.186C143.902 132.186 143.968 132.17 144.028 132.139L146.462 130.733C146.563 130.677 146.558 130.577 146.462 130.511L143.645 128.888ZM95.5029 155.52L97.9373 154.118C98.0381 154.058 98.033 153.957 97.9373 153.892L95.1249 152.269C95.0646 152.239 94.9982 152.224 94.9309 152.224C94.8636 152.224 94.7972 152.239 94.7368 152.269L92.3076 153.67C92.2017 153.73 92.2118 153.831 92.3076 153.897L95.1199 155.52C95.1757 155.546 95.2369 155.56 95.2988 155.56C95.3607 155.56 95.4219 155.546 95.4777 155.52H95.5029ZM136.539 132.991C136.479 132.96 136.412 132.944 136.345 132.944C136.277 132.944 136.211 132.96 136.151 132.991L133.716 134.392C133.615 134.452 133.62 134.553 133.716 134.619L136.529 136.242C136.589 136.271 136.655 136.287 136.723 136.287C136.79 136.287 136.856 136.271 136.917 136.242L139.346 134.84C139.452 134.78 139.447 134.679 139.346 134.614L136.539 132.991ZM155.056 122.301C154.996 122.27 154.929 122.254 154.862 122.254C154.794 122.254 154.728 122.27 154.668 122.301L152.208 123.697C152.107 123.758 152.112 123.858 152.208 123.919L155.02 125.542C155.08 125.573 155.147 125.589 155.214 125.589C155.282 125.589 155.348 125.573 155.408 125.542L157.838 124.136C157.944 124.08 157.938 123.979 157.838 123.914L155.056 122.301ZM161.421 121.873L154.567 117.936C154.507 117.905 154.44 117.889 154.373 117.889C154.305 117.889 154.239 117.905 154.179 117.936L151.749 119.342C151.644 119.398 151.649 119.499 151.749 119.564L158.589 123.48C158.649 123.511 158.715 123.527 158.783 123.527C158.85 123.527 158.917 123.511 158.977 123.48L161.411 122.074C161.512 122.034 161.507 121.938 161.396 121.873H161.421ZM123.258 140.657C123.198 140.627 123.131 140.611 123.064 140.611C122.997 140.611 122.93 140.627 122.87 140.657L119.876 142.385C119.771 142.441 119.781 142.542 119.876 142.607L122.689 144.23C122.749 144.261 122.815 144.277 122.883 144.277C122.95 144.277 123.017 144.261 123.077 144.23L126.066 142.501C126.171 142.441 126.166 142.34 126.066 142.28L123.258 140.657ZM132.234 135.476C132.174 135.446 132.108 135.43 132.04 135.43C131.973 135.43 131.907 135.446 131.846 135.476L128.107 137.638C128.001 137.698 128.011 137.799 128.107 137.859L130.919 139.482C130.979 139.513 131.046 139.529 131.113 139.529C131.181 139.529 131.247 139.513 131.307 139.482L135.047 137.32C135.148 137.265 135.143 137.164 135.047 137.098L132.234 135.476ZM115.028 145.409C114.968 145.378 114.901 145.362 114.834 145.362C114.766 145.362 114.7 145.378 114.64 145.409L94.6008 156.956C94.4949 157.017 94.505 157.117 94.6008 157.183L97.408 158.806C97.4684 158.835 97.5348 158.851 97.6021 158.851C97.6694 158.851 97.7358 158.835 97.7961 158.806L117.81 147.254C117.916 147.194 117.911 147.093 117.81 147.027L115.028 145.409ZM93.8901 157.611C93.8298 157.581 93.7634 157.566 93.6961 157.566C93.6288 157.566 93.5624 157.581 93.502 157.611L90.5083 159.34C90.4075 159.395 90.4125 159.496 90.5083 159.562L93.3206 161.185C93.3806 161.216 93.4471 161.232 93.5146 161.232C93.5822 161.232 93.6487 161.216 93.7087 161.185L96.7024 159.456C96.8032 159.395 96.7982 159.295 96.7024 159.234L93.8901 157.611ZM119.141 143.036C119.081 143.005 119.014 142.988 118.946 142.988C118.879 142.988 118.812 143.005 118.752 143.036L115.764 144.764C115.658 144.825 115.663 144.926 115.764 144.986L118.576 146.614C118.636 146.644 118.703 146.659 118.77 146.659C118.837 146.659 118.904 146.644 118.964 146.614L121.958 144.885C122.059 144.825 122.054 144.729 121.958 144.663L119.141 143.036ZM89.7775 159.99C89.7175 159.959 89.651 159.943 89.5834 159.943C89.5159 159.943 89.4494 159.959 89.3894 159.99L86.3956 161.719C86.2898 161.779 86.2999 161.88 86.3956 161.941L89.208 163.568C89.2674 163.598 89.333 163.614 89.3995 163.614C89.466 163.614 89.5315 163.598 89.591 163.568L92.5848 161.84C92.6906 161.779 92.6856 161.684 92.5848 161.618L89.7775 159.99ZM127.371 138.283C127.311 138.253 127.244 138.238 127.177 138.238C127.11 138.238 127.043 138.253 126.983 138.283L123.984 140.001C123.883 140.062 123.888 140.163 123.984 140.228L126.796 141.851C126.856 141.882 126.923 141.898 126.99 141.898C127.058 141.898 127.124 141.882 127.184 141.851L130.178 140.127C130.279 140.067 130.274 139.966 130.178 139.901L127.371 138.283ZM140.092 130.94C140.031 130.91 139.965 130.894 139.898 130.894C139.83 130.894 139.764 130.91 139.704 130.94L137.269 132.346C137.169 132.406 137.174 132.507 137.269 132.567L140.082 134.195C140.142 134.225 140.208 134.241 140.276 134.241C140.343 134.241 140.409 134.225 140.47 134.195L142.899 132.794C143.005 132.734 143 132.633 142.899 132.567L140.092 130.94ZM147.879 125.285L150.308 123.878C150.414 123.823 150.409 123.722 150.308 123.657L147.496 122.034C147.436 122.003 147.369 121.987 147.302 121.987C147.234 121.987 147.168 122.003 147.108 122.034L144.648 123.43C144.547 123.49 144.552 123.591 144.648 123.652L147.46 125.275C147.52 125.308 147.587 125.326 147.656 125.328C147.724 125.33 147.792 125.315 147.853 125.285H147.879ZM131.988 125.184L134.422 123.778C134.523 123.717 134.518 123.616 134.422 123.556L131.61 121.933C131.55 121.902 131.483 121.886 131.415 121.886C131.348 121.886 131.281 121.902 131.221 121.933L128.792 123.334C128.686 123.395 128.691 123.495 128.792 123.561L131.604 125.184C131.661 125.209 131.722 125.222 131.783 125.222C131.845 125.222 131.906 125.209 131.962 125.184H131.988ZM123.923 139.109L131.03 135.002C131.131 134.946 131.126 134.846 131.03 134.78L128.218 133.157C128.158 133.126 128.091 133.11 128.024 133.11C127.956 133.11 127.89 133.126 127.83 133.157L120.723 137.26C120.617 137.32 120.627 137.421 120.723 137.486L123.535 139.109C123.595 139.137 123.66 139.151 123.725 139.15C123.79 139.149 123.855 139.133 123.913 139.104L123.923 139.109ZM143.922 127.326C143.982 127.357 144.049 127.373 144.116 127.373C144.184 127.373 144.25 127.357 144.31 127.326L146.74 125.925C146.845 125.864 146.835 125.763 146.74 125.698L143.932 124.075C143.872 124.045 143.806 124.03 143.738 124.03C143.671 124.03 143.605 124.045 143.544 124.075L141.085 125.496C140.984 125.557 140.989 125.658 141.085 125.718L143.922 127.326ZM140.293 125.018L142.723 123.611C142.829 123.556 142.823 123.455 142.723 123.39L139.915 121.767C139.855 121.736 139.789 121.72 139.721 121.72C139.654 121.72 139.587 121.736 139.527 121.767L137.088 123.163C136.987 123.223 136.992 123.324 137.088 123.385L139.9 125.007C139.959 125.039 140.024 125.057 140.091 125.058C140.157 125.06 140.223 125.046 140.283 125.018H140.293ZM120.365 141.146L122.8 139.739C122.9 139.679 122.895 139.578 122.8 139.518L119.952 137.91C119.892 137.879 119.825 137.863 119.758 137.863C119.69 137.863 119.624 137.879 119.564 137.91L117.135 139.316C117.029 139.371 117.039 139.472 117.135 139.538L119.942 141.161C120.005 141.195 120.076 141.212 120.149 141.212C120.221 141.212 120.292 141.195 120.355 141.161L120.365 141.146ZM136.08 131.862C136.14 131.893 136.207 131.909 136.274 131.909C136.342 131.909 136.408 131.893 136.468 131.862L138.897 130.456C139.003 130.4 138.998 130.299 138.897 130.234L136.085 128.611C136.025 128.58 135.958 128.564 135.891 128.564C135.823 128.564 135.757 128.58 135.697 128.611L133.227 130.032C133.127 130.093 133.132 130.194 133.227 130.254L136.08 131.862ZM102.614 151.417L105.044 150.016C105.149 149.955 105.139 149.855 105.044 149.789L102.196 148.176C102.136 148.145 102.07 148.129 102.002 148.129C101.934 148.129 101.868 148.145 101.808 148.176L99.3736 149.577C99.2728 149.638 99.2779 149.739 99.3736 149.804L102.186 151.427C102.249 151.458 102.319 151.473 102.389 151.471C102.459 151.469 102.528 151.451 102.589 151.417H102.614ZM106.142 149.366L108.572 147.965C108.677 147.904 108.672 147.803 108.572 147.738L105.759 146.115C105.699 146.085 105.633 146.07 105.565 146.07C105.498 146.07 105.432 146.085 105.371 146.115L102.937 147.521C102.836 147.582 102.841 147.682 102.937 147.743L105.749 149.366C105.81 149.398 105.877 149.414 105.946 149.414C106.014 149.414 106.082 149.398 106.142 149.366V149.366ZM99.036 153.468L101.465 152.067C101.571 152.007 101.561 151.906 101.465 151.84L98.6529 150.218C98.5926 150.188 98.5262 150.172 98.4589 150.172C98.3916 150.172 98.3252 150.188 98.2648 150.218L95.8356 151.619C95.7348 151.679 95.7398 151.78 95.8356 151.845L98.6479 153.468C98.7082 153.498 98.7746 153.514 98.8419 153.514C98.9092 153.514 98.9756 153.498 99.036 153.468V153.468ZM113.249 145.263L115.683 143.857C115.784 143.797 115.779 143.701 115.683 143.635L112.871 142.012C112.811 141.981 112.744 141.965 112.677 141.965C112.609 141.965 112.543 141.981 112.483 142.012L110.053 143.419C109.948 143.479 109.953 143.575 110.053 143.64L112.866 145.263C112.925 145.293 112.991 145.309 113.057 145.309C113.124 145.309 113.189 145.293 113.249 145.263ZM109.721 147.314L112.15 145.908C112.256 145.853 112.251 145.752 112.15 145.687L109.338 144.064C109.278 144.033 109.211 144.017 109.144 144.017C109.076 144.017 109.01 144.033 108.95 144.064L106.515 145.47C106.415 145.53 106.42 145.631 106.515 145.692L109.328 147.314C109.385 147.342 109.448 147.357 109.512 147.357C109.575 147.357 109.638 147.342 109.696 147.314H109.721ZM116.827 143.212L119.261 141.806C119.362 141.745 119.357 141.645 119.261 141.584L116.424 139.961C116.364 139.93 116.297 139.914 116.23 139.914C116.162 139.914 116.096 139.93 116.036 139.961L113.607 141.367C113.501 141.423 113.506 141.524 113.607 141.589L116.419 143.212C116.478 143.242 116.544 143.258 116.61 143.258C116.677 143.258 116.743 143.242 116.802 143.212H116.827ZM133.056 112.856C133.116 112.887 133.183 112.903 133.25 112.903C133.318 112.903 133.384 112.887 133.444 112.856L135.878 111.45C135.979 111.389 135.974 111.294 135.878 111.228L135.127 110.795C135.067 110.764 135.001 110.748 134.933 110.748C134.866 110.748 134.799 110.764 134.739 110.795L132.31 112.196C132.209 112.256 132.214 112.357 132.31 112.423L133.056 112.856ZM115.572 124.146C115.633 124.175 115.699 124.191 115.766 124.191C115.834 124.191 115.9 124.175 115.96 124.146L118.39 122.744C118.495 122.684 118.49 122.583 118.39 122.518L115.582 120.895C115.522 120.864 115.456 120.848 115.388 120.848C115.321 120.848 115.254 120.864 115.194 120.895L112.76 122.296C112.659 122.356 112.664 122.457 112.76 122.523L115.572 124.146ZM122.679 120.038C122.739 120.069 122.805 120.085 122.873 120.085C122.94 120.085 123.007 120.069 123.067 120.038L125.496 118.642C125.602 118.586 125.597 118.486 125.496 118.42L122.684 116.797C122.623 116.768 122.557 116.752 122.49 116.752C122.422 116.752 122.356 116.768 122.296 116.797L119.861 118.203C119.76 118.264 119.765 118.365 119.861 118.425L122.679 120.038ZM111.233 126.65C111.293 126.68 111.36 126.696 111.427 126.696C111.494 126.696 111.561 126.68 111.621 126.65L114.05 125.249C114.156 125.189 114.146 125.088 114.05 125.023L111.243 123.4C111.183 123.37 111.116 123.354 111.049 123.354C110.982 123.354 110.915 123.37 110.855 123.4L108.42 124.801C108.32 124.861 108.325 124.962 108.42 125.028L111.233 126.65ZM119.125 122.114C119.186 122.144 119.252 122.16 119.319 122.16C119.387 122.16 119.453 122.144 119.513 122.114L121.943 120.713C122.049 120.653 122.044 120.552 121.943 120.487L119.13 118.864C119.07 118.834 119.004 118.818 118.936 118.818C118.869 118.818 118.803 118.834 118.742 118.864L116.308 120.27C116.207 120.33 116.212 120.431 116.308 120.492L119.125 122.114ZM104.126 130.773C104.186 130.803 104.251 130.818 104.318 130.818C104.384 130.818 104.45 130.803 104.509 130.773L106.944 129.367C107.045 129.307 107.039 129.206 106.944 129.145L104.121 127.512C104.061 127.483 103.995 127.467 103.927 127.467C103.86 127.467 103.794 127.483 103.733 127.512L101.304 128.903C101.198 128.964 101.208 129.065 101.304 129.13L104.126 130.773ZM107.654 128.722C107.714 128.753 107.781 128.769 107.848 128.769C107.916 128.769 107.982 128.753 108.042 128.722L110.472 127.321C110.578 127.26 110.567 127.16 110.472 127.094L107.659 125.471C107.6 125.441 107.534 125.426 107.468 125.426C107.401 125.426 107.336 125.441 107.276 125.471L104.842 126.872C104.741 126.933 104.746 127.034 104.842 127.099L107.654 128.722ZM125.924 116.979C125.984 117.01 126.051 117.026 126.118 117.026C126.186 117.026 126.252 117.01 126.312 116.979L128.742 115.573C128.848 115.517 128.843 115.416 128.742 115.351L128.016 114.912C127.956 114.883 127.889 114.867 127.822 114.867C127.755 114.867 127.688 114.883 127.628 114.912L125.199 116.313C125.093 116.374 125.098 116.475 125.199 116.54L125.924 116.979ZM136.584 110.825C136.644 110.856 136.711 110.872 136.778 110.872C136.846 110.872 136.912 110.856 136.972 110.825L139.406 109.419C139.507 109.358 139.502 109.257 139.406 109.197L138.66 108.764C138.6 108.734 138.534 108.718 138.466 108.718C138.399 108.718 138.333 108.734 138.272 108.764L135.838 110.17C135.737 110.23 135.742 110.331 135.838 110.391L136.584 110.825ZM142.491 114.237C142.551 114.267 142.618 114.282 142.685 114.282C142.752 114.282 142.819 114.267 142.879 114.237L145.313 112.836C145.414 112.775 145.409 112.675 145.313 112.609L142.501 110.986C142.441 110.956 142.374 110.941 142.307 110.941C142.24 110.941 142.173 110.956 142.113 110.986L139.699 112.392C139.593 112.453 139.598 112.554 139.699 112.619L142.491 114.237ZM151.376 123.254L153.806 121.847C153.912 121.787 153.906 121.691 153.806 121.626L150.993 120.003C150.933 119.972 150.867 119.956 150.799 119.956C150.732 119.956 150.665 119.972 150.605 120.003L148.176 121.379C148.075 121.439 148.08 121.535 148.176 121.6L150.988 123.223C151.051 123.261 151.123 123.282 151.196 123.284C151.269 123.285 151.342 123.268 151.407 123.233L151.376 123.254ZM129.528 114.912C129.588 114.943 129.655 114.959 129.722 114.959C129.79 114.959 129.856 114.943 129.916 114.912L132.345 113.506C132.451 113.451 132.446 113.35 132.345 113.284L131.594 112.851C131.534 112.821 131.468 112.806 131.4 112.806C131.333 112.806 131.267 112.821 131.206 112.851L128.777 114.252C128.671 114.313 128.681 114.413 128.777 114.479L129.528 114.912ZM100.573 132.804C100.633 132.835 100.7 132.851 100.767 132.851C100.835 132.851 100.901 132.835 100.961 132.804L103.396 131.398C103.496 131.338 103.491 131.237 103.396 131.176L100.583 129.554C100.523 129.523 100.457 129.506 100.389 129.506C100.322 129.506 100.255 129.523 100.195 129.554L97.776 130.96C97.6701 131.015 97.6802 131.116 97.776 131.181L100.573 132.804Z" fill="#455A64"/>
<path d="M116.333 154.138L140.329 140.284C140.735 140.077 141.184 139.97 141.639 139.97C142.095 139.97 142.544 140.077 142.95 140.284L156.709 148.227C157.434 148.645 157.434 149.32 156.709 149.739L132.713 163.594C132.307 163.8 131.858 163.907 131.403 163.907C130.947 163.907 130.498 163.8 130.092 163.594L116.333 155.65C115.613 155.232 115.613 154.552 116.333 154.138Z" fill="#263238"/>
<path d="M160.463 87.5144H160.433L156.336 85.1557C156.099 85.0498 155.751 85.1557 155.328 85.4682C151.517 88.3813 146.392 89.2885 142.224 87.9579C141.954 87.7062 141.699 87.4404 141.458 87.1616L141.382 87.0759C141.262 86.9366 141.119 86.819 140.959 86.7282L140.888 86.6878L136.786 84.3342C136.317 84.1124 135.894 84.3342 135.611 85.0297C131.65 94.8728 123.208 104.847 117.578 107.342C117.152 107.533 116.774 107.815 116.469 108.168C116.065 108.608 115.841 109.184 115.844 109.781L116.656 131.882C116.656 138.267 119.352 145.011 124.851 148.292L129.095 150.741L129.17 150.782C131.465 152.07 134.059 152.729 136.69 152.692C137.279 152.692 137.879 152.666 138.499 152.606C139.705 152.408 140.823 151.849 141.705 151.003C154.007 138.297 159.99 121.101 159.99 111.585L160.776 88.4418C160.806 87.9428 160.685 87.6354 160.463 87.5144Z" fill="#9269AD"/>
<path d="M160.776 88.4416L159.965 111.56C159.965 121.076 153.982 138.272 141.679 150.978C140.797 151.824 139.68 152.382 138.474 152.581C137.854 152.641 137.254 152.666 136.665 152.666C134.034 152.703 131.439 152.044 129.145 150.756L129.069 150.716L128.923 150.625C123.425 147.344 120.728 140.601 120.728 134.215L119.952 112.114C119.949 111.517 120.172 110.941 120.577 110.502C120.882 110.148 121.26 109.866 121.686 109.675C127.315 107.155 135.757 97.2062 139.719 87.363C140.001 86.6675 140.43 86.4407 140.898 86.6625L140.969 86.7028C141.129 86.7937 141.272 86.9113 141.392 87.0506V87.0506L141.468 87.1363C145.671 92.0301 153.937 92.0251 159.456 87.8015C159.874 87.484 160.222 87.3832 160.464 87.489H160.494C160.685 87.6352 160.806 87.9426 160.776 88.4416Z" fill="#9269AD"/>
<path opacity="0.4" d="M160.438 87.4842C160.201 87.3783 159.854 87.4842 159.43 87.7967C154.234 91.7732 146.599 92.0101 142.219 87.9277C146.407 89.2633 151.523 88.3561 155.323 85.4379C155.741 85.1204 156.089 85.0196 156.331 85.1255L160.438 87.4842Z" fill="white"/>
<path opacity="0.4" d="M140.873 86.6576C140.404 86.4358 139.976 86.6576 139.694 87.3581C135.732 97.2012 127.29 107.175 121.661 109.67C121.235 109.861 120.856 110.143 120.552 110.497C120.446 110.617 120.352 110.747 120.27 110.885L116.177 108.521C116.259 108.386 116.351 108.258 116.454 108.138C116.511 108.072 116.571 108.01 116.636 107.952V107.952L116.706 107.881L116.777 107.815C117.01 107.608 117.273 107.438 117.558 107.311C123.188 104.817 131.63 94.8425 135.591 84.9994C135.873 84.3039 136.297 84.0821 136.766 84.3039L140.873 86.6576Z" fill="white"/>
<path d="M116.641 107.942C116.662 107.918 116.686 107.895 116.712 107.876L116.641 107.947C116.641 107.947 116.636 107.942 116.641 107.942Z" fill="#9269AD"/>
<path opacity="0.15" d="M116.712 107.856L116.641 107.927C116.662 107.901 116.686 107.877 116.712 107.856Z" fill="black"/>
<path opacity="0.15" d="M129.155 150.751L129.079 150.716L124.836 148.261C119.337 144.98 116.641 138.237 116.641 131.851L115.829 109.751C115.821 109.315 115.942 108.887 116.177 108.521L120.27 110.885C120.038 111.251 119.918 111.676 119.927 112.109L120.738 134.21C120.738 140.596 123.435 147.314 128.933 150.62L129.079 150.711L129.155 150.751Z" fill="black"/>
<path d="M143.64 130.42L137.088 134.2L138.096 122.351C137.315 121.937 136.811 120.919 136.811 119.453C136.811 116.847 138.398 113.813 140.339 112.684C142.279 111.555 143.867 112.755 143.867 115.36C143.828 116.907 143.386 118.416 142.587 119.74L143.64 130.42Z" fill="#455A64"/>
<path d="M143.63 130.42L137.698 126.993L137.083 134.2L143.63 130.42Z" fill="#37474F"/>
<path d="M140.359 112.684C139.074 113.425 137.96 114.977 137.335 116.691L142.632 119.74C143.432 118.416 143.873 116.907 143.912 115.36C143.897 112.755 142.314 111.555 140.359 112.684Z" fill="#37474F"/>
<path d="M58.4237 199.252V201.217C58.4237 203.536 59.9357 205.849 63 207.618C67.6066 210.274 74.3703 210.924 80.0403 209.568L85.302 212.592L89.334 211.675L92.0909 213.273L92.2421 216.604L93.7541 217.466L97.4887 217.794L100.17 219.306V221.186L103.542 223.126H112.11L115.179 221.357V219.371L87.7918 205.547C88.9536 204.409 89.6323 202.867 89.6868 201.242V199.226C89.2735 197.301 87.6708 196.308 85.1155 194.832C79.0121 191.304 69.1236 191.304 63.0202 194.832C60.2583 196.444 58.7009 197.18 58.4237 199.252ZM66.8103 196.948C67.7802 196.456 68.8525 196.2 69.9401 196.2C71.0277 196.2 72.1 196.456 73.0699 196.948C74.7987 197.956 74.7987 199.564 73.0699 200.562C72.1 201.054 71.0277 201.31 69.9401 201.31C68.8525 201.31 67.7802 201.054 66.8103 200.562C65.0815 199.584 65.0815 197.946 66.8103 196.948Z" fill="#9269AD"/>
<path opacity="0.1" d="M58.4237 199.252V201.217C58.4237 203.536 59.9357 205.849 63 207.618C67.6066 210.274 74.3703 210.924 80.0403 209.568L85.302 212.592L89.334 211.675L92.0909 213.273L92.2421 216.604L93.7541 217.466L97.4887 217.794L100.17 219.306V221.186L103.542 223.126H112.11L115.179 221.357V219.371L87.7918 205.547C88.9536 204.409 89.6323 202.867 89.6868 201.242V199.226C89.2735 197.301 87.6708 196.308 85.1155 194.832C79.0121 191.304 69.1236 191.304 63.0202 194.832C60.2583 196.444 58.7009 197.18 58.4237 199.252ZM66.8103 196.948C67.7802 196.456 68.8525 196.2 69.9401 196.2C71.0277 196.2 72.1 196.456 73.0699 196.948C74.7987 197.956 74.7987 199.564 73.0699 200.562C72.1 201.054 71.0277 201.31 69.9401 201.31C68.8525 201.31 67.7802 201.054 66.8103 200.562C65.0815 199.584 65.0815 197.946 66.8103 196.948Z" fill="black"/>
<path d="M63 205.632C67.6066 208.293 74.3702 208.943 80.0402 207.583L85.302 210.607L89.334 209.694L92.0909 211.287L92.2421 214.624L93.7541 215.48L97.4887 215.808L100.402 217.431L100.17 219.185L103.542 221.13H112.11L115.179 219.361L87.7918 203.546C91.0174 200.123 90.1303 195.754 85.1155 192.861C79.0121 189.333 69.1236 189.333 63.0202 192.861C56.9167 196.389 56.8966 202.104 63 205.632ZM66.8102 194.963C67.7802 194.471 68.8525 194.214 69.9401 194.214C71.0277 194.214 72.0999 194.471 73.0699 194.963C74.7986 195.971 74.7986 197.578 73.0699 198.576C72.0999 199.068 71.0277 199.324 69.9401 199.324C68.8525 199.324 67.7802 199.068 66.8102 198.576C65.0815 197.568 65.0815 195.955 66.8102 194.957V194.963Z" fill="#9269AD"/>
<path opacity="0.3" d="M74.0477 206.539C70.172 206.539 66.5583 205.682 63.8669 204.13C61.5082 202.769 60.1525 200.99 60.1525 199.251C60.1525 197.513 61.5082 195.723 63.8669 194.368C66.5583 192.815 70.172 191.958 74.0477 191.958C77.9235 191.958 81.5372 192.815 84.2285 194.368C86.5873 195.733 87.943 197.508 87.943 199.251C87.943 200.995 86.5873 202.779 84.2285 204.13C81.5372 205.682 77.9235 206.539 74.0477 206.539ZM74.0477 192.654C70.2929 192.654 66.8002 193.476 64.2097 194.967C62.0727 196.202 60.848 197.765 60.848 199.251C60.848 200.738 62.0727 202.275 64.2097 203.53C66.8002 205.042 70.2929 205.849 74.0477 205.849C77.8025 205.849 81.2953 205.022 83.8858 203.53C86.0228 202.296 87.2475 200.733 87.2475 199.251C87.2475 197.77 86.0228 196.227 83.8858 194.967C81.2953 193.476 77.8025 192.654 74.0477 192.654Z" fill="black"/>
<path opacity="0.1" d="M68.4231 207.648V209.664C72.2538 210.497 76.2215 210.469 80.0403 209.583V207.598C76.219 208.471 72.2518 208.488 68.4231 207.648V207.648Z" fill="black"/>
<path opacity="0.1" d="M85.302 210.617V212.608L89.3441 211.69V209.705L85.302 210.617Z" fill="black"/>
<path opacity="0.1" d="M92.101 211.297V213.288L92.2522 216.62V214.634L92.101 211.297Z" fill="black"/>
<path opacity="0.1" d="M93.739 215.49V217.481L97.4736 217.809V215.818L93.739 215.49Z" fill="black"/>
<path opacity="0.1" d="M112.09 221.14H103.527V223.131H112.09V221.14Z" fill="black"/>
<path opacity="0.15" d="M115.159 219.366V221.357L112.09 223.126V221.14L113.43 220.364V221.221L114.176 220.793V219.926L115.159 219.366Z" fill="black"/>
<path d="M114.176 219.926L113.43 220.364V221.221L114.176 220.793V219.926Z" fill="#9269AD"/>
<path opacity="0.15" d="M114.176 219.925V220.792L86.0883 204.574L86.8291 204.14L114.176 219.925Z" fill="black"/>
<path opacity="0.15" d="M86.8291 204.14V205.007L86.0883 204.574L86.8291 204.14Z" fill="black"/>
<path d="M208.923 145.435C209.281 132.331 208.228 129.16 204.73 126.756L203.379 134.362C203.379 134.362 204.972 143.328 204.8 146.312C204.649 148.937 204.392 152.218 203.792 154.335C203.678 154.711 203.431 155.031 203.097 155.237C202.371 155.75 201.724 156.367 201.177 157.067C200.673 157.616 200.209 157.752 200.275 157.929C200.377 158.121 200.548 158.267 200.753 158.339C200.959 158.411 201.184 158.403 201.383 158.317C201.831 158.143 202.254 157.912 202.643 157.631C202.337 158.438 201.901 159.188 201.353 159.854C200.103 161.366 200.048 162.324 202.568 162.349C204.15 162.349 205.41 161.386 206.6 157.909C207.062 156.635 207.433 155.329 207.709 154.003C208.288 150.56 208.868 147.546 208.923 145.435Z" fill="#B16668"/>
<path d="M201.792 125.758C202.866 125.568 203.973 125.732 204.946 126.224C205.919 126.717 206.706 127.512 207.189 128.49C208.656 131.106 209.014 135.612 209.205 140.082C209.205 140.082 206.297 142.516 202.81 141.322L201.792 125.758Z" fill="#9269AD"/>
<path opacity="0.7" d="M201.792 125.758C202.866 125.568 203.973 125.732 204.946 126.224C205.919 126.717 206.706 127.512 207.189 128.49C208.656 131.106 209.014 135.612 209.205 140.082C209.205 140.082 206.297 142.516 202.81 141.322L201.792 125.758Z" fill="black"/>
<path d="M206.7 197.961C206.962 198.062 207.028 198.566 207.068 199.569C207.099 200.325 207.265 201.651 206.373 201.918C205.481 202.185 204.18 202.044 203.611 201.328C202.922 200.369 202.185 199.446 201.403 198.561C200.526 197.619 199.574 196.732 199.216 195.406C198.898 194.212 199.166 193.693 199.982 193.345C201.106 192.841 202.87 194.428 203.752 194.675C204.508 194.887 206.433 197.861 206.7 197.961Z" fill="#263238"/>
<path d="M206.7 197.029V198.264C206.237 198.559 205.703 198.722 205.154 198.736C204.606 198.75 204.063 198.615 203.586 198.344C203.53 198.228 203.263 196.585 203.263 196.585L206.7 197.029Z" fill="#B16668"/>
<path d="M196.721 205.058C196.938 205.72 197.12 206.393 197.266 207.074C197.417 207.82 197.633 209.09 197.376 209.624C197.119 210.158 196.096 210.546 194.519 210.536C193.511 210.536 191.908 211.222 190.819 211.831C189.731 212.441 187.352 212.708 186.157 212.567C184.756 212.401 183.305 211.589 183.078 211.01C182.851 210.43 183.149 209.825 186.46 208.414C186.49 208.414 191.056 206.902 192.654 205.153L196.721 205.058Z" fill="#263238"/>
<path d="M196.721 203.727V205.163C196.721 205.667 196.111 206.464 194.514 206.408C193.395 206.368 192.609 206.066 192.654 205.143V203.808L196.721 203.727Z" fill="#B16668"/>
<path d="M207.502 180.684C207.228 178.503 206.74 176.354 206.045 174.268C206.045 174.268 206.484 168.724 206.695 163.488C206.922 157.818 206.695 150.696 206.791 149.28C206.791 149.28 188.501 145.58 188.173 152.132C187.846 158.684 188.899 175.362 189.116 178.24C189.333 181.117 189.826 183.668 190.421 188.32C191.016 192.972 192.654 203.797 192.654 203.797C193.286 204.119 193.988 204.28 194.698 204.266C195.407 204.252 196.102 204.063 196.721 203.717C196.721 203.717 198.011 190.613 197.875 187.291C197.771 184.831 197.347 182.395 196.615 180.044C196.615 180.044 196.963 174.641 197.271 169.964C197.578 165.287 197.901 163.004 197.971 160.962L198.364 160.766C198.364 160.766 198.767 168.875 198.984 171.753C199.201 174.631 199.654 177.388 200.496 182.735C201.222 187.377 203.374 197.19 203.374 197.19C205.461 198.319 206.711 197.039 206.711 197.039C206.711 197.039 208.061 184.711 207.502 180.684Z" fill="#37474F"/>
<path d="M197.971 160.952C197.971 160.952 202.406 158.76 204.624 156.794C204.624 156.794 202.563 159.697 199.856 160.988C199.856 160.988 198.894 171.068 198.899 170.856L198.339 160.937L197.971 160.952Z" fill="#263238"/>
<path d="M194.02 123.687L195.103 129.644L200.486 129.246L199.357 122.498L194.02 123.687Z" fill="#B16668"/>
<path d="M206.166 128.812C205.637 127.195 203.581 125.431 201.524 125.788C198.472 126.315 195.464 127.075 192.528 128.061C190.648 128.732 188.929 130.36 188.773 136.554C188.773 136.554 188.143 150.988 188.133 153.781C192.062 155.322 196.342 155.744 200.496 155C206.151 153.765 206.836 151.417 206.836 151.417C206.836 151.417 206.907 141.034 206.736 136.554C206.584 132.744 206.534 129.926 206.166 128.812Z" fill="#9269AD"/>
<g opacity="0.15">
<path opacity="0.15" d="M206.166 128.812C205.637 127.195 203.581 125.431 201.524 125.788C198.472 126.315 195.464 127.075 192.528 128.061C190.648 128.732 188.929 130.36 188.773 136.554C188.773 136.554 188.143 150.988 188.133 153.781C192.062 155.322 196.342 155.744 200.496 155C206.151 153.765 206.836 151.417 206.836 151.417C206.836 151.417 206.907 141.034 206.736 136.554C206.584 132.744 206.534 129.926 206.166 128.812Z" fill="black"/>
</g>
<path d="M189.872 116.424C189.872 116.424 188.506 118.602 188.672 118.808C188.839 119.015 189.882 119.181 189.882 119.181L189.872 116.424Z" fill="#9A4A4D"/>
<path d="M193.657 110.421C190.814 111.087 190.018 112.362 189.852 116.913C189.675 121.661 190.194 123.142 190.829 123.767C191.263 124.191 193.601 124.216 194.776 123.863C196.242 123.425 199.554 122.165 201.061 119.745C202.835 116.893 203.233 113.077 201.232 111.56C198.41 109.423 194.816 110.149 193.657 110.421Z" fill="#B16668"/>
<path d="M189.882 111.606C190.535 112.557 191.456 113.292 192.528 113.718C193.072 114.338 192.775 116.742 193.733 117.145C193.733 117.145 194.146 115.381 195.628 115.572C197.109 115.764 197.366 117.649 196.454 118.823C195.542 119.998 194.66 119.574 194.66 119.574C194.66 119.574 194.761 122.094 195.905 123.475C195.905 123.475 197.175 123.858 199.493 123.309C200.915 122.971 202.895 121.142 203.702 119.232C205.41 115.2 205.451 111.586 202.875 110.563C202.558 108.723 201.086 107.932 199.423 107.589C195.839 106.848 193.531 109.101 190.774 108.889C189.197 108.779 188.904 109.928 189.882 111.606Z" fill="#263238"/>
<path d="M202.93 111.178L204.619 110.134C204.565 109.997 204.481 109.874 204.374 109.773C204.267 109.672 204.139 109.595 203.999 109.549C203.859 109.502 203.711 109.487 203.564 109.504C203.418 109.522 203.277 109.571 203.152 109.648C203.026 109.726 202.92 109.83 202.839 109.953C202.758 110.076 202.705 110.215 202.684 110.361C202.663 110.507 202.674 110.656 202.717 110.797C202.759 110.938 202.832 111.068 202.93 111.178V111.178Z" fill="#263238"/>
<path d="M169.767 138.786C170.649 139.18 181.077 146.881 182.7 145.984C184.323 145.086 192.664 135.344 192.664 135.344C193.369 134.256 193.744 132.987 193.744 131.69C193.744 130.394 193.369 129.125 192.664 128.036C192.664 128.036 189.993 128.54 188.592 130.647C187.191 132.754 181.153 140.339 181.153 140.339C179.661 139.593 178.172 138.837 176.687 138.071C175.468 137.436 174.243 136.806 173.048 136.125C172.713 135.97 172.396 135.775 172.106 135.546C171.516 134.961 171.602 133.53 171.632 132.784C171.632 132.426 171.632 132.068 171.683 131.71C171.733 131.272 171.819 130.198 171.027 130.541C170.878 130.612 170.748 130.72 170.649 130.853C170.528 131.018 170.433 131.199 170.367 131.393C170.221 131.856 170.266 132.365 170.13 132.834C170.114 132.903 170.081 132.967 170.034 133.021C169.964 133.075 169.876 133.102 169.787 133.096C168.638 133.061 167.55 131.448 167.021 130.576C166.837 130.161 166.534 129.809 166.149 129.568C165.524 129.271 164.768 129.694 164.359 130.259C163.868 131.001 163.667 131.898 163.795 132.779C163.901 133.984 164.438 135.111 165.307 135.954C166.62 137.147 168.129 138.105 169.767 138.786V138.786Z" fill="#B16668"/>
<path d="M193.536 127.724C192.387 127.855 190.477 127.941 188.602 130.063C186.394 132.552 183.516 136.584 183.516 136.584C183.811 137.777 184.442 138.859 185.336 139.701C186.23 140.544 187.349 141.11 188.556 141.332C188.556 141.332 192.503 137.3 193.596 135.062C194.69 132.825 194.872 129.226 193.536 127.724Z" fill="#9269AD"/>
<path opacity="0.7" d="M193.536 127.724C192.387 127.855 190.477 127.941 188.602 130.063C186.394 132.552 183.516 136.584 183.516 136.584C183.811 137.777 184.442 138.859 185.336 139.701C186.23 140.544 187.349 141.11 188.556 141.332C188.556 141.332 192.503 137.3 193.596 135.062C194.69 132.825 194.872 129.226 193.536 127.724Z" fill="black"/>
</svg>
