<svg width="36" height="36" viewBox="0 0 36 36" fill="none" xmlns="http://www.w3.org/2000/svg">
<defs>
<clipPath id="clip0">
<rect width="36" height="36" fill="white"/>
</clipPath>
</defs>
<g clip-path="url(#clip0)">
<path d="M31.7796 24.0405C30.812 26.663 29.3486 28.9432 27.4296 30.8172C25.2452 32.9502 22.3849 34.6451 18.9281 35.8541C18.8146 35.8937 18.6963 35.9261 18.5773 35.95C18.4202 35.981 18.2604 35.9978 18.1019 36H18.0709C17.9019 36 17.7322 35.983 17.5638 35.95C17.4449 35.9261 17.3282 35.8937 17.2153 35.855C13.7543 34.6478 10.8905 32.9538 8.70391 30.8208C6.78405 28.9468 5.32095 26.6679 4.3547 24.0455C2.59771 19.2774 2.69768 14.0249 2.77816 9.80391L2.77953 9.73909C2.79574 9.39055 2.80617 9.02443 2.81194 8.62013C2.84133 6.63518 4.41952 4.99299 6.40475 4.88231C10.5439 4.65132 13.7458 3.30137 16.4817 0.634716L16.5056 0.612743C16.9599 0.196087 17.5323 -0.008259 18.1019 0.000255439C18.6512 0.00739657 19.1983 0.211468 19.6364 0.612743L19.6598 0.634716C22.3962 3.30137 25.5982 4.65132 29.7373 4.88231C31.7225 4.99299 33.3007 6.63518 33.3301 8.62013C33.3358 9.02717 33.3463 9.39274 33.3625 9.73909L33.3633 9.76655C33.4435 13.9955 33.5429 19.2585 31.7796 24.0405Z" fill="#7948B0"/>
<path d="M31.6184 24.0405C30.655 26.6629 29.198 28.9432 27.2872 30.8172C25.1123 32.9502 22.2645 34.6451 18.8226 35.8542C18.7096 35.8937 18.5918 35.9261 18.4734 35.95C18.3169 35.981 18.1578 35.9978 18 36V0C18.5469 0.00714119 19.0917 0.211214 19.5279 0.612492L19.5511 0.634465C22.2757 3.30114 25.4638 4.6511 29.5849 4.88209C31.5615 4.99277 33.1329 6.63497 33.1621 8.61994C33.1679 9.02699 33.1783 9.39256 33.1944 9.7389L33.1952 9.76637C33.2751 13.9953 33.3741 19.2584 31.6184 24.0405Z" fill="#533278"/>
<path d="M17.9723 26.9446C22.9276 26.9446 26.9446 22.9276 26.9446 17.9723C26.9446 13.017 22.9276 9 17.9723 9C13.017 9 9 13.017 9 17.9723C9 22.9276 13.017 26.9446 17.9723 26.9446Z" fill="#739A00"/>
<path d="M26.9404 17.972C26.9404 22.9084 22.9323 26.9267 18 26.9443V9C22.9323 9.01758 26.9404 13.0358 26.9404 17.972Z" fill="#597700"/>
<path d="M24.2089 16.8126C24.485 16.5426 24.3316 16.07 23.9511 16.0148L20.4101 15.4993C20.2566 15.4748 20.1278 15.3827 20.0603 15.2415L18.4769 12.0319C18.3051 11.6821 17.808 11.6821 17.6361 12.0319L16.0589 15.2415C15.9914 15.3766 15.8564 15.4748 15.7091 15.4993L12.1681 16.0148C11.7876 16.07 11.6341 16.5426 11.9103 16.8126L14.4694 19.3104C14.5799 19.4209 14.629 19.5743 14.6045 19.7216L14.003 23.2442C13.9355 23.6247 14.3406 23.9193 14.6842 23.7352L17.8509 22.072C17.986 21.9984 18.1517 21.9984 18.2867 22.072L21.4534 23.7352C21.797 23.9131 22.1959 23.6247 22.1346 23.2442L21.527 19.7216C21.5025 19.5681 21.5516 19.4147 21.662 19.3104L24.2089 16.8126Z" fill="white"/>
</g>
</svg>
