<svg width="34" height="34" viewBox="0 0 34 34" fill="none" xmlns="http://www.w3.org/2000/svg">
<defs>
<linearGradient id="paint0_linear" x1="23.1851" y1="11.0366" x2="20.5382" y2="13.6835" gradientUnits="userSpaceOnUse">
<stop stop-color="#6FCF97"/>
<stop offset="1" stop-color="#596D8A"/>
</linearGradient>
<linearGradient id="paint1_linear" x1="13.4336" y1="7.80236" x2="24.5567" y2="7.80236" gradientUnits="userSpaceOnUse">
<stop stop-color="#6FCF97"/>
<stop offset="1" stop-color="#596D8A"/>
</linearGradient>
</defs>
<path d="M20.672 23.5226C21.2591 22.9355 22.179 22.9036 22.727 23.4517L22.7489 23.4736C23.2959 24.0205 23.2658 24.9386 22.6811 25.5255C20.7688 27.4469 20.5777 27.6325 17.7122 30.4922C16.1032 32.0984 13.5844 32.1837 12.0837 30.683L8.86207 27.4614C7.87594 26.4752 7.5391 24.9944 7.98133 23.5919L10.6274 15.2007L11.1767 15.2518C12.3691 15.3024 13.2331 16.3067 13.1156 17.5062L12.9411 19.2882L19.6784 12.5603C20.2657 11.9744 21.1851 11.943 21.7325 12.4903L21.7328 12.4906C22.2809 13.0387 22.2491 13.9586 21.6622 14.5455L17.5871 18.6206C18.1748 18.0588 19.0747 18.0373 19.6139 18.5765L19.6372 18.5998C20.1852 19.1479 20.1534 20.0677 19.5662 20.6549L19.2244 20.9967C19.8113 20.4098 20.7315 20.3785 21.2791 20.9261L21.2816 20.9286C21.8297 21.4768 21.7981 22.3965 21.2112 22.9834L20.672 23.5226Z" fill="#F7CAA5"/>
<path d="M22.6208 15.7662C22.465 15.6103 22.465 15.3577 22.6208 15.2019C23.6152 14.2075 23.6152 12.5953 22.6208 11.6009C21.6264 10.6065 20.0142 10.6065 19.0198 11.6009C18.864 11.7567 18.6114 11.7567 18.4556 11.6009C18.2997 11.4451 18.2997 11.1924 18.4556 11.0366C19.7616 9.73061 21.879 9.73061 23.1851 11.0366C24.4911 12.3427 24.4911 14.4601 23.1851 15.7662C23.0293 15.922 22.7766 15.922 22.6208 15.7662Z" fill="url(#paint1_linear)"/>
<path d="M23.356 7.37193H23.1631H14.8629L15.5543 6.68047C15.7102 6.52461 15.7102 6.27191 15.5543 6.11605C15.3985 5.96018 15.1458 5.96038 14.9899 6.11624L13.7171 7.38907C13.575 7.43193 13.4685 7.55039 13.4406 7.69612C13.4129 7.84205 13.4685 7.99129 13.585 8.08325L13.5859 8.08442L14.9899 9.48857C15.1458 9.64443 15.3985 9.64443 15.5543 9.48857C15.7102 9.33271 15.7102 9.08001 15.5543 8.92414L14.8001 8.16995H23.226H23.356C23.5708 8.16995 23.6387 8.16995 23.6876 8.16995C23.8895 8.16995 23.8471 8.16995 23.9272 8.16995L24.3177 8.14544L24.4398 8.08442C24.5957 7.92875 24.5957 7.67606 24.4398 7.52019L24.3177 7.37193H23.8283C23.6446 7.37193 23.8 7.37193 23.5928 7.37193C23.4158 7.37193 23.5221 7.37193 23.356 7.37193Z" fill="url(#paint1_linear)"/>
</svg>
