<svg width="342" height="587" viewBox="0 0 342 587" fill="none" xmlns="http://www.w3.org/2000/svg">
<g opacity="0.1">
<path opacity="0.1" d="M34.054 271.158L23.354 271.386L17.921 271.475C16.102 271.516 14.2751 271.475 12.4561 271.516H12.097V271.149L12.048 262.021V261.613H12.4561L23.256 261.662C26.861 261.662 30.456 261.752 34.056 261.801H34.284V262.021C34.284 263.571 34.211 265.113 34.178 266.63L34.054 271.158ZM34.054 271.158L33.94 266.541C33.94 265.024 33.85 263.522 33.834 262.03L34.054 262.249C30.454 262.29 26.859 262.38 23.254 262.388L12.454 262.437L12.862 262.029V271.157L12.4951 270.789C14.2731 270.789 16.052 270.789 17.838 270.838L23.205 270.928L34.054 271.158Z" fill="#EBEBEB"/>
<path opacity="0.1" d="M22.006 282.667L11.306 282.895L5.87299 282.985C4.05399 283.026 2.22702 282.985 0.40802 283.026H0.0490112V282.659L0 273.531V273.123H0.40802L11.208 273.172C14.808 273.172 18.408 273.262 22.008 273.311H22.236V273.531C22.236 275.081 22.171 276.623 22.13 278.14L22.006 282.667ZM22.006 282.667L21.892 278.05C21.851 276.534 21.802 275.032 21.786 273.539L22.006 273.759C18.406 273.8 14.806 273.89 11.206 273.898L0.406006 273.947L0.814026 273.539L0.77301 282.667L0.406006 282.3C2.18401 282.3 3.96302 282.3 5.74902 282.349L11.116 282.439L22.006 282.667Z" fill="#EBEBEB"/>
<path opacity="0.1" d="M306.269 174.109L295.559 174.337L290.126 174.427C288.315 174.427 286.488 174.427 284.669 174.468H284.302V174.101L284.261 164.973V164.557H284.669L295.469 164.606C299.069 164.606 302.664 164.696 306.269 164.737H306.489V164.957C306.489 166.507 306.424 168.04 306.383 169.566L306.269 174.109ZM306.269 174.109L306.155 169.492C306.114 167.975 306.055 166.474 306.049 164.981L306.269 165.201C302.664 165.242 299.069 165.332 295.469 165.332L284.669 165.389L285.077 164.981L285.028 174.109L284.669 173.742C286.447 173.742 288.226 173.742 290.004 173.791L295.371 173.881L306.269 174.109Z" fill="#EBEBEB"/>
<path opacity="0.1" d="M294.22 185.618L283.51 185.838L278.077 185.938H272.253V185.571L272.212 176.443V176.018H272.628L283.428 176.067C287.028 176.067 290.623 176.157 294.228 176.198H294.448V176.418C294.448 177.968 294.375 179.501 294.342 181.027L294.22 185.618ZM294.22 185.618L294.098 181.001C294.098 179.484 294.008 177.983 293.992 176.49L294.22 176.71C290.615 176.71 287.02 176.841 283.42 176.841L272.62 176.898L273.028 176.49L272.979 185.618L272.62 185.251C274.398 185.251 276.168 185.251 277.955 185.3L283.322 185.39L294.22 185.618Z" fill="#EBEBEB"/>
<path opacity="0.1" d="M282.213 174.109L271.513 174.337L266.08 174.427C264.261 174.427 262.434 174.427 260.615 174.468H260.256V174.101L260.207 164.973V164.557H260.615L271.415 164.606C275.02 164.606 278.615 164.696 282.215 164.737H282.443V164.957C282.443 166.507 282.37 168.04 282.337 169.566L282.213 174.109ZM282.213 174.109L282.099 169.492C282.099 167.975 282.009 166.474 281.993 164.981L282.213 165.201C278.613 165.242 275.018 165.332 271.413 165.332L260.613 165.389L261.021 164.981L260.979 174.109L260.612 173.742C262.39 173.742 264.169 173.742 265.955 173.791L271.322 173.881L282.213 174.109Z" fill="#EBEBEB"/>
<path opacity="0.1" d="M340.823 282.667L330.113 282.895L324.68 282.985C322.869 283.026 321.042 282.985 319.223 283.026H318.856V282.659L318.815 273.531V273.123H319.223L330.023 273.172C333.623 273.172 337.223 273.262 340.823 273.311H341.043V273.531C341.043 275.081 340.978 276.623 340.937 278.14L340.823 282.667ZM340.823 282.667L340.709 278.05C340.709 276.534 340.609 275.032 340.603 273.539L340.823 273.759C337.223 273.8 333.623 273.89 330.023 273.898L319.223 273.947L319.631 273.539L319.582 282.667L319.223 282.3C321.001 282.3 322.78 282.3 324.558 282.349L329.925 282.439L340.823 282.667Z" fill="#EBEBEB"/>
<path opacity="0.1" d="M328.775 52.2757L318.065 52.4957L312.632 52.5957H306.844V42.6957H307.26L318.06 42.7447C321.66 42.7447 325.255 42.8347 328.86 42.8757H329.08V43.0957C329.08 44.6377 329.007 46.1787 328.974 47.7047L328.775 52.2757ZM328.775 52.2757L328.661 47.6587C328.62 46.1417 328.561 44.6407 328.547 43.1477L328.775 43.3677C325.17 43.3677 321.575 43.4987 317.975 43.4987L307.175 43.5557L307.583 43.1477L307.534 52.2757L307.175 51.9087C308.953 51.9087 310.723 51.9087 312.51 51.9497L317.877 52.0497L328.775 52.2757Z" fill="#EBEBEB"/>
<path opacity="0.1" d="M340.823 63.7607L330.113 63.9807L324.68 64.0807H318.856V63.7627L318.815 54.6347V54.2187H319.223L330.023 54.2677C333.623 54.2677 337.223 54.3577 340.823 54.3987H341.043V54.6187C341.043 56.1607 340.978 57.7017 340.937 59.2277L340.823 63.7607ZM340.823 63.7607L340.709 59.1437C340.709 57.6267 340.609 56.1257 340.603 54.6327L340.823 54.8527C337.223 54.8527 333.623 54.9837 330.023 54.9837L319.223 55.0327L319.631 54.6327L319.582 63.7607L319.223 63.3937H324.558L329.925 63.4937L340.823 63.7607Z" fill="#EBEBEB"/>
<path opacity="0.1" d="M22.006 52.2757L11.306 52.4957L5.841 52.5957H0.0490112V52.2377L0 43.1097V42.6937H0.40802L11.208 42.7427C14.808 42.7427 18.408 42.8327 22.008 42.8737H22.236V43.0937C22.236 44.6357 22.171 46.1767 22.13 47.7027L22.006 52.2757ZM22.006 52.2757L21.892 47.6587C21.851 46.1417 21.802 44.6407 21.786 43.1477L22.006 43.3677C18.406 43.3677 14.806 43.4987 11.206 43.4987L0.406006 43.5557L0.814026 43.1477L0.77301 52.2757L0.406006 51.9087C2.18401 51.9087 3.96302 51.9087 5.74902 51.9497L11.116 52.0497L22.006 52.2757Z" fill="#EBEBEB"/>
<path opacity="0.1" d="M332.102 59.3067H292.042V99.3667H332.102V59.3067Z" fill="white"/>
<path opacity="0.1" d="M289.962 57.2347V101.463H334.182V57.2347H289.962ZM332.127 99.3667H292.042V59.3067H332.127V99.3667Z" fill="#DBDBDB"/>
<path opacity="0.1" d="M329.215 77.7577H297.989V91.6087H329.215V77.7577Z" fill="#EBEBEB"/>
<path opacity="0.1" d="M320.078 71.3387H304.082V87.3347H320.078V71.3387Z" fill="#C7C7C7"/>
<path opacity="0.1" d="M335.896 57.2267H334.191V101.455H335.896V57.2267Z" fill="#C7C7C7"/>
<path opacity="0.1" d="M332.102 116.187H292.042V156.247H332.102V116.187Z" fill="white"/>
<path opacity="0.1" d="M309.385 122.599H298.927V152.813H309.385V122.599Z" fill="#C7C7C7"/>
<path opacity="0.1" d="M289.962 114.104V158.332H334.182V114.104H289.962ZM332.127 156.244H292.042V116.184H332.127V156.244Z" fill="#DBDBDB"/>
<path opacity="0.1" d="M320.07 128.219H304.074V144.215H320.07V128.219Z" fill="#EBEBEB"/>
<path opacity="0.1" d="M335.896 114.107H334.191V158.335H335.896V114.107Z" fill="#C7C7C7"/>
<path opacity="0.1" d="M332.102 173.076H292.042V213.136H332.102V173.076Z" fill="white"/>
<path opacity="0.1" d="M318.472 178.533H296.488V191.674H318.472V178.533Z" fill="#EBEBEB"/>
<path opacity="0.1" d="M289.962 170.988V215.216H334.182V170.988H289.962ZM332.127 213.136H292.042V173.068H332.127V213.136Z" fill="#DBDBDB"/>
<path opacity="0.1" d="M320.07 185.107H304.074V201.103H320.07V185.107Z" fill="#C7C7C7"/>
<path opacity="0.1" d="M335.896 170.987H334.191V215.215H335.896V170.987Z" fill="#C7C7C7"/>
<path opacity="0.1" d="M108.97 53.6457H6.24603V211.162H108.97V53.6457Z" fill="#EBEBEB"/>
<path opacity="0.1" d="M55.222 59.9587H11.842V130.021H55.222V59.9587Z" fill="white"/>
<path opacity="0.1" d="M103.374 59.9587H59.994V130.021H103.374V59.9587Z" fill="white"/>
<path opacity="0.1" d="M55.222 134.794H11.842V204.856H55.222V134.794Z" fill="white"/>
<path opacity="0.1" d="M103.374 134.794H59.994V204.856H103.374V134.794Z" fill="white"/>
<path opacity="0.1" d="M30.579 53.6457H6.24603V278.997H30.579V53.6457Z" fill="#DBDBDB"/>
<path opacity="0.1" d="M25.962 64.3637L26.162 88.7297L26.227 113.096L26.358 161.827L26.227 210.558L26.162 234.924L25.962 259.29L25.774 234.924L25.709 210.558L25.578 161.827L25.709 113.096L25.774 88.7297L25.962 64.3637Z" fill="#EBEBEB"/>
<path opacity="0.1" d="M14.795 70.0097L14.983 91.7647L15.0891 113.528L15.179 157.039L15.0891 200.55L14.983 222.305L14.795 244.068L14.6071 222.305L14.493 200.55L14.411 157.039L14.501 113.528L14.606 91.7667L14.795 70.0097Z" fill="#EBEBEB"/>
<path opacity="0.1" d="M20.382 75.1477L20.57 100.623L20.635 126.098L20.766 177.048L20.635 227.998L20.57 253.473L20.382 278.948L20.182 253.473L20.117 227.998L19.986 177.048L20.117 126.098L20.19 100.623L20.382 75.1477Z" fill="#EBEBEB"/>
<path opacity="0.1" d="M10.635 65.6447L10.8231 92.3107L10.8961 118.977L11.027 172.301L10.8961 225.625L10.8311 252.291L10.631 278.949L10.4431 252.291L10.3781 225.625L10.247 172.301L10.3781 118.977L10.4431 92.3107L10.635 65.6447Z" fill="#EBEBEB"/>
<path opacity="0.1" d="M108.97 53.6537H84.637V279.005H108.97V53.6537Z" fill="#DBDBDB"/>
<path opacity="0.1" d="M89.254 64.3637L89.442 88.7297L89.515 113.096L89.646 161.827L89.515 210.558L89.45 234.924L89.25 259.29L89.062 234.924L88.997 210.558L88.867 161.827L88.997 113.096L89.062 88.7297L89.254 64.3637Z" fill="#EBEBEB"/>
<path opacity="0.1" d="M100.429 70.0097L100.617 91.7647L100.723 113.528L100.813 157.039L100.723 200.55L100.617 222.305L100.429 244.068L100.241 222.305L100.135 200.55L100.045 157.039L100.135 113.528L100.241 91.7647L100.429 70.0097Z" fill="#EBEBEB"/>
<path opacity="0.1" d="M94.842 75.1477L95.03 100.623L95.103 126.098L95.225 177.048L95.103 227.998L95.03 253.473L94.842 278.948L94.6541 253.473L94.5891 227.998L94.459 177.048L94.5891 126.098L94.6541 100.623L94.842 75.1477Z" fill="#EBEBEB"/>
<path opacity="0.1" d="M104.581 65.6447L104.769 92.3107L104.842 118.977L104.972 172.301L104.842 225.625L104.777 252.291L104.577 278.949L104.389 252.291L104.324 225.625L104.193 172.301L104.324 118.977L104.389 92.3107L104.581 65.6447Z" fill="#EBEBEB"/>
<path opacity="0.1" d="M248.988 97.8417C250.373 99.4291 252.003 100.784 253.817 101.855C258.139 104.442 263.278 105.305 268.208 104.271C273.139 103.237 277.498 100.382 280.416 96.2757C283.334 92.1696 284.597 87.1141 283.953 82.118C283.308 77.1219 280.804 72.5525 276.939 69.3214C273.074 66.0903 268.133 64.4351 263.102 64.686C258.071 64.9369 253.319 67.0756 249.795 70.6752C246.271 74.2748 244.233 79.0708 244.089 84.1062C243.945 89.1417 245.705 94.0464 249.017 97.8417H248.988Z" fill="#EBEBEB"/>
<path opacity="0.1" d="M258.928 80.7037C258.572 81.855 258.565 83.086 258.909 84.241C259.253 85.396 259.931 86.4231 260.858 87.1926C261.786 87.9621 262.921 88.4393 264.119 88.5639C265.318 88.6885 266.526 88.4549 267.592 87.8926C268.658 87.3303 269.533 86.4646 270.107 85.405C270.681 84.3454 270.927 83.1394 270.816 81.9395C270.704 80.7397 270.24 79.5998 269.48 78.6641C268.721 77.7284 267.701 77.0389 266.55 76.6827V76.6827C265.785 76.4462 264.982 76.3626 264.185 76.4367C263.388 76.5108 262.614 76.7411 261.906 77.1145C261.198 77.4879 260.571 77.997 260.06 78.6129C259.549 79.2287 259.164 79.9392 258.928 80.7037V80.7037Z" fill="white"/>
<path opacity="0.1" d="M249.739 95.4357L248.997 97.8827C250.382 99.455 252.01 100.796 253.818 101.856C256.095 103.225 258.622 104.124 261.251 104.502C263.881 104.88 266.559 104.728 269.129 104.056L269.871 101.666C270.28 100.344 270.425 98.9543 270.297 97.5764C270.169 96.1986 269.771 94.8594 269.126 93.6353C268.481 92.4113 267.601 91.3263 266.536 90.4424C265.471 89.5585 264.243 88.8929 262.921 88.4837C261.599 88.0745 260.21 87.9297 258.832 88.0575C257.454 88.1853 256.115 88.5833 254.891 89.2286C253.667 89.874 252.582 90.7541 251.698 91.8188C250.814 92.8835 250.148 94.1118 249.739 95.4337V95.4357Z" fill="white"/>
<path opacity="0.1" d="M271.992 137.543C273.763 138.453 275.777 138.778 277.745 138.474C279.713 138.169 281.534 137.249 282.947 135.845C284.36 134.442 285.293 132.627 285.611 130.662C285.929 128.696 285.617 126.68 284.719 124.902C283.822 123.125 282.384 121.677 280.613 120.766C278.842 119.856 276.828 119.529 274.86 119.833C272.892 120.138 271.071 121.057 269.658 122.46C268.244 123.863 267.311 125.677 266.992 127.643C266.673 129.61 266.984 131.627 267.883 133.406C268.781 135.184 270.22 136.632 271.992 137.543Z" fill="#EBEBEB"/>
<path opacity="0.1" d="M273.395 128.297C273.439 128.863 273.65 129.403 274 129.85C274.351 130.296 274.827 130.628 275.367 130.805C275.907 130.981 276.486 130.993 277.033 130.839C277.58 130.686 278.069 130.374 278.438 129.943C278.807 129.511 279.041 128.98 279.108 128.416C279.176 127.853 279.074 127.281 278.817 126.775C278.56 126.269 278.159 125.85 277.664 125.572C277.169 125.294 276.602 125.169 276.036 125.213H276.029C275.654 125.241 275.288 125.344 274.953 125.514C274.617 125.684 274.319 125.918 274.074 126.203C273.829 126.489 273.643 126.82 273.526 127.177C273.409 127.535 273.364 127.912 273.393 128.287L273.395 128.297Z" fill="white"/>
<path opacity="0.1" d="M271.902 136.36L271.992 137.543C273.555 138.338 275.308 138.683 277.055 138.539C278.803 138.395 280.476 137.768 281.887 136.727L281.787 135.552C281.769 134.889 281.617 134.236 281.342 133.632C281.067 133.029 280.674 132.486 280.185 132.037C279.697 131.589 279.123 131.242 278.498 131.019C277.874 130.796 277.211 130.7 276.548 130.738C275.886 130.775 275.238 130.945 274.643 131.237C274.047 131.53 273.516 131.939 273.082 132.44C272.647 132.941 272.317 133.524 272.112 134.155C271.907 134.786 271.83 135.452 271.887 136.113C271.891 136.183 271.897 136.254 271.904 136.326L271.902 136.36Z" fill="white"/>
<path opacity="0.1" d="M20.685 309.463C22.6565 309.741 24.6654 309.388 26.4239 308.454C28.1825 307.521 29.6003 306.054 30.4744 304.265C31.3484 302.476 31.6337 300.457 31.2894 298.496C30.9452 296.535 29.989 294.733 28.5579 293.349C27.1268 291.965 25.2943 291.069 23.3229 290.79C21.3515 290.511 19.3424 290.864 17.5836 291.797C15.8248 292.73 14.4064 294.196 13.5319 295.984C12.6573 297.773 12.3714 299.793 12.715 301.754C13.0589 303.716 14.0153 305.519 15.4471 306.904C16.8789 308.288 18.7125 309.184 20.685 309.463Z" fill="#EBEBEB"/>
<path opacity="0.1" d="M18.947 300.32C19.1756 300.839 19.5531 301.279 20.0317 301.585C20.5104 301.89 21.0687 302.046 21.6362 302.034C22.2037 302.022 22.7549 301.842 23.2201 301.516C23.6853 301.191 24.0436 300.735 24.2498 300.206C24.456 299.678 24.5007 299.099 24.3785 298.545C24.2562 297.991 23.9724 297.485 23.5629 297.092C23.1533 296.699 22.6364 296.436 22.0776 296.337C21.5187 296.238 20.9429 296.306 20.423 296.534C20.0772 296.685 19.7648 296.903 19.5035 297.176C19.2421 297.448 19.037 297.769 18.8999 298.121C18.7629 298.472 18.6964 298.848 18.7045 299.225C18.7126 299.602 18.795 299.974 18.947 300.32Z" fill="white"/>
<path opacity="0.1" d="M20.212 308.379L20.685 309.463C22.4208 309.708 24.1907 309.465 25.7959 308.761C27.401 308.056 28.778 306.918 29.772 305.474L29.299 304.398C28.7711 303.193 27.7862 302.247 26.5608 301.768C25.3354 301.289 23.97 301.317 22.765 301.845C21.56 302.373 20.6141 303.358 20.1353 304.583C19.6565 305.808 19.6841 307.174 20.212 308.379Z" fill="white"/>
</g>
<path d="M265.001 585.614C261.701 586.69 167.376 585.452 163.825 583.124C162.455 582.269 161.836 568.508 161.556 551.874V551.358C161.556 547.925 161.438 544.389 161.438 540.809V539.336L166.005 490.405L229.105 491.039L222.873 539.513L222.799 541.428L222.416 551.462V552.493C222.416 552.493 258.307 569.113 261.947 572.093C265.587 575.073 268.318 584.568 265.001 585.614Z" fill="#D3766A"/>
<path d="M265.001 585.614C261.701 586.69 167.376 585.452 163.825 583.124C162.455 582.269 161.836 568.508 161.556 551.874V551.358C161.556 547.925 161.438 544.389 161.438 540.809V539.336L222.877 539.513L222.803 541.428L222.42 551.462V552.493C222.42 552.493 258.311 569.113 261.951 572.093C265.591 575.073 268.318 584.568 265.001 585.614Z" fill="#EBEBEB"/>
<path d="M265.016 585.609C263.307 586.154 237.685 586.095 212.638 585.609C207.599 585.509 202.604 585.388 197.904 585.255C180.032 584.769 165.269 584.032 163.899 583.133C162.529 582.234 161.925 568.915 161.66 552.575V551.352L222.437 551.47V552.509C222.437 552.509 258.343 569.109 261.967 572.09C265.591 575.071 268.316 584.553 265.016 585.609Z" fill="#FFC727"/>
<path d="M263.985 581.945C248.085 581.345 183.937 580.472 168.216 581.061C168.083 581.061 168.083 581.149 168.216 581.161C183.952 582.089 248.132 582.472 263.985 582.207C264.324 582.196 264.324 581.96 263.985 581.945Z" fill="#263238"/>
<path d="M229.183 551.727C222.936 550.475 215.274 551.344 210.442 555.735C210.251 555.897 210.442 556.162 210.693 556.103C216.698 554.257 222.881 553.05 229.14 552.503C229.244 552.488 229.339 552.434 229.403 552.351C229.467 552.267 229.496 552.162 229.483 552.058C229.472 551.979 229.437 551.905 229.384 551.846C229.33 551.787 229.26 551.746 229.183 551.727V551.727Z" fill="#263238"/>
<path d="M233.662 554.511C227.415 553.259 219.753 554.111 214.921 558.519C214.729 558.681 214.921 558.946 215.171 558.887C221.179 557.033 227.368 555.826 233.632 555.287C233.736 555.27 233.829 555.214 233.891 555.129C233.953 555.044 233.98 554.939 233.965 554.835C233.952 554.757 233.916 554.684 233.863 554.627C233.809 554.569 233.739 554.529 233.662 554.511Z" fill="#263238"/>
<path d="M238.171 557.281C231.924 556.029 224.262 556.898 219.43 561.289C219.238 561.466 219.43 561.731 219.695 561.672C225.706 559.809 231.901 558.602 238.171 558.072C238.277 558.072 238.379 558.03 238.454 557.955C238.529 557.88 238.571 557.778 238.571 557.672C238.569 557.567 238.526 557.468 238.451 557.395C238.376 557.322 238.276 557.281 238.171 557.281V557.281Z" fill="#263238"/>
<path d="M212.638 585.599C207.599 585.499 202.604 585.378 197.904 585.245C180.032 584.759 165.269 584.022 163.899 583.123C162.529 582.224 161.925 568.905 161.66 552.565V551.342C169.954 557.178 199.289 576.714 212.638 585.599Z" fill="#263238"/>
<path d="M226.546 551.668H158.609C158.609 551.668 172.282 393.016 171.752 390.246C171.074 386.695 167.067 370.635 161.718 349.669C160.053 343.098 158.241 336.055 156.37 328.762C151.302 309.019 145.718 287.508 140.855 268.678C133.562 240.551 127.855 218.716 127.855 218.716H185.42C185.42 218.716 192.139 239.977 200.596 267.647C214.372 312.629 232.774 374.525 234.601 389.568C237.552 413.864 226.546 551.668 226.546 551.668Z" fill="#37474F"/>
<path d="M223.54 540.101C213.226 539.88 216.173 539.792 205.771 539.701C200.688 539.701 167.331 539.362 162.587 540.143C162.561 540.143 162.535 540.153 162.516 540.172C162.498 540.191 162.487 540.216 162.487 540.243C162.487 540.269 162.498 540.295 162.516 540.313C162.535 540.332 162.561 540.343 162.587 540.343C167.331 541.124 200.687 540.843 205.771 540.785C216.085 540.697 213.138 540.608 223.54 540.385C223.579 540.385 223.616 540.369 223.644 540.342C223.672 540.314 223.687 540.277 223.687 540.238C223.684 540.201 223.668 540.166 223.64 540.14C223.613 540.115 223.577 540.101 223.54 540.101V540.101Z" fill="#263238"/>
<path d="M184.54 380.55C182.315 370.737 178.985 361.116 176.098 351.466C170.205 331.88 164.282 312.309 158.329 292.752C155.382 282.93 152.396 273.152 149.371 263.417C147.898 258.481 146.336 253.545 144.789 248.61C143.242 243.675 141.548 239.018 140.189 234.156C139.629 232.167 139.334 233.256 140.042 235.777C141.515 240.845 142.886 245.914 144.359 250.967C147.306 260.977 150.252 270.981 153.199 280.979C159.092 300.87 164.986 320.76 171.012 340.636C173.959 350.596 176.955 360.561 180 370.531C181.528 375.267 182.758 380.095 183.683 384.985C184.475 390.101 184.673 395.293 184.272 400.455C183.624 410.769 182.43 421.23 181.458 431.587L178.585 462.764C176.621 483.391 174.721 504.072 172.885 524.808C172.649 527.431 172.428 530.039 172.222 532.676C172.148 533.545 172.782 533.648 172.87 532.809C175.11 512.359 177.526 491.672 179.441 471.193C181.356 450.714 183.272 430.44 185.172 410.063C185.643 404.95 186.189 399.823 186.203 394.681C186.182 389.923 185.624 385.183 184.54 380.55V380.55Z" fill="#263238"/>
<path d="M178.912 218.716C174.904 249.657 167.287 307.604 161.733 349.669C148.753 298.705 127.845 218.716 127.845 218.716H178.912Z" fill="#263238"/>
<path d="M193.045 586.527C189.745 587.603 95.42 586.719 91.854 584.405C90.484 583.551 89.806 569.805 89.482 553.155V552.642C89.482 549.209 89.349 545.688 89.335 542.107V540.632C89.114 516.632 90.808 491.701 90.808 491.701L152.454 492.113L150.745 540.587V542.502L150.406 552.536V553.567C150.406 553.567 186.356 570.054 190.006 573.015C193.656 575.976 196.357 585.451 193.045 586.527Z" fill="#D3766A"/>
<path d="M193.041 586.527C189.741 587.603 95.416 586.719 91.85 584.405C90.48 583.55 89.8021 569.805 89.4781 553.155V552.639C89.4781 549.206 89.3451 545.685 89.3311 542.104V540.631H150.785V542.546L150.446 552.58V553.611C150.446 553.611 186.396 570.098 190.046 573.06C193.696 576.022 196.357 585.452 193.041 586.527Z" fill="#EBEBEB"/>
<path d="M193.042 586.527C189.742 587.603 95.417 586.719 91.851 584.405C90.481 583.55 89.803 569.805 89.479 553.155V552.639L150.344 552.521V553.552C150.344 553.552 186.294 570.039 189.944 573C193.594 575.961 196.357 585.452 193.042 586.527Z" fill="#FFC727"/>
<path d="M192.011 582.83C176.111 582.285 111.948 581.622 96.242 582.3C96.109 582.3 96.109 582.388 96.242 582.388C111.992 583.272 176.158 583.419 192.011 583.081C192.35 583.11 192.35 582.83 192.011 582.83Z" fill="#263238"/>
<path d="M157.135 552.757C150.903 551.534 143.241 552.433 138.408 556.838C138.231 557.015 138.408 557.28 138.673 557.206C144.679 555.332 150.868 554.107 157.134 553.552C157.24 553.552 157.342 553.51 157.417 553.435C157.492 553.36 157.534 553.258 157.534 553.152C157.534 553.046 157.492 552.944 157.417 552.869C157.342 552.794 157.24 552.752 157.134 552.752L157.135 552.757Z" fill="#263238"/>
<path d="M161.556 555.528C155.309 554.305 147.647 555.189 142.829 559.609C142.637 559.771 142.829 560.036 143.094 559.977C149.099 558.098 155.288 556.868 161.555 556.308C161.658 556.287 161.749 556.226 161.808 556.139C161.866 556.052 161.888 555.945 161.869 555.842C161.854 555.764 161.816 555.693 161.76 555.637C161.704 555.582 161.633 555.543 161.556 555.528V555.528Z" fill="#263238"/>
<path d="M166.079 558.297C159.832 557.059 152.17 557.958 147.352 562.364C147.16 562.541 147.352 562.806 147.617 562.732C153.613 560.86 159.792 559.635 166.049 559.078C166.153 559.061 166.246 559.005 166.308 558.92C166.37 558.835 166.397 558.73 166.382 558.626C166.37 558.547 166.335 558.474 166.281 558.415C166.227 558.356 166.157 558.315 166.079 558.297V558.297Z" fill="#263238"/>
<path d="M183.656 218.716C183.656 218.716 182.33 246.253 176.024 268.074C175.524 269.874 174.963 271.654 174.374 273.349C168.598 275.687 163.046 278.542 157.784 281.88C157.784 281.88 157.121 303.98 156.458 328.763C155.721 356.389 154.985 387.212 155.117 393.739C155.692 418.197 152.052 552.671 152.052 552.671L84.144 552.951C84.144 552.951 96.417 402.77 96.329 393.827C96.211 379.432 99.629 315.738 102.222 269.371C103.843 240.771 105.169 218.731 105.169 218.731L183.656 218.716Z" fill="#37474F"/>
<path d="M149.651 540.587C139.337 540.41 142.284 540.322 131.882 540.263C126.814 540.263 93.442 540.086 88.698 540.896C88.6715 540.896 88.6461 540.906 88.6273 540.925C88.6086 540.944 88.598 540.969 88.598 540.996C88.598 541.022 88.6086 541.048 88.6273 541.066C88.6461 541.085 88.6715 541.096 88.698 541.096C93.457 541.862 126.814 541.435 131.898 541.361C142.212 541.214 139.265 541.14 149.667 540.875C149.686 540.874 149.706 540.869 149.723 540.861C149.741 540.853 149.757 540.841 149.77 540.827C149.783 540.812 149.793 540.795 149.799 540.777C149.806 540.759 149.808 540.739 149.807 540.72C149.803 540.682 149.785 540.647 149.756 540.622C149.727 540.597 149.689 540.585 149.651 540.587V540.587Z" fill="#263238"/>
<path d="M110.843 228.558C109.591 266.438 108.265 304.333 106.57 342.214C104.875 380.095 95.9431 516.248 93.6631 537.376C93.6631 537.523 93.869 537.568 93.884 537.376C98.835 499.79 101.59 444.156 104.021 406.335C106.452 368.514 108.102 330.635 109.384 292.768C110.121 271.345 110.684 249.908 111.314 228.485C111.329 228.217 110.857 228.248 110.843 228.558Z" fill="#263238"/>
<path d="M177.13 271.712C170.373 274.528 163.876 277.93 157.711 281.878C157.475 282.025 157.711 282.408 157.917 282.278C164.473 279.096 171.177 276.031 177.528 272.495C177.576 272.462 177.617 272.42 177.648 272.371C177.68 272.323 177.701 272.268 177.712 272.211C177.722 272.154 177.722 272.096 177.709 272.039C177.697 271.982 177.674 271.928 177.641 271.881C177.586 271.8 177.507 271.74 177.414 271.709C177.322 271.679 177.222 271.68 177.13 271.712Z" fill="#263238"/>
<path d="M177.513 248.375C177.056 250.791 176.482 253.175 175.951 255.575C175.42 257.975 175.111 260.113 174.478 262.338C173.998 264.498 172.903 266.473 171.325 268.025C170.441 268.835 169.469 269.572 168.525 270.325C168.025 270.725 167.479 271.125 166.949 271.518L167.126 270.56C167.288 269.632 167.435 268.718 167.597 267.805C167.93 265.771 168.254 263.738 168.569 261.705C169.188 257.697 169.748 253.646 170.587 249.682C170.575 249.649 170.551 249.622 170.519 249.606C170.488 249.591 170.451 249.589 170.418 249.601C170.399 249.607 170.382 249.618 170.368 249.632C170.354 249.646 170.343 249.663 170.337 249.682C169.337 253.601 168.23 257.491 167.39 261.469C166.963 263.414 165.445 273.005 165.39 273.683C165.335 274.361 165.257 275.156 165.228 275.805C165.14 276.519 165.14 277.241 165.228 277.956C165.237 277.977 165.251 277.996 165.267 278.013C165.284 278.029 165.304 278.041 165.326 278.05C165.347 278.058 165.37 278.062 165.394 278.062C165.417 278.061 165.44 278.056 165.461 278.047C165.502 278.029 165.535 277.997 165.552 277.956V277.956C165.85 277.295 166.052 276.596 166.152 275.879C166.329 275.186 166.491 274.494 166.609 273.802C166.634 273.544 166.673 273.289 166.727 273.036C167.67 272.461 168.554 271.695 169.438 271.062C170.322 270.429 171.353 269.692 172.252 268.94C173.923 267.541 175.127 265.664 175.7 263.562C176.291 261.298 176.671 258.985 176.834 256.652C177.143 253.926 177.364 251.186 177.747 248.475C177.763 248.242 177.542 248.183 177.513 248.375Z" fill="#263238"/>
<path d="M146.366 145.061C157.181 159.795 190.935 184.488 205.05 183.943C215.25 183.56 246.967 150.91 255.498 140.213C263.734 129.899 230.23 110.186 225.206 116.113C217.088 125.69 201.735 147.923 200.07 148.262C197.315 148.792 180.43 143.65 154.764 133.72C139.075 127.646 139.898 136.309 146.366 145.061Z" fill="#D3766A"/>
<path d="M262.644 126.659C260.434 134.159 249.929 147.699 246.144 149.997C242.359 152.295 218.725 135.263 218.577 130.652C218.429 126.041 227.815 101.479 234.342 96.9267C240.869 92.3747 264.928 118.909 262.644 126.659Z" fill="#D3766A"/>
<path d="M228.933 106.769C231.364 110.114 236.3 115.757 236.609 115.447C236.373 115.786 232.189 121.886 235.283 125.319C238.377 128.752 242.561 123.61 242.812 123.271C242.694 123.671 241.073 128.988 244.005 131.065C249.044 134.645 253.552 121.179 258.12 119.131C258.12 119.131 262.54 126.498 262.643 126.66C262.746 126.822 267.181 113.93 264.116 107.919C263.676 107.037 262.949 106.333 262.054 105.92C261.159 105.508 260.151 105.412 259.195 105.65C259.195 105.65 261.125 101.716 258.782 98.9167C257.574 97.4437 254.229 98.1507 254.229 98.1507C254.229 98.1507 263.467 76.4507 257.058 74.9747C250.649 73.4987 242.59 97.4287 242.59 97.4287C242.59 97.4287 249.058 73.3537 242.59 71.9537C235.784 70.4787 227.71 105.089 228.933 106.769Z" fill="#D3766A"/>
<path d="M254.26 98.0907C254.334 98.0907 254.26 97.9287 254.172 97.9577C246.314 101.466 239.973 107.675 236.3 115.458C236.167 115.738 236.3 116.106 236.506 115.797C239.247 110.6 248.22 101.907 254.26 98.0907Z" fill="#263238"/>
<path d="M242.768 123.919C246.437 116.346 252.153 110.659 258.868 105.767C258.956 105.767 258.868 105.59 258.768 105.62C254.834 107.093 250.868 110.733 248.042 113.797C245.352 116.584 243.442 120.028 242.502 123.786C242.461 123.934 242.694 124.081 242.768 123.919Z" fill="#263238"/>
<path d="M258.121 119.134C257.154 119.795 256.328 120.641 255.69 121.624C254.998 122.552 254.334 123.539 253.69 124.571C252.418 126.582 250.964 128.471 249.344 130.214C248.483 131.172 247.362 131.858 246.117 132.188C245.416 132.294 244.7 132.193 244.056 131.897C243.412 131.601 242.868 131.123 242.492 130.523C241.834 129.389 241.522 128.089 241.592 126.781C241.58 126.411 241.605 126.041 241.666 125.676C241.063 126.281 240.36 126.778 239.588 127.145C238.723 127.552 237.744 127.645 236.818 127.41C235.927 127.158 235.131 126.645 234.534 125.937C233.985 125.238 233.597 124.427 233.398 123.561C233.2 122.695 233.195 121.796 233.385 120.928C234.218 117.971 235.675 115.228 237.658 112.883V114.121C236.257 116.249 235.258 118.616 234.711 121.105C234.57 121.789 234.578 122.496 234.733 123.177C234.888 123.858 235.188 124.498 235.611 125.054C236.004 125.569 236.563 125.934 237.193 126.087C237.823 126.24 238.487 126.172 239.073 125.894C240.373 125.236 241.487 124.264 242.314 123.065L244.686 119.824L243.505 123.634C243.172 124.7 242.979 125.804 242.93 126.92C242.846 127.945 243.072 128.971 243.578 129.867C243.819 130.276 244.171 130.609 244.594 130.825C245.016 131.042 245.492 131.134 245.965 131.09C247.015 130.847 247.972 130.304 248.72 129.528C250.366 127.884 251.884 126.116 253.258 124.239C253.98 123.326 254.731 122.397 255.483 121.499C256.183 120.531 257.083 119.724 258.121 119.134V119.134Z" fill="#263238"/>
<path d="M219.445 126.173C219.445 126.173 215.545 93.3017 229.14 98.0727C233.177 99.5457 248.088 110.14 246.01 113.173C243.31 117.073 236.271 113.807 232.175 111.037C232.175 111.037 235.122 122.043 228.02 126.345C226.714 127.111 225.222 127.501 223.708 127.471C222.194 127.441 220.719 126.991 219.445 126.173V126.173Z" fill="#D3766A"/>
<path d="M227.99 97.7367C229.635 98.1121 231.218 98.7224 232.69 99.5487C234.188 100.338 235.63 101.229 237.007 102.216C239.798 104.14 242.416 106.304 244.831 108.684C245.469 109.322 246.014 110.046 246.452 110.835C246.704 111.287 246.85 111.791 246.879 112.308C246.898 112.596 246.868 112.885 246.791 113.163C246.713 113.43 246.594 113.683 246.437 113.914C245.844 114.74 244.977 115.33 243.991 115.579C243.083 115.789 242.146 115.839 241.221 115.726C239.483 115.481 237.799 114.943 236.241 114.135C234.707 113.373 233.23 112.502 231.821 111.527L232.721 110.879C233.006 112.147 233.168 113.439 233.207 114.739C233.254 116.025 233.175 117.313 232.971 118.585C232.748 119.855 232.341 121.086 231.763 122.239C231.183 123.357 230.399 124.357 229.45 125.186C230.271 124.241 230.928 123.165 231.395 122.004C231.836 120.854 232.118 119.65 232.235 118.424C232.474 115.979 232.254 113.51 231.587 111.146L231.174 109.673L232.485 110.473C233.867 111.364 235.309 112.156 236.802 112.845C238.235 113.58 239.777 114.077 241.369 114.318C242.067 114.468 242.791 114.435 243.472 114.224C244.154 114.012 244.769 113.628 245.259 113.11C245.966 112.226 244.905 110.723 243.786 109.574C242.656 108.366 241.466 107.215 240.22 106.126C238.968 105.021 237.72 103.916 236.404 102.899C233.881 100.756 231.043 99.015 227.99 97.7367V97.7367Z" fill="#263238"/>
<path d="M191.613 145.872L183.657 181.012C183.657 181.012 163.413 164.712 150.344 151.338C137.275 137.964 134.166 126.409 152.716 131.978C171.266 137.547 191.613 145.872 191.613 145.872Z" fill="#FFC727"/>
<path opacity="0.1" d="M168.318 137.179L162.145 162.668L163.309 163.714L169.615 137.635L168.318 137.179ZM174.86 139.507L167.994 167.869L169.158 168.886L176.142 139.978L174.86 139.507ZM181.372 141.923L173.858 172.864L175.022 173.851L182.654 142.351L181.372 141.923ZM187.872 144.398L179.772 177.873L180.936 178.845L189.157 144.958L187.872 144.398Z" fill="#030402"/>
<path d="M184.246 145.357C183.465 147.832 182.964 150.411 182.404 152.93C181.844 155.449 181.328 157.91 180.827 160.4C179.781 165.439 178.705 170.478 178.057 175.59C178.057 175.616 178.068 175.642 178.086 175.66C178.105 175.679 178.131 175.69 178.157 175.69C178.17 175.69 178.183 175.687 178.195 175.682C178.207 175.677 178.218 175.67 178.228 175.66C178.237 175.651 178.244 175.64 178.249 175.628C178.254 175.616 178.257 175.603 178.257 175.59C179.73 170.625 180.673 165.59 181.69 160.532C182.21 158.048 182.701 155.553 183.163 153.047C183.649 150.498 184.194 147.934 184.463 145.356C184.458 145.341 184.449 145.328 184.439 145.317C184.428 145.305 184.415 145.296 184.401 145.29C184.387 145.283 184.372 145.28 184.356 145.279C184.341 145.279 184.326 145.281 184.311 145.287C184.296 145.293 184.282 145.303 184.271 145.315C184.26 145.327 184.251 145.341 184.246 145.357V145.357Z" fill="#263238"/>
<path opacity="0.1" d="M187.178 165.306L183.657 181.012C183.657 181.012 163.397 164.729 150.331 151.353C139.931 140.701 135.892 131.212 143.995 130.608L187.178 165.306Z" fill="black"/>
<path d="M98.054 259.631C98.304 259.881 197.816 253.06 198.654 251.984C199.818 250.511 168.317 149.334 160.42 134.468C157.061 128.133 140.971 127.234 134.607 133.216C118.68 148.185 107.6 196.616 105.272 211.143C101.399 235.114 97.17 258.762 98.054 259.631Z" fill="#FFC727"/>
<path opacity="0.1" d="M160.554 134.674L131.411 136.737C131.824 136.237 132.221 135.75 132.634 135.264L159.67 133.349C159.966 133.687 160.223 134.058 160.436 134.454C160.468 134.531 160.508 134.604 160.554 134.674V134.674ZM162.941 140.052L127.462 142.552C127.167 143.023 126.887 143.51 126.622 144.025L163.456 141.417C163.295 140.921 163.118 140.479 162.941 140.052V140.052ZM165.549 146.771L123.602 149.718L122.939 151.191L166.05 148.185C165.888 147.669 165.711 147.213 165.55 146.712L165.549 146.771ZM168.01 153.519L120.435 156.878L119.86 158.351L168.481 154.903C168.334 154.402 168.172 153.96 168.01 153.518V153.519ZM170.397 160.267L117.709 163.995C117.532 164.466 117.37 164.938 117.209 165.468L170.869 161.668C170.691 161.15 170.544 160.709 170.396 160.266L170.397 160.267ZM172.71 167.015L115.249 171.081C115.087 171.538 114.94 172.009 114.792 172.554L173.137 168.414C173.004 167.914 172.857 167.456 172.695 167.014L172.71 167.015ZM174.979 173.778L113.097 178.198C112.95 178.669 112.817 179.126 112.684 179.598L175.45 175.178C175.273 174.707 175.126 174.22 174.964 173.778H174.979ZM177.219 180.526L111.093 185.209C110.96 185.68 110.828 186.152 110.71 186.682L177.675 181.952C177.541 181.492 177.384 181.04 177.204 180.597L177.219 180.526ZM179.429 187.289L109.252 192.254C109.134 192.725 109.031 193.197 108.913 193.727L179.856 188.703L179.429 187.289ZM181.629 194.052L107.622 199.282C107.522 199.753 107.416 200.225 107.327 200.682L182.042 195.334C181.895 194.951 181.747 194.494 181.615 194.052H181.629ZM183.795 200.815L106.154 206.309C106.054 206.795 105.963 207.252 105.889 207.694L184.199 202.154C184.037 201.712 183.904 201.226 183.772 200.813L183.795 200.815ZM185.917 207.593L104.882 213.324L104.661 214.694L186.286 208.918C186.186 208.476 186.05 208.034 185.903 207.592L185.917 207.593ZM188.039 214.356L103.777 220.382L103.556 221.752L188.422 215.741C188.286 215.285 188.173 214.823 188.083 214.356H188.039ZM190.116 221.119L102.627 227.307C102.591 227.775 102.512 228.238 102.391 228.692L190.513 222.46C190.38 222.018 190.233 221.576 190.1 221.119H190.116ZM192.164 227.897L101.478 234.306L101.257 235.691L192.503 229.223C192.455 228.765 192.335 228.318 192.149 227.897H192.164ZM194.183 234.66L100.329 241.305L100.108 242.69L194.566 236.001L194.183 234.66ZM196.143 241.437L99.225 248.377C99.1947 248.838 99.1257 249.297 99.019 249.747L196.512 242.847C196.379 242.347 196.262 241.904 196.129 241.433L196.143 241.437ZM197.97 248.229L98.208 255.286C98.1856 255.745 98.1366 256.202 98.061 256.656L198.25 249.569C198.183 249.115 198.085 248.667 197.955 248.228L197.97 248.229Z" fill="#030402"/>
<path d="M119.123 145.548C105.73 158.411 69.971 204.409 75.023 219.348C79.443 232.608 106.863 255.593 118.767 266.348C123.099 270.267 154.526 235.614 150.474 232.648C144.418 228.228 117.544 203.696 117.174 201.707C116.804 199.718 125.189 177.264 135.296 150.007C144.819 124.331 127.492 137.489 119.123 145.548Z" fill="#D3766A"/>
<path d="M147.397 230.429C147.397 230.429 161.821 240.816 170.971 248.109C176.054 252.146 184.143 259.896 186.515 264.522C190.08 271.506 200.482 303.022 192.895 305.776C186.029 308.208 180.536 280.008 180.536 280.008C180.536 280.008 188.595 308.002 179.785 309.387C170.975 310.772 168.926 277.96 168.926 277.96C168.926 277.96 176.558 306.882 167.246 306.897C160.218 306.897 156.756 277.43 156.756 277.43C156.756 277.43 163.15 302.345 155.916 302.669C147.93 303.023 143.024 275.986 143.024 275.986C124.489 273.717 116.091 265.776 111.715 258.217C110.736 256.434 147.397 230.429 147.397 230.429Z" fill="#D3766A"/>
<path d="M178.647 271.359C186.161 291.5 183.671 303.685 183.671 303.346C183.671 295.39 181.107 283.411 180.326 280.067C179.545 276.723 179.295 274.704 178.526 271.374C178.5 271.3 178.618 271.27 178.647 271.359Z" fill="#263238"/>
<path d="M166.223 272.597C169.625 280.612 171.576 289.167 171.984 297.865C171.984 298.189 171.837 298.115 171.778 297.777C170.909 293.519 167.178 276.826 166.12 272.612C166.109 272.553 166.197 272.536 166.223 272.597Z" fill="#263238"/>
<path d="M155.442 272.934C157.944 279.183 159.263 285.843 159.332 292.574C159.332 292.898 159.126 292.766 159.067 292.427C157.903 285.856 157.034 280.64 155.221 272.949C155.191 272.891 155.398 272.803 155.442 272.934Z" fill="#263238"/>
<path d="M123.101 185.889L88.0941 177.289C88.0941 177.289 104.714 157.31 118.313 144.462C131.912 131.614 143.508 128.785 137.585 147.173C131.662 165.561 123.101 185.889 123.101 185.889Z" fill="#FFC727"/>
<path opacity="0.1" d="M132.354 162.241L106.688 156.259L105.612 157.408L131.867 163.537C132.053 163.114 132.216 162.681 132.354 162.241V162.241ZM129.923 168.812L101.323 162.152L100.292 163.301L129.421 170.108C129.564 169.667 129.732 169.234 129.923 168.812V168.812ZM127.389 175.324L96.109 168.031L95.092 169.165L126.892 176.532L127.389 175.324ZM124.811 181.792L91.011 173.909C90.643 174.322 90.304 174.719 90.011 175.073L124.282 183.059C124.429 182.632 124.621 182.19 124.812 181.733L124.811 181.792Z" fill="#030402"/>
<path d="M124.044 179.288C121.613 178.388 119.064 177.815 116.559 177.078C114.054 176.341 111.638 175.767 109.192 175.148C104.197 173.866 99.232 172.555 94.149 171.656C94.1225 171.656 94.0971 171.666 94.0783 171.685C94.0596 171.704 94.049 171.729 94.049 171.756C94.049 171.782 94.0596 171.808 94.0783 171.826C94.0971 171.845 94.1225 171.856 94.149 171.856C99.026 173.506 104.021 174.803 109.015 176.011C111.476 176.63 113.951 177.249 116.382 177.838C118.813 178.427 121.45 179.105 124.014 179.488C124.028 179.49 124.042 179.49 124.055 179.487C124.069 179.484 124.081 179.478 124.092 179.47C124.103 179.461 124.113 179.451 124.12 179.439C124.126 179.427 124.131 179.413 124.132 179.4C124.134 179.387 124.133 179.373 124.129 179.36C124.126 179.348 124.12 179.336 124.111 179.325C124.103 179.315 124.093 179.306 124.082 179.3C124.07 179.293 124.057 179.289 124.044 179.288V179.288Z" fill="#263238"/>
<path d="M133.562 159.015C132.973 161.358 132.262 163.656 131.514 165.94C130.766 168.224 130.041 170.493 129.127 172.747C128.213 175.001 127.388 177.241 126.427 179.436C125.469 181.651 124.397 183.815 123.215 185.919V185.919L122.301 185.669L123.259 185.757H123.159C124.043 183.517 124.883 181.337 125.678 179.009L128.212 172.276C129.067 170.036 129.921 167.856 130.835 165.576C131.749 163.296 132.515 161.21 133.562 159.015Z" fill="#263238"/>
<path d="M133.415 163.906C133.173 164.998 132.723 166.034 132.089 166.956C131.478 167.901 130.663 168.697 129.702 169.284C129.982 168.798 130.291 168.356 130.586 167.899L131.47 166.544C132.089 165.659 132.678 164.775 133.415 163.906Z" fill="#263238"/>
<path d="M157.298 147.804C152.318 149.027 142.564 140.835 139.146 134.676C138.91 134.249 139.529 129.77 140.015 124.362C140.295 121.047 140.545 117.334 140.515 113.931C140.515 113.239 142.887 114.506 142.887 114.506L147.307 115.537L161.879 118.955C160.691 123.209 160.033 127.593 159.919 132.009C159.924 132.503 159.974 132.996 160.066 133.482V133.703C160.539 136.222 162.115 146.624 157.298 147.804Z" fill="#D3766A"/>
<path d="M160.082 133.348V133.569C159.354 133.677 158.618 133.721 157.882 133.702C143.531 133.496 141.675 115.27 141.675 115.27L147.347 115.476L161.919 118.894C160.731 123.148 160.073 127.532 159.959 131.948C159.961 132.417 160.002 132.885 160.082 133.348Z" fill="#263238"/>
<path d="M136.759 91.2837C134.917 98.9597 140.207 120.501 145.864 125.039C154.071 131.61 166.845 131.522 172.264 121.812C177.509 112.397 170.113 84.4467 163.851 80.3957C154.645 74.4117 139.455 79.9387 136.759 91.2837Z" fill="#D3766A"/>
<path d="M155.986 104.353C155.986 104.353 155.898 104.453 155.986 104.515C156.386 105.988 156.586 107.668 155.397 108.464V108.552C156.9 107.933 156.605 105.65 155.986 104.353Z" fill="#263238"/>
<path d="M154.336 103.144C151.949 103.527 152.863 108.271 155.102 107.903C157.341 107.535 156.325 102.82 154.336 103.144Z" fill="#263238"/>
<path d="M164.577 102.511C164.577 102.511 164.695 102.511 164.71 102.611C164.96 104.084 165.491 105.735 166.91 105.956V106.044C165.254 106.15 164.503 103.984 164.577 102.511Z" fill="#263238"/>
<path d="M165.578 100.728C167.891 100.08 169.026 104.78 166.878 105.384C164.73 105.988 163.634 101.273 165.578 100.728Z" fill="#263238"/>
<path d="M152.038 101.361C152.638 101.066 153.158 100.698 153.732 100.344C154.306 99.9897 154.94 99.7097 155.205 98.9877C155.28 98.7735 155.28 98.5401 155.205 98.3258C155.13 98.1115 154.985 97.9292 154.792 97.8087C154.384 97.6183 153.934 97.5399 153.486 97.5814C153.038 97.6228 152.609 97.7828 152.243 98.0447C151.421 98.4664 150.785 99.1795 150.46 100.045C150.411 100.18 150.389 100.323 150.395 100.466C150.401 100.61 150.436 100.75 150.496 100.88C150.557 101.011 150.643 101.127 150.749 101.224C150.855 101.321 150.979 101.396 151.114 101.445C151.265 101.499 151.426 101.519 151.585 101.505C151.745 101.49 151.899 101.441 152.038 101.361V101.361Z" fill="#263238"/>
<path d="M166.919 97.9867C166.259 97.9843 165.6 97.9449 164.945 97.8687C164.245 97.9306 163.544 97.7545 162.956 97.3687C162.791 97.216 162.683 97.0124 162.648 96.7905C162.613 96.5687 162.654 96.3415 162.764 96.1457C163.038 95.7854 163.405 95.5061 163.825 95.3374C164.246 95.1688 164.704 95.117 165.151 95.1877C166.072 95.1861 166.961 95.5216 167.651 96.1307C167.752 96.2326 167.831 96.3534 167.886 96.4861C167.94 96.6188 167.967 96.7608 167.966 96.9041C167.965 97.0474 167.936 97.1891 167.881 97.3212C167.825 97.4532 167.744 97.573 167.642 97.6737C167.449 97.8652 167.191 97.977 166.919 97.9867V97.9867Z" fill="#263238"/>
<path d="M157.755 117.525C158.157 117.897 158.681 118.11 159.228 118.125C159.763 118.01 160.266 117.778 160.701 117.447L157.755 117.525ZM160.789 117.447C160.637 117.778 160.398 118.062 160.097 118.267C159.795 118.472 159.444 118.591 159.08 118.611C158.755 118.61 158.437 118.507 158.173 118.317C157.909 118.126 157.711 117.858 157.607 117.55C157.592 117.535 157.695 117.476 157.754 117.521L160.789 117.447Z" fill="#263238"/>
<path d="M158.418 112.824C158.906 113.329 159.493 113.728 160.142 113.997C160.791 114.266 161.488 114.398 162.19 114.386C162.804 114.381 163.415 114.287 164.002 114.106C164.12 114.082 164.234 114.042 164.341 113.988L164.65 113.888C164.725 113.857 164.788 113.803 164.83 113.735C164.873 113.666 164.892 113.585 164.886 113.505V113.505C164.901 113.457 164.901 113.406 164.886 113.358V113.358V113.225C164.694 112.09 164.238 110.396 164.238 110.396C164.695 110.529 166.993 111.059 166.831 110.396C165.692 105.327 164.033 100.39 161.881 95.6617C161.869 95.6288 161.845 95.6019 161.813 95.5868C161.781 95.5716 161.745 95.5695 161.712 95.5807C161.696 95.5864 161.68 95.5954 161.667 95.607C161.654 95.6186 161.644 95.6326 161.636 95.6484C161.629 95.6641 161.624 95.6811 161.624 95.6985C161.623 95.7159 161.625 95.7333 161.631 95.7497V95.7497C162.662 100.435 164.578 104.9 165.624 109.6C164.808 109.393 163.965 109.309 163.124 109.35C162.977 109.35 164.067 112.606 164.111 113.122C163.206 113.401 162.254 113.494 161.312 113.395C160.37 113.296 159.457 113.008 158.63 112.547C158.403 112.603 158.3 112.721 158.418 112.824Z" fill="#263238"/>
<path d="M163.221 113.664C162.766 114.595 162.077 115.392 161.221 115.977C160.746 116.275 160.191 116.424 159.63 116.404C158.392 116.33 158.157 115.255 158.157 114.297C158.177 113.798 158.256 113.304 158.393 112.824C159.87 113.617 161.563 113.912 163.221 113.664Z" fill="#263238"/>
<path d="M161.218 115.975C160.743 116.273 160.188 116.422 159.627 116.402C158.389 116.328 158.154 115.253 158.154 114.295C158.78 114.183 159.425 114.289 159.982 114.595C160.539 114.9 160.976 115.387 161.218 115.975V115.975Z" fill="#FF98B9"/>
<path d="M138.822 110.055C138.822 110.055 131.102 97.8997 131.647 90.7687C131.897 87.5417 136.247 85.2877 136.247 85.2877C135.879 83.9829 135.883 82.6008 136.261 81.2986C136.639 79.9964 137.374 78.8261 138.383 77.9207C142.111 74.2517 151.349 74.8557 151.349 74.8557C151.349 74.8557 157.139 66.1037 165.655 69.3457C174.171 72.5877 168.867 82.2967 168.867 82.2967C168.867 82.2967 172.067 86.6287 164.567 90.2237C157.067 93.8187 142.113 90.7537 142.113 90.7537C142.926 95.9256 142.959 101.19 142.213 106.372C142.046 107.24 141.64 108.045 141.041 108.695C140.442 109.346 139.674 109.817 138.822 110.055V110.055Z" fill="#263238"/>
<path d="M152.804 74.9577C150.924 74.2467 148.92 73.9209 146.911 73.9997C145.092 74.009 143.289 74.3279 141.577 74.9427C140.034 75.412 138.649 76.2942 137.571 77.494C136.494 78.6938 135.765 80.1654 135.463 81.7497C135.354 82.571 135.41 83.4058 135.628 84.2052C135.845 85.0047 136.22 85.7527 136.73 86.4057C136.73 86.4057 136.863 86.4057 136.818 86.3177C134.818 83.9457 135.757 80.1587 137.732 78.0967C140.155 75.896 143.299 74.659 146.572 74.6197C148.668 74.5414 150.765 74.7146 152.819 75.1357C152.831 75.1349 152.843 75.1316 152.854 75.126C152.864 75.1204 152.874 75.1127 152.881 75.1033C152.889 75.0939 152.894 75.0831 152.898 75.0715C152.901 75.0598 152.902 75.0477 152.9 75.0357C152.899 75.0238 152.895 75.0122 152.89 75.0016C152.884 74.991 152.876 74.9817 152.867 74.9742C152.858 74.9666 152.847 74.961 152.836 74.9577C152.824 74.9543 152.812 74.9533 152.8 74.9547L152.804 74.9577Z" fill="#263238"/>
<path d="M171.781 73.3257C171.368 72.2102 170.684 71.2146 169.792 70.4277C168.9 69.6409 167.826 69.0874 166.668 68.8167C164.031 68.0685 161.22 68.2241 158.682 69.2587C156.132 70.3252 153.91 72.0488 152.243 74.2537C152.243 74.2537 152.243 74.3537 152.331 74.2537C153.829 72.3136 155.823 70.8134 158.102 69.9111C160.381 69.0088 162.862 68.7378 165.282 69.1267C167.049 69.2391 168.698 70.0485 169.868 71.3769C171.038 72.7054 171.632 74.4441 171.52 76.2107C171.459 77.1823 171.185 78.1287 170.72 78.9837C169.502 81.2966 167.659 83.2212 165.401 84.5387V84.6267C167.545 83.5184 169.375 81.8867 170.72 79.8827C171.352 78.9274 171.773 77.8488 171.956 76.7183C172.139 75.5878 172.079 74.4314 171.781 73.3257V73.3257Z" fill="#263238"/>
<path d="M166.403 90.6017C163.057 92.028 159.447 92.731 155.81 92.6647C152.037 92.6386 148.277 92.2027 144.598 91.3647C142.447 90.8937 140.325 90.3337 138.204 89.7437C138.204 89.7437 138.116 89.8317 138.204 89.8437C141.918 91.3451 145.78 92.4512 149.726 93.1437C153.391 93.7546 157.141 93.6394 160.762 92.8047C162.747 92.3357 164.662 91.6127 166.462 90.6537C166.462 90.6537 166.447 90.5757 166.403 90.6017Z" fill="#263238"/>
<path d="M142.491 108.758C142.491 108.758 137.01 102.113 133.96 104.132C130.91 106.151 135.433 116.032 139.279 117.132C139.752 117.302 140.255 117.377 140.757 117.353C141.26 117.329 141.753 117.206 142.208 116.992C142.663 116.777 143.071 116.475 143.409 116.103C143.747 115.731 144.009 115.295 144.179 114.822C144.197 114.772 144.213 114.722 144.229 114.672L142.491 108.758Z" fill="#D3766A"/>
<path d="M135.315 106.931V107.031C138.041 107.886 139.615 110.213 140.781 112.659C140.468 112.201 139.986 111.886 139.441 111.783C138.896 111.68 138.332 111.798 137.874 112.111C137.776 112.178 137.684 112.252 137.598 112.335C137.589 112.339 137.581 112.345 137.575 112.352C137.568 112.36 137.563 112.368 137.56 112.378C137.557 112.387 137.556 112.397 137.556 112.407C137.557 112.416 137.56 112.426 137.564 112.435C137.571 112.449 137.583 112.461 137.598 112.469C138.05 112.285 138.547 112.246 139.022 112.357C139.497 112.468 139.926 112.723 140.25 113.088C140.809 113.692 141.303 114.354 141.723 115.062C141.87 115.298 142.283 115.062 142.165 114.87C141.93 111.454 138.939 106.931 135.315 106.931Z" fill="#263238"/>
<path d="M58.949 53.0367C84.4883 53.0613 110.028 53.0883 135.567 53.1177C147.679 53.1317 159.791 53.0916 171.903 53.1576C173.406 53.0901 174.912 53.1145 176.412 53.2306C181.569 53.9306 179.743 54.1677 181.418 57.2837C182.865 59.9767 183.36 62.8037 185.703 65.0437C185.806 65.1443 185.939 65.2084 186.082 65.2265C186.225 65.2445 186.37 65.2154 186.495 65.1437C191.041 61.8967 188.995 54.8177 195.114 53.2687C197.941 52.5517 202.614 53.1956 205.45 53.1966L221.445 53.2107C236.413 53.2217 252.377 54.6427 267.307 52.6867C279.255 51.1217 279.284 42.7597 279.353 32.7237C279.411 24.2487 282.172 9.62367 273.653 4.29467C270.621 2.39467 267.246 2.88166 263.768 2.87066C253.068 2.83666 242.359 2.85667 231.655 2.86467C210.165 2.88267 188.676 2.92434 167.187 2.98967C122.942 3.10867 78.682 3.55768 34.438 3.21868C28.529 3.17268 23.325 2.63065 18.848 7.31865C13.093 13.3487 13.061 23.2447 13.22 31.0187C13.348 37.3577 13.32 44.8006 18.845 49.0276C25.145 53.8486 34.832 53.3627 42.289 53.3887C42.5307 53.3807 42.76 53.2792 42.9282 53.1053C43.0964 52.9315 43.1905 52.699 43.1905 52.4571C43.1905 52.2152 43.0964 51.9828 42.9282 51.809C42.76 51.6352 42.5307 51.5336 42.289 51.5257C32.289 51.5027 18.548 52.1627 15.689 40.0057C12.894 28.1357 13.806 6.05268 29.22 4.91668C49.251 3.43868 69.976 4.94268 90.076 4.88268C136.306 4.74368 182.536 4.49567 228.768 4.39867C239.701 4.374 250.635 4.35933 261.568 4.35466C263.614 4.35466 265.668 4.30268 267.714 4.36968C276.054 4.63968 277.983 12.2977 277.982 19.5347C277.982 23.9347 277.931 28.3256 277.907 32.7226C277.893 34.9136 277.973 37.1286 277.869 39.3166C277.456 48.0086 272.785 50.7777 265.147 51.4957C248.983 53.0197 232.247 51.8467 216.047 51.8537C210.777 51.8537 205.505 51.8187 200.234 51.8597C198.289 51.8747 194.484 51.3127 192.873 52.0167C188.914 53.7467 188.717 66.0267 184.031 60.5167C182.484 58.6987 183.105 53.9246 181.26 52.4646C179.675 51.2116 176.509 51.8566 174.628 51.8736C162.056 51.9866 149.477 51.8736 136.903 51.8736C110.916 51.8736 84.9296 51.8767 58.945 51.8827C58.793 51.8827 58.6473 51.943 58.5398 52.0505C58.4324 52.1579 58.372 52.3037 58.372 52.4557C58.372 52.6076 58.4324 52.7534 58.5398 52.8608C58.6473 52.9683 58.793 53.0287 58.945 53.0287L58.949 53.0367Z" fill="#66429C"/>
<path d="M33.076 0.961705C94.899 1.4077 156.876 2.04068 218.688 0.996678C218.742 0.992964 218.793 0.968747 218.83 0.928929C218.868 0.889111 218.888 0.836685 218.888 0.7822C218.888 0.727716 218.868 0.67529 218.83 0.635472C218.793 0.595654 218.742 0.571436 218.688 0.567723C156.874 -0.476277 94.898 0.154696 33.076 0.602696C33.0307 0.606079 32.9884 0.626474 32.9575 0.659764C32.9266 0.693054 32.9094 0.736782 32.9094 0.7822C32.9094 0.827618 32.9266 0.871347 32.9575 0.904637C32.9884 0.937927 33.0307 0.958322 33.076 0.961705Z" fill="#66429C"/>
<path d="M222.481 0.642784C228.226 1.17841 234.007 1.21452 239.758 0.750755C239.803 0.747372 239.846 0.726977 239.877 0.693687C239.907 0.660397 239.925 0.616669 239.925 0.57125C239.925 0.525832 239.907 0.482104 239.877 0.448814C239.846 0.415524 239.803 0.395129 239.758 0.391746C234.007 -0.0719478 228.226 -0.03578 222.481 0.499778C222.462 0.499778 222.444 0.507276 222.431 0.520591C222.417 0.533906 222.41 0.551932 222.41 0.570762C222.41 0.589593 222.417 0.607679 222.431 0.620994C222.444 0.634309 222.462 0.641746 222.481 0.641746V0.642784Z" fill="#66429C"/>
<path d="M93.951 182.592C90.151 178.872 85.241 174.372 79.441 175.982C73.971 177.492 71.881 183.452 70.901 188.422C69.641 194.822 68.661 201.292 67.651 207.742C66.641 214.192 65.651 220.742 64.721 227.292C64.1877 230.972 63.6644 234.655 63.151 238.342C62.891 240.182 62.641 242.022 62.381 243.862C62.121 245.702 61.831 247.472 61.731 249.302C61.7378 249.422 61.7871 249.536 61.8701 249.624C61.9531 249.712 62.0645 249.767 62.1845 249.78C62.3044 249.793 62.4252 249.764 62.5253 249.696C62.6253 249.629 62.6983 249.528 62.731 249.412C63.431 246.342 63.7311 243.142 64.1711 240.022C64.6111 236.902 65.081 233.752 65.541 230.622C66.4537 224.395 67.3837 218.168 68.3311 211.942C69.2784 205.715 70.245 199.492 71.231 193.272C72.081 188.002 72.471 181.452 77.151 177.972C78.4167 177.1 79.8844 176.567 81.4143 176.424C82.9442 176.28 84.4854 176.531 85.8911 177.152C88.9711 178.322 91.4311 180.532 93.8311 182.712C93.9211 182.782 94.041 182.662 93.951 182.592Z" fill="#263238"/>
<path d="M88.751 178.792C88.751 178.792 80.9911 175.992 77.1611 181.662C73.3311 187.332 77.9111 201.742 113.261 209.872C112.224 198.806 109.348 187.991 104.751 177.872C97.1711 161.392 83.6711 167.642 88.751 178.792Z" fill="#FFC727"/>
<path d="M111.231 207.542C110.691 206.553 110.097 205.595 109.451 204.672C108.861 203.762 108.261 202.862 107.661 201.952C107.201 201.272 106.741 200.602 106.271 199.952C106.305 199.783 106.328 199.613 106.341 199.442L106.461 198.532C106.541 197.862 106.641 197.202 106.741 196.532C106.841 195.862 106.951 195.212 107.071 194.532C107.155 193.824 107.313 193.127 107.541 192.452C107.541 192.342 107.391 192.292 107.381 192.452C107.295 192.823 107.181 193.187 107.041 193.542C106.951 193.842 106.881 194.142 106.801 194.442C106.631 195.112 106.461 195.782 106.311 196.442C106.161 197.102 106.061 197.682 105.951 198.312C105.901 198.612 105.851 198.922 105.811 199.222C105.181 198.322 104.541 197.432 103.881 196.562C102.001 194.082 100.011 191.702 97.9611 189.382V189.322C98.1411 185.602 98.051 181.932 98.881 178.272C98.881 178.172 98.751 178.122 98.731 178.272C97.7992 181.716 97.3548 185.274 97.411 188.842C96.671 188.012 95.9311 187.202 95.1711 186.392C93.4511 184.532 91.6977 182.712 89.911 180.932C89.9038 180.924 89.8951 180.917 89.8854 180.913C89.8757 180.908 89.8653 180.906 89.8546 180.905C89.833 180.904 89.812 180.912 89.7961 180.927C89.7801 180.941 89.7707 180.962 89.7697 180.983C89.7688 181.005 89.7765 181.026 89.791 181.042C92.791 184.242 95.601 187.582 98.351 190.982C96.195 190.952 94.0389 191.032 91.8911 191.222C89.4911 191.402 87.111 191.712 84.731 192.042C84.631 192.042 84.661 192.212 84.731 192.192C87.1016 191.854 89.4882 191.64 91.881 191.552C94.191 191.462 96.481 191.552 98.781 191.552C100.271 193.402 101.781 195.262 103.201 197.132H101.241C100.171 197.132 99.0911 197.222 98.0211 197.312C95.8279 197.5 93.6497 197.834 91.501 198.312C91.4798 198.312 91.4595 198.32 91.4445 198.335C91.4295 198.35 91.4211 198.371 91.4211 198.392C91.4211 198.413 91.4295 198.433 91.4445 198.448C91.4595 198.463 91.4798 198.472 91.501 198.472V198.472C93.671 198.222 95.841 198.022 98.031 197.942H102.781C103.08 197.978 103.383 197.951 103.671 197.862C104.631 199.095 105.581 200.332 106.521 201.572C107.271 202.572 108.011 203.572 108.741 204.572C109.471 205.572 110.151 206.722 110.981 207.682C111 207.715 111.031 207.739 111.067 207.75C111.104 207.76 111.143 207.755 111.176 207.737C111.209 207.718 111.234 207.687 111.244 207.651C111.254 207.614 111.25 207.575 111.231 207.542V207.542Z" fill="#263238"/>
<path d="M92.1311 186.822C90.8776 186.663 89.614 186.6 88.3511 186.632C87.0911 186.632 85.8311 186.632 84.5711 186.722C84.5515 186.715 84.5303 186.717 84.5118 186.726C84.4932 186.734 84.4787 186.75 84.471 186.769C84.4645 186.788 84.4658 186.81 84.4745 186.828C84.4833 186.847 84.4989 186.861 84.518 186.869C84.5361 186.876 84.556 186.876 84.574 186.869C85.854 186.779 87.134 186.759 88.414 186.779C89.694 186.799 90.8841 186.909 92.1241 186.879C92.1711 186.882 92.1811 186.822 92.1311 186.822Z" fill="#263238"/>
<path d="M103.231 189.672C103.381 188.462 103.531 187.252 103.781 186.062C103.788 186.042 103.788 186.02 103.779 186C103.77 185.981 103.754 185.966 103.734 185.959C103.714 185.951 103.692 185.952 103.673 185.961C103.653 185.97 103.638 185.986 103.631 186.006C103.624 186.024 103.624 186.044 103.631 186.062C103.451 187.242 103.221 188.422 103.041 189.612C102.951 190.212 102.871 190.802 102.801 191.402C102.697 191.959 102.646 192.525 102.651 193.092C102.651 193.192 102.831 193.202 102.861 193.092C102.971 192.538 103.032 191.976 103.041 191.412C103.101 190.812 103.161 190.242 103.231 189.672Z" fill="#263238"/>
<path d="M100.911 176.292C100.601 177.462 100.291 178.652 100.071 179.852C99.9611 180.462 99.8711 181.072 99.7911 181.682C99.6767 182.268 99.6364 182.866 99.6711 183.462C99.6711 183.512 99.7511 183.512 99.7611 183.462C99.9043 182.904 99.9979 182.336 100.041 181.762C100.121 181.172 100.211 180.582 100.311 180.002C100.521 178.772 100.741 177.552 101.061 176.332C101.041 176.252 100.931 176.192 100.911 176.292Z" fill="#263238"/>
<path d="M54.871 247.992C54.6784 245.764 54.4617 243.541 54.221 241.322C53.761 236.912 53.221 232.522 52.631 228.132C52.041 223.742 51.481 219.372 50.781 215.012C50.5149 212.975 50.0631 210.966 49.4311 209.012C49.1991 208.182 48.7814 207.416 48.2097 206.771C47.638 206.127 46.9272 205.621 46.131 205.292C41.971 203.852 39.1311 208.172 37.4811 211.222C37.4311 211.312 37.571 211.382 37.621 211.302C38.621 209.852 41.411 205.792 44.561 205.982C46.691 206.112 48.391 207.612 49.411 212.912C51.941 226.102 54.231 252.912 54.501 254.622C54.641 255.552 55.3011 255.512 55.3011 254.512C55.3211 252.362 55.041 250.172 54.871 247.992Z" fill="#263238"/>
<path d="M38.6111 209.622C38.6111 209.622 42.241 196.782 34.201 203.202C20.831 213.892 20.351 237.132 20.351 237.132C20.351 237.132 44.131 223.312 47.091 214.202C51.501 200.632 38.6111 209.622 38.6111 209.622Z" fill="#FFC727"/>
<path d="M43.1111 215.922C41.2411 216.302 39.3511 216.552 37.4611 216.822L34.791 217.192C34.191 217.282 33.581 217.332 32.971 217.412C34.741 214.972 36.531 212.542 38.221 210.052C38.291 209.952 38.141 209.852 38.071 209.932C36.6533 211.386 35.3178 212.918 34.071 214.522L33.041 211.542C32.6061 210.401 32.229 209.24 31.911 208.062C31.911 207.962 31.731 208.062 31.751 208.112C32.081 209.282 32.311 210.482 32.621 211.662C32.931 212.842 33.2711 213.932 33.6811 215.042C32.8011 216.172 31.971 217.322 31.161 218.502C30.751 217.342 30.241 216.212 29.881 215.032C29.8723 215.015 29.8578 215.001 29.8401 214.994C29.8224 214.987 29.8027 214.986 29.7846 214.992C29.7665 214.998 29.7512 215.011 29.7413 215.027C29.7315 215.044 29.7279 215.063 29.7311 215.082C30.1611 216.382 30.381 217.742 30.791 219.082C30.241 219.882 29.6911 220.672 29.1711 221.482C28.1711 222.962 27.3111 224.482 26.4211 226.002C26.3529 226.029 26.2956 226.079 26.2577 226.142C26.2198 226.205 26.2035 226.279 26.2111 226.352C24.7111 228.952 23.281 231.592 21.871 234.252C21.8645 234.261 21.86 234.271 21.8578 234.283C21.8555 234.294 21.8557 234.305 21.8581 234.316C21.8605 234.327 21.8653 234.337 21.872 234.347C21.8786 234.356 21.8872 234.363 21.897 234.369C21.9068 234.374 21.9177 234.378 21.9289 234.379C21.9401 234.38 21.9515 234.379 21.9622 234.376C21.973 234.372 21.9829 234.366 21.9913 234.359C21.9997 234.351 22.0064 234.342 22.011 234.332C23.421 231.702 25.011 229.142 26.631 226.632C26.8839 226.55 27.1459 226.5 27.411 226.482L28.2311 226.302C28.8511 226.162 29.461 226.002 30.071 225.852C31.271 225.552 32.471 225.272 33.691 225.062C33.791 225.062 33.751 224.892 33.691 224.912C32.251 225.182 30.801 225.342 29.351 225.512C28.661 225.592 27.981 225.682 27.291 225.792H27.191C28.051 224.458 28.9177 223.172 29.791 221.932C30.661 220.672 31.551 219.442 32.441 218.202C33.261 218.092 34.081 217.872 34.901 217.712L37.661 217.182C39.501 216.812 41.3311 216.402 43.1811 216.092C43.2511 216.062 43.2111 215.902 43.1111 215.922Z" fill="#263238"/>
<path d="M28.821 217.192C28.701 216.852 28.601 216.502 28.491 216.192C28.2747 215.485 28.0945 214.767 27.951 214.042C27.951 213.942 27.771 213.992 27.801 214.042C27.951 214.762 28.121 215.492 28.291 216.212C28.4368 216.938 28.6443 217.651 28.911 218.342C28.9231 218.376 28.9478 218.404 28.9799 218.42C29.0121 218.437 29.0494 218.44 29.084 218.43C29.1186 218.419 29.1479 218.396 29.166 218.365C29.1841 218.334 29.1895 218.297 29.181 218.262V218.262C29.041 217.912 28.931 217.542 28.821 217.192Z" fill="#263238"/>
<path d="M45.541 212.952C44.461 213.112 43.3611 213.192 42.2711 213.282C41.1811 213.372 40.091 213.532 39.001 213.692C38.9878 213.692 38.9751 213.697 38.9657 213.706C38.9563 213.716 38.951 213.728 38.951 213.742C38.951 213.755 38.9563 213.768 38.9657 213.777C38.9751 213.786 38.9878 213.792 39.001 213.792C40.101 213.712 41.191 213.632 42.281 213.492C43.371 213.352 44.451 213.182 45.541 213.112C45.651 213.102 45.641 212.932 45.541 212.952Z" fill="#263238"/>
<path d="M72.371 231.742C71.951 222.292 71.371 212.852 70.371 203.442C69.901 198.752 69.3711 194.062 68.7111 189.442C68.1341 184.843 67.2419 180.289 66.041 175.812C65.2052 172.343 63.6668 169.082 61.521 166.232C60.4627 164.844 59.0681 163.748 57.469 163.048C55.8699 162.348 54.1188 162.067 52.381 162.232C48.241 162.742 44.911 165.352 42.031 168.182C38.801 171.362 35.841 174.822 32.841 178.182L30.591 180.782C30.521 180.852 30.5911 180.962 30.7111 180.892C33.6311 177.518 36.681 174.265 39.861 171.132C42.801 168.252 45.861 165.132 49.861 163.902C51.7506 163.296 53.7746 163.247 55.691 163.762C57.2202 164.246 58.5982 165.118 59.691 166.292C61.8642 168.805 63.4039 171.802 64.1811 175.032C66.7311 183.722 67.641 192.832 68.581 201.802C69.521 210.772 70.191 220.052 70.651 229.202C71.111 238.352 71.471 247.622 72.351 256.792C72.461 257.932 72.611 259.052 72.751 260.182C72.851 260.942 74.0311 260.942 73.9611 260.182C73.2311 250.722 72.801 241.242 72.371 231.742Z" fill="#263238"/>
<path d="M41.501 169.212C41.501 169.212 46.901 159.212 40.501 156.022C34.101 152.832 12.781 176.642 6.50104 211.482C6.50104 211.482 40.9811 196.232 52.6811 181.032C64.3811 165.832 51.181 162.482 41.501 169.212Z" fill="#FFC727"/>
<path d="M46.5711 177.342C42.6911 177.342 38.8311 177.042 34.9511 177.072C35.6811 176.242 36.4011 175.402 37.1411 174.582C38.2101 173.469 39.2119 172.294 40.1411 171.062C40.1911 170.982 40.071 170.862 40.001 170.932C38.9475 171.835 37.9646 172.818 37.061 173.872C36.061 174.872 35.1311 175.932 34.1711 176.972C32.6911 178.572 31.2311 180.202 29.7911 181.832V179.362C29.7911 178.042 29.791 176.732 29.841 175.422C29.841 172.752 29.8411 170.072 30.0411 167.422C30.0411 167.312 29.8911 167.322 29.8811 167.422C29.6911 170.092 29.4211 172.752 29.2911 175.422C29.2211 176.732 29.1911 178.052 29.1811 179.362V182.502L28.4911 183.262C25.4011 186.792 22.4911 190.452 19.6011 194.172C19.6097 193.964 19.5929 193.756 19.5511 193.552C19.5291 193.139 19.4824 192.729 19.411 192.322C19.311 191.432 19.191 190.552 19.061 189.662C18.931 188.772 18.801 188.002 18.661 187.172C18.521 186.342 18.2811 185.302 18.2111 184.362C18.2111 184.341 18.2026 184.32 18.1876 184.305C18.1726 184.29 18.1523 184.282 18.1311 184.282C18.1098 184.282 18.0895 184.29 18.0745 184.305C18.0595 184.32 18.0511 184.341 18.0511 184.362C18.2181 185.301 18.3249 186.249 18.371 187.202L18.6111 189.762C18.6911 190.612 18.7611 191.462 18.8511 192.322C18.8696 192.731 18.913 193.138 18.9811 193.542C18.9697 193.751 18.9933 193.96 19.0511 194.162C19.072 194.335 19.1299 194.502 19.221 194.652L17.7411 196.572C15.7411 199.162 13.8711 201.782 11.9511 204.392C11.8911 204.472 12.0011 204.582 12.0711 204.502C13.8811 202.132 15.751 199.802 17.651 197.502C19.071 197.562 20.5111 197.502 21.9311 197.442C23.3511 197.382 24.9311 197.442 26.4211 197.442C26.4423 197.442 26.4626 197.433 26.4776 197.418C26.4926 197.403 26.501 197.383 26.501 197.362C26.501 197.341 26.4926 197.32 26.4776 197.305C26.4626 197.29 26.4423 197.282 26.4211 197.282H21.941C20.461 197.282 19.1911 197.222 17.8211 197.282C19.4911 195.282 21.1711 193.282 22.8211 191.232C23.4411 190.502 24.0611 189.772 24.6711 189.032C25.2441 189.112 25.8239 189.132 26.401 189.092H28.401C29.681 189.092 30.951 189.092 32.221 189.042C34.851 189.042 37.491 188.912 40.121 188.902C40.1423 188.902 40.1626 188.893 40.1776 188.878C40.1926 188.863 40.2011 188.843 40.2011 188.822C40.2011 188.801 40.1926 188.78 40.1776 188.765C40.1626 188.75 40.1423 188.742 40.121 188.742C37.491 188.742 34.861 188.602 32.221 188.532L28.401 188.442H25.221C26.671 186.722 28.111 185.002 29.561 183.292C29.5803 183.284 29.5975 183.271 29.6114 183.256C29.6253 183.24 29.6354 183.222 29.6411 183.202C31.0611 181.532 32.471 179.862 33.901 178.202L34.4911 177.532C38.4911 177.652 42.4911 177.392 46.4911 177.472C46.5076 177.476 46.525 177.475 46.5407 177.468C46.5565 177.462 46.5698 177.451 46.5788 177.436C46.5877 177.422 46.5918 177.405 46.5904 177.388C46.589 177.371 46.5822 177.355 46.5711 177.342Z" fill="#263238"/>
<path d="M44.591 184.192H43.651C43.6325 184.192 43.6147 184.199 43.6016 184.212C43.5884 184.225 43.5811 184.243 43.5811 184.262C43.5811 184.28 43.5884 184.298 43.6016 184.311C43.6147 184.324 43.6325 184.332 43.651 184.332H44.591C44.6003 184.327 44.6086 184.32 44.6152 184.312C44.6218 184.303 44.6267 184.294 44.6296 184.284C44.6325 184.274 44.6333 184.263 44.632 184.252C44.6307 184.242 44.6273 184.232 44.622 184.223C44.6149 184.21 44.6042 184.199 44.591 184.192V184.192Z" fill="#263238"/>
<path d="M42.501 184.202C41.261 184.202 40.021 184.202 38.781 184.122L36.911 184.062C36.3365 183.992 35.7556 183.992 35.1811 184.062C35.1651 184.062 35.1499 184.068 35.1386 184.079C35.1274 184.091 35.121 184.106 35.121 184.122C35.121 184.138 35.1274 184.153 35.1386 184.164C35.1499 184.175 35.1651 184.182 35.1811 184.182C35.75 184.297 36.3316 184.337 36.911 184.302H42.4911C42.5039 184.289 42.5119 184.272 42.5137 184.253C42.5155 184.235 42.5111 184.217 42.501 184.202V184.202Z" fill="#263238"/>
<path d="M31.661 195.832C29.1412 195.417 26.5944 195.186 24.041 195.142V195.202C26.571 195.442 29.111 195.582 31.621 195.992C31.721 196.002 31.761 195.852 31.661 195.832Z" fill="#263238"/>
<path d="M21.301 184.742C21.2892 184.52 21.2624 184.3 21.221 184.082C21.151 183.582 21.081 183.082 21.001 182.582C20.851 181.642 20.681 180.692 20.501 179.752C20.501 179.662 20.341 179.692 20.351 179.752C20.471 180.752 20.571 181.702 20.661 182.672C20.711 183.152 20.741 183.672 20.791 184.112C20.7729 184.576 20.8372 185.04 20.981 185.482C20.9931 185.502 21.0091 185.52 21.028 185.534C21.047 185.548 21.0685 185.559 21.0915 185.565C21.1144 185.57 21.1383 185.572 21.1617 185.568C21.1851 185.565 21.2077 185.557 21.2281 185.545C21.2489 185.533 21.2669 185.516 21.2812 185.497C21.2955 185.477 21.3056 185.455 21.311 185.432C21.3537 185.203 21.3503 184.969 21.301 184.742Z" fill="#263238"/>
<path d="M72.041 156.382C70.811 154.092 69.241 151.052 66.161 151.252C63.621 151.412 62.4711 154.002 61.9311 156.152C60.2511 162.782 60.1311 169.782 59.8011 176.582C59.1111 190.952 58.491 205.332 58.401 219.722V231.722C58.401 235.722 58.401 239.882 58.691 243.942C58.691 244.021 58.7226 244.098 58.7789 244.154C58.8352 244.21 58.9115 244.242 58.9911 244.242C59.0706 244.242 59.1469 244.21 59.2032 244.154C59.2594 244.098 59.291 244.021 59.291 243.942C59.291 240.472 59.1911 236.942 59.1711 233.512C59.1511 230.082 59.1711 226.712 59.2411 223.322C59.3537 216.442 59.537 209.568 59.791 202.702C60.041 195.862 60.341 189.042 60.631 182.212C60.781 178.792 60.9211 175.382 61.0811 171.972C61.2411 168.562 61.371 165.352 61.751 162.062C61.961 160.222 62.2311 158.382 62.6111 156.562C62.8073 155.216 63.3559 153.947 64.201 152.882C64.7897 152.301 65.5658 151.949 66.3903 151.889C67.2149 151.828 68.034 152.063 68.701 152.552C70.1049 153.574 71.207 154.956 71.8911 156.552C71.9308 156.543 71.9667 156.522 71.9937 156.491C72.0206 156.461 72.0372 156.422 72.041 156.382V156.382Z" fill="#263238"/>
<path d="M71.2011 155.292C71.2011 155.292 68.6711 146.352 74.2611 150.822C83.5811 158.262 83.911 174.452 83.911 174.452C83.911 174.452 67.3511 164.832 65.2911 158.452C62.2211 149.032 71.2011 155.292 71.2011 155.292Z" fill="#FFC727"/>
<path d="M80.4311 167.812L79.9611 167.082C79.981 166.829 79.981 166.575 79.9611 166.322V165.162C79.9611 164.412 80.011 163.652 80.041 162.902C80.041 162.792 79.891 162.802 79.881 162.902C79.881 163.642 79.8211 164.382 79.8011 165.122V166.712C79.1511 165.712 78.4911 164.712 77.8011 163.712L77.1811 162.872C77.0844 161.901 77.0677 160.925 77.131 159.952C77.131 158.912 77.151 157.872 77.191 156.832C77.191 156.822 77.1891 156.812 77.1853 156.803C77.1816 156.794 77.176 156.786 77.1691 156.779C77.1621 156.772 77.1538 156.766 77.1447 156.762C77.1356 156.759 77.1259 156.757 77.1161 156.757C77.1062 156.757 77.0964 156.759 77.0873 156.762C77.0782 156.766 77.07 156.772 77.063 156.779C77.0561 156.786 77.0505 156.794 77.0468 156.803C77.043 156.812 77.041 156.822 77.041 156.832C77.041 157.922 76.951 159.002 76.901 160.082C76.8377 160.85 76.8144 161.621 76.8311 162.392C75.2311 160.212 73.5411 158.122 71.8311 156.032C71.8178 156.014 71.7982 156.003 71.7766 156C71.7551 155.998 71.7333 156.003 71.716 156.017C71.6988 156.03 71.6875 156.05 71.6847 156.071C71.6819 156.093 71.6878 156.114 71.701 156.132C72.771 157.482 73.791 158.862 74.791 160.252C72.791 159.802 70.861 159.542 68.881 159.252C68.771 159.252 68.741 159.392 68.881 159.412C70.971 159.722 73.031 160.252 75.101 160.712C75.901 161.832 76.6811 162.952 77.4611 164.082C77.7811 164.532 78.091 165.002 78.401 165.462H78.311L77.6711 165.372L76.291 165.242C75.291 165.172 74.3811 165.122 73.4211 165.072C73.3211 165.072 73.3211 165.222 73.4211 165.232C74.3638 165.245 75.3051 165.308 76.2411 165.422L77.721 165.602L78.371 165.682H78.561L80.041 168.042C80.981 169.422 81.811 170.912 82.811 172.242C82.819 172.249 82.8282 172.254 82.8382 172.257C82.8482 172.261 82.8587 172.262 82.8692 172.261C82.8797 172.26 82.8899 172.258 82.8994 172.253C82.9088 172.248 82.9172 172.242 82.924 172.234C82.9323 172.224 82.9382 172.212 82.9411 172.2C82.9441 172.187 82.944 172.174 82.941 172.162C82.1859 170.666 81.348 169.214 80.4311 167.812V167.812Z" fill="#263238"/>
<path d="M76.3011 157.712V156.712C76.281 155.981 76.3111 155.249 76.3911 154.522C76.3929 154.51 76.3922 154.498 76.389 154.487C76.3858 154.476 76.3803 154.465 76.3727 154.456C76.365 154.448 76.3556 154.44 76.345 154.435C76.3343 154.431 76.3227 154.428 76.311 154.428C76.2993 154.428 76.2878 154.431 76.2771 154.435C76.2665 154.44 76.2571 154.448 76.2495 154.456C76.2418 154.465 76.2363 154.476 76.2331 154.487C76.2299 154.498 76.2292 154.51 76.231 154.522C76.231 155.242 76.151 155.972 76.121 156.692V158.282C76.091 158.454 76.091 158.63 76.121 158.802C76.121 158.872 76.231 158.862 76.261 158.802C76.286 158.646 76.286 158.487 76.261 158.332C76.2919 158.127 76.3053 157.919 76.3011 157.712V157.712Z" fill="#263238"/>
<path d="M74.261 161.422C73.641 161.312 73.0111 161.282 72.3911 161.232C71.7711 161.182 71.021 161.112 70.341 161.022C70.3198 161.022 70.2995 161.03 70.2845 161.045C70.2695 161.06 70.261 161.081 70.261 161.102C70.261 161.123 70.2695 161.143 70.2845 161.158C70.2995 161.173 70.3198 161.182 70.341 161.182V161.182C71.651 161.262 72.951 161.502 74.261 161.542C74.311 161.542 74.331 161.432 74.261 161.422Z" fill="#263238"/>
<path d="M79.4611 161.472C79.5111 161.542 79.4611 161.732 79.4611 161.812V163.352C79.421 163.533 79.421 163.721 79.4611 163.902H79.5211C79.5411 163.816 79.5411 163.727 79.5211 163.642V161.472C79.5211 161.402 79.3511 161.322 79.4611 161.472Z" fill="#263238"/>
<path d="M72.4211 204.102C68.9311 201.482 65.801 197.722 61.121 197.542C57.251 197.392 54.5411 200.302 52.9911 203.542C52.2098 205.266 51.5743 207.052 51.091 208.882C50.391 211.332 49.741 213.792 49.091 216.262C47.881 221.122 46.8311 226.022 45.9911 230.962C45.5211 233.712 45.081 236.472 44.731 239.242C44.2863 242.049 44.0158 244.881 43.9211 247.722C43.9277 247.825 43.9701 247.922 44.0411 247.997C44.112 248.071 44.207 248.119 44.3093 248.131C44.4117 248.142 44.515 248.118 44.6012 248.062C44.6874 248.005 44.751 247.92 44.781 247.822C45.251 245.502 45.451 243.112 45.781 240.822C46.111 238.532 46.481 236.112 46.881 233.762C47.681 229.072 48.601 224.392 49.651 219.762C50.651 215.382 51.6511 210.932 53.0511 206.662C54.0511 203.602 55.6911 200.032 58.9911 198.932C63.9911 197.262 68.5911 201.512 72.2711 204.272C72.3911 204.282 72.5011 204.162 72.4211 204.102Z" fill="#263238"/>
<path d="M68.811 201.602C68.811 201.602 65.601 192.432 70.251 190.602C77.251 187.902 95.431 208.422 91.861 239.872C91.861 239.872 77.781 232.112 67.391 223.392C57.001 214.672 54.331 203.272 58.911 200.322C63.491 197.372 68.811 201.602 68.811 201.602Z" fill="#FFC727"/>
<path d="M89.761 233.162C89.274 232.064 88.7058 231.005 88.061 229.992C87.471 228.912 86.871 227.842 86.251 226.782C85.031 224.712 83.831 222.632 82.591 220.582C82.391 220.252 82.191 219.922 81.981 219.582C81.9933 219.456 82.0201 219.332 82.061 219.212L82.2711 218.302C82.4211 217.622 82.5411 216.932 82.6711 216.242C82.9211 214.902 83.1611 213.532 83.5211 212.242C83.5211 212.221 83.5126 212.2 83.4976 212.185C83.4826 212.17 83.4623 212.162 83.441 212.162C83.4198 212.162 83.3995 212.17 83.3845 212.185C83.3695 212.2 83.3611 212.221 83.3611 212.242C83.0711 213.592 82.651 214.912 82.251 216.242C82.061 216.892 81.8511 217.532 81.6811 218.192L81.501 218.862C80.001 216.412 78.501 213.972 76.841 211.612C76.9451 211.289 76.9991 210.951 77.001 210.612C77.051 210.152 77.111 209.692 77.161 209.232C77.281 208.232 77.4011 207.162 77.5511 206.132C77.8153 204.114 78.1858 202.111 78.661 200.132C78.661 200.032 78.531 200.002 78.501 200.132C78.001 202.132 77.5011 204.132 77.0811 206.132C76.8911 207.132 76.721 208.132 76.591 209.132C76.521 209.632 76.4711 210.132 76.4211 210.622L76.3611 211.082C75.8511 210.362 75.361 209.652 74.821 208.952C73.211 206.842 71.551 204.772 69.871 202.722C69.801 202.642 69.6711 202.722 69.7411 202.812C72.6182 206.495 75.2601 210.356 77.651 214.372L79.0211 216.592L78.571 216.542C77.981 216.462 77.381 216.422 76.791 216.372L73.2411 216.062C70.8711 215.872 68.491 215.732 66.121 215.472C66.0998 215.472 66.0795 215.48 66.0645 215.495C66.0495 215.51 66.041 215.531 66.041 215.552C66.041 215.573 66.0495 215.593 66.0645 215.608C66.0795 215.623 66.0998 215.632 66.121 215.632C68.511 215.902 70.901 216.292 73.291 216.632C74.461 216.802 75.641 216.952 76.811 217.102C77.7057 217.288 78.6172 217.382 79.531 217.382L82.321 221.922C82.1113 221.907 81.9008 221.907 81.691 221.922H73.721C73.621 221.922 73.641 222.082 73.721 222.082C75.271 222.082 76.811 222.182 78.351 222.262L80.5511 222.392L81.651 222.472C81.9801 222.547 82.3219 222.547 82.651 222.472L85.031 226.342C85.751 227.522 86.4911 228.712 87.2411 229.882C87.9481 231.136 88.7469 232.336 89.631 233.472C89.6514 233.48 89.6732 233.485 89.6953 233.485C89.7174 233.485 89.7392 233.481 89.7597 233.472C89.7801 233.464 89.7987 233.452 89.8144 233.436C89.83 233.421 89.8425 233.402 89.851 233.382C89.8596 233.361 89.864 233.34 89.8641 233.317C89.8642 233.295 89.86 233.274 89.8516 233.253C89.8433 233.233 89.8309 233.214 89.8154 233.198C89.7999 233.183 89.7814 233.17 89.761 233.162V233.162Z" fill="#263238"/>
<path d="M83.0411 207.742C82.9019 208.755 82.6913 209.758 82.4111 210.742C82.1511 211.742 81.8511 212.742 81.5211 213.742C81.5109 213.766 81.5108 213.794 81.5209 213.818C81.531 213.843 81.5505 213.863 81.5751 213.873C81.5996 213.883 81.6272 213.883 81.6517 213.873C81.6763 213.863 81.6959 213.843 81.7061 213.819L81.7111 213.802C82.0177 212.815 82.2977 211.815 82.5511 210.802C82.7911 209.802 82.9511 208.802 83.2011 207.802C83.2311 207.672 83.0411 207.642 83.0411 207.742Z" fill="#263238"/>
<path d="M72.7111 213.892C72.5001 213.702 72.2251 213.598 71.941 213.602L70.6111 213.422C69.7911 213.312 68.961 213.222 68.131 213.122C66.421 212.922 64.7011 212.752 62.9911 212.532C62.9698 212.532 62.9495 212.54 62.9345 212.555C62.9195 212.57 62.911 212.591 62.911 212.612C62.911 212.633 62.9195 212.653 62.9345 212.668C62.9495 212.683 62.9698 212.692 62.9911 212.692C64.6111 212.892 66.2211 213.132 67.8311 213.352L70.2111 213.652L71.351 213.782C71.7973 213.787 72.2397 213.865 72.661 214.012C72.675 214.012 72.6888 214.008 72.7005 214C72.7122 213.993 72.7213 213.982 72.7267 213.969C72.7321 213.956 72.7334 213.942 72.7307 213.928C72.7279 213.914 72.7211 213.902 72.7111 213.892Z" fill="#263238"/>
<path d="M83.041 227.712C82.231 227.642 81.421 227.622 80.611 227.592H78.791C78.54 227.599 78.2889 227.582 78.041 227.542C77.931 227.542 77.921 227.722 78.041 227.702C78.2804 227.677 78.5217 227.677 78.761 227.702H79.401L80.631 227.782C81.441 227.782 82.261 227.872 83.071 227.882C83.111 227.892 83.121 227.722 83.041 227.712Z" fill="#263238"/>
<path d="M88.041 224.202C88.131 223.742 88.2211 223.272 88.3011 222.812C88.4711 221.912 88.6311 221.002 88.8011 220.092C88.8011 219.992 88.671 219.972 88.641 220.092C88.441 220.972 88.2511 221.852 88.0511 222.732C87.9511 223.182 87.851 223.622 87.761 224.062C87.711 224.262 87.671 224.472 87.631 224.672C87.5635 224.881 87.5397 225.103 87.561 225.322C87.561 225.402 87.681 225.462 87.731 225.382C87.9075 225.011 88.0126 224.611 88.041 224.202Z" fill="#263238"/>
<path d="M40.321 244.202L41.3011 255.352L44.631 292.982H74.1111L78.2711 255.352L79.501 244.202H40.321Z" fill="#455A64"/>
<path d="M40.321 244.202L41.3011 255.352H78.2711L79.501 244.202H40.321Z" fill="#263238"/>
<path d="M82.421 241.172H37.411V250.212H82.421V241.172Z" fill="#455A64"/>
<path d="M42.184 22.8V34H41.016V28.832H34.008V34H32.824V22.8H34.008V27.792H41.016V22.8H42.184ZM45.5996 25.584H46.7356V34H45.5996V25.584ZM46.1756 23.744C45.941 23.744 45.7436 23.664 45.5836 23.504C45.4236 23.344 45.3436 23.152 45.3436 22.928C45.3436 22.7147 45.4236 22.528 45.5836 22.368C45.7436 22.208 45.941 22.128 46.1756 22.128C46.4103 22.128 46.6076 22.208 46.7676 22.368C46.9276 22.5173 47.0076 22.6987 47.0076 22.912C47.0076 23.1467 46.9276 23.344 46.7676 23.504C46.6076 23.664 46.4103 23.744 46.1756 23.744ZM58.516 33.488C58.3027 33.68 58.036 33.8293 57.716 33.936C57.4067 34.032 57.0813 34.08 56.74 34.08C55.9507 34.08 55.3427 33.8667 54.916 33.44C54.4893 33.0133 54.276 32.4107 54.276 31.632V26.544H52.772V25.584H54.276V23.744H55.412V25.584H57.972V26.544H55.412V31.568C55.412 32.0693 55.5347 32.4533 55.78 32.72C56.036 32.976 56.3987 33.104 56.868 33.104C57.1027 33.104 57.3267 33.0667 57.54 32.992C57.764 32.9173 57.956 32.8107 58.116 32.672L58.516 33.488ZM64.872 25.52C65.928 25.52 66.7653 25.8293 67.384 26.448C68.0133 27.056 68.328 27.9467 68.328 29.12V34H67.192V29.232C67.192 28.3573 66.9733 27.6907 66.536 27.232C66.0987 26.7733 65.4747 26.544 64.664 26.544C63.7573 26.544 63.0373 26.816 62.504 27.36C61.9813 27.8933 61.72 28.6347 61.72 29.584V34H60.584V22.128H61.72V27.056C62.0293 26.5653 62.456 26.1867 63 25.92C63.544 25.6533 64.168 25.52 64.872 25.52ZM78.7714 30.144H71.7314C71.7954 31.0187 72.1314 31.728 72.7394 32.272C73.3474 32.8053 74.1154 33.072 75.0434 33.072C75.566 33.072 76.046 32.9813 76.4834 32.8C76.9207 32.608 77.2994 32.3307 77.6194 31.968L78.2594 32.704C77.886 33.152 77.4167 33.4933 76.8514 33.728C76.2967 33.9627 75.6834 34.08 75.0114 34.08C74.1474 34.08 73.3794 33.8987 72.7074 33.536C72.046 33.1627 71.5287 32.6507 71.1554 32C70.782 31.3493 70.5954 30.6133 70.5954 29.792C70.5954 28.9707 70.7714 28.2347 71.1234 27.584C71.486 26.9333 71.9767 26.4267 72.5954 26.064C73.2247 25.7013 73.9287 25.52 74.7074 25.52C75.486 25.52 76.1847 25.7013 76.8034 26.064C77.422 26.4267 77.9074 26.9333 78.2594 27.584C78.6114 28.224 78.7874 28.96 78.7874 29.792L78.7714 30.144ZM74.7074 26.496C73.8967 26.496 73.214 26.7573 72.6594 27.28C72.1154 27.792 71.806 28.464 71.7314 29.296H77.6994C77.6247 28.464 77.31 27.792 76.7554 27.28C76.2114 26.7573 75.5287 26.496 74.7074 26.496ZM82.1876 27.232C82.4543 26.6667 82.849 26.24 83.3716 25.952C83.905 25.664 84.561 25.52 85.3396 25.52V26.624L85.0676 26.608C84.1823 26.608 83.489 26.88 82.9876 27.424C82.4863 27.968 82.2356 28.7307 82.2356 29.712V34H81.0996V25.584H82.1876V27.232ZM94.6464 30.144H87.6064C87.6704 31.0187 88.0064 31.728 88.6144 32.272C89.2224 32.8053 89.9904 33.072 90.9184 33.072C91.441 33.072 91.921 32.9813 92.3584 32.8C92.7957 32.608 93.1744 32.3307 93.4944 31.968L94.1344 32.704C93.761 33.152 93.2917 33.4933 92.7264 33.728C92.1717 33.9627 91.5584 34.08 90.8864 34.08C90.0224 34.08 89.2544 33.8987 88.5824 33.536C87.921 33.1627 87.4037 32.6507 87.0304 32C86.657 31.3493 86.4704 30.6133 86.4704 29.792C86.4704 28.9707 86.6464 28.2347 86.9984 27.584C87.361 26.9333 87.8517 26.4267 88.4704 26.064C89.0997 25.7013 89.8037 25.52 90.5824 25.52C91.361 25.52 92.0597 25.7013 92.6784 26.064C93.297 26.4267 93.7824 26.9333 94.1344 27.584C94.4864 28.224 94.6624 28.96 94.6624 29.792L94.6464 30.144ZM90.5824 26.496C89.7717 26.496 89.089 26.7573 88.5344 27.28C87.9904 27.792 87.681 28.464 87.6064 29.296H93.5744C93.4997 28.464 93.185 27.792 92.6304 27.28C92.0864 26.7573 91.4037 26.496 90.5824 26.496ZM97.1026 32.336C97.348 32.336 97.5506 32.4213 97.7106 32.592C97.8706 32.752 97.9506 32.9547 97.9506 33.2C97.9506 33.328 97.9293 33.4667 97.8866 33.616C97.8546 33.7653 97.8013 33.936 97.7266 34.128L97.0546 36.336H96.2866L96.8306 34.016C96.66 33.9627 96.5213 33.8667 96.4146 33.728C96.308 33.5787 96.2546 33.4027 96.2546 33.2C96.2546 32.9547 96.3346 32.752 96.4946 32.592C96.6546 32.4213 96.8573 32.336 97.1026 32.336ZM108.985 33.488C108.771 33.68 108.505 33.8293 108.185 33.936C107.875 34.032 107.55 34.08 107.209 34.08C106.419 34.08 105.811 33.8667 105.385 33.44C104.958 33.0133 104.745 32.4107 104.745 31.632V26.544H103.241V25.584H104.745V23.744H105.881V25.584H108.441V26.544H105.881V31.568C105.881 32.0693 106.003 32.4533 106.249 32.72C106.505 32.976 106.867 33.104 107.337 33.104C107.571 33.104 107.795 33.0667 108.009 32.992C108.233 32.9173 108.425 32.8107 108.585 32.672L108.985 33.488ZM118.084 30.144H111.044C111.108 31.0187 111.444 31.728 112.052 32.272C112.66 32.8053 113.428 33.072 114.356 33.072C114.879 33.072 115.359 32.9813 115.796 32.8C116.233 32.608 116.612 32.3307 116.932 31.968L117.572 32.704C117.199 33.152 116.729 33.4933 116.164 33.728C115.609 33.9627 114.996 34.08 114.324 34.08C113.46 34.08 112.692 33.8987 112.02 33.536C111.359 33.1627 110.841 32.6507 110.468 32C110.095 31.3493 109.908 30.6133 109.908 29.792C109.908 28.9707 110.084 28.2347 110.436 27.584C110.799 26.9333 111.289 26.4267 111.908 26.064C112.537 25.7013 113.241 25.52 114.02 25.52C114.799 25.52 115.497 25.7013 116.116 26.064C116.735 26.4267 117.22 26.9333 117.572 27.584C117.924 28.224 118.1 28.96 118.1 29.792L118.084 30.144ZM114.02 26.496C113.209 26.496 112.527 26.7573 111.972 27.28C111.428 27.792 111.119 28.464 111.044 29.296H117.012C116.937 28.464 116.623 27.792 116.068 27.28C115.524 26.7573 114.841 26.496 114.02 26.496ZM120.412 22.128H121.548V34H120.412V22.128ZM124.709 22.128H125.845V34H124.709V22.128ZM140.777 25.584V34H139.689V32.464C139.391 32.976 138.98 33.376 138.457 33.664C137.935 33.9413 137.337 34.08 136.665 34.08C135.567 34.08 134.697 33.776 134.057 33.168C133.428 32.5493 133.113 31.648 133.113 30.464V25.584H134.249V30.352C134.249 31.2373 134.468 31.9093 134.905 32.368C135.343 32.8267 135.967 33.056 136.777 33.056C137.663 33.056 138.361 32.7893 138.873 32.256C139.385 31.712 139.641 30.96 139.641 30V25.584H140.777ZM146.215 34.08C145.532 34.08 144.876 33.984 144.247 33.792C143.628 33.5893 143.143 33.3387 142.791 33.04L143.303 32.144C143.655 32.4213 144.098 32.6507 144.631 32.832C145.164 33.0027 145.719 33.088 146.295 33.088C147.063 33.088 147.628 32.9707 147.991 32.736C148.364 32.4907 148.551 32.1493 148.551 31.712C148.551 31.4027 148.45 31.1627 148.247 30.992C148.044 30.8107 147.788 30.6773 147.479 30.592C147.17 30.496 146.759 30.4053 146.247 30.32C145.564 30.192 145.015 30.064 144.599 29.936C144.183 29.7973 143.826 29.568 143.527 29.248C143.239 28.928 143.095 28.4853 143.095 27.92C143.095 27.216 143.388 26.64 143.975 26.192C144.562 25.744 145.378 25.52 146.423 25.52C146.967 25.52 147.511 25.5947 148.055 25.744C148.599 25.8827 149.047 26.0693 149.399 26.304L148.903 27.216C148.21 26.736 147.383 26.496 146.423 26.496C145.698 26.496 145.148 26.624 144.775 26.88C144.412 27.136 144.231 27.472 144.231 27.888C144.231 28.208 144.332 28.464 144.535 28.656C144.748 28.848 145.01 28.992 145.319 29.088C145.628 29.1733 146.055 29.264 146.599 29.36C147.271 29.488 147.81 29.616 148.215 29.744C148.62 29.872 148.967 30.0907 149.255 30.4C149.543 30.7093 149.687 31.136 149.687 31.68C149.687 32.416 149.378 33.0027 148.759 33.44C148.151 33.8667 147.303 34.08 146.215 34.08ZM158.919 25.52C160.017 25.52 160.86 25.7973 161.447 26.352C162.033 26.896 162.327 27.7067 162.327 28.784V34H161.239V32.688C160.983 33.1253 160.604 33.4667 160.103 33.712C159.612 33.9573 159.025 34.08 158.343 34.08C157.404 34.08 156.657 33.856 156.103 33.408C155.548 32.96 155.271 32.368 155.271 31.632C155.271 30.9173 155.527 30.3413 156.039 29.904C156.561 29.4667 157.388 29.248 158.519 29.248H161.191V28.736C161.191 28.0107 160.988 27.4613 160.583 27.088C160.177 26.704 159.585 26.512 158.807 26.512C158.273 26.512 157.761 26.6027 157.271 26.784C156.78 26.9547 156.359 27.1947 156.007 27.504L155.495 26.656C155.921 26.2933 156.433 26.016 157.031 25.824C157.628 25.6213 158.257 25.52 158.919 25.52ZM158.519 33.184C159.159 33.184 159.708 33.04 160.167 32.752C160.625 32.4533 160.967 32.0267 161.191 31.472V30.096H158.551C157.111 30.096 156.391 30.5973 156.391 31.6C156.391 32.0907 156.577 32.48 156.951 32.768C157.324 33.0453 157.847 33.184 158.519 33.184ZM169.748 25.52C170.537 25.52 171.252 25.7013 171.892 26.064C172.532 26.416 173.033 26.9173 173.396 27.568C173.759 28.2187 173.94 28.96 173.94 29.792C173.94 30.624 173.759 31.3653 173.396 32.016C173.033 32.6667 172.532 33.1733 171.892 33.536C171.252 33.8987 170.537 34.08 169.748 34.08C169.044 34.08 168.409 33.9307 167.844 33.632C167.289 33.3333 166.841 32.9013 166.5 32.336V34H165.412V22.128H166.548V27.184C166.9 26.64 167.348 26.2293 167.892 25.952C168.447 25.664 169.065 25.52 169.748 25.52ZM169.668 33.072C170.255 33.072 170.788 32.9387 171.268 32.672C171.748 32.3947 172.121 32.0053 172.388 31.504C172.665 31.0027 172.804 30.432 172.804 29.792C172.804 29.152 172.665 28.5813 172.388 28.08C172.121 27.5787 171.748 27.1947 171.268 26.928C170.788 26.6507 170.255 26.512 169.668 26.512C169.071 26.512 168.532 26.6507 168.052 26.928C167.583 27.1947 167.209 27.5787 166.932 28.08C166.665 28.5813 166.532 29.152 166.532 29.792C166.532 30.432 166.665 31.0027 166.932 31.504C167.209 32.0053 167.583 32.3947 168.052 32.672C168.532 32.9387 169.071 33.072 169.668 33.072ZM179.696 34.08C178.885 34.08 178.155 33.8987 177.504 33.536C176.853 33.1627 176.341 32.6507 175.968 32C175.595 31.3493 175.408 30.6133 175.408 29.792C175.408 28.9707 175.595 28.2347 175.968 27.584C176.341 26.9333 176.853 26.4267 177.504 26.064C178.155 25.7013 178.885 25.52 179.696 25.52C180.507 25.52 181.237 25.7013 181.888 26.064C182.539 26.4267 183.045 26.9333 183.408 27.584C183.781 28.2347 183.968 28.9707 183.968 29.792C183.968 30.6133 183.781 31.3493 183.408 32C183.045 32.6507 182.539 33.1627 181.888 33.536C181.237 33.8987 180.507 34.08 179.696 34.08ZM179.696 33.072C180.293 33.072 180.827 32.9387 181.296 32.672C181.776 32.3947 182.149 32.0053 182.416 31.504C182.683 31.0027 182.816 30.432 182.816 29.792C182.816 29.152 182.683 28.5813 182.416 28.08C182.149 27.5787 181.776 27.1947 181.296 26.928C180.827 26.6507 180.293 26.512 179.696 26.512C179.099 26.512 178.56 26.6507 178.08 26.928C177.611 27.1947 177.237 27.5787 176.96 28.08C176.693 28.5813 176.56 29.152 176.56 29.792C176.56 30.432 176.693 31.0027 176.96 31.504C177.237 32.0053 177.611 32.3947 178.08 32.672C178.56 32.9387 179.099 33.072 179.696 33.072ZM193.871 25.584V34H192.783V32.464C192.484 32.976 192.074 33.376 191.551 33.664C191.028 33.9413 190.431 34.08 189.759 34.08C188.66 34.08 187.791 33.776 187.151 33.168C186.522 32.5493 186.207 31.648 186.207 30.464V25.584H187.343V30.352C187.343 31.2373 187.562 31.9093 187.999 32.368C188.436 32.8267 189.06 33.056 189.871 33.056C190.756 33.056 191.455 32.7893 191.967 32.256C192.479 31.712 192.735 30.96 192.735 30V25.584H193.871ZM201.485 33.488C201.271 33.68 201.005 33.8293 200.685 33.936C200.375 34.032 200.05 34.08 199.709 34.08C198.919 34.08 198.311 33.8667 197.885 33.44C197.458 33.0133 197.245 32.4107 197.245 31.632V26.544H195.741V25.584H197.245V23.744H198.381V25.584H200.941V26.544H198.381V31.568C198.381 32.0693 198.503 32.4533 198.749 32.72C199.005 32.976 199.367 33.104 199.837 33.104C200.071 33.104 200.295 33.0667 200.509 32.992C200.733 32.9173 200.925 32.8107 201.085 32.672L201.485 33.488ZM214.812 25.584L210.604 35.008C210.263 35.7973 209.868 36.3573 209.42 36.688C208.972 37.0187 208.434 37.184 207.804 37.184C207.399 37.184 207.02 37.12 206.668 36.992C206.316 36.864 206.012 36.672 205.756 36.416L206.284 35.568C206.711 35.9947 207.223 36.208 207.82 36.208C208.204 36.208 208.53 36.1013 208.796 35.888C209.074 35.6747 209.33 35.312 209.564 34.8L209.932 33.984L206.172 25.584H207.356L210.524 32.736L213.692 25.584H214.812ZM219.618 34.08C218.807 34.08 218.076 33.8987 217.426 33.536C216.775 33.1627 216.263 32.6507 215.89 32C215.516 31.3493 215.33 30.6133 215.33 29.792C215.33 28.9707 215.516 28.2347 215.89 27.584C216.263 26.9333 216.775 26.4267 217.426 26.064C218.076 25.7013 218.807 25.52 219.618 25.52C220.428 25.52 221.159 25.7013 221.81 26.064C222.46 26.4267 222.967 26.9333 223.33 27.584C223.703 28.2347 223.89 28.9707 223.89 29.792C223.89 30.6133 223.703 31.3493 223.33 32C222.967 32.6507 222.46 33.1627 221.81 33.536C221.159 33.8987 220.428 34.08 219.618 34.08ZM219.618 33.072C220.215 33.072 220.748 32.9387 221.218 32.672C221.698 32.3947 222.071 32.0053 222.338 31.504C222.604 31.0027 222.738 30.432 222.738 29.792C222.738 29.152 222.604 28.5813 222.338 28.08C222.071 27.5787 221.698 27.1947 221.218 26.928C220.748 26.6507 220.215 26.512 219.618 26.512C219.02 26.512 218.482 26.6507 218.002 26.928C217.532 27.1947 217.159 27.5787 216.882 28.08C216.615 28.5813 216.482 29.152 216.482 29.792C216.482 30.432 216.615 31.0027 216.882 31.504C217.159 32.0053 217.532 32.3947 218.002 32.672C218.482 32.9387 219.02 33.072 219.618 33.072ZM233.793 25.584V34H232.705V32.464C232.406 32.976 231.996 33.376 231.473 33.664C230.95 33.9413 230.353 34.08 229.681 34.08C228.582 34.08 227.713 33.776 227.073 33.168C226.444 32.5493 226.129 31.648 226.129 30.464V25.584H227.265V30.352C227.265 31.2373 227.484 31.9093 227.921 32.368C228.358 32.8267 228.982 33.056 229.793 33.056C230.678 33.056 231.377 32.7893 231.889 32.256C232.401 31.712 232.657 30.96 232.657 30V25.584H233.793ZM238.063 27.232C238.329 26.6667 238.724 26.24 239.247 25.952C239.78 25.664 240.436 25.52 241.215 25.52V26.624L240.943 26.608C240.057 26.608 239.364 26.88 238.863 27.424C238.361 27.968 238.111 28.7307 238.111 29.712V34H236.975V25.584H238.063V27.232ZM245.59 34.08C244.907 34.08 244.251 33.984 243.622 33.792C243.003 33.5893 242.518 33.3387 242.166 33.04L242.678 32.144C243.03 32.4213 243.473 32.6507 244.006 32.832C244.539 33.0027 245.094 33.088 245.67 33.088C246.438 33.088 247.003 32.9707 247.366 32.736C247.739 32.4907 247.926 32.1493 247.926 31.712C247.926 31.4027 247.825 31.1627 247.622 30.992C247.419 30.8107 247.163 30.6773 246.854 30.592C246.545 30.496 246.134 30.4053 245.622 30.32C244.939 30.192 244.39 30.064 243.974 29.936C243.558 29.7973 243.201 29.568 242.902 29.248C242.614 28.928 242.47 28.4853 242.47 27.92C242.47 27.216 242.763 26.64 243.35 26.192C243.937 25.744 244.753 25.52 245.798 25.52C246.342 25.52 246.886 25.5947 247.43 25.744C247.974 25.8827 248.422 26.0693 248.774 26.304L248.278 27.216C247.585 26.736 246.758 26.496 245.798 26.496C245.073 26.496 244.523 26.624 244.15 26.88C243.787 27.136 243.606 27.472 243.606 27.888C243.606 28.208 243.707 28.464 243.91 28.656C244.123 28.848 244.385 28.992 244.694 29.088C245.003 29.1733 245.43 29.264 245.974 29.36C246.646 29.488 247.185 29.616 247.59 29.744C247.995 29.872 248.342 30.0907 248.63 30.4C248.918 30.7093 249.062 31.136 249.062 31.68C249.062 32.416 248.753 33.0027 248.134 33.44C247.526 33.8667 246.678 34.08 245.59 34.08ZM258.49 30.144H251.45C251.514 31.0187 251.85 31.728 252.458 32.272C253.066 32.8053 253.834 33.072 254.762 33.072C255.285 33.072 255.765 32.9813 256.202 32.8C256.639 32.608 257.018 32.3307 257.338 31.968L257.978 32.704C257.605 33.152 257.135 33.4933 256.57 33.728C256.015 33.9627 255.402 34.08 254.73 34.08C253.866 34.08 253.098 33.8987 252.426 33.536C251.765 33.1627 251.247 32.6507 250.874 32C250.501 31.3493 250.314 30.6133 250.314 29.792C250.314 28.9707 250.49 28.2347 250.842 27.584C251.205 26.9333 251.695 26.4267 252.314 26.064C252.943 25.7013 253.647 25.52 254.426 25.52C255.205 25.52 255.903 25.7013 256.522 26.064C257.141 26.4267 257.626 26.9333 257.978 27.584C258.33 28.224 258.506 28.96 258.506 29.792L258.49 30.144ZM254.426 26.496C253.615 26.496 252.933 26.7573 252.378 27.28C251.834 27.792 251.525 28.464 251.45 29.296H257.418C257.343 28.464 257.029 27.792 256.474 27.28C255.93 26.7573 255.247 26.496 254.426 26.496ZM260.818 22.128H261.954V34H260.818V22.128ZM267.899 23.008C267.409 23.008 267.035 23.1413 266.779 23.408C266.534 23.6747 266.411 24.0693 266.411 24.592V25.584H269.003V26.544H266.443V34H265.307V26.544H263.803V25.584H265.307V24.544C265.307 23.776 265.526 23.168 265.963 22.72C266.411 22.272 267.041 22.048 267.851 22.048C268.171 22.048 268.481 22.096 268.779 22.192C269.078 22.2773 269.329 22.4053 269.531 22.576L269.147 23.424C268.817 23.1467 268.401 23.008 267.899 23.008Z" fill="#66429C"/>
</svg>
