<svg width="512" height="512" viewBox="0 0 512 512" fill="none" xmlns="http://www.w3.org/2000/svg">
<path d="M374.83 258.764C374.811 271.951 372.087 284.994 366.827 297.082C361.567 309.17 353.883 320.045 344.254 329.034L324.907 308.169C331.727 301.889 337.163 294.25 340.865 285.742C344.568 277.234 346.456 268.046 346.408 258.764C346.411 246.831 343.252 235.11 337.255 224.8C331.258 214.489 322.638 205.958 312.274 200.077C301.91 194.197 290.174 191.178 278.264 191.328C266.355 191.478 254.699 194.793 244.486 200.933L243.922 200.17C243.651 199.831 243.397 199.492 243.121 199.176C242.766 198.712 242.382 198.249 241.993 197.78C241.886 197.655 241.801 197.548 241.699 197.424C241.338 196.977 240.961 196.553 240.6 196.113C240.56 196.081 240.524 196.045 240.492 196.005L240.052 195.497L238.975 194.293C238.721 193.999 238.468 193.728 238.197 193.445C237.751 192.959 237.311 192.496 236.866 192.032C236.824 191.977 236.775 191.927 236.719 191.885C236.273 191.439 235.833 190.975 235.388 190.529C234.942 190.083 234.395 189.557 233.893 189.071C233.805 189.012 233.726 188.942 233.656 188.862C233.532 188.754 233.408 188.63 233.278 188.523L232.37 187.675C231.863 187.212 231.338 186.765 230.83 186.302C230.475 186.008 230.137 185.708 229.798 185.414C229.522 185.205 229.268 184.968 228.997 184.782C228.729 184.532 228.446 184.298 228.151 184.081L227.373 183.448C226.989 183.131 226.589 182.837 226.188 182.521C225.348 181.882 224.496 181.249 223.639 180.639C223.624 180.635 223.608 180.635 223.594 180.639C239.788 169.064 259.191 162.855 279.084 162.882C331.912 162.854 374.83 205.873 374.83 258.764Z" fill="#16144A"/>
<path d="M350.193 180.023L349.352 165.815L335.251 167.691C333.514 154.62 334.486 141.331 338.106 128.653C341.727 115.975 347.917 104.181 356.291 94.0083C364.665 83.8354 375.042 75.502 386.775 69.5286C398.508 63.5552 411.345 60.0702 424.483 59.2912L437.771 58.5L439.413 71.6848C441.141 84.7504 440.163 98.0328 436.54 110.703C432.917 123.373 426.726 135.159 418.354 145.325C409.982 155.491 399.608 163.818 387.881 169.788C376.154 175.758 363.324 179.242 350.193 180.023V180.023ZM411.634 90.165C398.54 93.9389 386.892 101.594 378.221 112.125C369.55 122.655 364.262 135.568 363.053 149.166C376.147 145.392 387.795 137.737 396.466 127.206C405.136 116.676 410.424 103.763 411.634 90.165V90.165Z" fill="#BCC532"/>
<path d="M244.444 200.933H244.501L244.309 200.679C244.185 200.515 244.061 200.345 243.931 200.181C243.66 199.842 243.407 199.503 243.13 199.187C242.775 198.723 242.391 198.26 242.002 197.791C241.895 197.666 241.81 197.559 241.709 197.435C241.348 196.988 240.97 196.564 240.609 196.124C240.569 196.092 240.533 196.056 240.502 196.016L240.062 195.508L238.985 194.304C238.731 194.01 238.477 193.739 238.206 193.456C237.761 192.97 237.321 192.507 236.875 192.043C236.833 191.987 236.784 191.938 236.728 191.896C236.283 191.45 235.843 190.986 235.397 190.54C234.952 190.093 234.405 189.568 233.903 189.082C233.815 189.023 233.735 188.953 233.666 188.873C233.542 188.765 233.417 188.641 233.288 188.534L232.38 187.686C231.872 187.223 231.347 186.776 230.84 186.313C230.484 186.019 230.146 185.719 229.808 185.425C229.531 185.216 229.277 184.979 229.007 184.792C228.738 184.543 228.456 184.309 228.161 184.092L227.382 183.459C226.999 183.142 226.598 182.848 226.198 182.532C225.357 181.893 224.506 181.26 223.648 180.65C223.634 180.646 223.618 180.646 223.603 180.65C212.128 172.433 198.976 166.87 185.096 164.362C183.517 164.08 181.926 163.843 180.319 163.639C179.523 163.543 178.734 163.441 177.933 163.362C171.425 162.699 164.868 162.699 158.36 163.362C157.56 163.441 156.77 163.543 155.98 163.639C154.373 163.843 152.776 164.08 151.203 164.362C106.457 172.399 72.4062 211.671 72.4062 258.77C72.4261 271.953 75.1488 284.992 80.4057 297.078C85.6625 309.164 93.3414 320.039 102.966 329.028L122.307 308.18C115.496 301.892 110.067 294.25 106.367 285.743C102.667 277.236 100.777 268.049 100.817 258.77C100.808 246.833 103.962 235.107 109.957 224.792C115.953 214.476 124.575 205.941 134.942 200.059C145.309 194.177 157.048 191.158 168.961 191.311C180.874 191.465 192.533 194.785 202.745 200.933V200.933C190.148 217.57 183.346 237.887 183.381 258.77C183.381 261.313 183.481 263.828 183.68 266.314C183.833 268.315 184.058 270.27 184.346 272.254C184.346 272.118 184.295 271.977 184.278 271.841C184.329 272.248 184.391 272.65 184.453 273.045C184.453 272.938 184.419 272.83 184.408 272.723C184.481 273.232 184.549 273.746 184.628 274.255C184.628 274.322 184.628 274.39 184.662 274.458C184.78 275.181 184.916 275.91 185.051 276.634L185.293 277.894C185.378 278.312 185.468 278.725 185.559 279.143C185.649 279.561 185.728 279.974 185.835 280.386C185.869 280.56 185.908 280.729 185.953 280.895C185.762 280.07 185.604 279.2 185.429 278.391C188.336 292.242 194.248 305.283 202.745 316.589C202.987 316.929 203.219 317.29 203.478 317.618C203.597 317.771 203.709 317.923 203.834 318.076C204.307 318.675 204.781 319.268 205.261 319.85C206.332 321.146 207.434 322.412 208.566 323.648C209.13 324.264 209.694 324.874 210.258 325.473C210.822 326.073 211.431 326.672 212.029 327.265C212.926 328.147 213.84 329.017 214.77 329.859C215.701 330.701 216.649 331.554 217.59 332.334C218.233 332.899 218.876 333.408 219.536 333.922C220.196 334.437 220.856 334.968 221.522 335.465C222.187 335.962 222.87 336.465 223.547 336.957C224.224 336.464 224.899 335.966 225.572 335.465C226.237 334.968 226.903 334.448 227.557 333.922C228.076 333.521 228.584 333.097 229.091 332.679L229.655 332.187C230.219 331.701 230.812 331.198 231.387 330.69C231.962 330.181 232.628 329.559 233.243 328.994C233.857 328.429 234.461 327.864 235.059 327.254C235.657 326.643 236.249 326.072 236.83 325.462C237.411 324.852 237.992 324.253 238.55 323.637C239.109 323.021 239.678 322.393 240.242 321.755C240.806 321.116 241.337 320.483 241.867 319.839C242.397 319.195 242.82 318.663 243.294 318.064C243.412 317.906 243.531 317.759 243.655 317.607C243.779 317.454 243.965 317.109 244.377 316.572C244.495 316.431 244.602 316.279 244.715 316.132C245.2 315.482 245.685 314.815 246.159 314.137C246.633 313.459 247 312.933 247.411 312.317C247.496 312.204 247.569 312.085 247.643 311.967C248.02 311.401 248.381 310.836 248.771 310.271C248.878 310.113 248.985 309.949 249.081 309.779C249.453 309.18 249.825 308.57 250.209 307.965C250.626 307.259 251.038 306.558 251.433 305.846C251.828 305.134 252.228 304.416 252.617 303.687C252.615 303.676 252.615 303.664 252.617 303.653C253.746 301.5 254.806 299.296 255.776 297.069C262.593 281.484 265.137 264.358 263.146 247.459C261.154 230.559 254.698 214.498 244.444 200.933ZM184.385 272.537C184.664 274.443 184.996 276.327 185.384 278.188C185 276.323 184.662 274.435 184.385 272.537ZM223.614 220.622C231.316 231.853 235.441 245.157 235.448 258.783C235.455 272.409 231.343 285.718 223.654 296.956V296.922C215.961 285.694 211.843 272.395 211.843 258.775C211.843 245.156 215.961 231.856 223.654 220.628L223.614 220.622Z" fill="#00A3A7"/>
<path d="M263.1 271.136C263.145 270.808 263.179 270.475 263.219 270.141C263.157 270.661 263.083 271.193 263.016 271.718C263.021 271.526 263.055 271.328 263.1 271.136Z" fill="#00A3A7"/>
<path d="M80.7225 435.151V402.328L68.8776 426.194H62.1091L50.2361 402.328V435.151H37.5508V380.332H51.2739L65.4595 408.985L79.7185 380.332H93.3627V435.151H80.7225Z" fill="#16144A"/>
<path d="M103.153 441.256C104.092 441.595 105.058 441.854 106.04 442.03C106.843 442.174 107.656 442.252 108.471 442.262C109.13 442.296 109.787 442.173 110.39 441.905C110.993 441.637 111.524 441.231 111.94 440.719C112.758 439.684 113.508 437.831 114.197 435.152L98.7812 394.603H111.5L120.903 424.556L128.997 394.603H140.565L125.145 441.719C124.118 445.051 122.035 447.957 119.211 449.997C116.388 452.036 112.978 453.098 109.498 453.022C108.451 453.02 107.405 452.93 106.373 452.751C105.281 452.558 104.211 452.26 103.175 451.863L103.153 441.256Z" fill="#16144A"/>
<path d="M174.772 380.315H186.177L206.144 435.134H193.171L188.935 422.853H171.918L167.778 435.151H154.805L174.772 380.315ZM186.876 414.144L180.474 394.777L173.92 414.167L186.876 414.144Z" fill="#16144A"/>
<path d="M212.233 435.152V407.268H207.066V397.926H212.233V394.603C212.203 392.273 212.542 389.954 213.237 387.731C213.828 385.805 214.799 384.018 216.091 382.475C217.308 381.042 218.836 379.907 220.558 379.157C222.383 378.369 224.353 377.974 226.34 377.999C229.986 378.077 233.579 378.89 236.904 380.389L234.648 389.658C233.765 389.279 232.849 388.982 231.912 388.771C230.988 388.549 230.042 388.433 229.092 388.426C226.061 388.426 224.546 390.33 224.546 394.139V397.926H233.949V407.268H224.569V435.152H212.233Z" fill="#16144A"/>
<path d="M239.602 441.256C240.543 441.595 241.511 441.854 242.495 442.03C243.296 442.174 244.107 442.252 244.921 442.262C245.579 442.296 246.236 442.173 246.839 441.905C247.442 441.637 247.973 441.231 248.39 440.719C249.213 439.686 249.965 437.831 250.646 435.152L235.23 394.603H247.927L257.335 424.556L265.429 394.603H276.992L261.571 441.719C260.544 445.051 258.461 447.957 255.638 449.997C252.815 452.036 249.405 453.098 245.925 453.022C244.877 453.02 243.832 452.93 242.8 452.751C241.708 452.558 240.637 452.26 239.602 451.863V441.256Z" fill="#16144A"/>
<path d="M292.335 435.925C290.429 435.943 288.535 435.615 286.745 434.959C285.126 434.381 283.639 433.483 282.374 432.318C281.108 431.153 280.09 429.745 279.379 428.177C278.661 426.559 278.303 424.804 278.329 423.034C278.304 421.129 278.742 419.245 279.604 417.547C280.467 415.882 281.691 414.431 283.186 413.303C284.835 412.062 286.689 411.121 288.663 410.522C290.934 409.826 293.299 409.487 295.674 409.516C297.328 409.512 298.98 409.654 300.609 409.94C302.048 410.174 303.448 410.604 304.772 411.217V409.358C304.772 404.675 302.074 402.331 296.678 402.327C294.52 402.322 292.378 402.705 290.355 403.458C288.123 404.323 286.002 405.452 284.038 406.82L280.411 399.095C282.983 397.385 285.787 396.053 288.736 395.139C291.713 394.248 294.806 393.804 297.913 393.822C304.027 393.822 308.756 395.265 312.099 398.151C315.441 401.037 317.111 405.259 317.107 410.816V421.243C317.107 422.48 317.299 423.345 317.671 423.831C317.936 424.109 318.254 424.33 318.605 424.483C318.957 424.635 319.336 424.715 319.719 424.718V435.145C318.755 435.386 317.775 435.554 316.786 435.648C315.913 435.727 315.118 435.767 314.4 435.767C312.087 435.767 310.339 435.317 309.154 434.416C307.942 433.476 307.135 432.107 306.898 430.59L306.667 428.737C304.954 430.98 302.753 432.803 300.231 434.066C297.78 435.295 295.076 435.931 292.335 435.925V435.925ZM295.956 427.041C297.284 427.043 298.602 426.807 299.848 426.346C301.003 425.945 302.066 425.315 302.972 424.492C304.149 423.566 304.74 422.588 304.744 421.559V417.699C303.606 417.271 302.432 416.947 301.235 416.733C300.079 416.51 298.904 416.393 297.727 416.383C295.75 416.3 293.796 416.842 292.143 417.931C291.465 418.357 290.908 418.949 290.523 419.651C290.138 420.353 289.938 421.142 289.943 421.944C289.925 422.645 290.069 423.341 290.362 423.978C290.656 424.615 291.091 425.176 291.635 425.617C292.856 426.599 294.391 427.105 295.956 427.041V427.041Z" fill="#16144A"/>
<path d="M374.127 380.315V435.134H361.481V412.675H339.664V435.151H327.023V380.332H339.664V401.558H361.481V380.315H374.127Z" fill="#16144A"/>
<path d="M395.862 435.926C391.699 435.926 388.552 434.626 386.42 432.027C384.287 429.427 383.227 425.603 383.238 420.554V394.603H395.574V417.853C395.574 420.321 396.063 422.205 397.04 423.504C397.52 424.15 398.15 424.667 398.876 425.01C399.602 425.353 400.401 425.511 401.203 425.471C402.883 425.461 404.53 425.009 405.981 424.16C407.526 423.286 408.889 421.766 410.07 419.599V394.603H422.383V421.25C422.383 422.487 422.575 423.352 422.947 423.838C423.209 424.115 423.523 424.337 423.872 424.49C424.221 424.643 424.597 424.725 424.977 424.731V435.158C423.987 435.388 422.983 435.556 421.971 435.661C421.148 435.74 420.396 435.779 419.715 435.779C415.293 435.779 412.773 434.054 412.157 430.603L411.926 428.133C410.21 430.698 407.823 432.741 405.027 434.039C402.144 435.323 399.017 435.967 395.862 435.926Z" fill="#16144A"/>
<path d="M456.228 435.926C453.396 435.994 450.595 435.316 448.106 433.959C445.808 432.659 443.914 430.745 442.635 428.432V435.152H431.918V378.767H444.254V401.243C445.53 398.988 447.379 397.11 449.612 395.801C451.907 394.561 454.464 393.886 457.071 393.832C459.678 393.778 462.26 394.346 464.604 395.49C466.752 396.588 468.643 398.129 470.154 400.011C471.761 402.034 472.99 404.332 473.781 406.793C474.667 409.47 475.109 412.274 475.09 415.095C475.113 417.901 474.63 420.689 473.663 423.323C472.781 425.768 471.441 428.022 469.714 429.964C468.033 431.822 465.986 433.312 463.702 434.338C461.355 435.403 458.805 435.945 456.228 435.926V435.926ZM452.759 425.499C454.069 425.519 455.369 425.259 456.571 424.737C457.773 424.215 458.85 423.442 459.731 422.47C460.601 421.512 461.282 420.398 461.739 419.186C462.236 417.867 462.485 416.466 462.472 415.055C462.478 413.649 462.243 412.251 461.778 410.924C461.353 409.677 460.713 408.515 459.889 407.488C459.101 406.517 458.114 405.727 456.995 405.171C455.873 404.603 454.632 404.31 453.374 404.317C451.405 404.324 449.504 405.038 448.016 406.329C446.388 407.68 445.106 409.401 444.276 411.348V419.825C445.051 421.52 446.296 422.957 447.863 423.962C449.312 424.94 451.013 425.474 452.759 425.499V425.499Z" fill="#16144A"/>
</svg>
