<svg width="70" height="70" viewBox="0 0 70 70" fill="none" xmlns="http://www.w3.org/2000/svg">
<circle cx="35" cy="35" r="35" fill="#DCE3FE"/>
<defs>
<clipPath id="clip0">
<rect width="48" height="48" fill="white" transform="translate(11 11)"/>
</clipPath>
</defs>
<g clip-path="url(#clip0)">
<path d="M53.3728 43.0541C52.0827 46.5506 50.1315 49.5909 47.5728 52.0896C44.6603 54.9336 40.8466 57.1935 36.2374 58.8055C36.0862 58.8583 35.9283 58.9015 35.7698 58.9333C35.5603 58.9747 35.3472 58.9971 35.1359 59H35.0945C34.8693 59 34.6429 58.9773 34.4185 58.9333C34.2599 58.9015 34.1042 58.8583 33.9537 58.8066C29.3391 57.1971 25.5206 54.9383 22.6052 52.0943C20.0454 49.5957 18.0946 46.5572 16.8063 43.0607C14.4636 36.7032 14.5969 29.6998 14.7042 24.0719L14.706 23.9855C14.7276 23.5207 14.7416 23.0326 14.7493 22.4935C14.7884 19.8469 16.8927 17.6573 19.5397 17.5097C25.0585 17.2018 29.3278 15.4018 32.9756 11.8463L33.0074 11.817C33.6132 11.2614 34.3763 10.989 35.1359 11.0003C35.8683 11.0099 36.5978 11.282 37.1819 11.817L37.213 11.8463C40.8616 15.4018 45.1309 17.2018 50.6497 17.5097C53.2966 17.6573 55.4009 19.8469 55.4401 22.4935C55.4478 23.0362 55.4617 23.5237 55.4833 23.9855L55.4844 24.0221C55.5913 29.6606 55.7239 36.678 53.3728 43.0541Z" fill="#7948B0"/>
<path d="M53.1579 43.054C51.8733 46.5506 49.9306 49.5909 47.383 52.0895C44.4831 54.9336 40.6859 57.1935 36.0968 58.8055C35.9462 58.8583 35.789 58.9015 35.6312 58.9333C35.4226 58.9747 35.2104 58.9971 35 59V11C35.7292 11.0095 36.4556 11.2816 37.0372 11.8167L37.0681 11.846C40.7009 15.4015 44.9517 17.2015 50.4465 17.5094C53.082 17.657 55.1772 19.8466 55.2162 22.4933C55.2238 23.036 55.2377 23.5234 55.2592 23.9852L55.2603 24.0218C55.3668 29.6604 55.4988 36.6778 53.1579 43.054Z" fill="#533278"/>
<path d="M34.9631 46.9262C41.5701 46.9262 46.9262 41.5701 46.9262 34.9631C46.9262 28.3561 41.5701 23 34.9631 23C28.3561 23 23 28.3561 23 34.9631C23 41.5701 28.3561 46.9262 34.9631 46.9262Z" fill="#739A00"/>
<path d="M46.9206 34.9627C46.9206 41.5446 41.5764 46.9023 35 46.9257V23C41.5764 23.0234 46.9206 28.3811 46.9206 34.9627Z" fill="#597700"/>
<path d="M43.2772 33.4155C43.6454 33.0555 43.4409 32.4254 42.9335 32.3518L38.2121 31.6644C38.0076 31.6317 37.8357 31.509 37.7457 31.3208L35.6346 27.0412C35.4055 26.5748 34.7427 26.5748 34.5136 27.0412L32.4106 31.3208C32.3206 31.5008 32.1406 31.6317 31.9442 31.6644L27.2228 32.3518C26.7155 32.4254 26.5109 33.0555 26.8791 33.4155L30.2913 36.7459C30.4386 36.8932 30.504 37.0977 30.4713 37.2941L29.6694 41.991C29.5794 42.4983 30.1195 42.8911 30.5777 42.6456L34.7999 40.4281C34.98 40.3299 35.2009 40.3299 35.3809 40.4281L39.6032 42.6456C40.0614 42.8829 40.5933 42.4983 40.5115 41.991L39.7014 37.2941C39.6686 37.0896 39.7341 36.885 39.8814 36.7459L43.2772 33.4155Z" fill="white"/>
</g>
</svg>
