<svg width="224" height="227" viewBox="0 0 224 227" fill="none" xmlns="http://www.w3.org/2000/svg">
<path d="M111.673 227C173.348 227 223.346 198.134 223.346 162.526C223.346 126.919 173.348 98.0529 111.673 98.0529C49.9976 98.0529 0 126.919 0 162.526C0 198.134 49.9976 227 111.673 227Z" fill="#F5F5F5"/>
<path d="M95.1666 153.505C107.795 153.505 118.032 147.593 118.032 140.301C118.032 133.009 107.795 127.097 95.1666 127.097C82.5382 127.097 72.3008 133.009 72.3008 140.301C72.3008 147.593 82.5382 153.505 95.1666 153.505Z" fill="#E0E0E0"/>
<path d="M183.386 177.902C195.68 185 195.68 196.492 183.386 203.605C171.093 210.718 151.157 210.708 138.868 203.605C126.579 196.502 126.574 185.015 138.868 177.897C151.162 170.779 171.093 170.793 183.386 177.902Z" fill="#E0E0E0"/>
<path d="M68.5682 131.236L133.144 168.509C133.402 168.657 133.617 168.871 133.766 169.129C133.915 169.386 133.994 169.679 133.994 169.976C133.994 170.274 133.915 170.567 133.766 170.824C133.617 171.082 133.402 171.296 133.144 171.444L95.0444 193.459C94.2548 193.915 93.3588 194.156 92.4467 194.156C91.5346 194.156 90.6386 193.915 89.8489 193.459L25.2826 156.161C25.0232 156.014 24.8074 155.8 24.6574 155.543C24.5073 155.285 24.4282 154.992 24.4282 154.693C24.4282 154.395 24.5073 154.102 24.6574 153.844C24.8074 153.587 25.0232 153.373 25.2826 153.226L63.3874 131.211C64.1771 130.76 65.0716 130.525 65.9811 130.529C66.8905 130.534 67.7827 130.777 68.5682 131.236Z" fill="#E0E0E0"/>
<path d="M43.6819 158.969L88.4351 185.577C88.5955 185.671 88.7284 185.806 88.8207 185.967C88.9131 186.128 88.9617 186.311 88.9617 186.497C88.9617 186.683 88.9131 186.866 88.8207 187.027C88.7284 187.188 88.5955 187.323 88.4351 187.417L64.4637 201.247C63.9675 201.533 63.4048 201.683 62.8321 201.683C62.2595 201.683 61.6968 201.533 61.2006 201.247L16.4767 174.638C16.3152 174.545 16.181 174.411 16.0877 174.25C15.9944 174.088 15.9453 173.905 15.9453 173.719C15.9453 173.532 15.9944 173.349 16.0877 173.188C16.181 173.026 16.3152 172.892 16.4767 172.799L40.4482 158.969C40.9409 158.688 41.4981 158.541 42.065 158.541C42.632 158.541 43.1892 158.688 43.6819 158.969Z" fill="#E0E0E0"/>
<path d="M125.914 104.623L202.72 148.945C203.265 149.26 203.884 149.426 204.513 149.426C205.143 149.426 205.761 149.26 206.306 148.945L211.13 146.162C211.319 146.053 211.476 145.897 211.585 145.708C211.695 145.52 211.752 145.306 211.752 145.088C211.752 144.87 211.695 144.656 211.585 144.467C211.476 144.279 211.319 144.123 211.13 144.014L134.377 99.7207C133.818 99.3964 133.184 99.2256 132.538 99.2256C131.892 99.2256 131.257 99.3964 130.698 99.7207L125.924 102.475C125.734 102.583 125.576 102.738 125.466 102.926C125.356 103.114 125.297 103.328 125.296 103.546C125.295 103.764 125.352 103.978 125.46 104.167C125.569 104.356 125.725 104.513 125.914 104.623Z" fill="#E0E0E0"/>
<path d="M131.584 102.373L206.218 145.463C206.485 145.618 206.788 145.7 207.096 145.7C207.404 145.701 207.707 145.62 207.975 145.466C208.242 145.312 208.464 145.091 208.618 144.824C208.773 144.558 208.855 144.255 208.855 143.947V45.6442C208.854 44.8052 208.632 43.9813 208.212 43.255C207.793 42.5286 207.189 41.9253 206.463 41.5054L135.15 0.318535C134.789 0.109836 134.379 -2.39614e-05 133.961 3.92009e-09C133.544 2.39693e-05 133.134 0.109931 132.773 0.318672C132.411 0.527412 132.111 0.82763 131.902 1.18914C131.694 1.55066 131.584 1.96073 131.584 2.37812V102.373Z" fill="#BA68C8"/>
<path opacity="0.5" d="M131.584 102.373L206.218 145.463C206.485 145.618 206.788 145.7 207.096 145.7C207.404 145.701 207.707 145.62 207.975 145.466C208.242 145.312 208.464 145.091 208.618 144.824C208.773 144.558 208.855 144.255 208.855 143.947V45.6442C208.854 44.8052 208.632 43.9813 208.212 43.255C207.793 42.5286 207.189 41.9253 206.463 41.5054L135.15 0.318535C134.789 0.109836 134.379 -2.39614e-05 133.961 3.92009e-09C133.544 2.39693e-05 133.134 0.109931 132.773 0.318672C132.411 0.527412 132.111 0.82763 131.902 1.18914C131.694 1.55066 131.584 1.96073 131.584 2.37812V102.373Z" fill="white"/>
<path d="M133.697 106.888L202.133 146.397V46.5047L133.697 6.99585V106.888Z" fill="#BA68C8"/>
<path opacity="0.8" d="M133.697 106.888L202.133 146.397V46.5047L133.697 6.99585V106.888Z" fill="white"/>
<path d="M127.015 98.9093L195.451 138.418L202.133 46.5047L133.697 6.99585L127.015 98.9093Z" fill="#BA68C8"/>
<path opacity="0.9" d="M127.015 98.9093L195.451 138.418L202.133 46.5047L133.697 6.99585L127.015 98.9093Z" fill="white"/>
<path d="M133.697 6.99615L202.133 46.505L204.726 45.008L136.29 5.49426L133.697 6.99615Z" fill="#BA68C8"/>
<path opacity="0.7" d="M133.697 6.99615L202.133 46.505L204.726 45.008L136.29 5.49426L133.697 6.99615Z" fill="white"/>
<path d="M204.726 45.0078V144.519L202.133 146.397V46.5048L204.726 45.0078Z" fill="#BA68C8"/>
<path d="M204.726 45.0078V144.519L202.133 146.397V46.5048L204.726 45.0078Z" fill="#BA68C8"/>
<path opacity="0.7" d="M204.726 45.0078V144.519L202.133 146.397V46.5048L204.726 45.0078Z" fill="white"/>
<path d="M183.299 59.4686C183.238 59.4761 183.178 59.4761 183.118 59.4686C183.014 59.4405 182.919 59.3887 182.839 59.3174C182.759 59.2461 182.697 59.1572 182.658 59.0577L180.623 53.9454C180.557 53.776 180.56 53.5875 180.633 53.4207C180.705 53.254 180.84 53.1226 181.009 53.055C181.093 53.0209 181.182 53.0038 181.272 53.0046C181.362 53.0053 181.451 53.024 181.534 53.0595C181.617 53.095 181.692 53.1466 181.755 53.2114C181.817 53.2761 181.867 53.3527 181.899 53.4366L183.592 57.6879L193.332 49.9534C193.403 49.8948 193.485 49.851 193.573 49.8246C193.661 49.7983 193.753 49.7898 193.844 49.7999C193.936 49.8099 194.024 49.8382 194.104 49.8831C194.184 49.928 194.255 49.9885 194.311 50.061C194.368 50.1323 194.411 50.2141 194.436 50.3019C194.462 50.3897 194.47 50.4817 194.46 50.5726C194.45 50.6635 194.422 50.7515 194.378 50.8317C194.334 50.9118 194.275 50.9824 194.203 51.0395L183.739 59.3561C183.609 59.443 183.454 59.4827 183.299 59.4686Z" fill="#BA68C8"/>
<path d="M171.924 48.4482C171.805 48.448 171.687 48.4178 171.582 48.3602L142.767 31.7269C142.61 31.6354 142.495 31.4851 142.448 31.3089C142.401 31.1328 142.426 30.9453 142.518 30.7876C142.609 30.63 142.76 30.5151 142.936 30.4683C143.112 30.4216 143.3 30.4467 143.457 30.5381L172.272 47.1714C172.405 47.2461 172.509 47.363 172.568 47.5036C172.627 47.6442 172.637 47.8004 172.597 47.9475C172.557 48.0946 172.469 48.2242 172.348 48.3158C172.226 48.4074 172.077 48.4557 171.924 48.4531V48.4482Z" fill="#BA68C8"/>
<path d="M171.264 54.3615C171.144 54.3618 171.025 54.3297 170.922 54.2685L142.107 37.6352C141.949 37.5438 141.834 37.3934 141.788 37.2173C141.741 37.0411 141.766 36.8536 141.857 36.696C141.949 36.5383 142.099 36.4235 142.275 36.3767C142.452 36.3299 142.639 36.355 142.797 36.4465L171.611 53.0797C171.744 53.1544 171.848 53.2713 171.907 53.4119C171.966 53.5525 171.977 53.7087 171.937 53.8558C171.897 54.0029 171.809 54.1325 171.687 54.2241C171.565 54.3157 171.416 54.364 171.264 54.3615Z" fill="#BA68C8"/>
<path d="M187.892 66.9596C187.58 66.9594 187.273 66.8785 187.002 66.7248L178.093 61.7984C177.451 61.4464 176.924 60.9157 176.577 60.2706C176.23 59.6256 176.077 58.8937 176.136 58.1636L176.983 48.2276C177.011 47.9204 177.116 47.6253 177.288 47.3691C177.46 47.113 177.693 46.904 177.967 46.7614C178.24 46.6188 178.545 46.5471 178.854 46.5528C179.162 46.5585 179.464 46.6415 179.732 46.7942L189.101 52.2049C189.545 52.4643 189.908 52.8425 190.15 53.2972C190.391 53.7518 190.5 54.2647 190.466 54.7782L189.702 65.2523C189.68 65.5574 189.58 65.8518 189.413 66.1083C189.247 66.3648 189.018 66.5752 188.748 66.7199C188.487 66.8677 188.193 66.9499 187.892 66.9596ZM178.837 47.9243C178.721 47.9238 178.609 47.9667 178.523 48.0445C178.437 48.1224 178.383 48.2296 178.372 48.345L177.526 58.281C177.486 58.7446 177.581 59.2099 177.8 59.6205C178.018 60.0312 178.351 60.3697 178.759 60.5949L187.667 65.5262C187.736 65.5614 187.812 65.5798 187.89 65.5798C187.967 65.5798 188.044 65.5614 188.112 65.5262C188.18 65.4894 188.238 65.436 188.28 65.371C188.322 65.306 188.347 65.2315 188.352 65.1544L189.115 54.6803C189.132 54.4246 189.078 54.1693 188.957 53.9429C188.837 53.7165 188.657 53.528 188.435 53.3986L179.062 47.9879C178.995 47.9456 178.916 47.9235 178.837 47.9243Z" fill="#BA68C8"/>
<path d="M169.889 72.9268C169.769 72.9266 169.651 72.8946 169.547 72.8338L140.732 56.2006C140.575 56.1091 140.46 55.9587 140.413 55.7826C140.366 55.6064 140.391 55.4189 140.483 55.2613C140.574 55.1036 140.725 54.9888 140.901 54.942C141.077 54.8952 141.264 54.9203 141.422 55.0118L170.237 71.645C170.37 71.7198 170.474 71.8366 170.533 71.9772C170.591 72.1178 170.602 72.274 170.562 72.4211C170.522 72.5682 170.434 72.6978 170.312 72.7894C170.191 72.881 170.042 72.9293 169.889 72.9268Z" fill="#BA68C8"/>
<path d="M169.229 78.8379C169.108 78.8378 168.99 78.8057 168.886 78.7449L140.072 62.1117C139.994 62.0664 139.925 62.0062 139.87 61.9345C139.816 61.8627 139.775 61.7809 139.752 61.6937C139.729 61.6065 139.723 61.5156 139.735 61.4261C139.747 61.3367 139.777 61.2504 139.822 61.1724C139.867 61.0943 139.928 61.026 139.999 60.9712C140.071 60.9164 140.153 60.8763 140.24 60.8531C140.327 60.8299 140.418 60.8242 140.508 60.8362C140.597 60.8481 140.683 60.8776 140.761 60.9229L169.576 77.5562C169.709 77.6309 169.813 77.7478 169.872 77.8883C169.931 78.0289 169.941 78.1851 169.901 78.3322C169.861 78.4793 169.774 78.609 169.652 78.7005C169.53 78.7921 169.381 78.8405 169.229 78.8379Z" fill="#BA68C8"/>
<path d="M185.857 91.4349C185.546 91.4334 185.24 91.3544 184.967 91.2049L176.058 86.2737C175.416 85.9221 174.888 85.3916 174.541 84.7464C174.194 84.1012 174.041 83.3691 174.102 82.6388L174.982 72.7225C175.009 72.4147 175.113 72.1187 175.285 71.8618C175.457 71.6049 175.69 71.3954 175.964 71.2526C176.238 71.1097 176.544 71.0382 176.852 71.0446C177.161 71.051 177.464 71.135 177.732 71.2891L187.1 76.6998C187.544 76.9579 187.908 77.3352 188.149 77.7891C188.39 78.243 188.5 78.7553 188.465 79.2681L187.702 89.7324C187.667 90.1945 187.46 90.6265 187.12 90.9421C186.781 91.2577 186.335 91.4337 185.872 91.4349H185.857ZM176.802 72.3996C176.727 72.4008 176.653 72.4192 176.587 72.4534C176.517 72.4886 176.457 72.5413 176.413 72.6065C176.369 72.6716 176.343 72.747 176.337 72.8252L175.471 82.7562C175.431 83.2198 175.526 83.6851 175.745 84.0958C175.964 84.5065 176.297 84.845 176.704 85.0702L185.613 90.0015C185.68 90.0406 185.757 90.0611 185.835 90.0611C185.913 90.0611 185.99 90.0406 186.058 90.0015C186.127 89.9662 186.186 89.9132 186.228 89.8479C186.27 89.7826 186.294 89.7073 186.298 89.6297L187.061 79.1556C187.078 78.8999 187.023 78.6445 186.903 78.4181C186.783 78.1917 186.602 78.0033 186.381 77.8739L177.007 72.4632C176.946 72.4243 176.875 72.4024 176.802 72.3996Z" fill="#BA68C8"/>
<path d="M181.523 83.7198C181.463 83.7269 181.402 83.7269 181.342 83.7198C181.239 83.6917 181.143 83.6399 181.063 83.5686C180.984 83.4972 180.921 83.4083 180.882 83.3089L178.847 78.2015C178.794 78.035 178.807 77.8547 178.883 77.6975C178.959 77.5403 179.092 77.4179 179.255 77.3554C179.418 77.293 179.599 77.2951 179.76 77.3615C179.922 77.4278 180.052 77.5532 180.124 77.7122L181.831 81.9195L191.557 74.1899C191.7 74.093 191.876 74.0539 192.047 74.0803C192.219 74.1068 192.374 74.1969 192.482 74.3327C192.59 74.4684 192.643 74.6399 192.63 74.8129C192.617 74.9859 192.539 75.1478 192.413 75.2662L181.948 83.5828C181.826 83.6748 181.676 83.723 181.523 83.7198Z" fill="#BA68C8"/>
<path d="M167.859 97.4035C167.739 97.4038 167.621 97.3717 167.517 97.3106L138.697 80.6773C138.546 80.5823 138.438 80.4324 138.395 80.2591C138.352 80.0858 138.377 79.9026 138.467 79.748C138.556 79.5934 138.702 79.4794 138.874 79.4301C139.045 79.3808 139.229 79.4 139.387 79.4836L168.202 96.1169C168.334 96.1914 168.438 96.3079 168.497 96.4479C168.556 96.588 168.567 96.7437 168.528 96.8905C168.488 97.0374 168.401 97.167 168.28 97.2589C168.159 97.3509 168.011 97.4001 167.859 97.3986V97.4035Z" fill="#BA68C8"/>
<path d="M167.199 103.318C167.077 103.317 166.957 103.285 166.851 103.225L138.037 86.5913C137.959 86.546 137.89 86.4858 137.835 86.4141C137.781 86.3423 137.741 86.2605 137.717 86.1733C137.694 86.0861 137.688 85.9952 137.7 85.9057C137.712 85.8163 137.742 85.7301 137.787 85.652C137.832 85.5739 137.893 85.5056 137.964 85.4508C138.036 85.396 138.118 85.3559 138.205 85.3327C138.292 85.3096 138.383 85.3038 138.473 85.3158C138.562 85.3277 138.648 85.3572 138.726 85.4025L167.541 102.036C167.672 102.112 167.775 102.229 167.833 102.369C167.891 102.509 167.901 102.664 167.862 102.81C167.823 102.956 167.737 103.086 167.617 103.178C167.497 103.271 167.35 103.322 167.199 103.322V103.318Z" fill="#BA68C8"/>
<path d="M183.822 115.91C183.512 115.912 183.207 115.832 182.937 115.68L174.004 110.749C173.361 110.397 172.834 109.866 172.487 109.221C172.14 108.576 171.987 107.844 172.047 107.114L172.898 97.1829C172.923 96.8754 173.026 96.5794 173.198 96.3227C173.369 96.0659 173.602 95.8569 173.877 95.7153C174.151 95.5731 174.456 95.5022 174.765 95.509C175.073 95.5158 175.375 95.6002 175.643 95.7544L185.011 101.165C185.455 101.425 185.818 101.803 186.058 102.258C186.298 102.713 186.407 103.225 186.371 103.738L185.608 114.212C185.584 114.517 185.484 114.811 185.318 115.068C185.151 115.324 184.923 115.535 184.654 115.68C184.399 115.821 184.114 115.9 183.822 115.91ZM174.767 96.8796C174.692 96.8793 174.619 96.8961 174.552 96.9285C174.483 96.9662 174.425 97.0196 174.382 97.0842C174.338 97.1489 174.311 97.223 174.302 97.3004L173.456 107.231C173.415 107.695 173.51 108.161 173.729 108.571C173.948 108.982 174.281 109.321 174.689 109.545L183.602 114.477C183.669 114.515 183.745 114.536 183.822 114.537C183.9 114.538 183.976 114.519 184.044 114.482C184.112 114.445 184.17 114.392 184.211 114.327C184.253 114.262 184.277 114.187 184.282 114.11L185.045 103.631C185.063 103.375 185.009 103.119 184.889 102.892C184.769 102.666 184.587 102.478 184.365 102.349L174.982 96.9383C174.916 96.9024 174.842 96.8824 174.767 96.8796Z" fill="#BA68C8"/>
<path d="M183.343 40.8494C182.828 40.8514 182.322 40.7182 181.875 40.4629L169.601 33.5308C169.465 33.4542 169.359 33.3333 169.302 33.1883C168.709 31.6573 167.65 30.3514 166.274 29.4556C165.785 29.1621 164.503 28.5799 163.828 29.5632C163.728 29.701 163.582 29.7975 163.416 29.8344C163.25 29.8714 163.076 29.8463 162.928 29.7638L152.351 23.8248C151.757 23.4816 151.263 22.9882 150.919 22.394C150.576 21.7998 150.395 21.1257 150.394 20.4394V12.9153C150.395 12.0989 150.629 11.2997 151.069 10.6122C151.51 9.92474 152.138 9.37772 152.879 9.03583C152.979 8.9897 153.089 8.96829 153.198 8.9734C153.308 8.97851 153.415 9.00999 153.51 9.06519L187.491 28.8098C187.601 28.873 187.692 28.9657 187.753 29.0774C187.813 29.1891 187.842 29.3156 187.835 29.4425C187.828 29.5695 187.785 29.6919 187.712 29.7962C187.64 29.9005 187.539 29.9824 187.423 30.0329C187.1 30.1746 186.825 30.4074 186.632 30.7028C186.439 30.9982 186.336 31.3434 186.337 31.6962V37.8701C186.341 38.3898 186.208 38.9014 185.95 39.3527C185.692 39.8039 185.319 40.1786 184.869 40.4384C184.406 40.7104 183.879 40.8523 183.343 40.8494ZM170.462 32.4496L182.555 39.2643C182.798 39.4021 183.074 39.4736 183.354 39.4716C183.633 39.4697 183.908 39.3944 184.149 39.2533C184.391 39.1122 184.591 38.9103 184.73 38.6675C184.87 38.4248 184.943 38.1499 184.942 37.8701V31.6962C184.942 30.8597 185.27 30.0567 185.857 29.4605L153.129 10.4448C152.713 10.7047 152.368 11.0648 152.127 11.4921C151.886 11.9194 151.756 12.4003 151.749 12.8908V20.4394C151.75 20.8843 151.868 21.3211 152.092 21.7052C152.317 22.0894 152.639 22.4072 153.026 22.6262L163.089 28.2962C164.043 27.4547 165.486 27.4254 166.944 28.2668C168.521 29.2638 169.75 30.7252 170.462 32.4496Z" fill="#BA68C8"/>
<path d="M98.7184 119.372L92.8478 155.27C92.8049 155.533 92.6701 155.771 92.4676 155.943C92.2651 156.115 92.008 156.21 91.7422 156.21C91.5846 156.21 91.4288 156.177 91.2848 156.113C91.1408 156.049 91.012 155.955 90.9067 155.838C90.8015 155.72 90.7221 155.582 90.6739 155.432C90.6256 155.282 90.6096 155.124 90.6268 154.967L94.7558 117.934L98.7184 119.372Z" fill="#263238"/>
<path d="M78.4108 107.3L72.5402 143.198C72.4983 143.46 72.3646 143.698 72.1628 143.87C71.9611 144.043 71.7047 144.137 71.4395 144.137C71.2819 144.138 71.126 144.105 70.982 144.041C70.8381 143.976 70.7093 143.883 70.604 143.765C70.4987 143.648 70.4194 143.51 70.3711 143.36C70.3229 143.21 70.3069 143.051 70.3241 142.895L74.453 105.856L78.4108 107.3Z" fill="#263238"/>
<path d="M107.749 110.977L113.556 141.915C113.61 142.15 113.751 142.356 113.951 142.49C114.152 142.624 114.396 142.676 114.633 142.636C114.871 142.596 115.084 142.467 115.229 142.274C115.375 142.082 115.441 141.842 115.415 141.602L111.129 112.929L107.749 110.977Z" fill="#263238"/>
<path d="M87.2119 99.4375L92.9846 130.185C93.0248 130.401 93.1399 130.597 93.3099 130.737C93.4798 130.878 93.6937 130.954 93.9141 130.953C94.0495 130.952 94.1831 130.922 94.306 130.865C94.4289 130.809 94.5383 130.727 94.6268 130.624C94.7153 130.522 94.7808 130.402 94.8191 130.272C94.8573 130.142 94.8674 130.005 94.8485 129.871L90.5924 101.385L87.2119 99.4375Z" fill="#263238"/>
<path d="M88.8798 97.099C90.2167 96.5125 91.374 95.5817 92.2335 94.4016C93.093 93.2215 93.6239 91.8345 93.7719 90.3821C94.7063 80.9647 98.0232 61.5527 109.27 68.0152C123.144 75.9894 118.179 99.1537 116.158 106.58C115.707 108.253 114.829 109.78 113.61 111.012C111.1 113.541 105.909 117.891 97.0839 121.589C95.9991 122.046 94.791 122.118 93.6594 121.794C89.2565 120.547 77.8187 116.707 72.1047 109.403C71.7804 108.988 71.6333 108.462 71.6957 107.94C71.758 107.417 72.0246 106.941 72.4373 106.614C74.7317 104.775 79.9565 101.096 88.8798 97.099Z" fill="#BA68C8"/>
<path opacity="0.5" d="M88.8798 97.099C90.2167 96.5125 91.374 95.5817 92.2335 94.4016C93.093 93.2215 93.6239 91.8345 93.7719 90.3821C94.7063 80.9647 98.0232 61.5527 109.27 68.0152C123.144 75.9894 118.179 99.1537 116.158 106.58C115.707 108.253 114.829 109.78 113.61 111.012C111.1 113.541 105.909 117.891 97.0839 121.589C95.9991 122.046 94.791 122.118 93.6594 121.794C89.2565 120.547 77.8187 116.707 72.1047 109.403C71.7804 108.988 71.6333 108.462 71.6957 107.94C71.758 107.417 72.0246 106.941 72.4373 106.614C74.7317 104.775 79.9565 101.096 88.8798 97.099Z" fill="black"/>
<path d="M71.6742 108.077C71.6446 108.554 71.7907 109.026 72.0851 109.402C72.3933 109.794 72.7162 110.171 73.0635 110.542C73.2445 110.743 73.4353 110.943 73.6261 111.139C73.8169 111.335 74.0126 111.526 74.2083 111.712L74.81 112.269C75.0155 112.455 75.2259 112.636 75.4362 112.817C78.6748 115.537 82.6081 117.607 86.1206 119.104L86.7713 119.373L86.8398 119.402L87.4366 119.642L87.5443 119.686L88.102 119.906L88.2292 119.955L88.7526 120.151L88.8994 120.204C89.0657 120.268 89.2223 120.327 89.3886 120.38L89.5598 120.444L90.005 120.601L90.1909 120.664L90.6018 120.806L90.7975 120.875L91.1693 120.997L91.3797 121.065L91.7172 121.173L91.9423 121.246L92.2309 121.334L92.4755 121.413L92.7152 121.486L93.0137 121.574L93.1653 121.618L93.586 121.74C94.7176 122.064 95.9258 121.992 97.0105 121.535C105.816 117.837 111.027 113.487 113.536 110.958C114.755 109.726 115.633 108.199 116.085 106.526C118.105 99.0996 123.071 75.9354 109.197 67.9612C108.947 67.8193 108.708 67.6921 108.468 67.5796C108.417 67.5506 108.365 67.5245 108.311 67.5013C108.077 67.3888 107.847 67.291 107.622 67.2029L107.553 67.1784C107.333 67.0953 107.123 67.0268 106.907 66.9632L106.809 66.9338C106.584 66.8702 106.359 66.8213 106.139 66.7773H106.081C105.642 66.6972 105.196 66.6644 104.75 66.6794C104.324 66.6941 103.902 66.7598 103.493 66.8751C105.709 65.8967 108.414 65.9407 111.095 67.4818C124.974 75.4559 120.004 98.6153 117.988 106.046L117.646 107.318C116.974 109.911 115.46 112.207 113.34 113.845L109.74 116.599C105.846 119.538 101.589 121.961 97.0741 123.81C95.9894 124.266 94.782 124.34 93.6496 124.02C89.2467 122.773 77.804 118.937 72.09 111.628C71.8463 111.316 71.703 110.938 71.6791 110.542V108.096L71.6742 108.077Z" fill="#BA68C8"/>
<path opacity="0.6" d="M71.6742 108.077C71.6446 108.554 71.7907 109.026 72.0851 109.402C72.3933 109.794 72.7162 110.171 73.0635 110.542C73.2445 110.743 73.4353 110.943 73.6261 111.139C73.8169 111.335 74.0126 111.526 74.2083 111.712L74.81 112.269C75.0155 112.455 75.2259 112.636 75.4362 112.817C78.6748 115.537 82.6081 117.607 86.1206 119.104L86.7713 119.373L86.8398 119.402L87.4366 119.642L87.5443 119.686L88.102 119.906L88.2292 119.955L88.7526 120.151L88.8994 120.204C89.0657 120.268 89.2223 120.327 89.3886 120.38L89.5598 120.444L90.005 120.601L90.1909 120.664L90.6018 120.806L90.7975 120.875L91.1693 120.997L91.3797 121.065L91.7172 121.173L91.9423 121.246L92.2309 121.334L92.4755 121.413L92.7152 121.486L93.0137 121.574L93.1653 121.618L93.586 121.74C94.7176 122.064 95.9258 121.992 97.0105 121.535C105.816 117.837 111.027 113.487 113.536 110.958C114.755 109.726 115.633 108.199 116.085 106.526C118.105 99.0996 123.071 75.9354 109.197 67.9612C108.947 67.8193 108.708 67.6921 108.468 67.5796C108.417 67.5506 108.365 67.5245 108.311 67.5013C108.077 67.3888 107.847 67.291 107.622 67.2029L107.553 67.1784C107.333 67.0953 107.123 67.0268 106.907 66.9632L106.809 66.9338C106.584 66.8702 106.359 66.8213 106.139 66.7773H106.081C105.642 66.6972 105.196 66.6644 104.75 66.6794C104.324 66.6941 103.902 66.7598 103.493 66.8751C105.709 65.8967 108.414 65.9407 111.095 67.4818C124.974 75.4559 120.004 98.6153 117.988 106.046L117.646 107.318C116.974 109.911 115.46 112.207 113.34 113.845L109.74 116.599C105.846 119.538 101.589 121.961 97.0741 123.81C95.9894 124.266 94.782 124.34 93.6496 124.02C89.2467 122.773 77.804 118.937 72.09 111.628C71.8463 111.316 71.703 110.938 71.6791 110.542V108.096L71.6742 108.077Z" fill="black"/>
<path d="M89.9174 190.7C90.2754 190.881 90.6709 190.975 91.072 190.975C91.4731 190.975 91.8686 190.881 92.2265 190.7C92.8674 190.333 92.8674 189.722 92.2265 189.369C91.8692 189.186 91.4735 189.091 91.072 189.091C90.6704 189.091 90.2747 189.186 89.9174 189.369C89.2814 189.736 89.2814 190.333 89.9174 190.7Z" fill="#37474F"/>
<path d="M89.4332 189.996H92.7012V150.683H89.4332V189.996Z" fill="#37474F"/>
<path d="M127.039 168.896C127.397 169.077 127.793 169.171 128.194 169.171C128.595 169.171 128.99 169.077 129.348 168.896C129.989 168.524 129.989 167.917 129.348 167.56C128.99 167.379 128.595 167.285 128.194 167.285C127.793 167.285 127.397 167.379 127.039 167.56C126.418 167.927 126.418 168.524 127.039 168.896Z" fill="#263238"/>
<path d="M126.574 168.191H129.842V128.878H126.574V168.191Z" fill="#263238"/>
<path d="M29.04 155.427C29.3972 155.61 29.793 155.706 30.1945 155.706C30.596 155.706 30.9918 155.61 31.3491 155.427C31.9899 155.06 31.9899 154.449 31.3491 154.096C30.9911 153.915 30.5956 153.821 30.1945 153.821C29.7934 153.821 29.3979 153.915 29.04 154.096C28.404 154.463 28.404 155.06 29.04 155.427Z" fill="#37474F"/>
<path d="M28.5558 154.728H31.8237L31.8237 115.415H28.5558L28.5558 154.728Z" fill="#37474F"/>
<path d="M68.9646 125.679C69.2848 125.843 69.6395 125.929 69.9993 125.929C70.3591 125.929 70.7137 125.843 71.034 125.679C71.1583 125.637 71.2662 125.556 71.3426 125.449C71.4189 125.342 71.46 125.214 71.46 125.082C71.46 124.951 71.4189 124.823 71.3426 124.716C71.2662 124.609 71.1583 124.528 71.034 124.486C70.7137 124.322 70.3591 124.236 69.9993 124.236C69.6395 124.236 69.2848 124.322 68.9646 124.486C68.8403 124.528 68.7324 124.609 68.656 124.716C68.5796 124.823 68.5386 124.951 68.5386 125.082C68.5386 125.214 68.5796 125.342 68.656 125.449C68.7324 125.556 68.8403 125.637 68.9646 125.679Z" fill="#455A64"/>
<path d="M68.5291 125.052H71.4595V92.2458H68.5291V125.052Z" fill="#455A64"/>
<path d="M129.842 122.367V130.189L91.0674 152.576V144.753L129.842 122.367Z" fill="#263238"/>
<path d="M28.5605 108.664L91.0674 144.753V152.576L28.5605 116.486V108.664Z" fill="#37474F"/>
<path d="M67.3356 86.2778L129.842 122.367L91.0674 144.754L28.5605 108.664L67.3356 86.2778Z" fill="#455A64"/>
<path opacity="0.2" d="M67.531 124.964L38.7799 108.365C38.7108 108.325 38.6535 108.268 38.6136 108.199C38.5737 108.13 38.5527 108.051 38.5527 107.971C38.5527 107.892 38.5737 107.813 38.6136 107.744C38.6535 107.675 38.7108 107.618 38.7799 107.578L44.3129 104.383C44.383 104.346 44.4611 104.327 44.5404 104.327C44.6196 104.327 44.6977 104.346 44.7678 104.383L73.5189 120.982C73.5869 121.022 73.6431 121.08 73.6822 121.148C73.7213 121.217 73.7419 121.294 73.7419 121.373C73.7419 121.452 73.7213 121.53 73.6822 121.599C73.6431 121.667 73.5869 121.724 73.5189 121.765L67.981 124.964C67.9123 125.003 67.8348 125.023 67.756 125.023C67.6772 125.023 67.5997 125.003 67.531 124.964Z" fill="black"/>
<path d="M95.0596 138.032L78.2894 128.248C78.2518 128.226 78.2207 128.195 78.199 128.157C78.1774 128.119 78.166 128.076 78.166 128.033C78.166 127.989 78.1774 127.946 78.199 127.909C78.2207 127.871 78.2518 127.839 78.2894 127.817L96.8795 116.36L95.0596 138.032Z" fill="#BA68C8"/>
<path opacity="0.4" d="M95.0596 138.032L78.2894 128.248C78.2518 128.226 78.2207 128.195 78.199 128.157C78.1774 128.119 78.166 128.076 78.166 128.033C78.166 127.989 78.1774 127.946 78.199 127.909C78.2207 127.871 78.2518 127.839 78.2894 127.817L96.8795 116.36L95.0596 138.032Z" fill="black"/>
<path d="M95.0591 138.032L113.757 127.205V122.284L95.0591 133.066V138.032Z" fill="#BA68C8"/>
<path opacity="0.2" d="M95.0591 138.032L113.757 127.205V122.284L95.0591 133.066V138.032Z" fill="black"/>
<path d="M110.108 127.963L102.725 132.224C102.236 132.508 101.835 132.224 101.835 131.554C101.841 131.221 101.924 130.894 102.079 130.599C102.233 130.305 102.455 130.05 102.725 129.856L110.108 125.59C110.597 125.307 110.998 125.59 110.998 126.266C110.993 126.599 110.91 126.926 110.756 127.221C110.601 127.516 110.379 127.77 110.108 127.963Z" fill="#E6E6E6"/>
<path d="M100.754 132.181C100.735 132.537 100.632 132.883 100.454 133.192C100.275 133.501 100.026 133.763 99.7266 133.957C99.1591 134.284 98.6992 134.02 98.6992 133.365C98.7186 133.009 98.8218 132.662 99.0003 132.354C99.1788 132.045 99.4277 131.783 99.7266 131.589C100.294 131.261 100.754 131.525 100.754 132.181Z" fill="#E6E6E6"/>
<path d="M95.0589 133.066L78.3572 125.215C78.3161 125.195 78.2811 125.164 78.2557 125.127C78.2304 125.089 78.2158 125.045 78.2133 124.999C78.2108 124.954 78.2205 124.908 78.2415 124.868C78.2625 124.828 78.294 124.793 78.3327 124.769L96.2526 114.114C96.3532 114.054 96.4674 114.02 96.5845 114.016C96.7017 114.012 96.8181 114.037 96.9228 114.09L113.757 122.284L95.0589 133.066Z" fill="#BA68C8"/>
<path d="M79.4336 125.718V127.831L93.2686 135.658V132.224L79.4336 125.718Z" fill="#F5F5F5"/>
<path d="M93.2686 135.659L95.0591 134.538V133.066L93.2686 132.224V135.659Z" fill="#E0E0E0"/>
<path d="M78.2109 123.179V117.729H108.704C108.806 117.729 112.079 119.437 113.527 120.176C113.593 120.211 113.647 120.264 113.685 120.328C113.723 120.392 113.743 120.466 113.743 120.54C113.743 120.615 113.723 120.688 113.685 120.752C113.647 120.816 113.593 120.869 113.527 120.904L95.4704 131.134C95.3428 131.204 95.2005 131.243 95.0551 131.247C94.9096 131.251 94.7653 131.221 94.6338 131.158L78.2109 123.179Z" fill="#BA68C8"/>
<path opacity="0.4" d="M78.2109 123.179V117.729H108.704C108.806 117.729 112.079 119.437 113.527 120.176C113.593 120.211 113.647 120.264 113.685 120.328C113.723 120.392 113.743 120.466 113.743 120.54C113.743 120.615 113.723 120.688 113.685 120.752C113.647 120.816 113.593 120.869 113.527 120.904L95.4704 131.134C95.3428 131.204 95.2005 131.243 95.0551 131.247C94.9096 131.251 94.7653 131.221 94.6338 131.158L78.2109 123.179Z" fill="black"/>
<path d="M95.0591 129.843L112.358 120.117V118.004L95.0591 127.206V129.843Z" fill="#E0E0E0"/>
<path d="M78.2109 123.179L82.7362 120.533L78.2109 117.72V123.179Z" fill="#BA68C8"/>
<path opacity="0.6" d="M78.2109 123.179L82.7362 120.533L78.2109 117.72V123.179Z" fill="black"/>
<path d="M81.0679 119.495V122.509L95.0594 129.842V127.205L81.0679 119.495Z" fill="#F5F5F5"/>
<path d="M78.2109 117.729L94.4773 127.425C94.6553 127.531 94.8575 127.59 95.0648 127.596C95.272 127.602 95.4774 127.555 95.6612 127.459L113.591 118.066C113.654 118.032 113.708 117.982 113.746 117.921C113.784 117.859 113.806 117.789 113.809 117.717C113.812 117.645 113.796 117.574 113.763 117.51C113.73 117.446 113.681 117.391 113.62 117.352L97.2511 106.712L78.2109 117.729Z" fill="#BA68C8"/>
<path d="M84.9668 106.282V107.407L77.7656 111.472V110.347L84.9668 106.282Z" fill="#BA68C8"/>
<path opacity="0.2" d="M84.9668 106.282V107.407L77.7656 111.472V110.347L84.9668 106.282Z" fill="white"/>
<path d="M61.333 100.851L77.7657 110.347V111.472L61.333 101.977V100.851Z" fill="#BA68C8"/>
<path opacity="0.4" d="M61.333 100.851L77.7657 110.347V111.472L61.333 101.977V100.851Z" fill="white"/>
<path d="M68.5342 96.7849L84.9669 106.281L77.7657 110.346L61.333 100.85L68.5342 96.7849Z" fill="#BA68C8"/>
<path opacity="0.6" d="M68.5342 96.7849L84.9669 106.281L77.7657 110.346L61.333 100.85L68.5342 96.7849Z" fill="white"/>
<path d="M71.7822 116.858L72.516 117.284V118.624C72.9896 118.627 73.4548 118.5 73.8614 118.258L73.9152 118.223C74.0839 118.122 74.2307 117.988 74.3466 117.83C74.4626 117.671 74.5455 117.49 74.5903 117.299C74.6163 117.216 74.6295 117.131 74.6294 117.044V115.215L71.7822 116.858Z" fill="#E0E0E0"/>
<path d="M39.8124 67.433L39.8711 67.3988C40.2787 67.1584 40.7432 67.0317 41.2164 67.0319C41.366 67.0292 41.5133 67.0682 41.642 67.1444L73.348 85.3725C73.7375 85.5979 74.0609 85.9218 74.2859 86.3116C74.5108 86.7014 74.6294 87.1435 74.6297 87.5935V115.215L71.7825 116.858L41.6665 99.545C41.277 99.3195 40.9536 98.9957 40.7286 98.6059C40.5037 98.2161 40.3851 97.774 40.3848 97.324V68.6854H39.103C39.1037 68.4333 39.1694 68.1856 39.2936 67.9663C39.4179 67.7469 39.5965 67.5633 39.8124 67.433Z" fill="#E6E6E6"/>
<path d="M74.3556 86.4441C74.535 86.8008 74.6288 87.1944 74.6295 87.5937V115.215L71.7823 116.858L70.7158 116.262V88.7189L74.3556 86.4441Z" fill="#E0E0E0"/>
<path d="M73.348 115.954V117.788C73.3472 117.936 73.3077 118.08 73.2335 118.207C73.1593 118.335 73.053 118.44 72.9252 118.513C72.7975 118.587 72.6527 118.625 72.5054 118.625C72.3581 118.625 72.2134 118.586 72.0858 118.512L40.3848 100.284C39.9953 100.059 39.6718 99.7348 39.4469 99.345C39.2219 98.9552 39.1033 98.5132 39.103 98.0631V96.2041L73.348 115.954Z" fill="#F0F0F0"/>
<path d="M39.103 68.6117C39.103 68.464 39.1418 68.3188 39.2157 68.1909C39.2895 68.0629 39.3957 67.9567 39.5237 67.8828C39.6516 67.8089 39.7967 67.77 39.9444 67.77C40.0921 67.77 40.2373 67.8089 40.3652 67.8828L72.0662 86.1157C72.4564 86.3404 72.7804 86.6641 73.0054 87.0541C73.2305 87.4441 73.3486 87.8865 73.348 88.3368V115.953L39.103 96.1838" fill="#F0F0F0"/>
<path d="M57.3557 100.845L51.314 97.7927L52.7914 96.7849L58.6081 99.8425L57.3557 100.845Z" fill="#E0E0E0"/>
<path d="M51.3139 97.7887L47.8209 111.673C47.7673 111.888 47.7861 112.115 47.8746 112.318C47.963 112.522 48.1161 112.69 48.3102 112.798L55.531 116.858C55.531 116.858 57.7764 101.057 57.3606 100.846L51.3139 97.7887Z" fill="#E6E6E6"/>
<path d="M59.3318 113.752L56.8466 112.245L56.3672 115.616L59.3318 113.752Z" fill="#F0F0F0"/>
<path d="M57.3557 100.846L55.1249 116.1C55.1037 116.239 55.1237 116.381 55.1824 116.509C55.241 116.636 55.3358 116.744 55.4549 116.818C55.5741 116.893 55.7124 116.931 55.8529 116.927C55.9933 116.924 56.1297 116.88 56.2452 116.8L59.112 114.843C59.2159 114.774 59.301 114.68 59.3599 114.57C59.4188 114.46 59.4496 114.337 59.4495 114.212V113.918C59.4498 113.878 59.4389 113.838 59.418 113.803C59.3971 113.769 59.3671 113.74 59.3312 113.722C59.2952 113.703 59.2549 113.694 59.2145 113.697C59.1741 113.7 59.1353 113.714 59.1022 113.737L56.3822 115.601L58.6228 99.8337L57.3557 100.846Z" fill="#E0E0E0"/>
<path d="M57.1989 93.0731C57.1989 94.4087 56.2596 94.9517 55.1002 94.2815C54.491 93.8829 53.9841 93.3467 53.6204 92.7162C53.2567 92.0856 53.0463 91.3783 53.0063 90.6515C53.0063 89.3159 53.9456 88.7729 55.1002 89.4431C55.7108 89.8406 56.2191 90.3764 56.5837 91.0071C56.9484 91.6378 57.1591 92.3456 57.1989 93.0731Z" fill="#E0E0E0"/>
<path d="M33.5698 168.813L52.7812 157.811L37.5275 149.401L18.9863 160.316L33.5698 168.813Z" fill="white"/>
<path d="M34.2352 166.978C34.2044 166.977 34.1742 166.968 34.1471 166.953L22.9931 160.452C22.9707 160.442 22.9507 160.428 22.9343 160.41C22.9179 160.392 22.9054 160.371 22.8978 160.348C22.8902 160.325 22.8876 160.301 22.8901 160.277C22.8926 160.252 22.9003 160.229 22.9125 160.208C22.9247 160.187 22.9413 160.169 22.961 160.155C22.9808 160.141 23.0033 160.131 23.0272 160.126C23.051 160.122 23.0755 160.122 23.0992 160.128C23.1228 160.133 23.145 160.144 23.1643 160.158L34.3184 166.65C34.338 166.661 34.3553 166.676 34.3692 166.694C34.383 166.712 34.3932 166.732 34.3991 166.754C34.405 166.776 34.4066 166.799 34.4036 166.821C34.4007 166.844 34.3933 166.865 34.382 166.885C34.368 166.912 34.347 166.935 34.3212 166.951C34.2954 166.968 34.2657 166.977 34.2352 166.978Z" fill="#E0E0E0"/>
<path d="M36.045 165.868C36.0178 165.875 35.9892 165.875 35.9619 165.868L24.8225 159.342C24.8034 159.33 24.7867 159.316 24.7734 159.298C24.7601 159.28 24.7504 159.26 24.7449 159.239C24.7394 159.218 24.7383 159.195 24.7415 159.173C24.7448 159.152 24.7523 159.131 24.7638 159.112C24.7745 159.092 24.789 159.075 24.8064 159.061C24.8238 159.047 24.8439 159.037 24.8653 159.031C24.8867 159.025 24.9092 159.024 24.9312 159.027C24.9533 159.03 24.9745 159.037 24.9937 159.048L36.1527 165.55C36.1916 165.573 36.2196 165.611 36.2306 165.655C36.2416 165.699 36.2347 165.746 36.2114 165.785C36.1951 165.813 36.1706 165.837 36.1409 165.852C36.1113 165.866 36.0779 165.872 36.045 165.868Z" fill="#E0E0E0"/>
<path d="M37.8457 164.807C37.8185 164.814 37.7898 164.814 37.7625 164.807L26.6036 158.285C26.5647 158.262 26.5366 158.224 26.5256 158.18C26.5146 158.136 26.5215 158.089 26.5449 158.051C26.5556 158.031 26.5701 158.014 26.5875 158C26.6049 157.986 26.625 157.976 26.6464 157.97C26.6678 157.964 26.6902 157.963 26.7123 157.966C26.7344 157.968 26.7556 157.976 26.7748 157.987L37.9338 164.493C37.9674 164.511 37.9939 164.54 38.009 164.575C38.024 164.61 38.0265 164.649 38.0162 164.686C38.0059 164.722 37.9834 164.754 37.9523 164.776C37.9213 164.798 37.8837 164.809 37.8457 164.807Z" fill="#E0E0E0"/>
<path d="M39.6801 163.715C39.6493 163.714 39.6192 163.706 39.5921 163.691L28.438 157.189C28.3992 157.166 28.371 157.128 28.3592 157.084C28.3473 157.041 28.3528 156.994 28.3744 156.954C28.3855 156.934 28.4005 156.917 28.4185 156.903C28.4365 156.89 28.4572 156.88 28.4792 156.874C28.5011 156.869 28.524 156.868 28.5464 156.871C28.5688 156.875 28.5902 156.883 28.6092 156.896L39.7633 163.397C39.7828 163.408 39.8 163.422 39.8138 163.44C39.8276 163.457 39.8378 163.477 39.8437 163.499C39.8496 163.52 39.8512 163.543 39.8483 163.565C39.8454 163.587 39.8381 163.608 39.8269 163.627C39.8123 163.653 39.7911 163.675 39.7653 163.691C39.7396 163.706 39.7102 163.715 39.6801 163.715Z" fill="#E0E0E0"/>
<path d="M41.5098 162.591C41.4804 162.59 41.4517 162.582 41.4266 162.566L30.2676 156.065C30.2287 156.041 30.2007 156.004 30.1897 155.96C30.1787 155.915 30.1856 155.869 30.2089 155.83C30.2195 155.81 30.2341 155.793 30.2516 155.779C30.2692 155.766 30.2894 155.756 30.311 155.75C30.3326 155.745 30.3552 155.744 30.3772 155.747C30.3992 155.751 30.4202 155.759 30.4389 155.771L41.5978 162.273C41.6169 162.284 41.6336 162.299 41.6469 162.316C41.6603 162.334 41.6699 162.354 41.6754 162.376C41.6809 162.397 41.682 162.419 41.6788 162.441C41.6755 162.463 41.668 162.484 41.6565 162.503C41.6419 162.529 41.6207 162.551 41.5949 162.567C41.5692 162.582 41.5398 162.59 41.5098 162.591Z" fill="#E0E0E0"/>
<path d="M43.3441 161.48C43.3132 161.478 43.2831 161.47 43.256 161.455L32.102 154.954C32.0796 154.944 32.0596 154.93 32.0432 154.912C32.0268 154.894 32.0143 154.873 32.0067 154.85C31.9991 154.827 31.9964 154.802 31.999 154.778C32.0015 154.754 32.0091 154.731 32.0214 154.71C32.0336 154.689 32.0502 154.671 32.0699 154.657C32.0897 154.643 32.1122 154.633 32.136 154.628C32.1599 154.623 32.1844 154.624 32.208 154.629C32.2317 154.635 32.2539 154.645 32.2732 154.66L43.4272 161.162C43.4468 161.172 43.4639 161.187 43.4777 161.204C43.4915 161.222 43.5017 161.242 43.5076 161.263C43.5136 161.285 43.5151 161.307 43.5123 161.329C43.5094 161.351 43.5021 161.372 43.4908 161.392C43.4759 161.418 43.4546 161.439 43.4289 161.455C43.4032 161.47 43.374 161.479 43.3441 161.48Z" fill="#E0E0E0"/>
<path d="M45.1738 160.369C45.1444 160.369 45.1157 160.36 45.0907 160.345L33.9317 153.843C33.8928 153.82 33.8648 153.782 33.8537 153.738C33.8427 153.694 33.8497 153.647 33.873 153.608C33.8841 153.589 33.8989 153.573 33.9165 153.559C33.9341 153.546 33.9542 153.536 33.9757 153.531C33.9971 153.525 34.0193 153.524 34.0412 153.527C34.063 153.531 34.084 153.538 34.1029 153.55L45.2619 160.051C45.281 160.062 45.2977 160.077 45.311 160.095C45.3243 160.112 45.334 160.133 45.3395 160.154C45.3449 160.175 45.3461 160.198 45.3428 160.22C45.3396 160.241 45.332 160.262 45.3206 160.281C45.3068 160.308 45.2858 160.331 45.2598 160.346C45.2339 160.362 45.2041 160.37 45.1738 160.369Z" fill="#E0E0E0"/>
<path d="M47.0086 159.258C46.9778 159.257 46.9477 159.249 46.9206 159.234L35.7665 152.732C35.7442 152.723 35.7242 152.708 35.7077 152.691C35.6913 152.673 35.6789 152.651 35.6713 152.628C35.6636 152.605 35.661 152.581 35.6635 152.557C35.6661 152.533 35.6737 152.509 35.6859 152.488C35.6982 152.467 35.7147 152.449 35.7345 152.435C35.7542 152.421 35.7768 152.411 35.8006 152.407C35.8244 152.402 35.8489 152.402 35.8726 152.408C35.8962 152.413 35.9184 152.424 35.9377 152.439L47.0918 158.94C47.1115 158.951 47.1287 158.966 47.1426 158.984C47.1565 159.002 47.1666 159.023 47.1726 159.044C47.1785 159.066 47.18 159.089 47.1771 159.111C47.1741 159.134 47.1667 159.155 47.1554 159.175C47.1402 159.2 47.1187 159.221 47.093 159.236C47.0673 159.251 47.0382 159.258 47.0086 159.258Z" fill="#E0E0E0"/>
<path d="M48.8379 158.147C48.8085 158.147 48.7798 158.138 48.7547 158.123L37.5958 151.621C37.5569 151.598 37.5288 151.56 37.5178 151.516C37.5068 151.472 37.5137 151.425 37.5371 151.387C37.5482 151.367 37.563 151.351 37.5806 151.337C37.5982 151.324 37.6183 151.314 37.6397 151.309C37.6611 151.304 37.6834 151.302 37.7053 151.306C37.7271 151.309 37.7481 151.316 37.767 151.328L48.926 157.844C48.9649 157.868 48.9929 157.905 49.0039 157.949C49.0149 157.993 49.008 158.04 48.9847 158.079C48.9681 158.102 48.9459 158.12 48.9202 158.132C48.8945 158.144 48.8662 158.15 48.8379 158.147Z" fill="#E0E0E0"/>
<path d="M19.0449 160.262L33.6235 168.76V181.822L19.0449 173.769V160.262Z" fill="#FAFAFA"/>
<path d="M33.6235 168.759L52.835 157.757V170.667L33.6235 181.821V168.759Z" fill="#E6E6E6"/>
<path d="M30.4878 170.035L33.6237 171.865L40.409 167.981L33.6237 172.858L30.4878 170.035Z" fill="#E0E0E0"/>
<path d="M30.4878 174.581L33.6237 176.411L37.4591 174.219L33.6237 177.404L30.4878 174.581Z" fill="#E0E0E0"/>
<path d="M35.4482 172.478L37.8454 173.192L39.6799 170.418L35.4482 172.478Z" fill="#E0E0E0"/>
<path d="M35.4482 172.478L42.6837 168.359L39.0684 172.478H35.4482Z" fill="white"/>
<path d="M46.2793 163.623L47.9769 164.132L49.2733 162.165L46.2793 163.623Z" fill="#E0E0E0"/>
<path d="M46.2793 163.623L51.4014 160.707L48.8379 163.623H46.2793Z" fill="white"/>
<path d="M42.6152 173.333L44.3128 173.842L45.6092 171.875L42.6152 173.333Z" fill="#E0E0E0"/>
<path d="M42.6152 173.334L47.7373 170.418L45.1738 173.334H42.6152Z" fill="white"/>
<path d="M63.3091 198.831L46.5389 189.047C46.5013 189.025 46.4702 188.994 46.4485 188.956C46.4269 188.918 46.4155 188.875 46.4155 188.832C46.4155 188.788 46.4269 188.746 46.4485 188.708C46.4702 188.67 46.5013 188.639 46.5389 188.617L65.129 177.159L63.3091 198.831Z" fill="#BA68C8"/>
<path opacity="0.4" d="M63.3091 198.831L46.5389 189.047C46.5013 189.025 46.4702 188.994 46.4485 188.956C46.4269 188.918 46.4155 188.875 46.4155 188.832C46.4155 188.788 46.4269 188.746 46.4485 188.708C46.4702 188.67 46.5013 188.639 46.5389 188.617L65.129 177.159L63.3091 198.831Z" fill="black"/>
<path d="M63.3091 198.831L82.0068 188.004V183.083L63.3091 193.865V198.831Z" fill="#BA68C8"/>
<path opacity="0.2" d="M63.3091 198.831L82.0068 188.004V183.083L63.3091 193.865V198.831Z" fill="black"/>
<path d="M78.3576 188.763L70.9753 193.029C70.4861 193.313 70.085 193.029 70.085 192.354C70.0895 192.021 70.1724 191.694 70.3271 191.399C70.4818 191.104 70.7039 190.85 70.9753 190.657L78.3576 186.396C78.8468 186.112 79.2479 186.396 79.2479 187.066C79.2423 187.399 79.1588 187.726 79.0042 188.02C78.8496 188.315 78.6281 188.57 78.3576 188.763Z" fill="#E6E6E6"/>
<path d="M68.9985 192.981C68.9791 193.337 68.876 193.684 68.6975 193.994C68.519 194.303 68.2702 194.566 67.9712 194.761C67.4086 195.089 66.9487 194.82 66.9487 194.169C66.968 193.813 67.0705 193.467 67.2481 193.157C67.4257 192.848 67.6734 192.585 67.9712 192.389C68.5387 192.061 68.9985 192.325 68.9985 192.981Z" fill="#E6E6E6"/>
<path d="M63.3089 193.865L46.6023 186.013C46.5624 185.992 46.529 185.96 46.5058 185.922C46.4825 185.883 46.4702 185.839 46.4702 185.793C46.4702 185.748 46.4825 185.704 46.5058 185.665C46.529 185.626 46.5624 185.594 46.6023 185.573L64.5173 174.918C64.6184 174.857 64.7331 174.822 64.8511 174.817C64.9691 174.812 65.0864 174.837 65.1924 174.889L82.0311 183.083L63.3089 193.865Z" fill="#BA68C8"/>
<path d="M47.6787 186.522V188.631L61.5186 196.458V193.024L47.6787 186.522Z" fill="#F5F5F5"/>
<path d="M61.5186 196.459L63.3091 195.343V193.866L61.5186 193.024V196.459Z" fill="#E0E0E0"/>
<path d="M46.4604 183.979V178.524H76.9482C77.0559 178.524 80.3287 180.227 81.7768 180.97C81.8419 181.007 81.8962 181.06 81.934 181.125C81.9717 181.189 81.9916 181.263 81.9916 181.337C81.9916 181.412 81.9717 181.486 81.934 181.55C81.8962 181.614 81.8419 181.668 81.7768 181.704L63.7101 191.919C63.5834 191.991 63.4408 192.031 63.2949 192.036C63.149 192.04 63.0043 192.008 62.8736 191.944L46.4604 183.979Z" fill="#BA68C8"/>
<path opacity="0.4" d="M46.4604 183.979V178.524H76.9482C77.0559 178.524 80.3287 180.227 81.7768 180.97C81.8419 181.007 81.8962 181.06 81.934 181.125C81.9717 181.189 81.9916 181.263 81.9916 181.337C81.9916 181.412 81.9717 181.486 81.934 181.55C81.8962 181.614 81.8419 181.668 81.7768 181.704L63.7101 191.919C63.5834 191.991 63.4408 192.031 63.2949 192.036C63.149 192.04 63.0043 192.008 62.8736 191.944L46.4604 183.979Z" fill="black"/>
<path d="M63.3091 190.647L80.6077 180.916V178.803L63.3091 188.005V190.647Z" fill="#E0E0E0"/>
<path d="M46.4604 183.979L50.9857 181.333L46.4604 178.524V183.979Z" fill="#BA68C8"/>
<path opacity="0.6" d="M46.4604 183.979L50.9857 181.333L46.4604 178.524V183.979Z" fill="black"/>
<path d="M49.3174 180.294V183.308L63.3089 190.646V188.004L49.3174 180.294Z" fill="#F5F5F5"/>
<path d="M46.4604 178.524L62.7268 188.216C62.9035 188.323 63.1051 188.382 63.3118 188.388C63.5185 188.394 63.7231 188.347 63.9058 188.25L81.8404 178.881C81.9022 178.844 81.9534 178.792 81.9889 178.73C82.0245 178.667 82.0432 178.596 82.0432 178.524C82.0432 178.452 82.0245 178.382 81.9889 178.319C81.9534 178.256 81.9022 178.204 81.8404 178.167L65.4762 167.532L46.4604 178.524Z" fill="#BA68C8"/>
<path d="M63.3091 186.523L46.5389 176.739C46.5013 176.717 46.4702 176.685 46.4485 176.647C46.4269 176.61 46.4155 176.567 46.4155 176.523C46.4155 176.48 46.4269 176.437 46.4485 176.399C46.4702 176.362 46.5013 176.33 46.5389 176.308L65.129 164.851L63.3091 186.523Z" fill="#BA68C8"/>
<path opacity="0.4" d="M63.3091 186.523L46.5389 176.739C46.5013 176.717 46.4702 176.685 46.4485 176.647C46.4269 176.61 46.4155 176.567 46.4155 176.523C46.4155 176.48 46.4269 176.437 46.4485 176.399C46.4702 176.362 46.5013 176.33 46.5389 176.308L65.129 164.851L63.3091 186.523Z" fill="black"/>
<path d="M63.3091 186.522L82.0068 175.696V170.775L63.3091 181.557V186.522Z" fill="#BA68C8"/>
<path opacity="0.2" d="M63.3091 186.522L82.0068 175.696V170.775L63.3091 181.557V186.522Z" fill="black"/>
<path d="M78.3576 176.435L70.9753 180.696C70.4861 180.98 70.085 180.696 70.085 180.026C70.0895 179.693 70.1724 179.366 70.3271 179.071C70.4818 178.776 70.7039 178.522 70.9753 178.329L78.3576 174.063C78.8468 173.779 79.2479 174.063 79.2479 174.738C79.2423 175.071 79.1588 175.397 79.0042 175.692C78.8496 175.987 78.6281 176.241 78.3576 176.435Z" fill="#E6E6E6"/>
<path d="M68.9985 180.671C68.9799 181.028 68.8771 181.374 68.6985 181.683C68.5199 181.992 68.2706 182.254 67.9712 182.447C67.4086 182.775 66.9487 182.511 66.9487 181.855C66.968 181.5 67.0706 181.154 67.2482 180.846C67.4258 180.537 67.6735 180.275 67.9712 180.08C68.5387 179.752 68.9985 180.016 68.9985 180.671Z" fill="#E6E6E6"/>
<path d="M63.3091 181.557L46.6024 173.705C46.5627 173.683 46.5295 173.651 46.5064 173.612C46.4834 173.573 46.4712 173.528 46.4712 173.483C46.4712 173.437 46.4834 173.392 46.5064 173.353C46.5295 173.314 46.5627 173.282 46.6024 173.26L64.5174 162.605C64.6189 162.545 64.7339 162.511 64.8519 162.506C64.9698 162.502 65.087 162.528 65.1925 162.58L82.0313 170.775L63.3091 181.557Z" fill="#BA68C8"/>
<path d="M47.6787 174.209V176.322L61.5186 184.15V180.716L47.6787 174.209Z" fill="#F5F5F5"/>
<path d="M61.5186 184.149L63.3091 183.029V181.556L61.5186 180.715V184.149Z" fill="#E0E0E0"/>
<path d="M46.4854 171.313V165.854H76.9731C77.0759 165.854 80.3487 167.561 81.7968 168.3C81.8621 168.336 81.9165 168.388 81.9545 168.452C81.9924 168.517 82.0124 168.59 82.0124 168.664C82.0124 168.739 81.9924 168.812 81.9545 168.876C81.9165 168.94 81.8621 168.993 81.7968 169.029L63.7252 179.248C63.5966 179.314 63.454 179.349 63.3094 179.349C63.1648 179.349 63.0222 179.314 62.8936 179.248L46.4854 171.313Z" fill="#BA68C8"/>
<path opacity="0.4" d="M46.4854 171.313V165.854H76.9731C77.0759 165.854 80.3487 167.561 81.7968 168.3C81.8621 168.336 81.9165 168.388 81.9545 168.452C81.9924 168.517 82.0124 168.59 82.0124 168.664C82.0124 168.739 81.9924 168.812 81.9545 168.876C81.9165 168.94 81.8621 168.993 81.7968 169.029L63.7252 179.248C63.5966 179.314 63.454 179.349 63.3094 179.349C63.1648 179.349 63.0222 179.314 62.8936 179.248L46.4854 171.313Z" fill="black"/>
<path d="M63.3286 177.976L80.6321 168.245V166.132L63.3286 175.339V177.976Z" fill="#E0E0E0"/>
<path d="M46.4854 171.313L51.0057 168.667L46.4854 165.854V171.313Z" fill="#BA68C8"/>
<path opacity="0.6" d="M46.4854 171.313L51.0057 168.667L46.4854 165.854V171.313Z" fill="black"/>
<path d="M49.3369 167.63V170.644L63.3284 177.977V175.34L49.3369 167.63Z" fill="#F5F5F5"/>
<path d="M46.4854 165.853L62.7517 175.549C62.9288 175.656 63.1302 175.715 63.3367 175.721C63.5432 175.727 63.7478 175.68 63.9307 175.584L81.8653 166.191C81.9284 166.156 81.9815 166.105 82.0192 166.044C82.0569 165.983 82.0781 165.913 82.0806 165.841C82.083 165.769 82.0667 165.697 82.0333 165.633C81.9998 165.569 81.9504 165.515 81.8897 165.476L65.5207 154.836L46.4854 165.853Z" fill="#BA68C8"/>
<path d="M63.3286 173.852L46.5633 164.068C46.5257 164.046 46.4946 164.014 46.473 163.976C46.4513 163.939 46.4399 163.896 46.4399 163.852C46.4399 163.809 46.4513 163.766 46.473 163.728C46.4946 163.691 46.5257 163.659 46.5633 163.637L65.1534 152.185L63.3286 173.852Z" fill="#BA68C8"/>
<path opacity="0.4" d="M63.3286 173.852L46.5633 164.068C46.5257 164.046 46.4946 164.014 46.473 163.976C46.4513 163.939 46.4399 163.896 46.4399 163.852C46.4399 163.809 46.4513 163.766 46.473 163.728C46.4946 163.691 46.5257 163.659 46.5633 163.637L65.1534 152.185L63.3286 173.852Z" fill="black"/>
<path d="M63.3286 173.852L82.0264 163.026V158.109L63.3286 168.887V173.852Z" fill="#BA68C8"/>
<path opacity="0.2" d="M63.3286 173.852L82.0264 163.026V158.109L63.3286 168.887V173.852Z" fill="black"/>
<path d="M78.3815 163.789L70.9944 168.05C70.5051 168.334 70.1089 168.05 70.1089 167.38C70.1136 167.047 70.1961 166.719 70.3499 166.424C70.5036 166.128 70.7243 165.872 70.9944 165.677L78.3815 161.416C78.8707 161.132 79.267 161.416 79.267 162.086C79.2622 162.42 79.1797 162.747 79.026 163.043C78.8722 163.338 78.6515 163.594 78.3815 163.789Z" fill="#E6E6E6"/>
<path d="M69.023 168.006C69.0032 168.362 68.8998 168.708 68.7214 169.017C68.5429 169.325 68.2942 169.587 67.9956 169.782C67.4281 170.11 66.9683 169.845 66.9683 169.19C66.9877 168.833 67.0908 168.486 67.2693 168.177C67.4478 167.868 67.6966 167.605 67.9956 167.409C68.5631 167.086 69.023 167.35 69.023 168.006Z" fill="#E6E6E6"/>
<path d="M63.3286 168.887L46.6268 161.059C46.5871 161.037 46.5539 161.005 46.5309 160.966C46.5078 160.927 46.4956 160.882 46.4956 160.837C46.4956 160.791 46.5078 160.747 46.5309 160.708C46.5539 160.668 46.5871 160.636 46.6268 160.614L64.5418 149.959C64.6434 149.899 64.758 149.865 64.8757 149.86C64.9935 149.855 65.1106 149.879 65.217 149.93L82.0312 158.109L63.3286 168.887Z" fill="#BA68C8"/>
<path d="M47.7031 161.543V163.652L61.543 171.484V168.045L47.7031 161.543Z" fill="#F5F5F5"/>
<path d="M61.543 171.484L63.3286 170.364V168.887L61.543 168.045V171.484Z" fill="#E0E0E0"/>
<path d="M62.8637 154.709L82.0751 143.707L66.8166 135.297L48.2803 146.211L62.8637 154.709Z" fill="#FAFAFA"/>
<path d="M63.5241 152.87C63.4968 152.877 63.4683 152.877 63.441 152.87L52.2869 146.349C52.2672 146.338 52.25 146.323 52.2361 146.305C52.2222 146.287 52.2121 146.267 52.2061 146.245C52.2002 146.223 52.1987 146.2 52.2017 146.178C52.2046 146.155 52.212 146.134 52.2233 146.114C52.2344 146.095 52.2492 146.078 52.2668 146.065C52.2845 146.052 52.3046 146.042 52.326 146.037C52.3474 146.031 52.3696 146.03 52.3915 146.033C52.4134 146.036 52.4343 146.044 52.4532 146.055L63.6122 152.557C63.6317 152.568 63.6489 152.582 63.6627 152.6C63.6765 152.617 63.6867 152.637 63.6926 152.659C63.6985 152.68 63.7001 152.702 63.6972 152.724C63.6943 152.747 63.687 152.768 63.6758 152.787C63.6595 152.812 63.637 152.833 63.6105 152.848C63.5841 152.862 63.5543 152.87 63.5241 152.87Z" fill="#E0E0E0"/>
<path d="M65.3588 151.759C65.3316 151.766 65.3029 151.766 65.2757 151.759L54.1167 145.257C54.078 145.234 54.0497 145.196 54.0379 145.153C54.026 145.109 54.0315 145.062 54.0531 145.022C54.0642 145.003 54.0792 144.985 54.0972 144.972C54.1152 144.958 54.1359 144.948 54.1579 144.942C54.1799 144.937 54.2027 144.936 54.2251 144.94C54.2475 144.943 54.2689 144.952 54.2879 144.964L65.442 151.465C65.4752 151.483 65.5014 151.511 65.5164 151.546C65.5314 151.58 65.5343 151.619 65.5246 151.655C65.515 151.691 65.4934 151.723 65.4633 151.746C65.4332 151.768 65.3964 151.78 65.3588 151.779V151.759Z" fill="#E0E0E0"/>
<path d="M67.1397 150.702C67.1124 150.709 67.0838 150.709 67.0565 150.702L55.8975 144.2C55.8586 144.177 55.8306 144.139 55.8196 144.095C55.8086 144.051 55.8155 144.005 55.8388 143.966C55.8499 143.947 55.8647 143.93 55.8823 143.917C55.9 143.903 55.9201 143.894 55.9415 143.888C55.9629 143.883 55.9852 143.881 56.007 143.885C56.0289 143.888 56.0498 143.896 56.0687 143.907L67.2277 150.409C67.2666 150.432 67.2947 150.47 67.3057 150.514C67.3167 150.558 67.3098 150.605 67.2864 150.643C67.2687 150.665 67.2461 150.681 67.2205 150.691C67.1948 150.702 67.1671 150.705 67.1397 150.702Z" fill="#E0E0E0"/>
<path d="M68.974 149.592C68.9432 149.591 68.9131 149.582 68.886 149.567L57.7319 143.066C57.7124 143.055 57.6952 143.041 57.6814 143.023C57.6676 143.006 57.6575 142.986 57.6515 142.964C57.6456 142.943 57.644 142.92 57.6469 142.898C57.6498 142.876 57.6571 142.855 57.6683 142.836C57.6795 142.816 57.6944 142.799 57.7123 142.785C57.7302 142.771 57.7506 142.761 57.7725 142.755C57.7943 142.749 57.8171 142.748 57.8395 142.751C57.8619 142.754 57.8836 142.761 57.9031 142.772L69.0572 149.274C69.096 149.297 69.1242 149.335 69.1361 149.379C69.1479 149.422 69.1424 149.469 69.1208 149.509C69.1053 149.534 69.0837 149.554 69.058 149.569C69.0324 149.584 69.0035 149.591 68.974 149.592Z" fill="#E0E0E0"/>
<path d="M70.8039 148.481C70.7741 148.483 70.7447 148.474 70.7207 148.457L59.5617 141.955C59.5427 141.944 59.5259 141.929 59.5126 141.911C59.4993 141.894 59.4896 141.874 59.4842 141.852C59.4787 141.831 59.4776 141.809 59.4808 141.787C59.484 141.765 59.4916 141.744 59.503 141.725C59.5137 141.705 59.5282 141.688 59.5457 141.674C59.5631 141.661 59.5831 141.65 59.6046 141.645C59.626 141.639 59.6484 141.637 59.6705 141.64C59.6925 141.643 59.7138 141.65 59.733 141.661L70.8919 148.163C70.9308 148.186 70.9589 148.224 70.9699 148.268C70.9809 148.312 70.974 148.359 70.9506 148.398C70.9358 148.424 70.9144 148.445 70.8886 148.459C70.8628 148.474 70.8335 148.481 70.8039 148.481Z" fill="#E0E0E0"/>
<path d="M72.6332 147.371C72.6062 147.38 72.5771 147.38 72.55 147.371L61.396 140.87C61.3765 140.859 61.3593 140.845 61.3455 140.827C61.3317 140.81 61.3215 140.79 61.3156 140.768C61.3097 140.747 61.3081 140.724 61.311 140.702C61.3139 140.68 61.3211 140.659 61.3324 140.64C61.3558 140.601 61.3933 140.573 61.437 140.561C61.4808 140.549 61.5274 140.555 61.5672 140.576L72.7359 147.053C72.7747 147.077 72.803 147.114 72.8148 147.158C72.8266 147.202 72.8212 147.248 72.7995 147.288C72.7819 147.316 72.7572 147.338 72.7279 147.353C72.6986 147.367 72.6659 147.374 72.6332 147.371Z" fill="#E0E0E0"/>
<path d="M74.4682 146.26C74.4384 146.262 74.409 146.253 74.385 146.236L63.2261 139.744C63.2065 139.733 63.1894 139.719 63.1756 139.701C63.1618 139.684 63.1516 139.664 63.1457 139.642C63.1397 139.621 63.1382 139.598 63.1411 139.576C63.1439 139.554 63.1512 139.533 63.1625 139.514C63.1859 139.475 63.2234 139.447 63.2671 139.435C63.3109 139.423 63.3575 139.429 63.3973 139.45L74.5514 145.952C74.571 145.963 74.5883 145.978 74.6021 145.996C74.616 146.014 74.6262 146.034 74.6321 146.056C74.638 146.078 74.6395 146.101 74.6366 146.123C74.6337 146.145 74.6263 146.167 74.6149 146.187C74.5989 146.211 74.577 146.23 74.5512 146.243C74.5255 146.256 74.4969 146.262 74.4682 146.26Z" fill="#E0E0E0"/>
<path d="M76.3027 145.151C76.2737 145.158 76.2435 145.158 76.2146 145.151L65.0605 138.644C65.041 138.633 65.0239 138.619 65.01 138.602C64.9962 138.584 64.9861 138.564 64.9801 138.543C64.9742 138.521 64.9726 138.499 64.9755 138.477C64.9784 138.455 64.9857 138.433 64.9969 138.414C65.0204 138.375 65.0579 138.347 65.1016 138.335C65.1453 138.324 65.1919 138.329 65.2318 138.351L76.3858 144.852C76.4246 144.876 76.4528 144.913 76.4647 144.957C76.4765 145.001 76.4711 145.047 76.4494 145.087C76.4317 145.109 76.4092 145.125 76.3837 145.137C76.3582 145.148 76.3304 145.152 76.3027 145.151Z" fill="#E0E0E0"/>
<path d="M78.1176 144.039C78.0887 144.046 78.0585 144.046 78.0295 144.039L66.8755 137.537C66.8559 137.526 66.8387 137.511 66.8249 137.493C66.8111 137.475 66.8009 137.455 66.795 137.433C66.7891 137.411 66.7876 137.388 66.7905 137.366C66.7934 137.344 66.8006 137.322 66.8119 137.302C66.8231 137.283 66.8381 137.266 66.856 137.252C66.8739 137.238 66.8943 137.228 66.9161 137.222C66.9379 137.216 66.9607 137.214 66.9831 137.217C67.0055 137.22 67.0271 137.228 67.0467 137.239L78.2008 143.74C78.2204 143.752 78.2377 143.767 78.2516 143.784C78.2654 143.802 78.2756 143.823 78.2815 143.845C78.2874 143.866 78.289 143.889 78.286 143.912C78.2831 143.934 78.2757 143.956 78.2644 143.975C78.2472 143.997 78.2248 144.015 78.1991 144.026C78.1735 144.037 78.1454 144.041 78.1176 144.039Z" fill="#E0E0E0"/>
<path d="M48.3345 146.152L62.9179 154.655V167.717L48.3345 159.664V146.152Z" fill="#F0F0F0"/>
<path d="M62.9175 154.656L82.1289 143.648V156.564L62.9175 167.718V154.656Z" fill="#E6E6E6"/>
<path d="M59.7817 155.932L62.9176 157.757L69.703 153.872L62.9176 158.75L59.7817 155.932Z" fill="#E0E0E0"/>
<path d="M59.7817 160.477L62.9176 162.307L66.7481 160.11L62.9176 163.3L59.7817 160.477Z" fill="#E0E0E0"/>
<path d="M64.7422 158.374L67.1393 159.088L68.9739 156.315L64.7422 158.374Z" fill="#E0E0E0"/>
<path d="M64.7422 158.374L71.9777 154.25L68.3575 158.374H64.7422Z" fill="white"/>
<path d="M75.5688 149.519L77.2664 150.023L78.5628 148.061L75.5688 149.519Z" fill="#E0E0E0"/>
<path d="M75.5688 149.518L80.6909 146.598L78.1323 149.518H75.5688Z" fill="white"/>
<path d="M71.9092 159.229L73.6068 159.733L74.9032 157.772L71.9092 159.229Z" fill="#E0E0E0"/>
<path d="M71.9092 159.23L77.0312 156.315L74.4678 159.23H71.9092Z" fill="white"/>
<path d="M53.5686 159.635L52.326 160.007L51.3721 158.564L53.5686 159.635Z" fill="#E0E0E0"/>
<path d="M53.5687 159.636L49.8115 157.493L51.6901 159.636H53.5687Z" fill="white"/>
<path d="M58.4608 154.509L56.7632 155.013L55.4668 153.051L58.4608 154.509Z" fill="#E0E0E0"/>
<path d="M58.4609 154.509L53.3389 151.593L55.9023 154.509H58.4609Z" fill="white"/>
<path d="M177.903 180.989L176.273 180.309L176.694 178.333L177.903 180.989Z" fill="#37474F"/>
<path d="M179.737 175.672L180.432 178.779L177.902 180.99L176.694 178.333L179.737 175.672Z" fill="#455A64"/>
<path d="M172.761 172.447C172.278 173.735 171.934 175.07 171.733 176.43C171.396 178.358 170.501 180.145 169.16 181.571C167.971 182.667 165.848 185.191 169.532 185.642C173.343 186.131 176.537 182.961 176.586 181.214C176.635 179.468 177.1 178.098 178.054 177.3C179.008 176.503 179.752 175.686 179.752 175.686C179.752 175.686 178.054 169.59 176.601 169.933C175.148 170.275 172.761 172.447 172.761 172.447Z" fill="#263238"/>
<path d="M174.233 166.484C173.137 164.83 171.9 162.883 170.902 161.103C168.553 156.876 164.997 150.164 161.509 148.823V120.327L148.114 119.71C148.114 119.71 143.711 135.321 149.968 147.869C154.44 156.856 164.155 166.225 169.287 170.813C170.892 170.564 173.827 169.639 174.233 166.484Z" fill="#455A64"/>
<path d="M176.939 170.413C176.939 170.413 175.716 168.725 174.229 166.499C173.823 169.654 170.887 170.564 169.283 170.829C171.318 172.644 172.644 173.715 172.644 173.715C172.644 173.715 177.007 174.307 176.939 170.413Z" fill="#945959"/>
<path d="M149.464 146.768L153.055 129.049C153.055 129.049 150.374 127.483 150.374 123.345C150.374 123.345 150.037 127.337 151.842 130.223L148.755 145.036C148.97 145.614 149.21 146.196 149.464 146.768Z" fill="#37474F"/>
<path d="M161.509 148.808V147.781L159.816 148.877L156.695 153.705L156.402 157.497C157.63 159.008 158.911 160.476 160.188 161.865L160.443 155.652L162.791 149.518C162.396 149.226 161.966 148.988 161.509 148.808Z" fill="#37474F"/>
<path d="M149.186 195.842L147.532 194.902L149.186 192.711V195.842Z" fill="#37474F"/>
<path d="M151.592 191.64V194.414L149.186 195.842V192.711L151.592 191.64Z" fill="#455A64"/>
<path d="M146.368 185.759C146.368 185.759 145.429 185.377 144.533 188.64C143.638 191.903 139.93 194.022 138.991 194.589C138.051 195.157 135.566 197.524 138.991 198.747C142.415 199.97 146.774 198.17 147.796 196.111C148.819 194.051 149.342 192.799 151.588 191.639V187.476C151.588 186.674 150.746 186.091 150.213 185.955C149.68 185.818 146.368 185.759 146.368 185.759Z" fill="#263238"/>
<path d="M165.467 119.711L150.374 118.649V123.346C150.374 127.485 153.055 129.05 153.055 129.05L148.491 151.554C148.27 152.639 148.12 153.737 148.041 154.841L146.06 183.079C146.806 183.728 147.708 184.173 148.678 184.37C149.648 184.567 150.652 184.51 151.593 184.204C152.62 181.058 154.371 175.804 156.436 170.061C158.921 163.129 159.034 158.32 158.936 156.363C158.899 155.677 159.021 154.992 159.293 154.362C160.115 152.454 162.116 147.816 165.467 139.994C171.709 125.464 165.467 119.711 165.467 119.711Z" fill="#455A64"/>
<path d="M146.06 183.098L145.776 187.153C146.03 187.566 146.392 187.902 146.823 188.124C147.254 188.347 147.738 188.447 148.222 188.415C150.012 188.415 150.639 187.256 150.639 187.256C150.639 187.256 150.996 186.126 151.617 184.223C150.673 184.533 149.664 184.592 148.69 184.395C147.715 184.198 146.809 183.751 146.06 183.098Z" fill="#945959"/>
<path d="M151.877 97.9746C151.877 97.9746 147.66 98.1361 146.187 101.228C144.714 104.32 142.611 110.567 142.611 110.567L148.266 111.839L151.877 97.9746Z" fill="#BA68C8"/>
<path opacity="0.2" d="M151.877 97.9746C151.877 97.9746 147.66 98.1361 146.187 101.228C144.714 104.32 142.611 110.567 142.611 110.567L148.266 111.839L151.877 97.9746Z" fill="white"/>
<path d="M160.893 98.6097L165.467 99.4022V109.676L164.038 115.135C164.038 115.135 164.307 118.071 165.467 119.695C165.467 119.695 157.326 125.869 148.114 119.695C148.114 119.695 148.472 114.313 148.472 112.807C148.472 112.807 145.35 110.928 145.659 108.066C145.967 105.204 151.877 97.9591 151.877 97.9591L155.125 97.915L160.893 98.6097Z" fill="#BA68C8"/>
<path opacity="0.4" d="M160.893 98.6097L165.467 99.4022V109.676L164.038 115.135C164.038 115.135 164.307 118.071 165.467 119.695C165.467 119.695 157.326 125.869 148.114 119.695C148.114 119.695 148.472 114.313 148.472 112.807C148.472 112.807 145.35 110.928 145.659 108.066C145.967 105.204 151.877 97.9591 151.877 97.9591L155.125 97.915L160.893 98.6097Z" fill="white"/>
<path d="M153.031 77.6137C153.031 77.6137 149.078 76.2439 148.114 80.2897C147.151 84.3355 150.125 88.259 145.668 89.5847C145.668 89.5847 148.295 91.7715 150.604 87.6915L152.561 96.0081C152.561 96.0081 152.561 96.4631 151.871 96.8104C151.871 96.8104 163.123 99.3054 165.251 93.7039C165.551 94.0269 165.755 94.4263 165.841 94.858C165.927 95.2897 165.893 95.7368 165.741 96.15C165.741 96.15 169.053 94.8095 168.123 90.5191C168.123 90.5191 170.74 90.4458 171.362 88.3128C171.362 88.3128 167.174 88.5134 167.199 83.9099C167.228 78.5676 164.415 79.3406 164.415 79.3406C164.415 79.3406 160.976 74.2185 153.031 77.6137Z" fill="#263238"/>
<path d="M155.125 94.3637V97.9301C155.125 97.9301 151.92 103.453 153.168 103.801C155.555 104.471 160.868 98.6003 160.868 98.6003V91.0664L155.125 94.3637Z" fill="#945959"/>
<path d="M160.829 89.8734V90.0838C159.542 95.152 156.201 96.2576 155.125 96.5169L155.085 88.6895L160.662 88.665L160.829 89.8734Z" fill="#703838"/>
<path d="M155.487 78.5918C153.358 78.7679 148.931 80.3236 148.863 85.93C148.794 91.5364 149.655 95.8268 152.566 96.0029C155.477 96.179 161.983 93.5568 162.282 86.2675C162.58 78.9782 157.566 78.4108 155.487 78.5918Z" fill="#945959"/>
<path d="M152.796 88.1855L152.845 91.4828L150.908 90.9202L152.796 88.1855Z" fill="#703838"/>
<path d="M155.692 88.0973C155.678 88.2658 155.601 88.4228 155.476 88.5372C155.352 88.6516 155.189 88.715 155.02 88.715C154.85 88.715 154.688 88.6516 154.563 88.5372C154.438 88.4228 154.361 88.2658 154.347 88.0973C154.346 87.9186 154.415 87.7466 154.539 87.6185C154.664 87.4903 154.834 87.4163 155.012 87.4124C155.102 87.4111 155.192 87.4279 155.275 87.4619C155.359 87.4959 155.434 87.5464 155.498 87.6104C155.561 87.6743 155.611 87.7504 155.645 87.834C155.678 87.9177 155.694 88.0073 155.692 88.0973Z" fill="#263238"/>
<path d="M151.27 87.6917C151.272 87.8252 151.234 87.9563 151.161 88.0684C151.089 88.1805 150.985 88.2685 150.862 88.3214C150.74 88.3742 150.604 88.3896 150.473 88.3654C150.341 88.3413 150.22 88.2787 150.124 88.1857C150.029 88.0927 149.963 87.9733 149.935 87.8428C149.907 87.7122 149.918 87.5763 149.967 87.4522C150.017 87.3281 150.102 87.2214 150.212 87.1456C150.322 87.0698 150.451 87.0284 150.585 87.0264C150.674 87.0245 150.762 87.0402 150.845 87.0727C150.927 87.1052 151.003 87.1538 151.067 87.2157C151.13 87.2776 151.181 87.3516 151.216 87.4333C151.251 87.515 151.269 87.6029 151.27 87.6917Z" fill="#263238"/>
<path d="M149.758 86.3119L151.059 85.5145C151.059 85.5145 150.57 84.9959 150.052 85.3188C149.908 85.4353 149.803 85.5925 149.751 85.7698C149.698 85.9471 149.701 86.1361 149.758 86.3119Z" fill="#BA68C8"/>
<path d="M149.758 86.3119L151.059 85.5145C151.059 85.5145 150.57 84.9959 150.052 85.3188C149.908 85.4353 149.803 85.5925 149.751 85.7698C149.698 85.9471 149.701 86.1361 149.758 86.3119Z" fill="#263238"/>
<path d="M158.999 87.7944C158.999 87.7944 158.867 90.1573 160.227 90.1573H162.893V85.6516C162.893 80.5981 159.063 75.3195 150.908 79.4925C150.908 79.4925 150.521 86.2387 158.999 87.7944Z" fill="#263238"/>
<path d="M160.217 89.878C160.205 89.3731 160.305 88.8716 160.511 88.4104C160.612 88.1165 160.797 87.8587 161.043 87.6691C161.289 87.4795 161.585 87.3664 161.895 87.3439C163.485 87.3195 163.681 88.8507 163.657 89.3937C163.583 90.8222 162.414 92.3535 160.232 92.3877L160.217 89.878Z" fill="#945959"/>
<path d="M154.562 92.5247C154.562 92.6341 154.53 92.7409 154.469 92.8319C154.408 92.9228 154.322 92.9936 154.221 93.0355C154.12 93.0773 154.009 93.0883 153.902 93.0669C153.794 93.0456 153.696 92.9929 153.618 92.9156C153.541 92.8383 153.488 92.7398 153.467 92.6326C153.446 92.5253 153.457 92.4142 153.499 92.3132C153.54 92.2122 153.611 92.1258 153.702 92.0651C153.793 92.0043 153.9 91.9719 154.009 91.9719C154.156 91.9719 154.297 92.0302 154.4 92.1338C154.504 92.2375 154.562 92.3781 154.562 92.5247Z" fill="#703838"/>
<path d="M165.467 99.4033C165.467 99.4033 161.709 100.768 163.353 107.343C164.997 113.918 166.577 119.422 166.577 119.422L160.036 123.336C160.036 123.336 162.414 124.476 161.881 128.668C161.881 128.668 170.432 126.555 172.413 125.116C174.395 123.678 173.72 119.476 173.25 117.162C172.78 114.848 170.569 105.455 170.232 104.178C169.894 102.901 168.896 100 165.467 99.4033Z" fill="#BA68C8"/>
<path opacity="0.2" d="M165.467 99.4033C165.467 99.4033 161.709 100.768 163.353 107.343C164.997 113.918 166.577 119.422 166.577 119.422L160.036 123.336C160.036 123.336 162.414 124.476 161.881 128.668C161.881 128.668 170.432 126.555 172.413 125.116C174.395 123.678 173.72 119.476 173.25 117.162C172.78 114.848 170.569 105.455 170.232 104.178C169.894 102.901 168.896 100 165.467 99.4033Z" fill="white"/>
<path d="M166.577 119.422C167.873 119.312 169.168 119.63 170.266 120.327C169.779 119.743 169.173 119.271 168.487 118.944C167.801 118.616 167.053 118.441 166.293 118.429L166.577 119.422Z" fill="#BA68C8"/>
<path d="M139.617 135.189L122.846 125.404C122.809 125.382 122.778 125.351 122.756 125.313C122.735 125.276 122.723 125.233 122.723 125.189C122.723 125.146 122.735 125.103 122.756 125.065C122.778 125.027 122.809 124.996 122.846 124.974L141.437 113.517L139.617 135.189Z" fill="#BA68C8"/>
<path opacity="0.4" d="M139.617 135.189L122.846 125.404C122.809 125.382 122.778 125.351 122.756 125.313C122.735 125.276 122.723 125.233 122.723 125.189C122.723 125.146 122.735 125.103 122.756 125.065C122.778 125.027 122.809 124.996 122.846 124.974L141.437 113.517L139.617 135.189Z" fill="black"/>
<path d="M139.617 135.189L158.314 124.363V119.441L139.617 130.224V135.189Z" fill="#BA68C8"/>
<path opacity="0.2" d="M139.617 135.189L158.314 124.363V119.441L139.617 130.224V135.189Z" fill="black"/>
<path d="M154.665 125.121L147.282 129.387C146.793 129.671 146.392 129.387 146.392 128.712C146.397 128.379 146.48 128.052 146.634 127.757C146.789 127.462 147.011 127.207 147.282 127.014L154.665 122.753C155.154 122.469 155.555 122.753 155.555 123.423C155.549 123.756 155.466 124.083 155.311 124.378C155.157 124.673 154.935 124.927 154.665 125.121Z" fill="#E6E6E6"/>
<path d="M145.306 129.338C145.287 129.695 145.184 130.042 145.005 130.351C144.827 130.661 144.578 130.924 144.279 131.119C143.711 131.447 143.256 131.178 143.256 130.527C143.275 130.171 143.377 129.824 143.555 129.514C143.732 129.205 143.98 128.942 144.279 128.746C144.846 128.418 145.306 128.683 145.306 129.338Z" fill="#E6E6E6"/>
<path d="M139.617 130.225L122.91 122.373C122.87 122.351 122.837 122.32 122.813 122.281C122.79 122.242 122.778 122.198 122.778 122.153C122.778 122.107 122.79 122.063 122.813 122.024C122.837 121.985 122.87 121.954 122.91 121.932L140.825 111.277C140.926 111.216 141.041 111.182 141.159 111.176C141.277 111.171 141.394 111.196 141.5 111.248L158.334 119.442L139.617 130.225Z" fill="#BA68C8"/>
<path d="M123.986 122.876V124.989L137.826 132.817V129.383L123.986 122.876Z" fill="#F5F5F5"/>
<path d="M137.826 132.816L139.617 131.701V130.223L137.826 129.382V132.816Z" fill="#E0E0E0"/>
<path d="M161.881 128.677C161.881 128.677 154.542 130.257 153.862 130.424C153.182 130.59 149.636 131.7 146.715 131.06L153.926 126.901C153.926 126.901 150.247 126.001 150.776 124.856C150.976 124.421 157.82 124.656 157.82 124.656L160.036 123.345C160.036 123.345 163.96 123.849 161.881 128.677Z" fill="#945959"/>
<path d="M122.768 120.337V114.882H153.256C153.363 114.882 156.636 116.584 158.084 117.328C158.15 117.364 158.204 117.418 158.242 117.482C158.279 117.547 158.299 117.62 158.299 117.695C158.299 117.77 158.279 117.843 158.242 117.907C158.204 117.972 158.15 118.025 158.084 118.062L140.018 128.277C139.891 128.349 139.748 128.389 139.603 128.393C139.457 128.397 139.312 128.366 139.181 128.301L122.768 120.337Z" fill="#BA68C8"/>
<path opacity="0.4" d="M122.768 120.337V114.882H153.256C153.363 114.882 156.636 116.584 158.084 117.328C158.15 117.364 158.204 117.418 158.242 117.482C158.279 117.547 158.299 117.62 158.299 117.695C158.299 117.77 158.279 117.843 158.242 117.907C158.204 117.972 158.15 118.025 158.084 118.062L140.018 128.277C139.891 128.349 139.748 128.389 139.603 128.393C139.457 128.397 139.312 128.366 139.181 128.301L122.768 120.337Z" fill="black"/>
<path d="M139.617 126.999L156.915 117.274V115.16L139.617 124.363V126.999Z" fill="#E0E0E0"/>
<path d="M122.768 120.337L127.288 117.69L122.768 114.882V120.337Z" fill="#BA68C8"/>
<path opacity="0.6" d="M122.768 120.337L127.288 117.69L122.768 114.882V120.337Z" fill="black"/>
<path d="M125.625 116.653V119.667L139.617 127V124.363L125.625 116.653Z" fill="#F5F5F5"/>
<path d="M122.768 114.882L139.034 124.579C139.211 124.686 139.413 124.745 139.619 124.751C139.826 124.757 140.031 124.71 140.213 124.613L158.148 115.22C158.211 115.185 158.264 115.135 158.302 115.073C158.34 115.012 158.361 114.942 158.363 114.87C158.366 114.798 158.349 114.726 158.316 114.662C158.283 114.599 158.233 114.545 158.172 114.506L141.808 103.87L122.768 114.882Z" fill="#BA68C8"/>
<path d="M139.617 122.88L122.846 113.096C122.809 113.074 122.778 113.042 122.756 113.004C122.735 112.967 122.723 112.924 122.723 112.88C122.723 112.837 122.735 112.794 122.756 112.756C122.778 112.719 122.809 112.687 122.846 112.665L141.437 101.208L139.617 122.88Z" fill="#BA68C8"/>
<path opacity="0.4" d="M139.617 122.88L122.846 113.096C122.809 113.074 122.778 113.042 122.756 113.004C122.735 112.967 122.723 112.924 122.723 112.88C122.723 112.837 122.735 112.794 122.756 112.756C122.778 112.719 122.809 112.687 122.846 112.665L141.437 101.208L139.617 122.88Z" fill="black"/>
<path d="M139.617 122.876L158.314 112.054V107.133L139.617 117.915V122.876Z" fill="#BA68C8"/>
<path opacity="0.2" d="M139.617 122.876L158.314 112.054V107.133L139.617 117.915V122.876Z" fill="black"/>
<path d="M154.665 112.837L147.282 117.099C146.793 117.382 146.392 117.099 146.392 116.428C146.397 116.095 146.48 115.768 146.634 115.473C146.789 115.178 147.011 114.924 147.282 114.731L154.665 110.465C155.154 110.186 155.555 110.465 155.555 111.14C155.549 111.473 155.466 111.8 155.311 112.094C155.157 112.389 154.935 112.644 154.665 112.837Z" fill="#E6E6E6"/>
<path d="M145.306 117.029C145.288 117.386 145.185 117.732 145.006 118.041C144.828 118.35 144.578 118.612 144.279 118.805C143.711 119.133 143.256 118.869 143.256 118.213C143.275 117.858 143.378 117.512 143.555 117.203C143.733 116.895 143.981 116.632 144.279 116.437C144.846 116.11 145.306 116.374 145.306 117.029Z" fill="#E6E6E6"/>
<path d="M139.617 117.915L122.91 110.088C122.87 110.066 122.837 110.033 122.814 109.994C122.791 109.955 122.779 109.91 122.779 109.865C122.779 109.82 122.791 109.775 122.814 109.736C122.837 109.697 122.87 109.664 122.91 109.642L140.825 98.9874C140.929 98.9309 141.045 98.9012 141.163 98.9012C141.281 98.9012 141.397 98.9309 141.5 98.9874L158.334 107.182L139.617 117.915Z" fill="#BA68C8"/>
<path d="M123.986 110.567V112.681L137.826 120.508V117.074L123.986 110.567Z" fill="#F5F5F5"/>
<path d="M137.826 120.509L139.616 119.388V117.916L137.826 117.074V120.509Z" fill="#E0E0E0"/>
</svg>
