<svg width="26" height="26" viewBox="0 0 26 26" fill="none" xmlns="http://www.w3.org/2000/svg">
<path d="M12.3672 23.2H3.77719C3.63225 23.2011 3.48893 23.1694 3.358 23.1072C3.22707 23.0451 3.11191 22.954 3.02118 22.841C2.92827 22.7268 2.8621 22.5933 2.8275 22.4502C2.79289 22.3071 2.79073 22.158 2.82118 22.014C3.30845 19.7204 4.55399 17.6578 6.35695 16.1588C8.1599 14.6597 10.4152 13.8115 12.7592 13.751C12.8392 13.751 12.9192 13.751 13.0002 13.751C14.5273 13.7524 16.0049 13.2102 17.1686 12.2213C18.3323 11.2325 19.1059 9.86167 19.3509 8.35439C19.5959 6.84711 19.2963 5.30183 18.5058 3.99532C17.7152 2.68881 16.4854 1.70643 15.0365 1.22409C13.5876 0.74176 12.0143 0.79099 10.5984 1.36298C9.18256 1.93497 8.01654 2.99234 7.30925 4.34572C6.60195 5.69911 6.39957 7.2601 6.73835 8.7491C7.07714 10.2381 7.93497 11.5579 9.15819 12.472C7.11061 13.145 5.27621 14.345 3.83929 15.9515C2.40238 17.558 1.41356 19.5144 0.97218 21.624C0.884366 22.0412 0.890607 22.4726 0.99046 22.8871C1.09031 23.3015 1.28127 23.6884 1.54944 24.0198C1.8176 24.3512 2.15623 24.6187 2.54072 24.8027C2.92521 24.9868 3.3459 25.0829 3.77218 25.084H12.3622C12.6127 25.084 12.8529 24.9845 13.03 24.8074C13.2072 24.6302 13.3067 24.39 13.3067 24.1395C13.3067 23.889 13.2072 23.6488 13.03 23.4717C12.8529 23.2945 12.6127 23.195 12.3622 23.195L12.3672 23.2ZM8.46718 7.33301C8.46723 6.44108 8.73042 5.56899 9.22378 4.82593C9.71714 4.08287 10.4188 3.50186 11.2408 3.15567C12.0628 2.80948 12.9686 2.71348 13.845 2.8797C14.7213 3.04592 15.529 3.46697 16.1672 4.09012C16.8053 4.71327 17.2455 5.51084 17.4324 6.38295C17.6194 7.25506 17.545 8.16295 17.2184 8.99295C16.8919 9.82295 16.3277 10.5382 15.5966 11.049C14.8654 11.5599 13.9999 11.8438 13.1082 11.865C13.0727 11.8606 13.0369 11.8583 13.0012 11.858H12.7802C11.618 11.7998 10.5226 11.2975 9.72018 10.4549C8.91774 9.61226 8.46955 8.49362 8.46818 7.33002L8.46718 7.33301ZM21.6892 19.375C21.6892 19.499 21.6648 19.6217 21.6173 19.7363C21.5699 19.8508 21.5004 19.9549 21.4127 20.0425C21.325 20.1302 21.221 20.1997 21.1064 20.2472C20.9919 20.2946 20.8692 20.319 20.7452 20.319H19.3752C19.2512 20.319 19.1285 20.2946 19.0139 20.2472C18.8994 20.1997 18.7953 20.1302 18.7077 20.0425C18.62 19.9549 18.5505 19.8508 18.503 19.7363C18.4556 19.6217 18.4312 19.499 18.4312 19.375V17.439C18.4312 17.1885 18.5307 16.9483 18.7078 16.7712C18.8849 16.594 19.1252 16.4945 19.3757 16.4945C19.6262 16.4945 19.8664 16.594 20.0435 16.7712C20.2207 16.9483 20.3202 17.1885 20.3202 17.439V18.431H20.7452C20.8692 18.431 20.9919 18.4554 21.1064 18.5029C21.221 18.5503 21.325 18.6198 21.4127 18.7075C21.5004 18.7952 21.5699 18.8992 21.6173 19.0138C21.6648 19.1283 21.6892 19.251 21.6892 19.375ZM19.3752 13.661C18.2451 13.661 17.1403 13.9961 16.2007 14.624C15.261 15.2519 14.5286 16.1443 14.0961 17.1884C13.6637 18.2325 13.5505 19.3813 13.771 20.4897C13.9915 21.5982 14.5356 22.6163 15.3348 23.4154C16.1339 24.2145 17.152 24.7587 18.2604 24.9792C19.3689 25.1997 20.5177 25.0865 21.5618 24.6541C22.6059 24.2216 23.4983 23.4892 24.1262 22.5495C24.7541 21.6099 25.0892 20.5051 25.0892 19.375C25.0876 17.86 24.4851 16.4076 23.4138 15.3364C22.3426 14.2651 20.8902 13.6626 19.3752 13.661ZM19.3752 23.2C18.6187 23.2 17.8792 22.9757 17.2501 22.5554C16.6211 22.1351 16.1309 21.5377 15.8414 20.8388C15.5518 20.1399 15.4761 19.3708 15.6237 18.6288C15.7713 17.8868 16.1356 17.2053 16.6705 16.6703C17.2055 16.1354 17.887 15.7711 18.6289 15.6235C19.3709 15.4759 20.14 15.5517 20.8389 15.8412C21.5379 16.1307 22.1353 16.621 22.5556 17.25C22.9758 17.879 23.2002 18.6185 23.2002 19.375C23.1991 20.3891 22.7958 21.3614 22.0787 22.0785C21.3616 22.7956 20.3893 23.199 19.3752 23.2Z" fill="#06103B"/>
</svg>
