<svg width="32" height="32" viewBox="0 0 32 32" fill="none" xmlns="http://www.w3.org/2000/svg">
<path d="M15 0.0374994C11.7312 0.3375 8.7625 1.55625 6.30625 3.6125C4.73125 4.93125 3.225 6.88125 2.40625 8.64375C2.26875 8.9375 2.1375 9.18125 2.11875 9.1875C2.1 9.1875 2.00625 8.99375 1.90625 8.75C1.6625 8.1375 1.40625 7.9375 0.88125 7.9375C0.43125 7.9375 0 8.3875 0 8.85C0 9.14375 1.26875 12.1062 1.4875 12.3312C1.69375 12.5375 2.0875 12.6438 2.35 12.5687C2.45 12.5375 3.18125 12.2438 3.96875 11.9125C5.525 11.2563 5.7625 11.1 5.85 10.6562C5.9125 10.325 5.73125 9.9125 5.45 9.71875C5.15 9.5125 4.79375 9.51875 4.3125 9.71875C4.10625 9.80625 3.925 9.875 3.9 9.875C3.8375 9.875 4.61875 8.43125 4.975 7.9C7.06875 4.74375 10.3688 2.64375 14.1938 2.01875C15.1188 1.86875 17.225 1.86875 18.1562 2.01875C22.5562 2.7375 26.2313 5.4 28.175 9.2875C28.5562 10.0562 28.9 10.9125 29.0688 11.55C29.2938 12.3688 29.5375 12.625 30.1063 12.625C30.6313 12.625 31 12.2625 31 11.7437C31 11.1812 30.475 9.7 29.8062 8.375C28.5 5.7875 26.4688 3.61875 23.9563 2.13125C22.2437 1.11875 20.4375 0.4875 18.3313 0.15625C17.7375 0.0625 15.575 -0.0124998 15 0.0374994Z" fill="#FF8C54"/>
<path d="M15.1062 5.81875C14.15 6.14375 13.5125 6.85625 13.2625 7.88125C13.15 8.325 13.15 8.33125 12.8563 8.44375L12.5563 8.5625L12.2313 8.34375C11.15 7.6125 9.6375 7.7625 8.69375 8.69375C7.7625 9.61875 7.6125 11.15 8.34375 12.2313L8.5625 12.5563L8.44375 12.8563C8.33125 13.15 8.325 13.15 7.88125 13.2625C6.525 13.5938 5.6875 14.6438 5.6875 16C5.6875 17.3563 6.525 18.4063 7.88125 18.7375C8.325 18.85 8.33125 18.85 8.44375 19.1438L8.5625 19.4438L8.34375 19.7688C7.75625 20.6375 7.725 21.8375 8.26875 22.7625C8.4625 23.1 9.01875 23.6313 9.35 23.8C10.2875 24.2813 11.425 24.2125 12.2688 23.6313L12.5563 23.4375L12.85 23.5563C13.15 23.6688 13.15 23.675 13.2562 24.1125C13.3187 24.3563 13.4125 24.65 13.475 24.7625C13.9625 25.725 14.9187 26.3125 15.9938 26.3125C17.3625 26.3125 18.4062 25.4813 18.7375 24.1188C18.85 23.6688 18.85 23.6688 19.15 23.5563L19.4438 23.4375L19.7312 23.6313C20.8313 24.3875 22.375 24.25 23.3062 23.3063C24.25 22.35 24.3875 20.8313 23.6313 19.7313L23.4375 19.4438L23.5562 19.15C23.6688 18.85 23.675 18.85 24.1125 18.7438C24.3563 18.6813 24.65 18.5875 24.7625 18.525C26.3 17.7438 26.7938 15.7813 25.8062 14.375C25.4062 13.8 24.8625 13.4438 24.1125 13.2563C23.675 13.15 23.6688 13.15 23.5562 12.85L23.4375 12.5563L23.6313 12.2688C24.3875 11.1688 24.25 9.65 23.3062 8.69375C22.3813 7.7625 20.85 7.6125 19.7688 8.34375L19.4438 8.5625L19.1438 8.44375C18.85 8.33125 18.85 8.325 18.7375 7.88125C18.4875 6.85 17.8063 6.1 16.8562 5.8C16.3562 5.64375 15.5813 5.65 15.1062 5.81875ZM16.5063 7.70625C16.8188 7.9125 16.9375 8.2 16.9375 8.74375C16.9375 9.09375 16.9688 9.25625 17.0688 9.4375C17.225 9.71875 17.3813 9.8125 18.025 10.025C18.2937 10.1188 18.7063 10.2938 18.95 10.4125C19.4062 10.65 19.7438 10.7 20.0125 10.5563C20.0938 10.5125 20.3188 10.3313 20.5188 10.15C20.9062 9.79375 21.1438 9.70625 21.5437 9.78125C21.8438 9.8375 22.1625 10.1563 22.2188 10.4563C22.3 10.8625 22.2063 11.1 21.8188 11.5188C21.2563 12.1188 21.2375 12.3313 21.6438 13.1875C21.8 13.5125 21.9688 13.9313 22.0188 14.1125C22.2375 14.8438 22.525 15.0625 23.2563 15.0625C24.025 15.0625 24.4375 15.3875 24.4375 16C24.4375 16.6063 24.025 16.9375 23.2625 16.9375C22.5188 16.9375 22.2375 17.15 22.0188 17.8875C21.9688 18.0688 21.8 18.4875 21.6438 18.8125C21.2375 19.6688 21.2563 19.8813 21.8188 20.4813C22.2063 20.9 22.3 21.1375 22.2188 21.5438C22.1625 21.8438 21.8438 22.1625 21.5437 22.2188C21.1438 22.2938 20.9062 22.2063 20.5188 21.85C19.8688 21.25 19.6813 21.2313 18.8125 21.6438C18.4875 21.8 18.0688 21.9688 17.8875 22.0188C17.15 22.2375 16.9375 22.5188 16.9375 23.2625C16.9375 24.025 16.6062 24.4375 16 24.4375C15.3938 24.4375 15.0625 24.025 15.0625 23.2625C15.0625 22.5188 14.85 22.2375 14.1125 22.0188C13.9313 21.9688 13.5438 21.8125 13.25 21.675C12.9625 21.5313 12.6438 21.4 12.55 21.3688C12.2625 21.2875 11.9563 21.425 11.525 21.8125C11.0938 22.2063 10.8563 22.2938 10.475 22.225C10.0625 22.1438 9.75 21.7688 9.75 21.35C9.75 21.025 9.84375 20.8375 10.1813 20.4813C10.7438 19.875 10.7688 19.6688 10.3563 18.8125C10.2 18.4875 10.0312 18.0688 9.98125 17.8875C9.7625 17.15 9.48125 16.9375 8.7375 16.9375C7.975 16.9375 7.5625 16.6063 7.5625 16C7.5625 15.3875 7.975 15.0625 8.74375 15.0625C9.09375 15.0625 9.25625 15.0313 9.4375 14.9313C9.71875 14.775 9.8125 14.6188 10.025 13.975C10.1188 13.7063 10.2938 13.2938 10.4125 13.05C10.65 12.5938 10.7 12.2563 10.5563 11.9875C10.5188 11.9063 10.3438 11.7 10.1813 11.5188C9.84375 11.1625 9.75 10.975 9.75 10.65C9.75 10.2313 10.0625 9.85625 10.475 9.775C10.85 9.70625 11.1 9.8 11.4813 10.15C12.1312 10.75 12.3187 10.7688 13.1875 10.3563C13.5125 10.2 13.9313 10.0313 14.1125 9.98125C14.8438 9.7625 15.0625 9.475 15.0625 8.74375C15.0625 7.975 15.3875 7.5625 16 7.5625C16.2 7.5625 16.3625 7.60625 16.5063 7.70625Z" fill="#FF8C54"/>
<path d="M15.3438 13.2747C14.8188 13.4059 14.425 13.6309 14.025 14.0309C12.9188 15.1309 12.9188 16.8622 14.0313 17.9684C15.6438 19.5872 18.375 18.7059 18.7625 16.4434C18.9125 15.5622 18.625 14.6872 17.9688 14.0247C17.2688 13.3184 16.2875 13.0372 15.3438 13.2747ZM16.4375 15.1872C16.7188 15.3309 16.9375 15.6872 16.9375 15.9997C16.9375 16.4747 16.475 16.9372 15.9938 16.9372C15.7063 16.9372 15.3188 16.6934 15.1813 16.4247C14.95 15.9747 15.0938 15.4809 15.5375 15.2122C15.8375 15.0309 16.1125 15.0247 16.4375 15.1872Z" fill="#FF8C54"/>
<path d="M29.625 19.2499C29.5375 19.2749 28.825 19.5687 28.0312 19.8999C26.475 20.5562 26.2375 20.7187 26.15 21.1562C26.0937 21.4624 26.2687 21.8937 26.5125 22.0687C26.825 22.2937 27.2125 22.2937 27.7437 22.0687C28.275 21.8437 28.275 21.8312 27.8625 22.6562C26.0875 26.1874 22.9062 28.7437 19.05 29.7249C15.0625 30.7312 10.6625 29.7687 7.43748 27.1687C5.28748 25.4374 3.60623 22.9312 2.93123 20.4499C2.76873 19.8624 2.65623 19.6562 2.39998 19.4937C2.14373 19.3374 1.65623 19.3374 1.41248 19.4937C0.843735 19.8687 0.868735 20.4437 1.53748 22.1687C3.14373 26.3312 6.45623 29.5749 10.6375 31.0812C13.4187 32.0874 16.45 32.2624 19.3437 31.5812C23.7937 30.5374 27.6125 27.4687 29.6 23.3499L29.9312 22.6687L30.0312 22.9187C30.3125 23.6249 30.5125 23.8187 31.0125 23.8624C31.2875 23.8812 31.3812 23.8624 31.5562 23.7374C31.8125 23.5624 32 23.2312 32 22.9624C32 22.6812 30.7375 19.7187 30.525 19.4937C30.4312 19.3937 30.25 19.2812 30.1312 19.2499C29.875 19.1812 29.8375 19.1812 29.625 19.2499Z" fill="#FF8C54"/>
</svg>
