<svg width="32" height="32" viewBox="0 0 32 32" fill="none" xmlns="http://www.w3.org/2000/svg">
<path d="M7.68126 1.18128C7.50001 1.36253 7.50001 1.37503 7.50001 2.08128V2.80003L5.89376 2.82503C4.45001 2.85003 4.23751 2.86878 3.87501 2.98753C2.86876 3.32504 2.05001 4.20004 1.78126 5.21878C1.70001 5.54379 1.68751 6.71878 1.68751 14.6563C1.68751 24.6563 1.66251 24.0563 2.08126 24.8375C2.33751 25.325 2.86251 25.85 3.35001 26.1063C4.10626 26.5063 3.91251 26.5 10.5938 26.5H16.6563L16.9625 27.1C19.0875 31.275 24.5688 32.2563 28.0063 29.075C29.0125 28.1438 29.725 26.9 30.0625 25.5C30.675 22.9063 29.6688 20.0688 27.5438 18.4313C26.8563 17.9 25.8 17.3688 25.05 17.175L24.5 17.0313V11.275C24.5 4.93128 24.5188 5.25628 24.1063 4.46878C23.8438 3.98129 23.2813 3.43128 22.7938 3.18753C22.1625 2.88128 21.7063 2.81253 20.1125 2.81253H18.6875V2.10003C18.6875 1.41878 18.6813 1.37503 18.525 1.19378C18.3875 1.03128 18.3188 1.00003 18.0938 1.00003C17.8938 1.00003 17.7688 1.04378 17.6438 1.15003C17.475 1.30003 17.4688 1.31878 17.45 2.05628L17.425 2.81253H13.0875H8.75001V2.08753C8.75001 1.37503 8.75001 1.36253 8.56876 1.18128C8.42501 1.03753 8.33126 1.00003 8.12501 1.00003C7.91876 1.00003 7.82501 1.03753 7.68126 1.18128ZM7.50001 4.85003C7.50001 5.56253 7.50001 5.57503 7.68126 5.75628C7.82501 5.90003 7.91876 5.93753 8.12501 5.93753C8.33126 5.93753 8.42501 5.90003 8.56876 5.75628C8.75001 5.57503 8.75001 5.56253 8.75001 4.85003V4.12503H13.0938H17.4375V4.78128C17.4375 5.69378 17.575 5.93753 18.0875 5.93753C18.2438 5.93753 18.3688 5.88128 18.5125 5.75628L18.7188 5.57503L18.7375 4.84378L18.7625 4.11878L20.3375 4.13754C21.825 4.15628 21.9188 4.16253 22.1688 4.30003C22.5813 4.51878 22.8563 4.79379 23.0438 5.17503C23.2125 5.51254 23.2188 5.58128 23.2375 6.54378L23.2625 7.56253H13.0938H2.92501L2.95001 6.57503C2.96876 5.67503 2.98751 5.56253 3.13126 5.24378C3.33751 4.80628 3.74376 4.41253 4.15626 4.25003C4.43126 4.14378 4.63751 4.13128 5.98751 4.13128L7.50001 4.12503V4.85003ZM23.25 12.875V16.9375H22.9563C22.2063 16.9375 20.875 17.275 20.1125 17.6625C19.1438 18.15 18.0938 19.0563 17.5 19.9125C16.9125 20.7625 16.4938 21.7625 16.3125 22.75C16.2188 23.2375 16.2 24.3188 16.2688 24.8625L16.3188 25.2563L10.3938 25.2375L4.46876 25.2188L4.05001 25.0125C3.58126 24.7813 3.36251 24.5625 3.13126 24.0625L2.96876 23.7188L2.95001 16.3438C2.94376 12.2875 2.95001 8.93753 2.96251 8.89378C2.98751 8.82503 4.98126 8.81253 13.125 8.81253H23.25V12.875ZM23.9375 18.25C25.1375 18.4 26.3375 18.9813 27.225 19.8438C28.3688 20.9625 28.95 22.3438 28.95 23.9375C28.9438 24.7563 28.8375 25.3313 28.5563 26.0688C28.1875 27.0188 27.3375 28.0875 26.475 28.6813C26.0438 28.9813 25.2125 29.3563 24.6563 29.5125C23.9375 29.7063 22.5 29.7063 21.7813 29.5125C19.5625 28.9 17.9188 27.0875 17.5563 24.85C17.4563 24.1938 17.5125 23.0375 17.6875 22.4375C18.3188 20.2313 20.1188 18.625 22.3438 18.275C22.9875 18.175 23.2875 18.175 23.9375 18.25Z" fill="#9269AD"/>
<path d="M7.3125 14.3562C7.125 14.425 6.9375 14.65 6.9 14.8437C6.85625 15.075 7 15.4 7.18125 15.5C7.2625 15.5437 9.04375 15.5625 12.4688 15.5625C15.8938 15.5625 17.675 15.5437 17.7563 15.5C18.0875 15.3187 18.1375 14.775 17.8375 14.4937L17.675 14.3437L12.5438 14.3312C9.71875 14.325 7.3625 14.3375 7.3125 14.3562Z" fill="#9269AD"/>
<path d="M7.325 18.5062C6.8875 18.6374 6.75625 19.2187 7.09375 19.5562L7.25 19.7187L10.3625 19.7374C12.0688 19.7437 13.5375 19.7374 13.6125 19.7187C14.0625 19.6062 14.2063 19.0374 13.8813 18.6749L13.7 18.4687L10.6125 18.4562C8.78125 18.4499 7.45 18.4687 7.325 18.5062Z" fill="#9269AD"/>
<path d="M25.95 21.8873C25.7188 22.1061 24.9125 22.8686 24.1562 23.5936C23.4 24.3123 22.6875 24.9873 22.575 25.0873L22.375 25.2748L21.2812 24.1936L20.1938 23.1061L19.925 23.1436C19.5688 23.1936 19.375 23.4123 19.375 23.7686C19.375 24.0186 19.4 24.0498 20.7313 25.3873C22.1688 26.8311 22.3 26.9248 22.6437 26.7373C22.7313 26.6936 23.6375 25.8561 24.6625 24.8748C27.5125 22.1498 27.25 22.4311 27.25 22.1248C27.25 21.7561 26.9938 21.4998 26.625 21.4998C26.3938 21.4998 26.3187 21.5373 25.95 21.8873Z" fill="#9269AD"/>
</svg>
