<svg width="16" height="14" viewBox="0 0 16 14" fill="none" xmlns="http://www.w3.org/2000/svg">
<path d="M14.1551 1.38213C13.2676 0.496742 12.0652 -0.000488281 10.8116 -0.000488281C9.55796 -0.000488281 8.35554 0.496742 7.46806 1.38213L1.73506 7.11413C1.10146 7.7476 0.745455 8.60682 0.745361 9.50278C0.745268 10.3987 1.10109 11.258 1.73456 11.8916C2.36803 12.5252 3.22726 12.8812 4.12321 12.8813C5.01917 12.8814 5.87846 12.5256 6.51206 11.8921L11.7661 6.63813C11.9542 6.44995 12.1035 6.22654 12.2054 5.98066C12.3072 5.73479 12.3596 5.47126 12.3596 5.20513C12.3596 4.939 12.3072 4.67547 12.2054 4.4296C12.1035 4.18372 11.9542 3.96031 11.7661 3.77213C11.5779 3.58394 11.3545 3.43467 11.1086 3.33282C10.8627 3.23098 10.5992 3.17856 10.3331 3.17856C10.0669 3.17856 9.8034 3.23098 9.55753 3.33282C9.31166 3.43467 9.08825 3.58394 8.90006 3.77213L5.46406 7.20713C5.40136 7.26984 5.35162 7.34428 5.31768 7.42621C5.28374 7.50814 5.26628 7.59595 5.26628 7.68463C5.26628 7.77331 5.28374 7.86112 5.31768 7.94305C5.35162 8.02498 5.40136 8.09942 5.46406 8.16213C5.52677 8.22484 5.60121 8.27458 5.68314 8.30851C5.76507 8.34245 5.85288 8.35992 5.94156 8.35992C6.03024 8.35992 6.11806 8.34245 6.19999 8.30851C6.28191 8.27458 6.35636 8.22484 6.41906 8.16213L9.85506 4.72613C9.91777 4.66342 9.99221 4.61368 10.0741 4.57975C10.1561 4.54581 10.2439 4.52834 10.3326 4.52834C10.4212 4.52834 10.5091 4.54581 10.591 4.57975C10.6729 4.61368 10.7474 4.66342 10.8101 4.72613C10.8728 4.78884 10.9225 4.86328 10.9564 4.94521C10.9904 5.02714 11.0079 5.11495 11.0079 5.20363C11.0079 5.29231 10.9904 5.38012 10.9564 5.46205C10.9225 5.54398 10.8728 5.61842 10.8101 5.68113L5.55706 10.9361C5.17439 11.3033 4.66305 11.5059 4.13273 11.5004C3.60241 11.495 3.09536 11.2819 2.72035 10.9068C2.34534 10.5318 2.13224 10.0248 2.12676 9.49446C2.12129 8.96415 2.32387 8.4528 2.69106 8.07013L8.42306 2.33813C8.73564 2.01958 9.10824 1.76614 9.51934 1.59243C9.93044 1.41872 10.3719 1.3282 10.8182 1.32609C11.2645 1.32398 11.7067 1.41033 12.1195 1.58014C12.5322 1.74995 12.9072 1.99987 13.2227 2.31544C13.5383 2.63102 13.7882 3.006 13.9581 3.41873C14.1279 3.83145 14.2142 4.27373 14.2121 4.72002C14.21 5.1663 14.1195 5.60775 13.9458 6.01885C13.7721 6.42995 13.5186 6.80255 13.2001 7.11513L7.46706 12.8461C7.34987 12.9746 7.2867 13.1433 7.29069 13.3172C7.29469 13.4911 7.36553 13.6567 7.48851 13.7797C7.61148 13.9027 7.77712 13.9735 7.95099 13.9775C8.12486 13.9815 8.29357 13.9183 8.42206 13.8011L14.1541 8.06913C14.5932 7.63008 14.9415 7.10884 15.1792 6.53515C15.4168 5.96147 15.5392 5.34659 15.5392 4.72563C15.5392 4.10467 15.4168 3.48979 15.1792 2.91611C14.9415 2.34242 14.5932 1.82118 14.1541 1.38213H14.1551Z" fill="#707070"/>
</svg>
