<svg width="25" height="19" viewBox="0 0 25 19" fill="none" xmlns="http://www.w3.org/2000/svg">
<path d="M22.3093 0.500003H8.9093C8.57928 0.499477 8.25331 0.57254 7.95508 0.71387C7.65685 0.8552 7.39387 1.06123 7.1853 1.31699L0.951294 8.93701C0.843192 9.06961 0.78418 9.23542 0.78418 9.4065C0.78418 9.57757 0.843192 9.74342 0.951294 9.87601L7.1843 17.5C7.39291 17.7556 7.65593 17.9615 7.95416 18.1027C8.2524 18.2439 8.57834 18.3167 8.90829 18.316H22.3083C22.8988 18.3155 23.4649 18.0807 23.8824 17.6631C24.3 17.2456 24.5348 16.6795 24.5353 16.089V2.72901C24.5353 2.13836 24.3009 1.57187 23.8835 1.15393C23.4661 0.736001 22.8999 0.500798 22.3093 0.500003ZM23.0513 16.087C23.051 16.2837 22.9728 16.4723 22.8337 16.6114C22.6946 16.7505 22.506 16.8287 22.3093 16.829H8.9093C8.79926 16.8293 8.69056 16.805 8.59109 16.7579C8.49163 16.7109 8.40388 16.6422 8.33429 16.557L2.48431 9.40702L8.33331 2.25699C8.40296 2.17149 8.49081 2.10262 8.59045 2.05539C8.6901 2.00816 8.79903 1.98379 8.9093 1.98401H22.3093C22.506 1.98428 22.6946 2.06254 22.8337 2.20163C22.9728 2.34073 23.051 2.52931 23.0513 2.72602V16.086V16.087Z" fill="black"/>
<path d="M17.3302 5.1709L14.1442 8.3569L10.9582 5.1709L9.90918 6.21991L13.0952 9.40591L9.90918 12.5919L10.9582 13.6409L14.1442 10.4549L17.3302 13.6409L18.3792 12.5919L15.1932 9.40591L18.3792 6.21991L17.3302 5.1709Z" fill="black"/>
</svg>
