<svg width="32" height="32" viewBox="0 0 32 32" fill="none" xmlns="http://www.w3.org/2000/svg">
<path d="M2.66699 15.9998C2.66699 8.63584 8.63633 2.6665 16.0003 2.6665C23.3643 2.6665 29.3337 8.63584 29.3337 15.9998C29.3337 23.3625 23.3643 29.3332 16.0003 29.3332C8.63633 29.3332 2.66699 23.3625 2.66699 15.9998ZM20.3923 11.0572L13.335 18.1145L10.2763 15.0558C10.1533 14.9285 10.0062 14.8269 9.84353 14.757C9.68086 14.6872 9.5059 14.6504 9.32886 14.6488C9.15182 14.6473 8.97625 14.681 8.81239 14.7481C8.64853 14.8151 8.49966 14.9141 8.37447 15.0393C8.24928 15.1645 8.15027 15.3134 8.08323 15.4772C8.01619 15.6411 7.98245 15.8167 7.98399 15.9937C7.98553 16.1707 8.02231 16.3457 8.09219 16.5084C8.16207 16.671 8.26365 16.8182 8.39099 16.9412L12.3923 20.9425C12.6424 21.1925 12.9814 21.3329 13.335 21.3329C13.6885 21.3329 14.0276 21.1925 14.2777 20.9425L22.2777 12.9425C22.405 12.8195 22.5066 12.6724 22.5765 12.5097C22.6463 12.347 22.6831 12.1721 22.6847 11.995C22.6862 11.818 22.6525 11.6424 22.5854 11.4786C22.5184 11.3147 22.4194 11.1658 22.2942 11.0406C22.169 10.9155 22.0201 10.8165 21.8563 10.7494C21.6924 10.6824 21.5168 10.6486 21.3398 10.6502C21.1628 10.6517 20.9878 10.6885 20.8251 10.7584C20.6624 10.8282 20.5153 10.9298 20.3923 11.0572Z" fill="#00BE33"/>
</svg>
