<svg width="25" height="23" viewBox="0 0 25 23" fill="none" xmlns="http://www.w3.org/2000/svg">
<path d="M24.6369 11.183L14.1369 0.860016C13.6998 0.434199 13.1137 0.195892 12.5034 0.195892C11.8932 0.195892 11.3071 0.434199 10.8699 0.860016L0.369932 11.183C0.232947 11.3176 0.155036 11.5011 0.153348 11.6931C0.15166 11.8852 0.226332 12.07 0.360929 12.207C0.495526 12.344 0.679024 12.4219 0.871061 12.4236C1.0631 12.4253 1.24796 12.3506 1.38495 12.216L2.20193 11.416V19.658C2.20299 20.4931 2.53522 21.2937 3.12573 21.8842C3.71624 22.4747 4.51682 22.807 5.35193 22.808H19.6599C20.495 22.807 21.2957 22.4747 21.8862 21.8842C22.4767 21.2937 22.8089 20.4931 22.8099 19.658V11.413L23.627 12.213C23.7639 12.3476 23.9488 12.4223 24.1408 12.4206C24.3328 12.4189 24.5163 12.341 24.6509 12.204C24.7855 12.067 24.8602 11.8822 24.8585 11.6902C24.8568 11.4981 24.7789 11.3146 24.6419 11.18L24.6369 11.183ZM21.3569 19.654C21.3569 20.1049 21.1778 20.5373 20.859 20.8561C20.5402 21.1749 20.1078 21.354 19.6569 21.354H5.34695C4.89608 21.354 4.46368 21.1749 4.14486 20.8561C3.82605 20.5373 3.64694 20.1049 3.64694 19.654V9.99301L11.8849 1.89301C11.9676 1.81129 12.0659 1.74702 12.1739 1.70401C12.3193 1.64629 12.4772 1.6279 12.6319 1.65073C12.7866 1.67355 12.9325 1.73679 13.0549 1.83401C13.078 1.85246 13.1 1.87215 13.1209 1.89301L21.3589 9.99301L21.3569 19.654Z" fill="#06103B"/>
<path d="M10.3303 8.65302V10.982H8.00134C7.80933 10.982 7.62516 11.0583 7.48938 11.1941C7.3536 11.3298 7.27734 11.514 7.27734 11.706V14.595C7.27734 14.787 7.3536 14.9712 7.48938 15.107C7.62516 15.2427 7.80933 15.319 8.00134 15.319H10.3303V17.645C10.3303 17.837 10.4066 18.0212 10.5424 18.157C10.6782 18.2927 10.8623 18.369 11.0543 18.369H13.9433C14.1353 18.369 14.3195 18.2927 14.4553 18.157C14.5911 18.0212 14.6673 17.837 14.6673 17.645V15.316H16.9963C17.1884 15.316 17.3725 15.2397 17.5083 15.1039C17.644 14.9682 17.7203 14.784 17.7203 14.592V11.703C17.7203 11.511 17.644 11.3268 17.5083 11.1911C17.3725 11.0553 17.1884 10.979 16.9963 10.979H14.6673V8.64999C14.6673 8.45798 14.5911 8.27384 14.4553 8.13806C14.3195 8.00229 14.1353 7.92599 13.9433 7.92599H11.0543C10.8623 7.92599 10.6782 8.00229 10.5424 8.13806C10.4066 8.27384 10.3303 8.45798 10.3303 8.64999V8.65302ZM11.7783 11.706V9.37701H13.2193V11.706C13.2193 11.898 13.2956 12.0822 13.4314 12.218C13.5672 12.3537 13.7513 12.43 13.9433 12.43H16.2723V13.871H13.9433C13.7513 13.871 13.5672 13.9473 13.4314 14.0831C13.2956 14.2188 13.2193 14.403 13.2193 14.595V16.924H11.7783V14.595C11.7783 14.403 11.7021 14.2188 11.5663 14.0831C11.4305 13.9473 11.2463 13.871 11.0543 13.871H8.72034V12.43H11.0493C11.2414 12.43 11.4255 12.3537 11.5613 12.218C11.6971 12.0822 11.7733 11.898 11.7733 11.706H11.7783Z" fill="#06103B"/>
</svg>
