<svg width="20" height="22" viewBox="0 0 20 22" fill="none" xmlns="http://www.w3.org/2000/svg">
<path d="M17.435 21.686C16.9849 21.6848 16.5512 21.5166 16.218 21.214L14.137 19.383C14.0475 19.3129 13.9732 19.2254 13.9188 19.1257C13.8643 19.026 13.8308 18.9162 13.8202 18.803C13.8096 18.6899 13.8222 18.5758 13.8573 18.4677C13.8924 18.3597 13.9491 18.2599 14.024 18.1745C14.099 18.0891 14.1906 18.0199 14.2933 17.9711C14.3959 17.9224 14.5074 17.8951 14.621 17.8909C14.7345 17.8868 14.8477 17.9058 14.9536 17.9469C15.0595 17.988 15.156 18.0503 15.237 18.13L17.321 19.964L17.328 19.97C17.352 19.9913 17.3817 20.0053 17.4135 20.0102C17.4452 20.0151 17.4777 20.0108 17.507 19.9977C17.5364 19.9846 17.5613 19.9633 17.5789 19.9364C17.5964 19.9095 17.6059 19.8781 17.606 19.846V5.32095C17.605 4.43599 17.2529 3.58759 16.6271 2.96182C16.0014 2.33606 15.153 1.98403 14.268 1.98297H5.005C4.12004 1.98403 3.27164 2.33606 2.64587 2.96182C2.02011 3.58759 1.66805 4.43599 1.66699 5.32095V14.584C1.66805 15.4689 2.02011 16.3173 2.64587 16.9431C3.27164 17.5689 4.12004 17.9209 5.005 17.922H11.431C11.6474 17.9295 11.8523 18.0206 12.0027 18.1763C12.1531 18.332 12.2371 18.54 12.2371 18.7565C12.2371 18.9729 12.1531 19.1809 12.0027 19.3366C11.8523 19.4923 11.6474 19.5835 11.431 19.591H5.005C3.67807 19.5889 2.40609 19.0607 1.4679 18.1223C0.529706 17.184 0.0018512 15.9119 0 14.585V5.32196C0.00132323 3.99434 0.529216 2.72146 1.4679 1.78259C2.40657 0.843726 3.67939 0.315553 5.00702 0.313965H14.27C15.5975 0.315553 16.8701 0.843576 17.8087 1.78223C18.7474 2.72088 19.2754 3.9935 19.277 5.32095V19.847C19.2798 20.2024 19.178 20.5509 18.9844 20.8491C18.7908 21.1472 18.5139 21.3819 18.188 21.524C17.9508 21.6303 17.6939 21.6855 17.434 21.686H17.435ZM13.592 11.335C13.4995 11.2761 13.3965 11.236 13.2885 11.217C13.1806 11.198 13.0699 11.2004 12.963 11.2242C12.856 11.248 12.7547 11.2926 12.665 11.3555C12.5752 11.4185 12.4988 11.4985 12.44 11.591C12.1487 12.0795 11.7356 12.4841 11.241 12.765C10.7464 13.0459 10.1873 13.1936 9.61853 13.1936C9.04973 13.1936 8.49062 13.0459 7.99603 12.765C7.50145 12.4841 7.0883 12.0795 6.797 11.591C6.67765 11.4043 6.489 11.2726 6.27258 11.225C6.05617 11.1773 5.82972 11.2176 5.64301 11.337C5.45629 11.4563 5.32461 11.6449 5.27698 11.8614C5.22934 12.0778 5.26963 12.3043 5.38898 12.491C5.86507 13.1903 6.49662 13.7699 7.23413 14.1844C7.97164 14.5988 8.79512 14.8369 9.64001 14.88C10.4797 14.8394 11.2981 14.602 12.0292 14.187C12.7603 13.7721 13.3837 13.1911 13.849 12.491C13.9079 12.3985 13.948 12.2954 13.967 12.1875C13.986 12.0795 13.9836 11.9689 13.9598 11.8619C13.936 11.7549 13.8914 11.6537 13.8284 11.5639C13.7655 11.4742 13.6855 11.3977 13.593 11.339L13.592 11.335ZM12.892 9.15997C12.6708 9.15997 12.4587 9.07209 12.3022 8.91568C12.1458 8.75927 12.058 8.54715 12.058 8.32596V6.03098C12.0655 5.81465 12.1567 5.60967 12.3124 5.45929C12.4681 5.30891 12.6761 5.22485 12.8925 5.22485C13.109 5.22485 13.317 5.30891 13.4727 5.45929C13.6283 5.60967 13.7195 5.81465 13.727 6.03098V8.32596C13.7267 8.54724 13.6386 8.75936 13.4821 8.91574C13.3255 9.07212 13.1133 9.15997 12.892 9.15997ZM7.25897 8.32596V6.03098C7.25148 5.81465 7.16032 5.60967 7.00464 5.45929C6.84896 5.30891 6.64095 5.22485 6.4245 5.22485C6.20805 5.22485 6.00004 5.30891 5.84436 5.45929C5.68868 5.60967 5.59752 5.81465 5.59003 6.03098V8.32596C5.59752 8.54228 5.68868 8.74726 5.84436 8.89764C6.00004 9.04803 6.20805 9.13208 6.4245 9.13208C6.64095 9.13208 6.84896 9.04803 7.00464 8.89764C7.16032 8.74726 7.25148 8.54228 7.25897 8.32596Z" fill="#06103B"/>
</svg>
