<svg width="16" height="21" viewBox="0 0 16 21" fill="none" xmlns="http://www.w3.org/2000/svg">
<path d="M4.71396 0.0541675C4.1076 0.220551 3.66164 0.739507 3.56775 1.38919C3.52863 1.65461 3.53254 1.69819 3.60687 1.83684C3.70858 2.03492 3.88853 2.14188 4.11151 2.13792C4.41274 2.13396 4.60834 1.93192 4.65528 1.56746C4.6944 1.29808 4.83914 1.15547 5.11689 1.11981C5.22643 1.10793 7.4054 1.1 9.95601 1.10793C15.0338 1.11981 14.6699 1.10397 14.8382 1.34562C14.9007 1.42881 14.9047 1.97946 14.9164 8.27428C14.9242 13.7015 14.9164 15.1435 14.8773 15.2663C14.8186 15.4446 14.6191 15.5991 14.447 15.5991C14.2983 15.5991 14.0401 15.7338 13.9814 15.8408C13.8367 16.1181 13.868 16.3795 14.0636 16.5697C14.1614 16.6647 14.2201 16.6885 14.4274 16.7004C15.0455 16.74 15.6558 16.3241 15.91 15.6902L16 15.4604V8.36936C16 1.59519 15.9961 1.27035 15.9296 1.06831C15.7888 0.660277 15.4132 0.268089 15.0025 0.097744L14.7873 0.0105909L9.85821 0.00266794C5.6098 -0.00525507 4.89782 0.00266794 4.71396 0.0541675Z" fill="#697489"/>
<path d="M1.05623 3.62743C0.633741 3.77401 0.266015 4.13847 0.0899756 4.57423L0 4.804V11.8951C0 18.6693 0.00391198 18.9941 0.0704157 19.1961C0.211247 19.6042 0.586797 19.9964 0.997555 20.1667L1.21271 20.2539L6.11834 20.2657C11.4621 20.2776 11.2782 20.2816 11.6616 20.0558C12.0411 19.83 12.3423 19.3982 12.4205 18.9624C12.4479 18.8158 12.4557 16.4152 12.4518 11.7723L12.4401 4.804L12.3501 4.57423C12.1702 4.12658 11.8024 3.77797 11.3487 3.62347C11.1726 3.56009 10.7149 3.55613 6.2044 3.56009C1.63912 3.56009 1.23619 3.56801 1.05623 3.62743ZM11.0866 4.72081C11.1452 4.7525 11.2313 4.83173 11.2704 4.89115C11.3408 4.99811 11.3447 5.19223 11.3447 11.8951C11.3447 18.4157 11.3408 18.796 11.2743 18.899C11.2391 18.9584 11.1609 19.0377 11.1022 19.0733C11.0005 19.1407 10.7188 19.1446 6.23961 19.1446C1.09535 19.1446 1.31443 19.1526 1.16577 18.9307C1.09927 18.8317 1.09535 18.4989 1.08362 11.9902C1.07579 6.57083 1.08362 5.11696 1.12274 4.99811C1.15403 4.90304 1.22445 4.81192 1.3066 4.75646L1.43961 4.66535H6.20831C10.2963 4.66535 10.9927 4.67327 11.0866 4.72081Z" fill="#697489"/>
</svg>
