<svg width="52" height="52" viewBox="0 0 52 52" fill="none" xmlns="http://www.w3.org/2000/svg">
<defs>
<clipPath id="clip0">
<rect width="52" height="52" fill="white"/>
</clipPath>
</defs>
<g clip-path="url(#clip0)">
<path d="M12.9453 11.5984V8.16428C12.9453 4.27832 16.1068 1.11719 19.9924 1.11719H32.0038C35.8893 1.11719 39.0508 4.27832 39.0508 8.16428V15.5918H35.1403V8.16428C35.1403 6.43454 33.7331 5.02774 32.0038 5.02774H19.9924C18.2631 5.02774 16.8559 6.43454 16.8559 8.16428V15.5565H12.9453V11.5984Z" fill="#636363"/>
<path d="M16.8559 11.5977H13.9344C13.6019 11.5977 13.2722 11.61 12.9453 11.633V15.5558H16.8559V11.5977Z" fill="#424242"/>
<path d="M35.1406 15.5911H39.0512V11.633C38.7243 11.61 38.3946 11.5977 38.0621 11.5977H35.1406V15.5911Z" fill="#424242"/>
<path d="M49.0956 50.9667H2.90445C1.30048 50.9667 0 49.6662 0 48.0622V29.4814C0 21.7897 6.23538 15.5547 13.9268 15.5547H38.0732C45.7646 15.5547 52 21.7897 52 29.4814V48.0622C52 49.6662 50.6995 50.9667 49.0956 50.9667Z" fill="#EEEDEE"/>
<path d="M38.0638 15.5547H31.9336C39.6305 15.5547 45.8699 21.794 45.8699 29.491V47.944C45.8699 49.6134 44.5166 50.9667 42.8476 50.9667H48.9774C50.6469 50.9667 52.0001 49.6134 52.0001 47.944V29.491C52.0001 21.794 45.7608 15.5547 38.0638 15.5547Z" fill="#CCCBCC"/>
<path d="M0 47.9451C0 49.6146 1.35324 50.9678 3.02267 50.9678H48.9773C50.6468 50.9678 52 49.6146 52 47.9451V44.0977H0V47.9451Z" fill="#EF2D57"/>
<path d="M45.8699 44.0977V47.9451C45.8699 49.6146 44.5167 50.9678 42.8477 50.9678H48.9775C50.6469 50.9678 52.0002 49.6146 52.0002 47.9451V44.0977H45.8699Z" fill="#BF2445"/>
<path d="M32.6364 27.7707H29.065V24.1994C29.065 23.2825 28.3216 22.5391 27.4047 22.5391H24.5951C23.6783 22.5391 22.9348 23.2825 22.9348 24.1994V27.7707H19.3634C18.4466 27.7707 17.7031 28.5142 17.7031 29.431V32.2407C17.7031 33.1575 18.4466 33.901 19.3634 33.901H22.9348V37.4723C22.9348 38.3892 23.6783 39.1326 24.5951 39.1326H27.4047C28.3216 39.1326 29.065 38.3892 29.065 37.4723V33.901H32.6364C33.5532 33.901 34.2967 33.1575 34.2967 32.2407V29.431C34.2967 28.5142 33.5532 27.7707 32.6364 27.7707Z" fill="#EF2D57"/>
</g>
</svg>
