<svg width="256" height="256" viewBox="0 0 256 256" fill="none" xmlns="http://www.w3.org/2000/svg">
<circle cx="128" cy="128" r="128" fill="#E2E0F6"/>
<defs>
<clipPath id="clip0">
<rect width="158" height="158" fill="white" transform="translate(49 49)"/>
</clipPath>
</defs>
<g clip-path="url(#clip0)">
<path d="M100.227 151.146H183.857C185.928 151.146 187.744 149.776 188.305 147.787L206.822 82.9815C207.219 81.5844 206.947 80.0836 206.071 78.9227C205.193 77.7655 203.828 77.082 202.372 77.082H89.5403L86.2314 62.1924C85.7612 60.072 83.8807 58.5664 81.7109 58.5664H53.6289C51.071 58.5664 49 60.6374 49 63.1953C49 65.7545 51.071 67.8242 53.6289 67.8242H77.9958L94.7117 143.044C89.7934 145.182 86.3398 150.078 86.3398 155.775C86.3398 163.432 92.5696 169.661 100.227 169.661H183.857C186.416 169.661 188.486 167.592 188.486 165.032C188.486 162.475 186.416 160.404 183.857 160.404H100.227C97.677 160.404 95.5977 158.329 95.5977 155.775C95.5977 153.22 97.677 151.146 100.227 151.146Z" fill="#F2F2F2"/>
<path d="M95.5977 183.549C95.5977 191.207 101.827 197.436 109.486 197.436C117.143 197.436 123.372 191.207 123.372 183.549C123.372 175.892 117.143 169.662 109.486 169.662C101.827 169.662 95.5977 175.892 95.5977 183.549Z" fill="#603A8B"/>
<path d="M160.711 183.549C160.711 191.207 166.941 197.436 174.598 197.436C182.256 197.436 188.484 191.207 188.484 183.549C188.484 175.892 182.256 169.662 174.598 169.662C166.941 169.662 160.711 175.892 160.711 183.549Z" fill="#603A8B"/>
</g>
</svg>
