<svg width="25" height="25" viewBox="0 0 25 25" fill="none" xmlns="http://www.w3.org/2000/svg">
<path fill-rule="evenodd" clip-rule="evenodd" d="M12.4875 0C5.5875 0 0 5.6 0 12.5C0 19.4 5.5875 25 12.4875 25C19.4 25 25 19.4 25 12.5C25 5.6 19.4 0 12.4875 0ZM13.7511 6.25H11.2511V13.75H13.7511V6.25ZM13.7511 16.2523H11.2511V18.7523H13.7511V16.2523ZM2.50056 12.4977C2.50056 18.0227 6.97556 22.4977 12.5006 22.4977C18.0256 22.4977 22.5006 18.0227 22.5006 12.4977C22.5006 6.97275 18.0256 2.49775 12.5006 2.49775C6.97556 2.49775 2.50056 6.97275 2.50056 12.4977Z" fill="#06103B"/>
</svg>
