<svg width="45" height="44" viewBox="0 0 45 44" fill="none" xmlns="http://www.w3.org/2000/svg">
<path d="M22.0809 0.0620117C17.7391 0.0620117 13.4947 1.34953 9.88453 3.76176C6.27438 6.17399 3.46059 9.60258 1.79902 13.614C0.137453 17.6253 -0.297305 22.0394 0.549756 26.2978C1.39682 30.5563 3.48763 34.4679 6.55781 37.5381C9.62799 40.6083 13.5396 42.6991 17.7981 43.5462C22.0566 44.3933 26.4706 43.9585 30.482 42.2969C34.4934 40.6354 37.922 37.8216 40.3342 34.2114C42.7464 30.6013 44.0339 26.3569 44.0339 22.015C44.0339 16.1927 41.7211 10.6089 37.6041 6.4919C33.4871 2.37491 27.9032 0.0620117 22.0809 0.0620117V0.0620117ZM22.0809 41.224C18.2814 41.2258 14.5667 40.1007 11.4066 37.9911C8.24648 35.8815 5.78297 32.882 4.32771 29.3722C2.87245 25.8624 2.4908 21.9998 3.23097 18.273C3.97114 14.5463 5.79991 11.1227 8.48597 8.43538C11.172 5.74806 14.5947 3.91768 18.3211 3.17577C22.0475 2.43386 25.9103 2.81373 29.4209 4.26735C32.9314 5.72097 35.9319 8.18303 38.043 11.3421C40.1542 14.5012 41.281 18.2154 41.281 22.015C41.281 27.108 39.2584 31.9925 35.658 35.5946C32.0575 39.1968 27.1739 41.2216 22.0809 41.224Z" fill="white"/>
<path d="M14.573 17.0322C14.878 17.0276 15.1809 17.0843 15.4636 17.1989C15.7463 17.3135 16.003 17.4837 16.2188 17.6994C16.4345 17.9151 16.6047 18.172 16.7193 18.4547C16.8339 18.7373 16.8906 19.0402 16.886 19.3452H19.26C19.26 18.1021 18.7662 16.91 17.8872 16.031C17.0082 15.152 15.8161 14.6582 14.573 14.6582C13.3299 14.6582 12.1378 15.152 11.2588 16.031C10.3798 16.91 9.88599 18.1021 9.88599 19.3452H12.259C12.2544 19.0401 12.3112 18.7372 12.4258 18.4544C12.5405 18.1717 12.7108 17.9148 12.9266 17.6991C13.1424 17.4834 13.3993 17.3132 13.6821 17.1986C13.9649 17.0841 14.2679 17.0275 14.573 17.0322Z" fill="white"/>
<path d="M29.5798 17.0322C29.8848 17.0276 30.1877 17.0843 30.4704 17.1989C30.7531 17.3135 31.0099 17.4837 31.2256 17.6994C31.4413 17.9151 31.6115 18.172 31.7261 18.4547C31.8408 18.7373 31.8974 19.0402 31.8928 19.3452H34.2659C34.2659 18.1021 33.772 16.91 32.8931 16.031C32.0141 15.152 30.8219 14.6582 29.5789 14.6582C28.3358 14.6582 27.1436 15.152 26.2646 16.031C25.3857 16.91 24.8918 18.1021 24.8918 19.3452H27.2659C27.2613 19.0402 27.3179 18.7373 27.4326 18.4547C27.5472 18.172 27.7174 17.9151 27.9331 17.6994C28.1488 17.4837 28.4056 17.3135 28.6883 17.1989C28.971 17.0843 29.2738 17.0276 29.5789 17.0322H29.5798Z" fill="white"/>
<path d="M22.0349 34.1781C24.3213 34.1736 26.5706 33.6003 28.5801 32.5097C30.5897 31.4192 32.2962 29.8457 33.5459 27.9311L31.5529 26.6431C30.5312 28.2274 29.1285 29.5303 27.4731 30.4325C25.8178 31.3347 23.9626 31.8074 22.0774 31.8074C20.1922 31.8074 18.337 31.3347 16.6817 30.4325C15.0264 29.5303 13.6237 28.2274 12.6019 26.6431L10.6089 27.9311C11.7075 29.6177 13.1623 31.0431 14.871 32.1072C16.5796 33.1713 18.5006 33.8481 20.4989 34.0901C21.0091 34.1489 21.5223 34.1783 22.0359 34.1781H22.0349Z" fill="white"/>
</svg>
