<svg width="21" height="21" viewBox="0 0 21 21" fill="none" xmlns="http://www.w3.org/2000/svg">
<path d="M10.477 20.981C8.64589 20.9796 6.85104 20.4704 5.292 19.51L1.562 20.533C1.40864 20.5749 1.24648 20.572 1.09473 20.5246C0.942973 20.4772 0.807973 20.3873 0.705709 20.2656C0.603445 20.1439 0.538198 19.9954 0.517692 19.8377C0.497187 19.6801 0.52228 19.5198 0.590003 19.376C1.38558 17.6885 1.52148 15.7646 0.971003 13.982C0.545053 12.6243 0.413994 11.1913 0.586597 9.7789C0.759201 8.36647 1.23148 7.0072 1.97185 5.79204C2.71221 4.57688 3.70357 3.53387 4.87958 2.7328C6.0556 1.93172 7.38916 1.39107 8.791 1.14701L8.84 1.14001C11.4293 0.695118 14.0897 1.28838 16.2447 2.79125C18.3997 4.29412 19.8758 6.58557 20.3531 9.16913C20.8304 11.7527 20.2706 14.4203 18.7948 16.594C17.3191 18.7676 15.0464 20.2723 12.469 20.782C11.8133 20.9143 11.146 20.981 10.477 20.981ZM5.429 17.781C5.59299 17.7811 5.75332 17.8294 5.89 17.92C7.02175 18.6731 8.32073 19.1376 9.67341 19.2728C11.0261 19.408 12.3913 19.2099 13.6497 18.6957C14.9082 18.1816 16.0215 17.367 16.8925 16.3233C17.7635 15.2795 18.3656 14.0383 18.6462 12.7082C18.9268 11.378 18.8773 9.9994 18.5021 8.69277C18.127 7.38615 17.4375 6.1913 16.4939 5.21264C15.5504 4.23398 14.3815 3.50131 13.0895 3.07864C11.7974 2.65598 10.4215 2.5562 9.082 2.78801L9.037 2.79501C6.87289 3.18481 4.95058 4.41419 3.689 6.21523C2.42743 8.01627 1.92888 10.243 2.302 12.41C2.36489 12.7731 2.45208 13.1316 2.563 13.483C3.06571 15.113 3.10312 16.8509 2.671 18.501L5.21 17.81C5.28148 17.7912 5.3551 17.7818 5.429 17.782V17.781Z" fill="#06103B"/>
<path d="M13.8274 10.158H7.16844C6.94765 10.158 6.7359 10.0703 6.57977 9.91417C6.42365 9.75805 6.33594 9.54631 6.33594 9.32552C6.33594 9.10472 6.42365 8.89297 6.57977 8.73685C6.7359 8.58072 6.94765 8.49301 7.16844 8.49301H13.8274C14.0482 8.49301 14.26 8.58072 14.4161 8.73685C14.5722 8.89297 14.6599 9.10472 14.6599 9.32552C14.6599 9.54631 14.5722 9.75805 14.4161 9.91417C14.26 10.0703 14.0482 10.158 13.8274 10.158Z" fill="#06103B"/>
<path d="M13.8274 13.487H7.16844C6.94765 13.487 6.7359 13.3993 6.57977 13.2432C6.42365 13.0871 6.33594 12.8753 6.33594 12.6545C6.33594 12.4337 6.42365 12.222 6.57977 12.0658C6.7359 11.9097 6.94765 11.822 7.16844 11.822H13.8274C14.0482 11.822 14.26 11.9097 14.4161 12.0658C14.5722 12.222 14.6599 12.4337 14.6599 12.6545C14.6599 12.8753 14.5722 13.0871 14.4161 13.2432C14.26 13.3993 14.0482 13.487 13.8274 13.487Z" fill="#06103B"/>
</svg>
