<svg width="19" height="19" viewBox="0 0 19 19" fill="none" xmlns="http://www.w3.org/2000/svg">
<path d="M16.475 0.161987C16.3706 0.0577487 16.2291 -0.000793457 16.0815 -0.000793457C15.934 -0.000793457 15.7925 0.0577487 15.688 0.161987L11.398 4.452H1.67004C1.22729 4.45253 0.802817 4.62864 0.489746 4.94171C0.176675 5.25478 0.000529288 5.67923 0 6.12198V13.915C0.000529288 14.3577 0.176675 14.7822 0.489746 15.0953C0.802817 15.4083 1.22729 15.5845 1.67004 15.585H2.26404V18.442C2.26417 18.5526 2.29723 18.6607 2.35901 18.7524C2.42079 18.8442 2.50846 18.9154 2.6109 18.9572C2.71334 18.9989 2.8259 19.0092 2.9342 18.9867C3.04251 18.9642 3.14167 18.91 3.21906 18.831L6.39502 15.584H12.8781C13.3208 15.5835 13.7452 15.4073 14.0583 15.0943C14.3714 14.7812 14.5475 14.3567 14.548 13.914V7.59799L18.838 3.30798C18.9423 3.20355 19.0008 3.06204 19.0008 2.91449C19.0008 2.76694 18.9423 2.62542 18.838 2.521L16.475 0.161987ZM11.358 9.215L9.78406 7.64099L14.507 2.918L16.0811 4.49197L11.358 9.215ZM9.19104 8.62198L10.377 9.80798L8.34406 10.655L9.19104 8.62198ZM13.434 13.915C13.434 14.0627 13.3753 14.2044 13.2709 14.3088C13.1664 14.4133 13.0247 14.472 12.877 14.472H6.16003C6.08558 14.4716 6.01177 14.4862 5.94305 14.5149C5.87434 14.5436 5.8121 14.5858 5.76001 14.639L3.375 17.077V15.028C3.375 14.9548 3.36063 14.8824 3.33264 14.8148C3.30465 14.7472 3.26364 14.6858 3.21191 14.6341C3.16019 14.5824 3.09877 14.5414 3.03119 14.5134C2.96361 14.4854 2.8912 14.471 2.81805 14.471H1.66803C1.5203 14.471 1.37863 14.4123 1.27417 14.3078C1.16971 14.2034 1.11102 14.0617 1.11102 13.914V6.12097C1.11102 5.97325 1.16971 5.8316 1.27417 5.72714C1.37863 5.62268 1.5203 5.564 1.66803 5.564H10.283L8.60101 7.24597C8.54819 7.29929 8.5064 7.3625 8.47803 7.43198L6.93701 11.132H3.93402C3.78643 11.132 3.64489 11.1906 3.54053 11.295C3.43616 11.3993 3.3775 11.5409 3.3775 11.6885C3.3775 11.8361 3.43616 11.9776 3.54053 12.082C3.64489 12.1864 3.78643 12.245 3.93402 12.245H7.31104C7.3863 12.2447 7.46076 12.2294 7.53003 12.2L11.567 10.519C11.6366 10.4908 11.6999 10.449 11.7531 10.396L13.4351 8.715L13.434 13.915ZM16.869 3.70398L15.295 2.12997L16.082 1.34299L17.656 2.91699L16.869 3.70398Z" fill="black"/>
</svg>
