<svg width="22" height="22" viewBox="0 0 22 22" fill="none" xmlns="http://www.w3.org/2000/svg">
<path d="M3.35001 18.6061C3.35238 17.7871 3.6788 17.0023 4.25797 16.4231C4.83713 15.8439 5.62196 15.5175 6.44101 15.5151L13.71 15.5151C14.5298 15.5151 15.316 15.8408 15.8957 16.4205C16.4754 17.0001 16.801 17.7864 16.801 18.6061C16.801 19.4259 16.4754 20.2121 15.8957 20.7918C15.316 21.3715 14.5298 21.6971 13.71 21.6971H6.44101C5.62196 21.6948 4.83713 21.3683 4.25797 20.7892C3.6788 20.21 3.35238 19.4252 3.35001 18.6061ZM15.13 18.6061C15.1295 18.2297 14.9797 17.8688 14.7135 17.6027C14.4473 17.3365 14.0865 17.1867 13.71 17.1862H6.44101C6.06427 17.1862 5.70295 17.3358 5.43655 17.6022C5.17016 17.8686 5.02051 18.2299 5.02051 18.6066C5.02051 18.9834 5.17016 19.3447 5.43655 19.6111C5.70295 19.8775 6.06427 20.0272 6.44101 20.0272H13.71C14.0865 20.0266 14.4473 19.8768 14.7135 19.6107C14.9797 19.3445 15.1295 18.9836 15.13 18.6072V18.6061ZM3.35001 3.40015C3.35159 2.58057 3.67765 1.79496 4.2569 1.21515C4.83614 0.63534 5.62144 0.30853 6.44101 0.306152L8.69702 0.306152C9.51694 0.306152 10.3033 0.63184 10.883 1.21161C11.4628 1.79138 11.7885 2.57773 11.7885 3.39764C11.7885 4.21756 11.4628 5.00391 10.883 5.58368C10.3033 6.16345 9.51694 6.48914 8.69702 6.48914H6.44101C5.62196 6.48676 4.83713 6.16034 4.25797 5.58118C3.6788 5.00202 3.35238 4.21719 3.35001 3.39813V3.40015ZM10.117 3.40015C10.1165 3.0237 9.96672 2.66285 9.70053 2.39667C9.43434 2.13048 9.07347 1.98069 8.69702 1.98016H6.44101C6.06427 1.98016 5.70295 2.12978 5.43655 2.39618C5.17016 2.66257 5.02051 3.02389 5.02051 3.40063C5.02051 3.77737 5.17016 4.1387 5.43655 4.40509C5.70295 4.67149 6.06427 4.82117 6.44101 4.82117H8.69702C9.07347 4.82064 9.43434 4.67085 9.70053 4.40466C9.96672 4.13848 10.1165 3.77757 10.117 3.40112V3.40015ZM3.35001 11.0001C3.35238 10.1811 3.6788 9.3963 4.25797 8.81714C4.83713 8.23798 5.62196 7.91155 6.44101 7.90918L18.305 7.90918C19.1248 7.90918 19.911 8.23484 20.4907 8.81451C21.0704 9.39419 21.396 10.1803 21.396 11.0001C21.396 11.8199 21.0704 12.6061 20.4907 13.1858C19.911 13.7655 19.1248 14.0911 18.305 14.0911L6.44101 14.0911C5.62196 14.0888 4.83713 13.7623 4.25797 13.1832C3.6788 12.604 3.35238 11.8192 3.35001 11.0001ZM19.725 11.0001C19.7245 10.6237 19.5747 10.2628 19.3085 9.99664C19.0423 9.73046 18.6815 9.58067 18.305 9.58014L6.44101 9.58014C6.06427 9.58014 5.70295 9.72982 5.43655 9.99622C5.17016 10.2626 5.02051 10.6239 5.02051 11.0007C5.02051 11.3774 5.17016 11.7387 5.43655 12.0051C5.70295 12.2715 6.06427 12.4211 6.44101 12.4211L18.305 12.4211C18.6815 12.4206 19.0423 12.2708 19.3085 12.0046C19.5747 11.7385 19.7245 11.3776 19.725 11.0012V11.0001ZM0.843018 21.6942C1.06447 21.6942 1.27685 21.6062 1.43344 21.4496C1.59003 21.293 1.67801 21.0806 1.67801 20.8591V1.14117C1.67801 0.919586 1.58998 0.707041 1.43329 0.550354C1.2766 0.393667 1.06409 0.305664 0.842499 0.305664C0.620911 0.305664 0.408396 0.393667 0.251709 0.550354C0.0950222 0.707041 0.00701904 0.919586 0.00701904 1.14117V20.8582C0.00701904 21.0796 0.0949936 21.292 0.251587 21.4486C0.40818 21.6052 0.620554 21.6932 0.84201 21.6932L0.843018 21.6942Z" fill="#06103B"/>
</svg>
