<svg width="45" height="44" viewBox="0 0 45 44" fill="none" xmlns="http://www.w3.org/2000/svg">
<path d="M22.9301 0.0620117C18.5882 0.0620117 14.3438 1.34953 10.7337 3.76176C7.1235 6.17399 4.30972 9.60258 2.64814 13.614C0.986574 17.6253 0.551816 22.0394 1.39888 26.2978C2.24594 30.5563 4.33675 34.4679 7.40693 37.5381C10.4771 40.6083 14.3888 42.6991 18.6472 43.5462C22.9057 44.3933 27.3197 43.9585 31.3311 42.2969C35.3425 40.6354 38.7711 37.8216 41.1833 34.2114C43.5955 30.6013 44.8831 26.3569 44.8831 22.015C44.8831 16.1927 42.5702 10.6089 38.4532 6.4919C34.3362 2.37491 28.7524 0.0620117 22.9301 0.0620117V0.0620117ZM22.9301 41.224C19.1305 41.2258 15.4158 40.1007 12.2557 37.9911C9.0956 35.8815 6.6321 32.882 5.17683 29.3722C3.72157 25.8624 3.33992 21.9998 4.08009 18.273C4.82026 14.5463 6.64903 11.1227 9.3351 8.43538C12.0212 5.74806 15.4438 3.91768 19.1702 3.17577C22.8967 2.43386 26.7595 2.81373 30.27 4.26735C33.7805 5.72097 36.7811 8.18303 38.8922 11.3421C41.0033 14.5012 42.1301 18.2154 42.1301 22.015C42.1301 27.108 40.1075 31.9925 36.5071 35.5946C32.9067 39.1968 28.0231 41.2216 22.9301 41.224Z" fill="white"/>
<path d="M17.9441 17.1328C17.9441 17.6025 17.8048 18.0617 17.5438 18.4523C17.2829 18.8429 16.9119 19.1473 16.478 19.327C16.044 19.5068 15.5665 19.5538 15.1058 19.4622C14.6451 19.3705 14.2218 19.1443 13.8897 18.8122C13.5575 18.48 13.3314 18.0569 13.2397 17.5962C13.1481 17.1355 13.1951 16.6579 13.3749 16.2239C13.5546 15.79 13.8591 15.419 14.2496 15.1581C14.6402 14.8971 15.0993 14.7578 15.5691 14.7578C16.199 14.7578 16.8031 15.008 17.2485 15.4534C17.6939 15.8988 17.9441 16.5029 17.9441 17.1328Z" fill="white"/>
<path d="M32.6391 17.1328C32.6391 17.6025 32.4998 18.0617 32.2389 18.4523C31.9779 18.8429 31.607 19.1473 31.173 19.327C30.739 19.5068 30.2615 19.5538 29.8008 19.4622C29.3401 19.3705 28.9169 19.1443 28.5848 18.8122C28.2526 18.48 28.0264 18.0569 27.9348 17.5962C27.8432 17.1355 27.8902 16.6579 28.0699 16.2239C28.2497 15.79 28.5541 15.419 28.9447 15.1581C29.3353 14.8971 29.7944 14.7578 30.2641 14.7578C30.894 14.7578 31.4981 15.008 31.9435 15.4534C32.3889 15.8988 32.6391 16.5029 32.6391 17.1328Z" fill="white"/>
<path d="M22.7012 34.2031C24.9891 34.1987 27.24 33.6249 29.2509 32.5337C31.2618 31.4424 32.9696 29.8679 34.2202 27.9521L32.2232 26.6631C31.2008 28.2489 29.7971 29.553 28.1404 30.4561C26.4837 31.3591 24.627 31.8323 22.7402 31.8323C20.8534 31.8323 18.9967 31.3591 17.34 30.4561C15.6834 29.553 14.2796 28.2489 13.2572 26.6631L11.2622 27.9521C12.362 29.6401 13.8184 31.0668 15.5287 32.1315C17.2391 33.1963 19.162 33.8733 21.1622 34.1151C21.6728 34.1739 22.1863 34.2033 22.7002 34.2031H22.7012Z" fill="white"/>
</svg>
