<svg width="33" height="34" viewBox="0 0 33 34" fill="none" xmlns="http://www.w3.org/2000/svg">
<path d="M16.4152 0.678955C13.1873 0.678955 10.0317 1.63616 7.34774 3.42954C4.66377 5.22291 2.57187 7.77191 1.33657 10.7542C0.101274 13.7365 -0.221888 17.0181 0.407861 20.184C1.03761 23.35 2.592 26.2581 4.87454 28.5406C7.15707 30.8232 10.0652 32.3776 13.2312 33.0074C16.3971 33.6371 19.6788 33.3139 22.661 32.0786C25.6433 30.8433 28.1922 28.7514 29.9856 26.0674C31.779 23.3834 32.7362 20.2279 32.7362 17C32.7362 12.6714 31.0167 8.52005 27.9559 5.45927C24.8951 2.39848 20.7438 0.678955 16.4152 0.678955V0.678955ZM16.4152 31.279C13.5907 31.279 10.8297 30.4414 8.48116 28.8722C6.13267 27.303 4.30223 25.0726 3.22134 22.4631C2.14044 19.8535 1.85762 16.9821 2.40865 14.2119C2.95969 11.4416 4.31981 8.897 6.31704 6.89976C8.31427 4.90253 10.8589 3.5424 13.6292 2.99136C16.3994 2.44032 19.2708 2.72314 21.8803 3.80403C24.4898 4.88493 26.7202 6.71536 28.2895 9.06386C29.8587 11.4124 30.6963 14.1734 30.6963 16.998C30.6963 20.7855 29.1917 24.4179 26.5135 27.0961C23.8352 29.7744 20.2028 31.279 16.4152 31.279Z" fill="#00BE33"/>
<path d="M10.837 13.295C11.0638 13.2915 11.2891 13.3336 11.4993 13.4188C11.7096 13.504 11.9006 13.6305 12.061 13.791C12.2215 13.9514 12.348 14.1424 12.4332 14.3527C12.5184 14.5629 12.5605 14.7882 12.557 15.015H14.322C14.322 14.0909 13.9549 13.2046 13.3014 12.5511C12.6479 11.8976 11.7617 11.5305 10.8375 11.5305C9.91338 11.5305 9.02707 11.8976 8.3736 12.5511C7.72013 13.2046 7.35303 14.0909 7.35303 15.015H9.117C9.1135 14.7882 9.15559 14.5629 9.24078 14.3527C9.32598 14.1424 9.45255 13.9514 9.61298 13.791C9.7734 13.6305 9.96442 13.504 10.1747 13.4188C10.3849 13.3336 10.6101 13.2915 10.837 13.295Z" fill="#00BE33"/>
<path d="M21.9933 13.295C22.2201 13.2915 22.4454 13.3336 22.6556 13.4188C22.8659 13.504 23.0569 13.6305 23.2173 13.791C23.3778 13.9514 23.5043 14.1424 23.5895 14.3527C23.6747 14.5629 23.7168 14.7882 23.7133 15.015H25.4783C25.4783 14.0909 25.1112 13.2046 24.4577 12.5511C23.8042 11.8976 22.9179 11.5305 21.9938 11.5305C21.0696 11.5305 20.1834 11.8976 19.5299 12.5511C18.8764 13.2046 18.5093 14.0909 18.5093 15.015H20.2743C20.2708 14.7882 20.3129 14.5629 20.3981 14.3527C20.4833 14.1424 20.6098 13.9514 20.7703 13.791C20.9307 13.6305 21.1217 13.504 21.332 13.4188C21.5422 13.3336 21.7675 13.2915 21.9943 13.295H21.9933Z" fill="#00BE33"/>
<path d="M16.3832 26.0429C18.083 26.0397 19.7553 25.6135 21.2493 24.8028C22.7433 23.9921 24.012 22.8223 24.9412 21.3989L23.4592 20.4419C22.6996 21.6198 21.6568 22.5885 20.4261 23.2593C19.1955 23.9301 17.8163 24.2816 16.4147 24.2816C15.0131 24.2816 13.6339 23.9301 12.4032 23.2593C11.1725 22.5885 10.1297 21.6198 9.37018 20.4419L7.88818 21.3989C8.70499 22.6529 9.7866 23.7127 11.0569 24.5038C12.3273 25.2948 13.7555 25.798 15.2411 25.9779C15.6206 26.0218 16.0022 26.0439 16.3842 26.0439L16.3832 26.0429Z" fill="#00BE33"/>
</svg>
