<svg width="17" height="25" viewBox="0 0 17 25" fill="none" xmlns="http://www.w3.org/2000/svg">
<path d="M13.7779 0.0979004H0.971863C0.781703 0.0979004 0.599368 0.173428 0.464905 0.307892C0.330441 0.442355 0.254883 0.624751 0.254883 0.814911V20.2629C0.254883 20.4531 0.330441 20.6354 0.464905 20.7699C0.599368 20.9044 0.781703 20.9799 0.971863 20.9799H1.40186V23.8469C1.4019 23.9663 1.43178 24.0838 1.48877 24.1888C1.54576 24.2937 1.62808 24.3827 1.72821 24.4478C1.82834 24.5129 1.94315 24.5519 2.06219 24.5614C2.18124 24.5708 2.30077 24.5504 2.40991 24.5019L3.98291 23.8019L5.55591 24.5019C5.66505 24.5504 5.78452 24.5708 5.90356 24.5614C6.02261 24.5519 6.13742 24.5129 6.23755 24.4478C6.33768 24.3827 6.42 24.2937 6.47699 24.1888C6.53398 24.0838 6.56386 23.9663 6.5639 23.8469V20.9799H13.7789C14.4756 20.9791 15.1436 20.702 15.6363 20.2093C16.129 19.7166 16.4061 19.0486 16.4069 18.3519V2.72589C16.4061 2.02897 16.1288 1.36084 15.6359 0.868134C15.143 0.375431 14.4748 0.0984297 13.7779 0.0979004ZM1.6889 1.53189H11.1499V19.5469H1.6889V1.53189ZM5.12891 22.7439L4.27289 22.3639C4.18128 22.3231 4.08213 22.3021 3.98187 22.3021C3.88162 22.3021 3.78246 22.3231 3.69086 22.3639L2.8349 22.7439V20.9799H5.12891V22.7439ZM14.9719 18.3509C14.9705 18.6674 14.8442 18.9706 14.6204 19.1944C14.3966 19.4182 14.0934 19.5446 13.7769 19.5459H12.5819V1.53189H13.7769C14.0934 1.53321 14.3966 1.65954 14.6204 1.88336C14.8442 2.10718 14.9705 2.41037 14.9719 2.7269V18.3509Z" fill="#06103B"/>
</svg>
