<svg width="22" height="22" viewBox="0 0 22 22" fill="none" xmlns="http://www.w3.org/2000/svg">
<path d="M16.365 21.688H5.01001C3.68176 21.6864 2.40839 21.158 1.46918 20.2188C0.529964 19.2796 0.00158786 18.0062 0 16.678V9.65295C0.00216312 8.8823 0.181079 8.12244 0.522949 7.43176C0.864819 6.74109 1.36052 6.13803 1.97198 5.66898L7.65002 1.33795C8.52382 0.673947 9.59102 0.314453 10.6885 0.314453C11.7859 0.314453 12.8532 0.673947 13.727 1.33795L15.527 2.71295V1.64697C15.527 1.42552 15.615 1.21311 15.7715 1.05652C15.9281 0.899926 16.1405 0.811951 16.362 0.811951C16.5835 0.811951 16.7959 0.899926 16.9525 1.05652C17.109 1.21311 17.197 1.42552 17.197 1.64697V4.39896C17.197 4.55454 17.1535 4.70703 17.0714 4.8392C16.9893 4.97138 16.872 5.078 16.7325 5.14703C16.5931 5.21607 16.4372 5.24477 16.2823 5.22992C16.1274 5.21507 15.9798 5.15724 15.856 5.06296L12.71 2.66296C12.1275 2.22037 11.4161 1.98074 10.6845 1.98074C9.95294 1.98074 9.2415 2.22037 8.659 2.66296L2.98102 6.99295C2.57348 7.30571 2.24306 7.70779 2.01526 8.16824C1.78746 8.62869 1.66833 9.13524 1.66699 9.64896V16.674C1.66805 17.5594 2.02028 18.4084 2.64642 19.0345C3.27257 19.6607 4.12152 20.0129 5.00702 20.014H16.363C17.2485 20.0129 18.0974 19.6607 18.7236 19.0345C19.3497 18.4084 19.7019 17.5594 19.703 16.674V9.64896C19.7045 9.13491 19.5882 8.62736 19.3628 8.16534C19.1374 7.70333 18.8091 7.2992 18.403 6.98398C18.3158 6.91746 18.2425 6.83441 18.1874 6.73959C18.1323 6.64477 18.0965 6.54003 18.0818 6.43134C18.0672 6.32264 18.0742 6.21212 18.1022 6.10611C18.1303 6.0001 18.179 5.90067 18.2455 5.81348C18.312 5.72628 18.395 5.65304 18.4899 5.59793C18.5847 5.54282 18.6895 5.50693 18.7982 5.49231C18.9068 5.47768 19.0173 5.48458 19.1234 5.51266C19.2294 5.54075 19.3288 5.58946 19.416 5.65598C20.0257 6.12744 20.5192 6.73247 20.8585 7.42453C21.1977 8.11659 21.3737 8.87721 21.373 9.64795V16.673C21.3714 18.0012 20.8431 19.2746 19.9039 20.2138C18.9647 21.153 17.6912 21.6814 16.363 21.683L16.365 21.688ZM9.01703 9.95697C8.81054 9.95697 8.6087 10.0182 8.43701 10.1329C8.26533 10.2476 8.13151 10.4107 8.05249 10.6014C7.97347 10.7922 7.95276 11.0021 7.99304 11.2047C8.03333 11.4072 8.1328 11.5932 8.27881 11.7392C8.42481 11.8852 8.61084 11.9846 8.81335 12.0249C9.01587 12.0652 9.22574 12.0445 9.4165 11.9655C9.60727 11.8865 9.77035 11.7527 9.88507 11.581C9.99979 11.4093 10.061 11.2075 10.061 11.001C10.061 10.7241 9.95104 10.4585 9.75525 10.2628C9.55946 10.067 9.29391 9.95697 9.01703 9.95697ZM13.401 11.001C13.3926 11.2721 13.279 11.5294 13.0842 11.7182C12.8895 11.907 12.6288 12.0127 12.3575 12.0127C12.0862 12.0127 11.8256 11.907 11.6308 11.7182C11.436 11.5294 11.3224 11.2721 11.314 11.001C11.3224 10.7298 11.436 10.4726 11.6308 10.2837C11.8256 10.0949 12.0862 9.98926 12.3575 9.98926C12.6288 9.98926 12.8895 10.0949 13.0842 10.2837C13.279 10.4726 13.3926 10.7298 13.401 11.001ZM10.061 14.341C10.0526 14.6121 9.93898 14.8694 9.7442 15.0582C9.54942 15.247 9.28881 15.3527 9.01752 15.3527C8.74623 15.3527 8.48555 15.247 8.29077 15.0582C8.09599 14.8694 7.98239 14.6121 7.974 14.341C7.98239 14.0698 8.09599 13.8126 8.29077 13.6237C8.48555 13.4349 8.74623 13.3293 9.01752 13.3293C9.28881 13.3293 9.54942 13.4349 9.7442 13.6237C9.93898 13.8126 10.0526 14.0698 10.061 14.341ZM13.401 14.341C13.3926 14.6121 13.279 14.8694 13.0842 15.0582C12.8895 15.247 12.6288 15.3527 12.3575 15.3527C12.0862 15.3527 11.8256 15.247 11.6308 15.0582C11.436 14.8694 11.3224 14.6121 11.314 14.341C11.3224 14.0698 11.436 13.8126 11.6308 13.6237C11.8256 13.4349 12.0862 13.3293 12.3575 13.3293C12.6288 13.3293 12.8895 13.4349 13.0842 13.6237C13.279 13.8126 13.3926 14.0698 13.401 14.341Z" fill="white"/>
</svg>
