<svg width="16" height="17" viewBox="0 0 16 17" fill="none" xmlns="http://www.w3.org/2000/svg">
<path d="M3.70503 6.49802C3.70583 7.19397 3.98264 7.86118 4.47475 8.35329C4.96686 8.8454 5.63408 9.12222 6.33003 9.12302C6.41321 9.11967 6.49621 9.13317 6.57405 9.16269C6.65189 9.19221 6.72297 9.23714 6.783 9.29482C6.84304 9.35249 6.8908 9.4217 6.92343 9.49829C6.95606 9.57488 6.97289 9.65726 6.97289 9.74051C6.97289 9.82376 6.95606 9.90615 6.92343 9.98274C6.8908 10.0593 6.84304 10.1285 6.783 10.1862C6.72297 10.2439 6.65189 10.2888 6.57405 10.3183C6.49621 10.3479 6.41321 10.3614 6.33003 10.358C5.5666 10.358 4.82031 10.1316 4.18553 9.70749C3.55076 9.28335 3.05601 8.6805 2.76385 7.97517C2.4717 7.26985 2.39527 6.49373 2.5442 5.74496C2.69314 4.9962 3.06077 4.30842 3.6006 3.76859C4.14043 3.22875 4.82821 2.86113 5.57698 2.71219C6.32575 2.56325 7.10187 2.63968 7.80719 2.93184C8.51251 3.22399 9.11536 3.71874 9.53951 4.35352C9.96365 4.98829 10.19 5.73458 10.19 6.49802C10.1934 6.5812 10.1799 6.6642 10.1504 6.74203C10.1208 6.81987 10.0759 6.89095 10.0182 6.95099C9.96055 7.01103 9.89135 7.05879 9.81476 7.09142C9.73817 7.12405 9.65577 7.14087 9.57253 7.14087C9.48928 7.14087 9.40689 7.12405 9.33031 7.09142C9.25372 7.05879 9.1845 7.01103 9.12683 6.95099C9.06916 6.89095 9.02423 6.81987 8.99471 6.74203C8.96518 6.6642 8.95168 6.5812 8.95503 6.49802C8.96184 6.14905 8.89899 5.80223 8.77016 5.47784C8.64132 5.15346 8.44909 4.85803 8.20471 4.60883C7.96033 4.35963 7.6687 4.16168 7.34689 4.02654C7.02509 3.89139 6.67957 3.82178 6.33054 3.82178C5.9815 3.82178 5.63597 3.89139 5.31416 4.02654C4.99236 4.16168 4.70073 4.35963 4.45634 4.60883C4.21196 4.85803 4.01973 5.15346 3.8909 5.47784C3.76207 5.80223 3.69921 6.14905 3.70602 6.49802H3.70503ZM4.19003 11.96C2.60503 10.225 1.23702 8.72602 1.23402 6.49202C1.23402 5.14074 1.77082 3.84481 2.72632 2.88931C3.68182 1.93381 4.97775 1.39702 6.32903 1.39702C7.6803 1.39702 8.97623 1.93381 9.93173 2.88931C10.8872 3.84481 11.424 5.14074 11.424 6.49202C11.4243 6.65575 11.4895 6.81268 11.6054 6.92836C11.7213 7.04404 11.8783 7.10901 12.042 7.10901C12.2058 7.10874 12.3627 7.04353 12.4784 6.92766C12.594 6.81179 12.659 6.65474 12.659 6.49101C12.659 4.81219 11.9921 3.20214 10.805 2.01503C9.61792 0.827925 8.00785 0.161011 6.32903 0.161011C4.6502 0.161011 3.04015 0.827925 1.85304 2.01503C0.665937 3.20214 -0.000976563 4.81219 -0.000976562 6.49101C0.00626482 7.74286 0.368651 8.96695 1.04404 10.021C1.69935 11.0133 2.44737 11.9411 3.27803 12.792C4.14346 13.6876 4.92785 14.658 5.62202 15.692C5.66376 15.7639 5.71958 15.8266 5.78612 15.8764C5.85265 15.9262 5.92856 15.9621 6.00928 15.9819C6.09 16.0017 6.17388 16.005 6.25591 15.9916C6.33793 15.9782 6.41643 15.9485 6.48668 15.904C6.55693 15.8596 6.61751 15.8015 6.66478 15.7331C6.71205 15.6648 6.74504 15.5876 6.76178 15.5061C6.77852 15.4247 6.77867 15.3408 6.76222 15.2593C6.74577 15.1779 6.71305 15.1006 6.66603 15.032C5.93412 13.9367 5.10547 12.9093 4.19003 11.962V11.96ZM15.647 12.26C15.5365 12.3806 15.3826 12.4525 15.2191 12.4598C15.0556 12.4671 14.8959 12.4093 14.775 12.299L14.698 12.228V14.268C14.6978 14.7292 14.5145 15.1715 14.1884 15.4977C13.8624 15.824 13.4203 16.0075 12.959 16.008H9.48903C9.02781 16.0075 8.58564 15.824 8.2596 15.4977C7.93356 15.1715 7.7503 14.7292 7.75003 14.268V12.253L7.70403 12.295C7.64479 12.3533 7.57443 12.3989 7.49713 12.4294C7.41984 12.4598 7.3372 12.4744 7.25417 12.4721C7.17113 12.4699 7.08939 12.4509 7.01384 12.4164C6.93829 12.3819 6.87047 12.3324 6.81445 12.2711C6.75843 12.2098 6.71536 12.1378 6.68779 12.0594C6.66022 11.9811 6.64873 11.8979 6.65401 11.815C6.65929 11.7321 6.68123 11.6511 6.71852 11.5769C6.75581 11.5027 6.80768 11.4367 6.87103 11.383L10.059 8.46901C10.3808 8.17201 10.8026 8.0071 11.2405 8.0071C11.6784 8.0071 12.1002 8.17201 12.422 8.46901L14.464 10.336C14.4867 10.3538 14.5081 10.3732 14.528 10.394L15.61 11.383C15.6699 11.4377 15.7184 11.5036 15.7527 11.5771C15.7871 11.6505 15.8066 11.7299 15.8102 11.8109C15.8138 11.8919 15.8015 11.9728 15.7738 12.049C15.7461 12.1252 15.7037 12.1952 15.649 12.255L15.647 12.26ZM13.462 11.099L11.587 9.38501C11.492 9.29637 11.367 9.24707 11.237 9.24707C11.1071 9.24707 10.982 9.29637 10.887 9.38501L8.98103 11.127V14.268C8.98103 14.4006 9.0337 14.5278 9.12747 14.6216C9.22124 14.7153 9.34842 14.768 9.48103 14.768H12.951C13.0836 14.768 13.2108 14.7153 13.3046 14.6216C13.3984 14.5278 13.451 14.4006 13.451 14.268L13.462 11.099Z" fill="#F6F6F6"/>
</svg>
