<svg width="26" height="24" viewBox="0 0 26 24" fill="none" xmlns="http://www.w3.org/2000/svg">
<path d="M25.136 11.3777L14.636 1.05475C14.1988 0.628931 13.6127 0.390625 13.0025 0.390625C12.3922 0.390625 11.8061 0.628931 11.369 1.05475L0.868955 11.3777C0.731971 11.5123 0.65406 11.6958 0.652372 11.8879C0.650684 12.0799 0.725355 12.2647 0.859952 12.4017C0.99455 12.5387 1.17805 12.6166 1.37008 12.6183C1.56212 12.62 1.74699 12.5453 1.88397 12.4107L2.70096 11.6107V19.8528C2.70201 20.6879 3.03424 21.4884 3.62475 22.0789C4.21526 22.6695 5.01584 23.0017 5.85095 23.0027H20.159C20.9941 23.0017 21.7947 22.6695 22.3852 22.0789C22.9757 21.4884 23.3079 20.6879 23.309 19.8528V11.6077L24.126 12.4077C24.263 12.5423 24.4478 12.617 24.6398 12.6153C24.8319 12.6136 25.0154 12.5357 25.15 12.3987C25.2846 12.2618 25.3592 12.0769 25.3575 11.8849C25.3559 11.6929 25.2779 11.5093 25.141 11.3747L25.136 11.3777ZM21.856 19.8487C21.856 20.2996 21.6768 20.732 21.358 21.0508C21.0392 21.3696 20.6068 21.5487 20.156 21.5487H5.84598C5.39511 21.5487 4.9627 21.3696 4.64389 21.0508C4.32508 20.732 4.14596 20.2996 4.14596 19.8487V10.1877L12.384 2.08774C12.4667 2.00602 12.565 1.94175 12.673 1.89874C12.8183 1.84102 12.9762 1.82263 13.1309 1.84546C13.2856 1.86828 13.4315 1.93152 13.554 2.02875C13.577 2.0472 13.5991 2.06688 13.62 2.08774L21.858 10.1877L21.856 19.8487Z" fill="#B9B81D"/>
<path d="M10.829 8.84811V11.1771H8.5C8.30798 11.1771 8.12381 11.2534 7.98804 11.3892C7.85226 11.5249 7.776 11.7091 7.776 11.9011V14.7901C7.776 14.9821 7.85226 15.1663 7.98804 15.3021C8.12381 15.4378 8.30798 15.5141 8.5 15.5141H10.829V17.8401C10.829 18.0321 10.9053 18.2163 11.041 18.3521C11.1768 18.4878 11.361 18.5641 11.553 18.5641H14.442C14.634 18.5641 14.8182 18.4878 14.9539 18.3521C15.0897 18.2163 15.166 18.0321 15.166 17.8401V15.5111H17.495C17.687 15.5111 17.8712 15.4348 18.0069 15.299C18.1427 15.1633 18.219 14.9791 18.219 14.7871V11.8981C18.219 11.7061 18.1427 11.5219 18.0069 11.3862C17.8712 11.2504 17.687 11.1741 17.495 11.1741H15.166V8.84509C15.166 8.65308 15.0897 8.46894 14.9539 8.33316C14.8182 8.19738 14.634 8.12109 14.442 8.12109H11.553C11.361 8.12109 11.1768 8.19738 11.041 8.33316C10.9053 8.46894 10.829 8.65308 10.829 8.84509V8.84811ZM12.277 11.9011V9.57211H13.718V11.9011C13.718 12.0931 13.7943 12.2773 13.9301 12.4131C14.0658 12.5488 14.25 12.6251 14.442 12.6251H16.771V14.0661H14.442C14.25 14.0661 14.0658 14.1424 13.9301 14.2782C13.7943 14.4139 13.718 14.5981 13.718 14.7901V17.1191H12.277V14.7901C12.277 14.5981 12.2007 14.4139 12.0649 14.2782C11.9292 14.1424 11.745 14.0661 11.553 14.0661H9.21899V12.6251H11.548C11.74 12.6251 11.9242 12.5488 12.0599 12.4131C12.1957 12.2773 12.272 12.0931 12.272 11.9011H12.277Z" fill="#B9B81D"/>
</svg>
