<svg width="22" height="22" viewBox="0 0 22 22" fill="none" xmlns="http://www.w3.org/2000/svg">
<path d="M19.422 0H2.578C1.89452 0.000793981 1.23928 0.272654 0.755981 0.755951C0.272685 1.23925 0.000793981 1.89452 0 2.578V19.422C0.000793981 20.1055 0.272685 20.7608 0.755981 21.244C1.23928 21.7273 1.89452 21.9992 2.578 22H19.422C20.1055 21.9992 20.7607 21.7273 21.244 21.244C21.7273 20.7608 21.9992 20.1055 22 19.422V2.578C21.9992 1.89452 21.7273 1.23925 21.244 0.755951C20.7607 0.272654 20.1055 0.000793981 19.422 0ZM2.578 1.71899H19.422C19.6497 1.71926 19.8681 1.80985 20.0291 1.97089C20.1901 2.13192 20.2807 2.35026 20.281 2.578V15.2L17.356 12.275C16.8722 11.7922 16.2165 11.5211 15.533 11.5211C14.8495 11.5211 14.1939 11.7922 13.71 12.275L12.762 13.223L10.095 10.556C9.61111 10.0732 8.9555 9.80209 8.27197 9.80209C7.58845 9.80209 6.93284 10.0732 6.44897 10.556L1.71899 15.286V2.578C1.71926 2.35026 1.80985 2.13192 1.97089 1.97089C2.13192 1.80985 2.35026 1.71926 2.578 1.71899ZM19.422 20.282H2.578C2.35026 20.2817 2.13192 20.1912 1.97089 20.0301C1.80985 19.8691 1.71926 19.6507 1.71899 19.423V17.717L7.664 11.772C7.82523 11.6111 8.0437 11.5207 8.27148 11.5207C8.49927 11.5207 8.7178 11.6111 8.87903 11.772L12.762 15.655L14.926 13.491C15.0873 13.3301 15.3057 13.2397 15.5335 13.2397C15.7613 13.2397 15.9798 13.3301 16.141 13.491L20.281 17.632V19.424C20.2807 19.6518 20.1901 19.8701 20.0291 20.0311C19.8681 20.1921 19.6497 20.2827 19.422 20.283V20.282ZM13.922 8.595C14.4319 8.595 14.9303 8.4438 15.3542 8.16052C15.7782 7.87725 16.1087 7.47464 16.3038 7.00357C16.4989 6.5325 16.5499 6.01415 16.4504 5.51407C16.351 5.01399 16.1055 4.55463 15.7449 4.19409C15.3844 3.83355 14.925 3.588 14.4249 3.48853C13.9248 3.38905 13.4065 3.4401 12.9354 3.63522C12.4644 3.83035 12.0617 4.1608 11.7784 4.58475C11.4952 5.0087 11.344 5.50712 11.344 6.017C11.3448 6.70048 11.6167 7.35575 12.1 7.83905C12.5833 8.32235 13.2385 8.59421 13.922 8.595ZM13.922 5.15799C14.0919 5.15799 14.258 5.20838 14.3992 5.30276C14.5405 5.39715 14.6506 5.5313 14.7156 5.68826C14.7807 5.84522 14.7976 6.01794 14.7645 6.18457C14.7313 6.3512 14.6496 6.50426 14.5294 6.62439C14.4093 6.74452 14.2562 6.82635 14.0896 6.8595C13.923 6.89264 13.7502 6.87562 13.5933 6.81061C13.4363 6.74559 13.3022 6.63549 13.2078 6.49423C13.1134 6.35297 13.063 6.18689 13.063 6.017C13.0633 5.78926 13.1538 5.57092 13.3149 5.40988C13.4759 5.24885 13.6943 5.15825 13.922 5.15799Z" fill="#06103B"/>
</svg>
