<svg width="30" height="40" viewBox="0 0 30 40" fill="none" xmlns="http://www.w3.org/2000/svg">
<path d="M27.5252 16.8889H25.9472V11.3319C25.9472 8.50394 24.8238 5.79175 22.8241 3.79205C20.8244 1.79235 18.1122 0.668945 15.2842 0.668945C12.4562 0.668945 9.74399 1.79235 7.74429 3.79205C5.74459 5.79175 4.62119 8.50394 4.62119 11.3319V16.8889H3.04318C2.44406 16.8889 1.86948 17.127 1.44583 17.5506C1.02219 17.9742 0.78418 18.5488 0.78418 19.1479V37.5689C0.78418 38.1681 1.02219 38.7426 1.44583 39.1663C1.86948 39.5899 2.44406 39.8279 3.04318 39.8279H27.5262C28.1251 39.8277 28.6995 39.5896 29.1229 39.166C29.5463 38.7423 29.7842 38.1679 29.7842 37.5689V19.1479C29.7842 18.5488 29.5462 17.9742 29.1225 17.5506C28.6989 17.127 28.1243 16.8889 27.5252 16.8889ZM17.6842 33.0689H12.8842L13.7442 28.9689C13.2159 28.6345 12.8104 28.1376 12.5889 27.5529C12.3674 26.9682 12.3417 26.3274 12.5158 25.7269C12.6899 25.1263 13.0543 24.5986 13.5542 24.223C14.0541 23.8474 14.6624 23.6444 15.2877 23.6444C15.9129 23.6444 16.5213 23.8474 17.0212 24.223C17.5211 24.5986 17.8855 25.1263 18.0596 25.7269C18.2337 26.3274 18.208 26.9682 17.9865 27.5529C17.7649 28.1376 17.3595 28.6345 16.8312 28.9689L17.6842 33.0689ZM22.1382 16.89H8.42618V11.3329C8.42618 9.51396 9.14878 7.76946 10.435 6.48325C11.7212 5.19703 13.4657 4.47446 15.2847 4.47446C17.1037 4.47446 18.8482 5.19703 20.1344 6.48325C21.4206 7.76946 22.1432 9.51396 22.1432 11.3329L22.1382 16.89Z" fill="black"/>
</svg>
