<svg width="24" height="24" viewBox="0 0 24 24" fill="none" xmlns="http://www.w3.org/2000/svg">
<path d="M22.891 1.50699C22.5688 1.04266 22.1389 0.66327 21.6382 0.401245C21.1374 0.13922 20.5807 0.00238037 20.0155 0.00238037C19.4503 0.00238037 18.8936 0.13922 18.3928 0.401245C17.8921 0.66327 17.4622 1.04266 17.14 1.50699C16.4192 2.49957 16.031 3.69482 16.031 4.92151C16.031 6.1482 16.4192 7.34341 17.14 8.336C17.6716 9.05548 18.4413 9.56294 19.312 9.76801V16.687C19.312 18.2534 18.6897 19.7556 17.5822 20.8632C16.4746 21.9707 14.9724 22.593 13.406 22.593C11.8396 22.593 10.3374 21.9707 9.2298 20.8632C8.12221 19.7556 7.5 18.2534 7.5 16.687V13.593H12.891C12.9829 13.593 13.0739 13.5749 13.1589 13.5397C13.2438 13.5045 13.321 13.453 13.386 13.388C13.451 13.323 13.5025 13.2458 13.5377 13.1609C13.5729 13.076 13.591 12.9849 13.591 12.893V0.700012C13.591 0.608087 13.5729 0.517057 13.5377 0.432129C13.5025 0.347201 13.451 0.270018 13.386 0.205017C13.321 0.140016 13.2438 0.088462 13.1589 0.0532837C13.0739 0.0181054 12.9829 0 12.891 0H0.700012C0.514361 0 0.336293 0.0737416 0.205017 0.205017C0.0737416 0.336293 0 0.514361 0 0.700012V12.888C0 13.0737 0.0737416 13.2517 0.205017 13.383C0.336293 13.5142 0.514361 13.588 0.700012 13.588H6.091V16.682C6.11351 18.6066 6.89384 20.4447 8.26276 21.7977C9.63167 23.1507 11.4788 23.9095 13.4035 23.9095C15.3282 23.9095 17.1753 23.1507 18.5443 21.7977C19.9132 20.4447 20.6935 18.6066 20.716 16.682V9.763C21.5866 9.5577 22.3562 9.05029 22.888 8.33099C23.6088 7.33841 23.997 6.14319 23.997 4.9165C23.997 3.68981 23.6088 2.4946 22.888 1.50201L22.891 1.50699ZM1.40601 1.40701H12.187V12.188H1.40601V1.40701ZM21.781 7.474C21.5907 7.76916 21.3295 8.01188 21.0211 8.17996C20.7128 8.34804 20.3672 8.43613 20.016 8.43613C19.6648 8.43613 19.3193 8.34804 19.0109 8.17996C18.7026 8.01188 18.4413 7.76916 18.251 7.474C17.7227 6.72863 17.439 5.8376 17.439 4.92401C17.439 4.01042 17.7227 3.11937 18.251 2.37399C18.4413 2.07883 18.7026 1.83611 19.0109 1.66803C19.3193 1.49995 19.6648 1.4119 20.016 1.4119C20.3672 1.4119 20.7128 1.49995 21.0211 1.66803C21.3295 1.83611 21.5907 2.07883 21.781 2.37399C22.3093 3.11937 22.593 4.01042 22.593 4.92401C22.593 5.8376 22.3093 6.72863 21.781 7.474Z" fill="#06103B"/>
<path d="M10.5083 15.618C10.1128 16.014 9.89062 16.5508 9.89062 17.1105C9.89062 17.6702 10.1128 18.207 10.5083 18.603L12.9083 20.984C12.9733 21.049 13.0504 21.1006 13.1354 21.1358C13.2203 21.1709 13.3113 21.189 13.4033 21.189C13.4952 21.189 13.5863 21.1709 13.6712 21.1358C13.7561 21.1006 13.8333 21.049 13.8983 20.984L16.2983 18.601C16.1435 18.0051 15.8646 17.4486 15.4799 16.9679C15.0952 16.4872 14.6133 16.0932 14.0658 15.8116C13.5183 15.53 12.9175 15.3672 12.3027 15.3339C11.688 15.3005 11.0731 15.3973 10.4983 15.618H10.5083ZM14.3153 16.612C14.4469 16.4794 14.6257 16.4045 14.8124 16.4038C14.9992 16.403 15.1787 16.4765 15.3113 16.6081C15.4439 16.7396 15.5188 16.9184 15.5195 17.1052C15.5203 17.292 15.4469 17.4714 15.3153 17.604L13.4093 19.494L11.5093 17.606C11.3775 17.4742 11.3034 17.2954 11.3034 17.109C11.3034 16.9226 11.3775 16.7438 11.5093 16.612C11.6411 16.4802 11.8199 16.4061 12.0063 16.4061C12.1927 16.4061 12.3715 16.4802 12.5033 16.612L12.9153 17.024C12.9804 17.0896 13.0578 17.1417 13.1431 17.1773C13.2284 17.2128 13.3199 17.2311 13.4123 17.2311C13.5047 17.2311 13.5962 17.2128 13.6815 17.1773C13.7668 17.1417 13.8442 17.0896 13.9093 17.024L14.3153 16.612Z" fill="#06103B"/>
<path d="M10.7815 6.79604C10.7815 6.00807 10.5478 5.23779 10.11 4.58263C9.67224 3.92746 9.05002 3.41682 8.32204 3.11528C7.59406 2.81374 6.79305 2.73484 6.02023 2.88856C5.2474 3.04229 4.53754 3.42175 3.98037 3.97893C3.4232 4.5361 3.04376 5.24596 2.89004 6.01878C2.73631 6.7916 2.81518 7.59265 3.11672 8.32063C3.41826 9.04861 3.9289 9.67083 4.58407 10.1086C5.23923 10.5464 6.00949 10.78 6.79745 10.78C7.85366 10.7787 8.86626 10.3585 9.61312 9.61168C10.36 8.86482 10.7801 7.85225 10.7815 6.79604ZM4.21944 6.79604C4.21944 6.28615 4.37068 5.7877 4.65395 5.36375C4.93723 4.9398 5.33981 4.60938 5.81087 4.41426C6.28194 4.21914 6.80029 4.16809 7.30038 4.26756C7.80046 4.36703 8.25984 4.61256 8.62038 4.9731C8.98092 5.33364 9.22648 5.79299 9.32595 6.29307C9.42542 6.79316 9.37434 7.31151 9.17922 7.78258C8.9841 8.25364 8.65365 8.65628 8.2297 8.93956C7.80575 9.22283 7.30733 9.37404 6.79745 9.37404C6.11396 9.37324 5.45872 9.10135 4.97543 8.61806C4.49213 8.13476 4.22024 7.47952 4.21944 6.79604Z" fill="#06103B"/>
<path d="M7.49976 6.797V5.85602C7.49976 5.66957 7.42566 5.49076 7.29382 5.35892C7.16199 5.22708 6.9832 5.15302 6.79675 5.15302C6.61031 5.15302 6.43152 5.22708 6.29968 5.35892C6.16784 5.49076 6.09375 5.66957 6.09375 5.85602V6.79401C6.09375 6.98045 6.16784 7.15927 6.29968 7.29111C6.43152 7.42295 6.61031 7.49701 6.79675 7.49701C6.9832 7.49701 7.16199 7.42295 7.29382 7.29111C7.42566 7.15927 7.49976 6.98045 7.49976 6.79401V6.797Z" fill="#06103B"/>
</svg>
