<svg width="52" height="52" viewBox="0 0 52 52" fill="none" xmlns="http://www.w3.org/2000/svg">
<defs>
<clipPath id="clip0">
<rect width="52" height="52" fill="white"/>
</clipPath>
</defs>
<g clip-path="url(#clip0)">
<path d="M25.7929 50.1291C27.3755 50.1291 28.7033 49.0424 29.0727 47.5745C26.8557 45.6536 25.4533 42.8177 25.4533 39.6542C25.4533 36.4423 26.899 33.5688 29.175 31.6475V18.3348C29.175 16.467 27.6607 14.9531 25.7929 14.9531H3.38171C1.51431 14.9531 0 16.467 0 18.3348V46.7473C0 48.6151 1.51431 50.1291 3.38171 50.1291" fill="#5B9ED6"/>
<path d="M25.7929 14.9531H23.2876C25.1554 14.9531 26.6697 16.467 26.6697 18.3348V29.9415C26.6697 30.4692 26.4808 30.9786 26.14 31.3817C25.1093 32.5992 24.302 34.0116 23.7811 35.556C23.2451 36.8148 22.948 38.1994 22.948 39.6538C22.948 41.1154 23.2475 42.5067 23.7882 43.7703C23.7918 43.781 23.7954 43.7917 23.799 43.8024C24.2957 45.2545 23.2336 46.7672 21.6987 46.7672H3.38171C1.51431 46.7672 0 45.2529 0 43.3851V46.7473C0 48.6151 1.51431 50.1291 3.38211 50.1291H25.7929C26.8911 50.1291 27.8666 49.6054 28.4843 48.7941C28.4879 48.7893 28.4915 48.7845 28.4954 48.7794C28.52 48.7465 28.5446 48.7127 28.5684 48.6786C28.5748 48.6695 28.5807 48.6604 28.5871 48.6512C28.6077 48.6211 28.6283 48.5901 28.6482 48.5588C28.6553 48.5473 28.6628 48.5354 28.67 48.5239C28.6878 48.4949 28.7053 48.4656 28.7224 48.4358C28.7303 48.4223 28.7382 48.4084 28.7458 48.395C28.7616 48.3668 28.7771 48.3382 28.7918 48.3097C28.7997 48.2946 28.8076 48.2791 28.8156 48.2636C28.8295 48.2359 28.843 48.2081 28.856 48.1799C28.8636 48.1633 28.8715 48.147 28.8787 48.1307C28.8914 48.1026 28.9033 48.0744 28.9152 48.0462C28.9223 48.0292 28.9294 48.0121 28.9362 47.9951C28.9477 47.9661 28.9584 47.9371 28.9691 47.9082C28.9755 47.8911 28.9818 47.8741 28.9878 47.857C28.9989 47.8257 29.0088 47.7939 29.0187 47.7622C29.0235 47.7471 29.0286 47.732 29.0334 47.7169C29.0473 47.6697 29.0604 47.6225 29.0727 47.5745C28.9584 47.4753 28.8465 47.3734 28.7366 47.2694C28.7235 47.2571 28.7104 47.2452 28.6974 47.2325C28.5918 47.1318 28.4883 47.0286 28.3871 46.9235C28.3728 46.9088 28.3589 46.8941 28.3451 46.8795C28.2431 46.7727 28.1435 46.664 28.0463 46.5526C28.0368 46.5414 28.0269 46.5303 28.0174 46.5192C27.9162 46.4026 27.817 46.2844 27.721 46.1634C26.3015 44.3757 25.4529 42.114 25.4529 39.6542C25.4529 36.4423 26.899 33.5688 29.1746 31.6475V18.3348C29.175 16.467 27.6607 14.9531 25.7929 14.9531Z" fill="#4C83B3"/>
<path d="M6.59375 11.8086H22.5783V14.9566H6.59375V11.8086Z" fill="#5A67AD"/>
<path d="M18.4688 11.8086H22.5793V14.9566H18.4688V11.8086Z" fill="#48538A"/>
<path d="M3.27344 7.28369V10.5392C3.27344 11.2407 3.84235 11.8092 4.54337 11.8092H24.6321C25.3335 11.8092 25.902 11.2407 25.902 10.5392V4.02774C25.902 3.32632 25.3335 2.75781 24.6321 2.75781H4.54337C3.84195 2.75781 3.27344 3.32672 3.27344 4.02774V7.28369Z" fill="#5B9ED6"/>
<path d="M20.1992 2.75781V11.8092H24.6299C25.3313 11.8092 25.8998 11.2407 25.8998 10.5392V4.02774C25.8998 3.32632 25.3313 2.75781 24.6299 2.75781H20.1992Z" fill="#4C83B3"/>
<path d="M23.3605 32.542C23.3605 37.3864 19.4333 41.3141 14.5885 41.3141C9.74402 41.3141 5.81641 37.3864 5.81641 32.542C5.81641 27.6971 9.74402 23.7695 14.5885 23.7695C19.4333 23.7695 23.3605 27.6971 23.3605 32.542Z" fill="#EF2D57"/>
<path d="M19.5576 25.3164C20.5316 26.7296 21.1032 28.4418 21.1032 30.2878C21.1032 35.1327 17.1756 39.0599 12.3312 39.0599C10.4848 39.0599 8.77292 38.4886 7.35938 37.5142C8.94153 39.8093 11.5873 41.3149 14.5858 41.3149C19.4306 41.3149 23.3578 37.3873 23.3578 32.5428C23.3578 29.5443 21.8527 26.8986 19.5576 25.3164Z" fill="#D9294F"/>
<path d="M46.4032 39.6545C46.4032 45.44 41.7134 50.1297 35.9279 50.1297C30.1429 50.1297 25.4531 45.44 25.4531 39.6545C25.4531 33.8694 30.1429 29.1797 35.9279 29.1797C41.7134 29.1797 46.4032 33.8694 46.4032 39.6545Z" fill="#FCDA55"/>
<path d="M42.2586 31.3125C43.5952 33.0712 44.389 35.2651 44.389 37.6443C44.389 43.4298 39.6993 48.1195 33.9138 48.1195C31.5346 48.1195 29.3407 47.3257 27.582 45.9891C29.4955 48.5067 32.5209 50.1325 35.9272 50.1325C41.7123 50.1325 46.402 45.4428 46.402 39.6573C46.402 36.2514 44.7762 33.2259 42.2586 31.3125Z" fill="#D9BC4A"/>
<path d="M28.7344 47.1684C29.1355 47.5167 29.5635 47.8353 30.0146 48.1205L44.4643 33.6705C44.179 33.2194 43.8608 32.7913 43.5121 32.3906C43.4474 32.4263 43.386 32.4712 43.3308 32.5263L28.8701 46.9871C28.8149 47.0422 28.7701 47.1033 28.7344 47.1684Z" fill="#D9BC4A"/>
<path d="M42.4898 16.1669C38.7447 17.073 35.8125 20.1485 35.8125 24.1352V29.1816C35.8518 29.1812 35.8907 29.18 35.9299 29.18C41.7154 29.18 46.4052 33.8697 46.4052 39.6552C46.4052 42.5097 45.263 45.0971 43.411 46.9863C43.5753 46.9967 43.7403 47.003 43.907 47.003C48.3777 47.003 52.0018 43.3789 52.0018 38.9086V24.1352C52.0018 20.1485 49.1188 16.8374 45.3245 16.1669C45.3245 16.1669 43.4602 15.932 42.4898 16.1669Z" fill="#F084AD"/>
<path d="M45.3227 16.1669C44.3062 16.0277 43.3616 16.0277 42.488 16.1669C42.4595 16.1721 42.4309 16.1788 42.4023 16.184C46.1538 16.8894 48.9936 20.1787 48.9936 24.1352V38.9086C48.9936 42.307 46.8985 45.2146 43.9297 46.4143C43.7631 46.6115 43.5898 46.8023 43.4092 46.9864C43.5735 46.9967 43.7385 47.0031 43.9055 47.0031C48.3759 47.0031 52 43.3789 52 38.9086V24.1352C52 20.1485 49.117 16.8374 45.3227 16.1669Z" fill="#D47499"/>
<path d="M42.5312 31.5234C44.8946 33.444 46.4053 36.3738 46.4053 39.6564C46.4053 42.5112 45.2631 45.0987 43.4112 46.9879C43.5754 46.9978 43.7405 47.0046 43.9071 47.0046C48.3778 47.0046 52.002 43.3805 52.002 38.9101V31.5234H42.5312Z" fill="#EF2D57"/>
<path d="M48.9945 38.9101C48.9945 42.3085 46.8994 45.2157 43.9307 46.4158C43.8533 46.5075 43.7744 46.5971 43.6938 46.686C43.6799 46.7011 43.666 46.7162 43.6526 46.7312C43.5728 46.8181 43.4923 46.9042 43.4102 46.9879C43.5744 46.9982 43.7394 47.0046 43.9061 47.0046C48.3768 47.0046 52.0009 43.3805 52.0009 38.9101V31.5234H48.9945V38.9101Z" fill="#CC264B"/>
<path d="M18.6165 31.7378H15.3911V28.5124C15.3911 28.0677 15.0305 27.707 14.5857 27.707C14.141 27.707 13.7808 28.0677 13.7808 28.5124V31.7378H10.5554C10.1106 31.7378 9.75 32.098 9.75 32.5428C9.75 32.9875 10.1106 33.3481 10.5554 33.3481H13.7808V36.5735C13.7808 37.0182 14.141 37.3789 14.5857 37.3789C15.0305 37.3789 15.3911 37.0182 15.3911 36.5735V33.3481H18.6165C19.0612 33.3481 19.4218 32.9875 19.4218 32.5428C19.4218 32.098 19.0612 31.7378 18.6165 31.7378Z" fill="white"/>
<path d="M8.82098 12.5918C8.37625 12.5918 8.01562 12.2311 8.01562 11.7864V2.73505C8.01562 2.29031 8.37625 1.92969 8.82098 1.92969C9.26572 1.92969 9.62634 2.29031 9.62634 2.73505V11.7864C9.62634 12.2311 9.26572 12.5918 8.82098 12.5918Z" fill="#674297"/>
<path d="M14.6022 12.5918C14.1575 12.5918 13.7969 12.2311 13.7969 11.7864V2.73505C13.7969 2.29031 14.1575 1.92969 14.6022 1.92969C15.047 1.92969 15.4072 2.29031 15.4072 2.73505V11.7864C15.4076 12.2311 15.047 12.5918 14.6022 12.5918Z" fill="#674297"/>
<path d="M20.3796 12.5918C19.9348 12.5918 19.5742 12.2311 19.5742 11.7864V2.73505C19.5742 2.29031 19.9348 1.92969 20.3796 1.92969C20.8243 1.92969 21.1845 2.29031 21.1845 2.73505V11.7864C21.1849 12.2311 20.8243 12.5918 20.3796 12.5918Z" fill="#674297"/>
<path d="M28.594 47.7865C28.3881 47.7865 28.1822 47.7075 28.0247 47.5504C27.7105 47.2358 27.7105 46.726 28.0247 46.4114L42.4855 31.9506C42.8001 31.6364 43.3099 31.636 43.6245 31.9506C43.9391 32.2653 43.9391 32.7751 43.6245 33.0897L29.1637 47.5504C29.0062 47.7075 28.8003 47.7865 28.594 47.7865Z" fill="#E69326"/>
</g>
</svg>
