<svg width="45" height="44" viewBox="0 0 45 44" fill="none" xmlns="http://www.w3.org/2000/svg">
<path d="M22.5328 0.546875C18.2389 0.546875 14.0416 1.82014 10.4714 4.20567C6.90119 6.5912 4.11846 9.98183 2.47529 13.9488C0.832107 17.9158 0.402249 22.281 1.23993 26.4923C2.07762 30.7036 4.14526 34.572 7.18146 37.6082C10.2177 40.6444 14.086 42.712 18.2973 43.5497C22.5086 44.3874 26.8738 43.9575 30.8408 42.3143C34.8077 40.6711 38.1984 37.8885 40.5839 34.3183C42.9695 30.7481 44.2429 26.5507 44.2429 22.2569C44.2429 16.499 41.9554 10.977 37.884 6.90559C33.8126 2.83417 28.2906 0.546875 22.5328 0.546875V0.546875ZM22.5328 41.2539C18.7749 41.2539 15.1015 40.1395 11.977 38.0518C8.85246 35.9641 6.41713 32.9967 4.97907 29.5249C3.541 26.0531 3.16477 22.2328 3.89789 18.5472C4.63101 14.8615 6.44052 11.476 9.09772 8.81885C11.7549 6.16165 15.1404 4.35207 18.826 3.61895C22.5116 2.88584 26.3319 3.2621 29.8037 4.70016C33.2755 6.13823 36.243 8.57351 38.3308 11.698C40.4185 14.8226 41.5327 18.496 41.5327 22.2539C41.5327 27.293 39.5309 32.1257 35.9677 35.6889C32.4045 39.2521 27.5719 41.2539 22.5328 41.2539Z" fill="white"/>
<path d="M32.2507 29.1063C32.2509 29.2614 32.2204 29.415 32.1611 29.5584C32.1018 29.7017 32.0147 29.832 31.905 29.9417C31.7953 30.0513 31.6651 30.1384 31.5217 30.1977C31.3784 30.257 31.2247 30.2874 31.0696 30.2873H13.9988C13.6857 30.2873 13.3852 30.1629 13.1638 29.9415C12.9424 29.7201 12.8181 29.4199 12.8181 29.1068C12.8181 28.7937 12.9424 28.4934 13.1638 28.272C13.3852 28.0506 13.6857 27.9263 13.9988 27.9263H31.0696C31.2246 27.9261 31.3782 27.9566 31.5215 28.0158C31.6648 28.0751 31.7951 28.162 31.9048 28.2715C32.0145 28.3811 32.1013 28.5113 32.1606 28.6545C32.22 28.7977 32.2507 28.9512 32.2507 29.1063Z" fill="white"/>
<path d="M15.6246 20.6971C17.4113 20.6971 18.8596 19.2487 18.8596 17.4621C18.8596 15.6754 17.4113 14.2271 15.6246 14.2271C13.838 14.2271 12.3896 15.6754 12.3896 17.4621C12.3896 19.2487 13.838 20.6971 15.6246 20.6971Z" fill="white"/>
<path d="M29.4418 20.6971C31.2284 20.6971 32.6768 19.2487 32.6768 17.4621C32.6768 15.6754 31.2284 14.2271 29.4418 14.2271C27.6551 14.2271 26.2068 15.6754 26.2068 17.4621C26.2068 19.2487 27.6551 20.6971 29.4418 20.6971Z" fill="white"/>
</svg>
