<svg width="33" height="34" viewBox="0 0 33 34" fill="none" xmlns="http://www.w3.org/2000/svg">
<path d="M16.4149 0.678711C13.187 0.678711 10.0315 1.63592 7.34756 3.4293C4.66358 5.22267 2.57163 7.77166 1.33633 10.7539C0.10103 13.7362 -0.222132 17.0178 0.407617 20.1838C1.03737 23.3497 2.59176 26.2579 4.87429 28.5404C7.15683 30.8229 10.0649 32.3774 13.2309 33.0071C16.3968 33.6369 19.6785 33.3136 22.6608 32.0783C25.6431 30.8431 28.1921 28.7511 29.9855 26.0672C31.7789 23.3832 32.736 20.2277 32.736 16.9997C32.736 12.6711 31.0165 8.5198 27.9557 5.45902C24.8949 2.39824 20.7435 0.678711 16.4149 0.678711V0.678711ZM16.4149 31.2787C13.5904 31.2787 10.8294 30.4411 8.48086 28.8719C6.13236 27.3027 4.30199 25.0723 3.22109 22.4628C2.1402 19.8533 1.85731 16.9819 2.40835 14.2116C2.95939 11.4414 4.31956 8.89675 6.3168 6.89952C8.31403 4.90229 10.8587 3.54215 13.6289 2.99112C16.3992 2.44008 19.2705 2.72289 21.88 3.80379C24.4895 4.88468 26.72 6.71511 28.2892 9.06361C29.8584 11.4121 30.6959 14.1732 30.6959 16.9977C30.6959 20.7853 29.1913 24.4177 26.5131 27.0959C23.8349 29.7741 20.2025 31.2787 16.4149 31.2787Z" fill="#857C00"/>
<path d="M23.72 22.1487C23.7201 22.2653 23.6971 22.3807 23.6526 22.4885C23.6081 22.5962 23.5429 22.6941 23.4605 22.7766C23.3781 22.8591 23.2803 22.9245 23.1726 22.9691C23.065 23.0138 22.9496 23.0367 22.833 23.0367H10C9.76465 23.0367 9.53878 22.9432 9.37234 22.7768C9.20591 22.6104 9.11234 22.3846 9.11234 22.1492C9.11234 21.9139 9.20591 21.6881 9.37234 21.5217C9.53878 21.3552 9.76465 21.2617 10 21.2617H22.836C23.0707 21.2625 23.2955 21.3563 23.4612 21.5226C23.6269 21.6888 23.72 21.914 23.72 22.1487Z" fill="#857C00"/>
<path d="M11.2219 15.8269C12.5651 15.8269 13.6539 14.738 13.6539 13.3949C13.6539 12.0517 12.5651 10.9629 11.2219 10.9629C9.87876 10.9629 8.78992 12.0517 8.78992 13.3949C8.78992 14.738 9.87876 15.8269 11.2219 15.8269Z" fill="#857C00"/>
<path d="M21.609 15.8269C22.9522 15.8269 24.041 14.738 24.041 13.3949C24.041 12.0517 22.9522 10.9629 21.609 10.9629C20.2658 10.9629 19.177 12.0517 19.177 13.3949C19.177 14.738 20.2658 15.8269 21.609 15.8269Z" fill="#857C00"/>
</svg>
