<svg width="17" height="17" viewBox="0 0 17 17" fill="none" xmlns="http://www.w3.org/2000/svg">
<path d="M2.00879 0.912606C1.07578 1.12179 0.395117 1.76925 0.0929688 2.7255L0.0166016 2.9712V7.07179V11.1724L0.0929688 11.438C0.332031 12.2747 0.962891 12.9222 1.80957 13.2011C2.04863 13.2808 2.13828 13.2907 2.69941 13.3073C3.14102 13.3173 3.32031 13.3339 3.32031 13.3605C3.32031 13.3837 3.20742 13.9548 3.07129 14.6355C2.89863 15.4954 2.83223 15.8939 2.85215 15.947C2.90527 16.0831 3.0082 16.1462 3.14434 16.1263C3.2207 16.1163 4.31309 15.5552 5.89355 14.7185L8.5166 13.3306L11.7207 13.314L14.9248 13.2974L15.1904 13.2077C16.0504 12.9122 16.668 12.2747 16.907 11.438L16.9834 11.1724V7.07179V2.9712L16.907 2.7255C16.6314 1.85226 16.057 1.2546 15.2137 0.965732L14.958 0.879403L8.58301 0.872763C3.34023 0.869442 2.17148 0.876083 2.00879 0.912606ZM15.0975 1.52022C15.735 1.75929 16.1998 2.28058 16.3691 2.94132C16.4322 3.19034 16.4355 3.32315 16.4355 7.06847C16.4355 10.3456 16.4256 10.9765 16.3857 11.1724C16.243 11.8497 15.7217 12.4275 15.041 12.6599C14.8252 12.7329 14.8252 12.7329 11.6045 12.7495L8.38379 12.7661L5.95996 14.0478C4.62852 14.7517 3.53281 15.3194 3.52617 15.3062C3.52285 15.2962 3.61582 14.8048 3.73535 14.2105C3.85488 13.6194 3.95117 13.0948 3.95117 13.045C3.95117 12.7728 3.8748 12.7495 3.02813 12.7495C2.24453 12.7495 1.98887 12.7064 1.61699 12.5105C1.31152 12.3511 0.936328 11.9626 0.783594 11.6538C0.557813 11.189 0.564453 11.3616 0.564453 7.06847C0.564453 3.34972 0.567773 3.18702 0.627539 2.94796C0.816797 2.20753 1.33809 1.67628 2.05859 1.48038C2.21797 1.43722 3.06797 1.43058 8.56641 1.43722L14.8916 1.44386L15.0975 1.52022Z" fill="#9269AD"/>
</svg>
