<svg width="8" height="10" viewBox="0 0 8 10" fill="none" xmlns="http://www.w3.org/2000/svg">
<path d="M7.673 1.87927L4.139 0.412292C4.09526 0.394137 4.04836 0.384766 4.001 0.384766C3.95364 0.384766 3.90674 0.394137 3.863 0.412292L0.329003 1.87927C0.263202 1.90658 0.206992 1.95281 0.167473 2.01208C0.127954 2.07136 0.106919 2.14104 0.107018 2.21228V3.99628C0.106766 5.19669 0.464196 6.36997 1.13372 7.36633C1.80325 8.36269 2.75447 9.13694 3.86599 9.59027C3.95346 9.62611 4.05153 9.62611 4.139 9.59027C5.25052 9.13694 6.20175 8.36269 6.87127 7.36633C7.54079 6.36997 7.89826 5.19669 7.898 3.99628V2.21228C7.89797 2.14107 7.87687 2.07146 7.83736 2.01221C7.79786 1.95295 7.74174 1.90669 7.67602 1.87927H7.673ZM7.173 3.99628C7.173 5.02809 6.87296 6.03763 6.30941 6.90195C5.74586 7.76627 4.94315 8.44807 3.99902 8.86429C3.05488 8.44807 2.25214 7.76627 1.68859 6.90195C1.12504 6.03763 0.824998 5.02809 0.825005 3.99628V2.45328L3.99902 1.13528L7.173 2.45328V3.99628ZM3.60101 5.21228L5.15099 3.66229C5.21961 3.59967 5.30974 3.56591 5.40261 3.56802C5.49548 3.57014 5.58394 3.60796 5.64962 3.67365C5.71531 3.73933 5.75315 3.82782 5.75527 3.92068C5.75739 4.01355 5.72363 4.10366 5.661 4.17227L3.85601 5.97726C3.78833 6.0448 3.69662 6.08273 3.60101 6.08273C3.50539 6.08273 3.41368 6.0448 3.346 5.97726L2.33801 4.96927C2.27538 4.90066 2.24162 4.81055 2.24374 4.71768C2.24586 4.62481 2.2837 4.53633 2.34939 4.47064C2.41507 4.40496 2.50353 4.36714 2.5964 4.36502C2.68927 4.3629 2.7794 4.39667 2.84802 4.45929L3.60101 5.21228Z" fill="white"/>
</svg>
