<svg width="24" height="22" viewBox="0 0 24 22" fill="none" xmlns="http://www.w3.org/2000/svg">
<path d="M11.8488 21.8739C10.5002 21.8743 9.18985 21.4254 8.12484 20.5979C5.92386 18.9426 4.01522 16.9309 2.47787 14.6459C0.895679 12.3093 0.0340444 9.55966 -0.000158518 6.73795C-0.0274602 5.015 0.629582 3.35152 1.82687 2.11224C3.02415 0.872967 4.664 0.159035 6.38687 0.126953C7.44956 0.130324 8.49639 0.384574 9.44222 0.869049C10.3881 1.35352 11.2062 2.05452 11.8299 2.91495C12.6305 1.77173 13.7767 0.915425 15.1001 0.471832C16.4234 0.0282391 17.8542 0.0207392 19.1821 0.450439C20.51 0.88014 21.6652 1.72437 22.4778 2.85913C23.2904 3.9939 23.7177 5.35938 23.6969 6.75494C23.5739 13.0729 19.2129 17.7679 15.5769 20.5939C14.5112 21.4234 13.1992 21.8735 11.8488 21.8729V21.8739ZM9.25485 19.1319C9.99602 19.7086 10.9083 20.0216 11.8473 20.0216C12.7864 20.0216 13.6987 19.7086 14.4398 19.1319C17.7558 16.5549 21.7318 12.3109 21.8448 6.73193C21.8703 5.50125 21.4075 4.31052 20.5575 3.4202C19.7074 2.52987 18.5394 2.01239 17.3089 1.98093C14.7089 1.98093 12.7729 3.93594 12.7729 5.68094C12.7769 5.80504 12.756 5.92868 12.7113 6.04453C12.6667 6.16038 12.5991 6.26606 12.5128 6.35529C12.4264 6.44451 12.323 6.51548 12.2087 6.56393C12.0944 6.61239 11.9715 6.63736 11.8473 6.63736C11.7231 6.63736 11.6003 6.61239 11.486 6.56393C11.3717 6.51548 11.2683 6.44451 11.1819 6.35529C11.0956 6.26606 11.028 6.16038 10.9834 6.04453C10.9387 5.92868 10.9178 5.80504 10.9218 5.68094C10.8948 3.65794 8.39883 1.89393 6.38583 1.98093C5.15377 2.01264 3.98454 2.53145 3.1343 3.42368C2.28406 4.3159 1.82215 5.50878 1.84982 6.74094C1.84982 12.2289 5.87484 16.5089 9.24984 19.1349L9.25485 19.1319ZM18.4179 9.70795C17.6493 9.72575 16.9081 9.99681 16.3094 10.4791C15.7106 10.9613 15.2879 11.6278 15.1068 12.3749C15.0998 12.4009 14.7838 14.4079 14.7838 14.4079C14.7708 14.4469 14.7418 14.4879 14.6518 14.4839C14.5448 14.4839 14.5288 14.4199 14.5218 14.3759L13.7838 9.34595V9.32794C13.7084 8.88814 13.4785 8.4897 13.1354 8.20438C12.7923 7.91906 12.3587 7.76561 11.9125 7.77164C11.4663 7.77767 11.0369 7.94279 10.7017 8.23727C10.3664 8.53176 10.1473 8.93625 10.0838 9.37793C10.0838 9.37793 9.38381 12.783 9.38381 12.795C9.37681 12.839 9.36486 12.9429 9.25186 12.9469C9.13886 12.9509 9.12186 12.8469 9.11086 12.8049C9.09986 12.7629 8.94583 12.3269 8.94583 12.3269C8.71772 11.5791 8.25861 10.9227 7.6343 10.452C7.00999 9.98129 6.2526 9.72047 5.47085 9.70694C5.34675 9.70286 5.22311 9.72379 5.10726 9.76846C4.99141 9.81314 4.8857 9.88064 4.79647 9.96698C4.70724 10.0533 4.63631 10.1567 4.58785 10.2711C4.5394 10.3854 4.51443 10.5083 4.51443 10.6324C4.51443 10.7566 4.5394 10.8795 4.58785 10.9938C4.63631 11.1082 4.70724 11.2115 4.79647 11.2979C4.8857 11.3842 4.99141 11.4518 5.10726 11.4964C5.22311 11.5411 5.34675 11.562 5.47085 11.558C5.84755 11.5716 6.21117 11.6996 6.51327 11.9251C6.81536 12.1505 7.04157 12.4627 7.16183 12.8199C7.16883 12.8489 7.32687 13.2999 7.32687 13.2999C7.44581 13.7213 7.70029 14.0917 8.05099 14.3539C8.40169 14.616 8.82906 14.7552 9.26687 14.7499C9.72756 14.7387 10.1706 14.5708 10.5231 14.274C10.8756 13.9771 11.1164 13.569 11.2058 13.1169L11.9239 9.61694C11.9361 9.61464 11.9486 9.61464 11.9608 9.61694C11.9608 9.61694 12.7028 14.668 12.7038 14.674C12.7778 15.1337 13.0126 15.5523 13.3664 15.855C13.7203 16.1578 14.1701 16.325 14.6358 16.3269C15.0837 16.3329 15.5207 16.1882 15.8766 15.9163C16.2325 15.6443 16.4869 15.2607 16.5988 14.8269C16.6048 14.8009 16.9228 12.7879 16.9228 12.7879C17.0102 12.4497 17.2034 12.1483 17.4741 11.9276C17.7448 11.7069 18.079 11.5784 18.4278 11.5609C18.668 11.553 18.8958 11.4521 19.0629 11.2794C19.23 11.1067 19.3234 10.8758 19.3234 10.6354C19.3234 10.3951 19.23 10.1642 19.0629 9.99152C18.8958 9.81881 18.668 9.71783 18.4278 9.70993L18.4179 9.70795Z" fill="#06103B"/>
</svg>
