<svg width="15" height="21" viewBox="0 0 15 21" fill="none" xmlns="http://www.w3.org/2000/svg">
<path d="M2.35625 20.35C1.74094 20.3497 1.15003 20.1093 0.709251 19.68C0.493278 19.4674 0.322302 19.2136 0.206508 18.9335C0.0907142 18.6535 0.0324717 18.353 0.0352512 18.05V3.72799C0.0360459 2.91173 0.360726 2.12914 0.938007 1.55204C1.51529 0.97495 2.29799 0.650523 3.11425 0.649994L11.8862 0.649994C12.7023 0.650788 13.4848 0.975332 14.0618 1.5524C14.6389 2.12946 14.9635 2.9119 14.9643 3.72799V14.228C14.9571 14.4273 14.8729 14.616 14.7293 14.7544C14.5858 14.8929 14.3942 14.9702 14.1948 14.9702C13.9953 14.9702 13.8037 14.8929 13.6602 14.7544C13.5167 14.616 13.4324 14.4273 13.4253 14.228V3.72799C13.4247 3.31999 13.2624 2.92884 12.9739 2.64034C12.6854 2.35184 12.2943 2.18952 11.8862 2.18899H3.11425C2.70625 2.18952 2.3151 2.35184 2.0266 2.64034C1.7381 2.92884 1.57578 3.31999 1.57525 3.72799V18.05C1.57239 18.1478 1.58974 18.2452 1.62622 18.3361C1.66269 18.4269 1.71751 18.5093 1.78725 18.578C1.94385 18.728 2.15343 18.81 2.37025 18.806C2.46841 18.8076 2.56585 18.7889 2.65651 18.7513C2.74717 18.7136 2.82912 18.6577 2.89725 18.587L6.95025 14.422C7.02188 14.3487 7.10743 14.2905 7.20188 14.2507C7.29633 14.2109 7.39777 14.1905 7.50025 14.1905C7.60273 14.1905 7.70417 14.2109 7.79863 14.2507C7.89308 14.2905 7.97863 14.3487 8.05025 14.422L12.1033 18.587C12.1706 18.6576 12.2518 18.7135 12.3418 18.7512C12.4318 18.7889 12.5287 18.8076 12.6263 18.806C12.8432 18.8069 13.0519 18.7233 13.2082 18.573C13.2792 18.5031 13.3349 18.4193 13.3721 18.327C13.4092 18.2346 13.427 18.1355 13.4243 18.036C13.4243 17.8319 13.5053 17.6362 13.6496 17.4919C13.7939 17.3476 13.9897 17.2665 14.1938 17.2665C14.3978 17.2665 14.5936 17.3476 14.7379 17.4919C14.8822 17.6362 14.9633 17.8319 14.9633 18.036C14.9655 18.3392 14.9069 18.6398 14.7912 18.9201C14.6754 19.2004 14.5048 19.4547 14.2892 19.668C13.8399 20.1075 13.2347 20.3509 12.6063 20.345C12.3063 20.3445 12.0095 20.2836 11.7336 20.1659C11.4576 20.0482 11.2082 19.8761 11.0002 19.66L7.50025 16.06L4.00025 19.66C3.79261 19.875 3.54412 20.0463 3.26937 20.1639C2.99461 20.2816 2.69912 20.3431 2.40025 20.345L2.35625 20.35Z" fill="#06103B"/>
</svg>
