<svg width="13" height="12" viewBox="0 0 13 12" fill="none" xmlns="http://www.w3.org/2000/svg">
<path d="M11.573 0.927002C11.2791 0.633102 10.9302 0.399963 10.5462 0.240906C10.1622 0.0818484 9.75066 0 9.33502 0C8.91939 0 8.50778 0.0818484 8.12378 0.240906C7.73978 0.399963 7.39088 0.633102 7.09698 0.927002L4.26202 3.76199L1.427 6.59698C0.833447 7.19054 0.5 7.99558 0.5 8.83499C0.5 9.6744 0.833447 10.4794 1.427 11.073C2.02056 11.6666 2.82557 12 3.66498 12C4.50439 12 5.30946 11.6666 5.90302 11.073L8.73798 8.23801L11.573 5.40302C11.8669 5.10912 12.1 4.76019 12.2591 4.37619C12.4182 3.99219 12.5 3.58064 12.5 3.16501C12.5 2.74937 12.4182 2.33779 12.2591 1.9538C12.1 1.5698 11.8669 1.2209 11.573 0.927002ZM5.30701 10.476C4.87179 10.9114 4.28142 11.156 3.66583 11.1561C3.05024 11.1562 2.45983 10.9117 2.02448 10.4765C1.58912 10.0413 1.34452 9.45095 1.34442 8.83536C1.34433 8.21977 1.58877 7.62935 2.02399 7.194L4.56 4.65701L7.84302 7.94L5.30701 10.476ZM10.976 4.80701L8.44 7.34399L5.15698 4.061L7.69299 1.52499C8.12835 1.08977 8.71876 0.845335 9.33435 0.845428C9.94994 0.845522 10.5403 1.09016 10.9755 1.52551C11.4107 1.96087 11.6552 2.55125 11.6551 3.16684C11.655 3.78243 11.4103 4.37279 10.975 4.80801L10.976 4.80701Z" fill="#B9B81D"/>
<path d="M10.4642 2.84595C10.3955 2.84614 10.3278 2.82959 10.267 2.7977C10.2062 2.76581 10.1541 2.71956 10.1152 2.66296C10.0277 2.53476 9.91306 2.42741 9.77936 2.3486C9.64566 2.2698 9.4962 2.22145 9.34167 2.20703C9.18715 2.19261 9.03135 2.21246 8.88538 2.26517C8.7394 2.31787 8.60686 2.40215 8.49719 2.51196C8.41763 2.59153 8.30973 2.63623 8.1972 2.63623C8.08468 2.63623 7.97678 2.59153 7.89722 2.51196C7.81765 2.4324 7.77295 2.32447 7.77295 2.21195C7.77295 2.09942 7.81765 1.99152 7.89722 1.91196C8.09465 1.71467 8.33309 1.56331 8.59564 1.46863C8.8582 1.37395 9.13842 1.33826 9.41632 1.36414C9.69423 1.39001 9.96299 1.4768 10.2036 1.61832C10.4441 1.75984 10.6505 1.95262 10.8082 2.18295C10.8517 2.24633 10.8771 2.32042 10.8817 2.39719C10.8862 2.47396 10.8696 2.55048 10.8338 2.61853C10.798 2.68658 10.7443 2.74357 10.6784 2.7833C10.6126 2.82302 10.5371 2.844 10.4602 2.84396L10.4642 2.84595Z" fill="#B9B81D"/>
</svg>
