<svg width="16" height="16" viewBox="0 0 16 16" fill="none" xmlns="http://www.w3.org/2000/svg">
<path d="M8.07489 0.0749512C6.50748 0.0749512 4.97526 0.539743 3.672 1.41055C2.36874 2.28136 1.35297 3.51909 0.753146 4.96719C0.153321 6.4153 -0.00360018 8.00875 0.302188 9.54605C0.607976 11.0834 1.36274 12.4954 2.47107 13.6038C3.5794 14.7121 4.99151 15.4669 6.52881 15.7727C8.06611 16.0785 9.65956 15.9215 11.1077 15.3217C12.5558 14.7219 13.7935 13.7061 14.6643 12.4028C15.5351 11.0996 15.9999 9.56736 15.9999 7.99994C15.9975 5.89883 15.1618 3.88448 13.6761 2.39877C12.1904 0.913063 10.176 0.0773332 8.07489 0.0749512ZM8.07489 14.65C6.75965 14.65 5.47396 14.2599 4.38037 13.5292C3.28679 12.7985 2.43442 11.7599 1.93109 10.5448C1.42777 9.32967 1.29608 7.99258 1.55268 6.70261C1.80927 5.41263 2.44263 4.22772 3.37265 3.2977C4.30267 2.36768 5.48759 1.73431 6.77756 1.47772C8.06753 1.22113 9.40462 1.35282 10.6198 1.85614C11.8349 2.35946 12.8735 3.21183 13.6042 4.30542C14.3349 5.39901 14.7249 6.68469 14.7249 7.99994C14.7231 9.76306 14.0218 11.4534 12.7751 12.7002C11.5284 13.9469 9.83801 14.6481 8.07489 14.65Z" fill="#949494"/>
<path d="M11.9268 7.5469L9.01175 4.6319C8.95365 4.5685 8.88332 4.51754 8.80499 4.48205C8.72667 4.44657 8.64197 4.42732 8.556 4.42544C8.47003 4.42357 8.38457 4.43912 8.30478 4.47116C8.22498 4.5032 8.15251 4.55107 8.09171 4.61188C8.0309 4.67268 7.98306 4.74515 7.95102 4.82495C7.91898 4.90474 7.9034 4.9902 7.90527 5.07617C7.90715 5.16214 7.9264 5.24681 7.96188 5.32513C7.99737 5.40346 8.04836 5.47379 8.11176 5.53189L9.93774 7.35791H4.67575C4.51104 7.36443 4.35525 7.43444 4.24103 7.55328C4.1268 7.67212 4.06299 7.83055 4.06299 7.99539C4.06299 8.16023 4.1268 8.31866 4.24103 8.4375C4.35525 8.55634 4.51104 8.62638 4.67575 8.6329H9.93674L8.10974 10.4599C8.004 10.5818 7.94838 10.7393 7.9541 10.9005C7.95982 11.0618 8.02645 11.215 8.14056 11.3291C8.25468 11.4432 8.40781 11.5098 8.56909 11.5155C8.73037 11.5213 8.88782 11.4656 9.00974 11.3599L11.9247 8.44488C12.0439 8.32546 12.1109 8.16364 12.1109 7.9949C12.1109 7.82617 12.0439 7.66432 11.9247 7.54489L11.9268 7.5469Z" fill="#949494"/>
</svg>
