<svg width="32" height="32" viewBox="0 0 32 32" fill="none" xmlns="http://www.w3.org/2000/svg">
<g clip-path="url(#clip0)">
<path d="M15.5 7.5C16.3284 7.5 17 6.82843 17 6C17 5.17157 16.3284 4.5 15.5 4.5C14.6716 4.5 14 5.17157 14 6C14 6.82843 14.6716 7.5 15.5 7.5Z" fill="#72C5F2"/>
<path d="M23.682 9.18194C25.4393 7.42455 25.4393 4.5753 23.6819 2.81798C21.9245 1.06065 19.0752 1.0607 17.3179 2.81809C15.5606 4.57548 15.5606 7.42472 17.318 9.18205C19.0754 10.9394 21.9247 10.9393 23.682 9.18194Z" fill="#ED928C"/>
<path d="M22 8.00005C21.9 8.00005 21.7 8.00005 21.6 7.90005L18.6 4.90005C18.4 4.70005 18.4 4.40005 18.6 4.20005C18.8 4.00005 19.1 4.00005 19.3 4.20005L22.3 7.20005C22.4999 7.40005 22.4999 7.70005 22.3 7.90005C22.3 8.00005 22.1 8.00005 22 8.00005Z" fill="#004463"/>
<path d="M19 8C18.9 8 18.7 8 18.6 7.9C18.4 7.7 18.4 7.4 18.6 7.2L21.6 4.2C21.8 4 22.1 4 22.3 4.2C22.5 4.4 22.5 4.7 22.3 4.9L19.3 7.9C19.3 8 19.1 8 19 8ZM15.5 8C14.4 8 13.5 7.1 13.5 6C13.5 4.9 14.4 4 15.5 4C16.6 4 17.5 4.9 17.5 6C17.5 7.1 16.6 8 15.5 8ZM15.5 5C14.9 5 14.5 5.4 14.5 6C14.5 6.6 14.9 7 15.5 7C16.1 7 16.5 6.6 16.5 6C16.5 5.4 16.1 5 15.5 5Z" fill="#004463"/>
<path d="M24 31C23.8 31 23.6 30.9 23.5 30.7L15.8 8.00005H15.2L7.5 30.7C7.4 31 7.1 31.1 6.9 31C6.6 30.9 6.5 30.6 6.6 30.4L14.5 7.30005C14.5 7.20005 14.6 7.10005 14.8 7.00005C14.9 6.90005 15.1 6.90005 15.2 7.00005C15.5 7.10005 15.8 7.10005 16 7.00005C16.1 6.90005 16.3 6.90005 16.4 7.00005L16.7 7.30005L24.6 30.4C24.7 30.7 24.5 30.9 24.3 31H24Z" fill="#004463"/>
<path d="M18.5 12H12.5C12.2 12 12 11.8 12 11.5C12 11.2 12.2 11 12.5 11H18.5C18.8 11 19 11.2 19 11.5C19 11.8 18.8 12 18.5 12ZM20.5 18H10.5C10.2 18 10 17.8 10 17.5C10 17.2 10.2 17 10.5 17H20.5C20.8 17 21 17.2 21 17.5C21 17.8 20.8 18 20.5 18Z" fill="#004463"/>
<path d="M19.5 18C19.4 18 19.2 18 19.1 17.9L13.1 11.9C12.9 11.7 12.9 11.4 13.1 11.2C13.3 11 13.6 11 13.8 11.2L19.8 17.2C19.9999 17.4 19.9999 17.7 19.8 17.9C19.8 18 19.6 18 19.5 18Z" fill="#004463"/>
<path d="M11.5 18C11.4 18 11.2 18 11.1 17.9C10.9 17.7 10.9 17.4 11.1 17.2L17.1 11.2C17.3 11 17.6 11 17.8 11.2C18 11.4 18 11.7 17.8 11.9L11.8 17.9C11.8 18 11.6 18 11.5 18ZM22.5 24H8.5C8.2 24 8 23.8 8 23.5C8 23.2 8.2 23 8.5 23H22.5C22.8 23 23 23.2 23 23.5C23 23.8 22.8 24 22.5 24Z" fill="#004463"/>
<path d="M21.4999 24C21.3999 24 21.2999 24 21.1999 23.9L11.1999 17.9C10.9999 17.8 10.8999 17.5 10.9999 17.2C11.0999 16.9 11.3999 16.9 11.6999 17L21.6999 23C21.8999 23.1 21.9999 23.4 21.8999 23.7C21.7999 23.9 21.6999 24 21.4999 24Z" fill="#004463"/>
<path d="M9.50009 24C9.30009 24 9.20009 23.9 9.10009 23.8C9.00009 23.6 9.00009 23.3 9.30009 23.1L19.3001 17.1C19.5001 17 19.8001 17 20.0001 17.3C20.2001 17.6 20.1001 17.8 19.8001 18L9.80009 24H9.50009Z" fill="#004463"/>
<path d="M23.4999 29.5H23.2999L8.7999 24C8.4999 23.9 8.3999 23.6 8.4999 23.4C8.5999 23.1 8.8999 23 9.0999 23.1L23.5999 28.6C23.8999 28.7 23.9999 29 23.8999 29.2C23.8999 29.4 23.6999 29.5 23.4999 29.5Z" fill="#004463"/>
<path d="M7.4999 29.5C7.2999 29.5 7.0999 29.4 6.9999 29.2C6.8999 28.9 6.9999 28.7 7.2999 28.6L21.7999 23C22.0999 22.9 22.2999 23 22.3999 23.3C22.4999 23.6 22.3999 23.8 22.0999 23.9L7.6999 29.5H7.4999Z" fill="#004463"/>
</g>
<defs>
<clipPath id="clip0">
<rect width="32" height="32" fill="white"/>
</clipPath>
</defs>
</svg>
