<svg width="22" height="23" viewBox="0 0 22 23" fill="none" xmlns="http://www.w3.org/2000/svg">
<path d="M20.44 11.0489L11.25 20.2389C10.1242 21.3648 8.59723 21.9973 7.00505 21.9973C5.41286 21.9973 3.88589 21.3648 2.76005 20.2389C1.6342 19.1131 1.00171 17.5861 1.00171 15.9939C1.00171 14.4018 1.6342 12.8748 2.76005 11.7489L11.95 2.55894C12.7006 1.80838 13.7186 1.38672 14.78 1.38672C15.8415 1.38672 16.8595 1.80838 17.61 2.55894C18.3606 3.30951 18.7823 4.32749 18.7823 5.38894C18.7823 6.4504 18.3606 7.46838 17.61 8.21894L8.41005 17.4089C8.03476 17.7842 7.52577 17.9951 6.99505 17.9951C6.46432 17.9951 5.95533 17.7842 5.58005 17.4089C5.20476 17.0337 4.99393 16.5247 4.99393 15.9939C4.99393 15.4632 5.20476 14.9542 5.58005 14.5789L14.07 6.09894" stroke="black" stroke-width="2" stroke-linecap="round" stroke-linejoin="round"/>
</svg>
