<svg width="20" height="18" viewBox="0 0 20 18" fill="none" xmlns="http://www.w3.org/2000/svg">
<path d="M7.81996 0.23284C7.65949 0.330687 7.57339 0.498984 7.57339 0.710335C7.57339 0.804268 7.61644 1.16043 7.66732 1.50877C7.80822 2.44028 7.86301 3.44223 7.83562 4.75339C7.80431 6.40114 7.65558 7.57531 7.31898 8.90212C7.08023 9.85319 6.84932 10.4638 6.36008 11.4501L5.92955 12.3189L5.33072 12.5146C3.05284 13.27 1.1272 14.409 0.387476 15.4422C0.0900196 15.8571 0.00391389 16.0919 0 16.4755C0 16.7612 0.0156556 16.8395 0.109589 17.0313C0.305284 17.4344 0.763209 17.8023 1.22896 17.9393C1.49902 18.0176 1.96869 18.0215 2.27006 17.9432C3.4638 17.634 4.8454 16.2094 6.29354 13.7945C6.61057 13.2661 6.62622 13.2465 6.79452 13.1957C7.18982 13.0822 8.17613 12.906 9.04892 12.7964C9.56164 12.7299 10.1761 12.6516 10.411 12.6164C10.6536 12.5851 11.272 12.546 11.82 12.5342L12.7984 12.5107L12.9706 12.7025C13.0685 12.8082 13.3933 13.1291 13.6947 13.4187C16.2896 15.8845 18.364 16.5968 19.5147 15.4148C19.6438 15.2857 19.7926 15.0782 19.8669 14.9217C19.9843 14.6908 20 14.6164 20 14.362C20 14.1272 19.9804 14.0254 19.8943 13.8415C19.7652 13.5636 19.4247 13.1996 19.0763 12.9687C18.0117 12.2602 15.8904 11.6849 13.7182 11.5088L13.2681 11.4735L12.9432 11.1252C11.3151 9.40701 10.1487 7.19174 9.35421 4.32677C9.03327 3.16435 8.86888 2.36983 8.74755 1.36787C8.64579 0.561608 8.61448 0.444192 8.45401 0.283722C8.34442 0.174133 8.29746 0.154562 8.13699 0.154562C8.01566 0.154562 7.89824 0.181959 7.81996 0.23284ZM9.0998 6.9256C9.7182 8.47942 10.5284 9.90407 11.4364 11.0234C11.6164 11.2465 11.7613 11.4305 11.7613 11.4383C11.7613 11.4461 11.5342 11.4657 11.2524 11.4775C10.9746 11.4931 10.4775 11.5401 10.1487 11.5831C9.81996 11.6262 9.26027 11.6966 8.90411 11.7397C8.54795 11.7827 8.05479 11.8532 7.80431 11.8962C7.55382 11.9393 7.33855 11.9745 7.3229 11.9745C7.31115 11.9745 7.36595 11.8375 7.45205 11.6692C8.09002 10.4011 8.55577 8.71034 8.77495 6.8708C8.81018 6.55769 8.8454 6.3072 8.84931 6.31112C8.85714 6.31503 8.96673 6.59292 9.0998 6.9256ZM15.8395 12.8904C17.4364 13.2348 18.6614 13.7827 18.908 14.2524C18.9589 14.3463 18.9589 14.3777 18.908 14.4677C18.5362 15.1839 17.4638 15.0078 16.0548 14.0058C15.5656 13.6575 14.4618 12.726 14.4618 12.6634C14.4618 12.6399 15.3894 12.7925 15.8395 12.8904ZM5.00978 13.8415C4.4501 14.7142 3.89432 15.4266 3.33072 15.9902C2.4501 16.8669 1.77691 17.1369 1.29941 16.8043C1.20939 16.7377 1.11155 16.6399 1.08023 16.5851C1.02544 16.4912 1.02935 16.4638 1.11546 16.272C1.35421 15.7553 2.2818 15.0352 3.51468 14.4129C3.92955 14.2015 4.97065 13.7436 5.04501 13.7397C5.06067 13.7358 5.04501 13.7827 5.00978 13.8415Z" fill="#9269AD"/>
</svg>
