<svg width="64" height="64" viewBox="0 0 64 64" fill="none" xmlns="http://www.w3.org/2000/svg">
<path d="M44.9652 12.9737L39.9548 2.48242H5.50979C2.4669 2.48242 0 4.94932 0 7.99222V43.7484C0 46.7914 2.4669 49.2582 5.50979 49.2582H49.7334C52.7764 49.2582 55.2432 46.7913 55.2432 43.7484V17.7697L44.9652 12.9737Z" fill="#D8D8D8"/>
<path d="M39.9531 2.48242V12.6242C39.9531 15.4663 42.2571 17.7703 45.0993 17.7703H55.241L39.9531 2.48242Z" fill="#CACAC8"/>
<path d="M4.05016 26.9682C4.05016 18.664 6.5307 9.55258 11.5203 2.48438H5.50979C2.4669 2.48425 0 4.95101 0 7.99404V43.7502C0 46.7932 2.46677 49.2601 5.50979 49.2601H15.9665C8.64193 43.7272 4.05016 35.7888 4.05016 26.9682V26.9682Z" fill="#CACAC8"/>
<path d="M7.59079 19.5887C8.12417 19.5887 8.55659 19.1563 8.55659 18.6229V14.6281C8.59071 14.6669 13.9289 20.7328 13.9404 20.7461L10.935 23.3912C10.5347 23.7435 10.4956 24.3539 10.8481 24.7543C11.2009 25.1553 11.8113 25.1931 12.2112 24.8412L15.2166 22.1961L17.8617 25.2015C18.2145 25.6025 18.8249 25.6404 19.2248 25.2884C19.6251 24.9361 19.6641 24.3257 19.3117 23.9254L16.6666 20.9199L19.672 18.2748C20.0723 17.9224 20.1114 17.3121 19.7589 16.9118C19.4066 16.5114 18.7963 16.4724 18.3958 16.8248L15.3904 19.4701C15.1092 19.1505 16.6811 20.9368 10.9555 14.4303C12.8554 14.1829 14.3248 12.6169 14.3248 10.7268C14.3248 8.66542 12.5774 6.98828 10.4295 6.98828H7.5944C7.59376 6.98828 7.59324 6.98828 7.5926 6.98828C7.59195 6.98828 7.59144 6.98828 7.59079 6.98828C7.05742 6.98828 6.625 7.4207 6.625 7.95408V18.6231C6.625 19.1563 7.05742 19.5887 7.59079 19.5887V19.5887ZM10.4295 8.91961C11.494 8.91961 12.3932 9.74711 12.3932 10.7266C12.3932 11.706 11.4939 12.5336 10.4295 12.5336C10.0024 12.5336 9.2105 12.5372 8.57423 12.5404C8.56432 10.708 8.56972 11.2029 8.56316 8.91961H10.4295Z" fill="#423E4F"/>
<path d="M7.59079 31.0351H42.2152C42.7486 31.0351 43.181 30.6027 43.181 30.0693C43.181 29.5358 42.7486 29.1035 42.2152 29.1035H7.59079C7.05742 29.1035 6.625 29.5358 6.625 30.0693C6.625 30.6027 7.05742 31.0351 7.59079 31.0351Z" fill="#423E4F"/>
<path d="M42.2152 35.0273H7.59079C7.05742 35.0273 6.625 35.4598 6.625 35.9931C6.625 36.5265 7.05742 36.9589 7.59079 36.9589H42.2152C42.7486 36.9589 43.181 36.5265 43.181 35.9931C43.181 35.4598 42.7486 35.0273 42.2152 35.0273Z" fill="#423E4F"/>
<path d="M19.0058 40.9512H7.59079C7.05742 40.9512 6.625 41.3836 6.625 41.917C6.625 42.4503 7.05742 42.8827 7.59079 42.8827H19.0058C19.5392 42.8827 19.9716 42.4503 19.9716 41.917C19.9716 41.3836 19.5392 40.9512 19.0058 40.9512Z" fill="#423E4F"/>
<path d="M56.2555 53.774L51.1069 58.9226C47.6446 62.3823 42.0399 62.3809 38.579 58.9226C35.1195 55.4631 35.1195 49.8542 38.579 46.3947L43.7276 41.2461L53.8631 43.6384L56.2555 53.774Z" fill="#FF889E"/>
<path d="M43.1798 54.5796C43.1798 50.1228 45.3259 45.7808 48.6465 42.4071L43.7277 41.2461L38.579 46.3945C35.1195 49.854 35.1195 55.463 38.579 58.9224C40.102 60.4443 42.0401 61.296 44.0282 61.4786C43.3956 59.4375 43.1798 57.1172 43.1798 54.5796V54.5796Z" fill="#FF748F"/>
<path d="M61.403 48.6277L56.2544 53.775L43.7266 41.2471L48.8751 36.0985C52.3346 32.639 57.9436 32.639 61.403 36.0985C64.8625 39.558 64.8625 45.1669 61.403 48.6277Z" fill="#59C2E7"/>
<path d="M61.3333 36.0277C57.8684 32.6401 52.3145 32.6622 48.8791 36.0976L43.7305 41.2462L46.9001 44.4158C50.3126 39.9623 55.6832 36.6737 61.3333 36.0277Z" fill="#34B5E1"/>
</svg>
