<svg width="16" height="16" viewBox="0 0 16 16" fill="none" xmlns="http://www.w3.org/2000/svg">
<path d="M7.92499 0.0749512C9.4924 0.0749512 11.0246 0.539743 12.3279 1.41055C13.6311 2.28136 14.6469 3.51909 15.2467 4.96719C15.8466 6.4153 16.0035 8.00875 15.6977 9.54605C15.3919 11.0834 14.6371 12.4954 13.5288 13.6038C12.4205 14.7121 11.0084 15.4669 9.4711 15.7727C7.9338 16.0785 6.34035 15.9215 4.89224 15.3217C3.44414 14.7219 2.20641 13.7061 1.3356 12.4028C0.464792 11.0996 0 9.56736 0 7.99994C0.00238206 5.89883 0.838112 3.88448 2.32382 2.39877C3.80953 0.913063 5.82388 0.0773332 7.92499 0.0749512ZM7.92499 14.65C9.24023 14.65 10.526 14.2599 11.6195 13.5292C12.7131 12.7985 13.5655 11.7599 14.0688 10.5448C14.5721 9.32967 14.7038 7.99258 14.4472 6.70261C14.1906 5.41263 13.5573 4.22772 12.6273 3.2977C11.6972 2.36768 10.5123 1.73431 9.22235 1.47772C7.93238 1.22113 6.59529 1.35282 5.38016 1.85614C4.16503 2.35946 3.12643 3.21183 2.39572 4.30542C1.66501 5.39901 1.27499 6.68469 1.27499 7.99994C1.27685 9.76306 1.97808 11.4534 3.22479 12.7002C4.47151 13.9469 6.16187 14.6481 7.92499 14.65Z" fill="#949494"/>
<path d="M4.07382 7.5469L6.9888 4.6319C7.0469 4.5685 7.11723 4.51754 7.19556 4.48205C7.27388 4.44657 7.35858 4.42732 7.44455 4.42544C7.53052 4.42357 7.61598 4.43912 7.69577 4.47116C7.77557 4.5032 7.84804 4.55107 7.90884 4.61188C7.96965 4.67268 8.01752 4.74515 8.04956 4.82495C8.0816 4.90474 8.09715 4.9902 8.09528 5.07617C8.0934 5.16214 8.07415 5.24681 8.03867 5.32513C8.00318 5.40346 7.95222 5.47379 7.88882 5.53189L6.06281 7.35791H11.3248C11.4895 7.36443 11.6453 7.43444 11.7595 7.55328C11.8737 7.67212 11.9376 7.83055 11.9376 7.99539C11.9376 8.16023 11.8737 8.31866 11.7595 8.4375C11.6453 8.55634 11.4895 8.62638 11.3248 8.6329H6.06281L7.8898 10.4599C7.99554 10.5818 8.05116 10.7393 8.04544 10.9005C8.03972 11.0618 7.97309 11.215 7.85898 11.3291C7.74486 11.4432 7.59173 11.5098 7.43045 11.5155C7.26917 11.5213 7.11172 11.4656 6.98981 11.3599L4.0748 8.44488C3.9556 8.32546 3.88867 8.16364 3.88867 7.9949C3.88867 7.82617 3.9556 7.66432 4.0748 7.54489L4.07382 7.5469Z" fill="#949494"/>
</svg>
