<svg width="24" height="27" viewBox="0 0 24 27" fill="none" xmlns="http://www.w3.org/2000/svg">
<path d="M11.9992 14.512H12.1722C12.888 14.527 13.5987 14.3877 14.2558 14.1035C14.9129 13.8193 15.501 13.3969 15.9802 12.8649C18.0592 10.5199 17.7142 6.50197 17.6802 6.11797C17.5452 3.23897 16.1803 1.86198 15.0603 1.21798C14.1718 0.72194 13.1718 0.459716 12.1542 0.455953H12.0622C11.0466 0.45333 10.0469 0.707929 9.15623 1.19597C8.02223 1.83897 6.63925 3.21596 6.50425 6.11696C6.46625 6.50096 6.12023 10.517 8.20423 12.864C8.6817 13.3959 9.26842 13.8184 9.92426 14.1027C10.5801 14.3869 11.2896 14.5262 12.0043 14.511L11.9992 14.512ZM7.94224 6.25295C7.94224 6.23695 7.94724 6.22095 7.94724 6.20995C8.12524 2.33695 10.8753 1.92095 12.0523 1.92095H12.1172C13.5762 1.95295 16.0552 2.54795 16.2222 6.20995C16.2211 6.22455 16.2231 6.23923 16.2282 6.25295C16.2332 6.29095 16.6112 9.96397 14.8942 11.898C14.5441 12.2834 14.1132 12.5869 13.6323 12.7867C13.1515 12.9865 12.6324 13.0778 12.1123 13.054H12.0582C11.5389 13.0775 11.0207 12.986 10.5408 12.786C10.0609 12.586 9.63115 12.2824 9.28223 11.897C7.57023 9.97396 7.93724 6.28497 7.94224 6.25197V6.25295Z" fill="#06103B"/>
<path d="M23.1859 21.177V21.161C23.1859 21.118 23.1798 21.074 23.1798 21.026C23.1478 19.956 23.0798 17.456 20.7328 16.656L20.6788 16.64C19.0857 16.2012 17.5725 15.5119 16.1958 14.598C16.1174 14.543 16.029 14.5041 15.9355 14.4833C15.8421 14.4625 15.7454 14.4604 15.6511 14.477C15.5568 14.4935 15.4667 14.5285 15.3859 14.5799C15.3051 14.6313 15.2353 14.6981 15.1803 14.7765C15.1254 14.8549 15.0864 14.9434 15.0656 15.0368C15.0449 15.1303 15.0427 15.2269 15.0593 15.3212C15.0758 15.4155 15.1108 15.5056 15.1622 15.5864C15.2136 15.6672 15.2804 15.7371 15.3588 15.792C16.8704 16.8041 18.536 17.5646 20.2908 18.044C21.5488 18.492 21.6908 19.837 21.7278 21.069C21.727 21.1141 21.7289 21.1592 21.7338 21.204C21.7437 21.7625 21.7059 22.3209 21.6208 22.873C18.6568 24.331 15.3975 25.0888 12.0943 25.088C8.79103 25.0871 5.53212 24.3276 2.56885 22.868C2.48097 22.3162 2.44314 21.7576 2.45584 21.199C2.45584 21.156 2.46084 21.113 2.46084 21.064C2.49884 19.833 2.63883 18.487 3.89783 18.039C5.6519 17.5575 7.31716 16.7972 8.82983 15.787C8.90823 15.7321 8.97506 15.6622 9.02646 15.5814C9.07786 15.5006 9.11282 15.4105 9.12939 15.3162C9.14597 15.2219 9.14382 15.1253 9.12304 15.0318C9.10227 14.9384 9.06329 14.8499 9.00833 14.7715C8.95337 14.6931 8.88351 14.6263 8.80273 14.5749C8.72196 14.5235 8.63186 14.4885 8.53757 14.472C8.44327 14.4554 8.34663 14.4575 8.25317 14.4783C8.15971 14.4991 8.07123 14.538 7.99283 14.593C6.61732 15.5097 5.10334 16.1991 3.50885 16.635C3.48685 16.64 3.47083 16.646 3.45483 16.651C1.11083 17.451 1.04084 19.957 1.00784 21.021C1.00894 21.0661 1.00727 21.1111 1.00284 21.156V21.172C0.972041 21.9968 1.06473 22.8216 1.27783 23.619C1.33184 23.76 1.43054 23.8794 1.55884 23.959C4.81462 25.6554 8.43164 26.5411 12.1028 26.5411C15.774 26.5411 19.3911 25.6554 22.6468 23.959C22.7737 23.8778 22.8719 23.7589 22.9278 23.619C23.1292 22.8213 23.2164 21.9991 23.1868 21.177H23.1859Z" fill="#06103B"/>
</svg>
