<svg width="44" height="44" viewBox="0 0 44 44" fill="none" xmlns="http://www.w3.org/2000/svg">
<path d="M21.9009 0.546875C17.6071 0.546875 13.4096 1.82014 9.83942 4.20567C6.26923 6.5912 3.48663 9.98183 1.84345 13.9488C0.200271 17.9158 -0.229587 22.281 0.608098 26.4923C1.44578 30.7036 3.51343 34.572 6.54963 37.6082C9.58582 40.6444 13.4541 42.712 17.6655 43.5497C21.8768 44.3874 26.2419 43.9575 30.2089 42.3143C34.1759 40.6711 37.5666 37.8885 39.9521 34.3183C42.3376 30.7481 43.6109 26.5507 43.6109 22.2569C43.6109 16.499 41.3236 10.977 37.2521 6.90559C33.1807 2.83417 27.6588 0.546875 21.9009 0.546875ZM21.9009 41.2539C18.1431 41.2539 14.4696 40.1395 11.345 38.0518C8.2205 35.9641 5.7853 32.9967 4.34723 29.5249C2.90917 26.0531 2.53282 22.2328 3.26593 18.5472C3.99905 14.8615 5.80869 11.476 8.46589 8.81885C11.1231 6.16165 14.5085 4.35207 18.1942 3.61895C21.8798 2.88584 25.7001 3.2621 29.1719 4.70016C32.6437 6.13823 35.611 8.57351 37.6988 11.698C39.7865 14.8226 40.9009 18.496 40.9009 22.2539C40.9009 27.293 38.8991 32.1257 35.3359 35.6889C31.7727 39.2521 26.9401 41.2539 21.9009 41.2539Z" fill="white"/>
<path d="M10.2721 22.0118C10.1491 21.9031 10.0492 21.7708 9.97819 21.6228C9.9072 21.4748 9.86659 21.314 9.8588 21.15C9.85101 20.986 9.87626 20.8222 9.9329 20.6681C9.98954 20.514 10.0765 20.3728 10.1886 20.2529C10.3008 20.133 10.4358 20.0368 10.5857 19.97C10.7357 19.9032 10.8975 19.8672 11.0617 19.864C11.2258 19.8608 11.3889 19.8906 11.5413 19.9515C11.6937 20.0125 11.8324 20.1034 11.9491 20.2188C12.3366 20.5795 12.8481 20.7769 13.3774 20.7702C13.9066 20.7635 14.413 20.5531 14.7912 20.1828C15.0066 19.99 15.2831 19.8792 15.5721 19.8701C15.861 19.8609 16.144 19.954 16.3711 20.1328C16.4264 20.1772 16.4779 20.226 16.5252 20.2788C16.7413 20.5221 16.8522 20.8411 16.8334 21.166C16.8147 21.4909 16.6678 21.7951 16.4251 22.0118C15.5953 22.8027 14.4929 23.2439 13.3466 23.2439C12.2003 23.2439 11.0979 22.8027 10.2681 22.0118H10.2721Z" fill="white"/>
<path d="M33.4748 20.2649C33.5821 20.3853 33.6647 20.5257 33.7178 20.678C33.7708 20.8303 33.7933 20.9916 33.784 21.1526C33.7748 21.3136 33.7338 21.4713 33.6636 21.6165C33.5934 21.7617 33.4953 21.8916 33.3749 21.9989C32.5451 22.7898 31.4427 23.231 30.2964 23.231C29.15 23.231 28.0477 22.7898 27.2179 21.9989C26.9906 21.774 26.8599 21.4694 26.8537 21.1498C26.8476 20.8301 26.9663 20.5206 27.1847 20.2871C27.4031 20.0536 27.7039 19.9145 28.0233 19.8994C28.3427 19.8842 28.6553 19.9942 28.8949 20.2059C29.2822 20.5668 29.7938 20.7644 30.3231 20.7577C30.8524 20.751 31.3587 20.5405 31.7368 20.1699C31.952 19.9767 32.2286 19.8657 32.5177 19.8566C32.8068 19.8474 33.0899 19.9407 33.3169 20.1199C33.3725 20.1638 33.424 20.2127 33.4708 20.2659L33.4748 20.2649Z" fill="white"/>
<path d="M31.6488 33.0489C31.717 33.1973 31.755 33.3579 31.7603 33.5211C31.7656 33.6844 31.7382 33.847 31.6797 33.9996C31.6213 34.1521 31.533 34.2914 31.42 34.4093C31.3069 34.5272 31.1714 34.6213 31.0215 34.6861C30.8716 34.751 30.7102 34.7852 30.5469 34.7868C30.3836 34.7884 30.2216 34.7574 30.0705 34.6955C29.9193 34.6336 29.782 34.5421 29.6667 34.4265C29.5513 34.3108 29.4603 34.1733 29.3988 34.0219C28.7545 32.6752 27.7423 31.5383 26.4793 30.7424C25.2162 29.9466 23.7538 29.5242 22.2609 29.5242C20.768 29.5242 19.3056 29.9466 18.0425 30.7424C16.7794 31.5383 15.7672 32.6752 15.1228 34.0219C15.0633 34.1735 14.9741 34.3117 14.8605 34.4284C14.7469 34.5451 14.6111 34.6379 14.4612 34.7016C14.3113 34.7652 14.1502 34.7982 13.9873 34.7988C13.8245 34.7994 13.6631 34.7676 13.5127 34.7051C13.3623 34.6426 13.2258 34.5507 13.1114 34.4348C12.9969 34.319 12.9067 34.1815 12.846 34.0303C12.7853 33.8792 12.7554 33.7175 12.758 33.5546C12.7605 33.3918 12.7955 33.2311 12.8609 33.0819C13.6901 31.2906 15.0139 29.7735 16.6763 28.7092C18.3387 27.6448 20.2707 27.0776 22.2447 27.0742C24.2186 27.0709 26.1525 27.6315 27.8185 28.6902C29.4846 29.7488 30.8135 31.2614 31.6488 33.0499V33.0489Z" fill="white"/>
</svg>
