<svg width="33" height="34" viewBox="0 0 33 34" fill="none" xmlns="http://www.w3.org/2000/svg">
<path d="M16.4997 0.678955C13.2718 0.678955 10.1162 1.63616 7.43224 3.42954C4.74827 5.22291 2.65643 7.77191 1.42114 10.7542C0.185838 13.7365 -0.137447 17.0181 0.492303 20.184C1.12205 23.35 2.67657 26.2581 4.9591 28.5406C7.24163 30.8232 10.1497 32.3776 13.3157 33.0074C16.4816 33.6371 19.7632 33.3139 22.7455 32.0786C25.7277 30.8433 28.2768 28.7514 30.0702 26.0674C31.8636 23.3834 32.8208 20.2279 32.8208 17C32.8208 12.6714 31.1012 8.52005 28.0404 5.45927C24.9796 2.39848 20.8283 0.678955 16.4997 0.678955V0.678955ZM16.4997 31.279C13.6752 31.279 10.9142 30.4414 8.56567 28.8722C6.21717 27.303 4.38667 25.0726 3.30578 22.4631C2.22488 19.8535 1.94212 16.9821 2.49316 14.2119C3.04419 11.4416 4.40437 8.897 6.4016 6.89976C8.39884 4.90253 10.9434 3.5424 13.7136 2.99136C16.4839 2.44032 19.3553 2.72314 21.9648 3.80403C24.5743 4.88493 26.8048 6.71536 28.374 9.06386C29.9432 11.4124 30.7808 14.1734 30.7808 16.998C30.7808 20.7855 29.2761 24.4179 26.5979 27.0961C23.9197 29.7744 20.2873 31.279 16.4997 31.279Z" fill="black"/>
<path d="M7.76048 16.8159C7.67029 16.7335 7.59736 16.6341 7.54588 16.5233C7.4944 16.4125 7.46548 16.2927 7.46068 16.1706C7.45587 16.0486 7.47531 15.9268 7.51793 15.8123C7.56054 15.6978 7.6254 15.593 7.70884 15.5038C7.79229 15.4146 7.89264 15.3428 8.00401 15.2927C8.11539 15.2425 8.23567 15.215 8.35777 15.2117C8.47987 15.2083 8.60137 15.2292 8.71531 15.2732C8.82926 15.3172 8.9334 15.3834 9.02159 15.4679C9.31286 15.7392 9.69743 15.8878 10.0954 15.8827C10.4934 15.8777 10.8742 15.7194 11.1586 15.4409C11.3206 15.2959 11.5285 15.2128 11.7458 15.206C11.9631 15.1992 12.1758 15.2693 12.3465 15.4039C12.3877 15.4371 12.4262 15.4735 12.4615 15.5129C12.6238 15.6951 12.7073 15.9341 12.6938 16.1777C12.6803 16.4213 12.5709 16.6497 12.3895 16.8129C11.7657 17.4077 10.937 17.7395 10.0751 17.7395C9.21316 17.7395 8.38427 17.4077 7.76048 16.8129V16.8159Z" fill="black"/>
<path d="M25.208 15.5019C25.3702 15.6841 25.4538 15.9231 25.4403 16.1667C25.4268 16.4104 25.3175 16.6387 25.1361 16.8019C24.5122 17.3964 23.6833 17.7281 22.8215 17.7281C21.9597 17.7281 21.131 17.3964 20.5071 16.8019C20.3317 16.6339 20.2296 16.4035 20.223 16.1607C20.2164 15.9179 20.3056 15.6823 20.4715 15.5049C20.6375 15.3275 20.8667 15.2227 21.1094 15.2132C21.352 15.2036 21.5887 15.2901 21.768 15.4539C22.0592 15.7251 22.4436 15.8737 22.8414 15.8686C23.2393 15.8636 23.6199 15.7054 23.904 15.4269C24.0658 15.2814 24.2737 15.1979 24.4911 15.1909C24.7085 15.1839 24.9213 15.2541 25.092 15.3889C25.1335 15.4217 25.172 15.4582 25.207 15.4979L25.208 15.5019Z" fill="black"/>
<path d="M23.8309 25.1129C23.928 25.3371 23.9321 25.5907 23.8422 25.8179C23.7522 26.0451 23.5757 26.2273 23.3514 26.3244C23.1272 26.4215 22.8736 26.4255 22.6464 26.3356C22.4192 26.2456 22.2371 26.0691 22.14 25.8449C21.6555 24.8326 20.8946 23.9781 19.9451 23.3799C18.9956 22.7817 17.8962 22.4643 16.7739 22.4643C15.6517 22.4643 14.5524 22.7817 13.6029 23.3799C12.6534 23.9781 11.8925 24.8326 11.408 25.8449C11.3647 25.9609 11.2984 26.0669 11.2133 26.1567C11.1281 26.2465 11.0258 26.3183 10.9122 26.3676C10.7987 26.4169 10.6764 26.4429 10.5526 26.4439C10.4288 26.4449 10.3061 26.421 10.1918 26.3735C10.0775 26.326 9.97397 26.256 9.88733 26.1676C9.80069 26.0792 9.73267 25.9743 9.6875 25.859C9.64234 25.7438 9.62089 25.6206 9.62439 25.4969C9.6279 25.3731 9.65639 25.2514 9.70801 25.1389C10.3314 23.7922 11.3264 22.6516 12.5762 21.8515C13.8259 21.0513 15.2784 20.6248 16.7623 20.6223C18.2463 20.6198 19.7 21.0413 20.9525 21.8372C22.205 22.6331 23.204 23.7703 23.8319 25.1149L23.8309 25.1129Z" fill="black"/>
</svg>
