<svg width="50" height="50" viewBox="0 0 50 50" fill="none" xmlns="http://www.w3.org/2000/svg">
<path d="M33 19.6667C35.2091 19.6667 37 17.8758 37 15.6667C37 13.4575 35.2091 11.6667 33 11.6667C30.7909 11.6667 29 13.4575 29 15.6667C29 17.8758 30.7909 19.6667 33 19.6667Z" stroke="#9269AD" stroke-width="2" stroke-linecap="round" stroke-linejoin="round"/>
<path d="M17 29C19.2091 29 21 27.2091 21 25C21 22.7909 19.2091 21 17 21C14.7909 21 13 22.7909 13 25C13 27.2091 14.7909 29 17 29Z" stroke="#9269AD" stroke-width="2" stroke-linecap="round" stroke-linejoin="round"/>
<path d="M33 38.3333C35.2091 38.3333 37 36.5425 37 34.3333C37 32.1242 35.2091 30.3333 33 30.3333C30.7909 30.3333 29 32.1242 29 34.3333C29 36.5425 30.7909 38.3333 33 38.3333Z" stroke="#9269AD" stroke-width="2" stroke-linecap="round" stroke-linejoin="round"/>
<path d="M20.4534 27.0133L29.56 32.32" stroke="#9269AD" stroke-width="2" stroke-linecap="round" stroke-linejoin="round"/>
<path d="M29.5467 17.68L20.4534 22.9867" stroke="#9269AD" stroke-width="2" stroke-linecap="round" stroke-linejoin="round"/>
<rect width="50" height="50" rx="5" fill="#C4C4C4" fill-opacity="0.1"/>
</svg>
