<svg width="16" height="16" viewBox="0 0 16 16" fill="none" xmlns="http://www.w3.org/2000/svg">
<path d="M5.24492 10.524C5.97515 11.256 6.96503 11.6697 7.99892 11.675C8.5116 11.6771 9.01948 11.5763 9.49252 11.3786C9.96556 11.1809 10.3941 10.8903 10.7529 10.524C11.4848 9.79381 11.8985 8.80394 11.9039 7.77005C11.9059 7.25736 11.8051 6.74948 11.6074 6.27644C11.4097 5.80341 11.1192 5.37481 10.7529 5.01604C10.0231 4.28399 9.03361 3.86994 7.99992 3.86404C7.48724 3.86202 6.97936 3.96284 6.50632 4.16054C6.03328 4.35824 5.60468 4.6488 5.24591 5.01504C4.88125 5.37512 4.59172 5.80401 4.3941 6.27685C4.19649 6.7497 4.09473 7.25707 4.09473 7.76955C4.09473 8.28202 4.19649 8.7894 4.3941 9.26224C4.59172 9.73508 4.88125 10.164 5.24591 10.524H5.24492Z" fill="#FFD814"/>
<path d="M7.99985 2.65199C8.14067 2.64943 8.27501 2.59234 8.3746 2.49274C8.4742 2.39315 8.53128 2.25881 8.53384 2.11799V0.534988C8.53384 0.39323 8.47753 0.257282 8.37729 0.157043C8.27705 0.0568053 8.1411 0.000488281 7.99934 0.000488281C7.85759 0.000488281 7.72164 0.0568053 7.6214 0.157043C7.52116 0.257282 7.46484 0.39323 7.46484 0.534988V2.11799C7.46742 2.25898 7.52464 2.39347 7.62445 2.49309C7.72426 2.59271 7.85885 2.64968 7.99985 2.65199Z" fill="#FFD814"/>
<path d="M12.3781 4.15292L13.5091 3.02191C13.6073 2.92378 13.6624 2.79069 13.6624 2.65192C13.6624 2.51314 13.6073 2.38005 13.5091 2.28192C13.411 2.18379 13.2779 2.12866 13.1391 2.12866C13.0003 2.12866 12.8672 2.18379 12.7691 2.28192L11.6381 3.41292C11.54 3.51105 11.4849 3.64414 11.4849 3.78291C11.4849 3.92169 11.54 4.05479 11.6381 4.15292C11.7363 4.25105 11.8693 4.30618 12.0081 4.30618C12.1469 4.30618 12.28 4.25105 12.3781 4.15292Z" fill="#FFD814"/>
<path d="M13.1182 7.76987C13.1207 7.91069 13.1778 8.04503 13.2774 8.14462C13.377 8.24422 13.5113 8.3013 13.6522 8.30386H15.2352C15.3769 8.30386 15.5129 8.24755 15.6131 8.14731C15.7133 8.04707 15.7697 7.91112 15.7697 7.76936C15.7697 7.62761 15.7133 7.49166 15.6131 7.39142C15.5129 7.29118 15.3769 7.23486 15.2352 7.23486H13.6522C13.5112 7.23744 13.3767 7.29466 13.2771 7.39447C13.1774 7.49428 13.1205 7.62887 13.1182 7.76987Z" fill="#FFD814"/>
<path d="M11.618 11.3881C11.5692 11.4365 11.5304 11.4941 11.5039 11.5576C11.4775 11.6212 11.4639 11.6893 11.4639 11.7581C11.4639 11.8269 11.4775 11.895 11.5039 11.9585C11.5304 12.022 11.5692 12.0796 11.618 12.1281L12.7491 13.2591C12.8472 13.3572 12.9803 13.4123 13.119 13.4123C13.2578 13.4123 13.3909 13.3572 13.489 13.2591C13.5872 13.1609 13.6423 13.0278 13.6423 12.8891C13.6423 12.7503 13.5872 12.6172 13.489 12.5191L12.3581 11.3881C12.3096 11.3392 12.252 11.3004 12.1885 11.274C12.125 11.2475 12.0569 11.2339 11.9881 11.2339C11.9193 11.2339 11.8511 11.2475 11.7876 11.274C11.7241 11.3004 11.6665 11.3392 11.618 11.3881Z" fill="#FFD814"/>
<path d="M7.46582 13.422V15.005C7.46582 15.1467 7.52212 15.2827 7.62236 15.3829C7.7226 15.4831 7.85856 15.5395 8.00032 15.5395C8.14208 15.5395 8.27803 15.4831 8.37827 15.3829C8.4785 15.2827 8.53482 15.1467 8.53482 15.005V13.422C8.53482 13.2802 8.4785 13.1442 8.37827 13.044C8.27803 12.9438 8.14208 12.8875 8.00032 12.8875C7.85856 12.8875 7.7226 12.9438 7.62236 13.044C7.52212 13.1442 7.46582 13.2802 7.46582 13.422Z" fill="#FFD814"/>
<path d="M3.62216 11.3879L2.49115 12.5189C2.39302 12.617 2.33789 12.7501 2.33789 12.8889C2.33789 13.0277 2.39302 13.1608 2.49115 13.2589C2.58928 13.357 2.72238 13.4121 2.86116 13.4121C2.99994 13.4121 3.13303 13.357 3.23116 13.2589L4.36215 12.1279C4.46028 12.0298 4.51541 11.8967 4.51541 11.7579C4.51541 11.6191 4.46028 11.486 4.36215 11.3879C4.26402 11.2897 4.13093 11.2346 3.99216 11.2346C3.85338 11.2346 3.72029 11.2897 3.62216 11.3879Z" fill="#FFD814"/>
<path d="M0.763992 8.30508H2.34699C2.48875 8.30508 2.6247 8.24877 2.72494 8.14853C2.82518 8.04829 2.88149 7.91234 2.88149 7.77058C2.88149 7.62883 2.82518 7.49286 2.72494 7.39262C2.6247 7.29239 2.48875 7.23608 2.34699 7.23608H0.763992C0.622234 7.23608 0.486286 7.29239 0.386047 7.39262C0.285809 7.49286 0.229492 7.62883 0.229492 7.77058C0.229492 7.91234 0.285809 8.04829 0.386047 8.14853C0.486286 8.24877 0.622234 8.30508 0.763992 8.30508Z" fill="#FFD814"/>
<path d="M3.62216 4.15292C3.72029 4.25105 3.85338 4.30618 3.99216 4.30618C4.13093 4.30618 4.26402 4.25105 4.36215 4.15292C4.46028 4.05479 4.51541 3.92169 4.51541 3.78291C4.51541 3.64414 4.46028 3.51105 4.36215 3.41292L3.23116 2.28192C3.13303 2.18379 2.99994 2.12866 2.86116 2.12866C2.72238 2.12866 2.58928 2.18379 2.49115 2.28192C2.39302 2.38005 2.33789 2.51314 2.33789 2.65192C2.33789 2.79069 2.39302 2.92378 2.49115 3.02191L3.62216 4.15292Z" fill="#FFD814"/>
</svg>
