<svg width="20" height="20" viewBox="0 0 20 20" fill="none" xmlns="http://www.w3.org/2000/svg">
<path d="M2.70312 0.0585976C2.53516 0.109379 2.30469 0.261723 2.17578 0.41016C2.05859 0.542973 1.91406 0.871098 1.91406 1.01563C1.91406 1.08985 1.89844 1.17188 1.88281 1.19532C1.86719 1.22266 1.66797 1.2461 1.38281 1.25782C0.988281 1.27344 0.875 1.29297 0.695312 1.375C0.433594 1.4961 0.214844 1.71094 0.101562 1.94922L0.0195312 2.12891V10V17.8711L0.101562 18.0508C0.214844 18.2891 0.433594 18.5039 0.695312 18.625C0.875 18.707 0.988281 18.7266 1.38281 18.7422C1.66797 18.7539 1.86719 18.7773 1.88281 18.8047C1.89844 18.8281 1.91406 18.9102 1.91406 18.9844C1.91797 19.3008 2.22266 19.7188 2.57422 19.8906L2.75391 19.9805L9.70703 19.9922C17.3984 20 16.8828 20.0195 17.2383 19.7461C17.3633 19.6484 17.4531 19.5313 17.5469 19.3477L17.6758 19.082V17.2148V15.3438L17.5664 15.25C17.4336 15.1367 17.3047 15.1289 17.1836 15.2305L17.0898 15.3047L17.0703 17.1563L17.0508 19.0039L16.957 19.1367C16.7734 19.3906 17.2734 19.375 9.78125 19.375C3.52344 19.375 2.94922 19.3711 2.82422 19.3125C2.53516 19.1719 2.5625 19.832 2.53906 12.1445C2.51953 5.55469 2.51562 5.23829 2.44922 5.16407C2.28516 4.98047 1.98438 5.0586 1.91797 5.30079C1.88672 5.40235 1.875 7.42579 1.875 11.7656V18.0859H1.4375C0.929688 18.0859 0.777344 18.0273 0.679688 17.793C0.597656 17.5898 0.597656 2.41016 0.679688 2.20704C0.777344 1.97266 0.929688 1.91407 1.43359 1.91407H1.87109L1.88281 3.07032L1.89453 4.22657L2.00391 4.32032C2.19141 4.48047 2.41406 4.42579 2.5 4.20313C2.52344 4.13672 2.53906 3.52344 2.53906 2.54688C2.53906 1.09766 2.54297 0.988285 2.61328 0.875004C2.77734 0.605473 2.21484 0.625004 9.78125 0.625004C17.2734 0.625004 16.7734 0.609379 16.957 0.863285L17.0508 0.996098L17.0625 5.92579L17.0703 10.8555L15.7773 12.5859C15.0664 13.5391 14.4688 14.332 14.4531 14.3516C14.4336 14.3672 14.1836 14.0664 13.8906 13.6797C13.6016 13.293 13.3047 12.9297 13.2344 12.8789C12.9609 12.6719 12.5742 12.5938 12.2422 12.6797C11.5273 12.8633 11.1641 13.6563 11.5 14.3008C11.6367 14.5664 13.5703 17.125 13.707 17.2227C13.7695 17.2656 13.9062 17.3398 14.0078 17.3867C14.3672 17.5391 14.8867 17.4492 15.1914 17.1758C15.3359 17.043 19.8477 11.0195 19.9062 10.875C20.1172 10.3672 19.918 9.73047 19.4531 9.44532C18.9258 9.11719 18.2891 9.25391 17.8828 9.78125L17.7148 10L17.6953 5.45704L17.6758 0.917973L17.5469 0.652348C17.4531 0.468754 17.3633 0.351566 17.2383 0.25391C16.8828 -0.0195274 17.3984 3.8147e-06 9.76953 0.00391006C4.12891 0.00391006 2.83984 0.0156288 2.70312 0.0585976ZM19.1406 9.9961C19.1953 10.0313 19.2695 10.125 19.3086 10.1992C19.4609 10.4883 19.5312 10.3789 17.0938 13.625C15.8594 15.2773 14.8008 16.6641 14.75 16.7148C14.6211 16.8359 14.3516 16.8672 14.1836 16.7813C14.0977 16.7344 13.75 16.3047 13.0625 15.3828C12.082 14.0781 11.9922 13.9414 11.9922 13.7813C11.9922 13.6445 12.1172 13.4297 12.2422 13.3555C12.4141 13.25 12.7031 13.2578 12.832 13.3672C12.8867 13.418 13.2188 13.8359 13.5664 14.2969C14.2461 15.1992 14.3398 15.2852 14.5352 15.1914C14.6094 15.1563 15.2695 14.3008 16.4883 12.6758C17.5 11.3203 18.375 10.1641 18.4336 10.1016C18.6367 9.87891 18.918 9.83594 19.1406 9.9961Z" fill="#9269AD"/>
<path d="M5.01948 3.83594C4.82027 3.94922 4.78511 4.16406 4.94136 4.31641L5.03511 4.41406H9.78511H14.5351L14.6289 4.31641C14.6914 4.25781 14.7265 4.17578 14.7265 4.10156C14.7265 4.02734 14.6914 3.94531 14.6289 3.88672L14.5351 3.78906H9.81636C6.3398 3.79297 5.07808 3.80469 5.01948 3.83594Z" fill="#9269AD"/>
<path d="M7.31262 5.53125C7.26184 5.56641 7.20715 5.63672 7.18762 5.6875C7.14465 5.80078 7.20715 6.00391 7.30481 6.05469C7.35168 6.07812 8.297 6.09375 9.80481 6.09375H12.2306L12.3243 5.99609C12.4767 5.84766 12.4298 5.59766 12.2384 5.51172C12.172 5.48047 11.4298 5.46875 9.77356 5.46875C7.66028 5.46875 7.39075 5.47656 7.31262 5.53125Z" fill="#9269AD"/>
<path d="M4.94131 8.10547C4.78506 8.26172 4.82412 8.48047 5.02725 8.58594C5.08975 8.62109 6.01162 8.63281 8.55069 8.63281H11.9882L12.0897 8.54297C12.2265 8.42969 12.2343 8.23828 12.1093 8.10547L12.0194 8.00781H8.52725H5.03506L4.94131 8.10547Z" fill="#9269AD"/>
<path d="M13.8203 8.0625C13.7187 8.13672 13.6679 8.30469 13.7109 8.41406C13.7734 8.58203 13.8945 8.63281 14.2304 8.63281C14.5 8.63281 14.5468 8.62109 14.6289 8.53516C14.6914 8.47656 14.7265 8.39453 14.7265 8.32031C14.7265 8.24609 14.6914 8.16406 14.6289 8.10547C14.5429 8.01562 14.5039 8.00781 14.2109 8.00781C14.0078 8.01172 13.8632 8.02734 13.8203 8.0625Z" fill="#9269AD"/>
<path d="M4.94531 9.78906C4.88672 9.85156 4.84375 9.9375 4.84375 10C4.84375 10.0625 4.88672 10.1484 4.94531 10.2109L5.05078 10.3125H8.51562C11.9648 10.3125 11.9805 10.3125 12.0859 10.2305C12.2305 10.1172 12.2305 9.88281 12.0859 9.76953C11.9805 9.6875 11.9648 9.6875 8.51562 9.6875H5.05078L4.94531 9.78906Z" fill="#9269AD"/>
<path d="M13.8047 9.77734C13.7266 9.84375 13.6992 9.90625 13.6992 10C13.6992 10.0938 13.7266 10.1562 13.8047 10.2227C13.8984 10.3008 13.9531 10.3125 14.2227 10.3125C14.5039 10.3125 14.543 10.3008 14.6289 10.2148C14.6914 10.1562 14.7266 10.0742 14.7266 10C14.7266 9.92578 14.6914 9.84375 14.6289 9.78516C14.543 9.69922 14.5039 9.6875 14.2227 9.6875C13.9531 9.6875 13.8984 9.69922 13.8047 9.77734Z" fill="#9269AD"/>
<path d="M5.08984 14.3242C4.97656 14.3476 4.84375 14.5156 4.84375 14.6328C4.84375 14.6797 4.88672 14.7734 4.9375 14.832L5.03125 14.9414H7.47266C10.1016 14.9414 10 14.9492 10.082 14.7382C10.1016 14.6875 10.0977 14.6015 10.0703 14.5273C9.98828 14.2929 10.0078 14.2968 7.47266 14.3007C6.21094 14.3047 5.13672 14.3164 5.08984 14.3242Z" fill="#9269AD"/>
<path d="M4.94141 16.1133C4.81641 16.2344 4.81641 16.3711 4.93751 16.5117L5.03126 16.6211L5.92188 16.6328C6.41407 16.6406 6.85157 16.6367 6.90235 16.6211C7.13672 16.5625 7.22657 16.2617 7.0586 16.1016C6.96876 16.0195 6.94141 16.0156 6.00001 16.0156H5.03516L4.94141 16.1133Z" fill="#9269AD"/>
</svg>
