<svg width="26" height="27" viewBox="0 0 26 27" fill="none" xmlns="http://www.w3.org/2000/svg">
<path d="M25.3308 5.25891L21.7398 1.66791C21.3112 1.23932 20.7299 0.998535 20.1238 0.998535C19.5177 0.998535 18.9364 1.23932 18.5078 1.66791C18.0792 2.0965 17.8384 2.67779 17.8384 3.28391C17.8384 3.89002 18.0792 4.47131 18.5078 4.8999L18.6878 5.0799L16.8878 6.87991L15.9878 5.97989C15.6067 5.59869 15.1031 5.36451 14.566 5.3187C14.029 5.27288 13.493 5.41841 13.0528 5.72955C12.6127 6.0407 12.2967 6.49742 12.1608 7.01901C12.0248 7.5406 12.0776 8.09347 12.3098 8.5799L4.49682 16.3929C4.16321 16.7273 3.94123 17.1566 3.86138 17.6222C3.78152 18.0877 3.84772 18.5665 4.05083 18.9929L3.06078 19.9829C2.72773 20.3165 2.5407 20.7685 2.5407 21.2399C2.5407 21.7113 2.72773 22.1633 3.06078 22.4969L3.2398 22.6769L0.214833 25.7019C0.0799833 25.8463 0.00649724 26.0375 0.00987726 26.235C0.0132573 26.4326 0.0931885 26.6211 0.2329 26.7608C0.372611 26.9005 0.561165 26.9805 0.758718 26.9839C0.95627 26.9872 1.14739 26.9137 1.2918 26.7789L4.31682 23.7529L4.49682 23.9329C4.83033 24.2656 5.28217 24.4525 5.75329 24.4525C6.2244 24.4525 6.67631 24.2656 7.00982 23.9329L7.99981 22.9429C8.42625 23.1459 8.90505 23.212 9.37053 23.1321C9.83601 23.0523 10.2654 22.8304 10.5998 22.4969L18.4128 14.6839C18.8993 14.9161 19.4521 14.9689 19.9737 14.8329C20.4953 14.697 20.952 14.381 21.2632 13.9409C21.5743 13.5007 21.7198 12.9647 21.674 12.4276C21.6282 11.8906 21.394 11.387 21.0128 11.0059L20.1128 10.1059L21.9128 8.30591L22.0928 8.4859C22.5214 8.91449 23.1027 9.15527 23.7088 9.15527C24.3149 9.15527 24.8962 8.91449 25.3248 8.4859C25.7534 8.05731 25.9942 7.47602 25.9942 6.8699C25.9942 6.26379 25.7534 5.6825 25.3248 5.25391L25.3308 5.25891ZM5.94079 22.8539C5.89316 22.9015 5.82859 22.9282 5.76128 22.9282C5.69397 22.9282 5.6294 22.9015 5.58178 22.8539L4.1458 21.4179C4.09848 21.3702 4.07195 21.3056 4.07195 21.2384C4.07195 21.1712 4.09848 21.1067 4.1458 21.0589L5.04583 20.1589L6.84581 21.9589L5.94079 22.8539ZM9.53179 21.4179C9.38878 21.5604 9.1952 21.6404 8.99334 21.6404C8.79148 21.6404 8.59783 21.5604 8.45482 21.4179L5.58178 18.5449C5.43931 18.4019 5.35936 18.2083 5.35936 18.0064C5.35936 17.8045 5.43931 17.6109 5.58178 17.4679L6.24981 16.7999L7.14983 17.6999C7.29424 17.8347 7.48536 17.9082 7.68291 17.9048C7.88046 17.9015 8.06896 17.8215 8.20867 17.6818C8.34838 17.5421 8.42837 17.3536 8.43175 17.156C8.43513 16.9585 8.36165 16.7673 8.2268 16.6229L7.32683 15.7229L8.4038 14.6459L9.30382 15.5459C9.37362 15.6206 9.4577 15.6806 9.55114 15.7221C9.64458 15.7637 9.74546 15.786 9.84771 15.7877C9.94995 15.7895 10.0515 15.7706 10.1463 15.7323C10.2411 15.694 10.3272 15.6369 10.3995 15.5646C10.4718 15.4923 10.5289 15.4062 10.5672 15.3114C10.6055 15.2166 10.6244 15.115 10.6226 15.0128C10.6209 14.9105 10.5985 14.8097 10.557 14.7162C10.5155 14.6228 10.4555 14.5387 10.3808 14.4689L9.48082 13.5689L10.5578 12.4919L14.5078 16.4419L9.53179 21.4179ZM15.5858 15.3639L11.6358 11.4139L13.3018 9.74789L17.2518 13.6979L15.5858 15.3639ZM19.9448 13.1639C19.8019 13.3066 19.6082 13.3868 19.4063 13.3868C19.2044 13.3868 19.0107 13.3066 18.8678 13.1639L13.8408 8.1369C13.7661 8.06711 13.7061 7.98297 13.6646 7.88953C13.6231 7.79608 13.6007 7.69526 13.599 7.59302C13.5972 7.49077 13.6161 7.38921 13.6544 7.2944C13.6927 7.19959 13.7498 7.11348 13.8221 7.04117C13.8944 6.96886 13.9805 6.91183 14.0753 6.8735C14.1701 6.83518 14.2716 6.81634 14.3739 6.81808C14.4761 6.81983 14.577 6.84215 14.6705 6.8837C14.7639 6.92524 14.848 6.98517 14.9178 7.05991L19.9448 12.0869C20.0875 12.2298 20.1677 12.4235 20.1677 12.6254C20.1677 12.8273 20.0875 13.021 19.9448 13.1639ZM19.0448 9.03491L17.9678 7.95792L19.7678 6.1579L20.8448 7.23489L19.0448 9.03491ZM24.2508 7.41891C24.1078 7.56138 23.9142 7.64136 23.7123 7.64136C23.5105 7.64136 23.3168 7.56138 23.1738 7.41891L19.5828 3.82791C19.448 3.6835 19.3745 3.49235 19.3779 3.2948C19.3812 3.09725 19.4612 2.90872 19.6009 2.76901C19.7407 2.6293 19.9291 2.54934 20.1267 2.54596C20.3243 2.54258 20.5154 2.61607 20.6598 2.75092L24.2508 6.34189C24.3932 6.48489 24.4733 6.67854 24.4733 6.8804C24.4733 7.08226 24.3932 7.27591 24.2508 7.41891Z" fill="#06103B"/>
</svg>
