<svg width="20" height="20" viewBox="0 0 20 20" fill="none" xmlns="http://www.w3.org/2000/svg">
<path d="M19.486 3.27563L16.7239 0.513637C16.3918 0.196666 15.9489 0.0221558 15.4899 0.0274613C15.0308 0.0327668 14.592 0.217456 14.2673 0.542018C13.9426 0.86658 13.7577 1.30528 13.7523 1.76434C13.7468 2.2234 13.9211 2.66639 14.2379 2.99862L14.3759 3.13662L12.9949 4.51763L12.304 3.82763C12.0106 3.53504 11.6234 3.35544 11.2106 3.32052C10.7977 3.2856 10.3858 3.39758 10.0475 3.63674C9.70925 3.87591 9.46627 4.22687 9.36151 4.62771C9.25675 5.02855 9.2969 5.45352 9.47491 5.82763L3.46497 11.8376C3.20836 12.0948 3.03761 12.4251 2.9762 12.7832C2.91478 13.1413 2.9657 13.5096 3.12195 13.8376L2.35992 14.5996C2.10382 14.8563 1.96002 15.204 1.96002 15.5666C1.96002 15.9292 2.10382 16.277 2.35992 16.5336L2.49792 16.6716L0.170959 18.9986C0.116527 19.0531 0.0733432 19.1177 0.0438843 19.1888C0.0144254 19.2599 -0.000732422 19.3361 -0.000732422 19.4131C-0.000732422 19.4901 0.0144254 19.5663 0.0438843 19.6374C0.0733432 19.7086 0.116527 19.7732 0.170959 19.8276C0.225392 19.8821 0.289964 19.9252 0.361084 19.9547C0.432204 19.9842 0.508469 19.9993 0.585449 19.9993C0.662429 19.9993 0.738633 19.9842 0.809753 19.9547C0.880873 19.9252 0.945506 19.8821 0.999939 19.8276L3.32697 17.5006L3.46497 17.6386C3.72158 17.8944 4.06912 18.0381 4.43146 18.0381C4.79379 18.0381 5.14134 17.8944 5.39795 17.6386L6.15991 16.8766C6.48791 17.0329 6.85627 17.0838 7.21436 17.0224C7.57244 16.961 7.90272 16.7902 8.15991 16.5336L14.1699 10.5236C14.544 10.7016 14.969 10.7418 15.3699 10.637C15.7707 10.5323 16.1216 10.2893 16.3608 9.95101C16.5999 9.61272 16.712 9.20082 16.6771 8.78799C16.6421 8.37516 16.4625 7.98795 16.1699 7.69464L15.4789 7.00363L16.8599 5.62261L16.9979 5.76062C17.329 6.08362 17.7739 6.26315 18.2365 6.26031C18.699 6.25747 19.1417 6.07249 19.4688 5.74545C19.7958 5.4184 19.9808 4.97565 19.9836 4.51315C19.9865 4.05065 19.807 3.60566 19.4839 3.27462L19.486 3.27563ZM4.56995 16.8106C4.53275 16.8461 4.48333 16.8659 4.43195 16.8659C4.38056 16.8659 4.33114 16.8461 4.29395 16.8106L3.19391 15.7106C3.15845 15.6734 3.13867 15.624 3.13867 15.5726C3.13867 15.5212 3.15845 15.4718 3.19391 15.4346L3.88495 14.7436L5.26593 16.1246L4.56995 16.8106ZM7.33191 15.7106C7.22187 15.8204 7.07282 15.882 6.91742 15.882C6.76202 15.882 6.61297 15.8204 6.50293 15.7106L4.29297 13.5006C4.18323 13.3906 4.12158 13.2415 4.12158 13.0861C4.12158 12.9307 4.18323 12.7817 4.29297 12.6716L4.80695 12.1576L5.49792 12.8476C5.60786 12.9576 5.75695 13.0193 5.91241 13.0193C6.06788 13.0193 6.21703 12.9576 6.32697 12.8476C6.4369 12.7377 6.49866 12.5886 6.49866 12.4331C6.49866 12.2777 6.4369 12.1285 6.32697 12.0186L5.63696 11.3286L6.46497 10.4996L7.15594 11.1906C7.26588 11.3005 7.41497 11.3623 7.57043 11.3623C7.7259 11.3623 7.87499 11.3005 7.98492 11.1906C8.09486 11.0807 8.15662 10.9316 8.15662 10.7761C8.15662 10.6207 8.09486 10.4716 7.98492 10.3616L7.29395 9.67062L8.12292 8.84262L11.1609 11.8806L7.33191 15.7106ZM11.989 11.0536L8.95093 8.01461L10.2329 6.73361L13.2709 9.77163L11.989 11.0536ZM15.3419 9.35363C15.2875 9.40809 15.2229 9.45127 15.1518 9.48074C15.0807 9.51021 15.0044 9.52539 14.9274 9.52539C14.8504 9.52539 14.7742 9.51021 14.7031 9.48074C14.632 9.45127 14.5674 9.40809 14.5129 9.35363L10.6459 5.48663C10.536 5.3767 10.4742 5.22758 10.4742 5.07211C10.4742 4.91664 10.536 4.76755 10.6459 4.65762C10.7559 4.54769 10.905 4.48593 11.0604 4.48593C11.2159 4.48593 11.365 4.54769 11.4749 4.65762L15.3419 8.52462C15.3964 8.57904 15.4396 8.64366 15.4691 8.71478C15.4985 8.7859 15.5137 8.86213 15.5137 8.93911C15.5137 9.0161 15.4985 9.09236 15.4691 9.16348C15.4396 9.2346 15.3964 9.29921 15.3419 9.35363ZM14.6519 6.17761L13.8229 5.34863L15.2039 3.96762L16.033 4.79663L14.6519 6.17761ZM18.6519 4.93463C18.5419 5.04436 18.3928 5.10598 18.2374 5.10598C18.082 5.10598 17.933 5.04436 17.8229 4.93463L15.0609 2.17263C14.951 2.0627 14.8892 1.91358 14.8892 1.75811C14.8892 1.60265 14.951 1.45356 15.0609 1.34362C15.1708 1.23369 15.32 1.17193 15.4755 1.17193C15.6309 1.17193 15.78 1.23369 15.89 1.34362L18.6519 4.10562C18.7617 4.21565 18.8233 4.36473 18.8233 4.52014C18.8233 4.67554 18.7617 4.82459 18.6519 4.93463Z" fill="#B9B81D"/>
</svg>
