<svg width="24" height="24" viewBox="0 0 24 24" fill="none" xmlns="http://www.w3.org/2000/svg">
<path d="M22.891 1.50699C22.5688 1.04266 22.1389 0.66327 21.6382 0.401245C21.1374 0.13922 20.5807 0.00238037 20.0155 0.00238037C19.4503 0.00238037 18.8936 0.13922 18.3928 0.401245C17.8921 0.66327 17.4622 1.04266 17.14 1.50699C16.4192 2.49957 16.031 3.69482 16.031 4.92151C16.031 6.1482 16.4192 7.34341 17.14 8.336C17.6716 9.05548 18.4413 9.56294 19.312 9.76801V16.687C19.312 18.2534 18.6897 19.7556 17.5822 20.8632C16.4746 21.9707 14.9724 22.593 13.406 22.593C11.8396 22.593 10.3374 21.9707 9.2298 20.8632C8.12221 19.7556 7.5 18.2534 7.5 16.687V13.593H12.891C12.9829 13.593 13.0739 13.5749 13.1589 13.5397C13.2438 13.5045 13.321 13.453 13.386 13.388C13.451 13.323 13.5025 13.2458 13.5377 13.1609C13.5729 13.076 13.591 12.9849 13.591 12.893V0.700012C13.591 0.608087 13.5729 0.517057 13.5377 0.432129C13.5025 0.347201 13.451 0.270018 13.386 0.205017C13.321 0.140016 13.2438 0.088462 13.1589 0.0532837C13.0739 0.0181054 12.9829 0 12.891 0H0.700012C0.514361 0 0.336293 0.0737416 0.205017 0.205017C0.0737416 0.336293 0 0.514361 0 0.700012V12.888C0 13.0737 0.0737416 13.2517 0.205017 13.383C0.336293 13.5142 0.514361 13.588 0.700012 13.588H6.091V16.682C6.11351 18.6066 6.89384 20.4447 8.26276 21.7977C9.63167 23.1507 11.4788 23.9095 13.4035 23.9095C15.3282 23.9095 17.1753 23.1507 18.5443 21.7977C19.9132 20.4447 20.6935 18.6066 20.716 16.682V9.763C21.5866 9.5577 22.3562 9.05029 22.888 8.33099C23.6088 7.33841 23.997 6.14319 23.997 4.9165C23.997 3.68981 23.6088 2.4946 22.888 1.50201L22.891 1.50699ZM1.40601 1.40701H12.187V12.188H1.40601V1.40701ZM21.781 7.474C21.5907 7.76916 21.3295 8.01188 21.0211 8.17996C20.7128 8.34804 20.3672 8.43613 20.016 8.43613C19.6648 8.43613 19.3193 8.34804 19.0109 8.17996C18.7026 8.01188 18.4413 7.76916 18.251 7.474C17.7227 6.72863 17.439 5.8376 17.439 4.92401C17.439 4.01042 17.7227 3.11937 18.251 2.37399C18.4413 2.07883 18.7026 1.83611 19.0109 1.66803C19.3193 1.49995 19.6648 1.4119 20.016 1.4119C20.3672 1.4119 20.7128 1.49995 21.0211 1.66803C21.3295 1.83611 21.5907 2.07883 21.781 2.37399C22.3093 3.11937 22.593 4.01042 22.593 4.92401C22.593 5.8376 22.3093 6.72863 21.781 7.474Z" fill="#B9B81D"/>
<path d="M10.5081 15.6177C10.1125 16.0137 9.89038 16.5505 9.89038 17.1102C9.89038 17.6699 10.1125 18.2067 10.5081 18.6027L12.908 20.9837C12.973 21.0487 13.0502 21.1003 13.1351 21.1355C13.2201 21.1706 13.3111 21.1887 13.403 21.1887C13.4949 21.1887 13.586 21.1706 13.671 21.1355C13.7559 21.1003 13.833 21.0487 13.898 20.9837L16.298 18.6007C16.1432 18.0048 15.8644 17.4483 15.4797 16.9676C15.095 16.4869 14.6131 16.0929 14.0656 15.8113C13.518 15.5297 12.9173 15.3669 12.3025 15.3336C11.6877 15.3002 11.0728 15.397 10.498 15.6177H10.5081ZM14.3151 16.6117C14.4466 16.4791 14.6254 16.4042 14.8122 16.4035C14.999 16.4027 15.1784 16.4762 15.311 16.6077C15.4436 16.7393 15.5185 16.9181 15.5193 17.1049C15.52 17.2917 15.4466 17.4711 15.3151 17.6037L13.4091 19.4937L11.509 17.6057C11.3772 17.4739 11.3032 17.2951 11.3032 17.1087C11.3032 16.9223 11.3772 16.7435 11.509 16.6117C11.6408 16.4799 11.8196 16.4058 12.006 16.4058C12.1925 16.4058 12.3712 16.4799 12.5031 16.6117L12.915 17.0237C12.9801 17.0893 13.0575 17.1414 13.1428 17.177C13.2281 17.2125 13.3196 17.2308 13.412 17.2308C13.5045 17.2308 13.5959 17.2125 13.6812 17.177C13.7665 17.1414 13.844 17.0893 13.9091 17.0237L14.3151 16.6117Z" fill="#B9B81D"/>
<path d="M10.781 6.79652C10.781 6.00856 10.5473 5.23828 10.1095 4.58311C9.67175 3.92795 9.04954 3.41731 8.32156 3.11577C7.59357 2.81423 6.79256 2.73533 6.01974 2.88905C5.24692 3.04278 4.53705 3.42224 3.97988 3.97942C3.42271 4.53659 3.04327 5.24645 2.88955 6.01927C2.73583 6.79209 2.81469 7.59314 3.11623 8.32112C3.41777 9.0491 3.92841 9.67132 4.58358 10.1091C5.23874 10.5469 6.009 10.7805 6.79696 10.7805C7.85317 10.7792 8.86577 10.359 9.61263 9.61217C10.3595 8.86531 10.7796 7.85274 10.781 6.79652ZM4.21896 6.79652C4.21896 6.28664 4.37019 5.78819 4.65346 5.36424C4.93674 4.94029 5.33932 4.60987 5.81039 4.41475C6.28145 4.21963 6.79981 4.16858 7.29989 4.26805C7.79997 4.36752 8.25936 4.61305 8.6199 4.97359C8.98044 5.33413 9.22599 5.79348 9.32546 6.29356C9.42493 6.79365 9.37386 7.312 9.17873 7.78306C8.98361 8.25413 8.65316 8.65677 8.22921 8.94005C7.80526 9.22332 7.30684 9.37453 6.79696 9.37453C6.11347 9.37373 5.45823 9.10184 4.97494 8.61854C4.49164 8.13525 4.21975 7.48001 4.21896 6.79652Z" fill="#B9B81D"/>
<path d="M7.5 6.7973V5.85632C7.5 5.66988 7.42591 5.49106 7.29407 5.35922C7.16223 5.22738 6.98344 5.15332 6.797 5.15332C6.61055 5.15332 6.43176 5.22738 6.29993 5.35922C6.16809 5.49106 6.09399 5.66988 6.09399 5.85632V6.79431C6.09399 6.98076 6.16809 7.15957 6.29993 7.29141C6.43176 7.42325 6.61055 7.49731 6.797 7.49731C6.98344 7.49731 7.16223 7.42325 7.29407 7.29141C7.42591 7.15957 7.5 6.98076 7.5 6.79431V6.7973Z" fill="#B9B81D"/>
</svg>
