<svg width="24" height="18" viewBox="0 0 24 18" fill="none" xmlns="http://www.w3.org/2000/svg">
<path d="M23.063 8.90312C23.311 8.90312 23.5489 8.80482 23.7245 8.62975C23.9001 8.45467 23.9992 8.21711 24 7.96912V5.34712C23.9991 4.82524 23.8529 4.31392 23.5779 3.87037C23.3029 3.42682 22.9099 3.06855 22.4429 2.83566C21.9758 2.60276 21.4532 2.50443 20.9335 2.55167C20.4137 2.5989 19.9174 2.78985 19.5 3.10313L19.476 3.12112L16.599 5.59812V4.45313C16.5979 3.45802 16.2018 2.50406 15.4977 1.80088C14.7936 1.09771 13.8391 0.702859 12.844 0.703125H3.75C2.75576 0.704184 1.80255 1.09961 1.09952 1.80264C0.396487 2.50567 0.00105883 3.45889 0 4.45313L0 13.5471C0.00105883 14.5414 0.396487 15.4946 1.09952 16.1976C1.80255 16.9006 2.75576 17.2961 3.75 17.2971H12.844C13.8382 17.2961 14.7914 16.9006 15.4945 16.1976C16.1975 15.4946 16.5929 14.5414 16.594 13.5471V12.4471L19.448 14.9031L19.496 14.9411C19.913 15.2552 20.4092 15.4471 20.929 15.4952C21.4488 15.5433 21.9718 15.4457 22.4393 15.2134C22.9068 14.9811 23.3005 14.6232 23.5761 14.1799C23.8517 13.7365 23.9985 13.2252 24 12.7031C23.9921 12.4598 23.8898 12.2291 23.7148 12.0597C23.5399 11.8904 23.306 11.7957 23.0625 11.7957C22.819 11.7957 22.5851 11.8904 22.4102 12.0597C22.2352 12.2291 22.1329 12.4598 22.125 12.7031C22.1252 12.8753 22.0779 13.0442 21.9884 13.1913C21.8989 13.3384 21.7706 13.458 21.6176 13.5369C21.4646 13.6159 21.2927 13.6511 21.121 13.6388C20.9492 13.6265 20.7842 13.5671 20.644 13.4671L16.594 9.98013V8.07012L20.644 4.58312C20.7842 4.48315 20.9492 4.42375 21.121 4.41144C21.2927 4.39912 21.4646 4.43436 21.6176 4.51331C21.7706 4.59225 21.8989 4.71183 21.9884 4.85892C22.0779 5.00602 22.1252 5.17493 22.125 5.34712V7.96912C22.1258 8.21728 22.225 8.45499 22.4009 8.6301C22.5767 8.8052 22.8148 8.90339 23.063 8.90312ZM12.844 15.4221H3.75C3.25288 15.4216 2.77628 15.2239 2.42476 14.8724C2.07324 14.5209 1.87553 14.0442 1.875 13.5471V4.45313C1.87553 3.95601 2.07324 3.4794 2.42476 3.12788C2.77628 2.77637 3.25288 2.57865 3.75 2.57813H12.844C13.3411 2.57865 13.8177 2.77637 14.1692 3.12788C14.5208 3.4794 14.7185 3.95601 14.719 4.45313V13.5471C14.7185 14.0442 14.5208 14.5209 14.1692 14.8724C13.8177 15.2239 13.3411 15.4216 12.844 15.4221Z" fill="#B9B81D"/>
</svg>
