<svg width="25" height="30" viewBox="0 0 25 30" fill="none" xmlns="http://www.w3.org/2000/svg">
<path d="M18.36 6.79712H17.188V5.62512C17.188 5.31429 17.0645 5.01618 16.8447 4.79639C16.6249 4.57659 16.3268 4.45312 16.016 4.45312C15.7052 4.45312 15.407 4.57659 15.1873 4.79639C14.9675 5.01618 14.844 5.31429 14.844 5.62512V7.96912C14.844 8.27995 14.9675 8.57806 15.1873 8.79785C15.407 9.01764 15.7052 9.14111 16.016 9.14111H18.36C18.6708 9.14111 18.9689 9.01764 19.1887 8.79785C19.4085 8.57806 19.532 8.27995 19.532 7.96912C19.532 7.65828 19.4085 7.36017 19.1887 7.14038C18.9689 6.92059 18.6708 6.79712 18.36 6.79712Z" fill="#06103B"/>
<path d="M18.359 30C19.9123 29.9981 21.4015 29.3803 22.4999 28.2819C23.5983 27.1835 24.2162 25.6943 24.218 24.141V5.85901C24.2162 4.30567 23.5983 2.81648 22.4999 1.71811C21.4015 0.619735 19.9123 0.00185252 18.359 0H6.64001C5.08668 0.00185252 3.59746 0.619735 2.49908 1.71811C1.40071 2.81648 0.782858 4.30567 0.781006 5.85901V24.14C0.782594 25.6935 1.40038 27.1829 2.49878 28.2815C3.59718 29.3801 5.08651 29.9981 6.64001 30H18.359ZM3.125 24.141V5.85901C3.12606 4.92683 3.49686 4.03314 4.15601 3.37399C4.81515 2.71484 5.70882 2.34405 6.64099 2.34299H18.36C19.2922 2.34405 20.1859 2.71484 20.845 3.37399C21.5042 4.03314 21.8749 4.92683 21.876 5.85901V24.14C21.8749 25.0722 21.5042 25.9659 20.845 26.625C20.1859 27.2842 19.2922 27.6549 18.36 27.656H6.64001C5.70784 27.6549 4.81412 27.2842 4.15497 26.625C3.49582 25.9659 3.12508 25.0722 3.12402 24.14L3.125 24.141Z" fill="#06103B"/>
<path d="M11.328 13.8284H18.356C18.6669 13.8284 18.965 13.7049 19.1848 13.4851C19.4045 13.2653 19.528 12.9672 19.528 12.6564C19.528 12.3455 19.4045 12.0474 19.1848 11.8276C18.965 11.6078 18.6669 11.4844 18.356 11.4844H11.325C11.0142 11.4844 10.7161 11.6078 10.4963 11.8276C10.2765 12.0474 10.153 12.3455 10.153 12.6564C10.153 12.9672 10.2765 13.2653 10.4963 13.4851C10.7161 13.7049 11.0142 13.8284 11.325 13.8284H11.328Z" fill="#06103B"/>
<path d="M11.328 18.5159H18.356C18.6669 18.5159 18.965 18.3924 19.1848 18.1726C19.4045 17.9528 19.528 17.6547 19.528 17.3439C19.528 17.033 19.4045 16.7349 19.1848 16.5151C18.965 16.2953 18.6669 16.1719 18.356 16.1719H11.325C11.0142 16.1719 10.7161 16.2953 10.4963 16.5151C10.2765 16.7349 10.153 17.033 10.153 17.3439C10.153 17.6547 10.2765 17.9528 10.4963 18.1726C10.7161 18.3924 11.0142 18.5159 11.325 18.5159H11.328Z" fill="#06103B"/>
<path d="M11.328 23.2034H18.356C18.6669 23.2034 18.965 23.0799 19.1848 22.8601C19.4045 22.6403 19.528 22.3422 19.528 22.0314C19.528 21.7205 19.4045 21.4224 19.1848 21.2026C18.965 20.9828 18.6669 20.8594 18.356 20.8594H11.325C11.0142 20.8594 10.7161 20.9828 10.4963 21.2026C10.2765 21.4224 10.153 21.7205 10.153 22.0314C10.153 22.3422 10.2765 22.6403 10.4963 22.8601C10.7161 23.0799 11.0142 23.2034 11.325 23.2034H11.328Z" fill="#06103B"/>
<path d="M7.81298 12.6564C7.81298 12.8882 7.74425 13.1148 7.61547 13.3075C7.48669 13.5002 7.30363 13.6505 7.08947 13.7392C6.87532 13.8279 6.63969 13.8511 6.41235 13.8058C6.185 13.7606 5.97616 13.649 5.81225 13.4851C5.64834 13.3212 5.53673 13.1124 5.49151 12.885C5.44629 12.6577 5.46952 12.422 5.55822 12.2079C5.64693 11.9937 5.79713 11.8107 5.98986 11.6819C6.1826 11.5531 6.40919 11.4844 6.64098 11.4844C6.95182 11.4844 7.24993 11.6078 7.46972 11.8276C7.68951 12.0474 7.81298 12.3455 7.81298 12.6564Z" fill="#06103B"/>
<path d="M7.81298 17.3439C7.81298 17.5757 7.74425 17.8023 7.61547 17.995C7.48669 18.1877 7.30363 18.3379 7.08947 18.4266C6.87532 18.5153 6.63969 18.5386 6.41235 18.4933C6.185 18.4481 5.97616 18.3365 5.81225 18.1726C5.64834 18.0087 5.53673 17.7999 5.49151 17.5725C5.44629 17.3452 5.46952 17.1095 5.55822 16.8954C5.64693 16.6812 5.79713 16.4982 5.98986 16.3694C6.1826 16.2406 6.40919 16.1719 6.64098 16.1719C6.95182 16.1719 7.24993 16.2953 7.46972 16.5151C7.68951 16.7349 7.81298 17.033 7.81298 17.3439Z" fill="#06103B"/>
<path d="M7.81298 22.0314C7.81298 22.2632 7.74425 22.4898 7.61547 22.6825C7.48669 22.8752 7.30363 23.0254 7.08947 23.1141C6.87532 23.2028 6.63969 23.2261 6.41235 23.1808C6.185 23.1356 5.97616 23.024 5.81225 22.8601C5.64834 22.6962 5.53673 22.4874 5.49151 22.26C5.44629 22.0327 5.46952 21.797 5.55822 21.5829C5.64693 21.3687 5.79713 21.1857 5.98986 21.0569C6.1826 20.9281 6.40919 20.8594 6.64098 20.8594C6.95182 20.8594 7.24993 20.9828 7.46972 21.2026C7.68951 21.4224 7.81298 21.7205 7.81298 22.0314Z" fill="#06103B"/>
</svg>
