<svg width="25" height="25" viewBox="0 0 25 25" fill="none" xmlns="http://www.w3.org/2000/svg">
<g clip-path="url(#clip0_1718_251)">
<path d="M24.6292 11.5981L20.9757 8.36639C20.5539 7.99546 19.8629 8.04627 19.492 8.4731C19.121 8.89485 19.1718 9.58591 19.5987 9.95684L21.2399 11.4406H16.3161C15.7318 11.4406 15.2542 11.9182 15.2542 12.5026C15.2542 13.0869 15.7318 13.5646 16.3161 13.5646H21.1231L19.5987 14.9416C19.121 15.3633 19.121 16.0036 19.492 16.4253C19.8883 16.8877 20.5285 16.8877 20.9757 16.532L24.6292 13.1936C24.8934 12.9802 25.0001 12.716 25.0001 12.4009C25.0001 12.0757 24.8426 11.8064 24.6292 11.5981Z" fill="#455A64" fill-opacity="0.5"/>
<path d="M8.73984 11.4354H3.84654L5.40142 10.0584C5.87906 9.63667 5.87906 8.99642 5.50813 8.57468C5.08638 8.15293 4.44614 8.09703 4.02439 8.46797L0.370935 11.6997C0.101626 11.9131 0 12.1773 0 12.4974C0 12.8176 0.15752 13.0818 0.370935 13.2901L4.02439 16.5218C4.69512 17.0554 5.3252 16.7251 5.50813 16.471C5.87906 16.0493 5.82825 15.3582 5.40142 14.9873L3.82114 13.5594H8.68902C9.27337 13.5594 9.80183 13.0818 9.80183 12.4974C9.80183 11.9131 9.31911 11.4354 8.73984 11.4354Z" fill="#455A64" fill-opacity="0.5"/>
<path d="M12.5 0.0482788C11.9156 0.0482788 11.438 0.525921 11.438 1.11027V23.8897C11.438 24.4741 11.9156 24.9517 12.5 24.9517C13.0843 24.9517 13.562 24.4741 13.562 23.9456V1.11027C13.562 0.525921 13.0843 0.0482788 12.5 0.0482788Z" fill="#455A64" fill-opacity="0.5"/>
</g>
<defs>
<clipPath id="clip0_1718_251">
<rect width="25" height="25" fill="white"/>
</clipPath>
</defs>
</svg>
