<svg width="44" height="44" viewBox="0 0 44 44" fill="none" xmlns="http://www.w3.org/2000/svg">
<path d="M22.2901 0.546875C17.9963 0.546875 13.7988 1.82014 10.2287 4.20567C6.65847 6.5912 3.87584 9.98183 2.23266 13.9488C0.589485 17.9158 0.159554 22.281 0.997239 26.4923C1.83492 30.7036 3.9026 34.572 6.9388 37.6082C9.975 40.6444 13.8433 42.712 18.0547 43.5497C22.266 44.3874 26.6312 43.9575 30.5981 42.3143C34.5651 40.6711 37.9558 37.8885 40.3413 34.3183C42.7268 30.7481 44.0001 26.5507 44.0001 22.2569C44.0001 16.499 41.7128 10.977 37.6414 6.90559C33.57 2.83417 28.0479 0.546875 22.2901 0.546875V0.546875ZM22.2901 41.2539C18.5322 41.2539 14.8588 40.1395 11.7343 38.0518C8.60972 35.9641 6.17444 32.9967 4.73638 29.5249C3.29831 26.0531 2.92205 22.2328 3.65517 18.5472C4.38829 14.8615 6.19786 11.476 8.85506 8.81885C11.5123 6.16165 14.8977 4.35207 18.5834 3.61895C22.269 2.88584 26.0893 3.2621 29.5611 4.70016C33.0329 6.13823 36.0003 8.57351 38.088 11.698C40.1758 14.8226 41.2901 18.496 41.2901 22.2539C41.2901 27.293 39.2883 32.1257 35.7251 35.6889C32.1619 39.2521 27.3292 41.2539 22.2901 41.2539Z" fill="white"/>
<path d="M15.4971 18.1109C16.959 18.1109 18.1441 16.9258 18.1441 15.4639C18.1441 14.002 16.959 12.8169 15.4971 12.8169C14.0352 12.8169 12.8501 14.002 12.8501 15.4639C12.8501 16.9258 14.0352 18.1109 15.4971 18.1109Z" fill="white"/>
<path d="M29.091 18.1109C30.6191 18.1109 31.858 16.9258 31.858 15.4639C31.858 14.002 30.6191 12.8169 29.091 12.8169C27.5628 12.8169 26.324 14.002 26.324 15.4639C26.324 16.9258 27.5628 18.1109 29.091 18.1109Z" fill="white"/>
<path d="M33.0641 26.7798C32.6768 26.2227 32.1604 25.7675 31.559 25.4531C30.9577 25.1388 30.2892 24.9746 29.6106 24.9746C28.932 24.9746 28.2635 25.1388 27.6622 25.4531C27.0608 25.7675 26.5444 26.2227 26.1571 26.7798C25.5331 27.4718 25.2891 27.6888 24.7191 27.6888C24.1491 27.6888 23.9051 27.4718 23.2811 26.7798C22.8952 26.2229 22.3801 25.7678 21.7799 25.4534C21.1796 25.1391 20.5122 24.9749 19.8346 24.9749C19.157 24.9749 18.4896 25.1391 17.8893 25.4534C17.2891 25.7678 16.774 26.2229 16.3881 26.7798C15.7641 27.4718 15.5201 27.6888 14.9501 27.6888C14.3801 27.6888 14.1361 27.4718 13.5251 26.7798C13.1286 26.2341 12.6112 25.7877 12.0134 25.4754C11.4155 25.1631 10.7535 24.9935 10.0791 24.9798V27.6798C10.6491 27.6798 10.8931 27.8968 11.5171 28.5888C11.903 29.1458 12.4181 29.6009 13.0183 29.9152C13.6186 30.2296 14.286 30.3938 14.9636 30.3938C15.6412 30.3938 16.3086 30.2296 16.9089 29.9152C17.5091 29.6009 18.0242 29.1458 18.4101 28.5888C19.0341 27.8968 19.2781 27.6798 19.8481 27.6798C20.4181 27.6798 20.6621 27.8968 21.2861 28.5888C21.6734 29.146 22.1898 29.6012 22.7912 29.9155C23.3925 30.2299 24.061 30.394 24.7396 30.394C25.4182 30.394 26.0867 30.2299 26.688 29.9155C27.2894 29.6012 27.8058 29.146 28.1931 28.5888C28.8171 27.8968 29.0611 27.6798 29.6311 27.6798C30.2011 27.6798 30.4451 27.8968 31.0691 28.5888C31.4643 29.1328 31.9796 29.5782 32.5751 29.8904C33.1705 30.2026 33.83 30.3732 34.5021 30.3888V27.6798C33.9321 27.6798 33.6881 27.4678 33.0641 26.7798Z" fill="white"/>
</svg>
