<svg width="15" height="14" viewBox="0 0 15 14" fill="none" xmlns="http://www.w3.org/2000/svg">
<path d="M7.64505 0.706055C6.3304 0.706055 5.04528 1.09588 3.95218 1.82626C2.85909 2.55665 2.00713 3.59478 1.50403 4.80936C1.00094 6.02394 0.869291 7.36042 1.12577 8.64981C1.38224 9.9392 2.01532 11.1236 2.94492 12.0532C3.87452 12.9828 5.05888 13.6159 6.34827 13.8723C7.63766 14.1288 8.97417 13.9972 10.1888 13.4941C11.4033 12.991 12.4414 12.139 13.1718 11.0459C13.9022 9.95284 14.2921 8.66771 14.2921 7.35306C14.2899 5.59081 13.5889 3.90134 12.3428 2.65524C11.0967 1.40915 9.4073 0.708172 7.64505 0.706055ZM7.64505 13.282C6.33115 13.2803 5.0549 12.8429 4.01609 12.0384C2.97727 11.2339 2.23452 10.1077 1.90406 8.83606H13.3861C13.0557 10.1078 12.313 11.2341 11.2742 12.0386C10.2353 12.8432 8.959 13.2804 7.64505 13.282ZM2.12204 5.19705C2.54381 4.12153 3.27044 3.19258 4.21274 2.52423C5.15504 1.85588 6.27201 1.4772 7.42649 1.43472C8.58096 1.39224 9.72271 1.6878 10.7116 2.2851C11.7004 2.88239 12.4934 3.75545 12.993 4.79706C13.0557 4.93039 13.1137 5.06372 13.1671 5.19705H2.12204ZM10.5861 7.01605C10.5861 7.15826 10.5439 7.29726 10.4649 7.4155C10.3859 7.53374 10.2736 7.62591 10.1422 7.68033C10.0108 7.73475 9.86625 7.749 9.72678 7.72125C9.58731 7.69351 9.4592 7.62503 9.35865 7.52448C9.25809 7.42392 9.18961 7.29578 9.16187 7.15631C9.13413 7.01684 9.14837 6.87229 9.20279 6.74091C9.25721 6.60953 9.34935 6.49722 9.46759 6.41821C9.58583 6.33921 9.72483 6.29706 9.86704 6.29706C10.0577 6.29706 10.2406 6.37282 10.3755 6.50766C10.5103 6.6425 10.5861 6.82536 10.5861 7.01605ZM6.14005 7.01605C6.14005 7.15826 6.09787 7.29726 6.01886 7.4155C5.93986 7.53374 5.82758 7.62591 5.6962 7.68033C5.56482 7.73475 5.42024 7.749 5.28077 7.72125C5.14129 7.69351 5.01319 7.62503 4.91263 7.52448C4.81208 7.42392 4.7436 7.29578 4.71585 7.15631C4.68811 7.01684 4.70236 6.87229 4.75678 6.74091C4.8112 6.60953 4.90337 6.49722 5.02161 6.41821C5.13985 6.33921 5.27885 6.29706 5.42105 6.29706C5.61175 6.29706 5.79461 6.37282 5.92945 6.50766C6.06429 6.6425 6.14005 6.82536 6.14005 7.01605Z" fill="#B9B81D"/>
<path d="M6.53897 4.85117L4.12598 4.23517L4.30399 3.53516L6.71698 4.15115L6.53897 4.85117Z" fill="#B9B81D"/>
<path d="M8.74683 4.85117L8.56885 4.15115L10.9819 3.53516L11.1599 4.23517L8.74683 4.85117Z" fill="#B9B81D"/>
<path d="M9.98801 9.93616C10.5686 9.85664 11.1586 9.98563 11.653 10.3002L12.038 9.69318C11.6276 9.43203 11.1628 9.26818 10.6794 9.21411C10.1959 9.16004 9.7064 9.2172 9.24838 9.38123C8.79037 9.54525 8.37593 9.81176 8.03668 10.1605C7.69744 10.5092 7.44238 10.9308 7.29102 11.3932L7.97403 11.6172C8.12012 11.1772 8.38597 10.7866 8.74173 10.4893C9.09749 10.192 9.52905 9.99981 9.98801 9.9342V9.93616Z" fill="#B9B81D"/>
</svg>
