<svg width="26" height="26" viewBox="0 0 26 26" fill="none" xmlns="http://www.w3.org/2000/svg">
<path d="M23.714 0H14.472C13.8662 0.000793767 13.2855 0.241787 12.8571 0.670135C12.4288 1.09848 12.1878 1.67923 12.187 2.285V8.42999C12.1878 9.03577 12.4288 9.61651 12.8571 10.0449C13.2855 10.4732 13.8662 10.7142 14.472 10.715H15.285V13C15.2851 13.1506 15.3299 13.2977 15.4135 13.4229C15.4972 13.548 15.6161 13.6456 15.7552 13.7033C15.8942 13.7609 16.0473 13.7761 16.195 13.7469C16.3427 13.7176 16.4784 13.6453 16.585 13.539L19.409 10.715H23.715C24.3208 10.7142 24.9015 10.4732 25.3299 10.0449C25.7582 9.61651 25.9992 9.03577 26 8.42999V2.285C25.9992 1.67905 25.7581 1.09818 25.3295 0.6698C24.901 0.241423 24.32 0.000529156 23.714 0ZM24.476 8.42999C24.4757 8.63201 24.3954 8.82569 24.2525 8.96854C24.1097 9.11138 23.916 9.19172 23.714 9.19199H19.093C18.8912 9.19204 18.6977 9.27228 18.555 9.41501L16.808 11.162V9.95401C16.808 9.75191 16.7277 9.55809 16.5848 9.41519C16.4419 9.27229 16.2481 9.19199 16.046 9.19199H14.472C14.27 9.19172 14.0763 9.11138 13.9335 8.96854C13.7907 8.82569 13.7103 8.63201 13.71 8.42999V2.285C13.7103 2.08299 13.7907 1.88934 13.9335 1.74649C14.0763 1.60365 14.27 1.52327 14.472 1.52301H23.714C23.916 1.52327 24.1097 1.60365 24.2525 1.74649C24.3954 1.88934 24.4757 2.08299 24.476 2.285V8.42999Z" fill="#B9B81D"/>
<path d="M20.079 4.08288L18.332 5.82988L17.732 5.22988C17.5876 5.09503 17.3965 5.02154 17.1989 5.02492C17.0014 5.0283 16.8129 5.10829 16.6731 5.24801C16.5334 5.38772 16.4534 5.57624 16.4501 5.77379C16.4467 5.97135 16.5202 6.16247 16.655 6.30687L17.798 7.44988C17.8687 7.52066 17.9526 7.57682 18.045 7.61513C18.1374 7.65345 18.2365 7.67318 18.3365 7.67318C18.4366 7.67318 18.5356 7.65345 18.628 7.61513C18.7204 7.57682 18.8044 7.52066 18.8751 7.44988L21.16 5.16488C21.2949 5.02047 21.3684 4.82935 21.365 4.63179C21.3616 4.43424 21.2816 4.24572 21.1419 4.10601C21.0022 3.9663 20.8137 3.8863 20.6161 3.88292C20.4186 3.87954 20.2275 3.95303 20.0831 4.08788L20.079 4.08288Z" fill="#B9B81D"/>
<path d="M1.52301 22.1884V25.2373C1.52301 25.4394 1.60328 25.6333 1.74619 25.7762C1.88909 25.9191 2.08291 25.9993 2.285 25.9993H11.426C11.5859 25.9994 11.7419 25.9491 11.8716 25.8556C12.0014 25.7621 12.0984 25.6301 12.149 25.4783L12.991 22.9514C13.4638 22.9434 13.9226 22.7888 14.3037 22.5089C14.6849 22.229 14.9698 21.8376 15.119 21.3889C15.2681 20.9401 15.2743 20.4561 15.1365 20.0037C14.9988 19.5513 14.724 19.1528 14.35 18.8633L15.196 16.2834C15.2336 16.1689 15.2436 16.0471 15.225 15.9281C15.2065 15.809 15.16 15.6961 15.0893 15.5985C15.0187 15.5009 14.9259 15.4214 14.8186 15.3667C14.7113 15.3119 14.5925 15.2833 14.472 15.2834H13.634C13.4573 14.4237 12.9897 13.6512 12.3098 13.0962C11.63 12.5412 10.7796 12.2375 9.90201 12.2363H3.80801C2.79796 12.2377 1.82969 12.6397 1.11575 13.3542C0.401816 14.0687 0.000529925 15.0373 9.96386e-07 16.0473V19.1473C-0.000426966 19.7384 0.137013 20.3213 0.401399 20.8499C0.665785 21.3785 1.04984 21.8382 1.52301 22.1924V22.1884ZM3.04599 22.8753C3.29675 22.9266 3.55207 22.9524 3.80801 22.9523H5.28601L4.78101 24.4753H3.04599V22.8753ZM6.38599 24.4753L8.92801 16.8073H13.42L12.904 18.3813H11.425C11.2229 18.3813 11.0291 18.4616 10.8862 18.6045C10.7433 18.7474 10.663 18.9412 10.663 19.1433V22.1884C10.663 22.3833 10.7378 22.5708 10.8719 22.7122C11.0061 22.8536 11.1894 22.9381 11.384 22.9483L10.875 24.4743L6.38599 24.4753ZM12.948 21.4283H12.186V19.9053H12.948C13.1452 19.9125 13.3319 19.9959 13.4689 20.1379C13.6058 20.2799 13.6824 20.4695 13.6824 20.6668C13.6824 20.8642 13.6058 21.0538 13.4689 21.1958C13.3319 21.3378 13.1452 21.4212 12.948 21.4283ZM1.522 16.0453C1.5228 15.4396 1.76379 14.8588 2.19214 14.4305C2.62049 14.0021 3.20123 13.7611 3.80701 13.7603H9.89999C10.3723 13.761 10.8328 13.9077 11.2185 14.1803C11.6041 14.453 11.8959 14.8383 12.054 15.2834H8.37601C8.21594 15.2834 8.05995 15.3339 7.93018 15.4276C7.8004 15.5212 7.70343 15.6534 7.65302 15.8053L6.79901 18.3813H4.57001V16.0453C4.56286 15.8482 4.47949 15.6614 4.33746 15.5244C4.19544 15.3875 4.00582 15.3109 3.8085 15.3109C3.61119 15.3109 3.42157 15.3875 3.27954 15.5244C3.13751 15.6614 3.05414 15.8482 3.047 16.0453V19.1454C3.047 19.3475 3.12727 19.5412 3.27017 19.6841C3.41308 19.827 3.6069 19.9073 3.80899 19.9073H6.29999L5.79501 21.4303H3.81201C3.20624 21.4295 2.62549 21.1885 2.19714 20.7602C1.7688 20.3318 1.5278 19.7511 1.52701 19.1454L1.522 16.0453Z" fill="#B9B81D"/>
<path d="M10.6639 8.43009C10.6639 7.67674 10.4405 6.94033 10.022 6.31394C9.60344 5.68755 9.00857 5.19934 8.31257 4.91105C7.61656 4.62275 6.8507 4.54731 6.11182 4.69428C5.37295 4.84125 4.69423 5.20403 4.16154 5.73673C3.62884 6.26943 3.26606 6.94811 3.11909 7.68699C2.97211 8.42586 3.04756 9.19173 3.33585 9.88773C3.62415 10.5837 4.11236 11.1786 4.73875 11.5972C5.36513 12.0157 6.10158 12.2391 6.85493 12.2391C7.86481 12.2381 8.83303 11.8364 9.54713 11.1223C10.2612 10.4082 10.6629 9.43997 10.6639 8.43009ZM6.85493 10.7151C6.403 10.7151 5.96119 10.5811 5.58542 10.33C5.20966 10.0789 4.91679 9.72207 4.74384 9.30454C4.5709 8.88701 4.52564 8.42757 4.61381 7.98432C4.70197 7.54107 4.91961 7.13393 5.23917 6.81437C5.55874 6.4948 5.96588 6.27717 6.40912 6.189C6.85237 6.10083 7.31182 6.14609 7.72935 6.31904C8.14687 6.49198 8.50375 6.78485 8.75483 7.16062C9.00591 7.53639 9.1399 7.97816 9.1399 8.43009C9.1391 9.03587 8.89811 9.61661 8.46976 10.045C8.04141 10.4733 7.4607 10.7143 6.85493 10.7151Z" fill="#B9B81D"/>
</svg>
